G04 #@! TF.GenerationSoftware,KiCad,Pcbnew,5.1.5+dfsg1-2build2*
G04 #@! TF.CreationDate,2024-05-29T18:28:51+01:00*
G04 #@! TF.ProjectId,qt_touch1,71745f74-6f75-4636-9831-2e6b69636164,rev?*
G04 #@! TF.SameCoordinates,Original*
G04 #@! TF.FileFunction,Copper,L1,Top*
G04 #@! TF.FilePolarity,Positive*
%FSLAX46Y46*%
G04 Gerber Fmt 4.6, Leading zero omitted, Abs format (unit mm)*
G04 Created by KiCad (PCBNEW 5.1.5+dfsg1-2build2) date 2024-05-29 18:28:51*
%MOMM*%
%LPD*%
G04 APERTURE LIST*
%ADD10R,5.000000X1.000000*%
%ADD11R,1.000000X5.000000*%
%ADD12R,5.000000X0.250000*%
%ADD13R,0.250000X5.000000*%
%ADD14C,3.500000*%
%ADD15C,0.600000*%
%ADD16C,0.800000*%
%ADD17C,0.250000*%
%ADD18C,0.500000*%
G04 APERTURE END LIST*
D10*
X141600000Y-112700000D03*
X144700000Y-112700000D03*
X138500000Y-112700000D03*
D11*
X146800000Y-110700000D03*
X136000000Y-110700000D03*
X136000000Y-105200000D03*
X146800000Y-105200000D03*
X136000000Y-107700000D03*
X139600000Y-106200000D03*
X143200000Y-106200000D03*
X146800000Y-107700000D03*
D12*
X140200000Y-110200000D03*
X142600000Y-110200000D03*
D13*
X141400000Y-108600000D03*
X137800000Y-107700000D03*
X145000000Y-107700000D03*
D10*
X138900000Y-103200000D03*
X144000000Y-103200000D03*
X141400000Y-103200000D03*
D13*
X141400000Y-107700000D03*
D10*
X134100000Y-97700000D03*
X137200000Y-97700000D03*
X131000000Y-97700000D03*
D11*
X139300000Y-95700000D03*
X128500000Y-95700000D03*
X128500000Y-90200000D03*
X139300000Y-90200000D03*
X128500000Y-92700000D03*
X132100000Y-91200000D03*
X135700000Y-91200000D03*
X139300000Y-92700000D03*
D12*
X132700000Y-95200000D03*
X135100000Y-95200000D03*
D13*
X133900000Y-93600000D03*
X130300000Y-92700000D03*
X137500000Y-92700000D03*
D10*
X131400000Y-88200000D03*
X136500000Y-88200000D03*
X133900000Y-88200000D03*
D13*
X133900000Y-92700000D03*
D10*
X134100000Y-67700000D03*
X137200000Y-67700000D03*
X131000000Y-67700000D03*
D11*
X139300000Y-65700000D03*
X128500000Y-65700000D03*
X128500000Y-60200000D03*
X139300000Y-60200000D03*
X128500000Y-62700000D03*
X132100000Y-61200000D03*
X135700000Y-61200000D03*
X139300000Y-62700000D03*
D12*
X132700000Y-65200000D03*
X135100000Y-65200000D03*
D13*
X133900000Y-63600000D03*
X130300000Y-62700000D03*
X137500000Y-62700000D03*
D10*
X131400000Y-58200000D03*
X136500000Y-58200000D03*
X133900000Y-58200000D03*
D13*
X133900000Y-62700000D03*
D10*
X126600000Y-112700000D03*
X129700000Y-112700000D03*
X123500000Y-112700000D03*
D11*
X131800000Y-110700000D03*
X121000000Y-110700000D03*
X121000000Y-105200000D03*
X131800000Y-105200000D03*
X121000000Y-107700000D03*
X124600000Y-106200000D03*
X128200000Y-106200000D03*
X131800000Y-107700000D03*
D12*
X125200000Y-110200000D03*
X127600000Y-110200000D03*
D13*
X126400000Y-108600000D03*
X122800000Y-107700000D03*
X130000000Y-107700000D03*
D10*
X123900000Y-103200000D03*
X129000000Y-103200000D03*
X126400000Y-103200000D03*
D13*
X126400000Y-107700000D03*
D10*
X126600000Y-82700000D03*
X129700000Y-82700000D03*
X123500000Y-82700000D03*
D11*
X131800000Y-80700000D03*
X121000000Y-80700000D03*
X121000000Y-75200000D03*
X131800000Y-75200000D03*
X121000000Y-77700000D03*
X124600000Y-76200000D03*
X128200000Y-76200000D03*
X131800000Y-77700000D03*
D12*
X125200000Y-80200000D03*
X127600000Y-80200000D03*
D13*
X126400000Y-78600000D03*
X122800000Y-77700000D03*
X130000000Y-77700000D03*
D10*
X123900000Y-73200000D03*
X129000000Y-73200000D03*
X126400000Y-73200000D03*
D13*
X126400000Y-77700000D03*
D10*
X119100000Y-97700000D03*
X122200000Y-97700000D03*
X116000000Y-97700000D03*
D11*
X124300000Y-95700000D03*
X113500000Y-95700000D03*
X113500000Y-90200000D03*
X124300000Y-90200000D03*
X113500000Y-92700000D03*
X117100000Y-91200000D03*
X120700000Y-91200000D03*
X124300000Y-92700000D03*
D12*
X117700000Y-95200000D03*
X120100000Y-95200000D03*
D13*
X118900000Y-93600000D03*
X115300000Y-92700000D03*
X122500000Y-92700000D03*
D10*
X116400000Y-88200000D03*
X121500000Y-88200000D03*
X118900000Y-88200000D03*
D13*
X118900000Y-92700000D03*
D10*
X119100000Y-67700000D03*
X122200000Y-67700000D03*
X116000000Y-67700000D03*
D11*
X124300000Y-65700000D03*
X113500000Y-65700000D03*
X113500000Y-60200000D03*
X124300000Y-60200000D03*
X113500000Y-62700000D03*
X117100000Y-61200000D03*
X120700000Y-61200000D03*
X124300000Y-62700000D03*
D12*
X117700000Y-65200000D03*
X120100000Y-65200000D03*
D13*
X118900000Y-63600000D03*
X115300000Y-62700000D03*
X122500000Y-62700000D03*
D10*
X116400000Y-58200000D03*
X121500000Y-58200000D03*
X118900000Y-58200000D03*
D13*
X118900000Y-62700000D03*
D10*
X111600000Y-112700000D03*
X114700000Y-112700000D03*
X108500000Y-112700000D03*
D11*
X116800000Y-110700000D03*
X106000000Y-110700000D03*
X106000000Y-105200000D03*
X116800000Y-105200000D03*
X106000000Y-107700000D03*
X109600000Y-106200000D03*
X113200000Y-106200000D03*
X116800000Y-107700000D03*
D12*
X110200000Y-110200000D03*
X112600000Y-110200000D03*
D13*
X111400000Y-108600000D03*
X107800000Y-107700000D03*
X115000000Y-107700000D03*
D10*
X108900000Y-103200000D03*
X114000000Y-103200000D03*
X111400000Y-103200000D03*
D13*
X111400000Y-107700000D03*
D10*
X206850000Y-97700000D03*
X209950000Y-97700000D03*
X203750000Y-97700000D03*
D11*
X212050000Y-95700000D03*
X201250000Y-95700000D03*
X201250000Y-90200000D03*
X212050000Y-90200000D03*
X201250000Y-92700000D03*
X204850000Y-91200000D03*
X208450000Y-91200000D03*
X212050000Y-92700000D03*
D12*
X205450000Y-95200000D03*
X207850000Y-95200000D03*
D13*
X206650000Y-93600000D03*
X203050000Y-92700000D03*
X210250000Y-92700000D03*
D10*
X204150000Y-88200000D03*
X209250000Y-88200000D03*
X206650000Y-88200000D03*
D13*
X206650000Y-92700000D03*
D10*
X111400000Y-82700000D03*
X114500000Y-82700000D03*
X108300000Y-82700000D03*
D11*
X116600000Y-80700000D03*
X105800000Y-80700000D03*
X105800000Y-75200000D03*
X116600000Y-75200000D03*
X105800000Y-77700000D03*
X109400000Y-76200000D03*
X113000000Y-76200000D03*
X116600000Y-77700000D03*
D12*
X110000000Y-80200000D03*
X112400000Y-80200000D03*
D13*
X111200000Y-78600000D03*
X107600000Y-77700000D03*
X114800000Y-77700000D03*
D10*
X108700000Y-73200000D03*
X113800000Y-73200000D03*
X111200000Y-73200000D03*
D13*
X111200000Y-77700000D03*
D10*
X104100000Y-97900000D03*
X107200000Y-97900000D03*
X101000000Y-97900000D03*
D11*
X109300000Y-95900000D03*
X98500000Y-95900000D03*
X98500000Y-90400000D03*
X109300000Y-90400000D03*
X98500000Y-92900000D03*
X102100000Y-91400000D03*
X105700000Y-91400000D03*
X109300000Y-92900000D03*
D12*
X102700000Y-95400000D03*
X105100000Y-95400000D03*
D13*
X103900000Y-93800000D03*
X100300000Y-92900000D03*
X107500000Y-92900000D03*
D10*
X101400000Y-88400000D03*
X106500000Y-88400000D03*
X103900000Y-88400000D03*
D13*
X103900000Y-92900000D03*
D10*
X216600000Y-82700000D03*
X219700000Y-82700000D03*
X213500000Y-82700000D03*
D11*
X221800000Y-80700000D03*
X211000000Y-80700000D03*
X211000000Y-75200000D03*
X221800000Y-75200000D03*
X211000000Y-77700000D03*
X214600000Y-76200000D03*
X218200000Y-76200000D03*
X221800000Y-77700000D03*
D12*
X215200000Y-80200000D03*
X217600000Y-80200000D03*
D13*
X216400000Y-78600000D03*
X212800000Y-77700000D03*
X220000000Y-77700000D03*
D10*
X213900000Y-73200000D03*
X219000000Y-73200000D03*
X216400000Y-73200000D03*
D13*
X216400000Y-77700000D03*
D10*
X104100000Y-67600000D03*
X107200000Y-67600000D03*
X101000000Y-67600000D03*
D11*
X109300000Y-65600000D03*
X98500000Y-65600000D03*
X98500000Y-60100000D03*
X109300000Y-60100000D03*
X98500000Y-62600000D03*
X102100000Y-61100000D03*
X105700000Y-61100000D03*
X109300000Y-62600000D03*
D12*
X102700000Y-65100000D03*
X105100000Y-65100000D03*
D13*
X103900000Y-63500000D03*
X100300000Y-62600000D03*
X107500000Y-62600000D03*
D10*
X101400000Y-58100000D03*
X106500000Y-58100000D03*
X103900000Y-58100000D03*
D13*
X103900000Y-62600000D03*
D10*
X216600000Y-112700000D03*
X219700000Y-112700000D03*
X213500000Y-112700000D03*
D11*
X221800000Y-110700000D03*
X211000000Y-110700000D03*
X211000000Y-105200000D03*
X221800000Y-105200000D03*
X211000000Y-107700000D03*
X214600000Y-106200000D03*
X218200000Y-106200000D03*
X221800000Y-107700000D03*
D12*
X215200000Y-110200000D03*
X217600000Y-110200000D03*
D13*
X216400000Y-108600000D03*
X212800000Y-107700000D03*
X220000000Y-107700000D03*
D10*
X213900000Y-103200000D03*
X219000000Y-103200000D03*
X216400000Y-103200000D03*
D13*
X216400000Y-107700000D03*
D10*
X96600000Y-82700000D03*
X99700000Y-82700000D03*
X93500000Y-82700000D03*
D11*
X101800000Y-80700000D03*
X91000000Y-80700000D03*
X91000000Y-75200000D03*
X101800000Y-75200000D03*
X91000000Y-77700000D03*
X94600000Y-76200000D03*
X98200000Y-76200000D03*
X101800000Y-77700000D03*
D12*
X95200000Y-80200000D03*
X97600000Y-80200000D03*
D13*
X96400000Y-78600000D03*
X92800000Y-77700000D03*
X100000000Y-77700000D03*
D10*
X93900000Y-73200000D03*
X99000000Y-73200000D03*
X96400000Y-73200000D03*
D13*
X96400000Y-77700000D03*
D10*
X96600000Y-112700000D03*
X99700000Y-112700000D03*
X93500000Y-112700000D03*
D11*
X101800000Y-110700000D03*
X91000000Y-110700000D03*
X91000000Y-105200000D03*
X101800000Y-105200000D03*
X91000000Y-107700000D03*
X94600000Y-106200000D03*
X98200000Y-106200000D03*
X101800000Y-107700000D03*
D12*
X95200000Y-110200000D03*
X97600000Y-110200000D03*
D13*
X96400000Y-108600000D03*
X92800000Y-107700000D03*
X100000000Y-107700000D03*
D10*
X93900000Y-103200000D03*
X99000000Y-103200000D03*
X96400000Y-103200000D03*
D13*
X96400000Y-107700000D03*
D10*
X186600000Y-82700000D03*
X189700000Y-82700000D03*
X183500000Y-82700000D03*
D11*
X191800000Y-80700000D03*
X181000000Y-80700000D03*
X181000000Y-75200000D03*
X191800000Y-75200000D03*
X181000000Y-77700000D03*
X184600000Y-76200000D03*
X188200000Y-76200000D03*
X191800000Y-77700000D03*
D12*
X185200000Y-80200000D03*
X187600000Y-80200000D03*
D13*
X186400000Y-78600000D03*
X182800000Y-77700000D03*
X190000000Y-77700000D03*
D10*
X183900000Y-73200000D03*
X189000000Y-73200000D03*
X186400000Y-73200000D03*
D13*
X186400000Y-77700000D03*
D10*
X74100000Y-97700000D03*
X77200000Y-97700000D03*
X71000000Y-97700000D03*
D11*
X79300000Y-95700000D03*
X68500000Y-95700000D03*
X68500000Y-90200000D03*
X79300000Y-90200000D03*
X68500000Y-92700000D03*
X72100000Y-91200000D03*
X75700000Y-91200000D03*
X79300000Y-92700000D03*
D12*
X72700000Y-95200000D03*
X75100000Y-95200000D03*
D13*
X73900000Y-93600000D03*
X70300000Y-92700000D03*
X77500000Y-92700000D03*
D10*
X71400000Y-88200000D03*
X76500000Y-88200000D03*
X73900000Y-88200000D03*
D13*
X73900000Y-92700000D03*
D10*
X74100000Y-67700000D03*
X77200000Y-67700000D03*
X71000000Y-67700000D03*
D11*
X79300000Y-65700000D03*
X68500000Y-65700000D03*
X68500000Y-60200000D03*
X79300000Y-60200000D03*
X68500000Y-62700000D03*
X72100000Y-61200000D03*
X75700000Y-61200000D03*
X79300000Y-62700000D03*
D12*
X72700000Y-65200000D03*
X75100000Y-65200000D03*
D13*
X73900000Y-63600000D03*
X70300000Y-62700000D03*
X77500000Y-62700000D03*
D10*
X71400000Y-58200000D03*
X76500000Y-58200000D03*
X73900000Y-58200000D03*
D13*
X73900000Y-62700000D03*
D10*
X179100000Y-97700000D03*
X182200000Y-97700000D03*
X176000000Y-97700000D03*
D11*
X184300000Y-95700000D03*
X173500000Y-95700000D03*
X173500000Y-90200000D03*
X184300000Y-90200000D03*
X173500000Y-92700000D03*
X177100000Y-91200000D03*
X180700000Y-91200000D03*
X184300000Y-92700000D03*
D12*
X177700000Y-95200000D03*
X180100000Y-95200000D03*
D13*
X178900000Y-93600000D03*
X175300000Y-92700000D03*
X182500000Y-92700000D03*
D10*
X176400000Y-88200000D03*
X181500000Y-88200000D03*
X178900000Y-88200000D03*
D13*
X178900000Y-92700000D03*
D10*
X179100000Y-67700000D03*
X182200000Y-67700000D03*
X176000000Y-67700000D03*
D11*
X184300000Y-65700000D03*
X173500000Y-65700000D03*
X173500000Y-60200000D03*
X184300000Y-60200000D03*
X173500000Y-62700000D03*
X177100000Y-61200000D03*
X180700000Y-61200000D03*
X184300000Y-62700000D03*
D12*
X177700000Y-65200000D03*
X180100000Y-65200000D03*
D13*
X178900000Y-63600000D03*
X175300000Y-62700000D03*
X182500000Y-62700000D03*
D10*
X176400000Y-58200000D03*
X181500000Y-58200000D03*
X178900000Y-58200000D03*
D13*
X178900000Y-62700000D03*
D10*
X66600000Y-112200000D03*
X69700000Y-112200000D03*
X63500000Y-112200000D03*
D11*
X71800000Y-110200000D03*
X61000000Y-110200000D03*
X61000000Y-104700000D03*
X71800000Y-104700000D03*
X61000000Y-107200000D03*
X64600000Y-105700000D03*
X68200000Y-105700000D03*
X71800000Y-107200000D03*
D12*
X65200000Y-109700000D03*
X67600000Y-109700000D03*
D13*
X66400000Y-108100000D03*
X62800000Y-107200000D03*
X70000000Y-107200000D03*
D10*
X63900000Y-102700000D03*
X69000000Y-102700000D03*
X66400000Y-102700000D03*
D13*
X66400000Y-107200000D03*
D10*
X66600000Y-82700000D03*
X69700000Y-82700000D03*
X63500000Y-82700000D03*
D11*
X71800000Y-80700000D03*
X61000000Y-80700000D03*
X61000000Y-75200000D03*
X71800000Y-75200000D03*
X61000000Y-77700000D03*
X64600000Y-76200000D03*
X68200000Y-76200000D03*
X71800000Y-77700000D03*
D12*
X65200000Y-80200000D03*
X67600000Y-80200000D03*
D13*
X66400000Y-78600000D03*
X62800000Y-77700000D03*
X70000000Y-77700000D03*
D10*
X63900000Y-73200000D03*
X69000000Y-73200000D03*
X66400000Y-73200000D03*
D13*
X66400000Y-77700000D03*
D10*
X171600000Y-112700000D03*
X174700000Y-112700000D03*
X168500000Y-112700000D03*
D11*
X176800000Y-110700000D03*
X166000000Y-110700000D03*
X166000000Y-105200000D03*
X176800000Y-105200000D03*
X166000000Y-107700000D03*
X169600000Y-106200000D03*
X173200000Y-106200000D03*
X176800000Y-107700000D03*
D12*
X170200000Y-110200000D03*
X172600000Y-110200000D03*
D13*
X171400000Y-108600000D03*
X167800000Y-107700000D03*
X175000000Y-107700000D03*
D10*
X168900000Y-103200000D03*
X174000000Y-103200000D03*
X171400000Y-103200000D03*
D13*
X171400000Y-107700000D03*
D10*
X171600000Y-82700000D03*
X174700000Y-82700000D03*
X168500000Y-82700000D03*
D11*
X176800000Y-80700000D03*
X166000000Y-80700000D03*
X166000000Y-75200000D03*
X176800000Y-75200000D03*
X166000000Y-77700000D03*
X169600000Y-76200000D03*
X173200000Y-76200000D03*
X176800000Y-77700000D03*
D12*
X170200000Y-80200000D03*
X172600000Y-80200000D03*
D13*
X171400000Y-78600000D03*
X167800000Y-77700000D03*
X175000000Y-77700000D03*
D10*
X168900000Y-73200000D03*
X174000000Y-73200000D03*
X171400000Y-73200000D03*
D13*
X171400000Y-77700000D03*
D10*
X59100000Y-97700000D03*
X62200000Y-97700000D03*
X56000000Y-97700000D03*
D11*
X64300000Y-95700000D03*
X53500000Y-95700000D03*
X53500000Y-90200000D03*
X64300000Y-90200000D03*
X53500000Y-92700000D03*
X57100000Y-91200000D03*
X60700000Y-91200000D03*
X64300000Y-92700000D03*
D12*
X57700000Y-95200000D03*
X60100000Y-95200000D03*
D13*
X58900000Y-93600000D03*
X55300000Y-92700000D03*
X62500000Y-92700000D03*
D10*
X56400000Y-88200000D03*
X61500000Y-88200000D03*
X58900000Y-88200000D03*
D13*
X58900000Y-92700000D03*
D10*
X59100000Y-67700000D03*
X62200000Y-67700000D03*
X56000000Y-67700000D03*
D11*
X64300000Y-65700000D03*
X53500000Y-65700000D03*
X53500000Y-60200000D03*
X64300000Y-60200000D03*
X53500000Y-62700000D03*
X57100000Y-61200000D03*
X60700000Y-61200000D03*
X64300000Y-62700000D03*
D12*
X57700000Y-65200000D03*
X60100000Y-65200000D03*
D13*
X58900000Y-63600000D03*
X55300000Y-62700000D03*
X62500000Y-62700000D03*
D10*
X56400000Y-58200000D03*
X61500000Y-58200000D03*
X58900000Y-58200000D03*
D13*
X58900000Y-62700000D03*
D10*
X164100000Y-67700000D03*
X167200000Y-67700000D03*
X161000000Y-67700000D03*
D11*
X169300000Y-65700000D03*
X158500000Y-65700000D03*
X158500000Y-60200000D03*
X169300000Y-60200000D03*
X158500000Y-62700000D03*
X162100000Y-61200000D03*
X165700000Y-61200000D03*
X169300000Y-62700000D03*
D12*
X162700000Y-65200000D03*
X165100000Y-65200000D03*
D13*
X163900000Y-63600000D03*
X160300000Y-62700000D03*
X167500000Y-62700000D03*
D10*
X161400000Y-58200000D03*
X166500000Y-58200000D03*
X163900000Y-58200000D03*
D13*
X163900000Y-62700000D03*
D14*
X247900000Y-135200000D03*
X247900000Y-50700000D03*
X143400000Y-50700000D03*
X38900000Y-50700000D03*
X38900000Y-135200000D03*
X143400000Y-135200000D03*
D15*
X195425000Y-129275000D03*
X191200000Y-127200000D03*
X202675000Y-129225000D03*
X195425000Y-127125000D03*
X194275000Y-129350000D03*
X192600000Y-129275000D03*
X203500000Y-131900000D03*
X203325000Y-136425000D03*
X104025000Y-129700000D03*
X124800000Y-130225000D03*
X100925000Y-129775000D03*
X76125000Y-129575000D03*
X65325000Y-130125000D03*
X73225000Y-129600000D03*
X54700000Y-129450000D03*
X50200000Y-128800000D03*
X38825000Y-126900000D03*
X41500000Y-99975000D03*
X36075000Y-98700000D03*
X104200000Y-131875000D03*
X124750000Y-132350000D03*
X100775000Y-131975000D03*
X56600000Y-120525000D03*
X35791942Y-120508058D03*
X35300000Y-97575000D03*
X31275000Y-97650000D03*
X64150000Y-120525000D03*
X66775000Y-120525000D03*
X207350000Y-133325000D03*
X207175000Y-127850000D03*
X207275000Y-123475000D03*
X207325000Y-117675000D03*
X191200000Y-131950000D03*
X197950000Y-131825000D03*
X196975000Y-125875000D03*
X183662500Y-126000000D03*
X197725000Y-128200000D03*
X183662500Y-128300000D03*
X198925000Y-130550000D03*
X183662500Y-130600000D03*
X199175000Y-131675000D03*
X183662500Y-132800000D03*
X227150000Y-142025000D03*
X122400000Y-142475000D03*
X121325000Y-123850000D03*
X76150000Y-131700000D03*
X54700000Y-130925000D03*
X66725000Y-130925000D03*
D16*
X67900000Y-129600000D03*
X96000000Y-121800000D03*
X102400000Y-122100000D03*
X66000000Y-132275000D03*
X67975000Y-132325001D03*
X60600000Y-132500000D03*
X56700000Y-127500000D03*
X58900000Y-127500000D03*
X87325001Y-132325001D03*
D15*
X72950000Y-131475000D03*
X50200000Y-130425000D03*
X39210147Y-128414853D03*
X36275000Y-130350000D03*
X32200000Y-126050000D03*
D16*
X113300000Y-130200000D03*
X119600000Y-130200000D03*
X110587500Y-132287500D03*
X54600000Y-135300000D03*
X58300000Y-135400000D03*
X86800000Y-124200000D03*
X94325000Y-124150000D03*
X95500000Y-128900000D03*
X94200000Y-128900000D03*
X86600000Y-131600000D03*
X88100000Y-131400000D03*
X118400000Y-123800000D03*
X110700000Y-124000000D03*
D15*
X204900000Y-129725000D03*
X203800000Y-141575000D03*
X203700000Y-143275010D03*
X89925000Y-142275001D03*
D16*
X89900000Y-128800000D03*
X93200000Y-128900000D03*
D15*
X220500000Y-142825000D03*
X103200000Y-142425000D03*
X190074336Y-135600400D03*
X86050000Y-137599990D03*
D16*
X85800000Y-128600000D03*
X88900000Y-128600000D03*
D15*
X190675000Y-136199991D03*
X178375000Y-136199991D03*
X177900000Y-138050000D03*
X59925000Y-138674999D03*
D16*
X59800000Y-128300000D03*
X63100000Y-128200000D03*
D15*
X196317213Y-136637366D03*
X68700000Y-138675000D03*
D16*
X68600000Y-136874989D03*
X65600000Y-136874989D03*
D15*
X197108058Y-136758058D03*
X95275000Y-139400000D03*
X199400000Y-135350000D03*
X61850000Y-141475000D03*
D16*
X62300000Y-129400000D03*
X64200000Y-129300000D03*
D15*
X96950000Y-123900000D03*
X38050000Y-121950000D03*
X39150000Y-82325000D03*
X34850000Y-82250000D03*
D16*
X96500000Y-131250000D03*
X93100000Y-131000000D03*
D15*
X59025000Y-124025000D03*
X37075000Y-121425000D03*
D16*
X61300000Y-123925001D03*
D15*
X89250000Y-121550000D03*
X39825000Y-121400000D03*
X40175000Y-89925000D03*
X37650000Y-90000000D03*
D16*
X92300000Y-121474990D03*
D15*
X37050000Y-122650000D03*
D16*
X90500000Y-122924990D03*
D15*
X186400000Y-104625000D03*
X186575000Y-102000000D03*
X197850000Y-54800000D03*
X164325000Y-116675000D03*
X185350000Y-106400000D03*
X165650000Y-100625000D03*
X162950000Y-100450000D03*
X144300000Y-99200000D03*
X144150000Y-78175000D03*
X184450000Y-104025000D03*
X165950000Y-99725000D03*
X162600000Y-99200000D03*
X178975000Y-117875000D03*
X187400000Y-118850000D03*
X175650000Y-119550000D03*
X173950000Y-119600000D03*
X176025000Y-123650000D03*
X66400000Y-110450000D03*
X73900000Y-95925000D03*
X58900000Y-95900000D03*
X66400000Y-80750000D03*
X58900000Y-65900000D03*
X73900000Y-65925000D03*
X96400000Y-110900000D03*
X111375000Y-110925000D03*
X103900000Y-96125000D03*
X118900000Y-95925000D03*
X96400000Y-80950000D03*
X111200000Y-80950000D03*
X103900000Y-65850000D03*
X118900000Y-65900000D03*
X141400000Y-110950000D03*
X126400000Y-110950000D03*
X133900000Y-95950000D03*
X126400000Y-80900000D03*
X133900000Y-65925000D03*
X178900000Y-65850000D03*
X163900000Y-65850000D03*
X171400000Y-80875000D03*
X178900000Y-95950000D03*
X171400000Y-110950000D03*
X186400000Y-80925000D03*
X216400000Y-110975000D03*
X216475000Y-81025000D03*
X206650000Y-95975000D03*
X35375000Y-118825000D03*
D16*
X65400000Y-124100000D03*
D15*
X195475000Y-99925000D03*
X197825000Y-97175000D03*
X181725000Y-119625000D03*
X188164898Y-126935102D03*
X194650000Y-123975000D03*
X196250000Y-124025000D03*
X196725000Y-127050000D03*
X199850000Y-127050000D03*
X33050000Y-116575000D03*
X176350000Y-133425000D03*
X176964898Y-136185102D03*
X208525000Y-135725000D03*
X209275000Y-139300000D03*
X35450000Y-116825000D03*
X36375000Y-101725000D03*
X40875000Y-101475000D03*
D16*
X61550000Y-131650000D03*
D15*
X42275000Y-129975000D03*
X42050000Y-79850000D03*
X37525000Y-79925000D03*
D16*
X90650000Y-136599970D03*
D15*
X202400000Y-131100000D03*
X202400000Y-141575000D03*
X202450000Y-143275010D03*
X114150000Y-142725011D03*
D16*
X113900000Y-131100000D03*
X117100000Y-131200000D03*
D15*
X199850000Y-128475000D03*
X203209210Y-141035583D03*
X198400000Y-141124990D03*
X104425000Y-141025001D03*
X191550000Y-135100000D03*
X70525000Y-137599990D03*
D16*
X70700000Y-133300000D03*
X63100000Y-133300000D03*
X97000000Y-133700000D03*
X89200000Y-133300000D03*
D17*
X195475000Y-129225000D02*
X195425000Y-129275000D01*
X202675000Y-129225000D02*
X195475000Y-129225000D01*
X195350000Y-127200000D02*
X195425000Y-127125000D01*
X191200000Y-127200000D02*
X195350000Y-127200000D01*
X192675000Y-129350000D02*
X192600000Y-129275000D01*
X194275000Y-129350000D02*
X192675000Y-129350000D01*
X203500000Y-130050000D02*
X203500000Y-131900000D01*
X202675000Y-129225000D02*
X203500000Y-130050000D01*
X203500000Y-136250000D02*
X203325000Y-136425000D01*
X203500000Y-131900000D02*
X203500000Y-136250000D01*
X104025000Y-129700000D02*
X104537500Y-130212500D01*
X124787500Y-130212500D02*
X124800000Y-130225000D01*
X93125000Y-129775000D02*
X93075000Y-129725000D01*
X100925000Y-129775000D02*
X93125000Y-129775000D01*
X92925000Y-129575000D02*
X93075000Y-129725000D01*
X76125000Y-129575000D02*
X92925000Y-129575000D01*
X65325000Y-130125000D02*
X65850000Y-129600000D01*
X55375000Y-130125000D02*
X65325000Y-130125000D01*
X54700000Y-129450000D02*
X55375000Y-130125000D01*
X48300000Y-126900000D02*
X38825000Y-126900000D01*
X50200000Y-128800000D02*
X48300000Y-126900000D01*
X37350000Y-99975000D02*
X36075000Y-98700000D01*
X41500000Y-99975000D02*
X37350000Y-99975000D01*
X120825000Y-130300000D02*
X124787500Y-130212500D01*
X104200000Y-131875000D02*
X104612500Y-132287500D01*
X117850000Y-132350000D02*
X117787500Y-132287500D01*
X124750000Y-132350000D02*
X117850000Y-132350000D01*
X93350000Y-131975000D02*
X93200000Y-131825000D01*
X100775000Y-131975000D02*
X93350000Y-131975000D01*
X93200000Y-131825000D02*
X92699999Y-132325001D01*
X56600000Y-120525000D02*
X40425000Y-120525000D01*
X40408058Y-120508058D02*
X35791942Y-120508058D01*
X40425000Y-120525000D02*
X40408058Y-120508058D01*
X31350000Y-97575000D02*
X31275000Y-97650000D01*
X35300000Y-97575000D02*
X31350000Y-97575000D01*
X56600000Y-120525000D02*
X64150000Y-120525000D01*
X66775000Y-120525000D02*
X64150000Y-120525000D01*
X207350000Y-128025000D02*
X207175000Y-127850000D01*
X207350000Y-133325000D02*
X207350000Y-128025000D01*
X207175000Y-123575000D02*
X207275000Y-123475000D01*
X207175000Y-127850000D02*
X207175000Y-123575000D01*
X207325000Y-123425000D02*
X207275000Y-123475000D01*
X207325000Y-117675000D02*
X207325000Y-123425000D01*
X197825000Y-131950000D02*
X197950000Y-131825000D01*
X191200000Y-131950000D02*
X197825000Y-131950000D01*
X183787500Y-125875000D02*
X183662500Y-126000000D01*
X196975000Y-125875000D02*
X183787500Y-125875000D01*
X183762500Y-128200000D02*
X183662500Y-128300000D01*
X197725000Y-128200000D02*
X183762500Y-128200000D01*
X183712500Y-130550000D02*
X183662500Y-130600000D01*
X198925000Y-130550000D02*
X183712500Y-130550000D01*
X198050000Y-132800000D02*
X183662500Y-132800000D01*
X199175000Y-131675000D02*
X198050000Y-132800000D01*
X226725736Y-142025000D02*
X226550736Y-142200000D01*
X227150000Y-142025000D02*
X226725736Y-142025000D01*
X122675000Y-142200000D02*
X122400000Y-142475000D01*
X226550736Y-142200000D02*
X122675000Y-142200000D01*
X115750000Y-123925000D02*
X115825000Y-123850000D01*
X84150000Y-131700000D02*
X84200000Y-131650000D01*
X76150000Y-131700000D02*
X84150000Y-131700000D01*
X108325000Y-123925000D02*
X98200000Y-123925000D01*
X97599999Y-124525001D02*
X95875001Y-124525001D01*
X98200000Y-123925000D02*
X97599999Y-124525001D01*
X95400000Y-124050000D02*
X94425000Y-124050000D01*
X95875001Y-124525001D02*
X95400000Y-124050000D01*
X94325000Y-124150000D02*
X94425000Y-124050000D01*
X54700000Y-130925000D02*
X66725000Y-130925000D01*
X67900000Y-129600000D02*
X73225000Y-129600000D01*
X65850000Y-129600000D02*
X67900000Y-129600000D01*
X102100000Y-121800000D02*
X102400000Y-122100000D01*
X96000000Y-121800000D02*
X102100000Y-121800000D01*
X66050001Y-132325001D02*
X66000000Y-132275000D01*
X68125001Y-132325001D02*
X66050001Y-132325001D01*
X65775000Y-132500000D02*
X66000000Y-132275000D01*
X60600000Y-132500000D02*
X65775000Y-132500000D01*
X56700000Y-127500000D02*
X58900000Y-127500000D01*
X87325001Y-132325001D02*
X68125001Y-132325001D01*
X92699999Y-132325001D02*
X87325001Y-132325001D01*
X67149264Y-130925000D02*
X66725000Y-130925000D01*
X72525736Y-131475000D02*
X71975736Y-130925000D01*
X71975736Y-130925000D02*
X67149264Y-130925000D01*
X72950000Y-131475000D02*
X72525736Y-131475000D01*
X48189853Y-128414853D02*
X39210147Y-128414853D01*
X50200000Y-130425000D02*
X48189853Y-128414853D01*
X32200000Y-126275000D02*
X32200000Y-126050000D01*
X36275000Y-130350000D02*
X32200000Y-126275000D01*
X113300000Y-130200000D02*
X117087500Y-130212500D01*
X104537500Y-130212500D02*
X113300000Y-130200000D01*
X119600000Y-130200000D02*
X120825000Y-130300000D01*
X117087500Y-130212500D02*
X119600000Y-130200000D01*
X110587500Y-132287500D02*
X117787500Y-132287500D01*
X104612500Y-132287500D02*
X110587500Y-132287500D01*
X58200000Y-135300000D02*
X58300000Y-135400000D01*
X54600000Y-135300000D02*
X58200000Y-135300000D01*
X95500000Y-128900000D02*
X94200000Y-128900000D01*
X86500000Y-131700000D02*
X86600000Y-131600000D01*
X84150000Y-131700000D02*
X86500000Y-131700000D01*
X91775000Y-124150000D02*
X94325000Y-124150000D01*
X91249999Y-124675001D02*
X91775000Y-124150000D01*
X87275001Y-124675001D02*
X91249999Y-124675001D01*
X86800000Y-124200000D02*
X87275001Y-124675001D01*
X86800000Y-131400000D02*
X86600000Y-131600000D01*
X88100000Y-131400000D02*
X86800000Y-131400000D01*
X118400000Y-123800000D02*
X115825000Y-123850000D01*
X121325000Y-123850000D02*
X118400000Y-123800000D01*
X110700000Y-124000000D02*
X115750000Y-123925000D01*
X108325000Y-123925000D02*
X110700000Y-124000000D01*
X181500000Y-58200000D02*
X178900000Y-58200000D01*
X176400000Y-58200000D02*
X181500000Y-58200000D01*
X176850000Y-58200000D02*
X176400000Y-58200000D01*
X177100000Y-58450000D02*
X176850000Y-58200000D01*
X177100000Y-61200000D02*
X177100000Y-58450000D01*
X180950000Y-58200000D02*
X181500000Y-58200000D01*
X180700000Y-58450000D02*
X180950000Y-58200000D01*
X180700000Y-61200000D02*
X180700000Y-58450000D01*
X184250000Y-58200000D02*
X181500000Y-58200000D01*
X184300000Y-58250000D02*
X184250000Y-58200000D01*
X184300000Y-60200000D02*
X184300000Y-58250000D01*
X173500000Y-58350000D02*
X173500000Y-59874999D01*
X173650000Y-58200000D02*
X173500000Y-58350000D01*
X176400000Y-58200000D02*
X173650000Y-58200000D01*
X173500000Y-65700000D02*
X173500000Y-67850000D01*
X173650000Y-67700000D02*
X176000000Y-67700000D01*
X173500000Y-67850000D02*
X173650000Y-67700000D01*
X176000000Y-67700000D02*
X182200000Y-67700000D01*
X182200000Y-67700000D02*
X183275000Y-67700000D01*
X184300000Y-65700000D02*
X184300000Y-67150000D01*
X183750000Y-67700000D02*
X182200000Y-67700000D01*
X184300000Y-67150000D02*
X183750000Y-67700000D01*
D18*
X213575000Y-65700000D02*
X216450000Y-68575000D01*
X184300000Y-65700000D02*
X213575000Y-65700000D01*
D17*
X216450000Y-68575000D02*
X216400000Y-68500000D01*
D18*
X216400000Y-73200000D02*
X213900000Y-73200000D01*
X216400000Y-68500000D02*
X216400000Y-73200000D01*
D17*
X204900000Y-129725000D02*
X204900000Y-136525000D01*
X204900000Y-140475000D02*
X203800000Y-141575000D01*
X204900000Y-136525000D02*
X204900000Y-140475000D01*
X203074999Y-143900011D02*
X202149999Y-143900011D01*
X203700000Y-143275010D02*
X203074999Y-143900011D01*
X201839335Y-143725019D02*
X201664346Y-143550030D01*
X201975008Y-143725020D02*
X201839335Y-143725019D01*
X202149999Y-143900011D02*
X201975008Y-143725020D01*
X201664346Y-143550030D02*
X170499970Y-143550030D01*
X123097818Y-144000020D02*
X121727197Y-144000019D01*
X123547810Y-143550030D02*
X123097818Y-144000020D01*
X170499970Y-143550030D02*
X123547810Y-143550030D01*
X121727197Y-144000019D02*
X121152199Y-143425021D01*
X121152199Y-143425021D02*
X119477200Y-143425020D01*
X119477200Y-143425020D02*
X119052211Y-143000031D01*
X119052211Y-143000031D02*
X114911379Y-143000031D01*
X113849999Y-143350012D02*
X113450000Y-142950013D01*
X114561398Y-143350012D02*
X113849999Y-143350012D01*
X114911379Y-143000031D02*
X114561398Y-143350012D01*
X113450000Y-142650000D02*
X113350021Y-142550021D01*
X113450000Y-142950013D02*
X113450000Y-142650000D01*
X113350021Y-142550021D02*
X103825001Y-142550021D01*
X102899999Y-143050001D02*
X102425000Y-142575002D01*
X103500001Y-143050001D02*
X102899999Y-143050001D01*
X103825001Y-142725001D02*
X103500001Y-143050001D01*
X103825001Y-142550021D02*
X103825001Y-142725001D01*
X102124999Y-142275001D02*
X89925000Y-142275001D01*
X102425000Y-142575002D02*
X102124999Y-142275001D01*
X93100000Y-128800000D02*
X93200000Y-128900000D01*
X89900000Y-128800000D02*
X93100000Y-128800000D01*
X220075736Y-142825000D02*
X219900746Y-142650010D01*
X220500000Y-142825000D02*
X220075736Y-142825000D01*
X219900746Y-142650010D02*
X210774990Y-142650010D01*
X210774990Y-142650010D02*
X123175010Y-142650010D01*
X122099999Y-143100001D02*
X121525000Y-142525002D01*
X122725019Y-143100001D02*
X122099999Y-143100001D01*
X123175010Y-142650010D02*
X122725019Y-143100001D01*
X119850002Y-142525002D02*
X119425011Y-142100011D01*
X121525000Y-142525002D02*
X119850002Y-142525002D01*
X103524989Y-142100011D02*
X103200000Y-142425000D01*
X119425011Y-142100011D02*
X103524989Y-142100011D01*
X189650072Y-135600400D02*
X189425482Y-135824990D01*
X190074336Y-135600400D02*
X189650072Y-135600400D01*
X178675001Y-135574990D02*
X177950010Y-135574990D01*
X178925001Y-135824990D02*
X178675001Y-135574990D01*
X189425482Y-135824990D02*
X178925001Y-135824990D01*
X176689899Y-135560101D02*
X176375010Y-135874990D01*
X177264899Y-135560101D02*
X176689899Y-135560101D01*
X177479798Y-135775000D02*
X177264899Y-135560101D01*
X177750000Y-135775000D02*
X177479798Y-135775000D01*
X177950010Y-135574990D02*
X177750000Y-135775000D01*
X176375010Y-135874990D02*
X172550000Y-135874990D01*
X147588617Y-135924973D02*
X146327207Y-135924973D01*
X147638599Y-135874991D02*
X147588617Y-135924973D01*
X172550000Y-135874990D02*
X147638599Y-135874991D01*
X146327207Y-135924973D02*
X144227210Y-138024970D01*
X144227210Y-138024970D02*
X105425000Y-138024970D01*
X96097810Y-138024970D02*
X95847820Y-137774980D01*
X105425000Y-138024970D02*
X96097810Y-138024970D01*
X86224990Y-137774980D02*
X86050000Y-137599990D01*
X95847820Y-137774980D02*
X86224990Y-137774980D01*
X85800000Y-128600000D02*
X88900000Y-128600000D01*
X190250736Y-136199991D02*
X190175727Y-136275000D01*
X190675000Y-136199991D02*
X190250736Y-136199991D01*
X178450009Y-136275000D02*
X178375000Y-136199991D01*
X190175727Y-136275000D02*
X178450009Y-136275000D01*
X177900000Y-138050000D02*
X177575011Y-137725011D01*
X177575011Y-137725011D02*
X151775000Y-137725011D01*
X151775000Y-137725011D02*
X147086399Y-137725011D01*
X147086399Y-137725011D02*
X144986400Y-139825010D01*
X144986400Y-139825010D02*
X99900000Y-139825010D01*
X99900000Y-139825010D02*
X95775000Y-139825010D01*
X94974999Y-140025001D02*
X94625000Y-139675002D01*
X95575009Y-140025001D02*
X94974999Y-140025001D01*
X95775000Y-139825010D02*
X95575009Y-140025001D01*
X94625000Y-139175000D02*
X94575010Y-139125010D01*
X94625000Y-139675002D02*
X94625000Y-139175000D01*
X94575010Y-139125010D02*
X81725000Y-139125010D01*
X81725000Y-139125010D02*
X69350000Y-139125010D01*
X68399999Y-139300001D02*
X67850000Y-138750002D01*
X69175009Y-139300001D02*
X68399999Y-139300001D01*
X69350000Y-139125010D02*
X69175009Y-139300001D01*
X67850000Y-138650000D02*
X67700009Y-138500009D01*
X67850000Y-138750002D02*
X67850000Y-138650000D01*
X60099990Y-138500009D02*
X59925000Y-138674999D01*
X67700009Y-138500009D02*
X60099990Y-138500009D01*
X63000000Y-128300000D02*
X63100000Y-128200000D01*
X59800000Y-128300000D02*
X63000000Y-128300000D01*
X195892949Y-136637366D02*
X195705324Y-136824991D01*
X196317213Y-136637366D02*
X195892949Y-136637366D01*
X146700009Y-136824991D02*
X144600010Y-138924990D01*
X195705324Y-136824991D02*
X146700009Y-136824991D01*
X144600010Y-138924990D02*
X107649990Y-138924990D01*
X107649990Y-138924990D02*
X95725010Y-138924990D01*
X95475020Y-138675000D02*
X68700000Y-138675000D01*
X95725010Y-138924990D02*
X95475020Y-138675000D01*
X68600000Y-136874989D02*
X65825011Y-136874989D01*
X65825011Y-136874989D02*
X65600000Y-136874989D01*
X196591115Y-137275001D02*
X146899999Y-137275001D01*
X197108058Y-136758058D02*
X196591115Y-137275001D01*
X146899999Y-137275001D02*
X144800000Y-139375000D01*
X95300000Y-139375000D02*
X95275000Y-139400000D01*
X144800000Y-139375000D02*
X95300000Y-139375000D01*
X62025001Y-141650001D02*
X61850000Y-141475000D01*
X193099999Y-141650001D02*
X62025001Y-141650001D01*
X199400000Y-135350000D02*
X199400000Y-141600000D01*
X199400000Y-141600000D02*
X199250010Y-141749990D01*
X199250010Y-141749990D02*
X193025000Y-141749990D01*
X64100000Y-129400000D02*
X64200000Y-129300000D01*
X62300000Y-129400000D02*
X64100000Y-129400000D01*
X96950000Y-123900000D02*
X95249990Y-122199990D01*
X95249990Y-122199990D02*
X86961400Y-122199990D01*
X86961400Y-122199990D02*
X38299990Y-122199990D01*
X38299990Y-122199990D02*
X38050000Y-121950000D01*
X34925000Y-82325000D02*
X34850000Y-82250000D01*
X39150000Y-82325000D02*
X34925000Y-82325000D01*
X93350000Y-131250000D02*
X93100000Y-131000000D01*
X96500000Y-131250000D02*
X93350000Y-131250000D01*
X59025000Y-124025000D02*
X58450000Y-123450000D01*
X48425000Y-123450000D02*
X48075010Y-123100010D01*
X58450000Y-123450000D02*
X48425000Y-123450000D01*
X48075010Y-123100010D02*
X38075000Y-123100010D01*
X36424999Y-122075001D02*
X37075000Y-121425000D01*
X36424999Y-122950001D02*
X36424999Y-122075001D01*
X36749999Y-123275001D02*
X36424999Y-122950001D01*
X37900009Y-123275001D02*
X36749999Y-123275001D01*
X38075000Y-123100010D02*
X37900009Y-123275001D01*
X61200001Y-124025000D02*
X61300000Y-123925001D01*
X59025000Y-124025000D02*
X61200001Y-124025000D01*
X89250000Y-121550000D02*
X88324980Y-121550000D01*
X88324980Y-121550000D02*
X88125000Y-121749980D01*
X88125000Y-121749980D02*
X40049980Y-121749980D01*
X39825000Y-121525000D02*
X39825000Y-121400000D01*
X40049980Y-121749980D02*
X39825000Y-121525000D01*
X37725000Y-89925000D02*
X37650000Y-90000000D01*
X40175000Y-89925000D02*
X37725000Y-89925000D01*
X89325010Y-121474990D02*
X89250000Y-121550000D01*
X92300000Y-121474990D02*
X89325010Y-121474990D01*
X86775000Y-122650000D02*
X37050000Y-122650000D01*
X90225010Y-122650000D02*
X90500000Y-122924990D01*
X86775000Y-122650000D02*
X90225010Y-122650000D01*
X110050000Y-60100000D02*
X110275001Y-59874999D01*
X110275001Y-59874999D02*
X113500000Y-59874999D01*
X109300000Y-60100000D02*
X110050000Y-60100000D01*
X125050000Y-60200000D02*
X125375001Y-59874999D01*
X125375001Y-59874999D02*
X128500000Y-59874999D01*
X124300000Y-60200000D02*
X125050000Y-60200000D01*
X82975001Y-59774999D02*
X98500000Y-59774999D01*
X80050000Y-62700000D02*
X82975001Y-59774999D01*
X79300000Y-62700000D02*
X80050000Y-62700000D01*
X65375001Y-59874999D02*
X68500000Y-59874999D01*
X65050000Y-60200000D02*
X65375001Y-59874999D01*
X64300000Y-60200000D02*
X65050000Y-60200000D01*
D18*
X83350001Y-59649999D02*
X98500000Y-59649999D01*
X80300000Y-62700000D02*
X83350001Y-59649999D01*
X79300000Y-62700000D02*
X80300000Y-62700000D01*
X65750001Y-59749999D02*
X68500000Y-59749999D01*
X65300000Y-60200000D02*
X65750001Y-59749999D01*
X64300000Y-60200000D02*
X65300000Y-60200000D01*
X110650001Y-59749999D02*
X113500000Y-59749999D01*
X110300000Y-60100000D02*
X110650001Y-59749999D01*
X109300000Y-60100000D02*
X110300000Y-60100000D01*
D17*
X186400000Y-102175000D02*
X186575000Y-102000000D01*
X186400000Y-104625000D02*
X186400000Y-102175000D01*
X197850000Y-54800000D02*
X150700000Y-54800000D01*
X145300000Y-60200000D02*
X139300000Y-60200000D01*
X150700000Y-54800000D02*
X145300000Y-60200000D01*
X56400000Y-58200000D02*
X58900000Y-58200000D01*
X56850000Y-58200000D02*
X56400000Y-58200000D01*
X57100000Y-58450000D02*
X56850000Y-58200000D01*
X57100000Y-61200000D02*
X57100000Y-58450000D01*
X53500000Y-58350000D02*
X53500000Y-59874999D01*
X53650000Y-58200000D02*
X53500000Y-58350000D01*
X56400000Y-58200000D02*
X53650000Y-58200000D01*
X61500000Y-58200000D02*
X58900000Y-58200000D01*
X64300000Y-58250000D02*
X64300000Y-60200000D01*
X64250000Y-58200000D02*
X64300000Y-58250000D01*
X61500000Y-58200000D02*
X64250000Y-58200000D01*
X60700000Y-61200000D02*
X60700000Y-59700000D01*
X64300000Y-62700000D02*
X64300000Y-65700000D01*
X56000000Y-67700000D02*
X59100000Y-67700000D01*
X53500000Y-65700000D02*
X53500000Y-67375000D01*
X53825000Y-67700000D02*
X56000000Y-67700000D01*
X53500000Y-67375000D02*
X53825000Y-67700000D01*
X60950000Y-58200000D02*
X61500000Y-58200000D01*
X60700000Y-58450000D02*
X60950000Y-58200000D01*
X60700000Y-61200000D02*
X60700000Y-58450000D01*
X62075000Y-67700000D02*
X62025000Y-67750000D01*
X62200000Y-67700000D02*
X62075000Y-67700000D01*
X62025000Y-67750000D02*
X59100000Y-67700000D01*
X62200000Y-67700000D02*
X63150000Y-67700000D01*
X64300000Y-65700000D02*
X64300000Y-66975000D01*
X63575000Y-67700000D02*
X62200000Y-67700000D01*
X64300000Y-66975000D02*
X63575000Y-67700000D01*
X68500000Y-65700000D02*
X68500000Y-62700000D01*
X68500000Y-60200000D02*
X68500000Y-58150000D01*
X68550000Y-58200000D02*
X71400000Y-58200000D01*
X68500000Y-58150000D02*
X68550000Y-58200000D01*
X73900000Y-58200000D02*
X71400000Y-58200000D01*
X72350000Y-58200000D02*
X73900000Y-58200000D01*
X72100000Y-58450000D02*
X72350000Y-58200000D01*
X72100000Y-61200000D02*
X72100000Y-58450000D01*
X73900000Y-58200000D02*
X76500000Y-58200000D01*
X75950000Y-58200000D02*
X76500000Y-58200000D01*
X75700000Y-58450000D02*
X75950000Y-58200000D01*
X75700000Y-61200000D02*
X75700000Y-58450000D01*
X79300000Y-62700000D02*
X79300000Y-65700000D01*
X77200000Y-67700000D02*
X78175000Y-67700000D01*
X78175000Y-67700000D02*
X74100000Y-67700000D01*
X71000000Y-67700000D02*
X74100000Y-67700000D01*
X71000000Y-67700000D02*
X69575000Y-67700000D01*
X68500000Y-66975000D02*
X68500000Y-65700000D01*
X69225000Y-67700000D02*
X68500000Y-66975000D01*
X71000000Y-67700000D02*
X69225000Y-67700000D01*
X79300000Y-65700000D02*
X79300000Y-66600000D01*
X79300000Y-66600000D02*
X79350000Y-66650000D01*
X98500000Y-60100000D02*
X98500000Y-58100000D01*
X98500000Y-58100000D02*
X101400000Y-58100000D01*
X101400000Y-58100000D02*
X106500000Y-58100000D01*
X102350000Y-58100000D02*
X103900000Y-58100000D01*
X102100000Y-58350000D02*
X102350000Y-58100000D01*
X102100000Y-61100000D02*
X102100000Y-58350000D01*
X105700000Y-60400000D02*
X105800000Y-60300000D01*
X105700000Y-61100000D02*
X105700000Y-60400000D01*
X105700000Y-59500000D02*
X105800000Y-59400000D01*
X105700000Y-61100000D02*
X105700000Y-59500000D01*
X105800000Y-60300000D02*
X105800000Y-59400000D01*
X109300000Y-58150000D02*
X109300000Y-60100000D01*
X109250000Y-58100000D02*
X109300000Y-58150000D01*
X106500000Y-58100000D02*
X109250000Y-58100000D01*
X109300000Y-60100000D02*
X109300000Y-65600000D01*
X107200000Y-67600000D02*
X101000000Y-67600000D01*
X98500000Y-65600000D02*
X98500000Y-60100000D01*
X106500000Y-58100000D02*
X103900000Y-58100000D01*
X105950000Y-58100000D02*
X106500000Y-58100000D01*
X105700000Y-58350000D02*
X105950000Y-58100000D01*
X105700000Y-61100000D02*
X105700000Y-58350000D01*
X113500000Y-62700000D02*
X113500000Y-65700000D01*
X116000000Y-67700000D02*
X122200000Y-67700000D01*
X124300000Y-65700000D02*
X124300000Y-60200000D01*
X116400000Y-58200000D02*
X121500000Y-58200000D01*
X117100000Y-58450000D02*
X117100000Y-61200000D01*
X117350000Y-58200000D02*
X117100000Y-58450000D01*
X121500000Y-58200000D02*
X117350000Y-58200000D01*
X113500000Y-58350000D02*
X113500000Y-60200000D01*
X113650000Y-58200000D02*
X113500000Y-58350000D01*
X116400000Y-58200000D02*
X113650000Y-58200000D01*
X113500000Y-65700000D02*
X113500000Y-67700000D01*
X113500000Y-67700000D02*
X116000000Y-67700000D01*
X123400000Y-67700000D02*
X122200000Y-67700000D01*
X120950000Y-58200000D02*
X121500000Y-58200000D01*
X120700000Y-58450000D02*
X120950000Y-58200000D01*
X120700000Y-61200000D02*
X120700000Y-58450000D01*
X128500000Y-60200000D02*
X128500000Y-65700000D01*
X131000000Y-67700000D02*
X137200000Y-67700000D01*
X139300000Y-65700000D02*
X139300000Y-62700000D01*
X131400000Y-58200000D02*
X136500000Y-58200000D01*
X131850000Y-58200000D02*
X131400000Y-58200000D01*
X132100000Y-58450000D02*
X131850000Y-58200000D01*
X132100000Y-61200000D02*
X132100000Y-58450000D01*
X128500000Y-58350000D02*
X128500000Y-60200000D01*
X128650000Y-58200000D02*
X128500000Y-58350000D01*
X131400000Y-58200000D02*
X128650000Y-58200000D01*
X158500000Y-65700000D02*
X158500000Y-67500000D01*
X158700000Y-67700000D02*
X161000000Y-67700000D01*
X158500000Y-67500000D02*
X158700000Y-67700000D01*
X161000000Y-67700000D02*
X164100000Y-67700000D01*
X164100000Y-67700000D02*
X167200000Y-67700000D01*
X167200000Y-67700000D02*
X168400000Y-67700000D01*
X169300000Y-65700000D02*
X169300000Y-66550000D01*
X164325000Y-67925000D02*
X164100000Y-67700000D01*
X164325000Y-116675000D02*
X164325000Y-67925000D01*
X91760001Y-74874999D02*
X91000000Y-74874999D01*
X75375001Y-74874999D02*
X91760001Y-74874999D01*
X72550000Y-77700000D02*
X75375001Y-74874999D01*
X71800000Y-77700000D02*
X72550000Y-77700000D01*
X102875001Y-74874999D02*
X105800000Y-74874999D01*
X102550000Y-75200000D02*
X102875001Y-74874999D01*
X101800000Y-75200000D02*
X102550000Y-75200000D01*
X117675001Y-74874999D02*
X121000000Y-74874999D01*
X117350000Y-75200000D02*
X117675001Y-74874999D01*
X116600000Y-75200000D02*
X117350000Y-75200000D01*
D18*
X75750001Y-74749999D02*
X91000000Y-74749999D01*
X72800000Y-77700000D02*
X75750001Y-74749999D01*
X71800000Y-77700000D02*
X72800000Y-77700000D01*
X103250001Y-74749999D02*
X105800000Y-74749999D01*
X102800000Y-75200000D02*
X103250001Y-74749999D01*
X101800000Y-75200000D02*
X102800000Y-75200000D01*
X118050001Y-74749999D02*
X121000000Y-74749999D01*
X117600000Y-75200000D02*
X118050001Y-74749999D01*
X116600000Y-75200000D02*
X117600000Y-75200000D01*
D17*
X184925736Y-106400000D02*
X184825736Y-106500000D01*
X185350000Y-106400000D02*
X184925736Y-106400000D01*
X184825736Y-106500000D02*
X179525000Y-106500000D01*
X179525000Y-106500000D02*
X178150000Y-105125000D01*
X178150000Y-102964998D02*
X176710002Y-101525000D01*
X178150000Y-105125000D02*
X178150000Y-102964998D01*
X176710002Y-101525000D02*
X166550000Y-101525000D01*
X166550000Y-101525000D02*
X165650000Y-100625000D01*
X162950000Y-100450000D02*
X162550000Y-100050000D01*
X162550000Y-100050000D02*
X144575000Y-100050000D01*
X144300000Y-99775000D02*
X144300000Y-99200000D01*
X144575000Y-100050000D02*
X144300000Y-99775000D01*
X143675000Y-77700000D02*
X131800000Y-77700000D01*
X144150000Y-78175000D02*
X143675000Y-77700000D01*
X80175001Y-90074999D02*
X98500000Y-90074999D01*
X80050000Y-90200000D02*
X80175001Y-90074999D01*
X79300000Y-90200000D02*
X80050000Y-90200000D01*
X65375001Y-89874999D02*
X68500000Y-89874999D01*
X65050000Y-90200000D02*
X65375001Y-89874999D01*
X64300000Y-90200000D02*
X65050000Y-90200000D01*
X110575001Y-89874999D02*
X113500000Y-89874999D01*
X110050000Y-90400000D02*
X110575001Y-89874999D01*
X109300000Y-90400000D02*
X110050000Y-90400000D01*
X125375001Y-89874999D02*
X128500000Y-89874999D01*
X125050000Y-90200000D02*
X125375001Y-89874999D01*
X124300000Y-90200000D02*
X125050000Y-90200000D01*
D18*
X65250001Y-89749999D02*
X68500000Y-89749999D01*
X64300000Y-90700000D02*
X65250001Y-89749999D01*
X64300000Y-92700000D02*
X64300000Y-90700000D01*
X97639999Y-89949999D02*
X98500000Y-89949999D01*
X80550001Y-89949999D02*
X97639999Y-89949999D01*
X80300000Y-90200000D02*
X80550001Y-89949999D01*
X79300000Y-90200000D02*
X80300000Y-90200000D01*
X110950001Y-89749999D02*
X113500000Y-89749999D01*
X110300000Y-90400000D02*
X110950001Y-89749999D01*
X109300000Y-90400000D02*
X110300000Y-90400000D01*
X125750001Y-89749999D02*
X128500000Y-89749999D01*
X125300000Y-90200000D02*
X125750001Y-89749999D01*
X124300000Y-90200000D02*
X125300000Y-90200000D01*
D17*
X184450000Y-104025000D02*
X178825000Y-104025000D01*
X178600009Y-102778597D02*
X176896402Y-101074990D01*
X178600010Y-103800010D02*
X178600009Y-102778597D01*
X178825000Y-104025000D02*
X178600010Y-103800010D01*
X167299990Y-101074990D02*
X165950000Y-99725000D01*
X176896402Y-101074990D02*
X167299990Y-101074990D01*
X161100000Y-97700000D02*
X137200000Y-97700000D01*
X162600000Y-99200000D02*
X161100000Y-97700000D01*
X211000000Y-110700000D02*
X211000000Y-112500000D01*
X211200000Y-112700000D02*
X213500000Y-112700000D01*
X211000000Y-112500000D02*
X211200000Y-112700000D01*
X213500000Y-112700000D02*
X216600000Y-112700000D01*
X216600000Y-112700000D02*
X219700000Y-112700000D01*
X220725000Y-112700000D02*
X219700000Y-112700000D01*
X221800000Y-111700000D02*
X221800000Y-110700000D01*
X221800000Y-107700000D02*
X221800000Y-110700000D01*
X221800000Y-105200000D02*
X221800000Y-110700000D01*
X221800000Y-103250000D02*
X221800000Y-105200000D01*
X221750000Y-103200000D02*
X221800000Y-103250000D01*
X219000000Y-103200000D02*
X221750000Y-103200000D01*
X218450000Y-103200000D02*
X219000000Y-103200000D01*
X218200000Y-103450000D02*
X218450000Y-103200000D01*
X216650000Y-103200000D02*
X213900000Y-103200000D01*
X217950000Y-103200000D02*
X216650000Y-103200000D01*
X218200000Y-103450000D02*
X217950000Y-103200000D01*
X218200000Y-106200000D02*
X218200000Y-103450000D01*
X214600000Y-103450000D02*
X214350000Y-103200000D01*
X214350000Y-103200000D02*
X213900000Y-103200000D01*
X214600000Y-106200000D02*
X214600000Y-103450000D01*
X211000000Y-103350000D02*
X211000000Y-104874999D01*
X211150000Y-103200000D02*
X211000000Y-103350000D01*
X213900000Y-103200000D02*
X211150000Y-103200000D01*
X221800000Y-110700000D02*
X221800000Y-112125000D01*
X221225000Y-112700000D02*
X219700000Y-112700000D01*
X221800000Y-112125000D02*
X221225000Y-112700000D01*
D18*
X201850000Y-103200000D02*
X194350000Y-95700000D01*
X213900000Y-103200000D02*
X201850000Y-103200000D01*
X191200000Y-95700000D02*
X184300000Y-95700000D01*
X194350000Y-95700000D02*
X191200000Y-95700000D01*
D17*
X178975000Y-117875000D02*
X178975000Y-114250000D01*
X178975000Y-114250000D02*
X179300000Y-113925000D01*
X182700000Y-113925000D02*
X191150000Y-105475000D01*
X179300000Y-113925000D02*
X182700000Y-113925000D01*
X191150000Y-105475000D02*
X191200000Y-95700000D01*
X131875001Y-104874999D02*
X136000000Y-104874999D01*
X131800000Y-104950000D02*
X131875001Y-104874999D01*
X131800000Y-107700000D02*
X131800000Y-104950000D01*
X117875001Y-104874999D02*
X121000000Y-104874999D01*
X117550000Y-105200000D02*
X117875001Y-104874999D01*
X116800000Y-105200000D02*
X117550000Y-105200000D01*
D18*
X103250001Y-104749999D02*
X106000000Y-104749999D01*
X102800000Y-105200000D02*
X103250001Y-104749999D01*
X101800000Y-105200000D02*
X102800000Y-105200000D01*
X117750001Y-104749999D02*
X121000000Y-104749999D01*
X116800000Y-105700000D02*
X117750001Y-104749999D01*
X116800000Y-107700000D02*
X116800000Y-105700000D01*
X133250001Y-104749999D02*
X136000000Y-104749999D01*
X132800000Y-105200000D02*
X133250001Y-104749999D01*
X131800000Y-105200000D02*
X132800000Y-105200000D01*
X75250001Y-104749999D02*
X91000000Y-104749999D01*
X72800000Y-107200000D02*
X75250001Y-104749999D01*
X71800000Y-107200000D02*
X72800000Y-107200000D01*
D17*
X176350000Y-118850000D02*
X175650000Y-119550000D01*
X187400000Y-118850000D02*
X176350000Y-118850000D01*
X173950000Y-119600000D02*
X173450000Y-119100000D01*
X173450000Y-119100000D02*
X146375000Y-119100000D01*
X144700000Y-117425000D02*
X144700000Y-112700000D01*
X146375000Y-119100000D02*
X144700000Y-117425000D01*
X174700000Y-122325000D02*
X174700000Y-112700000D01*
X176025000Y-123650000D02*
X174700000Y-122325000D01*
X55425000Y-65200000D02*
X57700000Y-65200000D01*
X55300000Y-65075000D02*
X55425000Y-65200000D01*
X55300000Y-62700000D02*
X55300000Y-65075000D01*
X62500000Y-65175000D02*
X62500000Y-62700000D01*
X62475000Y-65200000D02*
X62500000Y-65175000D01*
X60100000Y-65200000D02*
X62475000Y-65200000D01*
X58900000Y-62700000D02*
X58900000Y-65900000D01*
X58900000Y-63600000D02*
X58900000Y-65900000D01*
X57700000Y-65200000D02*
X60100000Y-65200000D01*
X70425000Y-65200000D02*
X72700000Y-65200000D01*
X70300000Y-65075000D02*
X70425000Y-65200000D01*
X70300000Y-62700000D02*
X70300000Y-65075000D01*
X75450000Y-65200000D02*
X72700000Y-65200000D01*
X77500000Y-65075000D02*
X77375000Y-65200000D01*
X77500000Y-62700000D02*
X77500000Y-65075000D01*
X73900000Y-63600000D02*
X73900000Y-65925000D01*
X77100000Y-65200000D02*
X75450000Y-65200000D01*
X77375000Y-65200000D02*
X77100000Y-65200000D01*
X73900000Y-62700000D02*
X73900000Y-63600000D01*
X75100000Y-65200000D02*
X72700000Y-65200000D01*
X73900000Y-62700000D02*
X73900000Y-65925000D01*
X75100000Y-65200000D02*
X77100000Y-65200000D01*
X102700000Y-65100000D02*
X105100000Y-65100000D01*
X103900000Y-63500000D02*
X103900000Y-65850000D01*
X100425000Y-65100000D02*
X102700000Y-65100000D01*
X100300000Y-64975000D02*
X100425000Y-65100000D01*
X100300000Y-62600000D02*
X100300000Y-64975000D01*
X107475000Y-65100000D02*
X107600000Y-64975000D01*
X105100000Y-65100000D02*
X107475000Y-65100000D01*
X115425000Y-65200000D02*
X117700000Y-65200000D01*
X115300000Y-65075000D02*
X115425000Y-65200000D01*
X115300000Y-62700000D02*
X115300000Y-65075000D01*
X117700000Y-65200000D02*
X120100000Y-65200000D01*
X122375000Y-65200000D02*
X120100000Y-65200000D01*
X122500000Y-65075000D02*
X122375000Y-65200000D01*
X122500000Y-62700000D02*
X122500000Y-65075000D01*
X132700000Y-65200000D02*
X135100000Y-65200000D01*
X160425000Y-65200000D02*
X162700000Y-65200000D01*
X160300000Y-65075000D02*
X160425000Y-65200000D01*
X160300000Y-62700000D02*
X160300000Y-65075000D01*
X163900000Y-62700000D02*
X163900000Y-63600000D01*
X162700000Y-65200000D02*
X165100000Y-65200000D01*
X167375000Y-65200000D02*
X165100000Y-65200000D01*
X167500000Y-65075000D02*
X167375000Y-65200000D01*
X167500000Y-62700000D02*
X167500000Y-65075000D01*
X175425000Y-65200000D02*
X177700000Y-65200000D01*
X175300000Y-65075000D02*
X175425000Y-65200000D01*
X175300000Y-62700000D02*
X175300000Y-65075000D01*
X182500000Y-65175000D02*
X182500000Y-62700000D01*
X182475000Y-65200000D02*
X182500000Y-65175000D01*
X180100000Y-65200000D02*
X177700000Y-65200000D01*
X178900000Y-63600000D02*
X178900000Y-65850000D01*
X182175000Y-65200000D02*
X182200000Y-65225000D01*
X180100000Y-65200000D02*
X182175000Y-65200000D01*
X182200000Y-65225000D02*
X182475000Y-65200000D01*
X212925000Y-110200000D02*
X215200000Y-110200000D01*
X219875000Y-110200000D02*
X217600000Y-110200000D01*
X220000000Y-110075000D02*
X219875000Y-110200000D01*
X220000000Y-107700000D02*
X220000000Y-110075000D01*
X214850000Y-110200000D02*
X217600000Y-110200000D01*
X212925000Y-110200000D02*
X214850000Y-110200000D01*
X212800000Y-110075000D02*
X212925000Y-110200000D01*
X212800000Y-107700000D02*
X212800000Y-110075000D01*
X216400000Y-108600000D02*
X216400000Y-110975000D01*
X216400000Y-108600000D02*
X216400000Y-107700000D01*
X215200000Y-110200000D02*
X217600000Y-110200000D01*
X58475001Y-124650001D02*
X57725010Y-123900010D01*
X61849999Y-124650001D02*
X58475001Y-124650001D01*
X44950010Y-123900010D02*
X44600020Y-123550020D01*
X57725010Y-123900010D02*
X44950010Y-123900010D01*
X35166941Y-119033059D02*
X35375000Y-118825000D01*
X35166941Y-122328353D02*
X35166941Y-119033059D01*
X36563598Y-123725010D02*
X35166941Y-122328353D01*
X44425030Y-123725010D02*
X36563598Y-123725010D01*
X44600020Y-123550020D02*
X44425030Y-123725010D01*
X64849999Y-124650001D02*
X65400000Y-124100000D01*
X61849999Y-124650001D02*
X64849999Y-124650001D01*
D18*
X181860001Y-74749999D02*
X181000000Y-74749999D01*
X178250001Y-74749999D02*
X181860001Y-74749999D01*
X177800000Y-75200000D02*
X178250001Y-74749999D01*
X176800000Y-75200000D02*
X177800000Y-75200000D01*
X201250000Y-89150000D02*
X201250000Y-89749999D01*
X192800000Y-80700000D02*
X201250000Y-89150000D01*
X191800000Y-80700000D02*
X192800000Y-80700000D01*
D17*
X199775000Y-97175000D02*
X201250000Y-95700000D01*
X197825000Y-97175000D02*
X199775000Y-97175000D01*
X195475000Y-105500000D02*
X195475000Y-103225000D01*
X195475000Y-103225000D02*
X195475000Y-104650000D01*
X195475000Y-99925000D02*
X195475000Y-103225000D01*
X195475000Y-115025000D02*
X195475000Y-105500000D01*
X190875000Y-119625000D02*
X195475000Y-115025000D01*
X181725000Y-119625000D02*
X190875000Y-119625000D01*
X176964898Y-126935102D02*
X176950000Y-126950000D01*
X188164898Y-126935102D02*
X176964898Y-126935102D01*
X196200000Y-123975000D02*
X196250000Y-124025000D01*
X194650000Y-123975000D02*
X196200000Y-123975000D01*
X196725000Y-127050000D02*
X199850000Y-127050000D01*
X176964898Y-136185102D02*
X176825000Y-136325000D01*
X176825000Y-136325000D02*
X147825000Y-136325000D01*
X147775019Y-136374981D02*
X146513608Y-136374982D01*
X147825000Y-136325000D02*
X147775019Y-136374981D01*
X146513608Y-136374982D02*
X144413610Y-138474980D01*
X144413610Y-138474980D02*
X97074980Y-138474980D01*
X97074980Y-138474980D02*
X95911410Y-138474980D01*
X95911410Y-138474980D02*
X95661420Y-138224990D01*
X95661420Y-138224990D02*
X69525000Y-138224990D01*
X69350009Y-138049999D02*
X49149999Y-138049999D01*
X69525000Y-138224990D02*
X69350009Y-138049999D01*
X49149999Y-138049999D02*
X42500000Y-131400000D01*
X42500000Y-131400000D02*
X40675000Y-131400000D01*
X33050000Y-123775000D02*
X33050000Y-116575000D01*
X40675000Y-131400000D02*
X33050000Y-123775000D01*
X176964898Y-132810102D02*
X176350000Y-133425000D01*
X176964898Y-126935102D02*
X176964898Y-132810102D01*
X208525000Y-138550000D02*
X209275000Y-139300000D01*
X208525000Y-135725000D02*
X208525000Y-138550000D01*
X42575002Y-129350000D02*
X39261410Y-129350000D01*
X34716931Y-124805521D02*
X34716931Y-117691931D01*
X39261410Y-129350000D02*
X34716931Y-124805521D01*
X35450000Y-116958862D02*
X35450000Y-116825000D01*
X34716931Y-117691931D02*
X35450000Y-116958862D01*
X40625000Y-101725000D02*
X40875000Y-101475000D01*
X36375000Y-101725000D02*
X40625000Y-101725000D01*
X44750000Y-131650000D02*
X44600000Y-131500000D01*
X61550000Y-131650000D02*
X44750000Y-131650000D01*
X44600000Y-131500000D02*
X42575002Y-129350000D01*
X44775002Y-131550000D02*
X44600000Y-131500000D01*
X85300021Y-136524979D02*
X84500030Y-137324970D01*
X86536401Y-136524979D02*
X85300021Y-136524979D01*
X86886382Y-136874960D02*
X86536401Y-136524979D01*
X84500030Y-137324970D02*
X71799970Y-137324970D01*
X70224999Y-136974989D02*
X69593210Y-137606778D01*
X71449989Y-136974989D02*
X70224999Y-136974989D01*
X71799970Y-137324970D02*
X71449989Y-136974989D01*
X69593210Y-137606778D02*
X69593210Y-137656790D01*
X69536409Y-137599989D02*
X49499989Y-137599989D01*
X69593210Y-137656790D02*
X69536409Y-137599989D01*
X42275000Y-130375000D02*
X42275000Y-129975000D01*
X49499989Y-137599989D02*
X42275000Y-130375000D01*
X37600000Y-79850000D02*
X37525000Y-79925000D01*
X42050000Y-79850000D02*
X37600000Y-79850000D01*
X90375010Y-136874960D02*
X90650000Y-136599970D01*
X86886382Y-136874960D02*
X90375010Y-136874960D01*
X202400000Y-131100000D02*
X202400000Y-141575000D01*
X202025736Y-143275010D02*
X201850746Y-143100020D01*
X202450000Y-143275010D02*
X202025736Y-143275010D01*
X201850746Y-143100020D02*
X194150000Y-143100020D01*
X194150000Y-143100020D02*
X148375000Y-143100020D01*
X148375000Y-143100020D02*
X123361410Y-143100020D01*
X123361410Y-143100020D02*
X123080715Y-143380715D01*
X122911419Y-143550011D02*
X121913598Y-143550010D01*
X123080715Y-143380715D02*
X122911419Y-143550011D01*
X121913598Y-143550010D02*
X121338600Y-142975012D01*
X121338600Y-142975012D02*
X119663601Y-142975011D01*
X119663601Y-142975011D02*
X119238611Y-142550021D01*
X119238611Y-142550021D02*
X114724979Y-142550021D01*
X114549989Y-142725011D02*
X114150000Y-142725011D01*
X114724979Y-142550021D02*
X114549989Y-142725011D01*
X117000000Y-131100000D02*
X117100000Y-131200000D01*
X113900000Y-131100000D02*
X117000000Y-131100000D01*
X202850002Y-128475000D02*
X204125000Y-129749998D01*
X199850000Y-128475000D02*
X202850002Y-128475000D01*
X204125000Y-129749998D02*
X204125000Y-134275000D01*
X204125000Y-140119793D02*
X203209210Y-141035583D01*
X204125000Y-134275000D02*
X204125000Y-140119793D01*
X197975736Y-141124990D02*
X197800746Y-141299980D01*
X198400000Y-141124990D02*
X197975736Y-141124990D01*
X193386388Y-141299980D02*
X193286399Y-141199991D01*
X197800746Y-141299980D02*
X193386388Y-141299980D01*
X193286399Y-141199991D02*
X153124991Y-141199991D01*
X153124991Y-141199991D02*
X145675000Y-141199991D01*
X145675000Y-141199991D02*
X140925000Y-141199991D01*
X140925000Y-141199991D02*
X104525000Y-141199991D01*
X104525000Y-141125001D02*
X104425000Y-141025001D01*
X104525000Y-141199991D02*
X104525000Y-141125001D01*
X190374337Y-134975399D02*
X189638663Y-134975399D01*
X190498938Y-135100000D02*
X190374337Y-134975399D01*
X191550000Y-135100000D02*
X190498938Y-135100000D01*
X189638663Y-134975399D02*
X189239082Y-135374980D01*
X189239082Y-135374980D02*
X180924980Y-135374980D01*
X176503499Y-135110091D02*
X176244295Y-135369295D01*
X180660091Y-135110091D02*
X176503499Y-135110091D01*
X180924980Y-135374980D02*
X180660091Y-135110091D01*
X176188610Y-135424980D02*
X147874980Y-135424980D01*
X176244295Y-135369295D02*
X176188610Y-135424980D01*
X147874980Y-135424980D02*
X145575000Y-133125000D01*
X145575000Y-133125000D02*
X141500000Y-133125000D01*
X141500000Y-133125000D02*
X137200000Y-137425000D01*
X137175000Y-137425000D02*
X137025040Y-137574960D01*
X137200000Y-137425000D02*
X137175000Y-137425000D01*
X137025040Y-137574960D02*
X124225000Y-137574960D01*
X124225000Y-137574960D02*
X108000000Y-137574960D01*
X96284210Y-137574960D02*
X96034220Y-137324970D01*
X108000000Y-137574960D02*
X96284210Y-137574960D01*
X96034220Y-137324970D02*
X94875000Y-137324970D01*
X94875000Y-137324970D02*
X86675001Y-137324970D01*
X85749999Y-136974989D02*
X85025000Y-137699988D01*
X86350001Y-136974989D02*
X85749999Y-136974989D01*
X86675001Y-137299989D02*
X86350001Y-136974989D01*
X86675001Y-137324970D02*
X86675001Y-137299989D01*
X84950012Y-137699988D02*
X84875020Y-137774980D01*
X85025000Y-137699988D02*
X84950012Y-137699988D01*
X70699990Y-137774980D02*
X70525000Y-137599990D01*
X84875020Y-137774980D02*
X70699990Y-137774980D01*
X70700000Y-133300000D02*
X63100000Y-133300000D01*
X96600000Y-133300000D02*
X89200000Y-133300000D01*
X97000000Y-133700000D02*
X96600000Y-133300000D01*
M02*
