G04 #@! TF.GenerationSoftware,KiCad,Pcbnew,5.1.5+dfsg1-2build2*
G04 #@! TF.CreationDate,2024-05-29T18:28:51+01:00*
G04 #@! TF.ProjectId,qt_touch1,71745f74-6f75-4636-9831-2e6b69636164,rev?*
G04 #@! TF.SameCoordinates,Original*
G04 #@! TF.FileFunction,Paste,Top*
G04 #@! TF.FilePolarity,Positive*
%FSLAX46Y46*%
G04 Gerber Fmt 4.6, Leading zero omitted, Abs format (unit mm)*
G04 Created by KiCad (PCBNEW 5.1.5+dfsg1-2build2) date 2024-05-29 18:28:51*
%MOMM*%
%LPD*%
G04 APERTURE LIST*
%ADD10R,5.000000X1.000000*%
%ADD11R,1.000000X5.000000*%
%ADD12R,5.000000X0.250000*%
%ADD13R,0.250000X5.000000*%
G04 APERTURE END LIST*
D10*
X141600000Y-112700000D03*
X144700000Y-112700000D03*
X138500000Y-112700000D03*
D11*
X146800000Y-110700000D03*
X136000000Y-110700000D03*
X136000000Y-105200000D03*
X146800000Y-105200000D03*
X136000000Y-107700000D03*
X139600000Y-106200000D03*
X143200000Y-106200000D03*
X146800000Y-107700000D03*
D12*
X140200000Y-110200000D03*
X142600000Y-110200000D03*
D13*
X141400000Y-108600000D03*
X137800000Y-107700000D03*
X145000000Y-107700000D03*
D10*
X138900000Y-103200000D03*
X144000000Y-103200000D03*
X141400000Y-103200000D03*
D13*
X141400000Y-107700000D03*
D10*
X134100000Y-97700000D03*
X137200000Y-97700000D03*
X131000000Y-97700000D03*
D11*
X139300000Y-95700000D03*
X128500000Y-95700000D03*
X128500000Y-90200000D03*
X139300000Y-90200000D03*
X128500000Y-92700000D03*
X132100000Y-91200000D03*
X135700000Y-91200000D03*
X139300000Y-92700000D03*
D12*
X132700000Y-95200000D03*
X135100000Y-95200000D03*
D13*
X133900000Y-93600000D03*
X130300000Y-92700000D03*
X137500000Y-92700000D03*
D10*
X131400000Y-88200000D03*
X136500000Y-88200000D03*
X133900000Y-88200000D03*
D13*
X133900000Y-92700000D03*
D10*
X134100000Y-67700000D03*
X137200000Y-67700000D03*
X131000000Y-67700000D03*
D11*
X139300000Y-65700000D03*
X128500000Y-65700000D03*
X128500000Y-60200000D03*
X139300000Y-60200000D03*
X128500000Y-62700000D03*
X132100000Y-61200000D03*
X135700000Y-61200000D03*
X139300000Y-62700000D03*
D12*
X132700000Y-65200000D03*
X135100000Y-65200000D03*
D13*
X133900000Y-63600000D03*
X130300000Y-62700000D03*
X137500000Y-62700000D03*
D10*
X131400000Y-58200000D03*
X136500000Y-58200000D03*
X133900000Y-58200000D03*
D13*
X133900000Y-62700000D03*
D10*
X126600000Y-112700000D03*
X129700000Y-112700000D03*
X123500000Y-112700000D03*
D11*
X131800000Y-110700000D03*
X121000000Y-110700000D03*
X121000000Y-105200000D03*
X131800000Y-105200000D03*
X121000000Y-107700000D03*
X124600000Y-106200000D03*
X128200000Y-106200000D03*
X131800000Y-107700000D03*
D12*
X125200000Y-110200000D03*
X127600000Y-110200000D03*
D13*
X126400000Y-108600000D03*
X122800000Y-107700000D03*
X130000000Y-107700000D03*
D10*
X123900000Y-103200000D03*
X129000000Y-103200000D03*
X126400000Y-103200000D03*
D13*
X126400000Y-107700000D03*
D10*
X126600000Y-82700000D03*
X129700000Y-82700000D03*
X123500000Y-82700000D03*
D11*
X131800000Y-80700000D03*
X121000000Y-80700000D03*
X121000000Y-75200000D03*
X131800000Y-75200000D03*
X121000000Y-77700000D03*
X124600000Y-76200000D03*
X128200000Y-76200000D03*
X131800000Y-77700000D03*
D12*
X125200000Y-80200000D03*
X127600000Y-80200000D03*
D13*
X126400000Y-78600000D03*
X122800000Y-77700000D03*
X130000000Y-77700000D03*
D10*
X123900000Y-73200000D03*
X129000000Y-73200000D03*
X126400000Y-73200000D03*
D13*
X126400000Y-77700000D03*
D10*
X119100000Y-97700000D03*
X122200000Y-97700000D03*
X116000000Y-97700000D03*
D11*
X124300000Y-95700000D03*
X113500000Y-95700000D03*
X113500000Y-90200000D03*
X124300000Y-90200000D03*
X113500000Y-92700000D03*
X117100000Y-91200000D03*
X120700000Y-91200000D03*
X124300000Y-92700000D03*
D12*
X117700000Y-95200000D03*
X120100000Y-95200000D03*
D13*
X118900000Y-93600000D03*
X115300000Y-92700000D03*
X122500000Y-92700000D03*
D10*
X116400000Y-88200000D03*
X121500000Y-88200000D03*
X118900000Y-88200000D03*
D13*
X118900000Y-92700000D03*
D10*
X119100000Y-67700000D03*
X122200000Y-67700000D03*
X116000000Y-67700000D03*
D11*
X124300000Y-65700000D03*
X113500000Y-65700000D03*
X113500000Y-60200000D03*
X124300000Y-60200000D03*
X113500000Y-62700000D03*
X117100000Y-61200000D03*
X120700000Y-61200000D03*
X124300000Y-62700000D03*
D12*
X117700000Y-65200000D03*
X120100000Y-65200000D03*
D13*
X118900000Y-63600000D03*
X115300000Y-62700000D03*
X122500000Y-62700000D03*
D10*
X116400000Y-58200000D03*
X121500000Y-58200000D03*
X118900000Y-58200000D03*
D13*
X118900000Y-62700000D03*
D10*
X111600000Y-112700000D03*
X114700000Y-112700000D03*
X108500000Y-112700000D03*
D11*
X116800000Y-110700000D03*
X106000000Y-110700000D03*
X106000000Y-105200000D03*
X116800000Y-105200000D03*
X106000000Y-107700000D03*
X109600000Y-106200000D03*
X113200000Y-106200000D03*
X116800000Y-107700000D03*
D12*
X110200000Y-110200000D03*
X112600000Y-110200000D03*
D13*
X111400000Y-108600000D03*
X107800000Y-107700000D03*
X115000000Y-107700000D03*
D10*
X108900000Y-103200000D03*
X114000000Y-103200000D03*
X111400000Y-103200000D03*
D13*
X111400000Y-107700000D03*
D10*
X206850000Y-97700000D03*
X209950000Y-97700000D03*
X203750000Y-97700000D03*
D11*
X212050000Y-95700000D03*
X201250000Y-95700000D03*
X201250000Y-90200000D03*
X212050000Y-90200000D03*
X201250000Y-92700000D03*
X204850000Y-91200000D03*
X208450000Y-91200000D03*
X212050000Y-92700000D03*
D12*
X205450000Y-95200000D03*
X207850000Y-95200000D03*
D13*
X206650000Y-93600000D03*
X203050000Y-92700000D03*
X210250000Y-92700000D03*
D10*
X204150000Y-88200000D03*
X209250000Y-88200000D03*
X206650000Y-88200000D03*
D13*
X206650000Y-92700000D03*
D10*
X111400000Y-82700000D03*
X114500000Y-82700000D03*
X108300000Y-82700000D03*
D11*
X116600000Y-80700000D03*
X105800000Y-80700000D03*
X105800000Y-75200000D03*
X116600000Y-75200000D03*
X105800000Y-77700000D03*
X109400000Y-76200000D03*
X113000000Y-76200000D03*
X116600000Y-77700000D03*
D12*
X110000000Y-80200000D03*
X112400000Y-80200000D03*
D13*
X111200000Y-78600000D03*
X107600000Y-77700000D03*
X114800000Y-77700000D03*
D10*
X108700000Y-73200000D03*
X113800000Y-73200000D03*
X111200000Y-73200000D03*
D13*
X111200000Y-77700000D03*
D10*
X104100000Y-97900000D03*
X107200000Y-97900000D03*
X101000000Y-97900000D03*
D11*
X109300000Y-95900000D03*
X98500000Y-95900000D03*
X98500000Y-90400000D03*
X109300000Y-90400000D03*
X98500000Y-92900000D03*
X102100000Y-91400000D03*
X105700000Y-91400000D03*
X109300000Y-92900000D03*
D12*
X102700000Y-95400000D03*
X105100000Y-95400000D03*
D13*
X103900000Y-93800000D03*
X100300000Y-92900000D03*
X107500000Y-92900000D03*
D10*
X101400000Y-88400000D03*
X106500000Y-88400000D03*
X103900000Y-88400000D03*
D13*
X103900000Y-92900000D03*
D10*
X216600000Y-82700000D03*
X219700000Y-82700000D03*
X213500000Y-82700000D03*
D11*
X221800000Y-80700000D03*
X211000000Y-80700000D03*
X211000000Y-75200000D03*
X221800000Y-75200000D03*
X211000000Y-77700000D03*
X214600000Y-76200000D03*
X218200000Y-76200000D03*
X221800000Y-77700000D03*
D12*
X215200000Y-80200000D03*
X217600000Y-80200000D03*
D13*
X216400000Y-78600000D03*
X212800000Y-77700000D03*
X220000000Y-77700000D03*
D10*
X213900000Y-73200000D03*
X219000000Y-73200000D03*
X216400000Y-73200000D03*
D13*
X216400000Y-77700000D03*
D10*
X104100000Y-67600000D03*
X107200000Y-67600000D03*
X101000000Y-67600000D03*
D11*
X109300000Y-65600000D03*
X98500000Y-65600000D03*
X98500000Y-60100000D03*
X109300000Y-60100000D03*
X98500000Y-62600000D03*
X102100000Y-61100000D03*
X105700000Y-61100000D03*
X109300000Y-62600000D03*
D12*
X102700000Y-65100000D03*
X105100000Y-65100000D03*
D13*
X103900000Y-63500000D03*
X100300000Y-62600000D03*
X107500000Y-62600000D03*
D10*
X101400000Y-58100000D03*
X106500000Y-58100000D03*
X103900000Y-58100000D03*
D13*
X103900000Y-62600000D03*
D10*
X216600000Y-112700000D03*
X219700000Y-112700000D03*
X213500000Y-112700000D03*
D11*
X221800000Y-110700000D03*
X211000000Y-110700000D03*
X211000000Y-105200000D03*
X221800000Y-105200000D03*
X211000000Y-107700000D03*
X214600000Y-106200000D03*
X218200000Y-106200000D03*
X221800000Y-107700000D03*
D12*
X215200000Y-110200000D03*
X217600000Y-110200000D03*
D13*
X216400000Y-108600000D03*
X212800000Y-107700000D03*
X220000000Y-107700000D03*
D10*
X213900000Y-103200000D03*
X219000000Y-103200000D03*
X216400000Y-103200000D03*
D13*
X216400000Y-107700000D03*
D10*
X96600000Y-82700000D03*
X99700000Y-82700000D03*
X93500000Y-82700000D03*
D11*
X101800000Y-80700000D03*
X91000000Y-80700000D03*
X91000000Y-75200000D03*
X101800000Y-75200000D03*
X91000000Y-77700000D03*
X94600000Y-76200000D03*
X98200000Y-76200000D03*
X101800000Y-77700000D03*
D12*
X95200000Y-80200000D03*
X97600000Y-80200000D03*
D13*
X96400000Y-78600000D03*
X92800000Y-77700000D03*
X100000000Y-77700000D03*
D10*
X93900000Y-73200000D03*
X99000000Y-73200000D03*
X96400000Y-73200000D03*
D13*
X96400000Y-77700000D03*
D10*
X96600000Y-112700000D03*
X99700000Y-112700000D03*
X93500000Y-112700000D03*
D11*
X101800000Y-110700000D03*
X91000000Y-110700000D03*
X91000000Y-105200000D03*
X101800000Y-105200000D03*
X91000000Y-107700000D03*
X94600000Y-106200000D03*
X98200000Y-106200000D03*
X101800000Y-107700000D03*
D12*
X95200000Y-110200000D03*
X97600000Y-110200000D03*
D13*
X96400000Y-108600000D03*
X92800000Y-107700000D03*
X100000000Y-107700000D03*
D10*
X93900000Y-103200000D03*
X99000000Y-103200000D03*
X96400000Y-103200000D03*
D13*
X96400000Y-107700000D03*
D10*
X186600000Y-82700000D03*
X189700000Y-82700000D03*
X183500000Y-82700000D03*
D11*
X191800000Y-80700000D03*
X181000000Y-80700000D03*
X181000000Y-75200000D03*
X191800000Y-75200000D03*
X181000000Y-77700000D03*
X184600000Y-76200000D03*
X188200000Y-76200000D03*
X191800000Y-77700000D03*
D12*
X185200000Y-80200000D03*
X187600000Y-80200000D03*
D13*
X186400000Y-78600000D03*
X182800000Y-77700000D03*
X190000000Y-77700000D03*
D10*
X183900000Y-73200000D03*
X189000000Y-73200000D03*
X186400000Y-73200000D03*
D13*
X186400000Y-77700000D03*
D10*
X74100000Y-97700000D03*
X77200000Y-97700000D03*
X71000000Y-97700000D03*
D11*
X79300000Y-95700000D03*
X68500000Y-95700000D03*
X68500000Y-90200000D03*
X79300000Y-90200000D03*
X68500000Y-92700000D03*
X72100000Y-91200000D03*
X75700000Y-91200000D03*
X79300000Y-92700000D03*
D12*
X72700000Y-95200000D03*
X75100000Y-95200000D03*
D13*
X73900000Y-93600000D03*
X70300000Y-92700000D03*
X77500000Y-92700000D03*
D10*
X71400000Y-88200000D03*
X76500000Y-88200000D03*
X73900000Y-88200000D03*
D13*
X73900000Y-92700000D03*
D10*
X74100000Y-67700000D03*
X77200000Y-67700000D03*
X71000000Y-67700000D03*
D11*
X79300000Y-65700000D03*
X68500000Y-65700000D03*
X68500000Y-60200000D03*
X79300000Y-60200000D03*
X68500000Y-62700000D03*
X72100000Y-61200000D03*
X75700000Y-61200000D03*
X79300000Y-62700000D03*
D12*
X72700000Y-65200000D03*
X75100000Y-65200000D03*
D13*
X73900000Y-63600000D03*
X70300000Y-62700000D03*
X77500000Y-62700000D03*
D10*
X71400000Y-58200000D03*
X76500000Y-58200000D03*
X73900000Y-58200000D03*
D13*
X73900000Y-62700000D03*
D10*
X179100000Y-97700000D03*
X182200000Y-97700000D03*
X176000000Y-97700000D03*
D11*
X184300000Y-95700000D03*
X173500000Y-95700000D03*
X173500000Y-90200000D03*
X184300000Y-90200000D03*
X173500000Y-92700000D03*
X177100000Y-91200000D03*
X180700000Y-91200000D03*
X184300000Y-92700000D03*
D12*
X177700000Y-95200000D03*
X180100000Y-95200000D03*
D13*
X178900000Y-93600000D03*
X175300000Y-92700000D03*
X182500000Y-92700000D03*
D10*
X176400000Y-88200000D03*
X181500000Y-88200000D03*
X178900000Y-88200000D03*
D13*
X178900000Y-92700000D03*
D10*
X179100000Y-67700000D03*
X182200000Y-67700000D03*
X176000000Y-67700000D03*
D11*
X184300000Y-65700000D03*
X173500000Y-65700000D03*
X173500000Y-60200000D03*
X184300000Y-60200000D03*
X173500000Y-62700000D03*
X177100000Y-61200000D03*
X180700000Y-61200000D03*
X184300000Y-62700000D03*
D12*
X177700000Y-65200000D03*
X180100000Y-65200000D03*
D13*
X178900000Y-63600000D03*
X175300000Y-62700000D03*
X182500000Y-62700000D03*
D10*
X176400000Y-58200000D03*
X181500000Y-58200000D03*
X178900000Y-58200000D03*
D13*
X178900000Y-62700000D03*
D10*
X66600000Y-112200000D03*
X69700000Y-112200000D03*
X63500000Y-112200000D03*
D11*
X71800000Y-110200000D03*
X61000000Y-110200000D03*
X61000000Y-104700000D03*
X71800000Y-104700000D03*
X61000000Y-107200000D03*
X64600000Y-105700000D03*
X68200000Y-105700000D03*
X71800000Y-107200000D03*
D12*
X65200000Y-109700000D03*
X67600000Y-109700000D03*
D13*
X66400000Y-108100000D03*
X62800000Y-107200000D03*
X70000000Y-107200000D03*
D10*
X63900000Y-102700000D03*
X69000000Y-102700000D03*
X66400000Y-102700000D03*
D13*
X66400000Y-107200000D03*
D10*
X66600000Y-82700000D03*
X69700000Y-82700000D03*
X63500000Y-82700000D03*
D11*
X71800000Y-80700000D03*
X61000000Y-80700000D03*
X61000000Y-75200000D03*
X71800000Y-75200000D03*
X61000000Y-77700000D03*
X64600000Y-76200000D03*
X68200000Y-76200000D03*
X71800000Y-77700000D03*
D12*
X65200000Y-80200000D03*
X67600000Y-80200000D03*
D13*
X66400000Y-78600000D03*
X62800000Y-77700000D03*
X70000000Y-77700000D03*
D10*
X63900000Y-73200000D03*
X69000000Y-73200000D03*
X66400000Y-73200000D03*
D13*
X66400000Y-77700000D03*
D10*
X171600000Y-112700000D03*
X174700000Y-112700000D03*
X168500000Y-112700000D03*
D11*
X176800000Y-110700000D03*
X166000000Y-110700000D03*
X166000000Y-105200000D03*
X176800000Y-105200000D03*
X166000000Y-107700000D03*
X169600000Y-106200000D03*
X173200000Y-106200000D03*
X176800000Y-107700000D03*
D12*
X170200000Y-110200000D03*
X172600000Y-110200000D03*
D13*
X171400000Y-108600000D03*
X167800000Y-107700000D03*
X175000000Y-107700000D03*
D10*
X168900000Y-103200000D03*
X174000000Y-103200000D03*
X171400000Y-103200000D03*
D13*
X171400000Y-107700000D03*
D10*
X171600000Y-82700000D03*
X174700000Y-82700000D03*
X168500000Y-82700000D03*
D11*
X176800000Y-80700000D03*
X166000000Y-80700000D03*
X166000000Y-75200000D03*
X176800000Y-75200000D03*
X166000000Y-77700000D03*
X169600000Y-76200000D03*
X173200000Y-76200000D03*
X176800000Y-77700000D03*
D12*
X170200000Y-80200000D03*
X172600000Y-80200000D03*
D13*
X171400000Y-78600000D03*
X167800000Y-77700000D03*
X175000000Y-77700000D03*
D10*
X168900000Y-73200000D03*
X174000000Y-73200000D03*
X171400000Y-73200000D03*
D13*
X171400000Y-77700000D03*
D10*
X59100000Y-97700000D03*
X62200000Y-97700000D03*
X56000000Y-97700000D03*
D11*
X64300000Y-95700000D03*
X53500000Y-95700000D03*
X53500000Y-90200000D03*
X64300000Y-90200000D03*
X53500000Y-92700000D03*
X57100000Y-91200000D03*
X60700000Y-91200000D03*
X64300000Y-92700000D03*
D12*
X57700000Y-95200000D03*
X60100000Y-95200000D03*
D13*
X58900000Y-93600000D03*
X55300000Y-92700000D03*
X62500000Y-92700000D03*
D10*
X56400000Y-88200000D03*
X61500000Y-88200000D03*
X58900000Y-88200000D03*
D13*
X58900000Y-92700000D03*
D10*
X59100000Y-67700000D03*
X62200000Y-67700000D03*
X56000000Y-67700000D03*
D11*
X64300000Y-65700000D03*
X53500000Y-65700000D03*
X53500000Y-60200000D03*
X64300000Y-60200000D03*
X53500000Y-62700000D03*
X57100000Y-61200000D03*
X60700000Y-61200000D03*
X64300000Y-62700000D03*
D12*
X57700000Y-65200000D03*
X60100000Y-65200000D03*
D13*
X58900000Y-63600000D03*
X55300000Y-62700000D03*
X62500000Y-62700000D03*
D10*
X56400000Y-58200000D03*
X61500000Y-58200000D03*
X58900000Y-58200000D03*
D13*
X58900000Y-62700000D03*
D10*
X164100000Y-67700000D03*
X167200000Y-67700000D03*
X161000000Y-67700000D03*
D11*
X169300000Y-65700000D03*
X158500000Y-65700000D03*
X158500000Y-60200000D03*
X169300000Y-60200000D03*
X158500000Y-62700000D03*
X162100000Y-61200000D03*
X165700000Y-61200000D03*
X169300000Y-62700000D03*
D12*
X162700000Y-65200000D03*
X165100000Y-65200000D03*
D13*
X163900000Y-63600000D03*
X160300000Y-62700000D03*
X167500000Y-62700000D03*
D10*
X161400000Y-58200000D03*
X166500000Y-58200000D03*
X163900000Y-58200000D03*
D13*
X163900000Y-62700000D03*
M02*
