M48
; DRILL file {KiCad 5.1.5+dfsg1-2build2} date Thu 23 May 2024 04:39:48 BST
; FORMAT={-:-/ absolute / inch / decimal}
; #@! TF.CreationDate,2024-05-23T04:39:48+01:00
; #@! TF.GenerationSoftware,Kicad,Pcbnew,5.1.5+dfsg1-2build2
; #@! TF.FileFunction,Plated,1,2,PTH
FMAT,2
INCH
T1C0.0157
T2C0.1220
%
G90
G05
T1
X1.2313Y-3.8445
X1.2677Y-4.9626
X1.3012Y-4.5896
X1.372Y-3.2382
X1.3898Y-3.8415
X1.3927Y-4.6781
X1.3957Y-4.5994
X1.4091Y-4.7444
X1.4203Y-3.8858
X1.4281Y-5.1319
X1.4321Y-4.0049
X1.4587Y-4.8287
X1.4596Y-4.7805
X1.4774Y-3.1467
X1.4823Y-3.5433
X1.498Y-4.8012
X1.5285Y-4.9961
X1.5413Y-3.2411
X1.5437Y-5.0557
X1.5679Y-4.7795
X1.5817Y-3.5404
X1.6093Y-3.9951
X1.6339Y-3.936
X1.6555Y-3.1437
X1.6644Y-5.1171
X1.9764Y-5.0709
X1.9764Y-5.1348
X2.1535Y-5.0965
X2.1535Y-5.1545
X2.2283Y-4.7451
X2.3189Y-2.5945
X2.3189Y-3.7756
X2.3238Y-4.8829
X2.3593Y-5.4596
X2.435Y-5.5699
X2.4665Y-4.876
X2.5256Y-4.7451
X2.5719Y-5.123
X2.6142Y-3.1791
X2.6142Y-4.3484
X2.627Y-5.1545
X2.6289Y-4.7451
X2.6801Y-5.2077
X2.7047Y-5.4596
X2.7569Y-5.185
X2.7766Y-5.4173
X2.872Y-5.1762
X2.8829Y-5.1024
X2.9094Y-2.5955
X2.9094Y-3.7766
X2.997Y-5.1014
X2.998Y-5.185
X3.315Y-5.1831
X3.3593Y-4.8839
X3.3878Y-5.4173
X3.4715Y-4.8839
X3.5138Y-4.7854
X3.5404Y-5.6014
X3.6132Y-4.8878
X3.6644Y-5.1073
X3.6693Y-5.19
X3.6998Y-5.2283
X3.7175Y-4.8839
X3.751Y-5.4882
X3.7726Y-5.2224
X3.7953Y-3.187
X3.7953Y-4.3661
X3.8169Y-4.878
X3.8681Y-5.3898
X3.9675Y-5.1959
X3.9734Y-5.1093
X4.063Y-5.6073
X4.0906Y-2.5925
X4.0906Y-3.7844
X4.0955Y-5.1063
X4.1024Y-5.1919
X4.1112Y-5.5522
X4.2648Y-4.8789
X4.378Y-3.187
X4.3848Y-4.3671
X4.4941Y-5.6191
X4.56Y-4.876
X4.6097Y-5.1265
X4.6373Y-5.2082
X4.6811Y-2.5945
X4.6811Y-3.7766
X4.7569Y-5.1299
X4.7766Y-4.876
X4.8189Y-5.6093
X4.9114Y-5.2106
X4.9134Y-5.127
X4.9764Y-3.185
X4.9764Y-4.3681
X5.2717Y-2.5955
X5.2717Y-3.7776
X5.5669Y-4.3681
X5.6752Y-3.0778
X5.6811Y-3.9055
X6.4016Y-3.9055
X6.4154Y-3.9547
X6.4528Y-2.5925
X6.4695Y-4.5935
X6.5217Y-3.9616
X6.5335Y-3.9262
X6.748Y-3.1841
X6.748Y-4.3681
X6.8484Y-4.7087
X6.9154Y-4.7067
X6.9301Y-4.8681
X6.9429Y-5.253
X6.9671Y-5.3616
X7.0039Y-5.435
X7.0226Y-5.3622
X7.0433Y-2.5925
X7.0433Y-3.7776
X7.0463Y-4.6407
X7.1545Y-4.7096
X7.2308Y-4.9606
X7.2308Y-5.0512
X7.2308Y-5.1417
X7.2308Y-5.2283
X7.2618Y-4.0955
X7.2972Y-4.189
X7.3386Y-3.186
X7.3386Y-4.1191
X7.3455Y-4.0157
X7.378Y-4.6791
X7.4081Y-4.9974
X7.4832Y-5.3386
X7.5069Y-5.3622
X7.5276Y-5.0079
X7.5276Y-5.1949
X7.5413Y-5.3189
X7.5827Y-5.0896
X7.6486Y-5.0925
X7.6634Y-4.8809
X7.6939Y-5.0049
X7.6939Y-5.0896
X7.6959Y-3.9341
X7.7264Y-4.8829
X7.729Y-5.3794
X7.7451Y-5.002
X7.7549Y-4.9557
X7.7602Y-5.3842
X7.7844Y-5.0472
X7.7884Y-3.8258
X7.7894Y-2.1575
X7.7933Y-5.19
X7.811Y-5.5561
X7.8317Y-5.1398
X7.8415Y-5.1841
X7.8504Y-5.3287
X7.8681Y-5.002
X7.8681Y-5.0581
X7.9685Y-5.1614
X7.9685Y-5.5738
X7.9705Y-5.6407
X7.9793Y-5.0876
X8.0004Y-5.5526
X8.0049Y-5.3711
X8.0118Y-5.1929
X8.0197Y-5.6407
X8.0236Y-5.5738
X8.0669Y-5.1073
X8.1358Y-3.7785
X8.1565Y-5.0335
X8.1604Y-4.8612
X8.1624Y-4.6329
X8.1634Y-5.249
X8.2096Y-5.3435
X8.2392Y-5.4843
X8.5197Y-4.3691
X8.5226Y-3.19
X8.6811Y-5.623
X8.9429Y-5.5915
T2
X1.5315Y-1.9961
X1.5315Y-5.3228
X5.6457Y-1.9961
X5.6457Y-5.3228
X9.7598Y-1.9961
X9.7598Y-5.3228
T0
M30
