M48
; DRILL file {KiCad 5.1.5+dfsg1-2build2} date Fri 21 Jun 2024 19:05:46 BST
; FORMAT={-:-/ absolute / inch / decimal}
; #@! TF.CreationDate,2024-06-21T19:05:46+01:00
; #@! TF.GenerationSoftware,Kicad,Pcbnew,5.1.5+dfsg1-2build2
; #@! TF.FileFunction,Plated,1,2,PTH
FMAT,2
INCH
T1C0.0157
T2C0.1220
%
G90
G05
T1
X1.2313Y-3.8445
X1.2677Y-4.9626
X1.3012Y-4.5896
X1.372Y-3.2382
X1.3898Y-3.8415
X1.3927Y-4.6781
X1.3957Y-4.5994
X1.4091Y-4.7444
X1.4203Y-3.8858
X1.4281Y-5.1319
X1.4321Y-4.0049
X1.4587Y-4.8287
X1.4596Y-4.7805
X1.4774Y-3.1467
X1.4823Y-3.5433
X1.498Y-4.8012
X1.5285Y-4.9961
X1.5413Y-3.2411
X1.5437Y-5.0557
X1.5679Y-4.7795
X1.5817Y-3.5404
X1.6093Y-3.9951
X1.6339Y-3.936
X1.6555Y-3.1437
X1.6644Y-5.1171
X1.9764Y-5.0709
X1.9764Y-5.1348
X2.1496Y-5.3268
X2.1535Y-5.0965
X2.1535Y-5.1545
X2.2283Y-4.7451
X2.2323Y-5.0197
X2.2953Y-5.3307
X2.3189Y-2.5945
X2.3189Y-3.7874
X2.3189Y-5.0197
X2.3238Y-4.8829
X2.3287Y-2.2421
X2.3484Y-1.8091
X2.3543Y-5.0512
X2.3593Y-5.4596
X2.3858Y-5.2165
X2.4134Y-4.8789
X2.4232Y-5.1831
X2.435Y-5.5699
X2.4528Y-5.0945
X2.4843Y-5.0472
X2.4843Y-5.248
X2.5256Y-4.7451
X2.5276Y-5.0906
X2.5719Y-5.123
X2.5748Y-4.8858
X2.5827Y-5.3888
X2.5984Y-5.2077
X2.6142Y-3.1969
X2.6142Y-4.3583
X2.6142Y-4.6732
X2.627Y-5.1545
X2.6289Y-4.7451
X2.6732Y-5.1024
X2.6762Y-5.2096
X2.7008Y-5.3888
X2.7047Y-5.4596
X2.7766Y-5.4173
X2.7835Y-5.248
X2.872Y-5.1762
X2.8829Y-5.1024
X2.9094Y-2.5955
X2.9094Y-3.3346
X2.9094Y-3.4724
X2.9094Y-3.7874
X2.997Y-5.1014
X2.998Y-5.185
X3.3425Y-3.374
X3.3425Y-4.0433
X3.378Y-5.063
X3.3878Y-5.4173
X3.4094Y-5.1811
X3.4173Y-4.8898
X3.438Y-5.2096
X3.4685Y-5.1732
X3.4705Y-4.6142
X3.5Y-5.063
X3.5118Y-5.248
X3.5138Y-4.7854
X3.5394Y-5.0709
X3.5404Y-5.6014
X3.563Y-4.8396
X3.5689Y-5.378
X3.5787Y-2.813
X3.5984Y-1.8091
X3.5984Y-3.4724
X3.6339Y-4.7825
X3.6654Y-5.1575
X3.6693Y-5.0748
X3.7087Y-5.0748
X3.7136Y-4.8878
X3.751Y-5.4882
X3.7598Y-5.0748
X3.7795Y-4.7953
X3.7953Y-3.1969
X3.7953Y-4.3661
X3.7992Y-5.1673
X3.8169Y-4.878
X3.8189Y-5.2638
X3.8248Y-4.5551
X3.9675Y-5.1959
X3.9734Y-5.1093
X4.0315Y-4.8071
X4.063Y-5.6073
X4.0906Y-2.5965
X4.0906Y-3.3543
X4.0906Y-3.4803
X4.0906Y-3.7874
X4.0955Y-5.1063
X4.1004Y-2.1929
X4.1024Y-5.1919
X4.1112Y-5.5522
X4.3538Y-5.2082
X4.3583Y-4.8819
X4.376Y-3.1969
X4.3848Y-4.3671
X4.3848Y-4.5482
X4.3858Y-4.7717
X4.4606Y-5.126
X4.4843Y-5.1614
X4.4941Y-5.6191
X4.6024Y-4.6043
X4.6102Y-5.1654
X4.6614Y-4.874
X4.6811Y-2.5965
X4.6811Y-3.3642
X4.6811Y-3.7766
X4.7087Y-5.126
X4.7303Y-2.7736
X4.7766Y-4.876
X4.8189Y-5.6093
X4.9114Y-5.2106
X4.9134Y-5.127
X4.9764Y-3.1969
X4.9764Y-3.3445
X4.9764Y-4.3681
X4.9764Y-4.4961
X4.9862Y-4.8799
X5.2717Y-2.5965
X5.2717Y-3.3346
X5.2717Y-3.7776
X5.2815Y-4.4961
X5.5669Y-4.378
X5.5669Y-4.4961
X5.6752Y-3.0778
X5.6811Y-3.9055
X5.9213Y-4.0531
X6.0984Y-3.9744
X6.0984Y-4.8209
X6.1083Y-3.4823
X6.1476Y-2.2717
X6.2953Y-5.1949
X6.4528Y-2.2323
X6.4528Y-2.6063
X6.4528Y-2.7736
X6.4921Y-1.8189
X6.6791Y-5.0571
X6.748Y-3.1841
X6.748Y-4.3681
X6.7579Y-4.565
X6.7677Y-4.9587
X6.8661Y-5.2244
X6.8858Y-5.1457
X6.9252Y-4.063
X6.9429Y-5.253
X6.9671Y-5.3616
X7.0039Y-1.7697
X7.0039Y-5.435
X7.0138Y-2.1043
X7.0138Y-2.2028
X7.0226Y-5.3622
X7.0433Y-2.6063
X7.0433Y-2.7638
X7.0433Y-3.7776
X7.1122Y-4.7815
X7.1516Y-4.1417
X7.1516Y-4.565
X7.1545Y-4.7096
X7.2308Y-4.9606
X7.2308Y-5.0512
X7.2308Y-5.1417
X7.2308Y-5.2283
X7.3189Y-2.6654
X7.3386Y-3.186
X7.3484Y-3.561
X7.378Y-4.6791
X7.4081Y-4.9974
X7.4173Y-3.7677
X7.4173Y-4.0039
X7.4764Y-4.0925
X7.4832Y-5.3386
X7.5069Y-5.3622
X7.5276Y-5.0079
X7.5276Y-5.1949
X7.5354Y-4.1909
X7.5413Y-5.3189
X7.5827Y-5.0896
X7.6437Y-3.5512
X7.6486Y-5.0925
X7.6634Y-4.8809
X7.6929Y-3.8661
X7.6929Y-4.3583
X7.6939Y-5.0049
X7.6939Y-5.0896
X7.7264Y-4.8829
X7.729Y-5.3794
X7.7451Y-5.002
X7.7549Y-4.9557
X7.7602Y-5.3842
X7.7844Y-5.0472
X7.7894Y-2.1575
X7.7933Y-5.19
X7.811Y-5.5561
X7.8317Y-5.1398
X7.8415Y-5.1841
X7.8504Y-5.3287
X7.8681Y-5.002
X7.8681Y-5.0581
X7.9685Y-5.1614
X7.9685Y-5.5738
X7.9705Y-5.6407
X7.9793Y-5.0876
X8.0004Y-5.5526
X8.0049Y-5.3711
X8.0118Y-5.1929
X8.0177Y-4.1516
X8.0197Y-5.6407
X8.0236Y-5.5738
X8.0669Y-5.1073
X8.1358Y-3.7785
X8.1565Y-5.0335
X8.1604Y-4.8612
X8.1624Y-4.6329
X8.1634Y-5.249
X8.2343Y-5.5295
X8.2392Y-5.4843
X8.3425Y-5.5295
X8.5Y-5.4803
X8.5197Y-4.3691
X8.5226Y-3.19
X8.5492Y-5.5295
X8.6811Y-5.623
X8.9429Y-5.5915
T2
X1.5315Y-1.9961
X1.5315Y-5.3228
X5.6457Y-1.9961
X5.6457Y-5.3228
X9.7598Y-1.9961
X9.7598Y-5.3228
T0
M30
