G04 #@! TF.GenerationSoftware,KiCad,Pcbnew,5.1.5+dfsg1-2build2*
G04 #@! TF.CreationDate,2023-12-24T06:28:24+00:00*
G04 #@! TF.ProjectId,small_esc,736d616c-6c5f-4657-9363-2e6b69636164,rev?*
G04 #@! TF.SameCoordinates,Original*
G04 #@! TF.FileFunction,Soldermask,Top*
G04 #@! TF.FilePolarity,Negative*
%FSLAX46Y46*%
G04 Gerber Fmt 4.6, Leading zero omitted, Abs format (unit mm)*
G04 Created by KiCad (PCBNEW 5.1.5+dfsg1-2build2) date 2023-12-24 06:28:24*
%MOMM*%
%LPD*%
G04 APERTURE LIST*
%ADD10C,0.100000*%
G04 APERTURE END LIST*
D10*
G36*
X106406564Y-134759389D02*
G01*
X106597833Y-134838615D01*
X106597835Y-134838616D01*
X106769973Y-134953635D01*
X106916365Y-135100027D01*
X107031385Y-135272167D01*
X107110611Y-135463436D01*
X107151000Y-135666484D01*
X107151000Y-135873516D01*
X107110611Y-136076564D01*
X107065281Y-136186000D01*
X107031384Y-136267835D01*
X106916365Y-136439973D01*
X106769973Y-136586365D01*
X106597835Y-136701384D01*
X106597834Y-136701385D01*
X106597833Y-136701385D01*
X106406564Y-136780611D01*
X106203516Y-136821000D01*
X105996484Y-136821000D01*
X105793436Y-136780611D01*
X105602167Y-136701385D01*
X105602166Y-136701385D01*
X105602165Y-136701384D01*
X105430027Y-136586365D01*
X105283635Y-136439973D01*
X105168616Y-136267835D01*
X105134719Y-136186000D01*
X105089389Y-136076564D01*
X105049000Y-135873516D01*
X105049000Y-135666484D01*
X105089389Y-135463436D01*
X105168615Y-135272167D01*
X105283635Y-135100027D01*
X105430027Y-134953635D01*
X105602165Y-134838616D01*
X105602167Y-134838615D01*
X105793436Y-134759389D01*
X105996484Y-134719000D01*
X106203516Y-134719000D01*
X106406564Y-134759389D01*
G37*
G36*
X99906564Y-134759389D02*
G01*
X100097833Y-134838615D01*
X100097835Y-134838616D01*
X100269973Y-134953635D01*
X100416365Y-135100027D01*
X100531385Y-135272167D01*
X100610611Y-135463436D01*
X100651000Y-135666484D01*
X100651000Y-135873516D01*
X100610611Y-136076564D01*
X100565281Y-136186000D01*
X100531384Y-136267835D01*
X100416365Y-136439973D01*
X100269973Y-136586365D01*
X100097835Y-136701384D01*
X100097834Y-136701385D01*
X100097833Y-136701385D01*
X99906564Y-136780611D01*
X99703516Y-136821000D01*
X99496484Y-136821000D01*
X99293436Y-136780611D01*
X99102167Y-136701385D01*
X99102166Y-136701385D01*
X99102165Y-136701384D01*
X98930027Y-136586365D01*
X98783635Y-136439973D01*
X98668616Y-136267835D01*
X98634719Y-136186000D01*
X98589389Y-136076564D01*
X98549000Y-135873516D01*
X98549000Y-135666484D01*
X98589389Y-135463436D01*
X98668615Y-135272167D01*
X98783635Y-135100027D01*
X98930027Y-134953635D01*
X99102165Y-134838616D01*
X99102167Y-134838615D01*
X99293436Y-134759389D01*
X99496484Y-134719000D01*
X99703516Y-134719000D01*
X99906564Y-134759389D01*
G37*
G36*
X161841564Y-134124389D02*
G01*
X162032833Y-134203615D01*
X162032835Y-134203616D01*
X162204973Y-134318635D01*
X162351365Y-134465027D01*
X162466385Y-134637167D01*
X162545611Y-134828436D01*
X162586000Y-135031484D01*
X162586000Y-135238516D01*
X162545611Y-135441564D01*
X162536551Y-135463436D01*
X162466384Y-135632835D01*
X162351365Y-135804973D01*
X162204973Y-135951365D01*
X162032835Y-136066384D01*
X162032834Y-136066385D01*
X162032833Y-136066385D01*
X161841564Y-136145611D01*
X161638516Y-136186000D01*
X161431484Y-136186000D01*
X161228436Y-136145611D01*
X161037167Y-136066385D01*
X161037166Y-136066385D01*
X161037165Y-136066384D01*
X160865027Y-135951365D01*
X160718635Y-135804973D01*
X160603616Y-135632835D01*
X160533449Y-135463436D01*
X160524389Y-135441564D01*
X160484000Y-135238516D01*
X160484000Y-135031484D01*
X160524389Y-134828436D01*
X160603615Y-134637167D01*
X160718635Y-134465027D01*
X160865027Y-134318635D01*
X161037165Y-134203616D01*
X161037167Y-134203615D01*
X161228436Y-134124389D01*
X161431484Y-134084000D01*
X161638516Y-134084000D01*
X161841564Y-134124389D01*
G37*
G36*
X182176564Y-134124389D02*
G01*
X182367833Y-134203615D01*
X182367835Y-134203616D01*
X182539973Y-134318635D01*
X182686365Y-134465027D01*
X182801385Y-134637167D01*
X182880611Y-134828436D01*
X182921000Y-135031484D01*
X182921000Y-135238516D01*
X182880611Y-135441564D01*
X182871551Y-135463436D01*
X182801384Y-135632835D01*
X182686365Y-135804973D01*
X182539973Y-135951365D01*
X182367835Y-136066384D01*
X182367834Y-136066385D01*
X182367833Y-136066385D01*
X182176564Y-136145611D01*
X181973516Y-136186000D01*
X181766484Y-136186000D01*
X181563436Y-136145611D01*
X181372167Y-136066385D01*
X181372166Y-136066385D01*
X181372165Y-136066384D01*
X181200027Y-135951365D01*
X181053635Y-135804973D01*
X180938616Y-135632835D01*
X180868449Y-135463436D01*
X180859389Y-135441564D01*
X180819000Y-135238516D01*
X180819000Y-135031484D01*
X180859389Y-134828436D01*
X180938615Y-134637167D01*
X181053635Y-134465027D01*
X181200027Y-134318635D01*
X181372165Y-134203616D01*
X181372167Y-134203615D01*
X181563436Y-134124389D01*
X181766484Y-134084000D01*
X181973516Y-134084000D01*
X182176564Y-134124389D01*
G37*
G36*
X175676564Y-134124389D02*
G01*
X175867833Y-134203615D01*
X175867835Y-134203616D01*
X176039973Y-134318635D01*
X176186365Y-134465027D01*
X176301385Y-134637167D01*
X176380611Y-134828436D01*
X176421000Y-135031484D01*
X176421000Y-135238516D01*
X176380611Y-135441564D01*
X176371551Y-135463436D01*
X176301384Y-135632835D01*
X176186365Y-135804973D01*
X176039973Y-135951365D01*
X175867835Y-136066384D01*
X175867834Y-136066385D01*
X175867833Y-136066385D01*
X175676564Y-136145611D01*
X175473516Y-136186000D01*
X175266484Y-136186000D01*
X175063436Y-136145611D01*
X174872167Y-136066385D01*
X174872166Y-136066385D01*
X174872165Y-136066384D01*
X174700027Y-135951365D01*
X174553635Y-135804973D01*
X174438616Y-135632835D01*
X174368449Y-135463436D01*
X174359389Y-135441564D01*
X174319000Y-135238516D01*
X174319000Y-135031484D01*
X174359389Y-134828436D01*
X174438615Y-134637167D01*
X174553635Y-134465027D01*
X174700027Y-134318635D01*
X174872165Y-134203616D01*
X174872167Y-134203615D01*
X175063436Y-134124389D01*
X175266484Y-134084000D01*
X175473516Y-134084000D01*
X175676564Y-134124389D01*
G37*
G36*
X155341564Y-134124389D02*
G01*
X155532833Y-134203615D01*
X155532835Y-134203616D01*
X155704973Y-134318635D01*
X155851365Y-134465027D01*
X155966385Y-134637167D01*
X156045611Y-134828436D01*
X156086000Y-135031484D01*
X156086000Y-135238516D01*
X156045611Y-135441564D01*
X156036551Y-135463436D01*
X155966384Y-135632835D01*
X155851365Y-135804973D01*
X155704973Y-135951365D01*
X155532835Y-136066384D01*
X155532834Y-136066385D01*
X155532833Y-136066385D01*
X155341564Y-136145611D01*
X155138516Y-136186000D01*
X154931484Y-136186000D01*
X154728436Y-136145611D01*
X154537167Y-136066385D01*
X154537166Y-136066385D01*
X154537165Y-136066384D01*
X154365027Y-135951365D01*
X154218635Y-135804973D01*
X154103616Y-135632835D01*
X154033449Y-135463436D01*
X154024389Y-135441564D01*
X153984000Y-135238516D01*
X153984000Y-135031484D01*
X154024389Y-134828436D01*
X154103615Y-134637167D01*
X154218635Y-134465027D01*
X154365027Y-134318635D01*
X154537165Y-134203616D01*
X154537167Y-134203615D01*
X154728436Y-134124389D01*
X154931484Y-134084000D01*
X155138516Y-134084000D01*
X155341564Y-134124389D01*
G37*
G36*
X150411564Y-134124389D02*
G01*
X150602833Y-134203615D01*
X150602835Y-134203616D01*
X150774973Y-134318635D01*
X150921365Y-134465027D01*
X151036385Y-134637167D01*
X151115611Y-134828436D01*
X151156000Y-135031484D01*
X151156000Y-135238516D01*
X151115611Y-135441564D01*
X151106551Y-135463436D01*
X151036384Y-135632835D01*
X150921365Y-135804973D01*
X150774973Y-135951365D01*
X150602835Y-136066384D01*
X150602834Y-136066385D01*
X150602833Y-136066385D01*
X150411564Y-136145611D01*
X150208516Y-136186000D01*
X150001484Y-136186000D01*
X149798436Y-136145611D01*
X149607167Y-136066385D01*
X149607166Y-136066385D01*
X149607165Y-136066384D01*
X149435027Y-135951365D01*
X149288635Y-135804973D01*
X149173616Y-135632835D01*
X149103449Y-135463436D01*
X149094389Y-135441564D01*
X149054000Y-135238516D01*
X149054000Y-135031484D01*
X149094389Y-134828436D01*
X149173615Y-134637167D01*
X149288635Y-134465027D01*
X149435027Y-134318635D01*
X149607165Y-134203616D01*
X149607167Y-134203615D01*
X149798436Y-134124389D01*
X150001484Y-134084000D01*
X150208516Y-134084000D01*
X150411564Y-134124389D01*
G37*
G36*
X143911564Y-134124389D02*
G01*
X144102833Y-134203615D01*
X144102835Y-134203616D01*
X144274973Y-134318635D01*
X144421365Y-134465027D01*
X144536385Y-134637167D01*
X144615611Y-134828436D01*
X144656000Y-135031484D01*
X144656000Y-135238516D01*
X144615611Y-135441564D01*
X144606551Y-135463436D01*
X144536384Y-135632835D01*
X144421365Y-135804973D01*
X144274973Y-135951365D01*
X144102835Y-136066384D01*
X144102834Y-136066385D01*
X144102833Y-136066385D01*
X143911564Y-136145611D01*
X143708516Y-136186000D01*
X143501484Y-136186000D01*
X143298436Y-136145611D01*
X143107167Y-136066385D01*
X143107166Y-136066385D01*
X143107165Y-136066384D01*
X142935027Y-135951365D01*
X142788635Y-135804973D01*
X142673616Y-135632835D01*
X142603449Y-135463436D01*
X142594389Y-135441564D01*
X142554000Y-135238516D01*
X142554000Y-135031484D01*
X142594389Y-134828436D01*
X142673615Y-134637167D01*
X142788635Y-134465027D01*
X142935027Y-134318635D01*
X143107165Y-134203616D01*
X143107167Y-134203615D01*
X143298436Y-134124389D01*
X143501484Y-134084000D01*
X143708516Y-134084000D01*
X143911564Y-134124389D01*
G37*
G36*
X138981564Y-134124389D02*
G01*
X139172833Y-134203615D01*
X139172835Y-134203616D01*
X139344973Y-134318635D01*
X139491365Y-134465027D01*
X139606385Y-134637167D01*
X139685611Y-134828436D01*
X139726000Y-135031484D01*
X139726000Y-135238516D01*
X139685611Y-135441564D01*
X139676551Y-135463436D01*
X139606384Y-135632835D01*
X139491365Y-135804973D01*
X139344973Y-135951365D01*
X139172835Y-136066384D01*
X139172834Y-136066385D01*
X139172833Y-136066385D01*
X138981564Y-136145611D01*
X138778516Y-136186000D01*
X138571484Y-136186000D01*
X138368436Y-136145611D01*
X138177167Y-136066385D01*
X138177166Y-136066385D01*
X138177165Y-136066384D01*
X138005027Y-135951365D01*
X137858635Y-135804973D01*
X137743616Y-135632835D01*
X137673449Y-135463436D01*
X137664389Y-135441564D01*
X137624000Y-135238516D01*
X137624000Y-135031484D01*
X137664389Y-134828436D01*
X137743615Y-134637167D01*
X137858635Y-134465027D01*
X138005027Y-134318635D01*
X138177165Y-134203616D01*
X138177167Y-134203615D01*
X138368436Y-134124389D01*
X138571484Y-134084000D01*
X138778516Y-134084000D01*
X138981564Y-134124389D01*
G37*
G36*
X132481564Y-134124389D02*
G01*
X132672833Y-134203615D01*
X132672835Y-134203616D01*
X132844973Y-134318635D01*
X132991365Y-134465027D01*
X133106385Y-134637167D01*
X133185611Y-134828436D01*
X133226000Y-135031484D01*
X133226000Y-135238516D01*
X133185611Y-135441564D01*
X133176551Y-135463436D01*
X133106384Y-135632835D01*
X132991365Y-135804973D01*
X132844973Y-135951365D01*
X132672835Y-136066384D01*
X132672834Y-136066385D01*
X132672833Y-136066385D01*
X132481564Y-136145611D01*
X132278516Y-136186000D01*
X132071484Y-136186000D01*
X131868436Y-136145611D01*
X131677167Y-136066385D01*
X131677166Y-136066385D01*
X131677165Y-136066384D01*
X131505027Y-135951365D01*
X131358635Y-135804973D01*
X131243616Y-135632835D01*
X131173449Y-135463436D01*
X131164389Y-135441564D01*
X131124000Y-135238516D01*
X131124000Y-135031484D01*
X131164389Y-134828436D01*
X131243615Y-134637167D01*
X131358635Y-134465027D01*
X131505027Y-134318635D01*
X131677165Y-134203616D01*
X131677167Y-134203615D01*
X131868436Y-134124389D01*
X132071484Y-134084000D01*
X132278516Y-134084000D01*
X132481564Y-134124389D01*
G37*
G36*
X127551564Y-134124389D02*
G01*
X127742833Y-134203615D01*
X127742835Y-134203616D01*
X127914973Y-134318635D01*
X128061365Y-134465027D01*
X128176385Y-134637167D01*
X128255611Y-134828436D01*
X128296000Y-135031484D01*
X128296000Y-135238516D01*
X128255611Y-135441564D01*
X128246551Y-135463436D01*
X128176384Y-135632835D01*
X128061365Y-135804973D01*
X127914973Y-135951365D01*
X127742835Y-136066384D01*
X127742834Y-136066385D01*
X127742833Y-136066385D01*
X127551564Y-136145611D01*
X127348516Y-136186000D01*
X127141484Y-136186000D01*
X126938436Y-136145611D01*
X126747167Y-136066385D01*
X126747166Y-136066385D01*
X126747165Y-136066384D01*
X126575027Y-135951365D01*
X126428635Y-135804973D01*
X126313616Y-135632835D01*
X126243449Y-135463436D01*
X126234389Y-135441564D01*
X126194000Y-135238516D01*
X126194000Y-135031484D01*
X126234389Y-134828436D01*
X126313615Y-134637167D01*
X126428635Y-134465027D01*
X126575027Y-134318635D01*
X126747165Y-134203616D01*
X126747167Y-134203615D01*
X126938436Y-134124389D01*
X127141484Y-134084000D01*
X127348516Y-134084000D01*
X127551564Y-134124389D01*
G37*
G36*
X121051564Y-134124389D02*
G01*
X121242833Y-134203615D01*
X121242835Y-134203616D01*
X121414973Y-134318635D01*
X121561365Y-134465027D01*
X121676385Y-134637167D01*
X121755611Y-134828436D01*
X121796000Y-135031484D01*
X121796000Y-135238516D01*
X121755611Y-135441564D01*
X121746551Y-135463436D01*
X121676384Y-135632835D01*
X121561365Y-135804973D01*
X121414973Y-135951365D01*
X121242835Y-136066384D01*
X121242834Y-136066385D01*
X121242833Y-136066385D01*
X121051564Y-136145611D01*
X120848516Y-136186000D01*
X120641484Y-136186000D01*
X120438436Y-136145611D01*
X120247167Y-136066385D01*
X120247166Y-136066385D01*
X120247165Y-136066384D01*
X120075027Y-135951365D01*
X119928635Y-135804973D01*
X119813616Y-135632835D01*
X119743449Y-135463436D01*
X119734389Y-135441564D01*
X119694000Y-135238516D01*
X119694000Y-135031484D01*
X119734389Y-134828436D01*
X119813615Y-134637167D01*
X119928635Y-134465027D01*
X120075027Y-134318635D01*
X120247165Y-134203616D01*
X120247167Y-134203615D01*
X120438436Y-134124389D01*
X120641484Y-134084000D01*
X120848516Y-134084000D01*
X121051564Y-134124389D01*
G37*
G36*
X206616564Y-134124389D02*
G01*
X206807833Y-134203615D01*
X206807835Y-134203616D01*
X206979973Y-134318635D01*
X207126365Y-134465027D01*
X207241385Y-134637167D01*
X207320611Y-134828436D01*
X207361000Y-135031484D01*
X207361000Y-135238516D01*
X207320611Y-135441564D01*
X207311551Y-135463436D01*
X207241384Y-135632835D01*
X207126365Y-135804973D01*
X206979973Y-135951365D01*
X206807835Y-136066384D01*
X206807834Y-136066385D01*
X206807833Y-136066385D01*
X206616564Y-136145611D01*
X206413516Y-136186000D01*
X206206484Y-136186000D01*
X206003436Y-136145611D01*
X205812167Y-136066385D01*
X205812166Y-136066385D01*
X205812165Y-136066384D01*
X205640027Y-135951365D01*
X205493635Y-135804973D01*
X205378616Y-135632835D01*
X205308449Y-135463436D01*
X205299389Y-135441564D01*
X205259000Y-135238516D01*
X205259000Y-135031484D01*
X205299389Y-134828436D01*
X205378615Y-134637167D01*
X205493635Y-134465027D01*
X205640027Y-134318635D01*
X205812165Y-134203616D01*
X205812167Y-134203615D01*
X206003436Y-134124389D01*
X206206484Y-134084000D01*
X206413516Y-134084000D01*
X206616564Y-134124389D01*
G37*
G36*
X213116564Y-134124389D02*
G01*
X213307833Y-134203615D01*
X213307835Y-134203616D01*
X213479973Y-134318635D01*
X213626365Y-134465027D01*
X213741385Y-134637167D01*
X213820611Y-134828436D01*
X213861000Y-135031484D01*
X213861000Y-135238516D01*
X213820611Y-135441564D01*
X213811551Y-135463436D01*
X213741384Y-135632835D01*
X213626365Y-135804973D01*
X213479973Y-135951365D01*
X213307835Y-136066384D01*
X213307834Y-136066385D01*
X213307833Y-136066385D01*
X213116564Y-136145611D01*
X212913516Y-136186000D01*
X212706484Y-136186000D01*
X212503436Y-136145611D01*
X212312167Y-136066385D01*
X212312166Y-136066385D01*
X212312165Y-136066384D01*
X212140027Y-135951365D01*
X211993635Y-135804973D01*
X211878616Y-135632835D01*
X211808449Y-135463436D01*
X211799389Y-135441564D01*
X211759000Y-135238516D01*
X211759000Y-135031484D01*
X211799389Y-134828436D01*
X211878615Y-134637167D01*
X211993635Y-134465027D01*
X212140027Y-134318635D01*
X212312165Y-134203616D01*
X212312167Y-134203615D01*
X212503436Y-134124389D01*
X212706484Y-134084000D01*
X212913516Y-134084000D01*
X213116564Y-134124389D01*
G37*
G36*
X106406564Y-130259389D02*
G01*
X106597833Y-130338615D01*
X106597835Y-130338616D01*
X106769973Y-130453635D01*
X106916365Y-130600027D01*
X107031385Y-130772167D01*
X107110611Y-130963436D01*
X107151000Y-131166484D01*
X107151000Y-131373516D01*
X107110611Y-131576564D01*
X107065281Y-131686000D01*
X107031384Y-131767835D01*
X106916365Y-131939973D01*
X106769973Y-132086365D01*
X106597835Y-132201384D01*
X106597834Y-132201385D01*
X106597833Y-132201385D01*
X106406564Y-132280611D01*
X106203516Y-132321000D01*
X105996484Y-132321000D01*
X105793436Y-132280611D01*
X105602167Y-132201385D01*
X105602166Y-132201385D01*
X105602165Y-132201384D01*
X105430027Y-132086365D01*
X105283635Y-131939973D01*
X105168616Y-131767835D01*
X105134719Y-131686000D01*
X105089389Y-131576564D01*
X105049000Y-131373516D01*
X105049000Y-131166484D01*
X105089389Y-130963436D01*
X105168615Y-130772167D01*
X105283635Y-130600027D01*
X105430027Y-130453635D01*
X105602165Y-130338616D01*
X105602167Y-130338615D01*
X105793436Y-130259389D01*
X105996484Y-130219000D01*
X106203516Y-130219000D01*
X106406564Y-130259389D01*
G37*
G36*
X99906564Y-130259389D02*
G01*
X100097833Y-130338615D01*
X100097835Y-130338616D01*
X100269973Y-130453635D01*
X100416365Y-130600027D01*
X100531385Y-130772167D01*
X100610611Y-130963436D01*
X100651000Y-131166484D01*
X100651000Y-131373516D01*
X100610611Y-131576564D01*
X100565281Y-131686000D01*
X100531384Y-131767835D01*
X100416365Y-131939973D01*
X100269973Y-132086365D01*
X100097835Y-132201384D01*
X100097834Y-132201385D01*
X100097833Y-132201385D01*
X99906564Y-132280611D01*
X99703516Y-132321000D01*
X99496484Y-132321000D01*
X99293436Y-132280611D01*
X99102167Y-132201385D01*
X99102166Y-132201385D01*
X99102165Y-132201384D01*
X98930027Y-132086365D01*
X98783635Y-131939973D01*
X98668616Y-131767835D01*
X98634719Y-131686000D01*
X98589389Y-131576564D01*
X98549000Y-131373516D01*
X98549000Y-131166484D01*
X98589389Y-130963436D01*
X98668615Y-130772167D01*
X98783635Y-130600027D01*
X98930027Y-130453635D01*
X99102165Y-130338616D01*
X99102167Y-130338615D01*
X99293436Y-130259389D01*
X99496484Y-130219000D01*
X99703516Y-130219000D01*
X99906564Y-130259389D01*
G37*
G36*
X182176564Y-129624389D02*
G01*
X182367833Y-129703615D01*
X182367835Y-129703616D01*
X182539973Y-129818635D01*
X182686365Y-129965027D01*
X182801385Y-130137167D01*
X182880611Y-130328436D01*
X182921000Y-130531484D01*
X182921000Y-130738516D01*
X182880611Y-130941564D01*
X182871551Y-130963436D01*
X182801384Y-131132835D01*
X182686365Y-131304973D01*
X182539973Y-131451365D01*
X182367835Y-131566384D01*
X182367834Y-131566385D01*
X182367833Y-131566385D01*
X182176564Y-131645611D01*
X181973516Y-131686000D01*
X181766484Y-131686000D01*
X181563436Y-131645611D01*
X181372167Y-131566385D01*
X181372166Y-131566385D01*
X181372165Y-131566384D01*
X181200027Y-131451365D01*
X181053635Y-131304973D01*
X180938616Y-131132835D01*
X180868449Y-130963436D01*
X180859389Y-130941564D01*
X180819000Y-130738516D01*
X180819000Y-130531484D01*
X180859389Y-130328436D01*
X180938615Y-130137167D01*
X181053635Y-129965027D01*
X181200027Y-129818635D01*
X181372165Y-129703616D01*
X181372167Y-129703615D01*
X181563436Y-129624389D01*
X181766484Y-129584000D01*
X181973516Y-129584000D01*
X182176564Y-129624389D01*
G37*
G36*
X213116564Y-129624389D02*
G01*
X213307833Y-129703615D01*
X213307835Y-129703616D01*
X213479973Y-129818635D01*
X213626365Y-129965027D01*
X213741385Y-130137167D01*
X213820611Y-130328436D01*
X213861000Y-130531484D01*
X213861000Y-130738516D01*
X213820611Y-130941564D01*
X213811551Y-130963436D01*
X213741384Y-131132835D01*
X213626365Y-131304973D01*
X213479973Y-131451365D01*
X213307835Y-131566384D01*
X213307834Y-131566385D01*
X213307833Y-131566385D01*
X213116564Y-131645611D01*
X212913516Y-131686000D01*
X212706484Y-131686000D01*
X212503436Y-131645611D01*
X212312167Y-131566385D01*
X212312166Y-131566385D01*
X212312165Y-131566384D01*
X212140027Y-131451365D01*
X211993635Y-131304973D01*
X211878616Y-131132835D01*
X211808449Y-130963436D01*
X211799389Y-130941564D01*
X211759000Y-130738516D01*
X211759000Y-130531484D01*
X211799389Y-130328436D01*
X211878615Y-130137167D01*
X211993635Y-129965027D01*
X212140027Y-129818635D01*
X212312165Y-129703616D01*
X212312167Y-129703615D01*
X212503436Y-129624389D01*
X212706484Y-129584000D01*
X212913516Y-129584000D01*
X213116564Y-129624389D01*
G37*
G36*
X121051564Y-129624389D02*
G01*
X121242833Y-129703615D01*
X121242835Y-129703616D01*
X121414973Y-129818635D01*
X121561365Y-129965027D01*
X121676385Y-130137167D01*
X121755611Y-130328436D01*
X121796000Y-130531484D01*
X121796000Y-130738516D01*
X121755611Y-130941564D01*
X121746551Y-130963436D01*
X121676384Y-131132835D01*
X121561365Y-131304973D01*
X121414973Y-131451365D01*
X121242835Y-131566384D01*
X121242834Y-131566385D01*
X121242833Y-131566385D01*
X121051564Y-131645611D01*
X120848516Y-131686000D01*
X120641484Y-131686000D01*
X120438436Y-131645611D01*
X120247167Y-131566385D01*
X120247166Y-131566385D01*
X120247165Y-131566384D01*
X120075027Y-131451365D01*
X119928635Y-131304973D01*
X119813616Y-131132835D01*
X119743449Y-130963436D01*
X119734389Y-130941564D01*
X119694000Y-130738516D01*
X119694000Y-130531484D01*
X119734389Y-130328436D01*
X119813615Y-130137167D01*
X119928635Y-129965027D01*
X120075027Y-129818635D01*
X120247165Y-129703616D01*
X120247167Y-129703615D01*
X120438436Y-129624389D01*
X120641484Y-129584000D01*
X120848516Y-129584000D01*
X121051564Y-129624389D01*
G37*
G36*
X127551564Y-129624389D02*
G01*
X127742833Y-129703615D01*
X127742835Y-129703616D01*
X127914973Y-129818635D01*
X128061365Y-129965027D01*
X128176385Y-130137167D01*
X128255611Y-130328436D01*
X128296000Y-130531484D01*
X128296000Y-130738516D01*
X128255611Y-130941564D01*
X128246551Y-130963436D01*
X128176384Y-131132835D01*
X128061365Y-131304973D01*
X127914973Y-131451365D01*
X127742835Y-131566384D01*
X127742834Y-131566385D01*
X127742833Y-131566385D01*
X127551564Y-131645611D01*
X127348516Y-131686000D01*
X127141484Y-131686000D01*
X126938436Y-131645611D01*
X126747167Y-131566385D01*
X126747166Y-131566385D01*
X126747165Y-131566384D01*
X126575027Y-131451365D01*
X126428635Y-131304973D01*
X126313616Y-131132835D01*
X126243449Y-130963436D01*
X126234389Y-130941564D01*
X126194000Y-130738516D01*
X126194000Y-130531484D01*
X126234389Y-130328436D01*
X126313615Y-130137167D01*
X126428635Y-129965027D01*
X126575027Y-129818635D01*
X126747165Y-129703616D01*
X126747167Y-129703615D01*
X126938436Y-129624389D01*
X127141484Y-129584000D01*
X127348516Y-129584000D01*
X127551564Y-129624389D01*
G37*
G36*
X132481564Y-129624389D02*
G01*
X132672833Y-129703615D01*
X132672835Y-129703616D01*
X132844973Y-129818635D01*
X132991365Y-129965027D01*
X133106385Y-130137167D01*
X133185611Y-130328436D01*
X133226000Y-130531484D01*
X133226000Y-130738516D01*
X133185611Y-130941564D01*
X133176551Y-130963436D01*
X133106384Y-131132835D01*
X132991365Y-131304973D01*
X132844973Y-131451365D01*
X132672835Y-131566384D01*
X132672834Y-131566385D01*
X132672833Y-131566385D01*
X132481564Y-131645611D01*
X132278516Y-131686000D01*
X132071484Y-131686000D01*
X131868436Y-131645611D01*
X131677167Y-131566385D01*
X131677166Y-131566385D01*
X131677165Y-131566384D01*
X131505027Y-131451365D01*
X131358635Y-131304973D01*
X131243616Y-131132835D01*
X131173449Y-130963436D01*
X131164389Y-130941564D01*
X131124000Y-130738516D01*
X131124000Y-130531484D01*
X131164389Y-130328436D01*
X131243615Y-130137167D01*
X131358635Y-129965027D01*
X131505027Y-129818635D01*
X131677165Y-129703616D01*
X131677167Y-129703615D01*
X131868436Y-129624389D01*
X132071484Y-129584000D01*
X132278516Y-129584000D01*
X132481564Y-129624389D01*
G37*
G36*
X138981564Y-129624389D02*
G01*
X139172833Y-129703615D01*
X139172835Y-129703616D01*
X139344973Y-129818635D01*
X139491365Y-129965027D01*
X139606385Y-130137167D01*
X139685611Y-130328436D01*
X139726000Y-130531484D01*
X139726000Y-130738516D01*
X139685611Y-130941564D01*
X139676551Y-130963436D01*
X139606384Y-131132835D01*
X139491365Y-131304973D01*
X139344973Y-131451365D01*
X139172835Y-131566384D01*
X139172834Y-131566385D01*
X139172833Y-131566385D01*
X138981564Y-131645611D01*
X138778516Y-131686000D01*
X138571484Y-131686000D01*
X138368436Y-131645611D01*
X138177167Y-131566385D01*
X138177166Y-131566385D01*
X138177165Y-131566384D01*
X138005027Y-131451365D01*
X137858635Y-131304973D01*
X137743616Y-131132835D01*
X137673449Y-130963436D01*
X137664389Y-130941564D01*
X137624000Y-130738516D01*
X137624000Y-130531484D01*
X137664389Y-130328436D01*
X137743615Y-130137167D01*
X137858635Y-129965027D01*
X138005027Y-129818635D01*
X138177165Y-129703616D01*
X138177167Y-129703615D01*
X138368436Y-129624389D01*
X138571484Y-129584000D01*
X138778516Y-129584000D01*
X138981564Y-129624389D01*
G37*
G36*
X143911564Y-129624389D02*
G01*
X144102833Y-129703615D01*
X144102835Y-129703616D01*
X144274973Y-129818635D01*
X144421365Y-129965027D01*
X144536385Y-130137167D01*
X144615611Y-130328436D01*
X144656000Y-130531484D01*
X144656000Y-130738516D01*
X144615611Y-130941564D01*
X144606551Y-130963436D01*
X144536384Y-131132835D01*
X144421365Y-131304973D01*
X144274973Y-131451365D01*
X144102835Y-131566384D01*
X144102834Y-131566385D01*
X144102833Y-131566385D01*
X143911564Y-131645611D01*
X143708516Y-131686000D01*
X143501484Y-131686000D01*
X143298436Y-131645611D01*
X143107167Y-131566385D01*
X143107166Y-131566385D01*
X143107165Y-131566384D01*
X142935027Y-131451365D01*
X142788635Y-131304973D01*
X142673616Y-131132835D01*
X142603449Y-130963436D01*
X142594389Y-130941564D01*
X142554000Y-130738516D01*
X142554000Y-130531484D01*
X142594389Y-130328436D01*
X142673615Y-130137167D01*
X142788635Y-129965027D01*
X142935027Y-129818635D01*
X143107165Y-129703616D01*
X143107167Y-129703615D01*
X143298436Y-129624389D01*
X143501484Y-129584000D01*
X143708516Y-129584000D01*
X143911564Y-129624389D01*
G37*
G36*
X150411564Y-129624389D02*
G01*
X150602833Y-129703615D01*
X150602835Y-129703616D01*
X150774973Y-129818635D01*
X150921365Y-129965027D01*
X151036385Y-130137167D01*
X151115611Y-130328436D01*
X151156000Y-130531484D01*
X151156000Y-130738516D01*
X151115611Y-130941564D01*
X151106551Y-130963436D01*
X151036384Y-131132835D01*
X150921365Y-131304973D01*
X150774973Y-131451365D01*
X150602835Y-131566384D01*
X150602834Y-131566385D01*
X150602833Y-131566385D01*
X150411564Y-131645611D01*
X150208516Y-131686000D01*
X150001484Y-131686000D01*
X149798436Y-131645611D01*
X149607167Y-131566385D01*
X149607166Y-131566385D01*
X149607165Y-131566384D01*
X149435027Y-131451365D01*
X149288635Y-131304973D01*
X149173616Y-131132835D01*
X149103449Y-130963436D01*
X149094389Y-130941564D01*
X149054000Y-130738516D01*
X149054000Y-130531484D01*
X149094389Y-130328436D01*
X149173615Y-130137167D01*
X149288635Y-129965027D01*
X149435027Y-129818635D01*
X149607165Y-129703616D01*
X149607167Y-129703615D01*
X149798436Y-129624389D01*
X150001484Y-129584000D01*
X150208516Y-129584000D01*
X150411564Y-129624389D01*
G37*
G36*
X206616564Y-129624389D02*
G01*
X206807833Y-129703615D01*
X206807835Y-129703616D01*
X206979973Y-129818635D01*
X207126365Y-129965027D01*
X207241385Y-130137167D01*
X207320611Y-130328436D01*
X207361000Y-130531484D01*
X207361000Y-130738516D01*
X207320611Y-130941564D01*
X207311551Y-130963436D01*
X207241384Y-131132835D01*
X207126365Y-131304973D01*
X206979973Y-131451365D01*
X206807835Y-131566384D01*
X206807834Y-131566385D01*
X206807833Y-131566385D01*
X206616564Y-131645611D01*
X206413516Y-131686000D01*
X206206484Y-131686000D01*
X206003436Y-131645611D01*
X205812167Y-131566385D01*
X205812166Y-131566385D01*
X205812165Y-131566384D01*
X205640027Y-131451365D01*
X205493635Y-131304973D01*
X205378616Y-131132835D01*
X205308449Y-130963436D01*
X205299389Y-130941564D01*
X205259000Y-130738516D01*
X205259000Y-130531484D01*
X205299389Y-130328436D01*
X205378615Y-130137167D01*
X205493635Y-129965027D01*
X205640027Y-129818635D01*
X205812165Y-129703616D01*
X205812167Y-129703615D01*
X206003436Y-129624389D01*
X206206484Y-129584000D01*
X206413516Y-129584000D01*
X206616564Y-129624389D01*
G37*
G36*
X155341564Y-129624389D02*
G01*
X155532833Y-129703615D01*
X155532835Y-129703616D01*
X155704973Y-129818635D01*
X155851365Y-129965027D01*
X155966385Y-130137167D01*
X156045611Y-130328436D01*
X156086000Y-130531484D01*
X156086000Y-130738516D01*
X156045611Y-130941564D01*
X156036551Y-130963436D01*
X155966384Y-131132835D01*
X155851365Y-131304973D01*
X155704973Y-131451365D01*
X155532835Y-131566384D01*
X155532834Y-131566385D01*
X155532833Y-131566385D01*
X155341564Y-131645611D01*
X155138516Y-131686000D01*
X154931484Y-131686000D01*
X154728436Y-131645611D01*
X154537167Y-131566385D01*
X154537166Y-131566385D01*
X154537165Y-131566384D01*
X154365027Y-131451365D01*
X154218635Y-131304973D01*
X154103616Y-131132835D01*
X154033449Y-130963436D01*
X154024389Y-130941564D01*
X153984000Y-130738516D01*
X153984000Y-130531484D01*
X154024389Y-130328436D01*
X154103615Y-130137167D01*
X154218635Y-129965027D01*
X154365027Y-129818635D01*
X154537165Y-129703616D01*
X154537167Y-129703615D01*
X154728436Y-129624389D01*
X154931484Y-129584000D01*
X155138516Y-129584000D01*
X155341564Y-129624389D01*
G37*
G36*
X161841564Y-129624389D02*
G01*
X162032833Y-129703615D01*
X162032835Y-129703616D01*
X162204973Y-129818635D01*
X162351365Y-129965027D01*
X162466385Y-130137167D01*
X162545611Y-130328436D01*
X162586000Y-130531484D01*
X162586000Y-130738516D01*
X162545611Y-130941564D01*
X162536551Y-130963436D01*
X162466384Y-131132835D01*
X162351365Y-131304973D01*
X162204973Y-131451365D01*
X162032835Y-131566384D01*
X162032834Y-131566385D01*
X162032833Y-131566385D01*
X161841564Y-131645611D01*
X161638516Y-131686000D01*
X161431484Y-131686000D01*
X161228436Y-131645611D01*
X161037167Y-131566385D01*
X161037166Y-131566385D01*
X161037165Y-131566384D01*
X160865027Y-131451365D01*
X160718635Y-131304973D01*
X160603616Y-131132835D01*
X160533449Y-130963436D01*
X160524389Y-130941564D01*
X160484000Y-130738516D01*
X160484000Y-130531484D01*
X160524389Y-130328436D01*
X160603615Y-130137167D01*
X160718635Y-129965027D01*
X160865027Y-129818635D01*
X161037165Y-129703616D01*
X161037167Y-129703615D01*
X161228436Y-129624389D01*
X161431484Y-129584000D01*
X161638516Y-129584000D01*
X161841564Y-129624389D01*
G37*
G36*
X175676564Y-129624389D02*
G01*
X175867833Y-129703615D01*
X175867835Y-129703616D01*
X176039973Y-129818635D01*
X176186365Y-129965027D01*
X176301385Y-130137167D01*
X176380611Y-130328436D01*
X176421000Y-130531484D01*
X176421000Y-130738516D01*
X176380611Y-130941564D01*
X176371551Y-130963436D01*
X176301384Y-131132835D01*
X176186365Y-131304973D01*
X176039973Y-131451365D01*
X175867835Y-131566384D01*
X175867834Y-131566385D01*
X175867833Y-131566385D01*
X175676564Y-131645611D01*
X175473516Y-131686000D01*
X175266484Y-131686000D01*
X175063436Y-131645611D01*
X174872167Y-131566385D01*
X174872166Y-131566385D01*
X174872165Y-131566384D01*
X174700027Y-131451365D01*
X174553635Y-131304973D01*
X174438616Y-131132835D01*
X174368449Y-130963436D01*
X174359389Y-130941564D01*
X174319000Y-130738516D01*
X174319000Y-130531484D01*
X174359389Y-130328436D01*
X174438615Y-130137167D01*
X174553635Y-129965027D01*
X174700027Y-129818635D01*
X174872165Y-129703616D01*
X174872167Y-129703615D01*
X175063436Y-129624389D01*
X175266484Y-129584000D01*
X175473516Y-129584000D01*
X175676564Y-129624389D01*
G37*
G36*
X144696564Y-124599389D02*
G01*
X144887833Y-124678615D01*
X144887835Y-124678616D01*
X145059973Y-124793635D01*
X145206365Y-124940027D01*
X145321385Y-125112167D01*
X145400611Y-125303436D01*
X145441000Y-125506484D01*
X145441000Y-125713516D01*
X145400611Y-125916564D01*
X145321385Y-126107833D01*
X145321384Y-126107835D01*
X145206365Y-126279973D01*
X145059973Y-126426365D01*
X144887835Y-126541384D01*
X144887834Y-126541385D01*
X144887833Y-126541385D01*
X144696564Y-126620611D01*
X144493516Y-126661000D01*
X144286484Y-126661000D01*
X144083436Y-126620611D01*
X143892167Y-126541385D01*
X143892166Y-126541385D01*
X143892165Y-126541384D01*
X143720027Y-126426365D01*
X143573635Y-126279973D01*
X143458616Y-126107835D01*
X143458615Y-126107833D01*
X143379389Y-125916564D01*
X143339000Y-125713516D01*
X143339000Y-125506484D01*
X143379389Y-125303436D01*
X143458615Y-125112167D01*
X143573635Y-124940027D01*
X143720027Y-124793635D01*
X143892165Y-124678616D01*
X143892167Y-124678615D01*
X144083436Y-124599389D01*
X144286484Y-124559000D01*
X144493516Y-124559000D01*
X144696564Y-124599389D01*
G37*
G36*
X100056564Y-124599389D02*
G01*
X100247833Y-124678615D01*
X100247835Y-124678616D01*
X100419973Y-124793635D01*
X100566365Y-124940027D01*
X100681385Y-125112167D01*
X100760611Y-125303436D01*
X100801000Y-125506484D01*
X100801000Y-125713516D01*
X100760611Y-125916564D01*
X100681385Y-126107833D01*
X100681384Y-126107835D01*
X100566365Y-126279973D01*
X100419973Y-126426365D01*
X100247835Y-126541384D01*
X100247834Y-126541385D01*
X100247833Y-126541385D01*
X100056564Y-126620611D01*
X99853516Y-126661000D01*
X99646484Y-126661000D01*
X99443436Y-126620611D01*
X99252167Y-126541385D01*
X99252166Y-126541385D01*
X99252165Y-126541384D01*
X99080027Y-126426365D01*
X98933635Y-126279973D01*
X98818616Y-126107835D01*
X98818615Y-126107833D01*
X98739389Y-125916564D01*
X98699000Y-125713516D01*
X98699000Y-125506484D01*
X98739389Y-125303436D01*
X98818615Y-125112167D01*
X98933635Y-124940027D01*
X99080027Y-124793635D01*
X99252165Y-124678616D01*
X99252167Y-124678615D01*
X99443436Y-124599389D01*
X99646484Y-124559000D01*
X99853516Y-124559000D01*
X100056564Y-124599389D01*
G37*
G36*
X93556564Y-124599389D02*
G01*
X93747833Y-124678615D01*
X93747835Y-124678616D01*
X93919973Y-124793635D01*
X94066365Y-124940027D01*
X94181385Y-125112167D01*
X94260611Y-125303436D01*
X94301000Y-125506484D01*
X94301000Y-125713516D01*
X94260611Y-125916564D01*
X94181385Y-126107833D01*
X94181384Y-126107835D01*
X94066365Y-126279973D01*
X93919973Y-126426365D01*
X93747835Y-126541384D01*
X93747834Y-126541385D01*
X93747833Y-126541385D01*
X93556564Y-126620611D01*
X93353516Y-126661000D01*
X93146484Y-126661000D01*
X92943436Y-126620611D01*
X92752167Y-126541385D01*
X92752166Y-126541385D01*
X92752165Y-126541384D01*
X92580027Y-126426365D01*
X92433635Y-126279973D01*
X92318616Y-126107835D01*
X92318615Y-126107833D01*
X92239389Y-125916564D01*
X92199000Y-125713516D01*
X92199000Y-125506484D01*
X92239389Y-125303436D01*
X92318615Y-125112167D01*
X92433635Y-124940027D01*
X92580027Y-124793635D01*
X92752165Y-124678616D01*
X92752167Y-124678615D01*
X92943436Y-124599389D01*
X93146484Y-124559000D01*
X93353516Y-124559000D01*
X93556564Y-124599389D01*
G37*
G36*
X104986564Y-124599389D02*
G01*
X105177833Y-124678615D01*
X105177835Y-124678616D01*
X105349973Y-124793635D01*
X105496365Y-124940027D01*
X105611385Y-125112167D01*
X105690611Y-125303436D01*
X105731000Y-125506484D01*
X105731000Y-125713516D01*
X105690611Y-125916564D01*
X105611385Y-126107833D01*
X105611384Y-126107835D01*
X105496365Y-126279973D01*
X105349973Y-126426365D01*
X105177835Y-126541384D01*
X105177834Y-126541385D01*
X105177833Y-126541385D01*
X104986564Y-126620611D01*
X104783516Y-126661000D01*
X104576484Y-126661000D01*
X104373436Y-126620611D01*
X104182167Y-126541385D01*
X104182166Y-126541385D01*
X104182165Y-126541384D01*
X104010027Y-126426365D01*
X103863635Y-126279973D01*
X103748616Y-126107835D01*
X103748615Y-126107833D01*
X103669389Y-125916564D01*
X103629000Y-125713516D01*
X103629000Y-125506484D01*
X103669389Y-125303436D01*
X103748615Y-125112167D01*
X103863635Y-124940027D01*
X104010027Y-124793635D01*
X104182165Y-124678616D01*
X104182167Y-124678615D01*
X104373436Y-124599389D01*
X104576484Y-124559000D01*
X104783516Y-124559000D01*
X104986564Y-124599389D01*
G37*
G36*
X111486564Y-124599389D02*
G01*
X111677833Y-124678615D01*
X111677835Y-124678616D01*
X111849973Y-124793635D01*
X111996365Y-124940027D01*
X112111385Y-125112167D01*
X112190611Y-125303436D01*
X112231000Y-125506484D01*
X112231000Y-125713516D01*
X112190611Y-125916564D01*
X112111385Y-126107833D01*
X112111384Y-126107835D01*
X111996365Y-126279973D01*
X111849973Y-126426365D01*
X111677835Y-126541384D01*
X111677834Y-126541385D01*
X111677833Y-126541385D01*
X111486564Y-126620611D01*
X111283516Y-126661000D01*
X111076484Y-126661000D01*
X110873436Y-126620611D01*
X110682167Y-126541385D01*
X110682166Y-126541385D01*
X110682165Y-126541384D01*
X110510027Y-126426365D01*
X110363635Y-126279973D01*
X110248616Y-126107835D01*
X110248615Y-126107833D01*
X110169389Y-125916564D01*
X110129000Y-125713516D01*
X110129000Y-125506484D01*
X110169389Y-125303436D01*
X110248615Y-125112167D01*
X110363635Y-124940027D01*
X110510027Y-124793635D01*
X110682165Y-124678616D01*
X110682167Y-124678615D01*
X110873436Y-124599389D01*
X111076484Y-124559000D01*
X111283516Y-124559000D01*
X111486564Y-124599389D01*
G37*
G36*
X126766564Y-124599389D02*
G01*
X126957833Y-124678615D01*
X126957835Y-124678616D01*
X127129973Y-124793635D01*
X127276365Y-124940027D01*
X127391385Y-125112167D01*
X127470611Y-125303436D01*
X127511000Y-125506484D01*
X127511000Y-125713516D01*
X127470611Y-125916564D01*
X127391385Y-126107833D01*
X127391384Y-126107835D01*
X127276365Y-126279973D01*
X127129973Y-126426365D01*
X126957835Y-126541384D01*
X126957834Y-126541385D01*
X126957833Y-126541385D01*
X126766564Y-126620611D01*
X126563516Y-126661000D01*
X126356484Y-126661000D01*
X126153436Y-126620611D01*
X125962167Y-126541385D01*
X125962166Y-126541385D01*
X125962165Y-126541384D01*
X125790027Y-126426365D01*
X125643635Y-126279973D01*
X125528616Y-126107835D01*
X125528615Y-126107833D01*
X125449389Y-125916564D01*
X125409000Y-125713516D01*
X125409000Y-125506484D01*
X125449389Y-125303436D01*
X125528615Y-125112167D01*
X125643635Y-124940027D01*
X125790027Y-124793635D01*
X125962165Y-124678616D01*
X125962167Y-124678615D01*
X126153436Y-124599389D01*
X126356484Y-124559000D01*
X126563516Y-124559000D01*
X126766564Y-124599389D01*
G37*
G36*
X208036564Y-124599389D02*
G01*
X208227833Y-124678615D01*
X208227835Y-124678616D01*
X208399973Y-124793635D01*
X208546365Y-124940027D01*
X208661385Y-125112167D01*
X208740611Y-125303436D01*
X208781000Y-125506484D01*
X208781000Y-125713516D01*
X208740611Y-125916564D01*
X208661385Y-126107833D01*
X208661384Y-126107835D01*
X208546365Y-126279973D01*
X208399973Y-126426365D01*
X208227835Y-126541384D01*
X208227834Y-126541385D01*
X208227833Y-126541385D01*
X208036564Y-126620611D01*
X207833516Y-126661000D01*
X207626484Y-126661000D01*
X207423436Y-126620611D01*
X207232167Y-126541385D01*
X207232166Y-126541385D01*
X207232165Y-126541384D01*
X207060027Y-126426365D01*
X206913635Y-126279973D01*
X206798616Y-126107835D01*
X206798615Y-126107833D01*
X206719389Y-125916564D01*
X206679000Y-125713516D01*
X206679000Y-125506484D01*
X206719389Y-125303436D01*
X206798615Y-125112167D01*
X206913635Y-124940027D01*
X207060027Y-124793635D01*
X207232165Y-124678616D01*
X207232167Y-124678615D01*
X207423436Y-124599389D01*
X207626484Y-124559000D01*
X207833516Y-124559000D01*
X208036564Y-124599389D01*
G37*
G36*
X187891564Y-124599389D02*
G01*
X188082833Y-124678615D01*
X188082835Y-124678616D01*
X188254973Y-124793635D01*
X188401365Y-124940027D01*
X188516385Y-125112167D01*
X188595611Y-125303436D01*
X188636000Y-125506484D01*
X188636000Y-125713516D01*
X188595611Y-125916564D01*
X188516385Y-126107833D01*
X188516384Y-126107835D01*
X188401365Y-126279973D01*
X188254973Y-126426365D01*
X188082835Y-126541384D01*
X188082834Y-126541385D01*
X188082833Y-126541385D01*
X187891564Y-126620611D01*
X187688516Y-126661000D01*
X187481484Y-126661000D01*
X187278436Y-126620611D01*
X187087167Y-126541385D01*
X187087166Y-126541385D01*
X187087165Y-126541384D01*
X186915027Y-126426365D01*
X186768635Y-126279973D01*
X186653616Y-126107835D01*
X186653615Y-126107833D01*
X186574389Y-125916564D01*
X186534000Y-125713516D01*
X186534000Y-125506484D01*
X186574389Y-125303436D01*
X186653615Y-125112167D01*
X186768635Y-124940027D01*
X186915027Y-124793635D01*
X187087165Y-124678616D01*
X187087167Y-124678615D01*
X187278436Y-124599389D01*
X187481484Y-124559000D01*
X187688516Y-124559000D01*
X187891564Y-124599389D01*
G37*
G36*
X156126564Y-124599389D02*
G01*
X156317833Y-124678615D01*
X156317835Y-124678616D01*
X156489973Y-124793635D01*
X156636365Y-124940027D01*
X156751385Y-125112167D01*
X156830611Y-125303436D01*
X156871000Y-125506484D01*
X156871000Y-125713516D01*
X156830611Y-125916564D01*
X156751385Y-126107833D01*
X156751384Y-126107835D01*
X156636365Y-126279973D01*
X156489973Y-126426365D01*
X156317835Y-126541384D01*
X156317834Y-126541385D01*
X156317833Y-126541385D01*
X156126564Y-126620611D01*
X155923516Y-126661000D01*
X155716484Y-126661000D01*
X155513436Y-126620611D01*
X155322167Y-126541385D01*
X155322166Y-126541385D01*
X155322165Y-126541384D01*
X155150027Y-126426365D01*
X155003635Y-126279973D01*
X154888616Y-126107835D01*
X154888615Y-126107833D01*
X154809389Y-125916564D01*
X154769000Y-125713516D01*
X154769000Y-125506484D01*
X154809389Y-125303436D01*
X154888615Y-125112167D01*
X155003635Y-124940027D01*
X155150027Y-124793635D01*
X155322165Y-124678616D01*
X155322167Y-124678615D01*
X155513436Y-124599389D01*
X155716484Y-124559000D01*
X155923516Y-124559000D01*
X156126564Y-124599389D01*
G37*
G36*
X149626564Y-124599389D02*
G01*
X149817833Y-124678615D01*
X149817835Y-124678616D01*
X149989973Y-124793635D01*
X150136365Y-124940027D01*
X150251385Y-125112167D01*
X150330611Y-125303436D01*
X150371000Y-125506484D01*
X150371000Y-125713516D01*
X150330611Y-125916564D01*
X150251385Y-126107833D01*
X150251384Y-126107835D01*
X150136365Y-126279973D01*
X149989973Y-126426365D01*
X149817835Y-126541384D01*
X149817834Y-126541385D01*
X149817833Y-126541385D01*
X149626564Y-126620611D01*
X149423516Y-126661000D01*
X149216484Y-126661000D01*
X149013436Y-126620611D01*
X148822167Y-126541385D01*
X148822166Y-126541385D01*
X148822165Y-126541384D01*
X148650027Y-126426365D01*
X148503635Y-126279973D01*
X148388616Y-126107835D01*
X148388615Y-126107833D01*
X148309389Y-125916564D01*
X148269000Y-125713516D01*
X148269000Y-125506484D01*
X148309389Y-125303436D01*
X148388615Y-125112167D01*
X148503635Y-124940027D01*
X148650027Y-124793635D01*
X148822165Y-124678616D01*
X148822167Y-124678615D01*
X149013436Y-124599389D01*
X149216484Y-124559000D01*
X149423516Y-124559000D01*
X149626564Y-124599389D01*
G37*
G36*
X181391564Y-124599389D02*
G01*
X181582833Y-124678615D01*
X181582835Y-124678616D01*
X181754973Y-124793635D01*
X181901365Y-124940027D01*
X182016385Y-125112167D01*
X182095611Y-125303436D01*
X182136000Y-125506484D01*
X182136000Y-125713516D01*
X182095611Y-125916564D01*
X182016385Y-126107833D01*
X182016384Y-126107835D01*
X181901365Y-126279973D01*
X181754973Y-126426365D01*
X181582835Y-126541384D01*
X181582834Y-126541385D01*
X181582833Y-126541385D01*
X181391564Y-126620611D01*
X181188516Y-126661000D01*
X180981484Y-126661000D01*
X180778436Y-126620611D01*
X180587167Y-126541385D01*
X180587166Y-126541385D01*
X180587165Y-126541384D01*
X180415027Y-126426365D01*
X180268635Y-126279973D01*
X180153616Y-126107835D01*
X180153615Y-126107833D01*
X180074389Y-125916564D01*
X180034000Y-125713516D01*
X180034000Y-125506484D01*
X180074389Y-125303436D01*
X180153615Y-125112167D01*
X180268635Y-124940027D01*
X180415027Y-124793635D01*
X180587165Y-124678616D01*
X180587167Y-124678615D01*
X180778436Y-124599389D01*
X180981484Y-124559000D01*
X181188516Y-124559000D01*
X181391564Y-124599389D01*
G37*
G36*
X138196564Y-124599389D02*
G01*
X138387833Y-124678615D01*
X138387835Y-124678616D01*
X138559973Y-124793635D01*
X138706365Y-124940027D01*
X138821385Y-125112167D01*
X138900611Y-125303436D01*
X138941000Y-125506484D01*
X138941000Y-125713516D01*
X138900611Y-125916564D01*
X138821385Y-126107833D01*
X138821384Y-126107835D01*
X138706365Y-126279973D01*
X138559973Y-126426365D01*
X138387835Y-126541384D01*
X138387834Y-126541385D01*
X138387833Y-126541385D01*
X138196564Y-126620611D01*
X137993516Y-126661000D01*
X137786484Y-126661000D01*
X137583436Y-126620611D01*
X137392167Y-126541385D01*
X137392166Y-126541385D01*
X137392165Y-126541384D01*
X137220027Y-126426365D01*
X137073635Y-126279973D01*
X136958616Y-126107835D01*
X136958615Y-126107833D01*
X136879389Y-125916564D01*
X136839000Y-125713516D01*
X136839000Y-125506484D01*
X136879389Y-125303436D01*
X136958615Y-125112167D01*
X137073635Y-124940027D01*
X137220027Y-124793635D01*
X137392165Y-124678616D01*
X137392167Y-124678615D01*
X137583436Y-124599389D01*
X137786484Y-124559000D01*
X137993516Y-124559000D01*
X138196564Y-124599389D01*
G37*
G36*
X133266564Y-124599389D02*
G01*
X133457833Y-124678615D01*
X133457835Y-124678616D01*
X133629973Y-124793635D01*
X133776365Y-124940027D01*
X133891385Y-125112167D01*
X133970611Y-125303436D01*
X134011000Y-125506484D01*
X134011000Y-125713516D01*
X133970611Y-125916564D01*
X133891385Y-126107833D01*
X133891384Y-126107835D01*
X133776365Y-126279973D01*
X133629973Y-126426365D01*
X133457835Y-126541384D01*
X133457834Y-126541385D01*
X133457833Y-126541385D01*
X133266564Y-126620611D01*
X133063516Y-126661000D01*
X132856484Y-126661000D01*
X132653436Y-126620611D01*
X132462167Y-126541385D01*
X132462166Y-126541385D01*
X132462165Y-126541384D01*
X132290027Y-126426365D01*
X132143635Y-126279973D01*
X132028616Y-126107835D01*
X132028615Y-126107833D01*
X131949389Y-125916564D01*
X131909000Y-125713516D01*
X131909000Y-125506484D01*
X131949389Y-125303436D01*
X132028615Y-125112167D01*
X132143635Y-124940027D01*
X132290027Y-124793635D01*
X132462165Y-124678616D01*
X132462167Y-124678615D01*
X132653436Y-124599389D01*
X132856484Y-124559000D01*
X133063516Y-124559000D01*
X133266564Y-124599389D01*
G37*
G36*
X201536564Y-124599389D02*
G01*
X201727833Y-124678615D01*
X201727835Y-124678616D01*
X201899973Y-124793635D01*
X202046365Y-124940027D01*
X202161385Y-125112167D01*
X202240611Y-125303436D01*
X202281000Y-125506484D01*
X202281000Y-125713516D01*
X202240611Y-125916564D01*
X202161385Y-126107833D01*
X202161384Y-126107835D01*
X202046365Y-126279973D01*
X201899973Y-126426365D01*
X201727835Y-126541384D01*
X201727834Y-126541385D01*
X201727833Y-126541385D01*
X201536564Y-126620611D01*
X201333516Y-126661000D01*
X201126484Y-126661000D01*
X200923436Y-126620611D01*
X200732167Y-126541385D01*
X200732166Y-126541385D01*
X200732165Y-126541384D01*
X200560027Y-126426365D01*
X200413635Y-126279973D01*
X200298616Y-126107835D01*
X200298615Y-126107833D01*
X200219389Y-125916564D01*
X200179000Y-125713516D01*
X200179000Y-125506484D01*
X200219389Y-125303436D01*
X200298615Y-125112167D01*
X200413635Y-124940027D01*
X200560027Y-124793635D01*
X200732165Y-124678616D01*
X200732167Y-124678615D01*
X200923436Y-124599389D01*
X201126484Y-124559000D01*
X201333516Y-124559000D01*
X201536564Y-124599389D01*
G37*
G36*
X208036564Y-120099389D02*
G01*
X208227833Y-120178615D01*
X208227835Y-120178616D01*
X208399973Y-120293635D01*
X208546365Y-120440027D01*
X208661385Y-120612167D01*
X208740611Y-120803436D01*
X208781000Y-121006484D01*
X208781000Y-121213516D01*
X208740611Y-121416564D01*
X208661385Y-121607833D01*
X208661384Y-121607835D01*
X208546365Y-121779973D01*
X208399973Y-121926365D01*
X208227835Y-122041384D01*
X208227834Y-122041385D01*
X208227833Y-122041385D01*
X208036564Y-122120611D01*
X207833516Y-122161000D01*
X207626484Y-122161000D01*
X207423436Y-122120611D01*
X207232167Y-122041385D01*
X207232166Y-122041385D01*
X207232165Y-122041384D01*
X207060027Y-121926365D01*
X206913635Y-121779973D01*
X206798616Y-121607835D01*
X206798615Y-121607833D01*
X206719389Y-121416564D01*
X206679000Y-121213516D01*
X206679000Y-121006484D01*
X206719389Y-120803436D01*
X206798615Y-120612167D01*
X206913635Y-120440027D01*
X207060027Y-120293635D01*
X207232165Y-120178616D01*
X207232167Y-120178615D01*
X207423436Y-120099389D01*
X207626484Y-120059000D01*
X207833516Y-120059000D01*
X208036564Y-120099389D01*
G37*
G36*
X187891564Y-120099389D02*
G01*
X188082833Y-120178615D01*
X188082835Y-120178616D01*
X188254973Y-120293635D01*
X188401365Y-120440027D01*
X188516385Y-120612167D01*
X188595611Y-120803436D01*
X188636000Y-121006484D01*
X188636000Y-121213516D01*
X188595611Y-121416564D01*
X188516385Y-121607833D01*
X188516384Y-121607835D01*
X188401365Y-121779973D01*
X188254973Y-121926365D01*
X188082835Y-122041384D01*
X188082834Y-122041385D01*
X188082833Y-122041385D01*
X187891564Y-122120611D01*
X187688516Y-122161000D01*
X187481484Y-122161000D01*
X187278436Y-122120611D01*
X187087167Y-122041385D01*
X187087166Y-122041385D01*
X187087165Y-122041384D01*
X186915027Y-121926365D01*
X186768635Y-121779973D01*
X186653616Y-121607835D01*
X186653615Y-121607833D01*
X186574389Y-121416564D01*
X186534000Y-121213516D01*
X186534000Y-121006484D01*
X186574389Y-120803436D01*
X186653615Y-120612167D01*
X186768635Y-120440027D01*
X186915027Y-120293635D01*
X187087165Y-120178616D01*
X187087167Y-120178615D01*
X187278436Y-120099389D01*
X187481484Y-120059000D01*
X187688516Y-120059000D01*
X187891564Y-120099389D01*
G37*
G36*
X133266564Y-120099389D02*
G01*
X133457833Y-120178615D01*
X133457835Y-120178616D01*
X133629973Y-120293635D01*
X133776365Y-120440027D01*
X133891385Y-120612167D01*
X133970611Y-120803436D01*
X134011000Y-121006484D01*
X134011000Y-121213516D01*
X133970611Y-121416564D01*
X133891385Y-121607833D01*
X133891384Y-121607835D01*
X133776365Y-121779973D01*
X133629973Y-121926365D01*
X133457835Y-122041384D01*
X133457834Y-122041385D01*
X133457833Y-122041385D01*
X133266564Y-122120611D01*
X133063516Y-122161000D01*
X132856484Y-122161000D01*
X132653436Y-122120611D01*
X132462167Y-122041385D01*
X132462166Y-122041385D01*
X132462165Y-122041384D01*
X132290027Y-121926365D01*
X132143635Y-121779973D01*
X132028616Y-121607835D01*
X132028615Y-121607833D01*
X131949389Y-121416564D01*
X131909000Y-121213516D01*
X131909000Y-121006484D01*
X131949389Y-120803436D01*
X132028615Y-120612167D01*
X132143635Y-120440027D01*
X132290027Y-120293635D01*
X132462165Y-120178616D01*
X132462167Y-120178615D01*
X132653436Y-120099389D01*
X132856484Y-120059000D01*
X133063516Y-120059000D01*
X133266564Y-120099389D01*
G37*
G36*
X144696564Y-120099389D02*
G01*
X144887833Y-120178615D01*
X144887835Y-120178616D01*
X145059973Y-120293635D01*
X145206365Y-120440027D01*
X145321385Y-120612167D01*
X145400611Y-120803436D01*
X145441000Y-121006484D01*
X145441000Y-121213516D01*
X145400611Y-121416564D01*
X145321385Y-121607833D01*
X145321384Y-121607835D01*
X145206365Y-121779973D01*
X145059973Y-121926365D01*
X144887835Y-122041384D01*
X144887834Y-122041385D01*
X144887833Y-122041385D01*
X144696564Y-122120611D01*
X144493516Y-122161000D01*
X144286484Y-122161000D01*
X144083436Y-122120611D01*
X143892167Y-122041385D01*
X143892166Y-122041385D01*
X143892165Y-122041384D01*
X143720027Y-121926365D01*
X143573635Y-121779973D01*
X143458616Y-121607835D01*
X143458615Y-121607833D01*
X143379389Y-121416564D01*
X143339000Y-121213516D01*
X143339000Y-121006484D01*
X143379389Y-120803436D01*
X143458615Y-120612167D01*
X143573635Y-120440027D01*
X143720027Y-120293635D01*
X143892165Y-120178616D01*
X143892167Y-120178615D01*
X144083436Y-120099389D01*
X144286484Y-120059000D01*
X144493516Y-120059000D01*
X144696564Y-120099389D01*
G37*
G36*
X149626564Y-120099389D02*
G01*
X149817833Y-120178615D01*
X149817835Y-120178616D01*
X149989973Y-120293635D01*
X150136365Y-120440027D01*
X150251385Y-120612167D01*
X150330611Y-120803436D01*
X150371000Y-121006484D01*
X150371000Y-121213516D01*
X150330611Y-121416564D01*
X150251385Y-121607833D01*
X150251384Y-121607835D01*
X150136365Y-121779973D01*
X149989973Y-121926365D01*
X149817835Y-122041384D01*
X149817834Y-122041385D01*
X149817833Y-122041385D01*
X149626564Y-122120611D01*
X149423516Y-122161000D01*
X149216484Y-122161000D01*
X149013436Y-122120611D01*
X148822167Y-122041385D01*
X148822166Y-122041385D01*
X148822165Y-122041384D01*
X148650027Y-121926365D01*
X148503635Y-121779973D01*
X148388616Y-121607835D01*
X148388615Y-121607833D01*
X148309389Y-121416564D01*
X148269000Y-121213516D01*
X148269000Y-121006484D01*
X148309389Y-120803436D01*
X148388615Y-120612167D01*
X148503635Y-120440027D01*
X148650027Y-120293635D01*
X148822165Y-120178616D01*
X148822167Y-120178615D01*
X149013436Y-120099389D01*
X149216484Y-120059000D01*
X149423516Y-120059000D01*
X149626564Y-120099389D01*
G37*
G36*
X181391564Y-120099389D02*
G01*
X181582833Y-120178615D01*
X181582835Y-120178616D01*
X181754973Y-120293635D01*
X181901365Y-120440027D01*
X182016385Y-120612167D01*
X182095611Y-120803436D01*
X182136000Y-121006484D01*
X182136000Y-121213516D01*
X182095611Y-121416564D01*
X182016385Y-121607833D01*
X182016384Y-121607835D01*
X181901365Y-121779973D01*
X181754973Y-121926365D01*
X181582835Y-122041384D01*
X181582834Y-122041385D01*
X181582833Y-122041385D01*
X181391564Y-122120611D01*
X181188516Y-122161000D01*
X180981484Y-122161000D01*
X180778436Y-122120611D01*
X180587167Y-122041385D01*
X180587166Y-122041385D01*
X180587165Y-122041384D01*
X180415027Y-121926365D01*
X180268635Y-121779973D01*
X180153616Y-121607835D01*
X180153615Y-121607833D01*
X180074389Y-121416564D01*
X180034000Y-121213516D01*
X180034000Y-121006484D01*
X180074389Y-120803436D01*
X180153615Y-120612167D01*
X180268635Y-120440027D01*
X180415027Y-120293635D01*
X180587165Y-120178616D01*
X180587167Y-120178615D01*
X180778436Y-120099389D01*
X180981484Y-120059000D01*
X181188516Y-120059000D01*
X181391564Y-120099389D01*
G37*
G36*
X138196564Y-120099389D02*
G01*
X138387833Y-120178615D01*
X138387835Y-120178616D01*
X138559973Y-120293635D01*
X138706365Y-120440027D01*
X138821385Y-120612167D01*
X138900611Y-120803436D01*
X138941000Y-121006484D01*
X138941000Y-121213516D01*
X138900611Y-121416564D01*
X138821385Y-121607833D01*
X138821384Y-121607835D01*
X138706365Y-121779973D01*
X138559973Y-121926365D01*
X138387835Y-122041384D01*
X138387834Y-122041385D01*
X138387833Y-122041385D01*
X138196564Y-122120611D01*
X137993516Y-122161000D01*
X137786484Y-122161000D01*
X137583436Y-122120611D01*
X137392167Y-122041385D01*
X137392166Y-122041385D01*
X137392165Y-122041384D01*
X137220027Y-121926365D01*
X137073635Y-121779973D01*
X136958616Y-121607835D01*
X136958615Y-121607833D01*
X136879389Y-121416564D01*
X136839000Y-121213516D01*
X136839000Y-121006484D01*
X136879389Y-120803436D01*
X136958615Y-120612167D01*
X137073635Y-120440027D01*
X137220027Y-120293635D01*
X137392165Y-120178616D01*
X137392167Y-120178615D01*
X137583436Y-120099389D01*
X137786484Y-120059000D01*
X137993516Y-120059000D01*
X138196564Y-120099389D01*
G37*
G36*
X156126564Y-120099389D02*
G01*
X156317833Y-120178615D01*
X156317835Y-120178616D01*
X156489973Y-120293635D01*
X156636365Y-120440027D01*
X156751385Y-120612167D01*
X156830611Y-120803436D01*
X156871000Y-121006484D01*
X156871000Y-121213516D01*
X156830611Y-121416564D01*
X156751385Y-121607833D01*
X156751384Y-121607835D01*
X156636365Y-121779973D01*
X156489973Y-121926365D01*
X156317835Y-122041384D01*
X156317834Y-122041385D01*
X156317833Y-122041385D01*
X156126564Y-122120611D01*
X155923516Y-122161000D01*
X155716484Y-122161000D01*
X155513436Y-122120611D01*
X155322167Y-122041385D01*
X155322166Y-122041385D01*
X155322165Y-122041384D01*
X155150027Y-121926365D01*
X155003635Y-121779973D01*
X154888616Y-121607835D01*
X154888615Y-121607833D01*
X154809389Y-121416564D01*
X154769000Y-121213516D01*
X154769000Y-121006484D01*
X154809389Y-120803436D01*
X154888615Y-120612167D01*
X155003635Y-120440027D01*
X155150027Y-120293635D01*
X155322165Y-120178616D01*
X155322167Y-120178615D01*
X155513436Y-120099389D01*
X155716484Y-120059000D01*
X155923516Y-120059000D01*
X156126564Y-120099389D01*
G37*
G36*
X126766564Y-120099389D02*
G01*
X126957833Y-120178615D01*
X126957835Y-120178616D01*
X127129973Y-120293635D01*
X127276365Y-120440027D01*
X127391385Y-120612167D01*
X127470611Y-120803436D01*
X127511000Y-121006484D01*
X127511000Y-121213516D01*
X127470611Y-121416564D01*
X127391385Y-121607833D01*
X127391384Y-121607835D01*
X127276365Y-121779973D01*
X127129973Y-121926365D01*
X126957835Y-122041384D01*
X126957834Y-122041385D01*
X126957833Y-122041385D01*
X126766564Y-122120611D01*
X126563516Y-122161000D01*
X126356484Y-122161000D01*
X126153436Y-122120611D01*
X125962167Y-122041385D01*
X125962166Y-122041385D01*
X125962165Y-122041384D01*
X125790027Y-121926365D01*
X125643635Y-121779973D01*
X125528616Y-121607835D01*
X125528615Y-121607833D01*
X125449389Y-121416564D01*
X125409000Y-121213516D01*
X125409000Y-121006484D01*
X125449389Y-120803436D01*
X125528615Y-120612167D01*
X125643635Y-120440027D01*
X125790027Y-120293635D01*
X125962165Y-120178616D01*
X125962167Y-120178615D01*
X126153436Y-120099389D01*
X126356484Y-120059000D01*
X126563516Y-120059000D01*
X126766564Y-120099389D01*
G37*
G36*
X201536564Y-120099389D02*
G01*
X201727833Y-120178615D01*
X201727835Y-120178616D01*
X201899973Y-120293635D01*
X202046365Y-120440027D01*
X202161385Y-120612167D01*
X202240611Y-120803436D01*
X202281000Y-121006484D01*
X202281000Y-121213516D01*
X202240611Y-121416564D01*
X202161385Y-121607833D01*
X202161384Y-121607835D01*
X202046365Y-121779973D01*
X201899973Y-121926365D01*
X201727835Y-122041384D01*
X201727834Y-122041385D01*
X201727833Y-122041385D01*
X201536564Y-122120611D01*
X201333516Y-122161000D01*
X201126484Y-122161000D01*
X200923436Y-122120611D01*
X200732167Y-122041385D01*
X200732166Y-122041385D01*
X200732165Y-122041384D01*
X200560027Y-121926365D01*
X200413635Y-121779973D01*
X200298616Y-121607835D01*
X200298615Y-121607833D01*
X200219389Y-121416564D01*
X200179000Y-121213516D01*
X200179000Y-121006484D01*
X200219389Y-120803436D01*
X200298615Y-120612167D01*
X200413635Y-120440027D01*
X200560027Y-120293635D01*
X200732165Y-120178616D01*
X200732167Y-120178615D01*
X200923436Y-120099389D01*
X201126484Y-120059000D01*
X201333516Y-120059000D01*
X201536564Y-120099389D01*
G37*
G36*
X104986564Y-120099389D02*
G01*
X105177833Y-120178615D01*
X105177835Y-120178616D01*
X105349973Y-120293635D01*
X105496365Y-120440027D01*
X105611385Y-120612167D01*
X105690611Y-120803436D01*
X105731000Y-121006484D01*
X105731000Y-121213516D01*
X105690611Y-121416564D01*
X105611385Y-121607833D01*
X105611384Y-121607835D01*
X105496365Y-121779973D01*
X105349973Y-121926365D01*
X105177835Y-122041384D01*
X105177834Y-122041385D01*
X105177833Y-122041385D01*
X104986564Y-122120611D01*
X104783516Y-122161000D01*
X104576484Y-122161000D01*
X104373436Y-122120611D01*
X104182167Y-122041385D01*
X104182166Y-122041385D01*
X104182165Y-122041384D01*
X104010027Y-121926365D01*
X103863635Y-121779973D01*
X103748616Y-121607835D01*
X103748615Y-121607833D01*
X103669389Y-121416564D01*
X103629000Y-121213516D01*
X103629000Y-121006484D01*
X103669389Y-120803436D01*
X103748615Y-120612167D01*
X103863635Y-120440027D01*
X104010027Y-120293635D01*
X104182165Y-120178616D01*
X104182167Y-120178615D01*
X104373436Y-120099389D01*
X104576484Y-120059000D01*
X104783516Y-120059000D01*
X104986564Y-120099389D01*
G37*
G36*
X111486564Y-120099389D02*
G01*
X111677833Y-120178615D01*
X111677835Y-120178616D01*
X111849973Y-120293635D01*
X111996365Y-120440027D01*
X112111385Y-120612167D01*
X112190611Y-120803436D01*
X112231000Y-121006484D01*
X112231000Y-121213516D01*
X112190611Y-121416564D01*
X112111385Y-121607833D01*
X112111384Y-121607835D01*
X111996365Y-121779973D01*
X111849973Y-121926365D01*
X111677835Y-122041384D01*
X111677834Y-122041385D01*
X111677833Y-122041385D01*
X111486564Y-122120611D01*
X111283516Y-122161000D01*
X111076484Y-122161000D01*
X110873436Y-122120611D01*
X110682167Y-122041385D01*
X110682166Y-122041385D01*
X110682165Y-122041384D01*
X110510027Y-121926365D01*
X110363635Y-121779973D01*
X110248616Y-121607835D01*
X110248615Y-121607833D01*
X110169389Y-121416564D01*
X110129000Y-121213516D01*
X110129000Y-121006484D01*
X110169389Y-120803436D01*
X110248615Y-120612167D01*
X110363635Y-120440027D01*
X110510027Y-120293635D01*
X110682165Y-120178616D01*
X110682167Y-120178615D01*
X110873436Y-120099389D01*
X111076484Y-120059000D01*
X111283516Y-120059000D01*
X111486564Y-120099389D01*
G37*
G36*
X93556564Y-120099389D02*
G01*
X93747833Y-120178615D01*
X93747835Y-120178616D01*
X93919973Y-120293635D01*
X94066365Y-120440027D01*
X94181385Y-120612167D01*
X94260611Y-120803436D01*
X94301000Y-121006484D01*
X94301000Y-121213516D01*
X94260611Y-121416564D01*
X94181385Y-121607833D01*
X94181384Y-121607835D01*
X94066365Y-121779973D01*
X93919973Y-121926365D01*
X93747835Y-122041384D01*
X93747834Y-122041385D01*
X93747833Y-122041385D01*
X93556564Y-122120611D01*
X93353516Y-122161000D01*
X93146484Y-122161000D01*
X92943436Y-122120611D01*
X92752167Y-122041385D01*
X92752166Y-122041385D01*
X92752165Y-122041384D01*
X92580027Y-121926365D01*
X92433635Y-121779973D01*
X92318616Y-121607835D01*
X92318615Y-121607833D01*
X92239389Y-121416564D01*
X92199000Y-121213516D01*
X92199000Y-121006484D01*
X92239389Y-120803436D01*
X92318615Y-120612167D01*
X92433635Y-120440027D01*
X92580027Y-120293635D01*
X92752165Y-120178616D01*
X92752167Y-120178615D01*
X92943436Y-120099389D01*
X93146484Y-120059000D01*
X93353516Y-120059000D01*
X93556564Y-120099389D01*
G37*
G36*
X100056564Y-120099389D02*
G01*
X100247833Y-120178615D01*
X100247835Y-120178616D01*
X100419973Y-120293635D01*
X100566365Y-120440027D01*
X100681385Y-120612167D01*
X100760611Y-120803436D01*
X100801000Y-121006484D01*
X100801000Y-121213516D01*
X100760611Y-121416564D01*
X100681385Y-121607833D01*
X100681384Y-121607835D01*
X100566365Y-121779973D01*
X100419973Y-121926365D01*
X100247835Y-122041384D01*
X100247834Y-122041385D01*
X100247833Y-122041385D01*
X100056564Y-122120611D01*
X99853516Y-122161000D01*
X99646484Y-122161000D01*
X99443436Y-122120611D01*
X99252167Y-122041385D01*
X99252166Y-122041385D01*
X99252165Y-122041384D01*
X99080027Y-121926365D01*
X98933635Y-121779973D01*
X98818616Y-121607835D01*
X98818615Y-121607833D01*
X98739389Y-121416564D01*
X98699000Y-121213516D01*
X98699000Y-121006484D01*
X98739389Y-120803436D01*
X98818615Y-120612167D01*
X98933635Y-120440027D01*
X99080027Y-120293635D01*
X99252165Y-120178616D01*
X99252167Y-120178615D01*
X99443436Y-120099389D01*
X99646484Y-120059000D01*
X99853516Y-120059000D01*
X100056564Y-120099389D01*
G37*
G36*
X121051564Y-115074389D02*
G01*
X121242833Y-115153615D01*
X121242835Y-115153616D01*
X121414973Y-115268635D01*
X121561365Y-115415027D01*
X121676385Y-115587167D01*
X121755611Y-115778436D01*
X121796000Y-115981484D01*
X121796000Y-116188516D01*
X121755611Y-116391564D01*
X121699166Y-116527835D01*
X121676384Y-116582835D01*
X121561365Y-116754973D01*
X121414973Y-116901365D01*
X121242835Y-117016384D01*
X121242834Y-117016385D01*
X121242833Y-117016385D01*
X121051564Y-117095611D01*
X120848516Y-117136000D01*
X120641484Y-117136000D01*
X120438436Y-117095611D01*
X120247167Y-117016385D01*
X120247166Y-117016385D01*
X120247165Y-117016384D01*
X120075027Y-116901365D01*
X119928635Y-116754973D01*
X119813616Y-116582835D01*
X119790834Y-116527835D01*
X119734389Y-116391564D01*
X119694000Y-116188516D01*
X119694000Y-115981484D01*
X119734389Y-115778436D01*
X119813615Y-115587167D01*
X119928635Y-115415027D01*
X120075027Y-115268635D01*
X120247165Y-115153616D01*
X120247167Y-115153615D01*
X120438436Y-115074389D01*
X120641484Y-115034000D01*
X120848516Y-115034000D01*
X121051564Y-115074389D01*
G37*
G36*
X182176564Y-115074389D02*
G01*
X182367833Y-115153615D01*
X182367835Y-115153616D01*
X182539973Y-115268635D01*
X182686365Y-115415027D01*
X182801385Y-115587167D01*
X182880611Y-115778436D01*
X182921000Y-115981484D01*
X182921000Y-116188516D01*
X182880611Y-116391564D01*
X182824166Y-116527835D01*
X182801384Y-116582835D01*
X182686365Y-116754973D01*
X182539973Y-116901365D01*
X182367835Y-117016384D01*
X182367834Y-117016385D01*
X182367833Y-117016385D01*
X182176564Y-117095611D01*
X181973516Y-117136000D01*
X181766484Y-117136000D01*
X181563436Y-117095611D01*
X181372167Y-117016385D01*
X181372166Y-117016385D01*
X181372165Y-117016384D01*
X181200027Y-116901365D01*
X181053635Y-116754973D01*
X180938616Y-116582835D01*
X180915834Y-116527835D01*
X180859389Y-116391564D01*
X180819000Y-116188516D01*
X180819000Y-115981484D01*
X180859389Y-115778436D01*
X180938615Y-115587167D01*
X181053635Y-115415027D01*
X181200027Y-115268635D01*
X181372165Y-115153616D01*
X181372167Y-115153615D01*
X181563436Y-115074389D01*
X181766484Y-115034000D01*
X181973516Y-115034000D01*
X182176564Y-115074389D01*
G37*
G36*
X175676564Y-115074389D02*
G01*
X175867833Y-115153615D01*
X175867835Y-115153616D01*
X176039973Y-115268635D01*
X176186365Y-115415027D01*
X176301385Y-115587167D01*
X176380611Y-115778436D01*
X176421000Y-115981484D01*
X176421000Y-116188516D01*
X176380611Y-116391564D01*
X176324166Y-116527835D01*
X176301384Y-116582835D01*
X176186365Y-116754973D01*
X176039973Y-116901365D01*
X175867835Y-117016384D01*
X175867834Y-117016385D01*
X175867833Y-117016385D01*
X175676564Y-117095611D01*
X175473516Y-117136000D01*
X175266484Y-117136000D01*
X175063436Y-117095611D01*
X174872167Y-117016385D01*
X174872166Y-117016385D01*
X174872165Y-117016384D01*
X174700027Y-116901365D01*
X174553635Y-116754973D01*
X174438616Y-116582835D01*
X174415834Y-116527835D01*
X174359389Y-116391564D01*
X174319000Y-116188516D01*
X174319000Y-115981484D01*
X174359389Y-115778436D01*
X174438615Y-115587167D01*
X174553635Y-115415027D01*
X174700027Y-115268635D01*
X174872165Y-115153616D01*
X174872167Y-115153615D01*
X175063436Y-115074389D01*
X175266484Y-115034000D01*
X175473516Y-115034000D01*
X175676564Y-115074389D01*
G37*
G36*
X187106564Y-115074389D02*
G01*
X187297833Y-115153615D01*
X187297835Y-115153616D01*
X187469973Y-115268635D01*
X187616365Y-115415027D01*
X187731385Y-115587167D01*
X187810611Y-115778436D01*
X187851000Y-115981484D01*
X187851000Y-116188516D01*
X187810611Y-116391564D01*
X187754166Y-116527835D01*
X187731384Y-116582835D01*
X187616365Y-116754973D01*
X187469973Y-116901365D01*
X187297835Y-117016384D01*
X187297834Y-117016385D01*
X187297833Y-117016385D01*
X187106564Y-117095611D01*
X186903516Y-117136000D01*
X186696484Y-117136000D01*
X186493436Y-117095611D01*
X186302167Y-117016385D01*
X186302166Y-117016385D01*
X186302165Y-117016384D01*
X186130027Y-116901365D01*
X185983635Y-116754973D01*
X185868616Y-116582835D01*
X185845834Y-116527835D01*
X185789389Y-116391564D01*
X185749000Y-116188516D01*
X185749000Y-115981484D01*
X185789389Y-115778436D01*
X185868615Y-115587167D01*
X185983635Y-115415027D01*
X186130027Y-115268635D01*
X186302165Y-115153616D01*
X186302167Y-115153615D01*
X186493436Y-115074389D01*
X186696484Y-115034000D01*
X186903516Y-115034000D01*
X187106564Y-115074389D01*
G37*
G36*
X127551564Y-115074389D02*
G01*
X127742833Y-115153615D01*
X127742835Y-115153616D01*
X127914973Y-115268635D01*
X128061365Y-115415027D01*
X128176385Y-115587167D01*
X128255611Y-115778436D01*
X128296000Y-115981484D01*
X128296000Y-116188516D01*
X128255611Y-116391564D01*
X128199166Y-116527835D01*
X128176384Y-116582835D01*
X128061365Y-116754973D01*
X127914973Y-116901365D01*
X127742835Y-117016384D01*
X127742834Y-117016385D01*
X127742833Y-117016385D01*
X127551564Y-117095611D01*
X127348516Y-117136000D01*
X127141484Y-117136000D01*
X126938436Y-117095611D01*
X126747167Y-117016385D01*
X126747166Y-117016385D01*
X126747165Y-117016384D01*
X126575027Y-116901365D01*
X126428635Y-116754973D01*
X126313616Y-116582835D01*
X126290834Y-116527835D01*
X126234389Y-116391564D01*
X126194000Y-116188516D01*
X126194000Y-115981484D01*
X126234389Y-115778436D01*
X126313615Y-115587167D01*
X126428635Y-115415027D01*
X126575027Y-115268635D01*
X126747165Y-115153616D01*
X126747167Y-115153615D01*
X126938436Y-115074389D01*
X127141484Y-115034000D01*
X127348516Y-115034000D01*
X127551564Y-115074389D01*
G37*
G36*
X205981564Y-115074389D02*
G01*
X206172833Y-115153615D01*
X206172835Y-115153616D01*
X206344973Y-115268635D01*
X206491365Y-115415027D01*
X206606385Y-115587167D01*
X206685611Y-115778436D01*
X206726000Y-115981484D01*
X206726000Y-116188516D01*
X206685611Y-116391564D01*
X206629166Y-116527835D01*
X206606384Y-116582835D01*
X206491365Y-116754973D01*
X206344973Y-116901365D01*
X206172835Y-117016384D01*
X206172834Y-117016385D01*
X206172833Y-117016385D01*
X205981564Y-117095611D01*
X205778516Y-117136000D01*
X205571484Y-117136000D01*
X205368436Y-117095611D01*
X205177167Y-117016385D01*
X205177166Y-117016385D01*
X205177165Y-117016384D01*
X205005027Y-116901365D01*
X204858635Y-116754973D01*
X204743616Y-116582835D01*
X204720834Y-116527835D01*
X204664389Y-116391564D01*
X204624000Y-116188516D01*
X204624000Y-115981484D01*
X204664389Y-115778436D01*
X204743615Y-115587167D01*
X204858635Y-115415027D01*
X205005027Y-115268635D01*
X205177165Y-115153616D01*
X205177167Y-115153615D01*
X205368436Y-115074389D01*
X205571484Y-115034000D01*
X205778516Y-115034000D01*
X205981564Y-115074389D01*
G37*
G36*
X132481564Y-115074389D02*
G01*
X132672833Y-115153615D01*
X132672835Y-115153616D01*
X132844973Y-115268635D01*
X132991365Y-115415027D01*
X133106385Y-115587167D01*
X133185611Y-115778436D01*
X133226000Y-115981484D01*
X133226000Y-116188516D01*
X133185611Y-116391564D01*
X133129166Y-116527835D01*
X133106384Y-116582835D01*
X132991365Y-116754973D01*
X132844973Y-116901365D01*
X132672835Y-117016384D01*
X132672834Y-117016385D01*
X132672833Y-117016385D01*
X132481564Y-117095611D01*
X132278516Y-117136000D01*
X132071484Y-117136000D01*
X131868436Y-117095611D01*
X131677167Y-117016385D01*
X131677166Y-117016385D01*
X131677165Y-117016384D01*
X131505027Y-116901365D01*
X131358635Y-116754973D01*
X131243616Y-116582835D01*
X131220834Y-116527835D01*
X131164389Y-116391564D01*
X131124000Y-116188516D01*
X131124000Y-115981484D01*
X131164389Y-115778436D01*
X131243615Y-115587167D01*
X131358635Y-115415027D01*
X131505027Y-115268635D01*
X131677165Y-115153616D01*
X131677167Y-115153615D01*
X131868436Y-115074389D01*
X132071484Y-115034000D01*
X132278516Y-115034000D01*
X132481564Y-115074389D01*
G37*
G36*
X193606564Y-115074389D02*
G01*
X193797833Y-115153615D01*
X193797835Y-115153616D01*
X193969973Y-115268635D01*
X194116365Y-115415027D01*
X194231385Y-115587167D01*
X194310611Y-115778436D01*
X194351000Y-115981484D01*
X194351000Y-116188516D01*
X194310611Y-116391564D01*
X194254166Y-116527835D01*
X194231384Y-116582835D01*
X194116365Y-116754973D01*
X193969973Y-116901365D01*
X193797835Y-117016384D01*
X193797834Y-117016385D01*
X193797833Y-117016385D01*
X193606564Y-117095611D01*
X193403516Y-117136000D01*
X193196484Y-117136000D01*
X192993436Y-117095611D01*
X192802167Y-117016385D01*
X192802166Y-117016385D01*
X192802165Y-117016384D01*
X192630027Y-116901365D01*
X192483635Y-116754973D01*
X192368616Y-116582835D01*
X192345834Y-116527835D01*
X192289389Y-116391564D01*
X192249000Y-116188516D01*
X192249000Y-115981484D01*
X192289389Y-115778436D01*
X192368615Y-115587167D01*
X192483635Y-115415027D01*
X192630027Y-115268635D01*
X192802165Y-115153616D01*
X192802167Y-115153615D01*
X192993436Y-115074389D01*
X193196484Y-115034000D01*
X193403516Y-115034000D01*
X193606564Y-115074389D01*
G37*
G36*
X138981564Y-115074389D02*
G01*
X139172833Y-115153615D01*
X139172835Y-115153616D01*
X139344973Y-115268635D01*
X139491365Y-115415027D01*
X139606385Y-115587167D01*
X139685611Y-115778436D01*
X139726000Y-115981484D01*
X139726000Y-116188516D01*
X139685611Y-116391564D01*
X139629166Y-116527835D01*
X139606384Y-116582835D01*
X139491365Y-116754973D01*
X139344973Y-116901365D01*
X139172835Y-117016384D01*
X139172834Y-117016385D01*
X139172833Y-117016385D01*
X138981564Y-117095611D01*
X138778516Y-117136000D01*
X138571484Y-117136000D01*
X138368436Y-117095611D01*
X138177167Y-117016385D01*
X138177166Y-117016385D01*
X138177165Y-117016384D01*
X138005027Y-116901365D01*
X137858635Y-116754973D01*
X137743616Y-116582835D01*
X137720834Y-116527835D01*
X137664389Y-116391564D01*
X137624000Y-116188516D01*
X137624000Y-115981484D01*
X137664389Y-115778436D01*
X137743615Y-115587167D01*
X137858635Y-115415027D01*
X138005027Y-115268635D01*
X138177165Y-115153616D01*
X138177167Y-115153615D01*
X138368436Y-115074389D01*
X138571484Y-115034000D01*
X138778516Y-115034000D01*
X138981564Y-115074389D01*
G37*
G36*
X143911564Y-115074389D02*
G01*
X144102833Y-115153615D01*
X144102835Y-115153616D01*
X144274973Y-115268635D01*
X144421365Y-115415027D01*
X144536385Y-115587167D01*
X144615611Y-115778436D01*
X144656000Y-115981484D01*
X144656000Y-116188516D01*
X144615611Y-116391564D01*
X144559166Y-116527835D01*
X144536384Y-116582835D01*
X144421365Y-116754973D01*
X144274973Y-116901365D01*
X144102835Y-117016384D01*
X144102834Y-117016385D01*
X144102833Y-117016385D01*
X143911564Y-117095611D01*
X143708516Y-117136000D01*
X143501484Y-117136000D01*
X143298436Y-117095611D01*
X143107167Y-117016385D01*
X143107166Y-117016385D01*
X143107165Y-117016384D01*
X142935027Y-116901365D01*
X142788635Y-116754973D01*
X142673616Y-116582835D01*
X142650834Y-116527835D01*
X142594389Y-116391564D01*
X142554000Y-116188516D01*
X142554000Y-115981484D01*
X142594389Y-115778436D01*
X142673615Y-115587167D01*
X142788635Y-115415027D01*
X142935027Y-115268635D01*
X143107165Y-115153616D01*
X143107167Y-115153615D01*
X143298436Y-115074389D01*
X143501484Y-115034000D01*
X143708516Y-115034000D01*
X143911564Y-115074389D01*
G37*
G36*
X150411564Y-115074389D02*
G01*
X150602833Y-115153615D01*
X150602835Y-115153616D01*
X150774973Y-115268635D01*
X150921365Y-115415027D01*
X151036385Y-115587167D01*
X151115611Y-115778436D01*
X151156000Y-115981484D01*
X151156000Y-116188516D01*
X151115611Y-116391564D01*
X151059166Y-116527835D01*
X151036384Y-116582835D01*
X150921365Y-116754973D01*
X150774973Y-116901365D01*
X150602835Y-117016384D01*
X150602834Y-117016385D01*
X150602833Y-117016385D01*
X150411564Y-117095611D01*
X150208516Y-117136000D01*
X150001484Y-117136000D01*
X149798436Y-117095611D01*
X149607167Y-117016385D01*
X149607166Y-117016385D01*
X149607165Y-117016384D01*
X149435027Y-116901365D01*
X149288635Y-116754973D01*
X149173616Y-116582835D01*
X149150834Y-116527835D01*
X149094389Y-116391564D01*
X149054000Y-116188516D01*
X149054000Y-115981484D01*
X149094389Y-115778436D01*
X149173615Y-115587167D01*
X149288635Y-115415027D01*
X149435027Y-115268635D01*
X149607165Y-115153616D01*
X149607167Y-115153615D01*
X149798436Y-115074389D01*
X150001484Y-115034000D01*
X150208516Y-115034000D01*
X150411564Y-115074389D01*
G37*
G36*
X212481564Y-115074389D02*
G01*
X212672833Y-115153615D01*
X212672835Y-115153616D01*
X212844973Y-115268635D01*
X212991365Y-115415027D01*
X213106385Y-115587167D01*
X213185611Y-115778436D01*
X213226000Y-115981484D01*
X213226000Y-116188516D01*
X213185611Y-116391564D01*
X213129166Y-116527835D01*
X213106384Y-116582835D01*
X212991365Y-116754973D01*
X212844973Y-116901365D01*
X212672835Y-117016384D01*
X212672834Y-117016385D01*
X212672833Y-117016385D01*
X212481564Y-117095611D01*
X212278516Y-117136000D01*
X212071484Y-117136000D01*
X211868436Y-117095611D01*
X211677167Y-117016385D01*
X211677166Y-117016385D01*
X211677165Y-117016384D01*
X211505027Y-116901365D01*
X211358635Y-116754973D01*
X211243616Y-116582835D01*
X211220834Y-116527835D01*
X211164389Y-116391564D01*
X211124000Y-116188516D01*
X211124000Y-115981484D01*
X211164389Y-115778436D01*
X211243615Y-115587167D01*
X211358635Y-115415027D01*
X211505027Y-115268635D01*
X211677165Y-115153616D01*
X211677167Y-115153615D01*
X211868436Y-115074389D01*
X212071484Y-115034000D01*
X212278516Y-115034000D01*
X212481564Y-115074389D01*
G37*
G36*
X106256564Y-115019389D02*
G01*
X106447833Y-115098615D01*
X106447835Y-115098616D01*
X106530147Y-115153615D01*
X106619973Y-115213635D01*
X106766365Y-115360027D01*
X106881385Y-115532167D01*
X106960611Y-115723436D01*
X107001000Y-115926484D01*
X107001000Y-116133516D01*
X106960611Y-116336564D01*
X106881385Y-116527833D01*
X106881384Y-116527835D01*
X106766365Y-116699973D01*
X106619973Y-116846365D01*
X106447835Y-116961384D01*
X106447834Y-116961385D01*
X106447833Y-116961385D01*
X106256564Y-117040611D01*
X106053516Y-117081000D01*
X105846484Y-117081000D01*
X105643436Y-117040611D01*
X105452167Y-116961385D01*
X105452166Y-116961385D01*
X105452165Y-116961384D01*
X105280027Y-116846365D01*
X105133635Y-116699973D01*
X105018616Y-116527835D01*
X105018615Y-116527833D01*
X104939389Y-116336564D01*
X104899000Y-116133516D01*
X104899000Y-115926484D01*
X104939389Y-115723436D01*
X105018615Y-115532167D01*
X105133635Y-115360027D01*
X105280027Y-115213635D01*
X105369853Y-115153615D01*
X105452165Y-115098616D01*
X105452167Y-115098615D01*
X105643436Y-115019389D01*
X105846484Y-114979000D01*
X106053516Y-114979000D01*
X106256564Y-115019389D01*
G37*
G36*
X99756564Y-115019389D02*
G01*
X99947833Y-115098615D01*
X99947835Y-115098616D01*
X100030147Y-115153615D01*
X100119973Y-115213635D01*
X100266365Y-115360027D01*
X100381385Y-115532167D01*
X100460611Y-115723436D01*
X100501000Y-115926484D01*
X100501000Y-116133516D01*
X100460611Y-116336564D01*
X100381385Y-116527833D01*
X100381384Y-116527835D01*
X100266365Y-116699973D01*
X100119973Y-116846365D01*
X99947835Y-116961384D01*
X99947834Y-116961385D01*
X99947833Y-116961385D01*
X99756564Y-117040611D01*
X99553516Y-117081000D01*
X99346484Y-117081000D01*
X99143436Y-117040611D01*
X98952167Y-116961385D01*
X98952166Y-116961385D01*
X98952165Y-116961384D01*
X98780027Y-116846365D01*
X98633635Y-116699973D01*
X98518616Y-116527835D01*
X98518615Y-116527833D01*
X98439389Y-116336564D01*
X98399000Y-116133516D01*
X98399000Y-115926484D01*
X98439389Y-115723436D01*
X98518615Y-115532167D01*
X98633635Y-115360027D01*
X98780027Y-115213635D01*
X98869853Y-115153615D01*
X98952165Y-115098616D01*
X98952167Y-115098615D01*
X99143436Y-115019389D01*
X99346484Y-114979000D01*
X99553516Y-114979000D01*
X99756564Y-115019389D01*
G37*
G36*
X187106564Y-110574389D02*
G01*
X187297833Y-110653615D01*
X187297835Y-110653616D01*
X187469973Y-110768635D01*
X187616365Y-110915027D01*
X187731385Y-111087167D01*
X187810611Y-111278436D01*
X187851000Y-111481484D01*
X187851000Y-111688516D01*
X187810611Y-111891564D01*
X187754166Y-112027835D01*
X187731384Y-112082835D01*
X187616365Y-112254973D01*
X187469973Y-112401365D01*
X187297835Y-112516384D01*
X187297834Y-112516385D01*
X187297833Y-112516385D01*
X187106564Y-112595611D01*
X186903516Y-112636000D01*
X186696484Y-112636000D01*
X186493436Y-112595611D01*
X186302167Y-112516385D01*
X186302166Y-112516385D01*
X186302165Y-112516384D01*
X186130027Y-112401365D01*
X185983635Y-112254973D01*
X185868616Y-112082835D01*
X185845834Y-112027835D01*
X185789389Y-111891564D01*
X185749000Y-111688516D01*
X185749000Y-111481484D01*
X185789389Y-111278436D01*
X185868615Y-111087167D01*
X185983635Y-110915027D01*
X186130027Y-110768635D01*
X186302165Y-110653616D01*
X186302167Y-110653615D01*
X186493436Y-110574389D01*
X186696484Y-110534000D01*
X186903516Y-110534000D01*
X187106564Y-110574389D01*
G37*
G36*
X212481564Y-110574389D02*
G01*
X212672833Y-110653615D01*
X212672835Y-110653616D01*
X212844973Y-110768635D01*
X212991365Y-110915027D01*
X213106385Y-111087167D01*
X213185611Y-111278436D01*
X213226000Y-111481484D01*
X213226000Y-111688516D01*
X213185611Y-111891564D01*
X213129166Y-112027835D01*
X213106384Y-112082835D01*
X212991365Y-112254973D01*
X212844973Y-112401365D01*
X212672835Y-112516384D01*
X212672834Y-112516385D01*
X212672833Y-112516385D01*
X212481564Y-112595611D01*
X212278516Y-112636000D01*
X212071484Y-112636000D01*
X211868436Y-112595611D01*
X211677167Y-112516385D01*
X211677166Y-112516385D01*
X211677165Y-112516384D01*
X211505027Y-112401365D01*
X211358635Y-112254973D01*
X211243616Y-112082835D01*
X211220834Y-112027835D01*
X211164389Y-111891564D01*
X211124000Y-111688516D01*
X211124000Y-111481484D01*
X211164389Y-111278436D01*
X211243615Y-111087167D01*
X211358635Y-110915027D01*
X211505027Y-110768635D01*
X211677165Y-110653616D01*
X211677167Y-110653615D01*
X211868436Y-110574389D01*
X212071484Y-110534000D01*
X212278516Y-110534000D01*
X212481564Y-110574389D01*
G37*
G36*
X205981564Y-110574389D02*
G01*
X206172833Y-110653615D01*
X206172835Y-110653616D01*
X206344973Y-110768635D01*
X206491365Y-110915027D01*
X206606385Y-111087167D01*
X206685611Y-111278436D01*
X206726000Y-111481484D01*
X206726000Y-111688516D01*
X206685611Y-111891564D01*
X206629166Y-112027835D01*
X206606384Y-112082835D01*
X206491365Y-112254973D01*
X206344973Y-112401365D01*
X206172835Y-112516384D01*
X206172834Y-112516385D01*
X206172833Y-112516385D01*
X205981564Y-112595611D01*
X205778516Y-112636000D01*
X205571484Y-112636000D01*
X205368436Y-112595611D01*
X205177167Y-112516385D01*
X205177166Y-112516385D01*
X205177165Y-112516384D01*
X205005027Y-112401365D01*
X204858635Y-112254973D01*
X204743616Y-112082835D01*
X204720834Y-112027835D01*
X204664389Y-111891564D01*
X204624000Y-111688516D01*
X204624000Y-111481484D01*
X204664389Y-111278436D01*
X204743615Y-111087167D01*
X204858635Y-110915027D01*
X205005027Y-110768635D01*
X205177165Y-110653616D01*
X205177167Y-110653615D01*
X205368436Y-110574389D01*
X205571484Y-110534000D01*
X205778516Y-110534000D01*
X205981564Y-110574389D01*
G37*
G36*
X193606564Y-110574389D02*
G01*
X193797833Y-110653615D01*
X193797835Y-110653616D01*
X193969973Y-110768635D01*
X194116365Y-110915027D01*
X194231385Y-111087167D01*
X194310611Y-111278436D01*
X194351000Y-111481484D01*
X194351000Y-111688516D01*
X194310611Y-111891564D01*
X194254166Y-112027835D01*
X194231384Y-112082835D01*
X194116365Y-112254973D01*
X193969973Y-112401365D01*
X193797835Y-112516384D01*
X193797834Y-112516385D01*
X193797833Y-112516385D01*
X193606564Y-112595611D01*
X193403516Y-112636000D01*
X193196484Y-112636000D01*
X192993436Y-112595611D01*
X192802167Y-112516385D01*
X192802166Y-112516385D01*
X192802165Y-112516384D01*
X192630027Y-112401365D01*
X192483635Y-112254973D01*
X192368616Y-112082835D01*
X192345834Y-112027835D01*
X192289389Y-111891564D01*
X192249000Y-111688516D01*
X192249000Y-111481484D01*
X192289389Y-111278436D01*
X192368615Y-111087167D01*
X192483635Y-110915027D01*
X192630027Y-110768635D01*
X192802165Y-110653616D01*
X192802167Y-110653615D01*
X192993436Y-110574389D01*
X193196484Y-110534000D01*
X193403516Y-110534000D01*
X193606564Y-110574389D01*
G37*
G36*
X182176564Y-110574389D02*
G01*
X182367833Y-110653615D01*
X182367835Y-110653616D01*
X182539973Y-110768635D01*
X182686365Y-110915027D01*
X182801385Y-111087167D01*
X182880611Y-111278436D01*
X182921000Y-111481484D01*
X182921000Y-111688516D01*
X182880611Y-111891564D01*
X182824166Y-112027835D01*
X182801384Y-112082835D01*
X182686365Y-112254973D01*
X182539973Y-112401365D01*
X182367835Y-112516384D01*
X182367834Y-112516385D01*
X182367833Y-112516385D01*
X182176564Y-112595611D01*
X181973516Y-112636000D01*
X181766484Y-112636000D01*
X181563436Y-112595611D01*
X181372167Y-112516385D01*
X181372166Y-112516385D01*
X181372165Y-112516384D01*
X181200027Y-112401365D01*
X181053635Y-112254973D01*
X180938616Y-112082835D01*
X180915834Y-112027835D01*
X180859389Y-111891564D01*
X180819000Y-111688516D01*
X180819000Y-111481484D01*
X180859389Y-111278436D01*
X180938615Y-111087167D01*
X181053635Y-110915027D01*
X181200027Y-110768635D01*
X181372165Y-110653616D01*
X181372167Y-110653615D01*
X181563436Y-110574389D01*
X181766484Y-110534000D01*
X181973516Y-110534000D01*
X182176564Y-110574389D01*
G37*
G36*
X175676564Y-110574389D02*
G01*
X175867833Y-110653615D01*
X175867835Y-110653616D01*
X176039973Y-110768635D01*
X176186365Y-110915027D01*
X176301385Y-111087167D01*
X176380611Y-111278436D01*
X176421000Y-111481484D01*
X176421000Y-111688516D01*
X176380611Y-111891564D01*
X176324166Y-112027835D01*
X176301384Y-112082835D01*
X176186365Y-112254973D01*
X176039973Y-112401365D01*
X175867835Y-112516384D01*
X175867834Y-112516385D01*
X175867833Y-112516385D01*
X175676564Y-112595611D01*
X175473516Y-112636000D01*
X175266484Y-112636000D01*
X175063436Y-112595611D01*
X174872167Y-112516385D01*
X174872166Y-112516385D01*
X174872165Y-112516384D01*
X174700027Y-112401365D01*
X174553635Y-112254973D01*
X174438616Y-112082835D01*
X174415834Y-112027835D01*
X174359389Y-111891564D01*
X174319000Y-111688516D01*
X174319000Y-111481484D01*
X174359389Y-111278436D01*
X174438615Y-111087167D01*
X174553635Y-110915027D01*
X174700027Y-110768635D01*
X174872165Y-110653616D01*
X174872167Y-110653615D01*
X175063436Y-110574389D01*
X175266484Y-110534000D01*
X175473516Y-110534000D01*
X175676564Y-110574389D01*
G37*
G36*
X143911564Y-110574389D02*
G01*
X144102833Y-110653615D01*
X144102835Y-110653616D01*
X144274973Y-110768635D01*
X144421365Y-110915027D01*
X144536385Y-111087167D01*
X144615611Y-111278436D01*
X144656000Y-111481484D01*
X144656000Y-111688516D01*
X144615611Y-111891564D01*
X144559166Y-112027835D01*
X144536384Y-112082835D01*
X144421365Y-112254973D01*
X144274973Y-112401365D01*
X144102835Y-112516384D01*
X144102834Y-112516385D01*
X144102833Y-112516385D01*
X143911564Y-112595611D01*
X143708516Y-112636000D01*
X143501484Y-112636000D01*
X143298436Y-112595611D01*
X143107167Y-112516385D01*
X143107166Y-112516385D01*
X143107165Y-112516384D01*
X142935027Y-112401365D01*
X142788635Y-112254973D01*
X142673616Y-112082835D01*
X142650834Y-112027835D01*
X142594389Y-111891564D01*
X142554000Y-111688516D01*
X142554000Y-111481484D01*
X142594389Y-111278436D01*
X142673615Y-111087167D01*
X142788635Y-110915027D01*
X142935027Y-110768635D01*
X143107165Y-110653616D01*
X143107167Y-110653615D01*
X143298436Y-110574389D01*
X143501484Y-110534000D01*
X143708516Y-110534000D01*
X143911564Y-110574389D01*
G37*
G36*
X150411564Y-110574389D02*
G01*
X150602833Y-110653615D01*
X150602835Y-110653616D01*
X150774973Y-110768635D01*
X150921365Y-110915027D01*
X151036385Y-111087167D01*
X151115611Y-111278436D01*
X151156000Y-111481484D01*
X151156000Y-111688516D01*
X151115611Y-111891564D01*
X151059166Y-112027835D01*
X151036384Y-112082835D01*
X150921365Y-112254973D01*
X150774973Y-112401365D01*
X150602835Y-112516384D01*
X150602834Y-112516385D01*
X150602833Y-112516385D01*
X150411564Y-112595611D01*
X150208516Y-112636000D01*
X150001484Y-112636000D01*
X149798436Y-112595611D01*
X149607167Y-112516385D01*
X149607166Y-112516385D01*
X149607165Y-112516384D01*
X149435027Y-112401365D01*
X149288635Y-112254973D01*
X149173616Y-112082835D01*
X149150834Y-112027835D01*
X149094389Y-111891564D01*
X149054000Y-111688516D01*
X149054000Y-111481484D01*
X149094389Y-111278436D01*
X149173615Y-111087167D01*
X149288635Y-110915027D01*
X149435027Y-110768635D01*
X149607165Y-110653616D01*
X149607167Y-110653615D01*
X149798436Y-110574389D01*
X150001484Y-110534000D01*
X150208516Y-110534000D01*
X150411564Y-110574389D01*
G37*
G36*
X121051564Y-110574389D02*
G01*
X121242833Y-110653615D01*
X121242835Y-110653616D01*
X121414973Y-110768635D01*
X121561365Y-110915027D01*
X121676385Y-111087167D01*
X121755611Y-111278436D01*
X121796000Y-111481484D01*
X121796000Y-111688516D01*
X121755611Y-111891564D01*
X121699166Y-112027835D01*
X121676384Y-112082835D01*
X121561365Y-112254973D01*
X121414973Y-112401365D01*
X121242835Y-112516384D01*
X121242834Y-112516385D01*
X121242833Y-112516385D01*
X121051564Y-112595611D01*
X120848516Y-112636000D01*
X120641484Y-112636000D01*
X120438436Y-112595611D01*
X120247167Y-112516385D01*
X120247166Y-112516385D01*
X120247165Y-112516384D01*
X120075027Y-112401365D01*
X119928635Y-112254973D01*
X119813616Y-112082835D01*
X119790834Y-112027835D01*
X119734389Y-111891564D01*
X119694000Y-111688516D01*
X119694000Y-111481484D01*
X119734389Y-111278436D01*
X119813615Y-111087167D01*
X119928635Y-110915027D01*
X120075027Y-110768635D01*
X120247165Y-110653616D01*
X120247167Y-110653615D01*
X120438436Y-110574389D01*
X120641484Y-110534000D01*
X120848516Y-110534000D01*
X121051564Y-110574389D01*
G37*
G36*
X127551564Y-110574389D02*
G01*
X127742833Y-110653615D01*
X127742835Y-110653616D01*
X127914973Y-110768635D01*
X128061365Y-110915027D01*
X128176385Y-111087167D01*
X128255611Y-111278436D01*
X128296000Y-111481484D01*
X128296000Y-111688516D01*
X128255611Y-111891564D01*
X128199166Y-112027835D01*
X128176384Y-112082835D01*
X128061365Y-112254973D01*
X127914973Y-112401365D01*
X127742835Y-112516384D01*
X127742834Y-112516385D01*
X127742833Y-112516385D01*
X127551564Y-112595611D01*
X127348516Y-112636000D01*
X127141484Y-112636000D01*
X126938436Y-112595611D01*
X126747167Y-112516385D01*
X126747166Y-112516385D01*
X126747165Y-112516384D01*
X126575027Y-112401365D01*
X126428635Y-112254973D01*
X126313616Y-112082835D01*
X126290834Y-112027835D01*
X126234389Y-111891564D01*
X126194000Y-111688516D01*
X126194000Y-111481484D01*
X126234389Y-111278436D01*
X126313615Y-111087167D01*
X126428635Y-110915027D01*
X126575027Y-110768635D01*
X126747165Y-110653616D01*
X126747167Y-110653615D01*
X126938436Y-110574389D01*
X127141484Y-110534000D01*
X127348516Y-110534000D01*
X127551564Y-110574389D01*
G37*
G36*
X132481564Y-110574389D02*
G01*
X132672833Y-110653615D01*
X132672835Y-110653616D01*
X132844973Y-110768635D01*
X132991365Y-110915027D01*
X133106385Y-111087167D01*
X133185611Y-111278436D01*
X133226000Y-111481484D01*
X133226000Y-111688516D01*
X133185611Y-111891564D01*
X133129166Y-112027835D01*
X133106384Y-112082835D01*
X132991365Y-112254973D01*
X132844973Y-112401365D01*
X132672835Y-112516384D01*
X132672834Y-112516385D01*
X132672833Y-112516385D01*
X132481564Y-112595611D01*
X132278516Y-112636000D01*
X132071484Y-112636000D01*
X131868436Y-112595611D01*
X131677167Y-112516385D01*
X131677166Y-112516385D01*
X131677165Y-112516384D01*
X131505027Y-112401365D01*
X131358635Y-112254973D01*
X131243616Y-112082835D01*
X131220834Y-112027835D01*
X131164389Y-111891564D01*
X131124000Y-111688516D01*
X131124000Y-111481484D01*
X131164389Y-111278436D01*
X131243615Y-111087167D01*
X131358635Y-110915027D01*
X131505027Y-110768635D01*
X131677165Y-110653616D01*
X131677167Y-110653615D01*
X131868436Y-110574389D01*
X132071484Y-110534000D01*
X132278516Y-110534000D01*
X132481564Y-110574389D01*
G37*
G36*
X138981564Y-110574389D02*
G01*
X139172833Y-110653615D01*
X139172835Y-110653616D01*
X139344973Y-110768635D01*
X139491365Y-110915027D01*
X139606385Y-111087167D01*
X139685611Y-111278436D01*
X139726000Y-111481484D01*
X139726000Y-111688516D01*
X139685611Y-111891564D01*
X139629166Y-112027835D01*
X139606384Y-112082835D01*
X139491365Y-112254973D01*
X139344973Y-112401365D01*
X139172835Y-112516384D01*
X139172834Y-112516385D01*
X139172833Y-112516385D01*
X138981564Y-112595611D01*
X138778516Y-112636000D01*
X138571484Y-112636000D01*
X138368436Y-112595611D01*
X138177167Y-112516385D01*
X138177166Y-112516385D01*
X138177165Y-112516384D01*
X138005027Y-112401365D01*
X137858635Y-112254973D01*
X137743616Y-112082835D01*
X137720834Y-112027835D01*
X137664389Y-111891564D01*
X137624000Y-111688516D01*
X137624000Y-111481484D01*
X137664389Y-111278436D01*
X137743615Y-111087167D01*
X137858635Y-110915027D01*
X138005027Y-110768635D01*
X138177165Y-110653616D01*
X138177167Y-110653615D01*
X138368436Y-110574389D01*
X138571484Y-110534000D01*
X138778516Y-110534000D01*
X138981564Y-110574389D01*
G37*
G36*
X99756564Y-110519389D02*
G01*
X99947833Y-110598615D01*
X99947835Y-110598616D01*
X100030147Y-110653615D01*
X100119973Y-110713635D01*
X100266365Y-110860027D01*
X100381385Y-111032167D01*
X100460611Y-111223436D01*
X100501000Y-111426484D01*
X100501000Y-111633516D01*
X100460611Y-111836564D01*
X100381385Y-112027833D01*
X100381384Y-112027835D01*
X100266365Y-112199973D01*
X100119973Y-112346365D01*
X99947835Y-112461384D01*
X99947834Y-112461385D01*
X99947833Y-112461385D01*
X99756564Y-112540611D01*
X99553516Y-112581000D01*
X99346484Y-112581000D01*
X99143436Y-112540611D01*
X98952167Y-112461385D01*
X98952166Y-112461385D01*
X98952165Y-112461384D01*
X98780027Y-112346365D01*
X98633635Y-112199973D01*
X98518616Y-112027835D01*
X98518615Y-112027833D01*
X98439389Y-111836564D01*
X98399000Y-111633516D01*
X98399000Y-111426484D01*
X98439389Y-111223436D01*
X98518615Y-111032167D01*
X98633635Y-110860027D01*
X98780027Y-110713635D01*
X98869853Y-110653615D01*
X98952165Y-110598616D01*
X98952167Y-110598615D01*
X99143436Y-110519389D01*
X99346484Y-110479000D01*
X99553516Y-110479000D01*
X99756564Y-110519389D01*
G37*
G36*
X106256564Y-110519389D02*
G01*
X106447833Y-110598615D01*
X106447835Y-110598616D01*
X106530147Y-110653615D01*
X106619973Y-110713635D01*
X106766365Y-110860027D01*
X106881385Y-111032167D01*
X106960611Y-111223436D01*
X107001000Y-111426484D01*
X107001000Y-111633516D01*
X106960611Y-111836564D01*
X106881385Y-112027833D01*
X106881384Y-112027835D01*
X106766365Y-112199973D01*
X106619973Y-112346365D01*
X106447835Y-112461384D01*
X106447834Y-112461385D01*
X106447833Y-112461385D01*
X106256564Y-112540611D01*
X106053516Y-112581000D01*
X105846484Y-112581000D01*
X105643436Y-112540611D01*
X105452167Y-112461385D01*
X105452166Y-112461385D01*
X105452165Y-112461384D01*
X105280027Y-112346365D01*
X105133635Y-112199973D01*
X105018616Y-112027835D01*
X105018615Y-112027833D01*
X104939389Y-111836564D01*
X104899000Y-111633516D01*
X104899000Y-111426484D01*
X104939389Y-111223436D01*
X105018615Y-111032167D01*
X105133635Y-110860027D01*
X105280027Y-110713635D01*
X105369853Y-110653615D01*
X105452165Y-110598616D01*
X105452167Y-110598615D01*
X105643436Y-110519389D01*
X105846484Y-110479000D01*
X106053516Y-110479000D01*
X106256564Y-110519389D01*
G37*
G36*
X100056564Y-105549389D02*
G01*
X100247833Y-105628615D01*
X100247835Y-105628616D01*
X100419973Y-105743635D01*
X100566365Y-105890027D01*
X100681385Y-106062167D01*
X100760611Y-106253436D01*
X100801000Y-106456484D01*
X100801000Y-106663516D01*
X100760611Y-106866564D01*
X100681385Y-107057833D01*
X100681384Y-107057835D01*
X100566365Y-107229973D01*
X100419973Y-107376365D01*
X100247835Y-107491384D01*
X100247834Y-107491385D01*
X100247833Y-107491385D01*
X100056564Y-107570611D01*
X99853516Y-107611000D01*
X99646484Y-107611000D01*
X99443436Y-107570611D01*
X99252167Y-107491385D01*
X99252166Y-107491385D01*
X99252165Y-107491384D01*
X99080027Y-107376365D01*
X98933635Y-107229973D01*
X98818616Y-107057835D01*
X98818615Y-107057833D01*
X98739389Y-106866564D01*
X98699000Y-106663516D01*
X98699000Y-106456484D01*
X98739389Y-106253436D01*
X98818615Y-106062167D01*
X98933635Y-105890027D01*
X99080027Y-105743635D01*
X99252165Y-105628616D01*
X99252167Y-105628615D01*
X99443436Y-105549389D01*
X99646484Y-105509000D01*
X99853516Y-105509000D01*
X100056564Y-105549389D01*
G37*
G36*
X126766564Y-105549389D02*
G01*
X126957833Y-105628615D01*
X126957835Y-105628616D01*
X127129973Y-105743635D01*
X127276365Y-105890027D01*
X127391385Y-106062167D01*
X127470611Y-106253436D01*
X127511000Y-106456484D01*
X127511000Y-106663516D01*
X127470611Y-106866564D01*
X127391385Y-107057833D01*
X127391384Y-107057835D01*
X127276365Y-107229973D01*
X127129973Y-107376365D01*
X126957835Y-107491384D01*
X126957834Y-107491385D01*
X126957833Y-107491385D01*
X126766564Y-107570611D01*
X126563516Y-107611000D01*
X126356484Y-107611000D01*
X126153436Y-107570611D01*
X125962167Y-107491385D01*
X125962166Y-107491385D01*
X125962165Y-107491384D01*
X125790027Y-107376365D01*
X125643635Y-107229973D01*
X125528616Y-107057835D01*
X125528615Y-107057833D01*
X125449389Y-106866564D01*
X125409000Y-106663516D01*
X125409000Y-106456484D01*
X125449389Y-106253436D01*
X125528615Y-106062167D01*
X125643635Y-105890027D01*
X125790027Y-105743635D01*
X125962165Y-105628616D01*
X125962167Y-105628615D01*
X126153436Y-105549389D01*
X126356484Y-105509000D01*
X126563516Y-105509000D01*
X126766564Y-105549389D01*
G37*
G36*
X93556564Y-105549389D02*
G01*
X93747833Y-105628615D01*
X93747835Y-105628616D01*
X93919973Y-105743635D01*
X94066365Y-105890027D01*
X94181385Y-106062167D01*
X94260611Y-106253436D01*
X94301000Y-106456484D01*
X94301000Y-106663516D01*
X94260611Y-106866564D01*
X94181385Y-107057833D01*
X94181384Y-107057835D01*
X94066365Y-107229973D01*
X93919973Y-107376365D01*
X93747835Y-107491384D01*
X93747834Y-107491385D01*
X93747833Y-107491385D01*
X93556564Y-107570611D01*
X93353516Y-107611000D01*
X93146484Y-107611000D01*
X92943436Y-107570611D01*
X92752167Y-107491385D01*
X92752166Y-107491385D01*
X92752165Y-107491384D01*
X92580027Y-107376365D01*
X92433635Y-107229973D01*
X92318616Y-107057835D01*
X92318615Y-107057833D01*
X92239389Y-106866564D01*
X92199000Y-106663516D01*
X92199000Y-106456484D01*
X92239389Y-106253436D01*
X92318615Y-106062167D01*
X92433635Y-105890027D01*
X92580027Y-105743635D01*
X92752165Y-105628616D01*
X92752167Y-105628615D01*
X92943436Y-105549389D01*
X93146484Y-105509000D01*
X93353516Y-105509000D01*
X93556564Y-105549389D01*
G37*
G36*
X104986564Y-105549389D02*
G01*
X105177833Y-105628615D01*
X105177835Y-105628616D01*
X105349973Y-105743635D01*
X105496365Y-105890027D01*
X105611385Y-106062167D01*
X105690611Y-106253436D01*
X105731000Y-106456484D01*
X105731000Y-106663516D01*
X105690611Y-106866564D01*
X105611385Y-107057833D01*
X105611384Y-107057835D01*
X105496365Y-107229973D01*
X105349973Y-107376365D01*
X105177835Y-107491384D01*
X105177834Y-107491385D01*
X105177833Y-107491385D01*
X104986564Y-107570611D01*
X104783516Y-107611000D01*
X104576484Y-107611000D01*
X104373436Y-107570611D01*
X104182167Y-107491385D01*
X104182166Y-107491385D01*
X104182165Y-107491384D01*
X104010027Y-107376365D01*
X103863635Y-107229973D01*
X103748616Y-107057835D01*
X103748615Y-107057833D01*
X103669389Y-106866564D01*
X103629000Y-106663516D01*
X103629000Y-106456484D01*
X103669389Y-106253436D01*
X103748615Y-106062167D01*
X103863635Y-105890027D01*
X104010027Y-105743635D01*
X104182165Y-105628616D01*
X104182167Y-105628615D01*
X104373436Y-105549389D01*
X104576484Y-105509000D01*
X104783516Y-105509000D01*
X104986564Y-105549389D01*
G37*
G36*
X111486564Y-105549389D02*
G01*
X111677833Y-105628615D01*
X111677835Y-105628616D01*
X111849973Y-105743635D01*
X111996365Y-105890027D01*
X112111385Y-106062167D01*
X112190611Y-106253436D01*
X112231000Y-106456484D01*
X112231000Y-106663516D01*
X112190611Y-106866564D01*
X112111385Y-107057833D01*
X112111384Y-107057835D01*
X111996365Y-107229973D01*
X111849973Y-107376365D01*
X111677835Y-107491384D01*
X111677834Y-107491385D01*
X111677833Y-107491385D01*
X111486564Y-107570611D01*
X111283516Y-107611000D01*
X111076484Y-107611000D01*
X110873436Y-107570611D01*
X110682167Y-107491385D01*
X110682166Y-107491385D01*
X110682165Y-107491384D01*
X110510027Y-107376365D01*
X110363635Y-107229973D01*
X110248616Y-107057835D01*
X110248615Y-107057833D01*
X110169389Y-106866564D01*
X110129000Y-106663516D01*
X110129000Y-106456484D01*
X110169389Y-106253436D01*
X110248615Y-106062167D01*
X110363635Y-105890027D01*
X110510027Y-105743635D01*
X110682165Y-105628616D01*
X110682167Y-105628615D01*
X110873436Y-105549389D01*
X111076484Y-105509000D01*
X111283516Y-105509000D01*
X111486564Y-105549389D01*
G37*
G36*
X187891564Y-105549389D02*
G01*
X188082833Y-105628615D01*
X188082835Y-105628616D01*
X188254973Y-105743635D01*
X188401365Y-105890027D01*
X188516385Y-106062167D01*
X188595611Y-106253436D01*
X188636000Y-106456484D01*
X188636000Y-106663516D01*
X188595611Y-106866564D01*
X188516385Y-107057833D01*
X188516384Y-107057835D01*
X188401365Y-107229973D01*
X188254973Y-107376365D01*
X188082835Y-107491384D01*
X188082834Y-107491385D01*
X188082833Y-107491385D01*
X187891564Y-107570611D01*
X187688516Y-107611000D01*
X187481484Y-107611000D01*
X187278436Y-107570611D01*
X187087167Y-107491385D01*
X187087166Y-107491385D01*
X187087165Y-107491384D01*
X186915027Y-107376365D01*
X186768635Y-107229973D01*
X186653616Y-107057835D01*
X186653615Y-107057833D01*
X186574389Y-106866564D01*
X186534000Y-106663516D01*
X186534000Y-106456484D01*
X186574389Y-106253436D01*
X186653615Y-106062167D01*
X186768635Y-105890027D01*
X186915027Y-105743635D01*
X187087165Y-105628616D01*
X187087167Y-105628615D01*
X187278436Y-105549389D01*
X187481484Y-105509000D01*
X187688516Y-105509000D01*
X187891564Y-105549389D01*
G37*
G36*
X176461564Y-105549389D02*
G01*
X176652833Y-105628615D01*
X176652835Y-105628616D01*
X176824973Y-105743635D01*
X176971365Y-105890027D01*
X177086385Y-106062167D01*
X177165611Y-106253436D01*
X177206000Y-106456484D01*
X177206000Y-106663516D01*
X177165611Y-106866564D01*
X177086385Y-107057833D01*
X177086384Y-107057835D01*
X176971365Y-107229973D01*
X176824973Y-107376365D01*
X176652835Y-107491384D01*
X176652834Y-107491385D01*
X176652833Y-107491385D01*
X176461564Y-107570611D01*
X176258516Y-107611000D01*
X176051484Y-107611000D01*
X175848436Y-107570611D01*
X175657167Y-107491385D01*
X175657166Y-107491385D01*
X175657165Y-107491384D01*
X175485027Y-107376365D01*
X175338635Y-107229973D01*
X175223616Y-107057835D01*
X175223615Y-107057833D01*
X175144389Y-106866564D01*
X175104000Y-106663516D01*
X175104000Y-106456484D01*
X175144389Y-106253436D01*
X175223615Y-106062167D01*
X175338635Y-105890027D01*
X175485027Y-105743635D01*
X175657165Y-105628616D01*
X175657167Y-105628615D01*
X175848436Y-105549389D01*
X176051484Y-105509000D01*
X176258516Y-105509000D01*
X176461564Y-105549389D01*
G37*
G36*
X155976564Y-105549389D02*
G01*
X156167833Y-105628615D01*
X156167835Y-105628616D01*
X156339973Y-105743635D01*
X156486365Y-105890027D01*
X156601385Y-106062167D01*
X156680611Y-106253436D01*
X156721000Y-106456484D01*
X156721000Y-106663516D01*
X156680611Y-106866564D01*
X156601385Y-107057833D01*
X156601384Y-107057835D01*
X156486365Y-107229973D01*
X156339973Y-107376365D01*
X156167835Y-107491384D01*
X156167834Y-107491385D01*
X156167833Y-107491385D01*
X155976564Y-107570611D01*
X155773516Y-107611000D01*
X155566484Y-107611000D01*
X155363436Y-107570611D01*
X155172167Y-107491385D01*
X155172166Y-107491385D01*
X155172165Y-107491384D01*
X155000027Y-107376365D01*
X154853635Y-107229973D01*
X154738616Y-107057835D01*
X154738615Y-107057833D01*
X154659389Y-106866564D01*
X154619000Y-106663516D01*
X154619000Y-106456484D01*
X154659389Y-106253436D01*
X154738615Y-106062167D01*
X154853635Y-105890027D01*
X155000027Y-105743635D01*
X155172165Y-105628616D01*
X155172167Y-105628615D01*
X155363436Y-105549389D01*
X155566484Y-105509000D01*
X155773516Y-105509000D01*
X155976564Y-105549389D01*
G37*
G36*
X149476564Y-105549389D02*
G01*
X149667833Y-105628615D01*
X149667835Y-105628616D01*
X149839973Y-105743635D01*
X149986365Y-105890027D01*
X150101385Y-106062167D01*
X150180611Y-106253436D01*
X150221000Y-106456484D01*
X150221000Y-106663516D01*
X150180611Y-106866564D01*
X150101385Y-107057833D01*
X150101384Y-107057835D01*
X149986365Y-107229973D01*
X149839973Y-107376365D01*
X149667835Y-107491384D01*
X149667834Y-107491385D01*
X149667833Y-107491385D01*
X149476564Y-107570611D01*
X149273516Y-107611000D01*
X149066484Y-107611000D01*
X148863436Y-107570611D01*
X148672167Y-107491385D01*
X148672166Y-107491385D01*
X148672165Y-107491384D01*
X148500027Y-107376365D01*
X148353635Y-107229973D01*
X148238616Y-107057835D01*
X148238615Y-107057833D01*
X148159389Y-106866564D01*
X148119000Y-106663516D01*
X148119000Y-106456484D01*
X148159389Y-106253436D01*
X148238615Y-106062167D01*
X148353635Y-105890027D01*
X148500027Y-105743635D01*
X148672165Y-105628616D01*
X148672167Y-105628615D01*
X148863436Y-105549389D01*
X149066484Y-105509000D01*
X149273516Y-105509000D01*
X149476564Y-105549389D01*
G37*
G36*
X144696564Y-105549389D02*
G01*
X144887833Y-105628615D01*
X144887835Y-105628616D01*
X145059973Y-105743635D01*
X145206365Y-105890027D01*
X145321385Y-106062167D01*
X145400611Y-106253436D01*
X145441000Y-106456484D01*
X145441000Y-106663516D01*
X145400611Y-106866564D01*
X145321385Y-107057833D01*
X145321384Y-107057835D01*
X145206365Y-107229973D01*
X145059973Y-107376365D01*
X144887835Y-107491384D01*
X144887834Y-107491385D01*
X144887833Y-107491385D01*
X144696564Y-107570611D01*
X144493516Y-107611000D01*
X144286484Y-107611000D01*
X144083436Y-107570611D01*
X143892167Y-107491385D01*
X143892166Y-107491385D01*
X143892165Y-107491384D01*
X143720027Y-107376365D01*
X143573635Y-107229973D01*
X143458616Y-107057835D01*
X143458615Y-107057833D01*
X143379389Y-106866564D01*
X143339000Y-106663516D01*
X143339000Y-106456484D01*
X143379389Y-106253436D01*
X143458615Y-106062167D01*
X143573635Y-105890027D01*
X143720027Y-105743635D01*
X143892165Y-105628616D01*
X143892167Y-105628615D01*
X144083436Y-105549389D01*
X144286484Y-105509000D01*
X144493516Y-105509000D01*
X144696564Y-105549389D01*
G37*
G36*
X138196564Y-105549389D02*
G01*
X138387833Y-105628615D01*
X138387835Y-105628616D01*
X138559973Y-105743635D01*
X138706365Y-105890027D01*
X138821385Y-106062167D01*
X138900611Y-106253436D01*
X138941000Y-106456484D01*
X138941000Y-106663516D01*
X138900611Y-106866564D01*
X138821385Y-107057833D01*
X138821384Y-107057835D01*
X138706365Y-107229973D01*
X138559973Y-107376365D01*
X138387835Y-107491384D01*
X138387834Y-107491385D01*
X138387833Y-107491385D01*
X138196564Y-107570611D01*
X137993516Y-107611000D01*
X137786484Y-107611000D01*
X137583436Y-107570611D01*
X137392167Y-107491385D01*
X137392166Y-107491385D01*
X137392165Y-107491384D01*
X137220027Y-107376365D01*
X137073635Y-107229973D01*
X136958616Y-107057835D01*
X136958615Y-107057833D01*
X136879389Y-106866564D01*
X136839000Y-106663516D01*
X136839000Y-106456484D01*
X136879389Y-106253436D01*
X136958615Y-106062167D01*
X137073635Y-105890027D01*
X137220027Y-105743635D01*
X137392165Y-105628616D01*
X137392167Y-105628615D01*
X137583436Y-105549389D01*
X137786484Y-105509000D01*
X137993516Y-105509000D01*
X138196564Y-105549389D01*
G37*
G36*
X181391564Y-105549389D02*
G01*
X181582833Y-105628615D01*
X181582835Y-105628616D01*
X181754973Y-105743635D01*
X181901365Y-105890027D01*
X182016385Y-106062167D01*
X182095611Y-106253436D01*
X182136000Y-106456484D01*
X182136000Y-106663516D01*
X182095611Y-106866564D01*
X182016385Y-107057833D01*
X182016384Y-107057835D01*
X181901365Y-107229973D01*
X181754973Y-107376365D01*
X181582835Y-107491384D01*
X181582834Y-107491385D01*
X181582833Y-107491385D01*
X181391564Y-107570611D01*
X181188516Y-107611000D01*
X180981484Y-107611000D01*
X180778436Y-107570611D01*
X180587167Y-107491385D01*
X180587166Y-107491385D01*
X180587165Y-107491384D01*
X180415027Y-107376365D01*
X180268635Y-107229973D01*
X180153616Y-107057835D01*
X180153615Y-107057833D01*
X180074389Y-106866564D01*
X180034000Y-106663516D01*
X180034000Y-106456484D01*
X180074389Y-106253436D01*
X180153615Y-106062167D01*
X180268635Y-105890027D01*
X180415027Y-105743635D01*
X180587165Y-105628616D01*
X180587167Y-105628615D01*
X180778436Y-105549389D01*
X180981484Y-105509000D01*
X181188516Y-105509000D01*
X181391564Y-105549389D01*
G37*
G36*
X133266564Y-105549389D02*
G01*
X133457833Y-105628615D01*
X133457835Y-105628616D01*
X133629973Y-105743635D01*
X133776365Y-105890027D01*
X133891385Y-106062167D01*
X133970611Y-106253436D01*
X134011000Y-106456484D01*
X134011000Y-106663516D01*
X133970611Y-106866564D01*
X133891385Y-107057833D01*
X133891384Y-107057835D01*
X133776365Y-107229973D01*
X133629973Y-107376365D01*
X133457835Y-107491384D01*
X133457834Y-107491385D01*
X133457833Y-107491385D01*
X133266564Y-107570611D01*
X133063516Y-107611000D01*
X132856484Y-107611000D01*
X132653436Y-107570611D01*
X132462167Y-107491385D01*
X132462166Y-107491385D01*
X132462165Y-107491384D01*
X132290027Y-107376365D01*
X132143635Y-107229973D01*
X132028616Y-107057835D01*
X132028615Y-107057833D01*
X131949389Y-106866564D01*
X131909000Y-106663516D01*
X131909000Y-106456484D01*
X131949389Y-106253436D01*
X132028615Y-106062167D01*
X132143635Y-105890027D01*
X132290027Y-105743635D01*
X132462165Y-105628616D01*
X132462167Y-105628615D01*
X132653436Y-105549389D01*
X132856484Y-105509000D01*
X133063516Y-105509000D01*
X133266564Y-105549389D01*
G37*
G36*
X169961564Y-105549389D02*
G01*
X170152833Y-105628615D01*
X170152835Y-105628616D01*
X170324973Y-105743635D01*
X170471365Y-105890027D01*
X170586385Y-106062167D01*
X170665611Y-106253436D01*
X170706000Y-106456484D01*
X170706000Y-106663516D01*
X170665611Y-106866564D01*
X170586385Y-107057833D01*
X170586384Y-107057835D01*
X170471365Y-107229973D01*
X170324973Y-107376365D01*
X170152835Y-107491384D01*
X170152834Y-107491385D01*
X170152833Y-107491385D01*
X169961564Y-107570611D01*
X169758516Y-107611000D01*
X169551484Y-107611000D01*
X169348436Y-107570611D01*
X169157167Y-107491385D01*
X169157166Y-107491385D01*
X169157165Y-107491384D01*
X168985027Y-107376365D01*
X168838635Y-107229973D01*
X168723616Y-107057835D01*
X168723615Y-107057833D01*
X168644389Y-106866564D01*
X168604000Y-106663516D01*
X168604000Y-106456484D01*
X168644389Y-106253436D01*
X168723615Y-106062167D01*
X168838635Y-105890027D01*
X168985027Y-105743635D01*
X169157165Y-105628616D01*
X169157167Y-105628615D01*
X169348436Y-105549389D01*
X169551484Y-105509000D01*
X169758516Y-105509000D01*
X169961564Y-105549389D01*
G37*
G36*
X187891564Y-101049389D02*
G01*
X188082833Y-101128615D01*
X188082835Y-101128616D01*
X188254973Y-101243635D01*
X188401365Y-101390027D01*
X188516385Y-101562167D01*
X188595611Y-101753436D01*
X188636000Y-101956484D01*
X188636000Y-102163516D01*
X188595611Y-102366564D01*
X188516385Y-102557833D01*
X188516384Y-102557835D01*
X188401365Y-102729973D01*
X188254973Y-102876365D01*
X188082835Y-102991384D01*
X188082834Y-102991385D01*
X188082833Y-102991385D01*
X187891564Y-103070611D01*
X187688516Y-103111000D01*
X187481484Y-103111000D01*
X187278436Y-103070611D01*
X187087167Y-102991385D01*
X187087166Y-102991385D01*
X187087165Y-102991384D01*
X186915027Y-102876365D01*
X186768635Y-102729973D01*
X186653616Y-102557835D01*
X186653615Y-102557833D01*
X186574389Y-102366564D01*
X186534000Y-102163516D01*
X186534000Y-101956484D01*
X186574389Y-101753436D01*
X186653615Y-101562167D01*
X186768635Y-101390027D01*
X186915027Y-101243635D01*
X187087165Y-101128616D01*
X187087167Y-101128615D01*
X187278436Y-101049389D01*
X187481484Y-101009000D01*
X187688516Y-101009000D01*
X187891564Y-101049389D01*
G37*
G36*
X111486564Y-101049389D02*
G01*
X111677833Y-101128615D01*
X111677835Y-101128616D01*
X111849973Y-101243635D01*
X111996365Y-101390027D01*
X112111385Y-101562167D01*
X112190611Y-101753436D01*
X112231000Y-101956484D01*
X112231000Y-102163516D01*
X112190611Y-102366564D01*
X112111385Y-102557833D01*
X112111384Y-102557835D01*
X111996365Y-102729973D01*
X111849973Y-102876365D01*
X111677835Y-102991384D01*
X111677834Y-102991385D01*
X111677833Y-102991385D01*
X111486564Y-103070611D01*
X111283516Y-103111000D01*
X111076484Y-103111000D01*
X110873436Y-103070611D01*
X110682167Y-102991385D01*
X110682166Y-102991385D01*
X110682165Y-102991384D01*
X110510027Y-102876365D01*
X110363635Y-102729973D01*
X110248616Y-102557835D01*
X110248615Y-102557833D01*
X110169389Y-102366564D01*
X110129000Y-102163516D01*
X110129000Y-101956484D01*
X110169389Y-101753436D01*
X110248615Y-101562167D01*
X110363635Y-101390027D01*
X110510027Y-101243635D01*
X110682165Y-101128616D01*
X110682167Y-101128615D01*
X110873436Y-101049389D01*
X111076484Y-101009000D01*
X111283516Y-101009000D01*
X111486564Y-101049389D01*
G37*
G36*
X126766564Y-101049389D02*
G01*
X126957833Y-101128615D01*
X126957835Y-101128616D01*
X127129973Y-101243635D01*
X127276365Y-101390027D01*
X127391385Y-101562167D01*
X127470611Y-101753436D01*
X127511000Y-101956484D01*
X127511000Y-102163516D01*
X127470611Y-102366564D01*
X127391385Y-102557833D01*
X127391384Y-102557835D01*
X127276365Y-102729973D01*
X127129973Y-102876365D01*
X126957835Y-102991384D01*
X126957834Y-102991385D01*
X126957833Y-102991385D01*
X126766564Y-103070611D01*
X126563516Y-103111000D01*
X126356484Y-103111000D01*
X126153436Y-103070611D01*
X125962167Y-102991385D01*
X125962166Y-102991385D01*
X125962165Y-102991384D01*
X125790027Y-102876365D01*
X125643635Y-102729973D01*
X125528616Y-102557835D01*
X125528615Y-102557833D01*
X125449389Y-102366564D01*
X125409000Y-102163516D01*
X125409000Y-101956484D01*
X125449389Y-101753436D01*
X125528615Y-101562167D01*
X125643635Y-101390027D01*
X125790027Y-101243635D01*
X125962165Y-101128616D01*
X125962167Y-101128615D01*
X126153436Y-101049389D01*
X126356484Y-101009000D01*
X126563516Y-101009000D01*
X126766564Y-101049389D01*
G37*
G36*
X138196564Y-101049389D02*
G01*
X138387833Y-101128615D01*
X138387835Y-101128616D01*
X138559973Y-101243635D01*
X138706365Y-101390027D01*
X138821385Y-101562167D01*
X138900611Y-101753436D01*
X138941000Y-101956484D01*
X138941000Y-102163516D01*
X138900611Y-102366564D01*
X138821385Y-102557833D01*
X138821384Y-102557835D01*
X138706365Y-102729973D01*
X138559973Y-102876365D01*
X138387835Y-102991384D01*
X138387834Y-102991385D01*
X138387833Y-102991385D01*
X138196564Y-103070611D01*
X137993516Y-103111000D01*
X137786484Y-103111000D01*
X137583436Y-103070611D01*
X137392167Y-102991385D01*
X137392166Y-102991385D01*
X137392165Y-102991384D01*
X137220027Y-102876365D01*
X137073635Y-102729973D01*
X136958616Y-102557835D01*
X136958615Y-102557833D01*
X136879389Y-102366564D01*
X136839000Y-102163516D01*
X136839000Y-101956484D01*
X136879389Y-101753436D01*
X136958615Y-101562167D01*
X137073635Y-101390027D01*
X137220027Y-101243635D01*
X137392165Y-101128616D01*
X137392167Y-101128615D01*
X137583436Y-101049389D01*
X137786484Y-101009000D01*
X137993516Y-101009000D01*
X138196564Y-101049389D01*
G37*
G36*
X181391564Y-101049389D02*
G01*
X181582833Y-101128615D01*
X181582835Y-101128616D01*
X181754973Y-101243635D01*
X181901365Y-101390027D01*
X182016385Y-101562167D01*
X182095611Y-101753436D01*
X182136000Y-101956484D01*
X182136000Y-102163516D01*
X182095611Y-102366564D01*
X182016385Y-102557833D01*
X182016384Y-102557835D01*
X181901365Y-102729973D01*
X181754973Y-102876365D01*
X181582835Y-102991384D01*
X181582834Y-102991385D01*
X181582833Y-102991385D01*
X181391564Y-103070611D01*
X181188516Y-103111000D01*
X180981484Y-103111000D01*
X180778436Y-103070611D01*
X180587167Y-102991385D01*
X180587166Y-102991385D01*
X180587165Y-102991384D01*
X180415027Y-102876365D01*
X180268635Y-102729973D01*
X180153616Y-102557835D01*
X180153615Y-102557833D01*
X180074389Y-102366564D01*
X180034000Y-102163516D01*
X180034000Y-101956484D01*
X180074389Y-101753436D01*
X180153615Y-101562167D01*
X180268635Y-101390027D01*
X180415027Y-101243635D01*
X180587165Y-101128616D01*
X180587167Y-101128615D01*
X180778436Y-101049389D01*
X180981484Y-101009000D01*
X181188516Y-101009000D01*
X181391564Y-101049389D01*
G37*
G36*
X144696564Y-101049389D02*
G01*
X144887833Y-101128615D01*
X144887835Y-101128616D01*
X145059973Y-101243635D01*
X145206365Y-101390027D01*
X145321385Y-101562167D01*
X145400611Y-101753436D01*
X145441000Y-101956484D01*
X145441000Y-102163516D01*
X145400611Y-102366564D01*
X145321385Y-102557833D01*
X145321384Y-102557835D01*
X145206365Y-102729973D01*
X145059973Y-102876365D01*
X144887835Y-102991384D01*
X144887834Y-102991385D01*
X144887833Y-102991385D01*
X144696564Y-103070611D01*
X144493516Y-103111000D01*
X144286484Y-103111000D01*
X144083436Y-103070611D01*
X143892167Y-102991385D01*
X143892166Y-102991385D01*
X143892165Y-102991384D01*
X143720027Y-102876365D01*
X143573635Y-102729973D01*
X143458616Y-102557835D01*
X143458615Y-102557833D01*
X143379389Y-102366564D01*
X143339000Y-102163516D01*
X143339000Y-101956484D01*
X143379389Y-101753436D01*
X143458615Y-101562167D01*
X143573635Y-101390027D01*
X143720027Y-101243635D01*
X143892165Y-101128616D01*
X143892167Y-101128615D01*
X144083436Y-101049389D01*
X144286484Y-101009000D01*
X144493516Y-101009000D01*
X144696564Y-101049389D01*
G37*
G36*
X93556564Y-101049389D02*
G01*
X93747833Y-101128615D01*
X93747835Y-101128616D01*
X93919973Y-101243635D01*
X94066365Y-101390027D01*
X94181385Y-101562167D01*
X94260611Y-101753436D01*
X94301000Y-101956484D01*
X94301000Y-102163516D01*
X94260611Y-102366564D01*
X94181385Y-102557833D01*
X94181384Y-102557835D01*
X94066365Y-102729973D01*
X93919973Y-102876365D01*
X93747835Y-102991384D01*
X93747834Y-102991385D01*
X93747833Y-102991385D01*
X93556564Y-103070611D01*
X93353516Y-103111000D01*
X93146484Y-103111000D01*
X92943436Y-103070611D01*
X92752167Y-102991385D01*
X92752166Y-102991385D01*
X92752165Y-102991384D01*
X92580027Y-102876365D01*
X92433635Y-102729973D01*
X92318616Y-102557835D01*
X92318615Y-102557833D01*
X92239389Y-102366564D01*
X92199000Y-102163516D01*
X92199000Y-101956484D01*
X92239389Y-101753436D01*
X92318615Y-101562167D01*
X92433635Y-101390027D01*
X92580027Y-101243635D01*
X92752165Y-101128616D01*
X92752167Y-101128615D01*
X92943436Y-101049389D01*
X93146484Y-101009000D01*
X93353516Y-101009000D01*
X93556564Y-101049389D01*
G37*
G36*
X176461564Y-101049389D02*
G01*
X176652833Y-101128615D01*
X176652835Y-101128616D01*
X176824973Y-101243635D01*
X176971365Y-101390027D01*
X177086385Y-101562167D01*
X177165611Y-101753436D01*
X177206000Y-101956484D01*
X177206000Y-102163516D01*
X177165611Y-102366564D01*
X177086385Y-102557833D01*
X177086384Y-102557835D01*
X176971365Y-102729973D01*
X176824973Y-102876365D01*
X176652835Y-102991384D01*
X176652834Y-102991385D01*
X176652833Y-102991385D01*
X176461564Y-103070611D01*
X176258516Y-103111000D01*
X176051484Y-103111000D01*
X175848436Y-103070611D01*
X175657167Y-102991385D01*
X175657166Y-102991385D01*
X175657165Y-102991384D01*
X175485027Y-102876365D01*
X175338635Y-102729973D01*
X175223616Y-102557835D01*
X175223615Y-102557833D01*
X175144389Y-102366564D01*
X175104000Y-102163516D01*
X175104000Y-101956484D01*
X175144389Y-101753436D01*
X175223615Y-101562167D01*
X175338635Y-101390027D01*
X175485027Y-101243635D01*
X175657165Y-101128616D01*
X175657167Y-101128615D01*
X175848436Y-101049389D01*
X176051484Y-101009000D01*
X176258516Y-101009000D01*
X176461564Y-101049389D01*
G37*
G36*
X155976564Y-101049389D02*
G01*
X156167833Y-101128615D01*
X156167835Y-101128616D01*
X156339973Y-101243635D01*
X156486365Y-101390027D01*
X156601385Y-101562167D01*
X156680611Y-101753436D01*
X156721000Y-101956484D01*
X156721000Y-102163516D01*
X156680611Y-102366564D01*
X156601385Y-102557833D01*
X156601384Y-102557835D01*
X156486365Y-102729973D01*
X156339973Y-102876365D01*
X156167835Y-102991384D01*
X156167834Y-102991385D01*
X156167833Y-102991385D01*
X155976564Y-103070611D01*
X155773516Y-103111000D01*
X155566484Y-103111000D01*
X155363436Y-103070611D01*
X155172167Y-102991385D01*
X155172166Y-102991385D01*
X155172165Y-102991384D01*
X155000027Y-102876365D01*
X154853635Y-102729973D01*
X154738616Y-102557835D01*
X154738615Y-102557833D01*
X154659389Y-102366564D01*
X154619000Y-102163516D01*
X154619000Y-101956484D01*
X154659389Y-101753436D01*
X154738615Y-101562167D01*
X154853635Y-101390027D01*
X155000027Y-101243635D01*
X155172165Y-101128616D01*
X155172167Y-101128615D01*
X155363436Y-101049389D01*
X155566484Y-101009000D01*
X155773516Y-101009000D01*
X155976564Y-101049389D01*
G37*
G36*
X100056564Y-101049389D02*
G01*
X100247833Y-101128615D01*
X100247835Y-101128616D01*
X100419973Y-101243635D01*
X100566365Y-101390027D01*
X100681385Y-101562167D01*
X100760611Y-101753436D01*
X100801000Y-101956484D01*
X100801000Y-102163516D01*
X100760611Y-102366564D01*
X100681385Y-102557833D01*
X100681384Y-102557835D01*
X100566365Y-102729973D01*
X100419973Y-102876365D01*
X100247835Y-102991384D01*
X100247834Y-102991385D01*
X100247833Y-102991385D01*
X100056564Y-103070611D01*
X99853516Y-103111000D01*
X99646484Y-103111000D01*
X99443436Y-103070611D01*
X99252167Y-102991385D01*
X99252166Y-102991385D01*
X99252165Y-102991384D01*
X99080027Y-102876365D01*
X98933635Y-102729973D01*
X98818616Y-102557835D01*
X98818615Y-102557833D01*
X98739389Y-102366564D01*
X98699000Y-102163516D01*
X98699000Y-101956484D01*
X98739389Y-101753436D01*
X98818615Y-101562167D01*
X98933635Y-101390027D01*
X99080027Y-101243635D01*
X99252165Y-101128616D01*
X99252167Y-101128615D01*
X99443436Y-101049389D01*
X99646484Y-101009000D01*
X99853516Y-101009000D01*
X100056564Y-101049389D01*
G37*
G36*
X169961564Y-101049389D02*
G01*
X170152833Y-101128615D01*
X170152835Y-101128616D01*
X170324973Y-101243635D01*
X170471365Y-101390027D01*
X170586385Y-101562167D01*
X170665611Y-101753436D01*
X170706000Y-101956484D01*
X170706000Y-102163516D01*
X170665611Y-102366564D01*
X170586385Y-102557833D01*
X170586384Y-102557835D01*
X170471365Y-102729973D01*
X170324973Y-102876365D01*
X170152835Y-102991384D01*
X170152834Y-102991385D01*
X170152833Y-102991385D01*
X169961564Y-103070611D01*
X169758516Y-103111000D01*
X169551484Y-103111000D01*
X169348436Y-103070611D01*
X169157167Y-102991385D01*
X169157166Y-102991385D01*
X169157165Y-102991384D01*
X168985027Y-102876365D01*
X168838635Y-102729973D01*
X168723616Y-102557835D01*
X168723615Y-102557833D01*
X168644389Y-102366564D01*
X168604000Y-102163516D01*
X168604000Y-101956484D01*
X168644389Y-101753436D01*
X168723615Y-101562167D01*
X168838635Y-101390027D01*
X168985027Y-101243635D01*
X169157165Y-101128616D01*
X169157167Y-101128615D01*
X169348436Y-101049389D01*
X169551484Y-101009000D01*
X169758516Y-101009000D01*
X169961564Y-101049389D01*
G37*
G36*
X133266564Y-101049389D02*
G01*
X133457833Y-101128615D01*
X133457835Y-101128616D01*
X133629973Y-101243635D01*
X133776365Y-101390027D01*
X133891385Y-101562167D01*
X133970611Y-101753436D01*
X134011000Y-101956484D01*
X134011000Y-102163516D01*
X133970611Y-102366564D01*
X133891385Y-102557833D01*
X133891384Y-102557835D01*
X133776365Y-102729973D01*
X133629973Y-102876365D01*
X133457835Y-102991384D01*
X133457834Y-102991385D01*
X133457833Y-102991385D01*
X133266564Y-103070611D01*
X133063516Y-103111000D01*
X132856484Y-103111000D01*
X132653436Y-103070611D01*
X132462167Y-102991385D01*
X132462166Y-102991385D01*
X132462165Y-102991384D01*
X132290027Y-102876365D01*
X132143635Y-102729973D01*
X132028616Y-102557835D01*
X132028615Y-102557833D01*
X131949389Y-102366564D01*
X131909000Y-102163516D01*
X131909000Y-101956484D01*
X131949389Y-101753436D01*
X132028615Y-101562167D01*
X132143635Y-101390027D01*
X132290027Y-101243635D01*
X132462165Y-101128616D01*
X132462167Y-101128615D01*
X132653436Y-101049389D01*
X132856484Y-101009000D01*
X133063516Y-101009000D01*
X133266564Y-101049389D01*
G37*
G36*
X104986564Y-101049389D02*
G01*
X105177833Y-101128615D01*
X105177835Y-101128616D01*
X105349973Y-101243635D01*
X105496365Y-101390027D01*
X105611385Y-101562167D01*
X105690611Y-101753436D01*
X105731000Y-101956484D01*
X105731000Y-102163516D01*
X105690611Y-102366564D01*
X105611385Y-102557833D01*
X105611384Y-102557835D01*
X105496365Y-102729973D01*
X105349973Y-102876365D01*
X105177835Y-102991384D01*
X105177834Y-102991385D01*
X105177833Y-102991385D01*
X104986564Y-103070611D01*
X104783516Y-103111000D01*
X104576484Y-103111000D01*
X104373436Y-103070611D01*
X104182167Y-102991385D01*
X104182166Y-102991385D01*
X104182165Y-102991384D01*
X104010027Y-102876365D01*
X103863635Y-102729973D01*
X103748616Y-102557835D01*
X103748615Y-102557833D01*
X103669389Y-102366564D01*
X103629000Y-102163516D01*
X103629000Y-101956484D01*
X103669389Y-101753436D01*
X103748615Y-101562167D01*
X103863635Y-101390027D01*
X104010027Y-101243635D01*
X104182165Y-101128616D01*
X104182167Y-101128615D01*
X104373436Y-101049389D01*
X104576484Y-101009000D01*
X104783516Y-101009000D01*
X104986564Y-101049389D01*
G37*
G36*
X149476564Y-101049389D02*
G01*
X149667833Y-101128615D01*
X149667835Y-101128616D01*
X149839973Y-101243635D01*
X149986365Y-101390027D01*
X150101385Y-101562167D01*
X150180611Y-101753436D01*
X150221000Y-101956484D01*
X150221000Y-102163516D01*
X150180611Y-102366564D01*
X150101385Y-102557833D01*
X150101384Y-102557835D01*
X149986365Y-102729973D01*
X149839973Y-102876365D01*
X149667835Y-102991384D01*
X149667834Y-102991385D01*
X149667833Y-102991385D01*
X149476564Y-103070611D01*
X149273516Y-103111000D01*
X149066484Y-103111000D01*
X148863436Y-103070611D01*
X148672167Y-102991385D01*
X148672166Y-102991385D01*
X148672165Y-102991384D01*
X148500027Y-102876365D01*
X148353635Y-102729973D01*
X148238616Y-102557835D01*
X148238615Y-102557833D01*
X148159389Y-102366564D01*
X148119000Y-102163516D01*
X148119000Y-101956484D01*
X148159389Y-101753436D01*
X148238615Y-101562167D01*
X148353635Y-101390027D01*
X148500027Y-101243635D01*
X148672165Y-101128616D01*
X148672167Y-101128615D01*
X148863436Y-101049389D01*
X149066484Y-101009000D01*
X149273516Y-101009000D01*
X149476564Y-101049389D01*
G37*
G36*
X211676242Y-95773404D02*
G01*
X211713337Y-95784657D01*
X211747515Y-95802925D01*
X211777481Y-95827519D01*
X211802075Y-95857485D01*
X211820343Y-95891663D01*
X211831596Y-95928758D01*
X211836000Y-95973474D01*
X211836000Y-97066526D01*
X211831596Y-97111242D01*
X211820343Y-97148337D01*
X211802075Y-97182515D01*
X211777481Y-97212481D01*
X211747515Y-97237075D01*
X211713337Y-97255343D01*
X211676242Y-97266596D01*
X211631526Y-97271000D01*
X210738474Y-97271000D01*
X210693758Y-97266596D01*
X210656663Y-97255343D01*
X210622485Y-97237075D01*
X210592519Y-97212481D01*
X210567925Y-97182515D01*
X210549657Y-97148337D01*
X210538404Y-97111242D01*
X210534000Y-97066526D01*
X210534000Y-95973474D01*
X210538404Y-95928758D01*
X210549657Y-95891663D01*
X210567925Y-95857485D01*
X210592519Y-95827519D01*
X210622485Y-95802925D01*
X210656663Y-95784657D01*
X210693758Y-95773404D01*
X210738474Y-95769000D01*
X211631526Y-95769000D01*
X211676242Y-95773404D01*
G37*
G36*
X209676242Y-95773404D02*
G01*
X209713337Y-95784657D01*
X209747515Y-95802925D01*
X209777481Y-95827519D01*
X209802075Y-95857485D01*
X209820343Y-95891663D01*
X209831596Y-95928758D01*
X209836000Y-95973474D01*
X209836000Y-97066526D01*
X209831596Y-97111242D01*
X209820343Y-97148337D01*
X209802075Y-97182515D01*
X209777481Y-97212481D01*
X209747515Y-97237075D01*
X209713337Y-97255343D01*
X209676242Y-97266596D01*
X209631526Y-97271000D01*
X208738474Y-97271000D01*
X208693758Y-97266596D01*
X208656663Y-97255343D01*
X208622485Y-97237075D01*
X208592519Y-97212481D01*
X208567925Y-97182515D01*
X208549657Y-97148337D01*
X208538404Y-97111242D01*
X208534000Y-97066526D01*
X208534000Y-95973474D01*
X208538404Y-95928758D01*
X208549657Y-95891663D01*
X208567925Y-95857485D01*
X208592519Y-95827519D01*
X208622485Y-95802925D01*
X208656663Y-95784657D01*
X208693758Y-95773404D01*
X208738474Y-95769000D01*
X209631526Y-95769000D01*
X209676242Y-95773404D01*
G37*
G36*
X208686000Y-93101000D02*
G01*
X207084000Y-93101000D01*
X207084000Y-90999000D01*
X208686000Y-90999000D01*
X208686000Y-93101000D01*
G37*
G36*
X210986000Y-93101000D02*
G01*
X209384000Y-93101000D01*
X209384000Y-90999000D01*
X210986000Y-90999000D01*
X210986000Y-93101000D01*
G37*
G36*
X213286000Y-93101000D02*
G01*
X211684000Y-93101000D01*
X211684000Y-90999000D01*
X213286000Y-90999000D01*
X213286000Y-93101000D01*
G37*
G36*
X204426242Y-91793404D02*
G01*
X204463337Y-91804657D01*
X204497515Y-91822925D01*
X204527481Y-91847519D01*
X204552075Y-91877485D01*
X204570343Y-91911663D01*
X204581596Y-91948758D01*
X204586000Y-91993474D01*
X204586000Y-92886526D01*
X204581596Y-92931242D01*
X204570343Y-92968337D01*
X204552075Y-93002515D01*
X204527481Y-93032481D01*
X204497515Y-93057075D01*
X204463337Y-93075343D01*
X204426242Y-93086596D01*
X204381526Y-93091000D01*
X203288474Y-93091000D01*
X203243758Y-93086596D01*
X203206663Y-93075343D01*
X203172485Y-93057075D01*
X203142519Y-93032481D01*
X203117925Y-93002515D01*
X203099657Y-92968337D01*
X203088404Y-92931242D01*
X203084000Y-92886526D01*
X203084000Y-91993474D01*
X203088404Y-91948758D01*
X203099657Y-91911663D01*
X203117925Y-91877485D01*
X203142519Y-91847519D01*
X203172485Y-91822925D01*
X203206663Y-91804657D01*
X203243758Y-91793404D01*
X203288474Y-91789000D01*
X204381526Y-91789000D01*
X204426242Y-91793404D01*
G37*
G36*
X137426000Y-92236000D02*
G01*
X135624000Y-92236000D01*
X135624000Y-88634000D01*
X137426000Y-88634000D01*
X137426000Y-92236000D01*
G37*
G36*
X139966000Y-92236000D02*
G01*
X138164000Y-92236000D01*
X138164000Y-88634000D01*
X139966000Y-88634000D01*
X139966000Y-92236000D01*
G37*
G36*
X142506000Y-92236000D02*
G01*
X140704000Y-92236000D01*
X140704000Y-88634000D01*
X142506000Y-88634000D01*
X142506000Y-92236000D01*
G37*
G36*
X145046000Y-92236000D02*
G01*
X143244000Y-92236000D01*
X143244000Y-88634000D01*
X145046000Y-88634000D01*
X145046000Y-92236000D01*
G37*
G36*
X170446000Y-92236000D02*
G01*
X168644000Y-92236000D01*
X168644000Y-88634000D01*
X170446000Y-88634000D01*
X170446000Y-92236000D01*
G37*
G36*
X147586000Y-92236000D02*
G01*
X145784000Y-92236000D01*
X145784000Y-88634000D01*
X147586000Y-88634000D01*
X147586000Y-92236000D01*
G37*
G36*
X150126000Y-92236000D02*
G01*
X148324000Y-92236000D01*
X148324000Y-88634000D01*
X150126000Y-88634000D01*
X150126000Y-92236000D01*
G37*
G36*
X152666000Y-92236000D02*
G01*
X150864000Y-92236000D01*
X150864000Y-88634000D01*
X152666000Y-88634000D01*
X152666000Y-92236000D01*
G37*
G36*
X155206000Y-92236000D02*
G01*
X153404000Y-92236000D01*
X153404000Y-88634000D01*
X155206000Y-88634000D01*
X155206000Y-92236000D01*
G37*
G36*
X157746000Y-92236000D02*
G01*
X155944000Y-92236000D01*
X155944000Y-88634000D01*
X157746000Y-88634000D01*
X157746000Y-92236000D01*
G37*
G36*
X162826000Y-92236000D02*
G01*
X161024000Y-92236000D01*
X161024000Y-88634000D01*
X162826000Y-88634000D01*
X162826000Y-92236000D01*
G37*
G36*
X134886000Y-92236000D02*
G01*
X133084000Y-92236000D01*
X133084000Y-88634000D01*
X134886000Y-88634000D01*
X134886000Y-92236000D01*
G37*
G36*
X160286000Y-92236000D02*
G01*
X158484000Y-92236000D01*
X158484000Y-88634000D01*
X160286000Y-88634000D01*
X160286000Y-92236000D01*
G37*
G36*
X178066000Y-92236000D02*
G01*
X176264000Y-92236000D01*
X176264000Y-88634000D01*
X178066000Y-88634000D01*
X178066000Y-92236000D01*
G37*
G36*
X175526000Y-92236000D02*
G01*
X173724000Y-92236000D01*
X173724000Y-88634000D01*
X175526000Y-88634000D01*
X175526000Y-92236000D01*
G37*
G36*
X172986000Y-92236000D02*
G01*
X171184000Y-92236000D01*
X171184000Y-88634000D01*
X172986000Y-88634000D01*
X172986000Y-92236000D01*
G37*
G36*
X183146000Y-92236000D02*
G01*
X181344000Y-92236000D01*
X181344000Y-88634000D01*
X183146000Y-88634000D01*
X183146000Y-92236000D01*
G37*
G36*
X180606000Y-92236000D02*
G01*
X178804000Y-92236000D01*
X178804000Y-88634000D01*
X180606000Y-88634000D01*
X180606000Y-92236000D01*
G37*
G36*
X165366000Y-92236000D02*
G01*
X163564000Y-92236000D01*
X163564000Y-88634000D01*
X165366000Y-88634000D01*
X165366000Y-92236000D01*
G37*
G36*
X167906000Y-92236000D02*
G01*
X166104000Y-92236000D01*
X166104000Y-88634000D01*
X167906000Y-88634000D01*
X167906000Y-92236000D01*
G37*
G36*
X204426242Y-89793404D02*
G01*
X204463337Y-89804657D01*
X204497515Y-89822925D01*
X204527481Y-89847519D01*
X204552075Y-89877485D01*
X204570343Y-89911663D01*
X204581596Y-89948758D01*
X204586000Y-89993474D01*
X204586000Y-90886526D01*
X204581596Y-90931242D01*
X204570343Y-90968337D01*
X204552075Y-91002515D01*
X204527481Y-91032481D01*
X204497515Y-91057075D01*
X204463337Y-91075343D01*
X204426242Y-91086596D01*
X204381526Y-91091000D01*
X203288474Y-91091000D01*
X203243758Y-91086596D01*
X203206663Y-91075343D01*
X203172485Y-91057075D01*
X203142519Y-91032481D01*
X203117925Y-91002515D01*
X203099657Y-90968337D01*
X203088404Y-90931242D01*
X203084000Y-90886526D01*
X203084000Y-89993474D01*
X203088404Y-89948758D01*
X203099657Y-89911663D01*
X203117925Y-89877485D01*
X203142519Y-89847519D01*
X203172485Y-89822925D01*
X203206663Y-89804657D01*
X203243758Y-89793404D01*
X203288474Y-89789000D01*
X204381526Y-89789000D01*
X204426242Y-89793404D01*
G37*
G36*
X202880999Y-86194737D02*
G01*
X202890608Y-86197652D01*
X202899472Y-86202390D01*
X202907237Y-86208763D01*
X202917884Y-86221737D01*
X202924053Y-86230968D01*
X202941381Y-86248294D01*
X202961756Y-86261907D01*
X202984395Y-86271283D01*
X203008428Y-86276063D01*
X203032932Y-86276062D01*
X203056965Y-86271280D01*
X203079604Y-86261902D01*
X203099978Y-86248287D01*
X203117304Y-86230959D01*
X203124175Y-86221683D01*
X203134726Y-86208800D01*
X203136103Y-86207668D01*
X203142484Y-86202419D01*
X203151339Y-86197674D01*
X203154377Y-86196749D01*
X203160915Y-86194758D01*
X203160918Y-86194758D01*
X203160950Y-86194748D01*
X203171000Y-86193753D01*
X203171065Y-86193753D01*
X203177175Y-86193148D01*
X204164860Y-86193148D01*
X204180999Y-86194737D01*
X204190608Y-86197652D01*
X204199472Y-86202390D01*
X204207237Y-86208763D01*
X204213610Y-86216528D01*
X204218348Y-86225392D01*
X204221263Y-86235001D01*
X204222852Y-86251140D01*
X204222852Y-87738860D01*
X204221263Y-87754999D01*
X204218348Y-87764608D01*
X204213610Y-87773472D01*
X204207237Y-87781237D01*
X204199472Y-87787610D01*
X204190608Y-87792348D01*
X204180999Y-87795263D01*
X204164860Y-87796852D01*
X203177140Y-87796852D01*
X203161001Y-87795263D01*
X203151392Y-87792348D01*
X203142528Y-87787610D01*
X203134788Y-87781258D01*
X203134787Y-87781257D01*
X203134763Y-87781237D01*
X203128360Y-87773427D01*
X203128323Y-87773372D01*
X203120520Y-87763853D01*
X203120489Y-87763878D01*
X203109147Y-87750028D01*
X203090221Y-87734463D01*
X203068623Y-87722889D01*
X203045181Y-87715751D01*
X203020798Y-87713324D01*
X202996409Y-87715700D01*
X202972953Y-87722789D01*
X202951330Y-87734318D01*
X202932372Y-87749843D01*
X202916807Y-87768769D01*
X202914971Y-87771825D01*
X202913582Y-87773514D01*
X202913581Y-87773516D01*
X202908485Y-87779712D01*
X202907200Y-87781274D01*
X202899425Y-87787642D01*
X202893517Y-87790791D01*
X202890562Y-87792367D01*
X202880981Y-87795262D01*
X202880915Y-87795282D01*
X202864887Y-87796852D01*
X201727140Y-87796852D01*
X201711001Y-87795263D01*
X201701392Y-87792348D01*
X201692528Y-87787610D01*
X201684763Y-87781237D01*
X201678390Y-87773472D01*
X201673652Y-87764608D01*
X201670737Y-87754999D01*
X201669148Y-87738860D01*
X201669148Y-86251140D01*
X201670737Y-86235001D01*
X201673652Y-86225392D01*
X201678390Y-86216528D01*
X201684763Y-86208763D01*
X201692528Y-86202390D01*
X201701392Y-86197652D01*
X201711001Y-86194737D01*
X201727140Y-86193148D01*
X202864860Y-86193148D01*
X202880999Y-86194737D01*
G37*
G36*
X212136000Y-86801000D02*
G01*
X208234000Y-86801000D01*
X208234000Y-84699000D01*
X212136000Y-84699000D01*
X212136000Y-86801000D01*
G37*
G36*
X182392395Y-82455546D02*
G01*
X182565466Y-82527234D01*
X182565467Y-82527235D01*
X182721227Y-82631310D01*
X182853690Y-82763773D01*
X182906081Y-82842182D01*
X182957766Y-82919534D01*
X183029454Y-83092605D01*
X183066000Y-83276333D01*
X183066000Y-83463667D01*
X183029454Y-83647395D01*
X182957766Y-83820466D01*
X182957765Y-83820467D01*
X182853690Y-83976227D01*
X182721227Y-84108690D01*
X182642818Y-84161081D01*
X182565466Y-84212766D01*
X182392395Y-84284454D01*
X182208667Y-84321000D01*
X182021333Y-84321000D01*
X181837605Y-84284454D01*
X181664534Y-84212766D01*
X181587182Y-84161081D01*
X181508773Y-84108690D01*
X181376310Y-83976227D01*
X181272235Y-83820467D01*
X181272234Y-83820466D01*
X181200546Y-83647395D01*
X181164000Y-83463667D01*
X181164000Y-83276333D01*
X181200546Y-83092605D01*
X181272234Y-82919534D01*
X181323919Y-82842182D01*
X181376310Y-82763773D01*
X181508773Y-82631310D01*
X181664533Y-82527235D01*
X181664534Y-82527234D01*
X181837605Y-82455546D01*
X182021333Y-82419000D01*
X182208667Y-82419000D01*
X182392395Y-82455546D01*
G37*
G36*
X135116000Y-84086000D02*
G01*
X131514000Y-84086000D01*
X131514000Y-82284000D01*
X135116000Y-82284000D01*
X135116000Y-84086000D01*
G37*
G36*
X129171000Y-83959000D02*
G01*
X127369000Y-83959000D01*
X127369000Y-82157000D01*
X129171000Y-82157000D01*
X129171000Y-83959000D01*
G37*
G36*
X179318642Y-82299781D02*
G01*
X179464414Y-82360162D01*
X179464416Y-82360163D01*
X179595608Y-82447822D01*
X179707178Y-82559392D01*
X179794837Y-82690584D01*
X179794838Y-82690586D01*
X179855219Y-82836358D01*
X179886000Y-82991107D01*
X179886000Y-83148893D01*
X179855219Y-83303642D01*
X179794838Y-83449414D01*
X179794837Y-83449416D01*
X179707178Y-83580608D01*
X179595608Y-83692178D01*
X179464416Y-83779837D01*
X179464415Y-83779838D01*
X179464414Y-83779838D01*
X179318642Y-83840219D01*
X179163893Y-83871000D01*
X179006107Y-83871000D01*
X178851358Y-83840219D01*
X178705586Y-83779838D01*
X178705585Y-83779838D01*
X178705584Y-83779837D01*
X178574392Y-83692178D01*
X178462822Y-83580608D01*
X178375163Y-83449416D01*
X178375162Y-83449414D01*
X178314781Y-83303642D01*
X178284000Y-83148893D01*
X178284000Y-82991107D01*
X178314781Y-82836358D01*
X178375162Y-82690586D01*
X178375163Y-82690584D01*
X178462822Y-82559392D01*
X178574392Y-82447822D01*
X178705584Y-82360163D01*
X178705586Y-82360162D01*
X178851358Y-82299781D01*
X179006107Y-82269000D01*
X179163893Y-82269000D01*
X179318642Y-82299781D01*
G37*
G36*
X216651000Y-82061000D02*
G01*
X214349000Y-82061000D01*
X214349000Y-80759000D01*
X216651000Y-80759000D01*
X216651000Y-82061000D01*
G37*
G36*
X206251000Y-80634001D02*
G01*
X206253402Y-80658387D01*
X206260515Y-80681836D01*
X206272066Y-80703447D01*
X206287611Y-80722389D01*
X206306553Y-80737934D01*
X206328164Y-80749485D01*
X206351613Y-80756598D01*
X206375999Y-80759000D01*
X206651000Y-80759000D01*
X206651000Y-82061000D01*
X205149000Y-82061000D01*
X205149000Y-80785999D01*
X205146598Y-80761613D01*
X205139485Y-80738164D01*
X205127934Y-80716553D01*
X205112389Y-80697611D01*
X205093447Y-80682066D01*
X205071836Y-80670515D01*
X205048387Y-80663402D01*
X205024001Y-80661000D01*
X204549000Y-80661000D01*
X204549000Y-79859000D01*
X206251000Y-79859000D01*
X206251000Y-80634001D01*
G37*
G36*
X135116000Y-81546000D02*
G01*
X131514000Y-81546000D01*
X131514000Y-79744000D01*
X135116000Y-79744000D01*
X135116000Y-81546000D01*
G37*
G36*
X128383512Y-79621927D02*
G01*
X128532812Y-79651624D01*
X128696784Y-79719544D01*
X128844354Y-79818147D01*
X128969853Y-79943646D01*
X129068456Y-80091216D01*
X129136376Y-80255188D01*
X129171000Y-80429259D01*
X129171000Y-80606741D01*
X129136376Y-80780812D01*
X129068456Y-80944784D01*
X128969853Y-81092354D01*
X128844354Y-81217853D01*
X128696784Y-81316456D01*
X128532812Y-81384376D01*
X128383512Y-81414073D01*
X128358742Y-81419000D01*
X128181258Y-81419000D01*
X128156488Y-81414073D01*
X128007188Y-81384376D01*
X127843216Y-81316456D01*
X127695646Y-81217853D01*
X127570147Y-81092354D01*
X127471544Y-80944784D01*
X127403624Y-80780812D01*
X127369000Y-80606741D01*
X127369000Y-80429259D01*
X127403624Y-80255188D01*
X127471544Y-80091216D01*
X127570147Y-79943646D01*
X127695646Y-79818147D01*
X127843216Y-79719544D01*
X128007188Y-79651624D01*
X128156488Y-79621927D01*
X128181258Y-79617000D01*
X128358742Y-79617000D01*
X128383512Y-79621927D01*
G37*
G36*
X206251000Y-79561000D02*
G01*
X204549000Y-79561000D01*
X204549000Y-78759000D01*
X206251000Y-78759000D01*
X206251000Y-79561000D01*
G37*
G36*
X179318642Y-77449781D02*
G01*
X179464414Y-77510162D01*
X179464416Y-77510163D01*
X179595608Y-77597822D01*
X179707178Y-77709392D01*
X179785316Y-77826335D01*
X179794838Y-77840586D01*
X179855219Y-77986358D01*
X179886000Y-78141107D01*
X179886000Y-78298893D01*
X179855219Y-78453642D01*
X179852171Y-78461000D01*
X179794837Y-78599416D01*
X179707178Y-78730608D01*
X179595608Y-78842178D01*
X179464416Y-78929837D01*
X179464415Y-78929838D01*
X179464414Y-78929838D01*
X179318642Y-78990219D01*
X179163893Y-79021000D01*
X179006107Y-79021000D01*
X178851358Y-78990219D01*
X178705586Y-78929838D01*
X178705585Y-78929838D01*
X178705584Y-78929837D01*
X178574392Y-78842178D01*
X178462822Y-78730608D01*
X178375163Y-78599416D01*
X178317829Y-78461000D01*
X178314781Y-78453642D01*
X178284000Y-78298893D01*
X178284000Y-78141107D01*
X178314781Y-77986358D01*
X178375162Y-77840586D01*
X178384684Y-77826335D01*
X178462822Y-77709392D01*
X178574392Y-77597822D01*
X178705584Y-77510163D01*
X178705586Y-77510162D01*
X178851358Y-77449781D01*
X179006107Y-77419000D01*
X179163893Y-77419000D01*
X179318642Y-77449781D01*
G37*
G36*
X135116000Y-79006000D02*
G01*
X131514000Y-79006000D01*
X131514000Y-77204000D01*
X135116000Y-77204000D01*
X135116000Y-79006000D01*
G37*
G36*
X128383512Y-77081927D02*
G01*
X128532812Y-77111624D01*
X128696784Y-77179544D01*
X128844354Y-77278147D01*
X128969853Y-77403646D01*
X129068456Y-77551216D01*
X129136376Y-77715188D01*
X129171000Y-77889259D01*
X129171000Y-78066741D01*
X129136376Y-78240812D01*
X129068456Y-78404784D01*
X128969853Y-78552354D01*
X128844354Y-78677853D01*
X128696784Y-78776456D01*
X128532812Y-78844376D01*
X128383512Y-78874073D01*
X128358742Y-78879000D01*
X128181258Y-78879000D01*
X128156488Y-78874073D01*
X128007188Y-78844376D01*
X127843216Y-78776456D01*
X127695646Y-78677853D01*
X127570147Y-78552354D01*
X127471544Y-78404784D01*
X127403624Y-78240812D01*
X127369000Y-78066741D01*
X127369000Y-77889259D01*
X127403624Y-77715188D01*
X127471544Y-77551216D01*
X127570147Y-77403646D01*
X127695646Y-77278147D01*
X127843216Y-77179544D01*
X128007188Y-77111624D01*
X128156488Y-77081927D01*
X128181258Y-77077000D01*
X128358742Y-77077000D01*
X128383512Y-77081927D01*
G37*
G36*
X182392395Y-77005546D02*
G01*
X182565466Y-77077234D01*
X182565467Y-77077235D01*
X182721227Y-77181310D01*
X182853690Y-77313773D01*
X182853691Y-77313775D01*
X182957766Y-77469534D01*
X183029454Y-77642605D01*
X183066000Y-77826333D01*
X183066000Y-78013667D01*
X183029454Y-78197395D01*
X182957766Y-78370466D01*
X182957765Y-78370467D01*
X182853690Y-78526227D01*
X182721227Y-78658690D01*
X182692549Y-78677852D01*
X182565466Y-78762766D01*
X182392395Y-78834454D01*
X182208667Y-78871000D01*
X182021333Y-78871000D01*
X181837605Y-78834454D01*
X181664534Y-78762766D01*
X181537451Y-78677852D01*
X181508773Y-78658690D01*
X181376310Y-78526227D01*
X181272235Y-78370467D01*
X181272234Y-78370466D01*
X181200546Y-78197395D01*
X181164000Y-78013667D01*
X181164000Y-77826333D01*
X181200546Y-77642605D01*
X181272234Y-77469534D01*
X181376309Y-77313775D01*
X181376310Y-77313773D01*
X181508773Y-77181310D01*
X181664533Y-77077235D01*
X181664534Y-77077234D01*
X181837605Y-77005546D01*
X182021333Y-76969000D01*
X182208667Y-76969000D01*
X182392395Y-77005546D01*
G37*
G36*
X206251000Y-78461000D02*
G01*
X204549000Y-78461000D01*
X204549000Y-77659000D01*
X206251000Y-77659000D01*
X206251000Y-78461000D01*
G37*
G36*
X206251000Y-77361000D02*
G01*
X204549000Y-77361000D01*
X204549000Y-76559000D01*
X206251000Y-76559000D01*
X206251000Y-77361000D01*
G37*
G36*
X206251000Y-76261000D02*
G01*
X204549000Y-76261000D01*
X204549000Y-75459000D01*
X206251000Y-75459000D01*
X206251000Y-76261000D01*
G37*
G36*
X206251000Y-75161000D02*
G01*
X204549000Y-75161000D01*
X204549000Y-74359000D01*
X206251000Y-74359000D01*
X206251000Y-75161000D01*
G37*
G36*
X206251000Y-74061000D02*
G01*
X204549000Y-74061000D01*
X204549000Y-73259000D01*
X206251000Y-73259000D01*
X206251000Y-74061000D01*
G37*
G36*
X106169999Y-71114737D02*
G01*
X106179608Y-71117652D01*
X106188472Y-71122390D01*
X106196237Y-71128763D01*
X106202610Y-71136528D01*
X106207348Y-71145392D01*
X106210263Y-71155001D01*
X106211852Y-71171140D01*
X106211852Y-72158860D01*
X106210263Y-72174999D01*
X106207348Y-72184608D01*
X106202610Y-72193472D01*
X106196258Y-72201212D01*
X106196237Y-72201237D01*
X106188427Y-72207640D01*
X106188372Y-72207677D01*
X106178853Y-72215480D01*
X106178878Y-72215511D01*
X106165028Y-72226853D01*
X106149463Y-72245779D01*
X106137889Y-72267377D01*
X106130751Y-72290819D01*
X106128324Y-72315202D01*
X106130700Y-72339591D01*
X106137789Y-72363047D01*
X106149318Y-72384670D01*
X106164843Y-72403628D01*
X106183769Y-72419193D01*
X106186825Y-72421029D01*
X106188514Y-72422418D01*
X106188516Y-72422419D01*
X106194712Y-72427515D01*
X106196274Y-72428800D01*
X106202642Y-72436575D01*
X106205791Y-72442483D01*
X106207367Y-72445438D01*
X106210212Y-72454853D01*
X106210282Y-72455085D01*
X106211852Y-72471113D01*
X106211852Y-73608860D01*
X106210263Y-73624999D01*
X106207348Y-73634608D01*
X106202610Y-73643472D01*
X106196237Y-73651237D01*
X106188472Y-73657610D01*
X106179608Y-73662348D01*
X106169999Y-73665263D01*
X106153860Y-73666852D01*
X104666140Y-73666852D01*
X104650001Y-73665263D01*
X104640392Y-73662348D01*
X104631528Y-73657610D01*
X104623763Y-73651237D01*
X104617390Y-73643472D01*
X104612652Y-73634608D01*
X104609737Y-73624999D01*
X104608148Y-73608860D01*
X104608148Y-72471140D01*
X104609737Y-72455001D01*
X104612652Y-72445392D01*
X104617390Y-72436528D01*
X104623763Y-72428763D01*
X104636737Y-72418116D01*
X104645968Y-72411947D01*
X104663294Y-72394619D01*
X104676907Y-72374244D01*
X104686283Y-72351605D01*
X104691063Y-72327572D01*
X104691062Y-72303068D01*
X104686280Y-72279035D01*
X104676902Y-72256396D01*
X104663287Y-72236022D01*
X104645959Y-72218696D01*
X104636683Y-72211825D01*
X104623800Y-72201274D01*
X104622668Y-72199897D01*
X104617419Y-72193516D01*
X104612674Y-72184661D01*
X104611749Y-72181623D01*
X104609758Y-72175085D01*
X104609758Y-72175082D01*
X104609748Y-72175050D01*
X104608753Y-72165000D01*
X104608753Y-72164935D01*
X104608148Y-72158825D01*
X104608148Y-71171140D01*
X104609737Y-71155001D01*
X104612652Y-71145392D01*
X104617390Y-71136528D01*
X104623763Y-71128763D01*
X104631528Y-71122390D01*
X104640392Y-71117652D01*
X104650001Y-71114737D01*
X104666140Y-71113148D01*
X106153860Y-71113148D01*
X106169999Y-71114737D01*
G37*
G36*
X108709999Y-71114737D02*
G01*
X108719608Y-71117652D01*
X108728472Y-71122390D01*
X108736237Y-71128763D01*
X108742610Y-71136528D01*
X108747348Y-71145392D01*
X108750263Y-71155001D01*
X108751852Y-71171140D01*
X108751852Y-72158860D01*
X108750263Y-72174999D01*
X108747348Y-72184608D01*
X108742610Y-72193472D01*
X108736258Y-72201212D01*
X108736237Y-72201237D01*
X108728427Y-72207640D01*
X108728372Y-72207677D01*
X108718853Y-72215480D01*
X108718878Y-72215511D01*
X108705028Y-72226853D01*
X108689463Y-72245779D01*
X108677889Y-72267377D01*
X108670751Y-72290819D01*
X108668324Y-72315202D01*
X108670700Y-72339591D01*
X108677789Y-72363047D01*
X108689318Y-72384670D01*
X108704843Y-72403628D01*
X108723769Y-72419193D01*
X108726825Y-72421029D01*
X108728514Y-72422418D01*
X108728516Y-72422419D01*
X108734712Y-72427515D01*
X108736274Y-72428800D01*
X108742642Y-72436575D01*
X108745791Y-72442483D01*
X108747367Y-72445438D01*
X108750212Y-72454853D01*
X108750282Y-72455085D01*
X108751852Y-72471113D01*
X108751852Y-73608860D01*
X108750263Y-73624999D01*
X108747348Y-73634608D01*
X108742610Y-73643472D01*
X108736237Y-73651237D01*
X108728472Y-73657610D01*
X108719608Y-73662348D01*
X108709999Y-73665263D01*
X108693860Y-73666852D01*
X107206140Y-73666852D01*
X107190001Y-73665263D01*
X107180392Y-73662348D01*
X107171528Y-73657610D01*
X107163763Y-73651237D01*
X107157390Y-73643472D01*
X107152652Y-73634608D01*
X107149737Y-73624999D01*
X107148148Y-73608860D01*
X107148148Y-72471140D01*
X107149737Y-72455001D01*
X107152652Y-72445392D01*
X107157390Y-72436528D01*
X107163763Y-72428763D01*
X107176737Y-72418116D01*
X107185968Y-72411947D01*
X107203294Y-72394619D01*
X107216907Y-72374244D01*
X107226283Y-72351605D01*
X107231063Y-72327572D01*
X107231062Y-72303068D01*
X107226280Y-72279035D01*
X107216902Y-72256396D01*
X107203287Y-72236022D01*
X107185959Y-72218696D01*
X107176683Y-72211825D01*
X107163800Y-72201274D01*
X107162668Y-72199897D01*
X107157419Y-72193516D01*
X107152674Y-72184661D01*
X107151749Y-72181623D01*
X107149758Y-72175085D01*
X107149758Y-72175082D01*
X107149748Y-72175050D01*
X107148753Y-72165000D01*
X107148753Y-72164935D01*
X107148148Y-72158825D01*
X107148148Y-71171140D01*
X107149737Y-71155001D01*
X107152652Y-71145392D01*
X107157390Y-71136528D01*
X107163763Y-71128763D01*
X107171528Y-71122390D01*
X107180392Y-71117652D01*
X107190001Y-71114737D01*
X107206140Y-71113148D01*
X108693860Y-71113148D01*
X108709999Y-71114737D01*
G37*
G36*
X206251000Y-72961000D02*
G01*
X204549000Y-72961000D01*
X204549000Y-72159000D01*
X206251000Y-72159000D01*
X206251000Y-72961000D01*
G37*
G36*
X175526000Y-72656000D02*
G01*
X173724000Y-72656000D01*
X173724000Y-69054000D01*
X175526000Y-69054000D01*
X175526000Y-72656000D01*
G37*
G36*
X134886000Y-72656000D02*
G01*
X133084000Y-72656000D01*
X133084000Y-69054000D01*
X134886000Y-69054000D01*
X134886000Y-72656000D01*
G37*
G36*
X137426000Y-72656000D02*
G01*
X135624000Y-72656000D01*
X135624000Y-69054000D01*
X137426000Y-69054000D01*
X137426000Y-72656000D01*
G37*
G36*
X139966000Y-72656000D02*
G01*
X138164000Y-72656000D01*
X138164000Y-69054000D01*
X139966000Y-69054000D01*
X139966000Y-72656000D01*
G37*
G36*
X142506000Y-72656000D02*
G01*
X140704000Y-72656000D01*
X140704000Y-69054000D01*
X142506000Y-69054000D01*
X142506000Y-72656000D01*
G37*
G36*
X145046000Y-72656000D02*
G01*
X143244000Y-72656000D01*
X143244000Y-69054000D01*
X145046000Y-69054000D01*
X145046000Y-72656000D01*
G37*
G36*
X147586000Y-72656000D02*
G01*
X145784000Y-72656000D01*
X145784000Y-69054000D01*
X147586000Y-69054000D01*
X147586000Y-72656000D01*
G37*
G36*
X150126000Y-72656000D02*
G01*
X148324000Y-72656000D01*
X148324000Y-69054000D01*
X150126000Y-69054000D01*
X150126000Y-72656000D01*
G37*
G36*
X152666000Y-72656000D02*
G01*
X150864000Y-72656000D01*
X150864000Y-69054000D01*
X152666000Y-69054000D01*
X152666000Y-72656000D01*
G37*
G36*
X155206000Y-72656000D02*
G01*
X153404000Y-72656000D01*
X153404000Y-69054000D01*
X155206000Y-69054000D01*
X155206000Y-72656000D01*
G37*
G36*
X157746000Y-72656000D02*
G01*
X155944000Y-72656000D01*
X155944000Y-69054000D01*
X157746000Y-69054000D01*
X157746000Y-72656000D01*
G37*
G36*
X172986000Y-72656000D02*
G01*
X171184000Y-72656000D01*
X171184000Y-69054000D01*
X172986000Y-69054000D01*
X172986000Y-72656000D01*
G37*
G36*
X178066000Y-72656000D02*
G01*
X176264000Y-72656000D01*
X176264000Y-69054000D01*
X178066000Y-69054000D01*
X178066000Y-72656000D01*
G37*
G36*
X180606000Y-72656000D02*
G01*
X178804000Y-72656000D01*
X178804000Y-69054000D01*
X180606000Y-69054000D01*
X180606000Y-72656000D01*
G37*
G36*
X183146000Y-72656000D02*
G01*
X181344000Y-72656000D01*
X181344000Y-69054000D01*
X183146000Y-69054000D01*
X183146000Y-72656000D01*
G37*
G36*
X170446000Y-72656000D02*
G01*
X168644000Y-72656000D01*
X168644000Y-69054000D01*
X170446000Y-69054000D01*
X170446000Y-72656000D01*
G37*
G36*
X167906000Y-72656000D02*
G01*
X166104000Y-72656000D01*
X166104000Y-69054000D01*
X167906000Y-69054000D01*
X167906000Y-72656000D01*
G37*
G36*
X165366000Y-72656000D02*
G01*
X163564000Y-72656000D01*
X163564000Y-69054000D01*
X165366000Y-69054000D01*
X165366000Y-72656000D01*
G37*
G36*
X162826000Y-72656000D02*
G01*
X161024000Y-72656000D01*
X161024000Y-69054000D01*
X162826000Y-69054000D01*
X162826000Y-72656000D01*
G37*
G36*
X160286000Y-72656000D02*
G01*
X158484000Y-72656000D01*
X158484000Y-69054000D01*
X160286000Y-69054000D01*
X160286000Y-72656000D01*
G37*
G36*
X206251000Y-71861000D02*
G01*
X204549000Y-71861000D01*
X204549000Y-71059000D01*
X206251000Y-71059000D01*
X206251000Y-71861000D01*
G37*
G36*
X110603512Y-66413927D02*
G01*
X110752812Y-66443624D01*
X110916784Y-66511544D01*
X111064354Y-66610147D01*
X111189853Y-66735646D01*
X111288456Y-66883216D01*
X111356376Y-67047188D01*
X111391000Y-67221259D01*
X111391000Y-67398741D01*
X111356376Y-67572812D01*
X111288456Y-67736784D01*
X111189853Y-67884354D01*
X111064354Y-68009853D01*
X110916784Y-68108456D01*
X110752812Y-68176376D01*
X110603512Y-68206073D01*
X110578742Y-68211000D01*
X110401258Y-68211000D01*
X110376488Y-68206073D01*
X110227188Y-68176376D01*
X110063216Y-68108456D01*
X109915646Y-68009853D01*
X109790147Y-67884354D01*
X109691544Y-67736784D01*
X109623624Y-67572812D01*
X109589000Y-67398741D01*
X109589000Y-67221259D01*
X109623624Y-67047188D01*
X109691544Y-66883216D01*
X109790147Y-66735646D01*
X109915646Y-66610147D01*
X110063216Y-66511544D01*
X110227188Y-66443624D01*
X110376488Y-66413927D01*
X110401258Y-66409000D01*
X110578742Y-66409000D01*
X110603512Y-66413927D01*
G37*
G36*
X105523512Y-66413927D02*
G01*
X105672812Y-66443624D01*
X105836784Y-66511544D01*
X105984354Y-66610147D01*
X106109853Y-66735646D01*
X106208456Y-66883216D01*
X106276376Y-67047188D01*
X106311000Y-67221259D01*
X106311000Y-67398741D01*
X106276376Y-67572812D01*
X106208456Y-67736784D01*
X106109853Y-67884354D01*
X105984354Y-68009853D01*
X105836784Y-68108456D01*
X105672812Y-68176376D01*
X105523512Y-68206073D01*
X105498742Y-68211000D01*
X105321258Y-68211000D01*
X105296488Y-68206073D01*
X105147188Y-68176376D01*
X104983216Y-68108456D01*
X104835646Y-68009853D01*
X104710147Y-67884354D01*
X104611544Y-67736784D01*
X104543624Y-67572812D01*
X104509000Y-67398741D01*
X104509000Y-67221259D01*
X104543624Y-67047188D01*
X104611544Y-66883216D01*
X104710147Y-66735646D01*
X104835646Y-66610147D01*
X104983216Y-66511544D01*
X105147188Y-66443624D01*
X105296488Y-66413927D01*
X105321258Y-66409000D01*
X105498742Y-66409000D01*
X105523512Y-66413927D01*
G37*
G36*
X108063512Y-66413927D02*
G01*
X108212812Y-66443624D01*
X108376784Y-66511544D01*
X108524354Y-66610147D01*
X108649853Y-66735646D01*
X108748456Y-66883216D01*
X108816376Y-67047188D01*
X108851000Y-67221259D01*
X108851000Y-67398741D01*
X108816376Y-67572812D01*
X108748456Y-67736784D01*
X108649853Y-67884354D01*
X108524354Y-68009853D01*
X108376784Y-68108456D01*
X108212812Y-68176376D01*
X108063512Y-68206073D01*
X108038742Y-68211000D01*
X107861258Y-68211000D01*
X107836488Y-68206073D01*
X107687188Y-68176376D01*
X107523216Y-68108456D01*
X107375646Y-68009853D01*
X107250147Y-67884354D01*
X107151544Y-67736784D01*
X107083624Y-67572812D01*
X107049000Y-67398741D01*
X107049000Y-67221259D01*
X107083624Y-67047188D01*
X107151544Y-66883216D01*
X107250147Y-66735646D01*
X107375646Y-66610147D01*
X107523216Y-66511544D01*
X107687188Y-66443624D01*
X107836488Y-66413927D01*
X107861258Y-66409000D01*
X108038742Y-66409000D01*
X108063512Y-66413927D01*
G37*
G36*
X113931000Y-68211000D02*
G01*
X112129000Y-68211000D01*
X112129000Y-66409000D01*
X113931000Y-66409000D01*
X113931000Y-68211000D01*
G37*
G36*
X206651000Y-67661000D02*
G01*
X205149000Y-67661000D01*
X205149000Y-65959000D01*
X206651000Y-65959000D01*
X206651000Y-67661000D01*
G37*
G36*
X216651000Y-66561000D02*
G01*
X214349000Y-66561000D01*
X214349000Y-65259000D01*
X216651000Y-65259000D01*
X216651000Y-66561000D01*
G37*
G36*
X175117000Y-65373000D02*
G01*
X173815000Y-65373000D01*
X173815000Y-64371000D01*
X175117000Y-64371000D01*
X175117000Y-65373000D01*
G37*
G36*
X172577000Y-65373000D02*
G01*
X171275000Y-65373000D01*
X171275000Y-64371000D01*
X172577000Y-64371000D01*
X172577000Y-65373000D01*
G37*
G36*
X182737000Y-65246000D02*
G01*
X181435000Y-65246000D01*
X181435000Y-64244000D01*
X182737000Y-64244000D01*
X182737000Y-65246000D01*
G37*
G36*
X180197000Y-65246000D02*
G01*
X178895000Y-65246000D01*
X178895000Y-64244000D01*
X180197000Y-64244000D01*
X180197000Y-65246000D01*
G37*
G36*
X106169999Y-60954737D02*
G01*
X106179608Y-60957652D01*
X106188472Y-60962390D01*
X106196237Y-60968763D01*
X106202610Y-60976528D01*
X106207348Y-60985392D01*
X106210263Y-60995001D01*
X106211852Y-61011140D01*
X106211852Y-62148860D01*
X106210263Y-62164999D01*
X106207348Y-62174608D01*
X106202610Y-62183472D01*
X106196237Y-62191237D01*
X106183263Y-62201884D01*
X106174032Y-62208053D01*
X106156706Y-62225381D01*
X106143093Y-62245756D01*
X106133717Y-62268395D01*
X106128937Y-62292428D01*
X106128938Y-62316932D01*
X106133720Y-62340965D01*
X106143098Y-62363604D01*
X106156713Y-62383978D01*
X106174041Y-62401304D01*
X106183317Y-62408175D01*
X106188427Y-62412360D01*
X106196199Y-62418725D01*
X106202581Y-62426484D01*
X106207326Y-62435339D01*
X106207326Y-62435340D01*
X106210242Y-62444915D01*
X106210242Y-62444918D01*
X106210252Y-62444950D01*
X106211247Y-62455000D01*
X106211247Y-62455065D01*
X106211852Y-62461175D01*
X106211852Y-63448860D01*
X106210263Y-63464999D01*
X106207348Y-63474608D01*
X106202610Y-63483472D01*
X106196237Y-63491237D01*
X106188472Y-63497610D01*
X106179608Y-63502348D01*
X106169999Y-63505263D01*
X106153860Y-63506852D01*
X104666140Y-63506852D01*
X104650001Y-63505263D01*
X104640392Y-63502348D01*
X104631528Y-63497610D01*
X104623763Y-63491237D01*
X104617390Y-63483472D01*
X104612652Y-63474608D01*
X104609737Y-63464999D01*
X104608148Y-63448860D01*
X104608148Y-62461140D01*
X104609737Y-62445001D01*
X104612652Y-62435392D01*
X104617390Y-62426528D01*
X104623742Y-62418788D01*
X104623743Y-62418787D01*
X104623763Y-62418763D01*
X104631573Y-62412360D01*
X104631628Y-62412323D01*
X104641147Y-62404520D01*
X104641122Y-62404489D01*
X104654972Y-62393147D01*
X104670537Y-62374221D01*
X104682111Y-62352623D01*
X104689249Y-62329181D01*
X104691676Y-62304798D01*
X104689300Y-62280409D01*
X104682211Y-62256953D01*
X104670682Y-62235330D01*
X104655157Y-62216372D01*
X104636231Y-62200807D01*
X104633175Y-62198971D01*
X104631486Y-62197582D01*
X104631484Y-62197581D01*
X104623725Y-62191199D01*
X104621603Y-62188608D01*
X104617358Y-62183425D01*
X104614209Y-62177517D01*
X104612633Y-62174562D01*
X104609727Y-62164945D01*
X104609718Y-62164915D01*
X104608148Y-62148887D01*
X104608148Y-61011140D01*
X104609737Y-60995001D01*
X104612652Y-60985392D01*
X104617390Y-60976528D01*
X104623763Y-60968763D01*
X104631528Y-60962390D01*
X104640392Y-60957652D01*
X104650001Y-60954737D01*
X104666140Y-60953148D01*
X106153860Y-60953148D01*
X106169999Y-60954737D01*
G37*
G36*
X108709999Y-60954737D02*
G01*
X108719608Y-60957652D01*
X108728472Y-60962390D01*
X108736237Y-60968763D01*
X108742610Y-60976528D01*
X108747348Y-60985392D01*
X108750263Y-60995001D01*
X108751852Y-61011140D01*
X108751852Y-62148860D01*
X108750263Y-62164999D01*
X108747348Y-62174608D01*
X108742610Y-62183472D01*
X108736237Y-62191237D01*
X108723263Y-62201884D01*
X108714032Y-62208053D01*
X108696706Y-62225381D01*
X108683093Y-62245756D01*
X108673717Y-62268395D01*
X108668937Y-62292428D01*
X108668938Y-62316932D01*
X108673720Y-62340965D01*
X108683098Y-62363604D01*
X108696713Y-62383978D01*
X108714041Y-62401304D01*
X108723317Y-62408175D01*
X108728427Y-62412360D01*
X108736199Y-62418725D01*
X108742581Y-62426484D01*
X108747326Y-62435339D01*
X108747326Y-62435340D01*
X108750242Y-62444915D01*
X108750242Y-62444918D01*
X108750252Y-62444950D01*
X108751247Y-62455000D01*
X108751247Y-62455065D01*
X108751852Y-62461175D01*
X108751852Y-63448860D01*
X108750263Y-63464999D01*
X108747348Y-63474608D01*
X108742610Y-63483472D01*
X108736237Y-63491237D01*
X108728472Y-63497610D01*
X108719608Y-63502348D01*
X108709999Y-63505263D01*
X108693860Y-63506852D01*
X107206140Y-63506852D01*
X107190001Y-63505263D01*
X107180392Y-63502348D01*
X107171528Y-63497610D01*
X107163763Y-63491237D01*
X107157390Y-63483472D01*
X107152652Y-63474608D01*
X107149737Y-63464999D01*
X107148148Y-63448860D01*
X107148148Y-62461140D01*
X107149737Y-62445001D01*
X107152652Y-62435392D01*
X107157390Y-62426528D01*
X107163742Y-62418788D01*
X107163743Y-62418787D01*
X107163763Y-62418763D01*
X107171573Y-62412360D01*
X107171628Y-62412323D01*
X107181147Y-62404520D01*
X107181122Y-62404489D01*
X107194972Y-62393147D01*
X107210537Y-62374221D01*
X107222111Y-62352623D01*
X107229249Y-62329181D01*
X107231676Y-62304798D01*
X107229300Y-62280409D01*
X107222211Y-62256953D01*
X107210682Y-62235330D01*
X107195157Y-62216372D01*
X107176231Y-62200807D01*
X107173175Y-62198971D01*
X107171486Y-62197582D01*
X107171484Y-62197581D01*
X107163725Y-62191199D01*
X107161603Y-62188608D01*
X107157358Y-62183425D01*
X107154209Y-62177517D01*
X107152633Y-62174562D01*
X107149727Y-62164945D01*
X107149718Y-62164915D01*
X107148148Y-62148887D01*
X107148148Y-61011140D01*
X107149737Y-60995001D01*
X107152652Y-60985392D01*
X107157390Y-60976528D01*
X107163763Y-60968763D01*
X107171528Y-60962390D01*
X107180392Y-60957652D01*
X107190001Y-60954737D01*
X107206140Y-60953148D01*
X108693860Y-60953148D01*
X108709999Y-60954737D01*
G37*
G36*
X113621242Y-61503404D02*
G01*
X113658337Y-61514657D01*
X113692515Y-61532925D01*
X113722481Y-61557519D01*
X113747075Y-61587485D01*
X113765343Y-61621663D01*
X113776596Y-61658758D01*
X113781000Y-61703474D01*
X113781000Y-62596526D01*
X113776596Y-62641242D01*
X113765343Y-62678337D01*
X113747075Y-62712515D01*
X113722481Y-62742481D01*
X113692515Y-62767075D01*
X113658337Y-62785343D01*
X113621242Y-62796596D01*
X113576526Y-62801000D01*
X112483474Y-62801000D01*
X112438758Y-62796596D01*
X112401663Y-62785343D01*
X112367485Y-62767075D01*
X112337519Y-62742481D01*
X112312925Y-62712515D01*
X112294657Y-62678337D01*
X112283404Y-62641242D01*
X112279000Y-62596526D01*
X112279000Y-61703474D01*
X112283404Y-61658758D01*
X112294657Y-61621663D01*
X112312925Y-61587485D01*
X112337519Y-61557519D01*
X112367485Y-61532925D01*
X112401663Y-61514657D01*
X112438758Y-61503404D01*
X112483474Y-61499000D01*
X113576526Y-61499000D01*
X113621242Y-61503404D01*
G37*
G36*
X111081242Y-61503404D02*
G01*
X111118337Y-61514657D01*
X111152515Y-61532925D01*
X111182481Y-61557519D01*
X111207075Y-61587485D01*
X111225343Y-61621663D01*
X111236596Y-61658758D01*
X111241000Y-61703474D01*
X111241000Y-62596526D01*
X111236596Y-62641242D01*
X111225343Y-62678337D01*
X111207075Y-62712515D01*
X111182481Y-62742481D01*
X111152515Y-62767075D01*
X111118337Y-62785343D01*
X111081242Y-62796596D01*
X111036526Y-62801000D01*
X109943474Y-62801000D01*
X109898758Y-62796596D01*
X109861663Y-62785343D01*
X109827485Y-62767075D01*
X109797519Y-62742481D01*
X109772925Y-62712515D01*
X109754657Y-62678337D01*
X109743404Y-62641242D01*
X109739000Y-62596526D01*
X109739000Y-61703474D01*
X109743404Y-61658758D01*
X109754657Y-61621663D01*
X109772925Y-61587485D01*
X109797519Y-61557519D01*
X109827485Y-61532925D01*
X109861663Y-61514657D01*
X109898758Y-61503404D01*
X109943474Y-61499000D01*
X111036526Y-61499000D01*
X111081242Y-61503404D01*
G37*
G36*
X175117000Y-62073000D02*
G01*
X173815000Y-62073000D01*
X173815000Y-61071000D01*
X175117000Y-61071000D01*
X175117000Y-62073000D01*
G37*
G36*
X172577000Y-62073000D02*
G01*
X171275000Y-62073000D01*
X171275000Y-61071000D01*
X172577000Y-61071000D01*
X172577000Y-62073000D01*
G37*
G36*
X182737000Y-61946000D02*
G01*
X181435000Y-61946000D01*
X181435000Y-60944000D01*
X182737000Y-60944000D01*
X182737000Y-61946000D01*
G37*
G36*
X180197000Y-61946000D02*
G01*
X178895000Y-61946000D01*
X178895000Y-60944000D01*
X180197000Y-60944000D01*
X180197000Y-61946000D01*
G37*
G36*
X111081242Y-59503404D02*
G01*
X111118337Y-59514657D01*
X111152515Y-59532925D01*
X111182481Y-59557519D01*
X111207075Y-59587485D01*
X111225343Y-59621663D01*
X111236596Y-59658758D01*
X111241000Y-59703474D01*
X111241000Y-60596526D01*
X111236596Y-60641242D01*
X111225343Y-60678337D01*
X111207075Y-60712515D01*
X111182481Y-60742481D01*
X111152515Y-60767075D01*
X111118337Y-60785343D01*
X111081242Y-60796596D01*
X111036526Y-60801000D01*
X109943474Y-60801000D01*
X109898758Y-60796596D01*
X109861663Y-60785343D01*
X109827485Y-60767075D01*
X109797519Y-60742481D01*
X109772925Y-60712515D01*
X109754657Y-60678337D01*
X109743404Y-60641242D01*
X109739000Y-60596526D01*
X109739000Y-59703474D01*
X109743404Y-59658758D01*
X109754657Y-59621663D01*
X109772925Y-59587485D01*
X109797519Y-59557519D01*
X109827485Y-59532925D01*
X109861663Y-59514657D01*
X109898758Y-59503404D01*
X109943474Y-59499000D01*
X111036526Y-59499000D01*
X111081242Y-59503404D01*
G37*
G36*
X113621242Y-59503404D02*
G01*
X113658337Y-59514657D01*
X113692515Y-59532925D01*
X113722481Y-59557519D01*
X113747075Y-59587485D01*
X113765343Y-59621663D01*
X113776596Y-59658758D01*
X113781000Y-59703474D01*
X113781000Y-60596526D01*
X113776596Y-60641242D01*
X113765343Y-60678337D01*
X113747075Y-60712515D01*
X113722481Y-60742481D01*
X113692515Y-60767075D01*
X113658337Y-60785343D01*
X113621242Y-60796596D01*
X113576526Y-60801000D01*
X112483474Y-60801000D01*
X112438758Y-60796596D01*
X112401663Y-60785343D01*
X112367485Y-60767075D01*
X112337519Y-60742481D01*
X112312925Y-60712515D01*
X112294657Y-60678337D01*
X112283404Y-60641242D01*
X112279000Y-60596526D01*
X112279000Y-59703474D01*
X112283404Y-59658758D01*
X112294657Y-59621663D01*
X112312925Y-59587485D01*
X112337519Y-59557519D01*
X112367485Y-59532925D01*
X112401663Y-59514657D01*
X112438758Y-59503404D01*
X112483474Y-59499000D01*
X113576526Y-59499000D01*
X113621242Y-59503404D01*
G37*
G36*
X160921000Y-59321000D02*
G01*
X159119000Y-59321000D01*
X159119000Y-57519000D01*
X160921000Y-57519000D01*
X160921000Y-59321000D01*
G37*
G36*
X157593512Y-57523927D02*
G01*
X157742812Y-57553624D01*
X157906784Y-57621544D01*
X158054354Y-57720147D01*
X158179853Y-57845646D01*
X158278456Y-57993216D01*
X158346376Y-58157188D01*
X158381000Y-58331259D01*
X158381000Y-58508741D01*
X158346376Y-58682812D01*
X158278456Y-58846784D01*
X158179853Y-58994354D01*
X158054354Y-59119853D01*
X157906784Y-59218456D01*
X157742812Y-59286376D01*
X157593512Y-59316073D01*
X157568742Y-59321000D01*
X157391258Y-59321000D01*
X157366488Y-59316073D01*
X157217188Y-59286376D01*
X157053216Y-59218456D01*
X156905646Y-59119853D01*
X156780147Y-58994354D01*
X156681544Y-58846784D01*
X156613624Y-58682812D01*
X156579000Y-58508741D01*
X156579000Y-58331259D01*
X156613624Y-58157188D01*
X156681544Y-57993216D01*
X156780147Y-57845646D01*
X156905646Y-57720147D01*
X157053216Y-57621544D01*
X157217188Y-57553624D01*
X157366488Y-57523927D01*
X157391258Y-57519000D01*
X157568742Y-57519000D01*
X157593512Y-57523927D01*
G37*
G36*
X152513512Y-57523927D02*
G01*
X152662812Y-57553624D01*
X152826784Y-57621544D01*
X152974354Y-57720147D01*
X153099853Y-57845646D01*
X153198456Y-57993216D01*
X153266376Y-58157188D01*
X153301000Y-58331259D01*
X153301000Y-58508741D01*
X153266376Y-58682812D01*
X153198456Y-58846784D01*
X153099853Y-58994354D01*
X152974354Y-59119853D01*
X152826784Y-59218456D01*
X152662812Y-59286376D01*
X152513512Y-59316073D01*
X152488742Y-59321000D01*
X152311258Y-59321000D01*
X152286488Y-59316073D01*
X152137188Y-59286376D01*
X151973216Y-59218456D01*
X151825646Y-59119853D01*
X151700147Y-58994354D01*
X151601544Y-58846784D01*
X151533624Y-58682812D01*
X151499000Y-58508741D01*
X151499000Y-58331259D01*
X151533624Y-58157188D01*
X151601544Y-57993216D01*
X151700147Y-57845646D01*
X151825646Y-57720147D01*
X151973216Y-57621544D01*
X152137188Y-57553624D01*
X152286488Y-57523927D01*
X152311258Y-57519000D01*
X152488742Y-57519000D01*
X152513512Y-57523927D01*
G37*
G36*
X155053512Y-57523927D02*
G01*
X155202812Y-57553624D01*
X155366784Y-57621544D01*
X155514354Y-57720147D01*
X155639853Y-57845646D01*
X155738456Y-57993216D01*
X155806376Y-58157188D01*
X155841000Y-58331259D01*
X155841000Y-58508741D01*
X155806376Y-58682812D01*
X155738456Y-58846784D01*
X155639853Y-58994354D01*
X155514354Y-59119853D01*
X155366784Y-59218456D01*
X155202812Y-59286376D01*
X155053512Y-59316073D01*
X155028742Y-59321000D01*
X154851258Y-59321000D01*
X154826488Y-59316073D01*
X154677188Y-59286376D01*
X154513216Y-59218456D01*
X154365646Y-59119853D01*
X154240147Y-58994354D01*
X154141544Y-58846784D01*
X154073624Y-58682812D01*
X154039000Y-58508741D01*
X154039000Y-58331259D01*
X154073624Y-58157188D01*
X154141544Y-57993216D01*
X154240147Y-57845646D01*
X154365646Y-57720147D01*
X154513216Y-57621544D01*
X154677188Y-57553624D01*
X154826488Y-57523927D01*
X154851258Y-57519000D01*
X155028742Y-57519000D01*
X155053512Y-57523927D01*
G37*
G36*
X135220000Y-57154738D02*
G01*
X135229609Y-57157653D01*
X135238473Y-57162391D01*
X135246213Y-57168743D01*
X135246214Y-57168744D01*
X135246238Y-57168764D01*
X135252641Y-57176574D01*
X135252678Y-57176629D01*
X135260481Y-57186148D01*
X135260512Y-57186123D01*
X135271854Y-57199973D01*
X135290780Y-57215538D01*
X135312378Y-57227112D01*
X135335820Y-57234250D01*
X135360203Y-57236677D01*
X135384592Y-57234301D01*
X135408048Y-57227212D01*
X135429671Y-57215683D01*
X135448629Y-57200158D01*
X135464194Y-57181232D01*
X135466030Y-57178176D01*
X135467419Y-57176487D01*
X135467420Y-57176485D01*
X135473802Y-57168726D01*
X135481574Y-57162361D01*
X135481576Y-57162359D01*
X135490400Y-57157655D01*
X135490439Y-57157634D01*
X135500056Y-57154728D01*
X135500086Y-57154719D01*
X135516114Y-57153149D01*
X136653861Y-57153149D01*
X136670000Y-57154738D01*
X136679609Y-57157653D01*
X136688473Y-57162391D01*
X136696238Y-57168764D01*
X136702611Y-57176529D01*
X136707349Y-57185393D01*
X136710264Y-57195002D01*
X136711853Y-57211141D01*
X136711853Y-58698861D01*
X136710264Y-58715000D01*
X136707349Y-58724609D01*
X136702611Y-58733473D01*
X136696238Y-58741238D01*
X136688473Y-58747611D01*
X136679609Y-58752349D01*
X136670000Y-58755264D01*
X136653861Y-58756853D01*
X135516141Y-58756853D01*
X135500002Y-58755264D01*
X135490393Y-58752349D01*
X135481529Y-58747611D01*
X135473764Y-58741238D01*
X135463117Y-58728264D01*
X135456948Y-58719033D01*
X135439620Y-58701707D01*
X135419245Y-58688094D01*
X135396606Y-58678718D01*
X135372573Y-58673938D01*
X135348069Y-58673939D01*
X135324036Y-58678721D01*
X135301397Y-58688099D01*
X135281023Y-58701714D01*
X135263697Y-58719042D01*
X135256826Y-58728318D01*
X135252641Y-58733428D01*
X135246276Y-58741200D01*
X135238517Y-58747582D01*
X135229662Y-58752327D01*
X135226624Y-58753252D01*
X135220086Y-58755243D01*
X135220083Y-58755243D01*
X135220051Y-58755253D01*
X135210001Y-58756248D01*
X135209936Y-58756248D01*
X135203826Y-58756853D01*
X134216141Y-58756853D01*
X134200002Y-58755264D01*
X134190393Y-58752349D01*
X134181529Y-58747611D01*
X134173764Y-58741238D01*
X134167391Y-58733473D01*
X134162653Y-58724609D01*
X134159738Y-58715000D01*
X134158149Y-58698861D01*
X134158149Y-57211141D01*
X134159738Y-57195002D01*
X134162653Y-57185393D01*
X134167391Y-57176529D01*
X134173764Y-57168764D01*
X134181529Y-57162391D01*
X134190393Y-57157653D01*
X134200002Y-57154738D01*
X134216141Y-57153149D01*
X135203861Y-57153149D01*
X135220000Y-57154738D01*
G37*
G36*
X141875000Y-57777000D02*
G01*
X140573000Y-57777000D01*
X140573000Y-56775000D01*
X141875000Y-56775000D01*
X141875000Y-57777000D01*
G37*
G36*
X152931000Y-55051000D02*
G01*
X151129000Y-55051000D01*
X151129000Y-53249000D01*
X152931000Y-53249000D01*
X152931000Y-55051000D01*
G37*
G36*
X159763512Y-53253927D02*
G01*
X159912812Y-53283624D01*
X160076784Y-53351544D01*
X160224354Y-53450147D01*
X160349853Y-53575646D01*
X160448456Y-53723216D01*
X160516376Y-53887188D01*
X160551000Y-54061259D01*
X160551000Y-54238741D01*
X160516376Y-54412812D01*
X160448456Y-54576784D01*
X160349853Y-54724354D01*
X160224354Y-54849853D01*
X160076784Y-54948456D01*
X159912812Y-55016376D01*
X159763512Y-55046073D01*
X159738742Y-55051000D01*
X159561258Y-55051000D01*
X159536488Y-55046073D01*
X159387188Y-55016376D01*
X159223216Y-54948456D01*
X159075646Y-54849853D01*
X158950147Y-54724354D01*
X158851544Y-54576784D01*
X158783624Y-54412812D01*
X158749000Y-54238741D01*
X158749000Y-54061259D01*
X158783624Y-53887188D01*
X158851544Y-53723216D01*
X158950147Y-53575646D01*
X159075646Y-53450147D01*
X159223216Y-53351544D01*
X159387188Y-53283624D01*
X159536488Y-53253927D01*
X159561258Y-53249000D01*
X159738742Y-53249000D01*
X159763512Y-53253927D01*
G37*
G36*
X157223512Y-53253927D02*
G01*
X157372812Y-53283624D01*
X157536784Y-53351544D01*
X157684354Y-53450147D01*
X157809853Y-53575646D01*
X157908456Y-53723216D01*
X157976376Y-53887188D01*
X158011000Y-54061259D01*
X158011000Y-54238741D01*
X157976376Y-54412812D01*
X157908456Y-54576784D01*
X157809853Y-54724354D01*
X157684354Y-54849853D01*
X157536784Y-54948456D01*
X157372812Y-55016376D01*
X157223512Y-55046073D01*
X157198742Y-55051000D01*
X157021258Y-55051000D01*
X156996488Y-55046073D01*
X156847188Y-55016376D01*
X156683216Y-54948456D01*
X156535646Y-54849853D01*
X156410147Y-54724354D01*
X156311544Y-54576784D01*
X156243624Y-54412812D01*
X156209000Y-54238741D01*
X156209000Y-54061259D01*
X156243624Y-53887188D01*
X156311544Y-53723216D01*
X156410147Y-53575646D01*
X156535646Y-53450147D01*
X156683216Y-53351544D01*
X156847188Y-53283624D01*
X156996488Y-53253927D01*
X157021258Y-53249000D01*
X157198742Y-53249000D01*
X157223512Y-53253927D01*
G37*
G36*
X154683512Y-53253927D02*
G01*
X154832812Y-53283624D01*
X154996784Y-53351544D01*
X155144354Y-53450147D01*
X155269853Y-53575646D01*
X155368456Y-53723216D01*
X155436376Y-53887188D01*
X155471000Y-54061259D01*
X155471000Y-54238741D01*
X155436376Y-54412812D01*
X155368456Y-54576784D01*
X155269853Y-54724354D01*
X155144354Y-54849853D01*
X154996784Y-54948456D01*
X154832812Y-55016376D01*
X154683512Y-55046073D01*
X154658742Y-55051000D01*
X154481258Y-55051000D01*
X154456488Y-55046073D01*
X154307188Y-55016376D01*
X154143216Y-54948456D01*
X153995646Y-54849853D01*
X153870147Y-54724354D01*
X153771544Y-54576784D01*
X153703624Y-54412812D01*
X153669000Y-54238741D01*
X153669000Y-54061259D01*
X153703624Y-53887188D01*
X153771544Y-53723216D01*
X153870147Y-53575646D01*
X153995646Y-53450147D01*
X154143216Y-53351544D01*
X154307188Y-53283624D01*
X154456488Y-53253927D01*
X154481258Y-53249000D01*
X154658742Y-53249000D01*
X154683512Y-53253927D01*
G37*
G36*
X198233512Y-53078927D02*
G01*
X198382812Y-53108624D01*
X198546784Y-53176544D01*
X198694354Y-53275147D01*
X198819853Y-53400646D01*
X198918456Y-53548216D01*
X198986376Y-53712188D01*
X199021000Y-53886259D01*
X199021000Y-54063741D01*
X198986376Y-54237812D01*
X198918456Y-54401784D01*
X198819853Y-54549354D01*
X198694354Y-54674853D01*
X198546784Y-54773456D01*
X198382812Y-54841376D01*
X198233512Y-54871073D01*
X198208742Y-54876000D01*
X198031258Y-54876000D01*
X198006488Y-54871073D01*
X197857188Y-54841376D01*
X197693216Y-54773456D01*
X197545646Y-54674853D01*
X197420147Y-54549354D01*
X197321544Y-54401784D01*
X197253624Y-54237812D01*
X197219000Y-54063741D01*
X197219000Y-53886259D01*
X197253624Y-53712188D01*
X197321544Y-53548216D01*
X197420147Y-53400646D01*
X197545646Y-53275147D01*
X197693216Y-53176544D01*
X197857188Y-53108624D01*
X198006488Y-53078927D01*
X198031258Y-53074000D01*
X198208742Y-53074000D01*
X198233512Y-53078927D01*
G37*
G36*
X108063512Y-53078927D02*
G01*
X108212812Y-53108624D01*
X108376784Y-53176544D01*
X108524354Y-53275147D01*
X108649853Y-53400646D01*
X108748456Y-53548216D01*
X108816376Y-53712188D01*
X108851000Y-53886259D01*
X108851000Y-54063741D01*
X108816376Y-54237812D01*
X108748456Y-54401784D01*
X108649853Y-54549354D01*
X108524354Y-54674853D01*
X108376784Y-54773456D01*
X108212812Y-54841376D01*
X108063512Y-54871073D01*
X108038742Y-54876000D01*
X107861258Y-54876000D01*
X107836488Y-54871073D01*
X107687188Y-54841376D01*
X107523216Y-54773456D01*
X107375646Y-54674853D01*
X107250147Y-54549354D01*
X107151544Y-54401784D01*
X107083624Y-54237812D01*
X107049000Y-54063741D01*
X107049000Y-53886259D01*
X107083624Y-53712188D01*
X107151544Y-53548216D01*
X107250147Y-53400646D01*
X107375646Y-53275147D01*
X107523216Y-53176544D01*
X107687188Y-53108624D01*
X107836488Y-53078927D01*
X107861258Y-53074000D01*
X108038742Y-53074000D01*
X108063512Y-53078927D01*
G37*
G36*
X110603512Y-53078927D02*
G01*
X110752812Y-53108624D01*
X110916784Y-53176544D01*
X111064354Y-53275147D01*
X111189853Y-53400646D01*
X111288456Y-53548216D01*
X111356376Y-53712188D01*
X111391000Y-53886259D01*
X111391000Y-54063741D01*
X111356376Y-54237812D01*
X111288456Y-54401784D01*
X111189853Y-54549354D01*
X111064354Y-54674853D01*
X110916784Y-54773456D01*
X110752812Y-54841376D01*
X110603512Y-54871073D01*
X110578742Y-54876000D01*
X110401258Y-54876000D01*
X110376488Y-54871073D01*
X110227188Y-54841376D01*
X110063216Y-54773456D01*
X109915646Y-54674853D01*
X109790147Y-54549354D01*
X109691544Y-54401784D01*
X109623624Y-54237812D01*
X109589000Y-54063741D01*
X109589000Y-53886259D01*
X109623624Y-53712188D01*
X109691544Y-53548216D01*
X109790147Y-53400646D01*
X109915646Y-53275147D01*
X110063216Y-53176544D01*
X110227188Y-53108624D01*
X110376488Y-53078927D01*
X110401258Y-53074000D01*
X110578742Y-53074000D01*
X110603512Y-53078927D01*
G37*
G36*
X113143512Y-53078927D02*
G01*
X113292812Y-53108624D01*
X113456784Y-53176544D01*
X113604354Y-53275147D01*
X113729853Y-53400646D01*
X113828456Y-53548216D01*
X113896376Y-53712188D01*
X113931000Y-53886259D01*
X113931000Y-54063741D01*
X113896376Y-54237812D01*
X113828456Y-54401784D01*
X113729853Y-54549354D01*
X113604354Y-54674853D01*
X113456784Y-54773456D01*
X113292812Y-54841376D01*
X113143512Y-54871073D01*
X113118742Y-54876000D01*
X112941258Y-54876000D01*
X112916488Y-54871073D01*
X112767188Y-54841376D01*
X112603216Y-54773456D01*
X112455646Y-54674853D01*
X112330147Y-54549354D01*
X112231544Y-54401784D01*
X112163624Y-54237812D01*
X112129000Y-54063741D01*
X112129000Y-53886259D01*
X112163624Y-53712188D01*
X112231544Y-53548216D01*
X112330147Y-53400646D01*
X112455646Y-53275147D01*
X112603216Y-53176544D01*
X112767188Y-53108624D01*
X112916488Y-53078927D01*
X112941258Y-53074000D01*
X113118742Y-53074000D01*
X113143512Y-53078927D01*
G37*
G36*
X115683512Y-53078927D02*
G01*
X115832812Y-53108624D01*
X115996784Y-53176544D01*
X116144354Y-53275147D01*
X116269853Y-53400646D01*
X116368456Y-53548216D01*
X116436376Y-53712188D01*
X116471000Y-53886259D01*
X116471000Y-54063741D01*
X116436376Y-54237812D01*
X116368456Y-54401784D01*
X116269853Y-54549354D01*
X116144354Y-54674853D01*
X115996784Y-54773456D01*
X115832812Y-54841376D01*
X115683512Y-54871073D01*
X115658742Y-54876000D01*
X115481258Y-54876000D01*
X115456488Y-54871073D01*
X115307188Y-54841376D01*
X115143216Y-54773456D01*
X114995646Y-54674853D01*
X114870147Y-54549354D01*
X114771544Y-54401784D01*
X114703624Y-54237812D01*
X114669000Y-54063741D01*
X114669000Y-53886259D01*
X114703624Y-53712188D01*
X114771544Y-53548216D01*
X114870147Y-53400646D01*
X114995646Y-53275147D01*
X115143216Y-53176544D01*
X115307188Y-53108624D01*
X115456488Y-53078927D01*
X115481258Y-53074000D01*
X115658742Y-53074000D01*
X115683512Y-53078927D01*
G37*
G36*
X118223512Y-53078927D02*
G01*
X118372812Y-53108624D01*
X118536784Y-53176544D01*
X118684354Y-53275147D01*
X118809853Y-53400646D01*
X118908456Y-53548216D01*
X118976376Y-53712188D01*
X119011000Y-53886259D01*
X119011000Y-54063741D01*
X118976376Y-54237812D01*
X118908456Y-54401784D01*
X118809853Y-54549354D01*
X118684354Y-54674853D01*
X118536784Y-54773456D01*
X118372812Y-54841376D01*
X118223512Y-54871073D01*
X118198742Y-54876000D01*
X118021258Y-54876000D01*
X117996488Y-54871073D01*
X117847188Y-54841376D01*
X117683216Y-54773456D01*
X117535646Y-54674853D01*
X117410147Y-54549354D01*
X117311544Y-54401784D01*
X117243624Y-54237812D01*
X117209000Y-54063741D01*
X117209000Y-53886259D01*
X117243624Y-53712188D01*
X117311544Y-53548216D01*
X117410147Y-53400646D01*
X117535646Y-53275147D01*
X117683216Y-53176544D01*
X117847188Y-53108624D01*
X117996488Y-53078927D01*
X118021258Y-53074000D01*
X118198742Y-53074000D01*
X118223512Y-53078927D01*
G37*
G36*
X120763512Y-53078927D02*
G01*
X120912812Y-53108624D01*
X121076784Y-53176544D01*
X121224354Y-53275147D01*
X121349853Y-53400646D01*
X121448456Y-53548216D01*
X121516376Y-53712188D01*
X121551000Y-53886259D01*
X121551000Y-54063741D01*
X121516376Y-54237812D01*
X121448456Y-54401784D01*
X121349853Y-54549354D01*
X121224354Y-54674853D01*
X121076784Y-54773456D01*
X120912812Y-54841376D01*
X120763512Y-54871073D01*
X120738742Y-54876000D01*
X120561258Y-54876000D01*
X120536488Y-54871073D01*
X120387188Y-54841376D01*
X120223216Y-54773456D01*
X120075646Y-54674853D01*
X119950147Y-54549354D01*
X119851544Y-54401784D01*
X119783624Y-54237812D01*
X119749000Y-54063741D01*
X119749000Y-53886259D01*
X119783624Y-53712188D01*
X119851544Y-53548216D01*
X119950147Y-53400646D01*
X120075646Y-53275147D01*
X120223216Y-53176544D01*
X120387188Y-53108624D01*
X120536488Y-53078927D01*
X120561258Y-53074000D01*
X120738742Y-53074000D01*
X120763512Y-53078927D01*
G37*
G36*
X205853512Y-53078927D02*
G01*
X206002812Y-53108624D01*
X206166784Y-53176544D01*
X206314354Y-53275147D01*
X206439853Y-53400646D01*
X206538456Y-53548216D01*
X206606376Y-53712188D01*
X206641000Y-53886259D01*
X206641000Y-54063741D01*
X206606376Y-54237812D01*
X206538456Y-54401784D01*
X206439853Y-54549354D01*
X206314354Y-54674853D01*
X206166784Y-54773456D01*
X206002812Y-54841376D01*
X205853512Y-54871073D01*
X205828742Y-54876000D01*
X205651258Y-54876000D01*
X205626488Y-54871073D01*
X205477188Y-54841376D01*
X205313216Y-54773456D01*
X205165646Y-54674853D01*
X205040147Y-54549354D01*
X204941544Y-54401784D01*
X204873624Y-54237812D01*
X204839000Y-54063741D01*
X204839000Y-53886259D01*
X204873624Y-53712188D01*
X204941544Y-53548216D01*
X205040147Y-53400646D01*
X205165646Y-53275147D01*
X205313216Y-53176544D01*
X205477188Y-53108624D01*
X205626488Y-53078927D01*
X205651258Y-53074000D01*
X205828742Y-53074000D01*
X205853512Y-53078927D01*
G37*
G36*
X105523512Y-53078927D02*
G01*
X105672812Y-53108624D01*
X105836784Y-53176544D01*
X105984354Y-53275147D01*
X106109853Y-53400646D01*
X106208456Y-53548216D01*
X106276376Y-53712188D01*
X106311000Y-53886259D01*
X106311000Y-54063741D01*
X106276376Y-54237812D01*
X106208456Y-54401784D01*
X106109853Y-54549354D01*
X105984354Y-54674853D01*
X105836784Y-54773456D01*
X105672812Y-54841376D01*
X105523512Y-54871073D01*
X105498742Y-54876000D01*
X105321258Y-54876000D01*
X105296488Y-54871073D01*
X105147188Y-54841376D01*
X104983216Y-54773456D01*
X104835646Y-54674853D01*
X104710147Y-54549354D01*
X104611544Y-54401784D01*
X104543624Y-54237812D01*
X104509000Y-54063741D01*
X104509000Y-53886259D01*
X104543624Y-53712188D01*
X104611544Y-53548216D01*
X104710147Y-53400646D01*
X104835646Y-53275147D01*
X104983216Y-53176544D01*
X105147188Y-53108624D01*
X105296488Y-53078927D01*
X105321258Y-53074000D01*
X105498742Y-53074000D01*
X105523512Y-53078927D01*
G37*
G36*
X208393512Y-53078927D02*
G01*
X208542812Y-53108624D01*
X208706784Y-53176544D01*
X208854354Y-53275147D01*
X208979853Y-53400646D01*
X209078456Y-53548216D01*
X209146376Y-53712188D01*
X209181000Y-53886259D01*
X209181000Y-54063741D01*
X209146376Y-54237812D01*
X209078456Y-54401784D01*
X208979853Y-54549354D01*
X208854354Y-54674853D01*
X208706784Y-54773456D01*
X208542812Y-54841376D01*
X208393512Y-54871073D01*
X208368742Y-54876000D01*
X208191258Y-54876000D01*
X208166488Y-54871073D01*
X208017188Y-54841376D01*
X207853216Y-54773456D01*
X207705646Y-54674853D01*
X207580147Y-54549354D01*
X207481544Y-54401784D01*
X207413624Y-54237812D01*
X207379000Y-54063741D01*
X207379000Y-53886259D01*
X207413624Y-53712188D01*
X207481544Y-53548216D01*
X207580147Y-53400646D01*
X207705646Y-53275147D01*
X207853216Y-53176544D01*
X208017188Y-53108624D01*
X208166488Y-53078927D01*
X208191258Y-53074000D01*
X208368742Y-53074000D01*
X208393512Y-53078927D01*
G37*
G36*
X203313512Y-53078927D02*
G01*
X203462812Y-53108624D01*
X203626784Y-53176544D01*
X203774354Y-53275147D01*
X203899853Y-53400646D01*
X203998456Y-53548216D01*
X204066376Y-53712188D01*
X204101000Y-53886259D01*
X204101000Y-54063741D01*
X204066376Y-54237812D01*
X203998456Y-54401784D01*
X203899853Y-54549354D01*
X203774354Y-54674853D01*
X203626784Y-54773456D01*
X203462812Y-54841376D01*
X203313512Y-54871073D01*
X203288742Y-54876000D01*
X203111258Y-54876000D01*
X203086488Y-54871073D01*
X202937188Y-54841376D01*
X202773216Y-54773456D01*
X202625646Y-54674853D01*
X202500147Y-54549354D01*
X202401544Y-54401784D01*
X202333624Y-54237812D01*
X202299000Y-54063741D01*
X202299000Y-53886259D01*
X202333624Y-53712188D01*
X202401544Y-53548216D01*
X202500147Y-53400646D01*
X202625646Y-53275147D01*
X202773216Y-53176544D01*
X202937188Y-53108624D01*
X203086488Y-53078927D01*
X203111258Y-53074000D01*
X203288742Y-53074000D01*
X203313512Y-53078927D01*
G37*
G36*
X102983512Y-53078927D02*
G01*
X103132812Y-53108624D01*
X103296784Y-53176544D01*
X103444354Y-53275147D01*
X103569853Y-53400646D01*
X103668456Y-53548216D01*
X103736376Y-53712188D01*
X103771000Y-53886259D01*
X103771000Y-54063741D01*
X103736376Y-54237812D01*
X103668456Y-54401784D01*
X103569853Y-54549354D01*
X103444354Y-54674853D01*
X103296784Y-54773456D01*
X103132812Y-54841376D01*
X102983512Y-54871073D01*
X102958742Y-54876000D01*
X102781258Y-54876000D01*
X102756488Y-54871073D01*
X102607188Y-54841376D01*
X102443216Y-54773456D01*
X102295646Y-54674853D01*
X102170147Y-54549354D01*
X102071544Y-54401784D01*
X102003624Y-54237812D01*
X101969000Y-54063741D01*
X101969000Y-53886259D01*
X102003624Y-53712188D01*
X102071544Y-53548216D01*
X102170147Y-53400646D01*
X102295646Y-53275147D01*
X102443216Y-53176544D01*
X102607188Y-53108624D01*
X102756488Y-53078927D01*
X102781258Y-53074000D01*
X102958742Y-53074000D01*
X102983512Y-53078927D01*
G37*
G36*
X200773512Y-53078927D02*
G01*
X200922812Y-53108624D01*
X201086784Y-53176544D01*
X201234354Y-53275147D01*
X201359853Y-53400646D01*
X201458456Y-53548216D01*
X201526376Y-53712188D01*
X201561000Y-53886259D01*
X201561000Y-54063741D01*
X201526376Y-54237812D01*
X201458456Y-54401784D01*
X201359853Y-54549354D01*
X201234354Y-54674853D01*
X201086784Y-54773456D01*
X200922812Y-54841376D01*
X200773512Y-54871073D01*
X200748742Y-54876000D01*
X200571258Y-54876000D01*
X200546488Y-54871073D01*
X200397188Y-54841376D01*
X200233216Y-54773456D01*
X200085646Y-54674853D01*
X199960147Y-54549354D01*
X199861544Y-54401784D01*
X199793624Y-54237812D01*
X199759000Y-54063741D01*
X199759000Y-53886259D01*
X199793624Y-53712188D01*
X199861544Y-53548216D01*
X199960147Y-53400646D01*
X200085646Y-53275147D01*
X200233216Y-53176544D01*
X200397188Y-53108624D01*
X200546488Y-53078927D01*
X200571258Y-53074000D01*
X200748742Y-53074000D01*
X200773512Y-53078927D01*
G37*
G36*
X98691000Y-54876000D02*
G01*
X96889000Y-54876000D01*
X96889000Y-53074000D01*
X98691000Y-53074000D01*
X98691000Y-54876000D01*
G37*
G36*
X195693512Y-53078927D02*
G01*
X195842812Y-53108624D01*
X196006784Y-53176544D01*
X196154354Y-53275147D01*
X196279853Y-53400646D01*
X196378456Y-53548216D01*
X196446376Y-53712188D01*
X196481000Y-53886259D01*
X196481000Y-54063741D01*
X196446376Y-54237812D01*
X196378456Y-54401784D01*
X196279853Y-54549354D01*
X196154354Y-54674853D01*
X196006784Y-54773456D01*
X195842812Y-54841376D01*
X195693512Y-54871073D01*
X195668742Y-54876000D01*
X195491258Y-54876000D01*
X195466488Y-54871073D01*
X195317188Y-54841376D01*
X195153216Y-54773456D01*
X195005646Y-54674853D01*
X194880147Y-54549354D01*
X194781544Y-54401784D01*
X194713624Y-54237812D01*
X194679000Y-54063741D01*
X194679000Y-53886259D01*
X194713624Y-53712188D01*
X194781544Y-53548216D01*
X194880147Y-53400646D01*
X195005646Y-53275147D01*
X195153216Y-53176544D01*
X195317188Y-53108624D01*
X195466488Y-53078927D01*
X195491258Y-53074000D01*
X195668742Y-53074000D01*
X195693512Y-53078927D01*
G37*
G36*
X193153512Y-53078927D02*
G01*
X193302812Y-53108624D01*
X193466784Y-53176544D01*
X193614354Y-53275147D01*
X193739853Y-53400646D01*
X193838456Y-53548216D01*
X193906376Y-53712188D01*
X193941000Y-53886259D01*
X193941000Y-54063741D01*
X193906376Y-54237812D01*
X193838456Y-54401784D01*
X193739853Y-54549354D01*
X193614354Y-54674853D01*
X193466784Y-54773456D01*
X193302812Y-54841376D01*
X193153512Y-54871073D01*
X193128742Y-54876000D01*
X192951258Y-54876000D01*
X192926488Y-54871073D01*
X192777188Y-54841376D01*
X192613216Y-54773456D01*
X192465646Y-54674853D01*
X192340147Y-54549354D01*
X192241544Y-54401784D01*
X192173624Y-54237812D01*
X192139000Y-54063741D01*
X192139000Y-53886259D01*
X192173624Y-53712188D01*
X192241544Y-53548216D01*
X192340147Y-53400646D01*
X192465646Y-53275147D01*
X192613216Y-53176544D01*
X192777188Y-53108624D01*
X192926488Y-53078927D01*
X192951258Y-53074000D01*
X193128742Y-53074000D01*
X193153512Y-53078927D01*
G37*
G36*
X190613512Y-53078927D02*
G01*
X190762812Y-53108624D01*
X190926784Y-53176544D01*
X191074354Y-53275147D01*
X191199853Y-53400646D01*
X191298456Y-53548216D01*
X191366376Y-53712188D01*
X191401000Y-53886259D01*
X191401000Y-54063741D01*
X191366376Y-54237812D01*
X191298456Y-54401784D01*
X191199853Y-54549354D01*
X191074354Y-54674853D01*
X190926784Y-54773456D01*
X190762812Y-54841376D01*
X190613512Y-54871073D01*
X190588742Y-54876000D01*
X190411258Y-54876000D01*
X190386488Y-54871073D01*
X190237188Y-54841376D01*
X190073216Y-54773456D01*
X189925646Y-54674853D01*
X189800147Y-54549354D01*
X189701544Y-54401784D01*
X189633624Y-54237812D01*
X189599000Y-54063741D01*
X189599000Y-53886259D01*
X189633624Y-53712188D01*
X189701544Y-53548216D01*
X189800147Y-53400646D01*
X189925646Y-53275147D01*
X190073216Y-53176544D01*
X190237188Y-53108624D01*
X190386488Y-53078927D01*
X190411258Y-53074000D01*
X190588742Y-53074000D01*
X190613512Y-53078927D01*
G37*
G36*
X188073512Y-53078927D02*
G01*
X188222812Y-53108624D01*
X188386784Y-53176544D01*
X188534354Y-53275147D01*
X188659853Y-53400646D01*
X188758456Y-53548216D01*
X188826376Y-53712188D01*
X188861000Y-53886259D01*
X188861000Y-54063741D01*
X188826376Y-54237812D01*
X188758456Y-54401784D01*
X188659853Y-54549354D01*
X188534354Y-54674853D01*
X188386784Y-54773456D01*
X188222812Y-54841376D01*
X188073512Y-54871073D01*
X188048742Y-54876000D01*
X187871258Y-54876000D01*
X187846488Y-54871073D01*
X187697188Y-54841376D01*
X187533216Y-54773456D01*
X187385646Y-54674853D01*
X187260147Y-54549354D01*
X187161544Y-54401784D01*
X187093624Y-54237812D01*
X187059000Y-54063741D01*
X187059000Y-53886259D01*
X187093624Y-53712188D01*
X187161544Y-53548216D01*
X187260147Y-53400646D01*
X187385646Y-53275147D01*
X187533216Y-53176544D01*
X187697188Y-53108624D01*
X187846488Y-53078927D01*
X187871258Y-53074000D01*
X188048742Y-53074000D01*
X188073512Y-53078927D01*
G37*
G36*
X186321000Y-54876000D02*
G01*
X184519000Y-54876000D01*
X184519000Y-53074000D01*
X186321000Y-53074000D01*
X186321000Y-54876000D01*
G37*
G36*
X137273512Y-53078927D02*
G01*
X137422812Y-53108624D01*
X137586784Y-53176544D01*
X137734354Y-53275147D01*
X137859853Y-53400646D01*
X137958456Y-53548216D01*
X138026376Y-53712188D01*
X138061000Y-53886259D01*
X138061000Y-54063741D01*
X138026376Y-54237812D01*
X137958456Y-54401784D01*
X137859853Y-54549354D01*
X137734354Y-54674853D01*
X137586784Y-54773456D01*
X137422812Y-54841376D01*
X137273512Y-54871073D01*
X137248742Y-54876000D01*
X137071258Y-54876000D01*
X137046488Y-54871073D01*
X136897188Y-54841376D01*
X136733216Y-54773456D01*
X136585646Y-54674853D01*
X136460147Y-54549354D01*
X136361544Y-54401784D01*
X136293624Y-54237812D01*
X136259000Y-54063741D01*
X136259000Y-53886259D01*
X136293624Y-53712188D01*
X136361544Y-53548216D01*
X136460147Y-53400646D01*
X136585646Y-53275147D01*
X136733216Y-53176544D01*
X136897188Y-53108624D01*
X137046488Y-53078927D01*
X137071258Y-53074000D01*
X137248742Y-53074000D01*
X137273512Y-53078927D01*
G37*
G36*
X135521000Y-54876000D02*
G01*
X133719000Y-54876000D01*
X133719000Y-53074000D01*
X135521000Y-53074000D01*
X135521000Y-54876000D01*
G37*
G36*
X128383512Y-53078927D02*
G01*
X128532812Y-53108624D01*
X128696784Y-53176544D01*
X128844354Y-53275147D01*
X128969853Y-53400646D01*
X129068456Y-53548216D01*
X129136376Y-53712188D01*
X129171000Y-53886259D01*
X129171000Y-54063741D01*
X129136376Y-54237812D01*
X129068456Y-54401784D01*
X128969853Y-54549354D01*
X128844354Y-54674853D01*
X128696784Y-54773456D01*
X128532812Y-54841376D01*
X128383512Y-54871073D01*
X128358742Y-54876000D01*
X128181258Y-54876000D01*
X128156488Y-54871073D01*
X128007188Y-54841376D01*
X127843216Y-54773456D01*
X127695646Y-54674853D01*
X127570147Y-54549354D01*
X127471544Y-54401784D01*
X127403624Y-54237812D01*
X127369000Y-54063741D01*
X127369000Y-53886259D01*
X127403624Y-53712188D01*
X127471544Y-53548216D01*
X127570147Y-53400646D01*
X127695646Y-53275147D01*
X127843216Y-53176544D01*
X128007188Y-53108624D01*
X128156488Y-53078927D01*
X128181258Y-53074000D01*
X128358742Y-53074000D01*
X128383512Y-53078927D01*
G37*
G36*
X125843512Y-53078927D02*
G01*
X125992812Y-53108624D01*
X126156784Y-53176544D01*
X126304354Y-53275147D01*
X126429853Y-53400646D01*
X126528456Y-53548216D01*
X126596376Y-53712188D01*
X126631000Y-53886259D01*
X126631000Y-54063741D01*
X126596376Y-54237812D01*
X126528456Y-54401784D01*
X126429853Y-54549354D01*
X126304354Y-54674853D01*
X126156784Y-54773456D01*
X125992812Y-54841376D01*
X125843512Y-54871073D01*
X125818742Y-54876000D01*
X125641258Y-54876000D01*
X125616488Y-54871073D01*
X125467188Y-54841376D01*
X125303216Y-54773456D01*
X125155646Y-54674853D01*
X125030147Y-54549354D01*
X124931544Y-54401784D01*
X124863624Y-54237812D01*
X124829000Y-54063741D01*
X124829000Y-53886259D01*
X124863624Y-53712188D01*
X124931544Y-53548216D01*
X125030147Y-53400646D01*
X125155646Y-53275147D01*
X125303216Y-53176544D01*
X125467188Y-53108624D01*
X125616488Y-53078927D01*
X125641258Y-53074000D01*
X125818742Y-53074000D01*
X125843512Y-53078927D01*
G37*
G36*
X123303512Y-53078927D02*
G01*
X123452812Y-53108624D01*
X123616784Y-53176544D01*
X123764354Y-53275147D01*
X123889853Y-53400646D01*
X123988456Y-53548216D01*
X124056376Y-53712188D01*
X124091000Y-53886259D01*
X124091000Y-54063741D01*
X124056376Y-54237812D01*
X123988456Y-54401784D01*
X123889853Y-54549354D01*
X123764354Y-54674853D01*
X123616784Y-54773456D01*
X123452812Y-54841376D01*
X123303512Y-54871073D01*
X123278742Y-54876000D01*
X123101258Y-54876000D01*
X123076488Y-54871073D01*
X122927188Y-54841376D01*
X122763216Y-54773456D01*
X122615646Y-54674853D01*
X122490147Y-54549354D01*
X122391544Y-54401784D01*
X122323624Y-54237812D01*
X122289000Y-54063741D01*
X122289000Y-53886259D01*
X122323624Y-53712188D01*
X122391544Y-53548216D01*
X122490147Y-53400646D01*
X122615646Y-53275147D01*
X122763216Y-53176544D01*
X122927188Y-53108624D01*
X123076488Y-53078927D01*
X123101258Y-53074000D01*
X123278742Y-53074000D01*
X123303512Y-53078927D01*
G37*
G36*
X100443512Y-53078927D02*
G01*
X100592812Y-53108624D01*
X100756784Y-53176544D01*
X100904354Y-53275147D01*
X101029853Y-53400646D01*
X101128456Y-53548216D01*
X101196376Y-53712188D01*
X101231000Y-53886259D01*
X101231000Y-54063741D01*
X101196376Y-54237812D01*
X101128456Y-54401784D01*
X101029853Y-54549354D01*
X100904354Y-54674853D01*
X100756784Y-54773456D01*
X100592812Y-54841376D01*
X100443512Y-54871073D01*
X100418742Y-54876000D01*
X100241258Y-54876000D01*
X100216488Y-54871073D01*
X100067188Y-54841376D01*
X99903216Y-54773456D01*
X99755646Y-54674853D01*
X99630147Y-54549354D01*
X99531544Y-54401784D01*
X99463624Y-54237812D01*
X99429000Y-54063741D01*
X99429000Y-53886259D01*
X99463624Y-53712188D01*
X99531544Y-53548216D01*
X99630147Y-53400646D01*
X99755646Y-53275147D01*
X99903216Y-53176544D01*
X100067188Y-53108624D01*
X100216488Y-53078927D01*
X100241258Y-53074000D01*
X100418742Y-53074000D01*
X100443512Y-53078927D01*
G37*
G36*
X141875000Y-54477000D02*
G01*
X140573000Y-54477000D01*
X140573000Y-53475000D01*
X141875000Y-53475000D01*
X141875000Y-54477000D01*
G37*
M02*
