M48
; DRILL file {KiCad 5.1.5+dfsg1-2build2} date Sun 24 Dec 2023 06:28:22 GMT
; FORMAT={-:-/ absolute / inch / decimal}
; #@! TF.CreationDate,2023-12-24T06:28:22+00:00
; #@! TF.GenerationSoftware,Kicad,Pcbnew,5.1.5+dfsg1-2build2
; #@! TF.FileFunction,Plated,1,2,PTH
FMAT,2
INCH
T1C0.0157
T2C0.0394
T3C0.0402
T4C0.0433
T5C0.1260
%
G90
G05
T1
X3.92Y-5.24
X3.93Y-3.79
X3.99Y-5.27
X4.04Y-3.83
X4.08Y-2.28
X4.08Y-2.48
X4.19Y-3.78
X4.35Y-2.49
X4.35Y-2.81
X4.41Y-2.3
X4.41Y-2.95
X4.4215Y-2.5013
X4.5Y-2.58
X4.52Y-2.45
X4.55Y-4.78
X4.55Y-5.15
X4.56Y-2.64
X4.66Y-2.67
X4.69Y-2.58
X4.75Y-2.94
X4.8Y-4.01
X4.85Y-2.9
X4.91Y-2.29
X4.91Y-2.43
X4.9502Y-3.68
X4.98Y-2.9
X4.99Y-2.32
X5.02Y-2.39
X5.03Y-2.6985
X5.17Y-3.35
X5.21Y-3.68
X5.23Y-2.29
X5.28Y-4.47
X5.29Y-2.45
X5.35Y-3.025
X5.37Y-2.52
X5.46Y-2.22
X5.48Y-3.81
X5.53Y-4.82
X5.57Y-2.55
X5.575Y-2.975
X5.64Y-2.34
X5.675Y-2.9
X5.68Y-2.26
X5.7Y-2.52
X5.724Y-3.784
X5.73Y-3.22
X5.75Y-4.67
X5.77Y-3.06
X5.775Y-3.15
X5.84Y-2.34
X5.85Y-2.07
X5.87Y-2.9285
X5.875Y-3.725
X5.98Y-2.22
X6.02Y-4.36
X6.03Y-3.2
X6.06Y-2.25
X6.075Y-3.7
X6.08Y-2.55
X6.08Y-2.95
X6.11Y-2.4
X6.17Y-2.66
X6.2Y-3.08
X6.2Y-3.28
X6.21Y-2.44
X6.2185Y-4.3315
X6.27Y-2.62
X6.275Y-3.325
X6.29Y-3.19
X6.3Y-2.21
X6.33Y-3.98
X6.34Y-2.37
X6.36Y-2.93
X6.36Y-4.38
X6.37Y-2.12
X6.37Y-2.6
X6.3789Y-2.5489
X6.425Y-2.225
X6.4535Y-2.2571
X6.525Y-3.325
X6.56Y-4.02
X6.625Y-2.2
X6.64Y-5.14
X6.67Y-4.71
X6.7Y-3.21
X6.75Y-2.35
X6.77Y-5.34
X6.78Y-3.34
X6.78Y-3.74
X6.79Y-4.4
X6.79Y-4.79
X6.84Y-4.2238
X6.85Y-2.36
X7.05Y-2.35
X7.05Y-2.93
X7.07Y-3.85
X7.16Y-2.34
X7.29Y-3.45
X7.31Y-2.46
X7.31Y-4.48
X7.51Y-3.28
X7.61Y-4.95
X7.7Y-2.5
X7.77Y-4.41
X7.78Y-5.14
X7.8Y-2.2571
X7.825Y-3.725
X7.85Y-2.8
X7.875Y-2.85
X7.875Y-3.675
X7.9Y-2.2285
X7.9Y-4.05
X7.96Y-2.94
X7.96Y-3.34
X8.2Y-2.69
X8.2Y-3.2
X8.21Y-3.03
T2
X4.15Y-2.65
X4.25Y-2.65
X4.35Y-2.65
X4.45Y-2.65
X5.3Y-2.125
X5.4Y-2.125
X5.05Y-3.07
X5.05Y-3.17
X5.05Y-3.27
X3.85Y-2.125
X3.95Y-2.125
X4.05Y-2.125
X4.15Y-2.125
X4.25Y-2.125
X4.35Y-2.125
X4.45Y-2.125
X4.55Y-2.125
X4.65Y-2.125
X4.75Y-2.125
X4.85Y-2.125
X4.95Y-2.125
X5.05Y-2.125
X5.9854Y-2.1319
X6.0854Y-2.1319
X6.1854Y-2.1319
X6.2854Y-2.1319
X7.3Y-2.125
X7.4Y-2.125
X7.5Y-2.125
X7.6Y-2.125
X7.7Y-2.125
X7.8Y-2.125
X7.9Y-2.125
X8.0Y-2.125
X8.1Y-2.125
X8.2Y-2.125
X6.0Y-2.3
X6.1Y-2.3
X6.2Y-2.3
X6.3Y-2.3
T3
X5.275Y-2.825
X5.275Y-3.525
X5.2841Y-3.075
X5.2841Y-3.175
X5.2841Y-3.275
X5.375Y-2.825
X5.375Y-3.525
X5.475Y-2.825
X5.475Y-3.525
X5.575Y-2.825
X5.575Y-3.525
X5.675Y-2.825
X5.675Y-3.525
X5.775Y-2.825
X5.775Y-3.525
X5.875Y-2.825
X5.875Y-3.525
X5.975Y-2.825
X5.975Y-3.525
X6.075Y-2.825
X6.075Y-3.525
X6.175Y-2.825
X6.175Y-3.525
X6.275Y-2.825
X6.275Y-3.525
X6.375Y-2.825
X6.375Y-3.525
X6.475Y-2.825
X6.475Y-3.525
X6.575Y-2.825
X6.575Y-3.525
X6.675Y-2.825
X6.675Y-3.525
X6.775Y-2.825
X6.775Y-3.525
X6.875Y-2.825
X6.875Y-3.525
X6.975Y-2.825
X6.975Y-3.525
X7.075Y-2.825
X7.075Y-3.525
X7.175Y-2.825
X7.175Y-3.525
T4
X5.8787Y-4.7681
X5.8787Y-4.9453
X6.1346Y-4.7681
X6.1346Y-4.9453
X3.6713Y-4.7681
X3.6713Y-4.9453
X3.9272Y-4.7681
X3.9272Y-4.9453
X5.2037Y-5.1431
X5.2037Y-5.3203
X5.4596Y-5.1431
X5.4596Y-5.3203
X4.1213Y-4.7681
X4.1213Y-4.9453
X4.3772Y-4.7681
X4.3772Y-4.9453
X5.6537Y-4.3931
X5.6537Y-4.5703
X5.9096Y-4.3931
X5.9096Y-4.5703
X5.8728Y-4.0181
X5.8728Y-4.1953
X6.1287Y-4.0181
X6.1287Y-4.1953
X7.1293Y-4.7681
X7.1293Y-4.9453
X7.3852Y-4.7681
X7.3852Y-4.9453
X6.6793Y-4.0181
X6.6793Y-4.1953
X6.9352Y-4.0181
X6.9352Y-4.1953
X3.9154Y-4.3909
X3.9154Y-4.5681
X4.1713Y-4.3909
X4.1713Y-4.5681
X5.4287Y-4.0181
X5.4287Y-4.1953
X5.6846Y-4.0181
X5.6846Y-4.1953
X4.9787Y-4.0181
X4.9787Y-4.1953
X5.2346Y-4.0181
X5.2346Y-4.1953
X6.1037Y-5.1431
X6.1037Y-5.3203
X6.3596Y-5.1431
X6.3596Y-5.3203
X8.0974Y-4.3931
X8.0974Y-4.5703
X8.3533Y-4.3931
X8.3533Y-4.5703
X6.9043Y-4.3931
X6.9043Y-4.5703
X7.1602Y-4.3931
X7.1602Y-4.5703
X6.9043Y-5.1431
X6.9043Y-5.3203
X7.1602Y-5.1431
X7.1602Y-5.3203
X3.9213Y-5.1681
X3.9213Y-5.3453
X4.1772Y-5.1681
X4.1772Y-5.3453
X4.9787Y-4.7681
X4.9787Y-4.9453
X5.2346Y-4.7681
X5.2346Y-4.9453
X7.3543Y-4.3931
X7.3543Y-4.5703
X7.6102Y-4.3931
X7.6102Y-4.5703
X5.2037Y-4.3931
X5.2037Y-4.5703
X5.4596Y-4.3931
X5.4596Y-4.5703
X3.6713Y-4.0181
X3.6713Y-4.1953
X3.9272Y-4.0181
X3.9272Y-4.1953
X4.7537Y-5.1431
X4.7537Y-5.3203
X5.0096Y-5.1431
X5.0096Y-5.3203
X4.1213Y-4.0181
X4.1213Y-4.1953
X4.3772Y-4.0181
X4.3772Y-4.1953
X7.9224Y-4.7681
X7.9224Y-4.9453
X8.1783Y-4.7681
X8.1783Y-4.9453
X5.4287Y-4.7681
X5.4287Y-4.9453
X5.6846Y-4.7681
X5.6846Y-4.9453
X5.6537Y-5.1431
X5.6537Y-5.3203
X5.9096Y-5.1431
X5.9096Y-5.3203
X7.1293Y-4.0181
X7.1293Y-4.1953
X7.3852Y-4.0181
X7.3852Y-4.1953
X4.7537Y-4.3931
X4.7537Y-4.5703
X5.0096Y-4.3931
X5.0096Y-4.5703
X8.1224Y-5.1431
X8.1224Y-5.3203
X8.3783Y-5.1431
X8.3783Y-5.3203
T5
X3.5839Y-2.1713
X3.5839Y-5.3209
X8.702Y-2.1713
X8.702Y-5.3209
T0
M30
