G04 #@! TF.GenerationSoftware,KiCad,Pcbnew,5.1.5+dfsg1-2build2*
G04 #@! TF.CreationDate,2023-12-24T06:28:24+00:00*
G04 #@! TF.ProjectId,small_esc,736d616c-6c5f-4657-9363-2e6b69636164,rev?*
G04 #@! TF.SameCoordinates,Original*
G04 #@! TF.FileFunction,Legend,Top*
G04 #@! TF.FilePolarity,Positive*
%FSLAX46Y46*%
G04 Gerber Fmt 4.6, Leading zero omitted, Abs format (unit mm)*
G04 Created by KiCad (PCBNEW 5.1.5+dfsg1-2build2) date 2023-12-24 06:28:24*
%MOMM*%
%LPD*%
G04 APERTURE LIST*
%ADD10C,0.150000*%
%ADD11C,0.120000*%
G04 APERTURE END LIST*
D10*
X137026666Y-51432666D02*
X136693333Y-51432666D01*
X136660000Y-51766000D01*
X136693333Y-51732666D01*
X136760000Y-51699333D01*
X136926666Y-51699333D01*
X136993333Y-51732666D01*
X137026666Y-51766000D01*
X137060000Y-51832666D01*
X137060000Y-51999333D01*
X137026666Y-52066000D01*
X136993333Y-52099333D01*
X136926666Y-52132666D01*
X136760000Y-52132666D01*
X136693333Y-52099333D01*
X136660000Y-52066000D01*
X137260000Y-51432666D02*
X137493333Y-52132666D01*
X137726666Y-51432666D01*
X134086666Y-51466000D02*
X134020000Y-51432666D01*
X133920000Y-51432666D01*
X133820000Y-51466000D01*
X133753333Y-51532666D01*
X133720000Y-51599333D01*
X133686666Y-51732666D01*
X133686666Y-51832666D01*
X133720000Y-51966000D01*
X133753333Y-52032666D01*
X133820000Y-52099333D01*
X133920000Y-52132666D01*
X133986666Y-52132666D01*
X134086666Y-52099333D01*
X134120000Y-52066000D01*
X134120000Y-51832666D01*
X133986666Y-51832666D01*
X134420000Y-52132666D02*
X134420000Y-51432666D01*
X134820000Y-52132666D01*
X134820000Y-51432666D01*
X135153333Y-52132666D02*
X135153333Y-51432666D01*
X135320000Y-51432666D01*
X135420000Y-51466000D01*
X135486666Y-51532666D01*
X135520000Y-51599333D01*
X135553333Y-51732666D01*
X135553333Y-51832666D01*
X135520000Y-51966000D01*
X135486666Y-52032666D01*
X135420000Y-52099333D01*
X135320000Y-52132666D01*
X135153333Y-52132666D01*
X207746666Y-51212000D02*
X207680000Y-51178666D01*
X207580000Y-51178666D01*
X207480000Y-51212000D01*
X207413333Y-51278666D01*
X207380000Y-51345333D01*
X207346666Y-51478666D01*
X207346666Y-51578666D01*
X207380000Y-51712000D01*
X207413333Y-51778666D01*
X207480000Y-51845333D01*
X207580000Y-51878666D01*
X207646666Y-51878666D01*
X207746666Y-51845333D01*
X207780000Y-51812000D01*
X207780000Y-51578666D01*
X207646666Y-51578666D01*
X208080000Y-51878666D02*
X208080000Y-51178666D01*
X208480000Y-51878666D01*
X208480000Y-51178666D01*
X208813333Y-51878666D02*
X208813333Y-51178666D01*
X208980000Y-51178666D01*
X209080000Y-51212000D01*
X209146666Y-51278666D01*
X209180000Y-51345333D01*
X209213333Y-51478666D01*
X209213333Y-51578666D01*
X209180000Y-51712000D01*
X209146666Y-51778666D01*
X209080000Y-51845333D01*
X208980000Y-51878666D01*
X208813333Y-51878666D01*
X204873333Y-51178666D02*
X205306666Y-51178666D01*
X205073333Y-51445333D01*
X205173333Y-51445333D01*
X205240000Y-51478666D01*
X205273333Y-51512000D01*
X205306666Y-51578666D01*
X205306666Y-51745333D01*
X205273333Y-51812000D01*
X205240000Y-51845333D01*
X205173333Y-51878666D01*
X204973333Y-51878666D01*
X204906666Y-51845333D01*
X204873333Y-51812000D01*
X205506666Y-51178666D02*
X205740000Y-51878666D01*
X205973333Y-51178666D01*
X206140000Y-51178666D02*
X206573333Y-51178666D01*
X206340000Y-51445333D01*
X206440000Y-51445333D01*
X206506666Y-51478666D01*
X206540000Y-51512000D01*
X206573333Y-51578666D01*
X206573333Y-51745333D01*
X206540000Y-51812000D01*
X206506666Y-51845333D01*
X206440000Y-51878666D01*
X206240000Y-51878666D01*
X206173333Y-51845333D01*
X206140000Y-51812000D01*
X202716666Y-51212000D02*
X202650000Y-51178666D01*
X202550000Y-51178666D01*
X202450000Y-51212000D01*
X202383333Y-51278666D01*
X202350000Y-51345333D01*
X202316666Y-51478666D01*
X202316666Y-51578666D01*
X202350000Y-51712000D01*
X202383333Y-51778666D01*
X202450000Y-51845333D01*
X202550000Y-51878666D01*
X202616666Y-51878666D01*
X202716666Y-51845333D01*
X202750000Y-51812000D01*
X202750000Y-51578666D01*
X202616666Y-51578666D01*
X203016666Y-51245333D02*
X203050000Y-51212000D01*
X203116666Y-51178666D01*
X203283333Y-51178666D01*
X203350000Y-51212000D01*
X203383333Y-51245333D01*
X203416666Y-51312000D01*
X203416666Y-51378666D01*
X203383333Y-51478666D01*
X202983333Y-51878666D01*
X203416666Y-51878666D01*
X203816666Y-51478666D02*
X203750000Y-51445333D01*
X203716666Y-51412000D01*
X203683333Y-51345333D01*
X203683333Y-51312000D01*
X203716666Y-51245333D01*
X203750000Y-51212000D01*
X203816666Y-51178666D01*
X203950000Y-51178666D01*
X204016666Y-51212000D01*
X204050000Y-51245333D01*
X204083333Y-51312000D01*
X204083333Y-51345333D01*
X204050000Y-51412000D01*
X204016666Y-51445333D01*
X203950000Y-51478666D01*
X203816666Y-51478666D01*
X203750000Y-51512000D01*
X203716666Y-51545333D01*
X203683333Y-51612000D01*
X203683333Y-51745333D01*
X203716666Y-51812000D01*
X203750000Y-51845333D01*
X203816666Y-51878666D01*
X203950000Y-51878666D01*
X204016666Y-51845333D01*
X204050000Y-51812000D01*
X204083333Y-51745333D01*
X204083333Y-51612000D01*
X204050000Y-51545333D01*
X204016666Y-51512000D01*
X203950000Y-51478666D01*
X200176666Y-51212000D02*
X200110000Y-51178666D01*
X200010000Y-51178666D01*
X199910000Y-51212000D01*
X199843333Y-51278666D01*
X199810000Y-51345333D01*
X199776666Y-51478666D01*
X199776666Y-51578666D01*
X199810000Y-51712000D01*
X199843333Y-51778666D01*
X199910000Y-51845333D01*
X200010000Y-51878666D01*
X200076666Y-51878666D01*
X200176666Y-51845333D01*
X200210000Y-51812000D01*
X200210000Y-51578666D01*
X200076666Y-51578666D01*
X200476666Y-51245333D02*
X200510000Y-51212000D01*
X200576666Y-51178666D01*
X200743333Y-51178666D01*
X200810000Y-51212000D01*
X200843333Y-51245333D01*
X200876666Y-51312000D01*
X200876666Y-51378666D01*
X200843333Y-51478666D01*
X200443333Y-51878666D01*
X200876666Y-51878666D01*
X201110000Y-51178666D02*
X201576666Y-51178666D01*
X201276666Y-51878666D01*
X197636666Y-51212000D02*
X197570000Y-51178666D01*
X197470000Y-51178666D01*
X197370000Y-51212000D01*
X197303333Y-51278666D01*
X197270000Y-51345333D01*
X197236666Y-51478666D01*
X197236666Y-51578666D01*
X197270000Y-51712000D01*
X197303333Y-51778666D01*
X197370000Y-51845333D01*
X197470000Y-51878666D01*
X197536666Y-51878666D01*
X197636666Y-51845333D01*
X197670000Y-51812000D01*
X197670000Y-51578666D01*
X197536666Y-51578666D01*
X197936666Y-51245333D02*
X197970000Y-51212000D01*
X198036666Y-51178666D01*
X198203333Y-51178666D01*
X198270000Y-51212000D01*
X198303333Y-51245333D01*
X198336666Y-51312000D01*
X198336666Y-51378666D01*
X198303333Y-51478666D01*
X197903333Y-51878666D01*
X198336666Y-51878666D01*
X198936666Y-51178666D02*
X198803333Y-51178666D01*
X198736666Y-51212000D01*
X198703333Y-51245333D01*
X198636666Y-51345333D01*
X198603333Y-51478666D01*
X198603333Y-51745333D01*
X198636666Y-51812000D01*
X198670000Y-51845333D01*
X198736666Y-51878666D01*
X198870000Y-51878666D01*
X198936666Y-51845333D01*
X198970000Y-51812000D01*
X199003333Y-51745333D01*
X199003333Y-51578666D01*
X198970000Y-51512000D01*
X198936666Y-51478666D01*
X198870000Y-51445333D01*
X198736666Y-51445333D01*
X198670000Y-51478666D01*
X198636666Y-51512000D01*
X198603333Y-51578666D01*
X195096666Y-51212000D02*
X195030000Y-51178666D01*
X194930000Y-51178666D01*
X194830000Y-51212000D01*
X194763333Y-51278666D01*
X194730000Y-51345333D01*
X194696666Y-51478666D01*
X194696666Y-51578666D01*
X194730000Y-51712000D01*
X194763333Y-51778666D01*
X194830000Y-51845333D01*
X194930000Y-51878666D01*
X194996666Y-51878666D01*
X195096666Y-51845333D01*
X195130000Y-51812000D01*
X195130000Y-51578666D01*
X194996666Y-51578666D01*
X195796666Y-51878666D02*
X195396666Y-51878666D01*
X195596666Y-51878666D02*
X195596666Y-51178666D01*
X195530000Y-51278666D01*
X195463333Y-51345333D01*
X195396666Y-51378666D01*
X196030000Y-51178666D02*
X196463333Y-51178666D01*
X196230000Y-51445333D01*
X196330000Y-51445333D01*
X196396666Y-51478666D01*
X196430000Y-51512000D01*
X196463333Y-51578666D01*
X196463333Y-51745333D01*
X196430000Y-51812000D01*
X196396666Y-51845333D01*
X196330000Y-51878666D01*
X196130000Y-51878666D01*
X196063333Y-51845333D01*
X196030000Y-51812000D01*
X192556666Y-51212000D02*
X192490000Y-51178666D01*
X192390000Y-51178666D01*
X192290000Y-51212000D01*
X192223333Y-51278666D01*
X192190000Y-51345333D01*
X192156666Y-51478666D01*
X192156666Y-51578666D01*
X192190000Y-51712000D01*
X192223333Y-51778666D01*
X192290000Y-51845333D01*
X192390000Y-51878666D01*
X192456666Y-51878666D01*
X192556666Y-51845333D01*
X192590000Y-51812000D01*
X192590000Y-51578666D01*
X192456666Y-51578666D01*
X193256666Y-51878666D02*
X192856666Y-51878666D01*
X193056666Y-51878666D02*
X193056666Y-51178666D01*
X192990000Y-51278666D01*
X192923333Y-51345333D01*
X192856666Y-51378666D01*
X193523333Y-51245333D02*
X193556666Y-51212000D01*
X193623333Y-51178666D01*
X193790000Y-51178666D01*
X193856666Y-51212000D01*
X193890000Y-51245333D01*
X193923333Y-51312000D01*
X193923333Y-51378666D01*
X193890000Y-51478666D01*
X193490000Y-51878666D01*
X193923333Y-51878666D01*
X190016666Y-51212000D02*
X189950000Y-51178666D01*
X189850000Y-51178666D01*
X189750000Y-51212000D01*
X189683333Y-51278666D01*
X189650000Y-51345333D01*
X189616666Y-51478666D01*
X189616666Y-51578666D01*
X189650000Y-51712000D01*
X189683333Y-51778666D01*
X189750000Y-51845333D01*
X189850000Y-51878666D01*
X189916666Y-51878666D01*
X190016666Y-51845333D01*
X190050000Y-51812000D01*
X190050000Y-51578666D01*
X189916666Y-51578666D01*
X190716666Y-51878666D02*
X190316666Y-51878666D01*
X190516666Y-51878666D02*
X190516666Y-51178666D01*
X190450000Y-51278666D01*
X190383333Y-51345333D01*
X190316666Y-51378666D01*
X191383333Y-51878666D02*
X190983333Y-51878666D01*
X191183333Y-51878666D02*
X191183333Y-51178666D01*
X191116666Y-51278666D01*
X191050000Y-51345333D01*
X190983333Y-51378666D01*
X187126666Y-51845333D02*
X187226666Y-51878666D01*
X187393333Y-51878666D01*
X187460000Y-51845333D01*
X187493333Y-51812000D01*
X187526666Y-51745333D01*
X187526666Y-51678666D01*
X187493333Y-51612000D01*
X187460000Y-51578666D01*
X187393333Y-51545333D01*
X187260000Y-51512000D01*
X187193333Y-51478666D01*
X187160000Y-51445333D01*
X187126666Y-51378666D01*
X187126666Y-51312000D01*
X187160000Y-51245333D01*
X187193333Y-51212000D01*
X187260000Y-51178666D01*
X187426666Y-51178666D01*
X187526666Y-51212000D01*
X188226666Y-51812000D02*
X188193333Y-51845333D01*
X188093333Y-51878666D01*
X188026666Y-51878666D01*
X187926666Y-51845333D01*
X187860000Y-51778666D01*
X187826666Y-51712000D01*
X187793333Y-51578666D01*
X187793333Y-51478666D01*
X187826666Y-51345333D01*
X187860000Y-51278666D01*
X187926666Y-51212000D01*
X188026666Y-51178666D01*
X188093333Y-51178666D01*
X188193333Y-51212000D01*
X188226666Y-51245333D01*
X188860000Y-51878666D02*
X188526666Y-51878666D01*
X188526666Y-51178666D01*
X184570000Y-51845333D02*
X184670000Y-51878666D01*
X184836666Y-51878666D01*
X184903333Y-51845333D01*
X184936666Y-51812000D01*
X184970000Y-51745333D01*
X184970000Y-51678666D01*
X184936666Y-51612000D01*
X184903333Y-51578666D01*
X184836666Y-51545333D01*
X184703333Y-51512000D01*
X184636666Y-51478666D01*
X184603333Y-51445333D01*
X184570000Y-51378666D01*
X184570000Y-51312000D01*
X184603333Y-51245333D01*
X184636666Y-51212000D01*
X184703333Y-51178666D01*
X184870000Y-51178666D01*
X184970000Y-51212000D01*
X185270000Y-51878666D02*
X185270000Y-51178666D01*
X185436666Y-51178666D01*
X185536666Y-51212000D01*
X185603333Y-51278666D01*
X185636666Y-51345333D01*
X185670000Y-51478666D01*
X185670000Y-51578666D01*
X185636666Y-51712000D01*
X185603333Y-51778666D01*
X185536666Y-51845333D01*
X185436666Y-51878666D01*
X185270000Y-51878666D01*
X185936666Y-51678666D02*
X186270000Y-51678666D01*
X185870000Y-51878666D02*
X186103333Y-51178666D01*
X186336666Y-51878666D01*
X127736666Y-51466000D02*
X127670000Y-51432666D01*
X127570000Y-51432666D01*
X127470000Y-51466000D01*
X127403333Y-51532666D01*
X127370000Y-51599333D01*
X127336666Y-51732666D01*
X127336666Y-51832666D01*
X127370000Y-51966000D01*
X127403333Y-52032666D01*
X127470000Y-52099333D01*
X127570000Y-52132666D01*
X127636666Y-52132666D01*
X127736666Y-52099333D01*
X127770000Y-52066000D01*
X127770000Y-51832666D01*
X127636666Y-51832666D01*
X128070000Y-52132666D02*
X128070000Y-51432666D01*
X128470000Y-52132666D01*
X128470000Y-51432666D01*
X128803333Y-52132666D02*
X128803333Y-51432666D01*
X128970000Y-51432666D01*
X129070000Y-51466000D01*
X129136666Y-51532666D01*
X129170000Y-51599333D01*
X129203333Y-51732666D01*
X129203333Y-51832666D01*
X129170000Y-51966000D01*
X129136666Y-52032666D01*
X129070000Y-52099333D01*
X128970000Y-52132666D01*
X128803333Y-52132666D01*
X124863333Y-51432666D02*
X125296666Y-51432666D01*
X125063333Y-51699333D01*
X125163333Y-51699333D01*
X125230000Y-51732666D01*
X125263333Y-51766000D01*
X125296666Y-51832666D01*
X125296666Y-51999333D01*
X125263333Y-52066000D01*
X125230000Y-52099333D01*
X125163333Y-52132666D01*
X124963333Y-52132666D01*
X124896666Y-52099333D01*
X124863333Y-52066000D01*
X125496666Y-51432666D02*
X125730000Y-52132666D01*
X125963333Y-51432666D01*
X126130000Y-51432666D02*
X126563333Y-51432666D01*
X126330000Y-51699333D01*
X126430000Y-51699333D01*
X126496666Y-51732666D01*
X126530000Y-51766000D01*
X126563333Y-51832666D01*
X126563333Y-51999333D01*
X126530000Y-52066000D01*
X126496666Y-52099333D01*
X126430000Y-52132666D01*
X126230000Y-52132666D01*
X126163333Y-52099333D01*
X126130000Y-52066000D01*
X122340000Y-52132666D02*
X122340000Y-51432666D01*
X122740000Y-52132666D02*
X122440000Y-51732666D01*
X122740000Y-51432666D02*
X122340000Y-51832666D01*
X123006666Y-52099333D02*
X123106666Y-52132666D01*
X123273333Y-52132666D01*
X123340000Y-52099333D01*
X123373333Y-52066000D01*
X123406666Y-51999333D01*
X123406666Y-51932666D01*
X123373333Y-51866000D01*
X123340000Y-51832666D01*
X123273333Y-51799333D01*
X123140000Y-51766000D01*
X123073333Y-51732666D01*
X123040000Y-51699333D01*
X123006666Y-51632666D01*
X123006666Y-51566000D01*
X123040000Y-51499333D01*
X123073333Y-51466000D01*
X123140000Y-51432666D01*
X123306666Y-51432666D01*
X123406666Y-51466000D01*
X124006666Y-51432666D02*
X123873333Y-51432666D01*
X123806666Y-51466000D01*
X123773333Y-51499333D01*
X123706666Y-51599333D01*
X123673333Y-51732666D01*
X123673333Y-51999333D01*
X123706666Y-52066000D01*
X123740000Y-52099333D01*
X123806666Y-52132666D01*
X123940000Y-52132666D01*
X124006666Y-52099333D01*
X124040000Y-52066000D01*
X124073333Y-51999333D01*
X124073333Y-51832666D01*
X124040000Y-51766000D01*
X124006666Y-51732666D01*
X123940000Y-51699333D01*
X123806666Y-51699333D01*
X123740000Y-51732666D01*
X123706666Y-51766000D01*
X123673333Y-51832666D01*
X119800000Y-52132666D02*
X119800000Y-51432666D01*
X120200000Y-52132666D02*
X119900000Y-51732666D01*
X120200000Y-51432666D02*
X119800000Y-51832666D01*
X120466666Y-52099333D02*
X120566666Y-52132666D01*
X120733333Y-52132666D01*
X120800000Y-52099333D01*
X120833333Y-52066000D01*
X120866666Y-51999333D01*
X120866666Y-51932666D01*
X120833333Y-51866000D01*
X120800000Y-51832666D01*
X120733333Y-51799333D01*
X120600000Y-51766000D01*
X120533333Y-51732666D01*
X120500000Y-51699333D01*
X120466666Y-51632666D01*
X120466666Y-51566000D01*
X120500000Y-51499333D01*
X120533333Y-51466000D01*
X120600000Y-51432666D01*
X120766666Y-51432666D01*
X120866666Y-51466000D01*
X121500000Y-51432666D02*
X121166666Y-51432666D01*
X121133333Y-51766000D01*
X121166666Y-51732666D01*
X121233333Y-51699333D01*
X121400000Y-51699333D01*
X121466666Y-51732666D01*
X121500000Y-51766000D01*
X121533333Y-51832666D01*
X121533333Y-51999333D01*
X121500000Y-52066000D01*
X121466666Y-52099333D01*
X121400000Y-52132666D01*
X121233333Y-52132666D01*
X121166666Y-52099333D01*
X121133333Y-52066000D01*
X117260000Y-52132666D02*
X117260000Y-51432666D01*
X117660000Y-52132666D02*
X117360000Y-51732666D01*
X117660000Y-51432666D02*
X117260000Y-51832666D01*
X117926666Y-52099333D02*
X118026666Y-52132666D01*
X118193333Y-52132666D01*
X118260000Y-52099333D01*
X118293333Y-52066000D01*
X118326666Y-51999333D01*
X118326666Y-51932666D01*
X118293333Y-51866000D01*
X118260000Y-51832666D01*
X118193333Y-51799333D01*
X118060000Y-51766000D01*
X117993333Y-51732666D01*
X117960000Y-51699333D01*
X117926666Y-51632666D01*
X117926666Y-51566000D01*
X117960000Y-51499333D01*
X117993333Y-51466000D01*
X118060000Y-51432666D01*
X118226666Y-51432666D01*
X118326666Y-51466000D01*
X118926666Y-51666000D02*
X118926666Y-52132666D01*
X118760000Y-51399333D02*
X118593333Y-51899333D01*
X119026666Y-51899333D01*
X114720000Y-52132666D02*
X114720000Y-51432666D01*
X115120000Y-52132666D02*
X114820000Y-51732666D01*
X115120000Y-51432666D02*
X114720000Y-51832666D01*
X115386666Y-52099333D02*
X115486666Y-52132666D01*
X115653333Y-52132666D01*
X115720000Y-52099333D01*
X115753333Y-52066000D01*
X115786666Y-51999333D01*
X115786666Y-51932666D01*
X115753333Y-51866000D01*
X115720000Y-51832666D01*
X115653333Y-51799333D01*
X115520000Y-51766000D01*
X115453333Y-51732666D01*
X115420000Y-51699333D01*
X115386666Y-51632666D01*
X115386666Y-51566000D01*
X115420000Y-51499333D01*
X115453333Y-51466000D01*
X115520000Y-51432666D01*
X115686666Y-51432666D01*
X115786666Y-51466000D01*
X116020000Y-51432666D02*
X116453333Y-51432666D01*
X116220000Y-51699333D01*
X116320000Y-51699333D01*
X116386666Y-51732666D01*
X116420000Y-51766000D01*
X116453333Y-51832666D01*
X116453333Y-51999333D01*
X116420000Y-52066000D01*
X116386666Y-52099333D01*
X116320000Y-52132666D01*
X116120000Y-52132666D01*
X116053333Y-52099333D01*
X116020000Y-52066000D01*
X112180000Y-52132666D02*
X112180000Y-51432666D01*
X112580000Y-52132666D02*
X112280000Y-51732666D01*
X112580000Y-51432666D02*
X112180000Y-51832666D01*
X112846666Y-52099333D02*
X112946666Y-52132666D01*
X113113333Y-52132666D01*
X113180000Y-52099333D01*
X113213333Y-52066000D01*
X113246666Y-51999333D01*
X113246666Y-51932666D01*
X113213333Y-51866000D01*
X113180000Y-51832666D01*
X113113333Y-51799333D01*
X112980000Y-51766000D01*
X112913333Y-51732666D01*
X112880000Y-51699333D01*
X112846666Y-51632666D01*
X112846666Y-51566000D01*
X112880000Y-51499333D01*
X112913333Y-51466000D01*
X112980000Y-51432666D01*
X113146666Y-51432666D01*
X113246666Y-51466000D01*
X113513333Y-51499333D02*
X113546666Y-51466000D01*
X113613333Y-51432666D01*
X113780000Y-51432666D01*
X113846666Y-51466000D01*
X113880000Y-51499333D01*
X113913333Y-51566000D01*
X113913333Y-51632666D01*
X113880000Y-51732666D01*
X113480000Y-52132666D01*
X113913333Y-52132666D01*
X109640000Y-52132666D02*
X109640000Y-51432666D01*
X110040000Y-52132666D02*
X109740000Y-51732666D01*
X110040000Y-51432666D02*
X109640000Y-51832666D01*
X110306666Y-52099333D02*
X110406666Y-52132666D01*
X110573333Y-52132666D01*
X110640000Y-52099333D01*
X110673333Y-52066000D01*
X110706666Y-51999333D01*
X110706666Y-51932666D01*
X110673333Y-51866000D01*
X110640000Y-51832666D01*
X110573333Y-51799333D01*
X110440000Y-51766000D01*
X110373333Y-51732666D01*
X110340000Y-51699333D01*
X110306666Y-51632666D01*
X110306666Y-51566000D01*
X110340000Y-51499333D01*
X110373333Y-51466000D01*
X110440000Y-51432666D01*
X110606666Y-51432666D01*
X110706666Y-51466000D01*
X111373333Y-52132666D02*
X110973333Y-52132666D01*
X111173333Y-52132666D02*
X111173333Y-51432666D01*
X111106666Y-51532666D01*
X111040000Y-51599333D01*
X110973333Y-51632666D01*
X107100000Y-52132666D02*
X107100000Y-51432666D01*
X107500000Y-52132666D02*
X107200000Y-51732666D01*
X107500000Y-51432666D02*
X107100000Y-51832666D01*
X107766666Y-52099333D02*
X107866666Y-52132666D01*
X108033333Y-52132666D01*
X108100000Y-52099333D01*
X108133333Y-52066000D01*
X108166666Y-51999333D01*
X108166666Y-51932666D01*
X108133333Y-51866000D01*
X108100000Y-51832666D01*
X108033333Y-51799333D01*
X107900000Y-51766000D01*
X107833333Y-51732666D01*
X107800000Y-51699333D01*
X107766666Y-51632666D01*
X107766666Y-51566000D01*
X107800000Y-51499333D01*
X107833333Y-51466000D01*
X107900000Y-51432666D01*
X108066666Y-51432666D01*
X108166666Y-51466000D01*
X108600000Y-51432666D02*
X108666666Y-51432666D01*
X108733333Y-51466000D01*
X108766666Y-51499333D01*
X108800000Y-51566000D01*
X108833333Y-51699333D01*
X108833333Y-51866000D01*
X108800000Y-51999333D01*
X108766666Y-52066000D01*
X108733333Y-52099333D01*
X108666666Y-52132666D01*
X108600000Y-52132666D01*
X108533333Y-52099333D01*
X108500000Y-52066000D01*
X108466666Y-51999333D01*
X108433333Y-51866000D01*
X108433333Y-51699333D01*
X108466666Y-51566000D01*
X108500000Y-51499333D01*
X108533333Y-51466000D01*
X108600000Y-51432666D01*
X104543333Y-52132666D02*
X104543333Y-51432666D01*
X104943333Y-52132666D02*
X104643333Y-51732666D01*
X104943333Y-51432666D02*
X104543333Y-51832666D01*
X105243333Y-52132666D02*
X105243333Y-51432666D01*
X105410000Y-51432666D01*
X105510000Y-51466000D01*
X105576666Y-51532666D01*
X105610000Y-51599333D01*
X105643333Y-51732666D01*
X105643333Y-51832666D01*
X105610000Y-51966000D01*
X105576666Y-52032666D01*
X105510000Y-52099333D01*
X105410000Y-52132666D01*
X105243333Y-52132666D01*
X105876666Y-51432666D02*
X106310000Y-51432666D01*
X106076666Y-51699333D01*
X106176666Y-51699333D01*
X106243333Y-51732666D01*
X106276666Y-51766000D01*
X106310000Y-51832666D01*
X106310000Y-51999333D01*
X106276666Y-52066000D01*
X106243333Y-52099333D01*
X106176666Y-52132666D01*
X105976666Y-52132666D01*
X105910000Y-52099333D01*
X105876666Y-52066000D01*
X102003333Y-52132666D02*
X102003333Y-51432666D01*
X102403333Y-52132666D02*
X102103333Y-51732666D01*
X102403333Y-51432666D02*
X102003333Y-51832666D01*
X102703333Y-52132666D02*
X102703333Y-51432666D01*
X102870000Y-51432666D01*
X102970000Y-51466000D01*
X103036666Y-51532666D01*
X103070000Y-51599333D01*
X103103333Y-51732666D01*
X103103333Y-51832666D01*
X103070000Y-51966000D01*
X103036666Y-52032666D01*
X102970000Y-52099333D01*
X102870000Y-52132666D01*
X102703333Y-52132666D01*
X103370000Y-51499333D02*
X103403333Y-51466000D01*
X103470000Y-51432666D01*
X103636666Y-51432666D01*
X103703333Y-51466000D01*
X103736666Y-51499333D01*
X103770000Y-51566000D01*
X103770000Y-51632666D01*
X103736666Y-51732666D01*
X103336666Y-52132666D01*
X103770000Y-52132666D01*
X99463333Y-52132666D02*
X99463333Y-51432666D01*
X99863333Y-52132666D02*
X99563333Y-51732666D01*
X99863333Y-51432666D02*
X99463333Y-51832666D01*
X100163333Y-52132666D02*
X100163333Y-51432666D01*
X100330000Y-51432666D01*
X100430000Y-51466000D01*
X100496666Y-51532666D01*
X100530000Y-51599333D01*
X100563333Y-51732666D01*
X100563333Y-51832666D01*
X100530000Y-51966000D01*
X100496666Y-52032666D01*
X100430000Y-52099333D01*
X100330000Y-52132666D01*
X100163333Y-52132666D01*
X101230000Y-52132666D02*
X100830000Y-52132666D01*
X101030000Y-52132666D02*
X101030000Y-51432666D01*
X100963333Y-51532666D01*
X100896666Y-51599333D01*
X100830000Y-51632666D01*
X96923333Y-52132666D02*
X96923333Y-51432666D01*
X97323333Y-52132666D02*
X97023333Y-51732666D01*
X97323333Y-51432666D02*
X96923333Y-51832666D01*
X97623333Y-52132666D02*
X97623333Y-51432666D01*
X97790000Y-51432666D01*
X97890000Y-51466000D01*
X97956666Y-51532666D01*
X97990000Y-51599333D01*
X98023333Y-51732666D01*
X98023333Y-51832666D01*
X97990000Y-51966000D01*
X97956666Y-52032666D01*
X97890000Y-52099333D01*
X97790000Y-52132666D01*
X97623333Y-52132666D01*
X98456666Y-51432666D02*
X98523333Y-51432666D01*
X98590000Y-51466000D01*
X98623333Y-51499333D01*
X98656666Y-51566000D01*
X98690000Y-51699333D01*
X98690000Y-51866000D01*
X98656666Y-51999333D01*
X98623333Y-52066000D01*
X98590000Y-52099333D01*
X98523333Y-52132666D01*
X98456666Y-52132666D01*
X98390000Y-52099333D01*
X98356666Y-52066000D01*
X98323333Y-51999333D01*
X98290000Y-51866000D01*
X98290000Y-51699333D01*
X98323333Y-51566000D01*
X98356666Y-51499333D01*
X98390000Y-51466000D01*
X98456666Y-51432666D01*
X131223142Y-61666380D02*
X131223142Y-60666380D01*
X131604095Y-60666380D01*
X131699333Y-60714000D01*
X131746952Y-60761619D01*
X131794571Y-60856857D01*
X131794571Y-60999714D01*
X131746952Y-61094952D01*
X131699333Y-61142571D01*
X131604095Y-61190190D01*
X131223142Y-61190190D01*
X132223142Y-61666380D02*
X132223142Y-60999714D01*
X132223142Y-60666380D02*
X132175523Y-60714000D01*
X132223142Y-60761619D01*
X132270761Y-60714000D01*
X132223142Y-60666380D01*
X132223142Y-60761619D01*
X133127904Y-61618761D02*
X133032666Y-61666380D01*
X132842190Y-61666380D01*
X132746952Y-61618761D01*
X132699333Y-61571142D01*
X132651714Y-61475904D01*
X132651714Y-61190190D01*
X132699333Y-61094952D01*
X132746952Y-61047333D01*
X132842190Y-60999714D01*
X133032666Y-60999714D01*
X133127904Y-61047333D01*
X133699333Y-61666380D02*
X133604095Y-61618761D01*
X133556476Y-61571142D01*
X133508857Y-61475904D01*
X133508857Y-61190190D01*
X133556476Y-61094952D01*
X133604095Y-61047333D01*
X133699333Y-60999714D01*
X133842190Y-60999714D01*
X133937428Y-61047333D01*
X133985047Y-61094952D01*
X134032666Y-61190190D01*
X134032666Y-61475904D01*
X133985047Y-61571142D01*
X133937428Y-61618761D01*
X133842190Y-61666380D01*
X133699333Y-61666380D01*
X135127904Y-60666380D02*
X135746952Y-60666380D01*
X135413619Y-61047333D01*
X135556476Y-61047333D01*
X135651714Y-61094952D01*
X135699333Y-61142571D01*
X135746952Y-61237809D01*
X135746952Y-61475904D01*
X135699333Y-61571142D01*
X135651714Y-61618761D01*
X135556476Y-61666380D01*
X135270761Y-61666380D01*
X135175523Y-61618761D01*
X135127904Y-61571142D01*
X136032666Y-60666380D02*
X136366000Y-61666380D01*
X136699333Y-60666380D01*
X136937428Y-60666380D02*
X137556476Y-60666380D01*
X137223142Y-61047333D01*
X137366000Y-61047333D01*
X137461238Y-61094952D01*
X137508857Y-61142571D01*
X137556476Y-61237809D01*
X137556476Y-61475904D01*
X137508857Y-61571142D01*
X137461238Y-61618761D01*
X137366000Y-61666380D01*
X137080285Y-61666380D01*
X136985047Y-61618761D01*
X136937428Y-61571142D01*
X194191238Y-87320380D02*
X193857904Y-86844190D01*
X193619809Y-87320380D02*
X193619809Y-86320380D01*
X194000761Y-86320380D01*
X194096000Y-86368000D01*
X194143619Y-86415619D01*
X194191238Y-86510857D01*
X194191238Y-86653714D01*
X194143619Y-86748952D01*
X194096000Y-86796571D01*
X194000761Y-86844190D01*
X193619809Y-86844190D01*
X194619809Y-86796571D02*
X194953142Y-86796571D01*
X195096000Y-87320380D02*
X194619809Y-87320380D01*
X194619809Y-86320380D01*
X195096000Y-86320380D01*
X196048380Y-86368000D02*
X195953142Y-86320380D01*
X195810285Y-86320380D01*
X195667428Y-86368000D01*
X195572190Y-86463238D01*
X195524571Y-86558476D01*
X195476952Y-86748952D01*
X195476952Y-86891809D01*
X195524571Y-87082285D01*
X195572190Y-87177523D01*
X195667428Y-87272761D01*
X195810285Y-87320380D01*
X195905523Y-87320380D01*
X196048380Y-87272761D01*
X196096000Y-87225142D01*
X196096000Y-86891809D01*
X195905523Y-86891809D01*
X197191238Y-86320380D02*
X197810285Y-86320380D01*
X197476952Y-86701333D01*
X197619809Y-86701333D01*
X197715047Y-86748952D01*
X197762666Y-86796571D01*
X197810285Y-86891809D01*
X197810285Y-87129904D01*
X197762666Y-87225142D01*
X197715047Y-87272761D01*
X197619809Y-87320380D01*
X197334095Y-87320380D01*
X197238857Y-87272761D01*
X197191238Y-87225142D01*
X198096000Y-86320380D02*
X198429333Y-87320380D01*
X198762666Y-86320380D01*
X199000761Y-86320380D02*
X199619809Y-86320380D01*
X199286476Y-86701333D01*
X199429333Y-86701333D01*
X199524571Y-86748952D01*
X199572190Y-86796571D01*
X199619809Y-86891809D01*
X199619809Y-87129904D01*
X199572190Y-87225142D01*
X199524571Y-87272761D01*
X199429333Y-87320380D01*
X199143619Y-87320380D01*
X199048380Y-87272761D01*
X199000761Y-87225142D01*
X91948476Y-60412380D02*
X91948476Y-61126666D01*
X91900857Y-61269523D01*
X91805619Y-61364761D01*
X91662761Y-61412380D01*
X91567523Y-61412380D01*
X92424666Y-61412380D02*
X92424666Y-60412380D01*
X92805619Y-60412380D01*
X92900857Y-60460000D01*
X92948476Y-60507619D01*
X92996095Y-60602857D01*
X92996095Y-60745714D01*
X92948476Y-60840952D01*
X92900857Y-60888571D01*
X92805619Y-60936190D01*
X92424666Y-60936190D01*
X93853238Y-60745714D02*
X93853238Y-61412380D01*
X93615142Y-60364761D02*
X93377047Y-61079047D01*
X93996095Y-61079047D01*
X94377047Y-61317142D02*
X94424666Y-61364761D01*
X94377047Y-61412380D01*
X94329428Y-61364761D01*
X94377047Y-61317142D01*
X94377047Y-61412380D01*
X94377047Y-60793333D02*
X94424666Y-60840952D01*
X94377047Y-60888571D01*
X94329428Y-60840952D01*
X94377047Y-60793333D01*
X94377047Y-60888571D01*
X94853238Y-61412380D02*
X94853238Y-60412380D01*
X95234190Y-60412380D01*
X95329428Y-60460000D01*
X95377047Y-60507619D01*
X95424666Y-60602857D01*
X95424666Y-60745714D01*
X95377047Y-60840952D01*
X95329428Y-60888571D01*
X95234190Y-60936190D01*
X94853238Y-60936190D01*
X95758000Y-60412380D02*
X96377047Y-60412380D01*
X96043714Y-60793333D01*
X96186571Y-60793333D01*
X96281809Y-60840952D01*
X96329428Y-60888571D01*
X96377047Y-60983809D01*
X96377047Y-61221904D01*
X96329428Y-61317142D01*
X96281809Y-61364761D01*
X96186571Y-61412380D01*
X95900857Y-61412380D01*
X95805619Y-61364761D01*
X95758000Y-61317142D01*
X97472285Y-60412380D02*
X98091333Y-60412380D01*
X97758000Y-60793333D01*
X97900857Y-60793333D01*
X97996095Y-60840952D01*
X98043714Y-60888571D01*
X98091333Y-60983809D01*
X98091333Y-61221904D01*
X98043714Y-61317142D01*
X97996095Y-61364761D01*
X97900857Y-61412380D01*
X97615142Y-61412380D01*
X97519904Y-61364761D01*
X97472285Y-61317142D01*
X98377047Y-60412380D02*
X98710380Y-61412380D01*
X99043714Y-60412380D01*
X99281809Y-60412380D02*
X99900857Y-60412380D01*
X99567523Y-60793333D01*
X99710380Y-60793333D01*
X99805619Y-60840952D01*
X99853238Y-60888571D01*
X99900857Y-60983809D01*
X99900857Y-61221904D01*
X99853238Y-61317142D01*
X99805619Y-61364761D01*
X99710380Y-61412380D01*
X99424666Y-61412380D01*
X99329428Y-61364761D01*
X99281809Y-61317142D01*
X91948476Y-58888380D02*
X91948476Y-59602666D01*
X91900857Y-59745523D01*
X91805619Y-59840761D01*
X91662761Y-59888380D01*
X91567523Y-59888380D01*
X92424666Y-59888380D02*
X92424666Y-58888380D01*
X92805619Y-58888380D01*
X92900857Y-58936000D01*
X92948476Y-58983619D01*
X92996095Y-59078857D01*
X92996095Y-59221714D01*
X92948476Y-59316952D01*
X92900857Y-59364571D01*
X92805619Y-59412190D01*
X92424666Y-59412190D01*
X93329428Y-58888380D02*
X93948476Y-58888380D01*
X93615142Y-59269333D01*
X93758000Y-59269333D01*
X93853238Y-59316952D01*
X93900857Y-59364571D01*
X93948476Y-59459809D01*
X93948476Y-59697904D01*
X93900857Y-59793142D01*
X93853238Y-59840761D01*
X93758000Y-59888380D01*
X93472285Y-59888380D01*
X93377047Y-59840761D01*
X93329428Y-59793142D01*
X94377047Y-59793142D02*
X94424666Y-59840761D01*
X94377047Y-59888380D01*
X94329428Y-59840761D01*
X94377047Y-59793142D01*
X94377047Y-59888380D01*
X94377047Y-59269333D02*
X94424666Y-59316952D01*
X94377047Y-59364571D01*
X94329428Y-59316952D01*
X94377047Y-59269333D01*
X94377047Y-59364571D01*
X94853238Y-59888380D02*
X94853238Y-58888380D01*
X95234190Y-58888380D01*
X95329428Y-58936000D01*
X95377047Y-58983619D01*
X95424666Y-59078857D01*
X95424666Y-59221714D01*
X95377047Y-59316952D01*
X95329428Y-59364571D01*
X95234190Y-59412190D01*
X94853238Y-59412190D01*
X96281809Y-59221714D02*
X96281809Y-59888380D01*
X96043714Y-58840761D02*
X95805619Y-59555047D01*
X96424666Y-59555047D01*
X97472285Y-58888380D02*
X98091333Y-58888380D01*
X97758000Y-59269333D01*
X97900857Y-59269333D01*
X97996095Y-59316952D01*
X98043714Y-59364571D01*
X98091333Y-59459809D01*
X98091333Y-59697904D01*
X98043714Y-59793142D01*
X97996095Y-59840761D01*
X97900857Y-59888380D01*
X97615142Y-59888380D01*
X97519904Y-59840761D01*
X97472285Y-59793142D01*
X98377047Y-58888380D02*
X98710380Y-59888380D01*
X99043714Y-58888380D01*
X99281809Y-58888380D02*
X99900857Y-58888380D01*
X99567523Y-59269333D01*
X99710380Y-59269333D01*
X99805619Y-59316952D01*
X99853238Y-59364571D01*
X99900857Y-59459809D01*
X99900857Y-59697904D01*
X99853238Y-59793142D01*
X99805619Y-59840761D01*
X99710380Y-59888380D01*
X99424666Y-59888380D01*
X99329428Y-59840761D01*
X99281809Y-59793142D01*
X108402380Y-82398857D02*
X107402380Y-82398857D01*
X107402380Y-82017904D01*
X107450000Y-81922666D01*
X107497619Y-81875047D01*
X107592857Y-81827428D01*
X107735714Y-81827428D01*
X107830952Y-81875047D01*
X107878571Y-81922666D01*
X107926190Y-82017904D01*
X107926190Y-82398857D01*
X107402380Y-81494095D02*
X107402380Y-80875047D01*
X107783333Y-81208380D01*
X107783333Y-81065523D01*
X107830952Y-80970285D01*
X107878571Y-80922666D01*
X107973809Y-80875047D01*
X108211904Y-80875047D01*
X108307142Y-80922666D01*
X108354761Y-80970285D01*
X108402380Y-81065523D01*
X108402380Y-81351238D01*
X108354761Y-81446476D01*
X108307142Y-81494095D01*
X107450000Y-79160761D02*
X107402380Y-79256000D01*
X107402380Y-79398857D01*
X107450000Y-79541714D01*
X107545238Y-79636952D01*
X107640476Y-79684571D01*
X107830952Y-79732190D01*
X107973809Y-79732190D01*
X108164285Y-79684571D01*
X108259523Y-79636952D01*
X108354761Y-79541714D01*
X108402380Y-79398857D01*
X108402380Y-79303619D01*
X108354761Y-79160761D01*
X108307142Y-79113142D01*
X107973809Y-79113142D01*
X107973809Y-79303619D01*
X108402380Y-78684571D02*
X107402380Y-78684571D01*
X108402380Y-78113142D01*
X107402380Y-78113142D01*
X108402380Y-77636952D02*
X107402380Y-77636952D01*
X107402380Y-77398857D01*
X107450000Y-77256000D01*
X107545238Y-77160761D01*
X107640476Y-77113142D01*
X107830952Y-77065523D01*
X107973809Y-77065523D01*
X108164285Y-77113142D01*
X108259523Y-77160761D01*
X108354761Y-77256000D01*
X108402380Y-77398857D01*
X108402380Y-77636952D01*
X106116380Y-82398857D02*
X105116380Y-82398857D01*
X105116380Y-82017904D01*
X105164000Y-81922666D01*
X105211619Y-81875047D01*
X105306857Y-81827428D01*
X105449714Y-81827428D01*
X105544952Y-81875047D01*
X105592571Y-81922666D01*
X105640190Y-82017904D01*
X105640190Y-82398857D01*
X105449714Y-80970285D02*
X106116380Y-80970285D01*
X105068761Y-81208380D02*
X105783047Y-81446476D01*
X105783047Y-80827428D01*
X105164000Y-79160761D02*
X105116380Y-79256000D01*
X105116380Y-79398857D01*
X105164000Y-79541714D01*
X105259238Y-79636952D01*
X105354476Y-79684571D01*
X105544952Y-79732190D01*
X105687809Y-79732190D01*
X105878285Y-79684571D01*
X105973523Y-79636952D01*
X106068761Y-79541714D01*
X106116380Y-79398857D01*
X106116380Y-79303619D01*
X106068761Y-79160761D01*
X106021142Y-79113142D01*
X105687809Y-79113142D01*
X105687809Y-79303619D01*
X106116380Y-78684571D02*
X105116380Y-78684571D01*
X106116380Y-78113142D01*
X105116380Y-78113142D01*
X106116380Y-77636952D02*
X105116380Y-77636952D01*
X105116380Y-77398857D01*
X105164000Y-77256000D01*
X105259238Y-77160761D01*
X105354476Y-77113142D01*
X105544952Y-77065523D01*
X105687809Y-77065523D01*
X105878285Y-77113142D01*
X105973523Y-77160761D01*
X106068761Y-77256000D01*
X106116380Y-77398857D01*
X106116380Y-77636952D01*
X189565595Y-60191571D02*
X189898928Y-60191571D01*
X190041785Y-60715380D02*
X189565595Y-60715380D01*
X189565595Y-59715380D01*
X190041785Y-59715380D01*
X190375119Y-60715380D02*
X190898928Y-60048714D01*
X190375119Y-60048714D02*
X190898928Y-60715380D01*
X191279880Y-60048714D02*
X191279880Y-61048714D01*
X191279880Y-60096333D02*
X191375119Y-60048714D01*
X191565595Y-60048714D01*
X191660833Y-60096333D01*
X191708452Y-60143952D01*
X191756071Y-60239190D01*
X191756071Y-60524904D01*
X191708452Y-60620142D01*
X191660833Y-60667761D01*
X191565595Y-60715380D01*
X191375119Y-60715380D01*
X191279880Y-60667761D01*
X192565595Y-60667761D02*
X192470357Y-60715380D01*
X192279880Y-60715380D01*
X192184642Y-60667761D01*
X192137023Y-60572523D01*
X192137023Y-60191571D01*
X192184642Y-60096333D01*
X192279880Y-60048714D01*
X192470357Y-60048714D01*
X192565595Y-60096333D01*
X192613214Y-60191571D01*
X192613214Y-60286809D01*
X192137023Y-60382047D01*
X193041785Y-60715380D02*
X193041785Y-60048714D01*
X193041785Y-60239190D02*
X193089404Y-60143952D01*
X193137023Y-60096333D01*
X193232261Y-60048714D01*
X193327500Y-60048714D01*
X193660833Y-60715380D02*
X193660833Y-60048714D01*
X193660833Y-59715380D02*
X193613214Y-59763000D01*
X193660833Y-59810619D01*
X193708452Y-59763000D01*
X193660833Y-59715380D01*
X193660833Y-59810619D01*
X194137023Y-60715380D02*
X194137023Y-60048714D01*
X194137023Y-60143952D02*
X194184642Y-60096333D01*
X194279880Y-60048714D01*
X194422738Y-60048714D01*
X194517976Y-60096333D01*
X194565595Y-60191571D01*
X194565595Y-60715380D01*
X194565595Y-60191571D02*
X194613214Y-60096333D01*
X194708452Y-60048714D01*
X194851309Y-60048714D01*
X194946547Y-60096333D01*
X194994166Y-60191571D01*
X194994166Y-60715380D01*
X195851309Y-60667761D02*
X195756071Y-60715380D01*
X195565595Y-60715380D01*
X195470357Y-60667761D01*
X195422738Y-60572523D01*
X195422738Y-60191571D01*
X195470357Y-60096333D01*
X195565595Y-60048714D01*
X195756071Y-60048714D01*
X195851309Y-60096333D01*
X195898928Y-60191571D01*
X195898928Y-60286809D01*
X195422738Y-60382047D01*
X196327500Y-60048714D02*
X196327500Y-60715380D01*
X196327500Y-60143952D02*
X196375119Y-60096333D01*
X196470357Y-60048714D01*
X196613214Y-60048714D01*
X196708452Y-60096333D01*
X196756071Y-60191571D01*
X196756071Y-60715380D01*
X197089404Y-60048714D02*
X197470357Y-60048714D01*
X197232261Y-59715380D02*
X197232261Y-60572523D01*
X197279880Y-60667761D01*
X197375119Y-60715380D01*
X197470357Y-60715380D01*
X198232261Y-60715380D02*
X198232261Y-60191571D01*
X198184642Y-60096333D01*
X198089404Y-60048714D01*
X197898928Y-60048714D01*
X197803690Y-60096333D01*
X198232261Y-60667761D02*
X198137023Y-60715380D01*
X197898928Y-60715380D01*
X197803690Y-60667761D01*
X197756071Y-60572523D01*
X197756071Y-60477285D01*
X197803690Y-60382047D01*
X197898928Y-60334428D01*
X198137023Y-60334428D01*
X198232261Y-60286809D01*
X198851309Y-60715380D02*
X198756071Y-60667761D01*
X198708452Y-60572523D01*
X198708452Y-59715380D01*
X199946547Y-60667761D02*
X200089404Y-60715380D01*
X200327500Y-60715380D01*
X200422738Y-60667761D01*
X200470357Y-60620142D01*
X200517976Y-60524904D01*
X200517976Y-60429666D01*
X200470357Y-60334428D01*
X200422738Y-60286809D01*
X200327500Y-60239190D01*
X200137023Y-60191571D01*
X200041785Y-60143952D01*
X199994166Y-60096333D01*
X199946547Y-60001095D01*
X199946547Y-59905857D01*
X199994166Y-59810619D01*
X200041785Y-59763000D01*
X200137023Y-59715380D01*
X200375119Y-59715380D01*
X200517976Y-59763000D01*
X201375119Y-60667761D02*
X201279880Y-60715380D01*
X201089404Y-60715380D01*
X200994166Y-60667761D01*
X200946547Y-60620142D01*
X200898928Y-60524904D01*
X200898928Y-60239190D01*
X200946547Y-60143952D01*
X200994166Y-60096333D01*
X201089404Y-60048714D01*
X201279880Y-60048714D01*
X201375119Y-60096333D01*
X201803690Y-60715380D02*
X201803690Y-59715380D01*
X202232261Y-60715380D02*
X202232261Y-60191571D01*
X202184642Y-60096333D01*
X202089404Y-60048714D01*
X201946547Y-60048714D01*
X201851309Y-60096333D01*
X201803690Y-60143952D01*
X202851309Y-60715380D02*
X202756071Y-60667761D01*
X202708452Y-60620142D01*
X202660833Y-60524904D01*
X202660833Y-60239190D01*
X202708452Y-60143952D01*
X202756071Y-60096333D01*
X202851309Y-60048714D01*
X202994166Y-60048714D01*
X203089404Y-60096333D01*
X203137023Y-60143952D01*
X203184642Y-60239190D01*
X203184642Y-60524904D01*
X203137023Y-60620142D01*
X203089404Y-60667761D01*
X202994166Y-60715380D01*
X202851309Y-60715380D01*
X203756071Y-60715380D02*
X203660833Y-60667761D01*
X203613214Y-60620142D01*
X203565595Y-60524904D01*
X203565595Y-60239190D01*
X203613214Y-60143952D01*
X203660833Y-60096333D01*
X203756071Y-60048714D01*
X203898928Y-60048714D01*
X203994166Y-60096333D01*
X204041785Y-60143952D01*
X204089404Y-60239190D01*
X204089404Y-60524904D01*
X204041785Y-60620142D01*
X203994166Y-60667761D01*
X203898928Y-60715380D01*
X203756071Y-60715380D01*
X204660833Y-60715380D02*
X204565595Y-60667761D01*
X204517976Y-60572523D01*
X204517976Y-59715380D01*
X204994166Y-60667761D02*
X205089404Y-60715380D01*
X205279880Y-60715380D01*
X205375119Y-60667761D01*
X205422738Y-60572523D01*
X205422738Y-60524904D01*
X205375119Y-60429666D01*
X205279880Y-60382047D01*
X205137023Y-60382047D01*
X205041785Y-60334428D01*
X204994166Y-60239190D01*
X204994166Y-60191571D01*
X205041785Y-60096333D01*
X205137023Y-60048714D01*
X205279880Y-60048714D01*
X205375119Y-60096333D01*
X207184642Y-60620142D02*
X207137023Y-60667761D01*
X206994166Y-60715380D01*
X206898928Y-60715380D01*
X206756071Y-60667761D01*
X206660833Y-60572523D01*
X206613214Y-60477285D01*
X206565595Y-60286809D01*
X206565595Y-60143952D01*
X206613214Y-59953476D01*
X206660833Y-59858238D01*
X206756071Y-59763000D01*
X206898928Y-59715380D01*
X206994166Y-59715380D01*
X207137023Y-59763000D01*
X207184642Y-59810619D01*
X207756071Y-60715380D02*
X207660833Y-60667761D01*
X207613214Y-60620142D01*
X207565595Y-60524904D01*
X207565595Y-60239190D01*
X207613214Y-60143952D01*
X207660833Y-60096333D01*
X207756071Y-60048714D01*
X207898928Y-60048714D01*
X207994166Y-60096333D01*
X208041785Y-60143952D01*
X208089404Y-60239190D01*
X208089404Y-60524904D01*
X208041785Y-60620142D01*
X207994166Y-60667761D01*
X207898928Y-60715380D01*
X207756071Y-60715380D01*
X208517976Y-60715380D02*
X208517976Y-60048714D01*
X208517976Y-60143952D02*
X208565595Y-60096333D01*
X208660833Y-60048714D01*
X208803690Y-60048714D01*
X208898928Y-60096333D01*
X208946547Y-60191571D01*
X208946547Y-60715380D01*
X208946547Y-60191571D02*
X208994166Y-60096333D01*
X209089404Y-60048714D01*
X209232261Y-60048714D01*
X209327500Y-60096333D01*
X209375119Y-60191571D01*
X209375119Y-60715380D01*
X209851309Y-60048714D02*
X209851309Y-61048714D01*
X209851309Y-60096333D02*
X209946547Y-60048714D01*
X210137023Y-60048714D01*
X210232261Y-60096333D01*
X210279880Y-60143952D01*
X210327500Y-60239190D01*
X210327500Y-60524904D01*
X210279880Y-60620142D01*
X210232261Y-60667761D01*
X210137023Y-60715380D01*
X209946547Y-60715380D01*
X209851309Y-60667761D01*
X211184642Y-60048714D02*
X211184642Y-60715380D01*
X210756071Y-60048714D02*
X210756071Y-60572523D01*
X210803690Y-60667761D01*
X210898928Y-60715380D01*
X211041785Y-60715380D01*
X211137023Y-60667761D01*
X211184642Y-60620142D01*
X211517976Y-60048714D02*
X211898928Y-60048714D01*
X211660833Y-59715380D02*
X211660833Y-60572523D01*
X211708452Y-60667761D01*
X211803690Y-60715380D01*
X211898928Y-60715380D01*
X212613214Y-60667761D02*
X212517976Y-60715380D01*
X212327500Y-60715380D01*
X212232261Y-60667761D01*
X212184642Y-60572523D01*
X212184642Y-60191571D01*
X212232261Y-60096333D01*
X212327500Y-60048714D01*
X212517976Y-60048714D01*
X212613214Y-60096333D01*
X212660833Y-60191571D01*
X212660833Y-60286809D01*
X212184642Y-60382047D01*
X213089404Y-60715380D02*
X213089404Y-60048714D01*
X213089404Y-60239190D02*
X213137023Y-60143952D01*
X213184642Y-60096333D01*
X213279880Y-60048714D01*
X213375119Y-60048714D01*
X215041785Y-60715380D02*
X214708452Y-60239190D01*
X214470357Y-60715380D02*
X214470357Y-59715380D01*
X214851309Y-59715380D01*
X214946547Y-59763000D01*
X214994166Y-59810619D01*
X215041785Y-59905857D01*
X215041785Y-60048714D01*
X214994166Y-60143952D01*
X214946547Y-60191571D01*
X214851309Y-60239190D01*
X214470357Y-60239190D01*
X215851309Y-60667761D02*
X215756071Y-60715380D01*
X215565595Y-60715380D01*
X215470357Y-60667761D01*
X215422738Y-60572523D01*
X215422738Y-60191571D01*
X215470357Y-60096333D01*
X215565595Y-60048714D01*
X215756071Y-60048714D01*
X215851309Y-60096333D01*
X215898928Y-60191571D01*
X215898928Y-60286809D01*
X215422738Y-60382047D01*
X216327500Y-60334428D02*
X217089404Y-60334428D01*
X217994166Y-60667761D02*
X217898928Y-60715380D01*
X217708452Y-60715380D01*
X217613214Y-60667761D01*
X217565595Y-60620142D01*
X217517976Y-60524904D01*
X217517976Y-60239190D01*
X217565595Y-60143952D01*
X217613214Y-60096333D01*
X217708452Y-60048714D01*
X217898928Y-60048714D01*
X217994166Y-60096333D01*
X218422738Y-60715380D02*
X218422738Y-60048714D01*
X218422738Y-60239190D02*
X218470357Y-60143952D01*
X218517976Y-60096333D01*
X218613214Y-60048714D01*
X218708452Y-60048714D01*
X219422738Y-60667761D02*
X219327500Y-60715380D01*
X219137023Y-60715380D01*
X219041785Y-60667761D01*
X218994166Y-60572523D01*
X218994166Y-60191571D01*
X219041785Y-60096333D01*
X219137023Y-60048714D01*
X219327500Y-60048714D01*
X219422738Y-60096333D01*
X219470357Y-60191571D01*
X219470357Y-60286809D01*
X218994166Y-60382047D01*
X220327500Y-60715380D02*
X220327500Y-60191571D01*
X220279880Y-60096333D01*
X220184642Y-60048714D01*
X219994166Y-60048714D01*
X219898928Y-60096333D01*
X220327500Y-60667761D02*
X220232261Y-60715380D01*
X219994166Y-60715380D01*
X219898928Y-60667761D01*
X219851309Y-60572523D01*
X219851309Y-60477285D01*
X219898928Y-60382047D01*
X219994166Y-60334428D01*
X220232261Y-60334428D01*
X220327500Y-60286809D01*
X220660833Y-60048714D02*
X221041785Y-60048714D01*
X220803690Y-59715380D02*
X220803690Y-60572523D01*
X220851309Y-60667761D01*
X220946547Y-60715380D01*
X221041785Y-60715380D01*
X221375119Y-60715380D02*
X221375119Y-60048714D01*
X221375119Y-59715380D02*
X221327500Y-59763000D01*
X221375119Y-59810619D01*
X221422738Y-59763000D01*
X221375119Y-59715380D01*
X221375119Y-59810619D01*
X221994166Y-60715380D02*
X221898928Y-60667761D01*
X221851309Y-60620142D01*
X221803690Y-60524904D01*
X221803690Y-60239190D01*
X221851309Y-60143952D01*
X221898928Y-60096333D01*
X221994166Y-60048714D01*
X222137023Y-60048714D01*
X222232261Y-60096333D01*
X222279880Y-60143952D01*
X222327500Y-60239190D01*
X222327500Y-60524904D01*
X222279880Y-60620142D01*
X222232261Y-60667761D01*
X222137023Y-60715380D01*
X221994166Y-60715380D01*
X222756071Y-60048714D02*
X222756071Y-60715380D01*
X222756071Y-60143952D02*
X222803690Y-60096333D01*
X222898928Y-60048714D01*
X223041785Y-60048714D01*
X223137023Y-60096333D01*
X223184642Y-60191571D01*
X223184642Y-60715380D01*
X189565595Y-62365380D02*
X189565595Y-61698714D01*
X189565595Y-61793952D02*
X189613214Y-61746333D01*
X189708452Y-61698714D01*
X189851309Y-61698714D01*
X189946547Y-61746333D01*
X189994166Y-61841571D01*
X189994166Y-62365380D01*
X189994166Y-61841571D02*
X190041785Y-61746333D01*
X190137023Y-61698714D01*
X190279880Y-61698714D01*
X190375119Y-61746333D01*
X190422738Y-61841571D01*
X190422738Y-62365380D01*
X191279880Y-62317761D02*
X191184642Y-62365380D01*
X190994166Y-62365380D01*
X190898928Y-62317761D01*
X190851309Y-62222523D01*
X190851309Y-61841571D01*
X190898928Y-61746333D01*
X190994166Y-61698714D01*
X191184642Y-61698714D01*
X191279880Y-61746333D01*
X191327500Y-61841571D01*
X191327500Y-61936809D01*
X190851309Y-62032047D01*
X191756071Y-61698714D02*
X191756071Y-62365380D01*
X191756071Y-61793952D02*
X191803690Y-61746333D01*
X191898928Y-61698714D01*
X192041785Y-61698714D01*
X192137023Y-61746333D01*
X192184642Y-61841571D01*
X192184642Y-62365380D01*
X193089404Y-62365380D02*
X193089404Y-61841571D01*
X193041785Y-61746333D01*
X192946547Y-61698714D01*
X192756071Y-61698714D01*
X192660833Y-61746333D01*
X193089404Y-62317761D02*
X192994166Y-62365380D01*
X192756071Y-62365380D01*
X192660833Y-62317761D01*
X192613214Y-62222523D01*
X192613214Y-62127285D01*
X192660833Y-62032047D01*
X192756071Y-61984428D01*
X192994166Y-61984428D01*
X193089404Y-61936809D01*
X193994166Y-62365380D02*
X193994166Y-61365380D01*
X193994166Y-62317761D02*
X193898928Y-62365380D01*
X193708452Y-62365380D01*
X193613214Y-62317761D01*
X193565595Y-62270142D01*
X193517976Y-62174904D01*
X193517976Y-61889190D01*
X193565595Y-61793952D01*
X193613214Y-61746333D01*
X193708452Y-61698714D01*
X193898928Y-61698714D01*
X193994166Y-61746333D01*
X194898928Y-61698714D02*
X194898928Y-62365380D01*
X194470357Y-61698714D02*
X194470357Y-62222523D01*
X194517976Y-62317761D01*
X194613214Y-62365380D01*
X194756071Y-62365380D01*
X194851309Y-62317761D01*
X194898928Y-62270142D01*
X195756071Y-62317761D02*
X195660833Y-62365380D01*
X195470357Y-62365380D01*
X195375119Y-62317761D01*
X195327500Y-62222523D01*
X195327500Y-61841571D01*
X195375119Y-61746333D01*
X195470357Y-61698714D01*
X195660833Y-61698714D01*
X195756071Y-61746333D01*
X195803690Y-61841571D01*
X195803690Y-61936809D01*
X195327500Y-62032047D01*
X196851309Y-61889190D02*
X196803690Y-61841571D01*
X196708452Y-61793952D01*
X196613214Y-61793952D01*
X196517976Y-61841571D01*
X196470357Y-61889190D01*
X196422738Y-61984428D01*
X196422738Y-62079666D01*
X196470357Y-62174904D01*
X196517976Y-62222523D01*
X196613214Y-62270142D01*
X196708452Y-62270142D01*
X196803690Y-62222523D01*
X196851309Y-62174904D01*
X196851309Y-61793952D02*
X196851309Y-62174904D01*
X196898928Y-62222523D01*
X196946547Y-62222523D01*
X197041785Y-62174904D01*
X197089404Y-62079666D01*
X197089404Y-61841571D01*
X196994166Y-61698714D01*
X196851309Y-61603476D01*
X196660833Y-61555857D01*
X196470357Y-61603476D01*
X196327500Y-61698714D01*
X196232261Y-61841571D01*
X196184642Y-62032047D01*
X196232261Y-62222523D01*
X196327500Y-62365380D01*
X196470357Y-62460619D01*
X196660833Y-62508238D01*
X196851309Y-62460619D01*
X196994166Y-62365380D01*
X197946547Y-61698714D02*
X197946547Y-62508238D01*
X197898928Y-62603476D01*
X197851309Y-62651095D01*
X197756071Y-62698714D01*
X197613214Y-62698714D01*
X197517976Y-62651095D01*
X197946547Y-62317761D02*
X197851309Y-62365380D01*
X197660833Y-62365380D01*
X197565595Y-62317761D01*
X197517976Y-62270142D01*
X197470357Y-62174904D01*
X197470357Y-61889190D01*
X197517976Y-61793952D01*
X197565595Y-61746333D01*
X197660833Y-61698714D01*
X197851309Y-61698714D01*
X197946547Y-61746333D01*
X198422738Y-62365380D02*
X198422738Y-61698714D01*
X198422738Y-61793952D02*
X198470357Y-61746333D01*
X198565595Y-61698714D01*
X198708452Y-61698714D01*
X198803690Y-61746333D01*
X198851309Y-61841571D01*
X198851309Y-62365380D01*
X198851309Y-61841571D02*
X198898928Y-61746333D01*
X198994166Y-61698714D01*
X199137023Y-61698714D01*
X199232261Y-61746333D01*
X199279880Y-61841571D01*
X199279880Y-62365380D01*
X200184642Y-62365380D02*
X200184642Y-61841571D01*
X200137023Y-61746333D01*
X200041785Y-61698714D01*
X199851309Y-61698714D01*
X199756071Y-61746333D01*
X200184642Y-62317761D02*
X200089404Y-62365380D01*
X199851309Y-62365380D01*
X199756071Y-62317761D01*
X199708452Y-62222523D01*
X199708452Y-62127285D01*
X199756071Y-62032047D01*
X199851309Y-61984428D01*
X200089404Y-61984428D01*
X200184642Y-61936809D01*
X200660833Y-62365380D02*
X200660833Y-61698714D01*
X200660833Y-61365380D02*
X200613214Y-61413000D01*
X200660833Y-61460619D01*
X200708452Y-61413000D01*
X200660833Y-61365380D01*
X200660833Y-61460619D01*
X201279880Y-62365380D02*
X201184642Y-62317761D01*
X201137023Y-62222523D01*
X201137023Y-61365380D01*
X201660833Y-62270142D02*
X201708452Y-62317761D01*
X201660833Y-62365380D01*
X201613214Y-62317761D01*
X201660833Y-62270142D01*
X201660833Y-62365380D01*
X202565595Y-62317761D02*
X202470357Y-62365380D01*
X202279880Y-62365380D01*
X202184642Y-62317761D01*
X202137023Y-62270142D01*
X202089404Y-62174904D01*
X202089404Y-61889190D01*
X202137023Y-61793952D01*
X202184642Y-61746333D01*
X202279880Y-61698714D01*
X202470357Y-61698714D01*
X202565595Y-61746333D01*
X203137023Y-62365380D02*
X203041785Y-62317761D01*
X202994166Y-62270142D01*
X202946547Y-62174904D01*
X202946547Y-61889190D01*
X202994166Y-61793952D01*
X203041785Y-61746333D01*
X203137023Y-61698714D01*
X203279880Y-61698714D01*
X203375119Y-61746333D01*
X203422738Y-61793952D01*
X203470357Y-61889190D01*
X203470357Y-62174904D01*
X203422738Y-62270142D01*
X203375119Y-62317761D01*
X203279880Y-62365380D01*
X203137023Y-62365380D01*
X203898928Y-62365380D02*
X203898928Y-61698714D01*
X203898928Y-61793952D02*
X203946547Y-61746333D01*
X204041785Y-61698714D01*
X204184642Y-61698714D01*
X204279880Y-61746333D01*
X204327500Y-61841571D01*
X204327500Y-62365380D01*
X204327500Y-61841571D02*
X204375119Y-61746333D01*
X204470357Y-61698714D01*
X204613214Y-61698714D01*
X204708452Y-61746333D01*
X204756071Y-61841571D01*
X204756071Y-62365380D01*
X189565595Y-64015380D02*
X189565595Y-63015380D01*
X189803690Y-63015380D01*
X189946547Y-63063000D01*
X190041785Y-63158238D01*
X190089404Y-63253476D01*
X190137023Y-63443952D01*
X190137023Y-63586809D01*
X190089404Y-63777285D01*
X190041785Y-63872523D01*
X189946547Y-63967761D01*
X189803690Y-64015380D01*
X189565595Y-64015380D01*
X190946547Y-63967761D02*
X190851309Y-64015380D01*
X190660833Y-64015380D01*
X190565595Y-63967761D01*
X190517976Y-63872523D01*
X190517976Y-63491571D01*
X190565595Y-63396333D01*
X190660833Y-63348714D01*
X190851309Y-63348714D01*
X190946547Y-63396333D01*
X190994166Y-63491571D01*
X190994166Y-63586809D01*
X190517976Y-63682047D01*
X191851309Y-63967761D02*
X191756071Y-64015380D01*
X191565595Y-64015380D01*
X191470357Y-63967761D01*
X191422738Y-63920142D01*
X191375119Y-63824904D01*
X191375119Y-63539190D01*
X191422738Y-63443952D01*
X191470357Y-63396333D01*
X191565595Y-63348714D01*
X191756071Y-63348714D01*
X191851309Y-63396333D01*
X192994166Y-63110619D02*
X193041785Y-63063000D01*
X193137023Y-63015380D01*
X193375119Y-63015380D01*
X193470357Y-63063000D01*
X193517976Y-63110619D01*
X193565595Y-63205857D01*
X193565595Y-63301095D01*
X193517976Y-63443952D01*
X192946547Y-64015380D01*
X193565595Y-64015380D01*
X194184642Y-63015380D02*
X194279880Y-63015380D01*
X194375119Y-63063000D01*
X194422738Y-63110619D01*
X194470357Y-63205857D01*
X194517976Y-63396333D01*
X194517976Y-63634428D01*
X194470357Y-63824904D01*
X194422738Y-63920142D01*
X194375119Y-63967761D01*
X194279880Y-64015380D01*
X194184642Y-64015380D01*
X194089404Y-63967761D01*
X194041785Y-63920142D01*
X193994166Y-63824904D01*
X193946547Y-63634428D01*
X193946547Y-63396333D01*
X193994166Y-63205857D01*
X194041785Y-63110619D01*
X194089404Y-63063000D01*
X194184642Y-63015380D01*
X194898928Y-63110619D02*
X194946547Y-63063000D01*
X195041785Y-63015380D01*
X195279880Y-63015380D01*
X195375119Y-63063000D01*
X195422738Y-63110619D01*
X195470357Y-63205857D01*
X195470357Y-63301095D01*
X195422738Y-63443952D01*
X194851309Y-64015380D01*
X195470357Y-64015380D01*
X195803690Y-63015380D02*
X196422738Y-63015380D01*
X196089404Y-63396333D01*
X196232261Y-63396333D01*
X196327500Y-63443952D01*
X196375119Y-63491571D01*
X196422738Y-63586809D01*
X196422738Y-63824904D01*
X196375119Y-63920142D01*
X196327500Y-63967761D01*
X196232261Y-64015380D01*
X195946547Y-64015380D01*
X195851309Y-63967761D01*
X195803690Y-63920142D01*
X189422738Y-64665380D02*
X189756071Y-65665380D01*
X190089404Y-64665380D01*
X190946547Y-65665380D02*
X190375119Y-65665380D01*
X190660833Y-65665380D02*
X190660833Y-64665380D01*
X190565595Y-64808238D01*
X190470357Y-64903476D01*
X190375119Y-64951095D01*
X191375119Y-65570142D02*
X191422738Y-65617761D01*
X191375119Y-65665380D01*
X191327500Y-65617761D01*
X191375119Y-65570142D01*
X191375119Y-65665380D01*
X192041785Y-64665380D02*
X192137023Y-64665380D01*
X192232261Y-64713000D01*
X192279880Y-64760619D01*
X192327500Y-64855857D01*
X192375119Y-65046333D01*
X192375119Y-65284428D01*
X192327500Y-65474904D01*
X192279880Y-65570142D01*
X192232261Y-65617761D01*
X192137023Y-65665380D01*
X192041785Y-65665380D01*
X191946547Y-65617761D01*
X191898928Y-65570142D01*
X191851309Y-65474904D01*
X191803690Y-65284428D01*
X191803690Y-65046333D01*
X191851309Y-64855857D01*
X191898928Y-64760619D01*
X191946547Y-64713000D01*
X192041785Y-64665380D01*
D11*
X93965000Y-95150000D02*
X93965000Y-65150000D01*
X123965000Y-95150000D02*
X93965000Y-95150000D01*
X123965000Y-65150000D02*
X123965000Y-95150000D01*
X93965000Y-65150000D02*
X123965000Y-65150000D01*
X128270000Y-84388000D02*
X126940000Y-84388000D01*
X126940000Y-84388000D02*
X126940000Y-83058000D01*
X126940000Y-81788000D02*
X126940000Y-76648000D01*
X129600000Y-76648000D02*
X126940000Y-76648000D01*
X129600000Y-81788000D02*
X129600000Y-76648000D01*
X129600000Y-81788000D02*
X126940000Y-81788000D01*
X134035001Y-56955001D02*
X136835001Y-56955001D01*
X136835001Y-56955001D02*
X136835001Y-58955001D01*
X136835001Y-58955001D02*
X134035001Y-58955001D01*
X134035001Y-58955001D02*
X134035001Y-56955001D01*
X133290000Y-53975000D02*
X133290000Y-52645000D01*
X133290000Y-52645000D02*
X134620000Y-52645000D01*
X135890000Y-52645000D02*
X138490000Y-52645000D01*
X138490000Y-55305000D02*
X138490000Y-52645000D01*
X135890000Y-55305000D02*
X138490000Y-55305000D01*
X135890000Y-55305000D02*
X135890000Y-52645000D01*
X161350000Y-57090000D02*
X161350000Y-58420000D01*
X160020000Y-57090000D02*
X161350000Y-57090000D01*
X158750000Y-57090000D02*
X158750000Y-59750000D01*
X158750000Y-59750000D02*
X151070000Y-59750000D01*
X158750000Y-57090000D02*
X151070000Y-57090000D01*
X151070000Y-57090000D02*
X151070000Y-59750000D01*
X114360000Y-65980000D02*
X114360000Y-67310000D01*
X113030000Y-65980000D02*
X114360000Y-65980000D01*
X111760000Y-65980000D02*
X111760000Y-68640000D01*
X111760000Y-68640000D02*
X104080000Y-68640000D01*
X111760000Y-65980000D02*
X104080000Y-65980000D01*
X104080000Y-65980000D02*
X104080000Y-68640000D01*
X140224000Y-57876000D02*
X140224000Y-53976000D01*
X142224000Y-57876000D02*
X142224000Y-53976000D01*
X140224000Y-57876000D02*
X142224000Y-57876000D01*
X150700000Y-55480000D02*
X150700000Y-54150000D01*
X152030000Y-55480000D02*
X150700000Y-55480000D01*
X153300000Y-55480000D02*
X153300000Y-52820000D01*
X153300000Y-52820000D02*
X160980000Y-52820000D01*
X153300000Y-55480000D02*
X160980000Y-55480000D01*
X160980000Y-55480000D02*
X160980000Y-52820000D01*
X184090000Y-53975000D02*
X184090000Y-52645000D01*
X184090000Y-52645000D02*
X185420000Y-52645000D01*
X186690000Y-52645000D02*
X209610000Y-52645000D01*
X209610000Y-55305000D02*
X209610000Y-52645000D01*
X186690000Y-55305000D02*
X209610000Y-55305000D01*
X186690000Y-55305000D02*
X186690000Y-52645000D01*
X96460000Y-55305000D02*
X96460000Y-53975000D01*
X97790000Y-55305000D02*
X96460000Y-55305000D01*
X99060000Y-55305000D02*
X99060000Y-52645000D01*
X99060000Y-52645000D02*
X129600000Y-52645000D01*
X99060000Y-55305000D02*
X129600000Y-55305000D01*
X129600000Y-55305000D02*
X129600000Y-52645000D01*
X203100000Y-91212936D02*
X203100000Y-91667064D01*
X204570000Y-91212936D02*
X204570000Y-91667064D01*
X210412064Y-95785000D02*
X209957936Y-95785000D01*
X210412064Y-97255000D02*
X209957936Y-97255000D01*
X206775000Y-93000000D02*
X206775000Y-86990000D01*
X213595000Y-90750000D02*
X213595000Y-86990000D01*
X206775000Y-86990000D02*
X208035000Y-86990000D01*
X213595000Y-86990000D02*
X212335000Y-86990000D01*
X204346000Y-87995000D02*
X201546000Y-87995000D01*
X201546000Y-87995000D02*
X201546000Y-85995000D01*
X201546000Y-85995000D02*
X204346000Y-85995000D01*
X204346000Y-85995000D02*
X204346000Y-87995000D01*
X109755000Y-60922936D02*
X109755000Y-61377064D01*
X111225000Y-60922936D02*
X111225000Y-61377064D01*
X113765000Y-61377064D02*
X113765000Y-60922936D01*
X112295000Y-61377064D02*
X112295000Y-60922936D01*
D10*
X219200000Y-81010000D02*
X219200000Y-73660000D01*
X219200000Y-73660000D02*
X219250000Y-72310000D01*
X219250000Y-72310000D02*
X219400000Y-71160000D01*
X219400000Y-71160000D02*
X219600000Y-70060000D01*
X219600000Y-70060000D02*
X219900000Y-69010000D01*
X205900000Y-70860000D02*
X204600000Y-70860000D01*
X214100000Y-81010000D02*
X206900000Y-81010000D01*
X216900000Y-81010000D02*
X219200000Y-81010000D01*
X219900000Y-69010000D02*
X219900000Y-66310000D01*
X219900000Y-66310000D02*
X216900000Y-66310000D01*
X206900000Y-66310000D02*
X214100000Y-66310000D01*
X206500000Y-71310000D02*
X206500000Y-71610000D01*
X206500000Y-71610000D02*
X206800000Y-71610000D01*
X206800000Y-71610000D02*
X206800000Y-71310000D01*
X206800000Y-71310000D02*
X206500000Y-71310000D01*
X205900000Y-70860000D02*
X205900000Y-67860000D01*
D11*
X213060000Y-133635000D02*
X213060000Y-132135000D01*
X211810000Y-129635000D02*
X207310000Y-129635000D01*
X206060000Y-132135000D02*
X206060000Y-133635000D01*
X207310000Y-136135000D02*
X211810000Y-136135000D01*
X207980000Y-124110000D02*
X207980000Y-122610000D01*
X206730000Y-120110000D02*
X202230000Y-120110000D01*
X200980000Y-122610000D02*
X200980000Y-124110000D01*
X202230000Y-126610000D02*
X206730000Y-126610000D01*
X212425000Y-114585000D02*
X212425000Y-113085000D01*
X211175000Y-110585000D02*
X206675000Y-110585000D01*
X205425000Y-113085000D02*
X205425000Y-114585000D01*
X206675000Y-117085000D02*
X211175000Y-117085000D01*
X193550000Y-114585000D02*
X193550000Y-113085000D01*
X192300000Y-110585000D02*
X187800000Y-110585000D01*
X186550000Y-113085000D02*
X186550000Y-114585000D01*
X187800000Y-117085000D02*
X192300000Y-117085000D01*
X187835000Y-105060000D02*
X187835000Y-103560000D01*
X186585000Y-101060000D02*
X182085000Y-101060000D01*
X180835000Y-103560000D02*
X180835000Y-105060000D01*
X182085000Y-107560000D02*
X186585000Y-107560000D01*
X182120000Y-133635000D02*
X182120000Y-132135000D01*
X180870000Y-129635000D02*
X176370000Y-129635000D01*
X175120000Y-132135000D02*
X175120000Y-133635000D01*
X176370000Y-136135000D02*
X180870000Y-136135000D01*
X187835000Y-124110000D02*
X187835000Y-122610000D01*
X186585000Y-120110000D02*
X182085000Y-120110000D01*
X180835000Y-122610000D02*
X180835000Y-124110000D01*
X182085000Y-126610000D02*
X186585000Y-126610000D01*
X182120000Y-114585000D02*
X182120000Y-113085000D01*
X180870000Y-110585000D02*
X176370000Y-110585000D01*
X175120000Y-113085000D02*
X175120000Y-114585000D01*
X176370000Y-117085000D02*
X180870000Y-117085000D01*
X176405000Y-105060000D02*
X176405000Y-103560000D01*
X175155000Y-101060000D02*
X170655000Y-101060000D01*
X169405000Y-103560000D02*
X169405000Y-105060000D01*
X170655000Y-107560000D02*
X175155000Y-107560000D01*
X161785000Y-133635000D02*
X161785000Y-132135000D01*
X160535000Y-129635000D02*
X156035000Y-129635000D01*
X154785000Y-132135000D02*
X154785000Y-133635000D01*
X156035000Y-136135000D02*
X160535000Y-136135000D01*
X150355000Y-133635000D02*
X150355000Y-132135000D01*
X149105000Y-129635000D02*
X144605000Y-129635000D01*
X143355000Y-132135000D02*
X143355000Y-133635000D01*
X144605000Y-136135000D02*
X149105000Y-136135000D01*
X138925000Y-133635000D02*
X138925000Y-132135000D01*
X137675000Y-129635000D02*
X133175000Y-129635000D01*
X131925000Y-132135000D02*
X131925000Y-133635000D01*
X133175000Y-136135000D02*
X137675000Y-136135000D01*
X127495000Y-133635000D02*
X127495000Y-132135000D01*
X126245000Y-129635000D02*
X121745000Y-129635000D01*
X120495000Y-132135000D02*
X120495000Y-133635000D01*
X121745000Y-136135000D02*
X126245000Y-136135000D01*
X156070000Y-124110000D02*
X156070000Y-122610000D01*
X154820000Y-120110000D02*
X150320000Y-120110000D01*
X149070000Y-122610000D02*
X149070000Y-124110000D01*
X150320000Y-126610000D02*
X154820000Y-126610000D01*
X144640000Y-124110000D02*
X144640000Y-122610000D01*
X143390000Y-120110000D02*
X138890000Y-120110000D01*
X137640000Y-122610000D02*
X137640000Y-124110000D01*
X138890000Y-126610000D02*
X143390000Y-126610000D01*
X133210000Y-124110000D02*
X133210000Y-122610000D01*
X131960000Y-120110000D02*
X127460000Y-120110000D01*
X126210000Y-122610000D02*
X126210000Y-124110000D01*
X127460000Y-126610000D02*
X131960000Y-126610000D01*
X150355000Y-114585000D02*
X150355000Y-113085000D01*
X149105000Y-110585000D02*
X144605000Y-110585000D01*
X143355000Y-113085000D02*
X143355000Y-114585000D01*
X144605000Y-117085000D02*
X149105000Y-117085000D01*
X138925000Y-114585000D02*
X138925000Y-113085000D01*
X137675000Y-110585000D02*
X133175000Y-110585000D01*
X131925000Y-113085000D02*
X131925000Y-114585000D01*
X133175000Y-117085000D02*
X137675000Y-117085000D01*
X127495000Y-114585000D02*
X127495000Y-113085000D01*
X126245000Y-110585000D02*
X121745000Y-110585000D01*
X120495000Y-113085000D02*
X120495000Y-114585000D01*
X121745000Y-117085000D02*
X126245000Y-117085000D01*
X155920000Y-105060000D02*
X155920000Y-103560000D01*
X154670000Y-101060000D02*
X150170000Y-101060000D01*
X148920000Y-103560000D02*
X148920000Y-105060000D01*
X150170000Y-107560000D02*
X154670000Y-107560000D01*
X144640000Y-105060000D02*
X144640000Y-103560000D01*
X143390000Y-101060000D02*
X138890000Y-101060000D01*
X137640000Y-103560000D02*
X137640000Y-105060000D01*
X138890000Y-107560000D02*
X143390000Y-107560000D01*
X133210000Y-105060000D02*
X133210000Y-103560000D01*
X131960000Y-101060000D02*
X127460000Y-101060000D01*
X126210000Y-103560000D02*
X126210000Y-105060000D01*
X127460000Y-107560000D02*
X131960000Y-107560000D01*
X106350000Y-134270000D02*
X106350000Y-132770000D01*
X105100000Y-130270000D02*
X100600000Y-130270000D01*
X99350000Y-132770000D02*
X99350000Y-134270000D01*
X100600000Y-136770000D02*
X105100000Y-136770000D01*
X100000000Y-124110000D02*
X100000000Y-122610000D01*
X98750000Y-120110000D02*
X94250000Y-120110000D01*
X93000000Y-122610000D02*
X93000000Y-124110000D01*
X94250000Y-126610000D02*
X98750000Y-126610000D01*
X111430000Y-124110000D02*
X111430000Y-122610000D01*
X110180000Y-120110000D02*
X105680000Y-120110000D01*
X104430000Y-122610000D02*
X104430000Y-124110000D01*
X105680000Y-126610000D02*
X110180000Y-126610000D01*
X106200000Y-114530000D02*
X106200000Y-113030000D01*
X104950000Y-110530000D02*
X100450000Y-110530000D01*
X99200000Y-113030000D02*
X99200000Y-114530000D01*
X100450000Y-117030000D02*
X104950000Y-117030000D01*
X111430000Y-105060000D02*
X111430000Y-103560000D01*
X110180000Y-101060000D02*
X105680000Y-101060000D01*
X104430000Y-103560000D02*
X104430000Y-105060000D01*
X105680000Y-107560000D02*
X110180000Y-107560000D01*
X100000000Y-105060000D02*
X100000000Y-103560000D01*
X98750000Y-101060000D02*
X94250000Y-101060000D01*
X93000000Y-103560000D02*
X93000000Y-105060000D01*
X94250000Y-107560000D02*
X98750000Y-107560000D01*
X183615000Y-70145000D02*
X183615000Y-91145000D01*
X132615000Y-76945000D02*
X132615000Y-70145000D01*
X180948000Y-70145000D02*
X180948000Y-73152000D01*
X180948000Y-73152000D02*
X183615000Y-73152000D01*
X183615000Y-70145000D02*
X183315000Y-70145000D01*
X181215000Y-70145000D02*
X180815000Y-70145000D01*
X178615000Y-70145000D02*
X178215000Y-70145000D01*
X176115000Y-70145000D02*
X175715000Y-70145000D01*
X173515000Y-70145000D02*
X173115000Y-70145000D01*
X171015000Y-70145000D02*
X170615000Y-70145000D01*
X168515000Y-70145000D02*
X168115000Y-70145000D01*
X165915000Y-70145000D02*
X165515000Y-70145000D01*
X163415000Y-70145000D02*
X163015000Y-70145000D01*
X160815000Y-70145000D02*
X160415000Y-70145000D01*
X158315000Y-70145000D02*
X157915000Y-70145000D01*
X155815000Y-70145000D02*
X155415000Y-70145000D01*
X153215000Y-70145000D02*
X152815000Y-70145000D01*
X150715000Y-70145000D02*
X150315000Y-70145000D01*
X148115000Y-70145000D02*
X147715000Y-70145000D01*
X145615000Y-70145000D02*
X145215000Y-70145000D01*
X143015000Y-70145000D02*
X142615000Y-70145000D01*
X140515000Y-70145000D02*
X140115000Y-70145000D01*
X138015000Y-70145000D02*
X137615000Y-70145000D01*
X135415000Y-70145000D02*
X135015000Y-70145000D01*
X168515000Y-91145000D02*
X168115000Y-91145000D01*
X163415000Y-91145000D02*
X163015000Y-91145000D01*
X155815000Y-91145000D02*
X155415000Y-91145000D01*
X148115000Y-91145000D02*
X147715000Y-91145000D01*
X178615000Y-91145000D02*
X178215000Y-91145000D01*
X181215000Y-91145000D02*
X180815000Y-91145000D01*
X173515000Y-91145000D02*
X173115000Y-91145000D01*
X140515000Y-91145000D02*
X140115000Y-91145000D01*
X135415000Y-91145000D02*
X135015000Y-91145000D01*
X138015000Y-91145000D02*
X137615000Y-91145000D01*
X153215000Y-91145000D02*
X152815000Y-91145000D01*
X158315000Y-91145000D02*
X157915000Y-91145000D01*
X171015000Y-91145000D02*
X170615000Y-91145000D01*
X165915000Y-91145000D02*
X165515000Y-91145000D01*
X145615000Y-91145000D02*
X145215000Y-91145000D01*
X160815000Y-91145000D02*
X160415000Y-91145000D01*
X183615000Y-91145000D02*
X183315000Y-91145000D01*
X176115000Y-91145000D02*
X175715000Y-91145000D01*
X150715000Y-91145000D02*
X150315000Y-91145000D01*
X143015000Y-91145000D02*
X142615000Y-91145000D01*
X132615000Y-91145000D02*
X132615000Y-84345000D01*
X132615000Y-79145000D02*
X132615000Y-79545000D01*
X132615000Y-81745000D02*
X132615000Y-82145000D01*
X106410000Y-70990000D02*
X106410000Y-73790000D01*
X106410000Y-73790000D02*
X104410000Y-73790000D01*
X104410000Y-73790000D02*
X104410000Y-70990000D01*
X104410000Y-70990000D02*
X106410000Y-70990000D01*
X104410000Y-63630000D02*
X104410000Y-60830000D01*
X104410000Y-60830000D02*
X106410000Y-60830000D01*
X106410000Y-60830000D02*
X106410000Y-63630000D01*
X106410000Y-63630000D02*
X104410000Y-63630000D01*
X108950000Y-70990000D02*
X108950000Y-73790000D01*
X108950000Y-73790000D02*
X106950000Y-73790000D01*
X106950000Y-73790000D02*
X106950000Y-70990000D01*
X106950000Y-70990000D02*
X108950000Y-70990000D01*
X106950000Y-63630000D02*
X106950000Y-60830000D01*
X106950000Y-60830000D02*
X108950000Y-60830000D01*
X108950000Y-60830000D02*
X108950000Y-63630000D01*
X108950000Y-63630000D02*
X106950000Y-63630000D01*
X175466000Y-60972000D02*
X175466000Y-64872000D01*
X173466000Y-60972000D02*
X173466000Y-64872000D01*
X175466000Y-60972000D02*
X173466000Y-60972000D01*
X183086000Y-60845000D02*
X183086000Y-64745000D01*
X181086000Y-60845000D02*
X181086000Y-64745000D01*
X183086000Y-60845000D02*
X181086000Y-60845000D01*
X172926000Y-60972000D02*
X172926000Y-64872000D01*
X170926000Y-60972000D02*
X170926000Y-64872000D01*
X172926000Y-60972000D02*
X170926000Y-60972000D01*
X180546000Y-60845000D02*
X180546000Y-64745000D01*
X178546000Y-60845000D02*
X178546000Y-64745000D01*
X180546000Y-60845000D02*
X178546000Y-60845000D01*
D10*
X127936666Y-85280380D02*
X127936666Y-85994666D01*
X127889047Y-86137523D01*
X127793809Y-86232761D01*
X127650952Y-86280380D01*
X127555714Y-86280380D01*
X128841428Y-85613714D02*
X128841428Y-86280380D01*
X128603333Y-85232761D02*
X128365238Y-85947047D01*
X128984285Y-85947047D01*
X131500666Y-59142380D02*
X131500666Y-59856666D01*
X131453047Y-59999523D01*
X131357809Y-60094761D01*
X131214952Y-60142380D01*
X131119714Y-60142380D01*
X131976857Y-60142380D02*
X131976857Y-59142380D01*
X132357809Y-59142380D01*
X132453047Y-59190000D01*
X132500666Y-59237619D01*
X132548285Y-59332857D01*
X132548285Y-59475714D01*
X132500666Y-59570952D01*
X132453047Y-59618571D01*
X132357809Y-59666190D01*
X131976857Y-59666190D01*
X133405428Y-59142380D02*
X133214952Y-59142380D01*
X133119714Y-59190000D01*
X133072095Y-59237619D01*
X132976857Y-59380476D01*
X132929238Y-59570952D01*
X132929238Y-59951904D01*
X132976857Y-60047142D01*
X133024476Y-60094761D01*
X133119714Y-60142380D01*
X133310190Y-60142380D01*
X133405428Y-60094761D01*
X133453047Y-60047142D01*
X133500666Y-59951904D01*
X133500666Y-59713809D01*
X133453047Y-59618571D01*
X133405428Y-59570952D01*
X133310190Y-59523333D01*
X133119714Y-59523333D01*
X133024476Y-59570952D01*
X132976857Y-59618571D01*
X132929238Y-59713809D01*
X131516666Y-53427380D02*
X131516666Y-54141666D01*
X131469047Y-54284523D01*
X131373809Y-54379761D01*
X131230952Y-54427380D01*
X131135714Y-54427380D01*
X131897619Y-53427380D02*
X132564285Y-53427380D01*
X132135714Y-54427380D01*
X162016666Y-57872380D02*
X162016666Y-58586666D01*
X161969047Y-58729523D01*
X161873809Y-58824761D01*
X161730952Y-58872380D01*
X161635714Y-58872380D01*
X162921428Y-57872380D02*
X162730952Y-57872380D01*
X162635714Y-57920000D01*
X162588095Y-57967619D01*
X162492857Y-58110476D01*
X162445238Y-58300952D01*
X162445238Y-58681904D01*
X162492857Y-58777142D01*
X162540476Y-58824761D01*
X162635714Y-58872380D01*
X162826190Y-58872380D01*
X162921428Y-58824761D01*
X162969047Y-58777142D01*
X163016666Y-58681904D01*
X163016666Y-58443809D01*
X162969047Y-58348571D01*
X162921428Y-58300952D01*
X162826190Y-58253333D01*
X162635714Y-58253333D01*
X162540476Y-58300952D01*
X162492857Y-58348571D01*
X162445238Y-58443809D01*
X102790666Y-65492380D02*
X102790666Y-66206666D01*
X102743047Y-66349523D01*
X102647809Y-66444761D01*
X102504952Y-66492380D01*
X102409714Y-66492380D01*
X103790666Y-66492380D02*
X103219238Y-66492380D01*
X103504952Y-66492380D02*
X103504952Y-65492380D01*
X103409714Y-65635238D01*
X103314476Y-65730476D01*
X103219238Y-65778095D01*
X141930380Y-60174095D02*
X140930380Y-60174095D01*
X140930380Y-59936000D01*
X140978000Y-59793142D01*
X141073238Y-59697904D01*
X141168476Y-59650285D01*
X141358952Y-59602666D01*
X141501809Y-59602666D01*
X141692285Y-59650285D01*
X141787523Y-59697904D01*
X141882761Y-59793142D01*
X141930380Y-59936000D01*
X141930380Y-60174095D01*
X140930380Y-58697904D02*
X140930380Y-59174095D01*
X141406571Y-59221714D01*
X141358952Y-59174095D01*
X141311333Y-59078857D01*
X141311333Y-58840761D01*
X141358952Y-58745523D01*
X141406571Y-58697904D01*
X141501809Y-58650285D01*
X141739904Y-58650285D01*
X141835142Y-58697904D01*
X141882761Y-58745523D01*
X141930380Y-58840761D01*
X141930380Y-59078857D01*
X141882761Y-59174095D01*
X141835142Y-59221714D01*
X149366666Y-53602380D02*
X149366666Y-54316666D01*
X149319047Y-54459523D01*
X149223809Y-54554761D01*
X149080952Y-54602380D01*
X148985714Y-54602380D01*
X150319047Y-53602380D02*
X149842857Y-53602380D01*
X149795238Y-54078571D01*
X149842857Y-54030952D01*
X149938095Y-53983333D01*
X150176190Y-53983333D01*
X150271428Y-54030952D01*
X150319047Y-54078571D01*
X150366666Y-54173809D01*
X150366666Y-54411904D01*
X150319047Y-54507142D01*
X150271428Y-54554761D01*
X150176190Y-54602380D01*
X149938095Y-54602380D01*
X149842857Y-54554761D01*
X149795238Y-54507142D01*
X182316666Y-53427380D02*
X182316666Y-54141666D01*
X182269047Y-54284523D01*
X182173809Y-54379761D01*
X182030952Y-54427380D01*
X181935714Y-54427380D01*
X182697619Y-53427380D02*
X183316666Y-53427380D01*
X182983333Y-53808333D01*
X183126190Y-53808333D01*
X183221428Y-53855952D01*
X183269047Y-53903571D01*
X183316666Y-53998809D01*
X183316666Y-54236904D01*
X183269047Y-54332142D01*
X183221428Y-54379761D01*
X183126190Y-54427380D01*
X182840476Y-54427380D01*
X182745238Y-54379761D01*
X182697619Y-54332142D01*
X95126666Y-53427380D02*
X95126666Y-54141666D01*
X95079047Y-54284523D01*
X94983809Y-54379761D01*
X94840952Y-54427380D01*
X94745714Y-54427380D01*
X95555238Y-53522619D02*
X95602857Y-53475000D01*
X95698095Y-53427380D01*
X95936190Y-53427380D01*
X96031428Y-53475000D01*
X96079047Y-53522619D01*
X96126666Y-53617857D01*
X96126666Y-53713095D01*
X96079047Y-53855952D01*
X95507619Y-54427380D01*
X96126666Y-54427380D01*
X203795333Y-94591142D02*
X203747714Y-94638761D01*
X203604857Y-94686380D01*
X203509619Y-94686380D01*
X203366761Y-94638761D01*
X203271523Y-94543523D01*
X203223904Y-94448285D01*
X203176285Y-94257809D01*
X203176285Y-94114952D01*
X203223904Y-93924476D01*
X203271523Y-93829238D01*
X203366761Y-93734000D01*
X203509619Y-93686380D01*
X203604857Y-93686380D01*
X203747714Y-93734000D01*
X203795333Y-93781619D01*
X204176285Y-93781619D02*
X204223904Y-93734000D01*
X204319142Y-93686380D01*
X204557238Y-93686380D01*
X204652476Y-93734000D01*
X204700095Y-93781619D01*
X204747714Y-93876857D01*
X204747714Y-93972095D01*
X204700095Y-94114952D01*
X204128666Y-94686380D01*
X204747714Y-94686380D01*
X210018333Y-98527142D02*
X209970714Y-98574761D01*
X209827857Y-98622380D01*
X209732619Y-98622380D01*
X209589761Y-98574761D01*
X209494523Y-98479523D01*
X209446904Y-98384285D01*
X209399285Y-98193809D01*
X209399285Y-98050952D01*
X209446904Y-97860476D01*
X209494523Y-97765238D01*
X209589761Y-97670000D01*
X209732619Y-97622380D01*
X209827857Y-97622380D01*
X209970714Y-97670000D01*
X210018333Y-97717619D01*
X210970714Y-98622380D02*
X210399285Y-98622380D01*
X210685000Y-98622380D02*
X210685000Y-97622380D01*
X210589761Y-97765238D01*
X210494523Y-97860476D01*
X210399285Y-97908095D01*
X213868095Y-85812380D02*
X213868095Y-86621904D01*
X213915714Y-86717142D01*
X213963333Y-86764761D01*
X214058571Y-86812380D01*
X214249047Y-86812380D01*
X214344285Y-86764761D01*
X214391904Y-86717142D01*
X214439523Y-86621904D01*
X214439523Y-85812380D01*
X214868095Y-85907619D02*
X214915714Y-85860000D01*
X215010952Y-85812380D01*
X215249047Y-85812380D01*
X215344285Y-85860000D01*
X215391904Y-85907619D01*
X215439523Y-86002857D01*
X215439523Y-86098095D01*
X215391904Y-86240952D01*
X214820476Y-86812380D01*
X215439523Y-86812380D01*
X197286666Y-84796380D02*
X197286666Y-85510666D01*
X197239047Y-85653523D01*
X197143809Y-85748761D01*
X197000952Y-85796380D01*
X196905714Y-85796380D01*
X197762857Y-85796380D02*
X197762857Y-84796380D01*
X198143809Y-84796380D01*
X198239047Y-84844000D01*
X198286666Y-84891619D01*
X198334285Y-84986857D01*
X198334285Y-85129714D01*
X198286666Y-85224952D01*
X198239047Y-85272571D01*
X198143809Y-85320190D01*
X197762857Y-85320190D01*
X199239047Y-84796380D02*
X198762857Y-84796380D01*
X198715238Y-85272571D01*
X198762857Y-85224952D01*
X198858095Y-85177333D01*
X199096190Y-85177333D01*
X199191428Y-85224952D01*
X199239047Y-85272571D01*
X199286666Y-85367809D01*
X199286666Y-85605904D01*
X199239047Y-85701142D01*
X199191428Y-85748761D01*
X199096190Y-85796380D01*
X198858095Y-85796380D01*
X198762857Y-85748761D01*
X198715238Y-85701142D01*
X113736380Y-58332666D02*
X113260190Y-58666000D01*
X113736380Y-58904095D02*
X112736380Y-58904095D01*
X112736380Y-58523142D01*
X112784000Y-58427904D01*
X112831619Y-58380285D01*
X112926857Y-58332666D01*
X113069714Y-58332666D01*
X113164952Y-58380285D01*
X113212571Y-58427904D01*
X113260190Y-58523142D01*
X113260190Y-58904095D01*
X112831619Y-57951714D02*
X112784000Y-57904095D01*
X112736380Y-57808857D01*
X112736380Y-57570761D01*
X112784000Y-57475523D01*
X112831619Y-57427904D01*
X112926857Y-57380285D01*
X113022095Y-57380285D01*
X113164952Y-57427904D01*
X113736380Y-57999333D01*
X113736380Y-57380285D01*
X110942380Y-58078666D02*
X110466190Y-58412000D01*
X110942380Y-58650095D02*
X109942380Y-58650095D01*
X109942380Y-58269142D01*
X109990000Y-58173904D01*
X110037619Y-58126285D01*
X110132857Y-58078666D01*
X110275714Y-58078666D01*
X110370952Y-58126285D01*
X110418571Y-58173904D01*
X110466190Y-58269142D01*
X110466190Y-58650095D01*
X110942380Y-57126285D02*
X110942380Y-57697714D01*
X110942380Y-57412000D02*
X109942380Y-57412000D01*
X110085238Y-57507238D01*
X110180476Y-57602476D01*
X110228095Y-57697714D01*
X207430952Y-137787380D02*
X207430952Y-137120714D01*
X207430952Y-137311190D02*
X207478571Y-137215952D01*
X207526190Y-137168333D01*
X207621428Y-137120714D01*
X207716666Y-137120714D01*
X208430952Y-137739761D02*
X208335714Y-137787380D01*
X208145238Y-137787380D01*
X208050000Y-137739761D01*
X208002380Y-137644523D01*
X208002380Y-137263571D01*
X208050000Y-137168333D01*
X208145238Y-137120714D01*
X208335714Y-137120714D01*
X208430952Y-137168333D01*
X208478571Y-137263571D01*
X208478571Y-137358809D01*
X208002380Y-137454047D01*
X209050000Y-137787380D02*
X208954761Y-137739761D01*
X208907142Y-137644523D01*
X208907142Y-136787380D01*
X209573809Y-137787380D02*
X209478571Y-137739761D01*
X209430952Y-137692142D01*
X209383333Y-137596904D01*
X209383333Y-137311190D01*
X209430952Y-137215952D01*
X209478571Y-137168333D01*
X209573809Y-137120714D01*
X209716666Y-137120714D01*
X209811904Y-137168333D01*
X209859523Y-137215952D01*
X209907142Y-137311190D01*
X209907142Y-137596904D01*
X209859523Y-137692142D01*
X209811904Y-137739761D01*
X209716666Y-137787380D01*
X209573809Y-137787380D01*
X210764285Y-137787380D02*
X210764285Y-137263571D01*
X210716666Y-137168333D01*
X210621428Y-137120714D01*
X210430952Y-137120714D01*
X210335714Y-137168333D01*
X210764285Y-137739761D02*
X210669047Y-137787380D01*
X210430952Y-137787380D01*
X210335714Y-137739761D01*
X210288095Y-137644523D01*
X210288095Y-137549285D01*
X210335714Y-137454047D01*
X210430952Y-137406428D01*
X210669047Y-137406428D01*
X210764285Y-137358809D01*
X211669047Y-137787380D02*
X211669047Y-136787380D01*
X211669047Y-137739761D02*
X211573809Y-137787380D01*
X211383333Y-137787380D01*
X211288095Y-137739761D01*
X211240476Y-137692142D01*
X211192857Y-137596904D01*
X211192857Y-137311190D01*
X211240476Y-137215952D01*
X211288095Y-137168333D01*
X211383333Y-137120714D01*
X211573809Y-137120714D01*
X211669047Y-137168333D01*
X203247809Y-128166761D02*
X203152571Y-128214380D01*
X202962095Y-128214380D01*
X202866857Y-128166761D01*
X202819238Y-128119142D01*
X202771619Y-128023904D01*
X202771619Y-127738190D01*
X202819238Y-127642952D01*
X202866857Y-127595333D01*
X202962095Y-127547714D01*
X203152571Y-127547714D01*
X203247809Y-127595333D01*
X203676380Y-128214380D02*
X203676380Y-127214380D01*
X204104952Y-128214380D02*
X204104952Y-127690571D01*
X204057333Y-127595333D01*
X203962095Y-127547714D01*
X203819238Y-127547714D01*
X203724000Y-127595333D01*
X203676380Y-127642952D01*
X204962095Y-128166761D02*
X204866857Y-128214380D01*
X204676380Y-128214380D01*
X204581142Y-128166761D01*
X204533523Y-128071523D01*
X204533523Y-127690571D01*
X204581142Y-127595333D01*
X204676380Y-127547714D01*
X204866857Y-127547714D01*
X204962095Y-127595333D01*
X205009714Y-127690571D01*
X205009714Y-127785809D01*
X204533523Y-127881047D01*
X205866857Y-128166761D02*
X205771619Y-128214380D01*
X205581142Y-128214380D01*
X205485904Y-128166761D01*
X205438285Y-128119142D01*
X205390666Y-128023904D01*
X205390666Y-127738190D01*
X205438285Y-127642952D01*
X205485904Y-127595333D01*
X205581142Y-127547714D01*
X205771619Y-127547714D01*
X205866857Y-127595333D01*
X206295428Y-128214380D02*
X206295428Y-127214380D01*
X206390666Y-127833428D02*
X206676380Y-128214380D01*
X206676380Y-127547714D02*
X206295428Y-127928666D01*
X207684857Y-118737380D02*
X207684857Y-117737380D01*
X207684857Y-118689761D02*
X207589619Y-118737380D01*
X207399142Y-118737380D01*
X207303904Y-118689761D01*
X207256285Y-118642142D01*
X207208666Y-118546904D01*
X207208666Y-118261190D01*
X207256285Y-118165952D01*
X207303904Y-118118333D01*
X207399142Y-118070714D01*
X207589619Y-118070714D01*
X207684857Y-118118333D01*
X208589619Y-118070714D02*
X208589619Y-118737380D01*
X208161047Y-118070714D02*
X208161047Y-118594523D01*
X208208666Y-118689761D01*
X208303904Y-118737380D01*
X208446761Y-118737380D01*
X208542000Y-118689761D01*
X208589619Y-118642142D01*
X209065809Y-118737380D02*
X209065809Y-118070714D01*
X209065809Y-118165952D02*
X209113428Y-118118333D01*
X209208666Y-118070714D01*
X209351523Y-118070714D01*
X209446761Y-118118333D01*
X209494380Y-118213571D01*
X209494380Y-118737380D01*
X209494380Y-118213571D02*
X209542000Y-118118333D01*
X209637238Y-118070714D01*
X209780095Y-118070714D01*
X209875333Y-118118333D01*
X209922952Y-118213571D01*
X209922952Y-118737380D01*
X210399142Y-118070714D02*
X210399142Y-119070714D01*
X210399142Y-118118333D02*
X210494380Y-118070714D01*
X210684857Y-118070714D01*
X210780095Y-118118333D01*
X210827714Y-118165952D01*
X210875333Y-118261190D01*
X210875333Y-118546904D01*
X210827714Y-118642142D01*
X210780095Y-118689761D01*
X210684857Y-118737380D01*
X210494380Y-118737380D01*
X210399142Y-118689761D01*
X188587238Y-118514761D02*
X188682476Y-118562380D01*
X188872952Y-118562380D01*
X188968190Y-118514761D01*
X189015809Y-118419523D01*
X189015809Y-118371904D01*
X188968190Y-118276666D01*
X188872952Y-118229047D01*
X188730095Y-118229047D01*
X188634857Y-118181428D01*
X188587238Y-118086190D01*
X188587238Y-118038571D01*
X188634857Y-117943333D01*
X188730095Y-117895714D01*
X188872952Y-117895714D01*
X188968190Y-117943333D01*
X189301523Y-117895714D02*
X189682476Y-117895714D01*
X189444380Y-117562380D02*
X189444380Y-118419523D01*
X189492000Y-118514761D01*
X189587238Y-118562380D01*
X189682476Y-118562380D01*
X190158666Y-118562380D02*
X190063428Y-118514761D01*
X190015809Y-118467142D01*
X189968190Y-118371904D01*
X189968190Y-118086190D01*
X190015809Y-117990952D01*
X190063428Y-117943333D01*
X190158666Y-117895714D01*
X190301523Y-117895714D01*
X190396761Y-117943333D01*
X190444380Y-117990952D01*
X190492000Y-118086190D01*
X190492000Y-118371904D01*
X190444380Y-118467142D01*
X190396761Y-118514761D01*
X190301523Y-118562380D01*
X190158666Y-118562380D01*
X190920571Y-117895714D02*
X190920571Y-118895714D01*
X190920571Y-117943333D02*
X191015809Y-117895714D01*
X191206285Y-117895714D01*
X191301523Y-117943333D01*
X191349142Y-117990952D01*
X191396761Y-118086190D01*
X191396761Y-118371904D01*
X191349142Y-118467142D01*
X191301523Y-118514761D01*
X191206285Y-118562380D01*
X191015809Y-118562380D01*
X190920571Y-118514761D01*
X183858809Y-109212380D02*
X183858809Y-108545714D01*
X183858809Y-108736190D02*
X183906428Y-108640952D01*
X183954047Y-108593333D01*
X184049285Y-108545714D01*
X184144523Y-108545714D01*
X184906428Y-108545714D02*
X184906428Y-109212380D01*
X184477857Y-108545714D02*
X184477857Y-109069523D01*
X184525476Y-109164761D01*
X184620714Y-109212380D01*
X184763571Y-109212380D01*
X184858809Y-109164761D01*
X184906428Y-109117142D01*
X185382619Y-108545714D02*
X185382619Y-109212380D01*
X185382619Y-108640952D02*
X185430238Y-108593333D01*
X185525476Y-108545714D01*
X185668333Y-108545714D01*
X185763571Y-108593333D01*
X185811190Y-108688571D01*
X185811190Y-109212380D01*
X176477142Y-137787380D02*
X176477142Y-136787380D01*
X176572380Y-137406428D02*
X176858095Y-137787380D01*
X176858095Y-137120714D02*
X176477142Y-137501666D01*
X177286666Y-137787380D02*
X177286666Y-137120714D01*
X177286666Y-136787380D02*
X177239047Y-136835000D01*
X177286666Y-136882619D01*
X177334285Y-136835000D01*
X177286666Y-136787380D01*
X177286666Y-136882619D01*
X178524761Y-137787380D02*
X178524761Y-137120714D01*
X178524761Y-137311190D02*
X178572380Y-137215952D01*
X178620000Y-137168333D01*
X178715238Y-137120714D01*
X178810476Y-137120714D01*
X179524761Y-137739761D02*
X179429523Y-137787380D01*
X179239047Y-137787380D01*
X179143809Y-137739761D01*
X179096190Y-137644523D01*
X179096190Y-137263571D01*
X179143809Y-137168333D01*
X179239047Y-137120714D01*
X179429523Y-137120714D01*
X179524761Y-137168333D01*
X179572380Y-137263571D01*
X179572380Y-137358809D01*
X179096190Y-137454047D01*
X179953333Y-137739761D02*
X180048571Y-137787380D01*
X180239047Y-137787380D01*
X180334285Y-137739761D01*
X180381904Y-137644523D01*
X180381904Y-137596904D01*
X180334285Y-137501666D01*
X180239047Y-137454047D01*
X180096190Y-137454047D01*
X180000952Y-137406428D01*
X179953333Y-137311190D01*
X179953333Y-137263571D01*
X180000952Y-137168333D01*
X180096190Y-137120714D01*
X180239047Y-137120714D01*
X180334285Y-137168333D01*
X181191428Y-137739761D02*
X181096190Y-137787380D01*
X180905714Y-137787380D01*
X180810476Y-137739761D01*
X180762857Y-137644523D01*
X180762857Y-137263571D01*
X180810476Y-137168333D01*
X180905714Y-137120714D01*
X181096190Y-137120714D01*
X181191428Y-137168333D01*
X181239047Y-137263571D01*
X181239047Y-137358809D01*
X180762857Y-137454047D01*
X181524761Y-137120714D02*
X181905714Y-137120714D01*
X181667619Y-136787380D02*
X181667619Y-137644523D01*
X181715238Y-137739761D01*
X181810476Y-137787380D01*
X181905714Y-137787380D01*
X184713523Y-128119142D02*
X184665904Y-128166761D01*
X184523047Y-128214380D01*
X184427809Y-128214380D01*
X184284952Y-128166761D01*
X184189714Y-128071523D01*
X184142095Y-127976285D01*
X184094476Y-127785809D01*
X184094476Y-127642952D01*
X184142095Y-127452476D01*
X184189714Y-127357238D01*
X184284952Y-127262000D01*
X184427809Y-127214380D01*
X184523047Y-127214380D01*
X184665904Y-127262000D01*
X184713523Y-127309619D01*
X178633428Y-118213571D02*
X178776285Y-118261190D01*
X178823904Y-118308809D01*
X178871523Y-118404047D01*
X178871523Y-118546904D01*
X178823904Y-118642142D01*
X178776285Y-118689761D01*
X178681047Y-118737380D01*
X178300095Y-118737380D01*
X178300095Y-117737380D01*
X178633428Y-117737380D01*
X178728666Y-117785000D01*
X178776285Y-117832619D01*
X178823904Y-117927857D01*
X178823904Y-118023095D01*
X178776285Y-118118333D01*
X178728666Y-118165952D01*
X178633428Y-118213571D01*
X178300095Y-118213571D01*
X173166904Y-108926666D02*
X173643095Y-108926666D01*
X173071666Y-109212380D02*
X173405000Y-108212380D01*
X173738333Y-109212380D01*
X158737380Y-136787380D02*
X158832619Y-136787380D01*
X158927857Y-136835000D01*
X158975476Y-136882619D01*
X159023095Y-136977857D01*
X159070714Y-137168333D01*
X159070714Y-137406428D01*
X159023095Y-137596904D01*
X158975476Y-137692142D01*
X158927857Y-137739761D01*
X158832619Y-137787380D01*
X158737380Y-137787380D01*
X158642142Y-137739761D01*
X158594523Y-137692142D01*
X158546904Y-137596904D01*
X158499285Y-137406428D01*
X158499285Y-137168333D01*
X158546904Y-136977857D01*
X158594523Y-136882619D01*
X158642142Y-136835000D01*
X158737380Y-136787380D01*
X147164523Y-137787380D02*
X147355000Y-137787380D01*
X147450238Y-137739761D01*
X147497857Y-137692142D01*
X147593095Y-137549285D01*
X147640714Y-137358809D01*
X147640714Y-136977857D01*
X147593095Y-136882619D01*
X147545476Y-136835000D01*
X147450238Y-136787380D01*
X147259761Y-136787380D01*
X147164523Y-136835000D01*
X147116904Y-136882619D01*
X147069285Y-136977857D01*
X147069285Y-137215952D01*
X147116904Y-137311190D01*
X147164523Y-137358809D01*
X147259761Y-137406428D01*
X147450238Y-137406428D01*
X147545476Y-137358809D01*
X147593095Y-137311190D01*
X147640714Y-137215952D01*
X135829761Y-137215952D02*
X135734523Y-137168333D01*
X135686904Y-137120714D01*
X135639285Y-137025476D01*
X135639285Y-136977857D01*
X135686904Y-136882619D01*
X135734523Y-136835000D01*
X135829761Y-136787380D01*
X136020238Y-136787380D01*
X136115476Y-136835000D01*
X136163095Y-136882619D01*
X136210714Y-136977857D01*
X136210714Y-137025476D01*
X136163095Y-137120714D01*
X136115476Y-137168333D01*
X136020238Y-137215952D01*
X135829761Y-137215952D01*
X135734523Y-137263571D01*
X135686904Y-137311190D01*
X135639285Y-137406428D01*
X135639285Y-137596904D01*
X135686904Y-137692142D01*
X135734523Y-137739761D01*
X135829761Y-137787380D01*
X136020238Y-137787380D01*
X136115476Y-137739761D01*
X136163095Y-137692142D01*
X136210714Y-137596904D01*
X136210714Y-137406428D01*
X136163095Y-137311190D01*
X136115476Y-137263571D01*
X136020238Y-137215952D01*
X124161666Y-136787380D02*
X124828333Y-136787380D01*
X124399761Y-137787380D01*
X153260476Y-127262380D02*
X153070000Y-127262380D01*
X152974761Y-127310000D01*
X152927142Y-127357619D01*
X152831904Y-127500476D01*
X152784285Y-127690952D01*
X152784285Y-128071904D01*
X152831904Y-128167142D01*
X152879523Y-128214761D01*
X152974761Y-128262380D01*
X153165238Y-128262380D01*
X153260476Y-128214761D01*
X153308095Y-128167142D01*
X153355714Y-128071904D01*
X153355714Y-127833809D01*
X153308095Y-127738571D01*
X153260476Y-127690952D01*
X153165238Y-127643333D01*
X152974761Y-127643333D01*
X152879523Y-127690952D01*
X152831904Y-127738571D01*
X152784285Y-127833809D01*
X141878095Y-127262380D02*
X141401904Y-127262380D01*
X141354285Y-127738571D01*
X141401904Y-127690952D01*
X141497142Y-127643333D01*
X141735238Y-127643333D01*
X141830476Y-127690952D01*
X141878095Y-127738571D01*
X141925714Y-127833809D01*
X141925714Y-128071904D01*
X141878095Y-128167142D01*
X141830476Y-128214761D01*
X141735238Y-128262380D01*
X141497142Y-128262380D01*
X141401904Y-128214761D01*
X141354285Y-128167142D01*
X130400476Y-127595714D02*
X130400476Y-128262380D01*
X130162380Y-127214761D02*
X129924285Y-127929047D01*
X130543333Y-127929047D01*
X146732666Y-117737380D02*
X147351714Y-117737380D01*
X147018380Y-118118333D01*
X147161238Y-118118333D01*
X147256476Y-118165952D01*
X147304095Y-118213571D01*
X147351714Y-118308809D01*
X147351714Y-118546904D01*
X147304095Y-118642142D01*
X147256476Y-118689761D01*
X147161238Y-118737380D01*
X146875523Y-118737380D01*
X146780285Y-118689761D01*
X146732666Y-118642142D01*
X135350285Y-117657619D02*
X135397904Y-117610000D01*
X135493142Y-117562380D01*
X135731238Y-117562380D01*
X135826476Y-117610000D01*
X135874095Y-117657619D01*
X135921714Y-117752857D01*
X135921714Y-117848095D01*
X135874095Y-117990952D01*
X135302666Y-118562380D01*
X135921714Y-118562380D01*
X124491714Y-118737380D02*
X123920285Y-118737380D01*
X124206000Y-118737380D02*
X124206000Y-117737380D01*
X124110761Y-117880238D01*
X124015523Y-117975476D01*
X123920285Y-118023095D01*
X151277142Y-108545714D02*
X151277142Y-109545714D01*
X151277142Y-108593333D02*
X151372380Y-108545714D01*
X151562857Y-108545714D01*
X151658095Y-108593333D01*
X151705714Y-108640952D01*
X151753333Y-108736190D01*
X151753333Y-109021904D01*
X151705714Y-109117142D01*
X151658095Y-109164761D01*
X151562857Y-109212380D01*
X151372380Y-109212380D01*
X151277142Y-109164761D01*
X152324761Y-109212380D02*
X152229523Y-109164761D01*
X152181904Y-109117142D01*
X152134285Y-109021904D01*
X152134285Y-108736190D01*
X152181904Y-108640952D01*
X152229523Y-108593333D01*
X152324761Y-108545714D01*
X152467619Y-108545714D01*
X152562857Y-108593333D01*
X152610476Y-108640952D01*
X152658095Y-108736190D01*
X152658095Y-109021904D01*
X152610476Y-109117142D01*
X152562857Y-109164761D01*
X152467619Y-109212380D01*
X152324761Y-109212380D01*
X153086666Y-109212380D02*
X153086666Y-108545714D01*
X153086666Y-108212380D02*
X153039047Y-108260000D01*
X153086666Y-108307619D01*
X153134285Y-108260000D01*
X153086666Y-108212380D01*
X153086666Y-108307619D01*
X153562857Y-108545714D02*
X153562857Y-109212380D01*
X153562857Y-108640952D02*
X153610476Y-108593333D01*
X153705714Y-108545714D01*
X153848571Y-108545714D01*
X153943809Y-108593333D01*
X153991428Y-108688571D01*
X153991428Y-109212380D01*
X154324761Y-108545714D02*
X154705714Y-108545714D01*
X154467619Y-108212380D02*
X154467619Y-109069523D01*
X154515238Y-109164761D01*
X154610476Y-109212380D01*
X154705714Y-109212380D01*
X138993809Y-109164380D02*
X138993809Y-108497714D01*
X138993809Y-108592952D02*
X139041428Y-108545333D01*
X139136666Y-108497714D01*
X139279523Y-108497714D01*
X139374761Y-108545333D01*
X139422380Y-108640571D01*
X139422380Y-109164380D01*
X139422380Y-108640571D02*
X139470000Y-108545333D01*
X139565238Y-108497714D01*
X139708095Y-108497714D01*
X139803333Y-108545333D01*
X139850952Y-108640571D01*
X139850952Y-109164380D01*
X140327142Y-109164380D02*
X140327142Y-108497714D01*
X140327142Y-108164380D02*
X140279523Y-108212000D01*
X140327142Y-108259619D01*
X140374761Y-108212000D01*
X140327142Y-108164380D01*
X140327142Y-108259619D01*
X140803333Y-108497714D02*
X140803333Y-109164380D01*
X140803333Y-108592952D02*
X140850952Y-108545333D01*
X140946190Y-108497714D01*
X141089047Y-108497714D01*
X141184285Y-108545333D01*
X141231904Y-108640571D01*
X141231904Y-109164380D01*
X142136666Y-108497714D02*
X142136666Y-109164380D01*
X141708095Y-108497714D02*
X141708095Y-109021523D01*
X141755714Y-109116761D01*
X141850952Y-109164380D01*
X141993809Y-109164380D01*
X142089047Y-109116761D01*
X142136666Y-109069142D01*
X142565238Y-109116761D02*
X142660476Y-109164380D01*
X142850952Y-109164380D01*
X142946190Y-109116761D01*
X142993809Y-109021523D01*
X142993809Y-108973904D01*
X142946190Y-108878666D01*
X142850952Y-108831047D01*
X142708095Y-108831047D01*
X142612857Y-108783428D01*
X142565238Y-108688190D01*
X142565238Y-108640571D01*
X142612857Y-108545333D01*
X142708095Y-108497714D01*
X142850952Y-108497714D01*
X142946190Y-108545333D01*
X128579714Y-109116761D02*
X128484476Y-109164380D01*
X128294000Y-109164380D01*
X128198761Y-109116761D01*
X128151142Y-109069142D01*
X128103523Y-108973904D01*
X128103523Y-108688190D01*
X128151142Y-108592952D01*
X128198761Y-108545333D01*
X128294000Y-108497714D01*
X128484476Y-108497714D01*
X128579714Y-108545333D01*
X129151142Y-109164380D02*
X129055904Y-109116761D01*
X129008285Y-109021523D01*
X129008285Y-108164380D01*
X129913047Y-109116761D02*
X129817809Y-109164380D01*
X129627333Y-109164380D01*
X129532095Y-109116761D01*
X129484476Y-109021523D01*
X129484476Y-108640571D01*
X129532095Y-108545333D01*
X129627333Y-108497714D01*
X129817809Y-108497714D01*
X129913047Y-108545333D01*
X129960666Y-108640571D01*
X129960666Y-108735809D01*
X129484476Y-108831047D01*
X130817809Y-109164380D02*
X130817809Y-108640571D01*
X130770190Y-108545333D01*
X130674952Y-108497714D01*
X130484476Y-108497714D01*
X130389238Y-108545333D01*
X130817809Y-109116761D02*
X130722571Y-109164380D01*
X130484476Y-109164380D01*
X130389238Y-109116761D01*
X130341619Y-109021523D01*
X130341619Y-108926285D01*
X130389238Y-108831047D01*
X130484476Y-108783428D01*
X130722571Y-108783428D01*
X130817809Y-108735809D01*
X131294000Y-109164380D02*
X131294000Y-108497714D01*
X131294000Y-108688190D02*
X131341619Y-108592952D01*
X131389238Y-108545333D01*
X131484476Y-108497714D01*
X131579714Y-108497714D01*
X98528761Y-137707714D02*
X98528761Y-138374380D01*
X98528761Y-137802952D02*
X98576380Y-137755333D01*
X98671619Y-137707714D01*
X98814476Y-137707714D01*
X98909714Y-137755333D01*
X98957333Y-137850571D01*
X98957333Y-138374380D01*
X99576380Y-138374380D02*
X99481142Y-138326761D01*
X99433523Y-138279142D01*
X99385904Y-138183904D01*
X99385904Y-137898190D01*
X99433523Y-137802952D01*
X99481142Y-137755333D01*
X99576380Y-137707714D01*
X99719238Y-137707714D01*
X99814476Y-137755333D01*
X99862095Y-137802952D01*
X99909714Y-137898190D01*
X99909714Y-138183904D01*
X99862095Y-138279142D01*
X99814476Y-138326761D01*
X99719238Y-138374380D01*
X99576380Y-138374380D01*
X100338285Y-138374380D02*
X100338285Y-137707714D01*
X100338285Y-137898190D02*
X100385904Y-137802952D01*
X100433523Y-137755333D01*
X100528761Y-137707714D01*
X100624000Y-137707714D01*
X100957333Y-138374380D02*
X100957333Y-137707714D01*
X100957333Y-137802952D02*
X101004952Y-137755333D01*
X101100190Y-137707714D01*
X101243047Y-137707714D01*
X101338285Y-137755333D01*
X101385904Y-137850571D01*
X101385904Y-138374380D01*
X101385904Y-137850571D02*
X101433523Y-137755333D01*
X101528761Y-137707714D01*
X101671619Y-137707714D01*
X101766857Y-137755333D01*
X101814476Y-137850571D01*
X101814476Y-138374380D01*
X102719238Y-138374380D02*
X102719238Y-137850571D01*
X102671619Y-137755333D01*
X102576380Y-137707714D01*
X102385904Y-137707714D01*
X102290666Y-137755333D01*
X102719238Y-138326761D02*
X102624000Y-138374380D01*
X102385904Y-138374380D01*
X102290666Y-138326761D01*
X102243047Y-138231523D01*
X102243047Y-138136285D01*
X102290666Y-138041047D01*
X102385904Y-137993428D01*
X102624000Y-137993428D01*
X102719238Y-137945809D01*
X103338285Y-138374380D02*
X103243047Y-138326761D01*
X103195428Y-138231523D01*
X103195428Y-137374380D01*
X104481142Y-138374380D02*
X104481142Y-137707714D01*
X104481142Y-137898190D02*
X104528761Y-137802952D01*
X104576380Y-137755333D01*
X104671619Y-137707714D01*
X104766857Y-137707714D01*
X105481142Y-138326761D02*
X105385904Y-138374380D01*
X105195428Y-138374380D01*
X105100190Y-138326761D01*
X105052571Y-138231523D01*
X105052571Y-137850571D01*
X105100190Y-137755333D01*
X105195428Y-137707714D01*
X105385904Y-137707714D01*
X105481142Y-137755333D01*
X105528761Y-137850571D01*
X105528761Y-137945809D01*
X105052571Y-138041047D01*
X105909714Y-138326761D02*
X106004952Y-138374380D01*
X106195428Y-138374380D01*
X106290666Y-138326761D01*
X106338285Y-138231523D01*
X106338285Y-138183904D01*
X106290666Y-138088666D01*
X106195428Y-138041047D01*
X106052571Y-138041047D01*
X105957333Y-137993428D01*
X105909714Y-137898190D01*
X105909714Y-137850571D01*
X105957333Y-137755333D01*
X106052571Y-137707714D01*
X106195428Y-137707714D01*
X106290666Y-137755333D01*
X107147809Y-138326761D02*
X107052571Y-138374380D01*
X106862095Y-138374380D01*
X106766857Y-138326761D01*
X106719238Y-138231523D01*
X106719238Y-137850571D01*
X106766857Y-137755333D01*
X106862095Y-137707714D01*
X107052571Y-137707714D01*
X107147809Y-137755333D01*
X107195428Y-137850571D01*
X107195428Y-137945809D01*
X106719238Y-138041047D01*
X107481142Y-137707714D02*
X107862095Y-137707714D01*
X107624000Y-137374380D02*
X107624000Y-138231523D01*
X107671619Y-138326761D01*
X107766857Y-138374380D01*
X107862095Y-138374380D01*
X93535904Y-128262380D02*
X93535904Y-127595714D01*
X93535904Y-127262380D02*
X93488285Y-127310000D01*
X93535904Y-127357619D01*
X93583523Y-127310000D01*
X93535904Y-127262380D01*
X93535904Y-127357619D01*
X94012095Y-127595714D02*
X94012095Y-128262380D01*
X94012095Y-127690952D02*
X94059714Y-127643333D01*
X94154952Y-127595714D01*
X94297809Y-127595714D01*
X94393047Y-127643333D01*
X94440666Y-127738571D01*
X94440666Y-128262380D01*
X95345428Y-128214761D02*
X95250190Y-128262380D01*
X95059714Y-128262380D01*
X94964476Y-128214761D01*
X94916857Y-128167142D01*
X94869238Y-128071904D01*
X94869238Y-127786190D01*
X94916857Y-127690952D01*
X94964476Y-127643333D01*
X95059714Y-127595714D01*
X95250190Y-127595714D01*
X95345428Y-127643333D01*
X95774000Y-128262380D02*
X95774000Y-127595714D01*
X95774000Y-127786190D02*
X95821619Y-127690952D01*
X95869238Y-127643333D01*
X95964476Y-127595714D01*
X96059714Y-127595714D01*
X97583523Y-128262380D02*
X97583523Y-127738571D01*
X97535904Y-127643333D01*
X97440666Y-127595714D01*
X97250190Y-127595714D01*
X97154952Y-127643333D01*
X97583523Y-128214761D02*
X97488285Y-128262380D01*
X97250190Y-128262380D01*
X97154952Y-128214761D01*
X97107333Y-128119523D01*
X97107333Y-128024285D01*
X97154952Y-127929047D01*
X97250190Y-127881428D01*
X97488285Y-127881428D01*
X97583523Y-127833809D01*
X98488285Y-128262380D02*
X98488285Y-127262380D01*
X98488285Y-128214761D02*
X98393047Y-128262380D01*
X98202571Y-128262380D01*
X98107333Y-128214761D01*
X98059714Y-128167142D01*
X98012095Y-128071904D01*
X98012095Y-127786190D01*
X98059714Y-127690952D01*
X98107333Y-127643333D01*
X98202571Y-127595714D01*
X98393047Y-127595714D01*
X98488285Y-127643333D01*
X99393047Y-128262380D02*
X99393047Y-127262380D01*
X99393047Y-128214761D02*
X99297809Y-128262380D01*
X99107333Y-128262380D01*
X99012095Y-128214761D01*
X98964476Y-128167142D01*
X98916857Y-128071904D01*
X98916857Y-127786190D01*
X98964476Y-127690952D01*
X99012095Y-127643333D01*
X99107333Y-127595714D01*
X99297809Y-127595714D01*
X99393047Y-127643333D01*
X99869238Y-128262380D02*
X99869238Y-127595714D01*
X99869238Y-127786190D02*
X99916857Y-127690952D01*
X99964476Y-127643333D01*
X100059714Y-127595714D01*
X100154952Y-127595714D01*
X105204000Y-128262380D02*
X105204000Y-127262380D01*
X105204000Y-128214761D02*
X105108761Y-128262380D01*
X104918285Y-128262380D01*
X104823047Y-128214761D01*
X104775428Y-128167142D01*
X104727809Y-128071904D01*
X104727809Y-127786190D01*
X104775428Y-127690952D01*
X104823047Y-127643333D01*
X104918285Y-127595714D01*
X105108761Y-127595714D01*
X105204000Y-127643333D01*
X106061142Y-128214761D02*
X105965904Y-128262380D01*
X105775428Y-128262380D01*
X105680190Y-128214761D01*
X105632571Y-128119523D01*
X105632571Y-127738571D01*
X105680190Y-127643333D01*
X105775428Y-127595714D01*
X105965904Y-127595714D01*
X106061142Y-127643333D01*
X106108761Y-127738571D01*
X106108761Y-127833809D01*
X105632571Y-127929047D01*
X106965904Y-128214761D02*
X106870666Y-128262380D01*
X106680190Y-128262380D01*
X106584952Y-128214761D01*
X106537333Y-128167142D01*
X106489714Y-128071904D01*
X106489714Y-127786190D01*
X106537333Y-127690952D01*
X106584952Y-127643333D01*
X106680190Y-127595714D01*
X106870666Y-127595714D01*
X106965904Y-127643333D01*
X107394476Y-128262380D02*
X107394476Y-127595714D01*
X107394476Y-127786190D02*
X107442095Y-127690952D01*
X107489714Y-127643333D01*
X107584952Y-127595714D01*
X107680190Y-127595714D01*
X109204000Y-128262380D02*
X109204000Y-127738571D01*
X109156380Y-127643333D01*
X109061142Y-127595714D01*
X108870666Y-127595714D01*
X108775428Y-127643333D01*
X109204000Y-128214761D02*
X109108761Y-128262380D01*
X108870666Y-128262380D01*
X108775428Y-128214761D01*
X108727809Y-128119523D01*
X108727809Y-128024285D01*
X108775428Y-127929047D01*
X108870666Y-127881428D01*
X109108761Y-127881428D01*
X109204000Y-127833809D01*
X110108761Y-128262380D02*
X110108761Y-127262380D01*
X110108761Y-128214761D02*
X110013523Y-128262380D01*
X109823047Y-128262380D01*
X109727809Y-128214761D01*
X109680190Y-128167142D01*
X109632571Y-128071904D01*
X109632571Y-127786190D01*
X109680190Y-127690952D01*
X109727809Y-127643333D01*
X109823047Y-127595714D01*
X110013523Y-127595714D01*
X110108761Y-127643333D01*
X111013523Y-128262380D02*
X111013523Y-127262380D01*
X111013523Y-128214761D02*
X110918285Y-128262380D01*
X110727809Y-128262380D01*
X110632571Y-128214761D01*
X110584952Y-128167142D01*
X110537333Y-128071904D01*
X110537333Y-127786190D01*
X110584952Y-127690952D01*
X110632571Y-127643333D01*
X110727809Y-127595714D01*
X110918285Y-127595714D01*
X111013523Y-127643333D01*
X111489714Y-128262380D02*
X111489714Y-127595714D01*
X111489714Y-127786190D02*
X111537333Y-127690952D01*
X111584952Y-127643333D01*
X111680190Y-127595714D01*
X111775428Y-127595714D01*
X99370000Y-118816380D02*
X99274761Y-118768761D01*
X99227142Y-118673523D01*
X99227142Y-117816380D01*
X99893809Y-118816380D02*
X99798571Y-118768761D01*
X99750952Y-118721142D01*
X99703333Y-118625904D01*
X99703333Y-118340190D01*
X99750952Y-118244952D01*
X99798571Y-118197333D01*
X99893809Y-118149714D01*
X100036666Y-118149714D01*
X100131904Y-118197333D01*
X100179523Y-118244952D01*
X100227142Y-118340190D01*
X100227142Y-118625904D01*
X100179523Y-118721142D01*
X100131904Y-118768761D01*
X100036666Y-118816380D01*
X99893809Y-118816380D01*
X101084285Y-118816380D02*
X101084285Y-118292571D01*
X101036666Y-118197333D01*
X100941428Y-118149714D01*
X100750952Y-118149714D01*
X100655714Y-118197333D01*
X101084285Y-118768761D02*
X100989047Y-118816380D01*
X100750952Y-118816380D01*
X100655714Y-118768761D01*
X100608095Y-118673523D01*
X100608095Y-118578285D01*
X100655714Y-118483047D01*
X100750952Y-118435428D01*
X100989047Y-118435428D01*
X101084285Y-118387809D01*
X101989047Y-118816380D02*
X101989047Y-117816380D01*
X101989047Y-118768761D02*
X101893809Y-118816380D01*
X101703333Y-118816380D01*
X101608095Y-118768761D01*
X101560476Y-118721142D01*
X101512857Y-118625904D01*
X101512857Y-118340190D01*
X101560476Y-118244952D01*
X101608095Y-118197333D01*
X101703333Y-118149714D01*
X101893809Y-118149714D01*
X101989047Y-118197333D01*
X103179523Y-118768761D02*
X103274761Y-118816380D01*
X103465238Y-118816380D01*
X103560476Y-118768761D01*
X103608095Y-118673523D01*
X103608095Y-118625904D01*
X103560476Y-118530666D01*
X103465238Y-118483047D01*
X103322380Y-118483047D01*
X103227142Y-118435428D01*
X103179523Y-118340190D01*
X103179523Y-118292571D01*
X103227142Y-118197333D01*
X103322380Y-118149714D01*
X103465238Y-118149714D01*
X103560476Y-118197333D01*
X103893809Y-118149714D02*
X104274761Y-118149714D01*
X104036666Y-117816380D02*
X104036666Y-118673523D01*
X104084285Y-118768761D01*
X104179523Y-118816380D01*
X104274761Y-118816380D01*
X104750952Y-118816380D02*
X104655714Y-118768761D01*
X104608095Y-118721142D01*
X104560476Y-118625904D01*
X104560476Y-118340190D01*
X104608095Y-118244952D01*
X104655714Y-118197333D01*
X104750952Y-118149714D01*
X104893809Y-118149714D01*
X104989047Y-118197333D01*
X105036666Y-118244952D01*
X105084285Y-118340190D01*
X105084285Y-118625904D01*
X105036666Y-118721142D01*
X104989047Y-118768761D01*
X104893809Y-118816380D01*
X104750952Y-118816380D01*
X105512857Y-118816380D02*
X105512857Y-118149714D01*
X105512857Y-118340190D02*
X105560476Y-118244952D01*
X105608095Y-118197333D01*
X105703333Y-118149714D01*
X105798571Y-118149714D01*
X106512857Y-118768761D02*
X106417619Y-118816380D01*
X106227142Y-118816380D01*
X106131904Y-118768761D01*
X106084285Y-118673523D01*
X106084285Y-118292571D01*
X106131904Y-118197333D01*
X106227142Y-118149714D01*
X106417619Y-118149714D01*
X106512857Y-118197333D01*
X106560476Y-118292571D01*
X106560476Y-118387809D01*
X106084285Y-118483047D01*
X104918285Y-109164380D02*
X104823047Y-109116761D01*
X104775428Y-109021523D01*
X104775428Y-108164380D01*
X105442095Y-109164380D02*
X105346857Y-109116761D01*
X105299238Y-109069142D01*
X105251619Y-108973904D01*
X105251619Y-108688190D01*
X105299238Y-108592952D01*
X105346857Y-108545333D01*
X105442095Y-108497714D01*
X105584952Y-108497714D01*
X105680190Y-108545333D01*
X105727809Y-108592952D01*
X105775428Y-108688190D01*
X105775428Y-108973904D01*
X105727809Y-109069142D01*
X105680190Y-109116761D01*
X105584952Y-109164380D01*
X105442095Y-109164380D01*
X106632571Y-109164380D02*
X106632571Y-108640571D01*
X106584952Y-108545333D01*
X106489714Y-108497714D01*
X106299238Y-108497714D01*
X106204000Y-108545333D01*
X106632571Y-109116761D02*
X106537333Y-109164380D01*
X106299238Y-109164380D01*
X106204000Y-109116761D01*
X106156380Y-109021523D01*
X106156380Y-108926285D01*
X106204000Y-108831047D01*
X106299238Y-108783428D01*
X106537333Y-108783428D01*
X106632571Y-108735809D01*
X107537333Y-109164380D02*
X107537333Y-108164380D01*
X107537333Y-109116761D02*
X107442095Y-109164380D01*
X107251619Y-109164380D01*
X107156380Y-109116761D01*
X107108761Y-109069142D01*
X107061142Y-108973904D01*
X107061142Y-108688190D01*
X107108761Y-108592952D01*
X107156380Y-108545333D01*
X107251619Y-108497714D01*
X107442095Y-108497714D01*
X107537333Y-108545333D01*
X109204000Y-109164380D02*
X109204000Y-108640571D01*
X109156380Y-108545333D01*
X109061142Y-108497714D01*
X108870666Y-108497714D01*
X108775428Y-108545333D01*
X109204000Y-109116761D02*
X109108761Y-109164380D01*
X108870666Y-109164380D01*
X108775428Y-109116761D01*
X108727809Y-109021523D01*
X108727809Y-108926285D01*
X108775428Y-108831047D01*
X108870666Y-108783428D01*
X109108761Y-108783428D01*
X109204000Y-108735809D01*
X110108761Y-109164380D02*
X110108761Y-108164380D01*
X110108761Y-109116761D02*
X110013523Y-109164380D01*
X109823047Y-109164380D01*
X109727809Y-109116761D01*
X109680190Y-109069142D01*
X109632571Y-108973904D01*
X109632571Y-108688190D01*
X109680190Y-108592952D01*
X109727809Y-108545333D01*
X109823047Y-108497714D01*
X110013523Y-108497714D01*
X110108761Y-108545333D01*
X111013523Y-109164380D02*
X111013523Y-108164380D01*
X111013523Y-109116761D02*
X110918285Y-109164380D01*
X110727809Y-109164380D01*
X110632571Y-109116761D01*
X110584952Y-109069142D01*
X110537333Y-108973904D01*
X110537333Y-108688190D01*
X110584952Y-108592952D01*
X110632571Y-108545333D01*
X110727809Y-108497714D01*
X110918285Y-108497714D01*
X111013523Y-108545333D01*
X111489714Y-109164380D02*
X111489714Y-108497714D01*
X111489714Y-108688190D02*
X111537333Y-108592952D01*
X111584952Y-108545333D01*
X111680190Y-108497714D01*
X111775428Y-108497714D01*
X94154952Y-109212380D02*
X94059714Y-109164761D01*
X94012095Y-109069523D01*
X94012095Y-108212380D01*
X94678761Y-109212380D02*
X94583523Y-109164761D01*
X94535904Y-109117142D01*
X94488285Y-109021904D01*
X94488285Y-108736190D01*
X94535904Y-108640952D01*
X94583523Y-108593333D01*
X94678761Y-108545714D01*
X94821619Y-108545714D01*
X94916857Y-108593333D01*
X94964476Y-108640952D01*
X95012095Y-108736190D01*
X95012095Y-109021904D01*
X94964476Y-109117142D01*
X94916857Y-109164761D01*
X94821619Y-109212380D01*
X94678761Y-109212380D01*
X95869238Y-109212380D02*
X95869238Y-108688571D01*
X95821619Y-108593333D01*
X95726380Y-108545714D01*
X95535904Y-108545714D01*
X95440666Y-108593333D01*
X95869238Y-109164761D02*
X95774000Y-109212380D01*
X95535904Y-109212380D01*
X95440666Y-109164761D01*
X95393047Y-109069523D01*
X95393047Y-108974285D01*
X95440666Y-108879047D01*
X95535904Y-108831428D01*
X95774000Y-108831428D01*
X95869238Y-108783809D01*
X96774000Y-109212380D02*
X96774000Y-108212380D01*
X96774000Y-109164761D02*
X96678761Y-109212380D01*
X96488285Y-109212380D01*
X96393047Y-109164761D01*
X96345428Y-109117142D01*
X96297809Y-109021904D01*
X96297809Y-108736190D01*
X96345428Y-108640952D01*
X96393047Y-108593333D01*
X96488285Y-108545714D01*
X96678761Y-108545714D01*
X96774000Y-108593333D01*
X98012095Y-109212380D02*
X98012095Y-108545714D01*
X98012095Y-108212380D02*
X97964476Y-108260000D01*
X98012095Y-108307619D01*
X98059714Y-108260000D01*
X98012095Y-108212380D01*
X98012095Y-108307619D01*
X98916857Y-109212380D02*
X98916857Y-108688571D01*
X98869238Y-108593333D01*
X98774000Y-108545714D01*
X98583523Y-108545714D01*
X98488285Y-108593333D01*
X98916857Y-109164761D02*
X98821619Y-109212380D01*
X98583523Y-109212380D01*
X98488285Y-109164761D01*
X98440666Y-109069523D01*
X98440666Y-108974285D01*
X98488285Y-108879047D01*
X98583523Y-108831428D01*
X98821619Y-108831428D01*
X98916857Y-108783809D01*
X99393047Y-109212380D02*
X99393047Y-108545714D01*
X99393047Y-108736190D02*
X99440666Y-108640952D01*
X99488285Y-108593333D01*
X99583523Y-108545714D01*
X99678761Y-108545714D01*
X157567380Y-81406904D02*
X158376904Y-81406904D01*
X158472142Y-81359285D01*
X158519761Y-81311666D01*
X158567380Y-81216428D01*
X158567380Y-81025952D01*
X158519761Y-80930714D01*
X158472142Y-80883095D01*
X158376904Y-80835476D01*
X157567380Y-80835476D01*
X158567380Y-79835476D02*
X158567380Y-80406904D01*
X158567380Y-80121190D02*
X157567380Y-80121190D01*
X157710238Y-80216428D01*
X157805476Y-80311666D01*
X157853095Y-80406904D01*
X132238809Y-87940238D02*
X132276904Y-87825952D01*
X132276904Y-87635476D01*
X132238809Y-87559285D01*
X132200714Y-87521190D01*
X132124523Y-87483095D01*
X132048333Y-87483095D01*
X131972142Y-87521190D01*
X131934047Y-87559285D01*
X131895952Y-87635476D01*
X131857857Y-87787857D01*
X131819761Y-87864047D01*
X131781666Y-87902142D01*
X131705476Y-87940238D01*
X131629285Y-87940238D01*
X131553095Y-87902142D01*
X131515000Y-87864047D01*
X131476904Y-87787857D01*
X131476904Y-87597380D01*
X131515000Y-87483095D01*
X131476904Y-87216428D02*
X132276904Y-87025952D01*
X131705476Y-86873571D01*
X132276904Y-86721190D01*
X131476904Y-86530714D01*
X132276904Y-86225952D02*
X131476904Y-86225952D01*
X131476904Y-86035476D01*
X131515000Y-85921190D01*
X131591190Y-85845000D01*
X131667380Y-85806904D01*
X131819761Y-85768809D01*
X131934047Y-85768809D01*
X132086428Y-85806904D01*
X132162619Y-85845000D01*
X132238809Y-85921190D01*
X132276904Y-86035476D01*
X132276904Y-86225952D01*
X132276904Y-85425952D02*
X131476904Y-85425952D01*
X131476904Y-84892619D02*
X131476904Y-84740238D01*
X131515000Y-84664047D01*
X131591190Y-84587857D01*
X131743571Y-84549761D01*
X132010238Y-84549761D01*
X132162619Y-84587857D01*
X132238809Y-84664047D01*
X132276904Y-84740238D01*
X132276904Y-84892619D01*
X132238809Y-84968809D01*
X132162619Y-85045000D01*
X132010238Y-85083095D01*
X131743571Y-85083095D01*
X131591190Y-85045000D01*
X131515000Y-84968809D01*
X131476904Y-84892619D01*
X132238809Y-76754523D02*
X132276904Y-76640238D01*
X132276904Y-76449761D01*
X132238809Y-76373571D01*
X132200714Y-76335476D01*
X132124523Y-76297380D01*
X132048333Y-76297380D01*
X131972142Y-76335476D01*
X131934047Y-76373571D01*
X131895952Y-76449761D01*
X131857857Y-76602142D01*
X131819761Y-76678333D01*
X131781666Y-76716428D01*
X131705476Y-76754523D01*
X131629285Y-76754523D01*
X131553095Y-76716428D01*
X131515000Y-76678333D01*
X131476904Y-76602142D01*
X131476904Y-76411666D01*
X131515000Y-76297380D01*
X131476904Y-76030714D02*
X132276904Y-75840238D01*
X131705476Y-75687857D01*
X132276904Y-75535476D01*
X131476904Y-75345000D01*
X132200714Y-74583095D02*
X132238809Y-74621190D01*
X132276904Y-74735476D01*
X132276904Y-74811666D01*
X132238809Y-74925952D01*
X132162619Y-75002142D01*
X132086428Y-75040238D01*
X131934047Y-75078333D01*
X131819761Y-75078333D01*
X131667380Y-75040238D01*
X131591190Y-75002142D01*
X131515000Y-74925952D01*
X131476904Y-74811666D01*
X131476904Y-74735476D01*
X131515000Y-74621190D01*
X131553095Y-74583095D01*
X132276904Y-73859285D02*
X132276904Y-74240238D01*
X131476904Y-74240238D01*
X132276904Y-73592619D02*
X131476904Y-73592619D01*
X132276904Y-73135476D02*
X131819761Y-73478333D01*
X131476904Y-73135476D02*
X131934047Y-73592619D01*
X163374035Y-92796597D02*
X163643409Y-93065971D01*
X163158536Y-92904346D02*
X163912783Y-92527223D01*
X163535659Y-93281470D01*
X164559280Y-93227595D02*
X164532343Y-93146783D01*
X164451531Y-93065971D01*
X164343781Y-93012096D01*
X164236032Y-93012096D01*
X164155219Y-93039033D01*
X164020532Y-93119845D01*
X163939720Y-93200658D01*
X163858908Y-93335345D01*
X163831971Y-93416157D01*
X163831971Y-93523906D01*
X163885845Y-93631656D01*
X163939720Y-93685531D01*
X164047470Y-93739406D01*
X164101345Y-93739406D01*
X164289906Y-93550844D01*
X164182157Y-93443094D01*
X164289906Y-94035717D02*
X164855592Y-93470032D01*
X164613155Y-94358966D01*
X165178841Y-93793280D01*
X164882529Y-94628340D02*
X165448215Y-94062654D01*
X165582902Y-94197341D01*
X165636776Y-94305091D01*
X165636776Y-94412841D01*
X165609839Y-94493653D01*
X165529027Y-94628340D01*
X165448215Y-94709152D01*
X165313528Y-94789964D01*
X165232715Y-94816902D01*
X165124966Y-94816902D01*
X165017216Y-94763027D01*
X164882529Y-94628340D01*
X177016844Y-92731158D02*
X176989906Y-92650346D01*
X176909094Y-92569534D01*
X176801345Y-92515659D01*
X176693595Y-92515659D01*
X176612783Y-92542597D01*
X176478096Y-92623409D01*
X176397284Y-92704221D01*
X176316471Y-92838908D01*
X176289534Y-92919720D01*
X176289534Y-93027470D01*
X176343409Y-93135219D01*
X176397284Y-93189094D01*
X176505033Y-93242969D01*
X176558908Y-93242969D01*
X176747470Y-93054407D01*
X176639720Y-92946658D01*
X176747470Y-93539280D02*
X177313155Y-92973595D01*
X177070719Y-93862529D01*
X177636404Y-93296844D01*
X177340093Y-94131903D02*
X177905778Y-93566218D01*
X178040465Y-93700905D01*
X178094340Y-93808654D01*
X178094340Y-93916404D01*
X178067402Y-93997216D01*
X177986590Y-94131903D01*
X177905778Y-94212715D01*
X177771091Y-94293528D01*
X177690279Y-94320465D01*
X177582529Y-94320465D01*
X177474780Y-94266590D01*
X177340093Y-94131903D01*
X151616844Y-92731158D02*
X151589906Y-92650346D01*
X151509094Y-92569534D01*
X151401345Y-92515659D01*
X151293595Y-92515659D01*
X151212783Y-92542597D01*
X151078096Y-92623409D01*
X150997284Y-92704221D01*
X150916471Y-92838908D01*
X150889534Y-92919720D01*
X150889534Y-93027470D01*
X150943409Y-93135219D01*
X150997284Y-93189094D01*
X151105033Y-93242969D01*
X151158908Y-93242969D01*
X151347470Y-93054407D01*
X151239720Y-92946658D01*
X151347470Y-93539280D02*
X151913155Y-92973595D01*
X151670719Y-93862529D01*
X152236404Y-93296844D01*
X151940093Y-94131903D02*
X152505778Y-93566218D01*
X152640465Y-93700905D01*
X152694340Y-93808654D01*
X152694340Y-93916404D01*
X152667402Y-93997216D01*
X152586590Y-94131903D01*
X152505778Y-94212715D01*
X152371091Y-94293528D01*
X152290279Y-94320465D01*
X152182529Y-94320465D01*
X152074780Y-94266590D01*
X151940093Y-94131903D01*
X138916844Y-92731158D02*
X138889906Y-92650346D01*
X138809094Y-92569534D01*
X138701345Y-92515659D01*
X138593595Y-92515659D01*
X138512783Y-92542597D01*
X138378096Y-92623409D01*
X138297284Y-92704221D01*
X138216471Y-92838908D01*
X138189534Y-92919720D01*
X138189534Y-93027470D01*
X138243409Y-93135219D01*
X138297284Y-93189094D01*
X138405033Y-93242969D01*
X138458908Y-93242969D01*
X138647470Y-93054407D01*
X138539720Y-92946658D01*
X138647470Y-93539280D02*
X139213155Y-92973595D01*
X138970719Y-93862529D01*
X139536404Y-93296844D01*
X139240093Y-94131903D02*
X139805778Y-93566218D01*
X139940465Y-93700905D01*
X139994340Y-93808654D01*
X139994340Y-93916404D01*
X139967402Y-93997216D01*
X139886590Y-94131903D01*
X139805778Y-94212715D01*
X139671091Y-94293528D01*
X139590279Y-94320465D01*
X139482529Y-94320465D01*
X139374780Y-94266590D01*
X139240093Y-94131903D01*
X138916844Y-67131158D02*
X138889906Y-67050346D01*
X138809094Y-66969534D01*
X138701345Y-66915659D01*
X138593595Y-66915659D01*
X138512783Y-66942597D01*
X138378096Y-67023409D01*
X138297284Y-67104221D01*
X138216471Y-67238908D01*
X138189534Y-67319720D01*
X138189534Y-67427470D01*
X138243409Y-67535219D01*
X138297284Y-67589094D01*
X138405033Y-67642969D01*
X138458908Y-67642969D01*
X138647470Y-67454407D01*
X138539720Y-67346658D01*
X138647470Y-67939280D02*
X139213155Y-67373595D01*
X138970719Y-68262529D01*
X139536404Y-67696844D01*
X139240093Y-68531903D02*
X139805778Y-67966218D01*
X139940465Y-68100905D01*
X139994340Y-68208654D01*
X139994340Y-68316404D01*
X139967402Y-68397216D01*
X139886590Y-68531903D01*
X139805778Y-68612715D01*
X139671091Y-68693528D01*
X139590279Y-68720465D01*
X139482529Y-68720465D01*
X139374780Y-68666590D01*
X139240093Y-68531903D01*
X151616844Y-67131158D02*
X151589906Y-67050346D01*
X151509094Y-66969534D01*
X151401345Y-66915659D01*
X151293595Y-66915659D01*
X151212783Y-66942597D01*
X151078096Y-67023409D01*
X150997284Y-67104221D01*
X150916471Y-67238908D01*
X150889534Y-67319720D01*
X150889534Y-67427470D01*
X150943409Y-67535219D01*
X150997284Y-67589094D01*
X151105033Y-67642969D01*
X151158908Y-67642969D01*
X151347470Y-67454407D01*
X151239720Y-67346658D01*
X151347470Y-67939280D02*
X151913155Y-67373595D01*
X151670719Y-68262529D01*
X152236404Y-67696844D01*
X151940093Y-68531903D02*
X152505778Y-67966218D01*
X152640465Y-68100905D01*
X152694340Y-68208654D01*
X152694340Y-68316404D01*
X152667402Y-68397216D01*
X152586590Y-68531903D01*
X152505778Y-68612715D01*
X152371091Y-68693528D01*
X152290279Y-68720465D01*
X152182529Y-68720465D01*
X152074780Y-68666590D01*
X151940093Y-68531903D01*
X164316844Y-67131158D02*
X164289906Y-67050346D01*
X164209094Y-66969534D01*
X164101345Y-66915659D01*
X163993595Y-66915659D01*
X163912783Y-66942597D01*
X163778096Y-67023409D01*
X163697284Y-67104221D01*
X163616471Y-67238908D01*
X163589534Y-67319720D01*
X163589534Y-67427470D01*
X163643409Y-67535219D01*
X163697284Y-67589094D01*
X163805033Y-67642969D01*
X163858908Y-67642969D01*
X164047470Y-67454407D01*
X163939720Y-67346658D01*
X164047470Y-67939280D02*
X164613155Y-67373595D01*
X164370719Y-68262529D01*
X164936404Y-67696844D01*
X164640093Y-68531903D02*
X165205778Y-67966218D01*
X165340465Y-68100905D01*
X165394340Y-68208654D01*
X165394340Y-68316404D01*
X165367402Y-68397216D01*
X165286590Y-68531903D01*
X165205778Y-68612715D01*
X165071091Y-68693528D01*
X164990279Y-68720465D01*
X164882529Y-68720465D01*
X164774780Y-68666590D01*
X164640093Y-68531903D01*
X177016844Y-67131158D02*
X176989906Y-67050346D01*
X176909094Y-66969534D01*
X176801345Y-66915659D01*
X176693595Y-66915659D01*
X176612783Y-66942597D01*
X176478096Y-67023409D01*
X176397284Y-67104221D01*
X176316471Y-67238908D01*
X176289534Y-67319720D01*
X176289534Y-67427470D01*
X176343409Y-67535219D01*
X176397284Y-67589094D01*
X176505033Y-67642969D01*
X176558908Y-67642969D01*
X176747470Y-67454407D01*
X176639720Y-67346658D01*
X176747470Y-67939280D02*
X177313155Y-67373595D01*
X177070719Y-68262529D01*
X177636404Y-67696844D01*
X177340093Y-68531903D02*
X177905778Y-67966218D01*
X178040465Y-68100905D01*
X178094340Y-68208654D01*
X178094340Y-68316404D01*
X178067402Y-68397216D01*
X177986590Y-68531903D01*
X177905778Y-68612715D01*
X177771091Y-68693528D01*
X177690279Y-68720465D01*
X177582529Y-68720465D01*
X177474780Y-68666590D01*
X177340093Y-68531903D01*
X181587690Y-92598129D02*
X181210566Y-93352377D01*
X181964813Y-92975253D01*
X182072563Y-93621751D02*
X182126438Y-93729500D01*
X182126438Y-93783375D01*
X182099500Y-93864187D01*
X182018688Y-93945000D01*
X181937876Y-93971937D01*
X181884001Y-93971937D01*
X181803189Y-93945000D01*
X181587690Y-93729500D01*
X182153375Y-93163815D01*
X182341937Y-93352377D01*
X182368874Y-93433189D01*
X182368874Y-93487064D01*
X182341937Y-93567876D01*
X182288062Y-93621751D01*
X182207250Y-93648688D01*
X182153375Y-93648688D01*
X182072563Y-93621751D01*
X181884001Y-93433189D01*
X182719061Y-93729500D02*
X182261125Y-94187436D01*
X182234187Y-94268248D01*
X182234187Y-94322123D01*
X182261125Y-94402935D01*
X182368874Y-94510685D01*
X182449687Y-94537622D01*
X182503561Y-94537622D01*
X182584374Y-94510685D01*
X183042309Y-94052749D01*
X182745998Y-94833934D02*
X182799873Y-94941683D01*
X182934560Y-95076370D01*
X183015372Y-95103308D01*
X183069247Y-95103308D01*
X183150059Y-95076370D01*
X183203934Y-95022496D01*
X183230871Y-94941683D01*
X183230871Y-94887809D01*
X183203934Y-94806996D01*
X183123122Y-94672309D01*
X183096184Y-94591497D01*
X183096184Y-94537622D01*
X183123122Y-94456810D01*
X183176996Y-94402935D01*
X183257809Y-94375998D01*
X183311683Y-94375998D01*
X183392496Y-94402935D01*
X183527183Y-94537622D01*
X183581057Y-94645372D01*
X179045033Y-92565473D02*
X178667910Y-93319720D01*
X179422157Y-92942597D01*
X179045033Y-93642969D02*
X179098908Y-93750719D01*
X179233595Y-93885406D01*
X179314407Y-93912343D01*
X179368282Y-93912343D01*
X179449094Y-93885406D01*
X179502969Y-93831531D01*
X179529906Y-93750719D01*
X179529906Y-93696844D01*
X179502969Y-93616032D01*
X179422157Y-93481345D01*
X179395219Y-93400532D01*
X179395219Y-93346658D01*
X179422157Y-93265845D01*
X179476032Y-93211971D01*
X179556844Y-93185033D01*
X179610719Y-93185033D01*
X179691531Y-93211971D01*
X179826218Y-93346658D01*
X179880093Y-93454407D01*
X179960905Y-94073967D02*
X179691531Y-94343341D01*
X180068654Y-93589094D02*
X179960905Y-94073967D01*
X180445778Y-93966218D01*
X180068654Y-94666590D02*
X180122529Y-94774340D01*
X180257216Y-94909027D01*
X180338028Y-94935964D01*
X180391903Y-94935964D01*
X180472715Y-94909027D01*
X180526590Y-94855152D01*
X180553528Y-94774340D01*
X180553528Y-94720465D01*
X180526590Y-94639653D01*
X180445778Y-94504966D01*
X180418841Y-94424154D01*
X180418841Y-94370279D01*
X180445778Y-94289467D01*
X180499653Y-94235592D01*
X180580465Y-94208654D01*
X180634340Y-94208654D01*
X180715152Y-94235592D01*
X180849839Y-94370279D01*
X180903714Y-94478028D01*
X174156691Y-92567131D02*
X174506877Y-92917317D01*
X174102816Y-92944255D01*
X174183629Y-93025067D01*
X174210566Y-93105879D01*
X174210566Y-93159754D01*
X174183629Y-93240566D01*
X174048942Y-93375253D01*
X173968129Y-93402190D01*
X173914255Y-93402190D01*
X173833442Y-93375253D01*
X173671818Y-93213629D01*
X173644881Y-93132816D01*
X173644881Y-93078942D01*
X174668502Y-93078942D02*
X174291378Y-93833189D01*
X175045625Y-93456065D01*
X175180312Y-93590752D02*
X175530499Y-93940938D01*
X175126438Y-93967876D01*
X175207250Y-94048688D01*
X175234187Y-94129500D01*
X175234187Y-94183375D01*
X175207250Y-94264187D01*
X175072563Y-94398874D01*
X174991751Y-94425812D01*
X174937876Y-94425812D01*
X174857064Y-94398874D01*
X174695439Y-94237250D01*
X174668502Y-94156438D01*
X174668502Y-94102563D01*
X175018688Y-94668248D02*
X175449687Y-95099247D01*
X175934560Y-94883748D02*
X176123122Y-95072309D01*
X175907622Y-95449433D02*
X175638248Y-95180059D01*
X176203934Y-94614374D01*
X176473308Y-94883748D01*
X176150059Y-95691870D02*
X176715744Y-95126184D01*
X176473308Y-96015118D01*
X177038993Y-95449433D01*
X171624407Y-92534847D02*
X171974593Y-92885033D01*
X171570532Y-92911971D01*
X171651345Y-92992783D01*
X171678282Y-93073595D01*
X171678282Y-93127470D01*
X171651345Y-93208282D01*
X171516658Y-93342969D01*
X171435845Y-93369906D01*
X171381971Y-93369906D01*
X171301158Y-93342969D01*
X171139534Y-93181345D01*
X171112597Y-93100532D01*
X171112597Y-93046658D01*
X172136218Y-93046658D02*
X171759094Y-93800905D01*
X172513341Y-93423781D01*
X172648028Y-93558468D02*
X172998215Y-93908654D01*
X172594154Y-93935592D01*
X172674966Y-94016404D01*
X172701903Y-94097216D01*
X172701903Y-94151091D01*
X172674966Y-94231903D01*
X172540279Y-94366590D01*
X172459467Y-94393528D01*
X172405592Y-94393528D01*
X172324780Y-94366590D01*
X172163155Y-94204966D01*
X172136218Y-94124154D01*
X172136218Y-94070279D01*
X168581226Y-92799788D02*
X168850600Y-93069162D01*
X168365727Y-92907537D02*
X169119974Y-92530414D01*
X168742850Y-93284661D01*
X168931412Y-93473223D02*
X169497097Y-92907537D01*
X169631784Y-93042224D01*
X169685659Y-93149974D01*
X169685659Y-93257723D01*
X169658722Y-93338536D01*
X169577910Y-93473223D01*
X169497097Y-93554035D01*
X169362410Y-93634847D01*
X169281598Y-93661784D01*
X169173849Y-93661784D01*
X169066099Y-93607910D01*
X168931412Y-93473223D01*
X169874221Y-94308282D02*
X169820346Y-94308282D01*
X169712597Y-94254407D01*
X169658722Y-94200532D01*
X169604847Y-94092783D01*
X169604847Y-93985033D01*
X169631784Y-93904221D01*
X169712597Y-93769534D01*
X169793409Y-93688722D01*
X169928096Y-93607910D01*
X170008908Y-93580972D01*
X170116658Y-93580972D01*
X170224407Y-93634847D01*
X170278282Y-93688722D01*
X170332157Y-93796471D01*
X170332157Y-93850346D01*
X169874221Y-94523781D02*
X170305219Y-94954780D01*
X170978654Y-94389094D02*
X170601531Y-95143341D01*
X171355778Y-94766218D01*
X171301903Y-95843714D02*
X171382715Y-95385778D01*
X170978654Y-95520465D02*
X171544340Y-94954780D01*
X171759839Y-95170279D01*
X171786776Y-95251091D01*
X171786776Y-95304966D01*
X171759839Y-95385778D01*
X171679027Y-95466590D01*
X171598215Y-95493528D01*
X171544340Y-95493528D01*
X171463528Y-95466590D01*
X171248028Y-95251091D01*
X171840651Y-95789839D02*
X172029213Y-95978401D01*
X171813714Y-96355524D02*
X171544340Y-96086150D01*
X172110025Y-95520465D01*
X172379399Y-95789839D01*
X172541024Y-96490211D02*
X172352462Y-96301650D01*
X172056150Y-96597961D02*
X172621836Y-96032276D01*
X172891210Y-96301650D01*
X166868407Y-92742722D02*
X166841470Y-92661910D01*
X166760658Y-92581097D01*
X166652908Y-92527223D01*
X166545158Y-92527223D01*
X166464346Y-92554160D01*
X166329659Y-92634972D01*
X166248847Y-92715784D01*
X166168035Y-92850471D01*
X166141097Y-92931284D01*
X166141097Y-93039033D01*
X166194972Y-93146783D01*
X166248847Y-93200658D01*
X166356597Y-93254532D01*
X166410471Y-93254532D01*
X166599033Y-93065971D01*
X166491284Y-92958221D01*
X166599033Y-93550844D02*
X167164719Y-92985158D01*
X167380218Y-93200658D01*
X167407155Y-93281470D01*
X167407155Y-93335345D01*
X167380218Y-93416157D01*
X167299406Y-93496969D01*
X167218593Y-93523906D01*
X167164719Y-93523906D01*
X167083906Y-93496969D01*
X166868407Y-93281470D01*
X167649592Y-93577781D02*
X167703467Y-93577781D01*
X167784279Y-93604719D01*
X167918966Y-93739406D01*
X167945903Y-93820218D01*
X167945903Y-93874093D01*
X167918966Y-93954905D01*
X167865091Y-94008780D01*
X167757341Y-94062654D01*
X167110844Y-94062654D01*
X167461030Y-94412841D01*
X168107528Y-94412841D02*
X168080590Y-94332028D01*
X168080590Y-94278154D01*
X168107528Y-94197341D01*
X168134465Y-94170404D01*
X168215277Y-94143467D01*
X168269152Y-94143467D01*
X168349964Y-94170404D01*
X168457714Y-94278154D01*
X168484651Y-94358966D01*
X168484651Y-94412841D01*
X168457714Y-94493653D01*
X168430776Y-94520590D01*
X168349964Y-94547528D01*
X168296089Y-94547528D01*
X168215277Y-94520590D01*
X168107528Y-94412841D01*
X168026715Y-94385903D01*
X167972841Y-94385903D01*
X167892028Y-94412841D01*
X167784279Y-94520590D01*
X167757341Y-94601402D01*
X167757341Y-94655277D01*
X167784279Y-94736089D01*
X167892028Y-94843839D01*
X167972841Y-94870776D01*
X168026715Y-94870776D01*
X168107528Y-94843839D01*
X168215277Y-94736089D01*
X168242215Y-94655277D01*
X168242215Y-94601402D01*
X168215277Y-94520590D01*
X161524407Y-92742722D02*
X161497470Y-92661910D01*
X161416658Y-92581097D01*
X161308908Y-92527223D01*
X161201158Y-92527223D01*
X161120346Y-92554160D01*
X160985659Y-92634972D01*
X160904847Y-92715784D01*
X160824035Y-92850471D01*
X160797097Y-92931284D01*
X160797097Y-93039033D01*
X160850972Y-93146783D01*
X160904847Y-93200658D01*
X161012597Y-93254532D01*
X161066471Y-93254532D01*
X161255033Y-93065971D01*
X161147284Y-92958221D01*
X161255033Y-93550844D02*
X161820719Y-92985158D01*
X162036218Y-93200658D01*
X162063155Y-93281470D01*
X162063155Y-93335345D01*
X162036218Y-93416157D01*
X161955406Y-93496969D01*
X161874593Y-93523906D01*
X161820719Y-93523906D01*
X161739906Y-93496969D01*
X161524407Y-93281470D01*
X162305592Y-93577781D02*
X162359467Y-93577781D01*
X162440279Y-93604719D01*
X162574966Y-93739406D01*
X162601903Y-93820218D01*
X162601903Y-93874093D01*
X162574966Y-93954905D01*
X162521091Y-94008780D01*
X162413341Y-94062654D01*
X161766844Y-94062654D01*
X162117030Y-94412841D01*
X162871277Y-94035717D02*
X163248401Y-94412841D01*
X162440279Y-94736089D01*
X158994407Y-92742722D02*
X158967470Y-92661910D01*
X158886658Y-92581097D01*
X158778908Y-92527223D01*
X158671158Y-92527223D01*
X158590346Y-92554160D01*
X158455659Y-92634972D01*
X158374847Y-92715784D01*
X158294035Y-92850471D01*
X158267097Y-92931284D01*
X158267097Y-93039033D01*
X158320972Y-93146783D01*
X158374847Y-93200658D01*
X158482597Y-93254532D01*
X158536471Y-93254532D01*
X158725033Y-93065971D01*
X158617284Y-92958221D01*
X158725033Y-93550844D02*
X159290719Y-92985158D01*
X159506218Y-93200658D01*
X159533155Y-93281470D01*
X159533155Y-93335345D01*
X159506218Y-93416157D01*
X159425406Y-93496969D01*
X159344593Y-93523906D01*
X159290719Y-93523906D01*
X159209906Y-93496969D01*
X158994407Y-93281470D01*
X159775592Y-93577781D02*
X159829467Y-93577781D01*
X159910279Y-93604719D01*
X160044966Y-93739406D01*
X160071903Y-93820218D01*
X160071903Y-93874093D01*
X160044966Y-93954905D01*
X159991091Y-94008780D01*
X159883341Y-94062654D01*
X159236844Y-94062654D01*
X159587030Y-94412841D01*
X160637589Y-94332028D02*
X160529839Y-94224279D01*
X160449027Y-94197341D01*
X160395152Y-94197341D01*
X160260465Y-94224279D01*
X160125778Y-94305091D01*
X159910279Y-94520590D01*
X159883341Y-94601402D01*
X159883341Y-94655277D01*
X159910279Y-94736089D01*
X160018028Y-94843839D01*
X160098841Y-94870776D01*
X160152715Y-94870776D01*
X160233528Y-94843839D01*
X160368215Y-94709152D01*
X160395152Y-94628340D01*
X160395152Y-94574465D01*
X160368215Y-94493653D01*
X160260465Y-94385903D01*
X160179653Y-94358966D01*
X160125778Y-94358966D01*
X160044966Y-94385903D01*
X156171564Y-93483375D02*
X156252377Y-93025439D01*
X155848316Y-93160126D02*
X156414001Y-92594441D01*
X156629500Y-92809940D01*
X156656438Y-92890752D01*
X156656438Y-92944627D01*
X156629500Y-93025439D01*
X156548688Y-93106251D01*
X156467876Y-93133189D01*
X156414001Y-93133189D01*
X156333189Y-93106251D01*
X156117690Y-92890752D01*
X156979687Y-93160126D02*
X156521751Y-93618062D01*
X156494813Y-93698874D01*
X156494813Y-93752749D01*
X156521751Y-93833561D01*
X156629500Y-93941311D01*
X156710312Y-93968248D01*
X156764187Y-93968248D01*
X156845000Y-93941311D01*
X157302935Y-93483375D01*
X157006624Y-94318435D02*
X157572309Y-93752749D01*
X157329873Y-94641683D01*
X157895558Y-94075998D01*
X153914407Y-92742722D02*
X153887470Y-92661910D01*
X153806658Y-92581097D01*
X153698908Y-92527223D01*
X153591158Y-92527223D01*
X153510346Y-92554160D01*
X153375659Y-92634972D01*
X153294847Y-92715784D01*
X153214035Y-92850471D01*
X153187097Y-92931284D01*
X153187097Y-93039033D01*
X153240972Y-93146783D01*
X153294847Y-93200658D01*
X153402597Y-93254532D01*
X153456471Y-93254532D01*
X153645033Y-93065971D01*
X153537284Y-92958221D01*
X153645033Y-93550844D02*
X154210719Y-92985158D01*
X154426218Y-93200658D01*
X154453155Y-93281470D01*
X154453155Y-93335345D01*
X154426218Y-93416157D01*
X154345406Y-93496969D01*
X154264593Y-93523906D01*
X154210719Y-93523906D01*
X154129906Y-93496969D01*
X153914407Y-93281470D01*
X154695592Y-93577781D02*
X154749467Y-93577781D01*
X154830279Y-93604719D01*
X154964966Y-93739406D01*
X154991903Y-93820218D01*
X154991903Y-93874093D01*
X154964966Y-93954905D01*
X154911091Y-94008780D01*
X154803341Y-94062654D01*
X154156844Y-94062654D01*
X154507030Y-94412841D01*
X155234340Y-94116529D02*
X155288215Y-94116529D01*
X155369027Y-94143467D01*
X155503714Y-94278154D01*
X155530651Y-94358966D01*
X155530651Y-94412841D01*
X155503714Y-94493653D01*
X155449839Y-94547528D01*
X155342089Y-94601402D01*
X154695592Y-94601402D01*
X155045778Y-94951589D01*
X148824407Y-92742722D02*
X148797470Y-92661910D01*
X148716658Y-92581097D01*
X148608908Y-92527223D01*
X148501158Y-92527223D01*
X148420346Y-92554160D01*
X148285659Y-92634972D01*
X148204847Y-92715784D01*
X148124035Y-92850471D01*
X148097097Y-92931284D01*
X148097097Y-93039033D01*
X148150972Y-93146783D01*
X148204847Y-93200658D01*
X148312597Y-93254532D01*
X148366471Y-93254532D01*
X148555033Y-93065971D01*
X148447284Y-92958221D01*
X148555033Y-93550844D02*
X149120719Y-92985158D01*
X149336218Y-93200658D01*
X149363155Y-93281470D01*
X149363155Y-93335345D01*
X149336218Y-93416157D01*
X149255406Y-93496969D01*
X149174593Y-93523906D01*
X149120719Y-93523906D01*
X149039906Y-93496969D01*
X148824407Y-93281470D01*
X149605592Y-93577781D02*
X149659467Y-93577781D01*
X149740279Y-93604719D01*
X149874966Y-93739406D01*
X149901903Y-93820218D01*
X149901903Y-93874093D01*
X149874966Y-93954905D01*
X149821091Y-94008780D01*
X149713341Y-94062654D01*
X149066844Y-94062654D01*
X149417030Y-94412841D01*
X149955778Y-94951589D02*
X149632529Y-94628340D01*
X149794154Y-94789964D02*
X150359839Y-94224279D01*
X150225152Y-94251216D01*
X150117402Y-94251216D01*
X150036590Y-94224279D01*
X146294407Y-92742722D02*
X146267470Y-92661910D01*
X146186658Y-92581097D01*
X146078908Y-92527223D01*
X145971158Y-92527223D01*
X145890346Y-92554160D01*
X145755659Y-92634972D01*
X145674847Y-92715784D01*
X145594035Y-92850471D01*
X145567097Y-92931284D01*
X145567097Y-93039033D01*
X145620972Y-93146783D01*
X145674847Y-93200658D01*
X145782597Y-93254532D01*
X145836471Y-93254532D01*
X146025033Y-93065971D01*
X145917284Y-92958221D01*
X146025033Y-93550844D02*
X146590719Y-92985158D01*
X146806218Y-93200658D01*
X146833155Y-93281470D01*
X146833155Y-93335345D01*
X146806218Y-93416157D01*
X146725406Y-93496969D01*
X146644593Y-93523906D01*
X146590719Y-93523906D01*
X146509906Y-93496969D01*
X146294407Y-93281470D01*
X147075592Y-93577781D02*
X147129467Y-93577781D01*
X147210279Y-93604719D01*
X147344966Y-93739406D01*
X147371903Y-93820218D01*
X147371903Y-93874093D01*
X147344966Y-93954905D01*
X147291091Y-94008780D01*
X147183341Y-94062654D01*
X146536844Y-94062654D01*
X146887030Y-94412841D01*
X147802902Y-94197341D02*
X147856776Y-94251216D01*
X147883714Y-94332028D01*
X147883714Y-94385903D01*
X147856776Y-94466715D01*
X147775964Y-94601402D01*
X147641277Y-94736089D01*
X147506590Y-94816902D01*
X147425778Y-94843839D01*
X147371903Y-94843839D01*
X147291091Y-94816902D01*
X147237216Y-94763027D01*
X147210279Y-94682215D01*
X147210279Y-94628340D01*
X147237216Y-94547528D01*
X147318028Y-94412841D01*
X147452715Y-94278154D01*
X147587402Y-94197341D01*
X147668215Y-94170404D01*
X147722089Y-94170404D01*
X147802902Y-94197341D01*
X143754407Y-92742722D02*
X143727470Y-92661910D01*
X143646658Y-92581097D01*
X143538908Y-92527223D01*
X143431158Y-92527223D01*
X143350346Y-92554160D01*
X143215659Y-92634972D01*
X143134847Y-92715784D01*
X143054035Y-92850471D01*
X143027097Y-92931284D01*
X143027097Y-93039033D01*
X143080972Y-93146783D01*
X143134847Y-93200658D01*
X143242597Y-93254532D01*
X143296471Y-93254532D01*
X143485033Y-93065971D01*
X143377284Y-92958221D01*
X143485033Y-93550844D02*
X144050719Y-92985158D01*
X144266218Y-93200658D01*
X144293155Y-93281470D01*
X144293155Y-93335345D01*
X144266218Y-93416157D01*
X144185406Y-93496969D01*
X144104593Y-93523906D01*
X144050719Y-93523906D01*
X143969906Y-93496969D01*
X143754407Y-93281470D01*
X144347030Y-94412841D02*
X144023781Y-94089592D01*
X144185406Y-94251216D02*
X144751091Y-93685531D01*
X144616404Y-93712468D01*
X144508654Y-93712468D01*
X144427842Y-93685531D01*
X144616404Y-94682215D02*
X144724154Y-94789964D01*
X144804966Y-94816902D01*
X144858841Y-94816902D01*
X144993528Y-94789964D01*
X145128215Y-94709152D01*
X145343714Y-94493653D01*
X145370651Y-94412841D01*
X145370651Y-94358966D01*
X145343714Y-94278154D01*
X145235964Y-94170404D01*
X145155152Y-94143467D01*
X145101277Y-94143467D01*
X145020465Y-94170404D01*
X144885778Y-94305091D01*
X144858841Y-94385903D01*
X144858841Y-94439778D01*
X144885778Y-94520590D01*
X144993528Y-94628340D01*
X145074340Y-94655277D01*
X145128215Y-94655277D01*
X145209027Y-94628340D01*
X141214407Y-92742722D02*
X141187470Y-92661910D01*
X141106658Y-92581097D01*
X140998908Y-92527223D01*
X140891158Y-92527223D01*
X140810346Y-92554160D01*
X140675659Y-92634972D01*
X140594847Y-92715784D01*
X140514035Y-92850471D01*
X140487097Y-92931284D01*
X140487097Y-93039033D01*
X140540972Y-93146783D01*
X140594847Y-93200658D01*
X140702597Y-93254532D01*
X140756471Y-93254532D01*
X140945033Y-93065971D01*
X140837284Y-92958221D01*
X140945033Y-93550844D02*
X141510719Y-92985158D01*
X141726218Y-93200658D01*
X141753155Y-93281470D01*
X141753155Y-93335345D01*
X141726218Y-93416157D01*
X141645406Y-93496969D01*
X141564593Y-93523906D01*
X141510719Y-93523906D01*
X141429906Y-93496969D01*
X141214407Y-93281470D01*
X141807030Y-94412841D02*
X141483781Y-94089592D01*
X141645406Y-94251216D02*
X142211091Y-93685531D01*
X142076404Y-93712468D01*
X141968654Y-93712468D01*
X141887842Y-93685531D01*
X142453528Y-94412841D02*
X142426590Y-94332028D01*
X142426590Y-94278154D01*
X142453528Y-94197341D01*
X142480465Y-94170404D01*
X142561277Y-94143467D01*
X142615152Y-94143467D01*
X142695964Y-94170404D01*
X142803714Y-94278154D01*
X142830651Y-94358966D01*
X142830651Y-94412841D01*
X142803714Y-94493653D01*
X142776776Y-94520590D01*
X142695964Y-94547528D01*
X142642089Y-94547528D01*
X142561277Y-94520590D01*
X142453528Y-94412841D01*
X142372715Y-94385903D01*
X142318841Y-94385903D01*
X142238028Y-94412841D01*
X142130279Y-94520590D01*
X142103341Y-94601402D01*
X142103341Y-94655277D01*
X142130279Y-94736089D01*
X142238028Y-94843839D01*
X142318841Y-94870776D01*
X142372715Y-94870776D01*
X142453528Y-94843839D01*
X142561277Y-94736089D01*
X142588215Y-94655277D01*
X142588215Y-94601402D01*
X142561277Y-94520590D01*
X136134407Y-92742722D02*
X136107470Y-92661910D01*
X136026658Y-92581097D01*
X135918908Y-92527223D01*
X135811158Y-92527223D01*
X135730346Y-92554160D01*
X135595659Y-92634972D01*
X135514847Y-92715784D01*
X135434035Y-92850471D01*
X135407097Y-92931284D01*
X135407097Y-93039033D01*
X135460972Y-93146783D01*
X135514847Y-93200658D01*
X135622597Y-93254532D01*
X135676471Y-93254532D01*
X135865033Y-93065971D01*
X135757284Y-92958221D01*
X135865033Y-93550844D02*
X136430719Y-92985158D01*
X136646218Y-93200658D01*
X136673155Y-93281470D01*
X136673155Y-93335345D01*
X136646218Y-93416157D01*
X136565406Y-93496969D01*
X136484593Y-93523906D01*
X136430719Y-93523906D01*
X136349906Y-93496969D01*
X136134407Y-93281470D01*
X136727030Y-94412841D02*
X136403781Y-94089592D01*
X136565406Y-94251216D02*
X137131091Y-93685531D01*
X136996404Y-93712468D01*
X136888654Y-93712468D01*
X136807842Y-93685531D01*
X137481277Y-94035717D02*
X137858401Y-94412841D01*
X137050279Y-94736089D01*
X133594407Y-92742722D02*
X133567470Y-92661910D01*
X133486658Y-92581097D01*
X133378908Y-92527223D01*
X133271158Y-92527223D01*
X133190346Y-92554160D01*
X133055659Y-92634972D01*
X132974847Y-92715784D01*
X132894035Y-92850471D01*
X132867097Y-92931284D01*
X132867097Y-93039033D01*
X132920972Y-93146783D01*
X132974847Y-93200658D01*
X133082597Y-93254532D01*
X133136471Y-93254532D01*
X133325033Y-93065971D01*
X133217284Y-92958221D01*
X133325033Y-93550844D02*
X133890719Y-92985158D01*
X134106218Y-93200658D01*
X134133155Y-93281470D01*
X134133155Y-93335345D01*
X134106218Y-93416157D01*
X134025406Y-93496969D01*
X133944593Y-93523906D01*
X133890719Y-93523906D01*
X133809906Y-93496969D01*
X133594407Y-93281470D01*
X134187030Y-94412841D02*
X133863781Y-94089592D01*
X134025406Y-94251216D02*
X134591091Y-93685531D01*
X134456404Y-93712468D01*
X134348654Y-93712468D01*
X134267842Y-93685531D01*
X135237589Y-94332028D02*
X135129839Y-94224279D01*
X135049027Y-94197341D01*
X134995152Y-94197341D01*
X134860465Y-94224279D01*
X134725778Y-94305091D01*
X134510279Y-94520590D01*
X134483341Y-94601402D01*
X134483341Y-94655277D01*
X134510279Y-94736089D01*
X134618028Y-94843839D01*
X134698841Y-94870776D01*
X134752715Y-94870776D01*
X134833528Y-94843839D01*
X134968215Y-94709152D01*
X134995152Y-94628340D01*
X134995152Y-94574465D01*
X134968215Y-94493653D01*
X134860465Y-94385903D01*
X134779653Y-94358966D01*
X134725778Y-94358966D01*
X134644966Y-94385903D01*
X133594407Y-66634722D02*
X133567470Y-66553910D01*
X133486658Y-66473097D01*
X133378908Y-66419223D01*
X133271158Y-66419223D01*
X133190346Y-66446160D01*
X133055659Y-66526972D01*
X132974847Y-66607784D01*
X132894035Y-66742471D01*
X132867097Y-66823284D01*
X132867097Y-66931033D01*
X132920972Y-67038783D01*
X132974847Y-67092658D01*
X133082597Y-67146532D01*
X133136471Y-67146532D01*
X133325033Y-66957971D01*
X133217284Y-66850221D01*
X133325033Y-67442844D02*
X133890719Y-66877158D01*
X134106218Y-67092658D01*
X134133155Y-67173470D01*
X134133155Y-67227345D01*
X134106218Y-67308157D01*
X134025406Y-67388969D01*
X133944593Y-67415906D01*
X133890719Y-67415906D01*
X133809906Y-67388969D01*
X133594407Y-67173470D01*
X134187030Y-68304841D02*
X133863781Y-67981592D01*
X134025406Y-68143216D02*
X134591091Y-67577531D01*
X134456404Y-67604468D01*
X134348654Y-67604468D01*
X134267842Y-67577531D01*
X135264526Y-68250966D02*
X134995152Y-67981592D01*
X134698841Y-68224028D01*
X134752715Y-68224028D01*
X134833528Y-68250966D01*
X134968215Y-68385653D01*
X134995152Y-68466465D01*
X134995152Y-68520340D01*
X134968215Y-68601152D01*
X134833528Y-68735839D01*
X134752715Y-68762776D01*
X134698841Y-68762776D01*
X134618028Y-68735839D01*
X134483341Y-68601152D01*
X134456404Y-68520340D01*
X134456404Y-68466465D01*
X136134407Y-66588722D02*
X136107470Y-66507910D01*
X136026658Y-66427097D01*
X135918908Y-66373223D01*
X135811158Y-66373223D01*
X135730346Y-66400160D01*
X135595659Y-66480972D01*
X135514847Y-66561784D01*
X135434035Y-66696471D01*
X135407097Y-66777284D01*
X135407097Y-66885033D01*
X135460972Y-66992783D01*
X135514847Y-67046658D01*
X135622597Y-67100532D01*
X135676471Y-67100532D01*
X135865033Y-66911971D01*
X135757284Y-66804221D01*
X135865033Y-67396844D02*
X136430719Y-66831158D01*
X136646218Y-67046658D01*
X136673155Y-67127470D01*
X136673155Y-67181345D01*
X136646218Y-67262157D01*
X136565406Y-67342969D01*
X136484593Y-67369906D01*
X136430719Y-67369906D01*
X136349906Y-67342969D01*
X136134407Y-67127470D01*
X136727030Y-68258841D02*
X136403781Y-67935592D01*
X136565406Y-68097216D02*
X137131091Y-67531531D01*
X136996404Y-67558468D01*
X136888654Y-67558468D01*
X136807842Y-67531531D01*
X137589027Y-68366590D02*
X137211903Y-68743714D01*
X137669839Y-68016404D02*
X137131091Y-68285778D01*
X137481277Y-68635964D01*
X141214407Y-66634722D02*
X141187470Y-66553910D01*
X141106658Y-66473097D01*
X140998908Y-66419223D01*
X140891158Y-66419223D01*
X140810346Y-66446160D01*
X140675659Y-66526972D01*
X140594847Y-66607784D01*
X140514035Y-66742471D01*
X140487097Y-66823284D01*
X140487097Y-66931033D01*
X140540972Y-67038783D01*
X140594847Y-67092658D01*
X140702597Y-67146532D01*
X140756471Y-67146532D01*
X140945033Y-66957971D01*
X140837284Y-66850221D01*
X140945033Y-67442844D02*
X141510719Y-66877158D01*
X141726218Y-67092658D01*
X141753155Y-67173470D01*
X141753155Y-67227345D01*
X141726218Y-67308157D01*
X141645406Y-67388969D01*
X141564593Y-67415906D01*
X141510719Y-67415906D01*
X141429906Y-67388969D01*
X141214407Y-67173470D01*
X141807030Y-68304841D02*
X141483781Y-67981592D01*
X141645406Y-68143216D02*
X142211091Y-67577531D01*
X142076404Y-67604468D01*
X141968654Y-67604468D01*
X141887842Y-67577531D01*
X142561277Y-67927717D02*
X142911463Y-68277903D01*
X142507402Y-68304841D01*
X142588215Y-68385653D01*
X142615152Y-68466465D01*
X142615152Y-68520340D01*
X142588215Y-68601152D01*
X142453528Y-68735839D01*
X142372715Y-68762776D01*
X142318841Y-68762776D01*
X142238028Y-68735839D01*
X142076404Y-68574215D01*
X142049467Y-68493402D01*
X142049467Y-68439528D01*
X143754407Y-66488722D02*
X143727470Y-66407910D01*
X143646658Y-66327097D01*
X143538908Y-66273223D01*
X143431158Y-66273223D01*
X143350346Y-66300160D01*
X143215659Y-66380972D01*
X143134847Y-66461784D01*
X143054035Y-66596471D01*
X143027097Y-66677284D01*
X143027097Y-66785033D01*
X143080972Y-66892783D01*
X143134847Y-66946658D01*
X143242597Y-67000532D01*
X143296471Y-67000532D01*
X143485033Y-66811971D01*
X143377284Y-66704221D01*
X143485033Y-67296844D02*
X144050719Y-66731158D01*
X144266218Y-66946658D01*
X144293155Y-67027470D01*
X144293155Y-67081345D01*
X144266218Y-67162157D01*
X144185406Y-67242969D01*
X144104593Y-67269906D01*
X144050719Y-67269906D01*
X143969906Y-67242969D01*
X143754407Y-67027470D01*
X144347030Y-68158841D02*
X144023781Y-67835592D01*
X144185406Y-67997216D02*
X144751091Y-67431531D01*
X144616404Y-67458468D01*
X144508654Y-67458468D01*
X144427842Y-67431531D01*
X145074340Y-67862529D02*
X145128215Y-67862529D01*
X145209027Y-67889467D01*
X145343714Y-68024154D01*
X145370651Y-68104966D01*
X145370651Y-68158841D01*
X145343714Y-68239653D01*
X145289839Y-68293528D01*
X145182089Y-68347402D01*
X144535592Y-68347402D01*
X144885778Y-68697589D01*
X146294407Y-66488722D02*
X146267470Y-66407910D01*
X146186658Y-66327097D01*
X146078908Y-66273223D01*
X145971158Y-66273223D01*
X145890346Y-66300160D01*
X145755659Y-66380972D01*
X145674847Y-66461784D01*
X145594035Y-66596471D01*
X145567097Y-66677284D01*
X145567097Y-66785033D01*
X145620972Y-66892783D01*
X145674847Y-66946658D01*
X145782597Y-67000532D01*
X145836471Y-67000532D01*
X146025033Y-66811971D01*
X145917284Y-66704221D01*
X146025033Y-67296844D02*
X146590719Y-66731158D01*
X146806218Y-66946658D01*
X146833155Y-67027470D01*
X146833155Y-67081345D01*
X146806218Y-67162157D01*
X146725406Y-67242969D01*
X146644593Y-67269906D01*
X146590719Y-67269906D01*
X146509906Y-67242969D01*
X146294407Y-67027470D01*
X146887030Y-68158841D02*
X146563781Y-67835592D01*
X146725406Y-67997216D02*
X147291091Y-67431531D01*
X147156404Y-67458468D01*
X147048654Y-67458468D01*
X146967842Y-67431531D01*
X147425778Y-68697589D02*
X147102529Y-68374340D01*
X147264154Y-68535964D02*
X147829839Y-67970279D01*
X147695152Y-67997216D01*
X147587402Y-67997216D01*
X147506590Y-67970279D01*
X148834407Y-66634722D02*
X148807470Y-66553910D01*
X148726658Y-66473097D01*
X148618908Y-66419223D01*
X148511158Y-66419223D01*
X148430346Y-66446160D01*
X148295659Y-66526972D01*
X148214847Y-66607784D01*
X148134035Y-66742471D01*
X148107097Y-66823284D01*
X148107097Y-66931033D01*
X148160972Y-67038783D01*
X148214847Y-67092658D01*
X148322597Y-67146532D01*
X148376471Y-67146532D01*
X148565033Y-66957971D01*
X148457284Y-66850221D01*
X148565033Y-67442844D02*
X149130719Y-66877158D01*
X149346218Y-67092658D01*
X149373155Y-67173470D01*
X149373155Y-67227345D01*
X149346218Y-67308157D01*
X149265406Y-67388969D01*
X149184593Y-67415906D01*
X149130719Y-67415906D01*
X149049906Y-67388969D01*
X148834407Y-67173470D01*
X149427030Y-68304841D02*
X149103781Y-67981592D01*
X149265406Y-68143216D02*
X149831091Y-67577531D01*
X149696404Y-67604468D01*
X149588654Y-67604468D01*
X149507842Y-67577531D01*
X150342902Y-68089341D02*
X150396776Y-68143216D01*
X150423714Y-68224028D01*
X150423714Y-68277903D01*
X150396776Y-68358715D01*
X150315964Y-68493402D01*
X150181277Y-68628089D01*
X150046590Y-68708902D01*
X149965778Y-68735839D01*
X149911903Y-68735839D01*
X149831091Y-68708902D01*
X149777216Y-68655027D01*
X149750279Y-68574215D01*
X149750279Y-68520340D01*
X149777216Y-68439528D01*
X149858028Y-68304841D01*
X149992715Y-68170154D01*
X150127402Y-68089341D01*
X150208215Y-68062404D01*
X150262089Y-68062404D01*
X150342902Y-68089341D01*
X154183781Y-67158096D02*
X154156844Y-67077284D01*
X154076032Y-66996471D01*
X153968282Y-66942597D01*
X153860532Y-66942597D01*
X153779720Y-66969534D01*
X153645033Y-67050346D01*
X153564221Y-67131158D01*
X153483409Y-67265845D01*
X153456471Y-67346658D01*
X153456471Y-67454407D01*
X153510346Y-67562157D01*
X153564221Y-67616032D01*
X153671971Y-67669906D01*
X153725845Y-67669906D01*
X153914407Y-67481345D01*
X153806658Y-67373595D01*
X153914407Y-67966218D02*
X154480093Y-67400532D01*
X154695592Y-67616032D01*
X154722529Y-67696844D01*
X154722529Y-67750719D01*
X154695592Y-67831531D01*
X154614780Y-67912343D01*
X154533967Y-67939280D01*
X154480093Y-67939280D01*
X154399280Y-67912343D01*
X154183781Y-67696844D01*
X154507030Y-68558841D02*
X154614780Y-68666590D01*
X154695592Y-68693528D01*
X154749467Y-68693528D01*
X154884154Y-68666590D01*
X155018841Y-68585778D01*
X155234340Y-68370279D01*
X155261277Y-68289467D01*
X155261277Y-68235592D01*
X155234340Y-68154780D01*
X155126590Y-68047030D01*
X155045778Y-68020093D01*
X154991903Y-68020093D01*
X154911091Y-68047030D01*
X154776404Y-68181717D01*
X154749467Y-68262529D01*
X154749467Y-68316404D01*
X154776404Y-68397216D01*
X154884154Y-68504966D01*
X154964966Y-68531903D01*
X155018841Y-68531903D01*
X155099653Y-68504966D01*
X156723781Y-67158096D02*
X156696844Y-67077284D01*
X156616032Y-66996471D01*
X156508282Y-66942597D01*
X156400532Y-66942597D01*
X156319720Y-66969534D01*
X156185033Y-67050346D01*
X156104221Y-67131158D01*
X156023409Y-67265845D01*
X155996471Y-67346658D01*
X155996471Y-67454407D01*
X156050346Y-67562157D01*
X156104221Y-67616032D01*
X156211971Y-67669906D01*
X156265845Y-67669906D01*
X156454407Y-67481345D01*
X156346658Y-67373595D01*
X156454407Y-67966218D02*
X157020093Y-67400532D01*
X157235592Y-67616032D01*
X157262529Y-67696844D01*
X157262529Y-67750719D01*
X157235592Y-67831531D01*
X157154780Y-67912343D01*
X157073967Y-67939280D01*
X157020093Y-67939280D01*
X156939280Y-67912343D01*
X156723781Y-67696844D01*
X157424154Y-68289467D02*
X157397216Y-68208654D01*
X157397216Y-68154780D01*
X157424154Y-68073967D01*
X157451091Y-68047030D01*
X157531903Y-68020093D01*
X157585778Y-68020093D01*
X157666590Y-68047030D01*
X157774340Y-68154780D01*
X157801277Y-68235592D01*
X157801277Y-68289467D01*
X157774340Y-68370279D01*
X157747402Y-68397216D01*
X157666590Y-68424154D01*
X157612715Y-68424154D01*
X157531903Y-68397216D01*
X157424154Y-68289467D01*
X157343341Y-68262529D01*
X157289467Y-68262529D01*
X157208654Y-68289467D01*
X157100905Y-68397216D01*
X157073967Y-68478028D01*
X157073967Y-68531903D01*
X157100905Y-68612715D01*
X157208654Y-68720465D01*
X157289467Y-68747402D01*
X157343341Y-68747402D01*
X157424154Y-68720465D01*
X157531903Y-68612715D01*
X157558841Y-68531903D01*
X157558841Y-68478028D01*
X157531903Y-68397216D01*
X159293781Y-67258096D02*
X159266844Y-67177284D01*
X159186032Y-67096471D01*
X159078282Y-67042597D01*
X158970532Y-67042597D01*
X158889720Y-67069534D01*
X158755033Y-67150346D01*
X158674221Y-67231158D01*
X158593409Y-67365845D01*
X158566471Y-67446658D01*
X158566471Y-67554407D01*
X158620346Y-67662157D01*
X158674221Y-67716032D01*
X158781971Y-67769906D01*
X158835845Y-67769906D01*
X159024407Y-67581345D01*
X158916658Y-67473595D01*
X159024407Y-68066218D02*
X159590093Y-67500532D01*
X159805592Y-67716032D01*
X159832529Y-67796844D01*
X159832529Y-67850719D01*
X159805592Y-67931531D01*
X159724780Y-68012343D01*
X159643967Y-68039280D01*
X159590093Y-68039280D01*
X159509280Y-68012343D01*
X159293781Y-67796844D01*
X160101903Y-68012343D02*
X160479027Y-68389467D01*
X159670905Y-68712715D01*
X161803781Y-67158096D02*
X161776844Y-67077284D01*
X161696032Y-66996471D01*
X161588282Y-66942597D01*
X161480532Y-66942597D01*
X161399720Y-66969534D01*
X161265033Y-67050346D01*
X161184221Y-67131158D01*
X161103409Y-67265845D01*
X161076471Y-67346658D01*
X161076471Y-67454407D01*
X161130346Y-67562157D01*
X161184221Y-67616032D01*
X161291971Y-67669906D01*
X161345845Y-67669906D01*
X161534407Y-67481345D01*
X161426658Y-67373595D01*
X161534407Y-67966218D02*
X162100093Y-67400532D01*
X162315592Y-67616032D01*
X162342529Y-67696844D01*
X162342529Y-67750719D01*
X162315592Y-67831531D01*
X162234780Y-67912343D01*
X162153967Y-67939280D01*
X162100093Y-67939280D01*
X162019280Y-67912343D01*
X161803781Y-67696844D01*
X162908215Y-68208654D02*
X162800465Y-68100905D01*
X162719653Y-68073967D01*
X162665778Y-68073967D01*
X162531091Y-68100905D01*
X162396404Y-68181717D01*
X162180905Y-68397216D01*
X162153967Y-68478028D01*
X162153967Y-68531903D01*
X162180905Y-68612715D01*
X162288654Y-68720465D01*
X162369467Y-68747402D01*
X162423341Y-68747402D01*
X162504154Y-68720465D01*
X162638841Y-68585778D01*
X162665778Y-68504966D01*
X162665778Y-68451091D01*
X162638841Y-68370279D01*
X162531091Y-68262529D01*
X162450279Y-68235592D01*
X162396404Y-68235592D01*
X162315592Y-68262529D01*
X166883781Y-67158096D02*
X166856844Y-67077284D01*
X166776032Y-66996471D01*
X166668282Y-66942597D01*
X166560532Y-66942597D01*
X166479720Y-66969534D01*
X166345033Y-67050346D01*
X166264221Y-67131158D01*
X166183409Y-67265845D01*
X166156471Y-67346658D01*
X166156471Y-67454407D01*
X166210346Y-67562157D01*
X166264221Y-67616032D01*
X166371971Y-67669906D01*
X166425845Y-67669906D01*
X166614407Y-67481345D01*
X166506658Y-67373595D01*
X166614407Y-67966218D02*
X167180093Y-67400532D01*
X167395592Y-67616032D01*
X167422529Y-67696844D01*
X167422529Y-67750719D01*
X167395592Y-67831531D01*
X167314780Y-67912343D01*
X167233967Y-67939280D01*
X167180093Y-67939280D01*
X167099280Y-67912343D01*
X166883781Y-67696844D01*
X168015152Y-68235592D02*
X167745778Y-67966218D01*
X167449467Y-68208654D01*
X167503341Y-68208654D01*
X167584154Y-68235592D01*
X167718841Y-68370279D01*
X167745778Y-68451091D01*
X167745778Y-68504966D01*
X167718841Y-68585778D01*
X167584154Y-68720465D01*
X167503341Y-68747402D01*
X167449467Y-68747402D01*
X167368654Y-68720465D01*
X167233967Y-68585778D01*
X167207030Y-68504966D01*
X167207030Y-68451091D01*
X169423781Y-67158096D02*
X169396844Y-67077284D01*
X169316032Y-66996471D01*
X169208282Y-66942597D01*
X169100532Y-66942597D01*
X169019720Y-66969534D01*
X168885033Y-67050346D01*
X168804221Y-67131158D01*
X168723409Y-67265845D01*
X168696471Y-67346658D01*
X168696471Y-67454407D01*
X168750346Y-67562157D01*
X168804221Y-67616032D01*
X168911971Y-67669906D01*
X168965845Y-67669906D01*
X169154407Y-67481345D01*
X169046658Y-67373595D01*
X169154407Y-67966218D02*
X169720093Y-67400532D01*
X169935592Y-67616032D01*
X169962529Y-67696844D01*
X169962529Y-67750719D01*
X169935592Y-67831531D01*
X169854780Y-67912343D01*
X169773967Y-67939280D01*
X169720093Y-67939280D01*
X169639280Y-67912343D01*
X169423781Y-67696844D01*
X170339653Y-68397216D02*
X169962529Y-68774340D01*
X170420465Y-68047030D02*
X169881717Y-68316404D01*
X170231903Y-68666590D01*
X171963781Y-67158096D02*
X171936844Y-67077284D01*
X171856032Y-66996471D01*
X171748282Y-66942597D01*
X171640532Y-66942597D01*
X171559720Y-66969534D01*
X171425033Y-67050346D01*
X171344221Y-67131158D01*
X171263409Y-67265845D01*
X171236471Y-67346658D01*
X171236471Y-67454407D01*
X171290346Y-67562157D01*
X171344221Y-67616032D01*
X171451971Y-67669906D01*
X171505845Y-67669906D01*
X171694407Y-67481345D01*
X171586658Y-67373595D01*
X171694407Y-67966218D02*
X172260093Y-67400532D01*
X172475592Y-67616032D01*
X172502529Y-67696844D01*
X172502529Y-67750719D01*
X172475592Y-67831531D01*
X172394780Y-67912343D01*
X172313967Y-67939280D01*
X172260093Y-67939280D01*
X172179280Y-67912343D01*
X171963781Y-67696844D01*
X172771903Y-67912343D02*
X173122089Y-68262529D01*
X172718028Y-68289467D01*
X172798841Y-68370279D01*
X172825778Y-68451091D01*
X172825778Y-68504966D01*
X172798841Y-68585778D01*
X172664154Y-68720465D01*
X172583341Y-68747402D01*
X172529467Y-68747402D01*
X172448654Y-68720465D01*
X172287030Y-68558841D01*
X172260093Y-68478028D01*
X172260093Y-68424154D01*
X182123781Y-67158096D02*
X182096844Y-67077284D01*
X182016032Y-66996471D01*
X181908282Y-66942597D01*
X181800532Y-66942597D01*
X181719720Y-66969534D01*
X181585033Y-67050346D01*
X181504221Y-67131158D01*
X181423409Y-67265845D01*
X181396471Y-67346658D01*
X181396471Y-67454407D01*
X181450346Y-67562157D01*
X181504221Y-67616032D01*
X181611971Y-67669906D01*
X181665845Y-67669906D01*
X181854407Y-67481345D01*
X181746658Y-67373595D01*
X181854407Y-67966218D02*
X182420093Y-67400532D01*
X182635592Y-67616032D01*
X182662529Y-67696844D01*
X182662529Y-67750719D01*
X182635592Y-67831531D01*
X182554780Y-67912343D01*
X182473967Y-67939280D01*
X182420093Y-67939280D01*
X182339280Y-67912343D01*
X182123781Y-67696844D01*
X183093528Y-68073967D02*
X183147402Y-68127842D01*
X183174340Y-68208654D01*
X183174340Y-68262529D01*
X183147402Y-68343341D01*
X183066590Y-68478028D01*
X182931903Y-68612715D01*
X182797216Y-68693528D01*
X182716404Y-68720465D01*
X182662529Y-68720465D01*
X182581717Y-68693528D01*
X182527842Y-68639653D01*
X182500905Y-68558841D01*
X182500905Y-68504966D01*
X182527842Y-68424154D01*
X182608654Y-68289467D01*
X182743341Y-68154780D01*
X182878028Y-68073967D01*
X182958841Y-68047030D01*
X183012715Y-68047030D01*
X183093528Y-68073967D01*
X174503781Y-67058096D02*
X174476844Y-66977284D01*
X174396032Y-66896471D01*
X174288282Y-66842597D01*
X174180532Y-66842597D01*
X174099720Y-66869534D01*
X173965033Y-66950346D01*
X173884221Y-67031158D01*
X173803409Y-67165845D01*
X173776471Y-67246658D01*
X173776471Y-67354407D01*
X173830346Y-67462157D01*
X173884221Y-67516032D01*
X173991971Y-67569906D01*
X174045845Y-67569906D01*
X174234407Y-67381345D01*
X174126658Y-67273595D01*
X174234407Y-67866218D02*
X174800093Y-67300532D01*
X175015592Y-67516032D01*
X175042529Y-67596844D01*
X175042529Y-67650719D01*
X175015592Y-67731531D01*
X174934780Y-67812343D01*
X174853967Y-67839280D01*
X174800093Y-67839280D01*
X174719280Y-67812343D01*
X174503781Y-67596844D01*
X175284966Y-67893155D02*
X175338841Y-67893155D01*
X175419653Y-67920093D01*
X175554340Y-68054780D01*
X175581277Y-68135592D01*
X175581277Y-68189467D01*
X175554340Y-68270279D01*
X175500465Y-68324154D01*
X175392715Y-68378028D01*
X174746218Y-68378028D01*
X175096404Y-68728215D01*
X179593781Y-67058096D02*
X179566844Y-66977284D01*
X179486032Y-66896471D01*
X179378282Y-66842597D01*
X179270532Y-66842597D01*
X179189720Y-66869534D01*
X179055033Y-66950346D01*
X178974221Y-67031158D01*
X178893409Y-67165845D01*
X178866471Y-67246658D01*
X178866471Y-67354407D01*
X178920346Y-67462157D01*
X178974221Y-67516032D01*
X179081971Y-67569906D01*
X179135845Y-67569906D01*
X179324407Y-67381345D01*
X179216658Y-67273595D01*
X179324407Y-67866218D02*
X179890093Y-67300532D01*
X180105592Y-67516032D01*
X180132529Y-67596844D01*
X180132529Y-67650719D01*
X180105592Y-67731531D01*
X180024780Y-67812343D01*
X179943967Y-67839280D01*
X179890093Y-67839280D01*
X179809280Y-67812343D01*
X179593781Y-67596844D01*
X180186404Y-68728215D02*
X179863155Y-68404966D01*
X180024780Y-68566590D02*
X180590465Y-68000905D01*
X180455778Y-68027842D01*
X180348028Y-68027842D01*
X180267216Y-68000905D01*
X105116380Y-76017333D02*
X105830666Y-76017333D01*
X105973523Y-76064952D01*
X106068761Y-76160190D01*
X106116380Y-76303047D01*
X106116380Y-76398285D01*
X106116380Y-75541142D02*
X105116380Y-75541142D01*
X105116380Y-75160190D01*
X105164000Y-75064952D01*
X105211619Y-75017333D01*
X105306857Y-74969714D01*
X105449714Y-74969714D01*
X105544952Y-75017333D01*
X105592571Y-75064952D01*
X105640190Y-75160190D01*
X105640190Y-75541142D01*
X105449714Y-74112571D02*
X106116380Y-74112571D01*
X105068761Y-74350666D02*
X105783047Y-74588761D01*
X105783047Y-73969714D01*
X104862380Y-60015333D02*
X105576666Y-60015333D01*
X105719523Y-60062952D01*
X105814761Y-60158190D01*
X105862380Y-60301047D01*
X105862380Y-60396285D01*
X105862380Y-59539142D02*
X104862380Y-59539142D01*
X104862380Y-59158190D01*
X104910000Y-59062952D01*
X104957619Y-59015333D01*
X105052857Y-58967714D01*
X105195714Y-58967714D01*
X105290952Y-59015333D01*
X105338571Y-59062952D01*
X105386190Y-59158190D01*
X105386190Y-59539142D01*
X104862380Y-58634380D02*
X104862380Y-58015333D01*
X105243333Y-58348666D01*
X105243333Y-58205809D01*
X105290952Y-58110571D01*
X105338571Y-58062952D01*
X105433809Y-58015333D01*
X105671904Y-58015333D01*
X105767142Y-58062952D01*
X105814761Y-58110571D01*
X105862380Y-58205809D01*
X105862380Y-58491523D01*
X105814761Y-58586761D01*
X105767142Y-58634380D01*
X107402380Y-76271333D02*
X108116666Y-76271333D01*
X108259523Y-76318952D01*
X108354761Y-76414190D01*
X108402380Y-76557047D01*
X108402380Y-76652285D01*
X108402380Y-75795142D02*
X107402380Y-75795142D01*
X107402380Y-75414190D01*
X107450000Y-75318952D01*
X107497619Y-75271333D01*
X107592857Y-75223714D01*
X107735714Y-75223714D01*
X107830952Y-75271333D01*
X107878571Y-75318952D01*
X107926190Y-75414190D01*
X107926190Y-75795142D01*
X107497619Y-74842761D02*
X107450000Y-74795142D01*
X107402380Y-74699904D01*
X107402380Y-74461809D01*
X107450000Y-74366571D01*
X107497619Y-74318952D01*
X107592857Y-74271333D01*
X107688095Y-74271333D01*
X107830952Y-74318952D01*
X108402380Y-74890380D01*
X108402380Y-74271333D01*
X107402380Y-60015333D02*
X108116666Y-60015333D01*
X108259523Y-60062952D01*
X108354761Y-60158190D01*
X108402380Y-60301047D01*
X108402380Y-60396285D01*
X108402380Y-59539142D02*
X107402380Y-59539142D01*
X107402380Y-59158190D01*
X107450000Y-59062952D01*
X107497619Y-59015333D01*
X107592857Y-58967714D01*
X107735714Y-58967714D01*
X107830952Y-59015333D01*
X107878571Y-59062952D01*
X107926190Y-59158190D01*
X107926190Y-59539142D01*
X108402380Y-58015333D02*
X108402380Y-58586761D01*
X108402380Y-58301047D02*
X107402380Y-58301047D01*
X107545238Y-58396285D01*
X107640476Y-58491523D01*
X107688095Y-58586761D01*
X174696380Y-58904095D02*
X173696380Y-58904095D01*
X173696380Y-58666000D01*
X173744000Y-58523142D01*
X173839238Y-58427904D01*
X173934476Y-58380285D01*
X174124952Y-58332666D01*
X174267809Y-58332666D01*
X174458285Y-58380285D01*
X174553523Y-58427904D01*
X174648761Y-58523142D01*
X174696380Y-58666000D01*
X174696380Y-58904095D01*
X174029714Y-57475523D02*
X174696380Y-57475523D01*
X173648761Y-57713619D02*
X174363047Y-57951714D01*
X174363047Y-57332666D01*
X182316380Y-59158095D02*
X181316380Y-59158095D01*
X181316380Y-58920000D01*
X181364000Y-58777142D01*
X181459238Y-58681904D01*
X181554476Y-58634285D01*
X181744952Y-58586666D01*
X181887809Y-58586666D01*
X182078285Y-58634285D01*
X182173523Y-58681904D01*
X182268761Y-58777142D01*
X182316380Y-58920000D01*
X182316380Y-59158095D01*
X181316380Y-58253333D02*
X181316380Y-57634285D01*
X181697333Y-57967619D01*
X181697333Y-57824761D01*
X181744952Y-57729523D01*
X181792571Y-57681904D01*
X181887809Y-57634285D01*
X182125904Y-57634285D01*
X182221142Y-57681904D01*
X182268761Y-57729523D01*
X182316380Y-57824761D01*
X182316380Y-58110476D01*
X182268761Y-58205714D01*
X182221142Y-58253333D01*
X172410380Y-58904095D02*
X171410380Y-58904095D01*
X171410380Y-58666000D01*
X171458000Y-58523142D01*
X171553238Y-58427904D01*
X171648476Y-58380285D01*
X171838952Y-58332666D01*
X171981809Y-58332666D01*
X172172285Y-58380285D01*
X172267523Y-58427904D01*
X172362761Y-58523142D01*
X172410380Y-58666000D01*
X172410380Y-58904095D01*
X171505619Y-57951714D02*
X171458000Y-57904095D01*
X171410380Y-57808857D01*
X171410380Y-57570761D01*
X171458000Y-57475523D01*
X171505619Y-57427904D01*
X171600857Y-57380285D01*
X171696095Y-57380285D01*
X171838952Y-57427904D01*
X172410380Y-57999333D01*
X172410380Y-57380285D01*
X179776380Y-58904095D02*
X178776380Y-58904095D01*
X178776380Y-58666000D01*
X178824000Y-58523142D01*
X178919238Y-58427904D01*
X179014476Y-58380285D01*
X179204952Y-58332666D01*
X179347809Y-58332666D01*
X179538285Y-58380285D01*
X179633523Y-58427904D01*
X179728761Y-58523142D01*
X179776380Y-58666000D01*
X179776380Y-58904095D01*
X179776380Y-57380285D02*
X179776380Y-57951714D01*
X179776380Y-57666000D02*
X178776380Y-57666000D01*
X178919238Y-57761238D01*
X179014476Y-57856476D01*
X179062095Y-57951714D01*
M02*
