G04 #@! TF.GenerationSoftware,KiCad,Pcbnew,5.1.5+dfsg1-2build2*
G04 #@! TF.CreationDate,2023-12-24T06:28:24+00:00*
G04 #@! TF.ProjectId,small_esc,736d616c-6c5f-4657-9363-2e6b69636164,rev?*
G04 #@! TF.SameCoordinates,Original*
G04 #@! TF.FileFunction,Soldermask,Bot*
G04 #@! TF.FilePolarity,Negative*
%FSLAX46Y46*%
G04 Gerber Fmt 4.6, Leading zero omitted, Abs format (unit mm)*
G04 Created by KiCad (PCBNEW 5.1.5+dfsg1-2build2) date 2023-12-24 06:28:24*
%MOMM*%
%LPD*%
G04 APERTURE LIST*
%ADD10C,0.100000*%
G04 APERTURE END LIST*
D10*
G36*
X106406564Y-134759389D02*
G01*
X106597833Y-134838615D01*
X106597835Y-134838616D01*
X106769973Y-134953635D01*
X106916365Y-135100027D01*
X107031385Y-135272167D01*
X107110611Y-135463436D01*
X107151000Y-135666484D01*
X107151000Y-135873516D01*
X107110611Y-136076564D01*
X107065281Y-136186000D01*
X107031384Y-136267835D01*
X106916365Y-136439973D01*
X106769973Y-136586365D01*
X106597835Y-136701384D01*
X106597834Y-136701385D01*
X106597833Y-136701385D01*
X106406564Y-136780611D01*
X106203516Y-136821000D01*
X105996484Y-136821000D01*
X105793436Y-136780611D01*
X105602167Y-136701385D01*
X105602166Y-136701385D01*
X105602165Y-136701384D01*
X105430027Y-136586365D01*
X105283635Y-136439973D01*
X105168616Y-136267835D01*
X105134719Y-136186000D01*
X105089389Y-136076564D01*
X105049000Y-135873516D01*
X105049000Y-135666484D01*
X105089389Y-135463436D01*
X105168615Y-135272167D01*
X105283635Y-135100027D01*
X105430027Y-134953635D01*
X105602165Y-134838616D01*
X105602167Y-134838615D01*
X105793436Y-134759389D01*
X105996484Y-134719000D01*
X106203516Y-134719000D01*
X106406564Y-134759389D01*
G37*
G36*
X99906564Y-134759389D02*
G01*
X100097833Y-134838615D01*
X100097835Y-134838616D01*
X100269973Y-134953635D01*
X100416365Y-135100027D01*
X100531385Y-135272167D01*
X100610611Y-135463436D01*
X100651000Y-135666484D01*
X100651000Y-135873516D01*
X100610611Y-136076564D01*
X100565281Y-136186000D01*
X100531384Y-136267835D01*
X100416365Y-136439973D01*
X100269973Y-136586365D01*
X100097835Y-136701384D01*
X100097834Y-136701385D01*
X100097833Y-136701385D01*
X99906564Y-136780611D01*
X99703516Y-136821000D01*
X99496484Y-136821000D01*
X99293436Y-136780611D01*
X99102167Y-136701385D01*
X99102166Y-136701385D01*
X99102165Y-136701384D01*
X98930027Y-136586365D01*
X98783635Y-136439973D01*
X98668616Y-136267835D01*
X98634719Y-136186000D01*
X98589389Y-136076564D01*
X98549000Y-135873516D01*
X98549000Y-135666484D01*
X98589389Y-135463436D01*
X98668615Y-135272167D01*
X98783635Y-135100027D01*
X98930027Y-134953635D01*
X99102165Y-134838616D01*
X99102167Y-134838615D01*
X99293436Y-134759389D01*
X99496484Y-134719000D01*
X99703516Y-134719000D01*
X99906564Y-134759389D01*
G37*
G36*
X132481564Y-134124389D02*
G01*
X132672833Y-134203615D01*
X132672835Y-134203616D01*
X132844973Y-134318635D01*
X132991365Y-134465027D01*
X133106385Y-134637167D01*
X133185611Y-134828436D01*
X133226000Y-135031484D01*
X133226000Y-135238516D01*
X133185611Y-135441564D01*
X133176551Y-135463436D01*
X133106384Y-135632835D01*
X132991365Y-135804973D01*
X132844973Y-135951365D01*
X132672835Y-136066384D01*
X132672834Y-136066385D01*
X132672833Y-136066385D01*
X132481564Y-136145611D01*
X132278516Y-136186000D01*
X132071484Y-136186000D01*
X131868436Y-136145611D01*
X131677167Y-136066385D01*
X131677166Y-136066385D01*
X131677165Y-136066384D01*
X131505027Y-135951365D01*
X131358635Y-135804973D01*
X131243616Y-135632835D01*
X131173449Y-135463436D01*
X131164389Y-135441564D01*
X131124000Y-135238516D01*
X131124000Y-135031484D01*
X131164389Y-134828436D01*
X131243615Y-134637167D01*
X131358635Y-134465027D01*
X131505027Y-134318635D01*
X131677165Y-134203616D01*
X131677167Y-134203615D01*
X131868436Y-134124389D01*
X132071484Y-134084000D01*
X132278516Y-134084000D01*
X132481564Y-134124389D01*
G37*
G36*
X121051564Y-134124389D02*
G01*
X121242833Y-134203615D01*
X121242835Y-134203616D01*
X121414973Y-134318635D01*
X121561365Y-134465027D01*
X121676385Y-134637167D01*
X121755611Y-134828436D01*
X121796000Y-135031484D01*
X121796000Y-135238516D01*
X121755611Y-135441564D01*
X121746551Y-135463436D01*
X121676384Y-135632835D01*
X121561365Y-135804973D01*
X121414973Y-135951365D01*
X121242835Y-136066384D01*
X121242834Y-136066385D01*
X121242833Y-136066385D01*
X121051564Y-136145611D01*
X120848516Y-136186000D01*
X120641484Y-136186000D01*
X120438436Y-136145611D01*
X120247167Y-136066385D01*
X120247166Y-136066385D01*
X120247165Y-136066384D01*
X120075027Y-135951365D01*
X119928635Y-135804973D01*
X119813616Y-135632835D01*
X119743449Y-135463436D01*
X119734389Y-135441564D01*
X119694000Y-135238516D01*
X119694000Y-135031484D01*
X119734389Y-134828436D01*
X119813615Y-134637167D01*
X119928635Y-134465027D01*
X120075027Y-134318635D01*
X120247165Y-134203616D01*
X120247167Y-134203615D01*
X120438436Y-134124389D01*
X120641484Y-134084000D01*
X120848516Y-134084000D01*
X121051564Y-134124389D01*
G37*
G36*
X127551564Y-134124389D02*
G01*
X127742833Y-134203615D01*
X127742835Y-134203616D01*
X127914973Y-134318635D01*
X128061365Y-134465027D01*
X128176385Y-134637167D01*
X128255611Y-134828436D01*
X128296000Y-135031484D01*
X128296000Y-135238516D01*
X128255611Y-135441564D01*
X128246551Y-135463436D01*
X128176384Y-135632835D01*
X128061365Y-135804973D01*
X127914973Y-135951365D01*
X127742835Y-136066384D01*
X127742834Y-136066385D01*
X127742833Y-136066385D01*
X127551564Y-136145611D01*
X127348516Y-136186000D01*
X127141484Y-136186000D01*
X126938436Y-136145611D01*
X126747167Y-136066385D01*
X126747166Y-136066385D01*
X126747165Y-136066384D01*
X126575027Y-135951365D01*
X126428635Y-135804973D01*
X126313616Y-135632835D01*
X126243449Y-135463436D01*
X126234389Y-135441564D01*
X126194000Y-135238516D01*
X126194000Y-135031484D01*
X126234389Y-134828436D01*
X126313615Y-134637167D01*
X126428635Y-134465027D01*
X126575027Y-134318635D01*
X126747165Y-134203616D01*
X126747167Y-134203615D01*
X126938436Y-134124389D01*
X127141484Y-134084000D01*
X127348516Y-134084000D01*
X127551564Y-134124389D01*
G37*
G36*
X138981564Y-134124389D02*
G01*
X139172833Y-134203615D01*
X139172835Y-134203616D01*
X139344973Y-134318635D01*
X139491365Y-134465027D01*
X139606385Y-134637167D01*
X139685611Y-134828436D01*
X139726000Y-135031484D01*
X139726000Y-135238516D01*
X139685611Y-135441564D01*
X139676551Y-135463436D01*
X139606384Y-135632835D01*
X139491365Y-135804973D01*
X139344973Y-135951365D01*
X139172835Y-136066384D01*
X139172834Y-136066385D01*
X139172833Y-136066385D01*
X138981564Y-136145611D01*
X138778516Y-136186000D01*
X138571484Y-136186000D01*
X138368436Y-136145611D01*
X138177167Y-136066385D01*
X138177166Y-136066385D01*
X138177165Y-136066384D01*
X138005027Y-135951365D01*
X137858635Y-135804973D01*
X137743616Y-135632835D01*
X137673449Y-135463436D01*
X137664389Y-135441564D01*
X137624000Y-135238516D01*
X137624000Y-135031484D01*
X137664389Y-134828436D01*
X137743615Y-134637167D01*
X137858635Y-134465027D01*
X138005027Y-134318635D01*
X138177165Y-134203616D01*
X138177167Y-134203615D01*
X138368436Y-134124389D01*
X138571484Y-134084000D01*
X138778516Y-134084000D01*
X138981564Y-134124389D01*
G37*
G36*
X143911564Y-134124389D02*
G01*
X144102833Y-134203615D01*
X144102835Y-134203616D01*
X144274973Y-134318635D01*
X144421365Y-134465027D01*
X144536385Y-134637167D01*
X144615611Y-134828436D01*
X144656000Y-135031484D01*
X144656000Y-135238516D01*
X144615611Y-135441564D01*
X144606551Y-135463436D01*
X144536384Y-135632835D01*
X144421365Y-135804973D01*
X144274973Y-135951365D01*
X144102835Y-136066384D01*
X144102834Y-136066385D01*
X144102833Y-136066385D01*
X143911564Y-136145611D01*
X143708516Y-136186000D01*
X143501484Y-136186000D01*
X143298436Y-136145611D01*
X143107167Y-136066385D01*
X143107166Y-136066385D01*
X143107165Y-136066384D01*
X142935027Y-135951365D01*
X142788635Y-135804973D01*
X142673616Y-135632835D01*
X142603449Y-135463436D01*
X142594389Y-135441564D01*
X142554000Y-135238516D01*
X142554000Y-135031484D01*
X142594389Y-134828436D01*
X142673615Y-134637167D01*
X142788635Y-134465027D01*
X142935027Y-134318635D01*
X143107165Y-134203616D01*
X143107167Y-134203615D01*
X143298436Y-134124389D01*
X143501484Y-134084000D01*
X143708516Y-134084000D01*
X143911564Y-134124389D01*
G37*
G36*
X213116564Y-134124389D02*
G01*
X213307833Y-134203615D01*
X213307835Y-134203616D01*
X213479973Y-134318635D01*
X213626365Y-134465027D01*
X213741385Y-134637167D01*
X213820611Y-134828436D01*
X213861000Y-135031484D01*
X213861000Y-135238516D01*
X213820611Y-135441564D01*
X213811551Y-135463436D01*
X213741384Y-135632835D01*
X213626365Y-135804973D01*
X213479973Y-135951365D01*
X213307835Y-136066384D01*
X213307834Y-136066385D01*
X213307833Y-136066385D01*
X213116564Y-136145611D01*
X212913516Y-136186000D01*
X212706484Y-136186000D01*
X212503436Y-136145611D01*
X212312167Y-136066385D01*
X212312166Y-136066385D01*
X212312165Y-136066384D01*
X212140027Y-135951365D01*
X211993635Y-135804973D01*
X211878616Y-135632835D01*
X211808449Y-135463436D01*
X211799389Y-135441564D01*
X211759000Y-135238516D01*
X211759000Y-135031484D01*
X211799389Y-134828436D01*
X211878615Y-134637167D01*
X211993635Y-134465027D01*
X212140027Y-134318635D01*
X212312165Y-134203616D01*
X212312167Y-134203615D01*
X212503436Y-134124389D01*
X212706484Y-134084000D01*
X212913516Y-134084000D01*
X213116564Y-134124389D01*
G37*
G36*
X206616564Y-134124389D02*
G01*
X206807833Y-134203615D01*
X206807835Y-134203616D01*
X206979973Y-134318635D01*
X207126365Y-134465027D01*
X207241385Y-134637167D01*
X207320611Y-134828436D01*
X207361000Y-135031484D01*
X207361000Y-135238516D01*
X207320611Y-135441564D01*
X207311551Y-135463436D01*
X207241384Y-135632835D01*
X207126365Y-135804973D01*
X206979973Y-135951365D01*
X206807835Y-136066384D01*
X206807834Y-136066385D01*
X206807833Y-136066385D01*
X206616564Y-136145611D01*
X206413516Y-136186000D01*
X206206484Y-136186000D01*
X206003436Y-136145611D01*
X205812167Y-136066385D01*
X205812166Y-136066385D01*
X205812165Y-136066384D01*
X205640027Y-135951365D01*
X205493635Y-135804973D01*
X205378616Y-135632835D01*
X205308449Y-135463436D01*
X205299389Y-135441564D01*
X205259000Y-135238516D01*
X205259000Y-135031484D01*
X205299389Y-134828436D01*
X205378615Y-134637167D01*
X205493635Y-134465027D01*
X205640027Y-134318635D01*
X205812165Y-134203616D01*
X205812167Y-134203615D01*
X206003436Y-134124389D01*
X206206484Y-134084000D01*
X206413516Y-134084000D01*
X206616564Y-134124389D01*
G37*
G36*
X182176564Y-134124389D02*
G01*
X182367833Y-134203615D01*
X182367835Y-134203616D01*
X182539973Y-134318635D01*
X182686365Y-134465027D01*
X182801385Y-134637167D01*
X182880611Y-134828436D01*
X182921000Y-135031484D01*
X182921000Y-135238516D01*
X182880611Y-135441564D01*
X182871551Y-135463436D01*
X182801384Y-135632835D01*
X182686365Y-135804973D01*
X182539973Y-135951365D01*
X182367835Y-136066384D01*
X182367834Y-136066385D01*
X182367833Y-136066385D01*
X182176564Y-136145611D01*
X181973516Y-136186000D01*
X181766484Y-136186000D01*
X181563436Y-136145611D01*
X181372167Y-136066385D01*
X181372166Y-136066385D01*
X181372165Y-136066384D01*
X181200027Y-135951365D01*
X181053635Y-135804973D01*
X180938616Y-135632835D01*
X180868449Y-135463436D01*
X180859389Y-135441564D01*
X180819000Y-135238516D01*
X180819000Y-135031484D01*
X180859389Y-134828436D01*
X180938615Y-134637167D01*
X181053635Y-134465027D01*
X181200027Y-134318635D01*
X181372165Y-134203616D01*
X181372167Y-134203615D01*
X181563436Y-134124389D01*
X181766484Y-134084000D01*
X181973516Y-134084000D01*
X182176564Y-134124389D01*
G37*
G36*
X175676564Y-134124389D02*
G01*
X175867833Y-134203615D01*
X175867835Y-134203616D01*
X176039973Y-134318635D01*
X176186365Y-134465027D01*
X176301385Y-134637167D01*
X176380611Y-134828436D01*
X176421000Y-135031484D01*
X176421000Y-135238516D01*
X176380611Y-135441564D01*
X176371551Y-135463436D01*
X176301384Y-135632835D01*
X176186365Y-135804973D01*
X176039973Y-135951365D01*
X175867835Y-136066384D01*
X175867834Y-136066385D01*
X175867833Y-136066385D01*
X175676564Y-136145611D01*
X175473516Y-136186000D01*
X175266484Y-136186000D01*
X175063436Y-136145611D01*
X174872167Y-136066385D01*
X174872166Y-136066385D01*
X174872165Y-136066384D01*
X174700027Y-135951365D01*
X174553635Y-135804973D01*
X174438616Y-135632835D01*
X174368449Y-135463436D01*
X174359389Y-135441564D01*
X174319000Y-135238516D01*
X174319000Y-135031484D01*
X174359389Y-134828436D01*
X174438615Y-134637167D01*
X174553635Y-134465027D01*
X174700027Y-134318635D01*
X174872165Y-134203616D01*
X174872167Y-134203615D01*
X175063436Y-134124389D01*
X175266484Y-134084000D01*
X175473516Y-134084000D01*
X175676564Y-134124389D01*
G37*
G36*
X161841564Y-134124389D02*
G01*
X162032833Y-134203615D01*
X162032835Y-134203616D01*
X162204973Y-134318635D01*
X162351365Y-134465027D01*
X162466385Y-134637167D01*
X162545611Y-134828436D01*
X162586000Y-135031484D01*
X162586000Y-135238516D01*
X162545611Y-135441564D01*
X162536551Y-135463436D01*
X162466384Y-135632835D01*
X162351365Y-135804973D01*
X162204973Y-135951365D01*
X162032835Y-136066384D01*
X162032834Y-136066385D01*
X162032833Y-136066385D01*
X161841564Y-136145611D01*
X161638516Y-136186000D01*
X161431484Y-136186000D01*
X161228436Y-136145611D01*
X161037167Y-136066385D01*
X161037166Y-136066385D01*
X161037165Y-136066384D01*
X160865027Y-135951365D01*
X160718635Y-135804973D01*
X160603616Y-135632835D01*
X160533449Y-135463436D01*
X160524389Y-135441564D01*
X160484000Y-135238516D01*
X160484000Y-135031484D01*
X160524389Y-134828436D01*
X160603615Y-134637167D01*
X160718635Y-134465027D01*
X160865027Y-134318635D01*
X161037165Y-134203616D01*
X161037167Y-134203615D01*
X161228436Y-134124389D01*
X161431484Y-134084000D01*
X161638516Y-134084000D01*
X161841564Y-134124389D01*
G37*
G36*
X155341564Y-134124389D02*
G01*
X155532833Y-134203615D01*
X155532835Y-134203616D01*
X155704973Y-134318635D01*
X155851365Y-134465027D01*
X155966385Y-134637167D01*
X156045611Y-134828436D01*
X156086000Y-135031484D01*
X156086000Y-135238516D01*
X156045611Y-135441564D01*
X156036551Y-135463436D01*
X155966384Y-135632835D01*
X155851365Y-135804973D01*
X155704973Y-135951365D01*
X155532835Y-136066384D01*
X155532834Y-136066385D01*
X155532833Y-136066385D01*
X155341564Y-136145611D01*
X155138516Y-136186000D01*
X154931484Y-136186000D01*
X154728436Y-136145611D01*
X154537167Y-136066385D01*
X154537166Y-136066385D01*
X154537165Y-136066384D01*
X154365027Y-135951365D01*
X154218635Y-135804973D01*
X154103616Y-135632835D01*
X154033449Y-135463436D01*
X154024389Y-135441564D01*
X153984000Y-135238516D01*
X153984000Y-135031484D01*
X154024389Y-134828436D01*
X154103615Y-134637167D01*
X154218635Y-134465027D01*
X154365027Y-134318635D01*
X154537165Y-134203616D01*
X154537167Y-134203615D01*
X154728436Y-134124389D01*
X154931484Y-134084000D01*
X155138516Y-134084000D01*
X155341564Y-134124389D01*
G37*
G36*
X150411564Y-134124389D02*
G01*
X150602833Y-134203615D01*
X150602835Y-134203616D01*
X150774973Y-134318635D01*
X150921365Y-134465027D01*
X151036385Y-134637167D01*
X151115611Y-134828436D01*
X151156000Y-135031484D01*
X151156000Y-135238516D01*
X151115611Y-135441564D01*
X151106551Y-135463436D01*
X151036384Y-135632835D01*
X150921365Y-135804973D01*
X150774973Y-135951365D01*
X150602835Y-136066384D01*
X150602834Y-136066385D01*
X150602833Y-136066385D01*
X150411564Y-136145611D01*
X150208516Y-136186000D01*
X150001484Y-136186000D01*
X149798436Y-136145611D01*
X149607167Y-136066385D01*
X149607166Y-136066385D01*
X149607165Y-136066384D01*
X149435027Y-135951365D01*
X149288635Y-135804973D01*
X149173616Y-135632835D01*
X149103449Y-135463436D01*
X149094389Y-135441564D01*
X149054000Y-135238516D01*
X149054000Y-135031484D01*
X149094389Y-134828436D01*
X149173615Y-134637167D01*
X149288635Y-134465027D01*
X149435027Y-134318635D01*
X149607165Y-134203616D01*
X149607167Y-134203615D01*
X149798436Y-134124389D01*
X150001484Y-134084000D01*
X150208516Y-134084000D01*
X150411564Y-134124389D01*
G37*
G36*
X99906564Y-130259389D02*
G01*
X100097833Y-130338615D01*
X100097835Y-130338616D01*
X100269973Y-130453635D01*
X100416365Y-130600027D01*
X100531385Y-130772167D01*
X100610611Y-130963436D01*
X100651000Y-131166484D01*
X100651000Y-131373516D01*
X100610611Y-131576564D01*
X100565281Y-131686000D01*
X100531384Y-131767835D01*
X100416365Y-131939973D01*
X100269973Y-132086365D01*
X100097835Y-132201384D01*
X100097834Y-132201385D01*
X100097833Y-132201385D01*
X99906564Y-132280611D01*
X99703516Y-132321000D01*
X99496484Y-132321000D01*
X99293436Y-132280611D01*
X99102167Y-132201385D01*
X99102166Y-132201385D01*
X99102165Y-132201384D01*
X98930027Y-132086365D01*
X98783635Y-131939973D01*
X98668616Y-131767835D01*
X98634719Y-131686000D01*
X98589389Y-131576564D01*
X98549000Y-131373516D01*
X98549000Y-131166484D01*
X98589389Y-130963436D01*
X98668615Y-130772167D01*
X98783635Y-130600027D01*
X98930027Y-130453635D01*
X99102165Y-130338616D01*
X99102167Y-130338615D01*
X99293436Y-130259389D01*
X99496484Y-130219000D01*
X99703516Y-130219000D01*
X99906564Y-130259389D01*
G37*
G36*
X106406564Y-130259389D02*
G01*
X106597833Y-130338615D01*
X106597835Y-130338616D01*
X106769973Y-130453635D01*
X106916365Y-130600027D01*
X107031385Y-130772167D01*
X107110611Y-130963436D01*
X107151000Y-131166484D01*
X107151000Y-131373516D01*
X107110611Y-131576564D01*
X107065281Y-131686000D01*
X107031384Y-131767835D01*
X106916365Y-131939973D01*
X106769973Y-132086365D01*
X106597835Y-132201384D01*
X106597834Y-132201385D01*
X106597833Y-132201385D01*
X106406564Y-132280611D01*
X106203516Y-132321000D01*
X105996484Y-132321000D01*
X105793436Y-132280611D01*
X105602167Y-132201385D01*
X105602166Y-132201385D01*
X105602165Y-132201384D01*
X105430027Y-132086365D01*
X105283635Y-131939973D01*
X105168616Y-131767835D01*
X105134719Y-131686000D01*
X105089389Y-131576564D01*
X105049000Y-131373516D01*
X105049000Y-131166484D01*
X105089389Y-130963436D01*
X105168615Y-130772167D01*
X105283635Y-130600027D01*
X105430027Y-130453635D01*
X105602165Y-130338616D01*
X105602167Y-130338615D01*
X105793436Y-130259389D01*
X105996484Y-130219000D01*
X106203516Y-130219000D01*
X106406564Y-130259389D01*
G37*
G36*
X175676564Y-129624389D02*
G01*
X175867833Y-129703615D01*
X175867835Y-129703616D01*
X176039973Y-129818635D01*
X176186365Y-129965027D01*
X176301385Y-130137167D01*
X176380611Y-130328436D01*
X176421000Y-130531484D01*
X176421000Y-130738516D01*
X176380611Y-130941564D01*
X176371551Y-130963436D01*
X176301384Y-131132835D01*
X176186365Y-131304973D01*
X176039973Y-131451365D01*
X175867835Y-131566384D01*
X175867834Y-131566385D01*
X175867833Y-131566385D01*
X175676564Y-131645611D01*
X175473516Y-131686000D01*
X175266484Y-131686000D01*
X175063436Y-131645611D01*
X174872167Y-131566385D01*
X174872166Y-131566385D01*
X174872165Y-131566384D01*
X174700027Y-131451365D01*
X174553635Y-131304973D01*
X174438616Y-131132835D01*
X174368449Y-130963436D01*
X174359389Y-130941564D01*
X174319000Y-130738516D01*
X174319000Y-130531484D01*
X174359389Y-130328436D01*
X174438615Y-130137167D01*
X174553635Y-129965027D01*
X174700027Y-129818635D01*
X174872165Y-129703616D01*
X174872167Y-129703615D01*
X175063436Y-129624389D01*
X175266484Y-129584000D01*
X175473516Y-129584000D01*
X175676564Y-129624389D01*
G37*
G36*
X150411564Y-129624389D02*
G01*
X150602833Y-129703615D01*
X150602835Y-129703616D01*
X150774973Y-129818635D01*
X150921365Y-129965027D01*
X151036385Y-130137167D01*
X151115611Y-130328436D01*
X151156000Y-130531484D01*
X151156000Y-130738516D01*
X151115611Y-130941564D01*
X151106551Y-130963436D01*
X151036384Y-131132835D01*
X150921365Y-131304973D01*
X150774973Y-131451365D01*
X150602835Y-131566384D01*
X150602834Y-131566385D01*
X150602833Y-131566385D01*
X150411564Y-131645611D01*
X150208516Y-131686000D01*
X150001484Y-131686000D01*
X149798436Y-131645611D01*
X149607167Y-131566385D01*
X149607166Y-131566385D01*
X149607165Y-131566384D01*
X149435027Y-131451365D01*
X149288635Y-131304973D01*
X149173616Y-131132835D01*
X149103449Y-130963436D01*
X149094389Y-130941564D01*
X149054000Y-130738516D01*
X149054000Y-130531484D01*
X149094389Y-130328436D01*
X149173615Y-130137167D01*
X149288635Y-129965027D01*
X149435027Y-129818635D01*
X149607165Y-129703616D01*
X149607167Y-129703615D01*
X149798436Y-129624389D01*
X150001484Y-129584000D01*
X150208516Y-129584000D01*
X150411564Y-129624389D01*
G37*
G36*
X155341564Y-129624389D02*
G01*
X155532833Y-129703615D01*
X155532835Y-129703616D01*
X155704973Y-129818635D01*
X155851365Y-129965027D01*
X155966385Y-130137167D01*
X156045611Y-130328436D01*
X156086000Y-130531484D01*
X156086000Y-130738516D01*
X156045611Y-130941564D01*
X156036551Y-130963436D01*
X155966384Y-131132835D01*
X155851365Y-131304973D01*
X155704973Y-131451365D01*
X155532835Y-131566384D01*
X155532834Y-131566385D01*
X155532833Y-131566385D01*
X155341564Y-131645611D01*
X155138516Y-131686000D01*
X154931484Y-131686000D01*
X154728436Y-131645611D01*
X154537167Y-131566385D01*
X154537166Y-131566385D01*
X154537165Y-131566384D01*
X154365027Y-131451365D01*
X154218635Y-131304973D01*
X154103616Y-131132835D01*
X154033449Y-130963436D01*
X154024389Y-130941564D01*
X153984000Y-130738516D01*
X153984000Y-130531484D01*
X154024389Y-130328436D01*
X154103615Y-130137167D01*
X154218635Y-129965027D01*
X154365027Y-129818635D01*
X154537165Y-129703616D01*
X154537167Y-129703615D01*
X154728436Y-129624389D01*
X154931484Y-129584000D01*
X155138516Y-129584000D01*
X155341564Y-129624389D01*
G37*
G36*
X161841564Y-129624389D02*
G01*
X162032833Y-129703615D01*
X162032835Y-129703616D01*
X162204973Y-129818635D01*
X162351365Y-129965027D01*
X162466385Y-130137167D01*
X162545611Y-130328436D01*
X162586000Y-130531484D01*
X162586000Y-130738516D01*
X162545611Y-130941564D01*
X162536551Y-130963436D01*
X162466384Y-131132835D01*
X162351365Y-131304973D01*
X162204973Y-131451365D01*
X162032835Y-131566384D01*
X162032834Y-131566385D01*
X162032833Y-131566385D01*
X161841564Y-131645611D01*
X161638516Y-131686000D01*
X161431484Y-131686000D01*
X161228436Y-131645611D01*
X161037167Y-131566385D01*
X161037166Y-131566385D01*
X161037165Y-131566384D01*
X160865027Y-131451365D01*
X160718635Y-131304973D01*
X160603616Y-131132835D01*
X160533449Y-130963436D01*
X160524389Y-130941564D01*
X160484000Y-130738516D01*
X160484000Y-130531484D01*
X160524389Y-130328436D01*
X160603615Y-130137167D01*
X160718635Y-129965027D01*
X160865027Y-129818635D01*
X161037165Y-129703616D01*
X161037167Y-129703615D01*
X161228436Y-129624389D01*
X161431484Y-129584000D01*
X161638516Y-129584000D01*
X161841564Y-129624389D01*
G37*
G36*
X182176564Y-129624389D02*
G01*
X182367833Y-129703615D01*
X182367835Y-129703616D01*
X182539973Y-129818635D01*
X182686365Y-129965027D01*
X182801385Y-130137167D01*
X182880611Y-130328436D01*
X182921000Y-130531484D01*
X182921000Y-130738516D01*
X182880611Y-130941564D01*
X182871551Y-130963436D01*
X182801384Y-131132835D01*
X182686365Y-131304973D01*
X182539973Y-131451365D01*
X182367835Y-131566384D01*
X182367834Y-131566385D01*
X182367833Y-131566385D01*
X182176564Y-131645611D01*
X181973516Y-131686000D01*
X181766484Y-131686000D01*
X181563436Y-131645611D01*
X181372167Y-131566385D01*
X181372166Y-131566385D01*
X181372165Y-131566384D01*
X181200027Y-131451365D01*
X181053635Y-131304973D01*
X180938616Y-131132835D01*
X180868449Y-130963436D01*
X180859389Y-130941564D01*
X180819000Y-130738516D01*
X180819000Y-130531484D01*
X180859389Y-130328436D01*
X180938615Y-130137167D01*
X181053635Y-129965027D01*
X181200027Y-129818635D01*
X181372165Y-129703616D01*
X181372167Y-129703615D01*
X181563436Y-129624389D01*
X181766484Y-129584000D01*
X181973516Y-129584000D01*
X182176564Y-129624389D01*
G37*
G36*
X213116564Y-129624389D02*
G01*
X213307833Y-129703615D01*
X213307835Y-129703616D01*
X213479973Y-129818635D01*
X213626365Y-129965027D01*
X213741385Y-130137167D01*
X213820611Y-130328436D01*
X213861000Y-130531484D01*
X213861000Y-130738516D01*
X213820611Y-130941564D01*
X213811551Y-130963436D01*
X213741384Y-131132835D01*
X213626365Y-131304973D01*
X213479973Y-131451365D01*
X213307835Y-131566384D01*
X213307834Y-131566385D01*
X213307833Y-131566385D01*
X213116564Y-131645611D01*
X212913516Y-131686000D01*
X212706484Y-131686000D01*
X212503436Y-131645611D01*
X212312167Y-131566385D01*
X212312166Y-131566385D01*
X212312165Y-131566384D01*
X212140027Y-131451365D01*
X211993635Y-131304973D01*
X211878616Y-131132835D01*
X211808449Y-130963436D01*
X211799389Y-130941564D01*
X211759000Y-130738516D01*
X211759000Y-130531484D01*
X211799389Y-130328436D01*
X211878615Y-130137167D01*
X211993635Y-129965027D01*
X212140027Y-129818635D01*
X212312165Y-129703616D01*
X212312167Y-129703615D01*
X212503436Y-129624389D01*
X212706484Y-129584000D01*
X212913516Y-129584000D01*
X213116564Y-129624389D01*
G37*
G36*
X138981564Y-129624389D02*
G01*
X139172833Y-129703615D01*
X139172835Y-129703616D01*
X139344973Y-129818635D01*
X139491365Y-129965027D01*
X139606385Y-130137167D01*
X139685611Y-130328436D01*
X139726000Y-130531484D01*
X139726000Y-130738516D01*
X139685611Y-130941564D01*
X139676551Y-130963436D01*
X139606384Y-131132835D01*
X139491365Y-131304973D01*
X139344973Y-131451365D01*
X139172835Y-131566384D01*
X139172834Y-131566385D01*
X139172833Y-131566385D01*
X138981564Y-131645611D01*
X138778516Y-131686000D01*
X138571484Y-131686000D01*
X138368436Y-131645611D01*
X138177167Y-131566385D01*
X138177166Y-131566385D01*
X138177165Y-131566384D01*
X138005027Y-131451365D01*
X137858635Y-131304973D01*
X137743616Y-131132835D01*
X137673449Y-130963436D01*
X137664389Y-130941564D01*
X137624000Y-130738516D01*
X137624000Y-130531484D01*
X137664389Y-130328436D01*
X137743615Y-130137167D01*
X137858635Y-129965027D01*
X138005027Y-129818635D01*
X138177165Y-129703616D01*
X138177167Y-129703615D01*
X138368436Y-129624389D01*
X138571484Y-129584000D01*
X138778516Y-129584000D01*
X138981564Y-129624389D01*
G37*
G36*
X121051564Y-129624389D02*
G01*
X121242833Y-129703615D01*
X121242835Y-129703616D01*
X121414973Y-129818635D01*
X121561365Y-129965027D01*
X121676385Y-130137167D01*
X121755611Y-130328436D01*
X121796000Y-130531484D01*
X121796000Y-130738516D01*
X121755611Y-130941564D01*
X121746551Y-130963436D01*
X121676384Y-131132835D01*
X121561365Y-131304973D01*
X121414973Y-131451365D01*
X121242835Y-131566384D01*
X121242834Y-131566385D01*
X121242833Y-131566385D01*
X121051564Y-131645611D01*
X120848516Y-131686000D01*
X120641484Y-131686000D01*
X120438436Y-131645611D01*
X120247167Y-131566385D01*
X120247166Y-131566385D01*
X120247165Y-131566384D01*
X120075027Y-131451365D01*
X119928635Y-131304973D01*
X119813616Y-131132835D01*
X119743449Y-130963436D01*
X119734389Y-130941564D01*
X119694000Y-130738516D01*
X119694000Y-130531484D01*
X119734389Y-130328436D01*
X119813615Y-130137167D01*
X119928635Y-129965027D01*
X120075027Y-129818635D01*
X120247165Y-129703616D01*
X120247167Y-129703615D01*
X120438436Y-129624389D01*
X120641484Y-129584000D01*
X120848516Y-129584000D01*
X121051564Y-129624389D01*
G37*
G36*
X132481564Y-129624389D02*
G01*
X132672833Y-129703615D01*
X132672835Y-129703616D01*
X132844973Y-129818635D01*
X132991365Y-129965027D01*
X133106385Y-130137167D01*
X133185611Y-130328436D01*
X133226000Y-130531484D01*
X133226000Y-130738516D01*
X133185611Y-130941564D01*
X133176551Y-130963436D01*
X133106384Y-131132835D01*
X132991365Y-131304973D01*
X132844973Y-131451365D01*
X132672835Y-131566384D01*
X132672834Y-131566385D01*
X132672833Y-131566385D01*
X132481564Y-131645611D01*
X132278516Y-131686000D01*
X132071484Y-131686000D01*
X131868436Y-131645611D01*
X131677167Y-131566385D01*
X131677166Y-131566385D01*
X131677165Y-131566384D01*
X131505027Y-131451365D01*
X131358635Y-131304973D01*
X131243616Y-131132835D01*
X131173449Y-130963436D01*
X131164389Y-130941564D01*
X131124000Y-130738516D01*
X131124000Y-130531484D01*
X131164389Y-130328436D01*
X131243615Y-130137167D01*
X131358635Y-129965027D01*
X131505027Y-129818635D01*
X131677165Y-129703616D01*
X131677167Y-129703615D01*
X131868436Y-129624389D01*
X132071484Y-129584000D01*
X132278516Y-129584000D01*
X132481564Y-129624389D01*
G37*
G36*
X143911564Y-129624389D02*
G01*
X144102833Y-129703615D01*
X144102835Y-129703616D01*
X144274973Y-129818635D01*
X144421365Y-129965027D01*
X144536385Y-130137167D01*
X144615611Y-130328436D01*
X144656000Y-130531484D01*
X144656000Y-130738516D01*
X144615611Y-130941564D01*
X144606551Y-130963436D01*
X144536384Y-131132835D01*
X144421365Y-131304973D01*
X144274973Y-131451365D01*
X144102835Y-131566384D01*
X144102834Y-131566385D01*
X144102833Y-131566385D01*
X143911564Y-131645611D01*
X143708516Y-131686000D01*
X143501484Y-131686000D01*
X143298436Y-131645611D01*
X143107167Y-131566385D01*
X143107166Y-131566385D01*
X143107165Y-131566384D01*
X142935027Y-131451365D01*
X142788635Y-131304973D01*
X142673616Y-131132835D01*
X142603449Y-130963436D01*
X142594389Y-130941564D01*
X142554000Y-130738516D01*
X142554000Y-130531484D01*
X142594389Y-130328436D01*
X142673615Y-130137167D01*
X142788635Y-129965027D01*
X142935027Y-129818635D01*
X143107165Y-129703616D01*
X143107167Y-129703615D01*
X143298436Y-129624389D01*
X143501484Y-129584000D01*
X143708516Y-129584000D01*
X143911564Y-129624389D01*
G37*
G36*
X127551564Y-129624389D02*
G01*
X127742833Y-129703615D01*
X127742835Y-129703616D01*
X127914973Y-129818635D01*
X128061365Y-129965027D01*
X128176385Y-130137167D01*
X128255611Y-130328436D01*
X128296000Y-130531484D01*
X128296000Y-130738516D01*
X128255611Y-130941564D01*
X128246551Y-130963436D01*
X128176384Y-131132835D01*
X128061365Y-131304973D01*
X127914973Y-131451365D01*
X127742835Y-131566384D01*
X127742834Y-131566385D01*
X127742833Y-131566385D01*
X127551564Y-131645611D01*
X127348516Y-131686000D01*
X127141484Y-131686000D01*
X126938436Y-131645611D01*
X126747167Y-131566385D01*
X126747166Y-131566385D01*
X126747165Y-131566384D01*
X126575027Y-131451365D01*
X126428635Y-131304973D01*
X126313616Y-131132835D01*
X126243449Y-130963436D01*
X126234389Y-130941564D01*
X126194000Y-130738516D01*
X126194000Y-130531484D01*
X126234389Y-130328436D01*
X126313615Y-130137167D01*
X126428635Y-129965027D01*
X126575027Y-129818635D01*
X126747165Y-129703616D01*
X126747167Y-129703615D01*
X126938436Y-129624389D01*
X127141484Y-129584000D01*
X127348516Y-129584000D01*
X127551564Y-129624389D01*
G37*
G36*
X206616564Y-129624389D02*
G01*
X206807833Y-129703615D01*
X206807835Y-129703616D01*
X206979973Y-129818635D01*
X207126365Y-129965027D01*
X207241385Y-130137167D01*
X207320611Y-130328436D01*
X207361000Y-130531484D01*
X207361000Y-130738516D01*
X207320611Y-130941564D01*
X207311551Y-130963436D01*
X207241384Y-131132835D01*
X207126365Y-131304973D01*
X206979973Y-131451365D01*
X206807835Y-131566384D01*
X206807834Y-131566385D01*
X206807833Y-131566385D01*
X206616564Y-131645611D01*
X206413516Y-131686000D01*
X206206484Y-131686000D01*
X206003436Y-131645611D01*
X205812167Y-131566385D01*
X205812166Y-131566385D01*
X205812165Y-131566384D01*
X205640027Y-131451365D01*
X205493635Y-131304973D01*
X205378616Y-131132835D01*
X205308449Y-130963436D01*
X205299389Y-130941564D01*
X205259000Y-130738516D01*
X205259000Y-130531484D01*
X205299389Y-130328436D01*
X205378615Y-130137167D01*
X205493635Y-129965027D01*
X205640027Y-129818635D01*
X205812165Y-129703616D01*
X205812167Y-129703615D01*
X206003436Y-129624389D01*
X206206484Y-129584000D01*
X206413516Y-129584000D01*
X206616564Y-129624389D01*
G37*
G36*
X187891564Y-124599389D02*
G01*
X188082833Y-124678615D01*
X188082835Y-124678616D01*
X188254973Y-124793635D01*
X188401365Y-124940027D01*
X188516385Y-125112167D01*
X188595611Y-125303436D01*
X188636000Y-125506484D01*
X188636000Y-125713516D01*
X188595611Y-125916564D01*
X188516385Y-126107833D01*
X188516384Y-126107835D01*
X188401365Y-126279973D01*
X188254973Y-126426365D01*
X188082835Y-126541384D01*
X188082834Y-126541385D01*
X188082833Y-126541385D01*
X187891564Y-126620611D01*
X187688516Y-126661000D01*
X187481484Y-126661000D01*
X187278436Y-126620611D01*
X187087167Y-126541385D01*
X187087166Y-126541385D01*
X187087165Y-126541384D01*
X186915027Y-126426365D01*
X186768635Y-126279973D01*
X186653616Y-126107835D01*
X186653615Y-126107833D01*
X186574389Y-125916564D01*
X186534000Y-125713516D01*
X186534000Y-125506484D01*
X186574389Y-125303436D01*
X186653615Y-125112167D01*
X186768635Y-124940027D01*
X186915027Y-124793635D01*
X187087165Y-124678616D01*
X187087167Y-124678615D01*
X187278436Y-124599389D01*
X187481484Y-124559000D01*
X187688516Y-124559000D01*
X187891564Y-124599389D01*
G37*
G36*
X104986564Y-124599389D02*
G01*
X105177833Y-124678615D01*
X105177835Y-124678616D01*
X105349973Y-124793635D01*
X105496365Y-124940027D01*
X105611385Y-125112167D01*
X105690611Y-125303436D01*
X105731000Y-125506484D01*
X105731000Y-125713516D01*
X105690611Y-125916564D01*
X105611385Y-126107833D01*
X105611384Y-126107835D01*
X105496365Y-126279973D01*
X105349973Y-126426365D01*
X105177835Y-126541384D01*
X105177834Y-126541385D01*
X105177833Y-126541385D01*
X104986564Y-126620611D01*
X104783516Y-126661000D01*
X104576484Y-126661000D01*
X104373436Y-126620611D01*
X104182167Y-126541385D01*
X104182166Y-126541385D01*
X104182165Y-126541384D01*
X104010027Y-126426365D01*
X103863635Y-126279973D01*
X103748616Y-126107835D01*
X103748615Y-126107833D01*
X103669389Y-125916564D01*
X103629000Y-125713516D01*
X103629000Y-125506484D01*
X103669389Y-125303436D01*
X103748615Y-125112167D01*
X103863635Y-124940027D01*
X104010027Y-124793635D01*
X104182165Y-124678616D01*
X104182167Y-124678615D01*
X104373436Y-124599389D01*
X104576484Y-124559000D01*
X104783516Y-124559000D01*
X104986564Y-124599389D01*
G37*
G36*
X111486564Y-124599389D02*
G01*
X111677833Y-124678615D01*
X111677835Y-124678616D01*
X111849973Y-124793635D01*
X111996365Y-124940027D01*
X112111385Y-125112167D01*
X112190611Y-125303436D01*
X112231000Y-125506484D01*
X112231000Y-125713516D01*
X112190611Y-125916564D01*
X112111385Y-126107833D01*
X112111384Y-126107835D01*
X111996365Y-126279973D01*
X111849973Y-126426365D01*
X111677835Y-126541384D01*
X111677834Y-126541385D01*
X111677833Y-126541385D01*
X111486564Y-126620611D01*
X111283516Y-126661000D01*
X111076484Y-126661000D01*
X110873436Y-126620611D01*
X110682167Y-126541385D01*
X110682166Y-126541385D01*
X110682165Y-126541384D01*
X110510027Y-126426365D01*
X110363635Y-126279973D01*
X110248616Y-126107835D01*
X110248615Y-126107833D01*
X110169389Y-125916564D01*
X110129000Y-125713516D01*
X110129000Y-125506484D01*
X110169389Y-125303436D01*
X110248615Y-125112167D01*
X110363635Y-124940027D01*
X110510027Y-124793635D01*
X110682165Y-124678616D01*
X110682167Y-124678615D01*
X110873436Y-124599389D01*
X111076484Y-124559000D01*
X111283516Y-124559000D01*
X111486564Y-124599389D01*
G37*
G36*
X93556564Y-124599389D02*
G01*
X93747833Y-124678615D01*
X93747835Y-124678616D01*
X93919973Y-124793635D01*
X94066365Y-124940027D01*
X94181385Y-125112167D01*
X94260611Y-125303436D01*
X94301000Y-125506484D01*
X94301000Y-125713516D01*
X94260611Y-125916564D01*
X94181385Y-126107833D01*
X94181384Y-126107835D01*
X94066365Y-126279973D01*
X93919973Y-126426365D01*
X93747835Y-126541384D01*
X93747834Y-126541385D01*
X93747833Y-126541385D01*
X93556564Y-126620611D01*
X93353516Y-126661000D01*
X93146484Y-126661000D01*
X92943436Y-126620611D01*
X92752167Y-126541385D01*
X92752166Y-126541385D01*
X92752165Y-126541384D01*
X92580027Y-126426365D01*
X92433635Y-126279973D01*
X92318616Y-126107835D01*
X92318615Y-126107833D01*
X92239389Y-125916564D01*
X92199000Y-125713516D01*
X92199000Y-125506484D01*
X92239389Y-125303436D01*
X92318615Y-125112167D01*
X92433635Y-124940027D01*
X92580027Y-124793635D01*
X92752165Y-124678616D01*
X92752167Y-124678615D01*
X92943436Y-124599389D01*
X93146484Y-124559000D01*
X93353516Y-124559000D01*
X93556564Y-124599389D01*
G37*
G36*
X100056564Y-124599389D02*
G01*
X100247833Y-124678615D01*
X100247835Y-124678616D01*
X100419973Y-124793635D01*
X100566365Y-124940027D01*
X100681385Y-125112167D01*
X100760611Y-125303436D01*
X100801000Y-125506484D01*
X100801000Y-125713516D01*
X100760611Y-125916564D01*
X100681385Y-126107833D01*
X100681384Y-126107835D01*
X100566365Y-126279973D01*
X100419973Y-126426365D01*
X100247835Y-126541384D01*
X100247834Y-126541385D01*
X100247833Y-126541385D01*
X100056564Y-126620611D01*
X99853516Y-126661000D01*
X99646484Y-126661000D01*
X99443436Y-126620611D01*
X99252167Y-126541385D01*
X99252166Y-126541385D01*
X99252165Y-126541384D01*
X99080027Y-126426365D01*
X98933635Y-126279973D01*
X98818616Y-126107835D01*
X98818615Y-126107833D01*
X98739389Y-125916564D01*
X98699000Y-125713516D01*
X98699000Y-125506484D01*
X98739389Y-125303436D01*
X98818615Y-125112167D01*
X98933635Y-124940027D01*
X99080027Y-124793635D01*
X99252165Y-124678616D01*
X99252167Y-124678615D01*
X99443436Y-124599389D01*
X99646484Y-124559000D01*
X99853516Y-124559000D01*
X100056564Y-124599389D01*
G37*
G36*
X208036564Y-124599389D02*
G01*
X208227833Y-124678615D01*
X208227835Y-124678616D01*
X208399973Y-124793635D01*
X208546365Y-124940027D01*
X208661385Y-125112167D01*
X208740611Y-125303436D01*
X208781000Y-125506484D01*
X208781000Y-125713516D01*
X208740611Y-125916564D01*
X208661385Y-126107833D01*
X208661384Y-126107835D01*
X208546365Y-126279973D01*
X208399973Y-126426365D01*
X208227835Y-126541384D01*
X208227834Y-126541385D01*
X208227833Y-126541385D01*
X208036564Y-126620611D01*
X207833516Y-126661000D01*
X207626484Y-126661000D01*
X207423436Y-126620611D01*
X207232167Y-126541385D01*
X207232166Y-126541385D01*
X207232165Y-126541384D01*
X207060027Y-126426365D01*
X206913635Y-126279973D01*
X206798616Y-126107835D01*
X206798615Y-126107833D01*
X206719389Y-125916564D01*
X206679000Y-125713516D01*
X206679000Y-125506484D01*
X206719389Y-125303436D01*
X206798615Y-125112167D01*
X206913635Y-124940027D01*
X207060027Y-124793635D01*
X207232165Y-124678616D01*
X207232167Y-124678615D01*
X207423436Y-124599389D01*
X207626484Y-124559000D01*
X207833516Y-124559000D01*
X208036564Y-124599389D01*
G37*
G36*
X201536564Y-124599389D02*
G01*
X201727833Y-124678615D01*
X201727835Y-124678616D01*
X201899973Y-124793635D01*
X202046365Y-124940027D01*
X202161385Y-125112167D01*
X202240611Y-125303436D01*
X202281000Y-125506484D01*
X202281000Y-125713516D01*
X202240611Y-125916564D01*
X202161385Y-126107833D01*
X202161384Y-126107835D01*
X202046365Y-126279973D01*
X201899973Y-126426365D01*
X201727835Y-126541384D01*
X201727834Y-126541385D01*
X201727833Y-126541385D01*
X201536564Y-126620611D01*
X201333516Y-126661000D01*
X201126484Y-126661000D01*
X200923436Y-126620611D01*
X200732167Y-126541385D01*
X200732166Y-126541385D01*
X200732165Y-126541384D01*
X200560027Y-126426365D01*
X200413635Y-126279973D01*
X200298616Y-126107835D01*
X200298615Y-126107833D01*
X200219389Y-125916564D01*
X200179000Y-125713516D01*
X200179000Y-125506484D01*
X200219389Y-125303436D01*
X200298615Y-125112167D01*
X200413635Y-124940027D01*
X200560027Y-124793635D01*
X200732165Y-124678616D01*
X200732167Y-124678615D01*
X200923436Y-124599389D01*
X201126484Y-124559000D01*
X201333516Y-124559000D01*
X201536564Y-124599389D01*
G37*
G36*
X181391564Y-124599389D02*
G01*
X181582833Y-124678615D01*
X181582835Y-124678616D01*
X181754973Y-124793635D01*
X181901365Y-124940027D01*
X182016385Y-125112167D01*
X182095611Y-125303436D01*
X182136000Y-125506484D01*
X182136000Y-125713516D01*
X182095611Y-125916564D01*
X182016385Y-126107833D01*
X182016384Y-126107835D01*
X181901365Y-126279973D01*
X181754973Y-126426365D01*
X181582835Y-126541384D01*
X181582834Y-126541385D01*
X181582833Y-126541385D01*
X181391564Y-126620611D01*
X181188516Y-126661000D01*
X180981484Y-126661000D01*
X180778436Y-126620611D01*
X180587167Y-126541385D01*
X180587166Y-126541385D01*
X180587165Y-126541384D01*
X180415027Y-126426365D01*
X180268635Y-126279973D01*
X180153616Y-126107835D01*
X180153615Y-126107833D01*
X180074389Y-125916564D01*
X180034000Y-125713516D01*
X180034000Y-125506484D01*
X180074389Y-125303436D01*
X180153615Y-125112167D01*
X180268635Y-124940027D01*
X180415027Y-124793635D01*
X180587165Y-124678616D01*
X180587167Y-124678615D01*
X180778436Y-124599389D01*
X180981484Y-124559000D01*
X181188516Y-124559000D01*
X181391564Y-124599389D01*
G37*
G36*
X156126564Y-124599389D02*
G01*
X156317833Y-124678615D01*
X156317835Y-124678616D01*
X156489973Y-124793635D01*
X156636365Y-124940027D01*
X156751385Y-125112167D01*
X156830611Y-125303436D01*
X156871000Y-125506484D01*
X156871000Y-125713516D01*
X156830611Y-125916564D01*
X156751385Y-126107833D01*
X156751384Y-126107835D01*
X156636365Y-126279973D01*
X156489973Y-126426365D01*
X156317835Y-126541384D01*
X156317834Y-126541385D01*
X156317833Y-126541385D01*
X156126564Y-126620611D01*
X155923516Y-126661000D01*
X155716484Y-126661000D01*
X155513436Y-126620611D01*
X155322167Y-126541385D01*
X155322166Y-126541385D01*
X155322165Y-126541384D01*
X155150027Y-126426365D01*
X155003635Y-126279973D01*
X154888616Y-126107835D01*
X154888615Y-126107833D01*
X154809389Y-125916564D01*
X154769000Y-125713516D01*
X154769000Y-125506484D01*
X154809389Y-125303436D01*
X154888615Y-125112167D01*
X155003635Y-124940027D01*
X155150027Y-124793635D01*
X155322165Y-124678616D01*
X155322167Y-124678615D01*
X155513436Y-124599389D01*
X155716484Y-124559000D01*
X155923516Y-124559000D01*
X156126564Y-124599389D01*
G37*
G36*
X149626564Y-124599389D02*
G01*
X149817833Y-124678615D01*
X149817835Y-124678616D01*
X149989973Y-124793635D01*
X150136365Y-124940027D01*
X150251385Y-125112167D01*
X150330611Y-125303436D01*
X150371000Y-125506484D01*
X150371000Y-125713516D01*
X150330611Y-125916564D01*
X150251385Y-126107833D01*
X150251384Y-126107835D01*
X150136365Y-126279973D01*
X149989973Y-126426365D01*
X149817835Y-126541384D01*
X149817834Y-126541385D01*
X149817833Y-126541385D01*
X149626564Y-126620611D01*
X149423516Y-126661000D01*
X149216484Y-126661000D01*
X149013436Y-126620611D01*
X148822167Y-126541385D01*
X148822166Y-126541385D01*
X148822165Y-126541384D01*
X148650027Y-126426365D01*
X148503635Y-126279973D01*
X148388616Y-126107835D01*
X148388615Y-126107833D01*
X148309389Y-125916564D01*
X148269000Y-125713516D01*
X148269000Y-125506484D01*
X148309389Y-125303436D01*
X148388615Y-125112167D01*
X148503635Y-124940027D01*
X148650027Y-124793635D01*
X148822165Y-124678616D01*
X148822167Y-124678615D01*
X149013436Y-124599389D01*
X149216484Y-124559000D01*
X149423516Y-124559000D01*
X149626564Y-124599389D01*
G37*
G36*
X144696564Y-124599389D02*
G01*
X144887833Y-124678615D01*
X144887835Y-124678616D01*
X145059973Y-124793635D01*
X145206365Y-124940027D01*
X145321385Y-125112167D01*
X145400611Y-125303436D01*
X145441000Y-125506484D01*
X145441000Y-125713516D01*
X145400611Y-125916564D01*
X145321385Y-126107833D01*
X145321384Y-126107835D01*
X145206365Y-126279973D01*
X145059973Y-126426365D01*
X144887835Y-126541384D01*
X144887834Y-126541385D01*
X144887833Y-126541385D01*
X144696564Y-126620611D01*
X144493516Y-126661000D01*
X144286484Y-126661000D01*
X144083436Y-126620611D01*
X143892167Y-126541385D01*
X143892166Y-126541385D01*
X143892165Y-126541384D01*
X143720027Y-126426365D01*
X143573635Y-126279973D01*
X143458616Y-126107835D01*
X143458615Y-126107833D01*
X143379389Y-125916564D01*
X143339000Y-125713516D01*
X143339000Y-125506484D01*
X143379389Y-125303436D01*
X143458615Y-125112167D01*
X143573635Y-124940027D01*
X143720027Y-124793635D01*
X143892165Y-124678616D01*
X143892167Y-124678615D01*
X144083436Y-124599389D01*
X144286484Y-124559000D01*
X144493516Y-124559000D01*
X144696564Y-124599389D01*
G37*
G36*
X138196564Y-124599389D02*
G01*
X138387833Y-124678615D01*
X138387835Y-124678616D01*
X138559973Y-124793635D01*
X138706365Y-124940027D01*
X138821385Y-125112167D01*
X138900611Y-125303436D01*
X138941000Y-125506484D01*
X138941000Y-125713516D01*
X138900611Y-125916564D01*
X138821385Y-126107833D01*
X138821384Y-126107835D01*
X138706365Y-126279973D01*
X138559973Y-126426365D01*
X138387835Y-126541384D01*
X138387834Y-126541385D01*
X138387833Y-126541385D01*
X138196564Y-126620611D01*
X137993516Y-126661000D01*
X137786484Y-126661000D01*
X137583436Y-126620611D01*
X137392167Y-126541385D01*
X137392166Y-126541385D01*
X137392165Y-126541384D01*
X137220027Y-126426365D01*
X137073635Y-126279973D01*
X136958616Y-126107835D01*
X136958615Y-126107833D01*
X136879389Y-125916564D01*
X136839000Y-125713516D01*
X136839000Y-125506484D01*
X136879389Y-125303436D01*
X136958615Y-125112167D01*
X137073635Y-124940027D01*
X137220027Y-124793635D01*
X137392165Y-124678616D01*
X137392167Y-124678615D01*
X137583436Y-124599389D01*
X137786484Y-124559000D01*
X137993516Y-124559000D01*
X138196564Y-124599389D01*
G37*
G36*
X133266564Y-124599389D02*
G01*
X133457833Y-124678615D01*
X133457835Y-124678616D01*
X133629973Y-124793635D01*
X133776365Y-124940027D01*
X133891385Y-125112167D01*
X133970611Y-125303436D01*
X134011000Y-125506484D01*
X134011000Y-125713516D01*
X133970611Y-125916564D01*
X133891385Y-126107833D01*
X133891384Y-126107835D01*
X133776365Y-126279973D01*
X133629973Y-126426365D01*
X133457835Y-126541384D01*
X133457834Y-126541385D01*
X133457833Y-126541385D01*
X133266564Y-126620611D01*
X133063516Y-126661000D01*
X132856484Y-126661000D01*
X132653436Y-126620611D01*
X132462167Y-126541385D01*
X132462166Y-126541385D01*
X132462165Y-126541384D01*
X132290027Y-126426365D01*
X132143635Y-126279973D01*
X132028616Y-126107835D01*
X132028615Y-126107833D01*
X131949389Y-125916564D01*
X131909000Y-125713516D01*
X131909000Y-125506484D01*
X131949389Y-125303436D01*
X132028615Y-125112167D01*
X132143635Y-124940027D01*
X132290027Y-124793635D01*
X132462165Y-124678616D01*
X132462167Y-124678615D01*
X132653436Y-124599389D01*
X132856484Y-124559000D01*
X133063516Y-124559000D01*
X133266564Y-124599389D01*
G37*
G36*
X126766564Y-124599389D02*
G01*
X126957833Y-124678615D01*
X126957835Y-124678616D01*
X127129973Y-124793635D01*
X127276365Y-124940027D01*
X127391385Y-125112167D01*
X127470611Y-125303436D01*
X127511000Y-125506484D01*
X127511000Y-125713516D01*
X127470611Y-125916564D01*
X127391385Y-126107833D01*
X127391384Y-126107835D01*
X127276365Y-126279973D01*
X127129973Y-126426365D01*
X126957835Y-126541384D01*
X126957834Y-126541385D01*
X126957833Y-126541385D01*
X126766564Y-126620611D01*
X126563516Y-126661000D01*
X126356484Y-126661000D01*
X126153436Y-126620611D01*
X125962167Y-126541385D01*
X125962166Y-126541385D01*
X125962165Y-126541384D01*
X125790027Y-126426365D01*
X125643635Y-126279973D01*
X125528616Y-126107835D01*
X125528615Y-126107833D01*
X125449389Y-125916564D01*
X125409000Y-125713516D01*
X125409000Y-125506484D01*
X125449389Y-125303436D01*
X125528615Y-125112167D01*
X125643635Y-124940027D01*
X125790027Y-124793635D01*
X125962165Y-124678616D01*
X125962167Y-124678615D01*
X126153436Y-124599389D01*
X126356484Y-124559000D01*
X126563516Y-124559000D01*
X126766564Y-124599389D01*
G37*
G36*
X138196564Y-120099389D02*
G01*
X138387833Y-120178615D01*
X138387835Y-120178616D01*
X138559973Y-120293635D01*
X138706365Y-120440027D01*
X138821385Y-120612167D01*
X138900611Y-120803436D01*
X138941000Y-121006484D01*
X138941000Y-121213516D01*
X138900611Y-121416564D01*
X138821385Y-121607833D01*
X138821384Y-121607835D01*
X138706365Y-121779973D01*
X138559973Y-121926365D01*
X138387835Y-122041384D01*
X138387834Y-122041385D01*
X138387833Y-122041385D01*
X138196564Y-122120611D01*
X137993516Y-122161000D01*
X137786484Y-122161000D01*
X137583436Y-122120611D01*
X137392167Y-122041385D01*
X137392166Y-122041385D01*
X137392165Y-122041384D01*
X137220027Y-121926365D01*
X137073635Y-121779973D01*
X136958616Y-121607835D01*
X136958615Y-121607833D01*
X136879389Y-121416564D01*
X136839000Y-121213516D01*
X136839000Y-121006484D01*
X136879389Y-120803436D01*
X136958615Y-120612167D01*
X137073635Y-120440027D01*
X137220027Y-120293635D01*
X137392165Y-120178616D01*
X137392167Y-120178615D01*
X137583436Y-120099389D01*
X137786484Y-120059000D01*
X137993516Y-120059000D01*
X138196564Y-120099389D01*
G37*
G36*
X126766564Y-120099389D02*
G01*
X126957833Y-120178615D01*
X126957835Y-120178616D01*
X127129973Y-120293635D01*
X127276365Y-120440027D01*
X127391385Y-120612167D01*
X127470611Y-120803436D01*
X127511000Y-121006484D01*
X127511000Y-121213516D01*
X127470611Y-121416564D01*
X127391385Y-121607833D01*
X127391384Y-121607835D01*
X127276365Y-121779973D01*
X127129973Y-121926365D01*
X126957835Y-122041384D01*
X126957834Y-122041385D01*
X126957833Y-122041385D01*
X126766564Y-122120611D01*
X126563516Y-122161000D01*
X126356484Y-122161000D01*
X126153436Y-122120611D01*
X125962167Y-122041385D01*
X125962166Y-122041385D01*
X125962165Y-122041384D01*
X125790027Y-121926365D01*
X125643635Y-121779973D01*
X125528616Y-121607835D01*
X125528615Y-121607833D01*
X125449389Y-121416564D01*
X125409000Y-121213516D01*
X125409000Y-121006484D01*
X125449389Y-120803436D01*
X125528615Y-120612167D01*
X125643635Y-120440027D01*
X125790027Y-120293635D01*
X125962165Y-120178616D01*
X125962167Y-120178615D01*
X126153436Y-120099389D01*
X126356484Y-120059000D01*
X126563516Y-120059000D01*
X126766564Y-120099389D01*
G37*
G36*
X149626564Y-120099389D02*
G01*
X149817833Y-120178615D01*
X149817835Y-120178616D01*
X149989973Y-120293635D01*
X150136365Y-120440027D01*
X150251385Y-120612167D01*
X150330611Y-120803436D01*
X150371000Y-121006484D01*
X150371000Y-121213516D01*
X150330611Y-121416564D01*
X150251385Y-121607833D01*
X150251384Y-121607835D01*
X150136365Y-121779973D01*
X149989973Y-121926365D01*
X149817835Y-122041384D01*
X149817834Y-122041385D01*
X149817833Y-122041385D01*
X149626564Y-122120611D01*
X149423516Y-122161000D01*
X149216484Y-122161000D01*
X149013436Y-122120611D01*
X148822167Y-122041385D01*
X148822166Y-122041385D01*
X148822165Y-122041384D01*
X148650027Y-121926365D01*
X148503635Y-121779973D01*
X148388616Y-121607835D01*
X148388615Y-121607833D01*
X148309389Y-121416564D01*
X148269000Y-121213516D01*
X148269000Y-121006484D01*
X148309389Y-120803436D01*
X148388615Y-120612167D01*
X148503635Y-120440027D01*
X148650027Y-120293635D01*
X148822165Y-120178616D01*
X148822167Y-120178615D01*
X149013436Y-120099389D01*
X149216484Y-120059000D01*
X149423516Y-120059000D01*
X149626564Y-120099389D01*
G37*
G36*
X133266564Y-120099389D02*
G01*
X133457833Y-120178615D01*
X133457835Y-120178616D01*
X133629973Y-120293635D01*
X133776365Y-120440027D01*
X133891385Y-120612167D01*
X133970611Y-120803436D01*
X134011000Y-121006484D01*
X134011000Y-121213516D01*
X133970611Y-121416564D01*
X133891385Y-121607833D01*
X133891384Y-121607835D01*
X133776365Y-121779973D01*
X133629973Y-121926365D01*
X133457835Y-122041384D01*
X133457834Y-122041385D01*
X133457833Y-122041385D01*
X133266564Y-122120611D01*
X133063516Y-122161000D01*
X132856484Y-122161000D01*
X132653436Y-122120611D01*
X132462167Y-122041385D01*
X132462166Y-122041385D01*
X132462165Y-122041384D01*
X132290027Y-121926365D01*
X132143635Y-121779973D01*
X132028616Y-121607835D01*
X132028615Y-121607833D01*
X131949389Y-121416564D01*
X131909000Y-121213516D01*
X131909000Y-121006484D01*
X131949389Y-120803436D01*
X132028615Y-120612167D01*
X132143635Y-120440027D01*
X132290027Y-120293635D01*
X132462165Y-120178616D01*
X132462167Y-120178615D01*
X132653436Y-120099389D01*
X132856484Y-120059000D01*
X133063516Y-120059000D01*
X133266564Y-120099389D01*
G37*
G36*
X100056564Y-120099389D02*
G01*
X100247833Y-120178615D01*
X100247835Y-120178616D01*
X100419973Y-120293635D01*
X100566365Y-120440027D01*
X100681385Y-120612167D01*
X100760611Y-120803436D01*
X100801000Y-121006484D01*
X100801000Y-121213516D01*
X100760611Y-121416564D01*
X100681385Y-121607833D01*
X100681384Y-121607835D01*
X100566365Y-121779973D01*
X100419973Y-121926365D01*
X100247835Y-122041384D01*
X100247834Y-122041385D01*
X100247833Y-122041385D01*
X100056564Y-122120611D01*
X99853516Y-122161000D01*
X99646484Y-122161000D01*
X99443436Y-122120611D01*
X99252167Y-122041385D01*
X99252166Y-122041385D01*
X99252165Y-122041384D01*
X99080027Y-121926365D01*
X98933635Y-121779973D01*
X98818616Y-121607835D01*
X98818615Y-121607833D01*
X98739389Y-121416564D01*
X98699000Y-121213516D01*
X98699000Y-121006484D01*
X98739389Y-120803436D01*
X98818615Y-120612167D01*
X98933635Y-120440027D01*
X99080027Y-120293635D01*
X99252165Y-120178616D01*
X99252167Y-120178615D01*
X99443436Y-120099389D01*
X99646484Y-120059000D01*
X99853516Y-120059000D01*
X100056564Y-120099389D01*
G37*
G36*
X93556564Y-120099389D02*
G01*
X93747833Y-120178615D01*
X93747835Y-120178616D01*
X93919973Y-120293635D01*
X94066365Y-120440027D01*
X94181385Y-120612167D01*
X94260611Y-120803436D01*
X94301000Y-121006484D01*
X94301000Y-121213516D01*
X94260611Y-121416564D01*
X94181385Y-121607833D01*
X94181384Y-121607835D01*
X94066365Y-121779973D01*
X93919973Y-121926365D01*
X93747835Y-122041384D01*
X93747834Y-122041385D01*
X93747833Y-122041385D01*
X93556564Y-122120611D01*
X93353516Y-122161000D01*
X93146484Y-122161000D01*
X92943436Y-122120611D01*
X92752167Y-122041385D01*
X92752166Y-122041385D01*
X92752165Y-122041384D01*
X92580027Y-121926365D01*
X92433635Y-121779973D01*
X92318616Y-121607835D01*
X92318615Y-121607833D01*
X92239389Y-121416564D01*
X92199000Y-121213516D01*
X92199000Y-121006484D01*
X92239389Y-120803436D01*
X92318615Y-120612167D01*
X92433635Y-120440027D01*
X92580027Y-120293635D01*
X92752165Y-120178616D01*
X92752167Y-120178615D01*
X92943436Y-120099389D01*
X93146484Y-120059000D01*
X93353516Y-120059000D01*
X93556564Y-120099389D01*
G37*
G36*
X111486564Y-120099389D02*
G01*
X111677833Y-120178615D01*
X111677835Y-120178616D01*
X111849973Y-120293635D01*
X111996365Y-120440027D01*
X112111385Y-120612167D01*
X112190611Y-120803436D01*
X112231000Y-121006484D01*
X112231000Y-121213516D01*
X112190611Y-121416564D01*
X112111385Y-121607833D01*
X112111384Y-121607835D01*
X111996365Y-121779973D01*
X111849973Y-121926365D01*
X111677835Y-122041384D01*
X111677834Y-122041385D01*
X111677833Y-122041385D01*
X111486564Y-122120611D01*
X111283516Y-122161000D01*
X111076484Y-122161000D01*
X110873436Y-122120611D01*
X110682167Y-122041385D01*
X110682166Y-122041385D01*
X110682165Y-122041384D01*
X110510027Y-121926365D01*
X110363635Y-121779973D01*
X110248616Y-121607835D01*
X110248615Y-121607833D01*
X110169389Y-121416564D01*
X110129000Y-121213516D01*
X110129000Y-121006484D01*
X110169389Y-120803436D01*
X110248615Y-120612167D01*
X110363635Y-120440027D01*
X110510027Y-120293635D01*
X110682165Y-120178616D01*
X110682167Y-120178615D01*
X110873436Y-120099389D01*
X111076484Y-120059000D01*
X111283516Y-120059000D01*
X111486564Y-120099389D01*
G37*
G36*
X156126564Y-120099389D02*
G01*
X156317833Y-120178615D01*
X156317835Y-120178616D01*
X156489973Y-120293635D01*
X156636365Y-120440027D01*
X156751385Y-120612167D01*
X156830611Y-120803436D01*
X156871000Y-121006484D01*
X156871000Y-121213516D01*
X156830611Y-121416564D01*
X156751385Y-121607833D01*
X156751384Y-121607835D01*
X156636365Y-121779973D01*
X156489973Y-121926365D01*
X156317835Y-122041384D01*
X156317834Y-122041385D01*
X156317833Y-122041385D01*
X156126564Y-122120611D01*
X155923516Y-122161000D01*
X155716484Y-122161000D01*
X155513436Y-122120611D01*
X155322167Y-122041385D01*
X155322166Y-122041385D01*
X155322165Y-122041384D01*
X155150027Y-121926365D01*
X155003635Y-121779973D01*
X154888616Y-121607835D01*
X154888615Y-121607833D01*
X154809389Y-121416564D01*
X154769000Y-121213516D01*
X154769000Y-121006484D01*
X154809389Y-120803436D01*
X154888615Y-120612167D01*
X155003635Y-120440027D01*
X155150027Y-120293635D01*
X155322165Y-120178616D01*
X155322167Y-120178615D01*
X155513436Y-120099389D01*
X155716484Y-120059000D01*
X155923516Y-120059000D01*
X156126564Y-120099389D01*
G37*
G36*
X208036564Y-120099389D02*
G01*
X208227833Y-120178615D01*
X208227835Y-120178616D01*
X208399973Y-120293635D01*
X208546365Y-120440027D01*
X208661385Y-120612167D01*
X208740611Y-120803436D01*
X208781000Y-121006484D01*
X208781000Y-121213516D01*
X208740611Y-121416564D01*
X208661385Y-121607833D01*
X208661384Y-121607835D01*
X208546365Y-121779973D01*
X208399973Y-121926365D01*
X208227835Y-122041384D01*
X208227834Y-122041385D01*
X208227833Y-122041385D01*
X208036564Y-122120611D01*
X207833516Y-122161000D01*
X207626484Y-122161000D01*
X207423436Y-122120611D01*
X207232167Y-122041385D01*
X207232166Y-122041385D01*
X207232165Y-122041384D01*
X207060027Y-121926365D01*
X206913635Y-121779973D01*
X206798616Y-121607835D01*
X206798615Y-121607833D01*
X206719389Y-121416564D01*
X206679000Y-121213516D01*
X206679000Y-121006484D01*
X206719389Y-120803436D01*
X206798615Y-120612167D01*
X206913635Y-120440027D01*
X207060027Y-120293635D01*
X207232165Y-120178616D01*
X207232167Y-120178615D01*
X207423436Y-120099389D01*
X207626484Y-120059000D01*
X207833516Y-120059000D01*
X208036564Y-120099389D01*
G37*
G36*
X181391564Y-120099389D02*
G01*
X181582833Y-120178615D01*
X181582835Y-120178616D01*
X181754973Y-120293635D01*
X181901365Y-120440027D01*
X182016385Y-120612167D01*
X182095611Y-120803436D01*
X182136000Y-121006484D01*
X182136000Y-121213516D01*
X182095611Y-121416564D01*
X182016385Y-121607833D01*
X182016384Y-121607835D01*
X181901365Y-121779973D01*
X181754973Y-121926365D01*
X181582835Y-122041384D01*
X181582834Y-122041385D01*
X181582833Y-122041385D01*
X181391564Y-122120611D01*
X181188516Y-122161000D01*
X180981484Y-122161000D01*
X180778436Y-122120611D01*
X180587167Y-122041385D01*
X180587166Y-122041385D01*
X180587165Y-122041384D01*
X180415027Y-121926365D01*
X180268635Y-121779973D01*
X180153616Y-121607835D01*
X180153615Y-121607833D01*
X180074389Y-121416564D01*
X180034000Y-121213516D01*
X180034000Y-121006484D01*
X180074389Y-120803436D01*
X180153615Y-120612167D01*
X180268635Y-120440027D01*
X180415027Y-120293635D01*
X180587165Y-120178616D01*
X180587167Y-120178615D01*
X180778436Y-120099389D01*
X180981484Y-120059000D01*
X181188516Y-120059000D01*
X181391564Y-120099389D01*
G37*
G36*
X201536564Y-120099389D02*
G01*
X201727833Y-120178615D01*
X201727835Y-120178616D01*
X201899973Y-120293635D01*
X202046365Y-120440027D01*
X202161385Y-120612167D01*
X202240611Y-120803436D01*
X202281000Y-121006484D01*
X202281000Y-121213516D01*
X202240611Y-121416564D01*
X202161385Y-121607833D01*
X202161384Y-121607835D01*
X202046365Y-121779973D01*
X201899973Y-121926365D01*
X201727835Y-122041384D01*
X201727834Y-122041385D01*
X201727833Y-122041385D01*
X201536564Y-122120611D01*
X201333516Y-122161000D01*
X201126484Y-122161000D01*
X200923436Y-122120611D01*
X200732167Y-122041385D01*
X200732166Y-122041385D01*
X200732165Y-122041384D01*
X200560027Y-121926365D01*
X200413635Y-121779973D01*
X200298616Y-121607835D01*
X200298615Y-121607833D01*
X200219389Y-121416564D01*
X200179000Y-121213516D01*
X200179000Y-121006484D01*
X200219389Y-120803436D01*
X200298615Y-120612167D01*
X200413635Y-120440027D01*
X200560027Y-120293635D01*
X200732165Y-120178616D01*
X200732167Y-120178615D01*
X200923436Y-120099389D01*
X201126484Y-120059000D01*
X201333516Y-120059000D01*
X201536564Y-120099389D01*
G37*
G36*
X144696564Y-120099389D02*
G01*
X144887833Y-120178615D01*
X144887835Y-120178616D01*
X145059973Y-120293635D01*
X145206365Y-120440027D01*
X145321385Y-120612167D01*
X145400611Y-120803436D01*
X145441000Y-121006484D01*
X145441000Y-121213516D01*
X145400611Y-121416564D01*
X145321385Y-121607833D01*
X145321384Y-121607835D01*
X145206365Y-121779973D01*
X145059973Y-121926365D01*
X144887835Y-122041384D01*
X144887834Y-122041385D01*
X144887833Y-122041385D01*
X144696564Y-122120611D01*
X144493516Y-122161000D01*
X144286484Y-122161000D01*
X144083436Y-122120611D01*
X143892167Y-122041385D01*
X143892166Y-122041385D01*
X143892165Y-122041384D01*
X143720027Y-121926365D01*
X143573635Y-121779973D01*
X143458616Y-121607835D01*
X143458615Y-121607833D01*
X143379389Y-121416564D01*
X143339000Y-121213516D01*
X143339000Y-121006484D01*
X143379389Y-120803436D01*
X143458615Y-120612167D01*
X143573635Y-120440027D01*
X143720027Y-120293635D01*
X143892165Y-120178616D01*
X143892167Y-120178615D01*
X144083436Y-120099389D01*
X144286484Y-120059000D01*
X144493516Y-120059000D01*
X144696564Y-120099389D01*
G37*
G36*
X187891564Y-120099389D02*
G01*
X188082833Y-120178615D01*
X188082835Y-120178616D01*
X188254973Y-120293635D01*
X188401365Y-120440027D01*
X188516385Y-120612167D01*
X188595611Y-120803436D01*
X188636000Y-121006484D01*
X188636000Y-121213516D01*
X188595611Y-121416564D01*
X188516385Y-121607833D01*
X188516384Y-121607835D01*
X188401365Y-121779973D01*
X188254973Y-121926365D01*
X188082835Y-122041384D01*
X188082834Y-122041385D01*
X188082833Y-122041385D01*
X187891564Y-122120611D01*
X187688516Y-122161000D01*
X187481484Y-122161000D01*
X187278436Y-122120611D01*
X187087167Y-122041385D01*
X187087166Y-122041385D01*
X187087165Y-122041384D01*
X186915027Y-121926365D01*
X186768635Y-121779973D01*
X186653616Y-121607835D01*
X186653615Y-121607833D01*
X186574389Y-121416564D01*
X186534000Y-121213516D01*
X186534000Y-121006484D01*
X186574389Y-120803436D01*
X186653615Y-120612167D01*
X186768635Y-120440027D01*
X186915027Y-120293635D01*
X187087165Y-120178616D01*
X187087167Y-120178615D01*
X187278436Y-120099389D01*
X187481484Y-120059000D01*
X187688516Y-120059000D01*
X187891564Y-120099389D01*
G37*
G36*
X104986564Y-120099389D02*
G01*
X105177833Y-120178615D01*
X105177835Y-120178616D01*
X105349973Y-120293635D01*
X105496365Y-120440027D01*
X105611385Y-120612167D01*
X105690611Y-120803436D01*
X105731000Y-121006484D01*
X105731000Y-121213516D01*
X105690611Y-121416564D01*
X105611385Y-121607833D01*
X105611384Y-121607835D01*
X105496365Y-121779973D01*
X105349973Y-121926365D01*
X105177835Y-122041384D01*
X105177834Y-122041385D01*
X105177833Y-122041385D01*
X104986564Y-122120611D01*
X104783516Y-122161000D01*
X104576484Y-122161000D01*
X104373436Y-122120611D01*
X104182167Y-122041385D01*
X104182166Y-122041385D01*
X104182165Y-122041384D01*
X104010027Y-121926365D01*
X103863635Y-121779973D01*
X103748616Y-121607835D01*
X103748615Y-121607833D01*
X103669389Y-121416564D01*
X103629000Y-121213516D01*
X103629000Y-121006484D01*
X103669389Y-120803436D01*
X103748615Y-120612167D01*
X103863635Y-120440027D01*
X104010027Y-120293635D01*
X104182165Y-120178616D01*
X104182167Y-120178615D01*
X104373436Y-120099389D01*
X104576484Y-120059000D01*
X104783516Y-120059000D01*
X104986564Y-120099389D01*
G37*
G36*
X127551564Y-115074389D02*
G01*
X127742833Y-115153615D01*
X127742835Y-115153616D01*
X127914973Y-115268635D01*
X128061365Y-115415027D01*
X128176385Y-115587167D01*
X128255611Y-115778436D01*
X128296000Y-115981484D01*
X128296000Y-116188516D01*
X128255611Y-116391564D01*
X128199166Y-116527835D01*
X128176384Y-116582835D01*
X128061365Y-116754973D01*
X127914973Y-116901365D01*
X127742835Y-117016384D01*
X127742834Y-117016385D01*
X127742833Y-117016385D01*
X127551564Y-117095611D01*
X127348516Y-117136000D01*
X127141484Y-117136000D01*
X126938436Y-117095611D01*
X126747167Y-117016385D01*
X126747166Y-117016385D01*
X126747165Y-117016384D01*
X126575027Y-116901365D01*
X126428635Y-116754973D01*
X126313616Y-116582835D01*
X126290834Y-116527835D01*
X126234389Y-116391564D01*
X126194000Y-116188516D01*
X126194000Y-115981484D01*
X126234389Y-115778436D01*
X126313615Y-115587167D01*
X126428635Y-115415027D01*
X126575027Y-115268635D01*
X126747165Y-115153616D01*
X126747167Y-115153615D01*
X126938436Y-115074389D01*
X127141484Y-115034000D01*
X127348516Y-115034000D01*
X127551564Y-115074389D01*
G37*
G36*
X182176564Y-115074389D02*
G01*
X182367833Y-115153615D01*
X182367835Y-115153616D01*
X182539973Y-115268635D01*
X182686365Y-115415027D01*
X182801385Y-115587167D01*
X182880611Y-115778436D01*
X182921000Y-115981484D01*
X182921000Y-116188516D01*
X182880611Y-116391564D01*
X182824166Y-116527835D01*
X182801384Y-116582835D01*
X182686365Y-116754973D01*
X182539973Y-116901365D01*
X182367835Y-117016384D01*
X182367834Y-117016385D01*
X182367833Y-117016385D01*
X182176564Y-117095611D01*
X181973516Y-117136000D01*
X181766484Y-117136000D01*
X181563436Y-117095611D01*
X181372167Y-117016385D01*
X181372166Y-117016385D01*
X181372165Y-117016384D01*
X181200027Y-116901365D01*
X181053635Y-116754973D01*
X180938616Y-116582835D01*
X180915834Y-116527835D01*
X180859389Y-116391564D01*
X180819000Y-116188516D01*
X180819000Y-115981484D01*
X180859389Y-115778436D01*
X180938615Y-115587167D01*
X181053635Y-115415027D01*
X181200027Y-115268635D01*
X181372165Y-115153616D01*
X181372167Y-115153615D01*
X181563436Y-115074389D01*
X181766484Y-115034000D01*
X181973516Y-115034000D01*
X182176564Y-115074389D01*
G37*
G36*
X212481564Y-115074389D02*
G01*
X212672833Y-115153615D01*
X212672835Y-115153616D01*
X212844973Y-115268635D01*
X212991365Y-115415027D01*
X213106385Y-115587167D01*
X213185611Y-115778436D01*
X213226000Y-115981484D01*
X213226000Y-116188516D01*
X213185611Y-116391564D01*
X213129166Y-116527835D01*
X213106384Y-116582835D01*
X212991365Y-116754973D01*
X212844973Y-116901365D01*
X212672835Y-117016384D01*
X212672834Y-117016385D01*
X212672833Y-117016385D01*
X212481564Y-117095611D01*
X212278516Y-117136000D01*
X212071484Y-117136000D01*
X211868436Y-117095611D01*
X211677167Y-117016385D01*
X211677166Y-117016385D01*
X211677165Y-117016384D01*
X211505027Y-116901365D01*
X211358635Y-116754973D01*
X211243616Y-116582835D01*
X211220834Y-116527835D01*
X211164389Y-116391564D01*
X211124000Y-116188516D01*
X211124000Y-115981484D01*
X211164389Y-115778436D01*
X211243615Y-115587167D01*
X211358635Y-115415027D01*
X211505027Y-115268635D01*
X211677165Y-115153616D01*
X211677167Y-115153615D01*
X211868436Y-115074389D01*
X212071484Y-115034000D01*
X212278516Y-115034000D01*
X212481564Y-115074389D01*
G37*
G36*
X205981564Y-115074389D02*
G01*
X206172833Y-115153615D01*
X206172835Y-115153616D01*
X206344973Y-115268635D01*
X206491365Y-115415027D01*
X206606385Y-115587167D01*
X206685611Y-115778436D01*
X206726000Y-115981484D01*
X206726000Y-116188516D01*
X206685611Y-116391564D01*
X206629166Y-116527835D01*
X206606384Y-116582835D01*
X206491365Y-116754973D01*
X206344973Y-116901365D01*
X206172835Y-117016384D01*
X206172834Y-117016385D01*
X206172833Y-117016385D01*
X205981564Y-117095611D01*
X205778516Y-117136000D01*
X205571484Y-117136000D01*
X205368436Y-117095611D01*
X205177167Y-117016385D01*
X205177166Y-117016385D01*
X205177165Y-117016384D01*
X205005027Y-116901365D01*
X204858635Y-116754973D01*
X204743616Y-116582835D01*
X204720834Y-116527835D01*
X204664389Y-116391564D01*
X204624000Y-116188516D01*
X204624000Y-115981484D01*
X204664389Y-115778436D01*
X204743615Y-115587167D01*
X204858635Y-115415027D01*
X205005027Y-115268635D01*
X205177165Y-115153616D01*
X205177167Y-115153615D01*
X205368436Y-115074389D01*
X205571484Y-115034000D01*
X205778516Y-115034000D01*
X205981564Y-115074389D01*
G37*
G36*
X193606564Y-115074389D02*
G01*
X193797833Y-115153615D01*
X193797835Y-115153616D01*
X193969973Y-115268635D01*
X194116365Y-115415027D01*
X194231385Y-115587167D01*
X194310611Y-115778436D01*
X194351000Y-115981484D01*
X194351000Y-116188516D01*
X194310611Y-116391564D01*
X194254166Y-116527835D01*
X194231384Y-116582835D01*
X194116365Y-116754973D01*
X193969973Y-116901365D01*
X193797835Y-117016384D01*
X193797834Y-117016385D01*
X193797833Y-117016385D01*
X193606564Y-117095611D01*
X193403516Y-117136000D01*
X193196484Y-117136000D01*
X192993436Y-117095611D01*
X192802167Y-117016385D01*
X192802166Y-117016385D01*
X192802165Y-117016384D01*
X192630027Y-116901365D01*
X192483635Y-116754973D01*
X192368616Y-116582835D01*
X192345834Y-116527835D01*
X192289389Y-116391564D01*
X192249000Y-116188516D01*
X192249000Y-115981484D01*
X192289389Y-115778436D01*
X192368615Y-115587167D01*
X192483635Y-115415027D01*
X192630027Y-115268635D01*
X192802165Y-115153616D01*
X192802167Y-115153615D01*
X192993436Y-115074389D01*
X193196484Y-115034000D01*
X193403516Y-115034000D01*
X193606564Y-115074389D01*
G37*
G36*
X187106564Y-115074389D02*
G01*
X187297833Y-115153615D01*
X187297835Y-115153616D01*
X187469973Y-115268635D01*
X187616365Y-115415027D01*
X187731385Y-115587167D01*
X187810611Y-115778436D01*
X187851000Y-115981484D01*
X187851000Y-116188516D01*
X187810611Y-116391564D01*
X187754166Y-116527835D01*
X187731384Y-116582835D01*
X187616365Y-116754973D01*
X187469973Y-116901365D01*
X187297835Y-117016384D01*
X187297834Y-117016385D01*
X187297833Y-117016385D01*
X187106564Y-117095611D01*
X186903516Y-117136000D01*
X186696484Y-117136000D01*
X186493436Y-117095611D01*
X186302167Y-117016385D01*
X186302166Y-117016385D01*
X186302165Y-117016384D01*
X186130027Y-116901365D01*
X185983635Y-116754973D01*
X185868616Y-116582835D01*
X185845834Y-116527835D01*
X185789389Y-116391564D01*
X185749000Y-116188516D01*
X185749000Y-115981484D01*
X185789389Y-115778436D01*
X185868615Y-115587167D01*
X185983635Y-115415027D01*
X186130027Y-115268635D01*
X186302165Y-115153616D01*
X186302167Y-115153615D01*
X186493436Y-115074389D01*
X186696484Y-115034000D01*
X186903516Y-115034000D01*
X187106564Y-115074389D01*
G37*
G36*
X132481564Y-115074389D02*
G01*
X132672833Y-115153615D01*
X132672835Y-115153616D01*
X132844973Y-115268635D01*
X132991365Y-115415027D01*
X133106385Y-115587167D01*
X133185611Y-115778436D01*
X133226000Y-115981484D01*
X133226000Y-116188516D01*
X133185611Y-116391564D01*
X133129166Y-116527835D01*
X133106384Y-116582835D01*
X132991365Y-116754973D01*
X132844973Y-116901365D01*
X132672835Y-117016384D01*
X132672834Y-117016385D01*
X132672833Y-117016385D01*
X132481564Y-117095611D01*
X132278516Y-117136000D01*
X132071484Y-117136000D01*
X131868436Y-117095611D01*
X131677167Y-117016385D01*
X131677166Y-117016385D01*
X131677165Y-117016384D01*
X131505027Y-116901365D01*
X131358635Y-116754973D01*
X131243616Y-116582835D01*
X131220834Y-116527835D01*
X131164389Y-116391564D01*
X131124000Y-116188516D01*
X131124000Y-115981484D01*
X131164389Y-115778436D01*
X131243615Y-115587167D01*
X131358635Y-115415027D01*
X131505027Y-115268635D01*
X131677165Y-115153616D01*
X131677167Y-115153615D01*
X131868436Y-115074389D01*
X132071484Y-115034000D01*
X132278516Y-115034000D01*
X132481564Y-115074389D01*
G37*
G36*
X138981564Y-115074389D02*
G01*
X139172833Y-115153615D01*
X139172835Y-115153616D01*
X139344973Y-115268635D01*
X139491365Y-115415027D01*
X139606385Y-115587167D01*
X139685611Y-115778436D01*
X139726000Y-115981484D01*
X139726000Y-116188516D01*
X139685611Y-116391564D01*
X139629166Y-116527835D01*
X139606384Y-116582835D01*
X139491365Y-116754973D01*
X139344973Y-116901365D01*
X139172835Y-117016384D01*
X139172834Y-117016385D01*
X139172833Y-117016385D01*
X138981564Y-117095611D01*
X138778516Y-117136000D01*
X138571484Y-117136000D01*
X138368436Y-117095611D01*
X138177167Y-117016385D01*
X138177166Y-117016385D01*
X138177165Y-117016384D01*
X138005027Y-116901365D01*
X137858635Y-116754973D01*
X137743616Y-116582835D01*
X137720834Y-116527835D01*
X137664389Y-116391564D01*
X137624000Y-116188516D01*
X137624000Y-115981484D01*
X137664389Y-115778436D01*
X137743615Y-115587167D01*
X137858635Y-115415027D01*
X138005027Y-115268635D01*
X138177165Y-115153616D01*
X138177167Y-115153615D01*
X138368436Y-115074389D01*
X138571484Y-115034000D01*
X138778516Y-115034000D01*
X138981564Y-115074389D01*
G37*
G36*
X150411564Y-115074389D02*
G01*
X150602833Y-115153615D01*
X150602835Y-115153616D01*
X150774973Y-115268635D01*
X150921365Y-115415027D01*
X151036385Y-115587167D01*
X151115611Y-115778436D01*
X151156000Y-115981484D01*
X151156000Y-116188516D01*
X151115611Y-116391564D01*
X151059166Y-116527835D01*
X151036384Y-116582835D01*
X150921365Y-116754973D01*
X150774973Y-116901365D01*
X150602835Y-117016384D01*
X150602834Y-117016385D01*
X150602833Y-117016385D01*
X150411564Y-117095611D01*
X150208516Y-117136000D01*
X150001484Y-117136000D01*
X149798436Y-117095611D01*
X149607167Y-117016385D01*
X149607166Y-117016385D01*
X149607165Y-117016384D01*
X149435027Y-116901365D01*
X149288635Y-116754973D01*
X149173616Y-116582835D01*
X149150834Y-116527835D01*
X149094389Y-116391564D01*
X149054000Y-116188516D01*
X149054000Y-115981484D01*
X149094389Y-115778436D01*
X149173615Y-115587167D01*
X149288635Y-115415027D01*
X149435027Y-115268635D01*
X149607165Y-115153616D01*
X149607167Y-115153615D01*
X149798436Y-115074389D01*
X150001484Y-115034000D01*
X150208516Y-115034000D01*
X150411564Y-115074389D01*
G37*
G36*
X121051564Y-115074389D02*
G01*
X121242833Y-115153615D01*
X121242835Y-115153616D01*
X121414973Y-115268635D01*
X121561365Y-115415027D01*
X121676385Y-115587167D01*
X121755611Y-115778436D01*
X121796000Y-115981484D01*
X121796000Y-116188516D01*
X121755611Y-116391564D01*
X121699166Y-116527835D01*
X121676384Y-116582835D01*
X121561365Y-116754973D01*
X121414973Y-116901365D01*
X121242835Y-117016384D01*
X121242834Y-117016385D01*
X121242833Y-117016385D01*
X121051564Y-117095611D01*
X120848516Y-117136000D01*
X120641484Y-117136000D01*
X120438436Y-117095611D01*
X120247167Y-117016385D01*
X120247166Y-117016385D01*
X120247165Y-117016384D01*
X120075027Y-116901365D01*
X119928635Y-116754973D01*
X119813616Y-116582835D01*
X119790834Y-116527835D01*
X119734389Y-116391564D01*
X119694000Y-116188516D01*
X119694000Y-115981484D01*
X119734389Y-115778436D01*
X119813615Y-115587167D01*
X119928635Y-115415027D01*
X120075027Y-115268635D01*
X120247165Y-115153616D01*
X120247167Y-115153615D01*
X120438436Y-115074389D01*
X120641484Y-115034000D01*
X120848516Y-115034000D01*
X121051564Y-115074389D01*
G37*
G36*
X143911564Y-115074389D02*
G01*
X144102833Y-115153615D01*
X144102835Y-115153616D01*
X144274973Y-115268635D01*
X144421365Y-115415027D01*
X144536385Y-115587167D01*
X144615611Y-115778436D01*
X144656000Y-115981484D01*
X144656000Y-116188516D01*
X144615611Y-116391564D01*
X144559166Y-116527835D01*
X144536384Y-116582835D01*
X144421365Y-116754973D01*
X144274973Y-116901365D01*
X144102835Y-117016384D01*
X144102834Y-117016385D01*
X144102833Y-117016385D01*
X143911564Y-117095611D01*
X143708516Y-117136000D01*
X143501484Y-117136000D01*
X143298436Y-117095611D01*
X143107167Y-117016385D01*
X143107166Y-117016385D01*
X143107165Y-117016384D01*
X142935027Y-116901365D01*
X142788635Y-116754973D01*
X142673616Y-116582835D01*
X142650834Y-116527835D01*
X142594389Y-116391564D01*
X142554000Y-116188516D01*
X142554000Y-115981484D01*
X142594389Y-115778436D01*
X142673615Y-115587167D01*
X142788635Y-115415027D01*
X142935027Y-115268635D01*
X143107165Y-115153616D01*
X143107167Y-115153615D01*
X143298436Y-115074389D01*
X143501484Y-115034000D01*
X143708516Y-115034000D01*
X143911564Y-115074389D01*
G37*
G36*
X175676564Y-115074389D02*
G01*
X175867833Y-115153615D01*
X175867835Y-115153616D01*
X176039973Y-115268635D01*
X176186365Y-115415027D01*
X176301385Y-115587167D01*
X176380611Y-115778436D01*
X176421000Y-115981484D01*
X176421000Y-116188516D01*
X176380611Y-116391564D01*
X176324166Y-116527835D01*
X176301384Y-116582835D01*
X176186365Y-116754973D01*
X176039973Y-116901365D01*
X175867835Y-117016384D01*
X175867834Y-117016385D01*
X175867833Y-117016385D01*
X175676564Y-117095611D01*
X175473516Y-117136000D01*
X175266484Y-117136000D01*
X175063436Y-117095611D01*
X174872167Y-117016385D01*
X174872166Y-117016385D01*
X174872165Y-117016384D01*
X174700027Y-116901365D01*
X174553635Y-116754973D01*
X174438616Y-116582835D01*
X174415834Y-116527835D01*
X174359389Y-116391564D01*
X174319000Y-116188516D01*
X174319000Y-115981484D01*
X174359389Y-115778436D01*
X174438615Y-115587167D01*
X174553635Y-115415027D01*
X174700027Y-115268635D01*
X174872165Y-115153616D01*
X174872167Y-115153615D01*
X175063436Y-115074389D01*
X175266484Y-115034000D01*
X175473516Y-115034000D01*
X175676564Y-115074389D01*
G37*
G36*
X99756564Y-115019389D02*
G01*
X99947833Y-115098615D01*
X99947835Y-115098616D01*
X100030147Y-115153615D01*
X100119973Y-115213635D01*
X100266365Y-115360027D01*
X100381385Y-115532167D01*
X100460611Y-115723436D01*
X100501000Y-115926484D01*
X100501000Y-116133516D01*
X100460611Y-116336564D01*
X100381385Y-116527833D01*
X100381384Y-116527835D01*
X100266365Y-116699973D01*
X100119973Y-116846365D01*
X99947835Y-116961384D01*
X99947834Y-116961385D01*
X99947833Y-116961385D01*
X99756564Y-117040611D01*
X99553516Y-117081000D01*
X99346484Y-117081000D01*
X99143436Y-117040611D01*
X98952167Y-116961385D01*
X98952166Y-116961385D01*
X98952165Y-116961384D01*
X98780027Y-116846365D01*
X98633635Y-116699973D01*
X98518616Y-116527835D01*
X98518615Y-116527833D01*
X98439389Y-116336564D01*
X98399000Y-116133516D01*
X98399000Y-115926484D01*
X98439389Y-115723436D01*
X98518615Y-115532167D01*
X98633635Y-115360027D01*
X98780027Y-115213635D01*
X98869853Y-115153615D01*
X98952165Y-115098616D01*
X98952167Y-115098615D01*
X99143436Y-115019389D01*
X99346484Y-114979000D01*
X99553516Y-114979000D01*
X99756564Y-115019389D01*
G37*
G36*
X106256564Y-115019389D02*
G01*
X106447833Y-115098615D01*
X106447835Y-115098616D01*
X106530147Y-115153615D01*
X106619973Y-115213635D01*
X106766365Y-115360027D01*
X106881385Y-115532167D01*
X106960611Y-115723436D01*
X107001000Y-115926484D01*
X107001000Y-116133516D01*
X106960611Y-116336564D01*
X106881385Y-116527833D01*
X106881384Y-116527835D01*
X106766365Y-116699973D01*
X106619973Y-116846365D01*
X106447835Y-116961384D01*
X106447834Y-116961385D01*
X106447833Y-116961385D01*
X106256564Y-117040611D01*
X106053516Y-117081000D01*
X105846484Y-117081000D01*
X105643436Y-117040611D01*
X105452167Y-116961385D01*
X105452166Y-116961385D01*
X105452165Y-116961384D01*
X105280027Y-116846365D01*
X105133635Y-116699973D01*
X105018616Y-116527835D01*
X105018615Y-116527833D01*
X104939389Y-116336564D01*
X104899000Y-116133516D01*
X104899000Y-115926484D01*
X104939389Y-115723436D01*
X105018615Y-115532167D01*
X105133635Y-115360027D01*
X105280027Y-115213635D01*
X105369853Y-115153615D01*
X105452165Y-115098616D01*
X105452167Y-115098615D01*
X105643436Y-115019389D01*
X105846484Y-114979000D01*
X106053516Y-114979000D01*
X106256564Y-115019389D01*
G37*
G36*
X150411564Y-110574389D02*
G01*
X150602833Y-110653615D01*
X150602835Y-110653616D01*
X150774973Y-110768635D01*
X150921365Y-110915027D01*
X151036385Y-111087167D01*
X151115611Y-111278436D01*
X151156000Y-111481484D01*
X151156000Y-111688516D01*
X151115611Y-111891564D01*
X151059166Y-112027835D01*
X151036384Y-112082835D01*
X150921365Y-112254973D01*
X150774973Y-112401365D01*
X150602835Y-112516384D01*
X150602834Y-112516385D01*
X150602833Y-112516385D01*
X150411564Y-112595611D01*
X150208516Y-112636000D01*
X150001484Y-112636000D01*
X149798436Y-112595611D01*
X149607167Y-112516385D01*
X149607166Y-112516385D01*
X149607165Y-112516384D01*
X149435027Y-112401365D01*
X149288635Y-112254973D01*
X149173616Y-112082835D01*
X149150834Y-112027835D01*
X149094389Y-111891564D01*
X149054000Y-111688516D01*
X149054000Y-111481484D01*
X149094389Y-111278436D01*
X149173615Y-111087167D01*
X149288635Y-110915027D01*
X149435027Y-110768635D01*
X149607165Y-110653616D01*
X149607167Y-110653615D01*
X149798436Y-110574389D01*
X150001484Y-110534000D01*
X150208516Y-110534000D01*
X150411564Y-110574389D01*
G37*
G36*
X132481564Y-110574389D02*
G01*
X132672833Y-110653615D01*
X132672835Y-110653616D01*
X132844973Y-110768635D01*
X132991365Y-110915027D01*
X133106385Y-111087167D01*
X133185611Y-111278436D01*
X133226000Y-111481484D01*
X133226000Y-111688516D01*
X133185611Y-111891564D01*
X133129166Y-112027835D01*
X133106384Y-112082835D01*
X132991365Y-112254973D01*
X132844973Y-112401365D01*
X132672835Y-112516384D01*
X132672834Y-112516385D01*
X132672833Y-112516385D01*
X132481564Y-112595611D01*
X132278516Y-112636000D01*
X132071484Y-112636000D01*
X131868436Y-112595611D01*
X131677167Y-112516385D01*
X131677166Y-112516385D01*
X131677165Y-112516384D01*
X131505027Y-112401365D01*
X131358635Y-112254973D01*
X131243616Y-112082835D01*
X131220834Y-112027835D01*
X131164389Y-111891564D01*
X131124000Y-111688516D01*
X131124000Y-111481484D01*
X131164389Y-111278436D01*
X131243615Y-111087167D01*
X131358635Y-110915027D01*
X131505027Y-110768635D01*
X131677165Y-110653616D01*
X131677167Y-110653615D01*
X131868436Y-110574389D01*
X132071484Y-110534000D01*
X132278516Y-110534000D01*
X132481564Y-110574389D01*
G37*
G36*
X127551564Y-110574389D02*
G01*
X127742833Y-110653615D01*
X127742835Y-110653616D01*
X127914973Y-110768635D01*
X128061365Y-110915027D01*
X128176385Y-111087167D01*
X128255611Y-111278436D01*
X128296000Y-111481484D01*
X128296000Y-111688516D01*
X128255611Y-111891564D01*
X128199166Y-112027835D01*
X128176384Y-112082835D01*
X128061365Y-112254973D01*
X127914973Y-112401365D01*
X127742835Y-112516384D01*
X127742834Y-112516385D01*
X127742833Y-112516385D01*
X127551564Y-112595611D01*
X127348516Y-112636000D01*
X127141484Y-112636000D01*
X126938436Y-112595611D01*
X126747167Y-112516385D01*
X126747166Y-112516385D01*
X126747165Y-112516384D01*
X126575027Y-112401365D01*
X126428635Y-112254973D01*
X126313616Y-112082835D01*
X126290834Y-112027835D01*
X126234389Y-111891564D01*
X126194000Y-111688516D01*
X126194000Y-111481484D01*
X126234389Y-111278436D01*
X126313615Y-111087167D01*
X126428635Y-110915027D01*
X126575027Y-110768635D01*
X126747165Y-110653616D01*
X126747167Y-110653615D01*
X126938436Y-110574389D01*
X127141484Y-110534000D01*
X127348516Y-110534000D01*
X127551564Y-110574389D01*
G37*
G36*
X138981564Y-110574389D02*
G01*
X139172833Y-110653615D01*
X139172835Y-110653616D01*
X139344973Y-110768635D01*
X139491365Y-110915027D01*
X139606385Y-111087167D01*
X139685611Y-111278436D01*
X139726000Y-111481484D01*
X139726000Y-111688516D01*
X139685611Y-111891564D01*
X139629166Y-112027835D01*
X139606384Y-112082835D01*
X139491365Y-112254973D01*
X139344973Y-112401365D01*
X139172835Y-112516384D01*
X139172834Y-112516385D01*
X139172833Y-112516385D01*
X138981564Y-112595611D01*
X138778516Y-112636000D01*
X138571484Y-112636000D01*
X138368436Y-112595611D01*
X138177167Y-112516385D01*
X138177166Y-112516385D01*
X138177165Y-112516384D01*
X138005027Y-112401365D01*
X137858635Y-112254973D01*
X137743616Y-112082835D01*
X137720834Y-112027835D01*
X137664389Y-111891564D01*
X137624000Y-111688516D01*
X137624000Y-111481484D01*
X137664389Y-111278436D01*
X137743615Y-111087167D01*
X137858635Y-110915027D01*
X138005027Y-110768635D01*
X138177165Y-110653616D01*
X138177167Y-110653615D01*
X138368436Y-110574389D01*
X138571484Y-110534000D01*
X138778516Y-110534000D01*
X138981564Y-110574389D01*
G37*
G36*
X143911564Y-110574389D02*
G01*
X144102833Y-110653615D01*
X144102835Y-110653616D01*
X144274973Y-110768635D01*
X144421365Y-110915027D01*
X144536385Y-111087167D01*
X144615611Y-111278436D01*
X144656000Y-111481484D01*
X144656000Y-111688516D01*
X144615611Y-111891564D01*
X144559166Y-112027835D01*
X144536384Y-112082835D01*
X144421365Y-112254973D01*
X144274973Y-112401365D01*
X144102835Y-112516384D01*
X144102834Y-112516385D01*
X144102833Y-112516385D01*
X143911564Y-112595611D01*
X143708516Y-112636000D01*
X143501484Y-112636000D01*
X143298436Y-112595611D01*
X143107167Y-112516385D01*
X143107166Y-112516385D01*
X143107165Y-112516384D01*
X142935027Y-112401365D01*
X142788635Y-112254973D01*
X142673616Y-112082835D01*
X142650834Y-112027835D01*
X142594389Y-111891564D01*
X142554000Y-111688516D01*
X142554000Y-111481484D01*
X142594389Y-111278436D01*
X142673615Y-111087167D01*
X142788635Y-110915027D01*
X142935027Y-110768635D01*
X143107165Y-110653616D01*
X143107167Y-110653615D01*
X143298436Y-110574389D01*
X143501484Y-110534000D01*
X143708516Y-110534000D01*
X143911564Y-110574389D01*
G37*
G36*
X175676564Y-110574389D02*
G01*
X175867833Y-110653615D01*
X175867835Y-110653616D01*
X176039973Y-110768635D01*
X176186365Y-110915027D01*
X176301385Y-111087167D01*
X176380611Y-111278436D01*
X176421000Y-111481484D01*
X176421000Y-111688516D01*
X176380611Y-111891564D01*
X176324166Y-112027835D01*
X176301384Y-112082835D01*
X176186365Y-112254973D01*
X176039973Y-112401365D01*
X175867835Y-112516384D01*
X175867834Y-112516385D01*
X175867833Y-112516385D01*
X175676564Y-112595611D01*
X175473516Y-112636000D01*
X175266484Y-112636000D01*
X175063436Y-112595611D01*
X174872167Y-112516385D01*
X174872166Y-112516385D01*
X174872165Y-112516384D01*
X174700027Y-112401365D01*
X174553635Y-112254973D01*
X174438616Y-112082835D01*
X174415834Y-112027835D01*
X174359389Y-111891564D01*
X174319000Y-111688516D01*
X174319000Y-111481484D01*
X174359389Y-111278436D01*
X174438615Y-111087167D01*
X174553635Y-110915027D01*
X174700027Y-110768635D01*
X174872165Y-110653616D01*
X174872167Y-110653615D01*
X175063436Y-110574389D01*
X175266484Y-110534000D01*
X175473516Y-110534000D01*
X175676564Y-110574389D01*
G37*
G36*
X187106564Y-110574389D02*
G01*
X187297833Y-110653615D01*
X187297835Y-110653616D01*
X187469973Y-110768635D01*
X187616365Y-110915027D01*
X187731385Y-111087167D01*
X187810611Y-111278436D01*
X187851000Y-111481484D01*
X187851000Y-111688516D01*
X187810611Y-111891564D01*
X187754166Y-112027835D01*
X187731384Y-112082835D01*
X187616365Y-112254973D01*
X187469973Y-112401365D01*
X187297835Y-112516384D01*
X187297834Y-112516385D01*
X187297833Y-112516385D01*
X187106564Y-112595611D01*
X186903516Y-112636000D01*
X186696484Y-112636000D01*
X186493436Y-112595611D01*
X186302167Y-112516385D01*
X186302166Y-112516385D01*
X186302165Y-112516384D01*
X186130027Y-112401365D01*
X185983635Y-112254973D01*
X185868616Y-112082835D01*
X185845834Y-112027835D01*
X185789389Y-111891564D01*
X185749000Y-111688516D01*
X185749000Y-111481484D01*
X185789389Y-111278436D01*
X185868615Y-111087167D01*
X185983635Y-110915027D01*
X186130027Y-110768635D01*
X186302165Y-110653616D01*
X186302167Y-110653615D01*
X186493436Y-110574389D01*
X186696484Y-110534000D01*
X186903516Y-110534000D01*
X187106564Y-110574389D01*
G37*
G36*
X193606564Y-110574389D02*
G01*
X193797833Y-110653615D01*
X193797835Y-110653616D01*
X193969973Y-110768635D01*
X194116365Y-110915027D01*
X194231385Y-111087167D01*
X194310611Y-111278436D01*
X194351000Y-111481484D01*
X194351000Y-111688516D01*
X194310611Y-111891564D01*
X194254166Y-112027835D01*
X194231384Y-112082835D01*
X194116365Y-112254973D01*
X193969973Y-112401365D01*
X193797835Y-112516384D01*
X193797834Y-112516385D01*
X193797833Y-112516385D01*
X193606564Y-112595611D01*
X193403516Y-112636000D01*
X193196484Y-112636000D01*
X192993436Y-112595611D01*
X192802167Y-112516385D01*
X192802166Y-112516385D01*
X192802165Y-112516384D01*
X192630027Y-112401365D01*
X192483635Y-112254973D01*
X192368616Y-112082835D01*
X192345834Y-112027835D01*
X192289389Y-111891564D01*
X192249000Y-111688516D01*
X192249000Y-111481484D01*
X192289389Y-111278436D01*
X192368615Y-111087167D01*
X192483635Y-110915027D01*
X192630027Y-110768635D01*
X192802165Y-110653616D01*
X192802167Y-110653615D01*
X192993436Y-110574389D01*
X193196484Y-110534000D01*
X193403516Y-110534000D01*
X193606564Y-110574389D01*
G37*
G36*
X205981564Y-110574389D02*
G01*
X206172833Y-110653615D01*
X206172835Y-110653616D01*
X206344973Y-110768635D01*
X206491365Y-110915027D01*
X206606385Y-111087167D01*
X206685611Y-111278436D01*
X206726000Y-111481484D01*
X206726000Y-111688516D01*
X206685611Y-111891564D01*
X206629166Y-112027835D01*
X206606384Y-112082835D01*
X206491365Y-112254973D01*
X206344973Y-112401365D01*
X206172835Y-112516384D01*
X206172834Y-112516385D01*
X206172833Y-112516385D01*
X205981564Y-112595611D01*
X205778516Y-112636000D01*
X205571484Y-112636000D01*
X205368436Y-112595611D01*
X205177167Y-112516385D01*
X205177166Y-112516385D01*
X205177165Y-112516384D01*
X205005027Y-112401365D01*
X204858635Y-112254973D01*
X204743616Y-112082835D01*
X204720834Y-112027835D01*
X204664389Y-111891564D01*
X204624000Y-111688516D01*
X204624000Y-111481484D01*
X204664389Y-111278436D01*
X204743615Y-111087167D01*
X204858635Y-110915027D01*
X205005027Y-110768635D01*
X205177165Y-110653616D01*
X205177167Y-110653615D01*
X205368436Y-110574389D01*
X205571484Y-110534000D01*
X205778516Y-110534000D01*
X205981564Y-110574389D01*
G37*
G36*
X212481564Y-110574389D02*
G01*
X212672833Y-110653615D01*
X212672835Y-110653616D01*
X212844973Y-110768635D01*
X212991365Y-110915027D01*
X213106385Y-111087167D01*
X213185611Y-111278436D01*
X213226000Y-111481484D01*
X213226000Y-111688516D01*
X213185611Y-111891564D01*
X213129166Y-112027835D01*
X213106384Y-112082835D01*
X212991365Y-112254973D01*
X212844973Y-112401365D01*
X212672835Y-112516384D01*
X212672834Y-112516385D01*
X212672833Y-112516385D01*
X212481564Y-112595611D01*
X212278516Y-112636000D01*
X212071484Y-112636000D01*
X211868436Y-112595611D01*
X211677167Y-112516385D01*
X211677166Y-112516385D01*
X211677165Y-112516384D01*
X211505027Y-112401365D01*
X211358635Y-112254973D01*
X211243616Y-112082835D01*
X211220834Y-112027835D01*
X211164389Y-111891564D01*
X211124000Y-111688516D01*
X211124000Y-111481484D01*
X211164389Y-111278436D01*
X211243615Y-111087167D01*
X211358635Y-110915027D01*
X211505027Y-110768635D01*
X211677165Y-110653616D01*
X211677167Y-110653615D01*
X211868436Y-110574389D01*
X212071484Y-110534000D01*
X212278516Y-110534000D01*
X212481564Y-110574389D01*
G37*
G36*
X121051564Y-110574389D02*
G01*
X121242833Y-110653615D01*
X121242835Y-110653616D01*
X121414973Y-110768635D01*
X121561365Y-110915027D01*
X121676385Y-111087167D01*
X121755611Y-111278436D01*
X121796000Y-111481484D01*
X121796000Y-111688516D01*
X121755611Y-111891564D01*
X121699166Y-112027835D01*
X121676384Y-112082835D01*
X121561365Y-112254973D01*
X121414973Y-112401365D01*
X121242835Y-112516384D01*
X121242834Y-112516385D01*
X121242833Y-112516385D01*
X121051564Y-112595611D01*
X120848516Y-112636000D01*
X120641484Y-112636000D01*
X120438436Y-112595611D01*
X120247167Y-112516385D01*
X120247166Y-112516385D01*
X120247165Y-112516384D01*
X120075027Y-112401365D01*
X119928635Y-112254973D01*
X119813616Y-112082835D01*
X119790834Y-112027835D01*
X119734389Y-111891564D01*
X119694000Y-111688516D01*
X119694000Y-111481484D01*
X119734389Y-111278436D01*
X119813615Y-111087167D01*
X119928635Y-110915027D01*
X120075027Y-110768635D01*
X120247165Y-110653616D01*
X120247167Y-110653615D01*
X120438436Y-110574389D01*
X120641484Y-110534000D01*
X120848516Y-110534000D01*
X121051564Y-110574389D01*
G37*
G36*
X182176564Y-110574389D02*
G01*
X182367833Y-110653615D01*
X182367835Y-110653616D01*
X182539973Y-110768635D01*
X182686365Y-110915027D01*
X182801385Y-111087167D01*
X182880611Y-111278436D01*
X182921000Y-111481484D01*
X182921000Y-111688516D01*
X182880611Y-111891564D01*
X182824166Y-112027835D01*
X182801384Y-112082835D01*
X182686365Y-112254973D01*
X182539973Y-112401365D01*
X182367835Y-112516384D01*
X182367834Y-112516385D01*
X182367833Y-112516385D01*
X182176564Y-112595611D01*
X181973516Y-112636000D01*
X181766484Y-112636000D01*
X181563436Y-112595611D01*
X181372167Y-112516385D01*
X181372166Y-112516385D01*
X181372165Y-112516384D01*
X181200027Y-112401365D01*
X181053635Y-112254973D01*
X180938616Y-112082835D01*
X180915834Y-112027835D01*
X180859389Y-111891564D01*
X180819000Y-111688516D01*
X180819000Y-111481484D01*
X180859389Y-111278436D01*
X180938615Y-111087167D01*
X181053635Y-110915027D01*
X181200027Y-110768635D01*
X181372165Y-110653616D01*
X181372167Y-110653615D01*
X181563436Y-110574389D01*
X181766484Y-110534000D01*
X181973516Y-110534000D01*
X182176564Y-110574389D01*
G37*
G36*
X99756564Y-110519389D02*
G01*
X99947833Y-110598615D01*
X99947835Y-110598616D01*
X100030147Y-110653615D01*
X100119973Y-110713635D01*
X100266365Y-110860027D01*
X100381385Y-111032167D01*
X100460611Y-111223436D01*
X100501000Y-111426484D01*
X100501000Y-111633516D01*
X100460611Y-111836564D01*
X100381385Y-112027833D01*
X100381384Y-112027835D01*
X100266365Y-112199973D01*
X100119973Y-112346365D01*
X99947835Y-112461384D01*
X99947834Y-112461385D01*
X99947833Y-112461385D01*
X99756564Y-112540611D01*
X99553516Y-112581000D01*
X99346484Y-112581000D01*
X99143436Y-112540611D01*
X98952167Y-112461385D01*
X98952166Y-112461385D01*
X98952165Y-112461384D01*
X98780027Y-112346365D01*
X98633635Y-112199973D01*
X98518616Y-112027835D01*
X98518615Y-112027833D01*
X98439389Y-111836564D01*
X98399000Y-111633516D01*
X98399000Y-111426484D01*
X98439389Y-111223436D01*
X98518615Y-111032167D01*
X98633635Y-110860027D01*
X98780027Y-110713635D01*
X98869853Y-110653615D01*
X98952165Y-110598616D01*
X98952167Y-110598615D01*
X99143436Y-110519389D01*
X99346484Y-110479000D01*
X99553516Y-110479000D01*
X99756564Y-110519389D01*
G37*
G36*
X106256564Y-110519389D02*
G01*
X106447833Y-110598615D01*
X106447835Y-110598616D01*
X106530147Y-110653615D01*
X106619973Y-110713635D01*
X106766365Y-110860027D01*
X106881385Y-111032167D01*
X106960611Y-111223436D01*
X107001000Y-111426484D01*
X107001000Y-111633516D01*
X106960611Y-111836564D01*
X106881385Y-112027833D01*
X106881384Y-112027835D01*
X106766365Y-112199973D01*
X106619973Y-112346365D01*
X106447835Y-112461384D01*
X106447834Y-112461385D01*
X106447833Y-112461385D01*
X106256564Y-112540611D01*
X106053516Y-112581000D01*
X105846484Y-112581000D01*
X105643436Y-112540611D01*
X105452167Y-112461385D01*
X105452166Y-112461385D01*
X105452165Y-112461384D01*
X105280027Y-112346365D01*
X105133635Y-112199973D01*
X105018616Y-112027835D01*
X105018615Y-112027833D01*
X104939389Y-111836564D01*
X104899000Y-111633516D01*
X104899000Y-111426484D01*
X104939389Y-111223436D01*
X105018615Y-111032167D01*
X105133635Y-110860027D01*
X105280027Y-110713635D01*
X105369853Y-110653615D01*
X105452165Y-110598616D01*
X105452167Y-110598615D01*
X105643436Y-110519389D01*
X105846484Y-110479000D01*
X106053516Y-110479000D01*
X106256564Y-110519389D01*
G37*
G36*
X93556564Y-105549389D02*
G01*
X93747833Y-105628615D01*
X93747835Y-105628616D01*
X93919973Y-105743635D01*
X94066365Y-105890027D01*
X94181385Y-106062167D01*
X94260611Y-106253436D01*
X94301000Y-106456484D01*
X94301000Y-106663516D01*
X94260611Y-106866564D01*
X94181385Y-107057833D01*
X94181384Y-107057835D01*
X94066365Y-107229973D01*
X93919973Y-107376365D01*
X93747835Y-107491384D01*
X93747834Y-107491385D01*
X93747833Y-107491385D01*
X93556564Y-107570611D01*
X93353516Y-107611000D01*
X93146484Y-107611000D01*
X92943436Y-107570611D01*
X92752167Y-107491385D01*
X92752166Y-107491385D01*
X92752165Y-107491384D01*
X92580027Y-107376365D01*
X92433635Y-107229973D01*
X92318616Y-107057835D01*
X92318615Y-107057833D01*
X92239389Y-106866564D01*
X92199000Y-106663516D01*
X92199000Y-106456484D01*
X92239389Y-106253436D01*
X92318615Y-106062167D01*
X92433635Y-105890027D01*
X92580027Y-105743635D01*
X92752165Y-105628616D01*
X92752167Y-105628615D01*
X92943436Y-105549389D01*
X93146484Y-105509000D01*
X93353516Y-105509000D01*
X93556564Y-105549389D01*
G37*
G36*
X181391564Y-105549389D02*
G01*
X181582833Y-105628615D01*
X181582835Y-105628616D01*
X181754973Y-105743635D01*
X181901365Y-105890027D01*
X182016385Y-106062167D01*
X182095611Y-106253436D01*
X182136000Y-106456484D01*
X182136000Y-106663516D01*
X182095611Y-106866564D01*
X182016385Y-107057833D01*
X182016384Y-107057835D01*
X181901365Y-107229973D01*
X181754973Y-107376365D01*
X181582835Y-107491384D01*
X181582834Y-107491385D01*
X181582833Y-107491385D01*
X181391564Y-107570611D01*
X181188516Y-107611000D01*
X180981484Y-107611000D01*
X180778436Y-107570611D01*
X180587167Y-107491385D01*
X180587166Y-107491385D01*
X180587165Y-107491384D01*
X180415027Y-107376365D01*
X180268635Y-107229973D01*
X180153616Y-107057835D01*
X180153615Y-107057833D01*
X180074389Y-106866564D01*
X180034000Y-106663516D01*
X180034000Y-106456484D01*
X180074389Y-106253436D01*
X180153615Y-106062167D01*
X180268635Y-105890027D01*
X180415027Y-105743635D01*
X180587165Y-105628616D01*
X180587167Y-105628615D01*
X180778436Y-105549389D01*
X180981484Y-105509000D01*
X181188516Y-105509000D01*
X181391564Y-105549389D01*
G37*
G36*
X155976564Y-105549389D02*
G01*
X156167833Y-105628615D01*
X156167835Y-105628616D01*
X156339973Y-105743635D01*
X156486365Y-105890027D01*
X156601385Y-106062167D01*
X156680611Y-106253436D01*
X156721000Y-106456484D01*
X156721000Y-106663516D01*
X156680611Y-106866564D01*
X156601385Y-107057833D01*
X156601384Y-107057835D01*
X156486365Y-107229973D01*
X156339973Y-107376365D01*
X156167835Y-107491384D01*
X156167834Y-107491385D01*
X156167833Y-107491385D01*
X155976564Y-107570611D01*
X155773516Y-107611000D01*
X155566484Y-107611000D01*
X155363436Y-107570611D01*
X155172167Y-107491385D01*
X155172166Y-107491385D01*
X155172165Y-107491384D01*
X155000027Y-107376365D01*
X154853635Y-107229973D01*
X154738616Y-107057835D01*
X154738615Y-107057833D01*
X154659389Y-106866564D01*
X154619000Y-106663516D01*
X154619000Y-106456484D01*
X154659389Y-106253436D01*
X154738615Y-106062167D01*
X154853635Y-105890027D01*
X155000027Y-105743635D01*
X155172165Y-105628616D01*
X155172167Y-105628615D01*
X155363436Y-105549389D01*
X155566484Y-105509000D01*
X155773516Y-105509000D01*
X155976564Y-105549389D01*
G37*
G36*
X187891564Y-105549389D02*
G01*
X188082833Y-105628615D01*
X188082835Y-105628616D01*
X188254973Y-105743635D01*
X188401365Y-105890027D01*
X188516385Y-106062167D01*
X188595611Y-106253436D01*
X188636000Y-106456484D01*
X188636000Y-106663516D01*
X188595611Y-106866564D01*
X188516385Y-107057833D01*
X188516384Y-107057835D01*
X188401365Y-107229973D01*
X188254973Y-107376365D01*
X188082835Y-107491384D01*
X188082834Y-107491385D01*
X188082833Y-107491385D01*
X187891564Y-107570611D01*
X187688516Y-107611000D01*
X187481484Y-107611000D01*
X187278436Y-107570611D01*
X187087167Y-107491385D01*
X187087166Y-107491385D01*
X187087165Y-107491384D01*
X186915027Y-107376365D01*
X186768635Y-107229973D01*
X186653616Y-107057835D01*
X186653615Y-107057833D01*
X186574389Y-106866564D01*
X186534000Y-106663516D01*
X186534000Y-106456484D01*
X186574389Y-106253436D01*
X186653615Y-106062167D01*
X186768635Y-105890027D01*
X186915027Y-105743635D01*
X187087165Y-105628616D01*
X187087167Y-105628615D01*
X187278436Y-105549389D01*
X187481484Y-105509000D01*
X187688516Y-105509000D01*
X187891564Y-105549389D01*
G37*
G36*
X169961564Y-105549389D02*
G01*
X170152833Y-105628615D01*
X170152835Y-105628616D01*
X170324973Y-105743635D01*
X170471365Y-105890027D01*
X170586385Y-106062167D01*
X170665611Y-106253436D01*
X170706000Y-106456484D01*
X170706000Y-106663516D01*
X170665611Y-106866564D01*
X170586385Y-107057833D01*
X170586384Y-107057835D01*
X170471365Y-107229973D01*
X170324973Y-107376365D01*
X170152835Y-107491384D01*
X170152834Y-107491385D01*
X170152833Y-107491385D01*
X169961564Y-107570611D01*
X169758516Y-107611000D01*
X169551484Y-107611000D01*
X169348436Y-107570611D01*
X169157167Y-107491385D01*
X169157166Y-107491385D01*
X169157165Y-107491384D01*
X168985027Y-107376365D01*
X168838635Y-107229973D01*
X168723616Y-107057835D01*
X168723615Y-107057833D01*
X168644389Y-106866564D01*
X168604000Y-106663516D01*
X168604000Y-106456484D01*
X168644389Y-106253436D01*
X168723615Y-106062167D01*
X168838635Y-105890027D01*
X168985027Y-105743635D01*
X169157165Y-105628616D01*
X169157167Y-105628615D01*
X169348436Y-105549389D01*
X169551484Y-105509000D01*
X169758516Y-105509000D01*
X169961564Y-105549389D01*
G37*
G36*
X111486564Y-105549389D02*
G01*
X111677833Y-105628615D01*
X111677835Y-105628616D01*
X111849973Y-105743635D01*
X111996365Y-105890027D01*
X112111385Y-106062167D01*
X112190611Y-106253436D01*
X112231000Y-106456484D01*
X112231000Y-106663516D01*
X112190611Y-106866564D01*
X112111385Y-107057833D01*
X112111384Y-107057835D01*
X111996365Y-107229973D01*
X111849973Y-107376365D01*
X111677835Y-107491384D01*
X111677834Y-107491385D01*
X111677833Y-107491385D01*
X111486564Y-107570611D01*
X111283516Y-107611000D01*
X111076484Y-107611000D01*
X110873436Y-107570611D01*
X110682167Y-107491385D01*
X110682166Y-107491385D01*
X110682165Y-107491384D01*
X110510027Y-107376365D01*
X110363635Y-107229973D01*
X110248616Y-107057835D01*
X110248615Y-107057833D01*
X110169389Y-106866564D01*
X110129000Y-106663516D01*
X110129000Y-106456484D01*
X110169389Y-106253436D01*
X110248615Y-106062167D01*
X110363635Y-105890027D01*
X110510027Y-105743635D01*
X110682165Y-105628616D01*
X110682167Y-105628615D01*
X110873436Y-105549389D01*
X111076484Y-105509000D01*
X111283516Y-105509000D01*
X111486564Y-105549389D01*
G37*
G36*
X104986564Y-105549389D02*
G01*
X105177833Y-105628615D01*
X105177835Y-105628616D01*
X105349973Y-105743635D01*
X105496365Y-105890027D01*
X105611385Y-106062167D01*
X105690611Y-106253436D01*
X105731000Y-106456484D01*
X105731000Y-106663516D01*
X105690611Y-106866564D01*
X105611385Y-107057833D01*
X105611384Y-107057835D01*
X105496365Y-107229973D01*
X105349973Y-107376365D01*
X105177835Y-107491384D01*
X105177834Y-107491385D01*
X105177833Y-107491385D01*
X104986564Y-107570611D01*
X104783516Y-107611000D01*
X104576484Y-107611000D01*
X104373436Y-107570611D01*
X104182167Y-107491385D01*
X104182166Y-107491385D01*
X104182165Y-107491384D01*
X104010027Y-107376365D01*
X103863635Y-107229973D01*
X103748616Y-107057835D01*
X103748615Y-107057833D01*
X103669389Y-106866564D01*
X103629000Y-106663516D01*
X103629000Y-106456484D01*
X103669389Y-106253436D01*
X103748615Y-106062167D01*
X103863635Y-105890027D01*
X104010027Y-105743635D01*
X104182165Y-105628616D01*
X104182167Y-105628615D01*
X104373436Y-105549389D01*
X104576484Y-105509000D01*
X104783516Y-105509000D01*
X104986564Y-105549389D01*
G37*
G36*
X100056564Y-105549389D02*
G01*
X100247833Y-105628615D01*
X100247835Y-105628616D01*
X100419973Y-105743635D01*
X100566365Y-105890027D01*
X100681385Y-106062167D01*
X100760611Y-106253436D01*
X100801000Y-106456484D01*
X100801000Y-106663516D01*
X100760611Y-106866564D01*
X100681385Y-107057833D01*
X100681384Y-107057835D01*
X100566365Y-107229973D01*
X100419973Y-107376365D01*
X100247835Y-107491384D01*
X100247834Y-107491385D01*
X100247833Y-107491385D01*
X100056564Y-107570611D01*
X99853516Y-107611000D01*
X99646484Y-107611000D01*
X99443436Y-107570611D01*
X99252167Y-107491385D01*
X99252166Y-107491385D01*
X99252165Y-107491384D01*
X99080027Y-107376365D01*
X98933635Y-107229973D01*
X98818616Y-107057835D01*
X98818615Y-107057833D01*
X98739389Y-106866564D01*
X98699000Y-106663516D01*
X98699000Y-106456484D01*
X98739389Y-106253436D01*
X98818615Y-106062167D01*
X98933635Y-105890027D01*
X99080027Y-105743635D01*
X99252165Y-105628616D01*
X99252167Y-105628615D01*
X99443436Y-105549389D01*
X99646484Y-105509000D01*
X99853516Y-105509000D01*
X100056564Y-105549389D01*
G37*
G36*
X126766564Y-105549389D02*
G01*
X126957833Y-105628615D01*
X126957835Y-105628616D01*
X127129973Y-105743635D01*
X127276365Y-105890027D01*
X127391385Y-106062167D01*
X127470611Y-106253436D01*
X127511000Y-106456484D01*
X127511000Y-106663516D01*
X127470611Y-106866564D01*
X127391385Y-107057833D01*
X127391384Y-107057835D01*
X127276365Y-107229973D01*
X127129973Y-107376365D01*
X126957835Y-107491384D01*
X126957834Y-107491385D01*
X126957833Y-107491385D01*
X126766564Y-107570611D01*
X126563516Y-107611000D01*
X126356484Y-107611000D01*
X126153436Y-107570611D01*
X125962167Y-107491385D01*
X125962166Y-107491385D01*
X125962165Y-107491384D01*
X125790027Y-107376365D01*
X125643635Y-107229973D01*
X125528616Y-107057835D01*
X125528615Y-107057833D01*
X125449389Y-106866564D01*
X125409000Y-106663516D01*
X125409000Y-106456484D01*
X125449389Y-106253436D01*
X125528615Y-106062167D01*
X125643635Y-105890027D01*
X125790027Y-105743635D01*
X125962165Y-105628616D01*
X125962167Y-105628615D01*
X126153436Y-105549389D01*
X126356484Y-105509000D01*
X126563516Y-105509000D01*
X126766564Y-105549389D01*
G37*
G36*
X133266564Y-105549389D02*
G01*
X133457833Y-105628615D01*
X133457835Y-105628616D01*
X133629973Y-105743635D01*
X133776365Y-105890027D01*
X133891385Y-106062167D01*
X133970611Y-106253436D01*
X134011000Y-106456484D01*
X134011000Y-106663516D01*
X133970611Y-106866564D01*
X133891385Y-107057833D01*
X133891384Y-107057835D01*
X133776365Y-107229973D01*
X133629973Y-107376365D01*
X133457835Y-107491384D01*
X133457834Y-107491385D01*
X133457833Y-107491385D01*
X133266564Y-107570611D01*
X133063516Y-107611000D01*
X132856484Y-107611000D01*
X132653436Y-107570611D01*
X132462167Y-107491385D01*
X132462166Y-107491385D01*
X132462165Y-107491384D01*
X132290027Y-107376365D01*
X132143635Y-107229973D01*
X132028616Y-107057835D01*
X132028615Y-107057833D01*
X131949389Y-106866564D01*
X131909000Y-106663516D01*
X131909000Y-106456484D01*
X131949389Y-106253436D01*
X132028615Y-106062167D01*
X132143635Y-105890027D01*
X132290027Y-105743635D01*
X132462165Y-105628616D01*
X132462167Y-105628615D01*
X132653436Y-105549389D01*
X132856484Y-105509000D01*
X133063516Y-105509000D01*
X133266564Y-105549389D01*
G37*
G36*
X138196564Y-105549389D02*
G01*
X138387833Y-105628615D01*
X138387835Y-105628616D01*
X138559973Y-105743635D01*
X138706365Y-105890027D01*
X138821385Y-106062167D01*
X138900611Y-106253436D01*
X138941000Y-106456484D01*
X138941000Y-106663516D01*
X138900611Y-106866564D01*
X138821385Y-107057833D01*
X138821384Y-107057835D01*
X138706365Y-107229973D01*
X138559973Y-107376365D01*
X138387835Y-107491384D01*
X138387834Y-107491385D01*
X138387833Y-107491385D01*
X138196564Y-107570611D01*
X137993516Y-107611000D01*
X137786484Y-107611000D01*
X137583436Y-107570611D01*
X137392167Y-107491385D01*
X137392166Y-107491385D01*
X137392165Y-107491384D01*
X137220027Y-107376365D01*
X137073635Y-107229973D01*
X136958616Y-107057835D01*
X136958615Y-107057833D01*
X136879389Y-106866564D01*
X136839000Y-106663516D01*
X136839000Y-106456484D01*
X136879389Y-106253436D01*
X136958615Y-106062167D01*
X137073635Y-105890027D01*
X137220027Y-105743635D01*
X137392165Y-105628616D01*
X137392167Y-105628615D01*
X137583436Y-105549389D01*
X137786484Y-105509000D01*
X137993516Y-105509000D01*
X138196564Y-105549389D01*
G37*
G36*
X144696564Y-105549389D02*
G01*
X144887833Y-105628615D01*
X144887835Y-105628616D01*
X145059973Y-105743635D01*
X145206365Y-105890027D01*
X145321385Y-106062167D01*
X145400611Y-106253436D01*
X145441000Y-106456484D01*
X145441000Y-106663516D01*
X145400611Y-106866564D01*
X145321385Y-107057833D01*
X145321384Y-107057835D01*
X145206365Y-107229973D01*
X145059973Y-107376365D01*
X144887835Y-107491384D01*
X144887834Y-107491385D01*
X144887833Y-107491385D01*
X144696564Y-107570611D01*
X144493516Y-107611000D01*
X144286484Y-107611000D01*
X144083436Y-107570611D01*
X143892167Y-107491385D01*
X143892166Y-107491385D01*
X143892165Y-107491384D01*
X143720027Y-107376365D01*
X143573635Y-107229973D01*
X143458616Y-107057835D01*
X143458615Y-107057833D01*
X143379389Y-106866564D01*
X143339000Y-106663516D01*
X143339000Y-106456484D01*
X143379389Y-106253436D01*
X143458615Y-106062167D01*
X143573635Y-105890027D01*
X143720027Y-105743635D01*
X143892165Y-105628616D01*
X143892167Y-105628615D01*
X144083436Y-105549389D01*
X144286484Y-105509000D01*
X144493516Y-105509000D01*
X144696564Y-105549389D01*
G37*
G36*
X149476564Y-105549389D02*
G01*
X149667833Y-105628615D01*
X149667835Y-105628616D01*
X149839973Y-105743635D01*
X149986365Y-105890027D01*
X150101385Y-106062167D01*
X150180611Y-106253436D01*
X150221000Y-106456484D01*
X150221000Y-106663516D01*
X150180611Y-106866564D01*
X150101385Y-107057833D01*
X150101384Y-107057835D01*
X149986365Y-107229973D01*
X149839973Y-107376365D01*
X149667835Y-107491384D01*
X149667834Y-107491385D01*
X149667833Y-107491385D01*
X149476564Y-107570611D01*
X149273516Y-107611000D01*
X149066484Y-107611000D01*
X148863436Y-107570611D01*
X148672167Y-107491385D01*
X148672166Y-107491385D01*
X148672165Y-107491384D01*
X148500027Y-107376365D01*
X148353635Y-107229973D01*
X148238616Y-107057835D01*
X148238615Y-107057833D01*
X148159389Y-106866564D01*
X148119000Y-106663516D01*
X148119000Y-106456484D01*
X148159389Y-106253436D01*
X148238615Y-106062167D01*
X148353635Y-105890027D01*
X148500027Y-105743635D01*
X148672165Y-105628616D01*
X148672167Y-105628615D01*
X148863436Y-105549389D01*
X149066484Y-105509000D01*
X149273516Y-105509000D01*
X149476564Y-105549389D01*
G37*
G36*
X176461564Y-105549389D02*
G01*
X176652833Y-105628615D01*
X176652835Y-105628616D01*
X176824973Y-105743635D01*
X176971365Y-105890027D01*
X177086385Y-106062167D01*
X177165611Y-106253436D01*
X177206000Y-106456484D01*
X177206000Y-106663516D01*
X177165611Y-106866564D01*
X177086385Y-107057833D01*
X177086384Y-107057835D01*
X176971365Y-107229973D01*
X176824973Y-107376365D01*
X176652835Y-107491384D01*
X176652834Y-107491385D01*
X176652833Y-107491385D01*
X176461564Y-107570611D01*
X176258516Y-107611000D01*
X176051484Y-107611000D01*
X175848436Y-107570611D01*
X175657167Y-107491385D01*
X175657166Y-107491385D01*
X175657165Y-107491384D01*
X175485027Y-107376365D01*
X175338635Y-107229973D01*
X175223616Y-107057835D01*
X175223615Y-107057833D01*
X175144389Y-106866564D01*
X175104000Y-106663516D01*
X175104000Y-106456484D01*
X175144389Y-106253436D01*
X175223615Y-106062167D01*
X175338635Y-105890027D01*
X175485027Y-105743635D01*
X175657165Y-105628616D01*
X175657167Y-105628615D01*
X175848436Y-105549389D01*
X176051484Y-105509000D01*
X176258516Y-105509000D01*
X176461564Y-105549389D01*
G37*
G36*
X93556564Y-101049389D02*
G01*
X93747833Y-101128615D01*
X93747835Y-101128616D01*
X93919973Y-101243635D01*
X94066365Y-101390027D01*
X94181385Y-101562167D01*
X94260611Y-101753436D01*
X94301000Y-101956484D01*
X94301000Y-102163516D01*
X94260611Y-102366564D01*
X94181385Y-102557833D01*
X94181384Y-102557835D01*
X94066365Y-102729973D01*
X93919973Y-102876365D01*
X93747835Y-102991384D01*
X93747834Y-102991385D01*
X93747833Y-102991385D01*
X93556564Y-103070611D01*
X93353516Y-103111000D01*
X93146484Y-103111000D01*
X92943436Y-103070611D01*
X92752167Y-102991385D01*
X92752166Y-102991385D01*
X92752165Y-102991384D01*
X92580027Y-102876365D01*
X92433635Y-102729973D01*
X92318616Y-102557835D01*
X92318615Y-102557833D01*
X92239389Y-102366564D01*
X92199000Y-102163516D01*
X92199000Y-101956484D01*
X92239389Y-101753436D01*
X92318615Y-101562167D01*
X92433635Y-101390027D01*
X92580027Y-101243635D01*
X92752165Y-101128616D01*
X92752167Y-101128615D01*
X92943436Y-101049389D01*
X93146484Y-101009000D01*
X93353516Y-101009000D01*
X93556564Y-101049389D01*
G37*
G36*
X155976564Y-101049389D02*
G01*
X156167833Y-101128615D01*
X156167835Y-101128616D01*
X156339973Y-101243635D01*
X156486365Y-101390027D01*
X156601385Y-101562167D01*
X156680611Y-101753436D01*
X156721000Y-101956484D01*
X156721000Y-102163516D01*
X156680611Y-102366564D01*
X156601385Y-102557833D01*
X156601384Y-102557835D01*
X156486365Y-102729973D01*
X156339973Y-102876365D01*
X156167835Y-102991384D01*
X156167834Y-102991385D01*
X156167833Y-102991385D01*
X155976564Y-103070611D01*
X155773516Y-103111000D01*
X155566484Y-103111000D01*
X155363436Y-103070611D01*
X155172167Y-102991385D01*
X155172166Y-102991385D01*
X155172165Y-102991384D01*
X155000027Y-102876365D01*
X154853635Y-102729973D01*
X154738616Y-102557835D01*
X154738615Y-102557833D01*
X154659389Y-102366564D01*
X154619000Y-102163516D01*
X154619000Y-101956484D01*
X154659389Y-101753436D01*
X154738615Y-101562167D01*
X154853635Y-101390027D01*
X155000027Y-101243635D01*
X155172165Y-101128616D01*
X155172167Y-101128615D01*
X155363436Y-101049389D01*
X155566484Y-101009000D01*
X155773516Y-101009000D01*
X155976564Y-101049389D01*
G37*
G36*
X100056564Y-101049389D02*
G01*
X100247833Y-101128615D01*
X100247835Y-101128616D01*
X100419973Y-101243635D01*
X100566365Y-101390027D01*
X100681385Y-101562167D01*
X100760611Y-101753436D01*
X100801000Y-101956484D01*
X100801000Y-102163516D01*
X100760611Y-102366564D01*
X100681385Y-102557833D01*
X100681384Y-102557835D01*
X100566365Y-102729973D01*
X100419973Y-102876365D01*
X100247835Y-102991384D01*
X100247834Y-102991385D01*
X100247833Y-102991385D01*
X100056564Y-103070611D01*
X99853516Y-103111000D01*
X99646484Y-103111000D01*
X99443436Y-103070611D01*
X99252167Y-102991385D01*
X99252166Y-102991385D01*
X99252165Y-102991384D01*
X99080027Y-102876365D01*
X98933635Y-102729973D01*
X98818616Y-102557835D01*
X98818615Y-102557833D01*
X98739389Y-102366564D01*
X98699000Y-102163516D01*
X98699000Y-101956484D01*
X98739389Y-101753436D01*
X98818615Y-101562167D01*
X98933635Y-101390027D01*
X99080027Y-101243635D01*
X99252165Y-101128616D01*
X99252167Y-101128615D01*
X99443436Y-101049389D01*
X99646484Y-101009000D01*
X99853516Y-101009000D01*
X100056564Y-101049389D01*
G37*
G36*
X104986564Y-101049389D02*
G01*
X105177833Y-101128615D01*
X105177835Y-101128616D01*
X105349973Y-101243635D01*
X105496365Y-101390027D01*
X105611385Y-101562167D01*
X105690611Y-101753436D01*
X105731000Y-101956484D01*
X105731000Y-102163516D01*
X105690611Y-102366564D01*
X105611385Y-102557833D01*
X105611384Y-102557835D01*
X105496365Y-102729973D01*
X105349973Y-102876365D01*
X105177835Y-102991384D01*
X105177834Y-102991385D01*
X105177833Y-102991385D01*
X104986564Y-103070611D01*
X104783516Y-103111000D01*
X104576484Y-103111000D01*
X104373436Y-103070611D01*
X104182167Y-102991385D01*
X104182166Y-102991385D01*
X104182165Y-102991384D01*
X104010027Y-102876365D01*
X103863635Y-102729973D01*
X103748616Y-102557835D01*
X103748615Y-102557833D01*
X103669389Y-102366564D01*
X103629000Y-102163516D01*
X103629000Y-101956484D01*
X103669389Y-101753436D01*
X103748615Y-101562167D01*
X103863635Y-101390027D01*
X104010027Y-101243635D01*
X104182165Y-101128616D01*
X104182167Y-101128615D01*
X104373436Y-101049389D01*
X104576484Y-101009000D01*
X104783516Y-101009000D01*
X104986564Y-101049389D01*
G37*
G36*
X111486564Y-101049389D02*
G01*
X111677833Y-101128615D01*
X111677835Y-101128616D01*
X111849973Y-101243635D01*
X111996365Y-101390027D01*
X112111385Y-101562167D01*
X112190611Y-101753436D01*
X112231000Y-101956484D01*
X112231000Y-102163516D01*
X112190611Y-102366564D01*
X112111385Y-102557833D01*
X112111384Y-102557835D01*
X111996365Y-102729973D01*
X111849973Y-102876365D01*
X111677835Y-102991384D01*
X111677834Y-102991385D01*
X111677833Y-102991385D01*
X111486564Y-103070611D01*
X111283516Y-103111000D01*
X111076484Y-103111000D01*
X110873436Y-103070611D01*
X110682167Y-102991385D01*
X110682166Y-102991385D01*
X110682165Y-102991384D01*
X110510027Y-102876365D01*
X110363635Y-102729973D01*
X110248616Y-102557835D01*
X110248615Y-102557833D01*
X110169389Y-102366564D01*
X110129000Y-102163516D01*
X110129000Y-101956484D01*
X110169389Y-101753436D01*
X110248615Y-101562167D01*
X110363635Y-101390027D01*
X110510027Y-101243635D01*
X110682165Y-101128616D01*
X110682167Y-101128615D01*
X110873436Y-101049389D01*
X111076484Y-101009000D01*
X111283516Y-101009000D01*
X111486564Y-101049389D01*
G37*
G36*
X126766564Y-101049389D02*
G01*
X126957833Y-101128615D01*
X126957835Y-101128616D01*
X127129973Y-101243635D01*
X127276365Y-101390027D01*
X127391385Y-101562167D01*
X127470611Y-101753436D01*
X127511000Y-101956484D01*
X127511000Y-102163516D01*
X127470611Y-102366564D01*
X127391385Y-102557833D01*
X127391384Y-102557835D01*
X127276365Y-102729973D01*
X127129973Y-102876365D01*
X126957835Y-102991384D01*
X126957834Y-102991385D01*
X126957833Y-102991385D01*
X126766564Y-103070611D01*
X126563516Y-103111000D01*
X126356484Y-103111000D01*
X126153436Y-103070611D01*
X125962167Y-102991385D01*
X125962166Y-102991385D01*
X125962165Y-102991384D01*
X125790027Y-102876365D01*
X125643635Y-102729973D01*
X125528616Y-102557835D01*
X125528615Y-102557833D01*
X125449389Y-102366564D01*
X125409000Y-102163516D01*
X125409000Y-101956484D01*
X125449389Y-101753436D01*
X125528615Y-101562167D01*
X125643635Y-101390027D01*
X125790027Y-101243635D01*
X125962165Y-101128616D01*
X125962167Y-101128615D01*
X126153436Y-101049389D01*
X126356484Y-101009000D01*
X126563516Y-101009000D01*
X126766564Y-101049389D01*
G37*
G36*
X133266564Y-101049389D02*
G01*
X133457833Y-101128615D01*
X133457835Y-101128616D01*
X133629973Y-101243635D01*
X133776365Y-101390027D01*
X133891385Y-101562167D01*
X133970611Y-101753436D01*
X134011000Y-101956484D01*
X134011000Y-102163516D01*
X133970611Y-102366564D01*
X133891385Y-102557833D01*
X133891384Y-102557835D01*
X133776365Y-102729973D01*
X133629973Y-102876365D01*
X133457835Y-102991384D01*
X133457834Y-102991385D01*
X133457833Y-102991385D01*
X133266564Y-103070611D01*
X133063516Y-103111000D01*
X132856484Y-103111000D01*
X132653436Y-103070611D01*
X132462167Y-102991385D01*
X132462166Y-102991385D01*
X132462165Y-102991384D01*
X132290027Y-102876365D01*
X132143635Y-102729973D01*
X132028616Y-102557835D01*
X132028615Y-102557833D01*
X131949389Y-102366564D01*
X131909000Y-102163516D01*
X131909000Y-101956484D01*
X131949389Y-101753436D01*
X132028615Y-101562167D01*
X132143635Y-101390027D01*
X132290027Y-101243635D01*
X132462165Y-101128616D01*
X132462167Y-101128615D01*
X132653436Y-101049389D01*
X132856484Y-101009000D01*
X133063516Y-101009000D01*
X133266564Y-101049389D01*
G37*
G36*
X169961564Y-101049389D02*
G01*
X170152833Y-101128615D01*
X170152835Y-101128616D01*
X170324973Y-101243635D01*
X170471365Y-101390027D01*
X170586385Y-101562167D01*
X170665611Y-101753436D01*
X170706000Y-101956484D01*
X170706000Y-102163516D01*
X170665611Y-102366564D01*
X170586385Y-102557833D01*
X170586384Y-102557835D01*
X170471365Y-102729973D01*
X170324973Y-102876365D01*
X170152835Y-102991384D01*
X170152834Y-102991385D01*
X170152833Y-102991385D01*
X169961564Y-103070611D01*
X169758516Y-103111000D01*
X169551484Y-103111000D01*
X169348436Y-103070611D01*
X169157167Y-102991385D01*
X169157166Y-102991385D01*
X169157165Y-102991384D01*
X168985027Y-102876365D01*
X168838635Y-102729973D01*
X168723616Y-102557835D01*
X168723615Y-102557833D01*
X168644389Y-102366564D01*
X168604000Y-102163516D01*
X168604000Y-101956484D01*
X168644389Y-101753436D01*
X168723615Y-101562167D01*
X168838635Y-101390027D01*
X168985027Y-101243635D01*
X169157165Y-101128616D01*
X169157167Y-101128615D01*
X169348436Y-101049389D01*
X169551484Y-101009000D01*
X169758516Y-101009000D01*
X169961564Y-101049389D01*
G37*
G36*
X144696564Y-101049389D02*
G01*
X144887833Y-101128615D01*
X144887835Y-101128616D01*
X145059973Y-101243635D01*
X145206365Y-101390027D01*
X145321385Y-101562167D01*
X145400611Y-101753436D01*
X145441000Y-101956484D01*
X145441000Y-102163516D01*
X145400611Y-102366564D01*
X145321385Y-102557833D01*
X145321384Y-102557835D01*
X145206365Y-102729973D01*
X145059973Y-102876365D01*
X144887835Y-102991384D01*
X144887834Y-102991385D01*
X144887833Y-102991385D01*
X144696564Y-103070611D01*
X144493516Y-103111000D01*
X144286484Y-103111000D01*
X144083436Y-103070611D01*
X143892167Y-102991385D01*
X143892166Y-102991385D01*
X143892165Y-102991384D01*
X143720027Y-102876365D01*
X143573635Y-102729973D01*
X143458616Y-102557835D01*
X143458615Y-102557833D01*
X143379389Y-102366564D01*
X143339000Y-102163516D01*
X143339000Y-101956484D01*
X143379389Y-101753436D01*
X143458615Y-101562167D01*
X143573635Y-101390027D01*
X143720027Y-101243635D01*
X143892165Y-101128616D01*
X143892167Y-101128615D01*
X144083436Y-101049389D01*
X144286484Y-101009000D01*
X144493516Y-101009000D01*
X144696564Y-101049389D01*
G37*
G36*
X149476564Y-101049389D02*
G01*
X149667833Y-101128615D01*
X149667835Y-101128616D01*
X149839973Y-101243635D01*
X149986365Y-101390027D01*
X150101385Y-101562167D01*
X150180611Y-101753436D01*
X150221000Y-101956484D01*
X150221000Y-102163516D01*
X150180611Y-102366564D01*
X150101385Y-102557833D01*
X150101384Y-102557835D01*
X149986365Y-102729973D01*
X149839973Y-102876365D01*
X149667835Y-102991384D01*
X149667834Y-102991385D01*
X149667833Y-102991385D01*
X149476564Y-103070611D01*
X149273516Y-103111000D01*
X149066484Y-103111000D01*
X148863436Y-103070611D01*
X148672167Y-102991385D01*
X148672166Y-102991385D01*
X148672165Y-102991384D01*
X148500027Y-102876365D01*
X148353635Y-102729973D01*
X148238616Y-102557835D01*
X148238615Y-102557833D01*
X148159389Y-102366564D01*
X148119000Y-102163516D01*
X148119000Y-101956484D01*
X148159389Y-101753436D01*
X148238615Y-101562167D01*
X148353635Y-101390027D01*
X148500027Y-101243635D01*
X148672165Y-101128616D01*
X148672167Y-101128615D01*
X148863436Y-101049389D01*
X149066484Y-101009000D01*
X149273516Y-101009000D01*
X149476564Y-101049389D01*
G37*
G36*
X181391564Y-101049389D02*
G01*
X181582833Y-101128615D01*
X181582835Y-101128616D01*
X181754973Y-101243635D01*
X181901365Y-101390027D01*
X182016385Y-101562167D01*
X182095611Y-101753436D01*
X182136000Y-101956484D01*
X182136000Y-102163516D01*
X182095611Y-102366564D01*
X182016385Y-102557833D01*
X182016384Y-102557835D01*
X181901365Y-102729973D01*
X181754973Y-102876365D01*
X181582835Y-102991384D01*
X181582834Y-102991385D01*
X181582833Y-102991385D01*
X181391564Y-103070611D01*
X181188516Y-103111000D01*
X180981484Y-103111000D01*
X180778436Y-103070611D01*
X180587167Y-102991385D01*
X180587166Y-102991385D01*
X180587165Y-102991384D01*
X180415027Y-102876365D01*
X180268635Y-102729973D01*
X180153616Y-102557835D01*
X180153615Y-102557833D01*
X180074389Y-102366564D01*
X180034000Y-102163516D01*
X180034000Y-101956484D01*
X180074389Y-101753436D01*
X180153615Y-101562167D01*
X180268635Y-101390027D01*
X180415027Y-101243635D01*
X180587165Y-101128616D01*
X180587167Y-101128615D01*
X180778436Y-101049389D01*
X180981484Y-101009000D01*
X181188516Y-101009000D01*
X181391564Y-101049389D01*
G37*
G36*
X187891564Y-101049389D02*
G01*
X188082833Y-101128615D01*
X188082835Y-101128616D01*
X188254973Y-101243635D01*
X188401365Y-101390027D01*
X188516385Y-101562167D01*
X188595611Y-101753436D01*
X188636000Y-101956484D01*
X188636000Y-102163516D01*
X188595611Y-102366564D01*
X188516385Y-102557833D01*
X188516384Y-102557835D01*
X188401365Y-102729973D01*
X188254973Y-102876365D01*
X188082835Y-102991384D01*
X188082834Y-102991385D01*
X188082833Y-102991385D01*
X187891564Y-103070611D01*
X187688516Y-103111000D01*
X187481484Y-103111000D01*
X187278436Y-103070611D01*
X187087167Y-102991385D01*
X187087166Y-102991385D01*
X187087165Y-102991384D01*
X186915027Y-102876365D01*
X186768635Y-102729973D01*
X186653616Y-102557835D01*
X186653615Y-102557833D01*
X186574389Y-102366564D01*
X186534000Y-102163516D01*
X186534000Y-101956484D01*
X186574389Y-101753436D01*
X186653615Y-101562167D01*
X186768635Y-101390027D01*
X186915027Y-101243635D01*
X187087165Y-101128616D01*
X187087167Y-101128615D01*
X187278436Y-101049389D01*
X187481484Y-101009000D01*
X187688516Y-101009000D01*
X187891564Y-101049389D01*
G37*
G36*
X176461564Y-101049389D02*
G01*
X176652833Y-101128615D01*
X176652835Y-101128616D01*
X176824973Y-101243635D01*
X176971365Y-101390027D01*
X177086385Y-101562167D01*
X177165611Y-101753436D01*
X177206000Y-101956484D01*
X177206000Y-102163516D01*
X177165611Y-102366564D01*
X177086385Y-102557833D01*
X177086384Y-102557835D01*
X176971365Y-102729973D01*
X176824973Y-102876365D01*
X176652835Y-102991384D01*
X176652834Y-102991385D01*
X176652833Y-102991385D01*
X176461564Y-103070611D01*
X176258516Y-103111000D01*
X176051484Y-103111000D01*
X175848436Y-103070611D01*
X175657167Y-102991385D01*
X175657166Y-102991385D01*
X175657165Y-102991384D01*
X175485027Y-102876365D01*
X175338635Y-102729973D01*
X175223616Y-102557835D01*
X175223615Y-102557833D01*
X175144389Y-102366564D01*
X175104000Y-102163516D01*
X175104000Y-101956484D01*
X175144389Y-101753436D01*
X175223615Y-101562167D01*
X175338635Y-101390027D01*
X175485027Y-101243635D01*
X175657165Y-101128616D01*
X175657167Y-101128615D01*
X175848436Y-101049389D01*
X176051484Y-101009000D01*
X176258516Y-101009000D01*
X176461564Y-101049389D01*
G37*
G36*
X138196564Y-101049389D02*
G01*
X138387833Y-101128615D01*
X138387835Y-101128616D01*
X138559973Y-101243635D01*
X138706365Y-101390027D01*
X138821385Y-101562167D01*
X138900611Y-101753436D01*
X138941000Y-101956484D01*
X138941000Y-102163516D01*
X138900611Y-102366564D01*
X138821385Y-102557833D01*
X138821384Y-102557835D01*
X138706365Y-102729973D01*
X138559973Y-102876365D01*
X138387835Y-102991384D01*
X138387834Y-102991385D01*
X138387833Y-102991385D01*
X138196564Y-103070611D01*
X137993516Y-103111000D01*
X137786484Y-103111000D01*
X137583436Y-103070611D01*
X137392167Y-102991385D01*
X137392166Y-102991385D01*
X137392165Y-102991384D01*
X137220027Y-102876365D01*
X137073635Y-102729973D01*
X136958616Y-102557835D01*
X136958615Y-102557833D01*
X136879389Y-102366564D01*
X136839000Y-102163516D01*
X136839000Y-101956484D01*
X136879389Y-101753436D01*
X136958615Y-101562167D01*
X137073635Y-101390027D01*
X137220027Y-101243635D01*
X137392165Y-101128616D01*
X137392167Y-101128615D01*
X137583436Y-101049389D01*
X137786484Y-101009000D01*
X137993516Y-101009000D01*
X138196564Y-101049389D01*
G37*
G36*
X182358512Y-88638927D02*
G01*
X182507812Y-88668624D01*
X182671784Y-88736544D01*
X182819354Y-88835147D01*
X182944853Y-88960646D01*
X183043456Y-89108216D01*
X183111376Y-89272188D01*
X183146000Y-89446259D01*
X183146000Y-89623741D01*
X183111376Y-89797812D01*
X183043456Y-89961784D01*
X182944853Y-90109354D01*
X182819354Y-90234853D01*
X182671784Y-90333456D01*
X182507812Y-90401376D01*
X182358512Y-90431073D01*
X182333742Y-90436000D01*
X182156258Y-90436000D01*
X182131488Y-90431073D01*
X181982188Y-90401376D01*
X181818216Y-90333456D01*
X181670646Y-90234853D01*
X181545147Y-90109354D01*
X181446544Y-89961784D01*
X181378624Y-89797812D01*
X181344000Y-89623741D01*
X181344000Y-89446259D01*
X181378624Y-89272188D01*
X181446544Y-89108216D01*
X181545147Y-88960646D01*
X181670646Y-88835147D01*
X181818216Y-88736544D01*
X181982188Y-88668624D01*
X182131488Y-88638927D01*
X182156258Y-88634000D01*
X182333742Y-88634000D01*
X182358512Y-88638927D01*
G37*
G36*
X179818512Y-88638927D02*
G01*
X179967812Y-88668624D01*
X180131784Y-88736544D01*
X180279354Y-88835147D01*
X180404853Y-88960646D01*
X180503456Y-89108216D01*
X180571376Y-89272188D01*
X180606000Y-89446259D01*
X180606000Y-89623741D01*
X180571376Y-89797812D01*
X180503456Y-89961784D01*
X180404853Y-90109354D01*
X180279354Y-90234853D01*
X180131784Y-90333456D01*
X179967812Y-90401376D01*
X179818512Y-90431073D01*
X179793742Y-90436000D01*
X179616258Y-90436000D01*
X179591488Y-90431073D01*
X179442188Y-90401376D01*
X179278216Y-90333456D01*
X179130646Y-90234853D01*
X179005147Y-90109354D01*
X178906544Y-89961784D01*
X178838624Y-89797812D01*
X178804000Y-89623741D01*
X178804000Y-89446259D01*
X178838624Y-89272188D01*
X178906544Y-89108216D01*
X179005147Y-88960646D01*
X179130646Y-88835147D01*
X179278216Y-88736544D01*
X179442188Y-88668624D01*
X179591488Y-88638927D01*
X179616258Y-88634000D01*
X179793742Y-88634000D01*
X179818512Y-88638927D01*
G37*
G36*
X174738512Y-88638927D02*
G01*
X174887812Y-88668624D01*
X175051784Y-88736544D01*
X175199354Y-88835147D01*
X175324853Y-88960646D01*
X175423456Y-89108216D01*
X175491376Y-89272188D01*
X175526000Y-89446259D01*
X175526000Y-89623741D01*
X175491376Y-89797812D01*
X175423456Y-89961784D01*
X175324853Y-90109354D01*
X175199354Y-90234853D01*
X175051784Y-90333456D01*
X174887812Y-90401376D01*
X174738512Y-90431073D01*
X174713742Y-90436000D01*
X174536258Y-90436000D01*
X174511488Y-90431073D01*
X174362188Y-90401376D01*
X174198216Y-90333456D01*
X174050646Y-90234853D01*
X173925147Y-90109354D01*
X173826544Y-89961784D01*
X173758624Y-89797812D01*
X173724000Y-89623741D01*
X173724000Y-89446259D01*
X173758624Y-89272188D01*
X173826544Y-89108216D01*
X173925147Y-88960646D01*
X174050646Y-88835147D01*
X174198216Y-88736544D01*
X174362188Y-88668624D01*
X174511488Y-88638927D01*
X174536258Y-88634000D01*
X174713742Y-88634000D01*
X174738512Y-88638927D01*
G37*
G36*
X172198512Y-88638927D02*
G01*
X172347812Y-88668624D01*
X172511784Y-88736544D01*
X172659354Y-88835147D01*
X172784853Y-88960646D01*
X172883456Y-89108216D01*
X172951376Y-89272188D01*
X172986000Y-89446259D01*
X172986000Y-89623741D01*
X172951376Y-89797812D01*
X172883456Y-89961784D01*
X172784853Y-90109354D01*
X172659354Y-90234853D01*
X172511784Y-90333456D01*
X172347812Y-90401376D01*
X172198512Y-90431073D01*
X172173742Y-90436000D01*
X171996258Y-90436000D01*
X171971488Y-90431073D01*
X171822188Y-90401376D01*
X171658216Y-90333456D01*
X171510646Y-90234853D01*
X171385147Y-90109354D01*
X171286544Y-89961784D01*
X171218624Y-89797812D01*
X171184000Y-89623741D01*
X171184000Y-89446259D01*
X171218624Y-89272188D01*
X171286544Y-89108216D01*
X171385147Y-88960646D01*
X171510646Y-88835147D01*
X171658216Y-88736544D01*
X171822188Y-88668624D01*
X171971488Y-88638927D01*
X171996258Y-88634000D01*
X172173742Y-88634000D01*
X172198512Y-88638927D01*
G37*
G36*
X169658512Y-88638927D02*
G01*
X169807812Y-88668624D01*
X169971784Y-88736544D01*
X170119354Y-88835147D01*
X170244853Y-88960646D01*
X170343456Y-89108216D01*
X170411376Y-89272188D01*
X170446000Y-89446259D01*
X170446000Y-89623741D01*
X170411376Y-89797812D01*
X170343456Y-89961784D01*
X170244853Y-90109354D01*
X170119354Y-90234853D01*
X169971784Y-90333456D01*
X169807812Y-90401376D01*
X169658512Y-90431073D01*
X169633742Y-90436000D01*
X169456258Y-90436000D01*
X169431488Y-90431073D01*
X169282188Y-90401376D01*
X169118216Y-90333456D01*
X168970646Y-90234853D01*
X168845147Y-90109354D01*
X168746544Y-89961784D01*
X168678624Y-89797812D01*
X168644000Y-89623741D01*
X168644000Y-89446259D01*
X168678624Y-89272188D01*
X168746544Y-89108216D01*
X168845147Y-88960646D01*
X168970646Y-88835147D01*
X169118216Y-88736544D01*
X169282188Y-88668624D01*
X169431488Y-88638927D01*
X169456258Y-88634000D01*
X169633742Y-88634000D01*
X169658512Y-88638927D01*
G37*
G36*
X167118512Y-88638927D02*
G01*
X167267812Y-88668624D01*
X167431784Y-88736544D01*
X167579354Y-88835147D01*
X167704853Y-88960646D01*
X167803456Y-89108216D01*
X167871376Y-89272188D01*
X167906000Y-89446259D01*
X167906000Y-89623741D01*
X167871376Y-89797812D01*
X167803456Y-89961784D01*
X167704853Y-90109354D01*
X167579354Y-90234853D01*
X167431784Y-90333456D01*
X167267812Y-90401376D01*
X167118512Y-90431073D01*
X167093742Y-90436000D01*
X166916258Y-90436000D01*
X166891488Y-90431073D01*
X166742188Y-90401376D01*
X166578216Y-90333456D01*
X166430646Y-90234853D01*
X166305147Y-90109354D01*
X166206544Y-89961784D01*
X166138624Y-89797812D01*
X166104000Y-89623741D01*
X166104000Y-89446259D01*
X166138624Y-89272188D01*
X166206544Y-89108216D01*
X166305147Y-88960646D01*
X166430646Y-88835147D01*
X166578216Y-88736544D01*
X166742188Y-88668624D01*
X166891488Y-88638927D01*
X166916258Y-88634000D01*
X167093742Y-88634000D01*
X167118512Y-88638927D01*
G37*
G36*
X165366000Y-90436000D02*
G01*
X163564000Y-90436000D01*
X163564000Y-88634000D01*
X165366000Y-88634000D01*
X165366000Y-90436000D01*
G37*
G36*
X162038512Y-88638927D02*
G01*
X162187812Y-88668624D01*
X162351784Y-88736544D01*
X162499354Y-88835147D01*
X162624853Y-88960646D01*
X162723456Y-89108216D01*
X162791376Y-89272188D01*
X162826000Y-89446259D01*
X162826000Y-89623741D01*
X162791376Y-89797812D01*
X162723456Y-89961784D01*
X162624853Y-90109354D01*
X162499354Y-90234853D01*
X162351784Y-90333456D01*
X162187812Y-90401376D01*
X162038512Y-90431073D01*
X162013742Y-90436000D01*
X161836258Y-90436000D01*
X161811488Y-90431073D01*
X161662188Y-90401376D01*
X161498216Y-90333456D01*
X161350646Y-90234853D01*
X161225147Y-90109354D01*
X161126544Y-89961784D01*
X161058624Y-89797812D01*
X161024000Y-89623741D01*
X161024000Y-89446259D01*
X161058624Y-89272188D01*
X161126544Y-89108216D01*
X161225147Y-88960646D01*
X161350646Y-88835147D01*
X161498216Y-88736544D01*
X161662188Y-88668624D01*
X161811488Y-88638927D01*
X161836258Y-88634000D01*
X162013742Y-88634000D01*
X162038512Y-88638927D01*
G37*
G36*
X159498512Y-88638927D02*
G01*
X159647812Y-88668624D01*
X159811784Y-88736544D01*
X159959354Y-88835147D01*
X160084853Y-88960646D01*
X160183456Y-89108216D01*
X160251376Y-89272188D01*
X160286000Y-89446259D01*
X160286000Y-89623741D01*
X160251376Y-89797812D01*
X160183456Y-89961784D01*
X160084853Y-90109354D01*
X159959354Y-90234853D01*
X159811784Y-90333456D01*
X159647812Y-90401376D01*
X159498512Y-90431073D01*
X159473742Y-90436000D01*
X159296258Y-90436000D01*
X159271488Y-90431073D01*
X159122188Y-90401376D01*
X158958216Y-90333456D01*
X158810646Y-90234853D01*
X158685147Y-90109354D01*
X158586544Y-89961784D01*
X158518624Y-89797812D01*
X158484000Y-89623741D01*
X158484000Y-89446259D01*
X158518624Y-89272188D01*
X158586544Y-89108216D01*
X158685147Y-88960646D01*
X158810646Y-88835147D01*
X158958216Y-88736544D01*
X159122188Y-88668624D01*
X159271488Y-88638927D01*
X159296258Y-88634000D01*
X159473742Y-88634000D01*
X159498512Y-88638927D01*
G37*
G36*
X156958512Y-88638927D02*
G01*
X157107812Y-88668624D01*
X157271784Y-88736544D01*
X157419354Y-88835147D01*
X157544853Y-88960646D01*
X157643456Y-89108216D01*
X157711376Y-89272188D01*
X157746000Y-89446259D01*
X157746000Y-89623741D01*
X157711376Y-89797812D01*
X157643456Y-89961784D01*
X157544853Y-90109354D01*
X157419354Y-90234853D01*
X157271784Y-90333456D01*
X157107812Y-90401376D01*
X156958512Y-90431073D01*
X156933742Y-90436000D01*
X156756258Y-90436000D01*
X156731488Y-90431073D01*
X156582188Y-90401376D01*
X156418216Y-90333456D01*
X156270646Y-90234853D01*
X156145147Y-90109354D01*
X156046544Y-89961784D01*
X155978624Y-89797812D01*
X155944000Y-89623741D01*
X155944000Y-89446259D01*
X155978624Y-89272188D01*
X156046544Y-89108216D01*
X156145147Y-88960646D01*
X156270646Y-88835147D01*
X156418216Y-88736544D01*
X156582188Y-88668624D01*
X156731488Y-88638927D01*
X156756258Y-88634000D01*
X156933742Y-88634000D01*
X156958512Y-88638927D01*
G37*
G36*
X146798512Y-88638927D02*
G01*
X146947812Y-88668624D01*
X147111784Y-88736544D01*
X147259354Y-88835147D01*
X147384853Y-88960646D01*
X147483456Y-89108216D01*
X147551376Y-89272188D01*
X147586000Y-89446259D01*
X147586000Y-89623741D01*
X147551376Y-89797812D01*
X147483456Y-89961784D01*
X147384853Y-90109354D01*
X147259354Y-90234853D01*
X147111784Y-90333456D01*
X146947812Y-90401376D01*
X146798512Y-90431073D01*
X146773742Y-90436000D01*
X146596258Y-90436000D01*
X146571488Y-90431073D01*
X146422188Y-90401376D01*
X146258216Y-90333456D01*
X146110646Y-90234853D01*
X145985147Y-90109354D01*
X145886544Y-89961784D01*
X145818624Y-89797812D01*
X145784000Y-89623741D01*
X145784000Y-89446259D01*
X145818624Y-89272188D01*
X145886544Y-89108216D01*
X145985147Y-88960646D01*
X146110646Y-88835147D01*
X146258216Y-88736544D01*
X146422188Y-88668624D01*
X146571488Y-88638927D01*
X146596258Y-88634000D01*
X146773742Y-88634000D01*
X146798512Y-88638927D01*
G37*
G36*
X144258512Y-88638927D02*
G01*
X144407812Y-88668624D01*
X144571784Y-88736544D01*
X144719354Y-88835147D01*
X144844853Y-88960646D01*
X144943456Y-89108216D01*
X145011376Y-89272188D01*
X145046000Y-89446259D01*
X145046000Y-89623741D01*
X145011376Y-89797812D01*
X144943456Y-89961784D01*
X144844853Y-90109354D01*
X144719354Y-90234853D01*
X144571784Y-90333456D01*
X144407812Y-90401376D01*
X144258512Y-90431073D01*
X144233742Y-90436000D01*
X144056258Y-90436000D01*
X144031488Y-90431073D01*
X143882188Y-90401376D01*
X143718216Y-90333456D01*
X143570646Y-90234853D01*
X143445147Y-90109354D01*
X143346544Y-89961784D01*
X143278624Y-89797812D01*
X143244000Y-89623741D01*
X143244000Y-89446259D01*
X143278624Y-89272188D01*
X143346544Y-89108216D01*
X143445147Y-88960646D01*
X143570646Y-88835147D01*
X143718216Y-88736544D01*
X143882188Y-88668624D01*
X144031488Y-88638927D01*
X144056258Y-88634000D01*
X144233742Y-88634000D01*
X144258512Y-88638927D01*
G37*
G36*
X134098512Y-88638927D02*
G01*
X134247812Y-88668624D01*
X134411784Y-88736544D01*
X134559354Y-88835147D01*
X134684853Y-88960646D01*
X134783456Y-89108216D01*
X134851376Y-89272188D01*
X134886000Y-89446259D01*
X134886000Y-89623741D01*
X134851376Y-89797812D01*
X134783456Y-89961784D01*
X134684853Y-90109354D01*
X134559354Y-90234853D01*
X134411784Y-90333456D01*
X134247812Y-90401376D01*
X134098512Y-90431073D01*
X134073742Y-90436000D01*
X133896258Y-90436000D01*
X133871488Y-90431073D01*
X133722188Y-90401376D01*
X133558216Y-90333456D01*
X133410646Y-90234853D01*
X133285147Y-90109354D01*
X133186544Y-89961784D01*
X133118624Y-89797812D01*
X133084000Y-89623741D01*
X133084000Y-89446259D01*
X133118624Y-89272188D01*
X133186544Y-89108216D01*
X133285147Y-88960646D01*
X133410646Y-88835147D01*
X133558216Y-88736544D01*
X133722188Y-88668624D01*
X133871488Y-88638927D01*
X133896258Y-88634000D01*
X134073742Y-88634000D01*
X134098512Y-88638927D01*
G37*
G36*
X178066000Y-90436000D02*
G01*
X176264000Y-90436000D01*
X176264000Y-88634000D01*
X178066000Y-88634000D01*
X178066000Y-90436000D01*
G37*
G36*
X136638512Y-88638927D02*
G01*
X136787812Y-88668624D01*
X136951784Y-88736544D01*
X137099354Y-88835147D01*
X137224853Y-88960646D01*
X137323456Y-89108216D01*
X137391376Y-89272188D01*
X137426000Y-89446259D01*
X137426000Y-89623741D01*
X137391376Y-89797812D01*
X137323456Y-89961784D01*
X137224853Y-90109354D01*
X137099354Y-90234853D01*
X136951784Y-90333456D01*
X136787812Y-90401376D01*
X136638512Y-90431073D01*
X136613742Y-90436000D01*
X136436258Y-90436000D01*
X136411488Y-90431073D01*
X136262188Y-90401376D01*
X136098216Y-90333456D01*
X135950646Y-90234853D01*
X135825147Y-90109354D01*
X135726544Y-89961784D01*
X135658624Y-89797812D01*
X135624000Y-89623741D01*
X135624000Y-89446259D01*
X135658624Y-89272188D01*
X135726544Y-89108216D01*
X135825147Y-88960646D01*
X135950646Y-88835147D01*
X136098216Y-88736544D01*
X136262188Y-88668624D01*
X136411488Y-88638927D01*
X136436258Y-88634000D01*
X136613742Y-88634000D01*
X136638512Y-88638927D01*
G37*
G36*
X139966000Y-90436000D02*
G01*
X138164000Y-90436000D01*
X138164000Y-88634000D01*
X139966000Y-88634000D01*
X139966000Y-90436000D01*
G37*
G36*
X141718512Y-88638927D02*
G01*
X141867812Y-88668624D01*
X142031784Y-88736544D01*
X142179354Y-88835147D01*
X142304853Y-88960646D01*
X142403456Y-89108216D01*
X142471376Y-89272188D01*
X142506000Y-89446259D01*
X142506000Y-89623741D01*
X142471376Y-89797812D01*
X142403456Y-89961784D01*
X142304853Y-90109354D01*
X142179354Y-90234853D01*
X142031784Y-90333456D01*
X141867812Y-90401376D01*
X141718512Y-90431073D01*
X141693742Y-90436000D01*
X141516258Y-90436000D01*
X141491488Y-90431073D01*
X141342188Y-90401376D01*
X141178216Y-90333456D01*
X141030646Y-90234853D01*
X140905147Y-90109354D01*
X140806544Y-89961784D01*
X140738624Y-89797812D01*
X140704000Y-89623741D01*
X140704000Y-89446259D01*
X140738624Y-89272188D01*
X140806544Y-89108216D01*
X140905147Y-88960646D01*
X141030646Y-88835147D01*
X141178216Y-88736544D01*
X141342188Y-88668624D01*
X141491488Y-88638927D01*
X141516258Y-88634000D01*
X141693742Y-88634000D01*
X141718512Y-88638927D01*
G37*
G36*
X149338512Y-88638927D02*
G01*
X149487812Y-88668624D01*
X149651784Y-88736544D01*
X149799354Y-88835147D01*
X149924853Y-88960646D01*
X150023456Y-89108216D01*
X150091376Y-89272188D01*
X150126000Y-89446259D01*
X150126000Y-89623741D01*
X150091376Y-89797812D01*
X150023456Y-89961784D01*
X149924853Y-90109354D01*
X149799354Y-90234853D01*
X149651784Y-90333456D01*
X149487812Y-90401376D01*
X149338512Y-90431073D01*
X149313742Y-90436000D01*
X149136258Y-90436000D01*
X149111488Y-90431073D01*
X148962188Y-90401376D01*
X148798216Y-90333456D01*
X148650646Y-90234853D01*
X148525147Y-90109354D01*
X148426544Y-89961784D01*
X148358624Y-89797812D01*
X148324000Y-89623741D01*
X148324000Y-89446259D01*
X148358624Y-89272188D01*
X148426544Y-89108216D01*
X148525147Y-88960646D01*
X148650646Y-88835147D01*
X148798216Y-88736544D01*
X148962188Y-88668624D01*
X149111488Y-88638927D01*
X149136258Y-88634000D01*
X149313742Y-88634000D01*
X149338512Y-88638927D01*
G37*
G36*
X154418512Y-88638927D02*
G01*
X154567812Y-88668624D01*
X154731784Y-88736544D01*
X154879354Y-88835147D01*
X155004853Y-88960646D01*
X155103456Y-89108216D01*
X155171376Y-89272188D01*
X155206000Y-89446259D01*
X155206000Y-89623741D01*
X155171376Y-89797812D01*
X155103456Y-89961784D01*
X155004853Y-90109354D01*
X154879354Y-90234853D01*
X154731784Y-90333456D01*
X154567812Y-90401376D01*
X154418512Y-90431073D01*
X154393742Y-90436000D01*
X154216258Y-90436000D01*
X154191488Y-90431073D01*
X154042188Y-90401376D01*
X153878216Y-90333456D01*
X153730646Y-90234853D01*
X153605147Y-90109354D01*
X153506544Y-89961784D01*
X153438624Y-89797812D01*
X153404000Y-89623741D01*
X153404000Y-89446259D01*
X153438624Y-89272188D01*
X153506544Y-89108216D01*
X153605147Y-88960646D01*
X153730646Y-88835147D01*
X153878216Y-88736544D01*
X154042188Y-88668624D01*
X154191488Y-88638927D01*
X154216258Y-88634000D01*
X154393742Y-88634000D01*
X154418512Y-88638927D01*
G37*
G36*
X152666000Y-90436000D02*
G01*
X150864000Y-90436000D01*
X150864000Y-88634000D01*
X152666000Y-88634000D01*
X152666000Y-90436000D01*
G37*
G36*
X182392395Y-82455546D02*
G01*
X182565466Y-82527234D01*
X182565467Y-82527235D01*
X182721227Y-82631310D01*
X182853690Y-82763773D01*
X182906081Y-82842182D01*
X182957766Y-82919534D01*
X183029454Y-83092605D01*
X183066000Y-83276333D01*
X183066000Y-83463667D01*
X183029454Y-83647395D01*
X182957766Y-83820466D01*
X182957765Y-83820467D01*
X182853690Y-83976227D01*
X182721227Y-84108690D01*
X182642818Y-84161081D01*
X182565466Y-84212766D01*
X182392395Y-84284454D01*
X182208667Y-84321000D01*
X182021333Y-84321000D01*
X181837605Y-84284454D01*
X181664534Y-84212766D01*
X181587182Y-84161081D01*
X181508773Y-84108690D01*
X181376310Y-83976227D01*
X181272235Y-83820467D01*
X181272234Y-83820466D01*
X181200546Y-83647395D01*
X181164000Y-83463667D01*
X181164000Y-83276333D01*
X181200546Y-83092605D01*
X181272234Y-82919534D01*
X181323919Y-82842182D01*
X181376310Y-82763773D01*
X181508773Y-82631310D01*
X181664533Y-82527235D01*
X181664534Y-82527234D01*
X181837605Y-82455546D01*
X182021333Y-82419000D01*
X182208667Y-82419000D01*
X182392395Y-82455546D01*
G37*
G36*
X134328512Y-82288927D02*
G01*
X134477812Y-82318624D01*
X134641784Y-82386544D01*
X134789354Y-82485147D01*
X134914853Y-82610646D01*
X135013456Y-82758216D01*
X135081376Y-82922188D01*
X135111073Y-83071488D01*
X135116000Y-83096258D01*
X135116000Y-83273742D01*
X135115484Y-83276335D01*
X135081376Y-83447812D01*
X135013456Y-83611784D01*
X134914853Y-83759354D01*
X134789354Y-83884853D01*
X134641784Y-83983456D01*
X134477812Y-84051376D01*
X134328512Y-84081073D01*
X134303742Y-84086000D01*
X134126258Y-84086000D01*
X134101488Y-84081073D01*
X133952188Y-84051376D01*
X133788216Y-83983456D01*
X133640646Y-83884853D01*
X133515147Y-83759354D01*
X133416544Y-83611784D01*
X133348624Y-83447812D01*
X133314516Y-83276335D01*
X133314000Y-83273742D01*
X133314000Y-83096258D01*
X133318927Y-83071488D01*
X133348624Y-82922188D01*
X133416544Y-82758216D01*
X133515147Y-82610646D01*
X133640646Y-82485147D01*
X133788216Y-82386544D01*
X133952188Y-82318624D01*
X134101488Y-82288927D01*
X134126258Y-82284000D01*
X134303742Y-82284000D01*
X134328512Y-82288927D01*
G37*
G36*
X129171000Y-83959000D02*
G01*
X127369000Y-83959000D01*
X127369000Y-82157000D01*
X129171000Y-82157000D01*
X129171000Y-83959000D01*
G37*
G36*
X179318642Y-82299781D02*
G01*
X179464414Y-82360162D01*
X179464416Y-82360163D01*
X179595608Y-82447822D01*
X179707178Y-82559392D01*
X179794837Y-82690584D01*
X179794838Y-82690586D01*
X179855219Y-82836358D01*
X179886000Y-82991107D01*
X179886000Y-83148893D01*
X179855219Y-83303642D01*
X179794838Y-83449414D01*
X179794837Y-83449416D01*
X179707178Y-83580608D01*
X179595608Y-83692178D01*
X179464416Y-83779837D01*
X179464415Y-83779838D01*
X179464414Y-83779838D01*
X179318642Y-83840219D01*
X179163893Y-83871000D01*
X179006107Y-83871000D01*
X178851358Y-83840219D01*
X178705586Y-83779838D01*
X178705585Y-83779838D01*
X178705584Y-83779837D01*
X178574392Y-83692178D01*
X178462822Y-83580608D01*
X178375163Y-83449416D01*
X178375162Y-83449414D01*
X178314781Y-83303642D01*
X178284000Y-83148893D01*
X178284000Y-82991107D01*
X178314781Y-82836358D01*
X178375162Y-82690586D01*
X178375163Y-82690584D01*
X178462822Y-82559392D01*
X178574392Y-82447822D01*
X178705584Y-82360163D01*
X178705586Y-82360162D01*
X178851358Y-82299781D01*
X179006107Y-82269000D01*
X179163893Y-82269000D01*
X179318642Y-82299781D01*
G37*
G36*
X135116000Y-81546000D02*
G01*
X133314000Y-81546000D01*
X133314000Y-79744000D01*
X135116000Y-79744000D01*
X135116000Y-81546000D01*
G37*
G36*
X128383512Y-79621927D02*
G01*
X128532812Y-79651624D01*
X128696784Y-79719544D01*
X128844354Y-79818147D01*
X128969853Y-79943646D01*
X129068456Y-80091216D01*
X129136376Y-80255188D01*
X129171000Y-80429259D01*
X129171000Y-80606741D01*
X129136376Y-80780812D01*
X129068456Y-80944784D01*
X128969853Y-81092354D01*
X128844354Y-81217853D01*
X128696784Y-81316456D01*
X128532812Y-81384376D01*
X128383512Y-81414073D01*
X128358742Y-81419000D01*
X128181258Y-81419000D01*
X128156488Y-81414073D01*
X128007188Y-81384376D01*
X127843216Y-81316456D01*
X127695646Y-81217853D01*
X127570147Y-81092354D01*
X127471544Y-80944784D01*
X127403624Y-80780812D01*
X127369000Y-80606741D01*
X127369000Y-80429259D01*
X127403624Y-80255188D01*
X127471544Y-80091216D01*
X127570147Y-79943646D01*
X127695646Y-79818147D01*
X127843216Y-79719544D01*
X128007188Y-79651624D01*
X128156488Y-79621927D01*
X128181258Y-79617000D01*
X128358742Y-79617000D01*
X128383512Y-79621927D01*
G37*
G36*
X179318642Y-77449781D02*
G01*
X179464414Y-77510162D01*
X179464416Y-77510163D01*
X179595608Y-77597822D01*
X179707178Y-77709392D01*
X179785316Y-77826335D01*
X179794838Y-77840586D01*
X179855219Y-77986358D01*
X179886000Y-78141107D01*
X179886000Y-78298893D01*
X179855219Y-78453642D01*
X179825154Y-78526225D01*
X179794837Y-78599416D01*
X179707178Y-78730608D01*
X179595608Y-78842178D01*
X179464416Y-78929837D01*
X179464415Y-78929838D01*
X179464414Y-78929838D01*
X179318642Y-78990219D01*
X179163893Y-79021000D01*
X179006107Y-79021000D01*
X178851358Y-78990219D01*
X178705586Y-78929838D01*
X178705585Y-78929838D01*
X178705584Y-78929837D01*
X178574392Y-78842178D01*
X178462822Y-78730608D01*
X178375163Y-78599416D01*
X178344846Y-78526225D01*
X178314781Y-78453642D01*
X178284000Y-78298893D01*
X178284000Y-78141107D01*
X178314781Y-77986358D01*
X178375162Y-77840586D01*
X178384684Y-77826335D01*
X178462822Y-77709392D01*
X178574392Y-77597822D01*
X178705584Y-77510163D01*
X178705586Y-77510162D01*
X178851358Y-77449781D01*
X179006107Y-77419000D01*
X179163893Y-77419000D01*
X179318642Y-77449781D01*
G37*
G36*
X134328512Y-77208927D02*
G01*
X134477812Y-77238624D01*
X134641784Y-77306544D01*
X134789354Y-77405147D01*
X134914853Y-77530646D01*
X135013456Y-77678216D01*
X135081376Y-77842188D01*
X135110052Y-77986357D01*
X135115485Y-78013667D01*
X135116000Y-78016259D01*
X135116000Y-78193741D01*
X135081376Y-78367812D01*
X135013456Y-78531784D01*
X134914853Y-78679354D01*
X134789354Y-78804853D01*
X134641784Y-78903456D01*
X134477812Y-78971376D01*
X134328512Y-79001073D01*
X134303742Y-79006000D01*
X134126258Y-79006000D01*
X134101488Y-79001073D01*
X133952188Y-78971376D01*
X133788216Y-78903456D01*
X133640646Y-78804853D01*
X133515147Y-78679354D01*
X133416544Y-78531784D01*
X133348624Y-78367812D01*
X133314000Y-78193741D01*
X133314000Y-78016259D01*
X133314516Y-78013667D01*
X133319948Y-77986357D01*
X133348624Y-77842188D01*
X133416544Y-77678216D01*
X133515147Y-77530646D01*
X133640646Y-77405147D01*
X133788216Y-77306544D01*
X133952188Y-77238624D01*
X134101488Y-77208927D01*
X134126258Y-77204000D01*
X134303742Y-77204000D01*
X134328512Y-77208927D01*
G37*
G36*
X128383512Y-77081927D02*
G01*
X128532812Y-77111624D01*
X128696784Y-77179544D01*
X128844354Y-77278147D01*
X128969853Y-77403646D01*
X129068456Y-77551216D01*
X129136376Y-77715188D01*
X129171000Y-77889259D01*
X129171000Y-78066741D01*
X129136376Y-78240812D01*
X129068456Y-78404784D01*
X128969853Y-78552354D01*
X128844354Y-78677853D01*
X128696784Y-78776456D01*
X128532812Y-78844376D01*
X128383512Y-78874073D01*
X128358742Y-78879000D01*
X128181258Y-78879000D01*
X128156488Y-78874073D01*
X128007188Y-78844376D01*
X127843216Y-78776456D01*
X127695646Y-78677853D01*
X127570147Y-78552354D01*
X127471544Y-78404784D01*
X127403624Y-78240812D01*
X127369000Y-78066741D01*
X127369000Y-77889259D01*
X127403624Y-77715188D01*
X127471544Y-77551216D01*
X127570147Y-77403646D01*
X127695646Y-77278147D01*
X127843216Y-77179544D01*
X128007188Y-77111624D01*
X128156488Y-77081927D01*
X128181258Y-77077000D01*
X128358742Y-77077000D01*
X128383512Y-77081927D01*
G37*
G36*
X182392395Y-77005546D02*
G01*
X182565466Y-77077234D01*
X182565467Y-77077235D01*
X182721227Y-77181310D01*
X182853690Y-77313773D01*
X182853691Y-77313775D01*
X182957766Y-77469534D01*
X183029454Y-77642605D01*
X183066000Y-77826333D01*
X183066000Y-78013667D01*
X183029454Y-78197395D01*
X182957766Y-78370466D01*
X182957765Y-78370467D01*
X182853690Y-78526227D01*
X182721227Y-78658690D01*
X182692549Y-78677852D01*
X182565466Y-78762766D01*
X182392395Y-78834454D01*
X182208667Y-78871000D01*
X182021333Y-78871000D01*
X181837605Y-78834454D01*
X181664534Y-78762766D01*
X181537451Y-78677852D01*
X181508773Y-78658690D01*
X181376310Y-78526227D01*
X181272235Y-78370467D01*
X181272234Y-78370466D01*
X181200546Y-78197395D01*
X181164000Y-78013667D01*
X181164000Y-77826333D01*
X181200546Y-77642605D01*
X181272234Y-77469534D01*
X181376309Y-77313775D01*
X181376310Y-77313773D01*
X181508773Y-77181310D01*
X181664533Y-77077235D01*
X181664534Y-77077234D01*
X181837605Y-77005546D01*
X182021333Y-76969000D01*
X182208667Y-76969000D01*
X182392395Y-77005546D01*
G37*
G36*
X136638512Y-70858927D02*
G01*
X136787812Y-70888624D01*
X136951784Y-70956544D01*
X137099354Y-71055147D01*
X137224853Y-71180646D01*
X137323456Y-71328216D01*
X137391376Y-71492188D01*
X137426000Y-71666259D01*
X137426000Y-71843741D01*
X137391376Y-72017812D01*
X137323456Y-72181784D01*
X137224853Y-72329354D01*
X137099354Y-72454853D01*
X136951784Y-72553456D01*
X136787812Y-72621376D01*
X136638512Y-72651073D01*
X136613742Y-72656000D01*
X136436258Y-72656000D01*
X136411488Y-72651073D01*
X136262188Y-72621376D01*
X136098216Y-72553456D01*
X135950646Y-72454853D01*
X135825147Y-72329354D01*
X135726544Y-72181784D01*
X135658624Y-72017812D01*
X135624000Y-71843741D01*
X135624000Y-71666259D01*
X135658624Y-71492188D01*
X135726544Y-71328216D01*
X135825147Y-71180646D01*
X135950646Y-71055147D01*
X136098216Y-70956544D01*
X136262188Y-70888624D01*
X136411488Y-70858927D01*
X136436258Y-70854000D01*
X136613742Y-70854000D01*
X136638512Y-70858927D01*
G37*
G36*
X139966000Y-72656000D02*
G01*
X138164000Y-72656000D01*
X138164000Y-70854000D01*
X139966000Y-70854000D01*
X139966000Y-72656000D01*
G37*
G36*
X141718512Y-70858927D02*
G01*
X141867812Y-70888624D01*
X142031784Y-70956544D01*
X142179354Y-71055147D01*
X142304853Y-71180646D01*
X142403456Y-71328216D01*
X142471376Y-71492188D01*
X142506000Y-71666259D01*
X142506000Y-71843741D01*
X142471376Y-72017812D01*
X142403456Y-72181784D01*
X142304853Y-72329354D01*
X142179354Y-72454853D01*
X142031784Y-72553456D01*
X141867812Y-72621376D01*
X141718512Y-72651073D01*
X141693742Y-72656000D01*
X141516258Y-72656000D01*
X141491488Y-72651073D01*
X141342188Y-72621376D01*
X141178216Y-72553456D01*
X141030646Y-72454853D01*
X140905147Y-72329354D01*
X140806544Y-72181784D01*
X140738624Y-72017812D01*
X140704000Y-71843741D01*
X140704000Y-71666259D01*
X140738624Y-71492188D01*
X140806544Y-71328216D01*
X140905147Y-71180646D01*
X141030646Y-71055147D01*
X141178216Y-70956544D01*
X141342188Y-70888624D01*
X141491488Y-70858927D01*
X141516258Y-70854000D01*
X141693742Y-70854000D01*
X141718512Y-70858927D01*
G37*
G36*
X144258512Y-70858927D02*
G01*
X144407812Y-70888624D01*
X144571784Y-70956544D01*
X144719354Y-71055147D01*
X144844853Y-71180646D01*
X144943456Y-71328216D01*
X145011376Y-71492188D01*
X145046000Y-71666259D01*
X145046000Y-71843741D01*
X145011376Y-72017812D01*
X144943456Y-72181784D01*
X144844853Y-72329354D01*
X144719354Y-72454853D01*
X144571784Y-72553456D01*
X144407812Y-72621376D01*
X144258512Y-72651073D01*
X144233742Y-72656000D01*
X144056258Y-72656000D01*
X144031488Y-72651073D01*
X143882188Y-72621376D01*
X143718216Y-72553456D01*
X143570646Y-72454853D01*
X143445147Y-72329354D01*
X143346544Y-72181784D01*
X143278624Y-72017812D01*
X143244000Y-71843741D01*
X143244000Y-71666259D01*
X143278624Y-71492188D01*
X143346544Y-71328216D01*
X143445147Y-71180646D01*
X143570646Y-71055147D01*
X143718216Y-70956544D01*
X143882188Y-70888624D01*
X144031488Y-70858927D01*
X144056258Y-70854000D01*
X144233742Y-70854000D01*
X144258512Y-70858927D01*
G37*
G36*
X146798512Y-70858927D02*
G01*
X146947812Y-70888624D01*
X147111784Y-70956544D01*
X147259354Y-71055147D01*
X147384853Y-71180646D01*
X147483456Y-71328216D01*
X147551376Y-71492188D01*
X147586000Y-71666259D01*
X147586000Y-71843741D01*
X147551376Y-72017812D01*
X147483456Y-72181784D01*
X147384853Y-72329354D01*
X147259354Y-72454853D01*
X147111784Y-72553456D01*
X146947812Y-72621376D01*
X146798512Y-72651073D01*
X146773742Y-72656000D01*
X146596258Y-72656000D01*
X146571488Y-72651073D01*
X146422188Y-72621376D01*
X146258216Y-72553456D01*
X146110646Y-72454853D01*
X145985147Y-72329354D01*
X145886544Y-72181784D01*
X145818624Y-72017812D01*
X145784000Y-71843741D01*
X145784000Y-71666259D01*
X145818624Y-71492188D01*
X145886544Y-71328216D01*
X145985147Y-71180646D01*
X146110646Y-71055147D01*
X146258216Y-70956544D01*
X146422188Y-70888624D01*
X146571488Y-70858927D01*
X146596258Y-70854000D01*
X146773742Y-70854000D01*
X146798512Y-70858927D01*
G37*
G36*
X149338512Y-70858927D02*
G01*
X149487812Y-70888624D01*
X149651784Y-70956544D01*
X149799354Y-71055147D01*
X149924853Y-71180646D01*
X150023456Y-71328216D01*
X150091376Y-71492188D01*
X150126000Y-71666259D01*
X150126000Y-71843741D01*
X150091376Y-72017812D01*
X150023456Y-72181784D01*
X149924853Y-72329354D01*
X149799354Y-72454853D01*
X149651784Y-72553456D01*
X149487812Y-72621376D01*
X149338512Y-72651073D01*
X149313742Y-72656000D01*
X149136258Y-72656000D01*
X149111488Y-72651073D01*
X148962188Y-72621376D01*
X148798216Y-72553456D01*
X148650646Y-72454853D01*
X148525147Y-72329354D01*
X148426544Y-72181784D01*
X148358624Y-72017812D01*
X148324000Y-71843741D01*
X148324000Y-71666259D01*
X148358624Y-71492188D01*
X148426544Y-71328216D01*
X148525147Y-71180646D01*
X148650646Y-71055147D01*
X148798216Y-70956544D01*
X148962188Y-70888624D01*
X149111488Y-70858927D01*
X149136258Y-70854000D01*
X149313742Y-70854000D01*
X149338512Y-70858927D01*
G37*
G36*
X152666000Y-72656000D02*
G01*
X150864000Y-72656000D01*
X150864000Y-70854000D01*
X152666000Y-70854000D01*
X152666000Y-72656000D01*
G37*
G36*
X154418512Y-70858927D02*
G01*
X154567812Y-70888624D01*
X154731784Y-70956544D01*
X154879354Y-71055147D01*
X155004853Y-71180646D01*
X155103456Y-71328216D01*
X155171376Y-71492188D01*
X155206000Y-71666259D01*
X155206000Y-71843741D01*
X155171376Y-72017812D01*
X155103456Y-72181784D01*
X155004853Y-72329354D01*
X154879354Y-72454853D01*
X154731784Y-72553456D01*
X154567812Y-72621376D01*
X154418512Y-72651073D01*
X154393742Y-72656000D01*
X154216258Y-72656000D01*
X154191488Y-72651073D01*
X154042188Y-72621376D01*
X153878216Y-72553456D01*
X153730646Y-72454853D01*
X153605147Y-72329354D01*
X153506544Y-72181784D01*
X153438624Y-72017812D01*
X153404000Y-71843741D01*
X153404000Y-71666259D01*
X153438624Y-71492188D01*
X153506544Y-71328216D01*
X153605147Y-71180646D01*
X153730646Y-71055147D01*
X153878216Y-70956544D01*
X154042188Y-70888624D01*
X154191488Y-70858927D01*
X154216258Y-70854000D01*
X154393742Y-70854000D01*
X154418512Y-70858927D01*
G37*
G36*
X156958512Y-70858927D02*
G01*
X157107812Y-70888624D01*
X157271784Y-70956544D01*
X157419354Y-71055147D01*
X157544853Y-71180646D01*
X157643456Y-71328216D01*
X157711376Y-71492188D01*
X157746000Y-71666259D01*
X157746000Y-71843741D01*
X157711376Y-72017812D01*
X157643456Y-72181784D01*
X157544853Y-72329354D01*
X157419354Y-72454853D01*
X157271784Y-72553456D01*
X157107812Y-72621376D01*
X156958512Y-72651073D01*
X156933742Y-72656000D01*
X156756258Y-72656000D01*
X156731488Y-72651073D01*
X156582188Y-72621376D01*
X156418216Y-72553456D01*
X156270646Y-72454853D01*
X156145147Y-72329354D01*
X156046544Y-72181784D01*
X155978624Y-72017812D01*
X155944000Y-71843741D01*
X155944000Y-71666259D01*
X155978624Y-71492188D01*
X156046544Y-71328216D01*
X156145147Y-71180646D01*
X156270646Y-71055147D01*
X156418216Y-70956544D01*
X156582188Y-70888624D01*
X156731488Y-70858927D01*
X156756258Y-70854000D01*
X156933742Y-70854000D01*
X156958512Y-70858927D01*
G37*
G36*
X159498512Y-70858927D02*
G01*
X159647812Y-70888624D01*
X159811784Y-70956544D01*
X159959354Y-71055147D01*
X160084853Y-71180646D01*
X160183456Y-71328216D01*
X160251376Y-71492188D01*
X160286000Y-71666259D01*
X160286000Y-71843741D01*
X160251376Y-72017812D01*
X160183456Y-72181784D01*
X160084853Y-72329354D01*
X159959354Y-72454853D01*
X159811784Y-72553456D01*
X159647812Y-72621376D01*
X159498512Y-72651073D01*
X159473742Y-72656000D01*
X159296258Y-72656000D01*
X159271488Y-72651073D01*
X159122188Y-72621376D01*
X158958216Y-72553456D01*
X158810646Y-72454853D01*
X158685147Y-72329354D01*
X158586544Y-72181784D01*
X158518624Y-72017812D01*
X158484000Y-71843741D01*
X158484000Y-71666259D01*
X158518624Y-71492188D01*
X158586544Y-71328216D01*
X158685147Y-71180646D01*
X158810646Y-71055147D01*
X158958216Y-70956544D01*
X159122188Y-70888624D01*
X159271488Y-70858927D01*
X159296258Y-70854000D01*
X159473742Y-70854000D01*
X159498512Y-70858927D01*
G37*
G36*
X167118512Y-70858927D02*
G01*
X167267812Y-70888624D01*
X167431784Y-70956544D01*
X167579354Y-71055147D01*
X167704853Y-71180646D01*
X167803456Y-71328216D01*
X167871376Y-71492188D01*
X167906000Y-71666259D01*
X167906000Y-71843741D01*
X167871376Y-72017812D01*
X167803456Y-72181784D01*
X167704853Y-72329354D01*
X167579354Y-72454853D01*
X167431784Y-72553456D01*
X167267812Y-72621376D01*
X167118512Y-72651073D01*
X167093742Y-72656000D01*
X166916258Y-72656000D01*
X166891488Y-72651073D01*
X166742188Y-72621376D01*
X166578216Y-72553456D01*
X166430646Y-72454853D01*
X166305147Y-72329354D01*
X166206544Y-72181784D01*
X166138624Y-72017812D01*
X166104000Y-71843741D01*
X166104000Y-71666259D01*
X166138624Y-71492188D01*
X166206544Y-71328216D01*
X166305147Y-71180646D01*
X166430646Y-71055147D01*
X166578216Y-70956544D01*
X166742188Y-70888624D01*
X166891488Y-70858927D01*
X166916258Y-70854000D01*
X167093742Y-70854000D01*
X167118512Y-70858927D01*
G37*
G36*
X169658512Y-70858927D02*
G01*
X169807812Y-70888624D01*
X169971784Y-70956544D01*
X170119354Y-71055147D01*
X170244853Y-71180646D01*
X170343456Y-71328216D01*
X170411376Y-71492188D01*
X170446000Y-71666259D01*
X170446000Y-71843741D01*
X170411376Y-72017812D01*
X170343456Y-72181784D01*
X170244853Y-72329354D01*
X170119354Y-72454853D01*
X169971784Y-72553456D01*
X169807812Y-72621376D01*
X169658512Y-72651073D01*
X169633742Y-72656000D01*
X169456258Y-72656000D01*
X169431488Y-72651073D01*
X169282188Y-72621376D01*
X169118216Y-72553456D01*
X168970646Y-72454853D01*
X168845147Y-72329354D01*
X168746544Y-72181784D01*
X168678624Y-72017812D01*
X168644000Y-71843741D01*
X168644000Y-71666259D01*
X168678624Y-71492188D01*
X168746544Y-71328216D01*
X168845147Y-71180646D01*
X168970646Y-71055147D01*
X169118216Y-70956544D01*
X169282188Y-70888624D01*
X169431488Y-70858927D01*
X169456258Y-70854000D01*
X169633742Y-70854000D01*
X169658512Y-70858927D01*
G37*
G36*
X172198512Y-70858927D02*
G01*
X172347812Y-70888624D01*
X172511784Y-70956544D01*
X172659354Y-71055147D01*
X172784853Y-71180646D01*
X172883456Y-71328216D01*
X172951376Y-71492188D01*
X172986000Y-71666259D01*
X172986000Y-71843741D01*
X172951376Y-72017812D01*
X172883456Y-72181784D01*
X172784853Y-72329354D01*
X172659354Y-72454853D01*
X172511784Y-72553456D01*
X172347812Y-72621376D01*
X172198512Y-72651073D01*
X172173742Y-72656000D01*
X171996258Y-72656000D01*
X171971488Y-72651073D01*
X171822188Y-72621376D01*
X171658216Y-72553456D01*
X171510646Y-72454853D01*
X171385147Y-72329354D01*
X171286544Y-72181784D01*
X171218624Y-72017812D01*
X171184000Y-71843741D01*
X171184000Y-71666259D01*
X171218624Y-71492188D01*
X171286544Y-71328216D01*
X171385147Y-71180646D01*
X171510646Y-71055147D01*
X171658216Y-70956544D01*
X171822188Y-70888624D01*
X171971488Y-70858927D01*
X171996258Y-70854000D01*
X172173742Y-70854000D01*
X172198512Y-70858927D01*
G37*
G36*
X174738512Y-70858927D02*
G01*
X174887812Y-70888624D01*
X175051784Y-70956544D01*
X175199354Y-71055147D01*
X175324853Y-71180646D01*
X175423456Y-71328216D01*
X175491376Y-71492188D01*
X175526000Y-71666259D01*
X175526000Y-71843741D01*
X175491376Y-72017812D01*
X175423456Y-72181784D01*
X175324853Y-72329354D01*
X175199354Y-72454853D01*
X175051784Y-72553456D01*
X174887812Y-72621376D01*
X174738512Y-72651073D01*
X174713742Y-72656000D01*
X174536258Y-72656000D01*
X174511488Y-72651073D01*
X174362188Y-72621376D01*
X174198216Y-72553456D01*
X174050646Y-72454853D01*
X173925147Y-72329354D01*
X173826544Y-72181784D01*
X173758624Y-72017812D01*
X173724000Y-71843741D01*
X173724000Y-71666259D01*
X173758624Y-71492188D01*
X173826544Y-71328216D01*
X173925147Y-71180646D01*
X174050646Y-71055147D01*
X174198216Y-70956544D01*
X174362188Y-70888624D01*
X174511488Y-70858927D01*
X174536258Y-70854000D01*
X174713742Y-70854000D01*
X174738512Y-70858927D01*
G37*
G36*
X178066000Y-72656000D02*
G01*
X176264000Y-72656000D01*
X176264000Y-70854000D01*
X178066000Y-70854000D01*
X178066000Y-72656000D01*
G37*
G36*
X179818512Y-70858927D02*
G01*
X179967812Y-70888624D01*
X180131784Y-70956544D01*
X180279354Y-71055147D01*
X180404853Y-71180646D01*
X180503456Y-71328216D01*
X180571376Y-71492188D01*
X180606000Y-71666259D01*
X180606000Y-71843741D01*
X180571376Y-72017812D01*
X180503456Y-72181784D01*
X180404853Y-72329354D01*
X180279354Y-72454853D01*
X180131784Y-72553456D01*
X179967812Y-72621376D01*
X179818512Y-72651073D01*
X179793742Y-72656000D01*
X179616258Y-72656000D01*
X179591488Y-72651073D01*
X179442188Y-72621376D01*
X179278216Y-72553456D01*
X179130646Y-72454853D01*
X179005147Y-72329354D01*
X178906544Y-72181784D01*
X178838624Y-72017812D01*
X178804000Y-71843741D01*
X178804000Y-71666259D01*
X178838624Y-71492188D01*
X178906544Y-71328216D01*
X179005147Y-71180646D01*
X179130646Y-71055147D01*
X179278216Y-70956544D01*
X179442188Y-70888624D01*
X179591488Y-70858927D01*
X179616258Y-70854000D01*
X179793742Y-70854000D01*
X179818512Y-70858927D01*
G37*
G36*
X182358512Y-70858927D02*
G01*
X182507812Y-70888624D01*
X182671784Y-70956544D01*
X182819354Y-71055147D01*
X182944853Y-71180646D01*
X183043456Y-71328216D01*
X183111376Y-71492188D01*
X183146000Y-71666259D01*
X183146000Y-71843741D01*
X183111376Y-72017812D01*
X183043456Y-72181784D01*
X182944853Y-72329354D01*
X182819354Y-72454853D01*
X182671784Y-72553456D01*
X182507812Y-72621376D01*
X182358512Y-72651073D01*
X182333742Y-72656000D01*
X182156258Y-72656000D01*
X182131488Y-72651073D01*
X181982188Y-72621376D01*
X181818216Y-72553456D01*
X181670646Y-72454853D01*
X181545147Y-72329354D01*
X181446544Y-72181784D01*
X181378624Y-72017812D01*
X181344000Y-71843741D01*
X181344000Y-71666259D01*
X181378624Y-71492188D01*
X181446544Y-71328216D01*
X181545147Y-71180646D01*
X181670646Y-71055147D01*
X181818216Y-70956544D01*
X181982188Y-70888624D01*
X182131488Y-70858927D01*
X182156258Y-70854000D01*
X182333742Y-70854000D01*
X182358512Y-70858927D01*
G37*
G36*
X134098512Y-70858927D02*
G01*
X134247812Y-70888624D01*
X134411784Y-70956544D01*
X134559354Y-71055147D01*
X134684853Y-71180646D01*
X134783456Y-71328216D01*
X134851376Y-71492188D01*
X134886000Y-71666259D01*
X134886000Y-71843741D01*
X134851376Y-72017812D01*
X134783456Y-72181784D01*
X134684853Y-72329354D01*
X134559354Y-72454853D01*
X134411784Y-72553456D01*
X134247812Y-72621376D01*
X134098512Y-72651073D01*
X134073742Y-72656000D01*
X133896258Y-72656000D01*
X133871488Y-72651073D01*
X133722188Y-72621376D01*
X133558216Y-72553456D01*
X133410646Y-72454853D01*
X133285147Y-72329354D01*
X133186544Y-72181784D01*
X133118624Y-72017812D01*
X133084000Y-71843741D01*
X133084000Y-71666259D01*
X133118624Y-71492188D01*
X133186544Y-71328216D01*
X133285147Y-71180646D01*
X133410646Y-71055147D01*
X133558216Y-70956544D01*
X133722188Y-70888624D01*
X133871488Y-70858927D01*
X133896258Y-70854000D01*
X134073742Y-70854000D01*
X134098512Y-70858927D01*
G37*
G36*
X162038512Y-70858927D02*
G01*
X162187812Y-70888624D01*
X162351784Y-70956544D01*
X162499354Y-71055147D01*
X162624853Y-71180646D01*
X162723456Y-71328216D01*
X162791376Y-71492188D01*
X162826000Y-71666259D01*
X162826000Y-71843741D01*
X162791376Y-72017812D01*
X162723456Y-72181784D01*
X162624853Y-72329354D01*
X162499354Y-72454853D01*
X162351784Y-72553456D01*
X162187812Y-72621376D01*
X162038512Y-72651073D01*
X162013742Y-72656000D01*
X161836258Y-72656000D01*
X161811488Y-72651073D01*
X161662188Y-72621376D01*
X161498216Y-72553456D01*
X161350646Y-72454853D01*
X161225147Y-72329354D01*
X161126544Y-72181784D01*
X161058624Y-72017812D01*
X161024000Y-71843741D01*
X161024000Y-71666259D01*
X161058624Y-71492188D01*
X161126544Y-71328216D01*
X161225147Y-71180646D01*
X161350646Y-71055147D01*
X161498216Y-70956544D01*
X161662188Y-70888624D01*
X161811488Y-70858927D01*
X161836258Y-70854000D01*
X162013742Y-70854000D01*
X162038512Y-70858927D01*
G37*
G36*
X165366000Y-72656000D02*
G01*
X163564000Y-72656000D01*
X163564000Y-70854000D01*
X165366000Y-70854000D01*
X165366000Y-72656000D01*
G37*
G36*
X113931000Y-68211000D02*
G01*
X112129000Y-68211000D01*
X112129000Y-66409000D01*
X113931000Y-66409000D01*
X113931000Y-68211000D01*
G37*
G36*
X110603512Y-66413927D02*
G01*
X110752812Y-66443624D01*
X110916784Y-66511544D01*
X111064354Y-66610147D01*
X111189853Y-66735646D01*
X111288456Y-66883216D01*
X111356376Y-67047188D01*
X111391000Y-67221259D01*
X111391000Y-67398741D01*
X111356376Y-67572812D01*
X111288456Y-67736784D01*
X111189853Y-67884354D01*
X111064354Y-68009853D01*
X110916784Y-68108456D01*
X110752812Y-68176376D01*
X110603512Y-68206073D01*
X110578742Y-68211000D01*
X110401258Y-68211000D01*
X110376488Y-68206073D01*
X110227188Y-68176376D01*
X110063216Y-68108456D01*
X109915646Y-68009853D01*
X109790147Y-67884354D01*
X109691544Y-67736784D01*
X109623624Y-67572812D01*
X109589000Y-67398741D01*
X109589000Y-67221259D01*
X109623624Y-67047188D01*
X109691544Y-66883216D01*
X109790147Y-66735646D01*
X109915646Y-66610147D01*
X110063216Y-66511544D01*
X110227188Y-66443624D01*
X110376488Y-66413927D01*
X110401258Y-66409000D01*
X110578742Y-66409000D01*
X110603512Y-66413927D01*
G37*
G36*
X108063512Y-66413927D02*
G01*
X108212812Y-66443624D01*
X108376784Y-66511544D01*
X108524354Y-66610147D01*
X108649853Y-66735646D01*
X108748456Y-66883216D01*
X108816376Y-67047188D01*
X108851000Y-67221259D01*
X108851000Y-67398741D01*
X108816376Y-67572812D01*
X108748456Y-67736784D01*
X108649853Y-67884354D01*
X108524354Y-68009853D01*
X108376784Y-68108456D01*
X108212812Y-68176376D01*
X108063512Y-68206073D01*
X108038742Y-68211000D01*
X107861258Y-68211000D01*
X107836488Y-68206073D01*
X107687188Y-68176376D01*
X107523216Y-68108456D01*
X107375646Y-68009853D01*
X107250147Y-67884354D01*
X107151544Y-67736784D01*
X107083624Y-67572812D01*
X107049000Y-67398741D01*
X107049000Y-67221259D01*
X107083624Y-67047188D01*
X107151544Y-66883216D01*
X107250147Y-66735646D01*
X107375646Y-66610147D01*
X107523216Y-66511544D01*
X107687188Y-66443624D01*
X107836488Y-66413927D01*
X107861258Y-66409000D01*
X108038742Y-66409000D01*
X108063512Y-66413927D01*
G37*
G36*
X105523512Y-66413927D02*
G01*
X105672812Y-66443624D01*
X105836784Y-66511544D01*
X105984354Y-66610147D01*
X106109853Y-66735646D01*
X106208456Y-66883216D01*
X106276376Y-67047188D01*
X106311000Y-67221259D01*
X106311000Y-67398741D01*
X106276376Y-67572812D01*
X106208456Y-67736784D01*
X106109853Y-67884354D01*
X105984354Y-68009853D01*
X105836784Y-68108456D01*
X105672812Y-68176376D01*
X105523512Y-68206073D01*
X105498742Y-68211000D01*
X105321258Y-68211000D01*
X105296488Y-68206073D01*
X105147188Y-68176376D01*
X104983216Y-68108456D01*
X104835646Y-68009853D01*
X104710147Y-67884354D01*
X104611544Y-67736784D01*
X104543624Y-67572812D01*
X104509000Y-67398741D01*
X104509000Y-67221259D01*
X104543624Y-67047188D01*
X104611544Y-66883216D01*
X104710147Y-66735646D01*
X104835646Y-66610147D01*
X104983216Y-66511544D01*
X105147188Y-66443624D01*
X105296488Y-66413927D01*
X105321258Y-66409000D01*
X105498742Y-66409000D01*
X105523512Y-66413927D01*
G37*
G36*
X160921000Y-59321000D02*
G01*
X159119000Y-59321000D01*
X159119000Y-57519000D01*
X160921000Y-57519000D01*
X160921000Y-59321000D01*
G37*
G36*
X152513512Y-57523927D02*
G01*
X152662812Y-57553624D01*
X152826784Y-57621544D01*
X152974354Y-57720147D01*
X153099853Y-57845646D01*
X153198456Y-57993216D01*
X153266376Y-58157188D01*
X153301000Y-58331259D01*
X153301000Y-58508741D01*
X153266376Y-58682812D01*
X153198456Y-58846784D01*
X153099853Y-58994354D01*
X152974354Y-59119853D01*
X152826784Y-59218456D01*
X152662812Y-59286376D01*
X152513512Y-59316073D01*
X152488742Y-59321000D01*
X152311258Y-59321000D01*
X152286488Y-59316073D01*
X152137188Y-59286376D01*
X151973216Y-59218456D01*
X151825646Y-59119853D01*
X151700147Y-58994354D01*
X151601544Y-58846784D01*
X151533624Y-58682812D01*
X151499000Y-58508741D01*
X151499000Y-58331259D01*
X151533624Y-58157188D01*
X151601544Y-57993216D01*
X151700147Y-57845646D01*
X151825646Y-57720147D01*
X151973216Y-57621544D01*
X152137188Y-57553624D01*
X152286488Y-57523927D01*
X152311258Y-57519000D01*
X152488742Y-57519000D01*
X152513512Y-57523927D01*
G37*
G36*
X155053512Y-57523927D02*
G01*
X155202812Y-57553624D01*
X155366784Y-57621544D01*
X155514354Y-57720147D01*
X155639853Y-57845646D01*
X155738456Y-57993216D01*
X155806376Y-58157188D01*
X155841000Y-58331259D01*
X155841000Y-58508741D01*
X155806376Y-58682812D01*
X155738456Y-58846784D01*
X155639853Y-58994354D01*
X155514354Y-59119853D01*
X155366784Y-59218456D01*
X155202812Y-59286376D01*
X155053512Y-59316073D01*
X155028742Y-59321000D01*
X154851258Y-59321000D01*
X154826488Y-59316073D01*
X154677188Y-59286376D01*
X154513216Y-59218456D01*
X154365646Y-59119853D01*
X154240147Y-58994354D01*
X154141544Y-58846784D01*
X154073624Y-58682812D01*
X154039000Y-58508741D01*
X154039000Y-58331259D01*
X154073624Y-58157188D01*
X154141544Y-57993216D01*
X154240147Y-57845646D01*
X154365646Y-57720147D01*
X154513216Y-57621544D01*
X154677188Y-57553624D01*
X154826488Y-57523927D01*
X154851258Y-57519000D01*
X155028742Y-57519000D01*
X155053512Y-57523927D01*
G37*
G36*
X157593512Y-57523927D02*
G01*
X157742812Y-57553624D01*
X157906784Y-57621544D01*
X158054354Y-57720147D01*
X158179853Y-57845646D01*
X158278456Y-57993216D01*
X158346376Y-58157188D01*
X158381000Y-58331259D01*
X158381000Y-58508741D01*
X158346376Y-58682812D01*
X158278456Y-58846784D01*
X158179853Y-58994354D01*
X158054354Y-59119853D01*
X157906784Y-59218456D01*
X157742812Y-59286376D01*
X157593512Y-59316073D01*
X157568742Y-59321000D01*
X157391258Y-59321000D01*
X157366488Y-59316073D01*
X157217188Y-59286376D01*
X157053216Y-59218456D01*
X156905646Y-59119853D01*
X156780147Y-58994354D01*
X156681544Y-58846784D01*
X156613624Y-58682812D01*
X156579000Y-58508741D01*
X156579000Y-58331259D01*
X156613624Y-58157188D01*
X156681544Y-57993216D01*
X156780147Y-57845646D01*
X156905646Y-57720147D01*
X157053216Y-57621544D01*
X157217188Y-57553624D01*
X157366488Y-57523927D01*
X157391258Y-57519000D01*
X157568742Y-57519000D01*
X157593512Y-57523927D01*
G37*
G36*
X159763512Y-53253927D02*
G01*
X159912812Y-53283624D01*
X160076784Y-53351544D01*
X160224354Y-53450147D01*
X160349853Y-53575646D01*
X160448456Y-53723216D01*
X160516376Y-53887188D01*
X160551000Y-54061259D01*
X160551000Y-54238741D01*
X160516376Y-54412812D01*
X160448456Y-54576784D01*
X160349853Y-54724354D01*
X160224354Y-54849853D01*
X160076784Y-54948456D01*
X159912812Y-55016376D01*
X159763512Y-55046073D01*
X159738742Y-55051000D01*
X159561258Y-55051000D01*
X159536488Y-55046073D01*
X159387188Y-55016376D01*
X159223216Y-54948456D01*
X159075646Y-54849853D01*
X158950147Y-54724354D01*
X158851544Y-54576784D01*
X158783624Y-54412812D01*
X158749000Y-54238741D01*
X158749000Y-54061259D01*
X158783624Y-53887188D01*
X158851544Y-53723216D01*
X158950147Y-53575646D01*
X159075646Y-53450147D01*
X159223216Y-53351544D01*
X159387188Y-53283624D01*
X159536488Y-53253927D01*
X159561258Y-53249000D01*
X159738742Y-53249000D01*
X159763512Y-53253927D01*
G37*
G36*
X157223512Y-53253927D02*
G01*
X157372812Y-53283624D01*
X157536784Y-53351544D01*
X157684354Y-53450147D01*
X157809853Y-53575646D01*
X157908456Y-53723216D01*
X157976376Y-53887188D01*
X158011000Y-54061259D01*
X158011000Y-54238741D01*
X157976376Y-54412812D01*
X157908456Y-54576784D01*
X157809853Y-54724354D01*
X157684354Y-54849853D01*
X157536784Y-54948456D01*
X157372812Y-55016376D01*
X157223512Y-55046073D01*
X157198742Y-55051000D01*
X157021258Y-55051000D01*
X156996488Y-55046073D01*
X156847188Y-55016376D01*
X156683216Y-54948456D01*
X156535646Y-54849853D01*
X156410147Y-54724354D01*
X156311544Y-54576784D01*
X156243624Y-54412812D01*
X156209000Y-54238741D01*
X156209000Y-54061259D01*
X156243624Y-53887188D01*
X156311544Y-53723216D01*
X156410147Y-53575646D01*
X156535646Y-53450147D01*
X156683216Y-53351544D01*
X156847188Y-53283624D01*
X156996488Y-53253927D01*
X157021258Y-53249000D01*
X157198742Y-53249000D01*
X157223512Y-53253927D01*
G37*
G36*
X154683512Y-53253927D02*
G01*
X154832812Y-53283624D01*
X154996784Y-53351544D01*
X155144354Y-53450147D01*
X155269853Y-53575646D01*
X155368456Y-53723216D01*
X155436376Y-53887188D01*
X155471000Y-54061259D01*
X155471000Y-54238741D01*
X155436376Y-54412812D01*
X155368456Y-54576784D01*
X155269853Y-54724354D01*
X155144354Y-54849853D01*
X154996784Y-54948456D01*
X154832812Y-55016376D01*
X154683512Y-55046073D01*
X154658742Y-55051000D01*
X154481258Y-55051000D01*
X154456488Y-55046073D01*
X154307188Y-55016376D01*
X154143216Y-54948456D01*
X153995646Y-54849853D01*
X153870147Y-54724354D01*
X153771544Y-54576784D01*
X153703624Y-54412812D01*
X153669000Y-54238741D01*
X153669000Y-54061259D01*
X153703624Y-53887188D01*
X153771544Y-53723216D01*
X153870147Y-53575646D01*
X153995646Y-53450147D01*
X154143216Y-53351544D01*
X154307188Y-53283624D01*
X154456488Y-53253927D01*
X154481258Y-53249000D01*
X154658742Y-53249000D01*
X154683512Y-53253927D01*
G37*
G36*
X152931000Y-55051000D02*
G01*
X151129000Y-55051000D01*
X151129000Y-53249000D01*
X152931000Y-53249000D01*
X152931000Y-55051000D01*
G37*
G36*
X108063512Y-53078927D02*
G01*
X108212812Y-53108624D01*
X108376784Y-53176544D01*
X108524354Y-53275147D01*
X108649853Y-53400646D01*
X108748456Y-53548216D01*
X108816376Y-53712188D01*
X108851000Y-53886259D01*
X108851000Y-54063741D01*
X108816376Y-54237812D01*
X108748456Y-54401784D01*
X108649853Y-54549354D01*
X108524354Y-54674853D01*
X108376784Y-54773456D01*
X108212812Y-54841376D01*
X108063512Y-54871073D01*
X108038742Y-54876000D01*
X107861258Y-54876000D01*
X107836488Y-54871073D01*
X107687188Y-54841376D01*
X107523216Y-54773456D01*
X107375646Y-54674853D01*
X107250147Y-54549354D01*
X107151544Y-54401784D01*
X107083624Y-54237812D01*
X107049000Y-54063741D01*
X107049000Y-53886259D01*
X107083624Y-53712188D01*
X107151544Y-53548216D01*
X107250147Y-53400646D01*
X107375646Y-53275147D01*
X107523216Y-53176544D01*
X107687188Y-53108624D01*
X107836488Y-53078927D01*
X107861258Y-53074000D01*
X108038742Y-53074000D01*
X108063512Y-53078927D01*
G37*
G36*
X98691000Y-54876000D02*
G01*
X96889000Y-54876000D01*
X96889000Y-53074000D01*
X98691000Y-53074000D01*
X98691000Y-54876000D01*
G37*
G36*
X125843512Y-53078927D02*
G01*
X125992812Y-53108624D01*
X126156784Y-53176544D01*
X126304354Y-53275147D01*
X126429853Y-53400646D01*
X126528456Y-53548216D01*
X126596376Y-53712188D01*
X126631000Y-53886259D01*
X126631000Y-54063741D01*
X126596376Y-54237812D01*
X126528456Y-54401784D01*
X126429853Y-54549354D01*
X126304354Y-54674853D01*
X126156784Y-54773456D01*
X125992812Y-54841376D01*
X125843512Y-54871073D01*
X125818742Y-54876000D01*
X125641258Y-54876000D01*
X125616488Y-54871073D01*
X125467188Y-54841376D01*
X125303216Y-54773456D01*
X125155646Y-54674853D01*
X125030147Y-54549354D01*
X124931544Y-54401784D01*
X124863624Y-54237812D01*
X124829000Y-54063741D01*
X124829000Y-53886259D01*
X124863624Y-53712188D01*
X124931544Y-53548216D01*
X125030147Y-53400646D01*
X125155646Y-53275147D01*
X125303216Y-53176544D01*
X125467188Y-53108624D01*
X125616488Y-53078927D01*
X125641258Y-53074000D01*
X125818742Y-53074000D01*
X125843512Y-53078927D01*
G37*
G36*
X123303512Y-53078927D02*
G01*
X123452812Y-53108624D01*
X123616784Y-53176544D01*
X123764354Y-53275147D01*
X123889853Y-53400646D01*
X123988456Y-53548216D01*
X124056376Y-53712188D01*
X124091000Y-53886259D01*
X124091000Y-54063741D01*
X124056376Y-54237812D01*
X123988456Y-54401784D01*
X123889853Y-54549354D01*
X123764354Y-54674853D01*
X123616784Y-54773456D01*
X123452812Y-54841376D01*
X123303512Y-54871073D01*
X123278742Y-54876000D01*
X123101258Y-54876000D01*
X123076488Y-54871073D01*
X122927188Y-54841376D01*
X122763216Y-54773456D01*
X122615646Y-54674853D01*
X122490147Y-54549354D01*
X122391544Y-54401784D01*
X122323624Y-54237812D01*
X122289000Y-54063741D01*
X122289000Y-53886259D01*
X122323624Y-53712188D01*
X122391544Y-53548216D01*
X122490147Y-53400646D01*
X122615646Y-53275147D01*
X122763216Y-53176544D01*
X122927188Y-53108624D01*
X123076488Y-53078927D01*
X123101258Y-53074000D01*
X123278742Y-53074000D01*
X123303512Y-53078927D01*
G37*
G36*
X120763512Y-53078927D02*
G01*
X120912812Y-53108624D01*
X121076784Y-53176544D01*
X121224354Y-53275147D01*
X121349853Y-53400646D01*
X121448456Y-53548216D01*
X121516376Y-53712188D01*
X121551000Y-53886259D01*
X121551000Y-54063741D01*
X121516376Y-54237812D01*
X121448456Y-54401784D01*
X121349853Y-54549354D01*
X121224354Y-54674853D01*
X121076784Y-54773456D01*
X120912812Y-54841376D01*
X120763512Y-54871073D01*
X120738742Y-54876000D01*
X120561258Y-54876000D01*
X120536488Y-54871073D01*
X120387188Y-54841376D01*
X120223216Y-54773456D01*
X120075646Y-54674853D01*
X119950147Y-54549354D01*
X119851544Y-54401784D01*
X119783624Y-54237812D01*
X119749000Y-54063741D01*
X119749000Y-53886259D01*
X119783624Y-53712188D01*
X119851544Y-53548216D01*
X119950147Y-53400646D01*
X120075646Y-53275147D01*
X120223216Y-53176544D01*
X120387188Y-53108624D01*
X120536488Y-53078927D01*
X120561258Y-53074000D01*
X120738742Y-53074000D01*
X120763512Y-53078927D01*
G37*
G36*
X118223512Y-53078927D02*
G01*
X118372812Y-53108624D01*
X118536784Y-53176544D01*
X118684354Y-53275147D01*
X118809853Y-53400646D01*
X118908456Y-53548216D01*
X118976376Y-53712188D01*
X119011000Y-53886259D01*
X119011000Y-54063741D01*
X118976376Y-54237812D01*
X118908456Y-54401784D01*
X118809853Y-54549354D01*
X118684354Y-54674853D01*
X118536784Y-54773456D01*
X118372812Y-54841376D01*
X118223512Y-54871073D01*
X118198742Y-54876000D01*
X118021258Y-54876000D01*
X117996488Y-54871073D01*
X117847188Y-54841376D01*
X117683216Y-54773456D01*
X117535646Y-54674853D01*
X117410147Y-54549354D01*
X117311544Y-54401784D01*
X117243624Y-54237812D01*
X117209000Y-54063741D01*
X117209000Y-53886259D01*
X117243624Y-53712188D01*
X117311544Y-53548216D01*
X117410147Y-53400646D01*
X117535646Y-53275147D01*
X117683216Y-53176544D01*
X117847188Y-53108624D01*
X117996488Y-53078927D01*
X118021258Y-53074000D01*
X118198742Y-53074000D01*
X118223512Y-53078927D01*
G37*
G36*
X115683512Y-53078927D02*
G01*
X115832812Y-53108624D01*
X115996784Y-53176544D01*
X116144354Y-53275147D01*
X116269853Y-53400646D01*
X116368456Y-53548216D01*
X116436376Y-53712188D01*
X116471000Y-53886259D01*
X116471000Y-54063741D01*
X116436376Y-54237812D01*
X116368456Y-54401784D01*
X116269853Y-54549354D01*
X116144354Y-54674853D01*
X115996784Y-54773456D01*
X115832812Y-54841376D01*
X115683512Y-54871073D01*
X115658742Y-54876000D01*
X115481258Y-54876000D01*
X115456488Y-54871073D01*
X115307188Y-54841376D01*
X115143216Y-54773456D01*
X114995646Y-54674853D01*
X114870147Y-54549354D01*
X114771544Y-54401784D01*
X114703624Y-54237812D01*
X114669000Y-54063741D01*
X114669000Y-53886259D01*
X114703624Y-53712188D01*
X114771544Y-53548216D01*
X114870147Y-53400646D01*
X114995646Y-53275147D01*
X115143216Y-53176544D01*
X115307188Y-53108624D01*
X115456488Y-53078927D01*
X115481258Y-53074000D01*
X115658742Y-53074000D01*
X115683512Y-53078927D01*
G37*
G36*
X113143512Y-53078927D02*
G01*
X113292812Y-53108624D01*
X113456784Y-53176544D01*
X113604354Y-53275147D01*
X113729853Y-53400646D01*
X113828456Y-53548216D01*
X113896376Y-53712188D01*
X113931000Y-53886259D01*
X113931000Y-54063741D01*
X113896376Y-54237812D01*
X113828456Y-54401784D01*
X113729853Y-54549354D01*
X113604354Y-54674853D01*
X113456784Y-54773456D01*
X113292812Y-54841376D01*
X113143512Y-54871073D01*
X113118742Y-54876000D01*
X112941258Y-54876000D01*
X112916488Y-54871073D01*
X112767188Y-54841376D01*
X112603216Y-54773456D01*
X112455646Y-54674853D01*
X112330147Y-54549354D01*
X112231544Y-54401784D01*
X112163624Y-54237812D01*
X112129000Y-54063741D01*
X112129000Y-53886259D01*
X112163624Y-53712188D01*
X112231544Y-53548216D01*
X112330147Y-53400646D01*
X112455646Y-53275147D01*
X112603216Y-53176544D01*
X112767188Y-53108624D01*
X112916488Y-53078927D01*
X112941258Y-53074000D01*
X113118742Y-53074000D01*
X113143512Y-53078927D01*
G37*
G36*
X110603512Y-53078927D02*
G01*
X110752812Y-53108624D01*
X110916784Y-53176544D01*
X111064354Y-53275147D01*
X111189853Y-53400646D01*
X111288456Y-53548216D01*
X111356376Y-53712188D01*
X111391000Y-53886259D01*
X111391000Y-54063741D01*
X111356376Y-54237812D01*
X111288456Y-54401784D01*
X111189853Y-54549354D01*
X111064354Y-54674853D01*
X110916784Y-54773456D01*
X110752812Y-54841376D01*
X110603512Y-54871073D01*
X110578742Y-54876000D01*
X110401258Y-54876000D01*
X110376488Y-54871073D01*
X110227188Y-54841376D01*
X110063216Y-54773456D01*
X109915646Y-54674853D01*
X109790147Y-54549354D01*
X109691544Y-54401784D01*
X109623624Y-54237812D01*
X109589000Y-54063741D01*
X109589000Y-53886259D01*
X109623624Y-53712188D01*
X109691544Y-53548216D01*
X109790147Y-53400646D01*
X109915646Y-53275147D01*
X110063216Y-53176544D01*
X110227188Y-53108624D01*
X110376488Y-53078927D01*
X110401258Y-53074000D01*
X110578742Y-53074000D01*
X110603512Y-53078927D01*
G37*
G36*
X105523512Y-53078927D02*
G01*
X105672812Y-53108624D01*
X105836784Y-53176544D01*
X105984354Y-53275147D01*
X106109853Y-53400646D01*
X106208456Y-53548216D01*
X106276376Y-53712188D01*
X106311000Y-53886259D01*
X106311000Y-54063741D01*
X106276376Y-54237812D01*
X106208456Y-54401784D01*
X106109853Y-54549354D01*
X105984354Y-54674853D01*
X105836784Y-54773456D01*
X105672812Y-54841376D01*
X105523512Y-54871073D01*
X105498742Y-54876000D01*
X105321258Y-54876000D01*
X105296488Y-54871073D01*
X105147188Y-54841376D01*
X104983216Y-54773456D01*
X104835646Y-54674853D01*
X104710147Y-54549354D01*
X104611544Y-54401784D01*
X104543624Y-54237812D01*
X104509000Y-54063741D01*
X104509000Y-53886259D01*
X104543624Y-53712188D01*
X104611544Y-53548216D01*
X104710147Y-53400646D01*
X104835646Y-53275147D01*
X104983216Y-53176544D01*
X105147188Y-53108624D01*
X105296488Y-53078927D01*
X105321258Y-53074000D01*
X105498742Y-53074000D01*
X105523512Y-53078927D01*
G37*
G36*
X102983512Y-53078927D02*
G01*
X103132812Y-53108624D01*
X103296784Y-53176544D01*
X103444354Y-53275147D01*
X103569853Y-53400646D01*
X103668456Y-53548216D01*
X103736376Y-53712188D01*
X103771000Y-53886259D01*
X103771000Y-54063741D01*
X103736376Y-54237812D01*
X103668456Y-54401784D01*
X103569853Y-54549354D01*
X103444354Y-54674853D01*
X103296784Y-54773456D01*
X103132812Y-54841376D01*
X102983512Y-54871073D01*
X102958742Y-54876000D01*
X102781258Y-54876000D01*
X102756488Y-54871073D01*
X102607188Y-54841376D01*
X102443216Y-54773456D01*
X102295646Y-54674853D01*
X102170147Y-54549354D01*
X102071544Y-54401784D01*
X102003624Y-54237812D01*
X101969000Y-54063741D01*
X101969000Y-53886259D01*
X102003624Y-53712188D01*
X102071544Y-53548216D01*
X102170147Y-53400646D01*
X102295646Y-53275147D01*
X102443216Y-53176544D01*
X102607188Y-53108624D01*
X102756488Y-53078927D01*
X102781258Y-53074000D01*
X102958742Y-53074000D01*
X102983512Y-53078927D01*
G37*
G36*
X100443512Y-53078927D02*
G01*
X100592812Y-53108624D01*
X100756784Y-53176544D01*
X100904354Y-53275147D01*
X101029853Y-53400646D01*
X101128456Y-53548216D01*
X101196376Y-53712188D01*
X101231000Y-53886259D01*
X101231000Y-54063741D01*
X101196376Y-54237812D01*
X101128456Y-54401784D01*
X101029853Y-54549354D01*
X100904354Y-54674853D01*
X100756784Y-54773456D01*
X100592812Y-54841376D01*
X100443512Y-54871073D01*
X100418742Y-54876000D01*
X100241258Y-54876000D01*
X100216488Y-54871073D01*
X100067188Y-54841376D01*
X99903216Y-54773456D01*
X99755646Y-54674853D01*
X99630147Y-54549354D01*
X99531544Y-54401784D01*
X99463624Y-54237812D01*
X99429000Y-54063741D01*
X99429000Y-53886259D01*
X99463624Y-53712188D01*
X99531544Y-53548216D01*
X99630147Y-53400646D01*
X99755646Y-53275147D01*
X99903216Y-53176544D01*
X100067188Y-53108624D01*
X100216488Y-53078927D01*
X100241258Y-53074000D01*
X100418742Y-53074000D01*
X100443512Y-53078927D01*
G37*
G36*
X186321000Y-54876000D02*
G01*
X184519000Y-54876000D01*
X184519000Y-53074000D01*
X186321000Y-53074000D01*
X186321000Y-54876000D01*
G37*
G36*
X188073512Y-53078927D02*
G01*
X188222812Y-53108624D01*
X188386784Y-53176544D01*
X188534354Y-53275147D01*
X188659853Y-53400646D01*
X188758456Y-53548216D01*
X188826376Y-53712188D01*
X188861000Y-53886259D01*
X188861000Y-54063741D01*
X188826376Y-54237812D01*
X188758456Y-54401784D01*
X188659853Y-54549354D01*
X188534354Y-54674853D01*
X188386784Y-54773456D01*
X188222812Y-54841376D01*
X188073512Y-54871073D01*
X188048742Y-54876000D01*
X187871258Y-54876000D01*
X187846488Y-54871073D01*
X187697188Y-54841376D01*
X187533216Y-54773456D01*
X187385646Y-54674853D01*
X187260147Y-54549354D01*
X187161544Y-54401784D01*
X187093624Y-54237812D01*
X187059000Y-54063741D01*
X187059000Y-53886259D01*
X187093624Y-53712188D01*
X187161544Y-53548216D01*
X187260147Y-53400646D01*
X187385646Y-53275147D01*
X187533216Y-53176544D01*
X187697188Y-53108624D01*
X187846488Y-53078927D01*
X187871258Y-53074000D01*
X188048742Y-53074000D01*
X188073512Y-53078927D01*
G37*
G36*
X190613512Y-53078927D02*
G01*
X190762812Y-53108624D01*
X190926784Y-53176544D01*
X191074354Y-53275147D01*
X191199853Y-53400646D01*
X191298456Y-53548216D01*
X191366376Y-53712188D01*
X191401000Y-53886259D01*
X191401000Y-54063741D01*
X191366376Y-54237812D01*
X191298456Y-54401784D01*
X191199853Y-54549354D01*
X191074354Y-54674853D01*
X190926784Y-54773456D01*
X190762812Y-54841376D01*
X190613512Y-54871073D01*
X190588742Y-54876000D01*
X190411258Y-54876000D01*
X190386488Y-54871073D01*
X190237188Y-54841376D01*
X190073216Y-54773456D01*
X189925646Y-54674853D01*
X189800147Y-54549354D01*
X189701544Y-54401784D01*
X189633624Y-54237812D01*
X189599000Y-54063741D01*
X189599000Y-53886259D01*
X189633624Y-53712188D01*
X189701544Y-53548216D01*
X189800147Y-53400646D01*
X189925646Y-53275147D01*
X190073216Y-53176544D01*
X190237188Y-53108624D01*
X190386488Y-53078927D01*
X190411258Y-53074000D01*
X190588742Y-53074000D01*
X190613512Y-53078927D01*
G37*
G36*
X193153512Y-53078927D02*
G01*
X193302812Y-53108624D01*
X193466784Y-53176544D01*
X193614354Y-53275147D01*
X193739853Y-53400646D01*
X193838456Y-53548216D01*
X193906376Y-53712188D01*
X193941000Y-53886259D01*
X193941000Y-54063741D01*
X193906376Y-54237812D01*
X193838456Y-54401784D01*
X193739853Y-54549354D01*
X193614354Y-54674853D01*
X193466784Y-54773456D01*
X193302812Y-54841376D01*
X193153512Y-54871073D01*
X193128742Y-54876000D01*
X192951258Y-54876000D01*
X192926488Y-54871073D01*
X192777188Y-54841376D01*
X192613216Y-54773456D01*
X192465646Y-54674853D01*
X192340147Y-54549354D01*
X192241544Y-54401784D01*
X192173624Y-54237812D01*
X192139000Y-54063741D01*
X192139000Y-53886259D01*
X192173624Y-53712188D01*
X192241544Y-53548216D01*
X192340147Y-53400646D01*
X192465646Y-53275147D01*
X192613216Y-53176544D01*
X192777188Y-53108624D01*
X192926488Y-53078927D01*
X192951258Y-53074000D01*
X193128742Y-53074000D01*
X193153512Y-53078927D01*
G37*
G36*
X195693512Y-53078927D02*
G01*
X195842812Y-53108624D01*
X196006784Y-53176544D01*
X196154354Y-53275147D01*
X196279853Y-53400646D01*
X196378456Y-53548216D01*
X196446376Y-53712188D01*
X196481000Y-53886259D01*
X196481000Y-54063741D01*
X196446376Y-54237812D01*
X196378456Y-54401784D01*
X196279853Y-54549354D01*
X196154354Y-54674853D01*
X196006784Y-54773456D01*
X195842812Y-54841376D01*
X195693512Y-54871073D01*
X195668742Y-54876000D01*
X195491258Y-54876000D01*
X195466488Y-54871073D01*
X195317188Y-54841376D01*
X195153216Y-54773456D01*
X195005646Y-54674853D01*
X194880147Y-54549354D01*
X194781544Y-54401784D01*
X194713624Y-54237812D01*
X194679000Y-54063741D01*
X194679000Y-53886259D01*
X194713624Y-53712188D01*
X194781544Y-53548216D01*
X194880147Y-53400646D01*
X195005646Y-53275147D01*
X195153216Y-53176544D01*
X195317188Y-53108624D01*
X195466488Y-53078927D01*
X195491258Y-53074000D01*
X195668742Y-53074000D01*
X195693512Y-53078927D01*
G37*
G36*
X198233512Y-53078927D02*
G01*
X198382812Y-53108624D01*
X198546784Y-53176544D01*
X198694354Y-53275147D01*
X198819853Y-53400646D01*
X198918456Y-53548216D01*
X198986376Y-53712188D01*
X199021000Y-53886259D01*
X199021000Y-54063741D01*
X198986376Y-54237812D01*
X198918456Y-54401784D01*
X198819853Y-54549354D01*
X198694354Y-54674853D01*
X198546784Y-54773456D01*
X198382812Y-54841376D01*
X198233512Y-54871073D01*
X198208742Y-54876000D01*
X198031258Y-54876000D01*
X198006488Y-54871073D01*
X197857188Y-54841376D01*
X197693216Y-54773456D01*
X197545646Y-54674853D01*
X197420147Y-54549354D01*
X197321544Y-54401784D01*
X197253624Y-54237812D01*
X197219000Y-54063741D01*
X197219000Y-53886259D01*
X197253624Y-53712188D01*
X197321544Y-53548216D01*
X197420147Y-53400646D01*
X197545646Y-53275147D01*
X197693216Y-53176544D01*
X197857188Y-53108624D01*
X198006488Y-53078927D01*
X198031258Y-53074000D01*
X198208742Y-53074000D01*
X198233512Y-53078927D01*
G37*
G36*
X203313512Y-53078927D02*
G01*
X203462812Y-53108624D01*
X203626784Y-53176544D01*
X203774354Y-53275147D01*
X203899853Y-53400646D01*
X203998456Y-53548216D01*
X204066376Y-53712188D01*
X204101000Y-53886259D01*
X204101000Y-54063741D01*
X204066376Y-54237812D01*
X203998456Y-54401784D01*
X203899853Y-54549354D01*
X203774354Y-54674853D01*
X203626784Y-54773456D01*
X203462812Y-54841376D01*
X203313512Y-54871073D01*
X203288742Y-54876000D01*
X203111258Y-54876000D01*
X203086488Y-54871073D01*
X202937188Y-54841376D01*
X202773216Y-54773456D01*
X202625646Y-54674853D01*
X202500147Y-54549354D01*
X202401544Y-54401784D01*
X202333624Y-54237812D01*
X202299000Y-54063741D01*
X202299000Y-53886259D01*
X202333624Y-53712188D01*
X202401544Y-53548216D01*
X202500147Y-53400646D01*
X202625646Y-53275147D01*
X202773216Y-53176544D01*
X202937188Y-53108624D01*
X203086488Y-53078927D01*
X203111258Y-53074000D01*
X203288742Y-53074000D01*
X203313512Y-53078927D01*
G37*
G36*
X205853512Y-53078927D02*
G01*
X206002812Y-53108624D01*
X206166784Y-53176544D01*
X206314354Y-53275147D01*
X206439853Y-53400646D01*
X206538456Y-53548216D01*
X206606376Y-53712188D01*
X206641000Y-53886259D01*
X206641000Y-54063741D01*
X206606376Y-54237812D01*
X206538456Y-54401784D01*
X206439853Y-54549354D01*
X206314354Y-54674853D01*
X206166784Y-54773456D01*
X206002812Y-54841376D01*
X205853512Y-54871073D01*
X205828742Y-54876000D01*
X205651258Y-54876000D01*
X205626488Y-54871073D01*
X205477188Y-54841376D01*
X205313216Y-54773456D01*
X205165646Y-54674853D01*
X205040147Y-54549354D01*
X204941544Y-54401784D01*
X204873624Y-54237812D01*
X204839000Y-54063741D01*
X204839000Y-53886259D01*
X204873624Y-53712188D01*
X204941544Y-53548216D01*
X205040147Y-53400646D01*
X205165646Y-53275147D01*
X205313216Y-53176544D01*
X205477188Y-53108624D01*
X205626488Y-53078927D01*
X205651258Y-53074000D01*
X205828742Y-53074000D01*
X205853512Y-53078927D01*
G37*
G36*
X208393512Y-53078927D02*
G01*
X208542812Y-53108624D01*
X208706784Y-53176544D01*
X208854354Y-53275147D01*
X208979853Y-53400646D01*
X209078456Y-53548216D01*
X209146376Y-53712188D01*
X209181000Y-53886259D01*
X209181000Y-54063741D01*
X209146376Y-54237812D01*
X209078456Y-54401784D01*
X208979853Y-54549354D01*
X208854354Y-54674853D01*
X208706784Y-54773456D01*
X208542812Y-54841376D01*
X208393512Y-54871073D01*
X208368742Y-54876000D01*
X208191258Y-54876000D01*
X208166488Y-54871073D01*
X208017188Y-54841376D01*
X207853216Y-54773456D01*
X207705646Y-54674853D01*
X207580147Y-54549354D01*
X207481544Y-54401784D01*
X207413624Y-54237812D01*
X207379000Y-54063741D01*
X207379000Y-53886259D01*
X207413624Y-53712188D01*
X207481544Y-53548216D01*
X207580147Y-53400646D01*
X207705646Y-53275147D01*
X207853216Y-53176544D01*
X208017188Y-53108624D01*
X208166488Y-53078927D01*
X208191258Y-53074000D01*
X208368742Y-53074000D01*
X208393512Y-53078927D01*
G37*
G36*
X135521000Y-54876000D02*
G01*
X133719000Y-54876000D01*
X133719000Y-53074000D01*
X135521000Y-53074000D01*
X135521000Y-54876000D01*
G37*
G36*
X137273512Y-53078927D02*
G01*
X137422812Y-53108624D01*
X137586784Y-53176544D01*
X137734354Y-53275147D01*
X137859853Y-53400646D01*
X137958456Y-53548216D01*
X138026376Y-53712188D01*
X138061000Y-53886259D01*
X138061000Y-54063741D01*
X138026376Y-54237812D01*
X137958456Y-54401784D01*
X137859853Y-54549354D01*
X137734354Y-54674853D01*
X137586784Y-54773456D01*
X137422812Y-54841376D01*
X137273512Y-54871073D01*
X137248742Y-54876000D01*
X137071258Y-54876000D01*
X137046488Y-54871073D01*
X136897188Y-54841376D01*
X136733216Y-54773456D01*
X136585646Y-54674853D01*
X136460147Y-54549354D01*
X136361544Y-54401784D01*
X136293624Y-54237812D01*
X136259000Y-54063741D01*
X136259000Y-53886259D01*
X136293624Y-53712188D01*
X136361544Y-53548216D01*
X136460147Y-53400646D01*
X136585646Y-53275147D01*
X136733216Y-53176544D01*
X136897188Y-53108624D01*
X137046488Y-53078927D01*
X137071258Y-53074000D01*
X137248742Y-53074000D01*
X137273512Y-53078927D01*
G37*
G36*
X128383512Y-53078927D02*
G01*
X128532812Y-53108624D01*
X128696784Y-53176544D01*
X128844354Y-53275147D01*
X128969853Y-53400646D01*
X129068456Y-53548216D01*
X129136376Y-53712188D01*
X129171000Y-53886259D01*
X129171000Y-54063741D01*
X129136376Y-54237812D01*
X129068456Y-54401784D01*
X128969853Y-54549354D01*
X128844354Y-54674853D01*
X128696784Y-54773456D01*
X128532812Y-54841376D01*
X128383512Y-54871073D01*
X128358742Y-54876000D01*
X128181258Y-54876000D01*
X128156488Y-54871073D01*
X128007188Y-54841376D01*
X127843216Y-54773456D01*
X127695646Y-54674853D01*
X127570147Y-54549354D01*
X127471544Y-54401784D01*
X127403624Y-54237812D01*
X127369000Y-54063741D01*
X127369000Y-53886259D01*
X127403624Y-53712188D01*
X127471544Y-53548216D01*
X127570147Y-53400646D01*
X127695646Y-53275147D01*
X127843216Y-53176544D01*
X128007188Y-53108624D01*
X128156488Y-53078927D01*
X128181258Y-53074000D01*
X128358742Y-53074000D01*
X128383512Y-53078927D01*
G37*
G36*
X200773512Y-53078927D02*
G01*
X200922812Y-53108624D01*
X201086784Y-53176544D01*
X201234354Y-53275147D01*
X201359853Y-53400646D01*
X201458456Y-53548216D01*
X201526376Y-53712188D01*
X201561000Y-53886259D01*
X201561000Y-54063741D01*
X201526376Y-54237812D01*
X201458456Y-54401784D01*
X201359853Y-54549354D01*
X201234354Y-54674853D01*
X201086784Y-54773456D01*
X200922812Y-54841376D01*
X200773512Y-54871073D01*
X200748742Y-54876000D01*
X200571258Y-54876000D01*
X200546488Y-54871073D01*
X200397188Y-54841376D01*
X200233216Y-54773456D01*
X200085646Y-54674853D01*
X199960147Y-54549354D01*
X199861544Y-54401784D01*
X199793624Y-54237812D01*
X199759000Y-54063741D01*
X199759000Y-53886259D01*
X199793624Y-53712188D01*
X199861544Y-53548216D01*
X199960147Y-53400646D01*
X200085646Y-53275147D01*
X200233216Y-53176544D01*
X200397188Y-53108624D01*
X200546488Y-53078927D01*
X200571258Y-53074000D01*
X200748742Y-53074000D01*
X200773512Y-53078927D01*
G37*
M02*
