  0
SECTION
  2
HEADER
  9
$ANGBASE
  50
0.0
  9
$ANGDIR
  70
1
  9
$MEASUREMENT
  70
1
  0
ENDSEC
  0
SECTION
  2
TABLES
  0
TABLE
  2
LTYPE
  70
4
  0
LTYPE
  5
40F
  2
CONTINUOUS
  70
0
  3
Solid line
  72
65
  73
0
  40
0.0
  0
LTYPE
  5
410
  2
DASHDOT
 70
0
  3
Dash Dot ____ _ ____ _
 72
65
 73
4
 40
2.0
 49
1.25
 49
-0.25
 49
0.25
 49
-0.25
  0
LTYPE
  5
411
  2
DASHED
 70
0
  3
Dashed __ __ __ __ __
 72
65
 73
2
 40
0.75
 49
0.5
 49
-0.25
  0
LTYPE
  5
43B
  2
DOTTED
 70
0
  3
Dotted .  .  .  .
 72
65
 73
2
 40
0.2
 49
0.0
 49
-0.2
  0
ENDTAB
  0
TABLE
  2
STYLE
  70
4
  0
STYLE
  2
KICAD
  70
0
  40
0
  41
1
  42
1
  50
0
  71
0
  3
isocp.shx
  0
STYLE
  2
KICADB
  70
0
  40
0
  41
1
  42
1
  50
0
  71
0
  3
isocp.shx
  0
STYLE
  2
KICADI
  70
0
  40
0
  41
1
  42
1
  50
15
  71
0
  3
isocp.shx
  0
STYLE
  2
KICADBI
  70
0
  40
0
  41
1
  42
1
  50
15
  71
0
  3
isocp.shx
  0
ENDTAB
  0
TABLE
  2
LAYER
  70
1
  0
LAYER
  2
BLACK
  70
0
  62
7
  6
CONTINUOUS
  0
ENDTAB
  0
ENDSEC
  0
SECTION
  2
ENTITIES
0
LINE
8
BLACK
6
CONTINUOUS
10
28.9
20
-145.225
11
28.8988
21
-145.225
0
LINE
8
BLACK
6
CONTINUOUS
10
28.8988
20
-145.225
11
28.8988
21
-145.225
0
LINE
8
BLACK
6
CONTINUOUS
10
28.8988
20
-145.225
11
28.8951
21
-145.225
0
LINE
8
BLACK
6
CONTINUOUS
10
28.8951
20
-145.225
11
28.8904
21
-145.223
0
LINE
8
BLACK
6
CONTINUOUS
10
28.8904
20
-145.223
11
28.886
21
-145.221
0
LINE
8
BLACK
6
CONTINUOUS
10
28.886
20
-145.221
11
28.8822
21
-145.218
0
LINE
8
BLACK
6
CONTINUOUS
10
28.8822
20
-145.218
11
28.8791
21
-145.214
0
LINE
8
BLACK
6
CONTINUOUS
10
28.8791
20
-145.214
11
28.8768
21
-145.21
0
LINE
8
BLACK
6
CONTINUOUS
10
28.8768
20
-145.21
11
28.8754
21
-145.205
0
LINE
8
BLACK
6
CONTINUOUS
10
28.8754
20
-145.205
11
28.8749
21
-145.2
0
LINE
8
BLACK
6
CONTINUOUS
10
28.8749
20
-145.2
11
28.875
21
-145.199
0
LINE
8
BLACK
6
CONTINUOUS
10
28.875
20
-145.199
11
28.875
21
-40.7012
0
LINE
8
BLACK
6
CONTINUOUS
10
28.875
20
-40.7012
11
28.8749
21
-40.7
0
LINE
8
BLACK
6
CONTINUOUS
10
28.8749
20
-40.7
11
28.8754
21
-40.6951
0
LINE
8
BLACK
6
CONTINUOUS
10
28.8754
20
-40.6951
11
28.8768
21
-40.6904
0
LINE
8
BLACK
6
CONTINUOUS
10
28.8768
20
-40.6904
11
28.8791
21
-40.686
0
LINE
8
BLACK
6
CONTINUOUS
10
28.8791
20
-40.686
11
28.8822
21
-40.6822
0
LINE
8
BLACK
6
CONTINUOUS
10
28.8822
20
-40.6822
11
28.886
21
-40.6791
0
LINE
8
BLACK
6
CONTINUOUS
10
28.886
20
-40.6791
11
28.8904
21
-40.6768
0
LINE
8
BLACK
6
CONTINUOUS
10
28.8904
20
-40.6768
11
28.8951
21
-40.6754
0
LINE
8
BLACK
6
CONTINUOUS
10
28.8951
20
-40.6754
11
28.8988
21
-40.675
0
LINE
8
BLACK
6
CONTINUOUS
10
28.8988
20
-40.675
11
28.9
21
-40.6749
0
LINE
8
BLACK
6
CONTINUOUS
10
28.9
20
-40.6749
11
28.9012
21
-40.675
0
LINE
8
BLACK
6
CONTINUOUS
10
28.9012
20
-40.675
11
257.899
21
-40.675
0
LINE
8
BLACK
6
CONTINUOUS
10
257.899
20
-40.675
11
257.9
21
-40.6749
0
LINE
8
BLACK
6
CONTINUOUS
10
257.9
20
-40.6749
11
257.901
21
-40.675
0
LINE
8
BLACK
6
CONTINUOUS
10
257.901
20
-40.675
11
257.905
21
-40.6754
0
LINE
8
BLACK
6
CONTINUOUS
10
257.905
20
-40.6754
11
257.91
21
-40.6768
0
LINE
8
BLACK
6
CONTINUOUS
10
257.91
20
-40.6768
11
257.914
21
-40.6791
0
LINE
8
BLACK
6
CONTINUOUS
10
257.914
20
-40.6791
11
257.918
21
-40.6822
0
LINE
8
BLACK
6
CONTINUOUS
10
257.918
20
-40.6822
11
257.921
21
-40.686
0
LINE
8
BLACK
6
CONTINUOUS
10
257.921
20
-40.686
11
257.923
21
-40.6904
0
LINE
8
BLACK
6
CONTINUOUS
10
257.923
20
-40.6904
11
257.925
21
-40.6951
0
LINE
8
BLACK
6
CONTINUOUS
10
257.925
20
-40.6951
11
257.925
21
-40.7
0
LINE
8
BLACK
6
CONTINUOUS
10
257.925
20
-40.7
11
257.925
21
-40.7012
0
LINE
8
BLACK
6
CONTINUOUS
10
257.925
20
-40.7012
11
257.925
21
-145.199
0
LINE
8
BLACK
6
CONTINUOUS
10
257.925
20
-145.199
11
257.925
21
-145.2
0
LINE
8
BLACK
6
CONTINUOUS
10
257.925
20
-145.2
11
257.925
21
-145.205
0
LINE
8
BLACK
6
CONTINUOUS
10
257.925
20
-145.205
11
257.923
21
-145.21
0
LINE
8
BLACK
6
CONTINUOUS
10
257.923
20
-145.21
11
257.921
21
-145.214
0
LINE
8
BLACK
6
CONTINUOUS
10
257.921
20
-145.214
11
257.918
21
-145.218
0
LINE
8
BLACK
6
CONTINUOUS
10
257.918
20
-145.218
11
257.914
21
-145.221
0
LINE
8
BLACK
6
CONTINUOUS
10
257.914
20
-145.221
11
257.91
21
-145.223
0
LINE
8
BLACK
6
CONTINUOUS
10
257.91
20
-145.223
11
257.905
21
-145.225
0
LINE
8
BLACK
6
CONTINUOUS
10
257.905
20
-145.225
11
257.901
21
-145.225
0
LINE
8
BLACK
6
CONTINUOUS
10
257.901
20
-145.225
11
257.901
21
-145.225
0
LINE
8
BLACK
6
CONTINUOUS
10
257.901
20
-145.225
11
257.9
21
-145.225
0
LINE
8
BLACK
6
CONTINUOUS
10
257.9
20
-145.225
11
257.899
21
-145.225
0
LINE
8
BLACK
6
CONTINUOUS
10
257.899
20
-145.225
11
28.9012
21
-145.225
0
LINE
8
BLACK
6
CONTINUOUS
10
28.9012
20
-145.225
11
28.9
21
-145.225
0
LINE
8
BLACK
6
CONTINUOUS
10
257.875
20
-40.725
11
28.925
21
-40.725
0
LINE
8
BLACK
6
CONTINUOUS
10
28.925
20
-40.725
11
28.925
21
-145.175
0
LINE
8
BLACK
6
CONTINUOUS
10
28.925
20
-145.175
11
257.875
21
-145.175
0
LINE
8
BLACK
6
CONTINUOUS
10
257.875
20
-145.175
11
257.875
21
-40.725
  0
ENDSEC
  0
EOF
