999
dxfrw 0.6.3
  0
SECTION
  2
HEADER
  9
$ACADVER
  1
AC1021
  9
$DWGCODEPAGE
  3
ANSI_1252
  9
$INSBASE
 10
0
 20
0
 30
0
  9
$EXTMIN
 10
0.393718
 20
0.403483
 30
0
  9
$EXTMAX
 10
11.2993
 20
7.88406
 30
0
  9
$LIMMIN
 10
0
 20
0
  9
$LIMMAX
 10
420
 20
297
  9
$ORTHOMODE
 70
    0
  9
$REGENMODE
 70
    1
  9
$FILLMODE
 70
    0
  9
$QTEXTMODE
 70
    0
  9
$MIRRTEXT
 70
    0
  9
$LTSCALE
 40
1
  9
$ATTMODE
 70
    0
  9
$TEXTSIZE
 40
2.5
  9
$TRACEWID
 40
15.68
  9
$TEXTSTYLE
  7
STANDARD
  9
$CLAYER
  8
0
  9
$CELTYPE
  6
BYLAYER
  9
$CECOLOR
 62
  256
  9
$CELTSCALE
 40
1
  9
$DISPSILH
 70
    0
  9
$DIMSCALE
 40
2.5
  9
$DIMASZ
 40
2.5
  9
$DIMEXO
 40
0.625
  9
$DIMDLI
 40
3.75
  9
$DIMRND
 40
0
  9
$DIMDLE
 40
0
  9
$DIMEXE
 40
1.25
  9
$DIMTP
 40
0
  9
$DIMTM
 40
0
  9
$DIMTXT
 40
2.5
  9
$DIMCEN
 40
2.5
  9
$DIMTSZ
 40
0
  9
$DIMTOL
 70
    0
  9
$DIMLIM
 70
    0
  9
$DIMTIH
 70
    0
  9
$DIMTOH
 70
    0
  9
$DIMSE1
 70
    0
  9
$DIMSE2
 70
    0
  9
$DIMTAD
 70
    1
  9
$DIMZIN
 70
    8
  9
$DIMBLK
  1

  9
$DIMASO
 70
    1
  9
$DIMSHO
 70
    1
  9
$DIMPOST
  1

  9
$DIMAPOST
  1

  9
$DIMALT
 70
    0
  9
$DIMALTD
 70
    3
  9
$DIMALTF
 40
0.03937
  9
$DIMLFAC
 40
1
  9
$DIMTOFL
 70
    1
  9
$DIMTVP
 40
0
  9
$DIMTIX
 70
    0
  9
$DIMSOXD
 70
    0
  9
$DIMSAH
 70
    0
  9
$DIMBLK1
  1

  9
$DIMBLK2
  1

  9
$DIMSTYLE
  2
Standard
  9
$DIMCLRD
 70
    0
  9
$DIMCLRE
 70
    0
  9
$DIMCLRT
 70
    0
  9
$DIMTFAC
 40
1
  9
$DIMGAP
 40
0.625
  9
$DIMJUST
 70
    0
  9
$DIMSD1
 70
    0
  9
$DIMSD2
 70
    0
  9
$DIMTOLJ
 70
    0
  9
$DIMTZIN
 70
    8
  9
$DIMALTZ
 70
    0
  9
$DIMALTTZ
 70
    0
  9
$DIMUPT
 70
    0
  9
$DIMDEC
 70
    2
  9
$DIMTDEC
 70
    2
  9
$DIMALTU
 70
    2
  9
$DIMALTTD
 70
    3
  9
$DIMTXSTY
  7
STANDARD
  9
$DIMAUNIT
 70
    0
  9
$DIMADEC
 70
    0
  9
$DIMALTRND
 40
0
  9
$DIMAZIN
 70
    0
  9
$DIMDSEP
 70
   44
  9
$DIMATFIT
 70
    3
  9
$DIMFRAC
 70
    0
  9
$DIMLDRBLK
  1
STANDARD
  9
$DIMLUNIT
 70
    2
  9
$DIMLWD
 70
   -2
  9
$DIMLWE
 70
   -2
  9
$DIMTMOVE
 70
    0
  9
$DIMFXL
 40
1
  9
$DIMFXLON
 70
    0
  9
$DIMJOGANG
 40
0.7854
  9
$DIMTFILL
 70
    0
  9
$DIMTFILLCLR
 70
    0
  9
$DIMARCSYM
 70
    0
  9
$DIMLTYPE
  6

  9
$DIMLTEX1
  6

  9
$DIMLTEX2
  6

  9
$LUNITS
 70
    2
  9
$LUPREC
 70
    4
  9
$SKETCHINC
 40
1
  9
$FILLETRAD
 40
0
  9
$AUNITS
 70
    0
  9
$AUPREC
 70
    2
  9
$MENU
  1
.
  9
$ELEVATION
 40
0
  9
$PELEVATION
 40
0
  9
$THICKNESS
 40
0
  9
$LIMCHECK
 70
    0
  9
$CHAMFERA
 40
0
  9
$CHAMFERB
 40
0
  9
$CHAMFERC
 40
0
  9
$CHAMFERD
 40
0
  9
$SKPOLY
 70
    0
  9
$USRTIMER
 70
    1
  9
$ANGBASE
 50
0
  9
$ANGDIR
 70
    0
  9
$PDMODE
 70
   34
  9
$PDSIZE
 40
0
  9
$PLINEWID
 40
0
  9
$SPLFRAME
 70
    1
  9
$SPLINETYPE
 70
    2
  9
$SPLINESEGS
 70
    8
  9
$HANDSEED
  5
20000
  9
$SURFTAB1
 70
    6
  9
$SURFTAB2
 70
    6
  9
$SURFTYPE
 70
    6
  9
$SURFU
 70
    6
  9
$SURFV
 70
    6
  9
$UCSBASE
  2

  9
$UCSNAME
  2

  9
$UCSORG
 10
0
 20
0
 30
0
  9
$UCSXDIR
 10
1
 20
0
 30
0
  9
$UCSYDIR
 10
0
 20
1
 30
0
  9
$UCSORTHOREF
  2

  9
$UCSORTHOVIEW
 70
    0
  9
$UCSORGTOP
 10
0
 20
0
 30
0
  9
$UCSORGBOTTOM
 10
0
 20
0
 30
0
  9
$UCSORGLEFT
 10
0
 20
0
 30
0
  9
$UCSORGRIGHT
 10
0
 20
0
 30
0
  9
$UCSORGFRONT
 10
0
 20
0
 30
0
  9
$UCSORGBACK
 10
0
 20
0
 30
0
  9
$PUCSBASE
  2

  9
$PUCSNAME
  2

  9
$PUCSORG
 10
0
 20
0
 30
0
  9
$PUCSXDIR
 10
1
 20
0
 30
0
  9
$PUCSYDIR
 10
0
 20
1
 30
0
  9
$PUCSORTHOREF
  2

  9
$PUCSORTHOVIEW
 70
    0
  9
$PUCSORGTOP
 10
0
 20
0
 30
0
  9
$PUCSORGBOTTOM
 10
0
 20
0
 30
0
  9
$PUCSORGLEFT
 10
0
 20
0
 30
0
  9
$PUCSORGRIGHT
 10
0
 20
0
 30
0
  9
$PUCSORGFRONT
 10
0
 20
0
 30
0
  9
$PUCSORGBACK
 10
0
 20
0
 30
0
  9
$USERI1
 70
    0
  9
$USERI2
 70
    0
  9
$USERI3
 70
    0
  9
$USERI4
 70
    0
  9
$USERI5
 70
    0
  9
$USERR1
 40
0
  9
$USERR2
 40
0
  9
$USERR3
 40
0
  9
$USERR4
 40
0
  9
$USERR5
 40
0
  9
$WORLDVIEW
 70
    1
  9
$SHADEDGE
 70
    3
  9
$SHADEDIF
 70
   70
  9
$TILEMODE
 70
    1
  9
$MAXACTVP
 70
   64
  9
$PINSBASE
 10
0
 20
0
 30
0
  9
$PLIMCHECK
 70
    0
  9
$PEXTMIN
 10
0
 20
0
 30
0
  9
$PEXTMAX
 10
0
 20
0
 30
0
  9
$SNAPSTYLE
 70
    0
  9
$PLIMMIN
 10
0
 20
0
  9
$PLIMMAX
 10
210
 20
297
  9
$UNITMODE
 70
    0
  9
$VISRETAIN
 70
    1
  9
$PLINEGEN
 70
    0
  9
$PSLTSCALE
 70
    1
  9
$TREEDEPTH
 70
 3020
  9
$CMLSTYLE
  2
Standard
  9
$CMLJUST
 70
    0
  9
$CMLSCALE
 40
20
  9
$PROXYGRAPHICS
 70
    1
  9
$MEASUREMENT
 70
    1
  9
$CELWEIGHT
370
   -1
  9
$ENDCAPS
280
    0
  9
$JOINSTYLE
280
    0
  9
$LWDISPLAY
290
    0
  9
$INSUNITS
 70
    4
  9
$HYPERLINKBASE
  1

  9
$STYLESHEET
  1

  9
$XEDIT
290
    1
  9
$CEPSNTYPE
380
    0
  9
$PSTYLEMODE
290
    1
  9
$EXTNAMES
290
    1
  9
$PSVPSCALE
 40
1
  9
$OLESTARTUP
290
    0
  9
$SORTENTS
280
  127
  9
$INDEXCTL
280
    0
  9
$HIDETEXT
280
    1
  9
$XCLIPFRAME
290
    0
  9
$HALOGAP
280
    0
  9
$OBSCOLOR
 70
  257
  9
$OBSLTYPE
280
    0
  9
$INTERSECTIONDISPLAY
280
    0
  9
$INTERSECTIONCOLOR
 70
  257
  9
$DIMASSOC
280
    1
  9
$PROJECTNAME
  1

  9
$CAMERADISPLAY
290
    0
  9
$LENSLENGTH
 40
50
  9
$CAMERAHEIGHT
 40
0
  9
$STEPSPERSEC
 40
2
  9
$STEPSIZE
 40
50
  9
$3DDWFPREC
 40
2
  9
$PSOLWIDTH
 40
5
  9
$PSOLHEIGHT
 40
80
  9
$LOFTANG1
 40
1.570796326794897
  9
$LOFTANG2
 40
1.570796326794897
  9
$LOFTMAG1
 40
0
  9
$LOFTMAG2
 40
0
  9
$LOFTPARAM
 70
    7
  9
$LOFTNORMALS
280
    1
  9
$LATITUDE
 40
1
  9
$LONGITUDE
 40
1
  9
$NORTHDIRECTION
 40
0
  9
$TIMEZONE
 70
-8000
  9
$LIGHTGLYPHDISPLAY
280
    1
  9
$TILEMODELIGHTSYNCH
280
    1
  9
$SOLIDHIST
280
    1
  9
$SHOWHIST
280
    1
  9
$DWFFRAME
280
    2
  9
$DGNFRAME
280
    0
  9
$REALWORLDSCALE
290
    1
  9
$INTERFERECOLOR
 62
    1
  9
$CSHADOW
280
    0
  9
$SHADOWPLANELOCATION
 40
0
  0
ENDSEC
  0
SECTION
  2
CLASSES
  0
ENDSEC
  0
SECTION
  2
TABLES
  0
TABLE
  2
VPORT
  5
8
330
0
100
AcDbSymbolTable
 70
    1
  0
VPORT
  5
31
330
2
100
AcDbSymbolTableRecord
100
AcDbViewportTableRecord
  2
*ACTIVE
 70
    0
 10
0
 20
0
 11
1
 21
1
 12
10.74260686314964
 22
5.776048431128339
 13
0
 23
0
 14
10
 24
10
 15
10
 25
10
 16
0
 26
0
 36
1
 17
0
 27
0
 37
0
 40
13.00243311065679
 41
2.037613488975357
 42
50
 43
0
 44
0
 50
0
 51
0
 71
    0
 72
  100
 73
    1
 74
    3
 75
    0
 76
    1
 77
    0
 78
    0
281
    0
 65
    1
110
0
120
0
130
0
111
1
121
0
131
0
112
0
122
1
132
0
 79
    0
146
0
348
10020
 60
    7
 61
    5
292
1
282
    1
141
0
142
0
 63
  250
421
3358443
  0
ENDTAB
  0
TABLE
  2
LTYPE
  5
5
330
0
100
AcDbSymbolTable
 70
    4
  0
LTYPE
  5
14
330
5
100
AcDbSymbolTableRecord
100
AcDbLinetypeTableRecord
  2
ByBlock
 70
    0
  3

 72
   65
 73
    0
 40
0
  0
LTYPE
  5
15
330
5
100
AcDbSymbolTableRecord
100
AcDbLinetypeTableRecord
  2
ByLayer
 70
    0
  3

 72
   65
 73
    0
 40
0
  0
LTYPE
  5
16
330
5
100
AcDbSymbolTableRecord
100
AcDbLinetypeTableRecord
  2
Continuous
 70
    0
  3
Solid line
 72
   65
 73
    0
 40
0
  0
LTYPE
  5
32
330
5
100
AcDbSymbolTableRecord
100
AcDbLinetypeTableRecord
  2
DOT
 70
    0
  3
Dot . . . . . . . . . . . . . . . . . . . . . .
 72
   65
 73
    2
 40
6.35
 49
0
 74
    0
 49
-6.35
 74
    0
  0
LTYPE
  5
33
330
5
100
AcDbSymbolTableRecord
100
AcDbLinetypeTableRecord
  2
DOTTINY
 70
    0
  3
Dot (.15x) .....................................
 72
   65
 73
    2
 40
0.9525
 49
0
 74
    0
 49
-0.9525
 74
    0
  0
LTYPE
  5
34
330
5
100
AcDbSymbolTableRecord
100
AcDbLinetypeTableRecord
  2
DOT2
 70
    0
  3
Dot (.5x) .....................................
 72
   65
 73
    2
 40
3.175
 49
0
 74
    0
 49
-3.175
 74
    0
  0
LTYPE
  5
35
330
5
100
AcDbSymbolTableRecord
100
AcDbLinetypeTableRecord
  2
DOTX2
 70
    0
  3
Dot (2x) .  .  .  .  .  .  .  .  .  .  .  .  .
 72
   65
 73
    2
 40
12.7
 49
0
 74
    0
 49
-12.7
 74
    0
  0
LTYPE
  5
36
330
5
100
AcDbSymbolTableRecord
100
AcDbLinetypeTableRecord
  2
DASHED
 70
    0
  3
Dashed _ _ _ _ _ _ _ _ _ _ _ _ _ _ _ _ _
 72
   65
 73
    2
 40
19.05
 49
12.7
 74
    0
 49
-6.35
 74
    0
  0
LTYPE
  5
37
330
5
100
AcDbSymbolTableRecord
100
AcDbLinetypeTableRecord
  2
DASHEDTINY
 70
    0
  3
Dashed (.15x) _ _ _ _ _ _ _ _ _ _ _ _ _ _ _ _ _
 72
   65
 73
    2
 40
2.8575
 49
1.905
 74
    0
 49
-0.9525
 74
    0
  0
LTYPE
  5
38
330
5
100
AcDbSymbolTableRecord
100
AcDbLinetypeTableRecord
  2
DASHED2
 70
    0
  3
Dashed (.5x) _ _ _ _ _ _ _ _ _ _ _ _ _ _ _ _ _
 72
   65
 73
    2
 40
9.524999999999999
 49
6.35
 74
    0
 49
-3.175
 74
    0
  0
LTYPE
  5
39
330
5
100
AcDbSymbolTableRecord
100
AcDbLinetypeTableRecord
  2
DASHEDX2
 70
    0
  3
Dashed (2x) ____  ____  ____  ____  ____  ___
 72
   65
 73
    2
 40
38.09999999999999
 49
25.4
 74
    0
 49
-12.7
 74
    0
  0
LTYPE
  5
3A
330
5
100
AcDbSymbolTableRecord
100
AcDbLinetypeTableRecord
  2
DASHDOT
 70
    0
  3
Dash dot __ . __ . __ . __ . __ . __ . __ . __
 72
   65
 73
    4
 40
25.4
 49
12.7
 74
    0
 49
-6.35
 74
    0
 49
0
 74
    0
 49
-6.35
 74
    0
  0
LTYPE
  5
3B
330
5
100
AcDbSymbolTableRecord
100
AcDbLinetypeTableRecord
  2
DASHDOTTINY
 70
    0
  3
Dash dot (.15x) _._._._._._._._._._._._._._._.
 72
   65
 73
    4
 40
3.81
 49
1.905
 74
    0
 49
-0.9525
 74
    0
 49
0
 74
    0
 49
-0.9525
 74
    0
  0
LTYPE
  5
3C
330
5
100
AcDbSymbolTableRecord
100
AcDbLinetypeTableRecord
  2
DASHDOT2
 70
    0
  3
Dash dot (.5x) _._._._._._._._._._._._._._._.
 72
   65
 73
    4
 40
12.7
 49
6.35
 74
    0
 49
-3.175
 74
    0
 49
0
 74
    0
 49
-3.175
 74
    0
  0
LTYPE
  5
3D
330
5
100
AcDbSymbolTableRecord
100
AcDbLinetypeTableRecord
  2
DASHDOTX2
 70
    0
  3
Dash dot (2x) ____  .  ____  .  ____  .  ___
 72
   65
 73
    4
 40
50.8
 49
25.4
 74
    0
 49
-12.7
 74
    0
 49
0
 74
    0
 49
-12.7
 74
    0
  0
LTYPE
  5
3E
330
5
100
AcDbSymbolTableRecord
100
AcDbLinetypeTableRecord
  2
DIVIDE
 70
    0
  3
Divide ____ . . ____ . . ____ . . ____ . . ____
 72
   65
 73
    6
 40
31.75
 49
12.7
 74
    0
 49
-6.35
 74
    0
 49
0
 74
    0
 49
-6.35
 74
    0
 49
0
 74
    0
 49
-6.35
 74
    0
  0
LTYPE
  5
3F
330
5
100
AcDbSymbolTableRecord
100
AcDbLinetypeTableRecord
  2
DIVIDETINY
 70
    0
  3
Divide (.15x) __..__..__..__..__..__..__..__.._
 72
   65
 73
    6
 40
4.7625
 49
1.905
 74
    0
 49
-0.9525
 74
    0
 49
0
 74
    0
 49
-0.9525
 74
    0
 49
0
 74
    0
 49
-0.9525
 74
    0
  0
LTYPE
  5
40
330
5
100
AcDbSymbolTableRecord
100
AcDbLinetypeTableRecord
  2
DIVIDE2
 70
    0
  3
Divide (.5x) __..__..__..__..__..__..__..__.._
 72
   65
 73
    6
 40
15.875
 49
6.35
 74
    0
 49
-3.175
 74
    0
 49
0
 74
    0
 49
-3.175
 74
    0
 49
0
 74
    0
 49
-3.175
 74
    0
  0
LTYPE
  5
41
330
5
100
AcDbSymbolTableRecord
100
AcDbLinetypeTableRecord
  2
DIVIDEX2
 70
    0
  3
Divide (2x) ________  .  .  ________  .  .  _
 72
   65
 73
    6
 40
63.5
 49
25.4
 74
    0
 49
-12.7
 74
    0
 49
0
 74
    0
 49
-12.7
 74
    0
 49
0
 74
    0
 49
-12.7
 74
    0
  0
LTYPE
  5
42
330
5
100
AcDbSymbolTableRecord
100
AcDbLinetypeTableRecord
  2
BORDER
 70
    0
  3
Border __ __ . __ __ . __ __ . __ __ . __ __ .
 72
   65
 73
    6
 40
44.45
 49
12.7
 74
    0
 49
-6.35
 74
    0
 49
12.7
 74
    0
 49
-6.35
 74
    0
 49
0
 74
    0
 49
-6.35
 74
    0
  0
LTYPE
  5
43
330
5
100
AcDbSymbolTableRecord
100
AcDbLinetypeTableRecord
  2
BORDERTINY
 70
    0
  3
Border (.15x) __.__.__.__.__.__.__.__.__.__.__.
 72
   65
 73
    6
 40
6.6675
 49
1.905
 74
    0
 49
-0.9525
 74
    0
 49
1.905
 74
    0
 49
-0.9525
 74
    0
 49
0
 74
    0
 49
-0.9525
 74
    0
  0
LTYPE
  5
44
330
5
100
AcDbSymbolTableRecord
100
AcDbLinetypeTableRecord
  2
BORDER2
 70
    0
  3
Border (.5x) __.__.__.__.__.__.__.__.__.__.__.
 72
   65
 73
    6
 40
22.225
 49
6.35
 74
    0
 49
-3.175
 74
    0
 49
6.35
 74
    0
 49
-3.175
 74
    0
 49
0
 74
    0
 49
-3.175
 74
    0
  0
LTYPE
  5
45
330
5
100
AcDbSymbolTableRecord
100
AcDbLinetypeTableRecord
  2
BORDERX2
 70
    0
  3
Border (2x) ____  ____  .  ____  ____  .  ___
 72
   65
 73
    6
 40
88.89999999999999
 49
25.4
 74
    0
 49
-12.7
 74
    0
 49
25.4
 74
    0
 49
-12.7
 74
    0
 49
0
 74
    0
 49
-12.7
 74
    0
  0
LTYPE
  5
46
330
5
100
AcDbSymbolTableRecord
100
AcDbLinetypeTableRecord
  2
CENTER
 70
    0
  3
Center ____ _ ____ _ ____ _ ____ _ ____ _ ____
 72
   65
 73
    4
 40
50.8
 49
31.75
 74
    0
 49
-6.35
 74
    0
 49
6.35
 74
    0
 49
-6.35
 74
    0
  0
LTYPE
  5
47
330
5
100
AcDbSymbolTableRecord
100
AcDbLinetypeTableRecord
  2
CENTERTINY
 70
    0
  3
Center (.15x) ___ _ ___ _ ___ _ ___ _ ___ _ ___
 72
   65
 73
    4
 40
7.619999999999999
 49
4.7625
 74
    0
 49
-0.9525
 74
    0
 49
0.9525
 74
    0
 49
-0.9525
 74
    0
  0
LTYPE
  5
48
330
5
100
AcDbSymbolTableRecord
100
AcDbLinetypeTableRecord
  2
CENTER2
 70
    0
  3
Center (.5x) ___ _ ___ _ ___ _ ___ _ ___ _ ___
 72
   65
 73
    4
 40
28.575
 49
19.05
 74
    0
 49
-3.175
 74
    0
 49
3.175
 74
    0
 49
-3.175
 74
    0
  0
LTYPE
  5
49
330
5
100
AcDbSymbolTableRecord
100
AcDbLinetypeTableRecord
  2
CENTERX2
 70
    0
  3
Center (2x) ________  __  ________  __  _____
 72
   65
 73
    4
 40
101.6
 49
63.5
 74
    0
 49
-12.7
 74
    0
 49
12.7
 74
    0
 49
-12.7
 74
    0
  0
ENDTAB
  0
TABLE
  2
LAYER
  5
2
330
0
100
AcDbSymbolTable
 70
    1
  0
LAYER
  5
10
330
2
100
AcDbSymbolTableRecord
100
AcDbLayerTableRecord
  2
0
 70
    0
 62
    7
  6
CONTINUOUS
370
   -3
390
F
  0
ENDTAB
  0
TABLE
  2
STYLE
  5
3
330
0
100
AcDbSymbolTable
 70
    3
  0
STYLE
  5
4A
330
2
100
AcDbSymbolTableRecord
100
AcDbTextStyleTableRecord
  2
Standard
 70
    0
 40
0
 41
1
 50
0
 71
    0
 42
1
  3
txt
  4

  0
ENDTAB
  0
TABLE
  2
VIEW
  5
6
330
0
100
AcDbSymbolTable
 70
    0
  0
ENDTAB
  0
TABLE
  2
UCS
  5
7
330
0
100
AcDbSymbolTable
 70
    0
  0
ENDTAB
  0
TABLE
  2
APPID
  5
9
330
0
100
AcDbSymbolTable
 70
    1
  0
APPID
  5
12
330
9
100
AcDbSymbolTableRecord
100
AcDbRegAppTableRecord
  2
ACAD
 70
    0
  0
APPID
  5
4B
330
9
100
AcDbSymbolTableRecord
100
AcDbRegAppTableRecord
  2
LibreCad
 70
    0
  0
ENDTAB
  0
TABLE
  2
DIMSTYLE
  5
A
330
0
100
AcDbSymbolTable
 70
    1
100
AcDbDimStyleTable
 71
    1
  0
DIMSTYLE
105
4C
330
A
100
AcDbSymbolTableRecord
100
AcDbDimStyleTableRecord
  2
Standard
 70
    0
 40
1
 41
2.5
 42
0.625
 43
0.38
 44
1.25
 45
0
 46
0
 47
0
 48
0
 49
1
140
2.5
141
0.09
142
2.5
143
25.4
144
1
145
0
146
1
147
0.625
148
0
 71
    0
 72
    0
 73
    0
 74
    1
 75
    0
 76
    0
 77
    0
 78
    1
 79
    0
170
    0
171
    2
172
    0
173
    0
174
    0
175
    0
176
    0
177
    0
178
    0
179
    0
271
    2
272
    4
273
    2
274
    2
275
    0
276
    0
277
    2
278
    0
279
    0
280
    0
281
    0
282
    0
283
    1
284
    0
285
    0
286
    0
288
    0
289
    3
340
standard
341

371
   -2
372
   -2
  0
ENDTAB
  0
TABLE
  2
BLOCK_RECORD
  5
1
330
0
100
AcDbSymbolTable
 70
    2
  0
BLOCK_RECORD
  5
1F
330
1
100
AcDbSymbolTableRecord
100
AcDbBlockTableRecord
  2
*Model_Space
 70
    0
280
    1
281
    0
  0
BLOCK_RECORD
  5
1E
330
1
100
AcDbSymbolTableRecord
100
AcDbBlockTableRecord
  2
*Paper_Space
 70
    0
280
    1
281
    0
  0
ENDTAB
  0
ENDSEC
  0
SECTION
  2
BLOCKS
  0
BLOCK
  5
20
330
1F
100
AcDbEntity
  8
0
100
AcDbBlockBegin
  2
*Model_Space
 70
    0
 10
0
 20
0
 30
0
  3
*Model_Space
  1

  0
ENDBLK
  5
21
330
1F
100
AcDbEntity
  8
0
100
AcDbBlockEnd
  0
BLOCK
  5
1C
330
1B
100
AcDbEntity
  8
0
100
AcDbBlockBegin
  2
*Paper_Space
 70
    0
 10
0
 20
0
 30
0
  3
*Paper_Space
  1

  0
ENDBLK
  5
1D
330
1F
100
AcDbEntity
  8
0
100
AcDbBlockEnd
  0
ENDSEC
  0
SECTION
  2
ENTITIES
  0
LWPOLYLINE
  5
4D
100
AcDbEntity
  8
0
  6
ByLayer
 62
    0
370
   -1
100
AcDbPolyline
 90
    5
 70
    1
 43
0
 10
6.96858
 20
1.74208
 10
11.2205
 20
1.74208
 10
11.2205
 20
0.482206
 10
6.96858
 20
0.482206
 10
6.96858
 20
1.74208
  0
LWPOLYLINE
  5
4E
100
AcDbEntity
  8
0
  6
ByLayer
 62
    0
370
   -1
100
AcDbPolyline
 90
    5
 70
    1
 43
0
 10
0.393718
 20
7.88406
 10
11.2993
 20
7.88406
 10
11.2993
 20
0.403483
 10
0.393718
 20
0.403483
 10
0.393718
 20
7.88406
  0
LWPOLYLINE
  5
4F
100
AcDbEntity
  8
0
  6
ByLayer
 62
    0
370
   -1
100
AcDbPolyline
 90
    5
 70
    1
 43
0
 10
0.472439
 20
7.80533
 10
11.2205
 20
7.80533
 10
11.2205
 20
0.482206
 10
0.472439
 20
0.482206
 10
0.472439
 20
7.80533
  0
LWPOLYLINE
  5
50
100
AcDbEntity
  8
0
  6
ByLayer
 62
    0
370
   -1
100
AcDbPolyline
 90
    2
 70
    0
 43
0
 10
2.36219
 20
7.80539
 10
2.36219
 20
7.88406
  0
LWPOLYLINE
  5
51
100
AcDbEntity
  8
0
  6
ByLayer
 62
    0
370
   -1
100
AcDbPolyline
 90
    2
 70
    0
 43
0
 10
4.33068
 20
7.80539
 10
4.33068
 20
7.88406
  0
LWPOLYLINE
  5
52
100
AcDbEntity
  8
0
  6
ByLayer
 62
    0
370
   -1
100
AcDbPolyline
 90
    2
 70
    0
 43
0
 10
6.29921
 20
7.80539
 10
6.29921
 20
7.88406
  0
LWPOLYLINE
  5
53
100
AcDbEntity
  8
0
  6
ByLayer
 62
    0
370
   -1
100
AcDbPolyline
 90
    2
 70
    0
 43
0
 10
8.26768
 20
7.80539
 10
8.26768
 20
7.88406
  0
LWPOLYLINE
  5
54
100
AcDbEntity
  8
0
  6
ByLayer
 62
    0
370
   -1
100
AcDbPolyline
 90
    2
 70
    0
 43
0
 10
10.2362
 20
7.80539
 10
10.2362
 20
7.88406
  0
LWPOLYLINE
  5
55
100
AcDbEntity
  8
0
  6
ByLayer
 62
    0
370
   -1
100
AcDbPolyline
 90
    2
 70
    0
 43
0
 10
1.41992
 20
7.82156
 10
1.39063
 20
7.82156
  0
LWPOLYLINE
  5
56
100
AcDbEntity
  8
0
  6
ByLayer
 62
    0
370
   -1
100
AcDbPolyline
 90
    5
 70
    0
 43
0
 10
1.40522
 20
7.82156
 10
1.40522
 20
7.87278
 10
1.40039
 20
7.86546
 10
1.39551
 20
7.86057
 10
1.39063
 20
7.85818
  0
LWPOLYLINE
  5
57
100
AcDbEntity
  8
0
  6
ByLayer
 62
    0
370
   -1
100
AcDbPolyline
 90
   11
 70
    0
 43
0
 10
3.3591
 20
7.86789
 10
3.36149
 20
7.87039
 10
3.36637
 20
7.87278
 10
3.37858
 20
7.87278
 10
3.38351
 20
7.87039
 10
3.3859
 20
7.86789
 10
3.3884
 20
7.86307
 10
3.3884
 20
7.85818
 10
3.3859
 20
7.85086
 10
3.35672
 20
7.82156
 10
3.3884
 20
7.82156
  0
LWPOLYLINE
  5
58
100
AcDbEntity
  8
0
  6
ByLayer
 62
    0
370
   -1
100
AcDbPolyline
 90
   14
 70
    0
 43
0
 10
5.32519
 20
7.87278
 10
5.35688
 20
7.87278
 10
5.33979
 20
7.85331
 10
5.34711
 20
7.85331
 10
5.352
 20
7.85086
 10
5.35439
 20
7.84836
 10
5.35688
 20
7.84358
 10
5.35688
 20
7.83138
 10
5.35439
 20
7.8265
 10
5.352
 20
7.82406
 10
5.34711
 20
7.82156
 10
5.33251
 20
7.82156
 10
5.32758
 20
7.82406
 10
5.32519
 20
7.8265
  0
LWPOLYLINE
  5
59
100
AcDbEntity
  8
0
  6
ByLayer
 62
    0
370
   -1
100
AcDbPolyline
 90
    2
 70
    0
 43
0
 10
7.32047
 20
7.85568
 10
7.32047
 20
7.82156
  0
LWPOLYLINE
  5
5A
100
AcDbEntity
  8
0
  6
ByLayer
 62
    0
370
   -1
100
AcDbPolyline
 90
    3
 70
    0
 43
0
 10
7.30826
 20
7.87517
 10
7.29611
 20
7.83871
 10
7.32781
 20
7.83871
  0
LWPOLYLINE
  5
5B
100
AcDbEntity
  8
0
  6
ByLayer
 62
    0
370
   -1
100
AcDbPolyline
 90
   16
 70
    0
 43
0
 10
9.29139
 20
7.87278
 10
9.26708
 20
7.87278
 10
9.2646
 20
7.84836
 10
9.26708
 20
7.85086
 10
9.27192
 20
7.85331
 10
9.28407
 20
7.85331
 10
9.289009999999999
 20
7.85086
 10
9.29139
 20
7.84836
 10
9.293889999999999
 20
7.84358
 10
9.293889999999999
 20
7.83138
 10
9.29139
 20
7.8265
 10
9.289009999999999
 20
7.82406
 10
9.28407
 20
7.82156
 10
9.27192
 20
7.82156
 10
9.26708
 20
7.82406
 10
9.2646
 20
7.8265
  0
LWPOLYLINE
  5
5C
100
AcDbEntity
  8
0
  6
ByLayer
 62
    0
370
   -1
100
AcDbPolyline
 90
   22
 70
    0
 43
0
 10
11.2575
 20
7.87278
 10
11.2477
 20
7.87278
 10
11.2429
 20
7.87039
 10
11.2404
 20
7.86789
 10
11.2356
 20
7.86057
 10
11.2331
 20
7.85086
 10
11.2331
 20
7.83138
 10
11.2356
 20
7.8265
 10
11.238
 20
7.82406
 10
11.2429
 20
7.82156
 10
11.2526
 20
7.82156
 10
11.2575
 20
7.82406
 10
11.2599
 20
7.8265
 10
11.2624
 20
7.83138
 10
11.2624
 20
7.84358
 10
11.2599
 20
7.84836
 10
11.2575
 20
7.85086
 10
11.2526
 20
7.85331
 10
11.2429
 20
7.85331
 10
11.238
 20
7.85086
 10
11.2356
 20
7.84836
 10
11.2331
 20
7.84358
  0
LWPOLYLINE
  5
5D
100
AcDbEntity
  8
0
  6
ByLayer
 62
    0
370
   -1
100
AcDbPolyline
 90
    2
 70
    0
 43
0
 10
2.36219
 20
0.48226
 10
2.36219
 20
0.403592
  0
LWPOLYLINE
  5
5E
100
AcDbEntity
  8
0
  6
ByLayer
 62
    0
370
   -1
100
AcDbPolyline
 90
    2
 70
    0
 43
0
 10
4.33068
 20
0.48226
 10
4.33068
 20
0.403592
  0
LWPOLYLINE
  5
5F
100
AcDbEntity
  8
0
  6
ByLayer
 62
    0
370
   -1
100
AcDbPolyline
 90
    2
 70
    0
 43
0
 10
6.29921
 20
0.48226
 10
6.29921
 20
0.403592
  0
LWPOLYLINE
  5
60
100
AcDbEntity
  8
0
  6
ByLayer
 62
    0
370
   -1
100
AcDbPolyline
 90
    2
 70
    0
 43
0
 10
8.26768
 20
0.48226
 10
8.26768
 20
0.403592
  0
LWPOLYLINE
  5
61
100
AcDbEntity
  8
0
  6
ByLayer
 62
    0
370
   -1
100
AcDbPolyline
 90
    2
 70
    0
 43
0
 10
10.2362
 20
0.48226
 10
10.2362
 20
0.403592
  0
LWPOLYLINE
  5
62
100
AcDbEntity
  8
0
  6
ByLayer
 62
    0
370
   -1
100
AcDbPolyline
 90
    2
 70
    0
 43
0
 10
1.41992
 20
0.41976
 10
1.39063
 20
0.41976
  0
LWPOLYLINE
  5
63
100
AcDbEntity
  8
0
  6
ByLayer
 62
    0
370
   -1
100
AcDbPolyline
 90
    5
 70
    0
 43
0
 10
1.40522
 20
0.41976
 10
1.40522
 20
0.470865
 10
1.40039
 20
0.463596
 10
1.39551
 20
0.458768
 10
1.39063
 20
0.456272
  0
LWPOLYLINE
  5
64
100
AcDbEntity
  8
0
  6
ByLayer
 62
    0
370
   -1
100
AcDbPolyline
 90
   11
 70
    0
 43
0
 10
3.3591
 20
0.466092
 10
3.36149
 20
0.468479
 10
3.36637
 20
0.470865
 10
3.37858
 20
0.470865
 10
3.38351
 20
0.468479
 10
3.3859
 20
0.466092
 10
3.3884
 20
0.461208
 10
3.3884
 20
0.456272
 10
3.3859
 20
0.449001
 10
3.35672
 20
0.41976
 10
3.3884
 20
0.41976
  0
LWPOLYLINE
  5
65
100
AcDbEntity
  8
0
  6
ByLayer
 62
    0
370
   -1
100
AcDbPolyline
 90
   14
 70
    0
 43
0
 10
5.32519
 20
0.470865
 10
5.35688
 20
0.470865
 10
5.33979
 20
0.451497
 10
5.34711
 20
0.451497
 10
5.352
 20
0.449001
 10
5.35439
 20
0.44656
 10
5.35688
 20
0.441678
 10
5.35688
 20
0.429471
 10
5.35439
 20
0.424587
 10
5.352
 20
0.4222
 10
5.34711
 20
0.41976
 10
5.33251
 20
0.41976
 10
5.32758
 20
0.4222
 10
5.32519
 20
0.424587
  0
LWPOLYLINE
  5
66
100
AcDbEntity
  8
0
  6
ByLayer
 62
    0
370
   -1
100
AcDbPolyline
 90
    2
 70
    0
 43
0
 10
7.32047
 20
0.453885
 10
7.32047
 20
0.41976
  0
LWPOLYLINE
  5
67
100
AcDbEntity
  8
0
  6
ByLayer
 62
    0
370
   -1
100
AcDbPolyline
 90
    3
 70
    0
 43
0
 10
7.30826
 20
0.473361
 10
7.29611
 20
0.436794
 10
7.32781
 20
0.436794
  0
LWPOLYLINE
  5
68
100
AcDbEntity
  8
0
  6
ByLayer
 62
    0
370
   -1
100
AcDbPolyline
 90
   16
 70
    0
 43
0
 10
9.29139
 20
0.470865
 10
9.26708
 20
0.470865
 10
9.2646
 20
0.44656
 10
9.26708
 20
0.449001
 10
9.27192
 20
0.451497
 10
9.28407
 20
0.451497
 10
9.289009999999999
 20
0.449001
 10
9.29139
 20
0.44656
 10
9.293889999999999
 20
0.441678
 10
9.293889999999999
 20
0.429471
 10
9.29139
 20
0.424587
 10
9.289009999999999
 20
0.4222
 10
9.28407
 20
0.41976
 10
9.27192
 20
0.41976
 10
9.26708
 20
0.4222
 10
9.2646
 20
0.424587
  0
LWPOLYLINE
  5
69
100
AcDbEntity
  8
0
  6
ByLayer
 62
    0
370
   -1
100
AcDbPolyline
 90
   22
 70
    0
 43
0
 10
11.2575
 20
0.470865
 10
11.2477
 20
0.470865
 10
11.2429
 20
0.468479
 10
11.2404
 20
0.466092
 10
11.2356
 20
0.458768
 10
11.2331
 20
0.449001
 10
11.2331
 20
0.429471
 10
11.2356
 20
0.424587
 10
11.238
 20
0.4222
 10
11.2429
 20
0.41976
 10
11.2526
 20
0.41976
 10
11.2575
 20
0.4222
 10
11.2599
 20
0.424587
 10
11.2624
 20
0.429471
 10
11.2624
 20
0.441678
 10
11.2599
 20
0.44656
 10
11.2575
 20
0.449001
 10
11.2526
 20
0.451497
 10
11.2429
 20
0.451497
 10
11.238
 20
0.449001
 10
11.2356
 20
0.44656
 10
11.2331
 20
0.441678
  0
LWPOLYLINE
  5
6A
100
AcDbEntity
  8
0
  6
ByLayer
 62
    0
370
   -1
100
AcDbPolyline
 90
    2
 70
    0
 43
0
 10
0.393718
 20
5.91558
 10
0.472385
 20
5.91558
  0
LWPOLYLINE
  5
6B
100
AcDbEntity
  8
0
  6
ByLayer
 62
    0
370
   -1
100
AcDbPolyline
 90
    2
 70
    0
 43
0
 10
0.393718
 20
3.9471
 10
0.472385
 20
3.9471
  0
LWPOLYLINE
  5
6C
100
AcDbEntity
  8
0
  6
ByLayer
 62
    0
370
   -1
100
AcDbPolyline
 90
    2
 70
    0
 43
0
 10
0.393718
 20
1.97857
 10
0.472385
 20
1.97857
  0
LWPOLYLINE
  5
6D
100
AcDbEntity
  8
0
  6
ByLayer
 62
    0
370
   -1
100
AcDbPolyline
 90
    2
 70
    0
 43
0
 10
0.42079
 20
6.89139
 10
0.445204
 20
6.89139
  0
LWPOLYLINE
  5
6E
100
AcDbEntity
  8
0
  6
ByLayer
 62
    0
370
   -1
100
AcDbPolyline
 90
    3
 70
    0
 43
0
 10
0.416015
 20
6.87668
 10
0.432997
 20
6.9279
 10
0.450087
 20
6.87668
  0
LWPOLYLINE
  5
6F
100
AcDbEntity
  8
0
  6
ByLayer
 62
    0
370
   -1
100
AcDbPolyline
 90
   19
 70
    0
 43
0
 10
0.436686
 20
4.935
 10
0.444011
 20
4.93257
 10
0.446397
 20
4.93018
 10
0.448893
 20
4.92529
 10
0.448893
 20
4.91797
 10
0.446397
 20
4.91308
 10
0.444011
 20
4.91069
 10
0.439074
 20
4.90821
 10
0.419596
 20
4.90821
 10
0.419596
 20
4.95936
 10
0.436686
 20
4.95936
 10
0.441624
 20
4.95697
 10
0.444011
 20
4.95449
 10
0.446397
 20
4.94971
 10
0.446397
 20
4.94476
 10
0.444011
 20
4.93989
 10
0.441624
 20
4.9375
 10
0.436686
 20
4.935
 10
0.419596
 20
4.935
  0
LWPOLYLINE
  5
70
100
AcDbEntity
  8
0
  6
ByLayer
 62
    0
370
   -1
100
AcDbPolyline
 90
   16
 70
    0
 43
0
 10
0.448893
 20
2.94461
 10
0.446397
 20
2.94217
 10
0.439074
 20
2.93967
 10
0.43419
 20
2.93967
 10
0.426921
 20
2.94217
 10
0.422092
 20
2.947
 10
0.419596
 20
2.95188
 10
0.41721
 20
2.96169
 10
0.41721
 20
2.96897
 10
0.419596
 20
2.97868
 10
0.422092
 20
2.98356
 10
0.426921
 20
2.9885
 10
0.43419
 20
2.99089
 10
0.439074
 20
2.99089
 10
0.446397
 20
2.9885
 10
0.448893
 20
2.986
  0
LWPOLYLINE
  5
71
100
AcDbEntity
  8
0
  6
ByLayer
 62
    0
370
   -1
100
AcDbPolyline
 90
   13
 70
    1
 43
0
 10
0.419596
 20
0.9711920000000001
 10
0.419596
 20
1.02241
 10
0.431803
 20
1.02241
 10
0.439074
 20
1.01997
 10
0.444011
 20
1.01508
 10
0.446397
 20
1.0102
 10
0.448893
 20
1.00049
 10
0.448893
 20
0.993164
 10
0.446397
 20
0.983399
 10
0.444011
 20
0.978461
 10
0.439074
 20
0.973687
 10
0.431803
 20
0.9711920000000001
 10
0.419596
 20
0.9711920000000001
  0
LWPOLYLINE
  5
72
100
AcDbEntity
  8
0
  6
ByLayer
 62
    0
370
   -1
100
AcDbPolyline
 90
    2
 70
    0
 43
0
 10
11.2992
 20
5.91558
 10
11.2205
 20
5.91558
  0
LWPOLYLINE
  5
73
100
AcDbEntity
  8
0
  6
ByLayer
 62
    0
370
   -1
100
AcDbPolyline
 90
    2
 70
    0
 43
0
 10
11.2992
 20
3.9471
 10
11.2205
 20
3.9471
  0
LWPOLYLINE
  5
74
100
AcDbEntity
  8
0
  6
ByLayer
 62
    0
370
   -1
100
AcDbPolyline
 90
    2
 70
    0
 43
0
 10
11.2992
 20
1.97857
 10
11.2205
 20
1.97857
  0
LWPOLYLINE
  5
75
100
AcDbEntity
  8
0
  6
ByLayer
 62
    0
370
   -1
100
AcDbPolyline
 90
    2
 70
    0
 43
0
 10
11.2477
 20
6.89139
 10
11.2721
 20
6.89139
  0
LWPOLYLINE
  5
76
100
AcDbEntity
  8
0
  6
ByLayer
 62
    0
370
   -1
100
AcDbPolyline
 90
    3
 70
    0
 43
0
 10
11.2428
 20
6.87668
 10
11.2599
 20
6.9279
 10
11.2769
 20
6.87668
  0
LWPOLYLINE
  5
77
100
AcDbEntity
  8
0
  6
ByLayer
 62
    0
370
   -1
100
AcDbPolyline
 90
   19
 70
    0
 43
0
 10
11.2635
 20
4.935
 10
11.2708
 20
4.93257
 10
11.2733
 20
4.93018
 10
11.2757
 20
4.92529
 10
11.2757
 20
4.91797
 10
11.2733
 20
4.91308
 10
11.2708
 20
4.91069
 10
11.266
 20
4.90821
 10
11.2465
 20
4.90821
 10
11.2465
 20
4.95936
 10
11.2635
 20
4.95936
 10
11.2684
 20
4.95697
 10
11.2708
 20
4.95449
 10
11.2733
 20
4.94971
 10
11.2733
 20
4.94476
 10
11.2708
 20
4.93989
 10
11.2684
 20
4.9375
 10
11.2635
 20
4.935
 10
11.2465
 20
4.935
  0
LWPOLYLINE
  5
78
100
AcDbEntity
  8
0
  6
ByLayer
 62
    0
370
   -1
100
AcDbPolyline
 90
   16
 70
    0
 43
0
 10
11.2757
 20
2.94461
 10
11.2733
 20
2.94217
 10
11.266
 20
2.93967
 10
11.2611
 20
2.93967
 10
11.2538
 20
2.94217
 10
11.2489
 20
2.947
 10
11.2465
 20
2.95188
 10
11.244
 20
2.96169
 10
11.244
 20
2.96897
 10
11.2465
 20
2.97868
 10
11.2489
 20
2.98356
 10
11.2538
 20
2.9885
 10
11.2611
 20
2.99089
 10
11.266
 20
2.99089
 10
11.2733
 20
2.9885
 10
11.2757
 20
2.986
  0
LWPOLYLINE
  5
79
100
AcDbEntity
  8
0
  6
ByLayer
 62
    0
370
   -1
100
AcDbPolyline
 90
   13
 70
    1
 43
0
 10
11.2465
 20
0.9711920000000001
 10
11.2465
 20
1.02241
 10
11.2587
 20
1.02241
 10
11.266
 20
1.01997
 10
11.2708
 20
1.01508
 10
11.2733
 20
1.0102
 10
11.2757
 20
1.00049
 10
11.2757
 20
0.993164
 10
11.2733
 20
0.983399
 10
11.2708
 20
0.978461
 10
11.266
 20
0.973687
 10
11.2587
 20
0.9711920000000001
 10
11.2465
 20
0.9711920000000001
  0
LWPOLYLINE
  5
7A
100
AcDbEntity
  8
0
  6
ByLayer
 62
    0
370
   -1
100
AcDbPolyline
 90
   13
 70
    1
 43
0
 10
7.89111
 20
0.648492
 10
7.89111
 20
0.707465
 10
7.90511
 20
0.707465
 10
7.91357
 20
0.704699
 10
7.91922
 20
0.69911
 10
7.92199
 20
0.693468
 10
7.92481
 20
0.682183
 10
7.92481
 20
0.673774
 10
7.92199
 20
0.662489
 10
7.91922
 20
0.656901
 10
7.91357
 20
0.651258
 10
7.90511
 20
0.648492
 10
7.89111
 20
0.648492
  0
LWPOLYLINE
  5
7B
100
AcDbEntity
  8
0
  6
ByLayer
 62
    0
370
   -1
100
AcDbPolyline
 90
    6
 70
    0
 43
0
 10
7.97537
 20
0.648492
 10
7.97537
 20
0.6793630000000001
 10
7.9726
 20
0.6850039999999999
 10
7.96701
 20
0.687879
 10
7.95568
 20
0.687879
 10
7.95008
 20
0.6850039999999999
  0
LWPOLYLINE
  5
7C
100
AcDbEntity
  8
0
  6
ByLayer
 62
    0
370
   -1
100
AcDbPolyline
 90
   10
 70
    0
 43
0
 10
7.97537
 20
0.651258
 10
7.96978
 20
0.648492
 10
7.95568
 20
0.648492
 10
7.95008
 20
0.651258
 10
7.94732
 20
0.656901
 10
7.94732
 20
0.662489
 10
7.95008
 20
0.6681859999999999
 10
7.95568
 20
0.671007
 10
7.96978
 20
0.671007
 10
7.97537
 20
0.673774
  0
LWPOLYLINE
  5
7D
100
AcDbEntity
  8
0
  6
ByLayer
 62
    0
370
   -1
100
AcDbPolyline
 90
    2
 70
    0
 43
0
 10
7.99511
 20
0.687879
 10
8.017580000000001
 20
0.687879
  0
LWPOLYLINE
  5
7E
100
AcDbEntity
  8
0
  6
ByLayer
 62
    0
370
   -1
100
AcDbPolyline
 90
    5
 70
    0
 43
0
 10
8.003579999999999
 20
0.707465
 10
8.003579999999999
 20
0.656901
 10
8.006399999999999
 20
0.651258
 10
8.011990000000001
 20
0.648492
 10
8.017580000000001
 20
0.648492
  0
LWPOLYLINE
  5
7F
100
AcDbEntity
  8
0
  6
ByLayer
 62
    0
370
   -1
100
AcDbPolyline
 90
   13
 70
    0
 43
0
 10
8.05979
 20
0.651258
 10
8.05419
 20
0.648492
 10
8.042920000000001
 20
0.648492
 10
8.037280000000001
 20
0.651258
 10
8.0345
 20
0.656901
 10
8.0345
 20
0.6793630000000001
 10
8.037280000000001
 20
0.6850039999999999
 10
8.042920000000001
 20
0.687879
 10
8.05419
 20
0.687879
 10
8.05979
 20
0.6850039999999999
 10
8.062609999999999
 20
0.6793630000000001
 10
8.062609999999999
 20
0.673774
 10
8.0345
 20
0.6681859999999999
  0
LWPOLYLINE
  5
80
100
AcDbEntity
  8
0
  6
ByLayer
 62
    0
370
   -1
100
AcDbPolyline
 90
    6
 70
    0
 43
0
 10
8.08789
 20
0.654081
 10
8.09071
 20
0.651258
 10
8.08789
 20
0.648492
 10
8.08507
 20
0.651258
 10
8.08789
 20
0.654081
 10
8.08789
 20
0.648492
  0
LWPOLYLINE
  5
81
100
AcDbEntity
  8
0
  6
ByLayer
 62
    0
370
   -1
100
AcDbPolyline
 90
    6
 70
    0
 43
0
 10
8.08789
 20
0.6850039999999999
 10
8.09071
 20
0.682183
 10
8.08789
 20
0.6793630000000001
 10
8.08507
 20
0.682183
 10
8.08789
 20
0.6850039999999999
 10
8.08789
 20
0.6793630000000001
  0
LWPOLYLINE
  5
82
100
AcDbEntity
  8
0
  6
ByLayer
 62
    0
370
   -1
100
AcDbPolyline
 90
    2
 70
    0
 43
0
 10
6.96847
 20
0.620063
 10
11.2205
 20
0.620063
  0
LWPOLYLINE
  5
83
100
AcDbEntity
  8
0
  6
ByLayer
 62
    0
370
   -1
100
AcDbPolyline
 90
    2
 70
    0
 43
0
 10
7.0249
 20
0.538303
 10
7.0249
 20
0.597276
  0
LWPOLYLINE
  5
84
100
AcDbEntity
  8
0
  6
ByLayer
 62
    0
370
   -1
100
AcDbPolyline
 90
    2
 70
    0
 43
0
 10
7.05871
 20
0.538303
 10
7.03342
 20
0.571994
  0
LWPOLYLINE
  5
85
100
AcDbEntity
  8
0
  6
ByLayer
 62
    0
370
   -1
100
AcDbPolyline
 90
    2
 70
    0
 43
0
 10
7.05871
 20
0.597276
 10
7.0249
 20
0.563585
  0
LWPOLYLINE
  5
86
100
AcDbEntity
  8
0
  6
ByLayer
 62
    0
370
   -1
100
AcDbPolyline
 90
    2
 70
    0
 43
0
 10
7.08399
 20
0.538303
 10
7.08399
 20
0.577582
  0
LWPOLYLINE
  5
87
100
AcDbEntity
  8
0
  6
ByLayer
 62
    0
370
   -1
100
AcDbPolyline
 90
    6
 70
    0
 43
0
 10
7.08399
 20
0.597276
 10
7.08122
 20
0.59451
 10
7.08399
 20
0.591689
 10
7.08681
 20
0.59451
 10
7.08399
 20
0.597276
 10
7.08399
 20
0.591689
  0
LWPOLYLINE
  5
88
100
AcDbEntity
  8
0
  6
ByLayer
 62
    0
370
   -1
100
AcDbPolyline
 90
   16
 70
    0
 43
0
 10
7.14578
 20
0.543892
 10
7.14301
 20
0.541069
 10
7.1346
 20
0.538303
 10
7.12901
 20
0.538303
 10
7.1205
 20
0.541069
 10
7.1149
 20
0.546658
 10
7.11208
 20
0.5523
 10
7.10932
 20
0.563585
 10
7.10932
 20
0.571994
 10
7.11208
 20
0.583171
 10
7.1149
 20
0.588867
 10
7.1205
 20
0.59451
 10
7.12901
 20
0.597276
 10
7.1346
 20
0.597276
 10
7.14301
 20
0.59451
 10
7.14578
 20
0.591689
  0
LWPOLYLINE
  5
89
100
AcDbEntity
  8
0
  6
ByLayer
 62
    0
370
   -1
100
AcDbPolyline
 90
    6
 70
    0
 43
0
 10
7.1965
 20
0.538303
 10
7.1965
 20
0.569174
 10
7.19368
 20
0.574761
 10
7.18799
 20
0.577582
 10
7.17681
 20
0.577582
 10
7.17117
 20
0.574761
  0
LWPOLYLINE
  5
8A
100
AcDbEntity
  8
0
  6
ByLayer
 62
    0
370
   -1
100
AcDbPolyline
 90
   10
 70
    0
 43
0
 10
7.1965
 20
0.541069
 10
7.19081
 20
0.538303
 10
7.17681
 20
0.538303
 10
7.17117
 20
0.541069
 10
7.16829
 20
0.546658
 10
7.16829
 20
0.5523
 10
7.17117
 20
0.557889
 10
7.17681
 20
0.56071
 10
7.19081
 20
0.56071
 10
7.1965
 20
0.563585
  0
LWPOLYLINE
  5
8B
100
AcDbEntity
  8
0
  6
ByLayer
 62
    0
370
   -1
100
AcDbPolyline
 90
    2
 70
    0
 43
0
 10
7.24989
 20
0.538303
 10
7.24989
 20
0.597276
  0
LWPOLYLINE
  5
8C
100
AcDbEntity
  8
0
  6
ByLayer
 62
    0
370
   -1
100
AcDbPolyline
 90
   12
 70
    0
 43
0
 10
7.24989
 20
0.541069
 10
7.24431
 20
0.538303
 10
7.23301
 20
0.538303
 10
7.22737
 20
0.541069
 10
7.22461
 20
0.543892
 10
7.22179
 20
0.5494790000000001
 10
7.22179
 20
0.566407
 10
7.22461
 20
0.571994
 10
7.22737
 20
0.574761
 10
7.23301
 20
0.577582
 10
7.24431
 20
0.577582
 10
7.24989
 20
0.574761
  0
LWPOLYLINE
  5
8D
100
AcDbEntity
  8
0
  6
ByLayer
 62
    0
370
   -1
100
AcDbPolyline
 90
    2
 70
    0
 43
0
 10
7.32297
 20
0.569174
 10
7.34272
 20
0.569174
  0
LWPOLYLINE
  5
8E
100
AcDbEntity
  8
0
  6
ByLayer
 62
    0
370
   -1
100
AcDbPolyline
 90
    4
 70
    0
 43
0
 10
7.35107
 20
0.538303
 10
7.32297
 20
0.538303
 10
7.32297
 20
0.597276
 10
7.35107
 20
0.597276
  0
LWPOLYLINE
  5
8F
100
AcDbEntity
  8
0
  6
ByLayer
 62
    0
370
   -1
100
AcDbPolyline
 90
    6
 70
    0
 43
0
 10
7.37642
 20
0.543892
 10
7.37929
 20
0.541069
 10
7.37642
 20
0.538303
 10
7.37358
 20
0.541069
 10
7.37642
 20
0.543892
 10
7.37642
 20
0.538303
  0
LWPOLYLINE
  5
90
100
AcDbEntity
  8
0
  6
ByLayer
 62
    0
370
   -1
100
AcDbPolyline
 90
   13
 70
    1
 43
0
 10
7.40457
 20
0.538303
 10
7.40457
 20
0.597276
 10
7.41862
 20
0.597276
 10
7.42708
 20
0.59451
 10
7.43267
 20
0.588867
 10
7.43549
 20
0.583171
 10
7.43832
 20
0.571994
 10
7.43832
 20
0.563585
 10
7.43549
 20
0.5523
 10
7.43267
 20
0.546658
 10
7.42708
 20
0.541069
 10
7.41862
 20
0.538303
 10
7.40457
 20
0.538303
  0
LWPOLYLINE
  5
91
100
AcDbEntity
  8
0
  6
ByLayer
 62
    0
370
   -1
100
AcDbPolyline
 90
    6
 70
    0
 43
0
 10
7.4636
 20
0.543892
 10
7.46642
 20
0.541069
 10
7.4636
 20
0.538303
 10
7.46078
 20
0.541069
 10
7.4636
 20
0.543892
 10
7.4636
 20
0.538303
  0
LWPOLYLINE
  5
92
100
AcDbEntity
  8
0
  6
ByLayer
 62
    0
370
   -1
100
AcDbPolyline
 90
    2
 70
    0
 43
0
 10
7.48887
 20
0.555067
 10
7.51708
 20
0.555067
  0
LWPOLYLINE
  5
93
100
AcDbEntity
  8
0
  6
ByLayer
 62
    0
370
   -1
100
AcDbPolyline
 90
    3
 70
    0
 43
0
 10
7.48329
 20
0.538303
 10
7.50299
 20
0.597276
 10
7.52268
 20
0.538303
  0
LWPOLYLINE
  5
94
100
AcDbEntity
  8
0
  6
ByLayer
 62
    0
370
   -1
100
AcDbPolyline
 90
    6
 70
    0
 43
0
 10
7.54238
 20
0.543892
 10
7.54519
 20
0.541069
 10
7.54238
 20
0.538303
 10
7.5395
 20
0.541069
 10
7.54238
 20
0.543892
 10
7.54238
 20
0.538303
  0
LWPOLYLINE
  5
95
100
AcDbEntity
  8
0
  6
ByLayer
 62
    0
370
   -1
100
AcDbPolyline
 90
    2
 70
    0
 43
0
 10
7.66049
 20
0.538303
 10
7.66049
 20
0.597276
  0
LWPOLYLINE
  5
96
100
AcDbEntity
  8
0
  6
ByLayer
 62
    0
370
   -1
100
AcDbPolyline
 90
    2
 70
    0
 43
0
 10
7.66607
 20
0.56071
 10
7.683
 20
0.538303
  0
LWPOLYLINE
  5
97
100
AcDbEntity
  8
0
  6
ByLayer
 62
    0
370
   -1
100
AcDbPolyline
 90
    2
 70
    0
 43
0
 10
7.683
 20
0.577582
 10
7.66049
 20
0.555067
  0
LWPOLYLINE
  5
98
100
AcDbEntity
  8
0
  6
ByLayer
 62
    0
370
   -1
100
AcDbPolyline
 90
    2
 70
    0
 43
0
 10
7.70828
 20
0.538303
 10
7.70828
 20
0.577582
  0
LWPOLYLINE
  5
99
100
AcDbEntity
  8
0
  6
ByLayer
 62
    0
370
   -1
100
AcDbPolyline
 90
    6
 70
    0
 43
0
 10
7.70828
 20
0.597276
 10
7.70551
 20
0.59451
 10
7.70828
 20
0.591689
 10
7.7111
 20
0.59451
 10
7.70828
 20
0.597276
 10
7.70828
 20
0.591689
  0
LWPOLYLINE
  5
9A
100
AcDbEntity
  8
0
  6
ByLayer
 62
    0
370
   -1
100
AcDbPolyline
 90
   12
 70
    0
 43
0
 10
7.76172
 20
0.541069
 10
7.75608
 20
0.538303
 10
7.74479
 20
0.538303
 10
7.73921
 20
0.541069
 10
7.73639
 20
0.543892
 10
7.73361
 20
0.5494790000000001
 10
7.73361
 20
0.566407
 10
7.73639
 20
0.571994
 10
7.73921
 20
0.574761
 10
7.74479
 20
0.577582
 10
7.75608
 20
0.577582
 10
7.76172
 20
0.574761
  0
LWPOLYLINE
  5
9B
100
AcDbEntity
  8
0
  6
ByLayer
 62
    0
370
   -1
100
AcDbPolyline
 90
    6
 70
    0
 43
0
 10
7.81228
 20
0.538303
 10
7.81228
 20
0.569174
 10
7.80951
 20
0.574761
 10
7.80388
 20
0.577582
 10
7.79258
 20
0.577582
 10
7.787
 20
0.574761
  0
LWPOLYLINE
  5
9C
100
AcDbEntity
  8
0
  6
ByLayer
 62
    0
370
   -1
100
AcDbPolyline
 90
   10
 70
    0
 43
0
 10
7.81228
 20
0.541069
 10
7.80669
 20
0.538303
 10
7.79258
 20
0.538303
 10
7.787
 20
0.541069
 10
7.78418
 20
0.546658
 10
7.78418
 20
0.5523
 10
7.787
 20
0.557889
 10
7.79258
 20
0.56071
 10
7.80669
 20
0.56071
 10
7.81228
 20
0.563585
  0
LWPOLYLINE
  5
9D
100
AcDbEntity
  8
0
  6
ByLayer
 62
    0
370
   -1
100
AcDbPolyline
 90
    2
 70
    0
 43
0
 10
7.86578
 20
0.538303
 10
7.86578
 20
0.597276
  0
LWPOLYLINE
  5
9E
100
AcDbEntity
  8
0
  6
ByLayer
 62
    0
370
   -1
100
AcDbPolyline
 90
   12
 70
    0
 43
0
 10
7.86578
 20
0.541069
 10
7.86008
 20
0.538303
 10
7.8489
 20
0.538303
 10
7.84332
 20
0.541069
 10
7.84039
 20
0.543892
 10
7.83763
 20
0.5494790000000001
 10
7.83763
 20
0.566407
 10
7.84039
 20
0.571994
 10
7.84332
 20
0.574761
 10
7.8489
 20
0.577582
 10
7.86008
 20
0.577582
 10
7.86578
 20
0.574761
  0
LWPOLYLINE
  5
9F
100
AcDbEntity
  8
0
  6
ByLayer
 62
    0
370
   -1
100
AcDbPolyline
 90
   16
 70
    0
 43
0
 10
7.96701
 20
0.597276
 10
7.93892
 20
0.597276
 10
7.93608
 20
0.569174
 10
7.93892
 20
0.571994
 10
7.9445
 20
0.574761
 10
7.95861
 20
0.574761
 10
7.96419
 20
0.571994
 10
7.96701
 20
0.569174
 10
7.96978
 20
0.563585
 10
7.96978
 20
0.5494790000000001
 10
7.96701
 20
0.543892
 10
7.96419
 20
0.541069
 10
7.95861
 20
0.538303
 10
7.9445
 20
0.538303
 10
7.93892
 20
0.541069
 10
7.93608
 20
0.543892
  0
LWPOLYLINE
  5
A0
100
AcDbEntity
  8
0
  6
ByLayer
 62
    0
370
   -1
100
AcDbPolyline
 90
    6
 70
    0
 43
0
 10
7.99511
 20
0.543892
 10
7.99789
 20
0.541069
 10
7.99511
 20
0.538303
 10
7.99229
 20
0.541069
 10
7.99511
 20
0.543892
 10
7.99511
 20
0.538303
  0
LWPOLYLINE
  5
A1
100
AcDbEntity
  8
0
  6
ByLayer
 62
    0
370
   -1
100
AcDbPolyline
 90
    2
 70
    0
 43
0
 10
8.05419
 20
0.538303
 10
8.0204
 20
0.538303
  0
LWPOLYLINE
  5
A2
100
AcDbEntity
  8
0
  6
ByLayer
 62
    0
370
   -1
100
AcDbPolyline
 90
    5
 70
    0
 43
0
 10
8.037280000000001
 20
0.538303
 10
8.037280000000001
 20
0.597276
 10
8.03168
 20
0.588867
 10
8.02599
 20
0.583171
 10
8.0204
 20
0.580404
  0
LWPOLYLINE
  5
A3
100
AcDbEntity
  8
0
  6
ByLayer
 62
    0
370
   -1
100
AcDbPolyline
 90
    6
 70
    0
 43
0
 10
8.07949
 20
0.543892
 10
8.08231
 20
0.541069
 10
8.07949
 20
0.538303
 10
8.07671
 20
0.541069
 10
8.07949
 20
0.543892
 10
8.07949
 20
0.538303
  0
LWPOLYLINE
  5
A4
100
AcDbEntity
  8
0
  6
ByLayer
 62
    0
370
   -1
100
AcDbPolyline
 90
   16
 70
    0
 43
0
 10
8.13569
 20
0.597276
 10
8.10758
 20
0.597276
 10
8.10482
 20
0.569174
 10
8.10758
 20
0.571994
 10
8.11317
 20
0.574761
 10
8.127280000000001
 20
0.574761
 10
8.132860000000001
 20
0.571994
 10
8.13569
 20
0.569174
 10
8.13851
 20
0.563585
 10
8.13851
 20
0.5494790000000001
 10
8.13569
 20
0.543892
 10
8.132860000000001
 20
0.541069
 10
8.127280000000001
 20
0.538303
 10
8.11317
 20
0.538303
 10
8.10758
 20
0.541069
 10
8.10482
 20
0.543892
  0
LWPOLYLINE
  5
A5
100
AcDbEntity
  8
0
  6
ByLayer
 62
    0
370
   -1
100
AcDbPolyline
 90
    2
 70
    0
 43
0
 10
8.163790000000001
 20
0.56071
 10
8.20876
 20
0.56071
  0
LWPOLYLINE
  5
A6
100
AcDbEntity
  8
0
  6
ByLayer
 62
    0
370
   -1
100
AcDbPolyline
 90
    2
 70
    0
 43
0
 10
8.186310000000001
 20
0.538303
 10
8.186310000000001
 20
0.583171
  0
LWPOLYLINE
  5
A7
100
AcDbEntity
  8
0
  6
ByLayer
 62
    0
370
   -1
100
AcDbPolyline
 90
    2
 70
    0
 43
0
 10
8.262320000000001
 20
0.538303
 10
8.262320000000001
 20
0.597276
  0
LWPOLYLINE
  5
A8
100
AcDbEntity
  8
0
  6
ByLayer
 62
    0
370
   -1
100
AcDbPolyline
 90
   12
 70
    0
 43
0
 10
8.262320000000001
 20
0.541069
 10
8.25662
 20
0.538303
 10
8.24539
 20
0.538303
 10
8.23981
 20
0.541069
 10
8.23699
 20
0.543892
 10
8.2341
 20
0.5494790000000001
 10
8.2341
 20
0.566407
 10
8.23699
 20
0.571994
 10
8.23981
 20
0.574761
 10
8.24539
 20
0.577582
 10
8.25662
 20
0.577582
 10
8.262320000000001
 20
0.574761
  0
LWPOLYLINE
  5
A9
100
AcDbEntity
  8
0
  6
ByLayer
 62
    0
370
   -1
100
AcDbPolyline
 90
    2
 70
    0
 43
0
 10
8.28201
 20
0.577582
 10
8.30447
 20
0.577582
  0
LWPOLYLINE
  5
AA
100
AcDbEntity
  8
0
  6
ByLayer
 62
    0
370
   -1
100
AcDbPolyline
 90
    5
 70
    0
 43
0
 10
8.290419999999999
 20
0.538303
 10
8.290419999999999
 20
0.588867
 10
8.29318
 20
0.59451
 10
8.298780000000001
 20
0.597276
 10
8.30447
 20
0.597276
  0
LWPOLYLINE
  5
AB
100
AcDbEntity
  8
0
  6
ByLayer
 62
    0
370
   -1
100
AcDbPolyline
 90
   16
 70
    0
 43
0
 10
8.321289999999999
 20
0.541069
 10
8.32687
 20
0.538303
 10
8.33822
 20
0.538303
 10
8.34381
 20
0.541069
 10
8.34657
 20
0.546658
 10
8.34657
 20
0.5494790000000001
 10
8.34381
 20
0.555067
 10
8.33822
 20
0.557889
 10
8.32981
 20
0.557889
 10
8.324109999999999
 20
0.56071
 10
8.321289999999999
 20
0.566407
 10
8.321289999999999
 20
0.569174
 10
8.324109999999999
 20
0.574761
 10
8.32981
 20
0.577582
 10
8.33822
 20
0.577582
 10
8.34381
 20
0.574761
  0
LWPOLYLINE
  5
AC
100
AcDbEntity
  8
0
  6
ByLayer
 62
    0
370
   -1
100
AcDbPolyline
 90
    7
 70
    0
 43
0
 10
8.39729
 20
0.577582
 10
8.39729
 20
0.529785
 10
8.39438
 20
0.524197
 10
8.3916
 20
0.521376
 10
8.386010000000001
 20
0.518608
 10
8.377610000000001
 20
0.518608
 10
8.3719
 20
0.521376
  0
LWPOLYLINE
  5
AD
100
AcDbEntity
  8
0
  6
ByLayer
 62
    0
370
   -1
100
AcDbPolyline
 90
   12
 70
    0
 43
0
 10
8.39729
 20
0.541069
 10
8.3916
 20
0.538303
 10
8.380380000000001
 20
0.538303
 10
8.374779999999999
 20
0.541069
 10
8.3719
 20
0.543892
 10
8.36908
 20
0.5494790000000001
 10
8.36908
 20
0.566407
 10
8.3719
 20
0.571994
 10
8.374779999999999
 20
0.574761
 10
8.380380000000001
 20
0.577582
 10
8.3916
 20
0.577582
 10
8.39729
 20
0.574761
  0
LWPOLYLINE
  5
AE
100
AcDbEntity
  8
0
  6
ByLayer
 62
    0
370
   -1
100
AcDbPolyline
 90
    2
 70
    0
 43
0
 10
8.45628
 20
0.538303
 10
8.42258
 20
0.538303
  0
LWPOLYLINE
  5
AF
100
AcDbEntity
  8
0
  6
ByLayer
 62
    0
370
   -1
100
AcDbPolyline
 90
    5
 70
    0
 43
0
 10
8.439399999999999
 20
0.538303
 10
8.439399999999999
 20
0.597276
 10
8.433809999999999
 20
0.588867
 10
8.42817
 20
0.583171
 10
8.42258
 20
0.580404
  0
LWPOLYLINE
  5
B0
100
AcDbEntity
  8
0
  6
ByLayer
 62
    0
370
   -1
100
AcDbPolyline
 90
    2
 70
    0
 43
0
 10
8.48161
 20
0.56071
 10
8.526579999999999
 20
0.56071
  0
LWPOLYLINE
  5
B1
100
AcDbEntity
  8
0
  6
ByLayer
 62
    0
370
   -1
100
AcDbPolyline
 90
   11
 70
    0
 43
0
 10
8.55186
 20
0.591689
 10
8.554690000000001
 20
0.59451
 10
8.56039
 20
0.597276
 10
8.57437
 20
0.597276
 10
8.579969999999999
 20
0.59451
 10
8.5829
 20
0.591689
 10
8.58567
 20
0.5861
 10
8.58567
 20
0.580404
 10
8.5829
 20
0.571994
 10
8.549099999999999
 20
0.538303
 10
8.58567
 20
0.538303
  0
LWPOLYLINE
  5
B2
100
AcDbEntity
  8
0
  6
ByLayer
 62
    0
370
   -1
100
AcDbPolyline
 90
    2
 70
    0
 43
0
 10
8.611000000000001
 20
0.538303
 10
8.611000000000001
 20
0.597276
  0
LWPOLYLINE
  5
B3
100
AcDbEntity
  8
0
  6
ByLayer
 62
    0
370
   -1
100
AcDbPolyline
 90
   12
 70
    0
 43
0
 10
8.611000000000001
 20
0.574761
 10
8.6166
 20
0.577582
 10
8.62776
 20
0.577582
 10
8.633509999999999
 20
0.574761
 10
8.636290000000001
 20
0.571994
 10
8.639110000000001
 20
0.566407
 10
8.639110000000001
 20
0.5494790000000001
 10
8.636290000000001
 20
0.543892
 10
8.633509999999999
 20
0.541069
 10
8.62776
 20
0.538303
 10
8.6166
 20
0.538303
 10
8.611000000000001
 20
0.541069
  0
LWPOLYLINE
  5
B4
100
AcDbEntity
  8
0
  6
ByLayer
 62
    0
370
   -1
100
AcDbPolyline
 90
    2
 70
    0
 43
0
 10
8.68967
 20
0.577582
 10
8.68967
 20
0.538303
  0
LWPOLYLINE
  5
B5
100
AcDbEntity
  8
0
  6
ByLayer
 62
    0
370
   -1
100
AcDbPolyline
 90
    7
 70
    0
 43
0
 10
8.664389999999999
 20
0.577582
 10
8.664389999999999
 20
0.546658
 10
8.667210000000001
 20
0.541069
 10
8.672790000000001
 20
0.538303
 10
8.681319999999999
 20
0.538303
 10
8.6869
 20
0.541069
 10
8.68967
 20
0.543892
  0
LWPOLYLINE
  5
B6
100
AcDbEntity
  8
0
  6
ByLayer
 62
    0
370
   -1
100
AcDbPolyline
 90
    2
 70
    0
 43
0
 10
8.717779999999999
 20
0.538303
 10
8.717779999999999
 20
0.577582
  0
LWPOLYLINE
  5
B7
100
AcDbEntity
  8
0
  6
ByLayer
 62
    0
370
   -1
100
AcDbPolyline
 90
    6
 70
    0
 43
0
 10
8.717779999999999
 20
0.597276
 10
8.715
 20
0.59451
 10
8.717779999999999
 20
0.591689
 10
8.720599999999999
 20
0.59451
 10
8.717779999999999
 20
0.597276
 10
8.717779999999999
 20
0.591689
  0
LWPOLYLINE
  5
B8
100
AcDbEntity
  8
0
  6
ByLayer
 62
    0
370
   -1
100
AcDbPolyline
 90
    4
 70
    0
 43
0
 10
8.754390000000001
 20
0.538303
 10
8.748810000000001
 20
0.541069
 10
8.745990000000001
 20
0.546658
 10
8.745990000000001
 20
0.597276
  0
LWPOLYLINE
  5
B9
100
AcDbEntity
  8
0
  6
ByLayer
 62
    0
370
   -1
100
AcDbPolyline
 90
    2
 70
    0
 43
0
 10
8.80219
 20
0.538303
 10
8.80219
 20
0.597276
  0
LWPOLYLINE
  5
BA
100
AcDbEntity
  8
0
  6
ByLayer
 62
    0
370
   -1
100
AcDbPolyline
 90
   12
 70
    0
 43
0
 10
8.80219
 20
0.541069
 10
8.7966
 20
0.538303
 10
8.78532
 20
0.538303
 10
8.779680000000001
 20
0.541069
 10
8.77692
 20
0.543892
 10
8.77408
 20
0.5494790000000001
 10
8.77408
 20
0.566407
 10
8.77692
 20
0.571994
 10
8.779680000000001
 20
0.574761
 10
8.78532
 20
0.577582
 10
8.7966
 20
0.577582
 10
8.80219
 20
0.574761
  0
LWPOLYLINE
  5
BB
100
AcDbEntity
  8
0
  6
ByLayer
 62
    0
370
   -1
100
AcDbPolyline
 90
   11
 70
    0
 43
0
 10
8.82747
 20
0.591689
 10
8.83029
 20
0.59451
 10
8.835889999999999
 20
0.597276
 10
8.84999
 20
0.597276
 10
8.85558
 20
0.59451
 10
8.8584
 20
0.591689
 10
8.861280000000001
 20
0.5861
 10
8.861280000000001
 20
0.580404
 10
8.8584
 20
0.571994
 10
8.82471
 20
0.538303
 10
8.861280000000001
 20
0.538303
  0
LWPOLYLINE
  5
BC
100
AcDbEntity
  8
0
  6
ByLayer
 62
    0
370
   -1
100
AcDbPolyline
 90
    2
 70
    0
 43
0
 10
6.96847
 20
0.7381720000000001
 10
11.2205
 20
0.7381720000000001
  0
LWPOLYLINE
  5
BD
100
AcDbEntity
  8
0
  6
ByLayer
 62
    0
370
   -1
100
AcDbPolyline
 90
    2
 70
    0
 43
0
 10
10.4099
 20
0.648492
 10
10.3902
 20
0.676594
  0
LWPOLYLINE
  5
BE
100
AcDbEntity
  8
0
  6
ByLayer
 62
    0
370
   -1
100
AcDbPolyline
 90
   11
 70
    0
 43
0
 10
10.3761
 20
0.648492
 10
10.3761
 20
0.707465
 10
10.3986
 20
0.707465
 10
10.4042
 20
0.704699
 10
10.407
 20
0.701878
 10
10.4099
 20
0.696289
 10
10.4099
 20
0.687879
 10
10.407
 20
0.682183
 10
10.4042
 20
0.6793630000000001
 10
10.3986
 20
0.676594
 10
10.3761
 20
0.676594
  0
LWPOLYLINE
  5
BF
100
AcDbEntity
  8
0
  6
ByLayer
 62
    0
370
   -1
100
AcDbPolyline
 90
   13
 70
    0
 43
0
 10
10.4577
 20
0.651258
 10
10.452
 20
0.648492
 10
10.4408
 20
0.648492
 10
10.4352
 20
0.651258
 10
10.4323
 20
0.656901
 10
10.4323
 20
0.6793630000000001
 10
10.4352
 20
0.6850039999999999
 10
10.4408
 20
0.687879
 10
10.452
 20
0.687879
 10
10.4577
 20
0.6850039999999999
 10
10.4605
 20
0.6793630000000001
 10
10.4605
 20
0.673774
 10
10.4323
 20
0.6681859999999999
  0
LWPOLYLINE
  5
C0
100
AcDbEntity
  8
0
  6
ByLayer
 62
    0
370
   -1
100
AcDbPolyline
 90
    3
 70
    0
 43
0
 10
10.4802
 20
0.687879
 10
10.4942
 20
0.648492
 10
10.5083
 20
0.687879
  0
LWPOLYLINE
  5
C1
100
AcDbEntity
  8
0
  6
ByLayer
 62
    0
370
   -1
100
AcDbPolyline
 90
    6
 70
    0
 43
0
 10
10.5308
 20
0.654081
 10
10.5336
 20
0.651258
 10
10.5308
 20
0.648492
 10
10.528
 20
0.651258
 10
10.5308
 20
0.654081
 10
10.5308
 20
0.648492
  0
LWPOLYLINE
  5
C2
100
AcDbEntity
  8
0
  6
ByLayer
 62
    0
370
   -1
100
AcDbPolyline
 90
    6
 70
    0
 43
0
 10
10.5308
 20
0.6850039999999999
 10
10.5336
 20
0.682183
 10
10.5308
 20
0.6793630000000001
 10
10.528
 20
0.682183
 10
10.5308
 20
0.6850039999999999
 10
10.5308
 20
0.6793630000000001
  0
LWPOLYLINE
  5
C3
100
AcDbEntity
  8
0
  6
ByLayer
 62
    0
370
   -1
100
AcDbPolyline
 90
   20
 70
    0
 43
0
 10
7.02208
 20
0.651258
 10
7.03049
 20
0.648492
 10
7.0446
 20
0.648492
 10
7.05018
 20
0.651258
 10
7.053
 20
0.654081
 10
7.05588
 20
0.659668
 10
7.05588
 20
0.665365
 10
7.053
 20
0.671007
 10
7.05018
 20
0.673774
 10
7.0446
 20
0.676594
 10
7.03342
 20
0.6793630000000001
 10
7.02767
 20
0.682183
 10
7.0249
 20
0.6850039999999999
 10
7.02208
 20
0.690701
 10
7.02208
 20
0.696289
 10
7.0249
 20
0.701878
 10
7.02767
 20
0.704699
 10
7.03342
 20
0.707465
 10
7.04742
 20
0.707465
 10
7.05588
 20
0.704699
  0
LWPOLYLINE
  5
C4
100
AcDbEntity
  8
0
  6
ByLayer
 62
    0
370
   -1
100
AcDbPolyline
 90
    2
 70
    0
 43
0
 10
7.08122
 20
0.648492
 10
7.08122
 20
0.687879
  0
LWPOLYLINE
  5
C5
100
AcDbEntity
  8
0
  6
ByLayer
 62
    0
370
   -1
100
AcDbPolyline
 90
    6
 70
    0
 43
0
 10
7.08122
 20
0.707465
 10
7.0784
 20
0.704699
 10
7.08122
 20
0.701878
 10
7.08399
 20
0.704699
 10
7.08122
 20
0.707465
 10
7.08122
 20
0.701878
  0
LWPOLYLINE
  5
C6
100
AcDbEntity
  8
0
  6
ByLayer
 62
    0
370
   -1
100
AcDbPolyline
 90
    4
 70
    0
 43
0
 10
7.10368
 20
0.687879
 10
7.1346
 20
0.687879
 10
7.10368
 20
0.648492
 10
7.1346
 20
0.648492
  0
LWPOLYLINE
  5
C7
100
AcDbEntity
  8
0
  6
ByLayer
 62
    0
370
   -1
100
AcDbPolyline
 90
   13
 70
    0
 43
0
 10
7.17958
 20
0.651258
 10
7.17399
 20
0.648492
 10
7.16271
 20
0.648492
 10
7.15712
 20
0.651258
 10
7.15429
 20
0.656901
 10
7.15429
 20
0.6793630000000001
 10
7.15712
 20
0.6850039999999999
 10
7.16271
 20
0.687879
 10
7.17399
 20
0.687879
 10
7.17958
 20
0.6850039999999999
 10
7.1824
 20
0.6793630000000001
 10
7.1824
 20
0.673774
 10
7.15429
 20
0.6681859999999999
  0
LWPOLYLINE
  5
C8
100
AcDbEntity
  8
0
  6
ByLayer
 62
    0
370
   -1
100
AcDbPolyline
 90
    6
 70
    0
 43
0
 10
7.20768
 20
0.654081
 10
7.2105
 20
0.651258
 10
7.20768
 20
0.648492
 10
7.20492
 20
0.651258
 10
7.20768
 20
0.654081
 10
7.20768
 20
0.648492
  0
LWPOLYLINE
  5
C9
100
AcDbEntity
  8
0
  6
ByLayer
 62
    0
370
   -1
100
AcDbPolyline
 90
    6
 70
    0
 43
0
 10
7.20768
 20
0.6850039999999999
 10
7.2105
 20
0.682183
 10
7.20768
 20
0.6793630000000001
 10
7.20492
 20
0.682183
 10
7.20768
 20
0.6850039999999999
 10
7.20768
 20
0.6793630000000001
  0
LWPOLYLINE
  5
CA
100
AcDbEntity
  8
0
  6
ByLayer
 62
    0
370
   -1
100
AcDbPolyline
 90
    2
 70
    0
 43
0
 10
7.278
 20
0.665365
 10
7.3061
 20
0.665365
  0
LWPOLYLINE
  5
CB
100
AcDbEntity
  8
0
  6
ByLayer
 62
    0
370
   -1
100
AcDbPolyline
 90
    3
 70
    0
 43
0
 10
7.2724
 20
0.648492
 10
7.2921
 20
0.707465
 10
7.31179
 20
0.648492
  0
LWPOLYLINE
  5
CC
100
AcDbEntity
  8
0
  6
ByLayer
 62
    0
370
   -1
100
AcDbPolyline
 90
    2
 70
    0
 43
0
 10
7.35678
 20
0.687879
 10
7.35678
 20
0.648492
  0
LWPOLYLINE
  5
CD
100
AcDbEntity
  8
0
  6
ByLayer
 62
    0
370
   -1
100
AcDbPolyline
 90
    3
 70
    0
 43
0
 10
7.34272
 20
0.710394
 10
7.32861
 20
0.6681859999999999
 10
7.36518
 20
0.6681859999999999
  0
LWPOLYLINE
  5
CE
100
AcDbEntity
  8
0
  6
ByLayer
 62
    0
370
   -1
100
AcDbPolyline
 90
    2
 70
    0
 43
0
 10
10.3714
 20
0.538303
 10
10.3714
 20
0.597276
  0
LWPOLYLINE
  5
CF
100
AcDbEntity
  8
0
  6
ByLayer
 62
    0
370
   -1
100
AcDbPolyline
 90
    2
 70
    0
 43
0
 10
10.4248
 20
0.538303
 10
10.4248
 20
0.597276
  0
LWPOLYLINE
  5
D0
100
AcDbEntity
  8
0
  6
ByLayer
 62
    0
370
   -1
100
AcDbPolyline
 90
   12
 70
    0
 43
0
 10
10.4248
 20
0.541069
 10
10.4192
 20
0.538303
 10
10.4079
 20
0.538303
 10
10.4023
 20
0.541069
 10
10.3995
 20
0.543892
 10
10.3967
 20
0.5494790000000001
 10
10.3967
 20
0.566407
 10
10.3995
 20
0.571994
 10
10.4023
 20
0.574761
 10
10.4079
 20
0.577582
 10
10.4192
 20
0.577582
 10
10.4248
 20
0.574761
  0
LWPOLYLINE
  5
D1
100
AcDbEntity
  8
0
  6
ByLayer
 62
    0
370
   -1
100
AcDbPolyline
 90
    6
 70
    0
 43
0
 10
10.4529
 20
0.543892
 10
10.4557
 20
0.541069
 10
10.4529
 20
0.538303
 10
10.4501
 20
0.541069
 10
10.4529
 20
0.543892
 10
10.4529
 20
0.538303
  0
LWPOLYLINE
  5
D2
100
AcDbEntity
  8
0
  6
ByLayer
 62
    0
370
   -1
100
AcDbPolyline
 90
    6
 70
    0
 43
0
 10
10.4529
 20
0.574761
 10
10.4557
 20
0.571994
 10
10.4529
 20
0.569174
 10
10.4501
 20
0.571994
 10
10.4529
 20
0.574761
 10
10.4529
 20
0.569174
  0
LWPOLYLINE
  5
D3
100
AcDbEntity
  8
0
  6
ByLayer
 62
    0
370
   -1
100
AcDbPolyline
 90
    2
 70
    0
 43
0
 10
10.557
 20
0.538303
 10
10.5232
 20
0.538303
  0
LWPOLYLINE
  5
D4
100
AcDbEntity
  8
0
  6
ByLayer
 62
    0
370
   -1
100
AcDbPolyline
 90
    5
 70
    0
 43
0
 10
10.5401
 20
0.538303
 10
10.5401
 20
0.597276
 10
10.5345
 20
0.588867
 10
10.5289
 20
0.583171
 10
10.5232
 20
0.580404
  0
LWPOLYLINE
  5
D5
100
AcDbEntity
  8
0
  6
ByLayer
 62
    0
370
   -1
100
AcDbPolyline
 90
    2
 70
    0
 43
0
 10
10.6245
 20
0.600097
 10
10.5739
 20
0.524197
  0
LWPOLYLINE
  5
D6
100
AcDbEntity
  8
0
  6
ByLayer
 62
    0
370
   -1
100
AcDbPolyline
 90
    2
 70
    0
 43
0
 10
10.6751
 20
0.538303
 10
10.6413
 20
0.538303
  0
LWPOLYLINE
  5
D7
100
AcDbEntity
  8
0
  6
ByLayer
 62
    0
370
   -1
100
AcDbPolyline
 90
    5
 70
    0
 43
0
 10
10.6582
 20
0.538303
 10
10.6582
 20
0.597276
 10
10.6526
 20
0.588867
 10
10.647
 20
0.583171
 10
10.6413
 20
0.580404
  0
LWPOLYLINE
  5
D8
100
AcDbEntity
  8
0
  6
ByLayer
 62
    0
370
   -1
100
AcDbPolyline
 90
    2
 70
    0
 43
0
 10
6.96847
 20
0.895671
 10
11.2205
 20
0.895671
  0
LWPOLYLINE
  5
D9
100
AcDbEntity
  8
0
  6
ByLayer
 62
    0
370
   -1
100
AcDbPolyline
 90
    2
 70
    0
 43
0
 10
7.03597
 20
0.867893
 10
7.081
 20
0.867893
  0
LWPOLYLINE
  5
DA
100
AcDbEntity
  8
0
  6
ByLayer
 62
    0
370
   -1
100
AcDbPolyline
 90
    2
 70
    0
 43
0
 10
7.04861
 20
0.789171
 10
7.05849
 20
0.867893
  0
LWPOLYLINE
  5
DB
100
AcDbEntity
  8
0
  6
ByLayer
 62
    0
370
   -1
100
AcDbPolyline
 90
    2
 70
    0
 43
0
 10
7.09739
 20
0.789171
 10
7.10389
 20
0.841689
  0
LWPOLYLINE
  5
DC
100
AcDbEntity
  8
0
  6
ByLayer
 62
    0
370
   -1
100
AcDbPolyline
 90
    6
 70
    0
 43
0
 10
7.10721
 20
0.867893
 10
7.10297
 20
0.864204
 10
7.10628
 20
0.860406
 10
7.11051
 20
0.864204
 10
7.10721
 20
0.867893
 10
7.10628
 20
0.860406
  0
LWPOLYLINE
  5
DD
100
AcDbEntity
  8
0
  6
ByLayer
 62
    0
370
   -1
100
AcDbPolyline
 90
    2
 70
    0
 43
0
 10
7.13021
 20
0.841689
 10
7.16021
 20
0.841689
  0
LWPOLYLINE
  5
DE
100
AcDbEntity
  8
0
  6
ByLayer
 62
    0
370
   -1
100
AcDbPolyline
 90
    5
 70
    0
 43
0
 10
7.14469
 20
0.867893
 10
7.13629
 20
0.800401
 10
7.13911
 20
0.79286
 10
7.14611
 20
0.789171
 10
7.1536
 20
0.789171
  0
LWPOLYLINE
  5
DF
100
AcDbEntity
  8
0
  6
ByLayer
 62
    0
370
   -1
100
AcDbPolyline
 90
    4
 70
    0
 43
0
 10
7.19108
 20
0.789171
 10
7.18408
 20
0.79286
 10
7.18132
 20
0.800401
 10
7.18967
 20
0.867893
  0
LWPOLYLINE
  5
E0
100
AcDbEntity
  8
0
  6
ByLayer
 62
    0
370
   -1
100
AcDbPolyline
 90
   13
 70
    0
 43
0
 10
7.25157
 20
0.79286
 10
7.2436
 20
0.789171
 10
7.22857
 20
0.789171
 10
7.22157
 20
0.79286
 10
7.21869
 20
0.800401
 10
7.2225
 20
0.830404
 10
7.22721
 20
0.83789
 10
7.23519
 20
0.841689
 10
7.25011
 20
0.841689
 10
7.25722
 20
0.83789
 10
7.25999
 20
0.830404
 10
7.25911
 20
0.822863
 10
7.2206
 20
0.815375
  0
LWPOLYLINE
  5
E1
100
AcDbEntity
  8
0
  6
ByLayer
 62
    0
370
   -1
100
AcDbPolyline
 90
    6
 70
    0
 43
0
 10
7.2895
 20
0.796658
 10
7.29281
 20
0.79286
 10
7.28857
 20
0.789171
 10
7.28532
 20
0.79286
 10
7.2895
 20
0.796658
 10
7.28857
 20
0.789171
  0
LWPOLYLINE
  5
E2
100
AcDbEntity
  8
0
  6
ByLayer
 62
    0
370
   -1
100
AcDbPolyline
 90
    6
 70
    0
 43
0
 10
7.29471
 20
0.83789
 10
7.29801
 20
0.834201
 10
7.29368
 20
0.830404
 10
7.29047
 20
0.834201
 10
7.29471
 20
0.83789
 10
7.29368
 20
0.830404
  0
LWPOLYLINE
  5
E3
100
AcDbEntity
  8
0
  6
ByLayer
 62
    0
370
   -1
100
AcDbPolyline
 90
    2
 70
    0
 43
0
 10
7.0446
 20
0.970757
 10
7.0249
 20
0.970757
  0
LWPOLYLINE
  5
E4
100
AcDbEntity
  8
0
  6
ByLayer
 62
    0
370
   -1
100
AcDbPolyline
 90
    3
 70
    0
 43
0
 10
7.0249
 20
0.939779
 10
7.0249
 20
0.998861
 10
7.053
 20
0.998861
  0
LWPOLYLINE
  5
E5
100
AcDbEntity
  8
0
  6
ByLayer
 62
    0
370
   -1
100
AcDbPolyline
 90
    2
 70
    0
 43
0
 10
7.07553
 20
0.939779
 10
7.07553
 20
0.979167
  0
LWPOLYLINE
  5
E6
100
AcDbEntity
  8
0
  6
ByLayer
 62
    0
370
   -1
100
AcDbPolyline
 90
    6
 70
    0
 43
0
 10
7.07553
 20
0.998861
 10
7.07269
 20
0.996094
 10
7.07553
 20
0.993272
 10
7.0784
 20
0.996094
 10
7.07553
 20
0.998861
 10
7.07553
 20
0.993272
  0
LWPOLYLINE
  5
E7
100
AcDbEntity
  8
0
  6
ByLayer
 62
    0
370
   -1
100
AcDbPolyline
 90
    4
 70
    0
 43
0
 10
7.11208
 20
0.939779
 10
7.1065
 20
0.9426
 10
7.10368
 20
0.948296
 10
7.10368
 20
0.998861
  0
LWPOLYLINE
  5
E8
100
AcDbEntity
  8
0
  6
ByLayer
 62
    0
370
   -1
100
AcDbPolyline
 90
   13
 70
    0
 43
0
 10
7.15712
 20
0.9426
 10
7.15147
 20
0.939779
 10
7.14019
 20
0.939779
 10
7.1346
 20
0.9426
 10
7.13178
 20
0.948296
 10
7.13178
 20
0.970757
 10
7.1346
 20
0.9764
 10
7.14019
 20
0.979167
 10
7.15147
 20
0.979167
 10
7.15712
 20
0.9764
 10
7.15989
 20
0.970757
 10
7.15989
 20
0.9650609999999999
 10
7.13178
 20
0.959472
  0
LWPOLYLINE
  5
E9
100
AcDbEntity
  8
0
  6
ByLayer
 62
    0
370
   -1
100
AcDbPolyline
 90
    6
 70
    0
 43
0
 10
7.18517
 20
0.945475
 10
7.18799
 20
0.9426
 10
7.18517
 20
0.939779
 10
7.1824
 20
0.9426
 10
7.18517
 20
0.945475
 10
7.18517
 20
0.939779
  0
LWPOLYLINE
  5
EA
100
AcDbEntity
  8
0
  6
ByLayer
 62
    0
370
   -1
100
AcDbPolyline
 90
    6
 70
    0
 43
0
 10
7.18517
 20
0.9764
 10
7.18799
 20
0.973579
 10
7.18517
 20
0.970757
 10
7.1824
 20
0.973579
 10
7.18517
 20
0.9764
 10
7.18517
 20
0.970757
  0
LWPOLYLINE
  5
EB
100
AcDbEntity
  8
0
  6
ByLayer
 62
    0
370
   -1
100
AcDbPolyline
 90
    2
 70
    0
 43
0
 10
7.24989
 20
0.979167
 10
7.2724
 20
0.979167
  0
LWPOLYLINE
  5
EC
100
AcDbEntity
  8
0
  6
ByLayer
 62
    0
370
   -1
100
AcDbPolyline
 90
    5
 70
    0
 43
0
 10
7.25831
 20
0.998861
 10
7.25831
 20
0.948296
 10
7.26107
 20
0.9426
 10
7.26682
 20
0.939779
 10
7.2724
 20
0.939779
  0
LWPOLYLINE
  5
ED
100
AcDbEntity
  8
0
  6
ByLayer
 62
    0
370
   -1
100
AcDbPolyline
 90
   17
 70
    1
 43
0
 10
7.30051
 20
0.939779
 10
7.29486
 20
0.9426
 10
7.2921
 20
0.945475
 10
7.28928
 20
0.951064
 10
7.28928
 20
0.967882
 10
7.2921
 20
0.973579
 10
7.29486
 20
0.9764
 10
7.30051
 20
0.979167
 10
7.30897
 20
0.979167
 10
7.31461
 20
0.9764
 10
7.31739
 20
0.973579
 10
7.32021
 20
0.967882
 10
7.32021
 20
0.951064
 10
7.31739
 20
0.945475
 10
7.31461
 20
0.9426
 10
7.30897
 20
0.939779
 10
7.30051
 20
0.939779
  0
LWPOLYLINE
  5
EE
100
AcDbEntity
  8
0
  6
ByLayer
 62
    0
370
   -1
100
AcDbPolyline
 90
    2
 70
    0
 43
0
 10
7.37076
 20
0.979167
 10
7.37076
 20
0.939779
  0
LWPOLYLINE
  5
EF
100
AcDbEntity
  8
0
  6
ByLayer
 62
    0
370
   -1
100
AcDbPolyline
 90
    7
 70
    0
 43
0
 10
7.34549
 20
0.979167
 10
7.34549
 20
0.948296
 10
7.34831
 20
0.9426
 10
7.35389
 20
0.939779
 10
7.36242
 20
0.939779
 10
7.368
 20
0.9426
 10
7.37076
 20
0.945475
  0
LWPOLYLINE
  5
F0
100
AcDbEntity
  8
0
  6
ByLayer
 62
    0
370
   -1
100
AcDbPolyline
 90
   12
 70
    0
 43
0
 10
7.42421
 20
0.9426
 10
7.41862
 20
0.939779
 10
7.40739
 20
0.939779
 10
7.40181
 20
0.9426
 10
7.39887
 20
0.945475
 10
7.39611
 20
0.951064
 10
7.39611
 20
0.967882
 10
7.39887
 20
0.973579
 10
7.40181
 20
0.9764
 10
7.40739
 20
0.979167
 10
7.41862
 20
0.979167
 10
7.42421
 20
0.9764
  0
LWPOLYLINE
  5
F1
100
AcDbEntity
  8
0
  6
ByLayer
 62
    0
370
   -1
100
AcDbPolyline
 90
    2
 70
    0
 43
0
 10
7.4496
 20
0.939779
 10
7.4496
 20
0.998861
  0
LWPOLYLINE
  5
F2
100
AcDbEntity
  8
0
  6
ByLayer
 62
    0
370
   -1
100
AcDbPolyline
 90
    7
 70
    0
 43
0
 10
7.47487
 20
0.939779
 10
7.47487
 20
0.970757
 10
7.47211
 20
0.9764
 10
7.46642
 20
0.979167
 10
7.45801
 20
0.979167
 10
7.45242
 20
0.9764
 10
7.4496
 20
0.973579
  0
LWPOLYLINE
  5
F3
100
AcDbEntity
  8
0
  6
ByLayer
 62
    0
370
   -1
100
AcDbPolyline
 90
    2
 70
    0
 43
0
 10
7.48887
 20
0.93419
 10
7.5339
 20
0.93419
  0
LWPOLYLINE
  5
F4
100
AcDbEntity
  8
0
  6
ByLayer
 62
    0
370
   -1
100
AcDbPolyline
 90
    2
 70
    0
 43
0
 10
7.54801
 20
0.939779
 10
7.54801
 20
0.998861
  0
LWPOLYLINE
  5
F5
100
AcDbEntity
  8
0
  6
ByLayer
 62
    0
370
   -1
100
AcDbPolyline
 90
    2
 70
    0
 43
0
 10
7.5536
 20
0.962294
 10
7.57047
 20
0.939779
  0
LWPOLYLINE
  5
F6
100
AcDbEntity
  8
0
  6
ByLayer
 62
    0
370
   -1
100
AcDbPolyline
 90
    2
 70
    0
 43
0
 10
7.57047
 20
0.979167
 10
7.54801
 20
0.9567059999999999
  0
LWPOLYLINE
  5
F7
100
AcDbEntity
  8
0
  6
ByLayer
 62
    0
370
   -1
100
AcDbPolyline
 90
    2
 70
    0
 43
0
 10
7.59581
 20
0.939779
 10
7.59581
 20
0.998861
  0
LWPOLYLINE
  5
F8
100
AcDbEntity
  8
0
  6
ByLayer
 62
    0
370
   -1
100
AcDbPolyline
 90
   12
 70
    0
 43
0
 10
7.59581
 20
0.9764
 10
7.6014
 20
0.979167
 10
7.61268
 20
0.979167
 10
7.61828
 20
0.9764
 10
7.6211
 20
0.973579
 10
7.62392
 20
0.967882
 10
7.62392
 20
0.951064
 10
7.6211
 20
0.945475
 10
7.61828
 20
0.9426
 10
7.61268
 20
0.939779
 10
7.6014
 20
0.939779
 10
7.59581
 20
0.9426
  0
LWPOLYLINE
  5
F9
100
AcDbEntity
  8
0
  6
ByLayer
 62
    0
370
   -1
100
AcDbPolyline
 90
    2
 70
    0
 43
0
 10
7.68018
 20
0.939779
 10
7.64638
 20
0.939779
  0
LWPOLYLINE
  5
FA
100
AcDbEntity
  8
0
  6
ByLayer
 62
    0
370
   -1
100
AcDbPolyline
 90
    5
 70
    0
 43
0
 10
7.66331
 20
0.939779
 10
7.66331
 20
0.998861
 10
7.65771
 20
0.990397
 10
7.65201
 20
0.98481
 10
7.64638
 20
0.981988
  0
LWPOLYLINE
  5
FB
100
AcDbEntity
  8
0
  6
ByLayer
 62
    0
370
   -1
100
AcDbPolyline
 90
    6
 70
    0
 43
0
 10
7.70551
 20
0.945475
 10
7.70828
 20
0.9426
 10
7.70551
 20
0.939779
 10
7.70269
 20
0.9426
 10
7.70551
 20
0.945475
 10
7.70551
 20
0.939779
  0
LWPOLYLINE
  5
FC
100
AcDbEntity
  8
0
  6
ByLayer
 62
    0
370
   -1
100
AcDbPolyline
 90
    2
 70
    0
 43
0
 10
7.73361
 20
0.939779
 10
7.73361
 20
0.998861
  0
LWPOLYLINE
  5
FD
100
AcDbEntity
  8
0
  6
ByLayer
 62
    0
370
   -1
100
AcDbPolyline
 90
    2
 70
    0
 43
0
 10
7.73921
 20
0.962294
 10
7.75608
 20
0.939779
  0
LWPOLYLINE
  5
FE
100
AcDbEntity
  8
0
  6
ByLayer
 62
    0
370
   -1
100
AcDbPolyline
 90
    2
 70
    0
 43
0
 10
7.75608
 20
0.979167
 10
7.73361
 20
0.9567059999999999
  0
LWPOLYLINE
  5
FF
100
AcDbEntity
  8
0
  6
ByLayer
 62
    0
370
   -1
100
AcDbPolyline
 90
    2
 70
    0
 43
0
 10
7.78142
 20
0.939779
 10
7.78142
 20
0.979167
  0
LWPOLYLINE
  5
100
100
AcDbEntity
  8
0
  6
ByLayer
 62
    0
370
   -1
100
AcDbPolyline
 90
    6
 70
    0
 43
0
 10
7.78142
 20
0.998861
 10
7.7786
 20
0.996094
 10
7.78142
 20
0.993272
 10
7.78418
 20
0.996094
 10
7.78142
 20
0.998861
 10
7.78142
 20
0.993272
  0
LWPOLYLINE
  5
101
100
AcDbEntity
  8
0
  6
ByLayer
 62
    0
370
   -1
100
AcDbPolyline
 90
   12
 70
    0
 43
0
 10
7.83479
 20
0.9426
 10
7.82921
 20
0.939779
 10
7.81799
 20
0.939779
 10
7.81228
 20
0.9426
 10
7.80951
 20
0.945475
 10
7.80669
 20
0.951064
 10
7.80669
 20
0.967882
 10
7.80951
 20
0.973579
 10
7.81228
 20
0.9764
 10
7.81799
 20
0.979167
 10
7.82921
 20
0.979167
 10
7.83479
 20
0.9764
  0
LWPOLYLINE
  5
102
100
AcDbEntity
  8
0
  6
ByLayer
 62
    0
370
   -1
100
AcDbPolyline
 90
    6
 70
    0
 43
0
 10
7.88542
 20
0.939779
 10
7.88542
 20
0.970757
 10
7.8826
 20
0.9764
 10
7.87701
 20
0.979167
 10
7.86578
 20
0.979167
 10
7.86008
 20
0.9764
  0
LWPOLYLINE
  5
103
100
AcDbEntity
  8
0
  6
ByLayer
 62
    0
370
   -1
100
AcDbPolyline
 90
   10
 70
    0
 43
0
 10
7.88542
 20
0.9426
 10
7.87978
 20
0.939779
 10
7.86578
 20
0.939779
 10
7.86008
 20
0.9426
 10
7.85732
 20
0.948296
 10
7.85732
 20
0.953885
 10
7.86008
 20
0.959472
 10
7.86578
 20
0.962294
 10
7.87978
 20
0.962294
 10
7.88542
 20
0.9650609999999999
  0
LWPOLYLINE
  5
104
100
AcDbEntity
  8
0
  6
ByLayer
 62
    0
370
   -1
100
AcDbPolyline
 90
    2
 70
    0
 43
0
 10
7.93892
 20
0.939779
 10
7.93892
 20
0.998861
  0
LWPOLYLINE
  5
105
100
AcDbEntity
  8
0
  6
ByLayer
 62
    0
370
   -1
100
AcDbPolyline
 90
   12
 70
    0
 43
0
 10
7.93892
 20
0.9426
 10
7.93321
 20
0.939779
 10
7.92199
 20
0.939779
 10
7.91639
 20
0.9426
 10
7.91357
 20
0.945475
 10
7.91081
 20
0.951064
 10
7.91081
 20
0.967882
 10
7.91357
 20
0.973579
 10
7.91639
 20
0.9764
 10
7.92199
 20
0.979167
 10
7.93321
 20
0.979167
 10
7.93892
 20
0.9764
  0
LWPOLYLINE
  5
106
100
AcDbEntity
  8
0
  6
ByLayer
 62
    0
370
   -1
100
AcDbPolyline
 90
    2
 70
    0
 43
0
 10
7.9529
 20
0.93419
 10
7.99789
 20
0.93419
  0
LWPOLYLINE
  5
107
100
AcDbEntity
  8
0
  6
ByLayer
 62
    0
370
   -1
100
AcDbPolyline
 90
    2
 70
    0
 43
0
 10
8.011990000000001
 20
0.979167
 10
8.011990000000001
 20
0.920085
  0
LWPOLYLINE
  5
108
100
AcDbEntity
  8
0
  6
ByLayer
 62
    0
370
   -1
100
AcDbPolyline
 90
   12
 70
    0
 43
0
 10
8.011990000000001
 20
0.9764
 10
8.017580000000001
 20
0.979167
 10
8.028919999999999
 20
0.979167
 10
8.0345
 20
0.9764
 10
8.037280000000001
 20
0.973579
 10
8.040100000000001
 20
0.967882
 10
8.040100000000001
 20
0.951064
 10
8.037280000000001
 20
0.945475
 10
8.0345
 20
0.9426
 10
8.028919999999999
 20
0.939779
 10
8.017580000000001
 20
0.939779
 10
8.011990000000001
 20
0.9426
  0
LWPOLYLINE
  5
109
100
AcDbEntity
  8
0
  6
ByLayer
 62
    0
370
   -1
100
AcDbPolyline
 90
   12
 70
    0
 43
0
 10
8.09071
 20
0.9426
 10
8.08507
 20
0.939779
 10
8.07389
 20
0.939779
 10
8.06819
 20
0.9426
 10
8.06537
 20
0.945475
 10
8.062609999999999
 20
0.951064
 10
8.062609999999999
 20
0.967882
 10
8.06537
 20
0.973579
 10
8.06819
 20
0.9764
 10
8.07389
 20
0.979167
 10
8.08507
 20
0.979167
 10
8.09071
 20
0.9764
  0
LWPOLYLINE
  5
10A
100
AcDbEntity
  8
0
  6
ByLayer
 62
    0
370
   -1
100
AcDbPolyline
 90
    2
 70
    0
 43
0
 10
8.116
 20
0.939779
 10
8.116
 20
0.998861
  0
LWPOLYLINE
  5
10B
100
AcDbEntity
  8
0
  6
ByLayer
 62
    0
370
   -1
100
AcDbPolyline
 90
   12
 70
    0
 43
0
 10
8.116
 20
0.9764
 10
8.121689999999999
 20
0.979167
 10
8.132860000000001
 20
0.979167
 10
8.13851
 20
0.9764
 10
8.14128
 20
0.973579
 10
8.144209999999999
 20
0.967882
 10
8.144209999999999
 20
0.951064
 10
8.14128
 20
0.945475
 10
8.13851
 20
0.9426
 10
8.132860000000001
 20
0.939779
 10
8.121689999999999
 20
0.939779
 10
8.116
 20
0.9426
  0
LWPOLYLINE
  5
10C
100
AcDbEntity
  8
0
  6
ByLayer
 62
    0
370
   -1
100
AcDbPolyline
 90
    2
 70
    0
 43
0
 10
6.96847
 20
1.13189
 10
11.2205
 20
1.13189
  0
LWPOLYLINE
  5
10D
100
AcDbEntity
  8
0
  6
ByLayer
 62
    0
370
   -1
100
AcDbPolyline
 90
   20
 70
    0
 43
0
 10
7.02208
 20
1.04888
 10
7.03049
 20
1.04606
 10
7.0446
 20
1.04606
 10
7.05018
 20
1.04888
 10
7.053
 20
1.05176
 10
7.05588
 20
1.0574
 10
7.05588
 20
1.06299
 10
7.053
 20
1.06858
 10
7.05018
 20
1.0714
 10
7.0446
 20
1.07416
 10
7.03342
 20
1.07709
 10
7.02767
 20
1.07986
 10
7.0249
 20
1.08268
 10
7.02208
 20
1.08827
 10
7.02208
 20
1.09386
 10
7.0249
 20
1.09961
 10
7.02767
 20
1.10238
 10
7.03342
 20
1.1052
 10
7.04742
 20
1.1052
 10
7.05588
 20
1.10238
  0
LWPOLYLINE
  5
10E
100
AcDbEntity
  8
0
  6
ByLayer
 62
    0
370
   -1
100
AcDbPolyline
 90
    2
 70
    0
 43
0
 10
7.08122
 20
1.04606
 10
7.08122
 20
1.1052
  0
LWPOLYLINE
  5
10F
100
AcDbEntity
  8
0
  6
ByLayer
 62
    0
370
   -1
100
AcDbPolyline
 90
    7
 70
    0
 43
0
 10
7.1065
 20
1.04606
 10
7.1065
 20
1.07709
 10
7.10368
 20
1.08268
 10
7.09799
 20
1.0855
 10
7.08957
 20
1.0855
 10
7.08399
 20
1.08268
 10
7.08122
 20
1.07986
  0
LWPOLYLINE
  5
110
100
AcDbEntity
  8
0
  6
ByLayer
 62
    0
370
   -1
100
AcDbPolyline
 90
   13
 70
    0
 43
0
 10
7.15712
 20
1.04888
 10
7.15147
 20
1.04606
 10
7.14019
 20
1.04606
 10
7.1346
 20
1.04888
 10
7.13178
 20
1.05458
 10
7.13178
 20
1.07709
 10
7.1346
 20
1.08268
 10
7.14019
 20
1.0855
 10
7.15147
 20
1.0855
 10
7.15712
 20
1.08268
 10
7.15989
 20
1.07709
 10
7.15989
 20
1.0714
 10
7.13178
 20
1.06581
  0
LWPOLYLINE
  5
111
100
AcDbEntity
  8
0
  6
ByLayer
 62
    0
370
   -1
100
AcDbPolyline
 90
   13
 70
    0
 43
0
 10
7.20768
 20
1.04888
 10
7.2021
 20
1.04606
 10
7.19081
 20
1.04606
 10
7.18517
 20
1.04888
 10
7.1824
 20
1.05458
 10
7.1824
 20
1.07709
 10
7.18517
 20
1.08268
 10
7.19081
 20
1.0855
 10
7.2021
 20
1.0855
 10
7.20768
 20
1.08268
 10
7.2105
 20
1.07709
 10
7.2105
 20
1.0714
 10
7.1824
 20
1.06581
  0
LWPOLYLINE
  5
112
100
AcDbEntity
  8
0
  6
ByLayer
 62
    0
370
   -1
100
AcDbPolyline
 90
    2
 70
    0
 43
0
 10
7.22737
 20
1.0855
 10
7.24989
 20
1.0855
  0
LWPOLYLINE
  5
113
100
AcDbEntity
  8
0
  6
ByLayer
 62
    0
370
   -1
100
AcDbPolyline
 90
    5
 70
    0
 43
0
 10
7.23579
 20
1.1052
 10
7.23579
 20
1.05458
 10
7.23861
 20
1.04888
 10
7.24431
 20
1.04606
 10
7.24989
 20
1.04606
  0
LWPOLYLINE
  5
114
100
AcDbEntity
  8
0
  6
ByLayer
 62
    0
370
   -1
100
AcDbPolyline
 90
    6
 70
    0
 43
0
 10
7.26958
 20
1.05176
 10
7.2724
 20
1.04888
 10
7.26958
 20
1.04606
 10
7.26682
 20
1.04888
 10
7.26958
 20
1.05176
 10
7.26958
 20
1.04606
  0
LWPOLYLINE
  5
115
100
AcDbEntity
  8
0
  6
ByLayer
 62
    0
370
   -1
100
AcDbPolyline
 90
    6
 70
    0
 43
0
 10
7.26958
 20
1.08268
 10
7.2724
 20
1.07986
 10
7.26958
 20
1.07709
 10
7.26682
 20
1.07986
 10
7.26958
 20
1.08268
 10
7.26958
 20
1.07709
  0
LWPOLYLINE
  5
116
100
AcDbEntity
  8
0
  6
ByLayer
 62
    0
370
   -1
100
AcDbPolyline
 90
    2
 70
    0
 43
0
 10
7.75592
 20
0.7381720000000001
 10
7.75592
 20
0.620063
  0
LWPOLYLINE
  5
117
100
AcDbEntity
  8
0
  6
ByLayer
 62
    0
370
   -1
100
AcDbPolyline
 90
    2
 70
    0
 43
0
 10
10.2756
 20
0.7381720000000001
 10
10.2756
 20
0.48226
  0
LWPOLYLINE
  5
118
100
AcDbEntity
  8
0
  6
ByLayer
 62
  134
370
   -1
100
AcDbPolyline
 90
    2
 70
    0
 43
0
 10
8.360290000000001
 20
3.99968
 10
8.33399
 20
4.03717
  0
LWPOLYLINE
  5
119
100
AcDbEntity
  8
0
  6
ByLayer
 62
  134
370
   -1
100
AcDbPolyline
 90
   11
 70
    0
 43
0
 10
8.31526
 20
3.99968
 10
8.31526
 20
4.0784
 10
8.34526
 20
4.0784
 10
8.35281
 20
4.07471
 10
8.3565
 20
4.07086
 10
8.360290000000001
 20
4.06337
 10
8.360290000000001
 20
4.05219
 10
8.3565
 20
4.04471
 10
8.35281
 20
4.0409
 10
8.34526
 20
4.03717
 10
8.31526
 20
4.03717
  0
LWPOLYLINE
  5
11A
100
AcDbEntity
  8
0
  6
ByLayer
 62
  134
370
   -1
100
AcDbPolyline
 90
    2
 70
    0
 43
0
 10
8.393990000000001
 20
4.0409
 10
8.420310000000001
 20
4.0409
  0
LWPOLYLINE
  5
11B
100
AcDbEntity
  8
0
  6
ByLayer
 62
  134
370
   -1
100
AcDbPolyline
 90
    4
 70
    0
 43
0
 10
8.431469999999999
 20
3.99968
 10
8.393990000000001
 20
3.99968
 10
8.393990000000001
 20
4.0784
 10
8.431469999999999
 20
4.0784
  0
LWPOLYLINE
  5
11C
100
AcDbEntity
  8
0
  6
ByLayer
 62
  134
370
   -1
100
AcDbPolyline
 90
    3
 70
    0
 43
0
 10
8.50271
 20
3.99968
 10
8.46528
 20
3.99968
 10
8.46528
 20
4.0784
  0
LWPOLYLINE
  5
11D
100
AcDbEntity
  8
0
  6
ByLayer
 62
  134
370
   -1
100
AcDbPolyline
 90
   17
 70
    1
 43
0
 10
8.544
 20
4.0784
 10
8.55897
 20
4.0784
 10
8.566509999999999
 20
4.07471
 10
8.574
 20
4.06717
 10
8.57769
 20
4.05219
 10
8.57769
 20
4.02588
 10
8.574
 20
4.0109
 10
8.566509999999999
 20
4.00336
 10
8.55897
 20
3.99968
 10
8.544
 20
3.99968
 10
8.53651
 20
4.00336
 10
8.528969999999999
 20
4.0109
 10
8.525180000000001
 20
4.02588
 10
8.525180000000001
 20
4.05219
 10
8.528969999999999
 20
4.06717
 10
8.53651
 20
4.07471
 10
8.544
 20
4.0784
  0
LWPOLYLINE
  5
11E
100
AcDbEntity
  8
0
  6
ByLayer
 62
  134
370
   -1
100
AcDbPolyline
 90
    2
 70
    0
 43
0
 10
8.60769
 20
4.02219
 10
8.64518
 20
4.02219
  0
LWPOLYLINE
  5
11F
100
AcDbEntity
  8
0
  6
ByLayer
 62
  134
370
   -1
100
AcDbPolyline
 90
    3
 70
    0
 43
0
 10
8.600210000000001
 20
3.99968
 10
8.62651
 20
4.0784
 10
8.652670000000001
 20
3.99968
  0
LWPOLYLINE
  5
120
100
AcDbEntity
  8
0
  6
ByLayer
 62
  134
370
   -1
100
AcDbPolyline
 90
   13
 70
    1
 43
0
 10
8.678990000000001
 20
3.99968
 10
8.678990000000001
 20
4.0784
 10
8.69769
 20
4.0784
 10
8.70899
 20
4.07471
 10
8.716469999999999
 20
4.06717
 10
8.72021
 20
4.05968
 10
8.72401
 20
4.04471
 10
8.72401
 20
4.03336
 10
8.72021
 20
4.01839
 10
8.716469999999999
 20
4.0109
 10
8.70899
 20
4.00336
 10
8.69769
 20
3.99968
 10
8.678990000000001
 20
3.99968
  0
LWPOLYLINE
  5
121
100
AcDbEntity
  8
0
  6
ByLayer
 62
  134
370
   -1
100
AcDbPolyline
 90
   13
 70
    1
 43
0
 10
8.757490000000001
 20
4.58567
 10
8.757490000000001
 20
4.66439
 10
8.77632
 20
4.66439
 10
8.78749
 20
4.66069
 10
8.794969999999999
 20
4.65315
 10
8.798780000000001
 20
4.64567
 10
8.80251
 20
4.63069
 10
8.80251
 20
4.61936
 10
8.798780000000001
 20
4.60439
 10
8.794969999999999
 20
4.5969
 10
8.78749
 20
4.58936
 10
8.77632
 20
4.58567
 10
8.757490000000001
 20
4.58567
  0
LWPOLYLINE
  5
122
100
AcDbEntity
  8
0
  6
ByLayer
 62
  134
370
   -1
100
AcDbPolyline
 90
   10
 70
    0
 43
0
 10
8.836320000000001
 20
4.66439
 10
8.836320000000001
 20
4.60069
 10
8.84
 20
4.59321
 10
8.84381
 20
4.58936
 10
8.851290000000001
 20
4.58567
 10
8.866210000000001
 20
4.58567
 10
8.87369
 20
4.58936
 10
8.8775
 20
4.59321
 10
8.881180000000001
 20
4.60069
 10
8.881180000000001
 20
4.66439
  0
LWPOLYLINE
  5
123
100
AcDbEntity
  8
0
  6
ByLayer
 62
  134
370
   -1
100
AcDbPolyline
 90
    5
 70
    0
 43
0
 10
8.91868
 20
4.58567
 10
8.91868
 20
4.66439
 10
8.944990000000001
 20
4.60818
 10
8.97119
 20
4.66439
 10
8.97119
 20
4.58567
  0
LWPOLYLINE
  5
124
100
AcDbEntity
  8
0
  6
ByLayer
 62
  134
370
   -1
100
AcDbPolyline
 90
   11
 70
    0
 43
0
 10
9.00868
 20
4.58567
 10
9.00868
 20
4.66439
 10
9.038679999999999
 20
4.66439
 10
9.04617
 20
4.66069
 10
9.04997
 20
4.6569
 10
9.053710000000001
 20
4.64936
 10
9.053710000000001
 20
4.63818
 10
9.04997
 20
4.63069
 10
9.04617
 20
4.6269
 10
9.038679999999999
 20
4.62315
 10
9.00868
 20
4.62315
  0
LWPOLYLINE
  5
125
100
AcDbEntity
  8
0
  6
ByLayer
 62
  134
370
   -1
100
AcDbPolyline
 90
   13
 70
    1
 43
0
 10
8.3775
 20
5.17567
 10
8.3775
 20
5.25439
 10
8.39626
 20
5.25439
 10
8.407500000000001
 20
5.25071
 10
8.41499
 20
5.24317
 10
8.41878
 20
5.23568
 10
8.422470000000001
 20
5.22071
 10
8.422470000000001
 20
5.20936
 10
8.41878
 20
5.19439
 10
8.41499
 20
5.1869
 10
8.407500000000001
 20
5.17936
 10
8.39626
 20
5.17567
 10
8.3775
 20
5.17567
  0
LWPOLYLINE
  5
126
100
AcDbEntity
  8
0
  6
ByLayer
 62
  134
370
   -1
100
AcDbPolyline
 90
   10
 70
    0
 43
0
 10
8.45628
 20
5.25439
 10
8.45628
 20
5.19069
 10
8.46001
 20
5.18317
 10
8.46382
 20
5.17936
 10
8.471310000000001
 20
5.17567
 10
8.486219999999999
 20
5.17567
 10
8.49371
 20
5.17936
 10
8.4975
 20
5.18317
 10
8.501189999999999
 20
5.19069
 10
8.501189999999999
 20
5.25439
  0
LWPOLYLINE
  5
127
100
AcDbEntity
  8
0
  6
ByLayer
 62
  134
370
   -1
100
AcDbPolyline
 90
    5
 70
    0
 43
0
 10
8.538679999999999
 20
5.17567
 10
8.538679999999999
 20
5.25439
 10
8.565
 20
5.19819
 10
8.591189999999999
 20
5.25439
 10
8.591189999999999
 20
5.17567
  0
LWPOLYLINE
  5
128
100
AcDbEntity
  8
0
  6
ByLayer
 62
  134
370
   -1
100
AcDbPolyline
 90
   11
 70
    0
 43
0
 10
8.628690000000001
 20
5.17567
 10
8.628690000000001
 20
5.25439
 10
8.65869
 20
5.25439
 10
8.666180000000001
 20
5.25071
 10
8.669969999999999
 20
5.24685
 10
8.673719999999999
 20
5.23936
 10
8.673719999999999
 20
5.22819
 10
8.669969999999999
 20
5.22071
 10
8.666180000000001
 20
5.2169
 10
8.65869
 20
5.21317
 10
8.628690000000001
 20
5.21317
  0
LWPOLYLINE
  5
129
100
AcDbEntity
  8
0
  6
ByLayer
 62
  134
370
   -1
100
AcDbPolyline
 90
   16
 70
    0
 43
0
 10
7.08447
 20
4.56907
 10
7.07699
 20
4.56158
 10
7.05447
 20
4.5541
 10
7.0395
 20
4.5541
 10
7.01699
 20
4.56158
 10
7.00201
 20
4.57661
 10
6.99451
 20
4.59158
 10
6.98699
 20
4.62158
 10
6.98699
 20
4.6441
 10
6.99451
 20
4.6741
 10
7.00201
 20
4.68907
 10
7.01699
 20
4.7041
 10
7.0395
 20
4.71158
 10
7.05447
 20
4.71158
 10
7.07699
 20
4.7041
 10
7.08447
 20
4.69656
  0
LWPOLYLINE
  5
12A
100
AcDbEntity
  8
0
  6
ByLayer
 62
  134
370
   -1
100
AcDbPolyline
 90
   19
 70
    0
 43
0
 10
6.759
 20
5.22657
 10
6.78153
 20
5.21907
 10
6.78901
 20
5.21158
 10
6.7965
 20
5.19656
 10
6.7965
 20
5.1741
 10
6.78901
 20
5.15907
 10
6.78153
 20
5.15158
 10
6.7665
 20
5.1441
 10
6.70649
 20
5.1441
 10
6.70649
 20
5.3016
 10
6.759
 20
5.3016
 10
6.77399
 20
5.29406
 10
6.78153
 20
5.28657
 10
6.78901
 20
5.2716
 10
6.78901
 20
5.25657
 10
6.78153
 20
5.2416
 10
6.77399
 20
5.2341
 10
6.759
 20
5.22657
 10
6.70649
 20
5.22657
  0
LWPOLYLINE
  5
12B
100
AcDbEntity
  8
0
  6
ByLayer
 62
  134
370
   -1
100
AcDbPolyline
 90
    2
 70
    0
 43
0
 10
6.41222
 20
5.79107
 10
6.48719
 20
5.79107
  0
LWPOLYLINE
  5
12C
100
AcDbEntity
  8
0
  6
ByLayer
 62
  134
370
   -1
100
AcDbPolyline
 90
    3
 70
    0
 43
0
 10
6.39729
 20
5.7461
 10
6.44971
 20
5.9036
 10
6.50217
 20
5.7461
  0
LWPOLYLINE
  5
12D
100
AcDbEntity
  8
0
  6
ByLayer
 62
  134
370
   -1
100
AcDbPolyline
 90
    2
 70
    0
 43
0
 10
6.70839
 20
4.07667
 10
6.70839
 20
4.15539
  0
LWPOLYLINE
  5
12E
100
AcDbEntity
  8
0
  6
ByLayer
 62
  134
370
   -1
100
AcDbPolyline
 90
    2
 70
    0
 43
0
 10
6.75342
 20
4.07667
 10
6.71962
 20
4.12158
  0
LWPOLYLINE
  5
12F
100
AcDbEntity
  8
0
  6
ByLayer
 62
  134
370
   -1
100
AcDbPolyline
 90
    2
 70
    0
 43
0
 10
6.75342
 20
4.15539
 10
6.70839
 20
4.1104
  0
LWPOLYLINE
  5
130
100
AcDbEntity
  8
0
  6
ByLayer
 62
  134
370
   -1
100
AcDbPolyline
 90
    2
 70
    0
 43
0
 10
6.78711
 20
4.07667
 10
6.78711
 20
4.15539
  0
LWPOLYLINE
  5
131
100
AcDbEntity
  8
0
  6
ByLayer
 62
  134
370
   -1
100
AcDbPolyline
 90
    2
 70
    0
 43
0
 10
6.6334
 20
3.94667
 10
6.6071
 20
3.98415
  0
LWPOLYLINE
  5
132
100
AcDbEntity
  8
0
  6
ByLayer
 62
  134
370
   -1
100
AcDbPolyline
 90
   11
 70
    0
 43
0
 10
6.58838
 20
3.94667
 10
6.58838
 20
4.0255
 10
6.61838
 20
4.0255
 10
6.62587
 20
4.02171
 10
6.62961
 20
4.01796
 10
6.6334
 20
4.01047
 10
6.6334
 20
3.99918
 10
6.62961
 20
3.99169
 10
6.62587
 20
3.98796
 10
6.61838
 20
3.98415
 10
6.58838
 20
3.98415
  0
LWPOLYLINE
  5
133
100
AcDbEntity
  8
0
  6
ByLayer
 62
  134
370
   -1
100
AcDbPolyline
 90
    2
 70
    0
 43
0
 10
6.6671
 20
3.98796
 10
6.69342
 20
3.98796
  0
LWPOLYLINE
  5
134
100
AcDbEntity
  8
0
  6
ByLayer
 62
  134
370
   -1
100
AcDbPolyline
 90
    4
 70
    0
 43
0
 10
6.70458
 20
3.94667
 10
6.6671
 20
3.94667
 10
6.6671
 20
4.0255
 10
6.70458
 20
4.0255
  0
LWPOLYLINE
  5
135
100
AcDbEntity
  8
0
  6
ByLayer
 62
  134
370
   -1
100
AcDbPolyline
 90
   20
 70
    0
 43
0
 10
6.7346
 20
3.95047
 10
6.74588
 20
3.94667
 10
6.7646
 20
3.94667
 10
6.77208
 20
3.95047
 10
6.77588
 20
3.95415
 10
6.77957
 20
3.96169
 10
6.77957
 20
3.96918
 10
6.77588
 20
3.97667
 10
6.77208
 20
3.98047
 10
6.7646
 20
3.98415
 10
6.74962
 20
3.98796
 10
6.74208
 20
3.99169
 10
6.73839
 20
3.9955
 10
6.7346
 20
4.00299
 10
6.7346
 20
4.01047
 10
6.73839
 20
4.01796
 10
6.74208
 20
4.02171
 10
6.74962
 20
4.0255
 10
6.76839
 20
4.0255
 10
6.77957
 20
4.02171
  0
LWPOLYLINE
  5
136
100
AcDbEntity
  8
0
  6
ByLayer
 62
  134
370
   -1
100
AcDbPolyline
 90
    2
 70
    0
 43
0
 10
6.81337
 20
3.98796
 10
6.83957
 20
3.98796
  0
LWPOLYLINE
  5
137
100
AcDbEntity
  8
0
  6
ByLayer
 62
  134
370
   -1
100
AcDbPolyline
 90
    4
 70
    0
 43
0
 10
6.85092
 20
3.94667
 10
6.81337
 20
3.94667
 10
6.81337
 20
4.0255
 10
6.85092
 20
4.0255
  0
LWPOLYLINE
  5
138
100
AcDbEntity
  8
0
  6
ByLayer
 62
  134
370
   -1
100
AcDbPolyline
 90
    2
 70
    0
 43
0
 10
6.87337
 20
4.0255
 10
6.91829
 20
4.0255
  0
LWPOLYLINE
  5
139
100
AcDbEntity
  8
0
  6
ByLayer
 62
  134
370
   -1
100
AcDbPolyline
 90
    2
 70
    0
 43
0
 10
6.89589
 20
3.94667
 10
6.89589
 20
4.0255
  0
LWPOLYLINE
  5
13A
100
AcDbEntity
  8
0
  6
ByLayer
 62
  134
370
   -1
100
AcDbPolyline
 90
   20
 70
    0
 43
0
 10
7.20861
 20
5.18137
 10
7.21989
 20
5.17768
 10
7.23861
 20
5.17768
 10
7.2461
 20
5.18137
 10
7.24989
 20
5.18517
 10
7.25358
 20
5.19265
 10
7.25358
 20
5.20019
 10
7.24989
 20
5.20768
 10
7.2461
 20
5.21137
 10
7.23861
 20
5.21517
 10
7.22358
 20
5.21886
 10
7.2161
 20
5.22265
 10
7.2124
 20
5.2264
 10
7.20861
 20
5.23389
 10
7.20861
 20
5.24138
 10
7.2124
 20
5.24886
 10
7.2161
 20
5.25265
 10
7.22358
 20
5.2564
 10
7.2424
 20
5.2564
 10
7.25358
 20
5.25265
  0
LWPOLYLINE
  5
13B
100
AcDbEntity
  8
0
  6
ByLayer
 62
  134
370
   -1
100
AcDbPolyline
 90
    2
 70
    0
 43
0
 10
7.2761
 20
5.2564
 10
7.32107
 20
5.2564
  0
LWPOLYLINE
  5
13C
100
AcDbEntity
  8
0
  6
ByLayer
 62
  134
370
   -1
100
AcDbPolyline
 90
    2
 70
    0
 43
0
 10
7.29861
 20
5.17768
 10
7.29861
 20
5.2564
  0
LWPOLYLINE
  5
13D
100
AcDbEntity
  8
0
  6
ByLayer
 62
  134
370
   -1
100
AcDbPolyline
 90
   17
 70
    1
 43
0
 10
7.36242
 20
5.2564
 10
7.37739
 20
5.2564
 10
7.38488
 20
5.25265
 10
7.39242
 20
5.24517
 10
7.39611
 20
5.23019
 10
7.39611
 20
5.20389
 10
7.39242
 20
5.18886
 10
7.38488
 20
5.18137
 10
7.37739
 20
5.17768
 10
7.36242
 20
5.17768
 10
7.35488
 20
5.18137
 10
7.34739
 20
5.18886
 10
7.34358
 20
5.20389
 10
7.34358
 20
5.23019
 10
7.34739
 20
5.24517
 10
7.35488
 20
5.25265
 10
7.36242
 20
5.2564
  0
LWPOLYLINE
  5
13E
100
AcDbEntity
  8
0
  6
ByLayer
 62
  134
370
   -1
100
AcDbPolyline
 90
   11
 70
    0
 43
0
 10
7.4299
 20
5.17768
 10
7.4299
 20
5.2564
 10
7.4599
 20
5.2564
 10
7.46739
 20
5.25265
 10
7.47108
 20
5.24886
 10
7.47487
 20
5.24138
 10
7.47487
 20
5.23019
 10
7.47108
 20
5.22265
 10
7.46739
 20
5.21886
 10
7.4599
 20
5.21517
 10
7.4299
 20
5.21517
  0
LWPOLYLINE
  5
13F
100
AcDbEntity
  8
0
  6
ByLayer
 62
  134
370
   -1
100
AcDbPolyline
 90
    2
 70
    0
 43
0
 10
6.9776
 20
5.77171
 10
6.95139
 20
5.80919
  0
LWPOLYLINE
  5
140
100
AcDbEntity
  8
0
  6
ByLayer
 62
  134
370
   -1
100
AcDbPolyline
 90
   11
 70
    0
 43
0
 10
6.93261
 20
5.77171
 10
6.93261
 20
5.85037
 10
6.96262
 20
5.85037
 10
6.97011
 20
5.84668
 10
6.9739
 20
5.84289
 10
6.9776
 20
5.83539
 10
6.9776
 20
5.82417
 10
6.9739
 20
5.81668
 10
6.97011
 20
5.81288
 10
6.96262
 20
5.80919
 10
6.93261
 20
5.80919
  0
LWPOLYLINE
  5
141
100
AcDbEntity
  8
0
  6
ByLayer
 62
  134
370
   -1
100
AcDbPolyline
 90
   10
 70
    0
 43
0
 10
7.01139
 20
5.85037
 10
7.01139
 20
5.78668
 10
7.01508
 20
5.77919
 10
7.01888
 20
5.77539
 10
7.02636
 20
5.77171
 10
7.04139
 20
5.77171
 10
7.04889
 20
5.77539
 10
7.05257
 20
5.77919
 10
7.05637
 20
5.78668
 10
7.05637
 20
5.85037
  0
LWPOLYLINE
  5
142
100
AcDbEntity
  8
0
  6
ByLayer
 62
  134
370
   -1
100
AcDbPolyline
 90
    4
 70
    0
 43
0
 10
7.09392
 20
5.77171
 10
7.09392
 20
5.85037
 10
7.13889
 20
5.77171
 10
7.13889
 20
5.85037
  0
LWPOLYLINE
  5
143
100
AcDbEntity
  8
0
  6
ByLayer
 62
  134
370
   -1
100
AcDbPolyline
 90
   21
 70
    1
 43
0
 10
5.56022
 20
4.12158
 10
5.57519
 20
4.12158
 10
5.59017
 20
4.1141
 10
5.59771
 20
4.10661
 10
5.60519
 20
4.09158
 10
5.61268
 20
4.06158
 10
5.61268
 20
4.02408
 10
5.60519
 20
3.99408
 10
5.59771
 20
3.97906
 10
5.59017
 20
3.97157
 10
5.57519
 20
3.96408
 10
5.56022
 20
3.96408
 10
5.54519
 20
3.97157
 10
5.53771
 20
3.97906
 10
5.53022
 20
3.99408
 10
5.52279
 20
4.02408
 10
5.52279
 20
4.06158
 10
5.53022
 20
4.09158
 10
5.53771
 20
4.10661
 10
5.54519
 20
4.1141
 10
5.56022
 20
4.12158
  0
LWPOLYLINE
  5
144
100
AcDbEntity
  8
0
  6
ByLayer
 62
  134
370
   -1
100
AcDbPolyline
 90
   22
 70
    0
 43
0
 10
4.94569
 20
3.96408
 10
4.97569
 20
3.96408
 10
4.99072
 20
3.97157
 10
4.99821
 20
3.97906
 10
5.01318
 20
4.00157
 10
5.02067
 20
4.03157
 10
5.02067
 20
4.09158
 10
5.01318
 20
4.10661
 10
5.00569
 20
4.1141
 10
4.99072
 20
4.12158
 10
4.96072
 20
4.12158
 10
4.94569
 20
4.1141
 10
4.93821
 20
4.10661
 10
4.93078
 20
4.09158
 10
4.93078
 20
4.0541
 10
4.93821
 20
4.03907
 10
4.94569
 20
4.03157
 10
4.96072
 20
4.02408
 10
4.99072
 20
4.02408
 10
5.00569
 20
4.03157
 10
5.01318
 20
4.03907
 10
5.02067
 20
4.0541
  0
LWPOLYLINE
  5
145
100
AcDbEntity
  8
0
  6
ByLayer
 62
  134
370
   -1
100
AcDbPolyline
 90
   32
 70
    0
 43
0
 10
4.36871
 20
4.05208
 10
4.35368
 20
4.05957
 10
4.34619
 20
4.06706
 10
4.33882
 20
4.08208
 10
4.33882
 20
4.08957
 10
4.34619
 20
4.1046
 10
4.35368
 20
4.11208
 10
4.36871
 20
4.11957
 10
4.39871
 20
4.11957
 10
4.41368
 20
4.11208
 10
4.42117
 20
4.1046
 10
4.42871
 20
4.08957
 10
4.42871
 20
4.08208
 10
4.42117
 20
4.06706
 10
4.41368
 20
4.05957
 10
4.39871
 20
4.05208
 10
4.36871
 20
4.05208
 10
4.35368
 20
4.0446
 10
4.34619
 20
4.03706
 10
4.33882
 20
4.02208
 10
4.33882
 20
3.99208
 10
4.34619
 20
3.97711
 10
4.35368
 20
3.96957
 10
4.36871
 20
3.96208
 10
4.39871
 20
3.96208
 10
4.41368
 20
3.96957
 10
4.42117
 20
3.97711
 10
4.42871
 20
3.99208
 10
4.42871
 20
4.02208
 10
4.42117
 20
4.03706
 10
4.41368
 20
4.0446
 10
4.39871
 20
4.05208
  0
LWPOLYLINE
  5
146
100
AcDbEntity
  8
0
  6
ByLayer
 62
  134
370
   -1
100
AcDbPolyline
 90
    3
 70
    0
 43
0
 10
3.73731
 20
4.11957
 10
3.84218
 20
4.11957
 10
3.77468
 20
3.96208
  0
LWPOLYLINE
  5
147
100
AcDbEntity
  8
0
  6
ByLayer
 62
  134
370
   -1
100
AcDbPolyline
 90
   22
 70
    0
 43
0
 10
5.30371
 20
4.70356
 10
5.27371
 20
4.70356
 10
5.25868
 20
4.69607
 10
5.25119
 20
4.68858
 10
5.23622
 20
4.66607
 10
5.22879
 20
4.63607
 10
5.22879
 20
4.57607
 10
5.23622
 20
4.56108
 10
5.24371
 20
4.5536
 10
5.25868
 20
4.54606
 10
5.28868
 20
4.54606
 10
5.30371
 20
4.5536
 10
5.31119
 20
4.56108
 10
5.31868
 20
4.57607
 10
5.31868
 20
4.61361
 10
5.31119
 20
4.62858
 10
5.30371
 20
4.63607
 10
5.28868
 20
4.64356
 10
5.25868
 20
4.64356
 10
5.24371
 20
4.63607
 10
5.23622
 20
4.62858
 10
5.22879
 20
4.61361
  0
LWPOLYLINE
  5
148
100
AcDbEntity
  8
0
  6
ByLayer
 62
  134
370
   -1
100
AcDbPolyline
 90
   16
 70
    0
 43
0
 10
4.72119
 20
4.70958
 10
4.64621
 20
4.70958
 10
4.63878
 20
4.6346
 10
4.64621
 20
4.64208
 10
4.66118
 20
4.64958
 10
4.69868
 20
4.64958
 10
4.71371
 20
4.64208
 10
4.72119
 20
4.6346
 10
4.72868
 20
4.61957
 10
4.72868
 20
4.58208
 10
4.72119
 20
4.56706
 10
4.71371
 20
4.55957
 10
4.69868
 20
4.55208
 10
4.66118
 20
4.55208
 10
4.64621
 20
4.55957
 10
4.63878
 20
4.56706
  0
LWPOLYLINE
  5
149
100
AcDbEntity
  8
0
  6
ByLayer
 62
  134
370
   -1
100
AcDbPolyline
 90
    2
 70
    0
 43
0
 10
4.10167
 20
4.6511
 10
4.10167
 20
4.54606
  0
LWPOLYLINE
  5
14A
100
AcDbEntity
  8
0
  6
ByLayer
 62
  134
370
   -1
100
AcDbPolyline
 90
    3
 70
    0
 43
0
 10
4.06418
 20
4.7111
 10
4.02681
 20
4.59858
 10
4.12418
 20
4.59858
  0
LWPOLYLINE
  5
14B
100
AcDbEntity
  8
0
  6
ByLayer
 62
  134
370
   -1
100
AcDbPolyline
 90
   14
 70
    0
 43
0
 10
4.92931
 20
5.30757
 10
5.02669
 20
5.30757
 10
4.97418
 20
5.24756
 10
4.99669
 20
5.24756
 10
5.01172
 20
5.24007
 10
5.01921
 20
5.23258
 10
5.02669
 20
5.21756
 10
5.02669
 20
5.18007
 10
5.01921
 20
5.1651
 10
5.01172
 20
5.15761
 10
4.99669
 20
5.15007
 10
4.95171
 20
5.15007
 10
4.93679
 20
5.15761
 10
4.92931
 20
5.1651
  0
LWPOLYLINE
  5
14C
100
AcDbEntity
  8
0
  6
ByLayer
 62
  134
370
   -1
100
AcDbPolyline
 90
   11
 70
    0
 43
0
 10
4.33279
 20
5.30458
 10
4.34022
 20
5.31207
 10
4.35519
 20
5.31961
 10
4.39268
 20
5.31961
 10
4.40771
 20
5.31207
 10
4.41521
 20
5.30458
 10
4.42269
 20
5.28961
 10
4.42269
 20
5.27458
 10
4.41521
 20
5.25206
 10
4.32531
 20
5.16206
 10
4.42269
 20
5.16206
  0
LWPOLYLINE
  5
14D
100
AcDbEntity
  8
0
  6
ByLayer
 62
  134
370
   -1
100
AcDbPolyline
 90
    2
 70
    0
 43
0
 10
3.83669
 20
5.15608
 10
3.74681
 20
5.15608
  0
LWPOLYLINE
  5
14E
100
AcDbEntity
  8
0
  6
ByLayer
 62
  134
370
   -1
100
AcDbPolyline
 90
    5
 70
    0
 43
0
 10
3.79172
 20
5.15608
 10
3.79172
 20
5.31358
 10
3.77669
 20
5.29107
 10
3.76172
 20
5.2761
 10
3.74681
 20
5.26856
  0
LWPOLYLINE
  5
14F
100
AcDbEntity
  8
0
  6
ByLayer
 62
  134
370
   -1
100
AcDbPolyline
 90
    6
 70
    0
 43
0
 10
5.27371
 20
5.817
 10
5.285
 20
5.80567
 10
5.27371
 20
5.79449
 10
5.26247
 20
5.80567
 10
5.27371
 20
5.817
 10
5.27371
 20
5.79449
  0
LWPOLYLINE
  5
150
100
AcDbEntity
  8
0
  6
ByLayer
 62
  134
370
   -1
100
AcDbPolyline
 90
    2
 70
    0
 43
0
 10
4.61578
 20
5.8041
 10
4.73568
 20
5.8041
  0
LWPOLYLINE
  5
151
100
AcDbEntity
  8
0
  6
ByLayer
 62
  134
370
   -1
100
AcDbPolyline
 90
   16
 70
    0
 43
0
 10
3.96951
 20
5.77518
 10
3.96582
 20
5.77138
 10
3.95449
 20
5.76768
 10
3.947
 20
5.76768
 10
3.93582
 20
5.77138
 10
3.92828
 20
5.77886
 10
3.92449
 20
5.7864
 10
3.92079
 20
5.80138
 10
3.92079
 20
5.81267
 10
3.92449
 20
5.82769
 10
3.92828
 20
5.83518
 10
3.93582
 20
5.84267
 10
3.947
 20
5.84636
 10
3.95449
 20
5.84636
 10
3.96582
 20
5.84267
 10
3.96951
 20
5.83886
  0
LWPOLYLINE
  5
152
100
AcDbEntity
  8
0
  6
ByLayer
 62
  134
370
   -1
100
AcDbPolyline
 90
    3
 70
    0
 43
0
 10
4.04081
 20
5.76768
 10
4.00331
 20
5.76768
 10
4.00331
 20
5.84636
  0
LWPOLYLINE
  5
153
100
AcDbEntity
  8
0
  6
ByLayer
 62
  134
370
   -1
100
AcDbPolyline
 90
    2
 70
    0
 43
0
 10
4.067
 20
5.80886
 10
4.09321
 20
5.80886
  0
LWPOLYLINE
  5
154
100
AcDbEntity
  8
0
  6
ByLayer
 62
  134
370
   -1
100
AcDbPolyline
 90
    4
 70
    0
 43
0
 10
4.10449
 20
5.76768
 10
4.067
 20
5.76768
 10
4.067
 20
5.84636
 10
4.10449
 20
5.84636
  0
LWPOLYLINE
  5
155
100
AcDbEntity
  8
0
  6
ByLayer
 62
  134
370
   -1
100
AcDbPolyline
 90
    2
 70
    0
 43
0
 10
4.1345
 20
5.79021
 10
4.17199
 20
5.79021
  0
LWPOLYLINE
  5
156
100
AcDbEntity
  8
0
  6
ByLayer
 62
  134
370
   -1
100
AcDbPolyline
 90
    3
 70
    0
 43
0
 10
4.12701
 20
5.76768
 10
4.15321
 20
5.84636
 10
4.17947
 20
5.76768
  0
LWPOLYLINE
  5
157
100
AcDbEntity
  8
0
  6
ByLayer
 62
  134
370
   -1
100
AcDbPolyline
 90
    2
 70
    0
 43
0
 10
4.25071
 20
5.76768
 10
4.2245
 20
5.80518
  0
LWPOLYLINE
  5
158
100
AcDbEntity
  8
0
  6
ByLayer
 62
  134
370
   -1
100
AcDbPolyline
 90
   11
 70
    0
 43
0
 10
4.20568
 20
5.76768
 10
4.20568
 20
5.84636
 10
4.23568
 20
5.84636
 10
4.24322
 20
5.84267
 10
4.24701
 20
5.83886
 10
4.25071
 20
5.83138
 10
4.25071
 20
5.82021
 10
4.24701
 20
5.81267
 10
4.24322
 20
5.80886
 10
4.23568
 20
5.80518
 10
4.20568
 20
5.80518
  0
LWPOLYLINE
  5
159
100
AcDbEntity
  8
0
  6
ByLayer
 62
  134
370
   -1
100
AcDbPolyline
 90
    4
 70
    0
 43
0
 10
2.4636
 20
4.08669
 10
2.4636
 20
4.16536
 10
2.50857
 20
4.08669
 10
2.50857
 20
4.16536
  0
LWPOLYLINE
  5
15A
100
AcDbEntity
  8
0
  6
ByLayer
 62
  134
370
   -1
100
AcDbPolyline
 90
   17
 70
    1
 43
0
 10
2.56108
 20
4.16536
 10
2.57611
 20
4.16536
 10
2.58361
 20
4.16157
 10
2.5911
 20
4.15408
 10
2.59489
 20
4.13911
 10
2.59489
 20
4.1129
 10
2.5911
 20
4.09787
 10
2.58361
 20
4.09039
 10
2.57611
 20
4.08669
 10
2.56108
 20
4.08669
 10
2.5536
 20
4.09039
 10
2.54611
 20
4.09787
 10
2.54237
 20
4.1129
 10
2.54237
 20
4.13911
 10
2.54611
 20
4.15408
 10
2.5536
 20
4.16157
 10
2.56108
 20
4.16536
  0
LWPOLYLINE
  5
15B
100
AcDbEntity
  8
0
  6
ByLayer
 62
  134
370
   -1
100
AcDbPolyline
 90
    2
 70
    0
 43
0
 10
2.67361
 20
4.08669
 10
2.6474
 20
4.12408
  0
LWPOLYLINE
  5
15C
100
AcDbEntity
  8
0
  6
ByLayer
 62
  134
370
   -1
100
AcDbPolyline
 90
   11
 70
    0
 43
0
 10
2.62858
 20
4.08669
 10
2.62858
 20
4.16536
 10
2.65858
 20
4.16536
 10
2.66612
 20
4.16157
 10
2.66992
 20
4.15788
 10
2.67361
 20
4.15039
 10
2.67361
 20
4.13911
 10
2.66992
 20
4.13157
 10
2.66612
 20
4.12788
 10
2.65858
 20
4.12408
 10
2.62858
 20
4.12408
  0
LWPOLYLINE
  5
15D
100
AcDbEntity
  8
0
  6
ByLayer
 62
  134
370
   -1
100
AcDbPolyline
 90
    5
 70
    0
 43
0
 10
2.70742
 20
4.08669
 10
2.70742
 20
4.16536
 10
2.73361
 20
4.10915
 10
2.75988
 20
4.16536
 10
2.75988
 20
4.08669
  0
LWPOLYLINE
  5
15E
100
AcDbEntity
  8
0
  6
ByLayer
 62
  134
370
   -1
100
AcDbPolyline
 90
    2
 70
    0
 43
0
 10
2.4974
 20
3.95671
 10
2.47108
 20
3.99419
  0
LWPOLYLINE
  5
15F
100
AcDbEntity
  8
0
  6
ByLayer
 62
  134
370
   -1
100
AcDbPolyline
 90
   11
 70
    0
 43
0
 10
2.45242
 20
3.95671
 10
2.45242
 20
4.03549
 10
2.48242
 20
4.03549
 10
2.4899
 20
4.03168
 10
2.4936
 20
4.028
 10
2.4974
 20
4.02051
 10
2.4974
 20
4.00917
 10
2.4936
 20
4.00168
 10
2.4899
 20
3.99799
 10
2.48242
 20
3.99419
 10
2.45242
 20
3.99419
  0
LWPOLYLINE
  5
160
100
AcDbEntity
  8
0
  6
ByLayer
 62
  134
370
   -1
100
AcDbPolyline
 90
    2
 70
    0
 43
0
 10
2.53108
 20
3.99799
 10
2.5574
 20
3.99799
  0
LWPOLYLINE
  5
161
100
AcDbEntity
  8
0
  6
ByLayer
 62
  134
370
   -1
100
AcDbPolyline
 90
    4
 70
    0
 43
0
 10
2.56858
 20
3.95671
 10
2.53108
 20
3.95671
 10
2.53108
 20
4.03549
 10
2.56858
 20
4.03549
  0
LWPOLYLINE
  5
162
100
AcDbEntity
  8
0
  6
ByLayer
 62
  134
370
   -1
100
AcDbPolyline
 90
   20
 70
    0
 43
0
 10
2.59858
 20
3.9605
 10
2.60992
 20
3.95671
 10
2.62858
 20
3.95671
 10
2.63612
 20
3.9605
 10
2.63992
 20
3.96419
 10
2.64361
 20
3.97168
 10
2.64361
 20
3.97917
 10
2.63992
 20
3.98671
 10
2.63612
 20
3.9905
 10
2.62858
 20
3.99419
 10
2.61361
 20
3.99799
 10
2.60613
 20
4.00168
 10
2.60238
 20
4.00549
 10
2.59858
 20
4.01297
 10
2.59858
 20
4.02051
 10
2.60238
 20
4.028
 10
2.60613
 20
4.03168
 10
2.61361
 20
4.03549
 10
2.63238
 20
4.03549
 10
2.64361
 20
4.03168
  0
LWPOLYLINE
  5
163
100
AcDbEntity
  8
0
  6
ByLayer
 62
  134
370
   -1
100
AcDbPolyline
 90
    2
 70
    0
 43
0
 10
2.6774
 20
3.99799
 10
2.70361
 20
3.99799
  0
LWPOLYLINE
  5
164
100
AcDbEntity
  8
0
  6
ByLayer
 62
  134
370
   -1
100
AcDbPolyline
 90
    4
 70
    0
 43
0
 10
2.7149
 20
3.95671
 10
2.6774
 20
3.95671
 10
2.6774
 20
4.03549
 10
2.7149
 20
4.03549
  0
LWPOLYLINE
  5
165
100
AcDbEntity
  8
0
  6
ByLayer
 62
  134
370
   -1
100
AcDbPolyline
 90
    2
 70
    0
 43
0
 10
2.73742
 20
4.03549
 10
2.78228
 20
4.03549
  0
LWPOLYLINE
  5
166
100
AcDbEntity
  8
0
  6
ByLayer
 62
  134
370
   -1
100
AcDbPolyline
 90
    2
 70
    0
 43
0
 10
2.75988
 20
3.95671
 10
2.75988
 20
4.03549
  0
LWPOLYLINE
  5
167
100
AcDbEntity
  8
0
  6
ByLayer
 62
  134
370
   -1
100
AcDbPolyline
 90
    2
 70
    0
 43
0
 10
2.78381
 20
4.66868
 10
2.78381
 20
4.7474
  0
LWPOLYLINE
  5
168
100
AcDbEntity
  8
0
  6
ByLayer
 62
  134
370
   -1
100
AcDbPolyline
 90
    4
 70
    0
 43
0
 10
2.82129
 20
4.66868
 10
2.82129
 20
4.7474
 10
2.86621
 20
4.66868
 10
2.86621
 20
4.7474
  0
LWPOLYLINE
  5
169
100
AcDbEntity
  8
0
  6
ByLayer
 62
  134
370
   -1
100
AcDbPolyline
 90
   16
 70
    0
 43
0
 10
2.94868
 20
4.67617
 10
2.94499
 20
4.67236
 10
2.93371
 20
4.66868
 10
2.92622
 20
4.66868
 10
2.91499
 20
4.67236
 10
2.9075
 20
4.6799
 10
2.90369
 20
4.68739
 10
2.90001
 20
4.70236
 10
2.90001
 20
4.7136
 10
2.90369
 20
4.72857
 10
2.9075
 20
4.73606
 10
2.91499
 20
4.7436
 10
2.92622
 20
4.7474
 10
2.93371
 20
4.7474
 10
2.94499
 20
4.7436
 10
2.94868
 20
4.73986
  0
LWPOLYLINE
  5
16A
100
AcDbEntity
  8
0
  6
ByLayer
 62
  134
370
   -1
100
AcDbPolyline
 90
    2
 70
    0
 43
0
 10
3.0275
 20
4.66868
 10
3.00119
 20
4.70606
  0
LWPOLYLINE
  5
16B
100
AcDbEntity
  8
0
  6
ByLayer
 62
  134
370
   -1
100
AcDbPolyline
 90
   11
 70
    0
 43
0
 10
2.98247
 20
4.66868
 10
2.98247
 20
4.7474
 10
3.01247
 20
4.7474
 10
3.02001
 20
4.7436
 10
3.02371
 20
4.73986
 10
3.0275
 20
4.73236
 10
3.0275
 20
4.72108
 10
3.02371
 20
4.7136
 10
3.02001
 20
4.7099
 10
3.01247
 20
4.70606
 10
2.98247
 20
4.70606
  0
LWPOLYLINE
  5
16C
100
AcDbEntity
  8
0
  6
ByLayer
 62
  134
370
   -1
100
AcDbPolyline
 90
    2
 70
    0
 43
0
 10
2.76687
 20
4.56119
 10
2.80442
 20
4.56119
  0
LWPOLYLINE
  5
16D
100
AcDbEntity
  8
0
  6
ByLayer
 62
  134
370
   -1
100
AcDbPolyline
 90
    3
 70
    0
 43
0
 10
2.75939
 20
4.53868
 10
2.7856
 20
4.61746
 10
2.8119
 20
4.53868
  0
LWPOLYLINE
  5
16E
100
AcDbEntity
  8
0
  6
ByLayer
 62
  134
370
   -1
100
AcDbPolyline
 90
   13
 70
    1
 43
0
 10
2.83811
 20
4.53868
 10
2.83811
 20
4.61746
 10
2.85688
 20
4.61746
 10
2.86811
 20
4.61367
 10
2.8756
 20
4.60618
 10
2.87939
 20
4.59868
 10
2.88308
 20
4.58365
 10
2.88308
 20
4.57249
 10
2.87939
 20
4.55746
 10
2.8756
 20
4.54997
 10
2.86811
 20
4.54249
 10
2.85688
 20
4.53868
 10
2.83811
 20
4.53868
  0
LWPOLYLINE
  5
16F
100
AcDbEntity
  8
0
  6
ByLayer
 62
  134
370
   -1
100
AcDbPolyline
 90
   13
 70
    1
 43
0
 10
2.91689
 20
4.53868
 10
2.91689
 20
4.61746
 10
2.9356
 20
4.61746
 10
2.94689
 20
4.61367
 10
2.95437
 20
4.60618
 10
2.95811
 20
4.59868
 10
2.96192
 20
4.58365
 10
2.96192
 20
4.57249
 10
2.95811
 20
4.55746
 10
2.95437
 20
4.54997
 10
2.94689
 20
4.54249
 10
2.9356
 20
4.53868
 10
2.91689
 20
4.53868
  0
LWPOLYLINE
  5
170
100
AcDbEntity
  8
0
  6
ByLayer
 62
  134
370
   -1
100
AcDbPolyline
 90
    2
 70
    0
 43
0
 10
3.04058
 20
4.53868
 10
3.01438
 20
4.57617
  0
LWPOLYLINE
  5
171
100
AcDbEntity
  8
0
  6
ByLayer
 62
  134
370
   -1
100
AcDbPolyline
 90
   11
 70
    0
 43
0
 10
2.99561
 20
4.53868
 10
2.99561
 20
4.61746
 10
3.02561
 20
4.61746
 10
3.0331
 20
4.61367
 10
3.03689
 20
4.60997
 10
3.04058
 20
4.60249
 10
3.04058
 20
4.59119
 10
3.03689
 20
4.58365
 10
3.0331
 20
4.57997
 10
3.02561
 20
4.57617
 10
2.99561
 20
4.57617
  0
LWPOLYLINE
  5
172
100
AcDbEntity
  8
0
  6
ByLayer
 62
  134
370
   -1
100
AcDbPolyline
 90
   13
 70
    1
 43
0
 10
2.18078
 20
4.65468
 10
2.18078
 20
4.7334
 10
2.19949
 20
4.7334
 10
2.21078
 20
4.7296
 10
2.21832
 20
4.72206
 10
2.222
 20
4.71457
 10
2.22581
 20
4.6996
 10
2.22581
 20
4.68837
 10
2.222
 20
4.67339
 10
2.21832
 20
4.6659
 10
2.21078
 20
4.65836
 10
2.19949
 20
4.65468
 10
2.18078
 20
4.65468
  0
LWPOLYLINE
  5
173
100
AcDbEntity
  8
0
  6
ByLayer
 62
  134
370
   -1
100
AcDbPolyline
 90
    2
 70
    0
 43
0
 10
2.2595
 20
4.69586
 10
2.28569
 20
4.69586
  0
LWPOLYLINE
  5
174
100
AcDbEntity
  8
0
  6
ByLayer
 62
  134
370
   -1
100
AcDbPolyline
 90
    4
 70
    0
 43
0
 10
2.29699
 20
4.65468
 10
2.2595
 20
4.65468
 10
2.2595
 20
4.7334
 10
2.29699
 20
4.7334
  0
LWPOLYLINE
  5
175
100
AcDbEntity
  8
0
  6
ByLayer
 62
  134
370
   -1
100
AcDbPolyline
 90
   16
 70
    0
 43
0
 10
2.37571
 20
4.66217
 10
2.37201
 20
4.65836
 10
2.36068
 20
4.65468
 10
2.35319
 20
4.65468
 10
2.34201
 20
4.65836
 10
2.33447
 20
4.6659
 10
2.33068
 20
4.67339
 10
2.32699
 20
4.68837
 10
2.32699
 20
4.6996
 10
2.33068
 20
4.71457
 10
2.33447
 20
4.72206
 10
2.34201
 20
4.7296
 10
2.35319
 20
4.7334
 10
2.36068
 20
4.7334
 10
2.37201
 20
4.7296
 10
2.37571
 20
4.72586
  0
LWPOLYLINE
  5
176
100
AcDbEntity
  8
0
  6
ByLayer
 62
  134
370
   -1
100
AcDbPolyline
 90
    2
 70
    0
 43
0
 10
2.45449
 20
4.65468
 10
2.42822
 20
4.69206
  0
LWPOLYLINE
  5
177
100
AcDbEntity
  8
0
  6
ByLayer
 62
  134
370
   -1
100
AcDbPolyline
 90
   11
 70
    0
 43
0
 10
2.4095
 20
4.65468
 10
2.4095
 20
4.7334
 10
2.43951
 20
4.7334
 10
2.447
 20
4.7296
 10
2.45068
 20
4.72586
 10
2.45449
 20
4.71837
 10
2.45449
 20
4.70708
 10
2.45068
 20
4.6996
 10
2.447
 20
4.69586
 10
2.43951
 20
4.69206
 10
2.4095
 20
4.69206
  0
LWPOLYLINE
  5
178
100
AcDbEntity
  8
0
  6
ByLayer
 62
  134
370
   -1
100
AcDbPolyline
 90
    2
 70
    0
 43
0
 10
2.17887
 20
4.54719
 10
2.21642
 20
4.54719
  0
LWPOLYLINE
  5
179
100
AcDbEntity
  8
0
  6
ByLayer
 62
  134
370
   -1
100
AcDbPolyline
 90
    3
 70
    0
 43
0
 10
2.17139
 20
4.52468
 10
2.1976
 20
4.60346
 10
2.2239
 20
4.52468
  0
LWPOLYLINE
  5
17A
100
AcDbEntity
  8
0
  6
ByLayer
 62
  134
370
   -1
100
AcDbPolyline
 90
   13
 70
    1
 43
0
 10
2.25011
 20
4.52468
 10
2.25011
 20
4.60346
 10
2.26887
 20
4.60346
 10
2.28011
 20
4.59967
 10
2.2876
 20
4.59218
 10
2.29139
 20
4.58469
 10
2.29508
 20
4.56967
 10
2.29508
 20
4.55849
 10
2.29139
 20
4.54346
 10
2.2876
 20
4.53597
 10
2.28011
 20
4.52849
 10
2.26887
 20
4.52468
 10
2.25011
 20
4.52468
  0
LWPOLYLINE
  5
17B
100
AcDbEntity
  8
0
  6
ByLayer
 62
  134
370
   -1
100
AcDbPolyline
 90
   13
 70
    1
 43
0
 10
2.32889
 20
4.52468
 10
2.32889
 20
4.60346
 10
2.3476
 20
4.60346
 10
2.35889
 20
4.59967
 10
2.36637
 20
4.59218
 10
2.37011
 20
4.58469
 10
2.37392
 20
4.56967
 10
2.37392
 20
4.55849
 10
2.37011
 20
4.54346
 10
2.36637
 20
4.53597
 10
2.35889
 20
4.52849
 10
2.3476
 20
4.52468
 10
2.32889
 20
4.52468
  0
LWPOLYLINE
  5
17C
100
AcDbEntity
  8
0
  6
ByLayer
 62
  134
370
   -1
100
AcDbPolyline
 90
    2
 70
    0
 43
0
 10
2.45258
 20
4.52468
 10
2.42638
 20
4.56218
  0
LWPOLYLINE
  5
17D
100
AcDbEntity
  8
0
  6
ByLayer
 62
  134
370
   -1
100
AcDbPolyline
 90
   11
 70
    0
 43
0
 10
2.40761
 20
4.52468
 10
2.40761
 20
4.60346
 10
2.43761
 20
4.60346
 10
2.4451
 20
4.59967
 10
2.44889
 20
4.59597
 10
2.45258
 20
4.58849
 10
2.45258
 20
4.57721
 10
2.44889
 20
4.56967
 10
2.4451
 20
4.56597
 10
2.43761
 20
4.56218
 10
2.40761
 20
4.56218
  0
LWPOLYLINE
  5
17E
100
AcDbEntity
  8
0
  6
ByLayer
 62
  134
370
   -1
100
AcDbPolyline
 90
    3
 70
    0
 43
0
 10
2.52382
 20
5.26269
 10
2.48628
 20
5.26269
 10
2.48628
 20
5.34136
  0
LWPOLYLINE
  5
17F
100
AcDbEntity
  8
0
  6
ByLayer
 62
  134
370
   -1
100
AcDbPolyline
 90
   17
 70
    1
 43
0
 10
2.565
 20
5.34136
 10
2.58003
 20
5.34136
 10
2.58751
 20
5.33757
 10
2.595
 20
5.33008
 10
2.59868
 20
5.31511
 10
2.59868
 20
5.2889
 10
2.595
 20
5.27387
 10
2.58751
 20
5.26639
 10
2.58003
 20
5.26269
 10
2.565
 20
5.26269
 10
2.55751
 20
5.26639
 10
2.55003
 20
5.27387
 10
2.54628
 20
5.2889
 10
2.54628
 20
5.31511
 10
2.55003
 20
5.33008
 10
2.55751
 20
5.33757
 10
2.565
 20
5.34136
  0
LWPOLYLINE
  5
180
100
AcDbEntity
  8
0
  6
ByLayer
 62
  134
370
   -1
100
AcDbPolyline
 90
    2
 70
    0
 43
0
 10
2.62869
 20
5.28515
 10
2.66618
 20
5.28515
  0
LWPOLYLINE
  5
181
100
AcDbEntity
  8
0
  6
ByLayer
 62
  134
370
   -1
100
AcDbPolyline
 90
    3
 70
    0
 43
0
 10
2.62121
 20
5.26269
 10
2.64751
 20
5.34136
 10
2.67372
 20
5.26269
  0
LWPOLYLINE
  5
182
100
AcDbEntity
  8
0
  6
ByLayer
 62
  134
370
   -1
100
AcDbPolyline
 90
   13
 70
    1
 43
0
 10
2.69997
 20
5.26269
 10
2.69997
 20
5.34136
 10
2.71869
 20
5.34136
 10
2.72999
 20
5.33757
 10
2.73753
 20
5.33008
 10
2.74121
 20
5.3226
 10
2.74501
 20
5.30757
 10
2.74501
 20
5.29639
 10
2.74121
 20
5.28136
 10
2.73753
 20
5.27387
 10
2.72999
 20
5.26639
 10
2.71869
 20
5.26269
 10
2.69997
 20
5.26269
  0
LWPOLYLINE
  5
183
100
AcDbEntity
  8
0
  6
ByLayer
 62
  134
370
   -1
100
AcDbPolyline
 90
   20
 70
    0
 43
0
 10
2.44499
 20
5.1365
 10
2.45628
 20
5.13271
 10
2.47499
 20
5.13271
 10
2.48247
 20
5.1365
 10
2.48628
 20
5.14019
 10
2.49001
 20
5.14768
 10
2.49001
 20
5.15517
 10
2.48628
 20
5.16271
 10
2.48247
 20
5.1665
 10
2.47499
 20
5.17019
 10
2.46001
 20
5.17399
 10
2.45247
 20
5.17768
 10
2.44879
 20
5.18147
 10
2.44499
 20
5.18896
 10
2.44499
 20
5.1965
 10
2.44879
 20
5.204
 10
2.45247
 20
5.20768
 10
2.46001
 20
5.21149
 10
2.47879
 20
5.21149
 10
2.49001
 20
5.20768
  0
LWPOLYLINE
  5
184
100
AcDbEntity
  8
0
  6
ByLayer
 62
  134
370
   -1
100
AcDbPolyline
 90
    2
 70
    0
 43
0
 10
2.51247
 20
5.21149
 10
2.55751
 20
5.21149
  0
LWPOLYLINE
  5
185
100
AcDbEntity
  8
0
  6
ByLayer
 62
  134
370
   -1
100
AcDbPolyline
 90
    2
 70
    0
 43
0
 10
2.535
 20
5.13271
 10
2.535
 20
5.21149
  0
LWPOLYLINE
  5
186
100
AcDbEntity
  8
0
  6
ByLayer
 62
  134
370
   -1
100
AcDbPolyline
 90
   17
 70
    1
 43
0
 10
2.59868
 20
5.21149
 10
2.61372
 20
5.21149
 10
2.62121
 20
5.20768
 10
2.62869
 20
5.20019
 10
2.63249
 20
5.18517
 10
2.63249
 20
5.15896
 10
2.62869
 20
5.14399
 10
2.62121
 20
5.1365
 10
2.61372
 20
5.13271
 10
2.59868
 20
5.13271
 10
2.59119
 20
5.1365
 10
2.58371
 20
5.14399
 10
2.58003
 20
5.15896
 10
2.58003
 20
5.18517
 10
2.58371
 20
5.20019
 10
2.59119
 20
5.20768
 10
2.59868
 20
5.21149
  0
LWPOLYLINE
  5
187
100
AcDbEntity
  8
0
  6
ByLayer
 62
  134
370
   -1
100
AcDbPolyline
 90
    2
 70
    0
 43
0
 10
2.71121
 20
5.13271
 10
2.685
 20
5.17019
  0
LWPOLYLINE
  5
188
100
AcDbEntity
  8
0
  6
ByLayer
 62
  134
370
   -1
100
AcDbPolyline
 90
   11
 70
    0
 43
0
 10
2.66618
 20
5.13271
 10
2.66618
 20
5.21149
 10
2.69618
 20
5.21149
 10
2.70372
 20
5.20768
 10
2.70751
 20
5.204
 10
2.71121
 20
5.1965
 10
2.71121
 20
5.18517
 10
2.70751
 20
5.17768
 10
2.70372
 20
5.17399
 10
2.69618
 20
5.17019
 10
2.66618
 20
5.17019
  0
LWPOLYLINE
  5
189
100
AcDbEntity
  8
0
  6
ByLayer
 62
  134
370
   -1
100
AcDbPolyline
 90
    2
 70
    0
 43
0
 10
2.74501
 20
5.17399
 10
2.77121
 20
5.17399
  0
LWPOLYLINE
  5
18A
100
AcDbEntity
  8
0
  6
ByLayer
 62
  134
370
   -1
100
AcDbPolyline
 90
    4
 70
    0
 43
0
 10
2.7825
 20
5.13271
 10
2.74501
 20
5.13271
 10
2.74501
 20
5.21149
 10
2.7825
 20
5.21149
  0
LWPOLYLINE
  5
18B
100
AcDbEntity
  8
0
  6
ByLayer
 62
  134
370
   -1
100
AcDbPolyline
 90
    3
 70
    0
 43
0
 10
2.81982
 20
5.83469
 10
2.78228
 20
5.83469
 10
2.78228
 20
5.91336
  0
LWPOLYLINE
  5
18C
100
AcDbEntity
  8
0
  6
ByLayer
 62
  134
370
   -1
100
AcDbPolyline
 90
   17
 70
    1
 43
0
 10
2.861
 20
5.91336
 10
2.87597
 20
5.91336
 10
2.88351
 20
5.90956
 10
2.891
 20
5.90207
 10
2.89469
 20
5.8871
 10
2.89469
 20
5.86089
 10
2.891
 20
5.84586
 10
2.88351
 20
5.83838
 10
2.87597
 20
5.83469
 10
2.861
 20
5.83469
 10
2.85351
 20
5.83838
 10
2.84597
 20
5.84586
 10
2.84229
 20
5.86089
 10
2.84229
 20
5.8871
 10
2.84597
 20
5.90207
 10
2.85351
 20
5.90956
 10
2.861
 20
5.91336
  0
LWPOLYLINE
  5
18D
100
AcDbEntity
  8
0
  6
ByLayer
 62
  134
370
   -1
100
AcDbPolyline
 90
    2
 70
    0
 43
0
 10
2.92469
 20
5.85721
 10
2.96218
 20
5.85721
  0
LWPOLYLINE
  5
18E
100
AcDbEntity
  8
0
  6
ByLayer
 62
  134
370
   -1
100
AcDbPolyline
 90
    3
 70
    0
 43
0
 10
2.91721
 20
5.83469
 10
2.94353
 20
5.91336
 10
2.96967
 20
5.83469
  0
LWPOLYLINE
  5
18F
100
AcDbEntity
  8
0
  6
ByLayer
 62
  134
370
   -1
100
AcDbPolyline
 90
   13
 70
    1
 43
0
 10
2.99599
 20
5.83469
 10
2.99599
 20
5.91336
 10
3.01471
 20
5.91336
 10
3.02599
 20
5.90956
 10
3.03347
 20
5.90207
 10
3.03722
 20
5.89458
 10
3.04101
 20
5.87956
 10
3.04101
 20
5.86838
 10
3.03722
 20
5.85335
 10
3.03347
 20
5.84586
 10
3.02599
 20
5.83838
 10
3.01471
 20
5.83469
 10
2.99599
 20
5.83469
  0
LWPOLYLINE
  5
190
100
AcDbEntity
  8
0
  6
ByLayer
 62
  134
370
   -1
100
AcDbPolyline
 90
    2
 70
    0
 43
0
 10
2.77289
 20
5.72715
 10
2.81039
 20
5.72715
  0
LWPOLYLINE
  5
191
100
AcDbEntity
  8
0
  6
ByLayer
 62
  134
370
   -1
100
AcDbPolyline
 90
    3
 70
    0
 43
0
 10
2.7654
 20
5.70469
 10
2.79161
 20
5.78347
 10
2.81787
 20
5.70469
  0
LWPOLYLINE
  5
192
100
AcDbEntity
  8
0
  6
ByLayer
 62
  134
370
   -1
100
AcDbPolyline
 90
   13
 70
    1
 43
0
 10
2.84407
 20
5.70469
 10
2.84407
 20
5.78347
 10
2.8629
 20
5.78347
 10
2.87408
 20
5.77968
 10
2.88163
 20
5.77219
 10
2.88542
 20
5.76471
 10
2.88911
 20
5.74968
 10
2.88911
 20
5.7385
 10
2.88542
 20
5.72347
 10
2.88163
 20
5.71599
 10
2.87408
 20
5.7085
 10
2.8629
 20
5.70469
 10
2.84407
 20
5.70469
  0
LWPOLYLINE
  5
193
100
AcDbEntity
  8
0
  6
ByLayer
 62
  134
370
   -1
100
AcDbPolyline
 90
   13
 70
    1
 43
0
 10
2.9229
 20
5.70469
 10
2.9229
 20
5.78347
 10
2.94162
 20
5.78347
 10
2.9529
 20
5.77968
 10
2.96039
 20
5.77219
 10
2.96408
 20
5.76471
 10
2.96789
 20
5.74968
 10
2.96789
 20
5.7385
 10
2.96408
 20
5.72347
 10
2.96039
 20
5.71599
 10
2.9529
 20
5.7085
 10
2.94162
 20
5.70469
 10
2.9229
 20
5.70469
  0
LWPOLYLINE
  5
194
100
AcDbEntity
  8
0
  6
ByLayer
 62
  134
370
   -1
100
AcDbPolyline
 90
    2
 70
    0
 43
0
 10
3.0466
 20
5.70469
 10
3.0204
 20
5.74219
  0
LWPOLYLINE
  5
195
100
AcDbEntity
  8
0
  6
ByLayer
 62
  134
370
   -1
100
AcDbPolyline
 90
   11
 70
    0
 43
0
 10
3.00157
 20
5.70469
 10
3.00157
 20
5.78347
 10
3.03157
 20
5.78347
 10
3.03911
 20
5.77968
 10
3.04292
 20
5.77599
 10
3.0466
 20
5.7685
 10
3.0466
 20
5.75717
 10
3.04292
 20
5.74968
 10
3.03911
 20
5.74599
 10
3.03157
 20
5.74219
 10
3.00157
 20
5.74219
  0
LWPOLYLINE
  5
196
100
AcDbEntity
  8
0
  6
ByLayer
 62
  134
370
   -1
100
AcDbPolyline
 90
    3
 70
    0
 43
0
 10
2.22982
 20
5.83469
 10
2.19228
 20
5.83469
 10
2.19228
 20
5.91336
  0
LWPOLYLINE
  5
197
100
AcDbEntity
  8
0
  6
ByLayer
 62
  134
370
   -1
100
AcDbPolyline
 90
   17
 70
    1
 43
0
 10
2.271
 20
5.91336
 10
2.28603
 20
5.91336
 10
2.29351
 20
5.90956
 10
2.301
 20
5.90207
 10
2.30469
 20
5.8871
 10
2.30469
 20
5.86089
 10
2.301
 20
5.84586
 10
2.29351
 20
5.83838
 10
2.28603
 20
5.83469
 10
2.271
 20
5.83469
 10
2.26351
 20
5.83838
 10
2.25603
 20
5.84586
 10
2.25228
 20
5.86089
 10
2.25228
 20
5.8871
 10
2.25603
 20
5.90207
 10
2.26351
 20
5.90956
 10
2.271
 20
5.91336
  0
LWPOLYLINE
  5
198
100
AcDbEntity
  8
0
  6
ByLayer
 62
  134
370
   -1
100
AcDbPolyline
 90
    2
 70
    0
 43
0
 10
2.33469
 20
5.85721
 10
2.37218
 20
5.85721
  0
LWPOLYLINE
  5
199
100
AcDbEntity
  8
0
  6
ByLayer
 62
  134
370
   -1
100
AcDbPolyline
 90
    3
 70
    0
 43
0
 10
2.32721
 20
5.83469
 10
2.35351
 20
5.91336
 10
2.37972
 20
5.83469
  0
LWPOLYLINE
  5
19A
100
AcDbEntity
  8
0
  6
ByLayer
 62
  134
370
   -1
100
AcDbPolyline
 90
   13
 70
    1
 43
0
 10
2.40597
 20
5.83469
 10
2.40597
 20
5.91336
 10
2.42469
 20
5.91336
 10
2.43599
 20
5.90956
 10
2.44353
 20
5.90207
 10
2.44721
 20
5.89458
 10
2.45101
 20
5.87956
 10
2.45101
 20
5.86838
 10
2.44721
 20
5.85335
 10
2.44353
 20
5.84586
 10
2.43599
 20
5.83838
 10
2.42469
 20
5.83469
 10
2.40597
 20
5.83469
  0
LWPOLYLINE
  5
19B
100
AcDbEntity
  8
0
  6
ByLayer
 62
  134
370
   -1
100
AcDbPolyline
 90
    2
 70
    0
 43
0
 10
2.24658
 20
5.70469
 10
2.24658
 20
5.78347
  0
LWPOLYLINE
  5
19C
100
AcDbEntity
  8
0
  6
ByLayer
 62
  134
370
   -1
100
AcDbPolyline
 90
    2
 70
    0
 43
0
 10
2.28039
 20
5.72715
 10
2.31787
 20
5.72715
  0
LWPOLYLINE
  5
19D
100
AcDbEntity
  8
0
  6
ByLayer
 62
  134
370
   -1
100
AcDbPolyline
 90
    3
 70
    0
 43
0
 10
2.27289
 20
5.70469
 10
2.2991
 20
5.78347
 10
2.32542
 20
5.70469
  0
LWPOLYLINE
  5
19E
100
AcDbEntity
  8
0
  6
ByLayer
 62
  134
370
   -1
100
AcDbPolyline
 90
    2
 70
    0
 43
0
 10
2.3966
 20
5.70469
 10
2.37039
 20
5.74219
  0
LWPOLYLINE
  5
19F
100
AcDbEntity
  8
0
  6
ByLayer
 62
  134
370
   -1
100
AcDbPolyline
 90
   11
 70
    0
 43
0
 10
2.35161
 20
5.70469
 10
2.35161
 20
5.78347
 10
2.38163
 20
5.78347
 10
2.38911
 20
5.77968
 10
2.3929
 20
5.77599
 10
2.3966
 20
5.7685
 10
2.3966
 20
5.75717
 10
2.3929
 20
5.74968
 10
2.38911
 20
5.74599
 10
2.38163
 20
5.74219
 10
2.35161
 20
5.74219
  0
LWPOLYLINE
  5
1A0
100
AcDbEntity
  8
0
  6
ByLayer
 62
  134
370
   -1
100
AcDbPolyline
 90
   25
 70
    1
 43
0
 10
8.765739999999999
 20
4.0376
 10
8.765739999999999
 20
4.01367
 10
8.746359999999999
 20
3.94189
 10
8.693619999999999
 20
3.86367
 10
8.615460000000001
 20
3.81093
 10
8.543620000000001
 20
3.79156
 10
8.519690000000001
 20
3.79156
 10
8.495710000000001
 20
3.79156
 10
8.42389
 20
3.81093
 10
8.345649999999999
 20
3.86367
 10
8.292920000000001
 20
3.94189
 10
8.2736
 20
4.01367
 10
8.2736
 20
4.0376
 10
8.2736
 20
4.06158
 10
8.292920000000001
 20
4.1334
 10
8.345649999999999
 20
4.21164
 10
8.42389
 20
4.26438
 10
8.495710000000001
 20
4.28369
 10
8.519690000000001
 20
4.28369
 10
8.543620000000001
 20
4.28369
 10
8.615460000000001
 20
4.26438
 10
8.693619999999999
 20
4.21164
 10
8.746359999999999
 20
4.1334
 10
8.765739999999999
 20
4.06158
 10
8.765739999999999
 20
4.0376
  0
LWPOLYLINE
  5
1A1
100
AcDbEntity
  8
0
  6
ByLayer
 62
  134
370
   -1
100
AcDbPolyline
 90
   25
 70
    1
 43
0
 10
5.22244
 20
5.21869
 10
5.22244
 20
5.19476
 10
5.20307
 20
5.12299
 10
5.15033
 20
5.04476
 10
5.0721
 20
4.99203
 10
5.00032
 20
4.97265
 10
4.9764
 20
4.97265
 10
4.95242
 20
4.97265
 10
4.88058
 20
4.99203
 10
4.80236
 20
5.04476
 10
4.74962
 20
5.12299
 10
4.73031
 20
5.19476
 10
4.73031
 20
5.21869
 10
4.73031
 20
5.24268
 10
4.74962
 20
5.31451
 10
4.80236
 20
5.39274
 10
4.88058
 20
5.44547
 10
4.95242
 20
5.46479
 10
4.9764
 20
5.46479
 10
5.00032
 20
5.46479
 10
5.0721
 20
5.44547
 10
5.15033
 20
5.39274
 10
5.20307
 20
5.31451
 10
5.22244
 20
5.24268
 10
5.22244
 20
5.21869
  0
LWPOLYLINE
  5
1A2
100
AcDbEntity
  8
0
  6
ByLayer
 62
  134
370
   -1
100
AcDbPolyline
 90
   25
 70
    1
 43
0
 10
4.63189
 20
5.21869
 10
4.63189
 20
5.19476
 10
4.61253
 20
5.12299
 10
4.55979
 20
5.04476
 10
4.48156
 20
4.99203
 10
4.40978
 20
4.97265
 10
4.38585
 20
4.97265
 10
4.36187
 20
4.97265
 10
4.29004
 20
4.99203
 10
4.21181
 20
5.04476
 10
4.15907
 20
5.12299
 10
4.13976
 20
5.19476
 10
4.13976
 20
5.21869
 10
4.13976
 20
5.24268
 10
4.15907
 20
5.31451
 10
4.21181
 20
5.39274
 10
4.29004
 20
5.44547
 10
4.36187
 20
5.46479
 10
4.38585
 20
5.46479
 10
4.40978
 20
5.46479
 10
4.48156
 20
5.44547
 10
4.55979
 20
5.39274
 10
4.61253
 20
5.31451
 10
4.63189
 20
5.24268
 10
4.63189
 20
5.21869
  0
LWPOLYLINE
  5
1A3
100
AcDbEntity
  8
0
  6
ByLayer
 62
  134
370
   -1
100
AcDbPolyline
 90
   25
 70
    1
 43
0
 10
4.04135
 20
5.21869
 10
4.04135
 20
5.19476
 10
4.02197
 20
5.12299
 10
3.96924
 20
5.04476
 10
3.891
 20
4.99203
 10
3.81922
 20
4.97265
 10
3.79531
 20
4.97265
 10
3.77132
 20
4.97265
 10
3.69949
 20
4.99203
 10
3.62125
 20
5.04476
 10
3.56853
 20
5.12299
 10
3.54921
 20
5.19476
 10
3.54921
 20
5.21869
 10
3.54921
 20
5.24268
 10
3.56853
 20
5.31451
 10
3.62125
 20
5.39274
 10
3.69949
 20
5.44547
 10
3.77132
 20
5.46479
 10
3.79531
 20
5.46479
 10
3.81922
 20
5.46479
 10
3.891
 20
5.44547
 10
3.96924
 20
5.39274
 10
4.02197
 20
5.31451
 10
4.04135
 20
5.24268
 10
4.04135
 20
5.21869
  0
LWPOLYLINE
  5
1A4
100
AcDbEntity
  8
0
  6
ByLayer
 62
  134
370
   -1
100
AcDbPolyline
 90
   25
 70
    1
 43
0
 10
5.51768
 20
5.80931
 10
5.51768
 20
5.78538
 10
5.49832
 20
5.71354
 10
5.44558
 20
5.63531
 10
5.3674
 20
5.58257
 10
5.29557
 20
5.56321
 10
5.27165
 20
5.56321
 10
5.24767
 20
5.56321
 10
5.17583
 20
5.58257
 10
5.09765
 20
5.63531
 10
5.04492
 20
5.71354
 10
5.02561
 20
5.78538
 10
5.02561
 20
5.80931
 10
5.02561
 20
5.83328
 10
5.04492
 20
5.90506
 10
5.09765
 20
5.98329
 10
5.17583
 20
6.03603
 10
5.24767
 20
6.05533
 10
5.27165
 20
6.05533
 10
5.29557
 20
6.05533
 10
5.3674
 20
6.03603
 10
5.44558
 20
5.98329
 10
5.49832
 20
5.90506
 10
5.51768
 20
5.83328
 10
5.51768
 20
5.80931
  0
LWPOLYLINE
  5
1A5
100
AcDbEntity
  8
0
  6
ByLayer
 62
  134
370
   -1
100
AcDbPolyline
 90
   25
 70
    1
 43
0
 10
4.04135
 20
4.0376
 10
4.04135
 20
4.01367
 10
4.02197
 20
3.94189
 10
3.96924
 20
3.86367
 10
3.891
 20
3.81093
 10
3.81922
 20
3.79156
 10
3.79531
 20
3.79156
 10
3.77132
 20
3.79156
 10
3.69949
 20
3.81093
 10
3.62125
 20
3.86367
 10
3.56853
 20
3.94189
 10
3.54921
 20
4.01367
 10
3.54921
 20
4.0376
 10
3.54921
 20
4.06158
 10
3.56853
 20
4.1334
 10
3.62125
 20
4.21164
 10
3.69949
 20
4.26438
 10
3.77132
 20
4.28369
 10
3.79531
 20
4.28369
 10
3.81922
 20
4.28369
 10
3.891
 20
4.26438
 10
3.96924
 20
4.21164
 10
4.02197
 20
4.1334
 10
4.04135
 20
4.06158
 10
4.04135
 20
4.0376
  0
LWPOLYLINE
  5
1A6
100
AcDbEntity
  8
0
  6
ByLayer
 62
  134
370
   -1
100
AcDbPolyline
 90
   25
 70
    1
 43
0
 10
6.99408
 20
4.0376
 10
6.99408
 20
4.01367
 10
6.97472
 20
3.94189
 10
6.92199
 20
3.86367
 10
6.84375
 20
3.81093
 10
6.77197
 20
3.79156
 10
6.74804
 20
3.79156
 10
6.72407
 20
3.79156
 10
6.65224
 20
3.81093
 10
6.574
 20
3.86367
 10
6.52126
 20
3.94189
 10
6.50196
 20
4.01367
 10
6.50196
 20
4.0376
 10
6.50196
 20
4.06158
 10
6.52126
 20
4.1334
 10
6.574
 20
4.21164
 10
6.65224
 20
4.26438
 10
6.72407
 20
4.28369
 10
6.74804
 20
4.28369
 10
6.77197
 20
4.28369
 10
6.84375
 20
4.26438
 10
6.92199
 20
4.21164
 10
6.97472
 20
4.1334
 10
6.99408
 20
4.06158
 10
6.99408
 20
4.0376
  0
LWPOLYLINE
  5
1A7
100
AcDbEntity
  8
0
  6
ByLayer
 62
  134
370
   -1
100
AcDbPolyline
 90
   25
 70
    1
 43
0
 10
5.51768
 20
4.62815
 10
5.51768
 20
4.60422
 10
5.49832
 20
4.53244
 10
5.44558
 20
4.45421
 10
5.3674
 20
4.40147
 10
5.29557
 20
4.38211
 10
5.27165
 20
4.38211
 10
5.24767
 20
4.38211
 10
5.17583
 20
4.40147
 10
5.09765
 20
4.45421
 10
5.04492
 20
4.53244
 10
5.02561
 20
4.60422
 10
5.02561
 20
4.62815
 10
5.02561
 20
4.65213
 10
5.04492
 20
4.72396
 10
5.09765
 20
4.80219
 10
5.17583
 20
4.85493
 10
5.24767
 20
4.87424
 10
5.27165
 20
4.87424
 10
5.29557
 20
4.87424
 10
5.3674
 20
4.85493
 10
5.44558
 20
4.80219
 10
5.49832
 20
4.72396
 10
5.51768
 20
4.65213
 10
5.51768
 20
4.62815
  0
LWPOLYLINE
  5
1A8
100
AcDbEntity
  8
0
  6
ByLayer
 62
  134
370
   -1
100
AcDbPolyline
 90
   25
 70
    1
 43
0
 10
9.15944
 20
4.62815
 10
9.15944
 20
4.60422
 10
9.140079999999999
 20
4.53244
 10
9.087350000000001
 20
4.45421
 10
9.00911
 20
4.40147
 10
8.937279999999999
 20
4.38211
 10
8.913360000000001
 20
4.38211
 10
8.88937
 20
4.38211
 10
8.817600000000001
 20
4.40147
 10
8.73936
 20
4.45421
 10
8.686640000000001
 20
4.53244
 10
8.66732
 20
4.60422
 10
8.66732
 20
4.62815
 10
8.66732
 20
4.65213
 10
8.686640000000001
 20
4.72396
 10
8.73936
 20
4.80219
 10
8.817600000000001
 20
4.85493
 10
8.88937
 20
4.87424
 10
8.913360000000001
 20
4.87424
 10
8.937279999999999
 20
4.87424
 10
9.00911
 20
4.85493
 10
9.087350000000001
 20
4.80219
 10
9.140079999999999
 20
4.72396
 10
9.15944
 20
4.65213
 10
9.15944
 20
4.62815
  0
LWPOLYLINE
  5
1A9
100
AcDbEntity
  8
0
  6
ByLayer
 62
  134
370
   -1
100
AcDbPolyline
 90
   25
 70
    1
 43
0
 10
4.92714
 20
4.62815
 10
4.92714
 20
4.60422
 10
4.90776
 20
4.53244
 10
4.85504
 20
4.45421
 10
4.77686
 20
4.40147
 10
4.70503
 20
4.38211
 10
4.6811
 20
4.38211
 10
4.65712
 20
4.38211
 10
4.58529
 20
4.40147
 10
4.50711
 20
4.45421
 10
4.45437
 20
4.53244
 10
4.43506
 20
4.60422
 10
4.43506
 20
4.62815
 10
4.43506
 20
4.65213
 10
4.45437
 20
4.72396
 10
4.50711
 20
4.80219
 10
4.58529
 20
4.85493
 10
4.65712
 20
4.87424
 10
4.6811
 20
4.87424
 10
4.70503
 20
4.87424
 10
4.77686
 20
4.85493
 10
4.85504
 20
4.80219
 10
4.90776
 20
4.72396
 10
4.92714
 20
4.65213
 10
4.92714
 20
4.62815
  0
LWPOLYLINE
  5
1AA
100
AcDbEntity
  8
0
  6
ByLayer
 62
  134
370
   -1
100
AcDbPolyline
 90
   25
 70
    1
 43
0
 10
8.765739999999999
 20
5.21869
 10
8.765739999999999
 20
5.19476
 10
8.746359999999999
 20
5.12299
 10
8.693619999999999
 20
5.04476
 10
8.615460000000001
 20
4.99203
 10
8.543620000000001
 20
4.97265
 10
8.519690000000001
 20
4.97265
 10
8.495710000000001
 20
4.97265
 10
8.42389
 20
4.99203
 10
8.345649999999999
 20
5.04476
 10
8.292920000000001
 20
5.12299
 10
8.2736
 20
5.19476
 10
8.2736
 20
5.21869
 10
8.2736
 20
5.24268
 10
8.292920000000001
 20
5.31451
 10
8.345649999999999
 20
5.39274
 10
8.42389
 20
5.44547
 10
8.495710000000001
 20
5.46479
 10
8.519690000000001
 20
5.46479
 10
8.543620000000001
 20
5.46479
 10
8.615460000000001
 20
5.44547
 10
8.693619999999999
 20
5.39274
 10
8.746359999999999
 20
5.31451
 10
8.765739999999999
 20
5.24268
 10
8.765739999999999
 20
5.21869
  0
LWPOLYLINE
  5
1AB
100
AcDbEntity
  8
0
  6
ByLayer
 62
  134
370
   -1
100
AcDbPolyline
 90
   25
 70
    1
 43
0
 10
4.33658
 20
4.62815
 10
4.33658
 20
4.60422
 10
4.31722
 20
4.53244
 10
4.26449
 20
4.45421
 10
4.18631
 20
4.40147
 10
4.11447
 20
4.38211
 10
4.09056
 20
4.38211
 10
4.06657
 20
4.38211
 10
3.99474
 20
4.40147
 10
3.91656
 20
4.45421
 10
3.86382
 20
4.53244
 10
3.84451
 20
4.60422
 10
3.84451
 20
4.62815
 10
3.84451
 20
4.65213
 10
3.86382
 20
4.72396
 10
3.91656
 20
4.80219
 10
3.99474
 20
4.85493
 10
4.06657
 20
4.87424
 10
4.09056
 20
4.87424
 10
4.11447
 20
4.87424
 10
4.18631
 20
4.85493
 10
4.26449
 20
4.80219
 10
4.31722
 20
4.72396
 10
4.33658
 20
4.65213
 10
4.33658
 20
4.62815
  0
LWPOLYLINE
  5
1AC
100
AcDbEntity
  8
0
  6
ByLayer
 62
  134
370
   -1
100
AcDbPolyline
 90
   25
 70
    1
 43
0
 10
3.15549
 20
5.80931
 10
3.15549
 20
5.78538
 10
3.13612
 20
5.71354
 10
3.08339
 20
5.63531
 10
3.00521
 20
5.58257
 10
2.93338
 20
5.56321
 10
2.90944
 20
5.56321
 10
2.88547
 20
5.56321
 10
2.81364
 20
5.58257
 10
2.73546
 20
5.63531
 10
2.68272
 20
5.71354
 10
2.66342
 20
5.78538
 10
2.66342
 20
5.80931
 10
2.66342
 20
5.83328
 10
2.68272
 20
5.90506
 10
2.73546
 20
5.98329
 10
2.81364
 20
6.03603
 10
2.88547
 20
6.05533
 10
2.90944
 20
6.05533
 10
2.93338
 20
6.05533
 10
3.00521
 20
6.03603
 10
3.08339
 20
5.98329
 10
3.13612
 20
5.90506
 10
3.15549
 20
5.83328
 10
3.15549
 20
5.80931
  0
LWPOLYLINE
  5
1AD
100
AcDbEntity
  8
0
  6
ByLayer
 62
  134
370
   -1
100
AcDbPolyline
 90
   25
 70
    1
 43
0
 10
4.63189
 20
4.0376
 10
4.63189
 20
4.01367
 10
4.61253
 20
3.94189
 10
4.55979
 20
3.86367
 10
4.48156
 20
3.81093
 10
4.40978
 20
3.79156
 10
4.38585
 20
3.79156
 10
4.36187
 20
3.79156
 10
4.29004
 20
3.81093
 10
4.21181
 20
3.86367
 10
4.15907
 20
3.94189
 10
4.13976
 20
4.01367
 10
4.13976
 20
4.0376
 10
4.13976
 20
4.06158
 10
4.15907
 20
4.1334
 10
4.21181
 20
4.21164
 10
4.29004
 20
4.26438
 10
4.36187
 20
4.28369
 10
4.38585
 20
4.28369
 10
4.40978
 20
4.28369
 10
4.48156
 20
4.26438
 10
4.55979
 20
4.21164
 10
4.61253
 20
4.1334
 10
4.63189
 20
4.06158
 10
4.63189
 20
4.0376
  0
LWPOLYLINE
  5
1AE
100
AcDbEntity
  8
0
  6
ByLayer
 62
  134
370
   -1
100
AcDbPolyline
 90
   25
 70
    1
 43
0
 10
2.86025
 20
5.21869
 10
2.86025
 20
5.19476
 10
2.84088
 20
5.12299
 10
2.78814
 20
5.04476
 10
2.7099
 20
4.99203
 10
2.63807
 20
4.97265
 10
2.61415
 20
4.97265
 10
2.59017
 20
4.97265
 10
2.51833
 20
4.99203
 10
2.44015
 20
5.04476
 10
2.38743
 20
5.12299
 10
2.36811
 20
5.19476
 10
2.36811
 20
5.21869
 10
2.36811
 20
5.24268
 10
2.38743
 20
5.31451
 10
2.44015
 20
5.39274
 10
2.51833
 20
5.44547
 10
2.59017
 20
5.46479
 10
2.61415
 20
5.46479
 10
2.63807
 20
5.46479
 10
2.7099
 20
5.44547
 10
2.78814
 20
5.39274
 10
2.84088
 20
5.31451
 10
2.86025
 20
5.24268
 10
2.86025
 20
5.21869
  0
LWPOLYLINE
  5
1AF
100
AcDbEntity
  8
0
  6
ByLayer
 62
  134
370
   -1
100
AcDbPolyline
 90
   25
 70
    1
 43
0
 10
5.22244
 20
4.0376
 10
5.22244
 20
4.01367
 10
5.20307
 20
3.94189
 10
5.15033
 20
3.86367
 10
5.0721
 20
3.81093
 10
5.00032
 20
3.79156
 10
4.9764
 20
3.79156
 10
4.95242
 20
3.79156
 10
4.88058
 20
3.81093
 10
4.80236
 20
3.86367
 10
4.74962
 20
3.94189
 10
4.73031
 20
4.01367
 10
4.73031
 20
4.0376
 10
4.73031
 20
4.06158
 10
4.74962
 20
4.1334
 10
4.80236
 20
4.21164
 10
4.88058
 20
4.26438
 10
4.95242
 20
4.28369
 10
4.9764
 20
4.28369
 10
5.00032
 20
4.28369
 10
5.0721
 20
4.26438
 10
5.15033
 20
4.21164
 10
5.20307
 20
4.1334
 10
5.22244
 20
4.06158
 10
5.22244
 20
4.0376
  0
LWPOLYLINE
  5
1B0
100
AcDbEntity
  8
0
  6
ByLayer
 62
  134
370
   -1
100
AcDbPolyline
 90
   25
 70
    1
 43
0
 10
2.56494
 20
4.62815
 10
2.56494
 20
4.60422
 10
2.54557
 20
4.53244
 10
2.49283
 20
4.45421
 10
2.41465
 20
4.40147
 10
2.34283
 20
4.38211
 10
2.3189
 20
4.38211
 10
2.29492
 20
4.38211
 10
2.2231
 20
4.40147
 10
2.14492
 20
4.45421
 10
2.09218
 20
4.53244
 10
2.07286
 20
4.60422
 10
2.07286
 20
4.62815
 10
2.07286
 20
4.65213
 10
2.09218
 20
4.72396
 10
2.14492
 20
4.80219
 10
2.2231
 20
4.85493
 10
2.29492
 20
4.87424
 10
2.3189
 20
4.87424
 10
2.34283
 20
4.87424
 10
2.41465
 20
4.85493
 10
2.49283
 20
4.80219
 10
2.54557
 20
4.72396
 10
2.56494
 20
4.65213
 10
2.56494
 20
4.62815
  0
LWPOLYLINE
  5
1B1
100
AcDbEntity
  8
0
  6
ByLayer
 62
  134
370
   -1
100
AcDbPolyline
 90
   25
 70
    1
 43
0
 10
5.81299
 20
4.0376
 10
5.81299
 20
4.01367
 10
5.79362
 20
3.94189
 10
5.74089
 20
3.86367
 10
5.66265
 20
3.81093
 10
5.59088
 20
3.79156
 10
5.56694
 20
3.79156
 10
5.54297
 20
3.79156
 10
5.47114
 20
3.81093
 10
5.3929
 20
3.86367
 10
5.34017
 20
3.94189
 10
5.32086
 20
4.01367
 10
5.32086
 20
4.0376
 10
5.32086
 20
4.06158
 10
5.34017
 20
4.1334
 10
5.3929
 20
4.21164
 10
5.47114
 20
4.26438
 10
5.54297
 20
4.28369
 10
5.56694
 20
4.28369
 10
5.59088
 20
4.28369
 10
5.66265
 20
4.26438
 10
5.74089
 20
4.21164
 10
5.79362
 20
4.1334
 10
5.81299
 20
4.06158
 10
5.81299
 20
4.0376
  0
LWPOLYLINE
  5
1B2
100
AcDbEntity
  8
0
  6
ByLayer
 62
  134
370
   -1
100
AcDbPolyline
 90
   25
 70
    1
 43
0
 10
3.15549
 20
4.62815
 10
3.15549
 20
4.60422
 10
3.13612
 20
4.53244
 10
3.08339
 20
4.45421
 10
3.00521
 20
4.40147
 10
2.93338
 20
4.38211
 10
2.90944
 20
4.38211
 10
2.88547
 20
4.38211
 10
2.81364
 20
4.40147
 10
2.73546
 20
4.45421
 10
2.68272
 20
4.53244
 10
2.66342
 20
4.60422
 10
2.66342
 20
4.62815
 10
2.66342
 20
4.65213
 10
2.68272
 20
4.72396
 10
2.73546
 20
4.80219
 10
2.81364
 20
4.85493
 10
2.88547
 20
4.87424
 10
2.90944
 20
4.87424
 10
2.93338
 20
4.87424
 10
3.00521
 20
4.85493
 10
3.08339
 20
4.80219
 10
3.13612
 20
4.72396
 10
3.15549
 20
4.65213
 10
3.15549
 20
4.62815
  0
LWPOLYLINE
  5
1B3
100
AcDbEntity
  8
0
  6
ByLayer
 62
  134
370
   -1
100
AcDbPolyline
 90
   25
 70
    1
 43
0
 10
6.69883
 20
5.80931
 10
6.69883
 20
5.78538
 10
6.67947
 20
5.71354
 10
6.62674
 20
5.63531
 10
6.5485
 20
5.58257
 10
6.47667
 20
5.56321
 10
6.45275
 20
5.56321
 10
6.42876
 20
5.56321
 10
6.35693
 20
5.58257
 10
6.27875
 20
5.63531
 10
6.22601
 20
5.71354
 10
6.20671
 20
5.78538
 10
6.20671
 20
5.80931
 10
6.20671
 20
5.83328
 10
6.22601
 20
5.90506
 10
6.27875
 20
5.98329
 10
6.35693
 20
6.03603
 10
6.42876
 20
6.05533
 10
6.45275
 20
6.05533
 10
6.47667
 20
6.05533
 10
6.5485
 20
6.03603
 10
6.62674
 20
5.98329
 10
6.67947
 20
5.90506
 10
6.69883
 20
5.83328
 10
6.69883
 20
5.80931
  0
LWPOLYLINE
  5
1B4
100
AcDbEntity
  8
0
  6
ByLayer
 62
  134
370
   -1
100
AcDbPolyline
 90
   25
 70
    1
 43
0
 10
2.56494
 20
5.80931
 10
2.56494
 20
5.78538
 10
2.54557
 20
5.71354
 10
2.49283
 20
5.63531
 10
2.41465
 20
5.58257
 10
2.34283
 20
5.56321
 10
2.3189
 20
5.56321
 10
2.29492
 20
5.56321
 10
2.2231
 20
5.58257
 10
2.14492
 20
5.63531
 10
2.09218
 20
5.71354
 10
2.07286
 20
5.78538
 10
2.07286
 20
5.80931
 10
2.07286
 20
5.83328
 10
2.09218
 20
5.90506
 10
2.14492
 20
5.98329
 10
2.2231
 20
6.03603
 10
2.29492
 20
6.05533
 10
2.3189
 20
6.05533
 10
2.34283
 20
6.05533
 10
2.41465
 20
6.03603
 10
2.49283
 20
5.98329
 10
2.54557
 20
5.90506
 10
2.56494
 20
5.83328
 10
2.56494
 20
5.80931
  0
LWPOLYLINE
  5
1B5
100
AcDbEntity
  8
0
  6
ByLayer
 62
  134
370
   -1
100
AcDbPolyline
 90
   25
 70
    1
 43
0
 10
7.28939
 20
5.80931
 10
7.28939
 20
5.78538
 10
7.27001
 20
5.71354
 10
7.21729
 20
5.63531
 10
7.13906
 20
5.58257
 10
7.06722
 20
5.56321
 10
7.04329
 20
5.56321
 10
7.01932
 20
5.56321
 10
6.94749
 20
5.58257
 10
6.86931
 20
5.63531
 10
6.81657
 20
5.71354
 10
6.79725
 20
5.78538
 10
6.79725
 20
5.80931
 10
6.79725
 20
5.83328
 10
6.81657
 20
5.90506
 10
6.86931
 20
5.98329
 10
6.94749
 20
6.03603
 10
7.01932
 20
6.05533
 10
7.04329
 20
6.05533
 10
7.06722
 20
6.05533
 10
7.13906
 20
6.03603
 10
7.21729
 20
5.98329
 10
7.27001
 20
5.90506
 10
7.28939
 20
5.83328
 10
7.28939
 20
5.80931
  0
LWPOLYLINE
  5
1B6
100
AcDbEntity
  8
0
  6
ByLayer
 62
  134
370
   -1
100
AcDbPolyline
 90
   25
 70
    1
 43
0
 10
2.86025
 20
4.05729
 10
2.86025
 20
4.03336
 10
2.84088
 20
3.96158
 10
2.78814
 20
3.88336
 10
2.7099
 20
3.83062
 10
2.63807
 20
3.81125
 10
2.61415
 20
3.81125
 10
2.59017
 20
3.81125
 10
2.51833
 20
3.83062
 10
2.44015
 20
3.88336
 10
2.38743
 20
3.96158
 10
2.36811
 20
4.03336
 10
2.36811
 20
4.05729
 10
2.36811
 20
4.08128
 10
2.38743
 20
4.1531
 10
2.44015
 20
4.23133
 10
2.51833
 20
4.28407
 10
2.59017
 20
4.30339
 10
2.61415
 20
4.30339
 10
2.63807
 20
4.30339
 10
2.7099
 20
4.28407
 10
2.78814
 20
4.23133
 10
2.84088
 20
4.1531
 10
2.86025
 20
4.08128
 10
2.86025
 20
4.05729
  0
LWPOLYLINE
  5
1B7
100
AcDbEntity
  8
0
  6
ByLayer
 62
  134
370
   -1
100
AcDbPolyline
 90
   25
 70
    1
 43
0
 10
6.99408
 20
5.21869
 10
6.99408
 20
5.19476
 10
6.97472
 20
5.12299
 10
6.92199
 20
5.04476
 10
6.84375
 20
4.99203
 10
6.77197
 20
4.97265
 10
6.74804
 20
4.97265
 10
6.72407
 20
4.97265
 10
6.65224
 20
4.99203
 10
6.574
 20
5.04476
 10
6.52126
 20
5.12299
 10
6.50196
 20
5.19476
 10
6.50196
 20
5.21869
 10
6.50196
 20
5.24268
 10
6.52126
 20
5.31451
 10
6.574
 20
5.39274
 10
6.65224
 20
5.44547
 10
6.72407
 20
5.46479
 10
6.74804
 20
5.46479
 10
6.77197
 20
5.46479
 10
6.84375
 20
5.44547
 10
6.92199
 20
5.39274
 10
6.97472
 20
5.31451
 10
6.99408
 20
5.24268
 10
6.99408
 20
5.21869
  0
LWPOLYLINE
  5
1B8
100
AcDbEntity
  8
0
  6
ByLayer
 62
  134
370
   -1
100
AcDbPolyline
 90
   25
 70
    1
 43
0
 10
4.33658
 20
5.80931
 10
4.33658
 20
5.78538
 10
4.31722
 20
5.71354
 10
4.26449
 20
5.63531
 10
4.18631
 20
5.58257
 10
4.11447
 20
5.56321
 10
4.09056
 20
5.56321
 10
4.06657
 20
5.56321
 10
3.99474
 20
5.58257
 10
3.91656
 20
5.63531
 10
3.86382
 20
5.71354
 10
3.84451
 20
5.78538
 10
3.84451
 20
5.80931
 10
3.84451
 20
5.83328
 10
3.86382
 20
5.90506
 10
3.91656
 20
5.98329
 10
3.99474
 20
6.03603
 10
4.06657
 20
6.05533
 10
4.09056
 20
6.05533
 10
4.11447
 20
6.05533
 10
4.18631
 20
6.03603
 10
4.26449
 20
5.98329
 10
4.31722
 20
5.90506
 10
4.33658
 20
5.83328
 10
4.33658
 20
5.80931
  0
LWPOLYLINE
  5
1B9
100
AcDbEntity
  8
0
  6
ByLayer
 62
  134
370
   -1
100
AcDbPolyline
 90
   25
 70
    1
 43
0
 10
7.28939
 20
4.62815
 10
7.28939
 20
4.60422
 10
7.27001
 20
4.53244
 10
7.21729
 20
4.45421
 10
7.13906
 20
4.40147
 10
7.06722
 20
4.38211
 10
7.04329
 20
4.38211
 10
7.01932
 20
4.38211
 10
6.94749
 20
4.40147
 10
6.86931
 20
4.45421
 10
6.81657
 20
4.53244
 10
6.79725
 20
4.60422
 10
6.79725
 20
4.62815
 10
6.79725
 20
4.65213
 10
6.81657
 20
4.72396
 10
6.86931
 20
4.80219
 10
6.94749
 20
4.85493
 10
7.01932
 20
4.87424
 10
7.04329
 20
4.87424
 10
7.06722
 20
4.87424
 10
7.13906
 20
4.85493
 10
7.21729
 20
4.80219
 10
7.27001
 20
4.72396
 10
7.28939
 20
4.65213
 10
7.28939
 20
4.62815
  0
LWPOLYLINE
  5
1BA
100
AcDbEntity
  8
0
  6
ByLayer
 62
  134
370
   -1
100
AcDbPolyline
 90
   25
 70
    1
 43
0
 10
4.92714
 20
5.80931
 10
4.92714
 20
5.78538
 10
4.90776
 20
5.71354
 10
4.85504
 20
5.63531
 10
4.77686
 20
5.58257
 10
4.70503
 20
5.56321
 10
4.6811
 20
5.56321
 10
4.65712
 20
5.56321
 10
4.58529
 20
5.58257
 10
4.50711
 20
5.63531
 10
4.45437
 20
5.71354
 10
4.43506
 20
5.78538
 10
4.43506
 20
5.80931
 10
4.43506
 20
5.83328
 10
4.45437
 20
5.90506
 10
4.50711
 20
5.98329
 10
4.58529
 20
6.03603
 10
4.65712
 20
6.05533
 10
4.6811
 20
6.05533
 10
4.70503
 20
6.05533
 10
4.77686
 20
6.03603
 10
4.85504
 20
5.98329
 10
4.90776
 20
5.90506
 10
4.92714
 20
5.83328
 10
4.92714
 20
5.80931
  0
LWPOLYLINE
  5
1BB
100
AcDbEntity
  8
0
  6
ByLayer
 62
  134
370
   -1
100
AcDbPolyline
 90
   25
 70
    1
 43
0
 10
7.58464
 20
5.21869
 10
7.58464
 20
5.19476
 10
7.56526
 20
5.12299
 10
7.51253
 20
5.04476
 10
7.43431
 20
4.99203
 10
7.36253
 20
4.97265
 10
7.3386
 20
4.97265
 10
7.31461
 20
4.97265
 10
7.24278
 20
4.99203
 10
7.16456
 20
5.04476
 10
7.11182
 20
5.12299
 10
7.0925
 20
5.19476
 10
7.0925
 20
5.21869
 10
7.0925
 20
5.24268
 10
7.11182
 20
5.31451
 10
7.16456
 20
5.39274
 10
7.24278
 20
5.44547
 10
7.31461
 20
5.46479
 10
7.3386
 20
5.46479
 10
7.36253
 20
5.46479
 10
7.43431
 20
5.44547
 10
7.51253
 20
5.39274
 10
7.56526
 20
5.31451
 10
7.58464
 20
5.24268
 10
7.58464
 20
5.21869
  0
LWPOLYLINE
  5
1BC
100
AcDbEntity
  8
0
  6
ByLayer
 62
   52
370
   -1
100
AcDbPolyline
 90
    2
 70
    0
 43
0
 10
1.1377
 20
2.56131
 10
1.17708
 20
2.56131
  0
LWPOLYLINE
  5
1BD
100
AcDbEntity
  8
0
  6
ByLayer
 62
   52
370
   -1
100
AcDbPolyline
 90
    2
 70
    0
 43
0
 10
1.1377
 20
6.67546
 10
1.1377
 20
2.56131
  0
LWPOLYLINE
  5
1BE
100
AcDbEntity
  8
0
  6
ByLayer
 62
   52
370
   -1
100
AcDbPolyline
 90
    2
 70
    0
 43
0
 10
10.1535
 20
6.67546
 10
1.1377
 20
6.67546
  0
LWPOLYLINE
  5
1BF
100
AcDbEntity
  8
0
  6
ByLayer
 62
   52
370
   -1
100
AcDbPolyline
 90
    2
 70
    0
 43
0
 10
10.1535
 20
2.56131
 10
10.1535
 20
6.67546
  0
LWPOLYLINE
  5
1C0
100
AcDbEntity
  8
0
  6
ByLayer
 62
   52
370
   -1
100
AcDbPolyline
 90
    2
 70
    0
 43
0
 10
1.17708
 20
2.56131
 10
10.1535
 20
2.56131
  0
ENDSEC
  0
SECTION
  2
OBJECTS
  0
DICTIONARY
  5
C
330
0
100
AcDbDictionary
281
    1
  3
ACAD_GROUP
350
D
  0
DICTIONARY
  5
D
330
C
100
AcDbDictionary
281
    1
  0
ENDSEC
  0
EOF
