<?xml version="1.0" standalone="no"?>
 <!DOCTYPE svg PUBLIC "-//W3C//DTD SVG 1.1//EN" 
 "http://www.w3.org/Graphics/SVG/1.1/DTD/svg11.dtd"> 
<svg xmlns="http://www.w3.org/2000/svg" version="1.1" 
    width="29.7002cm" height="21.0007cm" viewBox="0 0 116930 82680 ">
<title>SVG Picture created as touch_kb1-F_SilkS.svg date 2024/06/27 18:37:49 </title>
  <desc>Picture generated by PCBNEW </desc>
<g style="fill:#000000; fill-opacity:1;stroke:#000000; stroke-opacity:1;
stroke-linecap:round; stroke-linejoin:round; "
 transform="translate(0 0) scale(1 1)">
</g>
<g style="fill:#000000; fill-opacity:0.0; 
stroke:#000000; stroke-width:-0.000393701; stroke-opacity:1; 
stroke-linecap:round; stroke-linejoin:round;">
</g>
<g style="fill:#000000; fill-opacity:0.0; 
stroke:#000000; stroke-width:39.3701; stroke-opacity:1; 
stroke-linecap:round; stroke-linejoin:round;">
</g>
<g style="fill:#000000; fill-opacity:0.0; 
stroke:#000000; stroke-width:59.0551; stroke-opacity:1; 
stroke-linecap:round; stroke-linejoin:round;">
<rect x="69685.9" y="65357.2" width="42519.7" height="12598.4" rx="0" />
</g>
<g style="fill:#000000; fill-opacity:0.0; 
stroke:#000000; stroke-width:39.3701; stroke-opacity:1; 
stroke-linecap:round; stroke-linejoin:round;">
</g>
<g style="fill:#000000; fill-opacity:0.0; 
stroke:#000000; stroke-width:59.0551; stroke-opacity:1; 
stroke-linecap:round; stroke-linejoin:round;">
<rect x="3937.01" y="3937.01" width="109056" height="74806" rx="0" />
</g>
<g style="fill:#000000; fill-opacity:0.0; 
stroke:#000000; stroke-width:39.3701; stroke-opacity:1; 
stroke-linecap:round; stroke-linejoin:round;">
</g>
<g style="fill:#000000; fill-opacity:0.0; 
stroke:#000000; stroke-width:59.0551; stroke-opacity:1; 
stroke-linecap:round; stroke-linejoin:round;">
<rect x="4724.41" y="4724.41" width="107481" height="73231.2" rx="0" />
</g>
<g style="fill:#000000; fill-opacity:0.0; 
stroke:#000000; stroke-width:39.3701; stroke-opacity:1; 
stroke-linecap:round; stroke-linejoin:round;">
</g>
<g style="fill:#000000; fill-opacity:0.0; 
stroke:#000000; stroke-width:59.0551; stroke-opacity:1; 
stroke-linecap:round; stroke-linejoin:round;">
<path d="M23622 4724
L23622 3937
" />
</g>
<g style="fill:#000000; fill-opacity:0.0; 
stroke:#000000; stroke-width:39.3701; stroke-opacity:1; 
stroke-linecap:round; stroke-linejoin:round;">
</g>
<g style="fill:#000000; fill-opacity:0.0; 
stroke:#000000; stroke-width:59.0551; stroke-opacity:1; 
stroke-linecap:round; stroke-linejoin:round;">
<path d="M43307 4724
L43307 3937
" />
</g>
<g style="fill:#000000; fill-opacity:0.0; 
stroke:#000000; stroke-width:39.3701; stroke-opacity:1; 
stroke-linecap:round; stroke-linejoin:round;">
</g>
<g style="fill:#000000; fill-opacity:0.0; 
stroke:#000000; stroke-width:59.0551; stroke-opacity:1; 
stroke-linecap:round; stroke-linejoin:round;">
<path d="M62992 4724
L62992 3937
" />
</g>
<g style="fill:#000000; fill-opacity:0.0; 
stroke:#000000; stroke-width:39.3701; stroke-opacity:1; 
stroke-linecap:round; stroke-linejoin:round;">
</g>
<g style="fill:#000000; fill-opacity:0.0; 
stroke:#000000; stroke-width:59.0551; stroke-opacity:1; 
stroke-linecap:round; stroke-linejoin:round;">
<path d="M82677 4724
L82677 3937
" />
</g>
<g style="fill:#000000; fill-opacity:0.0; 
stroke:#000000; stroke-width:39.3701; stroke-opacity:1; 
stroke-linecap:round; stroke-linejoin:round;">
</g>
<g style="fill:#000000; fill-opacity:0.0; 
stroke:#000000; stroke-width:59.0551; stroke-opacity:1; 
stroke-linecap:round; stroke-linejoin:round;">
<path d="M102362 4724
L102362 3937
" />
</g>
<g style="fill:#000000; fill-opacity:0.0; 
stroke:#000000; stroke-width:39.3701; stroke-opacity:1; 
stroke-linecap:round; stroke-linejoin:round;">
</g>
<g style="fill:#000000; fill-opacity:0.0; 
stroke:#000000; stroke-width:59.0551; stroke-opacity:1; 
stroke-linecap:round; stroke-linejoin:round;">
<text x="13779.5" y="4586.61"
textLength="487.439" font-size="682.415" lengthAdjust="spacingAndGlyphs"
text-anchor="start" opacity="0">1</text>
<path d="M14199 4562
L13906 4562
" />
<path d="M14052 4562
L14052 4050
L14004 4123
L13955 4172
L13906 4196
" />
</g>
<g style="fill:#000000; fill-opacity:0.0; 
stroke:#000000; stroke-width:39.3701; stroke-opacity:1; 
stroke-linecap:round; stroke-linejoin:round;">
</g>
<g style="fill:#000000; fill-opacity:0.0; 
stroke:#000000; stroke-width:59.0551; stroke-opacity:1; 
stroke-linecap:round; stroke-linejoin:round;">
<text x="33464.6" y="4586.61"
textLength="546.494" font-size="682.415" lengthAdjust="spacingAndGlyphs"
text-anchor="start" opacity="0">2</text>
<path d="M33591 4099
L33615 4074
L33664 4050
L33786 4050
L33835 4074
L33859 4099
L33884 4147
L33884 4196
L33859 4269
L33567 4562
L33884 4562
" />
</g>
<g style="fill:#000000; fill-opacity:0.0; 
stroke:#000000; stroke-width:39.3701; stroke-opacity:1; 
stroke-linecap:round; stroke-linejoin:round;">
</g>
<g style="fill:#000000; fill-opacity:0.0; 
stroke:#000000; stroke-width:59.0551; stroke-opacity:1; 
stroke-linecap:round; stroke-linejoin:round;">
<text x="53149.6" y="4586.61"
textLength="546.494" font-size="682.415" lengthAdjust="spacingAndGlyphs"
text-anchor="start" opacity="0">3</text>
<path d="M53252 4050
L53569 4050
L53398 4245
L53471 4245
L53520 4269
L53544 4294
L53569 4342
L53569 4464
L53544 4513
L53520 4537
L53471 4562
L53325 4562
L53276 4537
L53252 4513
" />
</g>
<g style="fill:#000000; fill-opacity:0.0; 
stroke:#000000; stroke-width:39.3701; stroke-opacity:1; 
stroke-linecap:round; stroke-linejoin:round;">
</g>
<g style="fill:#000000; fill-opacity:0.0; 
stroke:#000000; stroke-width:59.0551; stroke-opacity:1; 
stroke-linecap:round; stroke-linejoin:round;">
<text x="72834.6" y="4586.61"
textLength="546.494" font-size="682.415" lengthAdjust="spacingAndGlyphs"
text-anchor="start" opacity="0">4</text>
<path d="M73205 4221
L73205 4562
" />
<path d="M73083 4026
L72961 4391
L73278 4391
" />
</g>
<g style="fill:#000000; fill-opacity:0.0; 
stroke:#000000; stroke-width:39.3701; stroke-opacity:1; 
stroke-linecap:round; stroke-linejoin:round;">
</g>
<g style="fill:#000000; fill-opacity:0.0; 
stroke:#000000; stroke-width:59.0551; stroke-opacity:1; 
stroke-linecap:round; stroke-linejoin:round;">
<text x="92519.7" y="4586.61"
textLength="546.494" font-size="682.415" lengthAdjust="spacingAndGlyphs"
text-anchor="start" opacity="0">5</text>
<path d="M92914 4050
L92671 4050
L92646 4294
L92671 4269
L92719 4245
L92841 4245
L92890 4269
L92914 4294
L92939 4342
L92939 4464
L92914 4513
L92890 4537
L92841 4562
L92719 4562
L92671 4537
L92646 4513
" />
</g>
<g style="fill:#000000; fill-opacity:0.0; 
stroke:#000000; stroke-width:39.3701; stroke-opacity:1; 
stroke-linecap:round; stroke-linejoin:round;">
</g>
<g style="fill:#000000; fill-opacity:0.0; 
stroke:#000000; stroke-width:59.0551; stroke-opacity:1; 
stroke-linecap:round; stroke-linejoin:round;">
<text x="112205" y="4586.61"
textLength="546.494" font-size="682.415" lengthAdjust="spacingAndGlyphs"
text-anchor="start" opacity="0">6</text>
<path d="M112575 4050
L112477 4050
L112429 4074
L112404 4099
L112356 4172
L112331 4269
L112331 4464
L112356 4513
L112380 4537
L112429 4562
L112526 4562
L112575 4537
L112599 4513
L112624 4464
L112624 4342
L112599 4294
L112575 4269
L112526 4245
L112429 4245
L112380 4269
L112356 4294
L112331 4342
" />
</g>
<g style="fill:#000000; fill-opacity:0.0; 
stroke:#000000; stroke-width:39.3701; stroke-opacity:1; 
stroke-linecap:round; stroke-linejoin:round;">
</g>
<g style="fill:#000000; fill-opacity:0.0; 
stroke:#000000; stroke-width:59.0551; stroke-opacity:1; 
stroke-linecap:round; stroke-linejoin:round;">
<path d="M23622 77955
L23622 78742
" />
</g>
<g style="fill:#000000; fill-opacity:0.0; 
stroke:#000000; stroke-width:39.3701; stroke-opacity:1; 
stroke-linecap:round; stroke-linejoin:round;">
</g>
<g style="fill:#000000; fill-opacity:0.0; 
stroke:#000000; stroke-width:59.0551; stroke-opacity:1; 
stroke-linecap:round; stroke-linejoin:round;">
<path d="M43307 77955
L43307 78742
" />
</g>
<g style="fill:#000000; fill-opacity:0.0; 
stroke:#000000; stroke-width:39.3701; stroke-opacity:1; 
stroke-linecap:round; stroke-linejoin:round;">
</g>
<g style="fill:#000000; fill-opacity:0.0; 
stroke:#000000; stroke-width:59.0551; stroke-opacity:1; 
stroke-linecap:round; stroke-linejoin:round;">
<path d="M62992 77955
L62992 78742
" />
</g>
<g style="fill:#000000; fill-opacity:0.0; 
stroke:#000000; stroke-width:39.3701; stroke-opacity:1; 
stroke-linecap:round; stroke-linejoin:round;">
</g>
<g style="fill:#000000; fill-opacity:0.0; 
stroke:#000000; stroke-width:59.0551; stroke-opacity:1; 
stroke-linecap:round; stroke-linejoin:round;">
<path d="M82677 77955
L82677 78742
" />
</g>
<g style="fill:#000000; fill-opacity:0.0; 
stroke:#000000; stroke-width:39.3701; stroke-opacity:1; 
stroke-linecap:round; stroke-linejoin:round;">
</g>
<g style="fill:#000000; fill-opacity:0.0; 
stroke:#000000; stroke-width:59.0551; stroke-opacity:1; 
stroke-linecap:round; stroke-linejoin:round;">
<path d="M102362 77955
L102362 78742
" />
</g>
<g style="fill:#000000; fill-opacity:0.0; 
stroke:#000000; stroke-width:39.3701; stroke-opacity:1; 
stroke-linecap:round; stroke-linejoin:round;">
</g>
<g style="fill:#000000; fill-opacity:0.0; 
stroke:#000000; stroke-width:59.0551; stroke-opacity:1; 
stroke-linecap:round; stroke-linejoin:round;">
<text x="13779.5" y="78605.2"
textLength="546.494" font-size="682.415" lengthAdjust="spacingAndGlyphs"
text-anchor="start" opacity="0">1</text>
<path d="M14199 78580
L13906 78580
" />
<path d="M14052 78580
L14052 78069
L14004 78142
L13955 78190
L13906 78215
" />
</g>
<g style="fill:#000000; fill-opacity:0.0; 
stroke:#000000; stroke-width:39.3701; stroke-opacity:1; 
stroke-linecap:round; stroke-linejoin:round;">
</g>
<g style="fill:#000000; fill-opacity:0.0; 
stroke:#000000; stroke-width:59.0551; stroke-opacity:1; 
stroke-linecap:round; stroke-linejoin:round;">
<text x="33464.6" y="78605.2"
textLength="546.494" font-size="682.415" lengthAdjust="spacingAndGlyphs"
text-anchor="start" opacity="0">2</text>
<path d="M33591 78117
L33615 78093
L33664 78069
L33786 78069
L33835 78093
L33859 78117
L33884 78166
L33884 78215
L33859 78288
L33567 78580
L33884 78580
" />
</g>
<g style="fill:#000000; fill-opacity:0.0; 
stroke:#000000; stroke-width:39.3701; stroke-opacity:1; 
stroke-linecap:round; stroke-linejoin:round;">
</g>
<g style="fill:#000000; fill-opacity:0.0; 
stroke:#000000; stroke-width:59.0551; stroke-opacity:1; 
stroke-linecap:round; stroke-linejoin:round;">
<text x="53149.6" y="78605.2"
textLength="546.494" font-size="682.415" lengthAdjust="spacingAndGlyphs"
text-anchor="start" opacity="0">3</text>
<path d="M53252 78069
L53569 78069
L53398 78263
L53471 78263
L53520 78288
L53544 78312
L53569 78361
L53569 78483
L53544 78532
L53520 78556
L53471 78580
L53325 78580
L53276 78556
L53252 78532
" />
</g>
<g style="fill:#000000; fill-opacity:0.0; 
stroke:#000000; stroke-width:39.3701; stroke-opacity:1; 
stroke-linecap:round; stroke-linejoin:round;">
</g>
<g style="fill:#000000; fill-opacity:0.0; 
stroke:#000000; stroke-width:59.0551; stroke-opacity:1; 
stroke-linecap:round; stroke-linejoin:round;">
<text x="72834.6" y="78605.2"
textLength="546.494" font-size="682.415" lengthAdjust="spacingAndGlyphs"
text-anchor="start" opacity="0">4</text>
<path d="M73205 78239
L73205 78580
" />
<path d="M73083 78044
L72961 78410
L73278 78410
" />
</g>
<g style="fill:#000000; fill-opacity:0.0; 
stroke:#000000; stroke-width:39.3701; stroke-opacity:1; 
stroke-linecap:round; stroke-linejoin:round;">
</g>
<g style="fill:#000000; fill-opacity:0.0; 
stroke:#000000; stroke-width:59.0551; stroke-opacity:1; 
stroke-linecap:round; stroke-linejoin:round;">
<text x="92519.7" y="78605.2"
textLength="546.494" font-size="682.415" lengthAdjust="spacingAndGlyphs"
text-anchor="start" opacity="0">5</text>
<path d="M92914 78069
L92671 78069
L92646 78312
L92671 78288
L92719 78263
L92841 78263
L92890 78288
L92914 78312
L92939 78361
L92939 78483
L92914 78532
L92890 78556
L92841 78580
L92719 78580
L92671 78556
L92646 78532
" />
</g>
<g style="fill:#000000; fill-opacity:0.0; 
stroke:#000000; stroke-width:39.3701; stroke-opacity:1; 
stroke-linecap:round; stroke-linejoin:round;">
</g>
<g style="fill:#000000; fill-opacity:0.0; 
stroke:#000000; stroke-width:59.0551; stroke-opacity:1; 
stroke-linecap:round; stroke-linejoin:round;">
<text x="112205" y="78605.2"
textLength="546.494" font-size="682.415" lengthAdjust="spacingAndGlyphs"
text-anchor="start" opacity="0">6</text>
<path d="M112575 78069
L112477 78069
L112429 78093
L112404 78117
L112356 78190
L112331 78288
L112331 78483
L112356 78532
L112380 78556
L112429 78580
L112526 78580
L112575 78556
L112599 78532
L112624 78483
L112624 78361
L112599 78312
L112575 78288
L112526 78263
L112429 78263
L112380 78288
L112356 78312
L112331 78361
" />
</g>
<g style="fill:#000000; fill-opacity:0.0; 
stroke:#000000; stroke-width:39.3701; stroke-opacity:1; 
stroke-linecap:round; stroke-linejoin:round;">
</g>
<g style="fill:#000000; fill-opacity:0.0; 
stroke:#000000; stroke-width:59.0551; stroke-opacity:1; 
stroke-linecap:round; stroke-linejoin:round;">
<path d="M3937 23622
L4724 23622
" />
</g>
<g style="fill:#000000; fill-opacity:0.0; 
stroke:#000000; stroke-width:39.3701; stroke-opacity:1; 
stroke-linecap:round; stroke-linejoin:round;">
</g>
<g style="fill:#000000; fill-opacity:0.0; 
stroke:#000000; stroke-width:59.0551; stroke-opacity:1; 
stroke-linecap:round; stroke-linejoin:round;">
<path d="M3937 43307
L4724 43307
" />
</g>
<g style="fill:#000000; fill-opacity:0.0; 
stroke:#000000; stroke-width:39.3701; stroke-opacity:1; 
stroke-linecap:round; stroke-linejoin:round;">
</g>
<g style="fill:#000000; fill-opacity:0.0; 
stroke:#000000; stroke-width:59.0551; stroke-opacity:1; 
stroke-linecap:round; stroke-linejoin:round;">
<path d="M3937 62992
L4724 62992
" />
</g>
<g style="fill:#000000; fill-opacity:0.0; 
stroke:#000000; stroke-width:39.3701; stroke-opacity:1; 
stroke-linecap:round; stroke-linejoin:round;">
</g>
<g style="fill:#000000; fill-opacity:0.0; 
stroke:#000000; stroke-width:59.0551; stroke-opacity:1; 
stroke-linecap:round; stroke-linejoin:round;">
<text x="4330.71" y="14035.4"
textLength="497.75" font-size="682.415" lengthAdjust="spacingAndGlyphs"
text-anchor="middle" opacity="0">A</text>
<path d="M4208 13864
L4452 13864
" />
<path d="M4160 14011
L4330 13499
L4501 14011
" />
</g>
<g style="fill:#000000; fill-opacity:0.0; 
stroke:#000000; stroke-width:39.3701; stroke-opacity:1; 
stroke-linecap:round; stroke-linejoin:round;">
</g>
<g style="fill:#000000; fill-opacity:0.0; 
stroke:#000000; stroke-width:59.0551; stroke-opacity:1; 
stroke-linecap:round; stroke-linejoin:round;">
<text x="4330.71" y="33720.5"
textLength="570.866" font-size="682.415" lengthAdjust="spacingAndGlyphs"
text-anchor="middle" opacity="0">B</text>
<path d="M4367 33428
L4440 33452
L4464 33476
L4489 33525
L4489 33598
L4464 33647
L4440 33671
L4391 33696
L4196 33696
L4196 33184
L4367 33184
L4416 33208
L4440 33233
L4464 33281
L4464 33330
L4440 33379
L4416 33403
L4367 33428
L4196 33428
" />
</g>
<g style="fill:#000000; fill-opacity:0.0; 
stroke:#000000; stroke-width:39.3701; stroke-opacity:1; 
stroke-linecap:round; stroke-linejoin:round;">
</g>
<g style="fill:#000000; fill-opacity:0.0; 
stroke:#000000; stroke-width:59.0551; stroke-opacity:1; 
stroke-linecap:round; stroke-linejoin:round;">
<text x="4330.71" y="53405.5"
textLength="570.866" font-size="682.415" lengthAdjust="spacingAndGlyphs"
text-anchor="middle" opacity="0">C</text>
<path d="M4489 53332
L4464 53356
L4391 53381
L4342 53381
L4269 53356
L4221 53308
L4196 53259
L4172 53161
L4172 53088
L4196 52991
L4221 52942
L4269 52893
L4342 52869
L4391 52869
L4464 52893
L4489 52918
" />
</g>
<g style="fill:#000000; fill-opacity:0.0; 
stroke:#000000; stroke-width:39.3701; stroke-opacity:1; 
stroke-linecap:round; stroke-linejoin:round;">
</g>
<g style="fill:#000000; fill-opacity:0.0; 
stroke:#000000; stroke-width:59.0551; stroke-opacity:1; 
stroke-linecap:round; stroke-linejoin:round;">
<text x="4330.71" y="73090.6"
textLength="570.866" font-size="682.415" lengthAdjust="spacingAndGlyphs"
text-anchor="middle" opacity="0">D</text>
<path d="M4196 73066
L4196 72554
L4318 72554
L4391 72578
L4440 72627
L4464 72676
L4489 72773
L4489 72846
L4464 72944
L4440 72993
L4391 73041
L4318 73066
L4196 73066
" />
</g>
<g style="fill:#000000; fill-opacity:0.0; 
stroke:#000000; stroke-width:39.3701; stroke-opacity:1; 
stroke-linecap:round; stroke-linejoin:round;">
</g>
<g style="fill:#000000; fill-opacity:0.0; 
stroke:#000000; stroke-width:59.0551; stroke-opacity:1; 
stroke-linecap:round; stroke-linejoin:round;">
<path d="M112992 23622
L112205 23622
" />
</g>
<g style="fill:#000000; fill-opacity:0.0; 
stroke:#000000; stroke-width:39.3701; stroke-opacity:1; 
stroke-linecap:round; stroke-linejoin:round;">
</g>
<g style="fill:#000000; fill-opacity:0.0; 
stroke:#000000; stroke-width:59.0551; stroke-opacity:1; 
stroke-linecap:round; stroke-linejoin:round;">
<path d="M112992 43307
L112205 43307
" />
</g>
<g style="fill:#000000; fill-opacity:0.0; 
stroke:#000000; stroke-width:39.3701; stroke-opacity:1; 
stroke-linecap:round; stroke-linejoin:round;">
</g>
<g style="fill:#000000; fill-opacity:0.0; 
stroke:#000000; stroke-width:59.0551; stroke-opacity:1; 
stroke-linecap:round; stroke-linejoin:round;">
<path d="M112992 62992
L112205 62992
" />
</g>
<g style="fill:#000000; fill-opacity:0.0; 
stroke:#000000; stroke-width:39.3701; stroke-opacity:1; 
stroke-linecap:round; stroke-linejoin:round;">
</g>
<g style="fill:#000000; fill-opacity:0.0; 
stroke:#000000; stroke-width:59.0551; stroke-opacity:1; 
stroke-linecap:round; stroke-linejoin:round;">
<text x="112599" y="14035.4"
textLength="497.75" font-size="682.415" lengthAdjust="spacingAndGlyphs"
text-anchor="middle" opacity="0">A</text>
<path d="M112477 13864
L112721 13864
" />
<path d="M112428 14011
L112599 13499
L112769 14011
" />
</g>
<g style="fill:#000000; fill-opacity:0.0; 
stroke:#000000; stroke-width:39.3701; stroke-opacity:1; 
stroke-linecap:round; stroke-linejoin:round;">
</g>
<g style="fill:#000000; fill-opacity:0.0; 
stroke:#000000; stroke-width:59.0551; stroke-opacity:1; 
stroke-linecap:round; stroke-linejoin:round;">
<text x="112599" y="33720.5"
textLength="570.866" font-size="682.415" lengthAdjust="spacingAndGlyphs"
text-anchor="middle" opacity="0">B</text>
<path d="M112635 33428
L112708 33452
L112733 33476
L112757 33525
L112757 33598
L112733 33647
L112708 33671
L112660 33696
L112465 33696
L112465 33184
L112635 33184
L112684 33208
L112708 33233
L112733 33281
L112733 33330
L112708 33379
L112684 33403
L112635 33428
L112465 33428
" />
</g>
<g style="fill:#000000; fill-opacity:0.0; 
stroke:#000000; stroke-width:39.3701; stroke-opacity:1; 
stroke-linecap:round; stroke-linejoin:round;">
</g>
<g style="fill:#000000; fill-opacity:0.0; 
stroke:#000000; stroke-width:59.0551; stroke-opacity:1; 
stroke-linecap:round; stroke-linejoin:round;">
<text x="112599" y="53405.5"
textLength="570.866" font-size="682.415" lengthAdjust="spacingAndGlyphs"
text-anchor="middle" opacity="0">C</text>
<path d="M112757 53332
L112733 53356
L112660 53381
L112611 53381
L112538 53356
L112489 53308
L112465 53259
L112440 53161
L112440 53088
L112465 52991
L112489 52942
L112538 52893
L112611 52869
L112660 52869
L112733 52893
L112757 52918
" />
</g>
<g style="fill:#000000; fill-opacity:0.0; 
stroke:#000000; stroke-width:39.3701; stroke-opacity:1; 
stroke-linecap:round; stroke-linejoin:round;">
</g>
<g style="fill:#000000; fill-opacity:0.0; 
stroke:#000000; stroke-width:59.0551; stroke-opacity:1; 
stroke-linecap:round; stroke-linejoin:round;">
<text x="112599" y="73090.6"
textLength="570.866" font-size="682.415" lengthAdjust="spacingAndGlyphs"
text-anchor="middle" opacity="0">D</text>
<path d="M112465 73066
L112465 72554
L112587 72554
L112660 72578
L112708 72627
L112733 72676
L112757 72773
L112757 72846
L112733 72944
L112708 72993
L112660 73041
L112587 73066
L112465 73066
" />
</g>
<g style="fill:#000000; fill-opacity:0.0; 
stroke:#000000; stroke-width:39.3701; stroke-opacity:1; 
stroke-linecap:round; stroke-linejoin:round;">
</g>
<g style="fill:#000000; fill-opacity:0.0; 
stroke:#000000; stroke-width:59.0551; stroke-opacity:1; 
stroke-linecap:round; stroke-linejoin:round;">
<text x="78741" y="76321.7"
textLength="2758.72" font-size="787.402" lengthAdjust="spacingAndGlyphs"
text-anchor="start" opacity="0">Date: </text>
<path d="M78911 76293
L78911 75703
L79051 75703
L79136 75731
L79192 75787
L79220 75843
L79248 75956
L79248 76040
L79220 76153
L79192 76209
L79136 76265
L79051 76293
L78911 76293
" />
<path d="M79754 76293
L79754 75984
L79726 75928
L79670 75899
L79557 75899
L79501 75928
" />
<path d="M79754 76265
L79698 76293
L79557 76293
L79501 76265
L79473 76209
L79473 76153
L79501 76096
L79557 76068
L79698 76068
L79754 76040
" />
<path d="M79951 75899
L80176 75899
" />
<path d="M80036 75703
L80036 76209
L80064 76265
L80120 76293
L80176 76293
" />
<path d="M80598 76265
L80542 76293
L80429 76293
L80373 76265
L80345 76209
L80345 75984
L80373 75928
L80429 75899
L80542 75899
L80598 75928
L80626 75984
L80626 76040
L80345 76096
" />
<path d="M80879 76237
L80907 76265
L80879 76293
L80851 76265
L80879 76237
L80879 76293
" />
<path d="M80879 75928
L80907 75956
L80879 75984
L80851 75956
L80879 75928
L80879 75984
" />
</g>
<g style="fill:#000000; fill-opacity:0.0; 
stroke:#000000; stroke-width:39.3701; stroke-opacity:1; 
stroke-linecap:round; stroke-linejoin:round;">
</g>
<g style="fill:#000000; fill-opacity:0.0; 
stroke:#000000; stroke-width:59.0551; stroke-opacity:1; 
stroke-linecap:round; stroke-linejoin:round;">
<path d="M69685 76577
L112205 76577
" />
</g>
<g style="fill:#000000; fill-opacity:0.0; 
stroke:#000000; stroke-width:39.3701; stroke-opacity:1; 
stroke-linecap:round; stroke-linejoin:round;">
</g>
<g style="fill:#000000; fill-opacity:0.0; 
stroke:#000000; stroke-width:59.0551; stroke-opacity:1; 
stroke-linecap:round; stroke-linejoin:round;">
<text x="70079.6" y="77424.1"
textLength="18675.5" font-size="787.402" lengthAdjust="spacingAndGlyphs"
text-anchor="start" opacity="0">KiCad E.D.A.  kicad 5.1.5+dfsg1-2build2</text>
<path d="M70249 77395
L70249 76805
" />
<path d="M70587 77395
L70334 77058
" />
<path d="M70587 76805
L70249 77142
" />
<path d="M70840 77395
L70840 77002
" />
<path d="M70840 76805
L70812 76833
L70840 76861
L70868 76833
L70840 76805
L70840 76861
" />
<path d="M71458 77339
L71430 77367
L71346 77395
L71290 77395
L71205 77367
L71149 77311
L71121 77255
L71093 77142
L71093 77058
L71121 76946
L71149 76889
L71205 76833
L71290 76805
L71346 76805
L71430 76833
L71458 76861
" />
<path d="M71965 77395
L71965 77086
L71937 77030
L71880 77002
L71768 77002
L71712 77030
" />
<path d="M71965 77367
L71908 77395
L71768 77395
L71712 77367
L71683 77311
L71683 77255
L71712 77199
L71768 77171
L71908 77171
L71965 77142
" />
<path d="M72499 77395
L72499 76805
" />
<path d="M72499 77367
L72443 77395
L72330 77395
L72274 77367
L72246 77339
L72218 77283
L72218 77114
L72246 77058
L72274 77030
L72330 77002
L72443 77002
L72499 77030
" />
<path d="M73230 77086
L73427 77086
" />
<path d="M73511 77395
L73230 77395
L73230 76805
L73511 76805
" />
<path d="M73764 77339
L73793 77367
L73764 77395
L73736 77367
L73764 77339
L73764 77395
" />
<path d="M74046 77395
L74046 76805
L74186 76805
L74271 76833
L74327 76889
L74355 76946
L74383 77058
L74383 77142
L74355 77255
L74327 77311
L74271 77367
L74186 77395
L74046 77395
" />
<path d="M74636 77339
L74664 77367
L74636 77395
L74608 77367
L74636 77339
L74636 77395
" />
<path d="M74889 77227
L75171 77227
" />
<path d="M74833 77395
L75030 76805
L75227 77395
" />
<path d="M75424 77339
L75452 77367
L75424 77395
L75395 77367
L75424 77339
L75424 77395
" />
<path d="M76605 77395
L76605 76805
" />
<path d="M76661 77171
L76830 77395
" />
<path d="M76830 77002
L76605 77227
" />
<path d="M77083 77395
L77083 77002
" />
<path d="M77083 76805
L77055 76833
L77083 76861
L77111 76833
L77083 76805
L77083 76861
" />
<path d="M77617 77367
L77561 77395
L77448 77395
L77392 77367
L77364 77339
L77336 77283
L77336 77114
L77364 77058
L77392 77030
L77448 77002
L77561 77002
L77617 77030
" />
<path d="M78123 77395
L78123 77086
L78095 77030
L78039 77002
L77926 77002
L77870 77030
" />
<path d="M78123 77367
L78067 77395
L77926 77395
L77870 77367
L77842 77311
L77842 77255
L77870 77199
L77926 77171
L78067 77171
L78123 77142
" />
<path d="M78658 77395
L78658 76805
" />
<path d="M78658 77367
L78601 77395
L78489 77395
L78433 77367
L78404 77339
L78376 77283
L78376 77114
L78404 77058
L78433 77030
L78489 77002
L78601 77002
L78658 77030
" />
<path d="M79670 76805
L79389 76805
L79361 77086
L79389 77058
L79445 77030
L79586 77030
L79642 77058
L79670 77086
L79698 77142
L79698 77283
L79670 77339
L79642 77367
L79586 77395
L79445 77395
L79389 77367
L79361 77339
" />
<path d="M79951 77339
L79979 77367
L79951 77395
L79923 77367
L79951 77339
L79951 77395
" />
<path d="M80542 77395
L80204 77395
" />
<path d="M80373 77395
L80373 76805
L80317 76889
L80260 76946
L80204 76974
" />
<path d="M80795 77339
L80823 77367
L80795 77395
L80767 77367
L80795 77339
L80795 77395
" />
<path d="M81357 76805
L81076 76805
L81048 77086
L81076 77058
L81132 77030
L81273 77030
L81329 77058
L81357 77086
L81385 77142
L81385 77283
L81357 77339
L81329 77367
L81273 77395
L81132 77395
L81076 77367
L81048 77339
" />
<path d="M81638 77171
L82088 77171
" />
<path d="M81863 77395
L81863 76946
" />
<path d="M82623 77395
L82623 76805
" />
<path d="M82623 77367
L82566 77395
L82454 77395
L82398 77367
L82370 77339
L82341 77283
L82341 77114
L82370 77058
L82398 77030
L82454 77002
L82566 77002
L82623 77030
" />
<path d="M82820 77002
L83045 77002
" />
<path d="M82904 77395
L82904 76889
L82932 76833
L82988 76805
L83045 76805
" />
<path d="M83213 77367
L83269 77395
L83382 77395
L83438 77367
L83466 77311
L83466 77283
L83438 77227
L83382 77199
L83298 77199
L83241 77171
L83213 77114
L83213 77086
L83241 77030
L83298 77002
L83382 77002
L83438 77030
" />
<path d="M83973 77002
L83973 77480
L83944 77536
L83916 77564
L83860 77592
L83776 77592
L83719 77564
" />
<path d="M83973 77367
L83916 77395
L83804 77395
L83748 77367
L83719 77339
L83691 77283
L83691 77114
L83719 77058
L83748 77030
L83804 77002
L83916 77002
L83973 77030
" />
<path d="M84563 77395
L84226 77395
" />
<path d="M84394 77395
L84394 76805
L84338 76889
L84282 76946
L84226 76974
" />
<path d="M84816 77171
L85266 77171
" />
<path d="M85519 76861
L85547 76833
L85604 76805
L85744 76805
L85800 76833
L85829 76861
L85857 76917
L85857 76974
L85829 77058
L85491 77395
L85857 77395
" />
<path d="M86110 77395
L86110 76805
" />
<path d="M86110 77030
L86166 77002
L86278 77002
L86335 77030
L86363 77058
L86391 77114
L86391 77283
L86363 77339
L86335 77367
L86278 77395
L86166 77395
L86110 77367
" />
<path d="M86897 77002
L86897 77395
" />
<path d="M86644 77002
L86644 77311
L86672 77367
L86728 77395
L86813 77395
L86869 77367
L86897 77339
" />
<path d="M87178 77395
L87178 77002
" />
<path d="M87178 76805
L87150 76833
L87178 76861
L87206 76833
L87178 76805
L87178 76861
" />
<path d="M87544 77395
L87488 77367
L87460 77311
L87460 76805
" />
<path d="M88022 77395
L88022 76805
" />
<path d="M88022 77367
L87966 77395
L87853 77395
L87797 77367
L87769 77339
L87741 77283
L87741 77114
L87769 77058
L87797 77030
L87853 77002
L87966 77002
L88022 77030
" />
<path d="M88275 76861
L88303 76833
L88359 76805
L88500 76805
L88556 76833
L88584 76861
L88613 76917
L88613 76974
L88584 77058
L88247 77395
L88613 77395
" />
</g>
<g style="fill:#000000; fill-opacity:0.0; 
stroke:#000000; stroke-width:39.3701; stroke-opacity:1; 
stroke-linecap:round; stroke-linejoin:round;">
</g>
<g style="fill:#000000; fill-opacity:0.0; 
stroke:#000000; stroke-width:59.0551; stroke-opacity:1; 
stroke-linecap:round; stroke-linejoin:round;">
<path d="M69685 75396
L112205 75396
" />
</g>
<g style="fill:#000000; fill-opacity:0.0; 
stroke:#000000; stroke-width:39.3701; stroke-opacity:1; 
stroke-linecap:round; stroke-linejoin:round;">
</g>
<g style="fill:#000000; fill-opacity:0.0; 
stroke:#000000; stroke-width:118.11; stroke-opacity:1; 
stroke-linecap:round; stroke-linejoin:round;">
<text x="103544" y="76321.7"
textLength="2336.9" font-size="787.402" lengthAdjust="spacingAndGlyphs"
text-anchor="start" opacity="0">Rev: </text>
<path d="M104099 76293
L103902 76012
" />
<path d="M103761 76293
L103761 75703
L103986 75703
L104042 75731
L104070 75759
L104099 75815
L104099 75899
L104070 75956
L104042 75984
L103986 76012
L103761 76012
" />
<path d="M104577 76265
L104520 76293
L104408 76293
L104352 76265
L104323 76209
L104323 75984
L104352 75928
L104408 75899
L104520 75899
L104577 75928
L104605 75984
L104605 76040
L104323 76096
" />
<path d="M104802 75899
L104942 76293
L105083 75899
" />
<path d="M105308 76237
L105336 76265
L105308 76293
L105280 76265
L105308 76237
L105308 76293
" />
<path d="M105308 75928
L105336 75956
L105308 75984
L105280 75956
L105308 75928
L105308 75984
" />
</g>
<g style="fill:#000000; fill-opacity:0.0; 
stroke:#000000; stroke-width:39.3701; stroke-opacity:1; 
stroke-linecap:round; stroke-linejoin:round;">
</g>
<g style="fill:#000000; fill-opacity:0.0; 
stroke:#000000; stroke-width:59.0551; stroke-opacity:1; 
stroke-linecap:round; stroke-linejoin:round;">
<text x="70079.6" y="76321.7"
textLength="3781.21" font-size="787.402" lengthAdjust="spacingAndGlyphs"
text-anchor="start" opacity="0">Size: A4</text>
<path d="M70221 76265
L70305 76293
L70446 76293
L70502 76265
L70530 76237
L70559 76181
L70559 76124
L70530 76068
L70502 76040
L70446 76012
L70334 75984
L70277 75956
L70249 75928
L70221 75871
L70221 75815
L70249 75759
L70277 75731
L70334 75703
L70474 75703
L70559 75731
" />
<path d="M70812 76293
L70812 75899
" />
<path d="M70812 75703
L70784 75731
L70812 75759
L70840 75731
L70812 75703
L70812 75759
" />
<path d="M71037 75899
L71346 75899
L71037 76293
L71346 76293
" />
<path d="M71796 76265
L71740 76293
L71627 76293
L71571 76265
L71543 76209
L71543 75984
L71571 75928
L71627 75899
L71740 75899
L71796 75928
L71824 75984
L71824 76040
L71543 76096
" />
<path d="M72077 76237
L72105 76265
L72077 76293
L72049 76265
L72077 76237
L72077 76293
" />
<path d="M72077 75928
L72105 75956
L72077 75984
L72049 75956
L72077 75928
L72077 75984
" />
<path d="M72780 76124
L73061 76124
" />
<path d="M72724 76293
L72921 75703
L73118 76293
" />
<path d="M73568 75899
L73568 76293
" />
<path d="M73427 75674
L73286 76096
L73652 76096
" />
</g>
<g style="fill:#000000; fill-opacity:0.0; 
stroke:#000000; stroke-width:39.3701; stroke-opacity:1; 
stroke-linecap:round; stroke-linejoin:round;">
</g>
<g style="fill:#000000; fill-opacity:0.0; 
stroke:#000000; stroke-width:59.0551; stroke-opacity:1; 
stroke-linecap:round; stroke-linejoin:round;">
<text x="103544" y="77424.1"
textLength="3349.27" font-size="787.402" lengthAdjust="spacingAndGlyphs"
text-anchor="start" opacity="0">Id: 1/1</text>
<path d="M103714 77395
L103714 76805
" />
<path d="M104248 77395
L104248 76805
" />
<path d="M104248 77367
L104192 77395
L104079 77395
L104023 77367
L103995 77339
L103967 77283
L103967 77114
L103995 77058
L104023 77030
L104079 77002
L104192 77002
L104248 77030
" />
<path d="M104529 77339
L104557 77367
L104529 77395
L104501 77367
L104529 77339
L104529 77395
" />
<path d="M104529 77030
L104557 77058
L104529 77086
L104501 77058
L104529 77030
L104529 77086
" />
<path d="M105570 77395
L105232 77395
" />
<path d="M105401 77395
L105401 76805
L105345 76889
L105289 76946
L105232 76974
" />
<path d="M106245 76777
L105739 77536
" />
<path d="M106751 77395
L106413 77395
" />
<path d="M106582 77395
L106582 76805
L106526 76889
L106470 76946
L106413 76974
" />
</g>
<g style="fill:#000000; fill-opacity:0.0; 
stroke:#000000; stroke-width:39.3701; stroke-opacity:1; 
stroke-linecap:round; stroke-linejoin:round;">
</g>
<g style="fill:#000000; fill-opacity:0.0; 
stroke:#000000; stroke-width:59.0551; stroke-opacity:1; 
stroke-linecap:round; stroke-linejoin:round;">
<path d="M69685 73821
L112205 73821
" />
</g>
<g style="fill:#000000; fill-opacity:0.0; 
stroke:#000000; stroke-width:39.3701; stroke-opacity:1; 
stroke-linecap:round; stroke-linejoin:round;">
</g>
<g style="fill:#000000; fill-opacity:0.0; 
stroke:#000000; stroke-width:157.48; stroke-opacity:1; 
stroke-linecap:round; stroke-linejoin:round;">
<text x="70079.6" y="74924.1"
textLength="3701.14" font-size="1049.87" lengthAdjust="spacingAndGlyphs"
text-anchor="start" opacity="0">Title: </text>
<path d="M70360 74099
L70810 74099
" />
<path d="M70486 74886
L70585 74099
" />
<path d="M70974 74886
L71039 74361
" />
<path d="M71072 74099
L71030 74136
L71063 74174
L71105 74136
L71072 74099
L71063 74174
" />
<path d="M71302 74361
L71602 74361
" />
<path d="M71447 74099
L71363 74774
L71391 74849
L71461 74886
L71536 74886
" />
<path d="M71911 74886
L71841 74849
L71813 74774
L71897 74099
" />
<path d="M72516 74849
L72436 74886
L72286 74886
L72216 74849
L72187 74774
L72225 74474
L72272 74399
L72352 74361
L72501 74361
L72572 74399
L72600 74474
L72591 74549
L72206 74624
" />
<path d="M72895 74811
L72928 74849
L72886 74886
L72853 74849
L72895 74811
L72886 74886
" />
<path d="M72947 74399
L72980 74436
L72937 74474
L72905 74436
L72947 74399
L72937 74474
" />
</g>
<g style="fill:#000000; fill-opacity:0.0; 
stroke:#000000; stroke-width:39.3701; stroke-opacity:1; 
stroke-linecap:round; stroke-linejoin:round;">
</g>
<g style="fill:#000000; fill-opacity:0.0; 
stroke:#000000; stroke-width:59.0551; stroke-opacity:1; 
stroke-linecap:round; stroke-linejoin:round;">
<text x="70079.6" y="73408.3"
textLength="11650.2" font-size="787.402" lengthAdjust="spacingAndGlyphs"
text-anchor="start" opacity="0">File: touch_kb1.kicad_pcb</text>
<path d="M70446 73070
L70249 73070
" />
<path d="M70249 73380
L70249 72789
L70530 72789
" />
<path d="M70755 73380
L70755 72986
" />
<path d="M70755 72789
L70727 72817
L70755 72845
L70784 72817
L70755 72789
L70755 72845
" />
<path d="M71121 73380
L71065 73352
L71037 73295
L71037 72789
" />
<path d="M71571 73352
L71515 73380
L71402 73380
L71346 73352
L71318 73295
L71318 73070
L71346 73014
L71402 72986
L71515 72986
L71571 73014
L71599 73070
L71599 73127
L71318 73183
" />
<path d="M71852 73323
L71880 73352
L71852 73380
L71824 73352
L71852 73323
L71852 73380
" />
<path d="M71852 73014
L71880 73042
L71852 73070
L71824 73042
L71852 73014
L71852 73070
" />
<path d="M72499 72986
L72724 72986
" />
<path d="M72583 72789
L72583 73295
L72611 73352
L72668 73380
L72724 73380
" />
<path d="M73005 73380
L72949 73352
L72921 73323
L72893 73267
L72893 73099
L72921 73042
L72949 73014
L73005 72986
L73090 72986
L73146 73014
L73174 73042
L73202 73099
L73202 73267
L73174 73323
L73146 73352
L73090 73380
L73005 73380
" />
<path d="M73708 72986
L73708 73380
" />
<path d="M73455 72986
L73455 73295
L73483 73352
L73539 73380
L73624 73380
L73680 73352
L73708 73323
" />
<path d="M74242 73352
L74186 73380
L74074 73380
L74018 73352
L73989 73323
L73961 73267
L73961 73099
L73989 73042
L74018 73014
L74074 72986
L74186 72986
L74242 73014
" />
<path d="M74496 73380
L74496 72789
" />
<path d="M74749 73380
L74749 73070
L74721 73014
L74664 72986
L74580 72986
L74524 73014
L74496 73042
" />
<path d="M74889 73436
L75339 73436
" />
<path d="M75480 73380
L75480 72789
" />
<path d="M75536 73155
L75705 73380
" />
<path d="M75705 72986
L75480 73211
" />
<path d="M75958 73380
L75958 72789
" />
<path d="M75958 73014
L76014 72986
L76127 72986
L76183 73014
L76211 73042
L76239 73099
L76239 73267
L76211 73323
L76183 73352
L76127 73380
L76014 73380
L75958 73352
" />
<path d="M76802 73380
L76464 73380
" />
<path d="M76633 73380
L76633 72789
L76577 72874
L76520 72930
L76464 72958
" />
<path d="M77055 73323
L77083 73352
L77055 73380
L77027 73352
L77055 73323
L77055 73380
" />
<path d="M77336 73380
L77336 72789
" />
<path d="M77392 73155
L77561 73380
" />
<path d="M77561 72986
L77336 73211
" />
<path d="M77814 73380
L77814 72986
" />
<path d="M77814 72789
L77786 72817
L77814 72845
L77842 72817
L77814 72789
L77814 72845
" />
<path d="M78348 73352
L78292 73380
L78180 73380
L78123 73352
L78095 73323
L78067 73267
L78067 73099
L78095 73042
L78123 73014
L78180 72986
L78292 72986
L78348 73014
" />
<path d="M78854 73380
L78854 73070
L78826 73014
L78770 72986
L78658 72986
L78601 73014
" />
<path d="M78854 73352
L78798 73380
L78658 73380
L78601 73352
L78573 73295
L78573 73239
L78601 73183
L78658 73155
L78798 73155
L78854 73127
" />
<path d="M79389 73380
L79389 72789
" />
<path d="M79389 73352
L79332 73380
L79220 73380
L79164 73352
L79136 73323
L79108 73267
L79108 73099
L79136 73042
L79164 73014
L79220 72986
L79332 72986
L79389 73014
" />
<path d="M79529 73436
L79979 73436
" />
<path d="M80120 72986
L80120 73577
" />
<path d="M80120 73014
L80176 72986
L80289 72986
L80345 73014
L80373 73042
L80401 73099
L80401 73267
L80373 73323
L80345 73352
L80289 73380
L80176 73380
L80120 73352
" />
<path d="M80907 73352
L80851 73380
L80739 73380
L80682 73352
L80654 73323
L80626 73267
L80626 73099
L80654 73042
L80682 73014
L80739 72986
L80851 72986
L80907 73014
" />
<path d="M81160 73380
L81160 72789
" />
<path d="M81160 73014
L81217 72986
L81329 72986
L81385 73014
L81413 73042
L81442 73099
L81442 73267
L81413 73323
L81385 73352
L81329 73380
L81217 73380
L81160 73352
" />
</g>
<g style="fill:#000000; fill-opacity:0.0; 
stroke:#000000; stroke-width:39.3701; stroke-opacity:1; 
stroke-linecap:round; stroke-linejoin:round;">
</g>
<g style="fill:#000000; fill-opacity:0.0; 
stroke:#000000; stroke-width:59.0551; stroke-opacity:1; 
stroke-linecap:round; stroke-linejoin:round;">
<path d="M69685 71459
L112205 71459
" />
</g>
<g style="fill:#000000; fill-opacity:0.0; 
stroke:#000000; stroke-width:39.3701; stroke-opacity:1; 
stroke-linecap:round; stroke-linejoin:round;">
</g>
<g style="fill:#000000; fill-opacity:0.0; 
stroke:#000000; stroke-width:59.0551; stroke-opacity:1; 
stroke-linecap:round; stroke-linejoin:round;">
<text x="70079.6" y="72345.4"
textLength="3236.78" font-size="787.402" lengthAdjust="spacingAndGlyphs"
text-anchor="start" opacity="0">Sheet: </text>
<path d="M70221 72289
L70305 72317
L70446 72317
L70502 72289
L70530 72260
L70559 72204
L70559 72148
L70530 72092
L70502 72064
L70446 72036
L70334 72007
L70277 71979
L70249 71951
L70221 71895
L70221 71839
L70249 71782
L70277 71754
L70334 71726
L70474 71726
L70559 71754
" />
<path d="M70812 72317
L70812 71726
" />
<path d="M71065 72317
L71065 72007
L71037 71951
L70980 71923
L70896 71923
L70840 71951
L70812 71979
" />
<path d="M71571 72289
L71515 72317
L71402 72317
L71346 72289
L71318 72232
L71318 72007
L71346 71951
L71402 71923
L71515 71923
L71571 71951
L71599 72007
L71599 72064
L71318 72120
" />
<path d="M72077 72289
L72021 72317
L71908 72317
L71852 72289
L71824 72232
L71824 72007
L71852 71951
L71908 71923
L72021 71923
L72077 71951
L72105 72007
L72105 72064
L71824 72120
" />
<path d="M72274 71923
L72499 71923
" />
<path d="M72358 71726
L72358 72232
L72386 72289
L72443 72317
L72499 72317
" />
<path d="M72696 72260
L72724 72289
L72696 72317
L72668 72289
L72696 72260
L72696 72317
" />
<path d="M72696 71951
L72724 71979
L72696 72007
L72668 71979
L72696 71951
L72696 72007
" />
</g>
<g style="fill:#000000; fill-opacity:0.0; 
stroke:#000000; stroke-width:39.3701; stroke-opacity:1; 
stroke-linecap:round; stroke-linejoin:round;">
</g>
<g style="fill:#000000; fill-opacity:0.0; 
stroke:#000000; stroke-width:59.0551; stroke-opacity:1; 
stroke-linecap:round; stroke-linejoin:round;">
<path d="M77559 75396
L77559 76577
" />
</g>
<g style="fill:#000000; fill-opacity:0.0; 
stroke:#000000; stroke-width:39.3701; stroke-opacity:1; 
stroke-linecap:round; stroke-linejoin:round;">
</g>
<g style="fill:#000000; fill-opacity:0.0; 
stroke:#000000; stroke-width:59.0551; stroke-opacity:1; 
stroke-linecap:round; stroke-linejoin:round;">
<path d="M102756 75396
L102756 77955
" />
</g>
<g style="fill:#008484; fill-opacity:0.0; 
stroke:#008484; stroke-width:59.0551; stroke-opacity:1; 
stroke-linecap:round; stroke-linejoin:round;">
</g>
<g style="fill:#008484; fill-opacity:0.0; 
stroke:#008484; stroke-width:118.11; stroke-opacity:1; 
stroke-linecap:round; stroke-linejoin:round;">
<text x="85178" y="42819.1"
textLength="4483.5" font-size="1049.87" lengthAdjust="spacingAndGlyphs"
text-anchor="middle" opacity="0">RELOAD</text>
<path d="M83603 42781
L83340 42406
" />
<path d="M83153 42781
L83153 41994
L83453 41994
L83528 42031
L83565 42069
L83603 42144
L83603 42256
L83565 42331
L83528 42369
L83453 42406
L83153 42406
" />
<path d="M83940 42369
L84203 42369
" />
<path d="M84315 42781
L83940 42781
L83940 41994
L84315 41994
" />
<path d="M85027 42781
L84653 42781
L84653 41994
" />
<path d="M85440 41994
L85590 41994
L85665 42031
L85740 42106
L85777 42256
L85777 42519
L85740 42669
L85665 42744
L85590 42781
L85440 42781
L85365 42744
L85290 42669
L85252 42519
L85252 42256
L85290 42106
L85365 42031
L85440 41994
" />
<path d="M86077 42556
L86452 42556
" />
<path d="M86002 42781
L86265 41994
L86527 42781
" />
<path d="M86790 42781
L86790 41994
L86977 41994
L87090 42031
L87165 42106
L87202 42181
L87240 42331
L87240 42444
L87202 42594
L87165 42669
L87090 42744
L86977 42781
L86790 42781
" />
<text x="89038" y="36959.1"
textLength="3453.13" font-size="1049.87" lengthAdjust="spacingAndGlyphs"
text-anchor="middle" opacity="0">DUMP</text>
<path d="M87575 36921
L87575 36134
L87763 36134
L87875 36171
L87950 36246
L87988 36321
L88025 36471
L88025 36584
L87988 36734
L87950 36809
L87875 36884
L87763 36921
L87575 36921
" />
<path d="M88363 36134
L88363 36771
L88400 36846
L88438 36884
L88513 36921
L88662 36921
L88737 36884
L88775 36846
L88812 36771
L88812 36134
" />
<path d="M89187 36921
L89187 36134
L89450 36696
L89712 36134
L89712 36921
" />
<path d="M90087 36921
L90087 36134
L90387 36134
L90462 36171
L90500 36209
L90537 36284
L90537 36396
L90500 36471
L90462 36509
L90387 36546
L90087 36546
" />
<text x="85238" y="31059.1"
textLength="3453.13" font-size="1049.87" lengthAdjust="spacingAndGlyphs"
text-anchor="middle" opacity="0">DUMP</text>
<path d="M83775 31021
L83775 30234
L83963 30234
L84075 30271
L84150 30346
L84188 30421
L84225 30571
L84225 30684
L84188 30834
L84150 30909
L84075 30984
L83963 31021
L83775 31021
" />
<path d="M84563 30234
L84563 30871
L84600 30946
L84638 30984
L84713 31021
L84862 31021
L84937 30984
L84975 30946
L85012 30871
L85012 30234
" />
<path d="M85387 31021
L85387 30234
L85650 30796
L85912 30234
L85912 31021
" />
<path d="M86287 31021
L86287 30234
L86587 30234
L86662 30271
L86700 30309
L86737 30384
L86737 30496
L86700 30571
L86662 30609
L86587 30646
L86287 30646
" />
</g>
<g style="fill:#008484; fill-opacity:0.0; 
stroke:#008484; stroke-width:236.22; stroke-opacity:1; 
stroke-linecap:round; stroke-linejoin:round;">
<text x="70358" y="37312.8"
textLength="1728.35" font-size="2099.74" lengthAdjust="spacingAndGlyphs"
text-anchor="middle" opacity="0">C</text>
<path d="M70845 37087
L70770 37162
L70545 37237
L70395 37237
L70170 37162
L70020 37012
L69945 36862
L69870 36562
L69870 36337
L69945 36037
L70020 35887
L70170 35737
L70395 35662
L70545 35662
L70770 35737
L70845 35812
" />
<text x="67478" y="31412.8"
textLength="1881.89" font-size="2099.74" lengthAdjust="spacingAndGlyphs"
text-anchor="middle" opacity="0">B</text>
<path d="M67590 30512
L67815 30587
L67890 30662
L67965 30812
L67965 31037
L67890 31187
L67815 31262
L67665 31337
L67065 31337
L67065 29762
L67590 29762
L67740 29837
L67815 29912
L67890 30062
L67890 30212
L67815 30362
L67740 30437
L67590 30512
L67065 30512
" />
<text x="64498" y="25392.8"
textLength="1656.92" font-size="2099.74" lengthAdjust="spacingAndGlyphs"
text-anchor="middle" opacity="0">A</text>
<path d="M64122 24867
L64872 24867
" />
<path d="M63973 25317
L64497 23742
L65022 25317
" />
</g>
<g style="fill:#008484; fill-opacity:0.0; 
stroke:#008484; stroke-width:118.11; stroke-opacity:1; 
stroke-linecap:round; stroke-linejoin:round;">
<text x="67478" y="42049.4"
textLength="1469.44" font-size="1049.87" lengthAdjust="spacingAndGlyphs"
text-anchor="middle" opacity="0">KI</text>
<path d="M67084 42011
L67084 41224
" />
<path d="M67534 42011
L67196 41562
" />
<path d="M67534 41224
L67084 41674
" />
<path d="M67871 42011
L67871 41224
" />
<text x="67478" y="43348.7"
textLength="3715.6" font-size="1049.87" lengthAdjust="spacingAndGlyphs"
text-anchor="middle" opacity="0">RESET</text>
<path d="M66334 43311
L66071 42936
" />
<path d="M65884 43311
L65884 42523
L66184 42523
L66259 42561
L66296 42598
L66334 42673
L66334 42786
L66296 42861
L66259 42898
L66184 42936
L65884 42936
" />
<path d="M66671 42898
L66934 42898
" />
<path d="M67046 43311
L66671 43311
L66671 42523
L67046 42523
" />
<path d="M67346 43273
L67459 43311
L67646 43311
L67721 43273
L67759 43236
L67796 43161
L67796 43086
L67759 43011
L67721 42973
L67646 42936
L67496 42898
L67421 42861
L67384 42823
L67346 42748
L67346 42673
L67384 42598
L67421 42561
L67496 42523
L67684 42523
L67796 42561
" />
<path d="M68134 42898
L68396 42898
" />
<path d="M68509 43311
L68134 43311
L68134 42523
L68509 42523
" />
<path d="M68734 42523
L69183 42523
" />
<path d="M68959 43311
L68959 42523
" />
<text x="73418" y="31039.1"
textLength="3115.67" font-size="1049.87" lengthAdjust="spacingAndGlyphs"
text-anchor="middle" opacity="0">STOP</text>
<path d="M72086 30964
L72199 31001
L72386 31001
L72461 30964
L72499 30926
L72536 30851
L72536 30776
L72499 30701
L72461 30664
L72386 30626
L72236 30589
L72161 30551
L72124 30514
L72086 30439
L72086 30364
L72124 30289
L72161 30251
L72236 30214
L72424 30214
L72536 30251
" />
<path d="M72761 30214
L73211 30214
" />
<path d="M72986 31001
L72986 30214
" />
<path d="M73624 30214
L73774 30214
L73849 30251
L73924 30326
L73961 30476
L73961 30739
L73924 30889
L73849 30964
L73774 31001
L73624 31001
L73549 30964
L73474 30889
L73436 30739
L73436 30476
L73474 30326
L73549 30251
L73624 30214
" />
<path d="M74299 31001
L74299 30214
L74599 30214
L74674 30251
L74711 30289
L74749 30364
L74749 30476
L74711 30551
L74674 30589
L74599 30626
L74299 30626
" />
<text x="70358" y="25099.1"
textLength="2590.74" font-size="1049.87" lengthAdjust="spacingAndGlyphs"
text-anchor="middle" opacity="0">RUN</text>
<path d="M69776 25061
L69514 24686
" />
<path d="M69326 25061
L69326 24274
L69626 24274
L69701 24311
L69739 24349
L69776 24424
L69776 24536
L69739 24611
L69701 24649
L69626 24686
L69326 24686
" />
<path d="M70114 24274
L70114 24911
L70151 24986
L70189 25024
L70264 25061
L70414 25061
L70489 25024
L70526 24986
L70564 24911
L70564 24274
" />
<path d="M70939 25061
L70939 24274
L71389 25061
L71389 24274
" />
</g>
<g style="fill:#008484; fill-opacity:0.0; 
stroke:#008484; stroke-width:236.22; stroke-opacity:1; 
stroke-linecap:round; stroke-linejoin:round;">
<text x="55678" y="43212.8"
textLength="1653.36" font-size="2099.74" lengthAdjust="spacingAndGlyphs"
text-anchor="middle" opacity="0">0</text>
<path d="M55602 41562
L55752 41562
L55902 41637
L55977 41712
L56052 41862
L56127 42162
L56127 42537
L56052 42837
L55977 42987
L55902 43062
L55752 43137
L55602 43137
L55452 43062
L55377 42987
L55302 42837
L55228 42537
L55228 42162
L55302 41862
L55377 41712
L55452 41637
L55602 41562
" />
<text x="49758" y="43212.8"
textLength="1806.9" font-size="2099.74" lengthAdjust="spacingAndGlyphs"
text-anchor="middle" opacity="0">9</text>
<path d="M49457 43137
L49757 43137
L49907 43062
L49982 42987
L50132 42762
L50207 42462
L50207 41862
L50132 41712
L50057 41637
L49907 41562
L49607 41562
L49457 41637
L49382 41712
L49308 41862
L49308 42237
L49382 42387
L49457 42462
L49607 42537
L49907 42537
L50057 42462
L50132 42387
L50207 42237
" />
<text x="43838" y="43232.8"
textLength="1806.9" font-size="2099.74" lengthAdjust="spacingAndGlyphs"
text-anchor="middle" opacity="0">8</text>
<path d="M43687 42257
L43537 42182
L43462 42107
L43388 41957
L43388 41882
L43462 41732
L43537 41657
L43687 41582
L43987 41582
L44137 41657
L44212 41732
L44287 41882
L44287 41957
L44212 42107
L44137 42182
L43987 42257
L43687 42257
L43537 42332
L43462 42407
L43388 42557
L43388 42857
L43462 43007
L43537 43082
L43687 43157
L43987 43157
L44137 43082
L44212 43007
L44287 42857
L44287 42557
L44212 42407
L44137 42332
L43987 42257
" />
<text x="37898" y="43232.8"
textLength="1806.9" font-size="2099.74" lengthAdjust="spacingAndGlyphs"
text-anchor="middle" opacity="0">7</text>
<path d="M37373 41582
L38422 41582
L37747 43157
" />
<text x="52738" y="37392.8"
textLength="1806.9" font-size="2099.74" lengthAdjust="spacingAndGlyphs"
text-anchor="middle" opacity="0">6</text>
<path d="M53037 35742
L52737 35742
L52587 35817
L52512 35892
L52362 36117
L52288 36417
L52288 37017
L52362 37167
L52437 37242
L52587 37317
L52887 37317
L53037 37242
L53112 37167
L53187 37017
L53187 36642
L53112 36492
L53037 36417
L52887 36342
L52587 36342
L52437 36417
L52362 36492
L52288 36642
" />
<text x="46838" y="37332.8"
textLength="1806.9" font-size="2099.74" lengthAdjust="spacingAndGlyphs"
text-anchor="middle" opacity="0">5</text>
<path d="M47212 35682
L46462 35682
L46388 36432
L46462 36357
L46612 36282
L46987 36282
L47137 36357
L47212 36432
L47287 36582
L47287 36957
L47212 37107
L47137 37182
L46987 37257
L46612 37257
L46462 37182
L46388 37107
" />
<text x="40718" y="37392.8"
textLength="1806.9" font-size="2099.74" lengthAdjust="spacingAndGlyphs"
text-anchor="middle" opacity="0">4</text>
<path d="M41017 36267
L41017 37317
" />
<path d="M40642 35667
L40268 36792
L41242 36792
" />
<text x="49818" y="31352.8"
textLength="1806.9" font-size="2099.74" lengthAdjust="spacingAndGlyphs"
text-anchor="middle" opacity="0">3</text>
<path d="M49293 29702
L50267 29702
L49742 30302
L49967 30302
L50117 30377
L50192 30452
L50267 30602
L50267 30977
L50192 31127
L50117 31202
L49967 31277
L49517 31277
L49368 31202
L49293 31127
" />
<text x="43778" y="31232.8"
textLength="1806.9" font-size="2099.74" lengthAdjust="spacingAndGlyphs"
text-anchor="middle" opacity="0">2</text>
<path d="M43328 29732
L43402 29657
L43552 29582
L43927 29582
L44077 29657
L44152 29732
L44227 29882
L44227 30032
L44152 30257
L43253 31157
L44227 31157
" />
<text x="37918" y="31292.8"
textLength="1806.9" font-size="2099.74" lengthAdjust="spacingAndGlyphs"
text-anchor="middle" opacity="0">1</text>
<path d="M38367 31217
L37468 31217
" />
<path d="M37917 31217
L37917 29642
L37767 29867
L37617 30017
L37468 30092
" />
</g>
<g style="fill:#008484; fill-opacity:0.0; 
stroke:#008484; stroke-width:393.701; stroke-opacity:1; 
stroke-linecap:round; stroke-linejoin:round;">
<text x="52738" y="24946.5"
textLength="1431.95" font-size="3149.61" lengthAdjust="spacingAndGlyphs"
text-anchor="middle" opacity="0">.</text>
<path d="M52737 24608
L52850 24721
L52737 24833
L52625 24721
L52737 24608
L52737 24833
" />
</g>
<g style="fill:#008484; fill-opacity:0.0; 
stroke:#008484; stroke-width:236.22; stroke-opacity:1; 
stroke-linecap:round; stroke-linejoin:round;">
<text x="46758" y="25412.8"
textLength="2461.57" font-size="2099.74" lengthAdjust="spacingAndGlyphs"
text-anchor="middle" opacity="0">-</text>
<path d="M46158 24737
L47357 24737
" />
</g>
<g style="fill:#008484; fill-opacity:0.0; 
stroke:#008484; stroke-width:118.11; stroke-opacity:1; 
stroke-linecap:round; stroke-linejoin:round;">
<text x="40858" y="25139.1"
textLength="3906.64" font-size="1049.87" lengthAdjust="spacingAndGlyphs"
text-anchor="middle" opacity="0">CLEAR</text>
<path d="M39695 25026
L39658 25064
L39545 25101
L39470 25101
L39358 25064
L39283 24989
L39245 24914
L39208 24764
L39208 24651
L39245 24501
L39283 24426
L39358 24351
L39470 24314
L39545 24314
L39658 24351
L39695 24389
" />
<path d="M40408 25101
L40033 25101
L40033 24314
" />
<path d="M40670 24689
L40932 24689
" />
<path d="M41045 25101
L40670 25101
L40670 24314
L41045 24314
" />
<path d="M41345 24876
L41720 24876
" />
<path d="M41270 25101
L41532 24314
L41795 25101
" />
<path d="M42507 25101
L42245 24726
" />
<path d="M42057 25101
L42057 24314
L42357 24314
L42432 24351
L42470 24389
L42507 24464
L42507 24576
L42470 24651
L42432 24689
L42357 24726
L42057 24726
" />
<text x="26118" y="41949.4"
textLength="3490.63" font-size="1049.87" lengthAdjust="spacingAndGlyphs"
text-anchor="middle" opacity="0">NORM</text>
<path d="M24636 41911
L24636 41124
L25086 41911
L25086 41124
" />
<path d="M25611 41124
L25761 41124
L25836 41162
L25911 41237
L25949 41387
L25949 41649
L25911 41799
L25836 41874
L25761 41911
L25611 41911
L25536 41874
L25461 41799
L25424 41649
L25424 41387
L25461 41237
L25536 41162
L25611 41124
" />
<path d="M26736 41911
L26474 41537
" />
<path d="M26286 41911
L26286 41124
L26586 41124
L26661 41162
L26699 41199
L26736 41274
L26736 41387
L26699 41462
L26661 41499
L26586 41537
L26286 41537
" />
<path d="M27074 41911
L27074 41124
L27336 41686
L27599 41124
L27599 41911
" />
<text x="26118" y="43248.7"
textLength="3715.6" font-size="1049.87" lengthAdjust="spacingAndGlyphs"
text-anchor="middle" opacity="0">RESET</text>
<path d="M24974 43211
L24711 42836
" />
<path d="M24524 43211
L24524 42423
L24824 42423
L24899 42461
L24936 42498
L24974 42573
L24974 42686
L24936 42761
L24899 42798
L24824 42836
L24524 42836
" />
<path d="M25311 42798
L25574 42798
" />
<path d="M25686 43211
L25311 43211
L25311 42423
L25686 42423
" />
<path d="M25986 43173
L26099 43211
L26286 43211
L26361 43173
L26399 43136
L26436 43061
L26436 42986
L26399 42911
L26361 42873
L26286 42836
L26136 42798
L26061 42761
L26024 42723
L25986 42648
L25986 42573
L26024 42498
L26061 42461
L26136 42423
L26324 42423
L26436 42461
" />
<path d="M26774 42798
L27036 42798
" />
<path d="M27149 43211
L26774 43211
L26774 42423
L27149 42423
" />
<path d="M27374 42423
L27823 42423
" />
<path d="M27599 43211
L27599 42423
" />
<text x="29038" y="36129.4"
textLength="2928.2" font-size="1049.87" lengthAdjust="spacingAndGlyphs"
text-anchor="middle" opacity="0">INCR</text>
<path d="M27838 36091
L27838 35304
" />
<path d="M28213 36091
L28213 35304
L28662 36091
L28662 35304
" />
<path d="M29487 36016
L29450 36054
L29337 36091
L29262 36091
L29150 36054
L29075 35979
L29037 35904
L29000 35754
L29000 35642
L29037 35492
L29075 35417
L29150 35342
L29262 35304
L29337 35304
L29450 35342
L29487 35379
" />
<path d="M30275 36091
L30012 35717
" />
<path d="M29825 36091
L29825 35304
L30125 35304
L30200 35342
L30237 35379
L30275 35454
L30275 35567
L30237 35642
L30200 35679
L30125 35717
L29825 35717
" />
<text x="29038" y="37428.7"
textLength="3190.66" font-size="1049.87" lengthAdjust="spacingAndGlyphs"
text-anchor="middle" opacity="0">ADDR</text>
<path d="M27669 37166
L28044 37166
" />
<path d="M27594 37391
L27856 36603
L28119 37391
" />
<path d="M28381 37391
L28381 36603
L28569 36603
L28681 36641
L28756 36716
L28794 36791
L28831 36941
L28831 37053
L28794 37203
L28756 37278
L28681 37353
L28569 37391
L28381 37391
" />
<path d="M29169 37391
L29169 36603
L29356 36603
L29469 36641
L29544 36716
L29581 36791
L29619 36941
L29619 37053
L29581 37203
L29544 37278
L29469 37353
L29356 37391
L29169 37391
" />
<path d="M30406 37391
L30144 37016
" />
<path d="M29956 37391
L29956 36603
L30256 36603
L30331 36641
L30369 36678
L30406 36753
L30406 36866
L30369 36941
L30331 36978
L30256 37016
L29956 37016
" />
<text x="23158" y="36269.4"
textLength="3228.16" font-size="1049.87" lengthAdjust="spacingAndGlyphs"
text-anchor="middle" opacity="0">DECR</text>
<path d="M21808 36231
L21808 35444
L21995 35444
L22108 35482
L22183 35557
L22220 35632
L22258 35782
L22258 35894
L22220 36044
L22183 36119
L22108 36194
L21995 36231
L21808 36231
" />
<path d="M22595 35819
L22857 35819
" />
<path d="M22970 36231
L22595 36231
L22595 35444
L22970 35444
" />
<path d="M23757 36156
L23720 36194
L23607 36231
L23532 36231
L23420 36194
L23345 36119
L23307 36044
L23270 35894
L23270 35782
L23307 35632
L23345 35557
L23420 35482
L23532 35444
L23607 35444
L23720 35482
L23757 35519
" />
<path d="M24545 36231
L24282 35857
" />
<path d="M24095 36231
L24095 35444
L24395 35444
L24470 35482
L24507 35519
L24545 35594
L24545 35707
L24507 35782
L24470 35819
L24395 35857
L24095 35857
" />
<text x="23158" y="37568.7"
textLength="3190.66" font-size="1049.87" lengthAdjust="spacingAndGlyphs"
text-anchor="middle" opacity="0">ADDR</text>
<path d="M21789 37306
L22164 37306
" />
<path d="M21714 37531
L21976 36743
L22239 37531
" />
<path d="M22501 37531
L22501 36743
L22689 36743
L22801 36781
L22876 36856
L22914 36931
L22951 37081
L22951 37193
L22914 37343
L22876 37418
L22801 37493
L22689 37531
L22501 37531
" />
<path d="M23289 37531
L23289 36743
L23476 36743
L23589 36781
L23664 36856
L23701 36931
L23739 37081
L23739 37193
L23701 37343
L23664 37418
L23589 37493
L23476 37531
L23289 37531
" />
<path d="M24526 37531
L24264 37156
" />
<path d="M24076 37531
L24076 36743
L24376 36743
L24451 36781
L24489 36818
L24526 36893
L24526 37006
L24489 37081
L24451 37118
L24376 37156
L24076 37156
" />
<text x="26138" y="30189.4"
textLength="3078.18" font-size="1049.87" lengthAdjust="spacingAndGlyphs"
text-anchor="middle" opacity="0">LOAD</text>
<path d="M25238 30151
L24863 30151
L24863 29364
" />
<path d="M25650 29364
L25800 29364
L25875 29402
L25950 29477
L25987 29627
L25987 29889
L25950 30039
L25875 30114
L25800 30151
L25650 30151
L25575 30114
L25500 30039
L25463 29889
L25463 29627
L25500 29477
L25575 29402
L25650 29364
" />
<path d="M26287 29926
L26662 29926
" />
<path d="M26212 30151
L26475 29364
L26737 30151
" />
<path d="M27000 30151
L27000 29364
L27187 29364
L27300 29402
L27375 29477
L27412 29552
L27450 29702
L27450 29814
L27412 29964
L27375 30039
L27300 30114
L27187 30151
L27000 30151
" />
<text x="26138" y="31488.7"
textLength="3828.08" font-size="1049.87" lengthAdjust="spacingAndGlyphs"
text-anchor="middle" opacity="0">STORE</text>
<path d="M24450 31413
L24563 31451
L24750 31451
L24825 31413
L24863 31376
L24900 31301
L24900 31226
L24863 31151
L24825 31113
L24750 31076
L24600 31038
L24525 31001
L24488 30963
L24450 30888
L24450 30813
L24488 30738
L24525 30701
L24600 30663
L24788 30663
L24900 30701
" />
<path d="M25125 30663
L25575 30663
" />
<path d="M25350 31451
L25350 30663
" />
<path d="M25987 30663
L26137 30663
L26212 30701
L26287 30776
L26325 30926
L26325 31188
L26287 31338
L26212 31413
L26137 31451
L25987 31451
L25912 31413
L25837 31338
L25800 31188
L25800 30926
L25837 30776
L25912 30701
L25987 30663
" />
<path d="M27112 31451
L26850 31076
" />
<path d="M26662 31451
L26662 30663
L26962 30663
L27037 30701
L27075 30738
L27112 30813
L27112 30926
L27075 31001
L27037 31038
L26962 31076
L26662 31076
" />
<path d="M27450 31038
L27712 31038
" />
<path d="M27825 31451
L27450 31451
L27450 30663
L27825 30663
" />
<text x="29098" y="24469.4"
textLength="3078.18" font-size="1049.87" lengthAdjust="spacingAndGlyphs"
text-anchor="middle" opacity="0">LOAD</text>
<path d="M28198 24431
L27823 24431
L27823 23644
" />
<path d="M28610 23644
L28760 23644
L28835 23682
L28910 23757
L28947 23907
L28947 24169
L28910 24319
L28835 24394
L28760 24431
L28610 24431
L28535 24394
L28460 24319
L28423 24169
L28423 23907
L28460 23757
L28535 23682
L28610 23644
" />
<path d="M29247 24206
L29622 24206
" />
<path d="M29172 24431
L29435 23644
L29697 24431
" />
<path d="M29960 24431
L29960 23644
L30147 23644
L30260 23682
L30335 23757
L30372 23832
L30410 23982
L30410 24094
L30372 24244
L30335 24319
L30260 24394
L30147 24431
L29960 24431
" />
<text x="29098" y="25768.7"
textLength="3190.66" font-size="1049.87" lengthAdjust="spacingAndGlyphs"
text-anchor="middle" opacity="0">ADDR</text>
<path d="M27729 25506
L28104 25506
" />
<path d="M27654 25731
L27916 24943
L28179 25731
" />
<path d="M28441 25731
L28441 24943
L28629 24943
L28741 24981
L28816 25056
L28854 25131
L28891 25281
L28891 25393
L28854 25543
L28816 25618
L28741 25693
L28629 25731
L28441 25731
" />
<path d="M29229 25731
L29229 24943
L29416 24943
L29529 24981
L29604 25056
L29641 25131
L29679 25281
L29679 25393
L29641 25543
L29604 25618
L29529 25693
L29416 25731
L29229 25731
" />
<path d="M30466 25731
L30204 25356
" />
<path d="M30016 25731
L30016 24943
L30316 24943
L30391 24981
L30429 25018
L30466 25093
L30466 25206
L30429 25281
L30391 25318
L30316 25356
L30016 25356
" />
<text x="23198" y="24469.4"
textLength="3078.18" font-size="1049.87" lengthAdjust="spacingAndGlyphs"
text-anchor="middle" opacity="0">LOAD</text>
<path d="M22298 24431
L21923 24431
L21923 23644
" />
<path d="M22710 23644
L22860 23644
L22935 23682
L23010 23757
L23047 23907
L23047 24169
L23010 24319
L22935 24394
L22860 24431
L22710 24431
L22635 24394
L22560 24319
L22523 24169
L22523 23907
L22560 23757
L22635 23682
L22710 23644
" />
<path d="M23347 24206
L23722 24206
" />
<path d="M23272 24431
L23535 23644
L23797 24431
" />
<path d="M24060 24431
L24060 23644
L24247 23644
L24360 23682
L24435 23757
L24472 23832
L24510 23982
L24510 24094
L24472 24244
L24435 24319
L24360 24394
L24247 24431
L24060 24431
" />
<text x="23198" y="25768.7"
textLength="1990.81" font-size="1049.87" lengthAdjust="spacingAndGlyphs"
text-anchor="middle" opacity="0">IAR</text>
<path d="M22466 25731
L22466 24943
" />
<path d="M22804 25506
L23179 25506
" />
<path d="M22729 25731
L22991 24943
L23254 25731
" />
<path d="M23966 25731
L23704 25356
" />
<path d="M23516 25731
L23516 24943
L23816 24943
L23891 24981
L23929 25018
L23966 25093
L23966 25206
L23929 25281
L23891 25318
L23816 25356
L23516 25356
" />
</g>
<g style="fill:#008484; fill-opacity:0.0; 
stroke:#008484; stroke-width:47.2441; stroke-opacity:1; 
stroke-linecap:round; stroke-linejoin:round;">
<circle cx="85196.9" cy="42401.6" r="2460.63" /> 
<circle cx="49763.8" cy="30590.6" r="2460.63" /> 
<circle cx="43858.3" cy="30590.6" r="2460.63" /> 
<circle cx="37952.8" cy="30590.6" r="2460.63" /> 
<circle cx="52716.5" cy="24685" r="2460.63" /> 
<circle cx="37952.8" cy="42401.6" r="2460.63" /> 
<circle cx="67480.3" cy="42401.6" r="2460.63" /> 
<circle cx="52716.5" cy="36496.1" r="2460.63" /> 
<circle cx="89133.9" cy="36496.1" r="2460.63" /> 
<circle cx="46811" cy="36496.1" r="2460.63" /> 
<circle cx="85196.9" cy="30590.6" r="2460.63" /> 
<circle cx="40905.5" cy="36496.1" r="2460.63" /> 
<circle cx="29094.5" cy="24685" r="2460.63" /> 
<circle cx="43858.3" cy="42401.6" r="2460.63" /> 
<circle cx="26141.7" cy="30590.6" r="2460.63" /> 
<circle cx="49763.8" cy="42401.6" r="2460.63" /> 
<circle cx="23189" cy="36496.1" r="2460.63" /> 
<circle cx="55669.3" cy="42401.6" r="2460.63" /> 
<circle cx="29094.5" cy="36496.1" r="2460.63" /> 
<circle cx="64527.6" cy="24685" r="2460.63" /> 
<circle cx="23189" cy="24685" r="2460.63" /> 
<circle cx="70433.1" cy="24685" r="2460.63" /> 
<circle cx="26141.7" cy="42204.7" r="2460.63" /> 
<circle cx="67480.3" cy="30590.6" r="2460.63" /> 
<circle cx="40905.5" cy="24685" r="2460.63" /> 
<circle cx="70433.1" cy="36496.1" r="2460.63" /> 
<circle cx="46811" cy="24685" r="2460.63" /> 
<circle cx="73385.8" cy="30590.6" r="2460.63" /> 
<g >
</g>
</g>
<g style="fill:#000000; fill-opacity:0.0; 
stroke:#000000; stroke-width:47.2441; stroke-opacity:1; 
stroke-linecap:round; stroke-linejoin:round;">
</g>
<g style="fill:#C2C200; fill-opacity:0.0; 
stroke:#C2C200; stroke-width:47.2441; stroke-opacity:1; 
stroke-linecap:round; stroke-linejoin:round;">
</g>
<g style="fill:#C2C200; fill-opacity:0.0; 
stroke:#C2C200; stroke-width:19.685; stroke-opacity:1; 
stroke-linecap:round; stroke-linejoin:round;">
<path d="M11377 57165
L11771 57165
" />
<path d="M11377 16023
L11377 57165
" />
<path d="M101535 16023
L11377 16023
" />
<path d="M101535 57165
L101535 16023
" />
<path d="M11771 57165
L101535 57165
" />
<g >
</g>
<g >
</g>
<g >
</g>
<g >
</g>
<g >
</g>
<g >
</g>
<g >
</g>
<g >
</g>
<g >
</g>
<g >
</g>
<g >
</g>
<g >
</g>
<g >
</g>
<g >
</g>
<g >
</g>
<g >
</g>
<g >
</g>
<g >
</g>
<g >
</g>
<g >
</g>
<g >
</g>
<g >
</g>
<g >
</g>
<g >
</g>
<g >
</g>
<g >
</g>
<g >
</g>
<g >
</g>
<g >
</g>
<g >
</g>
<g >
</g>
<g >
</g>
<g >
</g>
<g >
</g>
<g >
</g>
<g >
</g>
<g >
</g>
<g >
</g>
<g >
</g>
<g >
</g>
<g >
</g>
<g >
</g>
<g >
</g>
<g >
</g>
<g >
</g>
<g >
</g>
<g >
</g>
<g >
</g>
<g >
</g>
<g >
</g>
<g >
</g>
<g >
</g>
<g >
</g>
<g >
</g>
<g >
</g>
<g >
</g>
<g >
</g>
<g >
</g>
<g >
</g>
<g >
</g>
<g >
</g>
<g >
</g>
<g >
</g>
<g >
</g>
<g >
</g>
<g >
</g>
<g >
</g>
<g >
</g>
<g >
</g>
<g >
</g>
</g> 
</svg>
