G04 #@! TF.GenerationSoftware,KiCad,Pcbnew,5.1.5+dfsg1-2build2*
G04 #@! TF.CreationDate,2024-05-29T20:17:39+01:00*
G04 #@! TF.ProjectId,desktop_esc,6465736b-746f-4705-9f65-73632e6b6963,rev?*
G04 #@! TF.SameCoordinates,Original*
G04 #@! TF.FileFunction,Paste,Top*
G04 #@! TF.FilePolarity,Positive*
%FSLAX46Y46*%
G04 Gerber Fmt 4.6, Leading zero omitted, Abs format (unit mm)*
G04 Created by KiCad (PCBNEW 5.1.5+dfsg1-2build2) date 2024-05-29 20:17:39*
%MOMM*%
%LPD*%
G04 APERTURE LIST*
%ADD10C,0.100000*%
%ADD11R,0.700000X1.600000*%
%ADD12R,1.200000X1.400000*%
%ADD13R,1.600000X1.400000*%
%ADD14R,1.200000X2.200000*%
%ADD15R,2.000000X1.500000*%
%ADD16R,2.000000X3.800000*%
%ADD17R,1.200000X0.900000*%
G04 APERTURE END LIST*
D10*
G36*
X159719703Y-79325722D02*
G01*
X159734264Y-79327882D01*
X159748543Y-79331459D01*
X159762403Y-79336418D01*
X159775710Y-79342712D01*
X159788336Y-79350280D01*
X159800159Y-79359048D01*
X159811066Y-79368934D01*
X159820952Y-79379841D01*
X159829720Y-79391664D01*
X159837288Y-79404290D01*
X159843582Y-79417597D01*
X159848541Y-79431457D01*
X159852118Y-79445736D01*
X159854278Y-79460297D01*
X159855000Y-79475000D01*
X159855000Y-81225000D01*
X159854278Y-81239703D01*
X159852118Y-81254264D01*
X159848541Y-81268543D01*
X159843582Y-81282403D01*
X159837288Y-81295710D01*
X159829720Y-81308336D01*
X159820952Y-81320159D01*
X159811066Y-81331066D01*
X159800159Y-81340952D01*
X159788336Y-81349720D01*
X159775710Y-81357288D01*
X159762403Y-81363582D01*
X159748543Y-81368541D01*
X159734264Y-81372118D01*
X159719703Y-81374278D01*
X159705000Y-81375000D01*
X159405000Y-81375000D01*
X159390297Y-81374278D01*
X159375736Y-81372118D01*
X159361457Y-81368541D01*
X159347597Y-81363582D01*
X159334290Y-81357288D01*
X159321664Y-81349720D01*
X159309841Y-81340952D01*
X159298934Y-81331066D01*
X159289048Y-81320159D01*
X159280280Y-81308336D01*
X159272712Y-81295710D01*
X159266418Y-81282403D01*
X159261459Y-81268543D01*
X159257882Y-81254264D01*
X159255722Y-81239703D01*
X159255000Y-81225000D01*
X159255000Y-79475000D01*
X159255722Y-79460297D01*
X159257882Y-79445736D01*
X159261459Y-79431457D01*
X159266418Y-79417597D01*
X159272712Y-79404290D01*
X159280280Y-79391664D01*
X159289048Y-79379841D01*
X159298934Y-79368934D01*
X159309841Y-79359048D01*
X159321664Y-79350280D01*
X159334290Y-79342712D01*
X159347597Y-79336418D01*
X159361457Y-79331459D01*
X159375736Y-79327882D01*
X159390297Y-79325722D01*
X159405000Y-79325000D01*
X159705000Y-79325000D01*
X159719703Y-79325722D01*
G37*
G36*
X160989703Y-79325722D02*
G01*
X161004264Y-79327882D01*
X161018543Y-79331459D01*
X161032403Y-79336418D01*
X161045710Y-79342712D01*
X161058336Y-79350280D01*
X161070159Y-79359048D01*
X161081066Y-79368934D01*
X161090952Y-79379841D01*
X161099720Y-79391664D01*
X161107288Y-79404290D01*
X161113582Y-79417597D01*
X161118541Y-79431457D01*
X161122118Y-79445736D01*
X161124278Y-79460297D01*
X161125000Y-79475000D01*
X161125000Y-81225000D01*
X161124278Y-81239703D01*
X161122118Y-81254264D01*
X161118541Y-81268543D01*
X161113582Y-81282403D01*
X161107288Y-81295710D01*
X161099720Y-81308336D01*
X161090952Y-81320159D01*
X161081066Y-81331066D01*
X161070159Y-81340952D01*
X161058336Y-81349720D01*
X161045710Y-81357288D01*
X161032403Y-81363582D01*
X161018543Y-81368541D01*
X161004264Y-81372118D01*
X160989703Y-81374278D01*
X160975000Y-81375000D01*
X160675000Y-81375000D01*
X160660297Y-81374278D01*
X160645736Y-81372118D01*
X160631457Y-81368541D01*
X160617597Y-81363582D01*
X160604290Y-81357288D01*
X160591664Y-81349720D01*
X160579841Y-81340952D01*
X160568934Y-81331066D01*
X160559048Y-81320159D01*
X160550280Y-81308336D01*
X160542712Y-81295710D01*
X160536418Y-81282403D01*
X160531459Y-81268543D01*
X160527882Y-81254264D01*
X160525722Y-81239703D01*
X160525000Y-81225000D01*
X160525000Y-79475000D01*
X160525722Y-79460297D01*
X160527882Y-79445736D01*
X160531459Y-79431457D01*
X160536418Y-79417597D01*
X160542712Y-79404290D01*
X160550280Y-79391664D01*
X160559048Y-79379841D01*
X160568934Y-79368934D01*
X160579841Y-79359048D01*
X160591664Y-79350280D01*
X160604290Y-79342712D01*
X160617597Y-79336418D01*
X160631457Y-79331459D01*
X160645736Y-79327882D01*
X160660297Y-79325722D01*
X160675000Y-79325000D01*
X160975000Y-79325000D01*
X160989703Y-79325722D01*
G37*
G36*
X162259703Y-79325722D02*
G01*
X162274264Y-79327882D01*
X162288543Y-79331459D01*
X162302403Y-79336418D01*
X162315710Y-79342712D01*
X162328336Y-79350280D01*
X162340159Y-79359048D01*
X162351066Y-79368934D01*
X162360952Y-79379841D01*
X162369720Y-79391664D01*
X162377288Y-79404290D01*
X162383582Y-79417597D01*
X162388541Y-79431457D01*
X162392118Y-79445736D01*
X162394278Y-79460297D01*
X162395000Y-79475000D01*
X162395000Y-81225000D01*
X162394278Y-81239703D01*
X162392118Y-81254264D01*
X162388541Y-81268543D01*
X162383582Y-81282403D01*
X162377288Y-81295710D01*
X162369720Y-81308336D01*
X162360952Y-81320159D01*
X162351066Y-81331066D01*
X162340159Y-81340952D01*
X162328336Y-81349720D01*
X162315710Y-81357288D01*
X162302403Y-81363582D01*
X162288543Y-81368541D01*
X162274264Y-81372118D01*
X162259703Y-81374278D01*
X162245000Y-81375000D01*
X161945000Y-81375000D01*
X161930297Y-81374278D01*
X161915736Y-81372118D01*
X161901457Y-81368541D01*
X161887597Y-81363582D01*
X161874290Y-81357288D01*
X161861664Y-81349720D01*
X161849841Y-81340952D01*
X161838934Y-81331066D01*
X161829048Y-81320159D01*
X161820280Y-81308336D01*
X161812712Y-81295710D01*
X161806418Y-81282403D01*
X161801459Y-81268543D01*
X161797882Y-81254264D01*
X161795722Y-81239703D01*
X161795000Y-81225000D01*
X161795000Y-79475000D01*
X161795722Y-79460297D01*
X161797882Y-79445736D01*
X161801459Y-79431457D01*
X161806418Y-79417597D01*
X161812712Y-79404290D01*
X161820280Y-79391664D01*
X161829048Y-79379841D01*
X161838934Y-79368934D01*
X161849841Y-79359048D01*
X161861664Y-79350280D01*
X161874290Y-79342712D01*
X161887597Y-79336418D01*
X161901457Y-79331459D01*
X161915736Y-79327882D01*
X161930297Y-79325722D01*
X161945000Y-79325000D01*
X162245000Y-79325000D01*
X162259703Y-79325722D01*
G37*
G36*
X163529703Y-79325722D02*
G01*
X163544264Y-79327882D01*
X163558543Y-79331459D01*
X163572403Y-79336418D01*
X163585710Y-79342712D01*
X163598336Y-79350280D01*
X163610159Y-79359048D01*
X163621066Y-79368934D01*
X163630952Y-79379841D01*
X163639720Y-79391664D01*
X163647288Y-79404290D01*
X163653582Y-79417597D01*
X163658541Y-79431457D01*
X163662118Y-79445736D01*
X163664278Y-79460297D01*
X163665000Y-79475000D01*
X163665000Y-81225000D01*
X163664278Y-81239703D01*
X163662118Y-81254264D01*
X163658541Y-81268543D01*
X163653582Y-81282403D01*
X163647288Y-81295710D01*
X163639720Y-81308336D01*
X163630952Y-81320159D01*
X163621066Y-81331066D01*
X163610159Y-81340952D01*
X163598336Y-81349720D01*
X163585710Y-81357288D01*
X163572403Y-81363582D01*
X163558543Y-81368541D01*
X163544264Y-81372118D01*
X163529703Y-81374278D01*
X163515000Y-81375000D01*
X163215000Y-81375000D01*
X163200297Y-81374278D01*
X163185736Y-81372118D01*
X163171457Y-81368541D01*
X163157597Y-81363582D01*
X163144290Y-81357288D01*
X163131664Y-81349720D01*
X163119841Y-81340952D01*
X163108934Y-81331066D01*
X163099048Y-81320159D01*
X163090280Y-81308336D01*
X163082712Y-81295710D01*
X163076418Y-81282403D01*
X163071459Y-81268543D01*
X163067882Y-81254264D01*
X163065722Y-81239703D01*
X163065000Y-81225000D01*
X163065000Y-79475000D01*
X163065722Y-79460297D01*
X163067882Y-79445736D01*
X163071459Y-79431457D01*
X163076418Y-79417597D01*
X163082712Y-79404290D01*
X163090280Y-79391664D01*
X163099048Y-79379841D01*
X163108934Y-79368934D01*
X163119841Y-79359048D01*
X163131664Y-79350280D01*
X163144290Y-79342712D01*
X163157597Y-79336418D01*
X163171457Y-79331459D01*
X163185736Y-79327882D01*
X163200297Y-79325722D01*
X163215000Y-79325000D01*
X163515000Y-79325000D01*
X163529703Y-79325722D01*
G37*
G36*
X164799703Y-79325722D02*
G01*
X164814264Y-79327882D01*
X164828543Y-79331459D01*
X164842403Y-79336418D01*
X164855710Y-79342712D01*
X164868336Y-79350280D01*
X164880159Y-79359048D01*
X164891066Y-79368934D01*
X164900952Y-79379841D01*
X164909720Y-79391664D01*
X164917288Y-79404290D01*
X164923582Y-79417597D01*
X164928541Y-79431457D01*
X164932118Y-79445736D01*
X164934278Y-79460297D01*
X164935000Y-79475000D01*
X164935000Y-81225000D01*
X164934278Y-81239703D01*
X164932118Y-81254264D01*
X164928541Y-81268543D01*
X164923582Y-81282403D01*
X164917288Y-81295710D01*
X164909720Y-81308336D01*
X164900952Y-81320159D01*
X164891066Y-81331066D01*
X164880159Y-81340952D01*
X164868336Y-81349720D01*
X164855710Y-81357288D01*
X164842403Y-81363582D01*
X164828543Y-81368541D01*
X164814264Y-81372118D01*
X164799703Y-81374278D01*
X164785000Y-81375000D01*
X164485000Y-81375000D01*
X164470297Y-81374278D01*
X164455736Y-81372118D01*
X164441457Y-81368541D01*
X164427597Y-81363582D01*
X164414290Y-81357288D01*
X164401664Y-81349720D01*
X164389841Y-81340952D01*
X164378934Y-81331066D01*
X164369048Y-81320159D01*
X164360280Y-81308336D01*
X164352712Y-81295710D01*
X164346418Y-81282403D01*
X164341459Y-81268543D01*
X164337882Y-81254264D01*
X164335722Y-81239703D01*
X164335000Y-81225000D01*
X164335000Y-79475000D01*
X164335722Y-79460297D01*
X164337882Y-79445736D01*
X164341459Y-79431457D01*
X164346418Y-79417597D01*
X164352712Y-79404290D01*
X164360280Y-79391664D01*
X164369048Y-79379841D01*
X164378934Y-79368934D01*
X164389841Y-79359048D01*
X164401664Y-79350280D01*
X164414290Y-79342712D01*
X164427597Y-79336418D01*
X164441457Y-79331459D01*
X164455736Y-79327882D01*
X164470297Y-79325722D01*
X164485000Y-79325000D01*
X164785000Y-79325000D01*
X164799703Y-79325722D01*
G37*
G36*
X166069703Y-79325722D02*
G01*
X166084264Y-79327882D01*
X166098543Y-79331459D01*
X166112403Y-79336418D01*
X166125710Y-79342712D01*
X166138336Y-79350280D01*
X166150159Y-79359048D01*
X166161066Y-79368934D01*
X166170952Y-79379841D01*
X166179720Y-79391664D01*
X166187288Y-79404290D01*
X166193582Y-79417597D01*
X166198541Y-79431457D01*
X166202118Y-79445736D01*
X166204278Y-79460297D01*
X166205000Y-79475000D01*
X166205000Y-81225000D01*
X166204278Y-81239703D01*
X166202118Y-81254264D01*
X166198541Y-81268543D01*
X166193582Y-81282403D01*
X166187288Y-81295710D01*
X166179720Y-81308336D01*
X166170952Y-81320159D01*
X166161066Y-81331066D01*
X166150159Y-81340952D01*
X166138336Y-81349720D01*
X166125710Y-81357288D01*
X166112403Y-81363582D01*
X166098543Y-81368541D01*
X166084264Y-81372118D01*
X166069703Y-81374278D01*
X166055000Y-81375000D01*
X165755000Y-81375000D01*
X165740297Y-81374278D01*
X165725736Y-81372118D01*
X165711457Y-81368541D01*
X165697597Y-81363582D01*
X165684290Y-81357288D01*
X165671664Y-81349720D01*
X165659841Y-81340952D01*
X165648934Y-81331066D01*
X165639048Y-81320159D01*
X165630280Y-81308336D01*
X165622712Y-81295710D01*
X165616418Y-81282403D01*
X165611459Y-81268543D01*
X165607882Y-81254264D01*
X165605722Y-81239703D01*
X165605000Y-81225000D01*
X165605000Y-79475000D01*
X165605722Y-79460297D01*
X165607882Y-79445736D01*
X165611459Y-79431457D01*
X165616418Y-79417597D01*
X165622712Y-79404290D01*
X165630280Y-79391664D01*
X165639048Y-79379841D01*
X165648934Y-79368934D01*
X165659841Y-79359048D01*
X165671664Y-79350280D01*
X165684290Y-79342712D01*
X165697597Y-79336418D01*
X165711457Y-79331459D01*
X165725736Y-79327882D01*
X165740297Y-79325722D01*
X165755000Y-79325000D01*
X166055000Y-79325000D01*
X166069703Y-79325722D01*
G37*
G36*
X167339703Y-79325722D02*
G01*
X167354264Y-79327882D01*
X167368543Y-79331459D01*
X167382403Y-79336418D01*
X167395710Y-79342712D01*
X167408336Y-79350280D01*
X167420159Y-79359048D01*
X167431066Y-79368934D01*
X167440952Y-79379841D01*
X167449720Y-79391664D01*
X167457288Y-79404290D01*
X167463582Y-79417597D01*
X167468541Y-79431457D01*
X167472118Y-79445736D01*
X167474278Y-79460297D01*
X167475000Y-79475000D01*
X167475000Y-81225000D01*
X167474278Y-81239703D01*
X167472118Y-81254264D01*
X167468541Y-81268543D01*
X167463582Y-81282403D01*
X167457288Y-81295710D01*
X167449720Y-81308336D01*
X167440952Y-81320159D01*
X167431066Y-81331066D01*
X167420159Y-81340952D01*
X167408336Y-81349720D01*
X167395710Y-81357288D01*
X167382403Y-81363582D01*
X167368543Y-81368541D01*
X167354264Y-81372118D01*
X167339703Y-81374278D01*
X167325000Y-81375000D01*
X167025000Y-81375000D01*
X167010297Y-81374278D01*
X166995736Y-81372118D01*
X166981457Y-81368541D01*
X166967597Y-81363582D01*
X166954290Y-81357288D01*
X166941664Y-81349720D01*
X166929841Y-81340952D01*
X166918934Y-81331066D01*
X166909048Y-81320159D01*
X166900280Y-81308336D01*
X166892712Y-81295710D01*
X166886418Y-81282403D01*
X166881459Y-81268543D01*
X166877882Y-81254264D01*
X166875722Y-81239703D01*
X166875000Y-81225000D01*
X166875000Y-79475000D01*
X166875722Y-79460297D01*
X166877882Y-79445736D01*
X166881459Y-79431457D01*
X166886418Y-79417597D01*
X166892712Y-79404290D01*
X166900280Y-79391664D01*
X166909048Y-79379841D01*
X166918934Y-79368934D01*
X166929841Y-79359048D01*
X166941664Y-79350280D01*
X166954290Y-79342712D01*
X166967597Y-79336418D01*
X166981457Y-79331459D01*
X166995736Y-79327882D01*
X167010297Y-79325722D01*
X167025000Y-79325000D01*
X167325000Y-79325000D01*
X167339703Y-79325722D01*
G37*
G36*
X168609703Y-79325722D02*
G01*
X168624264Y-79327882D01*
X168638543Y-79331459D01*
X168652403Y-79336418D01*
X168665710Y-79342712D01*
X168678336Y-79350280D01*
X168690159Y-79359048D01*
X168701066Y-79368934D01*
X168710952Y-79379841D01*
X168719720Y-79391664D01*
X168727288Y-79404290D01*
X168733582Y-79417597D01*
X168738541Y-79431457D01*
X168742118Y-79445736D01*
X168744278Y-79460297D01*
X168745000Y-79475000D01*
X168745000Y-81225000D01*
X168744278Y-81239703D01*
X168742118Y-81254264D01*
X168738541Y-81268543D01*
X168733582Y-81282403D01*
X168727288Y-81295710D01*
X168719720Y-81308336D01*
X168710952Y-81320159D01*
X168701066Y-81331066D01*
X168690159Y-81340952D01*
X168678336Y-81349720D01*
X168665710Y-81357288D01*
X168652403Y-81363582D01*
X168638543Y-81368541D01*
X168624264Y-81372118D01*
X168609703Y-81374278D01*
X168595000Y-81375000D01*
X168295000Y-81375000D01*
X168280297Y-81374278D01*
X168265736Y-81372118D01*
X168251457Y-81368541D01*
X168237597Y-81363582D01*
X168224290Y-81357288D01*
X168211664Y-81349720D01*
X168199841Y-81340952D01*
X168188934Y-81331066D01*
X168179048Y-81320159D01*
X168170280Y-81308336D01*
X168162712Y-81295710D01*
X168156418Y-81282403D01*
X168151459Y-81268543D01*
X168147882Y-81254264D01*
X168145722Y-81239703D01*
X168145000Y-81225000D01*
X168145000Y-79475000D01*
X168145722Y-79460297D01*
X168147882Y-79445736D01*
X168151459Y-79431457D01*
X168156418Y-79417597D01*
X168162712Y-79404290D01*
X168170280Y-79391664D01*
X168179048Y-79379841D01*
X168188934Y-79368934D01*
X168199841Y-79359048D01*
X168211664Y-79350280D01*
X168224290Y-79342712D01*
X168237597Y-79336418D01*
X168251457Y-79331459D01*
X168265736Y-79327882D01*
X168280297Y-79325722D01*
X168295000Y-79325000D01*
X168595000Y-79325000D01*
X168609703Y-79325722D01*
G37*
G36*
X168609703Y-88625722D02*
G01*
X168624264Y-88627882D01*
X168638543Y-88631459D01*
X168652403Y-88636418D01*
X168665710Y-88642712D01*
X168678336Y-88650280D01*
X168690159Y-88659048D01*
X168701066Y-88668934D01*
X168710952Y-88679841D01*
X168719720Y-88691664D01*
X168727288Y-88704290D01*
X168733582Y-88717597D01*
X168738541Y-88731457D01*
X168742118Y-88745736D01*
X168744278Y-88760297D01*
X168745000Y-88775000D01*
X168745000Y-90525000D01*
X168744278Y-90539703D01*
X168742118Y-90554264D01*
X168738541Y-90568543D01*
X168733582Y-90582403D01*
X168727288Y-90595710D01*
X168719720Y-90608336D01*
X168710952Y-90620159D01*
X168701066Y-90631066D01*
X168690159Y-90640952D01*
X168678336Y-90649720D01*
X168665710Y-90657288D01*
X168652403Y-90663582D01*
X168638543Y-90668541D01*
X168624264Y-90672118D01*
X168609703Y-90674278D01*
X168595000Y-90675000D01*
X168295000Y-90675000D01*
X168280297Y-90674278D01*
X168265736Y-90672118D01*
X168251457Y-90668541D01*
X168237597Y-90663582D01*
X168224290Y-90657288D01*
X168211664Y-90649720D01*
X168199841Y-90640952D01*
X168188934Y-90631066D01*
X168179048Y-90620159D01*
X168170280Y-90608336D01*
X168162712Y-90595710D01*
X168156418Y-90582403D01*
X168151459Y-90568543D01*
X168147882Y-90554264D01*
X168145722Y-90539703D01*
X168145000Y-90525000D01*
X168145000Y-88775000D01*
X168145722Y-88760297D01*
X168147882Y-88745736D01*
X168151459Y-88731457D01*
X168156418Y-88717597D01*
X168162712Y-88704290D01*
X168170280Y-88691664D01*
X168179048Y-88679841D01*
X168188934Y-88668934D01*
X168199841Y-88659048D01*
X168211664Y-88650280D01*
X168224290Y-88642712D01*
X168237597Y-88636418D01*
X168251457Y-88631459D01*
X168265736Y-88627882D01*
X168280297Y-88625722D01*
X168295000Y-88625000D01*
X168595000Y-88625000D01*
X168609703Y-88625722D01*
G37*
G36*
X167339703Y-88625722D02*
G01*
X167354264Y-88627882D01*
X167368543Y-88631459D01*
X167382403Y-88636418D01*
X167395710Y-88642712D01*
X167408336Y-88650280D01*
X167420159Y-88659048D01*
X167431066Y-88668934D01*
X167440952Y-88679841D01*
X167449720Y-88691664D01*
X167457288Y-88704290D01*
X167463582Y-88717597D01*
X167468541Y-88731457D01*
X167472118Y-88745736D01*
X167474278Y-88760297D01*
X167475000Y-88775000D01*
X167475000Y-90525000D01*
X167474278Y-90539703D01*
X167472118Y-90554264D01*
X167468541Y-90568543D01*
X167463582Y-90582403D01*
X167457288Y-90595710D01*
X167449720Y-90608336D01*
X167440952Y-90620159D01*
X167431066Y-90631066D01*
X167420159Y-90640952D01*
X167408336Y-90649720D01*
X167395710Y-90657288D01*
X167382403Y-90663582D01*
X167368543Y-90668541D01*
X167354264Y-90672118D01*
X167339703Y-90674278D01*
X167325000Y-90675000D01*
X167025000Y-90675000D01*
X167010297Y-90674278D01*
X166995736Y-90672118D01*
X166981457Y-90668541D01*
X166967597Y-90663582D01*
X166954290Y-90657288D01*
X166941664Y-90649720D01*
X166929841Y-90640952D01*
X166918934Y-90631066D01*
X166909048Y-90620159D01*
X166900280Y-90608336D01*
X166892712Y-90595710D01*
X166886418Y-90582403D01*
X166881459Y-90568543D01*
X166877882Y-90554264D01*
X166875722Y-90539703D01*
X166875000Y-90525000D01*
X166875000Y-88775000D01*
X166875722Y-88760297D01*
X166877882Y-88745736D01*
X166881459Y-88731457D01*
X166886418Y-88717597D01*
X166892712Y-88704290D01*
X166900280Y-88691664D01*
X166909048Y-88679841D01*
X166918934Y-88668934D01*
X166929841Y-88659048D01*
X166941664Y-88650280D01*
X166954290Y-88642712D01*
X166967597Y-88636418D01*
X166981457Y-88631459D01*
X166995736Y-88627882D01*
X167010297Y-88625722D01*
X167025000Y-88625000D01*
X167325000Y-88625000D01*
X167339703Y-88625722D01*
G37*
G36*
X166069703Y-88625722D02*
G01*
X166084264Y-88627882D01*
X166098543Y-88631459D01*
X166112403Y-88636418D01*
X166125710Y-88642712D01*
X166138336Y-88650280D01*
X166150159Y-88659048D01*
X166161066Y-88668934D01*
X166170952Y-88679841D01*
X166179720Y-88691664D01*
X166187288Y-88704290D01*
X166193582Y-88717597D01*
X166198541Y-88731457D01*
X166202118Y-88745736D01*
X166204278Y-88760297D01*
X166205000Y-88775000D01*
X166205000Y-90525000D01*
X166204278Y-90539703D01*
X166202118Y-90554264D01*
X166198541Y-90568543D01*
X166193582Y-90582403D01*
X166187288Y-90595710D01*
X166179720Y-90608336D01*
X166170952Y-90620159D01*
X166161066Y-90631066D01*
X166150159Y-90640952D01*
X166138336Y-90649720D01*
X166125710Y-90657288D01*
X166112403Y-90663582D01*
X166098543Y-90668541D01*
X166084264Y-90672118D01*
X166069703Y-90674278D01*
X166055000Y-90675000D01*
X165755000Y-90675000D01*
X165740297Y-90674278D01*
X165725736Y-90672118D01*
X165711457Y-90668541D01*
X165697597Y-90663582D01*
X165684290Y-90657288D01*
X165671664Y-90649720D01*
X165659841Y-90640952D01*
X165648934Y-90631066D01*
X165639048Y-90620159D01*
X165630280Y-90608336D01*
X165622712Y-90595710D01*
X165616418Y-90582403D01*
X165611459Y-90568543D01*
X165607882Y-90554264D01*
X165605722Y-90539703D01*
X165605000Y-90525000D01*
X165605000Y-88775000D01*
X165605722Y-88760297D01*
X165607882Y-88745736D01*
X165611459Y-88731457D01*
X165616418Y-88717597D01*
X165622712Y-88704290D01*
X165630280Y-88691664D01*
X165639048Y-88679841D01*
X165648934Y-88668934D01*
X165659841Y-88659048D01*
X165671664Y-88650280D01*
X165684290Y-88642712D01*
X165697597Y-88636418D01*
X165711457Y-88631459D01*
X165725736Y-88627882D01*
X165740297Y-88625722D01*
X165755000Y-88625000D01*
X166055000Y-88625000D01*
X166069703Y-88625722D01*
G37*
G36*
X164799703Y-88625722D02*
G01*
X164814264Y-88627882D01*
X164828543Y-88631459D01*
X164842403Y-88636418D01*
X164855710Y-88642712D01*
X164868336Y-88650280D01*
X164880159Y-88659048D01*
X164891066Y-88668934D01*
X164900952Y-88679841D01*
X164909720Y-88691664D01*
X164917288Y-88704290D01*
X164923582Y-88717597D01*
X164928541Y-88731457D01*
X164932118Y-88745736D01*
X164934278Y-88760297D01*
X164935000Y-88775000D01*
X164935000Y-90525000D01*
X164934278Y-90539703D01*
X164932118Y-90554264D01*
X164928541Y-90568543D01*
X164923582Y-90582403D01*
X164917288Y-90595710D01*
X164909720Y-90608336D01*
X164900952Y-90620159D01*
X164891066Y-90631066D01*
X164880159Y-90640952D01*
X164868336Y-90649720D01*
X164855710Y-90657288D01*
X164842403Y-90663582D01*
X164828543Y-90668541D01*
X164814264Y-90672118D01*
X164799703Y-90674278D01*
X164785000Y-90675000D01*
X164485000Y-90675000D01*
X164470297Y-90674278D01*
X164455736Y-90672118D01*
X164441457Y-90668541D01*
X164427597Y-90663582D01*
X164414290Y-90657288D01*
X164401664Y-90649720D01*
X164389841Y-90640952D01*
X164378934Y-90631066D01*
X164369048Y-90620159D01*
X164360280Y-90608336D01*
X164352712Y-90595710D01*
X164346418Y-90582403D01*
X164341459Y-90568543D01*
X164337882Y-90554264D01*
X164335722Y-90539703D01*
X164335000Y-90525000D01*
X164335000Y-88775000D01*
X164335722Y-88760297D01*
X164337882Y-88745736D01*
X164341459Y-88731457D01*
X164346418Y-88717597D01*
X164352712Y-88704290D01*
X164360280Y-88691664D01*
X164369048Y-88679841D01*
X164378934Y-88668934D01*
X164389841Y-88659048D01*
X164401664Y-88650280D01*
X164414290Y-88642712D01*
X164427597Y-88636418D01*
X164441457Y-88631459D01*
X164455736Y-88627882D01*
X164470297Y-88625722D01*
X164485000Y-88625000D01*
X164785000Y-88625000D01*
X164799703Y-88625722D01*
G37*
G36*
X163529703Y-88625722D02*
G01*
X163544264Y-88627882D01*
X163558543Y-88631459D01*
X163572403Y-88636418D01*
X163585710Y-88642712D01*
X163598336Y-88650280D01*
X163610159Y-88659048D01*
X163621066Y-88668934D01*
X163630952Y-88679841D01*
X163639720Y-88691664D01*
X163647288Y-88704290D01*
X163653582Y-88717597D01*
X163658541Y-88731457D01*
X163662118Y-88745736D01*
X163664278Y-88760297D01*
X163665000Y-88775000D01*
X163665000Y-90525000D01*
X163664278Y-90539703D01*
X163662118Y-90554264D01*
X163658541Y-90568543D01*
X163653582Y-90582403D01*
X163647288Y-90595710D01*
X163639720Y-90608336D01*
X163630952Y-90620159D01*
X163621066Y-90631066D01*
X163610159Y-90640952D01*
X163598336Y-90649720D01*
X163585710Y-90657288D01*
X163572403Y-90663582D01*
X163558543Y-90668541D01*
X163544264Y-90672118D01*
X163529703Y-90674278D01*
X163515000Y-90675000D01*
X163215000Y-90675000D01*
X163200297Y-90674278D01*
X163185736Y-90672118D01*
X163171457Y-90668541D01*
X163157597Y-90663582D01*
X163144290Y-90657288D01*
X163131664Y-90649720D01*
X163119841Y-90640952D01*
X163108934Y-90631066D01*
X163099048Y-90620159D01*
X163090280Y-90608336D01*
X163082712Y-90595710D01*
X163076418Y-90582403D01*
X163071459Y-90568543D01*
X163067882Y-90554264D01*
X163065722Y-90539703D01*
X163065000Y-90525000D01*
X163065000Y-88775000D01*
X163065722Y-88760297D01*
X163067882Y-88745736D01*
X163071459Y-88731457D01*
X163076418Y-88717597D01*
X163082712Y-88704290D01*
X163090280Y-88691664D01*
X163099048Y-88679841D01*
X163108934Y-88668934D01*
X163119841Y-88659048D01*
X163131664Y-88650280D01*
X163144290Y-88642712D01*
X163157597Y-88636418D01*
X163171457Y-88631459D01*
X163185736Y-88627882D01*
X163200297Y-88625722D01*
X163215000Y-88625000D01*
X163515000Y-88625000D01*
X163529703Y-88625722D01*
G37*
G36*
X162259703Y-88625722D02*
G01*
X162274264Y-88627882D01*
X162288543Y-88631459D01*
X162302403Y-88636418D01*
X162315710Y-88642712D01*
X162328336Y-88650280D01*
X162340159Y-88659048D01*
X162351066Y-88668934D01*
X162360952Y-88679841D01*
X162369720Y-88691664D01*
X162377288Y-88704290D01*
X162383582Y-88717597D01*
X162388541Y-88731457D01*
X162392118Y-88745736D01*
X162394278Y-88760297D01*
X162395000Y-88775000D01*
X162395000Y-90525000D01*
X162394278Y-90539703D01*
X162392118Y-90554264D01*
X162388541Y-90568543D01*
X162383582Y-90582403D01*
X162377288Y-90595710D01*
X162369720Y-90608336D01*
X162360952Y-90620159D01*
X162351066Y-90631066D01*
X162340159Y-90640952D01*
X162328336Y-90649720D01*
X162315710Y-90657288D01*
X162302403Y-90663582D01*
X162288543Y-90668541D01*
X162274264Y-90672118D01*
X162259703Y-90674278D01*
X162245000Y-90675000D01*
X161945000Y-90675000D01*
X161930297Y-90674278D01*
X161915736Y-90672118D01*
X161901457Y-90668541D01*
X161887597Y-90663582D01*
X161874290Y-90657288D01*
X161861664Y-90649720D01*
X161849841Y-90640952D01*
X161838934Y-90631066D01*
X161829048Y-90620159D01*
X161820280Y-90608336D01*
X161812712Y-90595710D01*
X161806418Y-90582403D01*
X161801459Y-90568543D01*
X161797882Y-90554264D01*
X161795722Y-90539703D01*
X161795000Y-90525000D01*
X161795000Y-88775000D01*
X161795722Y-88760297D01*
X161797882Y-88745736D01*
X161801459Y-88731457D01*
X161806418Y-88717597D01*
X161812712Y-88704290D01*
X161820280Y-88691664D01*
X161829048Y-88679841D01*
X161838934Y-88668934D01*
X161849841Y-88659048D01*
X161861664Y-88650280D01*
X161874290Y-88642712D01*
X161887597Y-88636418D01*
X161901457Y-88631459D01*
X161915736Y-88627882D01*
X161930297Y-88625722D01*
X161945000Y-88625000D01*
X162245000Y-88625000D01*
X162259703Y-88625722D01*
G37*
G36*
X160989703Y-88625722D02*
G01*
X161004264Y-88627882D01*
X161018543Y-88631459D01*
X161032403Y-88636418D01*
X161045710Y-88642712D01*
X161058336Y-88650280D01*
X161070159Y-88659048D01*
X161081066Y-88668934D01*
X161090952Y-88679841D01*
X161099720Y-88691664D01*
X161107288Y-88704290D01*
X161113582Y-88717597D01*
X161118541Y-88731457D01*
X161122118Y-88745736D01*
X161124278Y-88760297D01*
X161125000Y-88775000D01*
X161125000Y-90525000D01*
X161124278Y-90539703D01*
X161122118Y-90554264D01*
X161118541Y-90568543D01*
X161113582Y-90582403D01*
X161107288Y-90595710D01*
X161099720Y-90608336D01*
X161090952Y-90620159D01*
X161081066Y-90631066D01*
X161070159Y-90640952D01*
X161058336Y-90649720D01*
X161045710Y-90657288D01*
X161032403Y-90663582D01*
X161018543Y-90668541D01*
X161004264Y-90672118D01*
X160989703Y-90674278D01*
X160975000Y-90675000D01*
X160675000Y-90675000D01*
X160660297Y-90674278D01*
X160645736Y-90672118D01*
X160631457Y-90668541D01*
X160617597Y-90663582D01*
X160604290Y-90657288D01*
X160591664Y-90649720D01*
X160579841Y-90640952D01*
X160568934Y-90631066D01*
X160559048Y-90620159D01*
X160550280Y-90608336D01*
X160542712Y-90595710D01*
X160536418Y-90582403D01*
X160531459Y-90568543D01*
X160527882Y-90554264D01*
X160525722Y-90539703D01*
X160525000Y-90525000D01*
X160525000Y-88775000D01*
X160525722Y-88760297D01*
X160527882Y-88745736D01*
X160531459Y-88731457D01*
X160536418Y-88717597D01*
X160542712Y-88704290D01*
X160550280Y-88691664D01*
X160559048Y-88679841D01*
X160568934Y-88668934D01*
X160579841Y-88659048D01*
X160591664Y-88650280D01*
X160604290Y-88642712D01*
X160617597Y-88636418D01*
X160631457Y-88631459D01*
X160645736Y-88627882D01*
X160660297Y-88625722D01*
X160675000Y-88625000D01*
X160975000Y-88625000D01*
X160989703Y-88625722D01*
G37*
G36*
X159719703Y-88625722D02*
G01*
X159734264Y-88627882D01*
X159748543Y-88631459D01*
X159762403Y-88636418D01*
X159775710Y-88642712D01*
X159788336Y-88650280D01*
X159800159Y-88659048D01*
X159811066Y-88668934D01*
X159820952Y-88679841D01*
X159829720Y-88691664D01*
X159837288Y-88704290D01*
X159843582Y-88717597D01*
X159848541Y-88731457D01*
X159852118Y-88745736D01*
X159854278Y-88760297D01*
X159855000Y-88775000D01*
X159855000Y-90525000D01*
X159854278Y-90539703D01*
X159852118Y-90554264D01*
X159848541Y-90568543D01*
X159843582Y-90582403D01*
X159837288Y-90595710D01*
X159829720Y-90608336D01*
X159820952Y-90620159D01*
X159811066Y-90631066D01*
X159800159Y-90640952D01*
X159788336Y-90649720D01*
X159775710Y-90657288D01*
X159762403Y-90663582D01*
X159748543Y-90668541D01*
X159734264Y-90672118D01*
X159719703Y-90674278D01*
X159705000Y-90675000D01*
X159405000Y-90675000D01*
X159390297Y-90674278D01*
X159375736Y-90672118D01*
X159361457Y-90668541D01*
X159347597Y-90663582D01*
X159334290Y-90657288D01*
X159321664Y-90649720D01*
X159309841Y-90640952D01*
X159298934Y-90631066D01*
X159289048Y-90620159D01*
X159280280Y-90608336D01*
X159272712Y-90595710D01*
X159266418Y-90582403D01*
X159261459Y-90568543D01*
X159257882Y-90554264D01*
X159255722Y-90539703D01*
X159255000Y-90525000D01*
X159255000Y-88775000D01*
X159255722Y-88760297D01*
X159257882Y-88745736D01*
X159261459Y-88731457D01*
X159266418Y-88717597D01*
X159272712Y-88704290D01*
X159280280Y-88691664D01*
X159289048Y-88679841D01*
X159298934Y-88668934D01*
X159309841Y-88659048D01*
X159321664Y-88650280D01*
X159334290Y-88642712D01*
X159347597Y-88636418D01*
X159361457Y-88631459D01*
X159375736Y-88627882D01*
X159390297Y-88625722D01*
X159405000Y-88625000D01*
X159705000Y-88625000D01*
X159719703Y-88625722D01*
G37*
G36*
X141719703Y-79325722D02*
G01*
X141734264Y-79327882D01*
X141748543Y-79331459D01*
X141762403Y-79336418D01*
X141775710Y-79342712D01*
X141788336Y-79350280D01*
X141800159Y-79359048D01*
X141811066Y-79368934D01*
X141820952Y-79379841D01*
X141829720Y-79391664D01*
X141837288Y-79404290D01*
X141843582Y-79417597D01*
X141848541Y-79431457D01*
X141852118Y-79445736D01*
X141854278Y-79460297D01*
X141855000Y-79475000D01*
X141855000Y-81225000D01*
X141854278Y-81239703D01*
X141852118Y-81254264D01*
X141848541Y-81268543D01*
X141843582Y-81282403D01*
X141837288Y-81295710D01*
X141829720Y-81308336D01*
X141820952Y-81320159D01*
X141811066Y-81331066D01*
X141800159Y-81340952D01*
X141788336Y-81349720D01*
X141775710Y-81357288D01*
X141762403Y-81363582D01*
X141748543Y-81368541D01*
X141734264Y-81372118D01*
X141719703Y-81374278D01*
X141705000Y-81375000D01*
X141405000Y-81375000D01*
X141390297Y-81374278D01*
X141375736Y-81372118D01*
X141361457Y-81368541D01*
X141347597Y-81363582D01*
X141334290Y-81357288D01*
X141321664Y-81349720D01*
X141309841Y-81340952D01*
X141298934Y-81331066D01*
X141289048Y-81320159D01*
X141280280Y-81308336D01*
X141272712Y-81295710D01*
X141266418Y-81282403D01*
X141261459Y-81268543D01*
X141257882Y-81254264D01*
X141255722Y-81239703D01*
X141255000Y-81225000D01*
X141255000Y-79475000D01*
X141255722Y-79460297D01*
X141257882Y-79445736D01*
X141261459Y-79431457D01*
X141266418Y-79417597D01*
X141272712Y-79404290D01*
X141280280Y-79391664D01*
X141289048Y-79379841D01*
X141298934Y-79368934D01*
X141309841Y-79359048D01*
X141321664Y-79350280D01*
X141334290Y-79342712D01*
X141347597Y-79336418D01*
X141361457Y-79331459D01*
X141375736Y-79327882D01*
X141390297Y-79325722D01*
X141405000Y-79325000D01*
X141705000Y-79325000D01*
X141719703Y-79325722D01*
G37*
G36*
X142989703Y-79325722D02*
G01*
X143004264Y-79327882D01*
X143018543Y-79331459D01*
X143032403Y-79336418D01*
X143045710Y-79342712D01*
X143058336Y-79350280D01*
X143070159Y-79359048D01*
X143081066Y-79368934D01*
X143090952Y-79379841D01*
X143099720Y-79391664D01*
X143107288Y-79404290D01*
X143113582Y-79417597D01*
X143118541Y-79431457D01*
X143122118Y-79445736D01*
X143124278Y-79460297D01*
X143125000Y-79475000D01*
X143125000Y-81225000D01*
X143124278Y-81239703D01*
X143122118Y-81254264D01*
X143118541Y-81268543D01*
X143113582Y-81282403D01*
X143107288Y-81295710D01*
X143099720Y-81308336D01*
X143090952Y-81320159D01*
X143081066Y-81331066D01*
X143070159Y-81340952D01*
X143058336Y-81349720D01*
X143045710Y-81357288D01*
X143032403Y-81363582D01*
X143018543Y-81368541D01*
X143004264Y-81372118D01*
X142989703Y-81374278D01*
X142975000Y-81375000D01*
X142675000Y-81375000D01*
X142660297Y-81374278D01*
X142645736Y-81372118D01*
X142631457Y-81368541D01*
X142617597Y-81363582D01*
X142604290Y-81357288D01*
X142591664Y-81349720D01*
X142579841Y-81340952D01*
X142568934Y-81331066D01*
X142559048Y-81320159D01*
X142550280Y-81308336D01*
X142542712Y-81295710D01*
X142536418Y-81282403D01*
X142531459Y-81268543D01*
X142527882Y-81254264D01*
X142525722Y-81239703D01*
X142525000Y-81225000D01*
X142525000Y-79475000D01*
X142525722Y-79460297D01*
X142527882Y-79445736D01*
X142531459Y-79431457D01*
X142536418Y-79417597D01*
X142542712Y-79404290D01*
X142550280Y-79391664D01*
X142559048Y-79379841D01*
X142568934Y-79368934D01*
X142579841Y-79359048D01*
X142591664Y-79350280D01*
X142604290Y-79342712D01*
X142617597Y-79336418D01*
X142631457Y-79331459D01*
X142645736Y-79327882D01*
X142660297Y-79325722D01*
X142675000Y-79325000D01*
X142975000Y-79325000D01*
X142989703Y-79325722D01*
G37*
G36*
X144259703Y-79325722D02*
G01*
X144274264Y-79327882D01*
X144288543Y-79331459D01*
X144302403Y-79336418D01*
X144315710Y-79342712D01*
X144328336Y-79350280D01*
X144340159Y-79359048D01*
X144351066Y-79368934D01*
X144360952Y-79379841D01*
X144369720Y-79391664D01*
X144377288Y-79404290D01*
X144383582Y-79417597D01*
X144388541Y-79431457D01*
X144392118Y-79445736D01*
X144394278Y-79460297D01*
X144395000Y-79475000D01*
X144395000Y-81225000D01*
X144394278Y-81239703D01*
X144392118Y-81254264D01*
X144388541Y-81268543D01*
X144383582Y-81282403D01*
X144377288Y-81295710D01*
X144369720Y-81308336D01*
X144360952Y-81320159D01*
X144351066Y-81331066D01*
X144340159Y-81340952D01*
X144328336Y-81349720D01*
X144315710Y-81357288D01*
X144302403Y-81363582D01*
X144288543Y-81368541D01*
X144274264Y-81372118D01*
X144259703Y-81374278D01*
X144245000Y-81375000D01*
X143945000Y-81375000D01*
X143930297Y-81374278D01*
X143915736Y-81372118D01*
X143901457Y-81368541D01*
X143887597Y-81363582D01*
X143874290Y-81357288D01*
X143861664Y-81349720D01*
X143849841Y-81340952D01*
X143838934Y-81331066D01*
X143829048Y-81320159D01*
X143820280Y-81308336D01*
X143812712Y-81295710D01*
X143806418Y-81282403D01*
X143801459Y-81268543D01*
X143797882Y-81254264D01*
X143795722Y-81239703D01*
X143795000Y-81225000D01*
X143795000Y-79475000D01*
X143795722Y-79460297D01*
X143797882Y-79445736D01*
X143801459Y-79431457D01*
X143806418Y-79417597D01*
X143812712Y-79404290D01*
X143820280Y-79391664D01*
X143829048Y-79379841D01*
X143838934Y-79368934D01*
X143849841Y-79359048D01*
X143861664Y-79350280D01*
X143874290Y-79342712D01*
X143887597Y-79336418D01*
X143901457Y-79331459D01*
X143915736Y-79327882D01*
X143930297Y-79325722D01*
X143945000Y-79325000D01*
X144245000Y-79325000D01*
X144259703Y-79325722D01*
G37*
G36*
X145529703Y-79325722D02*
G01*
X145544264Y-79327882D01*
X145558543Y-79331459D01*
X145572403Y-79336418D01*
X145585710Y-79342712D01*
X145598336Y-79350280D01*
X145610159Y-79359048D01*
X145621066Y-79368934D01*
X145630952Y-79379841D01*
X145639720Y-79391664D01*
X145647288Y-79404290D01*
X145653582Y-79417597D01*
X145658541Y-79431457D01*
X145662118Y-79445736D01*
X145664278Y-79460297D01*
X145665000Y-79475000D01*
X145665000Y-81225000D01*
X145664278Y-81239703D01*
X145662118Y-81254264D01*
X145658541Y-81268543D01*
X145653582Y-81282403D01*
X145647288Y-81295710D01*
X145639720Y-81308336D01*
X145630952Y-81320159D01*
X145621066Y-81331066D01*
X145610159Y-81340952D01*
X145598336Y-81349720D01*
X145585710Y-81357288D01*
X145572403Y-81363582D01*
X145558543Y-81368541D01*
X145544264Y-81372118D01*
X145529703Y-81374278D01*
X145515000Y-81375000D01*
X145215000Y-81375000D01*
X145200297Y-81374278D01*
X145185736Y-81372118D01*
X145171457Y-81368541D01*
X145157597Y-81363582D01*
X145144290Y-81357288D01*
X145131664Y-81349720D01*
X145119841Y-81340952D01*
X145108934Y-81331066D01*
X145099048Y-81320159D01*
X145090280Y-81308336D01*
X145082712Y-81295710D01*
X145076418Y-81282403D01*
X145071459Y-81268543D01*
X145067882Y-81254264D01*
X145065722Y-81239703D01*
X145065000Y-81225000D01*
X145065000Y-79475000D01*
X145065722Y-79460297D01*
X145067882Y-79445736D01*
X145071459Y-79431457D01*
X145076418Y-79417597D01*
X145082712Y-79404290D01*
X145090280Y-79391664D01*
X145099048Y-79379841D01*
X145108934Y-79368934D01*
X145119841Y-79359048D01*
X145131664Y-79350280D01*
X145144290Y-79342712D01*
X145157597Y-79336418D01*
X145171457Y-79331459D01*
X145185736Y-79327882D01*
X145200297Y-79325722D01*
X145215000Y-79325000D01*
X145515000Y-79325000D01*
X145529703Y-79325722D01*
G37*
G36*
X146799703Y-79325722D02*
G01*
X146814264Y-79327882D01*
X146828543Y-79331459D01*
X146842403Y-79336418D01*
X146855710Y-79342712D01*
X146868336Y-79350280D01*
X146880159Y-79359048D01*
X146891066Y-79368934D01*
X146900952Y-79379841D01*
X146909720Y-79391664D01*
X146917288Y-79404290D01*
X146923582Y-79417597D01*
X146928541Y-79431457D01*
X146932118Y-79445736D01*
X146934278Y-79460297D01*
X146935000Y-79475000D01*
X146935000Y-81225000D01*
X146934278Y-81239703D01*
X146932118Y-81254264D01*
X146928541Y-81268543D01*
X146923582Y-81282403D01*
X146917288Y-81295710D01*
X146909720Y-81308336D01*
X146900952Y-81320159D01*
X146891066Y-81331066D01*
X146880159Y-81340952D01*
X146868336Y-81349720D01*
X146855710Y-81357288D01*
X146842403Y-81363582D01*
X146828543Y-81368541D01*
X146814264Y-81372118D01*
X146799703Y-81374278D01*
X146785000Y-81375000D01*
X146485000Y-81375000D01*
X146470297Y-81374278D01*
X146455736Y-81372118D01*
X146441457Y-81368541D01*
X146427597Y-81363582D01*
X146414290Y-81357288D01*
X146401664Y-81349720D01*
X146389841Y-81340952D01*
X146378934Y-81331066D01*
X146369048Y-81320159D01*
X146360280Y-81308336D01*
X146352712Y-81295710D01*
X146346418Y-81282403D01*
X146341459Y-81268543D01*
X146337882Y-81254264D01*
X146335722Y-81239703D01*
X146335000Y-81225000D01*
X146335000Y-79475000D01*
X146335722Y-79460297D01*
X146337882Y-79445736D01*
X146341459Y-79431457D01*
X146346418Y-79417597D01*
X146352712Y-79404290D01*
X146360280Y-79391664D01*
X146369048Y-79379841D01*
X146378934Y-79368934D01*
X146389841Y-79359048D01*
X146401664Y-79350280D01*
X146414290Y-79342712D01*
X146427597Y-79336418D01*
X146441457Y-79331459D01*
X146455736Y-79327882D01*
X146470297Y-79325722D01*
X146485000Y-79325000D01*
X146785000Y-79325000D01*
X146799703Y-79325722D01*
G37*
G36*
X148069703Y-79325722D02*
G01*
X148084264Y-79327882D01*
X148098543Y-79331459D01*
X148112403Y-79336418D01*
X148125710Y-79342712D01*
X148138336Y-79350280D01*
X148150159Y-79359048D01*
X148161066Y-79368934D01*
X148170952Y-79379841D01*
X148179720Y-79391664D01*
X148187288Y-79404290D01*
X148193582Y-79417597D01*
X148198541Y-79431457D01*
X148202118Y-79445736D01*
X148204278Y-79460297D01*
X148205000Y-79475000D01*
X148205000Y-81225000D01*
X148204278Y-81239703D01*
X148202118Y-81254264D01*
X148198541Y-81268543D01*
X148193582Y-81282403D01*
X148187288Y-81295710D01*
X148179720Y-81308336D01*
X148170952Y-81320159D01*
X148161066Y-81331066D01*
X148150159Y-81340952D01*
X148138336Y-81349720D01*
X148125710Y-81357288D01*
X148112403Y-81363582D01*
X148098543Y-81368541D01*
X148084264Y-81372118D01*
X148069703Y-81374278D01*
X148055000Y-81375000D01*
X147755000Y-81375000D01*
X147740297Y-81374278D01*
X147725736Y-81372118D01*
X147711457Y-81368541D01*
X147697597Y-81363582D01*
X147684290Y-81357288D01*
X147671664Y-81349720D01*
X147659841Y-81340952D01*
X147648934Y-81331066D01*
X147639048Y-81320159D01*
X147630280Y-81308336D01*
X147622712Y-81295710D01*
X147616418Y-81282403D01*
X147611459Y-81268543D01*
X147607882Y-81254264D01*
X147605722Y-81239703D01*
X147605000Y-81225000D01*
X147605000Y-79475000D01*
X147605722Y-79460297D01*
X147607882Y-79445736D01*
X147611459Y-79431457D01*
X147616418Y-79417597D01*
X147622712Y-79404290D01*
X147630280Y-79391664D01*
X147639048Y-79379841D01*
X147648934Y-79368934D01*
X147659841Y-79359048D01*
X147671664Y-79350280D01*
X147684290Y-79342712D01*
X147697597Y-79336418D01*
X147711457Y-79331459D01*
X147725736Y-79327882D01*
X147740297Y-79325722D01*
X147755000Y-79325000D01*
X148055000Y-79325000D01*
X148069703Y-79325722D01*
G37*
G36*
X149339703Y-79325722D02*
G01*
X149354264Y-79327882D01*
X149368543Y-79331459D01*
X149382403Y-79336418D01*
X149395710Y-79342712D01*
X149408336Y-79350280D01*
X149420159Y-79359048D01*
X149431066Y-79368934D01*
X149440952Y-79379841D01*
X149449720Y-79391664D01*
X149457288Y-79404290D01*
X149463582Y-79417597D01*
X149468541Y-79431457D01*
X149472118Y-79445736D01*
X149474278Y-79460297D01*
X149475000Y-79475000D01*
X149475000Y-81225000D01*
X149474278Y-81239703D01*
X149472118Y-81254264D01*
X149468541Y-81268543D01*
X149463582Y-81282403D01*
X149457288Y-81295710D01*
X149449720Y-81308336D01*
X149440952Y-81320159D01*
X149431066Y-81331066D01*
X149420159Y-81340952D01*
X149408336Y-81349720D01*
X149395710Y-81357288D01*
X149382403Y-81363582D01*
X149368543Y-81368541D01*
X149354264Y-81372118D01*
X149339703Y-81374278D01*
X149325000Y-81375000D01*
X149025000Y-81375000D01*
X149010297Y-81374278D01*
X148995736Y-81372118D01*
X148981457Y-81368541D01*
X148967597Y-81363582D01*
X148954290Y-81357288D01*
X148941664Y-81349720D01*
X148929841Y-81340952D01*
X148918934Y-81331066D01*
X148909048Y-81320159D01*
X148900280Y-81308336D01*
X148892712Y-81295710D01*
X148886418Y-81282403D01*
X148881459Y-81268543D01*
X148877882Y-81254264D01*
X148875722Y-81239703D01*
X148875000Y-81225000D01*
X148875000Y-79475000D01*
X148875722Y-79460297D01*
X148877882Y-79445736D01*
X148881459Y-79431457D01*
X148886418Y-79417597D01*
X148892712Y-79404290D01*
X148900280Y-79391664D01*
X148909048Y-79379841D01*
X148918934Y-79368934D01*
X148929841Y-79359048D01*
X148941664Y-79350280D01*
X148954290Y-79342712D01*
X148967597Y-79336418D01*
X148981457Y-79331459D01*
X148995736Y-79327882D01*
X149010297Y-79325722D01*
X149025000Y-79325000D01*
X149325000Y-79325000D01*
X149339703Y-79325722D01*
G37*
G36*
X150609703Y-79325722D02*
G01*
X150624264Y-79327882D01*
X150638543Y-79331459D01*
X150652403Y-79336418D01*
X150665710Y-79342712D01*
X150678336Y-79350280D01*
X150690159Y-79359048D01*
X150701066Y-79368934D01*
X150710952Y-79379841D01*
X150719720Y-79391664D01*
X150727288Y-79404290D01*
X150733582Y-79417597D01*
X150738541Y-79431457D01*
X150742118Y-79445736D01*
X150744278Y-79460297D01*
X150745000Y-79475000D01*
X150745000Y-81225000D01*
X150744278Y-81239703D01*
X150742118Y-81254264D01*
X150738541Y-81268543D01*
X150733582Y-81282403D01*
X150727288Y-81295710D01*
X150719720Y-81308336D01*
X150710952Y-81320159D01*
X150701066Y-81331066D01*
X150690159Y-81340952D01*
X150678336Y-81349720D01*
X150665710Y-81357288D01*
X150652403Y-81363582D01*
X150638543Y-81368541D01*
X150624264Y-81372118D01*
X150609703Y-81374278D01*
X150595000Y-81375000D01*
X150295000Y-81375000D01*
X150280297Y-81374278D01*
X150265736Y-81372118D01*
X150251457Y-81368541D01*
X150237597Y-81363582D01*
X150224290Y-81357288D01*
X150211664Y-81349720D01*
X150199841Y-81340952D01*
X150188934Y-81331066D01*
X150179048Y-81320159D01*
X150170280Y-81308336D01*
X150162712Y-81295710D01*
X150156418Y-81282403D01*
X150151459Y-81268543D01*
X150147882Y-81254264D01*
X150145722Y-81239703D01*
X150145000Y-81225000D01*
X150145000Y-79475000D01*
X150145722Y-79460297D01*
X150147882Y-79445736D01*
X150151459Y-79431457D01*
X150156418Y-79417597D01*
X150162712Y-79404290D01*
X150170280Y-79391664D01*
X150179048Y-79379841D01*
X150188934Y-79368934D01*
X150199841Y-79359048D01*
X150211664Y-79350280D01*
X150224290Y-79342712D01*
X150237597Y-79336418D01*
X150251457Y-79331459D01*
X150265736Y-79327882D01*
X150280297Y-79325722D01*
X150295000Y-79325000D01*
X150595000Y-79325000D01*
X150609703Y-79325722D01*
G37*
G36*
X150609703Y-88625722D02*
G01*
X150624264Y-88627882D01*
X150638543Y-88631459D01*
X150652403Y-88636418D01*
X150665710Y-88642712D01*
X150678336Y-88650280D01*
X150690159Y-88659048D01*
X150701066Y-88668934D01*
X150710952Y-88679841D01*
X150719720Y-88691664D01*
X150727288Y-88704290D01*
X150733582Y-88717597D01*
X150738541Y-88731457D01*
X150742118Y-88745736D01*
X150744278Y-88760297D01*
X150745000Y-88775000D01*
X150745000Y-90525000D01*
X150744278Y-90539703D01*
X150742118Y-90554264D01*
X150738541Y-90568543D01*
X150733582Y-90582403D01*
X150727288Y-90595710D01*
X150719720Y-90608336D01*
X150710952Y-90620159D01*
X150701066Y-90631066D01*
X150690159Y-90640952D01*
X150678336Y-90649720D01*
X150665710Y-90657288D01*
X150652403Y-90663582D01*
X150638543Y-90668541D01*
X150624264Y-90672118D01*
X150609703Y-90674278D01*
X150595000Y-90675000D01*
X150295000Y-90675000D01*
X150280297Y-90674278D01*
X150265736Y-90672118D01*
X150251457Y-90668541D01*
X150237597Y-90663582D01*
X150224290Y-90657288D01*
X150211664Y-90649720D01*
X150199841Y-90640952D01*
X150188934Y-90631066D01*
X150179048Y-90620159D01*
X150170280Y-90608336D01*
X150162712Y-90595710D01*
X150156418Y-90582403D01*
X150151459Y-90568543D01*
X150147882Y-90554264D01*
X150145722Y-90539703D01*
X150145000Y-90525000D01*
X150145000Y-88775000D01*
X150145722Y-88760297D01*
X150147882Y-88745736D01*
X150151459Y-88731457D01*
X150156418Y-88717597D01*
X150162712Y-88704290D01*
X150170280Y-88691664D01*
X150179048Y-88679841D01*
X150188934Y-88668934D01*
X150199841Y-88659048D01*
X150211664Y-88650280D01*
X150224290Y-88642712D01*
X150237597Y-88636418D01*
X150251457Y-88631459D01*
X150265736Y-88627882D01*
X150280297Y-88625722D01*
X150295000Y-88625000D01*
X150595000Y-88625000D01*
X150609703Y-88625722D01*
G37*
G36*
X149339703Y-88625722D02*
G01*
X149354264Y-88627882D01*
X149368543Y-88631459D01*
X149382403Y-88636418D01*
X149395710Y-88642712D01*
X149408336Y-88650280D01*
X149420159Y-88659048D01*
X149431066Y-88668934D01*
X149440952Y-88679841D01*
X149449720Y-88691664D01*
X149457288Y-88704290D01*
X149463582Y-88717597D01*
X149468541Y-88731457D01*
X149472118Y-88745736D01*
X149474278Y-88760297D01*
X149475000Y-88775000D01*
X149475000Y-90525000D01*
X149474278Y-90539703D01*
X149472118Y-90554264D01*
X149468541Y-90568543D01*
X149463582Y-90582403D01*
X149457288Y-90595710D01*
X149449720Y-90608336D01*
X149440952Y-90620159D01*
X149431066Y-90631066D01*
X149420159Y-90640952D01*
X149408336Y-90649720D01*
X149395710Y-90657288D01*
X149382403Y-90663582D01*
X149368543Y-90668541D01*
X149354264Y-90672118D01*
X149339703Y-90674278D01*
X149325000Y-90675000D01*
X149025000Y-90675000D01*
X149010297Y-90674278D01*
X148995736Y-90672118D01*
X148981457Y-90668541D01*
X148967597Y-90663582D01*
X148954290Y-90657288D01*
X148941664Y-90649720D01*
X148929841Y-90640952D01*
X148918934Y-90631066D01*
X148909048Y-90620159D01*
X148900280Y-90608336D01*
X148892712Y-90595710D01*
X148886418Y-90582403D01*
X148881459Y-90568543D01*
X148877882Y-90554264D01*
X148875722Y-90539703D01*
X148875000Y-90525000D01*
X148875000Y-88775000D01*
X148875722Y-88760297D01*
X148877882Y-88745736D01*
X148881459Y-88731457D01*
X148886418Y-88717597D01*
X148892712Y-88704290D01*
X148900280Y-88691664D01*
X148909048Y-88679841D01*
X148918934Y-88668934D01*
X148929841Y-88659048D01*
X148941664Y-88650280D01*
X148954290Y-88642712D01*
X148967597Y-88636418D01*
X148981457Y-88631459D01*
X148995736Y-88627882D01*
X149010297Y-88625722D01*
X149025000Y-88625000D01*
X149325000Y-88625000D01*
X149339703Y-88625722D01*
G37*
G36*
X148069703Y-88625722D02*
G01*
X148084264Y-88627882D01*
X148098543Y-88631459D01*
X148112403Y-88636418D01*
X148125710Y-88642712D01*
X148138336Y-88650280D01*
X148150159Y-88659048D01*
X148161066Y-88668934D01*
X148170952Y-88679841D01*
X148179720Y-88691664D01*
X148187288Y-88704290D01*
X148193582Y-88717597D01*
X148198541Y-88731457D01*
X148202118Y-88745736D01*
X148204278Y-88760297D01*
X148205000Y-88775000D01*
X148205000Y-90525000D01*
X148204278Y-90539703D01*
X148202118Y-90554264D01*
X148198541Y-90568543D01*
X148193582Y-90582403D01*
X148187288Y-90595710D01*
X148179720Y-90608336D01*
X148170952Y-90620159D01*
X148161066Y-90631066D01*
X148150159Y-90640952D01*
X148138336Y-90649720D01*
X148125710Y-90657288D01*
X148112403Y-90663582D01*
X148098543Y-90668541D01*
X148084264Y-90672118D01*
X148069703Y-90674278D01*
X148055000Y-90675000D01*
X147755000Y-90675000D01*
X147740297Y-90674278D01*
X147725736Y-90672118D01*
X147711457Y-90668541D01*
X147697597Y-90663582D01*
X147684290Y-90657288D01*
X147671664Y-90649720D01*
X147659841Y-90640952D01*
X147648934Y-90631066D01*
X147639048Y-90620159D01*
X147630280Y-90608336D01*
X147622712Y-90595710D01*
X147616418Y-90582403D01*
X147611459Y-90568543D01*
X147607882Y-90554264D01*
X147605722Y-90539703D01*
X147605000Y-90525000D01*
X147605000Y-88775000D01*
X147605722Y-88760297D01*
X147607882Y-88745736D01*
X147611459Y-88731457D01*
X147616418Y-88717597D01*
X147622712Y-88704290D01*
X147630280Y-88691664D01*
X147639048Y-88679841D01*
X147648934Y-88668934D01*
X147659841Y-88659048D01*
X147671664Y-88650280D01*
X147684290Y-88642712D01*
X147697597Y-88636418D01*
X147711457Y-88631459D01*
X147725736Y-88627882D01*
X147740297Y-88625722D01*
X147755000Y-88625000D01*
X148055000Y-88625000D01*
X148069703Y-88625722D01*
G37*
G36*
X146799703Y-88625722D02*
G01*
X146814264Y-88627882D01*
X146828543Y-88631459D01*
X146842403Y-88636418D01*
X146855710Y-88642712D01*
X146868336Y-88650280D01*
X146880159Y-88659048D01*
X146891066Y-88668934D01*
X146900952Y-88679841D01*
X146909720Y-88691664D01*
X146917288Y-88704290D01*
X146923582Y-88717597D01*
X146928541Y-88731457D01*
X146932118Y-88745736D01*
X146934278Y-88760297D01*
X146935000Y-88775000D01*
X146935000Y-90525000D01*
X146934278Y-90539703D01*
X146932118Y-90554264D01*
X146928541Y-90568543D01*
X146923582Y-90582403D01*
X146917288Y-90595710D01*
X146909720Y-90608336D01*
X146900952Y-90620159D01*
X146891066Y-90631066D01*
X146880159Y-90640952D01*
X146868336Y-90649720D01*
X146855710Y-90657288D01*
X146842403Y-90663582D01*
X146828543Y-90668541D01*
X146814264Y-90672118D01*
X146799703Y-90674278D01*
X146785000Y-90675000D01*
X146485000Y-90675000D01*
X146470297Y-90674278D01*
X146455736Y-90672118D01*
X146441457Y-90668541D01*
X146427597Y-90663582D01*
X146414290Y-90657288D01*
X146401664Y-90649720D01*
X146389841Y-90640952D01*
X146378934Y-90631066D01*
X146369048Y-90620159D01*
X146360280Y-90608336D01*
X146352712Y-90595710D01*
X146346418Y-90582403D01*
X146341459Y-90568543D01*
X146337882Y-90554264D01*
X146335722Y-90539703D01*
X146335000Y-90525000D01*
X146335000Y-88775000D01*
X146335722Y-88760297D01*
X146337882Y-88745736D01*
X146341459Y-88731457D01*
X146346418Y-88717597D01*
X146352712Y-88704290D01*
X146360280Y-88691664D01*
X146369048Y-88679841D01*
X146378934Y-88668934D01*
X146389841Y-88659048D01*
X146401664Y-88650280D01*
X146414290Y-88642712D01*
X146427597Y-88636418D01*
X146441457Y-88631459D01*
X146455736Y-88627882D01*
X146470297Y-88625722D01*
X146485000Y-88625000D01*
X146785000Y-88625000D01*
X146799703Y-88625722D01*
G37*
G36*
X145529703Y-88625722D02*
G01*
X145544264Y-88627882D01*
X145558543Y-88631459D01*
X145572403Y-88636418D01*
X145585710Y-88642712D01*
X145598336Y-88650280D01*
X145610159Y-88659048D01*
X145621066Y-88668934D01*
X145630952Y-88679841D01*
X145639720Y-88691664D01*
X145647288Y-88704290D01*
X145653582Y-88717597D01*
X145658541Y-88731457D01*
X145662118Y-88745736D01*
X145664278Y-88760297D01*
X145665000Y-88775000D01*
X145665000Y-90525000D01*
X145664278Y-90539703D01*
X145662118Y-90554264D01*
X145658541Y-90568543D01*
X145653582Y-90582403D01*
X145647288Y-90595710D01*
X145639720Y-90608336D01*
X145630952Y-90620159D01*
X145621066Y-90631066D01*
X145610159Y-90640952D01*
X145598336Y-90649720D01*
X145585710Y-90657288D01*
X145572403Y-90663582D01*
X145558543Y-90668541D01*
X145544264Y-90672118D01*
X145529703Y-90674278D01*
X145515000Y-90675000D01*
X145215000Y-90675000D01*
X145200297Y-90674278D01*
X145185736Y-90672118D01*
X145171457Y-90668541D01*
X145157597Y-90663582D01*
X145144290Y-90657288D01*
X145131664Y-90649720D01*
X145119841Y-90640952D01*
X145108934Y-90631066D01*
X145099048Y-90620159D01*
X145090280Y-90608336D01*
X145082712Y-90595710D01*
X145076418Y-90582403D01*
X145071459Y-90568543D01*
X145067882Y-90554264D01*
X145065722Y-90539703D01*
X145065000Y-90525000D01*
X145065000Y-88775000D01*
X145065722Y-88760297D01*
X145067882Y-88745736D01*
X145071459Y-88731457D01*
X145076418Y-88717597D01*
X145082712Y-88704290D01*
X145090280Y-88691664D01*
X145099048Y-88679841D01*
X145108934Y-88668934D01*
X145119841Y-88659048D01*
X145131664Y-88650280D01*
X145144290Y-88642712D01*
X145157597Y-88636418D01*
X145171457Y-88631459D01*
X145185736Y-88627882D01*
X145200297Y-88625722D01*
X145215000Y-88625000D01*
X145515000Y-88625000D01*
X145529703Y-88625722D01*
G37*
G36*
X144259703Y-88625722D02*
G01*
X144274264Y-88627882D01*
X144288543Y-88631459D01*
X144302403Y-88636418D01*
X144315710Y-88642712D01*
X144328336Y-88650280D01*
X144340159Y-88659048D01*
X144351066Y-88668934D01*
X144360952Y-88679841D01*
X144369720Y-88691664D01*
X144377288Y-88704290D01*
X144383582Y-88717597D01*
X144388541Y-88731457D01*
X144392118Y-88745736D01*
X144394278Y-88760297D01*
X144395000Y-88775000D01*
X144395000Y-90525000D01*
X144394278Y-90539703D01*
X144392118Y-90554264D01*
X144388541Y-90568543D01*
X144383582Y-90582403D01*
X144377288Y-90595710D01*
X144369720Y-90608336D01*
X144360952Y-90620159D01*
X144351066Y-90631066D01*
X144340159Y-90640952D01*
X144328336Y-90649720D01*
X144315710Y-90657288D01*
X144302403Y-90663582D01*
X144288543Y-90668541D01*
X144274264Y-90672118D01*
X144259703Y-90674278D01*
X144245000Y-90675000D01*
X143945000Y-90675000D01*
X143930297Y-90674278D01*
X143915736Y-90672118D01*
X143901457Y-90668541D01*
X143887597Y-90663582D01*
X143874290Y-90657288D01*
X143861664Y-90649720D01*
X143849841Y-90640952D01*
X143838934Y-90631066D01*
X143829048Y-90620159D01*
X143820280Y-90608336D01*
X143812712Y-90595710D01*
X143806418Y-90582403D01*
X143801459Y-90568543D01*
X143797882Y-90554264D01*
X143795722Y-90539703D01*
X143795000Y-90525000D01*
X143795000Y-88775000D01*
X143795722Y-88760297D01*
X143797882Y-88745736D01*
X143801459Y-88731457D01*
X143806418Y-88717597D01*
X143812712Y-88704290D01*
X143820280Y-88691664D01*
X143829048Y-88679841D01*
X143838934Y-88668934D01*
X143849841Y-88659048D01*
X143861664Y-88650280D01*
X143874290Y-88642712D01*
X143887597Y-88636418D01*
X143901457Y-88631459D01*
X143915736Y-88627882D01*
X143930297Y-88625722D01*
X143945000Y-88625000D01*
X144245000Y-88625000D01*
X144259703Y-88625722D01*
G37*
G36*
X142989703Y-88625722D02*
G01*
X143004264Y-88627882D01*
X143018543Y-88631459D01*
X143032403Y-88636418D01*
X143045710Y-88642712D01*
X143058336Y-88650280D01*
X143070159Y-88659048D01*
X143081066Y-88668934D01*
X143090952Y-88679841D01*
X143099720Y-88691664D01*
X143107288Y-88704290D01*
X143113582Y-88717597D01*
X143118541Y-88731457D01*
X143122118Y-88745736D01*
X143124278Y-88760297D01*
X143125000Y-88775000D01*
X143125000Y-90525000D01*
X143124278Y-90539703D01*
X143122118Y-90554264D01*
X143118541Y-90568543D01*
X143113582Y-90582403D01*
X143107288Y-90595710D01*
X143099720Y-90608336D01*
X143090952Y-90620159D01*
X143081066Y-90631066D01*
X143070159Y-90640952D01*
X143058336Y-90649720D01*
X143045710Y-90657288D01*
X143032403Y-90663582D01*
X143018543Y-90668541D01*
X143004264Y-90672118D01*
X142989703Y-90674278D01*
X142975000Y-90675000D01*
X142675000Y-90675000D01*
X142660297Y-90674278D01*
X142645736Y-90672118D01*
X142631457Y-90668541D01*
X142617597Y-90663582D01*
X142604290Y-90657288D01*
X142591664Y-90649720D01*
X142579841Y-90640952D01*
X142568934Y-90631066D01*
X142559048Y-90620159D01*
X142550280Y-90608336D01*
X142542712Y-90595710D01*
X142536418Y-90582403D01*
X142531459Y-90568543D01*
X142527882Y-90554264D01*
X142525722Y-90539703D01*
X142525000Y-90525000D01*
X142525000Y-88775000D01*
X142525722Y-88760297D01*
X142527882Y-88745736D01*
X142531459Y-88731457D01*
X142536418Y-88717597D01*
X142542712Y-88704290D01*
X142550280Y-88691664D01*
X142559048Y-88679841D01*
X142568934Y-88668934D01*
X142579841Y-88659048D01*
X142591664Y-88650280D01*
X142604290Y-88642712D01*
X142617597Y-88636418D01*
X142631457Y-88631459D01*
X142645736Y-88627882D01*
X142660297Y-88625722D01*
X142675000Y-88625000D01*
X142975000Y-88625000D01*
X142989703Y-88625722D01*
G37*
G36*
X141719703Y-88625722D02*
G01*
X141734264Y-88627882D01*
X141748543Y-88631459D01*
X141762403Y-88636418D01*
X141775710Y-88642712D01*
X141788336Y-88650280D01*
X141800159Y-88659048D01*
X141811066Y-88668934D01*
X141820952Y-88679841D01*
X141829720Y-88691664D01*
X141837288Y-88704290D01*
X141843582Y-88717597D01*
X141848541Y-88731457D01*
X141852118Y-88745736D01*
X141854278Y-88760297D01*
X141855000Y-88775000D01*
X141855000Y-90525000D01*
X141854278Y-90539703D01*
X141852118Y-90554264D01*
X141848541Y-90568543D01*
X141843582Y-90582403D01*
X141837288Y-90595710D01*
X141829720Y-90608336D01*
X141820952Y-90620159D01*
X141811066Y-90631066D01*
X141800159Y-90640952D01*
X141788336Y-90649720D01*
X141775710Y-90657288D01*
X141762403Y-90663582D01*
X141748543Y-90668541D01*
X141734264Y-90672118D01*
X141719703Y-90674278D01*
X141705000Y-90675000D01*
X141405000Y-90675000D01*
X141390297Y-90674278D01*
X141375736Y-90672118D01*
X141361457Y-90668541D01*
X141347597Y-90663582D01*
X141334290Y-90657288D01*
X141321664Y-90649720D01*
X141309841Y-90640952D01*
X141298934Y-90631066D01*
X141289048Y-90620159D01*
X141280280Y-90608336D01*
X141272712Y-90595710D01*
X141266418Y-90582403D01*
X141261459Y-90568543D01*
X141257882Y-90554264D01*
X141255722Y-90539703D01*
X141255000Y-90525000D01*
X141255000Y-88775000D01*
X141255722Y-88760297D01*
X141257882Y-88745736D01*
X141261459Y-88731457D01*
X141266418Y-88717597D01*
X141272712Y-88704290D01*
X141280280Y-88691664D01*
X141289048Y-88679841D01*
X141298934Y-88668934D01*
X141309841Y-88659048D01*
X141321664Y-88650280D01*
X141334290Y-88642712D01*
X141347597Y-88636418D01*
X141361457Y-88631459D01*
X141375736Y-88627882D01*
X141390297Y-88625722D01*
X141405000Y-88625000D01*
X141705000Y-88625000D01*
X141719703Y-88625722D01*
G37*
G36*
X105719703Y-79325722D02*
G01*
X105734264Y-79327882D01*
X105748543Y-79331459D01*
X105762403Y-79336418D01*
X105775710Y-79342712D01*
X105788336Y-79350280D01*
X105800159Y-79359048D01*
X105811066Y-79368934D01*
X105820952Y-79379841D01*
X105829720Y-79391664D01*
X105837288Y-79404290D01*
X105843582Y-79417597D01*
X105848541Y-79431457D01*
X105852118Y-79445736D01*
X105854278Y-79460297D01*
X105855000Y-79475000D01*
X105855000Y-81225000D01*
X105854278Y-81239703D01*
X105852118Y-81254264D01*
X105848541Y-81268543D01*
X105843582Y-81282403D01*
X105837288Y-81295710D01*
X105829720Y-81308336D01*
X105820952Y-81320159D01*
X105811066Y-81331066D01*
X105800159Y-81340952D01*
X105788336Y-81349720D01*
X105775710Y-81357288D01*
X105762403Y-81363582D01*
X105748543Y-81368541D01*
X105734264Y-81372118D01*
X105719703Y-81374278D01*
X105705000Y-81375000D01*
X105405000Y-81375000D01*
X105390297Y-81374278D01*
X105375736Y-81372118D01*
X105361457Y-81368541D01*
X105347597Y-81363582D01*
X105334290Y-81357288D01*
X105321664Y-81349720D01*
X105309841Y-81340952D01*
X105298934Y-81331066D01*
X105289048Y-81320159D01*
X105280280Y-81308336D01*
X105272712Y-81295710D01*
X105266418Y-81282403D01*
X105261459Y-81268543D01*
X105257882Y-81254264D01*
X105255722Y-81239703D01*
X105255000Y-81225000D01*
X105255000Y-79475000D01*
X105255722Y-79460297D01*
X105257882Y-79445736D01*
X105261459Y-79431457D01*
X105266418Y-79417597D01*
X105272712Y-79404290D01*
X105280280Y-79391664D01*
X105289048Y-79379841D01*
X105298934Y-79368934D01*
X105309841Y-79359048D01*
X105321664Y-79350280D01*
X105334290Y-79342712D01*
X105347597Y-79336418D01*
X105361457Y-79331459D01*
X105375736Y-79327882D01*
X105390297Y-79325722D01*
X105405000Y-79325000D01*
X105705000Y-79325000D01*
X105719703Y-79325722D01*
G37*
G36*
X106989703Y-79325722D02*
G01*
X107004264Y-79327882D01*
X107018543Y-79331459D01*
X107032403Y-79336418D01*
X107045710Y-79342712D01*
X107058336Y-79350280D01*
X107070159Y-79359048D01*
X107081066Y-79368934D01*
X107090952Y-79379841D01*
X107099720Y-79391664D01*
X107107288Y-79404290D01*
X107113582Y-79417597D01*
X107118541Y-79431457D01*
X107122118Y-79445736D01*
X107124278Y-79460297D01*
X107125000Y-79475000D01*
X107125000Y-81225000D01*
X107124278Y-81239703D01*
X107122118Y-81254264D01*
X107118541Y-81268543D01*
X107113582Y-81282403D01*
X107107288Y-81295710D01*
X107099720Y-81308336D01*
X107090952Y-81320159D01*
X107081066Y-81331066D01*
X107070159Y-81340952D01*
X107058336Y-81349720D01*
X107045710Y-81357288D01*
X107032403Y-81363582D01*
X107018543Y-81368541D01*
X107004264Y-81372118D01*
X106989703Y-81374278D01*
X106975000Y-81375000D01*
X106675000Y-81375000D01*
X106660297Y-81374278D01*
X106645736Y-81372118D01*
X106631457Y-81368541D01*
X106617597Y-81363582D01*
X106604290Y-81357288D01*
X106591664Y-81349720D01*
X106579841Y-81340952D01*
X106568934Y-81331066D01*
X106559048Y-81320159D01*
X106550280Y-81308336D01*
X106542712Y-81295710D01*
X106536418Y-81282403D01*
X106531459Y-81268543D01*
X106527882Y-81254264D01*
X106525722Y-81239703D01*
X106525000Y-81225000D01*
X106525000Y-79475000D01*
X106525722Y-79460297D01*
X106527882Y-79445736D01*
X106531459Y-79431457D01*
X106536418Y-79417597D01*
X106542712Y-79404290D01*
X106550280Y-79391664D01*
X106559048Y-79379841D01*
X106568934Y-79368934D01*
X106579841Y-79359048D01*
X106591664Y-79350280D01*
X106604290Y-79342712D01*
X106617597Y-79336418D01*
X106631457Y-79331459D01*
X106645736Y-79327882D01*
X106660297Y-79325722D01*
X106675000Y-79325000D01*
X106975000Y-79325000D01*
X106989703Y-79325722D01*
G37*
G36*
X108259703Y-79325722D02*
G01*
X108274264Y-79327882D01*
X108288543Y-79331459D01*
X108302403Y-79336418D01*
X108315710Y-79342712D01*
X108328336Y-79350280D01*
X108340159Y-79359048D01*
X108351066Y-79368934D01*
X108360952Y-79379841D01*
X108369720Y-79391664D01*
X108377288Y-79404290D01*
X108383582Y-79417597D01*
X108388541Y-79431457D01*
X108392118Y-79445736D01*
X108394278Y-79460297D01*
X108395000Y-79475000D01*
X108395000Y-81225000D01*
X108394278Y-81239703D01*
X108392118Y-81254264D01*
X108388541Y-81268543D01*
X108383582Y-81282403D01*
X108377288Y-81295710D01*
X108369720Y-81308336D01*
X108360952Y-81320159D01*
X108351066Y-81331066D01*
X108340159Y-81340952D01*
X108328336Y-81349720D01*
X108315710Y-81357288D01*
X108302403Y-81363582D01*
X108288543Y-81368541D01*
X108274264Y-81372118D01*
X108259703Y-81374278D01*
X108245000Y-81375000D01*
X107945000Y-81375000D01*
X107930297Y-81374278D01*
X107915736Y-81372118D01*
X107901457Y-81368541D01*
X107887597Y-81363582D01*
X107874290Y-81357288D01*
X107861664Y-81349720D01*
X107849841Y-81340952D01*
X107838934Y-81331066D01*
X107829048Y-81320159D01*
X107820280Y-81308336D01*
X107812712Y-81295710D01*
X107806418Y-81282403D01*
X107801459Y-81268543D01*
X107797882Y-81254264D01*
X107795722Y-81239703D01*
X107795000Y-81225000D01*
X107795000Y-79475000D01*
X107795722Y-79460297D01*
X107797882Y-79445736D01*
X107801459Y-79431457D01*
X107806418Y-79417597D01*
X107812712Y-79404290D01*
X107820280Y-79391664D01*
X107829048Y-79379841D01*
X107838934Y-79368934D01*
X107849841Y-79359048D01*
X107861664Y-79350280D01*
X107874290Y-79342712D01*
X107887597Y-79336418D01*
X107901457Y-79331459D01*
X107915736Y-79327882D01*
X107930297Y-79325722D01*
X107945000Y-79325000D01*
X108245000Y-79325000D01*
X108259703Y-79325722D01*
G37*
G36*
X109529703Y-79325722D02*
G01*
X109544264Y-79327882D01*
X109558543Y-79331459D01*
X109572403Y-79336418D01*
X109585710Y-79342712D01*
X109598336Y-79350280D01*
X109610159Y-79359048D01*
X109621066Y-79368934D01*
X109630952Y-79379841D01*
X109639720Y-79391664D01*
X109647288Y-79404290D01*
X109653582Y-79417597D01*
X109658541Y-79431457D01*
X109662118Y-79445736D01*
X109664278Y-79460297D01*
X109665000Y-79475000D01*
X109665000Y-81225000D01*
X109664278Y-81239703D01*
X109662118Y-81254264D01*
X109658541Y-81268543D01*
X109653582Y-81282403D01*
X109647288Y-81295710D01*
X109639720Y-81308336D01*
X109630952Y-81320159D01*
X109621066Y-81331066D01*
X109610159Y-81340952D01*
X109598336Y-81349720D01*
X109585710Y-81357288D01*
X109572403Y-81363582D01*
X109558543Y-81368541D01*
X109544264Y-81372118D01*
X109529703Y-81374278D01*
X109515000Y-81375000D01*
X109215000Y-81375000D01*
X109200297Y-81374278D01*
X109185736Y-81372118D01*
X109171457Y-81368541D01*
X109157597Y-81363582D01*
X109144290Y-81357288D01*
X109131664Y-81349720D01*
X109119841Y-81340952D01*
X109108934Y-81331066D01*
X109099048Y-81320159D01*
X109090280Y-81308336D01*
X109082712Y-81295710D01*
X109076418Y-81282403D01*
X109071459Y-81268543D01*
X109067882Y-81254264D01*
X109065722Y-81239703D01*
X109065000Y-81225000D01*
X109065000Y-79475000D01*
X109065722Y-79460297D01*
X109067882Y-79445736D01*
X109071459Y-79431457D01*
X109076418Y-79417597D01*
X109082712Y-79404290D01*
X109090280Y-79391664D01*
X109099048Y-79379841D01*
X109108934Y-79368934D01*
X109119841Y-79359048D01*
X109131664Y-79350280D01*
X109144290Y-79342712D01*
X109157597Y-79336418D01*
X109171457Y-79331459D01*
X109185736Y-79327882D01*
X109200297Y-79325722D01*
X109215000Y-79325000D01*
X109515000Y-79325000D01*
X109529703Y-79325722D01*
G37*
G36*
X110799703Y-79325722D02*
G01*
X110814264Y-79327882D01*
X110828543Y-79331459D01*
X110842403Y-79336418D01*
X110855710Y-79342712D01*
X110868336Y-79350280D01*
X110880159Y-79359048D01*
X110891066Y-79368934D01*
X110900952Y-79379841D01*
X110909720Y-79391664D01*
X110917288Y-79404290D01*
X110923582Y-79417597D01*
X110928541Y-79431457D01*
X110932118Y-79445736D01*
X110934278Y-79460297D01*
X110935000Y-79475000D01*
X110935000Y-81225000D01*
X110934278Y-81239703D01*
X110932118Y-81254264D01*
X110928541Y-81268543D01*
X110923582Y-81282403D01*
X110917288Y-81295710D01*
X110909720Y-81308336D01*
X110900952Y-81320159D01*
X110891066Y-81331066D01*
X110880159Y-81340952D01*
X110868336Y-81349720D01*
X110855710Y-81357288D01*
X110842403Y-81363582D01*
X110828543Y-81368541D01*
X110814264Y-81372118D01*
X110799703Y-81374278D01*
X110785000Y-81375000D01*
X110485000Y-81375000D01*
X110470297Y-81374278D01*
X110455736Y-81372118D01*
X110441457Y-81368541D01*
X110427597Y-81363582D01*
X110414290Y-81357288D01*
X110401664Y-81349720D01*
X110389841Y-81340952D01*
X110378934Y-81331066D01*
X110369048Y-81320159D01*
X110360280Y-81308336D01*
X110352712Y-81295710D01*
X110346418Y-81282403D01*
X110341459Y-81268543D01*
X110337882Y-81254264D01*
X110335722Y-81239703D01*
X110335000Y-81225000D01*
X110335000Y-79475000D01*
X110335722Y-79460297D01*
X110337882Y-79445736D01*
X110341459Y-79431457D01*
X110346418Y-79417597D01*
X110352712Y-79404290D01*
X110360280Y-79391664D01*
X110369048Y-79379841D01*
X110378934Y-79368934D01*
X110389841Y-79359048D01*
X110401664Y-79350280D01*
X110414290Y-79342712D01*
X110427597Y-79336418D01*
X110441457Y-79331459D01*
X110455736Y-79327882D01*
X110470297Y-79325722D01*
X110485000Y-79325000D01*
X110785000Y-79325000D01*
X110799703Y-79325722D01*
G37*
G36*
X112069703Y-79325722D02*
G01*
X112084264Y-79327882D01*
X112098543Y-79331459D01*
X112112403Y-79336418D01*
X112125710Y-79342712D01*
X112138336Y-79350280D01*
X112150159Y-79359048D01*
X112161066Y-79368934D01*
X112170952Y-79379841D01*
X112179720Y-79391664D01*
X112187288Y-79404290D01*
X112193582Y-79417597D01*
X112198541Y-79431457D01*
X112202118Y-79445736D01*
X112204278Y-79460297D01*
X112205000Y-79475000D01*
X112205000Y-81225000D01*
X112204278Y-81239703D01*
X112202118Y-81254264D01*
X112198541Y-81268543D01*
X112193582Y-81282403D01*
X112187288Y-81295710D01*
X112179720Y-81308336D01*
X112170952Y-81320159D01*
X112161066Y-81331066D01*
X112150159Y-81340952D01*
X112138336Y-81349720D01*
X112125710Y-81357288D01*
X112112403Y-81363582D01*
X112098543Y-81368541D01*
X112084264Y-81372118D01*
X112069703Y-81374278D01*
X112055000Y-81375000D01*
X111755000Y-81375000D01*
X111740297Y-81374278D01*
X111725736Y-81372118D01*
X111711457Y-81368541D01*
X111697597Y-81363582D01*
X111684290Y-81357288D01*
X111671664Y-81349720D01*
X111659841Y-81340952D01*
X111648934Y-81331066D01*
X111639048Y-81320159D01*
X111630280Y-81308336D01*
X111622712Y-81295710D01*
X111616418Y-81282403D01*
X111611459Y-81268543D01*
X111607882Y-81254264D01*
X111605722Y-81239703D01*
X111605000Y-81225000D01*
X111605000Y-79475000D01*
X111605722Y-79460297D01*
X111607882Y-79445736D01*
X111611459Y-79431457D01*
X111616418Y-79417597D01*
X111622712Y-79404290D01*
X111630280Y-79391664D01*
X111639048Y-79379841D01*
X111648934Y-79368934D01*
X111659841Y-79359048D01*
X111671664Y-79350280D01*
X111684290Y-79342712D01*
X111697597Y-79336418D01*
X111711457Y-79331459D01*
X111725736Y-79327882D01*
X111740297Y-79325722D01*
X111755000Y-79325000D01*
X112055000Y-79325000D01*
X112069703Y-79325722D01*
G37*
G36*
X113339703Y-79325722D02*
G01*
X113354264Y-79327882D01*
X113368543Y-79331459D01*
X113382403Y-79336418D01*
X113395710Y-79342712D01*
X113408336Y-79350280D01*
X113420159Y-79359048D01*
X113431066Y-79368934D01*
X113440952Y-79379841D01*
X113449720Y-79391664D01*
X113457288Y-79404290D01*
X113463582Y-79417597D01*
X113468541Y-79431457D01*
X113472118Y-79445736D01*
X113474278Y-79460297D01*
X113475000Y-79475000D01*
X113475000Y-81225000D01*
X113474278Y-81239703D01*
X113472118Y-81254264D01*
X113468541Y-81268543D01*
X113463582Y-81282403D01*
X113457288Y-81295710D01*
X113449720Y-81308336D01*
X113440952Y-81320159D01*
X113431066Y-81331066D01*
X113420159Y-81340952D01*
X113408336Y-81349720D01*
X113395710Y-81357288D01*
X113382403Y-81363582D01*
X113368543Y-81368541D01*
X113354264Y-81372118D01*
X113339703Y-81374278D01*
X113325000Y-81375000D01*
X113025000Y-81375000D01*
X113010297Y-81374278D01*
X112995736Y-81372118D01*
X112981457Y-81368541D01*
X112967597Y-81363582D01*
X112954290Y-81357288D01*
X112941664Y-81349720D01*
X112929841Y-81340952D01*
X112918934Y-81331066D01*
X112909048Y-81320159D01*
X112900280Y-81308336D01*
X112892712Y-81295710D01*
X112886418Y-81282403D01*
X112881459Y-81268543D01*
X112877882Y-81254264D01*
X112875722Y-81239703D01*
X112875000Y-81225000D01*
X112875000Y-79475000D01*
X112875722Y-79460297D01*
X112877882Y-79445736D01*
X112881459Y-79431457D01*
X112886418Y-79417597D01*
X112892712Y-79404290D01*
X112900280Y-79391664D01*
X112909048Y-79379841D01*
X112918934Y-79368934D01*
X112929841Y-79359048D01*
X112941664Y-79350280D01*
X112954290Y-79342712D01*
X112967597Y-79336418D01*
X112981457Y-79331459D01*
X112995736Y-79327882D01*
X113010297Y-79325722D01*
X113025000Y-79325000D01*
X113325000Y-79325000D01*
X113339703Y-79325722D01*
G37*
G36*
X114609703Y-79325722D02*
G01*
X114624264Y-79327882D01*
X114638543Y-79331459D01*
X114652403Y-79336418D01*
X114665710Y-79342712D01*
X114678336Y-79350280D01*
X114690159Y-79359048D01*
X114701066Y-79368934D01*
X114710952Y-79379841D01*
X114719720Y-79391664D01*
X114727288Y-79404290D01*
X114733582Y-79417597D01*
X114738541Y-79431457D01*
X114742118Y-79445736D01*
X114744278Y-79460297D01*
X114745000Y-79475000D01*
X114745000Y-81225000D01*
X114744278Y-81239703D01*
X114742118Y-81254264D01*
X114738541Y-81268543D01*
X114733582Y-81282403D01*
X114727288Y-81295710D01*
X114719720Y-81308336D01*
X114710952Y-81320159D01*
X114701066Y-81331066D01*
X114690159Y-81340952D01*
X114678336Y-81349720D01*
X114665710Y-81357288D01*
X114652403Y-81363582D01*
X114638543Y-81368541D01*
X114624264Y-81372118D01*
X114609703Y-81374278D01*
X114595000Y-81375000D01*
X114295000Y-81375000D01*
X114280297Y-81374278D01*
X114265736Y-81372118D01*
X114251457Y-81368541D01*
X114237597Y-81363582D01*
X114224290Y-81357288D01*
X114211664Y-81349720D01*
X114199841Y-81340952D01*
X114188934Y-81331066D01*
X114179048Y-81320159D01*
X114170280Y-81308336D01*
X114162712Y-81295710D01*
X114156418Y-81282403D01*
X114151459Y-81268543D01*
X114147882Y-81254264D01*
X114145722Y-81239703D01*
X114145000Y-81225000D01*
X114145000Y-79475000D01*
X114145722Y-79460297D01*
X114147882Y-79445736D01*
X114151459Y-79431457D01*
X114156418Y-79417597D01*
X114162712Y-79404290D01*
X114170280Y-79391664D01*
X114179048Y-79379841D01*
X114188934Y-79368934D01*
X114199841Y-79359048D01*
X114211664Y-79350280D01*
X114224290Y-79342712D01*
X114237597Y-79336418D01*
X114251457Y-79331459D01*
X114265736Y-79327882D01*
X114280297Y-79325722D01*
X114295000Y-79325000D01*
X114595000Y-79325000D01*
X114609703Y-79325722D01*
G37*
G36*
X114609703Y-88625722D02*
G01*
X114624264Y-88627882D01*
X114638543Y-88631459D01*
X114652403Y-88636418D01*
X114665710Y-88642712D01*
X114678336Y-88650280D01*
X114690159Y-88659048D01*
X114701066Y-88668934D01*
X114710952Y-88679841D01*
X114719720Y-88691664D01*
X114727288Y-88704290D01*
X114733582Y-88717597D01*
X114738541Y-88731457D01*
X114742118Y-88745736D01*
X114744278Y-88760297D01*
X114745000Y-88775000D01*
X114745000Y-90525000D01*
X114744278Y-90539703D01*
X114742118Y-90554264D01*
X114738541Y-90568543D01*
X114733582Y-90582403D01*
X114727288Y-90595710D01*
X114719720Y-90608336D01*
X114710952Y-90620159D01*
X114701066Y-90631066D01*
X114690159Y-90640952D01*
X114678336Y-90649720D01*
X114665710Y-90657288D01*
X114652403Y-90663582D01*
X114638543Y-90668541D01*
X114624264Y-90672118D01*
X114609703Y-90674278D01*
X114595000Y-90675000D01*
X114295000Y-90675000D01*
X114280297Y-90674278D01*
X114265736Y-90672118D01*
X114251457Y-90668541D01*
X114237597Y-90663582D01*
X114224290Y-90657288D01*
X114211664Y-90649720D01*
X114199841Y-90640952D01*
X114188934Y-90631066D01*
X114179048Y-90620159D01*
X114170280Y-90608336D01*
X114162712Y-90595710D01*
X114156418Y-90582403D01*
X114151459Y-90568543D01*
X114147882Y-90554264D01*
X114145722Y-90539703D01*
X114145000Y-90525000D01*
X114145000Y-88775000D01*
X114145722Y-88760297D01*
X114147882Y-88745736D01*
X114151459Y-88731457D01*
X114156418Y-88717597D01*
X114162712Y-88704290D01*
X114170280Y-88691664D01*
X114179048Y-88679841D01*
X114188934Y-88668934D01*
X114199841Y-88659048D01*
X114211664Y-88650280D01*
X114224290Y-88642712D01*
X114237597Y-88636418D01*
X114251457Y-88631459D01*
X114265736Y-88627882D01*
X114280297Y-88625722D01*
X114295000Y-88625000D01*
X114595000Y-88625000D01*
X114609703Y-88625722D01*
G37*
G36*
X113339703Y-88625722D02*
G01*
X113354264Y-88627882D01*
X113368543Y-88631459D01*
X113382403Y-88636418D01*
X113395710Y-88642712D01*
X113408336Y-88650280D01*
X113420159Y-88659048D01*
X113431066Y-88668934D01*
X113440952Y-88679841D01*
X113449720Y-88691664D01*
X113457288Y-88704290D01*
X113463582Y-88717597D01*
X113468541Y-88731457D01*
X113472118Y-88745736D01*
X113474278Y-88760297D01*
X113475000Y-88775000D01*
X113475000Y-90525000D01*
X113474278Y-90539703D01*
X113472118Y-90554264D01*
X113468541Y-90568543D01*
X113463582Y-90582403D01*
X113457288Y-90595710D01*
X113449720Y-90608336D01*
X113440952Y-90620159D01*
X113431066Y-90631066D01*
X113420159Y-90640952D01*
X113408336Y-90649720D01*
X113395710Y-90657288D01*
X113382403Y-90663582D01*
X113368543Y-90668541D01*
X113354264Y-90672118D01*
X113339703Y-90674278D01*
X113325000Y-90675000D01*
X113025000Y-90675000D01*
X113010297Y-90674278D01*
X112995736Y-90672118D01*
X112981457Y-90668541D01*
X112967597Y-90663582D01*
X112954290Y-90657288D01*
X112941664Y-90649720D01*
X112929841Y-90640952D01*
X112918934Y-90631066D01*
X112909048Y-90620159D01*
X112900280Y-90608336D01*
X112892712Y-90595710D01*
X112886418Y-90582403D01*
X112881459Y-90568543D01*
X112877882Y-90554264D01*
X112875722Y-90539703D01*
X112875000Y-90525000D01*
X112875000Y-88775000D01*
X112875722Y-88760297D01*
X112877882Y-88745736D01*
X112881459Y-88731457D01*
X112886418Y-88717597D01*
X112892712Y-88704290D01*
X112900280Y-88691664D01*
X112909048Y-88679841D01*
X112918934Y-88668934D01*
X112929841Y-88659048D01*
X112941664Y-88650280D01*
X112954290Y-88642712D01*
X112967597Y-88636418D01*
X112981457Y-88631459D01*
X112995736Y-88627882D01*
X113010297Y-88625722D01*
X113025000Y-88625000D01*
X113325000Y-88625000D01*
X113339703Y-88625722D01*
G37*
G36*
X112069703Y-88625722D02*
G01*
X112084264Y-88627882D01*
X112098543Y-88631459D01*
X112112403Y-88636418D01*
X112125710Y-88642712D01*
X112138336Y-88650280D01*
X112150159Y-88659048D01*
X112161066Y-88668934D01*
X112170952Y-88679841D01*
X112179720Y-88691664D01*
X112187288Y-88704290D01*
X112193582Y-88717597D01*
X112198541Y-88731457D01*
X112202118Y-88745736D01*
X112204278Y-88760297D01*
X112205000Y-88775000D01*
X112205000Y-90525000D01*
X112204278Y-90539703D01*
X112202118Y-90554264D01*
X112198541Y-90568543D01*
X112193582Y-90582403D01*
X112187288Y-90595710D01*
X112179720Y-90608336D01*
X112170952Y-90620159D01*
X112161066Y-90631066D01*
X112150159Y-90640952D01*
X112138336Y-90649720D01*
X112125710Y-90657288D01*
X112112403Y-90663582D01*
X112098543Y-90668541D01*
X112084264Y-90672118D01*
X112069703Y-90674278D01*
X112055000Y-90675000D01*
X111755000Y-90675000D01*
X111740297Y-90674278D01*
X111725736Y-90672118D01*
X111711457Y-90668541D01*
X111697597Y-90663582D01*
X111684290Y-90657288D01*
X111671664Y-90649720D01*
X111659841Y-90640952D01*
X111648934Y-90631066D01*
X111639048Y-90620159D01*
X111630280Y-90608336D01*
X111622712Y-90595710D01*
X111616418Y-90582403D01*
X111611459Y-90568543D01*
X111607882Y-90554264D01*
X111605722Y-90539703D01*
X111605000Y-90525000D01*
X111605000Y-88775000D01*
X111605722Y-88760297D01*
X111607882Y-88745736D01*
X111611459Y-88731457D01*
X111616418Y-88717597D01*
X111622712Y-88704290D01*
X111630280Y-88691664D01*
X111639048Y-88679841D01*
X111648934Y-88668934D01*
X111659841Y-88659048D01*
X111671664Y-88650280D01*
X111684290Y-88642712D01*
X111697597Y-88636418D01*
X111711457Y-88631459D01*
X111725736Y-88627882D01*
X111740297Y-88625722D01*
X111755000Y-88625000D01*
X112055000Y-88625000D01*
X112069703Y-88625722D01*
G37*
G36*
X110799703Y-88625722D02*
G01*
X110814264Y-88627882D01*
X110828543Y-88631459D01*
X110842403Y-88636418D01*
X110855710Y-88642712D01*
X110868336Y-88650280D01*
X110880159Y-88659048D01*
X110891066Y-88668934D01*
X110900952Y-88679841D01*
X110909720Y-88691664D01*
X110917288Y-88704290D01*
X110923582Y-88717597D01*
X110928541Y-88731457D01*
X110932118Y-88745736D01*
X110934278Y-88760297D01*
X110935000Y-88775000D01*
X110935000Y-90525000D01*
X110934278Y-90539703D01*
X110932118Y-90554264D01*
X110928541Y-90568543D01*
X110923582Y-90582403D01*
X110917288Y-90595710D01*
X110909720Y-90608336D01*
X110900952Y-90620159D01*
X110891066Y-90631066D01*
X110880159Y-90640952D01*
X110868336Y-90649720D01*
X110855710Y-90657288D01*
X110842403Y-90663582D01*
X110828543Y-90668541D01*
X110814264Y-90672118D01*
X110799703Y-90674278D01*
X110785000Y-90675000D01*
X110485000Y-90675000D01*
X110470297Y-90674278D01*
X110455736Y-90672118D01*
X110441457Y-90668541D01*
X110427597Y-90663582D01*
X110414290Y-90657288D01*
X110401664Y-90649720D01*
X110389841Y-90640952D01*
X110378934Y-90631066D01*
X110369048Y-90620159D01*
X110360280Y-90608336D01*
X110352712Y-90595710D01*
X110346418Y-90582403D01*
X110341459Y-90568543D01*
X110337882Y-90554264D01*
X110335722Y-90539703D01*
X110335000Y-90525000D01*
X110335000Y-88775000D01*
X110335722Y-88760297D01*
X110337882Y-88745736D01*
X110341459Y-88731457D01*
X110346418Y-88717597D01*
X110352712Y-88704290D01*
X110360280Y-88691664D01*
X110369048Y-88679841D01*
X110378934Y-88668934D01*
X110389841Y-88659048D01*
X110401664Y-88650280D01*
X110414290Y-88642712D01*
X110427597Y-88636418D01*
X110441457Y-88631459D01*
X110455736Y-88627882D01*
X110470297Y-88625722D01*
X110485000Y-88625000D01*
X110785000Y-88625000D01*
X110799703Y-88625722D01*
G37*
G36*
X109529703Y-88625722D02*
G01*
X109544264Y-88627882D01*
X109558543Y-88631459D01*
X109572403Y-88636418D01*
X109585710Y-88642712D01*
X109598336Y-88650280D01*
X109610159Y-88659048D01*
X109621066Y-88668934D01*
X109630952Y-88679841D01*
X109639720Y-88691664D01*
X109647288Y-88704290D01*
X109653582Y-88717597D01*
X109658541Y-88731457D01*
X109662118Y-88745736D01*
X109664278Y-88760297D01*
X109665000Y-88775000D01*
X109665000Y-90525000D01*
X109664278Y-90539703D01*
X109662118Y-90554264D01*
X109658541Y-90568543D01*
X109653582Y-90582403D01*
X109647288Y-90595710D01*
X109639720Y-90608336D01*
X109630952Y-90620159D01*
X109621066Y-90631066D01*
X109610159Y-90640952D01*
X109598336Y-90649720D01*
X109585710Y-90657288D01*
X109572403Y-90663582D01*
X109558543Y-90668541D01*
X109544264Y-90672118D01*
X109529703Y-90674278D01*
X109515000Y-90675000D01*
X109215000Y-90675000D01*
X109200297Y-90674278D01*
X109185736Y-90672118D01*
X109171457Y-90668541D01*
X109157597Y-90663582D01*
X109144290Y-90657288D01*
X109131664Y-90649720D01*
X109119841Y-90640952D01*
X109108934Y-90631066D01*
X109099048Y-90620159D01*
X109090280Y-90608336D01*
X109082712Y-90595710D01*
X109076418Y-90582403D01*
X109071459Y-90568543D01*
X109067882Y-90554264D01*
X109065722Y-90539703D01*
X109065000Y-90525000D01*
X109065000Y-88775000D01*
X109065722Y-88760297D01*
X109067882Y-88745736D01*
X109071459Y-88731457D01*
X109076418Y-88717597D01*
X109082712Y-88704290D01*
X109090280Y-88691664D01*
X109099048Y-88679841D01*
X109108934Y-88668934D01*
X109119841Y-88659048D01*
X109131664Y-88650280D01*
X109144290Y-88642712D01*
X109157597Y-88636418D01*
X109171457Y-88631459D01*
X109185736Y-88627882D01*
X109200297Y-88625722D01*
X109215000Y-88625000D01*
X109515000Y-88625000D01*
X109529703Y-88625722D01*
G37*
G36*
X108259703Y-88625722D02*
G01*
X108274264Y-88627882D01*
X108288543Y-88631459D01*
X108302403Y-88636418D01*
X108315710Y-88642712D01*
X108328336Y-88650280D01*
X108340159Y-88659048D01*
X108351066Y-88668934D01*
X108360952Y-88679841D01*
X108369720Y-88691664D01*
X108377288Y-88704290D01*
X108383582Y-88717597D01*
X108388541Y-88731457D01*
X108392118Y-88745736D01*
X108394278Y-88760297D01*
X108395000Y-88775000D01*
X108395000Y-90525000D01*
X108394278Y-90539703D01*
X108392118Y-90554264D01*
X108388541Y-90568543D01*
X108383582Y-90582403D01*
X108377288Y-90595710D01*
X108369720Y-90608336D01*
X108360952Y-90620159D01*
X108351066Y-90631066D01*
X108340159Y-90640952D01*
X108328336Y-90649720D01*
X108315710Y-90657288D01*
X108302403Y-90663582D01*
X108288543Y-90668541D01*
X108274264Y-90672118D01*
X108259703Y-90674278D01*
X108245000Y-90675000D01*
X107945000Y-90675000D01*
X107930297Y-90674278D01*
X107915736Y-90672118D01*
X107901457Y-90668541D01*
X107887597Y-90663582D01*
X107874290Y-90657288D01*
X107861664Y-90649720D01*
X107849841Y-90640952D01*
X107838934Y-90631066D01*
X107829048Y-90620159D01*
X107820280Y-90608336D01*
X107812712Y-90595710D01*
X107806418Y-90582403D01*
X107801459Y-90568543D01*
X107797882Y-90554264D01*
X107795722Y-90539703D01*
X107795000Y-90525000D01*
X107795000Y-88775000D01*
X107795722Y-88760297D01*
X107797882Y-88745736D01*
X107801459Y-88731457D01*
X107806418Y-88717597D01*
X107812712Y-88704290D01*
X107820280Y-88691664D01*
X107829048Y-88679841D01*
X107838934Y-88668934D01*
X107849841Y-88659048D01*
X107861664Y-88650280D01*
X107874290Y-88642712D01*
X107887597Y-88636418D01*
X107901457Y-88631459D01*
X107915736Y-88627882D01*
X107930297Y-88625722D01*
X107945000Y-88625000D01*
X108245000Y-88625000D01*
X108259703Y-88625722D01*
G37*
G36*
X106989703Y-88625722D02*
G01*
X107004264Y-88627882D01*
X107018543Y-88631459D01*
X107032403Y-88636418D01*
X107045710Y-88642712D01*
X107058336Y-88650280D01*
X107070159Y-88659048D01*
X107081066Y-88668934D01*
X107090952Y-88679841D01*
X107099720Y-88691664D01*
X107107288Y-88704290D01*
X107113582Y-88717597D01*
X107118541Y-88731457D01*
X107122118Y-88745736D01*
X107124278Y-88760297D01*
X107125000Y-88775000D01*
X107125000Y-90525000D01*
X107124278Y-90539703D01*
X107122118Y-90554264D01*
X107118541Y-90568543D01*
X107113582Y-90582403D01*
X107107288Y-90595710D01*
X107099720Y-90608336D01*
X107090952Y-90620159D01*
X107081066Y-90631066D01*
X107070159Y-90640952D01*
X107058336Y-90649720D01*
X107045710Y-90657288D01*
X107032403Y-90663582D01*
X107018543Y-90668541D01*
X107004264Y-90672118D01*
X106989703Y-90674278D01*
X106975000Y-90675000D01*
X106675000Y-90675000D01*
X106660297Y-90674278D01*
X106645736Y-90672118D01*
X106631457Y-90668541D01*
X106617597Y-90663582D01*
X106604290Y-90657288D01*
X106591664Y-90649720D01*
X106579841Y-90640952D01*
X106568934Y-90631066D01*
X106559048Y-90620159D01*
X106550280Y-90608336D01*
X106542712Y-90595710D01*
X106536418Y-90582403D01*
X106531459Y-90568543D01*
X106527882Y-90554264D01*
X106525722Y-90539703D01*
X106525000Y-90525000D01*
X106525000Y-88775000D01*
X106525722Y-88760297D01*
X106527882Y-88745736D01*
X106531459Y-88731457D01*
X106536418Y-88717597D01*
X106542712Y-88704290D01*
X106550280Y-88691664D01*
X106559048Y-88679841D01*
X106568934Y-88668934D01*
X106579841Y-88659048D01*
X106591664Y-88650280D01*
X106604290Y-88642712D01*
X106617597Y-88636418D01*
X106631457Y-88631459D01*
X106645736Y-88627882D01*
X106660297Y-88625722D01*
X106675000Y-88625000D01*
X106975000Y-88625000D01*
X106989703Y-88625722D01*
G37*
G36*
X105719703Y-88625722D02*
G01*
X105734264Y-88627882D01*
X105748543Y-88631459D01*
X105762403Y-88636418D01*
X105775710Y-88642712D01*
X105788336Y-88650280D01*
X105800159Y-88659048D01*
X105811066Y-88668934D01*
X105820952Y-88679841D01*
X105829720Y-88691664D01*
X105837288Y-88704290D01*
X105843582Y-88717597D01*
X105848541Y-88731457D01*
X105852118Y-88745736D01*
X105854278Y-88760297D01*
X105855000Y-88775000D01*
X105855000Y-90525000D01*
X105854278Y-90539703D01*
X105852118Y-90554264D01*
X105848541Y-90568543D01*
X105843582Y-90582403D01*
X105837288Y-90595710D01*
X105829720Y-90608336D01*
X105820952Y-90620159D01*
X105811066Y-90631066D01*
X105800159Y-90640952D01*
X105788336Y-90649720D01*
X105775710Y-90657288D01*
X105762403Y-90663582D01*
X105748543Y-90668541D01*
X105734264Y-90672118D01*
X105719703Y-90674278D01*
X105705000Y-90675000D01*
X105405000Y-90675000D01*
X105390297Y-90674278D01*
X105375736Y-90672118D01*
X105361457Y-90668541D01*
X105347597Y-90663582D01*
X105334290Y-90657288D01*
X105321664Y-90649720D01*
X105309841Y-90640952D01*
X105298934Y-90631066D01*
X105289048Y-90620159D01*
X105280280Y-90608336D01*
X105272712Y-90595710D01*
X105266418Y-90582403D01*
X105261459Y-90568543D01*
X105257882Y-90554264D01*
X105255722Y-90539703D01*
X105255000Y-90525000D01*
X105255000Y-88775000D01*
X105255722Y-88760297D01*
X105257882Y-88745736D01*
X105261459Y-88731457D01*
X105266418Y-88717597D01*
X105272712Y-88704290D01*
X105280280Y-88691664D01*
X105289048Y-88679841D01*
X105298934Y-88668934D01*
X105309841Y-88659048D01*
X105321664Y-88650280D01*
X105334290Y-88642712D01*
X105347597Y-88636418D01*
X105361457Y-88631459D01*
X105375736Y-88627882D01*
X105390297Y-88625722D01*
X105405000Y-88625000D01*
X105705000Y-88625000D01*
X105719703Y-88625722D01*
G37*
G36*
X123719703Y-79325722D02*
G01*
X123734264Y-79327882D01*
X123748543Y-79331459D01*
X123762403Y-79336418D01*
X123775710Y-79342712D01*
X123788336Y-79350280D01*
X123800159Y-79359048D01*
X123811066Y-79368934D01*
X123820952Y-79379841D01*
X123829720Y-79391664D01*
X123837288Y-79404290D01*
X123843582Y-79417597D01*
X123848541Y-79431457D01*
X123852118Y-79445736D01*
X123854278Y-79460297D01*
X123855000Y-79475000D01*
X123855000Y-81225000D01*
X123854278Y-81239703D01*
X123852118Y-81254264D01*
X123848541Y-81268543D01*
X123843582Y-81282403D01*
X123837288Y-81295710D01*
X123829720Y-81308336D01*
X123820952Y-81320159D01*
X123811066Y-81331066D01*
X123800159Y-81340952D01*
X123788336Y-81349720D01*
X123775710Y-81357288D01*
X123762403Y-81363582D01*
X123748543Y-81368541D01*
X123734264Y-81372118D01*
X123719703Y-81374278D01*
X123705000Y-81375000D01*
X123405000Y-81375000D01*
X123390297Y-81374278D01*
X123375736Y-81372118D01*
X123361457Y-81368541D01*
X123347597Y-81363582D01*
X123334290Y-81357288D01*
X123321664Y-81349720D01*
X123309841Y-81340952D01*
X123298934Y-81331066D01*
X123289048Y-81320159D01*
X123280280Y-81308336D01*
X123272712Y-81295710D01*
X123266418Y-81282403D01*
X123261459Y-81268543D01*
X123257882Y-81254264D01*
X123255722Y-81239703D01*
X123255000Y-81225000D01*
X123255000Y-79475000D01*
X123255722Y-79460297D01*
X123257882Y-79445736D01*
X123261459Y-79431457D01*
X123266418Y-79417597D01*
X123272712Y-79404290D01*
X123280280Y-79391664D01*
X123289048Y-79379841D01*
X123298934Y-79368934D01*
X123309841Y-79359048D01*
X123321664Y-79350280D01*
X123334290Y-79342712D01*
X123347597Y-79336418D01*
X123361457Y-79331459D01*
X123375736Y-79327882D01*
X123390297Y-79325722D01*
X123405000Y-79325000D01*
X123705000Y-79325000D01*
X123719703Y-79325722D01*
G37*
G36*
X124989703Y-79325722D02*
G01*
X125004264Y-79327882D01*
X125018543Y-79331459D01*
X125032403Y-79336418D01*
X125045710Y-79342712D01*
X125058336Y-79350280D01*
X125070159Y-79359048D01*
X125081066Y-79368934D01*
X125090952Y-79379841D01*
X125099720Y-79391664D01*
X125107288Y-79404290D01*
X125113582Y-79417597D01*
X125118541Y-79431457D01*
X125122118Y-79445736D01*
X125124278Y-79460297D01*
X125125000Y-79475000D01*
X125125000Y-81225000D01*
X125124278Y-81239703D01*
X125122118Y-81254264D01*
X125118541Y-81268543D01*
X125113582Y-81282403D01*
X125107288Y-81295710D01*
X125099720Y-81308336D01*
X125090952Y-81320159D01*
X125081066Y-81331066D01*
X125070159Y-81340952D01*
X125058336Y-81349720D01*
X125045710Y-81357288D01*
X125032403Y-81363582D01*
X125018543Y-81368541D01*
X125004264Y-81372118D01*
X124989703Y-81374278D01*
X124975000Y-81375000D01*
X124675000Y-81375000D01*
X124660297Y-81374278D01*
X124645736Y-81372118D01*
X124631457Y-81368541D01*
X124617597Y-81363582D01*
X124604290Y-81357288D01*
X124591664Y-81349720D01*
X124579841Y-81340952D01*
X124568934Y-81331066D01*
X124559048Y-81320159D01*
X124550280Y-81308336D01*
X124542712Y-81295710D01*
X124536418Y-81282403D01*
X124531459Y-81268543D01*
X124527882Y-81254264D01*
X124525722Y-81239703D01*
X124525000Y-81225000D01*
X124525000Y-79475000D01*
X124525722Y-79460297D01*
X124527882Y-79445736D01*
X124531459Y-79431457D01*
X124536418Y-79417597D01*
X124542712Y-79404290D01*
X124550280Y-79391664D01*
X124559048Y-79379841D01*
X124568934Y-79368934D01*
X124579841Y-79359048D01*
X124591664Y-79350280D01*
X124604290Y-79342712D01*
X124617597Y-79336418D01*
X124631457Y-79331459D01*
X124645736Y-79327882D01*
X124660297Y-79325722D01*
X124675000Y-79325000D01*
X124975000Y-79325000D01*
X124989703Y-79325722D01*
G37*
G36*
X126259703Y-79325722D02*
G01*
X126274264Y-79327882D01*
X126288543Y-79331459D01*
X126302403Y-79336418D01*
X126315710Y-79342712D01*
X126328336Y-79350280D01*
X126340159Y-79359048D01*
X126351066Y-79368934D01*
X126360952Y-79379841D01*
X126369720Y-79391664D01*
X126377288Y-79404290D01*
X126383582Y-79417597D01*
X126388541Y-79431457D01*
X126392118Y-79445736D01*
X126394278Y-79460297D01*
X126395000Y-79475000D01*
X126395000Y-81225000D01*
X126394278Y-81239703D01*
X126392118Y-81254264D01*
X126388541Y-81268543D01*
X126383582Y-81282403D01*
X126377288Y-81295710D01*
X126369720Y-81308336D01*
X126360952Y-81320159D01*
X126351066Y-81331066D01*
X126340159Y-81340952D01*
X126328336Y-81349720D01*
X126315710Y-81357288D01*
X126302403Y-81363582D01*
X126288543Y-81368541D01*
X126274264Y-81372118D01*
X126259703Y-81374278D01*
X126245000Y-81375000D01*
X125945000Y-81375000D01*
X125930297Y-81374278D01*
X125915736Y-81372118D01*
X125901457Y-81368541D01*
X125887597Y-81363582D01*
X125874290Y-81357288D01*
X125861664Y-81349720D01*
X125849841Y-81340952D01*
X125838934Y-81331066D01*
X125829048Y-81320159D01*
X125820280Y-81308336D01*
X125812712Y-81295710D01*
X125806418Y-81282403D01*
X125801459Y-81268543D01*
X125797882Y-81254264D01*
X125795722Y-81239703D01*
X125795000Y-81225000D01*
X125795000Y-79475000D01*
X125795722Y-79460297D01*
X125797882Y-79445736D01*
X125801459Y-79431457D01*
X125806418Y-79417597D01*
X125812712Y-79404290D01*
X125820280Y-79391664D01*
X125829048Y-79379841D01*
X125838934Y-79368934D01*
X125849841Y-79359048D01*
X125861664Y-79350280D01*
X125874290Y-79342712D01*
X125887597Y-79336418D01*
X125901457Y-79331459D01*
X125915736Y-79327882D01*
X125930297Y-79325722D01*
X125945000Y-79325000D01*
X126245000Y-79325000D01*
X126259703Y-79325722D01*
G37*
G36*
X127529703Y-79325722D02*
G01*
X127544264Y-79327882D01*
X127558543Y-79331459D01*
X127572403Y-79336418D01*
X127585710Y-79342712D01*
X127598336Y-79350280D01*
X127610159Y-79359048D01*
X127621066Y-79368934D01*
X127630952Y-79379841D01*
X127639720Y-79391664D01*
X127647288Y-79404290D01*
X127653582Y-79417597D01*
X127658541Y-79431457D01*
X127662118Y-79445736D01*
X127664278Y-79460297D01*
X127665000Y-79475000D01*
X127665000Y-81225000D01*
X127664278Y-81239703D01*
X127662118Y-81254264D01*
X127658541Y-81268543D01*
X127653582Y-81282403D01*
X127647288Y-81295710D01*
X127639720Y-81308336D01*
X127630952Y-81320159D01*
X127621066Y-81331066D01*
X127610159Y-81340952D01*
X127598336Y-81349720D01*
X127585710Y-81357288D01*
X127572403Y-81363582D01*
X127558543Y-81368541D01*
X127544264Y-81372118D01*
X127529703Y-81374278D01*
X127515000Y-81375000D01*
X127215000Y-81375000D01*
X127200297Y-81374278D01*
X127185736Y-81372118D01*
X127171457Y-81368541D01*
X127157597Y-81363582D01*
X127144290Y-81357288D01*
X127131664Y-81349720D01*
X127119841Y-81340952D01*
X127108934Y-81331066D01*
X127099048Y-81320159D01*
X127090280Y-81308336D01*
X127082712Y-81295710D01*
X127076418Y-81282403D01*
X127071459Y-81268543D01*
X127067882Y-81254264D01*
X127065722Y-81239703D01*
X127065000Y-81225000D01*
X127065000Y-79475000D01*
X127065722Y-79460297D01*
X127067882Y-79445736D01*
X127071459Y-79431457D01*
X127076418Y-79417597D01*
X127082712Y-79404290D01*
X127090280Y-79391664D01*
X127099048Y-79379841D01*
X127108934Y-79368934D01*
X127119841Y-79359048D01*
X127131664Y-79350280D01*
X127144290Y-79342712D01*
X127157597Y-79336418D01*
X127171457Y-79331459D01*
X127185736Y-79327882D01*
X127200297Y-79325722D01*
X127215000Y-79325000D01*
X127515000Y-79325000D01*
X127529703Y-79325722D01*
G37*
G36*
X128799703Y-79325722D02*
G01*
X128814264Y-79327882D01*
X128828543Y-79331459D01*
X128842403Y-79336418D01*
X128855710Y-79342712D01*
X128868336Y-79350280D01*
X128880159Y-79359048D01*
X128891066Y-79368934D01*
X128900952Y-79379841D01*
X128909720Y-79391664D01*
X128917288Y-79404290D01*
X128923582Y-79417597D01*
X128928541Y-79431457D01*
X128932118Y-79445736D01*
X128934278Y-79460297D01*
X128935000Y-79475000D01*
X128935000Y-81225000D01*
X128934278Y-81239703D01*
X128932118Y-81254264D01*
X128928541Y-81268543D01*
X128923582Y-81282403D01*
X128917288Y-81295710D01*
X128909720Y-81308336D01*
X128900952Y-81320159D01*
X128891066Y-81331066D01*
X128880159Y-81340952D01*
X128868336Y-81349720D01*
X128855710Y-81357288D01*
X128842403Y-81363582D01*
X128828543Y-81368541D01*
X128814264Y-81372118D01*
X128799703Y-81374278D01*
X128785000Y-81375000D01*
X128485000Y-81375000D01*
X128470297Y-81374278D01*
X128455736Y-81372118D01*
X128441457Y-81368541D01*
X128427597Y-81363582D01*
X128414290Y-81357288D01*
X128401664Y-81349720D01*
X128389841Y-81340952D01*
X128378934Y-81331066D01*
X128369048Y-81320159D01*
X128360280Y-81308336D01*
X128352712Y-81295710D01*
X128346418Y-81282403D01*
X128341459Y-81268543D01*
X128337882Y-81254264D01*
X128335722Y-81239703D01*
X128335000Y-81225000D01*
X128335000Y-79475000D01*
X128335722Y-79460297D01*
X128337882Y-79445736D01*
X128341459Y-79431457D01*
X128346418Y-79417597D01*
X128352712Y-79404290D01*
X128360280Y-79391664D01*
X128369048Y-79379841D01*
X128378934Y-79368934D01*
X128389841Y-79359048D01*
X128401664Y-79350280D01*
X128414290Y-79342712D01*
X128427597Y-79336418D01*
X128441457Y-79331459D01*
X128455736Y-79327882D01*
X128470297Y-79325722D01*
X128485000Y-79325000D01*
X128785000Y-79325000D01*
X128799703Y-79325722D01*
G37*
G36*
X130069703Y-79325722D02*
G01*
X130084264Y-79327882D01*
X130098543Y-79331459D01*
X130112403Y-79336418D01*
X130125710Y-79342712D01*
X130138336Y-79350280D01*
X130150159Y-79359048D01*
X130161066Y-79368934D01*
X130170952Y-79379841D01*
X130179720Y-79391664D01*
X130187288Y-79404290D01*
X130193582Y-79417597D01*
X130198541Y-79431457D01*
X130202118Y-79445736D01*
X130204278Y-79460297D01*
X130205000Y-79475000D01*
X130205000Y-81225000D01*
X130204278Y-81239703D01*
X130202118Y-81254264D01*
X130198541Y-81268543D01*
X130193582Y-81282403D01*
X130187288Y-81295710D01*
X130179720Y-81308336D01*
X130170952Y-81320159D01*
X130161066Y-81331066D01*
X130150159Y-81340952D01*
X130138336Y-81349720D01*
X130125710Y-81357288D01*
X130112403Y-81363582D01*
X130098543Y-81368541D01*
X130084264Y-81372118D01*
X130069703Y-81374278D01*
X130055000Y-81375000D01*
X129755000Y-81375000D01*
X129740297Y-81374278D01*
X129725736Y-81372118D01*
X129711457Y-81368541D01*
X129697597Y-81363582D01*
X129684290Y-81357288D01*
X129671664Y-81349720D01*
X129659841Y-81340952D01*
X129648934Y-81331066D01*
X129639048Y-81320159D01*
X129630280Y-81308336D01*
X129622712Y-81295710D01*
X129616418Y-81282403D01*
X129611459Y-81268543D01*
X129607882Y-81254264D01*
X129605722Y-81239703D01*
X129605000Y-81225000D01*
X129605000Y-79475000D01*
X129605722Y-79460297D01*
X129607882Y-79445736D01*
X129611459Y-79431457D01*
X129616418Y-79417597D01*
X129622712Y-79404290D01*
X129630280Y-79391664D01*
X129639048Y-79379841D01*
X129648934Y-79368934D01*
X129659841Y-79359048D01*
X129671664Y-79350280D01*
X129684290Y-79342712D01*
X129697597Y-79336418D01*
X129711457Y-79331459D01*
X129725736Y-79327882D01*
X129740297Y-79325722D01*
X129755000Y-79325000D01*
X130055000Y-79325000D01*
X130069703Y-79325722D01*
G37*
G36*
X131339703Y-79325722D02*
G01*
X131354264Y-79327882D01*
X131368543Y-79331459D01*
X131382403Y-79336418D01*
X131395710Y-79342712D01*
X131408336Y-79350280D01*
X131420159Y-79359048D01*
X131431066Y-79368934D01*
X131440952Y-79379841D01*
X131449720Y-79391664D01*
X131457288Y-79404290D01*
X131463582Y-79417597D01*
X131468541Y-79431457D01*
X131472118Y-79445736D01*
X131474278Y-79460297D01*
X131475000Y-79475000D01*
X131475000Y-81225000D01*
X131474278Y-81239703D01*
X131472118Y-81254264D01*
X131468541Y-81268543D01*
X131463582Y-81282403D01*
X131457288Y-81295710D01*
X131449720Y-81308336D01*
X131440952Y-81320159D01*
X131431066Y-81331066D01*
X131420159Y-81340952D01*
X131408336Y-81349720D01*
X131395710Y-81357288D01*
X131382403Y-81363582D01*
X131368543Y-81368541D01*
X131354264Y-81372118D01*
X131339703Y-81374278D01*
X131325000Y-81375000D01*
X131025000Y-81375000D01*
X131010297Y-81374278D01*
X130995736Y-81372118D01*
X130981457Y-81368541D01*
X130967597Y-81363582D01*
X130954290Y-81357288D01*
X130941664Y-81349720D01*
X130929841Y-81340952D01*
X130918934Y-81331066D01*
X130909048Y-81320159D01*
X130900280Y-81308336D01*
X130892712Y-81295710D01*
X130886418Y-81282403D01*
X130881459Y-81268543D01*
X130877882Y-81254264D01*
X130875722Y-81239703D01*
X130875000Y-81225000D01*
X130875000Y-79475000D01*
X130875722Y-79460297D01*
X130877882Y-79445736D01*
X130881459Y-79431457D01*
X130886418Y-79417597D01*
X130892712Y-79404290D01*
X130900280Y-79391664D01*
X130909048Y-79379841D01*
X130918934Y-79368934D01*
X130929841Y-79359048D01*
X130941664Y-79350280D01*
X130954290Y-79342712D01*
X130967597Y-79336418D01*
X130981457Y-79331459D01*
X130995736Y-79327882D01*
X131010297Y-79325722D01*
X131025000Y-79325000D01*
X131325000Y-79325000D01*
X131339703Y-79325722D01*
G37*
G36*
X132609703Y-79325722D02*
G01*
X132624264Y-79327882D01*
X132638543Y-79331459D01*
X132652403Y-79336418D01*
X132665710Y-79342712D01*
X132678336Y-79350280D01*
X132690159Y-79359048D01*
X132701066Y-79368934D01*
X132710952Y-79379841D01*
X132719720Y-79391664D01*
X132727288Y-79404290D01*
X132733582Y-79417597D01*
X132738541Y-79431457D01*
X132742118Y-79445736D01*
X132744278Y-79460297D01*
X132745000Y-79475000D01*
X132745000Y-81225000D01*
X132744278Y-81239703D01*
X132742118Y-81254264D01*
X132738541Y-81268543D01*
X132733582Y-81282403D01*
X132727288Y-81295710D01*
X132719720Y-81308336D01*
X132710952Y-81320159D01*
X132701066Y-81331066D01*
X132690159Y-81340952D01*
X132678336Y-81349720D01*
X132665710Y-81357288D01*
X132652403Y-81363582D01*
X132638543Y-81368541D01*
X132624264Y-81372118D01*
X132609703Y-81374278D01*
X132595000Y-81375000D01*
X132295000Y-81375000D01*
X132280297Y-81374278D01*
X132265736Y-81372118D01*
X132251457Y-81368541D01*
X132237597Y-81363582D01*
X132224290Y-81357288D01*
X132211664Y-81349720D01*
X132199841Y-81340952D01*
X132188934Y-81331066D01*
X132179048Y-81320159D01*
X132170280Y-81308336D01*
X132162712Y-81295710D01*
X132156418Y-81282403D01*
X132151459Y-81268543D01*
X132147882Y-81254264D01*
X132145722Y-81239703D01*
X132145000Y-81225000D01*
X132145000Y-79475000D01*
X132145722Y-79460297D01*
X132147882Y-79445736D01*
X132151459Y-79431457D01*
X132156418Y-79417597D01*
X132162712Y-79404290D01*
X132170280Y-79391664D01*
X132179048Y-79379841D01*
X132188934Y-79368934D01*
X132199841Y-79359048D01*
X132211664Y-79350280D01*
X132224290Y-79342712D01*
X132237597Y-79336418D01*
X132251457Y-79331459D01*
X132265736Y-79327882D01*
X132280297Y-79325722D01*
X132295000Y-79325000D01*
X132595000Y-79325000D01*
X132609703Y-79325722D01*
G37*
G36*
X132609703Y-88625722D02*
G01*
X132624264Y-88627882D01*
X132638543Y-88631459D01*
X132652403Y-88636418D01*
X132665710Y-88642712D01*
X132678336Y-88650280D01*
X132690159Y-88659048D01*
X132701066Y-88668934D01*
X132710952Y-88679841D01*
X132719720Y-88691664D01*
X132727288Y-88704290D01*
X132733582Y-88717597D01*
X132738541Y-88731457D01*
X132742118Y-88745736D01*
X132744278Y-88760297D01*
X132745000Y-88775000D01*
X132745000Y-90525000D01*
X132744278Y-90539703D01*
X132742118Y-90554264D01*
X132738541Y-90568543D01*
X132733582Y-90582403D01*
X132727288Y-90595710D01*
X132719720Y-90608336D01*
X132710952Y-90620159D01*
X132701066Y-90631066D01*
X132690159Y-90640952D01*
X132678336Y-90649720D01*
X132665710Y-90657288D01*
X132652403Y-90663582D01*
X132638543Y-90668541D01*
X132624264Y-90672118D01*
X132609703Y-90674278D01*
X132595000Y-90675000D01*
X132295000Y-90675000D01*
X132280297Y-90674278D01*
X132265736Y-90672118D01*
X132251457Y-90668541D01*
X132237597Y-90663582D01*
X132224290Y-90657288D01*
X132211664Y-90649720D01*
X132199841Y-90640952D01*
X132188934Y-90631066D01*
X132179048Y-90620159D01*
X132170280Y-90608336D01*
X132162712Y-90595710D01*
X132156418Y-90582403D01*
X132151459Y-90568543D01*
X132147882Y-90554264D01*
X132145722Y-90539703D01*
X132145000Y-90525000D01*
X132145000Y-88775000D01*
X132145722Y-88760297D01*
X132147882Y-88745736D01*
X132151459Y-88731457D01*
X132156418Y-88717597D01*
X132162712Y-88704290D01*
X132170280Y-88691664D01*
X132179048Y-88679841D01*
X132188934Y-88668934D01*
X132199841Y-88659048D01*
X132211664Y-88650280D01*
X132224290Y-88642712D01*
X132237597Y-88636418D01*
X132251457Y-88631459D01*
X132265736Y-88627882D01*
X132280297Y-88625722D01*
X132295000Y-88625000D01*
X132595000Y-88625000D01*
X132609703Y-88625722D01*
G37*
G36*
X131339703Y-88625722D02*
G01*
X131354264Y-88627882D01*
X131368543Y-88631459D01*
X131382403Y-88636418D01*
X131395710Y-88642712D01*
X131408336Y-88650280D01*
X131420159Y-88659048D01*
X131431066Y-88668934D01*
X131440952Y-88679841D01*
X131449720Y-88691664D01*
X131457288Y-88704290D01*
X131463582Y-88717597D01*
X131468541Y-88731457D01*
X131472118Y-88745736D01*
X131474278Y-88760297D01*
X131475000Y-88775000D01*
X131475000Y-90525000D01*
X131474278Y-90539703D01*
X131472118Y-90554264D01*
X131468541Y-90568543D01*
X131463582Y-90582403D01*
X131457288Y-90595710D01*
X131449720Y-90608336D01*
X131440952Y-90620159D01*
X131431066Y-90631066D01*
X131420159Y-90640952D01*
X131408336Y-90649720D01*
X131395710Y-90657288D01*
X131382403Y-90663582D01*
X131368543Y-90668541D01*
X131354264Y-90672118D01*
X131339703Y-90674278D01*
X131325000Y-90675000D01*
X131025000Y-90675000D01*
X131010297Y-90674278D01*
X130995736Y-90672118D01*
X130981457Y-90668541D01*
X130967597Y-90663582D01*
X130954290Y-90657288D01*
X130941664Y-90649720D01*
X130929841Y-90640952D01*
X130918934Y-90631066D01*
X130909048Y-90620159D01*
X130900280Y-90608336D01*
X130892712Y-90595710D01*
X130886418Y-90582403D01*
X130881459Y-90568543D01*
X130877882Y-90554264D01*
X130875722Y-90539703D01*
X130875000Y-90525000D01*
X130875000Y-88775000D01*
X130875722Y-88760297D01*
X130877882Y-88745736D01*
X130881459Y-88731457D01*
X130886418Y-88717597D01*
X130892712Y-88704290D01*
X130900280Y-88691664D01*
X130909048Y-88679841D01*
X130918934Y-88668934D01*
X130929841Y-88659048D01*
X130941664Y-88650280D01*
X130954290Y-88642712D01*
X130967597Y-88636418D01*
X130981457Y-88631459D01*
X130995736Y-88627882D01*
X131010297Y-88625722D01*
X131025000Y-88625000D01*
X131325000Y-88625000D01*
X131339703Y-88625722D01*
G37*
G36*
X130069703Y-88625722D02*
G01*
X130084264Y-88627882D01*
X130098543Y-88631459D01*
X130112403Y-88636418D01*
X130125710Y-88642712D01*
X130138336Y-88650280D01*
X130150159Y-88659048D01*
X130161066Y-88668934D01*
X130170952Y-88679841D01*
X130179720Y-88691664D01*
X130187288Y-88704290D01*
X130193582Y-88717597D01*
X130198541Y-88731457D01*
X130202118Y-88745736D01*
X130204278Y-88760297D01*
X130205000Y-88775000D01*
X130205000Y-90525000D01*
X130204278Y-90539703D01*
X130202118Y-90554264D01*
X130198541Y-90568543D01*
X130193582Y-90582403D01*
X130187288Y-90595710D01*
X130179720Y-90608336D01*
X130170952Y-90620159D01*
X130161066Y-90631066D01*
X130150159Y-90640952D01*
X130138336Y-90649720D01*
X130125710Y-90657288D01*
X130112403Y-90663582D01*
X130098543Y-90668541D01*
X130084264Y-90672118D01*
X130069703Y-90674278D01*
X130055000Y-90675000D01*
X129755000Y-90675000D01*
X129740297Y-90674278D01*
X129725736Y-90672118D01*
X129711457Y-90668541D01*
X129697597Y-90663582D01*
X129684290Y-90657288D01*
X129671664Y-90649720D01*
X129659841Y-90640952D01*
X129648934Y-90631066D01*
X129639048Y-90620159D01*
X129630280Y-90608336D01*
X129622712Y-90595710D01*
X129616418Y-90582403D01*
X129611459Y-90568543D01*
X129607882Y-90554264D01*
X129605722Y-90539703D01*
X129605000Y-90525000D01*
X129605000Y-88775000D01*
X129605722Y-88760297D01*
X129607882Y-88745736D01*
X129611459Y-88731457D01*
X129616418Y-88717597D01*
X129622712Y-88704290D01*
X129630280Y-88691664D01*
X129639048Y-88679841D01*
X129648934Y-88668934D01*
X129659841Y-88659048D01*
X129671664Y-88650280D01*
X129684290Y-88642712D01*
X129697597Y-88636418D01*
X129711457Y-88631459D01*
X129725736Y-88627882D01*
X129740297Y-88625722D01*
X129755000Y-88625000D01*
X130055000Y-88625000D01*
X130069703Y-88625722D01*
G37*
G36*
X128799703Y-88625722D02*
G01*
X128814264Y-88627882D01*
X128828543Y-88631459D01*
X128842403Y-88636418D01*
X128855710Y-88642712D01*
X128868336Y-88650280D01*
X128880159Y-88659048D01*
X128891066Y-88668934D01*
X128900952Y-88679841D01*
X128909720Y-88691664D01*
X128917288Y-88704290D01*
X128923582Y-88717597D01*
X128928541Y-88731457D01*
X128932118Y-88745736D01*
X128934278Y-88760297D01*
X128935000Y-88775000D01*
X128935000Y-90525000D01*
X128934278Y-90539703D01*
X128932118Y-90554264D01*
X128928541Y-90568543D01*
X128923582Y-90582403D01*
X128917288Y-90595710D01*
X128909720Y-90608336D01*
X128900952Y-90620159D01*
X128891066Y-90631066D01*
X128880159Y-90640952D01*
X128868336Y-90649720D01*
X128855710Y-90657288D01*
X128842403Y-90663582D01*
X128828543Y-90668541D01*
X128814264Y-90672118D01*
X128799703Y-90674278D01*
X128785000Y-90675000D01*
X128485000Y-90675000D01*
X128470297Y-90674278D01*
X128455736Y-90672118D01*
X128441457Y-90668541D01*
X128427597Y-90663582D01*
X128414290Y-90657288D01*
X128401664Y-90649720D01*
X128389841Y-90640952D01*
X128378934Y-90631066D01*
X128369048Y-90620159D01*
X128360280Y-90608336D01*
X128352712Y-90595710D01*
X128346418Y-90582403D01*
X128341459Y-90568543D01*
X128337882Y-90554264D01*
X128335722Y-90539703D01*
X128335000Y-90525000D01*
X128335000Y-88775000D01*
X128335722Y-88760297D01*
X128337882Y-88745736D01*
X128341459Y-88731457D01*
X128346418Y-88717597D01*
X128352712Y-88704290D01*
X128360280Y-88691664D01*
X128369048Y-88679841D01*
X128378934Y-88668934D01*
X128389841Y-88659048D01*
X128401664Y-88650280D01*
X128414290Y-88642712D01*
X128427597Y-88636418D01*
X128441457Y-88631459D01*
X128455736Y-88627882D01*
X128470297Y-88625722D01*
X128485000Y-88625000D01*
X128785000Y-88625000D01*
X128799703Y-88625722D01*
G37*
G36*
X127529703Y-88625722D02*
G01*
X127544264Y-88627882D01*
X127558543Y-88631459D01*
X127572403Y-88636418D01*
X127585710Y-88642712D01*
X127598336Y-88650280D01*
X127610159Y-88659048D01*
X127621066Y-88668934D01*
X127630952Y-88679841D01*
X127639720Y-88691664D01*
X127647288Y-88704290D01*
X127653582Y-88717597D01*
X127658541Y-88731457D01*
X127662118Y-88745736D01*
X127664278Y-88760297D01*
X127665000Y-88775000D01*
X127665000Y-90525000D01*
X127664278Y-90539703D01*
X127662118Y-90554264D01*
X127658541Y-90568543D01*
X127653582Y-90582403D01*
X127647288Y-90595710D01*
X127639720Y-90608336D01*
X127630952Y-90620159D01*
X127621066Y-90631066D01*
X127610159Y-90640952D01*
X127598336Y-90649720D01*
X127585710Y-90657288D01*
X127572403Y-90663582D01*
X127558543Y-90668541D01*
X127544264Y-90672118D01*
X127529703Y-90674278D01*
X127515000Y-90675000D01*
X127215000Y-90675000D01*
X127200297Y-90674278D01*
X127185736Y-90672118D01*
X127171457Y-90668541D01*
X127157597Y-90663582D01*
X127144290Y-90657288D01*
X127131664Y-90649720D01*
X127119841Y-90640952D01*
X127108934Y-90631066D01*
X127099048Y-90620159D01*
X127090280Y-90608336D01*
X127082712Y-90595710D01*
X127076418Y-90582403D01*
X127071459Y-90568543D01*
X127067882Y-90554264D01*
X127065722Y-90539703D01*
X127065000Y-90525000D01*
X127065000Y-88775000D01*
X127065722Y-88760297D01*
X127067882Y-88745736D01*
X127071459Y-88731457D01*
X127076418Y-88717597D01*
X127082712Y-88704290D01*
X127090280Y-88691664D01*
X127099048Y-88679841D01*
X127108934Y-88668934D01*
X127119841Y-88659048D01*
X127131664Y-88650280D01*
X127144290Y-88642712D01*
X127157597Y-88636418D01*
X127171457Y-88631459D01*
X127185736Y-88627882D01*
X127200297Y-88625722D01*
X127215000Y-88625000D01*
X127515000Y-88625000D01*
X127529703Y-88625722D01*
G37*
G36*
X126259703Y-88625722D02*
G01*
X126274264Y-88627882D01*
X126288543Y-88631459D01*
X126302403Y-88636418D01*
X126315710Y-88642712D01*
X126328336Y-88650280D01*
X126340159Y-88659048D01*
X126351066Y-88668934D01*
X126360952Y-88679841D01*
X126369720Y-88691664D01*
X126377288Y-88704290D01*
X126383582Y-88717597D01*
X126388541Y-88731457D01*
X126392118Y-88745736D01*
X126394278Y-88760297D01*
X126395000Y-88775000D01*
X126395000Y-90525000D01*
X126394278Y-90539703D01*
X126392118Y-90554264D01*
X126388541Y-90568543D01*
X126383582Y-90582403D01*
X126377288Y-90595710D01*
X126369720Y-90608336D01*
X126360952Y-90620159D01*
X126351066Y-90631066D01*
X126340159Y-90640952D01*
X126328336Y-90649720D01*
X126315710Y-90657288D01*
X126302403Y-90663582D01*
X126288543Y-90668541D01*
X126274264Y-90672118D01*
X126259703Y-90674278D01*
X126245000Y-90675000D01*
X125945000Y-90675000D01*
X125930297Y-90674278D01*
X125915736Y-90672118D01*
X125901457Y-90668541D01*
X125887597Y-90663582D01*
X125874290Y-90657288D01*
X125861664Y-90649720D01*
X125849841Y-90640952D01*
X125838934Y-90631066D01*
X125829048Y-90620159D01*
X125820280Y-90608336D01*
X125812712Y-90595710D01*
X125806418Y-90582403D01*
X125801459Y-90568543D01*
X125797882Y-90554264D01*
X125795722Y-90539703D01*
X125795000Y-90525000D01*
X125795000Y-88775000D01*
X125795722Y-88760297D01*
X125797882Y-88745736D01*
X125801459Y-88731457D01*
X125806418Y-88717597D01*
X125812712Y-88704290D01*
X125820280Y-88691664D01*
X125829048Y-88679841D01*
X125838934Y-88668934D01*
X125849841Y-88659048D01*
X125861664Y-88650280D01*
X125874290Y-88642712D01*
X125887597Y-88636418D01*
X125901457Y-88631459D01*
X125915736Y-88627882D01*
X125930297Y-88625722D01*
X125945000Y-88625000D01*
X126245000Y-88625000D01*
X126259703Y-88625722D01*
G37*
G36*
X124989703Y-88625722D02*
G01*
X125004264Y-88627882D01*
X125018543Y-88631459D01*
X125032403Y-88636418D01*
X125045710Y-88642712D01*
X125058336Y-88650280D01*
X125070159Y-88659048D01*
X125081066Y-88668934D01*
X125090952Y-88679841D01*
X125099720Y-88691664D01*
X125107288Y-88704290D01*
X125113582Y-88717597D01*
X125118541Y-88731457D01*
X125122118Y-88745736D01*
X125124278Y-88760297D01*
X125125000Y-88775000D01*
X125125000Y-90525000D01*
X125124278Y-90539703D01*
X125122118Y-90554264D01*
X125118541Y-90568543D01*
X125113582Y-90582403D01*
X125107288Y-90595710D01*
X125099720Y-90608336D01*
X125090952Y-90620159D01*
X125081066Y-90631066D01*
X125070159Y-90640952D01*
X125058336Y-90649720D01*
X125045710Y-90657288D01*
X125032403Y-90663582D01*
X125018543Y-90668541D01*
X125004264Y-90672118D01*
X124989703Y-90674278D01*
X124975000Y-90675000D01*
X124675000Y-90675000D01*
X124660297Y-90674278D01*
X124645736Y-90672118D01*
X124631457Y-90668541D01*
X124617597Y-90663582D01*
X124604290Y-90657288D01*
X124591664Y-90649720D01*
X124579841Y-90640952D01*
X124568934Y-90631066D01*
X124559048Y-90620159D01*
X124550280Y-90608336D01*
X124542712Y-90595710D01*
X124536418Y-90582403D01*
X124531459Y-90568543D01*
X124527882Y-90554264D01*
X124525722Y-90539703D01*
X124525000Y-90525000D01*
X124525000Y-88775000D01*
X124525722Y-88760297D01*
X124527882Y-88745736D01*
X124531459Y-88731457D01*
X124536418Y-88717597D01*
X124542712Y-88704290D01*
X124550280Y-88691664D01*
X124559048Y-88679841D01*
X124568934Y-88668934D01*
X124579841Y-88659048D01*
X124591664Y-88650280D01*
X124604290Y-88642712D01*
X124617597Y-88636418D01*
X124631457Y-88631459D01*
X124645736Y-88627882D01*
X124660297Y-88625722D01*
X124675000Y-88625000D01*
X124975000Y-88625000D01*
X124989703Y-88625722D01*
G37*
G36*
X123719703Y-88625722D02*
G01*
X123734264Y-88627882D01*
X123748543Y-88631459D01*
X123762403Y-88636418D01*
X123775710Y-88642712D01*
X123788336Y-88650280D01*
X123800159Y-88659048D01*
X123811066Y-88668934D01*
X123820952Y-88679841D01*
X123829720Y-88691664D01*
X123837288Y-88704290D01*
X123843582Y-88717597D01*
X123848541Y-88731457D01*
X123852118Y-88745736D01*
X123854278Y-88760297D01*
X123855000Y-88775000D01*
X123855000Y-90525000D01*
X123854278Y-90539703D01*
X123852118Y-90554264D01*
X123848541Y-90568543D01*
X123843582Y-90582403D01*
X123837288Y-90595710D01*
X123829720Y-90608336D01*
X123820952Y-90620159D01*
X123811066Y-90631066D01*
X123800159Y-90640952D01*
X123788336Y-90649720D01*
X123775710Y-90657288D01*
X123762403Y-90663582D01*
X123748543Y-90668541D01*
X123734264Y-90672118D01*
X123719703Y-90674278D01*
X123705000Y-90675000D01*
X123405000Y-90675000D01*
X123390297Y-90674278D01*
X123375736Y-90672118D01*
X123361457Y-90668541D01*
X123347597Y-90663582D01*
X123334290Y-90657288D01*
X123321664Y-90649720D01*
X123309841Y-90640952D01*
X123298934Y-90631066D01*
X123289048Y-90620159D01*
X123280280Y-90608336D01*
X123272712Y-90595710D01*
X123266418Y-90582403D01*
X123261459Y-90568543D01*
X123257882Y-90554264D01*
X123255722Y-90539703D01*
X123255000Y-90525000D01*
X123255000Y-88775000D01*
X123255722Y-88760297D01*
X123257882Y-88745736D01*
X123261459Y-88731457D01*
X123266418Y-88717597D01*
X123272712Y-88704290D01*
X123280280Y-88691664D01*
X123289048Y-88679841D01*
X123298934Y-88668934D01*
X123309841Y-88659048D01*
X123321664Y-88650280D01*
X123334290Y-88642712D01*
X123347597Y-88636418D01*
X123361457Y-88631459D01*
X123375736Y-88627882D01*
X123390297Y-88625722D01*
X123405000Y-88625000D01*
X123705000Y-88625000D01*
X123719703Y-88625722D01*
G37*
D11*
X178000000Y-75500000D03*
X176900000Y-75500000D03*
X175800000Y-75500000D03*
X179100000Y-75500000D03*
X180200000Y-75500000D03*
X181300000Y-75500000D03*
X183500000Y-75500000D03*
X182400000Y-75500000D03*
X184600000Y-75500000D03*
D12*
X185750000Y-75000000D03*
D13*
X171150000Y-75000000D03*
D14*
X185750000Y-65400000D03*
X170250000Y-65400000D03*
D15*
X114706000Y-116064000D03*
X114706000Y-120664000D03*
X114706000Y-118364000D03*
D16*
X121006000Y-118364000D03*
D17*
X112268000Y-128650000D03*
X112268000Y-125350000D03*
D10*
G36*
X111726505Y-114749204D02*
G01*
X111750773Y-114752804D01*
X111774572Y-114758765D01*
X111797671Y-114767030D01*
X111819850Y-114777520D01*
X111840893Y-114790132D01*
X111860599Y-114804747D01*
X111878777Y-114821223D01*
X111895253Y-114839401D01*
X111909868Y-114859107D01*
X111922480Y-114880150D01*
X111932970Y-114902329D01*
X111941235Y-114925428D01*
X111947196Y-114949227D01*
X111950796Y-114973495D01*
X111952000Y-114997999D01*
X111952000Y-115698001D01*
X111950796Y-115722505D01*
X111947196Y-115746773D01*
X111941235Y-115770572D01*
X111932970Y-115793671D01*
X111922480Y-115815850D01*
X111909868Y-115836893D01*
X111895253Y-115856599D01*
X111878777Y-115874777D01*
X111860599Y-115891253D01*
X111840893Y-115905868D01*
X111819850Y-115918480D01*
X111797671Y-115928970D01*
X111774572Y-115937235D01*
X111750773Y-115943196D01*
X111726505Y-115946796D01*
X111702001Y-115948000D01*
X110801999Y-115948000D01*
X110777495Y-115946796D01*
X110753227Y-115943196D01*
X110729428Y-115937235D01*
X110706329Y-115928970D01*
X110684150Y-115918480D01*
X110663107Y-115905868D01*
X110643401Y-115891253D01*
X110625223Y-115874777D01*
X110608747Y-115856599D01*
X110594132Y-115836893D01*
X110581520Y-115815850D01*
X110571030Y-115793671D01*
X110562765Y-115770572D01*
X110556804Y-115746773D01*
X110553204Y-115722505D01*
X110552000Y-115698001D01*
X110552000Y-114997999D01*
X110553204Y-114973495D01*
X110556804Y-114949227D01*
X110562765Y-114925428D01*
X110571030Y-114902329D01*
X110581520Y-114880150D01*
X110594132Y-114859107D01*
X110608747Y-114839401D01*
X110625223Y-114821223D01*
X110643401Y-114804747D01*
X110663107Y-114790132D01*
X110684150Y-114777520D01*
X110706329Y-114767030D01*
X110729428Y-114758765D01*
X110753227Y-114752804D01*
X110777495Y-114749204D01*
X110801999Y-114748000D01*
X111702001Y-114748000D01*
X111726505Y-114749204D01*
G37*
G36*
X111726505Y-116749204D02*
G01*
X111750773Y-116752804D01*
X111774572Y-116758765D01*
X111797671Y-116767030D01*
X111819850Y-116777520D01*
X111840893Y-116790132D01*
X111860599Y-116804747D01*
X111878777Y-116821223D01*
X111895253Y-116839401D01*
X111909868Y-116859107D01*
X111922480Y-116880150D01*
X111932970Y-116902329D01*
X111941235Y-116925428D01*
X111947196Y-116949227D01*
X111950796Y-116973495D01*
X111952000Y-116997999D01*
X111952000Y-117698001D01*
X111950796Y-117722505D01*
X111947196Y-117746773D01*
X111941235Y-117770572D01*
X111932970Y-117793671D01*
X111922480Y-117815850D01*
X111909868Y-117836893D01*
X111895253Y-117856599D01*
X111878777Y-117874777D01*
X111860599Y-117891253D01*
X111840893Y-117905868D01*
X111819850Y-117918480D01*
X111797671Y-117928970D01*
X111774572Y-117937235D01*
X111750773Y-117943196D01*
X111726505Y-117946796D01*
X111702001Y-117948000D01*
X110801999Y-117948000D01*
X110777495Y-117946796D01*
X110753227Y-117943196D01*
X110729428Y-117937235D01*
X110706329Y-117928970D01*
X110684150Y-117918480D01*
X110663107Y-117905868D01*
X110643401Y-117891253D01*
X110625223Y-117874777D01*
X110608747Y-117856599D01*
X110594132Y-117836893D01*
X110581520Y-117815850D01*
X110571030Y-117793671D01*
X110562765Y-117770572D01*
X110556804Y-117746773D01*
X110553204Y-117722505D01*
X110552000Y-117698001D01*
X110552000Y-116997999D01*
X110553204Y-116973495D01*
X110556804Y-116949227D01*
X110562765Y-116925428D01*
X110571030Y-116902329D01*
X110581520Y-116880150D01*
X110594132Y-116859107D01*
X110608747Y-116839401D01*
X110625223Y-116821223D01*
X110643401Y-116804747D01*
X110663107Y-116790132D01*
X110684150Y-116777520D01*
X110706329Y-116767030D01*
X110729428Y-116758765D01*
X110753227Y-116752804D01*
X110777495Y-116749204D01*
X110801999Y-116748000D01*
X111702001Y-116748000D01*
X111726505Y-116749204D01*
G37*
G36*
X111726505Y-118797204D02*
G01*
X111750773Y-118800804D01*
X111774572Y-118806765D01*
X111797671Y-118815030D01*
X111819850Y-118825520D01*
X111840893Y-118838132D01*
X111860599Y-118852747D01*
X111878777Y-118869223D01*
X111895253Y-118887401D01*
X111909868Y-118907107D01*
X111922480Y-118928150D01*
X111932970Y-118950329D01*
X111941235Y-118973428D01*
X111947196Y-118997227D01*
X111950796Y-119021495D01*
X111952000Y-119045999D01*
X111952000Y-119746001D01*
X111950796Y-119770505D01*
X111947196Y-119794773D01*
X111941235Y-119818572D01*
X111932970Y-119841671D01*
X111922480Y-119863850D01*
X111909868Y-119884893D01*
X111895253Y-119904599D01*
X111878777Y-119922777D01*
X111860599Y-119939253D01*
X111840893Y-119953868D01*
X111819850Y-119966480D01*
X111797671Y-119976970D01*
X111774572Y-119985235D01*
X111750773Y-119991196D01*
X111726505Y-119994796D01*
X111702001Y-119996000D01*
X110801999Y-119996000D01*
X110777495Y-119994796D01*
X110753227Y-119991196D01*
X110729428Y-119985235D01*
X110706329Y-119976970D01*
X110684150Y-119966480D01*
X110663107Y-119953868D01*
X110643401Y-119939253D01*
X110625223Y-119922777D01*
X110608747Y-119904599D01*
X110594132Y-119884893D01*
X110581520Y-119863850D01*
X110571030Y-119841671D01*
X110562765Y-119818572D01*
X110556804Y-119794773D01*
X110553204Y-119770505D01*
X110552000Y-119746001D01*
X110552000Y-119045999D01*
X110553204Y-119021495D01*
X110556804Y-118997227D01*
X110562765Y-118973428D01*
X110571030Y-118950329D01*
X110581520Y-118928150D01*
X110594132Y-118907107D01*
X110608747Y-118887401D01*
X110625223Y-118869223D01*
X110643401Y-118852747D01*
X110663107Y-118838132D01*
X110684150Y-118825520D01*
X110706329Y-118815030D01*
X110729428Y-118806765D01*
X110753227Y-118800804D01*
X110777495Y-118797204D01*
X110801999Y-118796000D01*
X111702001Y-118796000D01*
X111726505Y-118797204D01*
G37*
G36*
X111726505Y-120797204D02*
G01*
X111750773Y-120800804D01*
X111774572Y-120806765D01*
X111797671Y-120815030D01*
X111819850Y-120825520D01*
X111840893Y-120838132D01*
X111860599Y-120852747D01*
X111878777Y-120869223D01*
X111895253Y-120887401D01*
X111909868Y-120907107D01*
X111922480Y-120928150D01*
X111932970Y-120950329D01*
X111941235Y-120973428D01*
X111947196Y-120997227D01*
X111950796Y-121021495D01*
X111952000Y-121045999D01*
X111952000Y-121746001D01*
X111950796Y-121770505D01*
X111947196Y-121794773D01*
X111941235Y-121818572D01*
X111932970Y-121841671D01*
X111922480Y-121863850D01*
X111909868Y-121884893D01*
X111895253Y-121904599D01*
X111878777Y-121922777D01*
X111860599Y-121939253D01*
X111840893Y-121953868D01*
X111819850Y-121966480D01*
X111797671Y-121976970D01*
X111774572Y-121985235D01*
X111750773Y-121991196D01*
X111726505Y-121994796D01*
X111702001Y-121996000D01*
X110801999Y-121996000D01*
X110777495Y-121994796D01*
X110753227Y-121991196D01*
X110729428Y-121985235D01*
X110706329Y-121976970D01*
X110684150Y-121966480D01*
X110663107Y-121953868D01*
X110643401Y-121939253D01*
X110625223Y-121922777D01*
X110608747Y-121904599D01*
X110594132Y-121884893D01*
X110581520Y-121863850D01*
X110571030Y-121841671D01*
X110562765Y-121818572D01*
X110556804Y-121794773D01*
X110553204Y-121770505D01*
X110552000Y-121746001D01*
X110552000Y-121045999D01*
X110553204Y-121021495D01*
X110556804Y-120997227D01*
X110562765Y-120973428D01*
X110571030Y-120950329D01*
X110581520Y-120928150D01*
X110594132Y-120907107D01*
X110608747Y-120887401D01*
X110625223Y-120869223D01*
X110643401Y-120852747D01*
X110663107Y-120838132D01*
X110684150Y-120825520D01*
X110706329Y-120815030D01*
X110729428Y-120806765D01*
X110753227Y-120800804D01*
X110777495Y-120797204D01*
X110801999Y-120796000D01*
X111702001Y-120796000D01*
X111726505Y-120797204D01*
G37*
M02*
