G04 #@! TF.GenerationSoftware,KiCad,Pcbnew,5.1.5+dfsg1-2build2*
G04 #@! TF.CreationDate,2024-05-29T20:17:39+01:00*
G04 #@! TF.ProjectId,desktop_esc,6465736b-746f-4705-9f65-73632e6b6963,rev?*
G04 #@! TF.SameCoordinates,Original*
G04 #@! TF.FileFunction,Paste,Bot*
G04 #@! TF.FilePolarity,Positive*
%FSLAX46Y46*%
G04 Gerber Fmt 4.6, Leading zero omitted, Abs format (unit mm)*
G04 Created by KiCad (PCBNEW 5.1.5+dfsg1-2build2) date 2024-05-29 20:17:39*
%MOMM*%
%LPD*%
G04 APERTURE LIST*
%ADD10C,0.100000*%
G04 APERTURE END LIST*
D10*
G36*
X164578424Y-83242684D02*
G01*
X164602693Y-83246284D01*
X164626491Y-83252245D01*
X164649591Y-83260510D01*
X164671769Y-83271000D01*
X164692813Y-83283613D01*
X164712518Y-83298227D01*
X164730697Y-83314703D01*
X164747173Y-83332882D01*
X164761787Y-83352587D01*
X164774400Y-83373631D01*
X164784890Y-83395809D01*
X164793155Y-83418909D01*
X164799116Y-83442707D01*
X164802716Y-83466976D01*
X164803920Y-83491480D01*
X164803920Y-84166480D01*
X164802716Y-84190984D01*
X164799116Y-84215253D01*
X164793155Y-84239051D01*
X164784890Y-84262151D01*
X164774400Y-84284329D01*
X164761787Y-84305373D01*
X164747173Y-84325078D01*
X164730697Y-84343257D01*
X164712518Y-84359733D01*
X164692813Y-84374347D01*
X164671769Y-84386960D01*
X164649591Y-84397450D01*
X164626491Y-84405715D01*
X164602693Y-84411676D01*
X164578424Y-84415276D01*
X164553920Y-84416480D01*
X163603920Y-84416480D01*
X163579416Y-84415276D01*
X163555147Y-84411676D01*
X163531349Y-84405715D01*
X163508249Y-84397450D01*
X163486071Y-84386960D01*
X163465027Y-84374347D01*
X163445322Y-84359733D01*
X163427143Y-84343257D01*
X163410667Y-84325078D01*
X163396053Y-84305373D01*
X163383440Y-84284329D01*
X163372950Y-84262151D01*
X163364685Y-84239051D01*
X163358724Y-84215253D01*
X163355124Y-84190984D01*
X163353920Y-84166480D01*
X163353920Y-83491480D01*
X163355124Y-83466976D01*
X163358724Y-83442707D01*
X163364685Y-83418909D01*
X163372950Y-83395809D01*
X163383440Y-83373631D01*
X163396053Y-83352587D01*
X163410667Y-83332882D01*
X163427143Y-83314703D01*
X163445322Y-83298227D01*
X163465027Y-83283613D01*
X163486071Y-83271000D01*
X163508249Y-83260510D01*
X163531349Y-83252245D01*
X163555147Y-83246284D01*
X163579416Y-83242684D01*
X163603920Y-83241480D01*
X164553920Y-83241480D01*
X164578424Y-83242684D01*
G37*
G36*
X164578424Y-85317684D02*
G01*
X164602693Y-85321284D01*
X164626491Y-85327245D01*
X164649591Y-85335510D01*
X164671769Y-85346000D01*
X164692813Y-85358613D01*
X164712518Y-85373227D01*
X164730697Y-85389703D01*
X164747173Y-85407882D01*
X164761787Y-85427587D01*
X164774400Y-85448631D01*
X164784890Y-85470809D01*
X164793155Y-85493909D01*
X164799116Y-85517707D01*
X164802716Y-85541976D01*
X164803920Y-85566480D01*
X164803920Y-86241480D01*
X164802716Y-86265984D01*
X164799116Y-86290253D01*
X164793155Y-86314051D01*
X164784890Y-86337151D01*
X164774400Y-86359329D01*
X164761787Y-86380373D01*
X164747173Y-86400078D01*
X164730697Y-86418257D01*
X164712518Y-86434733D01*
X164692813Y-86449347D01*
X164671769Y-86461960D01*
X164649591Y-86472450D01*
X164626491Y-86480715D01*
X164602693Y-86486676D01*
X164578424Y-86490276D01*
X164553920Y-86491480D01*
X163603920Y-86491480D01*
X163579416Y-86490276D01*
X163555147Y-86486676D01*
X163531349Y-86480715D01*
X163508249Y-86472450D01*
X163486071Y-86461960D01*
X163465027Y-86449347D01*
X163445322Y-86434733D01*
X163427143Y-86418257D01*
X163410667Y-86400078D01*
X163396053Y-86380373D01*
X163383440Y-86359329D01*
X163372950Y-86337151D01*
X163364685Y-86314051D01*
X163358724Y-86290253D01*
X163355124Y-86265984D01*
X163353920Y-86241480D01*
X163353920Y-85566480D01*
X163355124Y-85541976D01*
X163358724Y-85517707D01*
X163364685Y-85493909D01*
X163372950Y-85470809D01*
X163383440Y-85448631D01*
X163396053Y-85427587D01*
X163410667Y-85407882D01*
X163427143Y-85389703D01*
X163445322Y-85373227D01*
X163465027Y-85358613D01*
X163486071Y-85346000D01*
X163508249Y-85335510D01*
X163531349Y-85327245D01*
X163555147Y-85321284D01*
X163579416Y-85317684D01*
X163603920Y-85316480D01*
X164553920Y-85316480D01*
X164578424Y-85317684D01*
G37*
G36*
X167692464Y-83283324D02*
G01*
X167716733Y-83286924D01*
X167740531Y-83292885D01*
X167763631Y-83301150D01*
X167785809Y-83311640D01*
X167806853Y-83324253D01*
X167826558Y-83338867D01*
X167844737Y-83355343D01*
X167861213Y-83373522D01*
X167875827Y-83393227D01*
X167888440Y-83414271D01*
X167898930Y-83436449D01*
X167907195Y-83459549D01*
X167913156Y-83483347D01*
X167916756Y-83507616D01*
X167917960Y-83532120D01*
X167917960Y-84207120D01*
X167916756Y-84231624D01*
X167913156Y-84255893D01*
X167907195Y-84279691D01*
X167898930Y-84302791D01*
X167888440Y-84324969D01*
X167875827Y-84346013D01*
X167861213Y-84365718D01*
X167844737Y-84383897D01*
X167826558Y-84400373D01*
X167806853Y-84414987D01*
X167785809Y-84427600D01*
X167763631Y-84438090D01*
X167740531Y-84446355D01*
X167716733Y-84452316D01*
X167692464Y-84455916D01*
X167667960Y-84457120D01*
X166717960Y-84457120D01*
X166693456Y-84455916D01*
X166669187Y-84452316D01*
X166645389Y-84446355D01*
X166622289Y-84438090D01*
X166600111Y-84427600D01*
X166579067Y-84414987D01*
X166559362Y-84400373D01*
X166541183Y-84383897D01*
X166524707Y-84365718D01*
X166510093Y-84346013D01*
X166497480Y-84324969D01*
X166486990Y-84302791D01*
X166478725Y-84279691D01*
X166472764Y-84255893D01*
X166469164Y-84231624D01*
X166467960Y-84207120D01*
X166467960Y-83532120D01*
X166469164Y-83507616D01*
X166472764Y-83483347D01*
X166478725Y-83459549D01*
X166486990Y-83436449D01*
X166497480Y-83414271D01*
X166510093Y-83393227D01*
X166524707Y-83373522D01*
X166541183Y-83355343D01*
X166559362Y-83338867D01*
X166579067Y-83324253D01*
X166600111Y-83311640D01*
X166622289Y-83301150D01*
X166645389Y-83292885D01*
X166669187Y-83286924D01*
X166693456Y-83283324D01*
X166717960Y-83282120D01*
X167667960Y-83282120D01*
X167692464Y-83283324D01*
G37*
G36*
X167692464Y-85358324D02*
G01*
X167716733Y-85361924D01*
X167740531Y-85367885D01*
X167763631Y-85376150D01*
X167785809Y-85386640D01*
X167806853Y-85399253D01*
X167826558Y-85413867D01*
X167844737Y-85430343D01*
X167861213Y-85448522D01*
X167875827Y-85468227D01*
X167888440Y-85489271D01*
X167898930Y-85511449D01*
X167907195Y-85534549D01*
X167913156Y-85558347D01*
X167916756Y-85582616D01*
X167917960Y-85607120D01*
X167917960Y-86282120D01*
X167916756Y-86306624D01*
X167913156Y-86330893D01*
X167907195Y-86354691D01*
X167898930Y-86377791D01*
X167888440Y-86399969D01*
X167875827Y-86421013D01*
X167861213Y-86440718D01*
X167844737Y-86458897D01*
X167826558Y-86475373D01*
X167806853Y-86489987D01*
X167785809Y-86502600D01*
X167763631Y-86513090D01*
X167740531Y-86521355D01*
X167716733Y-86527316D01*
X167692464Y-86530916D01*
X167667960Y-86532120D01*
X166717960Y-86532120D01*
X166693456Y-86530916D01*
X166669187Y-86527316D01*
X166645389Y-86521355D01*
X166622289Y-86513090D01*
X166600111Y-86502600D01*
X166579067Y-86489987D01*
X166559362Y-86475373D01*
X166541183Y-86458897D01*
X166524707Y-86440718D01*
X166510093Y-86421013D01*
X166497480Y-86399969D01*
X166486990Y-86377791D01*
X166478725Y-86354691D01*
X166472764Y-86330893D01*
X166469164Y-86306624D01*
X166467960Y-86282120D01*
X166467960Y-85607120D01*
X166469164Y-85582616D01*
X166472764Y-85558347D01*
X166478725Y-85534549D01*
X166486990Y-85511449D01*
X166497480Y-85489271D01*
X166510093Y-85468227D01*
X166524707Y-85448522D01*
X166541183Y-85430343D01*
X166559362Y-85413867D01*
X166579067Y-85399253D01*
X166600111Y-85386640D01*
X166622289Y-85376150D01*
X166645389Y-85367885D01*
X166669187Y-85361924D01*
X166693456Y-85358324D01*
X166717960Y-85357120D01*
X167667960Y-85357120D01*
X167692464Y-85358324D01*
G37*
G36*
X111324784Y-83395084D02*
G01*
X111349053Y-83398684D01*
X111372851Y-83404645D01*
X111395951Y-83412910D01*
X111418129Y-83423400D01*
X111439173Y-83436013D01*
X111458878Y-83450627D01*
X111477057Y-83467103D01*
X111493533Y-83485282D01*
X111508147Y-83504987D01*
X111520760Y-83526031D01*
X111531250Y-83548209D01*
X111539515Y-83571309D01*
X111545476Y-83595107D01*
X111549076Y-83619376D01*
X111550280Y-83643880D01*
X111550280Y-84318880D01*
X111549076Y-84343384D01*
X111545476Y-84367653D01*
X111539515Y-84391451D01*
X111531250Y-84414551D01*
X111520760Y-84436729D01*
X111508147Y-84457773D01*
X111493533Y-84477478D01*
X111477057Y-84495657D01*
X111458878Y-84512133D01*
X111439173Y-84526747D01*
X111418129Y-84539360D01*
X111395951Y-84549850D01*
X111372851Y-84558115D01*
X111349053Y-84564076D01*
X111324784Y-84567676D01*
X111300280Y-84568880D01*
X110350280Y-84568880D01*
X110325776Y-84567676D01*
X110301507Y-84564076D01*
X110277709Y-84558115D01*
X110254609Y-84549850D01*
X110232431Y-84539360D01*
X110211387Y-84526747D01*
X110191682Y-84512133D01*
X110173503Y-84495657D01*
X110157027Y-84477478D01*
X110142413Y-84457773D01*
X110129800Y-84436729D01*
X110119310Y-84414551D01*
X110111045Y-84391451D01*
X110105084Y-84367653D01*
X110101484Y-84343384D01*
X110100280Y-84318880D01*
X110100280Y-83643880D01*
X110101484Y-83619376D01*
X110105084Y-83595107D01*
X110111045Y-83571309D01*
X110119310Y-83548209D01*
X110129800Y-83526031D01*
X110142413Y-83504987D01*
X110157027Y-83485282D01*
X110173503Y-83467103D01*
X110191682Y-83450627D01*
X110211387Y-83436013D01*
X110232431Y-83423400D01*
X110254609Y-83412910D01*
X110277709Y-83404645D01*
X110301507Y-83398684D01*
X110325776Y-83395084D01*
X110350280Y-83393880D01*
X111300280Y-83393880D01*
X111324784Y-83395084D01*
G37*
G36*
X111324784Y-85470084D02*
G01*
X111349053Y-85473684D01*
X111372851Y-85479645D01*
X111395951Y-85487910D01*
X111418129Y-85498400D01*
X111439173Y-85511013D01*
X111458878Y-85525627D01*
X111477057Y-85542103D01*
X111493533Y-85560282D01*
X111508147Y-85579987D01*
X111520760Y-85601031D01*
X111531250Y-85623209D01*
X111539515Y-85646309D01*
X111545476Y-85670107D01*
X111549076Y-85694376D01*
X111550280Y-85718880D01*
X111550280Y-86393880D01*
X111549076Y-86418384D01*
X111545476Y-86442653D01*
X111539515Y-86466451D01*
X111531250Y-86489551D01*
X111520760Y-86511729D01*
X111508147Y-86532773D01*
X111493533Y-86552478D01*
X111477057Y-86570657D01*
X111458878Y-86587133D01*
X111439173Y-86601747D01*
X111418129Y-86614360D01*
X111395951Y-86624850D01*
X111372851Y-86633115D01*
X111349053Y-86639076D01*
X111324784Y-86642676D01*
X111300280Y-86643880D01*
X110350280Y-86643880D01*
X110325776Y-86642676D01*
X110301507Y-86639076D01*
X110277709Y-86633115D01*
X110254609Y-86624850D01*
X110232431Y-86614360D01*
X110211387Y-86601747D01*
X110191682Y-86587133D01*
X110173503Y-86570657D01*
X110157027Y-86552478D01*
X110142413Y-86532773D01*
X110129800Y-86511729D01*
X110119310Y-86489551D01*
X110111045Y-86466451D01*
X110105084Y-86442653D01*
X110101484Y-86418384D01*
X110100280Y-86393880D01*
X110100280Y-85718880D01*
X110101484Y-85694376D01*
X110105084Y-85670107D01*
X110111045Y-85646309D01*
X110119310Y-85623209D01*
X110129800Y-85601031D01*
X110142413Y-85579987D01*
X110157027Y-85560282D01*
X110173503Y-85542103D01*
X110191682Y-85525627D01*
X110211387Y-85511013D01*
X110232431Y-85498400D01*
X110254609Y-85487910D01*
X110277709Y-85479645D01*
X110301507Y-85473684D01*
X110325776Y-85470084D01*
X110350280Y-85468880D01*
X111300280Y-85468880D01*
X111324784Y-85470084D01*
G37*
G36*
X114647104Y-83313804D02*
G01*
X114671373Y-83317404D01*
X114695171Y-83323365D01*
X114718271Y-83331630D01*
X114740449Y-83342120D01*
X114761493Y-83354733D01*
X114781198Y-83369347D01*
X114799377Y-83385823D01*
X114815853Y-83404002D01*
X114830467Y-83423707D01*
X114843080Y-83444751D01*
X114853570Y-83466929D01*
X114861835Y-83490029D01*
X114867796Y-83513827D01*
X114871396Y-83538096D01*
X114872600Y-83562600D01*
X114872600Y-84237600D01*
X114871396Y-84262104D01*
X114867796Y-84286373D01*
X114861835Y-84310171D01*
X114853570Y-84333271D01*
X114843080Y-84355449D01*
X114830467Y-84376493D01*
X114815853Y-84396198D01*
X114799377Y-84414377D01*
X114781198Y-84430853D01*
X114761493Y-84445467D01*
X114740449Y-84458080D01*
X114718271Y-84468570D01*
X114695171Y-84476835D01*
X114671373Y-84482796D01*
X114647104Y-84486396D01*
X114622600Y-84487600D01*
X113672600Y-84487600D01*
X113648096Y-84486396D01*
X113623827Y-84482796D01*
X113600029Y-84476835D01*
X113576929Y-84468570D01*
X113554751Y-84458080D01*
X113533707Y-84445467D01*
X113514002Y-84430853D01*
X113495823Y-84414377D01*
X113479347Y-84396198D01*
X113464733Y-84376493D01*
X113452120Y-84355449D01*
X113441630Y-84333271D01*
X113433365Y-84310171D01*
X113427404Y-84286373D01*
X113423804Y-84262104D01*
X113422600Y-84237600D01*
X113422600Y-83562600D01*
X113423804Y-83538096D01*
X113427404Y-83513827D01*
X113433365Y-83490029D01*
X113441630Y-83466929D01*
X113452120Y-83444751D01*
X113464733Y-83423707D01*
X113479347Y-83404002D01*
X113495823Y-83385823D01*
X113514002Y-83369347D01*
X113533707Y-83354733D01*
X113554751Y-83342120D01*
X113576929Y-83331630D01*
X113600029Y-83323365D01*
X113623827Y-83317404D01*
X113648096Y-83313804D01*
X113672600Y-83312600D01*
X114622600Y-83312600D01*
X114647104Y-83313804D01*
G37*
G36*
X114647104Y-85388804D02*
G01*
X114671373Y-85392404D01*
X114695171Y-85398365D01*
X114718271Y-85406630D01*
X114740449Y-85417120D01*
X114761493Y-85429733D01*
X114781198Y-85444347D01*
X114799377Y-85460823D01*
X114815853Y-85479002D01*
X114830467Y-85498707D01*
X114843080Y-85519751D01*
X114853570Y-85541929D01*
X114861835Y-85565029D01*
X114867796Y-85588827D01*
X114871396Y-85613096D01*
X114872600Y-85637600D01*
X114872600Y-86312600D01*
X114871396Y-86337104D01*
X114867796Y-86361373D01*
X114861835Y-86385171D01*
X114853570Y-86408271D01*
X114843080Y-86430449D01*
X114830467Y-86451493D01*
X114815853Y-86471198D01*
X114799377Y-86489377D01*
X114781198Y-86505853D01*
X114761493Y-86520467D01*
X114740449Y-86533080D01*
X114718271Y-86543570D01*
X114695171Y-86551835D01*
X114671373Y-86557796D01*
X114647104Y-86561396D01*
X114622600Y-86562600D01*
X113672600Y-86562600D01*
X113648096Y-86561396D01*
X113623827Y-86557796D01*
X113600029Y-86551835D01*
X113576929Y-86543570D01*
X113554751Y-86533080D01*
X113533707Y-86520467D01*
X113514002Y-86505853D01*
X113495823Y-86489377D01*
X113479347Y-86471198D01*
X113464733Y-86451493D01*
X113452120Y-86430449D01*
X113441630Y-86408271D01*
X113433365Y-86385171D01*
X113427404Y-86361373D01*
X113423804Y-86337104D01*
X113422600Y-86312600D01*
X113422600Y-85637600D01*
X113423804Y-85613096D01*
X113427404Y-85588827D01*
X113433365Y-85565029D01*
X113441630Y-85541929D01*
X113452120Y-85519751D01*
X113464733Y-85498707D01*
X113479347Y-85479002D01*
X113495823Y-85460823D01*
X113514002Y-85444347D01*
X113533707Y-85429733D01*
X113554751Y-85417120D01*
X113576929Y-85406630D01*
X113600029Y-85398365D01*
X113623827Y-85392404D01*
X113648096Y-85388804D01*
X113672600Y-85387600D01*
X114622600Y-85387600D01*
X114647104Y-85388804D01*
G37*
G36*
X146783184Y-83486524D02*
G01*
X146807453Y-83490124D01*
X146831251Y-83496085D01*
X146854351Y-83504350D01*
X146876529Y-83514840D01*
X146897573Y-83527453D01*
X146917278Y-83542067D01*
X146935457Y-83558543D01*
X146951933Y-83576722D01*
X146966547Y-83596427D01*
X146979160Y-83617471D01*
X146989650Y-83639649D01*
X146997915Y-83662749D01*
X147003876Y-83686547D01*
X147007476Y-83710816D01*
X147008680Y-83735320D01*
X147008680Y-84410320D01*
X147007476Y-84434824D01*
X147003876Y-84459093D01*
X146997915Y-84482891D01*
X146989650Y-84505991D01*
X146979160Y-84528169D01*
X146966547Y-84549213D01*
X146951933Y-84568918D01*
X146935457Y-84587097D01*
X146917278Y-84603573D01*
X146897573Y-84618187D01*
X146876529Y-84630800D01*
X146854351Y-84641290D01*
X146831251Y-84649555D01*
X146807453Y-84655516D01*
X146783184Y-84659116D01*
X146758680Y-84660320D01*
X145808680Y-84660320D01*
X145784176Y-84659116D01*
X145759907Y-84655516D01*
X145736109Y-84649555D01*
X145713009Y-84641290D01*
X145690831Y-84630800D01*
X145669787Y-84618187D01*
X145650082Y-84603573D01*
X145631903Y-84587097D01*
X145615427Y-84568918D01*
X145600813Y-84549213D01*
X145588200Y-84528169D01*
X145577710Y-84505991D01*
X145569445Y-84482891D01*
X145563484Y-84459093D01*
X145559884Y-84434824D01*
X145558680Y-84410320D01*
X145558680Y-83735320D01*
X145559884Y-83710816D01*
X145563484Y-83686547D01*
X145569445Y-83662749D01*
X145577710Y-83639649D01*
X145588200Y-83617471D01*
X145600813Y-83596427D01*
X145615427Y-83576722D01*
X145631903Y-83558543D01*
X145650082Y-83542067D01*
X145669787Y-83527453D01*
X145690831Y-83514840D01*
X145713009Y-83504350D01*
X145736109Y-83496085D01*
X145759907Y-83490124D01*
X145784176Y-83486524D01*
X145808680Y-83485320D01*
X146758680Y-83485320D01*
X146783184Y-83486524D01*
G37*
G36*
X146783184Y-85561524D02*
G01*
X146807453Y-85565124D01*
X146831251Y-85571085D01*
X146854351Y-85579350D01*
X146876529Y-85589840D01*
X146897573Y-85602453D01*
X146917278Y-85617067D01*
X146935457Y-85633543D01*
X146951933Y-85651722D01*
X146966547Y-85671427D01*
X146979160Y-85692471D01*
X146989650Y-85714649D01*
X146997915Y-85737749D01*
X147003876Y-85761547D01*
X147007476Y-85785816D01*
X147008680Y-85810320D01*
X147008680Y-86485320D01*
X147007476Y-86509824D01*
X147003876Y-86534093D01*
X146997915Y-86557891D01*
X146989650Y-86580991D01*
X146979160Y-86603169D01*
X146966547Y-86624213D01*
X146951933Y-86643918D01*
X146935457Y-86662097D01*
X146917278Y-86678573D01*
X146897573Y-86693187D01*
X146876529Y-86705800D01*
X146854351Y-86716290D01*
X146831251Y-86724555D01*
X146807453Y-86730516D01*
X146783184Y-86734116D01*
X146758680Y-86735320D01*
X145808680Y-86735320D01*
X145784176Y-86734116D01*
X145759907Y-86730516D01*
X145736109Y-86724555D01*
X145713009Y-86716290D01*
X145690831Y-86705800D01*
X145669787Y-86693187D01*
X145650082Y-86678573D01*
X145631903Y-86662097D01*
X145615427Y-86643918D01*
X145600813Y-86624213D01*
X145588200Y-86603169D01*
X145577710Y-86580991D01*
X145569445Y-86557891D01*
X145563484Y-86534093D01*
X145559884Y-86509824D01*
X145558680Y-86485320D01*
X145558680Y-85810320D01*
X145559884Y-85785816D01*
X145563484Y-85761547D01*
X145569445Y-85737749D01*
X145577710Y-85714649D01*
X145588200Y-85692471D01*
X145600813Y-85671427D01*
X145615427Y-85651722D01*
X145631903Y-85633543D01*
X145650082Y-85617067D01*
X145669787Y-85602453D01*
X145690831Y-85589840D01*
X145713009Y-85579350D01*
X145736109Y-85571085D01*
X145759907Y-85565124D01*
X145784176Y-85561524D01*
X145808680Y-85560320D01*
X146758680Y-85560320D01*
X146783184Y-85561524D01*
G37*
G36*
X150019144Y-83567804D02*
G01*
X150043413Y-83571404D01*
X150067211Y-83577365D01*
X150090311Y-83585630D01*
X150112489Y-83596120D01*
X150133533Y-83608733D01*
X150153238Y-83623347D01*
X150171417Y-83639823D01*
X150187893Y-83658002D01*
X150202507Y-83677707D01*
X150215120Y-83698751D01*
X150225610Y-83720929D01*
X150233875Y-83744029D01*
X150239836Y-83767827D01*
X150243436Y-83792096D01*
X150244640Y-83816600D01*
X150244640Y-84491600D01*
X150243436Y-84516104D01*
X150239836Y-84540373D01*
X150233875Y-84564171D01*
X150225610Y-84587271D01*
X150215120Y-84609449D01*
X150202507Y-84630493D01*
X150187893Y-84650198D01*
X150171417Y-84668377D01*
X150153238Y-84684853D01*
X150133533Y-84699467D01*
X150112489Y-84712080D01*
X150090311Y-84722570D01*
X150067211Y-84730835D01*
X150043413Y-84736796D01*
X150019144Y-84740396D01*
X149994640Y-84741600D01*
X149044640Y-84741600D01*
X149020136Y-84740396D01*
X148995867Y-84736796D01*
X148972069Y-84730835D01*
X148948969Y-84722570D01*
X148926791Y-84712080D01*
X148905747Y-84699467D01*
X148886042Y-84684853D01*
X148867863Y-84668377D01*
X148851387Y-84650198D01*
X148836773Y-84630493D01*
X148824160Y-84609449D01*
X148813670Y-84587271D01*
X148805405Y-84564171D01*
X148799444Y-84540373D01*
X148795844Y-84516104D01*
X148794640Y-84491600D01*
X148794640Y-83816600D01*
X148795844Y-83792096D01*
X148799444Y-83767827D01*
X148805405Y-83744029D01*
X148813670Y-83720929D01*
X148824160Y-83698751D01*
X148836773Y-83677707D01*
X148851387Y-83658002D01*
X148867863Y-83639823D01*
X148886042Y-83623347D01*
X148905747Y-83608733D01*
X148926791Y-83596120D01*
X148948969Y-83585630D01*
X148972069Y-83577365D01*
X148995867Y-83571404D01*
X149020136Y-83567804D01*
X149044640Y-83566600D01*
X149994640Y-83566600D01*
X150019144Y-83567804D01*
G37*
G36*
X150019144Y-85642804D02*
G01*
X150043413Y-85646404D01*
X150067211Y-85652365D01*
X150090311Y-85660630D01*
X150112489Y-85671120D01*
X150133533Y-85683733D01*
X150153238Y-85698347D01*
X150171417Y-85714823D01*
X150187893Y-85733002D01*
X150202507Y-85752707D01*
X150215120Y-85773751D01*
X150225610Y-85795929D01*
X150233875Y-85819029D01*
X150239836Y-85842827D01*
X150243436Y-85867096D01*
X150244640Y-85891600D01*
X150244640Y-86566600D01*
X150243436Y-86591104D01*
X150239836Y-86615373D01*
X150233875Y-86639171D01*
X150225610Y-86662271D01*
X150215120Y-86684449D01*
X150202507Y-86705493D01*
X150187893Y-86725198D01*
X150171417Y-86743377D01*
X150153238Y-86759853D01*
X150133533Y-86774467D01*
X150112489Y-86787080D01*
X150090311Y-86797570D01*
X150067211Y-86805835D01*
X150043413Y-86811796D01*
X150019144Y-86815396D01*
X149994640Y-86816600D01*
X149044640Y-86816600D01*
X149020136Y-86815396D01*
X148995867Y-86811796D01*
X148972069Y-86805835D01*
X148948969Y-86797570D01*
X148926791Y-86787080D01*
X148905747Y-86774467D01*
X148886042Y-86759853D01*
X148867863Y-86743377D01*
X148851387Y-86725198D01*
X148836773Y-86705493D01*
X148824160Y-86684449D01*
X148813670Y-86662271D01*
X148805405Y-86639171D01*
X148799444Y-86615373D01*
X148795844Y-86591104D01*
X148794640Y-86566600D01*
X148794640Y-85891600D01*
X148795844Y-85867096D01*
X148799444Y-85842827D01*
X148805405Y-85819029D01*
X148813670Y-85795929D01*
X148824160Y-85773751D01*
X148836773Y-85752707D01*
X148851387Y-85733002D01*
X148867863Y-85714823D01*
X148886042Y-85698347D01*
X148905747Y-85683733D01*
X148926791Y-85671120D01*
X148948969Y-85660630D01*
X148972069Y-85652365D01*
X148995867Y-85646404D01*
X149020136Y-85642804D01*
X149044640Y-85641600D01*
X149994640Y-85641600D01*
X150019144Y-85642804D01*
G37*
G36*
X128424064Y-83273164D02*
G01*
X128448333Y-83276764D01*
X128472131Y-83282725D01*
X128495231Y-83290990D01*
X128517409Y-83301480D01*
X128538453Y-83314093D01*
X128558158Y-83328707D01*
X128576337Y-83345183D01*
X128592813Y-83363362D01*
X128607427Y-83383067D01*
X128620040Y-83404111D01*
X128630530Y-83426289D01*
X128638795Y-83449389D01*
X128644756Y-83473187D01*
X128648356Y-83497456D01*
X128649560Y-83521960D01*
X128649560Y-84196960D01*
X128648356Y-84221464D01*
X128644756Y-84245733D01*
X128638795Y-84269531D01*
X128630530Y-84292631D01*
X128620040Y-84314809D01*
X128607427Y-84335853D01*
X128592813Y-84355558D01*
X128576337Y-84373737D01*
X128558158Y-84390213D01*
X128538453Y-84404827D01*
X128517409Y-84417440D01*
X128495231Y-84427930D01*
X128472131Y-84436195D01*
X128448333Y-84442156D01*
X128424064Y-84445756D01*
X128399560Y-84446960D01*
X127449560Y-84446960D01*
X127425056Y-84445756D01*
X127400787Y-84442156D01*
X127376989Y-84436195D01*
X127353889Y-84427930D01*
X127331711Y-84417440D01*
X127310667Y-84404827D01*
X127290962Y-84390213D01*
X127272783Y-84373737D01*
X127256307Y-84355558D01*
X127241693Y-84335853D01*
X127229080Y-84314809D01*
X127218590Y-84292631D01*
X127210325Y-84269531D01*
X127204364Y-84245733D01*
X127200764Y-84221464D01*
X127199560Y-84196960D01*
X127199560Y-83521960D01*
X127200764Y-83497456D01*
X127204364Y-83473187D01*
X127210325Y-83449389D01*
X127218590Y-83426289D01*
X127229080Y-83404111D01*
X127241693Y-83383067D01*
X127256307Y-83363362D01*
X127272783Y-83345183D01*
X127290962Y-83328707D01*
X127310667Y-83314093D01*
X127331711Y-83301480D01*
X127353889Y-83290990D01*
X127376989Y-83282725D01*
X127400787Y-83276764D01*
X127425056Y-83273164D01*
X127449560Y-83271960D01*
X128399560Y-83271960D01*
X128424064Y-83273164D01*
G37*
G36*
X128424064Y-85348164D02*
G01*
X128448333Y-85351764D01*
X128472131Y-85357725D01*
X128495231Y-85365990D01*
X128517409Y-85376480D01*
X128538453Y-85389093D01*
X128558158Y-85403707D01*
X128576337Y-85420183D01*
X128592813Y-85438362D01*
X128607427Y-85458067D01*
X128620040Y-85479111D01*
X128630530Y-85501289D01*
X128638795Y-85524389D01*
X128644756Y-85548187D01*
X128648356Y-85572456D01*
X128649560Y-85596960D01*
X128649560Y-86271960D01*
X128648356Y-86296464D01*
X128644756Y-86320733D01*
X128638795Y-86344531D01*
X128630530Y-86367631D01*
X128620040Y-86389809D01*
X128607427Y-86410853D01*
X128592813Y-86430558D01*
X128576337Y-86448737D01*
X128558158Y-86465213D01*
X128538453Y-86479827D01*
X128517409Y-86492440D01*
X128495231Y-86502930D01*
X128472131Y-86511195D01*
X128448333Y-86517156D01*
X128424064Y-86520756D01*
X128399560Y-86521960D01*
X127449560Y-86521960D01*
X127425056Y-86520756D01*
X127400787Y-86517156D01*
X127376989Y-86511195D01*
X127353889Y-86502930D01*
X127331711Y-86492440D01*
X127310667Y-86479827D01*
X127290962Y-86465213D01*
X127272783Y-86448737D01*
X127256307Y-86430558D01*
X127241693Y-86410853D01*
X127229080Y-86389809D01*
X127218590Y-86367631D01*
X127210325Y-86344531D01*
X127204364Y-86320733D01*
X127200764Y-86296464D01*
X127199560Y-86271960D01*
X127199560Y-85596960D01*
X127200764Y-85572456D01*
X127204364Y-85548187D01*
X127210325Y-85524389D01*
X127218590Y-85501289D01*
X127229080Y-85479111D01*
X127241693Y-85458067D01*
X127256307Y-85438362D01*
X127272783Y-85420183D01*
X127290962Y-85403707D01*
X127310667Y-85389093D01*
X127331711Y-85376480D01*
X127353889Y-85365990D01*
X127376989Y-85357725D01*
X127400787Y-85351764D01*
X127425056Y-85348164D01*
X127449560Y-85346960D01*
X128399560Y-85346960D01*
X128424064Y-85348164D01*
G37*
G36*
X131746384Y-83354444D02*
G01*
X131770653Y-83358044D01*
X131794451Y-83364005D01*
X131817551Y-83372270D01*
X131839729Y-83382760D01*
X131860773Y-83395373D01*
X131880478Y-83409987D01*
X131898657Y-83426463D01*
X131915133Y-83444642D01*
X131929747Y-83464347D01*
X131942360Y-83485391D01*
X131952850Y-83507569D01*
X131961115Y-83530669D01*
X131967076Y-83554467D01*
X131970676Y-83578736D01*
X131971880Y-83603240D01*
X131971880Y-84278240D01*
X131970676Y-84302744D01*
X131967076Y-84327013D01*
X131961115Y-84350811D01*
X131952850Y-84373911D01*
X131942360Y-84396089D01*
X131929747Y-84417133D01*
X131915133Y-84436838D01*
X131898657Y-84455017D01*
X131880478Y-84471493D01*
X131860773Y-84486107D01*
X131839729Y-84498720D01*
X131817551Y-84509210D01*
X131794451Y-84517475D01*
X131770653Y-84523436D01*
X131746384Y-84527036D01*
X131721880Y-84528240D01*
X130771880Y-84528240D01*
X130747376Y-84527036D01*
X130723107Y-84523436D01*
X130699309Y-84517475D01*
X130676209Y-84509210D01*
X130654031Y-84498720D01*
X130632987Y-84486107D01*
X130613282Y-84471493D01*
X130595103Y-84455017D01*
X130578627Y-84436838D01*
X130564013Y-84417133D01*
X130551400Y-84396089D01*
X130540910Y-84373911D01*
X130532645Y-84350811D01*
X130526684Y-84327013D01*
X130523084Y-84302744D01*
X130521880Y-84278240D01*
X130521880Y-83603240D01*
X130523084Y-83578736D01*
X130526684Y-83554467D01*
X130532645Y-83530669D01*
X130540910Y-83507569D01*
X130551400Y-83485391D01*
X130564013Y-83464347D01*
X130578627Y-83444642D01*
X130595103Y-83426463D01*
X130613282Y-83409987D01*
X130632987Y-83395373D01*
X130654031Y-83382760D01*
X130676209Y-83372270D01*
X130699309Y-83364005D01*
X130723107Y-83358044D01*
X130747376Y-83354444D01*
X130771880Y-83353240D01*
X131721880Y-83353240D01*
X131746384Y-83354444D01*
G37*
G36*
X131746384Y-85429444D02*
G01*
X131770653Y-85433044D01*
X131794451Y-85439005D01*
X131817551Y-85447270D01*
X131839729Y-85457760D01*
X131860773Y-85470373D01*
X131880478Y-85484987D01*
X131898657Y-85501463D01*
X131915133Y-85519642D01*
X131929747Y-85539347D01*
X131942360Y-85560391D01*
X131952850Y-85582569D01*
X131961115Y-85605669D01*
X131967076Y-85629467D01*
X131970676Y-85653736D01*
X131971880Y-85678240D01*
X131971880Y-86353240D01*
X131970676Y-86377744D01*
X131967076Y-86402013D01*
X131961115Y-86425811D01*
X131952850Y-86448911D01*
X131942360Y-86471089D01*
X131929747Y-86492133D01*
X131915133Y-86511838D01*
X131898657Y-86530017D01*
X131880478Y-86546493D01*
X131860773Y-86561107D01*
X131839729Y-86573720D01*
X131817551Y-86584210D01*
X131794451Y-86592475D01*
X131770653Y-86598436D01*
X131746384Y-86602036D01*
X131721880Y-86603240D01*
X130771880Y-86603240D01*
X130747376Y-86602036D01*
X130723107Y-86598436D01*
X130699309Y-86592475D01*
X130676209Y-86584210D01*
X130654031Y-86573720D01*
X130632987Y-86561107D01*
X130613282Y-86546493D01*
X130595103Y-86530017D01*
X130578627Y-86511838D01*
X130564013Y-86492133D01*
X130551400Y-86471089D01*
X130540910Y-86448911D01*
X130532645Y-86425811D01*
X130526684Y-86402013D01*
X130523084Y-86377744D01*
X130521880Y-86353240D01*
X130521880Y-85678240D01*
X130523084Y-85653736D01*
X130526684Y-85629467D01*
X130532645Y-85605669D01*
X130540910Y-85582569D01*
X130551400Y-85560391D01*
X130564013Y-85539347D01*
X130578627Y-85519642D01*
X130595103Y-85501463D01*
X130613282Y-85484987D01*
X130632987Y-85470373D01*
X130654031Y-85457760D01*
X130676209Y-85447270D01*
X130699309Y-85439005D01*
X130723107Y-85433044D01*
X130747376Y-85429444D01*
X130771880Y-85428240D01*
X131721880Y-85428240D01*
X131746384Y-85429444D01*
G37*
M02*
