999
dxfrw 0.6.3
  0
SECTION
  2
HEADER
  9
$ACADVER
  1
AC1021
  9
$DWGCODEPAGE
  3
ANSI_1252
  9
$INSBASE
 10
0
 20
0
 30
0
  9
$EXTMIN
 10
-6586.445980378129
 20
-485.5323003502695
 30
0
  9
$EXTMAX
 10
2769.089561240272
 20
3521.425253921496
 30
0
  9
$LIMMIN
 10
0
 20
0
  9
$LIMMAX
 10
420
 20
297
  9
$ORTHOMODE
 70
    0
  9
$REGENMODE
 70
    1
  9
$FILLMODE
 70
    1
  9
$QTEXTMODE
 70
    0
  9
$MIRRTEXT
 70
    0
  9
$LTSCALE
 40
1
  9
$ATTMODE
 70
    0
  9
$TEXTSIZE
 40
2.5
  9
$TRACEWID
 40
15.68
  9
$TEXTSTYLE
  7
STANDARD
  9
$CLAYER
  8
0
  9
$CELTYPE
  6
BYLAYER
  9
$CECOLOR
 62
  256
  9
$CELTSCALE
 40
1
  9
$DISPSILH
 70
    0
  9
$DIMSCALE
 40
1
  9
$DIMASZ
 40
2.5
  9
$DIMEXO
 40
0.625
  9
$DIMDLI
 40
3.75
  9
$DIMRND
 40
0
  9
$DIMDLE
 40
0
  9
$DIMEXE
 40
1.25
  9
$DIMTP
 40
0
  9
$DIMTM
 40
0
  9
$DIMTXT
 40
2.5
  9
$DIMCEN
 40
2.5
  9
$DIMTSZ
 40
0
  9
$DIMTOL
 70
    0
  9
$DIMLIM
 70
    0
  9
$DIMTIH
 70
    0
  9
$DIMTOH
 70
    0
  9
$DIMSE1
 70
    0
  9
$DIMSE2
 70
    0
  9
$DIMTAD
 70
    1
  9
$DIMZIN
 70
    8
  9
$DIMBLK
  1

  9
$DIMASO
 70
    1
  9
$DIMSHO
 70
    1
  9
$DIMPOST
  1

  9
$DIMAPOST
  1

  9
$DIMALT
 70
    0
  9
$DIMALTD
 70
    3
  9
$DIMALTF
 40
0.03937
  9
$DIMLFAC
 40
1
  9
$DIMTOFL
 70
    1
  9
$DIMTVP
 40
0
  9
$DIMTIX
 70
    0
  9
$DIMSOXD
 70
    0
  9
$DIMSAH
 70
    0
  9
$DIMBLK1
  1

  9
$DIMBLK2
  1

  9
$DIMSTYLE
  2
STANDARD
  9
$DIMCLRD
 70
    0
  9
$DIMCLRE
 70
    0
  9
$DIMCLRT
 70
    0
  9
$DIMTFAC
 40
1
  9
$DIMGAP
 40
0.625
  9
$DIMJUST
 70
    0
  9
$DIMSD1
 70
    0
  9
$DIMSD2
 70
    0
  9
$DIMTOLJ
 70
    0
  9
$DIMTZIN
 70
    8
  9
$DIMALTZ
 70
    0
  9
$DIMALTTZ
 70
    0
  9
$DIMUPT
 70
    0
  9
$DIMDEC
 70
    2
  9
$DIMTDEC
 70
    2
  9
$DIMALTU
 70
    2
  9
$DIMALTTD
 70
    3
  9
$DIMTXSTY
  7
STANDARD
  9
$DIMAUNIT
 70
    0
  9
$DIMADEC
 70
    0
  9
$DIMALTRND
 40
0
  9
$DIMAZIN
 70
    0
  9
$DIMDSEP
 70
   44
  9
$DIMATFIT
 70
    3
  9
$DIMFRAC
 70
    0
  9
$DIMLDRBLK
  1
STANDARD
  9
$DIMLUNIT
 70
    2
  9
$DIMLWD
 70
   -2
  9
$DIMLWE
 70
   -2
  9
$DIMTMOVE
 70
    0
  9
$DIMFXL
 40
1
  9
$DIMFXLON
 70
    0
  9
$DIMJOGANG
 40
0.7854
  9
$DIMTFILL
 70
    0
  9
$DIMTFILLCLR
 70
    0
  9
$DIMARCSYM
 70
    0
  9
$DIMLTYPE
  6

  9
$DIMLTEX1
  6

  9
$DIMLTEX2
  6

  9
$LUNITS
 70
    2
  9
$LUPREC
 70
    4
  9
$SKETCHINC
 40
1
  9
$FILLETRAD
 40
0
  9
$AUNITS
 70
    0
  9
$AUPREC
 70
    2
  9
$MENU
  1
.
  9
$ELEVATION
 40
0
  9
$PELEVATION
 40
0
  9
$THICKNESS
 40
0
  9
$LIMCHECK
 70
    0
  9
$CHAMFERA
 40
0
  9
$CHAMFERB
 40
0
  9
$CHAMFERC
 40
0
  9
$CHAMFERD
 40
0
  9
$SKPOLY
 70
    0
  9
$USRTIMER
 70
    1
  9
$ANGBASE
 50
0
  9
$ANGDIR
 70
    0
  9
$PDMODE
 70
   34
  9
$PDSIZE
 40
0
  9
$PLINEWID
 40
0
  9
$SPLFRAME
 70
    0
  9
$SPLINETYPE
 70
    2
  9
$SPLINESEGS
 70
    8
  9
$HANDSEED
  5
20000
  9
$SURFTAB1
 70
    6
  9
$SURFTAB2
 70
    6
  9
$SURFTYPE
 70
    6
  9
$SURFU
 70
    6
  9
$SURFV
 70
    6
  9
$UCSBASE
  2

  9
$UCSNAME
  2

  9
$UCSORG
 10
0
 20
0
 30
0
  9
$UCSXDIR
 10
1
 20
0
 30
0
  9
$UCSYDIR
 10
0
 20
1
 30
0
  9
$UCSORTHOREF
  2

  9
$UCSORTHOVIEW
 70
    0
  9
$UCSORGTOP
 10
0
 20
0
 30
0
  9
$UCSORGBOTTOM
 10
0
 20
0
 30
0
  9
$UCSORGLEFT
 10
0
 20
0
 30
0
  9
$UCSORGRIGHT
 10
0
 20
0
 30
0
  9
$UCSORGFRONT
 10
0
 20
0
 30
0
  9
$UCSORGBACK
 10
0
 20
0
 30
0
  9
$PUCSBASE
  2

  9
$PUCSNAME
  2

  9
$PUCSORG
 10
0
 20
0
 30
0
  9
$PUCSXDIR
 10
1
 20
0
 30
0
  9
$PUCSYDIR
 10
0
 20
1
 30
0
  9
$PUCSORTHOREF
  2

  9
$PUCSORTHOVIEW
 70
    0
  9
$PUCSORGTOP
 10
0
 20
0
 30
0
  9
$PUCSORGBOTTOM
 10
0
 20
0
 30
0
  9
$PUCSORGLEFT
 10
0
 20
0
 30
0
  9
$PUCSORGRIGHT
 10
0
 20
0
 30
0
  9
$PUCSORGFRONT
 10
0
 20
0
 30
0
  9
$PUCSORGBACK
 10
0
 20
0
 30
0
  9
$USERI1
 70
    0
  9
$USERI2
 70
    0
  9
$USERI3
 70
    0
  9
$USERI4
 70
    0
  9
$USERI5
 70
    0
  9
$USERR1
 40
0
  9
$USERR2
 40
0
  9
$USERR3
 40
0
  9
$USERR4
 40
0
  9
$USERR5
 40
0
  9
$WORLDVIEW
 70
    1
  9
$SHADEDGE
 70
    3
  9
$SHADEDIF
 70
   70
  9
$TILEMODE
 70
    1
  9
$MAXACTVP
 70
   64
  9
$PINSBASE
 10
0
 20
0
 30
0
  9
$PLIMCHECK
 70
    0
  9
$PEXTMIN
 10
0
 20
0
 30
0
  9
$PEXTMAX
 10
0
 20
0
 30
0
  9
$GRIDMODE
 70
    1
  9
$SNAPSTYLE
 70
    0
  9
$PLIMMIN
 10
0
 20
0
  9
$PLIMMAX
 10
210
 20
297
  9
$UNITMODE
 70
    0
  9
$VISRETAIN
 70
    1
  9
$PLINEGEN
 70
    0
  9
$PSLTSCALE
 70
    1
  9
$TREEDEPTH
 70
 3020
  9
$CMLSTYLE
  2
Standard
  9
$CMLJUST
 70
    0
  9
$CMLSCALE
 40
20
  9
$PROXYGRAPHICS
 70
    1
  9
$MEASUREMENT
 70
    1
  9
$CELWEIGHT
370
   -1
  9
$ENDCAPS
280
    0
  9
$JOINSTYLE
280
    0
  9
$LWDISPLAY
290
    0
  9
$INSUNITS
 70
    4
  9
$HYPERLINKBASE
  1

  9
$STYLESHEET
  1

  9
$XEDIT
290
    1
  9
$CEPSNTYPE
380
    0
  9
$PSTYLEMODE
290
    1
  9
$EXTNAMES
290
    1
  9
$PSVPSCALE
 40
1
  9
$OLESTARTUP
290
    0
  9
$SORTENTS
280
  127
  9
$INDEXCTL
280
    0
  9
$HIDETEXT
280
    1
  9
$XCLIPFRAME
290
    0
  9
$HALOGAP
280
    0
  9
$OBSCOLOR
 70
  257
  9
$OBSLTYPE
280
    0
  9
$INTERSECTIONDISPLAY
280
    0
  9
$INTERSECTIONCOLOR
 70
  257
  9
$DIMASSOC
280
    1
  9
$PROJECTNAME
  1

  9
$CAMERADISPLAY
290
    0
  9
$LENSLENGTH
 40
50
  9
$CAMERAHEIGHT
 40
0
  9
$STEPSPERSEC
 40
2
  9
$STEPSIZE
 40
50
  9
$3DDWFPREC
 40
2
  9
$PSOLWIDTH
 40
5
  9
$PSOLHEIGHT
 40
80
  9
$LOFTANG1
 40
1.570796326794897
  9
$LOFTANG2
 40
1.570796326794897
  9
$LOFTMAG1
 40
0
  9
$LOFTMAG2
 40
0
  9
$LOFTPARAM
 70
    7
  9
$LOFTNORMALS
280
    1
  9
$LATITUDE
 40
1
  9
$LONGITUDE
 40
1
  9
$NORTHDIRECTION
 40
0
  9
$TIMEZONE
 70
-8000
  9
$LIGHTGLYPHDISPLAY
280
    1
  9
$TILEMODELIGHTSYNCH
280
    1
  9
$SOLIDHIST
280
    1
  9
$SHOWHIST
280
    1
  9
$DWFFRAME
280
    2
  9
$DGNFRAME
280
    0
  9
$REALWORLDSCALE
290
    1
  9
$INTERFERECOLOR
 62
    1
  9
$CSHADOW
280
    0
  9
$SHADOWPLANELOCATION
 40
0
  0
ENDSEC
  0
SECTION
  2
CLASSES
  0
ENDSEC
  0
SECTION
  2
TABLES
  0
TABLE
  2
VPORT
  5
8
330
0
100
AcDbSymbolTable
 70
    1
  0
VPORT
  5
31
330
2
100
AcDbSymbolTableRecord
100
AcDbViewportTableRecord
  2
*ACTIVE
 70
    0
 10
0
 20
0
 11
1
 21
1
 12
-3154.777938888476
 22
24.69762322800116
 13
0
 23
0
 14
10
 24
10
 15
10
 25
10
 16
0
 26
0
 36
1
 17
0
 27
0
 37
0
 40
45.06950889654177
 41
2.037613488975357
 42
50
 43
0
 44
0
 50
0
 51
0
 71
    0
 72
  100
 73
    1
 74
    3
 75
    0
 76
    1
 77
    0
 78
    0
281
    0
 65
    1
110
0
120
0
130
0
111
1
121
0
131
0
112
0
122
1
132
0
 79
    0
146
0
348
10020
 60
    7
 61
    5
292
1
282
    1
141
0
142
0
 63
  250
421
3358443
  0
ENDTAB
  0
TABLE
  2
LTYPE
  5
5
330
0
100
AcDbSymbolTable
 70
    4
  0
LTYPE
  5
14
330
5
100
AcDbSymbolTableRecord
100
AcDbLinetypeTableRecord
  2
ByBlock
 70
    0
  3

 72
   65
 73
    0
 40
0
  0
LTYPE
  5
15
330
5
100
AcDbSymbolTableRecord
100
AcDbLinetypeTableRecord
  2
ByLayer
 70
    0
  3

 72
   65
 73
    0
 40
0
  0
LTYPE
  5
16
330
5
100
AcDbSymbolTableRecord
100
AcDbLinetypeTableRecord
  2
Continuous
 70
    0
  3
Solid line
 72
   65
 73
    0
 40
0
  0
LTYPE
  5
32
330
5
100
AcDbSymbolTableRecord
100
AcDbLinetypeTableRecord
  2
DOT
 70
    0
  3
Dot . . . . . . . . . . . . . . . . . . . . . .
 72
   65
 73
    2
 40
6.35
 49
0
 74
    0
 49
-6.35
 74
    0
  0
LTYPE
  5
33
330
5
100
AcDbSymbolTableRecord
100
AcDbLinetypeTableRecord
  2
DOTTINY
 70
    0
  3
Dot (.15x) .....................................
 72
   65
 73
    2
 40
0.9525
 49
0
 74
    0
 49
-0.9525
 74
    0
  0
LTYPE
  5
34
330
5
100
AcDbSymbolTableRecord
100
AcDbLinetypeTableRecord
  2
DOT2
 70
    0
  3
Dot (.5x) .....................................
 72
   65
 73
    2
 40
3.175
 49
0
 74
    0
 49
-3.175
 74
    0
  0
LTYPE
  5
35
330
5
100
AcDbSymbolTableRecord
100
AcDbLinetypeTableRecord
  2
DOTX2
 70
    0
  3
Dot (2x) .  .  .  .  .  .  .  .  .  .  .  .  .
 72
   65
 73
    2
 40
12.7
 49
0
 74
    0
 49
-12.7
 74
    0
  0
LTYPE
  5
36
330
5
100
AcDbSymbolTableRecord
100
AcDbLinetypeTableRecord
  2
DASHED
 70
    0
  3
Dashed _ _ _ _ _ _ _ _ _ _ _ _ _ _ _ _ _
 72
   65
 73
    2
 40
19.05
 49
12.7
 74
    0
 49
-6.35
 74
    0
  0
LTYPE
  5
37
330
5
100
AcDbSymbolTableRecord
100
AcDbLinetypeTableRecord
  2
DASHEDTINY
 70
    0
  3
Dashed (.15x) _ _ _ _ _ _ _ _ _ _ _ _ _ _ _ _ _
 72
   65
 73
    2
 40
2.8575
 49
1.905
 74
    0
 49
-0.9525
 74
    0
  0
LTYPE
  5
38
330
5
100
AcDbSymbolTableRecord
100
AcDbLinetypeTableRecord
  2
DASHED2
 70
    0
  3
Dashed (.5x) _ _ _ _ _ _ _ _ _ _ _ _ _ _ _ _ _
 72
   65
 73
    2
 40
9.524999999999999
 49
6.35
 74
    0
 49
-3.175
 74
    0
  0
LTYPE
  5
39
330
5
100
AcDbSymbolTableRecord
100
AcDbLinetypeTableRecord
  2
DASHEDX2
 70
    0
  3
Dashed (2x) ____  ____  ____  ____  ____  ___
 72
   65
 73
    2
 40
38.09999999999999
 49
25.4
 74
    0
 49
-12.7
 74
    0
  0
LTYPE
  5
3A
330
5
100
AcDbSymbolTableRecord
100
AcDbLinetypeTableRecord
  2
DASHDOT
 70
    0
  3
Dash dot __ . __ . __ . __ . __ . __ . __ . __
 72
   65
 73
    4
 40
25.4
 49
12.7
 74
    0
 49
-6.35
 74
    0
 49
0
 74
    0
 49
-6.35
 74
    0
  0
LTYPE
  5
3B
330
5
100
AcDbSymbolTableRecord
100
AcDbLinetypeTableRecord
  2
DASHDOTTINY
 70
    0
  3
Dash dot (.15x) _._._._._._._._._._._._._._._.
 72
   65
 73
    4
 40
3.81
 49
1.905
 74
    0
 49
-0.9525
 74
    0
 49
0
 74
    0
 49
-0.9525
 74
    0
  0
LTYPE
  5
3C
330
5
100
AcDbSymbolTableRecord
100
AcDbLinetypeTableRecord
  2
DASHDOT2
 70
    0
  3
Dash dot (.5x) _._._._._._._._._._._._._._._.
 72
   65
 73
    4
 40
12.7
 49
6.35
 74
    0
 49
-3.175
 74
    0
 49
0
 74
    0
 49
-3.175
 74
    0
  0
LTYPE
  5
3D
330
5
100
AcDbSymbolTableRecord
100
AcDbLinetypeTableRecord
  2
DASHDOTX2
 70
    0
  3
Dash dot (2x) ____  .  ____  .  ____  .  ___
 72
   65
 73
    4
 40
50.8
 49
25.4
 74
    0
 49
-12.7
 74
    0
 49
0
 74
    0
 49
-12.7
 74
    0
  0
LTYPE
  5
3E
330
5
100
AcDbSymbolTableRecord
100
AcDbLinetypeTableRecord
  2
DIVIDE
 70
    0
  3
Divide ____ . . ____ . . ____ . . ____ . . ____
 72
   65
 73
    6
 40
31.75
 49
12.7
 74
    0
 49
-6.35
 74
    0
 49
0
 74
    0
 49
-6.35
 74
    0
 49
0
 74
    0
 49
-6.35
 74
    0
  0
LTYPE
  5
3F
330
5
100
AcDbSymbolTableRecord
100
AcDbLinetypeTableRecord
  2
DIVIDETINY
 70
    0
  3
Divide (.15x) __..__..__..__..__..__..__..__.._
 72
   65
 73
    6
 40
4.7625
 49
1.905
 74
    0
 49
-0.9525
 74
    0
 49
0
 74
    0
 49
-0.9525
 74
    0
 49
0
 74
    0
 49
-0.9525
 74
    0
  0
LTYPE
  5
40
330
5
100
AcDbSymbolTableRecord
100
AcDbLinetypeTableRecord
  2
DIVIDE2
 70
    0
  3
Divide (.5x) __..__..__..__..__..__..__..__.._
 72
   65
 73
    6
 40
15.875
 49
6.35
 74
    0
 49
-3.175
 74
    0
 49
0
 74
    0
 49
-3.175
 74
    0
 49
0
 74
    0
 49
-3.175
 74
    0
  0
LTYPE
  5
41
330
5
100
AcDbSymbolTableRecord
100
AcDbLinetypeTableRecord
  2
DIVIDEX2
 70
    0
  3
Divide (2x) ________  .  .  ________  .  .  _
 72
   65
 73
    6
 40
63.5
 49
25.4
 74
    0
 49
-12.7
 74
    0
 49
0
 74
    0
 49
-12.7
 74
    0
 49
0
 74
    0
 49
-12.7
 74
    0
  0
LTYPE
  5
42
330
5
100
AcDbSymbolTableRecord
100
AcDbLinetypeTableRecord
  2
BORDER
 70
    0
  3
Border __ __ . __ __ . __ __ . __ __ . __ __ .
 72
   65
 73
    6
 40
44.45
 49
12.7
 74
    0
 49
-6.35
 74
    0
 49
12.7
 74
    0
 49
-6.35
 74
    0
 49
0
 74
    0
 49
-6.35
 74
    0
  0
LTYPE
  5
43
330
5
100
AcDbSymbolTableRecord
100
AcDbLinetypeTableRecord
  2
BORDERTINY
 70
    0
  3
Border (.15x) __.__.__.__.__.__.__.__.__.__.__.
 72
   65
 73
    6
 40
6.6675
 49
1.905
 74
    0
 49
-0.9525
 74
    0
 49
1.905
 74
    0
 49
-0.9525
 74
    0
 49
0
 74
    0
 49
-0.9525
 74
    0
  0
LTYPE
  5
44
330
5
100
AcDbSymbolTableRecord
100
AcDbLinetypeTableRecord
  2
BORDER2
 70
    0
  3
Border (.5x) __.__.__.__.__.__.__.__.__.__.__.
 72
   65
 73
    6
 40
22.225
 49
6.35
 74
    0
 49
-3.175
 74
    0
 49
6.35
 74
    0
 49
-3.175
 74
    0
 49
0
 74
    0
 49
-3.175
 74
    0
  0
LTYPE
  5
45
330
5
100
AcDbSymbolTableRecord
100
AcDbLinetypeTableRecord
  2
BORDERX2
 70
    0
  3
Border (2x) ____  ____  .  ____  ____  .  ___
 72
   65
 73
    6
 40
88.89999999999999
 49
25.4
 74
    0
 49
-12.7
 74
    0
 49
25.4
 74
    0
 49
-12.7
 74
    0
 49
0
 74
    0
 49
-12.7
 74
    0
  0
LTYPE
  5
46
330
5
100
AcDbSymbolTableRecord
100
AcDbLinetypeTableRecord
  2
CENTER
 70
    0
  3
Center ____ _ ____ _ ____ _ ____ _ ____ _ ____
 72
   65
 73
    4
 40
50.8
 49
31.75
 74
    0
 49
-6.35
 74
    0
 49
6.35
 74
    0
 49
-6.35
 74
    0
  0
LTYPE
  5
47
330
5
100
AcDbSymbolTableRecord
100
AcDbLinetypeTableRecord
  2
CENTERTINY
 70
    0
  3
Center (.15x) ___ _ ___ _ ___ _ ___ _ ___ _ ___
 72
   65
 73
    4
 40
7.619999999999999
 49
4.7625
 74
    0
 49
-0.9525
 74
    0
 49
0.9525
 74
    0
 49
-0.9525
 74
    0
  0
LTYPE
  5
48
330
5
100
AcDbSymbolTableRecord
100
AcDbLinetypeTableRecord
  2
CENTER2
 70
    0
  3
Center (.5x) ___ _ ___ _ ___ _ ___ _ ___ _ ___
 72
   65
 73
    4
 40
28.575
 49
19.05
 74
    0
 49
-3.175
 74
    0
 49
3.175
 74
    0
 49
-3.175
 74
    0
  0
LTYPE
  5
49
330
5
100
AcDbSymbolTableRecord
100
AcDbLinetypeTableRecord
  2
CENTERX2
 70
    0
  3
Center (2x) ________  __  ________  __  _____
 72
   65
 73
    4
 40
101.6
 49
63.5
 74
    0
 49
-12.7
 74
    0
 49
12.7
 74
    0
 49
-12.7
 74
    0
  0
ENDTAB
  0
TABLE
  2
LAYER
  5
2
330
0
100
AcDbSymbolTable
 70
    1
  0
LAYER
  5
10
330
2
100
AcDbSymbolTableRecord
100
AcDbLayerTableRecord
  2
0
 70
    0
 62
    7
  6
CONTINUOUS
370
    0
390
F
  0
ENDTAB
  0
TABLE
  2
STYLE
  5
3
330
0
100
AcDbSymbolTable
 70
    3
  0
STYLE
  5
4A
330
2
100
AcDbSymbolTableRecord
100
AcDbTextStyleTableRecord
  2
Standard
 70
    0
 40
0
 41
1
 50
0
 71
    0
 42
1
  3
txt
  4

  0
ENDTAB
  0
TABLE
  2
VIEW
  5
6
330
0
100
AcDbSymbolTable
 70
    0
  0
ENDTAB
  0
TABLE
  2
UCS
  5
7
330
0
100
AcDbSymbolTable
 70
    0
  0
ENDTAB
  0
TABLE
  2
APPID
  5
9
330
0
100
AcDbSymbolTable
 70
    1
  0
APPID
  5
12
330
9
100
AcDbSymbolTableRecord
100
AcDbRegAppTableRecord
  2
ACAD
 70
    0
  0
APPID
  5
4B
330
9
100
AcDbSymbolTableRecord
100
AcDbRegAppTableRecord
  2
LibreCad
 70
    0
  0
ENDTAB
  0
TABLE
  2
DIMSTYLE
  5
A
330
0
100
AcDbSymbolTable
 70
    1
100
AcDbDimStyleTable
 71
    1
  0
DIMSTYLE
105
4C
330
A
100
AcDbSymbolTableRecord
100
AcDbDimStyleTableRecord
  2
Standard
 70
    0
 40
1
 41
2.5
 42
0.625
 43
0.38
 44
1.25
 45
0
 46
0
 47
0
 48
0
 49
1
140
2.5
141
0.09
142
0
143
25.4
144
1
145
0
146
1
147
0.625
148
0
 71
    0
 72
    0
 73
    0
 74
    1
 75
    0
 76
    0
 77
    0
 78
    8
 79
    0
170
    0
171
    2
172
    0
173
    0
174
    0
175
    0
176
    0
177
    0
178
    0
179
    0
271
    2
272
    4
273
    2
274
    2
275
    0
276
    0
277
    2
278
   44
279
    0
280
    0
281
    0
282
    0
283
    1
284
    0
285
    0
286
    0
288
    0
289
    3
340
STANDARD
341

371
   -2
372
   -2
  0
ENDTAB
  0
TABLE
  2
BLOCK_RECORD
  5
1
330
0
100
AcDbSymbolTable
 70
    2
  0
BLOCK_RECORD
  5
1F
330
1
100
AcDbSymbolTableRecord
100
AcDbBlockTableRecord
  2
*Model_Space
 70
    0
280
    1
281
    0
  0
BLOCK_RECORD
  5
1E
330
1
100
AcDbSymbolTableRecord
100
AcDbBlockTableRecord
  2
*Paper_Space
 70
    0
280
    1
281
    0
  0
BLOCK_RECORD
  5
4D
330
1
100
AcDbSymbolTableRecord
100
AcDbBlockTableRecord
  2
*D3
 70
    0
280
    1
281
    0
  0
BLOCK_RECORD
  5
50
330
1
100
AcDbSymbolTableRecord
100
AcDbBlockTableRecord
  2
*D4
 70
    0
280
    1
281
    0
  0
BLOCK_RECORD
  5
53
330
1
100
AcDbSymbolTableRecord
100
AcDbBlockTableRecord
  2
*D6
 70
    0
280
    1
281
    0
  0
BLOCK_RECORD
  5
56
330
1
100
AcDbSymbolTableRecord
100
AcDbBlockTableRecord
  2
*D5
 70
    0
280
    1
281
    0
  0
BLOCK_RECORD
  5
59
330
1
100
AcDbSymbolTableRecord
100
AcDbBlockTableRecord
  2
*D7
 70
    0
280
    1
281
    0
  0
BLOCK_RECORD
  5
5C
330
1
100
AcDbSymbolTableRecord
100
AcDbBlockTableRecord
  2
*D9
 70
    0
280
    1
281
    0
  0
BLOCK_RECORD
  5
5F
330
1
100
AcDbSymbolTableRecord
100
AcDbBlockTableRecord
  2
*D10
 70
    0
280
    1
281
    0
  0
BLOCK_RECORD
  5
62
330
1
100
AcDbSymbolTableRecord
100
AcDbBlockTableRecord
  2
*D2
 70
    0
280
    1
281
    0
  0
BLOCK_RECORD
  5
65
330
1
100
AcDbSymbolTableRecord
100
AcDbBlockTableRecord
  2
*D12
 70
    0
280
    1
281
    0
  0
BLOCK_RECORD
  5
68
330
1
100
AcDbSymbolTableRecord
100
AcDbBlockTableRecord
  2
*D1
 70
    0
280
    1
281
    0
  0
BLOCK_RECORD
  5
6B
330
1
100
AcDbSymbolTableRecord
100
AcDbBlockTableRecord
  2
*D8
 70
    0
280
    1
281
    0
  0
BLOCK_RECORD
  5
6E
330
1
100
AcDbSymbolTableRecord
100
AcDbBlockTableRecord
  2
*D11
 70
    0
280
    1
281
    0
  0
ENDTAB
  0
ENDSEC
  0
SECTION
  2
BLOCKS
  0
BLOCK
  5
20
330
1F
100
AcDbEntity
  8
0
100
AcDbBlockBegin
  2
*Model_Space
 70
    0
 10
0
 20
0
 30
0
  3
*Model_Space
  1

  0
ENDBLK
  5
21
330
1F
100
AcDbEntity
  8
0
100
AcDbBlockEnd
  0
BLOCK
  5
1C
330
1B
100
AcDbEntity
  8
0
100
AcDbBlockBegin
  2
*Paper_Space
 70
    0
 10
0
 20
0
 30
0
  3
*Paper_Space
  1

  0
ENDBLK
  5
1D
330
1F
100
AcDbEntity
  8
0
100
AcDbBlockEnd
  0
BLOCK
  5
4E
330
4D
100
AcDbEntity
  8
0
100
AcDbBlockBegin
  2
*D3
 70
    1
 10
0
 20
0
  3
*D3
  1

  0
LINE
  5
71
100
AcDbEntity
  8
0
  6
ByBlock
 62
    0
370
   -2
100
AcDbLine
 10
-5224.89697780247
 20
149.9809922433821
 11
-5272.093968404832
 21
153.2023701861602
  0
LINE
  5
72
100
AcDbEntity
  8
0
  6
ByBlock
 62
    0
370
   -2
100
AcDbLine
 10
-5234.070961247505
 20
15.57130231171617
 11
-5281.267951849866
 21
18.79268025449417
  0
LINE
  5
73
100
AcDbEntity
  8
0
  6
ByBlock
 62
    0
370
   -2
100
AcDbLine
 10
-5270.846869891588
 20
153.1172508683443
 11
-5280.020853336622
 21
18.70756093667832
  0
SOLID
  5
74
100
AcDbEntity
  8
0
  6
ByBlock
 62
    0
370
   -2
100
AcDbTrace
 10
-5270.846869891588
 20
153.1172508683443
 30
0
 11
-5270.601790144983
 21
150.5947067489875
 31
0
 12
-5271.432426909455
 22
150.6514009347264
 32
0
 13
-5271.432426909455
 23
150.6514009347264
 33
0
  0
SOLID
  5
75
100
AcDbEntity
  8
0
  6
ByBlock
 62
    0
370
   -2
100
AcDbTrace
 10
-5280.020853336622
 20
18.70756093667832
 30
0
 11
-5280.265933083227
 21
21.23010505603511
 31
0
 12
-5279.435296318755
 22
21.17341087029618
 32
0
 13
-5279.435296318755
 23
21.17341087029618
 33
0
  0
MTEXT
  5
76
100
AcDbEntity
  8
0
  6
CONTINUOUS
 62
    0
370
   -2
100
AcDbMText
 10
-5277.30450938397
 20
86.04008487923508
 30
0
 40
2.5
 41
9.583333333333488
 71
    5
 72
    1
  1
134,72
  7
STANDARD
210
0
220
0
230
1
 50
86.09539629127876
 73
    2
 44
1
  0
ENDBLK
  5
4F
330
4D
100
AcDbEntity
  8
0
100
AcDbBlockEnd
  0
BLOCK
  5
51
330
50
100
AcDbEntity
  8
0
100
AcDbBlockBegin
  2
*D4
 70
    1
 10
0
 20
0
  3
*D4
  1

  0
LINE
  5
77
100
AcDbEntity
  8
0
  6
ByBlock
 62
    0
370
   -2
100
AcDbLine
 10
-5234.070949569999
 20
15.571473400958
 11
-5268.214736783045
 21
17.90191950794842
  0
LINE
  5
78
100
AcDbEntity
  8
0
  6
ByBlock
 62
    0
370
   -2
100
AcDbLine
 10
-5232.708934551785
 20
35.52660165875412
 11
-5266.852721764831
 21
37.85704776574455
  0
LINE
  5
79
100
AcDbEntity
  8
0
  6
ByBlock
 62
    0
370
   -2
100
AcDbLine
 10
-5266.967638269801
 20
17.81680019013262
 11
-5265.605623251587
 21
37.77192844792874
  0
SOLID
  5
7A
100
AcDbEntity
  8
0
  6
ByBlock
 62
    0
370
   -2
100
AcDbTrace
 10
-5266.967638269801
 20
17.81680019013262
 30
0
 11
-5267.212718016405
 21
20.33934430948941
 31
0
 12
-5266.382081251933
 22
20.28265012375052
 32
0
 13
-5266.382081251933
 23
20.28265012375052
 33
0
  0
SOLID
  5
7B
100
AcDbEntity
  8
0
  6
ByBlock
 62
    0
370
   -2
100
AcDbTrace
 10
-5265.605623251587
 20
37.77192844792874
 30
0
 11
-5265.360543504982
 21
35.24938432857196
 31
0
 12
-5266.191180269454
 22
35.30607851431085
 32
0
 13
-5266.191180269454
 23
35.30607851431085
 33
0
  0
MTEXT
  5
7C
100
AcDbEntity
  8
0
  6
CONTINUOUS
 62
    0
370
   -2
100
AcDbMText
 10
-5268.157278530559
 20
27.92204329575438
 30
0
 40
2.5
 41
3.055555555555556
 71
    5
 72
    1
  1
20
  7
STANDARD
210
0
220
0
230
1
 50
86.09539629128145
 73
    2
 44
1
  0
ENDBLK
  5
52
330
50
100
AcDbEntity
  8
0
100
AcDbBlockEnd
  0
BLOCK
  5
54
330
53
100
AcDbEntity
  8
0
100
AcDbBlockBegin
  2
*D6
 70
    1
 10
0
 20
0
  3
*D6
  1

  0
LINE
  5
7D
100
AcDbEntity
  8
0
  6
ByBlock
 62
    0
370
   -2
100
AcDbLine
 10
-6567.537130693507
 20
-29.9439616037038
 11
-6584.570980378129
 21
-29.9439616037038
  0
LINE
  5
7E
100
AcDbEntity
  8
0
  6
ByBlock
 62
    0
370
   -2
100
AcDbLine
 10
-6567.537130693507
 20
-71.12966286977849
 11
-6584.570980378129
 21
-71.12966286977849
  0
LINE
  5
7F
100
AcDbEntity
  8
0
  6
ByBlock
 62
    0
370
   -2
100
AcDbLine
 10
-6583.320980378129
 20
-29.9439616037038
 11
-6583.320980378129
 21
-71.12966286977849
  0
SOLID
  5
80
100
AcDbEntity
  8
0
  6
ByBlock
 62
    0
370
   -2
100
AcDbTrace
 10
-6583.320980378129
 20
-29.9439616037038
 30
0
 11
-6582.904695720356
 21
-32.4439616037038
 31
0
 12
-6583.737265035902
 22
-32.4439616037038
 32
0
 13
-6583.737265035902
 23
-32.4439616037038
 33
0
  0
SOLID
  5
81
100
AcDbEntity
  8
0
  6
ByBlock
 62
    0
370
   -2
100
AcDbTrace
 10
-6583.320980378129
 20
-71.12966286977849
 30
0
 11
-6583.737265035902
 21
-68.62966286977849
 31
0
 12
-6582.904695720356
 22
-68.62966286977849
 32
0
 13
-6582.904695720356
 23
-68.62966286977849
 33
0
  0
MTEXT
  5
82
100
AcDbEntity
  8
0
  6
CONTINUOUS
 62
    0
370
   -2
100
AcDbMText
 10
-6585.195980378129
 20
-50.53681223674114
 30
0
 40
2.5
 41
7.083333333333334
 71
    5
 72
    1
  1
41,19
  7
STANDARD
210
0
220
0
230
1
 50
90
 73
    2
 44
1
  0
ENDBLK
  5
55
330
53
100
AcDbEntity
  8
0
100
AcDbBlockEnd
  0
BLOCK
  5
57
330
56
100
AcDbEntity
  8
0
100
AcDbBlockBegin
  2
*D5
 70
    1
 10
0
 20
0
  3
*D5
  1

  0
LINE
  5
83
100
AcDbEntity
  8
0
  6
ByBlock
 62
    0
370
   -2
100
AcDbLine
 10
-5232.708934551785
 20
35.52660165875416
 11
-5264.277986814329
 21
37.68131210395552
  0
LINE
  5
84
100
AcDbEntity
  8
0
  6
ByBlock
 62
    0
370
   -2
100
AcDbLine
 10
-5224.89697780247
 20
149.9809922433822
 11
-5256.466030065014
 21
152.1357026885835
  0
LINE
  5
85
100
AcDbEntity
  8
0
  6
ByBlock
 62
    0
370
   -2
100
AcDbLine
 10
-5263.030888301085
 20
37.59619278613965
 11
-5255.21893155177
 21
152.0505833707676
  0
SOLID
  5
86
100
AcDbEntity
  8
0
  6
ByBlock
 62
    0
370
   -2
100
AcDbTrace
 10
-5263.030888301085
 20
37.59619278613965
 30
0
 11
-5263.275968047688
 21
40.11873690549645
 31
0
 12
-5262.445331283217
 22
40.06204271975751
 32
0
 13
-5262.445331283217
 23
40.06204271975751
 33
0
  0
SOLID
  5
87
100
AcDbEntity
  8
0
  6
ByBlock
 62
    0
370
   -2
100
AcDbTrace
 10
-5255.21893155177
 20
152.0505833707676
 30
0
 11
-5254.973851805166
 21
149.5280392514108
 31
0
 12
-5255.804488569637
 22
149.5847334371498
 32
0
 13
-5255.804488569637
 23
149.5847334371498
 33
0
  0
MTEXT
  5
88
100
AcDbEntity
  8
0
  6
CONTINUOUS
 62
    0
370
   -2
100
AcDbMText
 10
-5260.995557696293
 20
94.95106705517745
 30
0
 40
2.5
 41
9.027777777777779
 71
    5
 72
    1
  1
114,72
  7
STANDARD
210
0
220
0
230
1
 50
86.09539629127835
 73
    2
 44
1
  0
ENDBLK
  5
58
330
56
100
AcDbEntity
  8
0
100
AcDbBlockEnd
  0
BLOCK
  5
5A
330
59
100
AcDbEntity
  8
0
100
AcDbBlockBegin
  2
*D7
 70
    1
 10
0
 20
0
  3
*D7
  1

  0
LINE
  5
89
100
AcDbEntity
  8
0
  6
ByBlock
 62
    0
370
   -2
100
AcDbLine
 10
-6360.119376229879
 20
15.0797538446091
 11
-6365.161717806714
 21
39.46702714518037
  0
LINE
  5
8A
100
AcDbEntity
  8
0
  6
ByBlock
 62
    0
370
   -2
100
AcDbLine
 10
-6565.443636711401
 20
-27.37333398521404
 11
-6570.485978288237
 21
-2.986060684642782
  0
LINE
  5
8B
100
AcDbEntity
  8
0
  6
ByBlock
 62
    0
370
   -2
100
AcDbLine
 10
-6364.908619702956
 20
38.2429187554233
 11
-6570.232880184478
 21
-4.210169074399843
  0
SOLID
  5
8C
100
AcDbEntity
  8
0
  6
ByBlock
 62
    0
370
   -2
100
AcDbTrace
 10
-6364.908619702956
 20
38.2429187554233
 30
0
 11
-6367.272547796465
 21
37.32906051421992
 31
0
 12
-6367.441125168475
 22
38.14438458159093
 32
0
 13
-6367.441125168475
 23
38.14438458159093
 33
0
  0
SOLID
  5
8D
100
AcDbEntity
  8
0
  6
ByBlock
 62
    0
370
   -2
100
AcDbTrace
 10
-6570.232880184478
 20
-4.210169074399843
 30
0
 11
-6567.868952090968
 21
-3.29631083319646
 31
0
 12
-6567.700374718958
 22
-4.111634900567471
 32
0
 13
-6567.700374718958
 23
-4.111634900567471
 33
0
  0
MTEXT
  5
8E
100
AcDbEntity
  8
0
  6
CONTINUOUS
 62
    0
370
   -2
100
AcDbMText
 10
-6467.950397099356
 20
18.85253742514733
 30
0
 40
2.5
 41
9.861111111111267
 71
    5
 72
    1
  1
209,67
  7
STANDARD
210
0
220
0
230
1
 50
11.68193152095441
 73
    2
 44
1
  0
ENDBLK
  5
5B
330
59
100
AcDbEntity
  8
0
100
AcDbBlockEnd
  0
BLOCK
  5
5D
330
5C
100
AcDbEntity
  8
0
100
AcDbBlockBegin
  2
*D9
 70
    1
 10
0
 20
0
  3
*D9
  1

  0
LINE
  5
8F
100
AcDbEntity
  8
0
  6
ByBlock
 62
    0
370
   -2
100
AcDbLine
 10
-6359.165348694993
 20
-71.12966286977849
 11
-6321.628060676621
 21
-71.12966286977849
  0
LINE
  5
90
100
AcDbEntity
  8
0
  6
ByBlock
 62
    0
370
   -2
100
AcDbLine
 10
-6359.165348694993
 20
13.48832145560528
 11
-6321.628060676621
 21
13.48832145560528
  0
LINE
  5
91
100
AcDbEntity
  8
0
  6
ByBlock
 62
    0
370
   -2
100
AcDbLine
 10
-6322.878060676621
 20
-71.12966286977849
 11
-6322.878060676621
 21
13.48832145560528
  0
SOLID
  5
92
100
AcDbEntity
  8
0
  6
ByBlock
 62
    0
370
   -2
100
AcDbTrace
 10
-6322.878060676621
 20
-71.12966286977849
 30
0
 11
-6323.294345334394
 21
-68.62966286977849
 31
0
 12
-6322.461776018848
 22
-68.62966286977849
 32
0
 13
-6322.461776018848
 23
-68.62966286977849
 33
0
  0
SOLID
  5
93
100
AcDbEntity
  8
0
  6
ByBlock
 62
    0
370
   -2
100
AcDbTrace
 10
-6322.878060676621
 20
13.48832145560528
 30
0
 11
-6322.461776018848
 21
10.98832145560528
 31
0
 12
-6323.294345334394
 22
10.98832145560528
 32
0
 13
-6323.294345334394
 23
10.98832145560528
 33
0
  0
MTEXT
  5
94
100
AcDbEntity
  8
0
  6
CONTINUOUS
 62
    0
370
   -2
100
AcDbMText
 10
-6324.753060676621
 20
-28.82067070708661
 30
0
 40
2.5
 41
8.194444444444599
 71
    5
 72
    1
  1
84,62
  7
STANDARD
210
0
220
0
230
1
 50
90
 73
    2
 44
1
  0
ENDBLK
  5
5E
330
5C
100
AcDbEntity
  8
0
100
AcDbBlockEnd
  0
BLOCK
  5
60
330
5F
100
AcDbEntity
  8
0
100
AcDbBlockBegin
  2
*D10
 70
    1
 10
0
 20
0
  3
*D10
  1

  0
LINE
  5
95
100
AcDbEntity
  8
0
  6
ByBlock
 62
    0
370
   -2
100
AcDbLine
 10
-6359.165348694993
 20
13.4883214538854
 11
-6334.629235469828
 21
13.48832145388488
  0
LINE
  5
96
100
AcDbEntity
  8
0
  6
ByBlock
 62
    0
370
   -2
100
AcDbLine
 10
-6359.165348694994
 20
-29.94403337282348
 11
-6334.629235469829
 21
-29.94403337282401
  0
LINE
  5
97
100
AcDbEntity
  8
0
  6
ByBlock
 62
    0
370
   -2
100
AcDbLine
 10
-6335.879235469828
 20
13.4883214538849
 11
-6335.879235469829
 21
-29.94403337282398
  0
SOLID
  5
98
100
AcDbEntity
  8
0
  6
ByBlock
 62
    0
370
   -2
100
AcDbTrace
 10
-6335.879235469828
 20
13.4883214538849
 30
0
 11
-6335.462950812055
 21
10.9883214538849
 31
0
 12
-6336.295520127601
 22
10.98832145388491
 32
0
 13
-6336.295520127601
 23
10.98832145388491
 33
0
  0
SOLID
  5
99
100
AcDbEntity
  8
0
  6
ByBlock
 62
    0
370
   -2
100
AcDbTrace
 10
-6335.879235469829
 20
-29.94403337282398
 30
0
 11
-6336.295520127602
 21
-27.44403337282397
 31
0
 12
-6335.462950812056
 22
-27.44403337282399
 32
0
 13
-6335.462950812056
 23
-27.44403337282399
 33
0
  0
MTEXT
  5
9A
100
AcDbEntity
  8
0
  6
CONTINUOUS
 62
    0
370
   -2
100
AcDbMText
 10
-6337.754235469829
 20
-8.227855959469499
 30
0
 40
2.5
 41
8.472222222222534
 71
    5
 72
    1
  1
43,43
  7
STANDARD
210
0
220
0
230
1
 50
89.99999999999878
 73
    2
 44
1
  0
ENDBLK
  5
61
330
5F
100
AcDbEntity
  8
0
100
AcDbBlockEnd
  0
BLOCK
  5
63
330
62
100
AcDbEntity
  8
0
100
AcDbBlockBegin
  2
*D2
 70
    1
 10
0
 20
0
  3
*D2
  1

  0
LINE
  5
9B
100
AcDbEntity
  8
0
  6
ByBlock
 62
    0
370
   -2
100
AcDbLine
 10
2124.663386502953
 20
-261.560848959209
 11
2124.663386502953
 21
-470.560848959209
  0
SOLID
  5
9C
100
AcDbEntity
  8
0
  6
ByBlock
 62
    0
370
   -2
100
AcDbTrace
 10
2124.663386502953
 20
-261.560848959209
 30
0
 11
2125.079671160726
 21
-264.060848959209
 31
0
 12
2124.24710184518
 22
-264.060848959209
 32
0
 13
2124.24710184518
 23
-264.060848959209
 33
0
  0
SOLID
  5
9D
100
AcDbEntity
  8
0
  6
ByBlock
 62
    0
370
   -2
100
AcDbTrace
 10
2124.663386502953
 20
-470.560848959209
 30
0
 11
2124.24710184518
 21
-468.060848959209
 31
0
 12
2125.079671160726
 22
-468.060848959209
 32
0
 13
2125.079671160726
 23
-468.060848959209
 33
0
  0
MTEXT
  5
9E
100
AcDbEntity
  8
0
  6
CONTINUOUS
 62
    0
370
   -2
100
AcDbMText
 10
2122.788386502953
 20
-366.060848959209
 30
0
 40
2.5
 41
5
 71
    5
 72
    1
  1
209
  7
STANDARD
210
0
220
0
230
1
 50
90
 73
    2
 44
1
  0
LINE
  5
9F
100
AcDbEntity
  8
0
  6
ByBlock
 62
    0
370
   -2
100
AcDbLine
 10
2109.922232047923
 20
-261.560848959209
 11
2125.913386502953
 21
-261.560848959209
  0
LINE
  5
A0
100
AcDbEntity
  8
0
  6
ByBlock
 62
    0
370
   -2
100
AcDbLine
 10
2109.922232047923
 20
-470.560848959209
 11
2125.913386502953
 21
-470.560848959209
  0
ENDBLK
  5
64
330
62
100
AcDbEntity
  8
0
100
AcDbBlockEnd
  0
BLOCK
  5
66
330
65
100
AcDbEntity
  8
0
100
AcDbBlockBegin
  2
*D12
 70
    1
 10
0
 20
0
  3
*D12
  1

  0
LINE
  5
A1
100
AcDbEntity
  8
0
  6
ByBlock
 62
    0
370
   -2
100
AcDbLine
 10
-6392.44636236229
 20
36.09138596654626
 11
-6392.44636236229
 21
14.46769964973057
  0
SOLID
  5
A2
100
AcDbEntity
  8
0
  6
ByBlock
 62
    0
370
   -2
100
AcDbTrace
 10
-6392.44636236229
 20
36.09138596654626
 30
0
 11
-6392.030077704517
 21
33.59138596654626
 31
0
 12
-6392.862647020062
 22
33.59138596654626
 32
0
 13
-6392.862647020062
 23
33.59138596654626
 33
0
  0
SOLID
  5
A3
100
AcDbEntity
  8
0
  6
ByBlock
 62
    0
370
   -2
100
AcDbTrace
 10
-6392.44636236229
 20
14.46769964973057
 30
0
 11
-6392.862647020062
 21
16.96769964973057
 31
0
 12
-6392.030077704517
 22
16.96769964973057
 32
0
 13
-6392.030077704517
 23
16.96769964973057
 33
0
  0
MTEXT
  5
A4
100
AcDbEntity
  8
0
  6
CONTINUOUS
 62
    0
370
   -2
100
AcDbMText
 10
-6394.32136236229
 20
25.27954280813842
 30
0
 40
2.5
 41
7.361111111111266
 71
    5
 72
    1
  1
21,62
  7
STANDARD
210
0
220
0
230
1
 50
90
 73
    2
 44
1
  0
LINE
  5
A5
100
AcDbEntity
  8
0
  6
ByBlock
 62
    0
370
   -2
100
AcDbLine
 10
-6358.408906117998
 20
36.09138596654626
 11
-6393.69636236229
 21
36.09138596654626
  0
LINE
  5
A6
100
AcDbEntity
  8
0
  6
ByBlock
 62
    0
370
   -2
100
AcDbLine
 10
-6360.617827177999
 20
14.46769964973057
 11
-6393.69636236229
 21
14.46769964973057
  0
ENDBLK
  5
67
330
65
100
AcDbEntity
  8
0
100
AcDbBlockEnd
  0
BLOCK
  5
69
330
68
100
AcDbEntity
  8
0
100
AcDbBlockBegin
  2
*D1
 70
    1
 10
0
 20
0
  3
*D1
  1

  0
LINE
  5
A7
100
AcDbEntity
  8
0
  6
ByBlock
 62
    0
370
   -2
100
AcDbLine
 10
1651.297232047923
 20
-246.0329967970847
 11
2109.297232047923
 21
-246.0329967970847
  0
SOLID
  5
A8
100
AcDbEntity
  8
0
  6
ByBlock
 62
    0
370
   -2
100
AcDbTrace
 10
1651.297232047923
 20
-246.0329967970847
 30
0
 11
1653.797232047923
 21
-245.6167121393119
 31
0
 12
1653.797232047923
 22
-246.4492814548576
 32
0
 13
1653.797232047923
 23
-246.4492814548576
 33
0
  0
SOLID
  5
A9
100
AcDbEntity
  8
0
  6
ByBlock
 62
    0
370
   -2
100
AcDbTrace
 10
2109.297232047923
 20
-246.0329967970847
 30
0
 11
2106.797232047923
 21
-246.4492814548576
 31
0
 12
2106.797232047923
 22
-245.6167121393119
 32
0
 13
2106.797232047923
 23
-245.6167121393119
 33
0
  0
MTEXT
  5
AA
100
AcDbEntity
  8
0
  6
CONTINUOUS
 62
    0
370
   -2
100
AcDbMText
 10
1880.297232047923
 20
-244.1579967970847
 30
0
 40
2.5
 41
5.277777777777933
 71
    5
 72
    1
  1
458
  7
STANDARD
210
0
220
0
230
1
 50
0
 73
    2
 44
1
  0
LINE
  5
AB
100
AcDbEntity
  8
0
  6
ByBlock
 62
    0
370
   -2
100
AcDbLine
 10
1651.297232047923
 20
-260.935848959209
 11
1651.297232047923
 21
-244.7829967970847
  0
LINE
  5
AC
100
AcDbEntity
  8
0
  6
ByBlock
 62
    0
370
   -2
100
AcDbLine
 10
2109.297232047923
 20
-260.935848959209
 11
2109.297232047923
 21
-244.7829967970847
  0
ENDBLK
  5
6A
330
68
100
AcDbEntity
  8
0
100
AcDbBlockEnd
  0
BLOCK
  5
6C
330
6B
100
AcDbEntity
  8
0
100
AcDbBlockBegin
  2
*D8
 70
    1
 10
0
 20
0
  3
*D8
  1

  0
LINE
  5
AD
100
AcDbEntity
  8
0
  6
ByBlock
 62
    0
370
   -2
100
AcDbLine
 10
-6356.16267805078
 20
35.98073085338729
 11
-6338.518675534081
 21
34.77645914444415
  0
LINE
  5
AE
100
AcDbEntity
  8
0
  6
ByBlock
 62
    0
370
   -2
100
AcDbLine
 10
-6357.576398783195
 20
15.26805282948386
 11
-6339.932396266496
 21
14.06378112054073
  0
LINE
  5
AF
100
AcDbEntity
  8
0
  6
ByBlock
 62
    0
370
   -2
100
AcDbLine
 10
-6339.765774047325
 20
34.86157846226011
 11
-6341.17949477974
 21
14.14890043835668
  0
SOLID
  5
B0
100
AcDbEntity
  8
0
  6
ByBlock
 62
    0
370
   -2
100
AcDbTrace
 10
-6339.765774047325
 20
34.86157846226011
 30
0
 11
-6339.520694300722
 21
32.33903434290329
 31
0
 12
-6340.351331065192
 22
32.39572852864228
 32
0
 13
-6340.351331065192
 23
32.39572852864228
 33
0
  0
SOLID
  5
B1
100
AcDbEntity
  8
0
  6
ByBlock
 62
    0
370
   -2
100
AcDbTrace
 10
-6341.17949477974
 20
14.14890043835668
 30
0
 11
-6341.424574526343
 21
16.6714445577135
 31
0
 12
-6340.593937761872
 22
16.6147503719745
 32
0
 13
-6340.593937761872
 23
16.6147503719745
 33
0
  0
MTEXT
  5
B2
100
AcDbEntity
  8
0
  6
CONTINUOUS
 62
    0
370
   -2
100
AcDbMText
 10
-6342.343282183398
 20
24.63291842703233
 30
0
 40
2.5
 41
7.916666666666822
 71
    5
 72
    1
  1
20,76
  7
STANDARD
210
0
220
0
230
1
 50
86.09539629127444
 73
    2
 44
1
  0
ENDBLK
  5
6D
330
6B
100
AcDbEntity
  8
0
100
AcDbBlockEnd
  0
BLOCK
  5
6F
330
6E
100
AcDbEntity
  8
0
100
AcDbBlockBegin
  2
*D11
 70
    1
 10
0
 20
0
  3
*D11
  1

  0
LINE
  5
B3
100
AcDbEntity
  8
0
  6
ByBlock
 62
    0
370
   -2
100
AcDbLine
 10
-6359.165348694993
 20
-71.12966286977847
 11
-6334.91643365834
 21
-71.12966286977793
  0
LINE
  5
B4
100
AcDbEntity
  8
0
  6
ByBlock
 62
    0
370
   -2
100
AcDbLine
 10
-6359.165348694994
 20
-29.94403337282345
 11
-6334.916433658341
 21
-29.94403337282291
  0
LINE
  5
B5
100
AcDbEntity
  8
0
  6
ByBlock
 62
    0
370
   -2
100
AcDbLine
 10
-6336.16643365834
 20
-71.12966286977796
 11
-6336.166433658341
 21
-29.94403337282294
  0
SOLID
  5
B6
100
AcDbEntity
  8
0
  6
ByBlock
 62
    0
370
   -2
100
AcDbTrace
 10
-6336.16643365834
 20
-71.12966286977796
 30
0
 11
-6336.582718316113
 21
-68.62966286977797
 31
0
 12
-6335.750149000567
 22
-68.62966286977795
 32
0
 13
-6335.750149000567
 23
-68.62966286977795
 33
0
  0
SOLID
  5
B7
100
AcDbEntity
  8
0
  6
ByBlock
 62
    0
370
   -2
100
AcDbTrace
 10
-6336.166433658341
 20
-29.94403337282294
 30
0
 11
-6335.750149000568
 21
-32.44403337282294
 31
0
 12
-6336.582718316114
 22
-32.44403337282295
 32
0
 13
-6336.582718316114
 23
-32.44403337282295
 33
0
  0
MTEXT
  5
B8
100
AcDbEntity
  8
0
  6
CONTINUOUS
 62
    0
370
   -2
100
AcDbMText
 10
-6334.29143365834
 20
-50.53684812130041
 30
0
 40
2.5
 41
7.083333333333334
 71
    5
 72
    1
  1
41,19
  7
STANDARD
210
0
220
0
230
1
 50
270.0000000000013
 73
    2
 44
1
  0
ENDBLK
  5
70
330
6E
100
AcDbEntity
  8
0
100
AcDbBlockEnd
  0
ENDSEC
  0
SECTION
  2
ENTITIES
  0
LINE
  5
B9
100
AcDbEntity
  8
0
  6
ByLayer
 62
  256
370
   -1
100
AcDbLine
 10
662.7242502647468
 20
-470.1296628697785
 11
1244.724250264747
 21
-470.1296628697785
  0
LINE
  5
BA
100
AcDbEntity
  8
0
  6
ByLayer
 62
  256
370
   -1
100
AcDbLine
 10
662.7242502647468
 20
-470.1296628697785
 11
662.7242502647468
 21
-429.1296628697785
  0
LINE
  5
BB
100
AcDbEntity
  8
0
  6
ByLayer
 62
  256
370
   -1
100
AcDbLine
 10
1244.724250264747
 20
-470.1296628697785
 11
1244.724250264747
 21
-250.1296628697785
  0
LINE
  5
BC
100
AcDbEntity
  8
0
  6
ByLayer
 62
  256
370
   -1
100
AcDbLine
 10
1244.724250264747
 20
-250.1296628697785
 11
876.7242502647468
 21
-250.1296628697785
  0
LINE
  5
BD
100
AcDbEntity
  8
0
  6
ByLayer
 62
  256
370
   -1
100
AcDbLine
 10
867.3951730321278
 20
-386.8116599212842
 11
876.7242502647468
 21
-250.1296628697785
  0
LINE
  5
BE
100
AcDbEntity
  8
0
  6
ByLayer
 62
  256
370
   -1
100
AcDbLine
 10
867.3951730321279
 20
-386.8116599212837
 11
662.7242502647468
 21
-429.1296628697785
  0
LINE
  5
BF
100
AcDbEntity
  8
0
  6
ByLayer
 62
  256
370
   -1
100
AcDbLine
 10
0
 20
182.7242502647468
 11
458
 21
182.7242502647468
  0
LINE
  5
C0
100
AcDbEntity
  8
0
  6
ByLayer
 62
  256
370
   -1
100
AcDbLine
 10
458
 20
182.7242502647468
 11
458
 21
764.7242502647468
  0
LINE
  5
C1
100
AcDbEntity
  8
0
  6
ByLayer
 62
  256
370
   -1
100
AcDbLine
 10
458
 20
764.7242502647468
 11
0
 21
764.7242502647468
  0
LINE
  5
C2
100
AcDbEntity
  8
0
  6
ByLayer
 62
  256
370
   -1
100
AcDbLine
 10
0
 20
764.7242502647468
 11
0
 21
182.7242502647468
  0
LINE
  5
C3
100
AcDbEntity
  8
0
  6
ByLayer
 62
  256
370
   -1
100
AcDbLine
 10
458
 20
396.7242502647467
 11
0
 21
396.7242502647467
  0
LINE
  5
C4
100
AcDbEntity
  8
0
  6
ByLayer
 62
  256
370
   -1
100
AcDbLine
 10
458
 20
387.3951730321278
 11
0
 21
387.3951730321278
  0
LWPOLYLINE
  5
C5
100
AcDbEntity
  8
0
  6
ByLayer
 62
  256
370
   -1
100
AcDbPolyline
 90
    4
 70
    1
 43
0
 10
1651.297232047923
 20
-470.560848959209
 10
2109.297232047923
 20
-470.560848959209
 10
2109.297232047923
 20
-261.560848959209
 10
1651.297232047923
 20
-261.560848959209
  0
CIRCLE
  5
C6
100
AcDbEntity
  8
0
  6
ByLayer
 62
  256
370
   -1
100
AcDbCircle
 10
1722.797232047923
 20
-305.6082052755843
 40
12.5
  0
CIRCLE
  5
C7
100
AcDbEntity
  8
0
  6
ByLayer
 62
  256
370
   -1
100
AcDbCircle
 10
1722.797232047923
 20
-305.6082052755843
 40
11.5
  0
CIRCLE
  5
C8
100
AcDbEntity
  8
0
  6
ByLayer
 62
  256
370
   -1
100
AcDbCircle
 10
1752.797232047923
 20
-305.6082052755843
 40
12.5
  0
CIRCLE
  5
C9
100
AcDbEntity
  8
0
  6
ByLayer
 62
  256
370
   -1
100
AcDbCircle
 10
1752.797232047923
 20
-305.6082052755843
 40
11.5
  0
CIRCLE
  5
CA
100
AcDbEntity
  8
0
  6
ByLayer
 62
  256
370
   -1
100
AcDbCircle
 10
1737.797232047923
 20
-335.6082052755843
 40
12.5
  0
CIRCLE
  5
CB
100
AcDbEntity
  8
0
  6
ByLayer
 62
  256
370
   -1
100
AcDbCircle
 10
1737.797232047923
 20
-335.6082052755843
 40
11.5
  0
CIRCLE
  5
CC
100
AcDbEntity
  8
0
  6
ByLayer
 62
  256
370
   -1
100
AcDbCircle
 10
1722.797232047923
 20
-365.6082052755843
 40
12.5
  0
CIRCLE
  5
CD
100
AcDbEntity
  8
0
  6
ByLayer
 62
  256
370
   -1
100
AcDbCircle
 10
1722.797232047923
 20
-365.6082052755843
 40
11.5
  0
CIRCLE
  5
CE
100
AcDbEntity
  8
0
  6
ByLayer
 62
  256
370
   -1
100
AcDbCircle
 10
1752.797232047923
 20
-365.6082052755843
 40
12.5
  0
CIRCLE
  5
CF
100
AcDbEntity
  8
0
  6
ByLayer
 62
  256
370
   -1
100
AcDbCircle
 10
1752.797232047923
 20
-365.6082052755843
 40
11.5
  0
CIRCLE
  5
D0
100
AcDbEntity
  8
0
  6
ByLayer
 62
  256
370
   -1
100
AcDbCircle
 10
1737.797232047923
 20
-395.6082052755843
 40
12.5
  0
CIRCLE
  5
D1
100
AcDbEntity
  8
0
  6
ByLayer
 62
  256
370
   -1
100
AcDbCircle
 10
1737.797232047923
 20
-395.6082052755843
 40
11.5
  0
CIRCLE
  5
D2
100
AcDbEntity
  8
0
  6
ByLayer
 62
  256
370
   -1
100
AcDbCircle
 10
1812.797232047923
 20
-305.6082052755843
 40
12.5
  0
CIRCLE
  5
D3
100
AcDbEntity
  8
0
  6
ByLayer
 62
  256
370
   -1
100
AcDbCircle
 10
1812.797232047923
 20
-305.6082052755843
 40
11.5
  0
CIRCLE
  5
D4
100
AcDbEntity
  8
0
  6
ByLayer
 62
  256
370
   -1
100
AcDbCircle
 10
1842.797232047923
 20
-305.6082052755843
 40
12.5
  0
CIRCLE
  5
D5
100
AcDbEntity
  8
0
  6
ByLayer
 62
  256
370
   -1
100
AcDbCircle
 10
1842.797232047923
 20
-305.6082052755843
 40
11.5
  0
CIRCLE
  5
D6
100
AcDbEntity
  8
0
  6
ByLayer
 62
  256
370
   -1
100
AcDbCircle
 10
1872.797232047923
 20
-305.6082052755843
 40
12.5
  0
CIRCLE
  5
D7
100
AcDbEntity
  8
0
  6
ByLayer
 62
  256
370
   -1
100
AcDbCircle
 10
1872.797232047923
 20
-305.6082052755843
 40
11.5
  0
CIRCLE
  5
D8
100
AcDbEntity
  8
0
  6
ByLayer
 62
  256
370
   -1
100
AcDbCircle
 10
1797.797232047923
 20
-335.6082052755843
 40
12.5
  0
CIRCLE
  5
D9
100
AcDbEntity
  8
0
  6
ByLayer
 62
  256
370
   -1
100
AcDbCircle
 10
1797.797232047923
 20
-335.6082052755843
 40
11.5
  0
CIRCLE
  5
DA
100
AcDbEntity
  8
0
  6
ByLayer
 62
  256
370
   -1
100
AcDbCircle
 10
1827.797232047923
 20
-335.6082052755843
 40
12.5
  0
CIRCLE
  5
DB
100
AcDbEntity
  8
0
  6
ByLayer
 62
  256
370
   -1
100
AcDbCircle
 10
1827.797232047923
 20
-335.6082052755843
 40
11.5
  0
CIRCLE
  5
DC
100
AcDbEntity
  8
0
  6
ByLayer
 62
  256
370
   -1
100
AcDbCircle
 10
1857.797232047923
 20
-335.6082052755843
 40
12.5
  0
CIRCLE
  5
DD
100
AcDbEntity
  8
0
  6
ByLayer
 62
  256
370
   -1
100
AcDbCircle
 10
1857.797232047923
 20
-335.6082052755843
 40
11.5
  0
CIRCLE
  5
DE
100
AcDbEntity
  8
0
  6
ByLayer
 62
  256
370
   -1
100
AcDbCircle
 10
1812.797232047923
 20
-365.6082052755843
 40
12.5
  0
CIRCLE
  5
DF
100
AcDbEntity
  8
0
  6
ByLayer
 62
  256
370
   -1
100
AcDbCircle
 10
1812.797232047923
 20
-365.6082052755843
 40
11.5
  0
CIRCLE
  5
E0
100
AcDbEntity
  8
0
  6
ByLayer
 62
  256
370
   -1
100
AcDbCircle
 10
1842.797232047923
 20
-365.6082052755843
 40
12.5
  0
CIRCLE
  5
E1
100
AcDbEntity
  8
0
  6
ByLayer
 62
  256
370
   -1
100
AcDbCircle
 10
1842.797232047923
 20
-365.6082052755843
 40
11.5
  0
CIRCLE
  5
E2
100
AcDbEntity
  8
0
  6
ByLayer
 62
  256
370
   -1
100
AcDbCircle
 10
1872.797232047923
 20
-365.6082052755843
 40
12.5
  0
CIRCLE
  5
E3
100
AcDbEntity
  8
0
  6
ByLayer
 62
  256
370
   -1
100
AcDbCircle
 10
1872.797232047923
 20
-365.6082052755843
 40
11.5
  0
CIRCLE
  5
E4
100
AcDbEntity
  8
0
  6
ByLayer
 62
  256
370
   -1
100
AcDbCircle
 10
1797.797232047923
 20
-395.6082052755843
 40
12.5
  0
CIRCLE
  5
E5
100
AcDbEntity
  8
0
  6
ByLayer
 62
  256
370
   -1
100
AcDbCircle
 10
1797.797232047923
 20
-395.6082052755843
 40
11.5
  0
CIRCLE
  5
E6
100
AcDbEntity
  8
0
  6
ByLayer
 62
  256
370
   -1
100
AcDbCircle
 10
1827.797232047923
 20
-395.6082052755843
 40
12.5
  0
CIRCLE
  5
E7
100
AcDbEntity
  8
0
  6
ByLayer
 62
  256
370
   -1
100
AcDbCircle
 10
1827.797232047923
 20
-395.6082052755843
 40
11.5
  0
CIRCLE
  5
E8
100
AcDbEntity
  8
0
  6
ByLayer
 62
  256
370
   -1
100
AcDbCircle
 10
1857.797232047923
 20
-395.6082052755843
 40
12.5
  0
CIRCLE
  5
E9
100
AcDbEntity
  8
0
  6
ByLayer
 62
  256
370
   -1
100
AcDbCircle
 10
1857.797232047923
 20
-395.6082052755843
 40
11.5
  0
CIRCLE
  5
EA
100
AcDbEntity
  8
0
  6
ByLayer
 62
  256
370
   -1
100
AcDbCircle
 10
1887.797232047923
 20
-395.6082052755843
 40
12.5
  0
CIRCLE
  5
EB
100
AcDbEntity
  8
0
  6
ByLayer
 62
  256
370
   -1
100
AcDbCircle
 10
1887.797232047923
 20
-395.6082052755843
 40
11.5
  0
CIRCLE
  5
EC
100
AcDbEntity
  8
0
  6
ByLayer
 62
  256
370
   -1
100
AcDbCircle
 10
1932.797232047923
 20
-305.6082052755843
 40
12.5
  0
CIRCLE
  5
ED
100
AcDbEntity
  8
0
  6
ByLayer
 62
  256
370
   -1
100
AcDbCircle
 10
1932.797232047923
 20
-305.6082052755843
 40
11.5
  0
CIRCLE
  5
EE
100
AcDbEntity
  8
0
  6
ByLayer
 62
  256
370
   -1
100
AcDbCircle
 10
1962.797232047923
 20
-305.6082052755843
 40
12.5
  0
CIRCLE
  5
EF
100
AcDbEntity
  8
0
  6
ByLayer
 62
  256
370
   -1
100
AcDbCircle
 10
1962.797232047923
 20
-305.6082052755843
 40
11.5
  0
CIRCLE
  5
F0
100
AcDbEntity
  8
0
  6
ByLayer
 62
  256
370
   -1
100
AcDbCircle
 10
1947.797232047923
 20
-335.6082052755843
 40
12.5
  0
CIRCLE
  5
F1
100
AcDbEntity
  8
0
  6
ByLayer
 62
  256
370
   -1
100
AcDbCircle
 10
1947.797232047923
 20
-335.6082052755843
 40
11.5
  0
CIRCLE
  5
F2
100
AcDbEntity
  8
0
  6
ByLayer
 62
  256
370
   -1
100
AcDbCircle
 10
1962.797232047923
 20
-365.6082052755843
 40
12.5
  0
CIRCLE
  5
F3
100
AcDbEntity
  8
0
  6
ByLayer
 62
  256
370
   -1
100
AcDbCircle
 10
1962.797232047923
 20
-365.6082052755843
 40
11.5
  0
CIRCLE
  5
F4
100
AcDbEntity
  8
0
  6
ByLayer
 62
  256
370
   -1
100
AcDbCircle
 10
1947.797232047923
 20
-395.6082052755843
 40
12.5
  0
CIRCLE
  5
F5
100
AcDbEntity
  8
0
  6
ByLayer
 62
  256
370
   -1
100
AcDbCircle
 10
1947.797232047923
 20
-395.6082052755843
 40
11.5
  0
CIRCLE
  5
F6
100
AcDbEntity
  8
0
  6
ByLayer
 62
  256
370
   -1
100
AcDbCircle
 10
1977.797232047923
 20
-335.6082052755843
 40
12.5
  0
CIRCLE
  5
F7
100
AcDbEntity
  8
0
  6
ByLayer
 62
  256
370
   -1
100
AcDbCircle
 10
1977.797232047923
 20
-335.6082052755843
 40
11.5
  0
CIRCLE
  5
F8
100
AcDbEntity
  8
0
  6
ByLayer
 62
  256
370
   -1
100
AcDbCircle
 10
2037.797232047923
 20
-335.6082052755843
 40
12.5
  0
CIRCLE
  5
F9
100
AcDbEntity
  8
0
  6
ByLayer
 62
  256
370
   -1
100
AcDbCircle
 10
2037.797232047923
 20
-335.6082052755843
 40
11.5
  0
CIRCLE
  5
FA
100
AcDbEntity
  8
0
  6
ByLayer
 62
  256
370
   -1
100
AcDbCircle
 10
2037.797232047923
 20
-395.6082052755843
 40
12.5
  0
CIRCLE
  5
FB
100
AcDbEntity
  8
0
  6
ByLayer
 62
  256
370
   -1
100
AcDbCircle
 10
2037.797232047923
 20
-395.6082052755843
 40
11.5
  0
CIRCLE
  5
FC
100
AcDbEntity
  8
0
  6
ByLayer
 62
  256
370
   -1
100
AcDbCircle
 10
2022.797232047923
 20
-365.6082052755843
 40
12.5
  0
CIRCLE
  5
FD
100
AcDbEntity
  8
0
  6
ByLayer
 62
  256
370
   -1
100
AcDbCircle
 10
2022.797232047923
 20
-365.6082052755843
 40
11.5
  0
LWPOLYLINE
  5
FE
100
AcDbEntity
  8
0
  6
ByLayer
 62
  256
370
   -1
100
AcDbPolyline
 90
    4
 70
    1
 43
0
 10
0
 20
182.7242502647468
 10
457.9999999999998
 20
182.7242502647468
 10
457.9999999999998
 20
387.3942502647468
 10
0
 20
387.3942502647468
  0
ELLIPSE
  5
FF
100
AcDbEntity
  8
0
  6
ByLayer
 62
  256
370
   -1
100
AcDbEllipse
 10
71.5
 20
344.2594540098543
 30
0
 11
12.5
 21
0
 31
0
 40
0.9792822966507176
 41
0
 42
6.283185307179586
  0
ELLIPSE
  5
100
100
AcDbEntity
  8
0
  6
ByLayer
 62
  256
370
   -1
100
AcDbEllipse
 10
71.5
 20
344.2594540098543
 30
0
 11
11.5
 21
0
 31
0
 40
0.9792822966507176
 41
0
 42
6.283185307179586
  0
ELLIPSE
  5
101
100
AcDbEntity
  8
0
  6
ByLayer
 62
  256
370
   -1
100
AcDbEllipse
 10
101.5
 20
344.2594540098543
 30
0
 11
12.5
 21
0
 31
0
 40
0.9792822966507176
 41
0
 42
6.283185307179586
  0
ELLIPSE
  5
102
100
AcDbEntity
  8
0
  6
ByLayer
 62
  256
370
   -1
100
AcDbEllipse
 10
101.5
 20
344.2594540098543
 30
0
 11
11.5
 21
0
 31
0
 40
0.9792822966507176
 41
0
 42
6.283185307179586
  0
ELLIPSE
  5
103
100
AcDbEntity
  8
0
  6
ByLayer
 62
  256
370
   -1
100
AcDbEllipse
 10
86.5
 20
314.8809851103327
 30
0
 11
12.5
 21
0
 31
0
 40
0.9792822966507176
 41
0
 42
6.283185307179586
  0
ELLIPSE
  5
104
100
AcDbEntity
  8
0
  6
ByLayer
 62
  256
370
   -1
100
AcDbEllipse
 10
86.5
 20
314.8809851103327
 30
0
 11
11.5
 21
0
 31
0
 40
0.9792822966507176
 41
0
 42
6.283185307179586
  0
ELLIPSE
  5
105
100
AcDbEntity
  8
0
  6
ByLayer
 62
  256
370
   -1
100
AcDbEllipse
 10
71.5
 20
285.5025162108112
 30
0
 11
12.5
 21
0
 31
0
 40
0.9792822966507176
 41
0
 42
6.283185307179586
  0
ELLIPSE
  5
106
100
AcDbEntity
  8
0
  6
ByLayer
 62
  256
370
   -1
100
AcDbEllipse
 10
71.5
 20
285.5025162108112
 30
0
 11
11.5
 21
0
 31
0
 40
0.9792822966507176
 41
0
 42
6.283185307179586
  0
ELLIPSE
  5
107
100
AcDbEntity
  8
0
  6
ByLayer
 62
  256
370
   -1
100
AcDbEllipse
 10
101.5
 20
285.5025162108112
 30
0
 11
12.5
 21
0
 31
0
 40
0.9792822966507176
 41
0
 42
6.283185307179586
  0
ELLIPSE
  5
108
100
AcDbEntity
  8
0
  6
ByLayer
 62
  256
370
   -1
100
AcDbEllipse
 10
101.5
 20
285.5025162108112
 30
0
 11
11.5
 21
0
 31
0
 40
0.9792822966507176
 41
0
 42
6.283185307179586
  0
ELLIPSE
  5
109
100
AcDbEntity
  8
0
  6
ByLayer
 62
  256
370
   -1
100
AcDbEllipse
 10
86.5
 20
256.1240473112897
 30
0
 11
12.5
 21
0
 31
0
 40
0.9792822966507176
 41
0
 42
6.283185307179586
  0
ELLIPSE
  5
10A
100
AcDbEntity
  8
0
  6
ByLayer
 62
  256
370
   -1
100
AcDbEllipse
 10
86.5
 20
256.1240473112897
 30
0
 11
11.5
 21
0
 31
0
 40
0.9792822966507176
 41
0
 42
6.283185307179586
  0
ELLIPSE
  5
10B
100
AcDbEntity
  8
0
  6
ByLayer
 62
  256
370
   -1
100
AcDbEllipse
 10
161.5
 20
344.2594540098543
 30
0
 11
12.5
 21
0
 31
0
 40
0.9792822966507176
 41
0
 42
6.283185307179586
  0
ELLIPSE
  5
10C
100
AcDbEntity
  8
0
  6
ByLayer
 62
  256
370
   -1
100
AcDbEllipse
 10
161.5
 20
344.2594540098543
 30
0
 11
11.5
 21
0
 31
0
 40
0.9792822966507176
 41
0
 42
6.283185307179586
  0
ELLIPSE
  5
10D
100
AcDbEntity
  8
0
  6
ByLayer
 62
  256
370
   -1
100
AcDbEllipse
 10
191.5
 20
344.2594540098543
 30
0
 11
12.5
 21
0
 31
0
 40
0.9792822966507176
 41
0
 42
6.283185307179586
  0
ELLIPSE
  5
10E
100
AcDbEntity
  8
0
  6
ByLayer
 62
  256
370
   -1
100
AcDbEllipse
 10
191.5
 20
344.2594540098543
 30
0
 11
11.5
 21
0
 31
0
 40
0.9792822966507176
 41
0
 42
6.283185307179586
  0
ELLIPSE
  5
10F
100
AcDbEntity
  8
0
  6
ByLayer
 62
  256
370
   -1
100
AcDbEllipse
 10
221.5
 20
344.2594540098543
 30
0
 11
12.5
 21
0
 31
0
 40
0.9792822966507176
 41
0
 42
6.283185307179586
  0
ELLIPSE
  5
110
100
AcDbEntity
  8
0
  6
ByLayer
 62
  256
370
   -1
100
AcDbEllipse
 10
221.5
 20
344.2594540098543
 30
0
 11
11.5
 21
0
 31
0
 40
0.9792822966507176
 41
0
 42
6.283185307179586
  0
ELLIPSE
  5
111
100
AcDbEntity
  8
0
  6
ByLayer
 62
  256
370
   -1
100
AcDbEllipse
 10
146.5
 20
314.8809851103327
 30
0
 11
12.5
 21
0
 31
0
 40
0.9792822966507176
 41
0
 42
6.283185307179586
  0
ELLIPSE
  5
112
100
AcDbEntity
  8
0
  6
ByLayer
 62
  256
370
   -1
100
AcDbEllipse
 10
146.5
 20
314.8809851103327
 30
0
 11
11.5
 21
0
 31
0
 40
0.9792822966507176
 41
0
 42
6.283185307179586
  0
ELLIPSE
  5
113
100
AcDbEntity
  8
0
  6
ByLayer
 62
  256
370
   -1
100
AcDbEllipse
 10
176.5
 20
314.8809851103327
 30
0
 11
12.5
 21
0
 31
0
 40
0.9792822966507176
 41
0
 42
6.283185307179586
  0
ELLIPSE
  5
114
100
AcDbEntity
  8
0
  6
ByLayer
 62
  256
370
   -1
100
AcDbEllipse
 10
176.5
 20
314.8809851103327
 30
0
 11
11.5
 21
0
 31
0
 40
0.9792822966507176
 41
0
 42
6.283185307179586
  0
ELLIPSE
  5
115
100
AcDbEntity
  8
0
  6
ByLayer
 62
  256
370
   -1
100
AcDbEllipse
 10
206.5
 20
314.8809851103327
 30
0
 11
12.5
 21
0
 31
0
 40
0.9792822966507176
 41
0
 42
6.283185307179586
  0
ELLIPSE
  5
116
100
AcDbEntity
  8
0
  6
ByLayer
 62
  256
370
   -1
100
AcDbEllipse
 10
206.5
 20
314.8809851103327
 30
0
 11
11.5
 21
0
 31
0
 40
0.9792822966507176
 41
0
 42
6.283185307179586
  0
ELLIPSE
  5
117
100
AcDbEntity
  8
0
  6
ByLayer
 62
  256
370
   -1
100
AcDbEllipse
 10
161.5
 20
285.5025162108112
 30
0
 11
12.5
 21
0
 31
0
 40
0.9792822966507176
 41
0
 42
6.283185307179586
  0
ELLIPSE
  5
118
100
AcDbEntity
  8
0
  6
ByLayer
 62
  256
370
   -1
100
AcDbEllipse
 10
161.5
 20
285.5025162108112
 30
0
 11
11.5
 21
0
 31
0
 40
0.9792822966507176
 41
0
 42
6.283185307179586
  0
ELLIPSE
  5
119
100
AcDbEntity
  8
0
  6
ByLayer
 62
  256
370
   -1
100
AcDbEllipse
 10
191.5
 20
285.5025162108112
 30
0
 11
12.5
 21
0
 31
0
 40
0.9792822966507176
 41
0
 42
6.283185307179586
  0
ELLIPSE
  5
11A
100
AcDbEntity
  8
0
  6
ByLayer
 62
  256
370
   -1
100
AcDbEllipse
 10
191.5
 20
285.5025162108112
 30
0
 11
11.5
 21
0
 31
0
 40
0.9792822966507176
 41
0
 42
6.283185307179586
  0
ELLIPSE
  5
11B
100
AcDbEntity
  8
0
  6
ByLayer
 62
  256
370
   -1
100
AcDbEllipse
 10
221.5
 20
285.5025162108112
 30
0
 11
12.5
 21
0
 31
0
 40
0.9792822966507176
 41
0
 42
6.283185307179586
  0
ELLIPSE
  5
11C
100
AcDbEntity
  8
0
  6
ByLayer
 62
  256
370
   -1
100
AcDbEllipse
 10
221.5
 20
285.5025162108112
 30
0
 11
11.5
 21
0
 31
0
 40
0.9792822966507176
 41
0
 42
6.283185307179586
  0
ELLIPSE
  5
11D
100
AcDbEntity
  8
0
  6
ByLayer
 62
  256
370
   -1
100
AcDbEllipse
 10
146.5
 20
256.1240473112897
 30
0
 11
12.5
 21
0
 31
0
 40
0.9792822966507176
 41
0
 42
6.283185307179586
  0
ELLIPSE
  5
11E
100
AcDbEntity
  8
0
  6
ByLayer
 62
  256
370
   -1
100
AcDbEllipse
 10
146.5
 20
256.1240473112897
 30
0
 11
11.5
 21
0
 31
0
 40
0.9792822966507176
 41
0
 42
6.283185307179586
  0
ELLIPSE
  5
11F
100
AcDbEntity
  8
0
  6
ByLayer
 62
  256
370
   -1
100
AcDbEllipse
 10
176.5
 20
256.1240473112897
 30
0
 11
12.5
 21
0
 31
0
 40
0.9792822966507176
 41
0
 42
6.283185307179586
  0
ELLIPSE
  5
120
100
AcDbEntity
  8
0
  6
ByLayer
 62
  256
370
   -1
100
AcDbEllipse
 10
176.5
 20
256.1240473112897
 30
0
 11
11.5
 21
0
 31
0
 40
0.9792822966507176
 41
0
 42
6.283185307179586
  0
ELLIPSE
  5
121
100
AcDbEntity
  8
0
  6
ByLayer
 62
  256
370
   -1
100
AcDbEllipse
 10
206.5
 20
256.1240473112897
 30
0
 11
12.5
 21
0
 31
0
 40
0.9792822966507176
 41
0
 42
6.283185307179586
  0
ELLIPSE
  5
122
100
AcDbEntity
  8
0
  6
ByLayer
 62
  256
370
   -1
100
AcDbEllipse
 10
206.5
 20
256.1240473112897
 30
0
 11
11.5
 21
0
 31
0
 40
0.9792822966507176
 41
0
 42
6.283185307179586
  0
ELLIPSE
  5
123
100
AcDbEntity
  8
0
  6
ByLayer
 62
  256
370
   -1
100
AcDbEllipse
 10
236.5
 20
256.1240473112897
 30
0
 11
12.5
 21
0
 31
0
 40
0.9792822966507176
 41
0
 42
6.283185307179586
  0
ELLIPSE
  5
124
100
AcDbEntity
  8
0
  6
ByLayer
 62
  256
370
   -1
100
AcDbEllipse
 10
236.5
 20
256.1240473112897
 30
0
 11
11.5
 21
0
 31
0
 40
0.9792822966507176
 41
0
 42
6.283185307179586
  0
ELLIPSE
  5
125
100
AcDbEntity
  8
0
  6
ByLayer
 62
  256
370
   -1
100
AcDbEllipse
 10
281.5
 20
344.2594540098543
 30
0
 11
12.5
 21
0
 31
0
 40
0.9792822966507176
 41
0
 42
6.283185307179586
  0
ELLIPSE
  5
126
100
AcDbEntity
  8
0
  6
ByLayer
 62
  256
370
   -1
100
AcDbEllipse
 10
281.5
 20
344.2594540098543
 30
0
 11
11.5
 21
0
 31
0
 40
0.9792822966507176
 41
0
 42
6.283185307179586
  0
ELLIPSE
  5
127
100
AcDbEntity
  8
0
  6
ByLayer
 62
  256
370
   -1
100
AcDbEllipse
 10
311.5
 20
344.2594540098543
 30
0
 11
12.5
 21
0
 31
0
 40
0.9792822966507176
 41
0
 42
6.283185307179586
  0
ELLIPSE
  5
128
100
AcDbEntity
  8
0
  6
ByLayer
 62
  256
370
   -1
100
AcDbEllipse
 10
311.5
 20
344.2594540098543
 30
0
 11
11.5
 21
0
 31
0
 40
0.9792822966507176
 41
0
 42
6.283185307179586
  0
ELLIPSE
  5
129
100
AcDbEntity
  8
0
  6
ByLayer
 62
  256
370
   -1
100
AcDbEllipse
 10
296.5
 20
314.8809851103327
 30
0
 11
12.5
 21
0
 31
0
 40
0.9792822966507176
 41
0
 42
6.283185307179586
  0
ELLIPSE
  5
12A
100
AcDbEntity
  8
0
  6
ByLayer
 62
  256
370
   -1
100
AcDbEllipse
 10
296.5
 20
314.8809851103327
 30
0
 11
11.5
 21
0
 31
0
 40
0.9792822966507176
 41
0
 42
6.283185307179586
  0
ELLIPSE
  5
12B
100
AcDbEntity
  8
0
  6
ByLayer
 62
  256
370
   -1
100
AcDbEllipse
 10
311.5
 20
285.5025162108112
 30
0
 11
12.5
 21
0
 31
0
 40
0.9792822966507176
 41
0
 42
6.283185307179586
  0
ELLIPSE
  5
12C
100
AcDbEntity
  8
0
  6
ByLayer
 62
  256
370
   -1
100
AcDbEllipse
 10
311.5
 20
285.5025162108112
 30
0
 11
11.5
 21
0
 31
0
 40
0.9792822966507176
 41
0
 42
6.283185307179586
  0
ELLIPSE
  5
12D
100
AcDbEntity
  8
0
  6
ByLayer
 62
  256
370
   -1
100
AcDbEllipse
 10
296.5
 20
256.1240473112897
 30
0
 11
12.5
 21
0
 31
0
 40
0.9792822966507176
 41
0
 42
6.283185307179586
  0
ELLIPSE
  5
12E
100
AcDbEntity
  8
0
  6
ByLayer
 62
  256
370
   -1
100
AcDbEllipse
 10
296.5
 20
256.1240473112897
 30
0
 11
11.5
 21
0
 31
0
 40
0.9792822966507176
 41
0
 42
6.283185307179586
  0
ELLIPSE
  5
12F
100
AcDbEntity
  8
0
  6
ByLayer
 62
  256
370
   -1
100
AcDbEllipse
 10
326.5
 20
314.8809851103327
 30
0
 11
12.5
 21
0
 31
0
 40
0.9792822966507176
 41
0
 42
6.283185307179586
  0
ELLIPSE
  5
130
100
AcDbEntity
  8
0
  6
ByLayer
 62
  256
370
   -1
100
AcDbEllipse
 10
326.5
 20
314.8809851103327
 30
0
 11
11.5
 21
0
 31
0
 40
0.9792822966507176
 41
0
 42
6.283185307179586
  0
ELLIPSE
  5
131
100
AcDbEntity
  8
0
  6
ByLayer
 62
  256
370
   -1
100
AcDbEllipse
 10
386.4999999999998
 20
314.8809851103327
 30
0
 11
12.5
 21
0
 31
0
 40
0.9792822966507176
 41
0
 42
6.283185307179586
  0
ELLIPSE
  5
132
100
AcDbEntity
  8
0
  6
ByLayer
 62
  256
370
   -1
100
AcDbEllipse
 10
386.4999999999998
 20
314.8809851103327
 30
0
 11
11.5
 21
0
 31
0
 40
0.9792822966507176
 41
0
 42
6.283185307179586
  0
ELLIPSE
  5
133
100
AcDbEntity
  8
0
  6
ByLayer
 62
  256
370
   -1
100
AcDbEllipse
 10
386.4999999999998
 20
256.1240473112897
 30
0
 11
12.5
 21
0
 31
0
 40
0.9792822966507176
 41
0
 42
6.283185307179586
  0
ELLIPSE
  5
134
100
AcDbEntity
  8
0
  6
ByLayer
 62
  256
370
   -1
100
AcDbEllipse
 10
386.4999999999998
 20
256.1240473112897
 30
0
 11
11.5
 21
0
 31
0
 40
0.9792822966507176
 41
0
 42
6.283185307179586
  0
ELLIPSE
  5
135
100
AcDbEntity
  8
0
  6
ByLayer
 62
  256
370
   -1
100
AcDbEllipse
 10
371.4999999999998
 20
285.5025162108112
 30
0
 11
12.5
 21
0
 31
0
 40
0.9792822966507176
 41
0
 42
6.283185307179586
  0
ELLIPSE
  5
136
100
AcDbEntity
  8
0
  6
ByLayer
 62
  256
370
   -1
100
AcDbEllipse
 10
371.4999999999998
 20
285.5025162108112
 30
0
 11
11.5
 21
0
 31
0
 40
0.9792822966507176
 41
0
 42
6.283185307179586
  0
DIMENSION
  5
137
100
AcDbEntity
  8
0
  6
ByLayer
 62
  256
370
   -1
100
AcDbDimension
  2
*D1
 10
2109.297232047923
 20
-246.0329967970847
 30
0
 11
1880.297232047923
 21
-244.1579967970847
 31
0
 70
   32
 71
    5
  3
Standard
 53
0
210
0
220
0
230
1
100
AcDbAlignedDimension
 13
1651.297232047923
 23
-261.560848959209
 33
0
 14
2109.297232047923
 24
-261.560848959209
 34
0
100
AcDbRotatedDimension
  0
DIMENSION
  5
138
100
AcDbEntity
  8
0
  6
ByLayer
 62
  256
370
   -1
100
AcDbDimension
  2
*D2
 10
2124.663386502953
 20
-470.560848959209
 30
0
 11
2122.788386502953
 21
-366.060848959209
 31
0
 70
   32
 71
    5
  3
Standard
 53
0
210
0
220
0
230
1
100
AcDbAlignedDimension
 13
2109.297232047923
 23
-261.560848959209
 33
0
 14
2109.297232047923
 24
-470.560848959209
 34
0
 50
90
100
AcDbRotatedDimension
  0
LWPOLYLINE
  5
139
100
AcDbEntity
  8
0
  6
ByLayer
 62
  256
370
   -1
100
AcDbPolyline
 90
    4
 70
    1
 43
0
 10
2600
 20
600
 10
2756
 20
600
 10
2756
 20
688
 10
2600
 20
688
  0
LWPOLYLINE
  5
13A
100
AcDbEntity
  8
0
  6
ByLayer
 62
  256
370
   -1
100
AcDbPolyline
 90
    4
 70
    1
 43
0
 10
1884.784721400265
 20
605.4284040833311
 10
2296.984755700247
 20
605.4284040833311
 10
2296.984755700247
 20
874.2545134094063
 10
1884.784721400265
 20
874.2545134094063
  0
SPLINE
  5
13B
100
AcDbEntity
  8
0
  6
ByLayer
 62
  256
370
   -1
100
AcDbSpline
210
0
220
0
230
0
 70
    8
 71
    2
 72
    6
 73
    3
 74
    0
 42
1e-07
 43
1e-07
 40
0
 40
0
 40
0
 40
1
 40
1
 40
1
 10
2162.571714924057
 20
829.4501757419074
 30
0
 10
2198.415196167535
 20
739.8414726332155
 30
0
 10
2162.571714924057
 20
650.2327695245239
 30
0
  0
SPLINE
  5
13C
100
AcDbEntity
  8
0
  6
ByLayer
 62
  256
370
   -1
100
AcDbSpline
210
0
220
0
230
0
 70
    8
 71
    2
 72
    6
 73
    3
 74
    0
 42
1e-07
 43
1e-07
 40
0
 40
0
 40
0
 40
1
 40
1
 40
1
 10
2162.571714924057
 20
650.2327695245239
 30
0
 10
2046.080400882757
 20
614.3892882810471
 30
0
 10
1929.589086841459
 20
650.2327695245239
 30
0
  0
SPLINE
  5
13D
100
AcDbEntity
  8
0
  6
ByLayer
 62
  256
370
   -1
100
AcDbSpline
210
0
220
0
230
0
 70
    8
 71
    2
 72
    6
 73
    3
 74
    0
 42
1e-07
 43
1e-07
 40
0
 40
0
 40
0
 40
1
 40
1
 40
1
 10
1929.589086841459
 20
650.2327695245239
 30
0
 10
1893.745605597982
 20
739.8414726332155
 30
0
 10
1929.589086841459
 20
829.4501757419074
 30
0
  0
SPLINE
  5
13E
100
AcDbEntity
  8
0
  6
ByLayer
 62
  256
370
   -1
100
AcDbSpline
210
0
220
0
230
0
 70
    8
 71
    2
 72
    6
 73
    3
 74
    0
 42
1e-07
 43
1e-07
 40
0
 40
0
 40
0
 40
1
 40
1
 40
1
 10
1929.589086841459
 20
829.4501757419074
 30
0
 10
2046.080400882757
 20
865.293656985384
 30
0
 10
2162.571714924057
 20
829.4501757419074
 30
0
  0
LWPOLYLINE
  5
13F
100
AcDbEntity
  8
0
  6
ByLayer
 62
  256
370
   -1
100
AcDbPolyline
 90
    4
 70
    1
 43
0
 10
1884.784721400265
 20
605.4284040833311
 10
2207.376080365251
 20
605.4284040833311
 10
2207.376080365251
 20
874.2545134094063
 10
1884.784721400265
 20
874.2545134094063
  0
LINE
  5
140
100
AcDbEntity
  8
0
  6
ByLayer
 62
  256
370
   -1
100
AcDbLine
 10
1893.784721400265
 20
865.2545134094063
 11
1893.784721400265
 21
614.4284040833311
  0
LINE
  5
141
100
AcDbEntity
  8
0
  6
ByLayer
 62
  256
370
   -1
100
AcDbLine
 10
1893.784721400265
 20
614.4284040833311
 11
2198.376080365251
 21
614.4284040833311
  0
LINE
  5
142
100
AcDbEntity
  8
0
  6
ByLayer
 62
  256
370
   -1
100
AcDbLine
 10
2198.376080365251
 20
865.2545134094063
 11
1893.784721400265
 21
865.2545134094063
  0
LINE
  5
143
100
AcDbEntity
  8
0
  6
ByLayer
 62
  256
370
   -1
100
AcDbLine
 10
2198.376080365251
 20
614.4284040833311
 11
2198.376080365251
 21
865.2545134094063
  0
LINE
  5
144
100
AcDbEntity
  8
0
  6
ByLayer
 62
  256
370
   -1
100
AcDbLine
 10
2462.126833194583
 20
825.1603899784817
 11
2720.996419953026
 21
1024.29084133113
  0
LINE
  5
145
100
AcDbEntity
  8
0
  6
ByLayer
 62
  256
370
   -1
100
AcDbLine
 10
2720.996419953026
 20
825.1603899784817
 11
2462.126833194583
 21
1024.29084133113
  0
LWPOLYLINE
  5
146
100
AcDbEntity
  8
0
  6
ByLayer
 62
  256
370
   -1
100
AcDbPolyline
 90
    4
 70
    1
 43
0
 10
2435.561626573795
 20
836.7256156548005
 10
2747.561626573795
 20
836.7256156548005
 10
2747.561626573795
 20
1012.725615654801
 10
2435.561626573795
 20
1012.725615654801
  0
LINE
  5
147
100
AcDbEntity
  8
0
  6
ByLayer
 62
  256
370
   -1
100
AcDbLine
 10
2435.561626573795
 20
1012.725615654801
 11
2747.561626573795
 21
836.7256156548005
  0
LINE
  5
148
100
AcDbEntity
  8
0
  6
ByLayer
 62
  256
370
   -1
100
AcDbLine
 10
2747.561626573795
 20
836.7256156548005
 11
2435.561626573795
 21
836.7256156548005
  0
LINE
  5
149
100
AcDbEntity
  8
0
  6
ByLayer
 62
  256
370
   -1
100
AcDbLine
 10
2435.561626573795
 20
836.7256156548005
 11
2747.561626573795
 21
1012.725615654801
  0
LWPOLYLINE
  5
14A
100
AcDbEntity
  8
0
  6
ByLayer
 62
  256
370
   -1
100
AcDbPolyline
 90
    4
 70
    1
 43
0
 10
2427.561626573795
 20
824.7256156548002
 10
2755.561626573795
 20
824.7256156548002
 10
2755.561626573795
 20
1024.7256156548
 10
2427.561626573795
 20
1024.7256156548
  0
LINE
  5
14B
100
AcDbEntity
  8
0
  6
ByLayer
 62
  256
370
   -1
100
AcDbLine
 10
2427.561626573795
 20
1024.7256156548
 11
2755.561626573795
 21
824.7256156548002
  0
LINE
  5
14C
100
AcDbEntity
  8
0
  6
ByLayer
 62
  256
370
   -1
100
AcDbLine
 10
2755.561626573795
 20
1024.7256156548
 11
2427.561626573795
 21
824.7256156548002
  0
LINE
  5
14D
100
AcDbEntity
  8
0
  6
ByLayer
 62
  256
370
   -1
100
AcDbLine
 10
1929.589086841459
 20
829.4501757419074
 11
2162.571714924057
 21
650.2327695245239
  0
LINE
  5
14E
100
AcDbEntity
  8
0
  6
ByLayer
 62
  256
370
   -1
100
AcDbLine
 10
2162.571714924057
 20
829.4501757419074
 11
1929.589086841459
 21
650.2327695245239
  0
LWPOLYLINE
  5
14F
100
AcDbEntity
  8
0
  6
ByLayer
 62
  256
370
   -1
100
AcDbPolyline
 90
    4
 70
    1
 43
0
 10
1491.348037173226
 20
1132.41963870756
 10
1944.768074903207
 20
1132.41963870756
 10
1944.768074903207
 20
1401.245748033635
 10
1491.348037173226
 20
1401.245748033635
  0
SPLINE
  5
150
100
AcDbEntity
  8
0
  6
ByLayer
 62
  256
370
   -1
100
AcDbSpline
210
0
220
0
230
0
 70
    8
 71
    2
 72
    6
 73
    3
 74
    0
 42
1e-07
 43
1e-07
 40
0
 40
0
 40
0
 40
1
 40
1
 40
1
 10
1796.913730049398
 20
1356.441410366136
 30
0
 10
1836.341559417224
 20
1266.832707257444
 30
0
 10
1796.913730049398
 20
1177.224004148753
 30
0
  0
SPLINE
  5
151
100
AcDbEntity
  8
0
  6
ByLayer
 62
  256
370
   -1
100
AcDbSpline
210
0
220
0
230
0
 70
    8
 71
    2
 72
    6
 73
    3
 74
    0
 42
1e-07
 43
1e-07
 40
0
 40
0
 40
0
 40
1
 40
1
 40
1
 10
1796.913730049398
 20
1177.224004148753
 30
0
 10
1668.773284603968
 20
1141.380522905276
 30
0
 10
1540.63283915854
 20
1177.224004148753
 30
0
  0
SPLINE
  5
152
100
AcDbEntity
  8
0
  6
ByLayer
 62
  256
370
   -1
100
AcDbSpline
210
0
220
0
230
0
 70
    8
 71
    2
 72
    6
 73
    3
 74
    0
 42
1e-07
 43
1e-07
 40
0
 40
0
 40
0
 40
1
 40
1
 40
1
 10
1540.63283915854
 20
1177.224004148753
 30
0
 10
1501.205009790716
 20
1266.832707257444
 30
0
 10
1540.63283915854
 20
1356.441410366136
 30
0
  0
SPLINE
  5
153
100
AcDbEntity
  8
0
  6
ByLayer
 62
  256
370
   -1
100
AcDbSpline
210
0
220
0
230
0
 70
    8
 71
    2
 72
    6
 73
    3
 74
    0
 42
1e-07
 43
1e-07
 40
0
 40
0
 40
0
 40
1
 40
1
 40
1
 10
1540.63283915854
 20
1356.441410366136
 30
0
 10
1668.773284603968
 20
1392.284891609613
 30
0
 10
1796.913730049398
 20
1356.441410366136
 30
0
  0
LWPOLYLINE
  5
154
100
AcDbEntity
  8
0
  6
ByLayer
 62
  256
370
   -1
100
AcDbPolyline
 90
    4
 70
    1
 43
0
 10
1491.348037173226
 20
1132.41963870756
 10
1846.198532034711
 20
1132.41963870756
 10
1846.198532034711
 20
1401.245748033635
 10
1491.348037173226
 20
1401.245748033635
  0
LINE
  5
155
100
AcDbEntity
  8
0
  6
ByLayer
 62
  256
370
   -1
100
AcDbLine
 10
1501.248037173226
 20
1392.245748033635
 11
1501.248037173226
 21
1141.41963870756
  0
LINE
  5
156
100
AcDbEntity
  8
0
  6
ByLayer
 62
  256
370
   -1
100
AcDbLine
 10
1501.248037173226
 20
1141.41963870756
 11
1836.298532034711
 21
1141.41963870756
  0
LINE
  5
157
100
AcDbEntity
  8
0
  6
ByLayer
 62
  256
370
   -1
100
AcDbLine
 10
1836.298532034711
 20
1392.245748033635
 11
1501.248037173226
 21
1392.245748033635
  0
LINE
  5
158
100
AcDbEntity
  8
0
  6
ByLayer
 62
  256
370
   -1
100
AcDbLine
 10
1836.298532034711
 20
1141.41963870756
 11
1836.298532034711
 21
1392.245748033635
  0
LINE
  5
159
100
AcDbEntity
  8
0
  6
ByLayer
 62
  256
370
   -1
100
AcDbLine
 10
1540.63283915854
 20
1356.441410366136
 11
1796.913730049398
 21
1177.224004148753
  0
LINE
  5
15A
100
AcDbEntity
  8
0
  6
ByLayer
 62
  256
370
   -1
100
AcDbLine
 10
1796.913730049398
 20
1356.441410366136
 11
1540.63283915854
 21
1177.224004148753
  0
LWPOLYLINE
  5
15B
100
AcDbEntity
  8
0
  6
ByLayer
 62
  256
370
   -1
100
AcDbPolyline
 90
    4
 70
    1
 43
0
 10
1914.186501850373
 20
255.5435752402219
 10
2285.166532720357
 20
255.5435752402219
 10
2285.166532720357
 20
497.4870736336896
 10
1914.186501850373
 20
497.4870736336896
  0
LWPOLYLINE
  5
15C
100
AcDbEntity
  8
0
  6
ByLayer
 62
  256
370
   -1
100
AcDbPolyline
 90
    4
 70
    1
 43
0
 10
1914.186501850373
 20
255.5435752402219
 10
2204.51872491886
 20
255.5435752402219
 10
2204.51872491886
 20
497.4870736336896
 10
1914.186501850373
 20
497.4870736336896
  0
LINE
  5
15D
100
AcDbEntity
  8
0
  6
ByLayer
 62
  256
370
   -1
100
AcDbLine
 10
1922.286501850373
 20
489.3870736336896
 11
1922.286501850373
 21
263.6435752402219
  0
LINE
  5
15E
100
AcDbEntity
  8
0
  6
ByLayer
 62
  256
370
   -1
100
AcDbLine
 10
1922.286501850373
 20
263.6435752402219
 11
2196.41872491886
 21
263.6435752402219
  0
LINE
  5
15F
100
AcDbEntity
  8
0
  6
ByLayer
 62
  256
370
   -1
100
AcDbLine
 10
2196.41872491886
 20
489.3870736336896
 11
1922.286501850373
 21
489.3870736336896
  0
LINE
  5
160
100
AcDbEntity
  8
0
  6
ByLayer
 62
  256
370
   -1
100
AcDbLine
 10
2196.41872491886
 20
263.6435752402219
 11
2196.41872491886
 21
489.3870736336896
  0
SPLINE
  5
161
100
AcDbEntity
  8
0
  6
ByLayer
 62
  256
370
   -1
100
AcDbSpline
210
0
220
0
230
0
 70
    8
 71
    2
 72
    6
 73
    3
 74
    0
 42
1e-07
 43
1e-07
 40
0
 40
0
 40
0
 40
1
 40
1
 40
1
 10
2153.71057775807
 20
449.0983864531583
 30
0
 10
2182.743797565287
 20
376.5153369351179
 30
0
 10
2153.71057775807
 20
303.9322874170776
 30
0
  0
SPLINE
  5
162
100
AcDbEntity
  8
0
  6
ByLayer
 62
  256
370
   -1
100
AcDbSpline
210
0
220
0
230
0
 70
    8
 71
    2
 72
    6
 73
    3
 74
    0
 42
1e-07
 43
1e-07
 40
0
 40
0
 40
0
 40
1
 40
1
 40
1
 10
2153.71057775807
 20
303.9322874170776
 30
0
 10
2059.352613384617
 20
274.8990676098615
 30
0
 10
1964.994649011164
 20
303.9322874170776
 30
0
  0
SPLINE
  5
163
100
AcDbEntity
  8
0
  6
ByLayer
 62
  256
370
   -1
100
AcDbSpline
210
0
220
0
230
0
 70
    8
 71
    2
 72
    6
 73
    3
 74
    0
 42
1e-07
 43
1e-07
 40
0
 40
0
 40
0
 40
1
 40
1
 40
1
 10
1964.994649011164
 20
303.9322874170776
 30
0
 10
1935.961429203949
 20
376.5153369351179
 30
0
 10
1964.994649011164
 20
449.0983864531583
 30
0
  0
SPLINE
  5
164
100
AcDbEntity
  8
0
  6
ByLayer
 62
  256
370
   -1
100
AcDbSpline
210
0
220
0
230
0
 70
    8
 71
    2
 72
    6
 73
    3
 74
    0
 42
1e-07
 43
1e-07
 40
0
 40
0
 40
0
 40
1
 40
1
 40
1
 10
1964.994649011164
 20
449.0983864531583
 30
0
 10
2059.352613384617
 20
478.1316062603744
 30
0
 10
2153.71057775807
 20
449.0983864531583
 30
0
  0
LINE
  5
165
100
AcDbEntity
  8
0
  6
ByLayer
 62
  256
370
   -1
100
AcDbLine
 10
1964.994649011164
 20
449.0983864531583
 11
2153.71057775807
 21
303.9322874170776
  0
LINE
  5
166
100
AcDbEntity
  8
0
  6
ByLayer
 62
  256
370
   -1
100
AcDbLine
 10
2153.71057775807
 20
449.0983864531583
 11
1964.994649011164
 21
303.9322874170776
  0
LWPOLYLINE
  5
167
100
AcDbEntity
  8
0
  6
ByLayer
 62
  256
370
   -1
100
AcDbPolyline
 90
    4
 70
    1
 43
0
 10
1397.779567041129
 20
225.3063639495117
 10
1693.779567041129
 20
225.3063639495117
 10
1693.779567041129
 20
465.3063639495117
 10
1397.779567041129
 20
465.3063639495117
  0
LINE
  5
168
100
AcDbEntity
  8
0
  6
ByLayer
 62
  256
370
   -1
100
AcDbLine
 10
1397.779567041129
 20
225.3063639495117
 11
1693.779567041129
 21
465.3063639495117
  0
LINE
  5
169
100
AcDbEntity
  8
0
  6
ByLayer
 62
  256
370
   -1
100
AcDbLine
 10
1693.779567041129
 20
225.3063639495117
 11
1397.779567041129
 21
465.3063639495117
  0
LWPOLYLINE
  5
16A
100
AcDbEntity
  8
0
  6
ByLayer
 62
  256
370
   -1
100
AcDbPolyline
 90
    4
 70
    1
 43
0
 10
1430.779567041129
 20
259.306363949511
 10
1660.779567041129
 20
259.306363949511
 10
1660.779567041129
 20
431.306363949511
 10
1430.779567041129
 20
431.306363949511
  0
LINE
  5
16B
100
AcDbEntity
  8
0
  6
ByLayer
 62
  256
370
   -1
100
AcDbLine
 10
1430.779567041129
 20
259.306363949511
 11
1660.779567041129
 21
431.306363949511
  0
LINE
  5
16C
100
AcDbEntity
  8
0
  6
ByLayer
 62
  256
370
   -1
100
AcDbLine
 10
1660.779567041129
 20
259.306363949511
 11
1430.779567041129
 21
431.306363949511
  0
LWPOLYLINE
  5
16D
100
AcDbEntity
  8
0
  6
ByLayer
 62
  256
370
   -1
100
AcDbPolyline
 90
    4
 70
    1
 43
0
 10
1425.779567041149
 20
253.3063639494956
 10
1665.779567041149
 20
253.3063639494956
 10
1665.779567041149
 20
437.3063639494956
 10
1425.779567041149
 20
437.3063639494956
  0
LINE
  5
16E
100
AcDbEntity
  8
0
  6
ByLayer
 62
  256
370
   -1
100
AcDbLine
 10
1425.779567041149
 20
253.3063639494956
 11
1665.779567041149
 21
437.3063639494956
  0
LINE
  5
16F
100
AcDbEntity
  8
0
  6
ByLayer
 62
  256
370
   -1
100
AcDbLine
 10
1665.779567041149
 20
253.3063639494956
 11
1425.779567041149
 21
437.3063639494956
  0
LWPOLYLINE
  5
170
100
AcDbEntity
  8
0
  6
ByLayer
 62
  256
370
   -1
100
AcDbPolyline
 90
    4
 70
    1
 43
0
 10
2481.089561240273
 20
275.1394273453247
 10
2769.089561240272
 20
275.1394273453247
 10
2769.089561240272
 20
403.1394273453247
 10
2481.089561240273
 20
403.1394273453247
  0
LINE
  5
171
100
AcDbEntity
  8
0
  6
ByLayer
 62
  256
370
   -1
100
AcDbLine
 10
2481.089561240273
 20
403.1394273453247
 11
2769.089561240272
 21
275.1394273453247
  0
LINE
  5
172
100
AcDbEntity
  8
0
  6
ByLayer
 62
  256
370
   -1
100
AcDbLine
 10
2769.089561240272
 20
403.1394273453247
 11
2481.089561240273
 21
275.1394273453247
  0
LWPOLYLINE
  5
173
100
AcDbEntity
  8
0
  6
ByLayer
 62
  256
370
   -1
100
AcDbPolyline
 90
    4
 70
    1
 43
0
 10
2518.089561240273
 20
285.1394273453249
 10
2732.089561240273
 20
285.1394273453249
 10
2732.089561240273
 20
393.1394273453249
 10
2518.089561240273
 20
393.1394273453249
  0
LINE
  5
174
100
AcDbEntity
  8
0
  6
ByLayer
 62
  256
370
   -1
100
AcDbLine
 10
2518.089561240273
 20
393.1394273453249
 11
2732.089561240273
 21
285.1394273453249
  0
LINE
  5
175
100
AcDbEntity
  8
0
  6
ByLayer
 62
  256
370
   -1
100
AcDbLine
 10
2732.089561240273
 20
393.1394273453249
 11
2518.089561240273
 21
285.1394273453249
  0
LINE
  5
176
100
AcDbEntity
  8
0
  6
ByLayer
 62
  256
370
   -1
100
AcDbLine
 10
-100
 20
800
 11
-100
 21
100
  0
LINE
  5
177
100
AcDbEntity
  8
0
  6
ByLayer
 62
  256
370
   -1
100
AcDbLine
 10
-1262.759104602896
 20
1978.261535480385
 11
-804.7591046028961
 21
1978.261535480385
  0
LINE
  5
178
100
AcDbEntity
  8
0
  6
ByLayer
 62
  256
370
   -1
100
AcDbLine
 10
-1262.759104602896
 20
1610.261535480384
 11
-804.7591046028961
 21
1610.261535480384
  0
LINE
  5
179
100
AcDbEntity
  8
0
  6
ByLayer
 62
  256
370
   -1
100
AcDbLine
 10
-1262.759104602896
 20
1610.261535480384
 11
-1262.759104602896
 21
1978.261535480385
  0
LINE
  5
17A
100
AcDbEntity
  8
0
  6
ByLayer
 62
  256
370
   -1
100
AcDbLine
 10
-804.7591046028961
 20
1978.261535480385
 11
-804.7591046028961
 21
1610.261535480384
  0
LINE
  5
17B
100
AcDbEntity
  8
0
  6
ByLayer
 62
  256
370
   -1
100
AcDbLine
 10
-584.7591046028961
 20
1396.261535480385
 11
-584.7591046028961
 21
1978.261535480385
  0
LINE
  5
17C
100
AcDbEntity
  8
0
  6
ByLayer
 62
  256
370
   -1
100
AcDbLine
 10
-584.7591046028961
 20
1396.261535480385
 11
-625.7591046028961
 21
1396.261535480385
  0
LINE
  5
17D
100
AcDbEntity
  8
0
  6
ByLayer
 62
  256
370
   -1
100
AcDbLine
 10
-584.7591046028961
 20
1978.261535480385
 11
-804.7591046028961
 21
1978.261535480385
  0
LINE
  5
17E
100
AcDbEntity
  8
0
  6
ByLayer
 62
  256
370
   -1
100
AcDbLine
 10
-804.7591046028961
 20
1978.261535480385
 11
-804.7591046028961
 21
1610.261535480385
  0
LINE
  5
17F
100
AcDbEntity
  8
0
  6
ByLayer
 62
  256
370
   -1
100
AcDbLine
 10
-668.0771075513903
 20
1600.932458247765
 11
-804.7591046028961
 21
1610.261535480385
  0
LINE
  5
180
100
AcDbEntity
  8
0
  6
ByLayer
 62
  256
370
   -1
100
AcDbLine
 10
-668.0771075513908
 20
1600.932458247765
 11
-625.7591046028961
 21
1396.261535480385
  0
LINE
  5
181
100
AcDbEntity
  8
0
  6
ByLayer
 62
  256
370
   -1
100
AcDbLine
 10
-1482.759104602896
 20
1396.261535480385
 11
-1482.759104602896
 21
1978.261535480385
  0
LINE
  5
182
100
AcDbEntity
  8
0
  6
ByLayer
 62
  256
370
   -1
100
AcDbLine
 10
-1482.759104602896
 20
1396.261535480385
 11
-1441.759104602896
 21
1396.261535480385
  0
LINE
  5
183
100
AcDbEntity
  8
0
  6
ByLayer
 62
  256
370
   -1
100
AcDbLine
 10
-1482.759104602896
 20
1978.261535480385
 11
-1262.759104602896
 21
1978.261535480385
  0
LINE
  5
184
100
AcDbEntity
  8
0
  6
ByLayer
 62
  256
370
   -1
100
AcDbLine
 10
-1262.759104602896
 20
1978.261535480385
 11
-1262.759104602896
 21
1610.261535480385
  0
LINE
  5
185
100
AcDbEntity
  8
0
  6
ByLayer
 62
  256
370
   -1
100
AcDbLine
 10
-1399.441101654402
 20
1600.932458247765
 11
-1262.759104602896
 21
1610.261535480385
  0
LINE
  5
186
100
AcDbEntity
  8
0
  6
ByLayer
 62
  256
370
   -1
100
AcDbLine
 10
-1399.441101654401
 20
1600.932458247765
 11
-1441.759104602896
 21
1396.261535480385
  0
LINE
  5
187
100
AcDbEntity
  8
0
  6
ByLayer
 62
  256
370
   -1
100
AcDbLine
 10
-584.7591046028961
 20
1978.261535480385
 11
-584.7591046028961
 21
1878.261535480385
  0
LINE
  5
188
100
AcDbEntity
  8
0
  6
ByLayer
 62
  256
370
   -1
100
AcDbLine
 10
-584.7591046028961
 20
1878.261535480385
 11
-240.827481339774
 21
1878.261535480385
  0
LWPOLYLINE
  5
189
100
AcDbEntity
  8
0
  6
ByLayer
 62
  256
370
   -1
100
AcDbPolyline
 90
    4
 70
    1
 43
0
 10
-604.7591046028961
 20
1858.261535480385
 10
-584.7591046028961
 20
1858.261535480385
 10
-584.7591046028961
 20
1878.261535480385
 10
-604.7591046028961
 20
1878.261535480385
  0
LINE
  5
18A
100
AcDbEntity
  8
0
  6
ByLayer
 62
  256
370
   -1
100
AcDbLine
 10
-584.7591046028961
 20
1878.261535480385
 11
-1482.759104602896
 21
1878.261535480385
  0
LWPOLYLINE
  5
18B
100
AcDbEntity
  8
0
  6
ByLayer
 62
  256
370
   -1
100
AcDbPolyline
 90
    4
 70
    1
 43
0
 10
-1482.759104602896
 20
1858.261535480385
 10
-1462.759104602896
 20
1858.261535480385
 10
-1462.759104602896
 20
1878.261535480385
 10
-1482.759104602896
 20
1878.261535480385
  0
LWPOLYLINE
  5
18C
100
AcDbEntity
  8
0
  6
ByLayer
 62
  256
370
   -1
100
AcDbPolyline
 90
    4
 70
    1
 43
0
 10
-604.7591046028961
 20
1516.261535480385
 10
-584.7591046028961
 20
1516.261535480385
 10
-584.7591046028961
 20
1496.261535480385
 10
-604.7591046028961
 20
1496.261535480385
  0
LWPOLYLINE
  5
18D
100
AcDbEntity
  8
0
  6
ByLayer
 62
  256
370
   -1
100
AcDbPolyline
 90
    4
 70
    1
 43
0
 10
-1482.759104602896
 20
1516.261535480385
 10
-1462.759104602896
 20
1516.261535480385
 10
-1462.759104602896
 20
1496.261535480385
 10
-1482.759104602896
 20
1496.261535480385
  0
LWPOLYLINE
  5
18E
100
AcDbEntity
  8
0
  6
ByLayer
 62
  256
370
   -1
100
AcDbPolyline
 90
    4
 70
    1
 43
0
 10
0
 20
-470
 10
458
 20
-470
 10
458
 20
-250
 10
0
 20
-250
  0
LINE
  5
18F
100
AcDbEntity
  8
0
  6
ByLayer
 62
  256
370
   -1
100
AcDbLine
 10
458
 20
-376.8116599212838
 11
0
 21
-376.8116599212838
  0
LINE
  5
190
100
AcDbEntity
  8
0
  6
ByLayer
 62
  256
370
   -1
100
AcDbLine
 10
-3562.759104602896
 20
3088.261535480385
 11
-3104.759104602896
 21
3088.261535480385
  0
LINE
  5
191
100
AcDbEntity
  8
0
  6
ByLayer
 62
  256
370
   -1
100
AcDbLine
 10
-3562.759104602896
 20
2720.261535480384
 11
-3104.759104602896
 21
2720.261535480384
  0
LINE
  5
192
100
AcDbEntity
  8
0
  6
ByLayer
 62
  256
370
   -1
100
AcDbLine
 10
-3562.759104602896
 20
2720.261535480384
 11
-3562.759104602896
 21
3088.261535480385
  0
LINE
  5
193
100
AcDbEntity
  8
0
  6
ByLayer
 62
  256
370
   -1
100
AcDbLine
 10
-3104.759104602896
 20
3088.261535480385
 11
-3104.759104602896
 21
2720.261535480384
  0
LINE
  5
194
100
AcDbEntity
  8
0
  6
ByLayer
 62
  256
370
   -1
100
AcDbLine
 10
-2884.759104602896
 20
2506.261535480385
 11
-2884.759104602896
 21
3088.261535480385
  0
LINE
  5
195
100
AcDbEntity
  8
0
  6
ByLayer
 62
  256
370
   -1
100
AcDbLine
 10
-2884.759104602896
 20
2506.261535480385
 11
-2925.759104602896
 21
2506.261535480385
  0
LINE
  5
196
100
AcDbEntity
  8
0
  6
ByLayer
 62
  256
370
   -1
100
AcDbLine
 10
-2884.759104602896
 20
3088.261535480385
 11
-3104.759104602896
 21
3088.261535480385
  0
LINE
  5
197
100
AcDbEntity
  8
0
  6
ByLayer
 62
  256
370
   -1
100
AcDbLine
 10
-3104.759104602896
 20
3088.261535480385
 11
-3104.759104602896
 21
2720.261535480385
  0
LINE
  5
198
100
AcDbEntity
  8
0
  6
ByLayer
 62
  256
370
   -1
100
AcDbLine
 10
-2968.07710755139
 20
2710.932458247765
 11
-3104.759104602896
 21
2720.261535480385
  0
LINE
  5
199
100
AcDbEntity
  8
0
  6
ByLayer
 62
  256
370
   -1
100
AcDbLine
 10
-2968.077107551391
 20
2710.932458247765
 11
-2925.759104602896
 21
2506.261535480385
  0
LINE
  5
19A
100
AcDbEntity
  8
0
  6
ByLayer
 62
  256
370
   -1
100
AcDbLine
 10
-3782.759104602896
 20
2506.261535480385
 11
-3782.759104602896
 21
3088.261535480385
  0
LINE
  5
19B
100
AcDbEntity
  8
0
  6
ByLayer
 62
  256
370
   -1
100
AcDbLine
 10
-3782.759104602896
 20
2506.261535480385
 11
-3741.759104602896
 21
2506.261535480385
  0
LINE
  5
19C
100
AcDbEntity
  8
0
  6
ByLayer
 62
  256
370
   -1
100
AcDbLine
 10
-3782.759104602896
 20
3088.261535480385
 11
-3562.759104602896
 21
3088.261535480385
  0
LINE
  5
19D
100
AcDbEntity
  8
0
  6
ByLayer
 62
  256
370
   -1
100
AcDbLine
 10
-3562.759104602896
 20
3088.261535480385
 11
-3562.759104602896
 21
2720.261535480385
  0
LINE
  5
19E
100
AcDbEntity
  8
0
  6
ByLayer
 62
  256
370
   -1
100
AcDbLine
 10
-3699.441101654402
 20
2710.932458247765
 11
-3562.759104602896
 21
2720.261535480385
  0
LINE
  5
19F
100
AcDbEntity
  8
0
  6
ByLayer
 62
  256
370
   -1
100
AcDbLine
 10
-3699.441101654401
 20
2710.932458247765
 11
-3741.759104602896
 21
2506.261535480385
  0
LINE
  5
1A0
100
AcDbEntity
  8
0
  6
ByLayer
 62
  256
370
   -1
100
AcDbLine
 10
-2884.759104602896
 20
3088.261535480385
 11
-2884.759104602896
 21
2988.261535480385
  0
LWPOLYLINE
  5
1A1
100
AcDbEntity
  8
0
  6
ByLayer
 62
  256
370
   -1
100
AcDbPolyline
 90
    4
 70
    1
 43
0
 10
-2904.759104602896
 20
2968.261535480385
 10
-2884.759104602896
 20
2968.261535480385
 10
-2884.759104602896
 20
2988.261535480385
 10
-2904.759104602896
 20
2988.261535480385
  0
LINE
  5
1A2
100
AcDbEntity
  8
0
  6
ByLayer
 62
  256
370
   -1
100
AcDbLine
 10
-2884.759104602896
 20
2988.261535480385
 11
-3782.759104602896
 21
2988.261535480385
  0
LWPOLYLINE
  5
1A3
100
AcDbEntity
  8
0
  6
ByLayer
 62
  256
370
   -1
100
AcDbPolyline
 90
    4
 70
    1
 43
0
 10
-3782.759104602896
 20
2968.261535480385
 10
-3762.759104602896
 20
2968.261535480385
 10
-3762.759104602896
 20
2988.261535480385
 10
-3782.759104602896
 20
2988.261535480385
  0
LWPOLYLINE
  5
1A4
100
AcDbEntity
  8
0
  6
ByLayer
 62
  256
370
   -1
100
AcDbPolyline
 90
    4
 70
    1
 43
0
 10
-2904.759104602896
 20
2626.261535480385
 10
-2884.759104602896
 20
2626.261535480385
 10
-2884.759104602896
 20
2606.261535480385
 10
-2904.759104602896
 20
2606.261535480385
  0
LWPOLYLINE
  5
1A5
100
AcDbEntity
  8
0
  6
ByLayer
 62
  256
370
   -1
100
AcDbPolyline
 90
    4
 70
    1
 43
0
 10
-3782.759104602896
 20
2626.261535480385
 10
-3762.759104602896
 20
2626.261535480385
 10
-3762.759104602896
 20
2606.261535480385
 10
-3782.759104602896
 20
2606.261535480385
  0
LINE
  5
1A6
100
AcDbEntity
  8
0
  6
ByLayer
 62
  256
370
   -1
100
AcDbLine
 10
-5437.275749735253
 20
-70.12966286977849
 11
-4855.275749735253
 21
-70.12966286977849
  0
LINE
  5
1A7
100
AcDbEntity
  8
0
  6
ByLayer
 62
  256
370
   -1
100
AcDbLine
 10
-4855.275749735253
 20
-70.12966286977849
 11
-4855.275749735253
 21
149.8703371302215
  0
LINE
  5
1A8
100
AcDbEntity
  8
0
  6
ByLayer
 62
  256
370
   -1
100
AcDbLine
 10
-4855.275749735253
 20
149.8703371302215
 11
-5223.275749735253
 21
149.8703371302215
  0
LINE
  5
1A9
100
AcDbEntity
  8
0
  6
ByLayer
 62
  256
370
   -1
100
AcDbLine
 10
-5653.160274120443
 20
1877.654761152645
 11
-5653.160274120443
 21
1918.654761152645
  0
LINE
  5
1AA
100
AcDbEntity
  8
0
  6
ByLayer
 62
  256
370
   -1
100
AcDbLine
 10
-5653.160274120443
 20
1918.654761613339
 11
-5653.160024326818
 21
2127.65476161319
  0
LINE
  5
1AB
100
AcDbEntity
  8
0
  6
ByLayer
 62
  256
370
   -1
100
AcDbLine
 10
-5653.160024363578
 20
2127.654761611936
 11
-5653.16001549565
 21
2264.654761611936
  0
LINE
  5
1AC
100
AcDbEntity
  8
0
  6
ByLayer
 62
  256
370
   -1
100
AcDbLine
 10
-5195.160274120443
 20
1877.654761152645
 11
-5195.160274120443
 21
1918.654761152645
  0
LINE
  5
1AD
100
AcDbEntity
  8
0
  6
ByLayer
 62
  256
370
   -1
100
AcDbLine
 10
-5195.160274120443
 20
1918.654761613339
 11
-5195.160024326818
 21
2127.65476161319
  0
LINE
  5
1AE
100
AcDbEntity
  8
0
  6
ByLayer
 62
  256
370
   -1
100
AcDbLine
 10
-5195.160024363578
 20
2127.654761611936
 11
-5195.16001549565
 21
2264.654761611936
  0
LINE
  5
1AF
100
AcDbEntity
  8
0
  6
ByLayer
 62
  256
370
   -1
100
AcDbLine
 10
-5653.16001549565
 20
2264.654761611936
 11
-5195.16001549565
 21
2264.654761611936
  0
LINE
  5
1B0
100
AcDbEntity
  8
0
  6
ByLayer
 62
  256
370
   -1
100
AcDbLine
 10
-5195.160024326818
 20
2127.65476161319
 11
-5653.160024326818
 21
2127.65476161319
  0
LINE
  5
1B1
100
AcDbEntity
  8
0
  6
ByLayer
 62
  256
370
   -1
100
AcDbLine
 10
-5653.160274120443
 20
1918.654761613339
 11
-5195.160274120443
 21
1918.654761613339
  0
LINE
  5
1B2
100
AcDbEntity
  8
0
  6
ByLayer
 62
  256
370
   -1
100
AcDbLine
 10
-5195.160274120443
 20
1877.654761152645
 11
-5653.160274120443
 21
1877.654761152645
  0
LINE
  5
1B3
100
AcDbEntity
  8
0
  6
ByLayer
 62
  256
370
   -1
100
AcDbLine
 10
-1517.295285303997
 20
3063.430633411773
 11
-1519.51510154734
 21
3521.425253921496
  0
LINE
  5
1B4
100
AcDbEntity
  8
0
  6
ByLayer
 62
  256
370
   -1
100
AcDbLine
 10
-1519.51510154734
 20
3521.425253921496
 11
-2101.508265601181
 21
3518.60443939393
  0
LINE
  5
1B5
100
AcDbEntity
  8
0
  6
ByLayer
 62
  256
370
   -1
100
AcDbLine
 10
-2101.508265601181
 20
3518.60443939393
 11
-2099.288449357839
 21
3060.609818884206
  0
LINE
  5
1B6
100
AcDbEntity
  8
0
  6
ByLayer
 62
  256
370
   -1
100
AcDbLine
 10
-2099.288449357839
 20
3060.609818884206
 11
-1517.295285303997
 21
3063.430633411773
  0
LINE
  5
1B7
100
AcDbEntity
  8
0
  6
ByLayer
 62
  256
370
   -1
100
AcDbLine
 10
-3149.69346135375
 20
1987.614909123897
 11
-3151.913277597093
 21
2445.609529633621
  0
LINE
  5
1B8
100
AcDbEntity
  8
0
  6
ByLayer
 62
  256
370
   -1
100
AcDbLine
 10
-3151.913277597093
 20
2445.609529633621
 11
-3733.906441650934
 21
2442.788715106054
  0
LINE
  5
1B9
100
AcDbEntity
  8
0
  6
ByLayer
 62
  256
370
   -1
100
AcDbLine
 10
-3733.906441650934
 20
2442.788715106054
 11
-3731.686625407591
 21
1984.794094596331
  0
LINE
  5
1BA
100
AcDbEntity
  8
0
  6
ByLayer
 62
  256
370
   -1
100
AcDbLine
 10
-3731.686625407591
 20
1984.794094596331
 11
-3149.69346135375
 21
1987.614909123897
  0
LINE
  5
1BB
100
AcDbEntity
  8
0
  6
ByLayer
 62
  256
370
   -1
100
AcDbLine
 10
-3088.077565842008
 20
2450.834194975896
 11
-2951.087500270955
 21
2449.184366245819
  0
LINE
  5
1BC
100
AcDbEntity
  8
0
  6
ByLayer
 62
  256
370
   -1
100
AcDbLine
 10
-3093.59302202565
 20
1992.86740606748
 11
-2956.602956454597
 21
1991.217577337402
  0
LINE
  5
1BD
100
AcDbEntity
  8
0
  6
ByLayer
 62
  256
370
   -1
100
AcDbLine
 10
-2951.087500270955
 20
2449.184366245819
 11
-2956.602956454597
 21
1991.217577337402
  0
LINE
  5
1BE
100
AcDbEntity
  8
0
  6
ByLayer
 62
  256
370
   -1
100
AcDbLine
 10
-3088.077565842008
 20
2450.834194975896
 11
-3093.59302202565
 21
1992.86740606748
  0
LINE
  5
1BF
100
AcDbEntity
  8
0
  6
ByLayer
 62
  256
370
   -1
100
AcDbLine
 10
-2565.119380340678
 20
2493.128349429027
 11
-2565.119380340678
 21
2534.128349429027
  0
LINE
  5
1C0
100
AcDbEntity
  8
0
  6
ByLayer
 62
  256
370
   -1
100
AcDbLine
 10
-2565.119380340678
 20
2534.128349889722
 11
-2565.119130547052
 21
2743.128349889572
  0
LINE
  5
1C1
100
AcDbEntity
  8
0
  6
ByLayer
 62
  256
370
   -1
100
AcDbLine
 10
-2565.119130583812
 20
2743.128349888319
 11
-2565.119121715884
 21
2880.128349888319
  0
LINE
  5
1C2
100
AcDbEntity
  8
0
  6
ByLayer
 62
  256
370
   -1
100
AcDbLine
 10
-2107.119380340678
 20
2493.128349429027
 11
-2107.119380340678
 21
2534.128349429027
  0
LINE
  5
1C3
100
AcDbEntity
  8
0
  6
ByLayer
 62
  256
370
   -1
100
AcDbLine
 10
-2107.119380340678
 20
2534.128349889722
 11
-2107.119130547052
 21
2743.128349889572
  0
LINE
  5
1C4
100
AcDbEntity
  8
0
  6
ByLayer
 62
  256
370
   -1
100
AcDbLine
 10
-2107.119130583812
 20
2743.128349888319
 11
-2107.119121715884
 21
2880.128349888319
  0
LINE
  5
1C5
100
AcDbEntity
  8
0
  6
ByLayer
 62
  256
370
   -1
100
AcDbLine
 10
-2565.119121715884
 20
2880.128349888319
 11
-2107.119121715884
 21
2880.128349888319
  0
LINE
  5
1C6
100
AcDbEntity
  8
0
  6
ByLayer
 62
  256
370
   -1
100
AcDbLine
 10
-2107.119130547052
 20
2743.128349889572
 11
-2565.119130547052
 21
2743.128349889572
  0
LINE
  5
1C7
100
AcDbEntity
  8
0
  6
ByLayer
 62
  256
370
   -1
100
AcDbLine
 10
-2565.119380340678
 20
2534.128349889722
 11
-2107.119380340678
 21
2534.128349889722
  0
LINE
  5
1C8
100
AcDbEntity
  8
0
  6
ByLayer
 62
  256
370
   -1
100
AcDbLine
 10
-2107.119380340678
 20
2493.128349429027
 11
-2565.119380340678
 21
2493.128349429027
  0
LWPOLYLINE
  5
1C9
100
AcDbEntity
  8
0
  6
ByLayer
 62
  256
370
   -1
100
AcDbPolyline
 90
    4
 70
    1
 43
0
 10
-3900
 20
3200
 10
-2800
 20
3200
 10
-2800
 20
1900
 10
-3900
 20
1900
  0
LINE
  5
1CA
100
AcDbEntity
  8
0
  6
ByLayer
 62
  256
370
   -1
100
AcDbLine
 10
-5232.604826967872
 20
13.18834007871578
 11
-5232.604826967872
 21
-120
  0
LINE
  5
1CB
100
AcDbEntity
  8
0
  6
ByLayer
 62
  256
370
   -1
100
AcDbLine
 10
-5937.275749735253
 20
-29.12966286977849
 11
-4937.275749735253
 21
-29.12966286977849
  0
LINE
  5
1CC
100
AcDbEntity
  8
0
  6
ByLayer
 62
  256
370
   -1
100
AcDbLine
 10
-4855.275749735253
 20
150.8703371302215
 11
-5223.275749735253
 21
150.8703371302215
  0
LINE
  5
1CD
100
AcDbEntity
  8
0
  6
ByLayer
 62
  256
370
   -1
100
AcDbLine
 10
-4854.275749735253
 20
-70.12966286977849
 11
-4854.275749735253
 21
149.8703371302215
  0
ARC
  5
1CE
100
AcDbEntity
  8
0
  6
ByLayer
 62
  256
370
   -1
100
AcDbCircle
 10
-5436.275749735253
 20
-29.94405308602309
 40
2
100
AcDbArc
 50
101.681931520964
 51
180
  0
ARC
  5
1CF
100
AcDbEntity
  8
0
  6
ByLayer
 62
  256
370
   -1
100
AcDbCircle
 10
-5234.496784838171
 20
14.83945943019526
 40
2
100
AcDbArc
 50
281.6819315209634
 51
356.095396291279
  0
LINE
  5
1D0
100
AcDbEntity
  8
0
  6
ByLayer
 62
  256
370
   -1
100
AcDbLine
 10
-5232.501427216981
 20
14.70326852168987
 11
-5231.087706484567
 21
35.41594654559344
  0
LINE
  5
1D1
100
AcDbEntity
  8
0
  6
ByLayer
 62
  256
370
   -1
100
AcDbLine
 10
-5231.087706484567
 20
35.41594654559344
 11
-5223.275749735253
 21
149.8703371302215
  0
LINE
  5
1D2
100
AcDbEntity
  8
0
  6
ByLayer
 62
  256
370
   -1
100
AcDbLine
 10
-5232.085385295163
 20
35.48404199984623
 11
-5224.273428545848
 21
149.9384325844742
  0
DIMENSION
  5
1D3
100
AcDbEntity
  8
0
  6
ByLayer
 62
  256
370
   -1
100
AcDbDimension
  2
*D3
 10
-5280.020853336622
 20
18.70756093667832
 30
0
 11
-5277.30450938397
 21
86.04008487923508
 31
0
 70
   33
 71
    5
  3
Standard
 53
0
210
0
220
0
230
1
100
AcDbAlignedDimension
 13
-5224.273428545848
 23
149.9384325844742
 33
0
 14
-5233.447411990883
 24
15.52874265280824
 34
0
  0
DIMENSION
  5
1D4
100
AcDbEntity
  8
0
  6
ByLayer
 62
  256
370
   -1
100
AcDbDimension
  2
*D4
 10
-5265.605623251587
 20
37.77192844792874
 30
0
 11
-5268.157278530559
 21
27.92204329575438
 31
0
 70
   33
 71
    5
  3
Standard
 53
0
210
0
220
0
230
1
100
AcDbAlignedDimension
 13
-5233.447400313377
 23
15.5289137420501
 33
0
 14
-5232.085385295163
 24
35.48404199984623
 34
0
  0
DIMENSION
  5
1D5
100
AcDbEntity
  8
0
  6
ByLayer
 62
  256
370
   -1
100
AcDbDimension
  2
*D5
 10
-5255.21893155177
 20
152.0505833707676
 30
0
 11
-5260.995557696293
 21
94.95106705517745
 31
0
 70
   33
 71
    5
  3
Standard
 53
0
210
0
220
0
230
1
100
AcDbAlignedDimension
 13
-5232.085385295163
 23
35.48404199984623
 33
0
 14
-5224.273428545848
 24
149.9384325844742
 34
0
  0
LINE
  5
1D6
100
AcDbEntity
  8
0
  6
ByLayer
 62
  256
370
   -1
100
AcDbLine
 10
-5438.275749735253
 20
-29.94405308602309
 11
-5438.275749735253
 21
-71.12966286977849
  0
LINE
  5
1D7
100
AcDbEntity
  8
0
  6
ByLayer
 62
  256
370
   -1
100
AcDbLine
 10
-5438.275749735253
 20
-71.12966286977849
 11
-4855.275749735253
 21
-71.12966286977849
  0
LINE
  5
1D8
100
AcDbEntity
  8
0
  6
ByLayer
 62
  256
370
   -1
100
AcDbLine
 10
-5232.085385295162
 20
35.48404199984613
 11
-5231.087706484567
 21
35.41594654559344
  0
LINE
  5
1D9
100
AcDbEntity
  8
0
  6
ByLayer
 62
  256
370
   -1
100
AcDbLine
 10
-6566.912130693507
 20
-29.94405308602309
 11
-6566.912130693507
 21
-71.12966286977849
  0
LINE
  5
1DA
100
AcDbEntity
  8
0
  6
ByLayer
 62
  256
370
   -1
100
AcDbLine
 10
-6565.912130693507
 20
-71.12966286977849
 11
-6565.912130693507
 21
-30.75844330226757
  0
LINE
  5
1DB
100
AcDbEntity
  8
0
  6
ByLayer
 62
  256
370
   -1
100
AcDbLine
 10
-5437.275749735253
 20
-71.12966286977849
 11
-5437.275749735253
 21
-29.94405308602274
  0
LINE
  5
1DC
100
AcDbEntity
  8
0
  6
ByLayer
 62
  256
370
   -1
100
AcDbLine
 10
-5234.091827872157
 20
12.88088600658382
 11
-5436.47822821826
 21
-28.96476637421728
  0
ARC
  5
1DD
100
AcDbEntity
  8
0
  6
ByLayer
 62
  256
370
   -1
100
AcDbCircle
 10
-5436.275749735253
 20
-29.94405308602273
 40
1
100
AcDbArc
 50
101.6819315209666
 51
180.0000000000006
  0
LINE
  5
1DE
100
AcDbEntity
  8
0
  6
ByLayer
 62
  256
370
   -1
100
AcDbLine
 10
-5234.294306355163
 20
13.86017271838963
 11
-5436.680706701268
 21
-27.98547966241176
  0
LINE
  5
1DF
100
AcDbEntity
  8
0
  6
ByLayer
 62
  256
370
   -1
100
AcDbLine
 10
-5233.499106027575
 20
14.77136397594277
 11
-5232.085385295162
 21
35.48404199984613
  0
ARC
  5
1E0
100
AcDbEntity
  8
0
  6
ByLayer
 62
  256
370
   -1
100
AcDbCircle
 10
-5234.49678483817
 20
14.83945943019545
 40
1
100
AcDbArc
 50
281.6819315209622
 51
356.0953962912797
  0
ARC
  5
1E1
100
AcDbEntity
  8
0
  6
ByLayer
 62
  256
370
   -1
100
AcDbCircle
 10
-6564.912130693507
 20
-29.9439616037038
 40
2
100
AcDbArc
 50
101.681931520964
 51
180
  0
ARC
  5
1E2
100
AcDbEntity
  8
0
  6
ByLayer
 62
  256
370
   -1
100
AcDbCircle
 10
-6564.912130693507
 20
-29.94396160370344
 40
1
100
AcDbArc
 50
102.4489093018035
 51
180.0000000000006
  0
LINE
  5
1E3
100
AcDbEntity
  8
0
  6
ByLayer
 62
  256
370
   -1
100
AcDbLine
 10
-6565.912130693507
 20
-30.75844330226757
 11
-6565.912130693507
 21
-29.94396160370345
  0
LINE
  5
1E4
100
AcDbEntity
  8
0
  6
ByLayer
 62
  256
370
   -1
100
AcDbLine
 10
-6566.912130693507
 20
-71.12966286977849
 11
-6565.912130693507
 21
-71.12966286977849
  0
DIMENSION
  5
1E5
100
AcDbEntity
  8
0
  6
ByLayer
 62
  256
370
   -1
100
AcDbDimension
  2
*D6
 10
-6583.320980378129
 20
-71.12966286977849
 30
0
 11
-6585.195980378129
 21
-50.53681223674114
 31
0
 70
   33
 71
    5
  3
Standard
 53
0
210
0
220
0
230
1
100
AcDbAlignedDimension
 13
-6566.912130693507
 23
-29.9439616037038
 33
0
 14
-6566.912130693507
 24
-71.12966286977849
 34
0
  0
LINE
  5
1E6
100
AcDbEntity
  8
0
  6
ByLayer
 62
  256
370
   -1
100
AcDbLine
 10
-6359.790348694993
 20
13.48832145560528
 11
-6565.101482414861
 21
-28.96205226939563
  0
LINE
  5
1E7
100
AcDbEntity
  8
0
  6
ByLayer
 62
  256
370
   -1
100
AcDbLine
 10
-6360.736327630142
 20
14.31388113134475
 11
-6565.317087659521
 21
-27.98547966241176
  0
LINE
  5
1E8
100
AcDbEntity
  8
0
  6
ByLayer
 62
  256
370
   -1
100
AcDbLine
 10
-6359.145921136213
 20
16.13625770875207
 11
-6357.783906117998
 21
36.0913859665481
  0
LINE
  5
1E9
100
AcDbEntity
  8
0
  6
ByLayer
 62
  256
370
   -1
100
AcDbLine
 10
-6358.199948039817
 20
15.31061248839184
 11
-6356.786227307403
 21
36.0232905122954
  0
LINE
  5
1EA
100
AcDbEntity
  8
0
  6
ByLayer
 62
  256
370
   -1
100
AcDbLine
 10
-6357.783906117998
 20
36.0913859665481
 11
-6356.786227307403
 21
36.0232905122954
  0
ARC
  5
1EB
100
AcDbEntity
  8
0
  6
ByLayer
 62
  256
370
   -1
100
AcDbCircle
 10
-6360.195305661007
 20
15.44689487921651
 40
2
100
AcDbArc
 50
281.6819315209634
 51
356.095396291279
  0
ARC
  5
1EC
100
AcDbEntity
  8
0
  6
ByLayer
 62
  256
370
   -1
100
AcDbCircle
 10
-6360.195305661006
 20
15.44689487921671
 40
1
100
AcDbArc
 50
281.6819315209622
 51
356.0953962912797
  0
LINE
  5
1ED
100
AcDbEntity
  8
0
  6
ByLayer
 62
  256
370
   -1
100
AcDbLine
 10
-6359.197626850411
 20
15.37879942496404
 11
-6359.145921136213
 21
16.13625770875207
  0
LINE
  5
1EE
100
AcDbEntity
  8
0
  6
ByLayer
 62
  256
370
   -1
100
AcDbLine
 10
-6360.736327630142
 20
14.31388113134475
 11
-6359.992827177999
 21
14.46769964973057
  0
DIMENSION
  5
1EF
100
AcDbEntity
  8
0
  6
ByLayer
 62
  256
370
   -1
100
AcDbDimension
  2
*D7
 10
-6570.232880184478
 20
-4.210169074399843
 30
0
 11
-6467.950397099356
 21
18.85253742514733
 31
0
 70
   33
 71
    5
  3
Standard
 53
0
210
0
220
0
230
1
100
AcDbAlignedDimension
 13
-6359.992827177999
 23
14.46769964973057
 33
0
 14
-6565.317087659521
 24
-27.98538818009257
 34
0
  0
DIMENSION
  5
1F0
100
AcDbEntity
  8
0
  6
ByLayer
 62
  256
370
   -1
100
AcDbDimension
  2
*D8
 10
-6341.17949477974
 20
14.14890043835669
 30
0
 11
-6342.343282183398
 21
24.63291842703233
 31
0
 70
   33
 71
    5
  3
Standard
 53
0
210
0
220
0
230
1
100
AcDbAlignedDimension
 13
-6356.786227307402
 23
36.02329051229527
 33
0
 14
-6358.199948039817
 24
15.31061248839184
 34
0
  0
LINE
  5
1F1
100
AcDbEntity
  8
0
  6
ByLayer
 62
  256
370
   -1
100
AcDbLine
 10
-6565.912130693507
 20
-71.12966286977849
 11
-6259.786672225904
 21
-71.12966286977849
  0
LINE
  5
1F2
100
AcDbEntity
  8
0
  6
ByLayer
 62
  256
370
   -1
100
AcDbLine
 10
-6359.790348694993
 20
13.48832145560528
 11
-6359.790348694993
 21
-94.51405348759353
  0
LINE
  5
1F3
100
AcDbEntity
  8
0
  6
ByLayer
 62
  256
370
   -1
100
AcDbLine
 10
-6359.790348694993
 20
13.48832145388542
 11
-6359.790348694993
 21
-71.12966286977849
  0
DIMENSION
  5
1F4
100
AcDbEntity
  8
0
  6
ByLayer
 62
  256
370
   -1
100
AcDbDimension
  2
*D9
 10
-6322.878060676621
 20
13.48832145560527
 30
0
 11
-6324.753060676621
 21
-28.82067070708661
 31
0
 70
   33
 71
    5
  3
Standard
 53
0
210
0
220
0
230
1
100
AcDbAlignedDimension
 13
-6359.790348694993
 23
-71.12966286977849
 33
0
 14
-6359.790348694993
 24
13.48832145560528
 34
0
  0
LINE
  5
1F5
100
AcDbEntity
  8
0
  6
ByLayer
 62
  256
370
   -1
100
AcDbLine
 10
-6565.912130693508
 20
-29.94403337282347
 11
-6348.374945545123
 21
-29.94403337282347
  0
DIMENSION
  5
1F6
100
AcDbEntity
  8
0
  6
ByLayer
 62
  256
370
   -1
100
AcDbDimension
  2
*D10
 10
-6335.879235469829
 20
-29.94403337282398
 30
0
 11
-6337.754235469829
 21
-8.227855959469499
 31
0
 70
   33
 71
    5
  3
Standard
 53
0
210
0
220
0
230
1
100
AcDbAlignedDimension
 13
-6359.790348694993
 23
13.48832145388542
 33
0
 14
-6359.790348694994
 24
-29.94403337282347
 34
0
  0
DIMENSION
  5
1F7
100
AcDbEntity
  8
0
  6
ByLayer
 62
  256
370
   -1
100
AcDbDimension
  2
*D11
 10
-6336.166433658341
 20
-29.94403337282295
 30
0
 11
-6334.29143365834
 21
-50.53684812130041
 31
0
 70
   33
 71
    5
  3
Standard
 53
0
210
0
220
0
230
1
100
AcDbAlignedDimension
 13
-6359.790348694993
 23
-71.12966286977849
 33
0
 14
-6359.790348694994
 24
-29.94403337282347
 34
0
  0
LINE
  5
1F8
100
AcDbEntity
  8
0
  6
ByLayer
 62
  256
370
   -1
100
AcDbLine
 10
-6357.783906117998
 20
36.09138596654807
 11
-6390.751140886285
 21
36.09138596654807
  0
LINE
  5
1F9
100
AcDbEntity
  8
0
  6
ByLayer
 62
  256
370
   -1
100
AcDbLine
 10
-6359.992827177999
 20
-485.5323003502695
 11
-6359.992827177999
 21
514.4676996497305
  0
LINE
  5
1FA
100
AcDbEntity
  8
0
  6
ByLayer
 62
  256
370
   -1
100
AcDbLine
 10
-6357.783906117998
 20
-463.908614033452
 11
-6357.783906117998
 21
536.091385966548
  0
DIMENSION
  5
1FB
100
AcDbEntity
  8
0
  6
ByLayer
 62
  256
370
   -1
100
AcDbDimension
  2
*D12
 10
-6392.44636236229
 20
14.46769964973058
 30
0
 11
-6394.32136236229
 21
25.27954280813842
 31
0
 70
   32
 71
    5
  3
Standard
 53
0
210
0
220
0
230
1
100
AcDbAlignedDimension
 13
-6357.783906117998
 23
36.09138596654626
 33
0
 14
-6359.992827177999
 24
14.46769964973057
 34
0
 50
90
100
AcDbRotatedDimension
  0
ENDSEC
  0
SECTION
  2
OBJECTS
  0
DICTIONARY
  5
C
330
0
100
AcDbDictionary
281
    1
  3
ACAD_GROUP
350
D
  0
DICTIONARY
  5
D
330
C
100
AcDbDictionary
281
    1
  0
ENDSEC
  0
EOF
