999
dxfrw 0.6.3
  0
SECTION
  2
HEADER
  9
$ACADVER
  1
AC1021
  9
$DWGCODEPAGE
  3
ANSI_1252
  9
$INSBASE
 10
0
 20
0
 30
0
  9
$EXTMIN
 10
-9
 20
-9
 30
0
  9
$EXTMAX
 10
9
 20
9
 30
0
  9
$LIMMIN
 10
0
 20
0
  9
$LIMMAX
 10
420
 20
297
  9
$ORTHOMODE
 70
    0
  9
$REGENMODE
 70
    1
  9
$FILLMODE
 70
    1
  9
$QTEXTMODE
 70
    0
  9
$MIRRTEXT
 70
    0
  9
$LTSCALE
 40
1
  9
$ATTMODE
 70
    0
  9
$TEXTSIZE
 40
2.5
  9
$TRACEWID
 40
15.68
  9
$TEXTSTYLE
  7
STANDARD
  9
$CLAYER
  8
0
  9
$CELTYPE
  6
BYLAYER
  9
$CECOLOR
 62
  256
  9
$CELTSCALE
 40
1
  9
$DISPSILH
 70
    0
  9
$DIMSCALE
 40
2.5
  9
$DIMASZ
 40
2.5
  9
$DIMEXO
 40
0.625
  9
$DIMDLI
 40
3.75
  9
$DIMRND
 40
0
  9
$DIMDLE
 40
0
  9
$DIMEXE
 40
1.25
  9
$DIMTP
 40
0
  9
$DIMTM
 40
0
  9
$DIMTXT
 40
2.5
  9
$DIMCEN
 40
2.5
  9
$DIMTSZ
 40
0
  9
$DIMTOL
 70
    0
  9
$DIMLIM
 70
    0
  9
$DIMTIH
 70
    0
  9
$DIMTOH
 70
    0
  9
$DIMSE1
 70
    0
  9
$DIMSE2
 70
    0
  9
$DIMTAD
 70
    1
  9
$DIMZIN
 70
    1
  9
$DIMBLK
  1

  9
$DIMASO
 70
    1
  9
$DIMSHO
 70
    1
  9
$DIMPOST
  1

  9
$DIMAPOST
  1

  9
$DIMALT
 70
    0
  9
$DIMALTD
 70
    3
  9
$DIMALTF
 40
0.03937
  9
$DIMLFAC
 40
1
  9
$DIMTOFL
 70
    1
  9
$DIMTVP
 40
0
  9
$DIMTIX
 70
    0
  9
$DIMSOXD
 70
    0
  9
$DIMSAH
 70
    0
  9
$DIMBLK1
  1

  9
$DIMBLK2
  1

  9
$DIMSTYLE
  2
STANDARD
  9
$DIMCLRD
 70
    0
  9
$DIMCLRE
 70
    0
  9
$DIMCLRT
 70
    0
  9
$DIMTFAC
 40
1
  9
$DIMGAP
 40
0.625
  9
$DIMJUST
 70
    0
  9
$DIMSD1
 70
    0
  9
$DIMSD2
 70
    0
  9
$DIMTOLJ
 70
    0
  9
$DIMTZIN
 70
    8
  9
$DIMALTZ
 70
    0
  9
$DIMALTTZ
 70
    0
  9
$DIMUPT
 70
    0
  9
$DIMDEC
 70
    4
  9
$DIMTDEC
 70
    2
  9
$DIMALTU
 70
    2
  9
$DIMALTTD
 70
    3
  9
$DIMTXSTY
  7
standard
  9
$DIMAUNIT
 70
    0
  9
$DIMADEC
 70
    2
  9
$DIMALTRND
 40
0
  9
$DIMAZIN
 70
    0
  9
$DIMDSEP
 70
    0
  9
$DIMATFIT
 70
    3
  9
$DIMFRAC
 70
    0
  9
$DIMLDRBLK
  1
STANDARD
  9
$DIMLUNIT
 70
    2
  9
$DIMLWD
 70
   -2
  9
$DIMLWE
 70
   -2
  9
$DIMTMOVE
 70
    0
  9
$DIMFXL
 40
1
  9
$DIMFXLON
 70
    0
  9
$DIMJOGANG
 40
0.7854
  9
$DIMTFILL
 70
    0
  9
$DIMTFILLCLR
 70
    0
  9
$DIMARCSYM
 70
    0
  9
$DIMLTYPE
  6

  9
$DIMLTEX1
  6

  9
$DIMLTEX2
  6

  9
$LUNITS
 70
    2
  9
$LUPREC
 70
    4
  9
$SKETCHINC
 40
1
  9
$FILLETRAD
 40
0
  9
$AUNITS
 70
    0
  9
$AUPREC
 70
    2
  9
$MENU
  1
.
  9
$ELEVATION
 40
0
  9
$PELEVATION
 40
0
  9
$THICKNESS
 40
0
  9
$LIMCHECK
 70
    0
  9
$CHAMFERA
 40
0
  9
$CHAMFERB
 40
0
  9
$CHAMFERC
 40
0
  9
$CHAMFERD
 40
0
  9
$SKPOLY
 70
    0
  9
$USRTIMER
 70
    1
  9
$ANGBASE
 50
0
  9
$ANGDIR
 70
    0
  9
$PDMODE
 70
   34
  9
$PDSIZE
 40
0
  9
$PLINEWID
 40
0
  9
$SPLFRAME
 70
    0
  9
$SPLINETYPE
 70
    2
  9
$SPLINESEGS
 70
    8
  9
$HANDSEED
  5
20000
  9
$SURFTAB1
 70
    6
  9
$SURFTAB2
 70
    6
  9
$SURFTYPE
 70
    6
  9
$SURFU
 70
    6
  9
$SURFV
 70
    6
  9
$UCSBASE
  2

  9
$UCSNAME
  2

  9
$UCSORG
 10
0
 20
0
 30
0
  9
$UCSXDIR
 10
1
 20
0
 30
0
  9
$UCSYDIR
 10
0
 20
1
 30
0
  9
$UCSORTHOREF
  2

  9
$UCSORTHOVIEW
 70
    0
  9
$UCSORGTOP
 10
0
 20
0
 30
0
  9
$UCSORGBOTTOM
 10
0
 20
0
 30
0
  9
$UCSORGLEFT
 10
0
 20
0
 30
0
  9
$UCSORGRIGHT
 10
0
 20
0
 30
0
  9
$UCSORGFRONT
 10
0
 20
0
 30
0
  9
$UCSORGBACK
 10
0
 20
0
 30
0
  9
$PUCSBASE
  2

  9
$PUCSNAME
  2

  9
$PUCSORG
 10
0
 20
0
 30
0
  9
$PUCSXDIR
 10
1
 20
0
 30
0
  9
$PUCSYDIR
 10
0
 20
1
 30
0
  9
$PUCSORTHOREF
  2

  9
$PUCSORTHOVIEW
 70
    0
  9
$PUCSORGTOP
 10
0
 20
0
 30
0
  9
$PUCSORGBOTTOM
 10
0
 20
0
 30
0
  9
$PUCSORGLEFT
 10
0
 20
0
 30
0
  9
$PUCSORGRIGHT
 10
0
 20
0
 30
0
  9
$PUCSORGFRONT
 10
0
 20
0
 30
0
  9
$PUCSORGBACK
 10
0
 20
0
 30
0
  9
$USERI1
 70
    0
  9
$USERI2
 70
    0
  9
$USERI3
 70
    0
  9
$USERI4
 70
    0
  9
$USERI5
 70
    0
  9
$USERR1
 40
0
  9
$USERR2
 40
0
  9
$USERR3
 40
0
  9
$USERR4
 40
0
  9
$USERR5
 40
0
  9
$WORLDVIEW
 70
    1
  9
$SHADEDGE
 70
    3
  9
$SHADEDIF
 70
   70
  9
$TILEMODE
 70
    1
  9
$MAXACTVP
 70
   64
  9
$PINSBASE
 10
0
 20
0
 30
0
  9
$PLIMCHECK
 70
    0
  9
$PEXTMIN
 10
0
 20
0
 30
0
  9
$PEXTMAX
 10
0
 20
0
 30
0
  9
$GRIDMODE
 70
    1
  9
$SNAPSTYLE
 70
    0
  9
$GRIDUNIT
 10
0.01
 20
0.01
  9
$PLIMMIN
 10
0
 20
0
  9
$PLIMMAX
 10
297
 20
210
  9
$UNITMODE
 70
    0
  9
$VISRETAIN
 70
    1
  9
$PLINEGEN
 70
    0
  9
$PSLTSCALE
 70
    1
  9
$TREEDEPTH
 70
 3020
  9
$CMLSTYLE
  2
Standard
  9
$CMLJUST
 70
    0
  9
$CMLSCALE
 40
20
  9
$PROXYGRAPHICS
 70
    1
  9
$MEASUREMENT
 70
    1
  9
$CELWEIGHT
370
   -1
  9
$ENDCAPS
280
    0
  9
$JOINSTYLE
280
    0
  9
$LWDISPLAY
290
    0
  9
$INSUNITS
 70
    4
  9
$HYPERLINKBASE
  1

  9
$STYLESHEET
  1

  9
$XEDIT
290
    1
  9
$CEPSNTYPE
380
    0
  9
$PSTYLEMODE
290
    1
  9
$EXTNAMES
290
    1
  9
$PSVPSCALE
 40
0
  9
$OLESTARTUP
290
    0
  9
$SORTENTS
280
  127
  9
$INDEXCTL
280
    0
  9
$HIDETEXT
280
    1
  9
$XCLIPFRAME
290
    0
  9
$HALOGAP
280
    0
  9
$OBSCOLOR
 70
  257
  9
$OBSLTYPE
280
    0
  9
$INTERSECTIONDISPLAY
280
    0
  9
$INTERSECTIONCOLOR
 70
  257
  9
$DIMASSOC
280
    1
  9
$PROJECTNAME
  1

  9
$CAMERADISPLAY
290
    0
  9
$LENSLENGTH
 40
50
  9
$CAMERAHEIGHT
 40
0
  9
$STEPSPERSEC
 40
2
  9
$STEPSIZE
 40
50
  9
$3DDWFPREC
 40
2
  9
$PSOLWIDTH
 40
5
  9
$PSOLHEIGHT
 40
80
  9
$LOFTANG1
 40
1.570796326794897
  9
$LOFTANG2
 40
1.570796326794897
  9
$LOFTMAG1
 40
0
  9
$LOFTMAG2
 40
0
  9
$LOFTPARAM
 70
    7
  9
$LOFTNORMALS
280
    1
  9
$LATITUDE
 40
1
  9
$LONGITUDE
 40
1
  9
$NORTHDIRECTION
 40
0
  9
$TIMEZONE
 70
-8000
  9
$LIGHTGLYPHDISPLAY
280
    1
  9
$TILEMODELIGHTSYNCH
280
    1
  9
$SOLIDHIST
280
    1
  9
$SHOWHIST
280
    1
  9
$DWFFRAME
280
    2
  9
$DGNFRAME
280
    0
  9
$REALWORLDSCALE
290
    1
  9
$INTERFERECOLOR
 62
    1
  9
$CSHADOW
280
    0
  9
$SHADOWPLANELOCATION
 40
0
  0
ENDSEC
  0
SECTION
  2
CLASSES
  0
ENDSEC
  0
SECTION
  2
TABLES
  0
TABLE
  2
VPORT
  5
8
330
0
100
AcDbSymbolTable
 70
    1
  0
VPORT
  5
31
330
2
100
AcDbSymbolTableRecord
100
AcDbViewportTableRecord
  2
*ACTIVE
 70
    0
 10
0
 20
0
 11
1
 21
1
 12
8.89579066082525
 22
5.459738817899858
 13
0
 23
0
 14
10
 24
10
 15
0.01
 25
0.01
 16
0
 26
0
 36
1
 17
0
 27
0
 37
0
 40
16.25273601776367
 41
2.037613488975357
 42
50
 43
0
 44
0
 50
0
 51
0
 71
    0
 72
  100
 73
    1
 74
    3
 75
    0
 76
    1
 77
    0
 78
    0
281
    0
 65
    1
110
0
120
0
130
0
111
1
121
0
131
0
112
0
122
1
132
0
 79
    0
146
0
348
10020
 60
    3
 61
    5
292
1
282
    1
141
0
142
0
 63
  250
421
3358443
  0
ENDTAB
  0
TABLE
  2
LTYPE
  5
5
330
0
100
AcDbSymbolTable
 70
    4
  0
LTYPE
  5
14
330
5
100
AcDbSymbolTableRecord
100
AcDbLinetypeTableRecord
  2
ByBlock
 70
    0
  3

 72
   65
 73
    0
 40
0
  0
LTYPE
  5
15
330
5
100
AcDbSymbolTableRecord
100
AcDbLinetypeTableRecord
  2
ByLayer
 70
    0
  3

 72
   65
 73
    0
 40
0
  0
LTYPE
  5
16
330
5
100
AcDbSymbolTableRecord
100
AcDbLinetypeTableRecord
  2
Continuous
 70
    0
  3
Solid line
 72
   65
 73
    0
 40
0
  0
LTYPE
  5
32
330
5
100
AcDbSymbolTableRecord
100
AcDbLinetypeTableRecord
  2
DOT
 70
    0
  3
Dot . . . . . . . . . . . . . . . . . . . . . .
 72
   65
 73
    2
 40
6.35
 49
0
 74
    0
 49
-6.35
 74
    0
  0
LTYPE
  5
33
330
5
100
AcDbSymbolTableRecord
100
AcDbLinetypeTableRecord
  2
DOTTINY
 70
    0
  3
Dot (.15x) .....................................
 72
   65
 73
    2
 40
0.9525
 49
0
 74
    0
 49
-0.9525
 74
    0
  0
LTYPE
  5
34
330
5
100
AcDbSymbolTableRecord
100
AcDbLinetypeTableRecord
  2
DOT2
 70
    0
  3
Dot (.5x) .....................................
 72
   65
 73
    2
 40
3.175
 49
0
 74
    0
 49
-3.175
 74
    0
  0
LTYPE
  5
35
330
5
100
AcDbSymbolTableRecord
100
AcDbLinetypeTableRecord
  2
DOTX2
 70
    0
  3
Dot (2x) .  .  .  .  .  .  .  .  .  .  .  .  .
 72
   65
 73
    2
 40
12.7
 49
0
 74
    0
 49
-12.7
 74
    0
  0
LTYPE
  5
36
330
5
100
AcDbSymbolTableRecord
100
AcDbLinetypeTableRecord
  2
DASHED
 70
    0
  3
Dashed _ _ _ _ _ _ _ _ _ _ _ _ _ _ _ _ _
 72
   65
 73
    2
 40
19.05
 49
12.7
 74
    0
 49
-6.35
 74
    0
  0
LTYPE
  5
37
330
5
100
AcDbSymbolTableRecord
100
AcDbLinetypeTableRecord
  2
DASHEDTINY
 70
    0
  3
Dashed (.15x) _ _ _ _ _ _ _ _ _ _ _ _ _ _ _ _ _
 72
   65
 73
    2
 40
2.8575
 49
1.905
 74
    0
 49
-0.9525
 74
    0
  0
LTYPE
  5
38
330
5
100
AcDbSymbolTableRecord
100
AcDbLinetypeTableRecord
  2
DASHED2
 70
    0
  3
Dashed (.5x) _ _ _ _ _ _ _ _ _ _ _ _ _ _ _ _ _
 72
   65
 73
    2
 40
9.524999999999999
 49
6.35
 74
    0
 49
-3.175
 74
    0
  0
LTYPE
  5
39
330
5
100
AcDbSymbolTableRecord
100
AcDbLinetypeTableRecord
  2
DASHEDX2
 70
    0
  3
Dashed (2x) ____  ____  ____  ____  ____  ___
 72
   65
 73
    2
 40
38.09999999999999
 49
25.4
 74
    0
 49
-12.7
 74
    0
  0
LTYPE
  5
3A
330
5
100
AcDbSymbolTableRecord
100
AcDbLinetypeTableRecord
  2
DASHDOT
 70
    0
  3
Dash dot __ . __ . __ . __ . __ . __ . __ . __
 72
   65
 73
    4
 40
25.4
 49
12.7
 74
    0
 49
-6.35
 74
    0
 49
0
 74
    0
 49
-6.35
 74
    0
  0
LTYPE
  5
3B
330
5
100
AcDbSymbolTableRecord
100
AcDbLinetypeTableRecord
  2
DASHDOTTINY
 70
    0
  3
Dash dot (.15x) _._._._._._._._._._._._._._._.
 72
   65
 73
    4
 40
3.81
 49
1.905
 74
    0
 49
-0.9525
 74
    0
 49
0
 74
    0
 49
-0.9525
 74
    0
  0
LTYPE
  5
3C
330
5
100
AcDbSymbolTableRecord
100
AcDbLinetypeTableRecord
  2
DASHDOT2
 70
    0
  3
Dash dot (.5x) _._._._._._._._._._._._._._._.
 72
   65
 73
    4
 40
12.7
 49
6.35
 74
    0
 49
-3.175
 74
    0
 49
0
 74
    0
 49
-3.175
 74
    0
  0
LTYPE
  5
3D
330
5
100
AcDbSymbolTableRecord
100
AcDbLinetypeTableRecord
  2
DASHDOTX2
 70
    0
  3
Dash dot (2x) ____  .  ____  .  ____  .  ___
 72
   65
 73
    4
 40
50.8
 49
25.4
 74
    0
 49
-12.7
 74
    0
 49
0
 74
    0
 49
-12.7
 74
    0
  0
LTYPE
  5
3E
330
5
100
AcDbSymbolTableRecord
100
AcDbLinetypeTableRecord
  2
DIVIDE
 70
    0
  3
Divide ____ . . ____ . . ____ . . ____ . . ____
 72
   65
 73
    6
 40
31.75
 49
12.7
 74
    0
 49
-6.35
 74
    0
 49
0
 74
    0
 49
-6.35
 74
    0
 49
0
 74
    0
 49
-6.35
 74
    0
  0
LTYPE
  5
3F
330
5
100
AcDbSymbolTableRecord
100
AcDbLinetypeTableRecord
  2
DIVIDETINY
 70
    0
  3
Divide (.15x) __..__..__..__..__..__..__..__.._
 72
   65
 73
    6
 40
4.7625
 49
1.905
 74
    0
 49
-0.9525
 74
    0
 49
0
 74
    0
 49
-0.9525
 74
    0
 49
0
 74
    0
 49
-0.9525
 74
    0
  0
LTYPE
  5
40
330
5
100
AcDbSymbolTableRecord
100
AcDbLinetypeTableRecord
  2
DIVIDE2
 70
    0
  3
Divide (.5x) __..__..__..__..__..__..__..__.._
 72
   65
 73
    6
 40
15.875
 49
6.35
 74
    0
 49
-3.175
 74
    0
 49
0
 74
    0
 49
-3.175
 74
    0
 49
0
 74
    0
 49
-3.175
 74
    0
  0
LTYPE
  5
41
330
5
100
AcDbSymbolTableRecord
100
AcDbLinetypeTableRecord
  2
DIVIDEX2
 70
    0
  3
Divide (2x) ________  .  .  ________  .  .  _
 72
   65
 73
    6
 40
63.5
 49
25.4
 74
    0
 49
-12.7
 74
    0
 49
0
 74
    0
 49
-12.7
 74
    0
 49
0
 74
    0
 49
-12.7
 74
    0
  0
LTYPE
  5
42
330
5
100
AcDbSymbolTableRecord
100
AcDbLinetypeTableRecord
  2
BORDER
 70
    0
  3
Border __ __ . __ __ . __ __ . __ __ . __ __ .
 72
   65
 73
    6
 40
44.45
 49
12.7
 74
    0
 49
-6.35
 74
    0
 49
12.7
 74
    0
 49
-6.35
 74
    0
 49
0
 74
    0
 49
-6.35
 74
    0
  0
LTYPE
  5
43
330
5
100
AcDbSymbolTableRecord
100
AcDbLinetypeTableRecord
  2
BORDERTINY
 70
    0
  3
Border (.15x) __.__.__.__.__.__.__.__.__.__.__.
 72
   65
 73
    6
 40
6.6675
 49
1.905
 74
    0
 49
-0.9525
 74
    0
 49
1.905
 74
    0
 49
-0.9525
 74
    0
 49
0
 74
    0
 49
-0.9525
 74
    0
  0
LTYPE
  5
44
330
5
100
AcDbSymbolTableRecord
100
AcDbLinetypeTableRecord
  2
BORDER2
 70
    0
  3
Border (.5x) __.__.__.__.__.__.__.__.__.__.__.
 72
   65
 73
    6
 40
22.225
 49
6.35
 74
    0
 49
-3.175
 74
    0
 49
6.35
 74
    0
 49
-3.175
 74
    0
 49
0
 74
    0
 49
-3.175
 74
    0
  0
LTYPE
  5
45
330
5
100
AcDbSymbolTableRecord
100
AcDbLinetypeTableRecord
  2
BORDERX2
 70
    0
  3
Border (2x) ____  ____  .  ____  ____  .  ___
 72
   65
 73
    6
 40
88.89999999999999
 49
25.4
 74
    0
 49
-12.7
 74
    0
 49
25.4
 74
    0
 49
-12.7
 74
    0
 49
0
 74
    0
 49
-12.7
 74
    0
  0
LTYPE
  5
46
330
5
100
AcDbSymbolTableRecord
100
AcDbLinetypeTableRecord
  2
CENTER
 70
    0
  3
Center ____ _ ____ _ ____ _ ____ _ ____ _ ____
 72
   65
 73
    4
 40
50.8
 49
31.75
 74
    0
 49
-6.35
 74
    0
 49
6.35
 74
    0
 49
-6.35
 74
    0
  0
LTYPE
  5
47
330
5
100
AcDbSymbolTableRecord
100
AcDbLinetypeTableRecord
  2
CENTERTINY
 70
    0
  3
Center (.15x) ___ _ ___ _ ___ _ ___ _ ___ _ ___
 72
   65
 73
    4
 40
7.619999999999999
 49
4.7625
 74
    0
 49
-0.9525
 74
    0
 49
0.9525
 74
    0
 49
-0.9525
 74
    0
  0
LTYPE
  5
48
330
5
100
AcDbSymbolTableRecord
100
AcDbLinetypeTableRecord
  2
CENTER2
 70
    0
  3
Center (.5x) ___ _ ___ _ ___ _ ___ _ ___ _ ___
 72
   65
 73
    4
 40
28.575
 49
19.05
 74
    0
 49
-3.175
 74
    0
 49
3.175
 74
    0
 49
-3.175
 74
    0
  0
LTYPE
  5
49
330
5
100
AcDbSymbolTableRecord
100
AcDbLinetypeTableRecord
  2
CENTERX2
 70
    0
  3
Center (2x) ________  __  ________  __  _____
 72
   65
 73
    4
 40
101.6
 49
63.5
 74
    0
 49
-12.7
 74
    0
 49
12.7
 74
    0
 49
-12.7
 74
    0
  0
ENDTAB
  0
TABLE
  2
LAYER
  5
2
330
0
100
AcDbSymbolTable
 70
    1
  0
LAYER
  5
10
330
2
100
AcDbSymbolTableRecord
100
AcDbLayerTableRecord
  2
0
 70
    0
 62
    7
  6
CONTINUOUS
370
    0
390
F
  0
ENDTAB
  0
TABLE
  2
STYLE
  5
3
330
0
100
AcDbSymbolTable
 70
    3
  0
STYLE
  5
4A
330
2
100
AcDbSymbolTableRecord
100
AcDbTextStyleTableRecord
  2
Standard
 70
    0
 40
0
 41
1
 50
0
 71
    0
 42
1
  3
txt
  4

  0
ENDTAB
  0
TABLE
  2
VIEW
  5
6
330
0
100
AcDbSymbolTable
 70
    0
  0
ENDTAB
  0
TABLE
  2
UCS
  5
7
330
0
100
AcDbSymbolTable
 70
    0
  0
ENDTAB
  0
TABLE
  2
APPID
  5
9
330
0
100
AcDbSymbolTable
 70
    1
  0
APPID
  5
12
330
9
100
AcDbSymbolTableRecord
100
AcDbRegAppTableRecord
  2
ACAD
 70
    0
  0
APPID
  5
4B
330
9
100
AcDbSymbolTableRecord
100
AcDbRegAppTableRecord
  2
LibreCad
 70
    0
  0
ENDTAB
  0
TABLE
  2
DIMSTYLE
  5
A
330
0
100
AcDbSymbolTable
 70
    1
100
AcDbDimStyleTable
 71
    1
  0
DIMSTYLE
105
4C
330
A
100
AcDbSymbolTableRecord
100
AcDbDimStyleTableRecord
  2
Standard
 70
    0
 40
2.5
 41
2.5
 42
0.625
 43
0.38
 44
1.25
 45
0
 46
0
 47
0
 48
0
 49
1
140
2.5
141
0.09
142
0
143
25.4
144
1
145
0
146
1
147
0.625
148
0
 71
    0
 72
    0
 73
    0
 74
    1
 75
    0
 76
    0
 77
    0
 78
    1
 79
    0
170
    0
171
    2
172
    0
173
    0
174
    0
175
    0
176
    0
177
    0
178
    0
179
    2
271
    4
272
    4
273
    2
274
    2
275
    0
276
    0
277
    2
278
    0
279
    0
280
    0
281
    0
282
    0
283
    1
284
    0
285
    0
286
    0
288
    0
289
    3
340
standard
341

371
   -2
372
   -2
  0
ENDTAB
  0
TABLE
  2
BLOCK_RECORD
  5
1
330
0
100
AcDbSymbolTable
 70
    2
  0
BLOCK_RECORD
  5
1F
330
1
100
AcDbSymbolTableRecord
100
AcDbBlockTableRecord
  2
*Model_Space
 70
    0
280
    1
281
    0
  0
BLOCK_RECORD
  5
1E
330
1
100
AcDbSymbolTableRecord
100
AcDbBlockTableRecord
  2
*Paper_Space
 70
    0
280
    1
281
    0
  0
ENDTAB
  0
ENDSEC
  0
SECTION
  2
BLOCKS
  0
BLOCK
  5
20
330
1F
100
AcDbEntity
  8
0
100
AcDbBlockBegin
  2
*Model_Space
 70
    0
 10
0
 20
0
 30
0
  3
*Model_Space
  1

  0
ENDBLK
  5
21
330
1F
100
AcDbEntity
  8
0
100
AcDbBlockEnd
  0
BLOCK
  5
1C
330
1B
100
AcDbEntity
  8
0
100
AcDbBlockBegin
  2
*Paper_Space
 70
    0
 10
0
 20
0
 30
0
  3
*Paper_Space
  1

  0
ENDBLK
  5
1D
330
1F
100
AcDbEntity
  8
0
100
AcDbBlockEnd
  0
ENDSEC
  0
SECTION
  2
ENTITIES
  0
HATCH
  5
4D
100
AcDbEntity
  8
0
  6
ByLayer
 62
  256
370
   -1
100
AcDbHatch
 10
0
 20
0
 30
0
210
0
220
0
230
1
  2
SOLID
 70
    1
 71
    0
 91
    1
 92
    0
 93
    4
 72
    2
 10
0
 20
0
 40
5
 50
303
 51
306
 73
    1
 72
    1
 10
2.938926261462365
 20
-4.045084971874738
 11
4.702282018339784
 21
-6.47213595499958
 72
    2
 10
0
 20
0
 40
8
 50
54
 51
57.00000000000001
 73
    0
 72
    1
 10
4.357112280120216
 20
-6.709364543563393
 11
2.723195175075134
 21
-4.19335283972712
 97
    0
 75
    0
 76
    1
 98
    0
  0
HATCH
  5
4E
100
AcDbEntity
  8
0
  6
ByLayer
 62
  256
370
   -1
100
AcDbHatch
 10
0
 20
0
 30
0
210
0
220
0
230
1
  2
SOLID
 70
    1
 71
    0
 91
    1
 92
    0
 93
    4
 72
    2
 10
0
 20
0
 40
5
 50
298
 51
300.9999999999999
 73
    1
 72
    1
 10
2.575190374550267
 20
-4.285836503510564
 11
4.120304599280428
 21
-6.857338405616902
 72
    2
 10
0
 20
0
 40
8
 50
58.99999999999999
 51
62.00000000000001
 73
    0
 72
    1
 10
3.75577250228712
 20
-7.063580742871419
 11
2.34735781392945
 21
-4.414737964294637
 97
    0
 75
    0
 76
    1
 98
    0
  0
HATCH
  5
4F
100
AcDbEntity
  8
0
  6
ByLayer
 62
  256
370
   -1
100
AcDbHatch
 10
0
 20
0
 30
0
210
0
220
0
230
1
  2
SOLID
 70
    1
 71
    0
 91
    1
 92
    0
 93
    4
 72
    2
 10
0
 20
0
 40
5
 50
293
 51
295.9999999999999
 73
    1
 72
    1
 10
2.191855733945383
 20
-4.493970231495836
 11
3.506969174312613
 21
-7.190352370393338
 72
    2
 10
0
 20
0
 40
8
 50
63.99999999999999
 51
67
 73
    0
 72
    1
 10
3.125849027914184
 20
-7.364038827619526
 11
1.953655642446365
 21
-4.602524267262202
 97
    0
 75
    0
 76
    1
 98
    0
  0
HATCH
  5
50
100
AcDbEntity
  8
0
  6
ByLayer
 62
  256
370
   -1
100
AcDbHatch
 10
0
 20
0
 30
0
210
0
220
0
230
1
  2
SOLID
 70
    1
 71
    0
 91
    1
 92
    0
 93
    4
 72
    2
 10
0
 20
0
 40
5
 50
288
 51
290.9999999999999
 73
    1
 72
    1
 10
1.791839747726498
 20
-4.66790213248601
 11
2.866943596362397
 21
-7.468643411977617
 72
    2
 10
0
 20
0
 40
8
 50
68.99999999999999
 51
72
 73
    0
 72
    1
 10
2.472135954999574
 20
-7.608452130361231
 11
1.545084971874733
 21
-4.755282581475768
 97
    0
 75
    0
 76
    1
 98
    0
  0
HATCH
  5
51
100
AcDbEntity
  8
0
  6
ByLayer
 62
  256
370
   -1
100
AcDbHatch
 10
0
 20
0
 30
0
210
0
220
0
230
1
  2
SOLID
 70
    1
 71
    0
 91
    1
 92
    0
 93
    4
 72
    2
 10
0
 20
0
 40
5
 50
283
 51
285.9999999999999
 73
    1
 72
    1
 10
1.378186779084993
 20
-4.806308479691594
 11
2.205098846535989
 21
-7.690093567506552
 72
    2
 10
0
 20
0
 40
8
 50
73.99999999999997
 51
77
 73
    0
 72
    1
 10
1.799608434750915
 20
-7.794960518281883
 11
1.124755271719322
 21
-4.871850323926176
 97
    0
 75
    0
 76
    1
 98
    0
  0
HATCH
  5
52
100
AcDbEntity
  8
0
  6
ByLayer
 62
  256
370
   -1
100
AcDbHatch
 10
0
 20
0
 30
0
210
0
220
0
230
1
  2
SOLID
 70
    1
 71
    0
 91
    1
 92
    0
 93
    4
 72
    2
 10
0
 20
0
 40
5
 50
278
 51
281
 73
    1
 72
    1
 10
0.9540449768827213
 20
-4.908135917238321
 11
1.526471963012354
 21
-7.853017467581312
 72
    2
 10
0
 20
0
 40
8
 50
78.99999999999997
 51
81.99999999999999
 73
    0
 72
    1
 10
1.11338480768052
 20
-7.922144549932564
 11
0.6958655048003244
 21
-4.951340343707852
 97
    0
 75
    0
 76
    1
 98
    0
  0
HATCH
  5
53
100
AcDbEntity
  8
0
  6
ByLayer
 62
  256
370
   -1
100
AcDbHatch
 10
0
 20
0
 30
0
210
0
220
0
230
1
  2
SOLID
 70
    1
 71
    0
 91
    1
 92
    0
 93
    4
 72
    2
 10
0
 20
0
 40
5
 50
273
 51
276
 73
    1
 72
    1
 10
0.5226423163382651
 20
-4.972609476841367
 11
0.8362277061412245
 21
-7.956175162946187
 72
    2
 10
0
 20
0
 40
8
 50
83.99999999999997
 51
86.99999999999999
 73
    0
 72
    1
 10
0.4186876499435473
 20
-7.989036278036592
 11
0.2616797812147169
 21
-4.993147673772869
 97
    0
 75
    0
 76
    1
 98
    0
  0
HATCH
  5
54
100
AcDbEntity
  8
0
  6
ByLayer
 62
  256
370
   -1
100
AcDbHatch
 10
0
 20
0
 30
0
210
0
220
0
230
1
  2
SOLID
 70
    1
 71
    0
 91
    1
 92
    0
 93
    4
 72
    2
 10
0
 20
0
 40
5
 50
268
 51
271
 73
    1
 72
    1
 10
0.08726203218641587
 20
-4.999238475781956
 11
0.1396192514982657
 21
-7.99878156125113
 72
    2
 10
0
 20
0
 40
8
 50
88.99999999999996
 51
91.99999999999997
 73
    0
 72
    1
 10
-0.2791959736200103
 20
-7.995126616152766
 11
-0.1744974835125065
 21
-4.996954135095478
 97
    0
 75
    0
 76
    1
 98
    0
  0
HATCH
  5
55
100
AcDbEntity
  8
0
  6
ByLayer
 62
  256
370
   -1
100
AcDbHatch
 10
0
 20
0
 30
0
210
0
220
0
230
1
  2
SOLID
 70
    1
 71
    0
 91
    1
 92
    0
 93
    4
 72
    2
 10
0
 20
0
 40
5
 50
263
 51
266
 73
    1
 72
    1
 10
-0.3487823687206277
 20
-4.987820251299121
 11
-0.5580517899530041
 21
-7.980512402078594
 72
    2
 10
0
 20
0
 40
8
 50
93.99999999999996
 51
96.99999999999997
 73
    0
 72
    1
 10
-0.9749547472411817
 20
-7.940369213130576
 11
-0.6093467170257386
 21
-4.96273075820661
 97
    0
 75
    0
 76
    1
 98
    0
  0
HATCH
  5
56
100
AcDbEntity
  8
0
  6
ByLayer
 62
  256
370
   -1
100
AcDbHatch
 10
0
 20
0
 30
0
210
0
220
0
230
1
  2
SOLID
 70
    1
 71
    0
 91
    1
 92
    0
 93
    4
 72
    2
 10
0
 20
0
 40
5
 50
258.0000000000001
 51
261
 73
    1
 72
    1
 10
-0.782172325201155
 20
-4.938441702975688
 11
-1.251475720321848
 21
-7.901506724761102
 72
    2
 10
0
 20
0
 40
8
 50
98.99999999999994
 51
102
 73
    0
 72
    1
 10
-1.663293526542076
 20
-7.825180805870445
 11
-1.039558454088797
 21
-4.890738003669028
 97
    0
 75
    0
 76
    1
 98
    0
  0
HATCH
  5
57
100
AcDbEntity
  8
0
  6
ByLayer
 62
  256
370
   -1
100
AcDbHatch
 10
0
 20
0
 30
0
210
0
220
0
230
1
  2
SOLID
 70
    1
 71
    0
 91
    1
 92
    0
 93
    4
 72
    2
 10
0
 20
0
 40
5
 50
252.9999999999999
 51
255.9999999999999
 73
    1
 72
    1
 10
-1.209609477998343
 20
-4.851478631379981
 11
-1.935375164797349
 21
-7.762365810207971
 72
    2
 10
0
 20
0
 40
8
 50
104
 51
107.0000000000001
 73
    0
 72
    1
 10
-2.338973637781901
 20
-7.650438047704283
 11
-1.461858523613688
 21
-4.781523779815176
 97
    0
 75
    0
 76
    1
 98
    0
  0
HATCH
  5
58
100
AcDbEntity
  8
0
  6
ByLayer
 62
  256
370
   -1
100
AcDbHatch
 10
0
 20
0
 30
0
210
0
220
0
230
1
  2
SOLID
 70
    1
 71
    0
 91
    1
 92
    0
 93
    4
 72
    2
 10
0
 20
0
 40
5
 50
247.9999999999999
 51
250.9999999999999
 73
    1
 72
    1
 10
-1.627840772285787
 20
-4.727592877996583
 11
-2.604545235657259
 21
-7.564148604794532
 72
    2
 10
0
 20
0
 40
8
 50
109
 51
112.0000000000001
 73
    0
 72
    1
 10
-2.996852747327303
 20
-7.417470836534297
 11
-1.873032967079564
 21
-4.635919272833935
 97
    0
 75
    0
 76
    1
 98
    0
  0
HATCH
  5
59
100
AcDbEntity
  8
0
  6
ByLayer
 62
  256
370
   -1
100
AcDbHatch
 10
0
 20
0
 30
0
210
0
220
0
230
1
  2
SOLID
 70
    1
 71
    0
 91
    1
 92
    0
 93
    4
 72
    2
 10
0
 20
0
 40
5
 50
242.9999999999999
 51
245.9999999999999
 73
    1
 72
    1
 10
-2.033683215379005
 20
-4.567727288213003
 11
-3.253893144606407
 21
-7.308363661140805
 72
    2
 10
0
 20
0
 40
8
 50
114
 51
117.0000000000001
 73
    0
 72
    1
 10
-3.63192399791638
 20
-7.128052193506941
 11
-2.269952498697737
 21
-4.455032620941838
 97
    0
 75
    0
 76
    1
 98
    0
  0
HATCH
  5
5A
100
AcDbEntity
  8
0
  6
ByLayer
 62
  256
370
   -1
100
AcDbHatch
 10
0
 20
0
 30
0
210
0
220
0
230
1
  2
SOLID
 70
    1
 71
    0
 91
    1
 92
    0
 93
    4
 72
    2
 10
0
 20
0
 40
5
 50
237.9999999999999
 51
240.9999999999999
 73
    1
 72
    1
 10
-2.424048101231688
 20
-4.373098535696977
 11
-3.8784769619707
 21
-6.996957657115164
 72
    2
 10
0
 20
0
 40
8
 50
119
 51
122
 73
    0
 72
    1
 10
-4.239354113865645
 20
-6.784384769251406
 11
-2.649596321166027
 21
-4.240240480782128
 97
    0
 75
    0
 76
    1
 98
    0
  0
HATCH
  5
5B
100
AcDbEntity
  8
0
  6
ByLayer
 62
  256
370
   -1
100
AcDbHatch
 10
0
 20
0
 30
0
210
0
220
0
230
1
  2
SOLID
 70
    1
 71
    0
 91
    1
 92
    0
 93
    4
 72
    2
 10
0
 20
0
 40
5
 50
233
 51
236
 73
    1
 72
    1
 10
-2.795964517353736
 20
-4.145187862775207
 11
-4.473543227765978
 21
-6.632300580440332
 72
    2
 10
0
 20
0
 40
8
 50
124
 51
127
 73
    0
 72
    1
 10
-4.814520185216389
 20
-6.389084080378341
 11
-3.009075115760243
 21
-3.993177550236462
 97
    0
 75
    0
 76
    1
 98
    0
  0
HATCH
  5
5C
100
AcDbEntity
  8
0
  6
ByLayer
 62
  256
370
   -1
100
AcDbHatch
 10
0
 20
0
 30
0
210
0
220
0
230
1
  2
SOLID
 70
    1
 71
    0
 91
    1
 92
    0
 93
    4
 72
    2
 10
0
 20
0
 40
5
 50
227.9999999999999
 51
230.9999999999999
 73
    1
 72
    1
 10
-3.146601955249189
 20
-3.885729807284853
 11
-5.034563128398703
 21
-6.217167691655766
 72
    2
 10
0
 20
0
 40
8
 50
129
 51
132.0000000000001
 73
    0
 72
    1
 10
-5.353044850870869
 20
-5.945158603819153
 11
-3.345653031794293
 21
-3.71572412738697
 97
    0
 75
    0
 76
    1
 98
    0
  0
HATCH
  5
5D
100
AcDbEntity
  8
0
  6
ByLayer
 62
  256
370
   -1
100
AcDbHatch
 10
0
 20
0
 30
0
210
0
220
0
230
1
  2
SOLID
 70
    1
 71
    0
 91
    1
 92
    0
 93
    4
 72
    2
 10
0
 20
0
 40
5
 50
222.9999999999999
 51
225.9999999999999
 73
    1
 72
    1
 10
-3.473291852294987
 20
-3.596699001693255
 11
-5.55726696367198
 21
-5.754718402709207
 72
    2
 10
0
 20
0
 40
8
 50
134
 51
137.0000000000001
 73
    0
 72
    1
 10
-5.850829612953365
 20
-5.455986880499986
 11
-3.656768508095853
 21
-3.409991800312491
 97
    0
 75
    0
 76
    1
 98
    0
  0
HATCH
  5
5E
100
AcDbEntity
  8
0
  6
ByLayer
 62
  256
370
   -1
100
AcDbHatch
 10
0
 20
0
 30
0
210
0
220
0
230
1
  2
SOLID
 70
    1
 71
    0
 91
    1
 92
    0
 93
    4
 72
    2
 10
0
 20
0
 40
5
 50
217.9999999999999
 51
220.9999999999999
 73
    1
 72
    1
 10
-3.773547901113862
 20
-3.280295144952534
 11
-6.03767664178218
 21
-5.248472231924055
 72
    2
 10
0
 20
0
 40
8
 50
139
 51
142.0000000000001
 73
    0
 72
    1
 10
-6.30408602885378
 20
-4.925291802605264
 11
-3.940053768033612
 21
-3.078307376628289
 97
    0
 75
    0
 76
    1
 98
    0
  0
HATCH
  5
5F
100
AcDbEntity
  8
0
  6
ByLayer
 62
  256
370
   -1
100
AcDbHatch
 10
0
 20
0
 30
0
210
0
220
0
230
1
  2
SOLID
 70
    1
 71
    0
 91
    1
 92
    0
 93
    4
 72
    2
 10
0
 20
0
 40
5
 50
212.9999999999999
 51
215.9999999999999
 73
    1
 72
    1
 10
-4.045084971874739
 20
-2.938926261462363
 11
-6.472135954999583
 21
-4.702282018339782
 72
    2
 10
0
 20
0
 40
8
 50
144
 51
147
 73
    0
 72
    1
 10
-6.709364543563395
 20
-4.357112280120213
 11
-4.193352839727122
 21
-2.723195175075133
 97
    0
 75
    0
 76
    1
 98
    0
  0
HATCH
  5
60
100
AcDbEntity
  8
0
  6
ByLayer
 62
  256
370
   -1
100
AcDbHatch
 10
0
 20
0
 30
0
210
0
220
0
230
1
  2
SOLID
 70
    1
 71
    0
 91
    1
 92
    0
 93
    4
 72
    2
 10
0
 20
0
 40
5
 50
208
 51
210.9999999999999
 73
    1
 72
    1
 10
-4.285836503510563
 20
-2.575190374550269
 11
-6.8573384056169
 21
-4.120304599280431
 72
    2
 10
0
 20
0
 40
8
 50
149
 51
152
 73
    0
 72
    1
 10
-7.063580742871418
 20
-3.755772502287124
 11
-4.414737964294636
 21
-2.347357813929452
 97
    0
 75
    0
 76
    1
 98
    0
  0
HATCH
  5
61
100
AcDbEntity
  8
0
  6
ByLayer
 62
  256
370
   -1
100
AcDbHatch
 10
0
 20
0
 30
0
210
0
220
0
230
1
  2
SOLID
 70
    1
 71
    0
 91
    1
 92
    0
 93
    4
 72
    2
 10
0
 20
0
 40
5
 50
203
 51
206
 73
    1
 72
    1
 10
-4.493970231495836
 20
-2.191855733945385
 11
-7.190352370393337
 21
-3.506969174312617
 72
    2
 10
0
 20
0
 40
8
 50
154
 51
157
 73
    0
 72
    1
 10
-7.364038827619524
 20
-3.125849027914188
 11
-4.602524267262202
 21
-1.953655642446367
 97
    0
 75
    0
 76
    1
 98
    0
  0
HATCH
  5
62
100
AcDbEntity
  8
0
  6
ByLayer
 62
  256
370
   -1
100
AcDbHatch
 10
0
 20
0
 30
0
210
0
220
0
230
1
  2
SOLID
 70
    1
 71
    0
 91
    1
 92
    0
 93
    4
 72
    2
 10
0
 20
0
 40
5
 50
198
 51
201
 73
    1
 72
    1
 10
-4.667902132486009
 20
-1.7918397477265
 11
-7.468643411977615
 21
-2.866943596362401
 72
    2
 10
0
 20
0
 40
8
 50
159
 51
162
 73
    0
 72
    1
 10
-7.608452130361229
 20
-2.472135954999578
 11
-4.755282581475767
 21
-1.545084971874736
 97
    0
 75
    0
 76
    1
 98
    0
  0
HATCH
  5
63
100
AcDbEntity
  8
0
  6
ByLayer
 62
  256
370
   -1
100
AcDbHatch
 10
0
 20
0
 30
0
210
0
220
0
230
1
  2
SOLID
 70
    1
 71
    0
 91
    1
 92
    0
 93
    4
 72
    2
 10
0
 20
0
 40
5
 50
193
 51
196
 73
    1
 72
    1
 10
-4.806308479691594
 20
-1.378186779084993
 11
-7.690093567506552
 21
-2.205098846535989
 72
    2
 10
0
 20
0
 40
8
 50
164
 51
167
 73
    0
 72
    1
 10
-7.794960518281883
 20
-1.799608434750916
 11
-4.871850323926176
 21
-1.124755271719322
 97
    0
 75
    0
 76
    1
 98
    0
  0
HATCH
  5
64
100
AcDbEntity
  8
0
  6
ByLayer
 62
  256
370
   -1
100
AcDbHatch
 10
0
 20
0
 30
0
210
0
220
0
230
1
  2
SOLID
 70
    1
 71
    0
 91
    1
 92
    0
 93
    4
 72
    2
 10
0
 20
0
 40
5
 50
188
 51
191
 73
    1
 72
    1
 10
-4.908135917238321
 20
-0.9540449768827216
 11
-7.853017467581312
 21
-1.526471963012355
 72
    2
 10
0
 20
0
 40
8
 50
169
 51
172
 73
    0
 72
    1
 10
-7.922144549932564
 20
-1.11338480768052
 11
-4.951340343707852
 21
-0.6958655048003247
 97
    0
 75
    0
 76
    1
 98
    0
  0
HATCH
  5
65
100
AcDbEntity
  8
0
  6
ByLayer
 62
  256
370
   -1
100
AcDbHatch
 10
0
 20
0
 30
0
210
0
220
0
230
1
  2
SOLID
 70
    1
 71
    0
 91
    1
 92
    0
 93
    4
 72
    2
 10
0
 20
0
 40
5
 50
183
 51
186
 73
    1
 72
    1
 10
-4.972609476841367
 20
-0.5226423163382654
 11
-7.956175162946187
 21
-0.836227706141225
 72
    2
 10
0
 20
0
 40
8
 50
174
 51
177
 73
    0
 72
    1
 10
-7.989036278036592
 20
-0.4186876499435478
 11
-4.993147673772869
 21
-0.2616797812147172
 97
    0
 75
    0
 76
    1
 98
    0
  0
HATCH
  5
66
100
AcDbEntity
  8
0
  6
ByLayer
 62
  256
370
   -1
100
AcDbHatch
 10
0
 20
0
 30
0
210
0
220
0
230
1
  2
SOLID
 70
    1
 71
    0
 91
    1
 92
    0
 93
    4
 72
    2
 10
0
 20
0
 40
5
 50
178
 51
181
 73
    1
 72
    1
 10
-4.999238475781956
 20
-0.08726203218641615
 11
-7.99878156125113
 21
-0.1396192514982662
 72
    2
 10
0
 20
0
 40
8
 50
179
 51
182
 73
    0
 72
    1
 10
-7.995126616152766
 20
0.2791959736200099
 11
-4.996954135095478
 21
0.1744974835125063
 97
    0
 75
    0
 76
    1
 98
    0
  0
HATCH
  5
67
100
AcDbEntity
  8
0
  6
ByLayer
 62
  256
370
   -1
100
AcDbHatch
 10
0
 20
0
 30
0
210
0
220
0
230
1
  2
SOLID
 70
    1
 71
    0
 91
    1
 92
    0
 93
    4
 72
    2
 10
0
 20
0
 40
5
 50
173
 51
176
 73
    1
 72
    1
 10
-4.987820251299121
 20
0.3487823687206296
 11
-7.980512402078594
 21
0.558051789953007
 72
    2
 10
0
 20
0
 40
8
 50
184
 51
187
 73
    0
 72
    1
 10
-7.940369213130576
 20
0.9749547472411846
 11
-4.96273075820661
 21
0.6093467170257404
 97
    0
 75
    0
 76
    1
 98
    0
  0
HATCH
  5
68
100
AcDbEntity
  8
0
  6
ByLayer
 62
  256
370
   -1
100
AcDbHatch
 10
0
 20
0
 30
0
210
0
220
0
230
1
  2
SOLID
 70
    1
 71
    0
 91
    1
 92
    0
 93
    4
 72
    2
 10
0
 20
0
 40
5
 50
168
 51
171
 73
    1
 72
    1
 10
-4.938441702975688
 20
0.7821723252011571
 11
-7.901506724761101
 21
1.251475720321851
 72
    2
 10
0
 20
0
 40
8
 50
189
 51
192
 73
    0
 72
    1
 10
-7.825180805870445
 20
1.663293526542079
 11
-4.890738003669028
 21
1.039558454088799
 97
    0
 75
    0
 76
    1
 98
    0
  0
HATCH
  5
69
100
AcDbEntity
  8
0
  6
ByLayer
 62
  256
370
   -1
100
AcDbHatch
 10
0
 20
0
 30
0
210
0
220
0
230
1
  2
SOLID
 70
    1
 71
    0
 91
    1
 92
    0
 93
    4
 72
    2
 10
0
 20
0
 40
5
 50
163
 51
166
 73
    1
 72
    1
 10
-4.851478631379981
 20
1.209609477998341
 11
-7.762365810207971
 21
1.935375164797345
 72
    2
 10
0
 20
0
 40
8
 50
194
 51
197
 73
    0
 72
    1
 10
-7.650438047704283
 20
2.338973637781897
 11
-4.781523779815177
 21
1.461858523613686
 97
    0
 75
    0
 76
    1
 98
    0
  0
HATCH
  5
6A
100
AcDbEntity
  8
0
  6
ByLayer
 62
  256
370
   -1
100
AcDbHatch
 10
0
 20
0
 30
0
210
0
220
0
230
1
  2
SOLID
 70
    1
 71
    0
 91
    1
 92
    0
 93
    4
 72
    2
 10
0
 20
0
 40
5
 50
158
 51
161
 73
    1
 72
    1
 10
-4.727592877996583
 20
1.627840772285785
 11
-7.564148604794534
 21
2.604545235657256
 72
    2
 10
0
 20
0
 40
8
 50
199
 51
202
 73
    0
 72
    1
 10
-7.417470836534299
 20
2.996852747327299
 11
-4.635919272833935
 21
1.873032967079561
 97
    0
 75
    0
 76
    1
 98
    0
  0
HATCH
  5
6B
100
AcDbEntity
  8
0
  6
ByLayer
 62
  256
370
   -1
100
AcDbHatch
 10
0
 20
0
 30
0
210
0
220
0
230
1
  2
SOLID
 70
    1
 71
    0
 91
    1
 92
    0
 93
    4
 72
    2
 10
0
 20
0
 40
5
 50
153
 51
156
 73
    1
 72
    1
 10
-4.567727288213003
 20
2.033683215379002
 11
-7.308363661140808
 21
3.253893144606403
 72
    2
 10
0
 20
0
 40
8
 50
204
 51
207
 73
    0
 72
    1
 10
-7.128052193506942
 20
3.631923997916376
 11
-4.455032620941838
 21
2.269952498697735
 97
    0
 75
    0
 76
    1
 98
    0
  0
HATCH
  5
6C
100
AcDbEntity
  8
0
  6
ByLayer
 62
  256
370
   -1
100
AcDbHatch
 10
0
 20
0
 30
0
210
0
220
0
230
1
  2
SOLID
 70
    1
 71
    0
 91
    1
 92
    0
 93
    4
 72
    2
 10
0
 20
0
 40
5
 50
148
 51
151
 73
    1
 72
    1
 10
-4.373098535696977
 20
2.424048101231688
 11
-6.996957657115164
 21
3.8784769619707
 72
    2
 10
0
 20
0
 40
8
 50
209
 51
212
 73
    0
 72
    1
 10
-6.784384769251406
 20
4.239354113865645
 11
-4.240240480782128
 21
2.649596321166027
 97
    0
 75
    0
 76
    1
 98
    0
  0
HATCH
  5
6D
100
AcDbEntity
  8
0
  6
ByLayer
 62
  256
370
   -1
100
AcDbHatch
 10
0
 20
0
 30
0
210
0
220
0
230
1
  2
SOLID
 70
    1
 71
    0
 91
    1
 92
    0
 93
    4
 72
    2
 10
0
 20
0
 40
5
 50
143
 51
146
 73
    1
 72
    1
 10
-4.145187862775207
 20
2.795964517353736
 11
-6.632300580440332
 21
4.473543227765978
 72
    2
 10
0
 20
0
 40
8
 50
214
 51
217
 73
    0
 72
    1
 10
-6.389084080378341
 20
4.814520185216389
 11
-3.993177550236462
 21
3.009075115760243
 97
    0
 75
    0
 76
    1
 98
    0
  0
HATCH
  5
6E
100
AcDbEntity
  8
0
  6
ByLayer
 62
  256
370
   -1
100
AcDbHatch
 10
0
 20
0
 30
0
210
0
220
0
230
1
  2
SOLID
 70
    1
 71
    0
 91
    1
 92
    0
 93
    4
 72
    2
 10
0
 20
0
 40
5
 50
138
 51
141
 73
    1
 72
    1
 10
-3.885729807284853
 20
3.146601955249189
 11
-6.217167691655766
 21
5.034563128398702
 72
    2
 10
0
 20
0
 40
8
 50
219
 51
222
 73
    0
 72
    1
 10
-5.945158603819153
 20
5.353044850870868
 11
-3.71572412738697
 21
3.345653031794292
 97
    0
 75
    0
 76
    1
 98
    0
  0
HATCH
  5
6F
100
AcDbEntity
  8
0
  6
ByLayer
 62
  256
370
   -1
100
AcDbHatch
 10
0
 20
0
 30
0
210
0
220
0
230
1
  2
SOLID
 70
    1
 71
    0
 91
    1
 92
    0
 93
    4
 72
    2
 10
0
 20
0
 40
5
 50
133
 51
136
 73
    1
 72
    1
 10
-3.596699001693255
 20
3.473291852294987
 11
-5.754718402709209
 21
5.55726696367198
 72
    2
 10
0
 20
0
 40
8
 50
224
 51
227
 73
    0
 72
    1
 10
-5.455986880499987
 20
5.850829612953365
 11
-3.409991800312492
 21
3.656768508095853
 97
    0
 75
    0
 76
    1
 98
    0
  0
HATCH
  5
70
100
AcDbEntity
  8
0
  6
ByLayer
 62
  256
370
   -1
100
AcDbHatch
 10
0
 20
0
 30
0
210
0
220
0
230
1
  2
SOLID
 70
    1
 71
    0
 91
    1
 92
    0
 93
    4
 72
    2
 10
0
 20
0
 40
5
 50
128
 51
131
 73
    1
 72
    1
 10
-3.280295144952534
 20
3.773547901113862
 11
-5.248472231924055
 21
6.03767664178218
 72
    2
 10
0
 20
0
 40
8
 50
229
 51
232
 73
    0
 72
    1
 10
-4.925291802605264
 20
6.30408602885378
 11
-3.078307376628289
 21
3.940053768033612
 97
    0
 75
    0
 76
    1
 98
    0
  0
HATCH
  5
71
100
AcDbEntity
  8
0
  6
ByLayer
 62
  256
370
   -1
100
AcDbHatch
 10
0
 20
0
 30
0
210
0
220
0
230
1
  2
SOLID
 70
    1
 71
    0
 91
    1
 92
    0
 93
    4
 72
    2
 10
0
 20
0
 40
5
 50
123
 51
126
 73
    1
 72
    1
 10
-2.938926261462364
 20
4.045084971874738
 11
-4.702282018339782
 21
6.472135954999581
 72
    2
 10
0
 20
0
 40
8
 50
234
 51
237
 73
    0
 72
    1
 10
-4.357112280120214
 20
6.709364543563394
 11
-2.723195175075133
 21
4.193352839727122
 97
    0
 75
    0
 76
    1
 98
    0
  0
HATCH
  5
72
100
AcDbEntity
  8
0
  6
ByLayer
 62
  256
370
   -1
100
AcDbHatch
 10
0
 20
0
 30
0
210
0
220
0
230
1
  2
SOLID
 70
    1
 71
    0
 91
    1
 92
    0
 93
    4
 72
    2
 10
0
 20
0
 40
5
 50
118
 51
121
 73
    1
 72
    1
 10
-2.57519037455027
 20
4.285836503510563
 11
-4.120304599280431
 21
6.8573384056169
 72
    2
 10
0
 20
0
 40
8
 50
239
 51
242
 73
    0
 72
    1
 10
-3.755772502287124
 20
7.063580742871418
 11
-2.347357813929452
 21
4.414737964294636
 97
    0
 75
    0
 76
    1
 98
    0
  0
HATCH
  5
73
100
AcDbEntity
  8
0
  6
ByLayer
 62
  256
370
   -1
100
AcDbHatch
 10
0
 20
0
 30
0
210
0
220
0
230
1
  2
SOLID
 70
    1
 71
    0
 91
    1
 92
    0
 93
    4
 72
    2
 10
0
 20
0
 40
5
 50
113
 51
116
 73
    1
 72
    1
 10
-2.191855733945386
 20
4.493970231495836
 11
-3.506969174312617
 21
7.190352370393337
 72
    2
 10
0
 20
0
 40
8
 50
244
 51
247
 73
    0
 72
    1
 10
-3.125849027914188
 20
7.364038827619524
 11
-1.953655642446367
 21
4.602524267262202
 97
    0
 75
    0
 76
    1
 98
    0
  0
HATCH
  5
74
100
AcDbEntity
  8
0
  6
ByLayer
 62
  256
370
   -1
100
AcDbHatch
 10
0
 20
0
 30
0
210
0
220
0
230
1
  2
SOLID
 70
    1
 71
    0
 91
    1
 92
    0
 93
    4
 72
    2
 10
0
 20
0
 40
5
 50
108
 51
111
 73
    1
 72
    1
 10
-1.791839747726499
 20
4.667902132486009
 11
-2.866943596362399
 21
7.468643411977615
 72
    2
 10
0
 20
0
 40
8
 50
249
 51
252
 73
    0
 72
    1
 10
-2.472135954999577
 20
7.60845213036123
 11
-1.545084971874735
 21
4.755282581475767
 97
    0
 75
    0
 76
    1
 98
    0
  0
HATCH
  5
75
100
AcDbEntity
  8
0
  6
ByLayer
 62
  256
370
   -1
100
AcDbHatch
 10
0
 20
0
 30
0
210
0
220
0
230
1
  2
SOLID
 70
    1
 71
    0
 91
    1
 92
    0
 93
    4
 72
    2
 10
0
 20
0
 40
5
 50
103
 51
106
 73
    1
 72
    1
 10
-1.378186779084994
 20
4.806308479691594
 11
-2.205098846535992
 21
7.690093567506551
 72
    2
 10
0
 20
0
 40
8
 50
254
 51
257
 73
    0
 72
    1
 10
-1.799608434750918
 20
7.794960518281882
 11
-1.124755271719323
 21
4.871850323926176
 97
    0
 75
    0
 76
    1
 98
    0
  0
HATCH
  5
76
100
AcDbEntity
  8
0
  6
ByLayer
 62
  256
370
   -1
100
AcDbHatch
 10
0
 20
0
 30
0
210
0
220
0
230
1
  2
SOLID
 70
    1
 71
    0
 91
    1
 92
    0
 93
    4
 72
    2
 10
0
 20
0
 40
5
 50
97.99999999999999
 51
101
 73
    1
 72
    1
 10
-0.9540449768827219
 20
4.908135917238321
 11
-1.526471963012356
 21
7.853017467581312
 72
    2
 10
0
 20
0
 40
8
 50
258.9999999999999
 51
262
 73
    0
 72
    1
 10
-1.11338480768052
 20
7.922144549932564
 11
-0.6958655048003251
 21
4.951340343707852
 97
    0
 75
    0
 76
    1
 98
    0
  0
HATCH
  5
77
100
AcDbEntity
  8
0
  6
ByLayer
 62
  256
370
   -1
100
AcDbHatch
 10
0
 20
0
 30
0
210
0
220
0
230
1
  2
SOLID
 70
    1
 71
    0
 91
    1
 92
    0
 93
    4
 72
    2
 10
0
 20
0
 40
5
 50
92.99999999999999
 51
95.99999999999999
 73
    1
 72
    1
 10
-0.5226423163382656
 20
4.972609476841367
 11
-0.8362277061412255
 21
7.956175162946187
 72
    2
 10
0
 20
0
 40
8
 50
263.9999999999999
 51
267
 73
    0
 72
    1
 10
-0.4186876499435483
 20
7.989036278036592
 11
-0.2616797812147175
 21
4.993147673772869
 97
    0
 75
    0
 76
    1
 98
    0
  0
HATCH
  5
78
100
AcDbEntity
  8
0
  6
ByLayer
 62
  256
370
   -1
100
AcDbHatch
 10
0
 20
0
 30
0
210
0
220
0
230
1
  2
SOLID
 70
    1
 71
    0
 91
    1
 92
    0
 93
    4
 72
    2
 10
0
 20
0
 40
5
 50
87.99999999999999
 51
90.99999999999997
 73
    1
 72
    1
 10
-0.08726203218641532
 20
4.999238475781956
 11
-0.1396192514982648
 21
7.99878156125113
 72
    2
 10
0
 20
0
 40
8
 50
269
 51
272
 73
    0
 72
    1
 10
0.2791959736200112
 20
7.995126616152766
 11
0.1744974835125071
 21
4.996954135095478
 97
    0
 75
    0
 76
    1
 98
    0
  0
HATCH
  5
79
100
AcDbEntity
  8
0
  6
ByLayer
 62
  256
370
   -1
100
AcDbHatch
 10
0
 20
0
 30
0
210
0
220
0
230
1
  2
SOLID
 70
    1
 71
    0
 91
    1
 92
    0
 93
    4
 72
    2
 10
0
 20
0
 40
5
 50
82.99999999999999
 51
85.99999999999999
 73
    1
 72
    1
 10
0.3487823687206282
 20
4.987820251299121
 11
0.5580517899530048
 21
7.980512402078594
 72
    2
 10
0
 20
0
 40
8
 50
274
 51
277
 73
    0
 72
    1
 10
0.9749547472411824
 20
7.940369213130576
 11
0.6093467170257391
 21
4.96273075820661
 97
    0
 75
    0
 76
    1
 98
    0
  0
HATCH
  5
7A
100
AcDbEntity
  8
0
  6
ByLayer
 62
  256
370
   -1
100
AcDbHatch
 10
0
 20
0
 30
0
210
0
220
0
230
1
  2
SOLID
 70
    1
 71
    0
 91
    1
 92
    0
 93
    4
 72
    2
 10
0
 20
0
 40
5
 50
78
 51
80.99999999999999
 73
    1
 72
    1
 10
0.7821723252011556
 20
4.938441702975688
 11
1.251475720321849
 21
7.901506724761102
 72
    2
 10
0
 20
0
 40
8
 50
279
 51
282
 73
    0
 72
    1
 10
1.663293526542077
 20
7.825180805870446
 11
1.039558454088798
 21
4.890738003669028
 97
    0
 75
    0
 76
    1
 98
    0
  0
HATCH
  5
7B
100
AcDbEntity
  8
0
  6
ByLayer
 62
  256
370
   -1
100
AcDbHatch
 10
0
 20
0
 30
0
210
0
220
0
230
1
  2
SOLID
 70
    1
 71
    0
 91
    1
 92
    0
 93
    4
 72
    2
 10
0
 20
0
 40
5
 50
72.99999999999999
 51
75.99999999999999
 73
    1
 72
    1
 10
1.20960947799834
 20
4.851478631379981
 11
1.935375164797344
 21
7.762365810207971
 72
    2
 10
0
 20
0
 40
8
 50
284
 51
287
 73
    0
 72
    1
 10
2.338973637781896
 20
7.650438047704283
 11
1.461858523613685
 21
4.781523779815177
 97
    0
 75
    0
 76
    1
 98
    0
  0
HATCH
  5
7C
100
AcDbEntity
  8
0
  6
ByLayer
 62
  256
370
   -1
100
AcDbHatch
 10
0
 20
0
 30
0
210
0
220
0
230
1
  2
SOLID
 70
    1
 71
    0
 91
    1
 92
    0
 93
    4
 72
    2
 10
0
 20
0
 40
5
 50
68
 51
70.99999999999999
 73
    1
 72
    1
 10
1.627840772285785
 20
4.727592877996583
 11
2.604545235657255
 21
7.564148604794534
 72
    2
 10
0
 20
0
 40
8
 50
289
 51
292
 73
    0
 72
    1
 10
2.996852747327298
 20
7.417470836534299
 11
1.873032967079561
 21
4.635919272833935
 97
    0
 75
    0
 76
    1
 98
    0
  0
HATCH
  5
7D
100
AcDbEntity
  8
0
  6
ByLayer
 62
  256
370
   -1
100
AcDbHatch
 10
0
 20
0
 30
0
210
0
220
0
230
1
  2
SOLID
 70
    1
 71
    0
 91
    1
 92
    0
 93
    4
 72
    2
 10
0
 20
0
 40
5
 50
62.99999999999997
 51
65.99999999999997
 73
    1
 72
    1
 10
2.033683215379003
 20
4.567727288213003
 11
3.253893144606404
 21
7.308363661140807
 72
    2
 10
0
 20
0
 40
8
 50
294.0000000000001
 51
297.0000000000001
 73
    0
 72
    1
 10
3.631923997916377
 20
7.128052193506941
 11
2.269952498697736
 21
4.455032620941838
 97
    0
 75
    0
 76
    1
 98
    0
  0
HATCH
  5
7E
100
AcDbEntity
  8
0
  6
ByLayer
 62
  256
370
   -1
100
AcDbHatch
 10
0
 20
0
 30
0
210
0
220
0
230
1
  2
SOLID
 70
    1
 71
    0
 91
    1
 92
    0
 93
    4
 72
    2
 10
0
 20
0
 40
5
 50
57.99999999999998
 51
60.99999999999997
 73
    1
 72
    1
 10
2.424048101231687
 20
4.373098535696978
 11
3.878476961970699
 21
6.996957657115166
 72
    2
 10
0
 20
0
 40
8
 50
299
 51
302.0000000000001
 73
    0
 72
    1
 10
4.239354113865643
 20
6.784384769251408
 11
2.649596321166026
 21
4.240240480782129
 97
    0
 75
    0
 76
    1
 98
    0
  0
HATCH
  5
7F
100
AcDbEntity
  8
0
  6
ByLayer
 62
  256
370
   -1
100
AcDbHatch
 10
0
 20
0
 30
0
210
0
220
0
230
1
  2
SOLID
 70
    1
 71
    0
 91
    1
 92
    0
 93
    4
 72
    2
 10
0
 20
0
 40
5
 50
52.99999999999999
 51
55.99999999999998
 73
    1
 72
    1
 10
2.795964517353736
 20
4.145187862775208
 11
4.473543227765976
 21
6.632300580440333
 72
    2
 10
0
 20
0
 40
8
 50
304
 51
307.0000000000001
 73
    0
 72
    1
 10
4.814520185216388
 20
6.389084080378342
 11
3.009075115760242
 21
3.993177550236463
 97
    0
 75
    0
 76
    1
 98
    0
  0
HATCH
  5
80
100
AcDbEntity
  8
0
  6
ByLayer
 62
  256
370
   -1
100
AcDbHatch
 10
0
 20
0
 30
0
210
0
220
0
230
1
  2
SOLID
 70
    1
 71
    0
 91
    1
 92
    0
 93
    4
 72
    2
 10
0
 20
0
 40
5
 50
47.99999999999999
 51
50.99999999999999
 73
    1
 72
    1
 10
3.146601955249189
 20
3.885729807284853
 11
5.034563128398702
 21
6.217167691655766
 72
    2
 10
0
 20
0
 40
8
 50
309
 51
312.0000000000001
 73
    0
 72
    1
 10
5.353044850870868
 20
5.945158603819153
 11
3.345653031794292
 21
3.71572412738697
 97
    0
 75
    0
 76
    1
 98
    0
  0
HATCH
  5
81
100
AcDbEntity
  8
0
  6
ByLayer
 62
  256
370
   -1
100
AcDbHatch
 10
0
 20
0
 30
0
210
0
220
0
230
1
  2
SOLID
 70
    1
 71
    0
 91
    1
 92
    0
 93
    4
 72
    2
 10
0
 20
0
 40
5
 50
43
 51
45.99999999999999
 73
    1
 72
    1
 10
3.473291852294987
 20
3.596699001693255
 11
5.55726696367198
 21
5.754718402709207
 72
    2
 10
0
 20
0
 40
8
 50
314
 51
317
 73
    0
 72
    1
 10
5.850829612953365
 20
5.455986880499986
 11
3.656768508095853
 21
3.409991800312491
 97
    0
 75
    0
 76
    1
 98
    0
  0
HATCH
  5
82
100
AcDbEntity
  8
0
  6
ByLayer
 62
  256
370
   -1
100
AcDbHatch
 10
0
 20
0
 30
0
210
0
220
0
230
1
  2
SOLID
 70
    1
 71
    0
 91
    1
 92
    0
 93
    4
 72
    2
 10
0
 20
0
 40
5
 50
38
 51
40.99999999999999
 73
    1
 72
    1
 10
3.773547901113861
 20
3.280295144952535
 11
6.037676641782177
 21
5.248472231924056
 72
    2
 10
0
 20
0
 40
8
 50
319
 51
322
 73
    0
 72
    1
 10
6.304086028853777
 20
4.925291802605265
 11
3.940053768033611
 21
3.07830737662829
 97
    0
 75
    0
 76
    1
 98
    0
  0
HATCH
  5
83
100
AcDbEntity
  8
0
  6
ByLayer
 62
  256
370
   -1
100
AcDbHatch
 10
0
 20
0
 30
0
210
0
220
0
230
1
  2
SOLID
 70
    1
 71
    0
 91
    1
 92
    0
 93
    4
 72
    2
 10
0
 20
0
 40
5
 50
32.99999999999999
 51
35.99999999999997
 73
    1
 72
    1
 10
4.045084971874738
 20
2.938926261462364
 11
6.472135954999581
 21
4.702282018339783
 72
    2
 10
0
 20
0
 40
8
 50
324
 51
327
 73
    0
 72
    1
 10
6.709364543563394
 20
4.357112280120215
 11
4.193352839727122
 21
2.723195175075134
 97
    0
 75
    0
 76
    1
 98
    0
  0
HATCH
  5
84
100
AcDbEntity
  8
0
  6
ByLayer
 62
  256
370
   -1
100
AcDbHatch
 10
0
 20
0
 30
0
210
0
220
0
230
1
  2
SOLID
 70
    1
 71
    0
 91
    1
 92
    0
 93
    4
 72
    2
 10
0
 20
0
 40
5
 50
27.99999999999999
 51
30.99999999999998
 73
    1
 72
    1
 10
4.285836503510562
 20
2.57519037455027
 11
6.857338405616899
 21
4.120304599280432
 72
    2
 10
0
 20
0
 40
8
 50
329
 51
332
 73
    0
 72
    1
 10
7.063580742871417
 20
3.755772502287125
 11
4.414737964294635
 21
2.347357813929452
 97
    0
 75
    0
 76
    1
 98
    0
  0
HATCH
  5
85
100
AcDbEntity
  8
0
  6
ByLayer
 62
  256
370
   -1
100
AcDbHatch
 10
0
 20
0
 30
0
210
0
220
0
230
1
  2
SOLID
 70
    1
 71
    0
 91
    1
 92
    0
 93
    4
 72
    2
 10
0
 20
0
 40
5
 50
22.99999999999999
 51
25.99999999999999
 73
    1
 72
    1
 10
4.493970231495836
 20
2.191855733945386
 11
7.190352370393337
 21
3.506969174312617
 72
    2
 10
0
 20
0
 40
8
 50
334
 51
337
 73
    0
 72
    1
 10
7.364038827619524
 20
3.125849027914188
 11
4.602524267262202
 21
1.953655642446367
 97
    0
 75
    0
 76
    1
 98
    0
  0
HATCH
  5
86
100
AcDbEntity
  8
0
  6
ByLayer
 62
  256
370
   -1
100
AcDbHatch
 10
0
 20
0
 30
0
210
0
220
0
230
1
  2
SOLID
 70
    1
 71
    0
 91
    1
 92
    0
 93
    4
 72
    2
 10
0
 20
0
 40
5
 50
18
 51
20.99999999999999
 73
    1
 72
    1
 10
4.667902132486009
 20
1.7918397477265
 11
7.468643411977615
 21
2.8669435963624
 72
    2
 10
0
 20
0
 40
8
 50
339
 51
342
 73
    0
 72
    1
 10
7.608452130361229
 20
2.472135954999577
 11
4.755282581475767
 21
1.545084971874736
 97
    0
 75
    0
 76
    1
 98
    0
  0
HATCH
  5
87
100
AcDbEntity
  8
0
  6
ByLayer
 62
  256
370
   -1
100
AcDbHatch
 10
0
 20
0
 30
0
210
0
220
0
230
1
  2
SOLID
 70
    1
 71
    0
 91
    1
 92
    0
 93
    4
 72
    2
 10
0
 20
0
 40
5
 50
12.99999999999998
 51
15.99999999999997
 73
    1
 72
    1
 10
4.806308479691594
 20
1.378186779084994
 11
7.690093567506551
 21
2.205098846535992
 72
    2
 10
0
 20
0
 40
8
 50
344
 51
347
 73
    0
 72
    1
 10
7.794960518281882
 20
1.799608434750918
 11
4.871850323926176
 21
1.124755271719323
 97
    0
 75
    0
 76
    1
 98
    0
  0
HATCH
  5
88
100
AcDbEntity
  8
0
  6
ByLayer
 62
  256
370
   -1
100
AcDbHatch
 10
0
 20
0
 30
0
210
0
220
0
230
1
  2
SOLID
 70
    1
 71
    0
 91
    1
 92
    0
 93
    4
 72
    2
 10
0
 20
0
 40
5
 50
7.999999999999986
 51
10.99999999999998
 73
    1
 72
    1
 10
4.908135917238321
 20
0.9540449768827227
 11
7.853017467581312
 21
1.526471963012357
 72
    2
 10
0
 20
0
 40
8
 50
348.9999999999999
 51
352
 73
    0
 72
    1
 10
7.922144549932564
 20
1.113384807680522
 11
4.951340343707852
 21
0.6958655048003258
 97
    0
 75
    0
 76
    1
 98
    0
  0
HATCH
  5
89
100
AcDbEntity
  8
0
  6
ByLayer
 62
  256
370
   -1
100
AcDbHatch
 10
0
 20
0
 30
0
210
0
220
0
230
1
  2
SOLID
 70
    1
 71
    0
 91
    1
 92
    0
 93
    4
 72
    2
 10
0
 20
0
 40
5
 50
2.999999999999992
 51
5.999999999999983
 73
    1
 72
    1
 10
4.972609476841367
 20
0.522642316338266
 11
7.956175162946187
 21
0.836227706141226
 72
    2
 10
0
 20
0
 40
8
 50
353.9999999999999
 51
357
 73
    0
 72
    1
 10
7.989036278036592
 20
0.4186876499435488
 11
4.993147673772869
 21
0.2616797812147178
 97
    0
 75
    0
 76
    1
 98
    0
  0
CIRCLE
  5
8A
100
AcDbEntity
  8
0
  6
ByLayer
 62
  256
370
   -1
100
AcDbCircle
 10
0
 20
0
 40
9
  0
ARC
  5
8B
100
AcDbEntity
  8
0
  6
ByLayer
 62
  256
370
   -1
100
AcDbCircle
 10
0
 20
0
 40
3
100
AcDbArc
 50
0
 51
0
  0
ARC
  5
8C
100
AcDbEntity
  8
0
  6
ByLayer
 62
  256
370
   -1
100
AcDbCircle
 10
0
 20
0
 40
5
100
AcDbArc
 50
2.999999999999992
 51
5.999999999999983
  0
LINE
  5
8D
100
AcDbEntity
  8
0
  6
ByLayer
 62
  256
370
   -1
100
AcDbLine
 10
4.972609476841367
 20
0.522642316338266
 11
7.956175162946187
 21
0.836227706141226
  0
LINE
  5
8E
100
AcDbEntity
  8
0
  6
ByLayer
 62
  256
370
   -1
100
AcDbLine
 10
4.993147673772869
 20
0.2616797812147178
 11
7.989036278036592
 21
0.4186876499435488
  0
ARC
  5
8F
100
AcDbEntity
  8
0
  6
ByLayer
 62
  256
370
   -1
100
AcDbCircle
 10
0
 20
0
 40
8
100
AcDbArc
 50
2.999999999999992
 51
6.000000000000009
  0
ARC
  5
90
100
AcDbEntity
  8
0
  6
ByLayer
 62
  256
370
   -1
100
AcDbCircle
 10
0
 20
0
 40
5
100
AcDbArc
 50
7.999999999999986
 51
10.99999999999998
  0
LINE
  5
91
100
AcDbEntity
  8
0
  6
ByLayer
 62
  256
370
   -1
100
AcDbLine
 10
4.908135917238321
 20
0.9540449768827227
 11
7.853017467581312
 21
1.526471963012357
  0
LINE
  5
92
100
AcDbEntity
  8
0
  6
ByLayer
 62
  256
370
   -1
100
AcDbLine
 10
4.951340343707852
 20
0.6958655048003258
 11
7.922144549932564
 21
1.113384807680522
  0
ARC
  5
93
100
AcDbEntity
  8
0
  6
ByLayer
 62
  256
370
   -1
100
AcDbCircle
 10
0
 20
0
 40
8
100
AcDbArc
 50
7.999999999999986
 51
11
  0
ARC
  5
94
100
AcDbEntity
  8
0
  6
ByLayer
 62
  256
370
   -1
100
AcDbCircle
 10
0
 20
0
 40
5
100
AcDbArc
 50
12.99999999999998
 51
15.99999999999997
  0
LINE
  5
95
100
AcDbEntity
  8
0
  6
ByLayer
 62
  256
370
   -1
100
AcDbLine
 10
4.806308479691594
 20
1.378186779084994
 11
7.690093567506551
 21
2.205098846535992
  0
LINE
  5
96
100
AcDbEntity
  8
0
  6
ByLayer
 62
  256
370
   -1
100
AcDbLine
 10
4.871850323926176
 20
1.124755271719323
 11
7.794960518281882
 21
1.799608434750918
  0
ARC
  5
97
100
AcDbEntity
  8
0
  6
ByLayer
 62
  256
370
   -1
100
AcDbCircle
 10
0
 20
0
 40
8
100
AcDbArc
 50
12.99999999999998
 51
16.00000000000002
  0
ARC
  5
98
100
AcDbEntity
  8
0
  6
ByLayer
 62
  256
370
   -1
100
AcDbCircle
 10
0
 20
0
 40
5
100
AcDbArc
 50
18
 51
20.99999999999999
  0
LINE
  5
99
100
AcDbEntity
  8
0
  6
ByLayer
 62
  256
370
   -1
100
AcDbLine
 10
4.667902132486009
 20
1.7918397477265
 11
7.468643411977615
 21
2.8669435963624
  0
LINE
  5
9A
100
AcDbEntity
  8
0
  6
ByLayer
 62
  256
370
   -1
100
AcDbLine
 10
4.755282581475767
 20
1.545084971874736
 11
7.608452130361229
 21
2.472135954999577
  0
ARC
  5
9B
100
AcDbEntity
  8
0
  6
ByLayer
 62
  256
370
   -1
100
AcDbCircle
 10
0
 20
0
 40
8
100
AcDbArc
 50
18
 51
21.00000000000002
  0
ARC
  5
9C
100
AcDbEntity
  8
0
  6
ByLayer
 62
  256
370
   -1
100
AcDbCircle
 10
0
 20
0
 40
5
100
AcDbArc
 50
22.99999999999999
 51
25.99999999999999
  0
LINE
  5
9D
100
AcDbEntity
  8
0
  6
ByLayer
 62
  256
370
   -1
100
AcDbLine
 10
4.493970231495836
 20
2.191855733945386
 11
7.190352370393337
 21
3.506969174312617
  0
LINE
  5
9E
100
AcDbEntity
  8
0
  6
ByLayer
 62
  256
370
   -1
100
AcDbLine
 10
4.602524267262202
 20
1.953655642446367
 11
7.364038827619524
 21
3.125849027914188
  0
ARC
  5
9F
100
AcDbEntity
  8
0
  6
ByLayer
 62
  256
370
   -1
100
AcDbCircle
 10
0
 20
0
 40
8
100
AcDbArc
 50
22.99999999999999
 51
26.00000000000001
  0
ARC
  5
A0
100
AcDbEntity
  8
0
  6
ByLayer
 62
  256
370
   -1
100
AcDbCircle
 10
0
 20
0
 40
5
100
AcDbArc
 50
27.99999999999999
 51
30.99999999999998
  0
LINE
  5
A1
100
AcDbEntity
  8
0
  6
ByLayer
 62
  256
370
   -1
100
AcDbLine
 10
4.285836503510562
 20
2.57519037455027
 11
6.857338405616899
 21
4.120304599280432
  0
LINE
  5
A2
100
AcDbEntity
  8
0
  6
ByLayer
 62
  256
370
   -1
100
AcDbLine
 10
4.414737964294635
 20
2.347357813929452
 11
7.063580742871417
 21
3.755772502287125
  0
ARC
  5
A3
100
AcDbEntity
  8
0
  6
ByLayer
 62
  256
370
   -1
100
AcDbCircle
 10
0
 20
0
 40
8
100
AcDbArc
 50
27.99999999999999
 51
31.00000000000001
  0
ARC
  5
A4
100
AcDbEntity
  8
0
  6
ByLayer
 62
  256
370
   -1
100
AcDbCircle
 10
0
 20
0
 40
5
100
AcDbArc
 50
32.99999999999999
 51
35.99999999999997
  0
LINE
  5
A5
100
AcDbEntity
  8
0
  6
ByLayer
 62
  256
370
   -1
100
AcDbLine
 10
4.045084971874738
 20
2.938926261462364
 11
6.472135954999581
 21
4.702282018339783
  0
LINE
  5
A6
100
AcDbEntity
  8
0
  6
ByLayer
 62
  256
370
   -1
100
AcDbLine
 10
4.193352839727122
 20
2.723195175075134
 11
6.709364543563394
 21
4.357112280120215
  0
ARC
  5
A7
100
AcDbEntity
  8
0
  6
ByLayer
 62
  256
370
   -1
100
AcDbCircle
 10
0
 20
0
 40
8
100
AcDbArc
 50
32.99999999999999
 51
36
  0
ARC
  5
A8
100
AcDbEntity
  8
0
  6
ByLayer
 62
  256
370
   -1
100
AcDbCircle
 10
0
 20
0
 40
5
100
AcDbArc
 50
37.99999999999998
 51
40.99999999999999
  0
LINE
  5
A9
100
AcDbEntity
  8
0
  6
ByLayer
 62
  256
370
   -1
100
AcDbLine
 10
3.773547901113861
 20
3.280295144952535
 11
6.037676641782177
 21
5.248472231924056
  0
LINE
  5
AA
100
AcDbEntity
  8
0
  6
ByLayer
 62
  256
370
   -1
100
AcDbLine
 10
3.940053768033611
 20
3.07830737662829
 11
6.304086028853777
 21
4.925291802605265
  0
ARC
  5
AB
100
AcDbEntity
  8
0
  6
ByLayer
 62
  256
370
   -1
100
AcDbCircle
 10
0
 20
0
 40
8
100
AcDbArc
 50
37.99999999999998
 51
40.99999999999999
  0
ARC
  5
AC
100
AcDbEntity
  8
0
  6
ByLayer
 62
  256
370
   -1
100
AcDbCircle
 10
0
 20
0
 40
5
100
AcDbArc
 50
43
 51
45.99999999999999
  0
LINE
  5
AD
100
AcDbEntity
  8
0
  6
ByLayer
 62
  256
370
   -1
100
AcDbLine
 10
3.473291852294987
 20
3.596699001693255
 11
5.55726696367198
 21
5.754718402709207
  0
LINE
  5
AE
100
AcDbEntity
  8
0
  6
ByLayer
 62
  256
370
   -1
100
AcDbLine
 10
3.656768508095853
 20
3.409991800312491
 11
5.850829612953365
 21
5.455986880499986
  0
ARC
  5
AF
100
AcDbEntity
  8
0
  6
ByLayer
 62
  256
370
   -1
100
AcDbCircle
 10
0
 20
0
 40
8
100
AcDbArc
 50
43
 51
46.00000000000001
  0
ARC
  5
B0
100
AcDbEntity
  8
0
  6
ByLayer
 62
  256
370
   -1
100
AcDbCircle
 10
0
 20
0
 40
5
100
AcDbArc
 50
47.99999999999999
 51
50.99999999999999
  0
LINE
  5
B1
100
AcDbEntity
  8
0
  6
ByLayer
 62
  256
370
   -1
100
AcDbLine
 10
3.146601955249189
 20
3.885729807284853
 11
5.034563128398702
 21
6.217167691655766
  0
LINE
  5
B2
100
AcDbEntity
  8
0
  6
ByLayer
 62
  256
370
   -1
100
AcDbLine
 10
3.345653031794292
 20
3.71572412738697
 11
5.353044850870868
 21
5.945158603819153
  0
ARC
  5
B3
100
AcDbEntity
  8
0
  6
ByLayer
 62
  256
370
   -1
100
AcDbCircle
 10
0
 20
0
 40
8
100
AcDbArc
 50
47.99999999999999
 51
51.00000000000001
  0
ARC
  5
B4
100
AcDbEntity
  8
0
  6
ByLayer
 62
  256
370
   -1
100
AcDbCircle
 10
0
 20
0
 40
5
100
AcDbArc
 50
52.99999999999999
 51
55.99999999999998
  0
LINE
  5
B5
100
AcDbEntity
  8
0
  6
ByLayer
 62
  256
370
   -1
100
AcDbLine
 10
2.795964517353736
 20
4.145187862775208
 11
4.473543227765976
 21
6.632300580440333
  0
LINE
  5
B6
100
AcDbEntity
  8
0
  6
ByLayer
 62
  256
370
   -1
100
AcDbLine
 10
3.009075115760242
 20
3.993177550236463
 11
4.814520185216388
 21
6.389084080378342
  0
ARC
  5
B7
100
AcDbEntity
  8
0
  6
ByLayer
 62
  256
370
   -1
100
AcDbCircle
 10
0
 20
0
 40
8
100
AcDbArc
 50
52.99999999999999
 51
56
  0
ARC
  5
B8
100
AcDbEntity
  8
0
  6
ByLayer
 62
  256
370
   -1
100
AcDbCircle
 10
0
 20
0
 40
5
100
AcDbArc
 50
58.00000000000001
 51
60.99999999999997
  0
LINE
  5
B9
100
AcDbEntity
  8
0
  6
ByLayer
 62
  256
370
   -1
100
AcDbLine
 10
2.424048101231687
 20
4.373098535696978
 11
3.878476961970699
 21
6.996957657115166
  0
LINE
  5
BA
100
AcDbEntity
  8
0
  6
ByLayer
 62
  256
370
   -1
100
AcDbLine
 10
2.649596321166026
 20
4.240240480782129
 11
4.239354113865643
 21
6.784384769251408
  0
ARC
  5
BB
100
AcDbEntity
  8
0
  6
ByLayer
 62
  256
370
   -1
100
AcDbCircle
 10
0
 20
0
 40
8
100
AcDbArc
 50
58.00000000000001
 51
61.00000000000002
  0
ARC
  5
BC
100
AcDbEntity
  8
0
  6
ByLayer
 62
  256
370
   -1
100
AcDbCircle
 10
0
 20
0
 40
5
100
AcDbArc
 50
63
 51
65.99999999999997
  0
LINE
  5
BD
100
AcDbEntity
  8
0
  6
ByLayer
 62
  256
370
   -1
100
AcDbLine
 10
2.033683215379003
 20
4.567727288213003
 11
3.253893144606404
 21
7.308363661140807
  0
LINE
  5
BE
100
AcDbEntity
  8
0
  6
ByLayer
 62
  256
370
   -1
100
AcDbLine
 10
2.269952498697736
 20
4.455032620941838
 11
3.631923997916377
 21
7.128052193506941
  0
ARC
  5
BF
100
AcDbEntity
  8
0
  6
ByLayer
 62
  256
370
   -1
100
AcDbCircle
 10
0
 20
0
 40
8
100
AcDbArc
 50
63
 51
66
  0
ARC
  5
C0
100
AcDbEntity
  8
0
  6
ByLayer
 62
  256
370
   -1
100
AcDbCircle
 10
0
 20
0
 40
5
100
AcDbArc
 50
68
 51
70.99999999999999
  0
LINE
  5
C1
100
AcDbEntity
  8
0
  6
ByLayer
 62
  256
370
   -1
100
AcDbLine
 10
1.627840772285785
 20
4.727592877996583
 11
2.604545235657255
 21
7.564148604794534
  0
LINE
  5
C2
100
AcDbEntity
  8
0
  6
ByLayer
 62
  256
370
   -1
100
AcDbLine
 10
1.873032967079561
 20
4.635919272833935
 11
2.996852747327298
 21
7.417470836534299
  0
ARC
  5
C3
100
AcDbEntity
  8
0
  6
ByLayer
 62
  256
370
   -1
100
AcDbCircle
 10
0
 20
0
 40
8
100
AcDbArc
 50
68
 51
71.00000000000001
  0
ARC
  5
C4
100
AcDbEntity
  8
0
  6
ByLayer
 62
  256
370
   -1
100
AcDbCircle
 10
0
 20
0
 40
5
100
AcDbArc
 50
72.99999999999999
 51
75.99999999999999
  0
LINE
  5
C5
100
AcDbEntity
  8
0
  6
ByLayer
 62
  256
370
   -1
100
AcDbLine
 10
1.20960947799834
 20
4.851478631379981
 11
1.935375164797344
 21
7.762365810207971
  0
LINE
  5
C6
100
AcDbEntity
  8
0
  6
ByLayer
 62
  256
370
   -1
100
AcDbLine
 10
1.461858523613685
 20
4.781523779815177
 11
2.338973637781896
 21
7.650438047704283
  0
ARC
  5
C7
100
AcDbEntity
  8
0
  6
ByLayer
 62
  256
370
   -1
100
AcDbCircle
 10
0
 20
0
 40
8
100
AcDbArc
 50
72.99999999999999
 51
76
  0
ARC
  5
C8
100
AcDbEntity
  8
0
  6
ByLayer
 62
  256
370
   -1
100
AcDbCircle
 10
0
 20
0
 40
5
100
AcDbArc
 50
78
 51
80.99999999999999
  0
LINE
  5
C9
100
AcDbEntity
  8
0
  6
ByLayer
 62
  256
370
   -1
100
AcDbLine
 10
0.7821723252011556
 20
4.938441702975688
 11
1.251475720321849
 21
7.901506724761102
  0
LINE
  5
CA
100
AcDbEntity
  8
0
  6
ByLayer
 62
  256
370
   -1
100
AcDbLine
 10
1.039558454088798
 20
4.890738003669028
 11
1.663293526542077
 21
7.825180805870446
  0
ARC
  5
CB
100
AcDbEntity
  8
0
  6
ByLayer
 62
  256
370
   -1
100
AcDbCircle
 10
0
 20
0
 40
8
100
AcDbArc
 50
78
 51
81.00000000000001
  0
ARC
  5
CC
100
AcDbEntity
  8
0
  6
ByLayer
 62
  256
370
   -1
100
AcDbCircle
 10
0
 20
0
 40
5
100
AcDbArc
 50
82.99999999999999
 51
85.99999999999999
  0
LINE
  5
CD
100
AcDbEntity
  8
0
  6
ByLayer
 62
  256
370
   -1
100
AcDbLine
 10
0.3487823687206282
 20
4.987820251299121
 11
0.5580517899530048
 21
7.980512402078594
  0
LINE
  5
CE
100
AcDbEntity
  8
0
  6
ByLayer
 62
  256
370
   -1
100
AcDbLine
 10
0.6093467170257391
 20
4.96273075820661
 11
0.9749547472411824
 21
7.940369213130576
  0
ARC
  5
CF
100
AcDbEntity
  8
0
  6
ByLayer
 62
  256
370
   -1
100
AcDbCircle
 10
0
 20
0
 40
8
100
AcDbArc
 50
82.99999999999999
 51
86
  0
ARC
  5
D0
100
AcDbEntity
  8
0
  6
ByLayer
 62
  256
370
   -1
100
AcDbCircle
 10
0
 20
0
 40
5
100
AcDbArc
 50
87.99999999999999
 51
90.99999999999997
  0
LINE
  5
D1
100
AcDbEntity
  8
0
  6
ByLayer
 62
  256
370
   -1
100
AcDbLine
 10
-0.08726203218641532
 20
4.999238475781956
 11
-0.1396192514982648
 21
7.99878156125113
  0
LINE
  5
D2
100
AcDbEntity
  8
0
  6
ByLayer
 62
  256
370
   -1
100
AcDbLine
 10
0.1744974835125071
 20
4.996954135095478
 11
0.2791959736200112
 21
7.995126616152766
  0
ARC
  5
D3
100
AcDbEntity
  8
0
  6
ByLayer
 62
  256
370
   -1
100
AcDbCircle
 10
0
 20
0
 40
8
100
AcDbArc
 50
87.99999999999999
 51
91
  0
ARC
  5
D4
100
AcDbEntity
  8
0
  6
ByLayer
 62
  256
370
   -1
100
AcDbCircle
 10
0
 20
0
 40
5
100
AcDbArc
 50
92.99999999999999
 51
95.99999999999999
  0
LINE
  5
D5
100
AcDbEntity
  8
0
  6
ByLayer
 62
  256
370
   -1
100
AcDbLine
 10
-0.5226423163382656
 20
4.972609476841367
 11
-0.8362277061412255
 21
7.956175162946187
  0
LINE
  5
D6
100
AcDbEntity
  8
0
  6
ByLayer
 62
  256
370
   -1
100
AcDbLine
 10
-0.2616797812147175
 20
4.993147673772869
 11
-0.4186876499435483
 21
7.989036278036592
  0
ARC
  5
D7
100
AcDbEntity
  8
0
  6
ByLayer
 62
  256
370
   -1
100
AcDbCircle
 10
0
 20
0
 40
8
100
AcDbArc
 50
92.99999999999999
 51
96.00000000000001
  0
ARC
  5
D8
100
AcDbEntity
  8
0
  6
ByLayer
 62
  256
370
   -1
100
AcDbCircle
 10
0
 20
0
 40
5
100
AcDbArc
 50
97.99999999999999
 51
101
  0
LINE
  5
D9
100
AcDbEntity
  8
0
  6
ByLayer
 62
  256
370
   -1
100
AcDbLine
 10
-0.9540449768827219
 20
4.908135917238321
 11
-1.526471963012356
 21
7.853017467581312
  0
LINE
  5
DA
100
AcDbEntity
  8
0
  6
ByLayer
 62
  256
370
   -1
100
AcDbLine
 10
-0.6958655048003251
 20
4.951340343707852
 11
-1.11338480768052
 21
7.922144549932564
  0
ARC
  5
DB
100
AcDbEntity
  8
0
  6
ByLayer
 62
  256
370
   -1
100
AcDbCircle
 10
0
 20
0
 40
8
100
AcDbArc
 50
97.99999999999999
 51
101
  0
ARC
  5
DC
100
AcDbEntity
  8
0
  6
ByLayer
 62
  256
370
   -1
100
AcDbCircle
 10
0
 20
0
 40
5
100
AcDbArc
 50
103
 51
106
  0
LINE
  5
DD
100
AcDbEntity
  8
0
  6
ByLayer
 62
  256
370
   -1
100
AcDbLine
 10
-1.378186779084994
 20
4.806308479691594
 11
-2.205098846535992
 21
7.690093567506551
  0
LINE
  5
DE
100
AcDbEntity
  8
0
  6
ByLayer
 62
  256
370
   -1
100
AcDbLine
 10
-1.124755271719323
 20
4.871850323926176
 11
-1.799608434750918
 21
7.794960518281882
  0
ARC
  5
DF
100
AcDbEntity
  8
0
  6
ByLayer
 62
  256
370
   -1
100
AcDbCircle
 10
0
 20
0
 40
8
100
AcDbArc
 50
103
 51
106
  0
ARC
  5
E0
100
AcDbEntity
  8
0
  6
ByLayer
 62
  256
370
   -1
100
AcDbCircle
 10
0
 20
0
 40
5
100
AcDbArc
 50
108
 51
111
  0
LINE
  5
E1
100
AcDbEntity
  8
0
  6
ByLayer
 62
  256
370
   -1
100
AcDbLine
 10
-1.791839747726499
 20
4.667902132486009
 11
-2.866943596362399
 21
7.468643411977615
  0
LINE
  5
E2
100
AcDbEntity
  8
0
  6
ByLayer
 62
  256
370
   -1
100
AcDbLine
 10
-1.545084971874735
 20
4.755282581475767
 11
-2.472135954999577
 21
7.60845213036123
  0
ARC
  5
E3
100
AcDbEntity
  8
0
  6
ByLayer
 62
  256
370
   -1
100
AcDbCircle
 10
0
 20
0
 40
8
100
AcDbArc
 50
108
 51
111
  0
ARC
  5
E4
100
AcDbEntity
  8
0
  6
ByLayer
 62
  256
370
   -1
100
AcDbCircle
 10
0
 20
0
 40
5
100
AcDbArc
 50
113
 51
116
  0
LINE
  5
E5
100
AcDbEntity
  8
0
  6
ByLayer
 62
  256
370
   -1
100
AcDbLine
 10
-2.191855733945386
 20
4.493970231495836
 11
-3.506969174312617
 21
7.190352370393337
  0
LINE
  5
E6
100
AcDbEntity
  8
0
  6
ByLayer
 62
  256
370
   -1
100
AcDbLine
 10
-1.953655642446367
 20
4.602524267262202
 11
-3.125849027914188
 21
7.364038827619524
  0
ARC
  5
E7
100
AcDbEntity
  8
0
  6
ByLayer
 62
  256
370
   -1
100
AcDbCircle
 10
0
 20
0
 40
8
100
AcDbArc
 50
113
 51
116
  0
ARC
  5
E8
100
AcDbEntity
  8
0
  6
ByLayer
 62
  256
370
   -1
100
AcDbCircle
 10
0
 20
0
 40
5
100
AcDbArc
 50
118
 51
121
  0
LINE
  5
E9
100
AcDbEntity
  8
0
  6
ByLayer
 62
  256
370
   -1
100
AcDbLine
 10
-2.57519037455027
 20
4.285836503510563
 11
-4.120304599280431
 21
6.8573384056169
  0
LINE
  5
EA
100
AcDbEntity
  8
0
  6
ByLayer
 62
  256
370
   -1
100
AcDbLine
 10
-2.347357813929452
 20
4.414737964294636
 11
-3.755772502287124
 21
7.063580742871418
  0
ARC
  5
EB
100
AcDbEntity
  8
0
  6
ByLayer
 62
  256
370
   -1
100
AcDbCircle
 10
0
 20
0
 40
8
100
AcDbArc
 50
118
 51
121
  0
ARC
  5
EC
100
AcDbEntity
  8
0
  6
ByLayer
 62
  256
370
   -1
100
AcDbCircle
 10
0
 20
0
 40
5
100
AcDbArc
 50
123
 51
126
  0
LINE
  5
ED
100
AcDbEntity
  8
0
  6
ByLayer
 62
  256
370
   -1
100
AcDbLine
 10
-2.938926261462364
 20
4.045084971874738
 11
-4.702282018339782
 21
6.472135954999581
  0
LINE
  5
EE
100
AcDbEntity
  8
0
  6
ByLayer
 62
  256
370
   -1
100
AcDbLine
 10
-2.723195175075133
 20
4.193352839727122
 11
-4.357112280120214
 21
6.709364543563394
  0
ARC
  5
EF
100
AcDbEntity
  8
0
  6
ByLayer
 62
  256
370
   -1
100
AcDbCircle
 10
0
 20
0
 40
8
100
AcDbArc
 50
123
 51
126
  0
ARC
  5
F0
100
AcDbEntity
  8
0
  6
ByLayer
 62
  256
370
   -1
100
AcDbCircle
 10
0
 20
0
 40
5
100
AcDbArc
 50
128
 51
131
  0
LINE
  5
F1
100
AcDbEntity
  8
0
  6
ByLayer
 62
  256
370
   -1
100
AcDbLine
 10
-3.280295144952534
 20
3.773547901113862
 11
-5.248472231924055
 21
6.03767664178218
  0
LINE
  5
F2
100
AcDbEntity
  8
0
  6
ByLayer
 62
  256
370
   -1
100
AcDbLine
 10
-3.078307376628289
 20
3.940053768033612
 11
-4.925291802605264
 21
6.30408602885378
  0
ARC
  5
F3
100
AcDbEntity
  8
0
  6
ByLayer
 62
  256
370
   -1
100
AcDbCircle
 10
0
 20
0
 40
8
100
AcDbArc
 50
128
 51
131
  0
ARC
  5
F4
100
AcDbEntity
  8
0
  6
ByLayer
 62
  256
370
   -1
100
AcDbCircle
 10
0
 20
0
 40
5
100
AcDbArc
 50
133
 51
136
  0
LINE
  5
F5
100
AcDbEntity
  8
0
  6
ByLayer
 62
  256
370
   -1
100
AcDbLine
 10
-3.596699001693255
 20
3.473291852294987
 11
-5.754718402709209
 21
5.55726696367198
  0
LINE
  5
F6
100
AcDbEntity
  8
0
  6
ByLayer
 62
  256
370
   -1
100
AcDbLine
 10
-3.409991800312492
 20
3.656768508095853
 11
-5.455986880499987
 21
5.850829612953365
  0
ARC
  5
F7
100
AcDbEntity
  8
0
  6
ByLayer
 62
  256
370
   -1
100
AcDbCircle
 10
0
 20
0
 40
8
100
AcDbArc
 50
133
 51
136
  0
ARC
  5
F8
100
AcDbEntity
  8
0
  6
ByLayer
 62
  256
370
   -1
100
AcDbCircle
 10
0
 20
0
 40
5
100
AcDbArc
 50
138
 51
141
  0
LINE
  5
F9
100
AcDbEntity
  8
0
  6
ByLayer
 62
  256
370
   -1
100
AcDbLine
 10
-3.885729807284853
 20
3.146601955249189
 11
-6.217167691655766
 21
5.034563128398702
  0
LINE
  5
FA
100
AcDbEntity
  8
0
  6
ByLayer
 62
  256
370
   -1
100
AcDbLine
 10
-3.71572412738697
 20
3.345653031794292
 11
-5.945158603819153
 21
5.353044850870868
  0
ARC
  5
FB
100
AcDbEntity
  8
0
  6
ByLayer
 62
  256
370
   -1
100
AcDbCircle
 10
0
 20
0
 40
8
100
AcDbArc
 50
138
 51
141
  0
ARC
  5
FC
100
AcDbEntity
  8
0
  6
ByLayer
 62
  256
370
   -1
100
AcDbCircle
 10
0
 20
0
 40
5
100
AcDbArc
 50
143
 51
146
  0
LINE
  5
FD
100
AcDbEntity
  8
0
  6
ByLayer
 62
  256
370
   -1
100
AcDbLine
 10
-4.145187862775207
 20
2.795964517353736
 11
-6.632300580440332
 21
4.473543227765978
  0
LINE
  5
FE
100
AcDbEntity
  8
0
  6
ByLayer
 62
  256
370
   -1
100
AcDbLine
 10
-3.993177550236462
 20
3.009075115760243
 11
-6.389084080378341
 21
4.814520185216389
  0
ARC
  5
FF
100
AcDbEntity
  8
0
  6
ByLayer
 62
  256
370
   -1
100
AcDbCircle
 10
0
 20
0
 40
8
100
AcDbArc
 50
143
 51
146
  0
ARC
  5
100
100
AcDbEntity
  8
0
  6
ByLayer
 62
  256
370
   -1
100
AcDbCircle
 10
0
 20
0
 40
5
100
AcDbArc
 50
148
 51
151
  0
LINE
  5
101
100
AcDbEntity
  8
0
  6
ByLayer
 62
  256
370
   -1
100
AcDbLine
 10
-4.373098535696977
 20
2.424048101231688
 11
-6.996957657115164
 21
3.8784769619707
  0
LINE
  5
102
100
AcDbEntity
  8
0
  6
ByLayer
 62
  256
370
   -1
100
AcDbLine
 10
-4.240240480782128
 20
2.649596321166027
 11
-6.784384769251406
 21
4.239354113865645
  0
ARC
  5
103
100
AcDbEntity
  8
0
  6
ByLayer
 62
  256
370
   -1
100
AcDbCircle
 10
0
 20
0
 40
8
100
AcDbArc
 50
148
 51
151
  0
ARC
  5
104
100
AcDbEntity
  8
0
  6
ByLayer
 62
  256
370
   -1
100
AcDbCircle
 10
0
 20
0
 40
5
100
AcDbArc
 50
153
 51
156
  0
LINE
  5
105
100
AcDbEntity
  8
0
  6
ByLayer
 62
  256
370
   -1
100
AcDbLine
 10
-4.567727288213003
 20
2.033683215379002
 11
-7.308363661140808
 21
3.253893144606403
  0
LINE
  5
106
100
AcDbEntity
  8
0
  6
ByLayer
 62
  256
370
   -1
100
AcDbLine
 10
-4.455032620941838
 20
2.269952498697735
 11
-7.128052193506942
 21
3.631923997916376
  0
ARC
  5
107
100
AcDbEntity
  8
0
  6
ByLayer
 62
  256
370
   -1
100
AcDbCircle
 10
0
 20
0
 40
8
100
AcDbArc
 50
153
 51
156
  0
ARC
  5
108
100
AcDbEntity
  8
0
  6
ByLayer
 62
  256
370
   -1
100
AcDbCircle
 10
0
 20
0
 40
5
100
AcDbArc
 50
158
 51
161
  0
LINE
  5
109
100
AcDbEntity
  8
0
  6
ByLayer
 62
  256
370
   -1
100
AcDbLine
 10
-4.727592877996583
 20
1.627840772285785
 11
-7.564148604794534
 21
2.604545235657256
  0
LINE
  5
10A
100
AcDbEntity
  8
0
  6
ByLayer
 62
  256
370
   -1
100
AcDbLine
 10
-4.635919272833935
 20
1.873032967079561
 11
-7.417470836534299
 21
2.996852747327299
  0
ARC
  5
10B
100
AcDbEntity
  8
0
  6
ByLayer
 62
  256
370
   -1
100
AcDbCircle
 10
0
 20
0
 40
8
100
AcDbArc
 50
158
 51
161
  0
ARC
  5
10C
100
AcDbEntity
  8
0
  6
ByLayer
 62
  256
370
   -1
100
AcDbCircle
 10
0
 20
0
 40
5
100
AcDbArc
 50
163
 51
166
  0
LINE
  5
10D
100
AcDbEntity
  8
0
  6
ByLayer
 62
  256
370
   -1
100
AcDbLine
 10
-4.851478631379981
 20
1.209609477998341
 11
-7.762365810207971
 21
1.935375164797345
  0
LINE
  5
10E
100
AcDbEntity
  8
0
  6
ByLayer
 62
  256
370
   -1
100
AcDbLine
 10
-4.781523779815177
 20
1.461858523613686
 11
-7.650438047704283
 21
2.338973637781897
  0
ARC
  5
10F
100
AcDbEntity
  8
0
  6
ByLayer
 62
  256
370
   -1
100
AcDbCircle
 10
0
 20
0
 40
8
100
AcDbArc
 50
163
 51
166
  0
ARC
  5
110
100
AcDbEntity
  8
0
  6
ByLayer
 62
  256
370
   -1
100
AcDbCircle
 10
0
 20
0
 40
5
100
AcDbArc
 50
168
 51
171
  0
LINE
  5
111
100
AcDbEntity
  8
0
  6
ByLayer
 62
  256
370
   -1
100
AcDbLine
 10
-4.938441702975688
 20
0.7821723252011571
 11
-7.901506724761101
 21
1.251475720321851
  0
LINE
  5
112
100
AcDbEntity
  8
0
  6
ByLayer
 62
  256
370
   -1
100
AcDbLine
 10
-4.890738003669028
 20
1.039558454088799
 11
-7.825180805870445
 21
1.663293526542079
  0
ARC
  5
113
100
AcDbEntity
  8
0
  6
ByLayer
 62
  256
370
   -1
100
AcDbCircle
 10
0
 20
0
 40
8
100
AcDbArc
 50
168
 51
171
  0
ARC
  5
114
100
AcDbEntity
  8
0
  6
ByLayer
 62
  256
370
   -1
100
AcDbCircle
 10
0
 20
0
 40
5
100
AcDbArc
 50
173
 51
176
  0
LINE
  5
115
100
AcDbEntity
  8
0
  6
ByLayer
 62
  256
370
   -1
100
AcDbLine
 10
-4.987820251299121
 20
0.3487823687206296
 11
-7.980512402078594
 21
0.558051789953007
  0
LINE
  5
116
100
AcDbEntity
  8
0
  6
ByLayer
 62
  256
370
   -1
100
AcDbLine
 10
-4.96273075820661
 20
0.6093467170257404
 11
-7.940369213130576
 21
0.9749547472411846
  0
ARC
  5
117
100
AcDbEntity
  8
0
  6
ByLayer
 62
  256
370
   -1
100
AcDbCircle
 10
0
 20
0
 40
8
100
AcDbArc
 50
173
 51
176
  0
ARC
  5
118
100
AcDbEntity
  8
0
  6
ByLayer
 62
  256
370
   -1
100
AcDbCircle
 10
0
 20
0
 40
5
100
AcDbArc
 50
178
 51
181
  0
LINE
  5
119
100
AcDbEntity
  8
0
  6
ByLayer
 62
  256
370
   -1
100
AcDbLine
 10
-4.999238475781956
 20
-0.08726203218641615
 11
-7.99878156125113
 21
-0.1396192514982662
  0
LINE
  5
11A
100
AcDbEntity
  8
0
  6
ByLayer
 62
  256
370
   -1
100
AcDbLine
 10
-4.996954135095478
 20
0.1744974835125063
 11
-7.995126616152766
 21
0.2791959736200099
  0
ARC
  5
11B
100
AcDbEntity
  8
0
  6
ByLayer
 62
  256
370
   -1
100
AcDbCircle
 10
0
 20
0
 40
8
100
AcDbArc
 50
178
 51
181
  0
ARC
  5
11C
100
AcDbEntity
  8
0
  6
ByLayer
 62
  256
370
   -1
100
AcDbCircle
 10
0
 20
0
 40
5
100
AcDbArc
 50
183
 51
186
  0
LINE
  5
11D
100
AcDbEntity
  8
0
  6
ByLayer
 62
  256
370
   -1
100
AcDbLine
 10
-4.972609476841367
 20
-0.5226423163382654
 11
-7.956175162946187
 21
-0.836227706141225
  0
LINE
  5
11E
100
AcDbEntity
  8
0
  6
ByLayer
 62
  256
370
   -1
100
AcDbLine
 10
-4.993147673772869
 20
-0.2616797812147172
 11
-7.989036278036592
 21
-0.4186876499435478
  0
ARC
  5
11F
100
AcDbEntity
  8
0
  6
ByLayer
 62
  256
370
   -1
100
AcDbCircle
 10
0
 20
0
 40
8
100
AcDbArc
 50
183
 51
186
  0
ARC
  5
120
100
AcDbEntity
  8
0
  6
ByLayer
 62
  256
370
   -1
100
AcDbCircle
 10
0
 20
0
 40
5
100
AcDbArc
 50
188
 51
191
  0
LINE
  5
121
100
AcDbEntity
  8
0
  6
ByLayer
 62
  256
370
   -1
100
AcDbLine
 10
-4.908135917238321
 20
-0.9540449768827216
 11
-7.853017467581312
 21
-1.526471963012355
  0
LINE
  5
122
100
AcDbEntity
  8
0
  6
ByLayer
 62
  256
370
   -1
100
AcDbLine
 10
-4.951340343707852
 20
-0.6958655048003247
 11
-7.922144549932564
 21
-1.11338480768052
  0
ARC
  5
123
100
AcDbEntity
  8
0
  6
ByLayer
 62
  256
370
   -1
100
AcDbCircle
 10
0
 20
0
 40
8
100
AcDbArc
 50
188
 51
191
  0
ARC
  5
124
100
AcDbEntity
  8
0
  6
ByLayer
 62
  256
370
   -1
100
AcDbCircle
 10
0
 20
0
 40
5
100
AcDbArc
 50
193
 51
196
  0
LINE
  5
125
100
AcDbEntity
  8
0
  6
ByLayer
 62
  256
370
   -1
100
AcDbLine
 10
-4.806308479691594
 20
-1.378186779084993
 11
-7.690093567506552
 21
-2.205098846535989
  0
LINE
  5
126
100
AcDbEntity
  8
0
  6
ByLayer
 62
  256
370
   -1
100
AcDbLine
 10
-4.871850323926176
 20
-1.124755271719322
 11
-7.794960518281883
 21
-1.799608434750916
  0
ARC
  5
127
100
AcDbEntity
  8
0
  6
ByLayer
 62
  256
370
   -1
100
AcDbCircle
 10
0
 20
0
 40
8
100
AcDbArc
 50
193
 51
196
  0
ARC
  5
128
100
AcDbEntity
  8
0
  6
ByLayer
 62
  256
370
   -1
100
AcDbCircle
 10
0
 20
0
 40
5
100
AcDbArc
 50
198
 51
201
  0
LINE
  5
129
100
AcDbEntity
  8
0
  6
ByLayer
 62
  256
370
   -1
100
AcDbLine
 10
-4.667902132486009
 20
-1.7918397477265
 11
-7.468643411977615
 21
-2.866943596362401
  0
LINE
  5
12A
100
AcDbEntity
  8
0
  6
ByLayer
 62
  256
370
   -1
100
AcDbLine
 10
-4.755282581475767
 20
-1.545084971874736
 11
-7.608452130361229
 21
-2.472135954999578
  0
ARC
  5
12B
100
AcDbEntity
  8
0
  6
ByLayer
 62
  256
370
   -1
100
AcDbCircle
 10
0
 20
0
 40
8
100
AcDbArc
 50
198
 51
201
  0
ARC
  5
12C
100
AcDbEntity
  8
0
  6
ByLayer
 62
  256
370
   -1
100
AcDbCircle
 10
0
 20
0
 40
5
100
AcDbArc
 50
203
 51
206
  0
LINE
  5
12D
100
AcDbEntity
  8
0
  6
ByLayer
 62
  256
370
   -1
100
AcDbLine
 10
-4.493970231495836
 20
-2.191855733945385
 11
-7.190352370393337
 21
-3.506969174312617
  0
LINE
  5
12E
100
AcDbEntity
  8
0
  6
ByLayer
 62
  256
370
   -1
100
AcDbLine
 10
-4.602524267262202
 20
-1.953655642446367
 11
-7.364038827619524
 21
-3.125849027914188
  0
ARC
  5
12F
100
AcDbEntity
  8
0
  6
ByLayer
 62
  256
370
   -1
100
AcDbCircle
 10
0
 20
0
 40
8
100
AcDbArc
 50
203
 51
206
  0
ARC
  5
130
100
AcDbEntity
  8
0
  6
ByLayer
 62
  256
370
   -1
100
AcDbCircle
 10
0
 20
0
 40
5
100
AcDbArc
 50
208
 51
211
  0
LINE
  5
131
100
AcDbEntity
  8
0
  6
ByLayer
 62
  256
370
   -1
100
AcDbLine
 10
-4.285836503510563
 20
-2.575190374550269
 11
-6.8573384056169
 21
-4.120304599280431
  0
LINE
  5
132
100
AcDbEntity
  8
0
  6
ByLayer
 62
  256
370
   -1
100
AcDbLine
 10
-4.414737964294636
 20
-2.347357813929452
 11
-7.063580742871418
 21
-3.755772502287124
  0
ARC
  5
133
100
AcDbEntity
  8
0
  6
ByLayer
 62
  256
370
   -1
100
AcDbCircle
 10
0
 20
0
 40
8
100
AcDbArc
 50
208
 51
211
  0
ARC
  5
134
100
AcDbEntity
  8
0
  6
ByLayer
 62
  256
370
   -1
100
AcDbCircle
 10
0
 20
0
 40
5
100
AcDbArc
 50
213
 51
216
  0
LINE
  5
135
100
AcDbEntity
  8
0
  6
ByLayer
 62
  256
370
   -1
100
AcDbLine
 10
-4.045084971874739
 20
-2.938926261462363
 11
-6.472135954999583
 21
-4.702282018339782
  0
LINE
  5
136
100
AcDbEntity
  8
0
  6
ByLayer
 62
  256
370
   -1
100
AcDbLine
 10
-4.193352839727122
 20
-2.723195175075133
 11
-6.709364543563395
 21
-4.357112280120213
  0
ARC
  5
137
100
AcDbEntity
  8
0
  6
ByLayer
 62
  256
370
   -1
100
AcDbCircle
 10
0
 20
0
 40
8
100
AcDbArc
 50
213
 51
216
  0
ARC
  5
138
100
AcDbEntity
  8
0
  6
ByLayer
 62
  256
370
   -1
100
AcDbCircle
 10
0
 20
0
 40
5
100
AcDbArc
 50
218
 51
221
  0
LINE
  5
139
100
AcDbEntity
  8
0
  6
ByLayer
 62
  256
370
   -1
100
AcDbLine
 10
-3.773547901113862
 20
-3.280295144952534
 11
-6.03767664178218
 21
-5.248472231924055
  0
LINE
  5
13A
100
AcDbEntity
  8
0
  6
ByLayer
 62
  256
370
   -1
100
AcDbLine
 10
-3.940053768033612
 20
-3.078307376628289
 11
-6.30408602885378
 21
-4.925291802605264
  0
ARC
  5
13B
100
AcDbEntity
  8
0
  6
ByLayer
 62
  256
370
   -1
100
AcDbCircle
 10
0
 20
0
 40
8
100
AcDbArc
 50
218
 51
221
  0
ARC
  5
13C
100
AcDbEntity
  8
0
  6
ByLayer
 62
  256
370
   -1
100
AcDbCircle
 10
0
 20
0
 40
5
100
AcDbArc
 50
223
 51
226
  0
LINE
  5
13D
100
AcDbEntity
  8
0
  6
ByLayer
 62
  256
370
   -1
100
AcDbLine
 10
-3.473291852294987
 20
-3.596699001693255
 11
-5.55726696367198
 21
-5.754718402709207
  0
LINE
  5
13E
100
AcDbEntity
  8
0
  6
ByLayer
 62
  256
370
   -1
100
AcDbLine
 10
-3.656768508095853
 20
-3.409991800312491
 11
-5.850829612953365
 21
-5.455986880499986
  0
ARC
  5
13F
100
AcDbEntity
  8
0
  6
ByLayer
 62
  256
370
   -1
100
AcDbCircle
 10
0
 20
0
 40
8
100
AcDbArc
 50
223
 51
226
  0
ARC
  5
140
100
AcDbEntity
  8
0
  6
ByLayer
 62
  256
370
   -1
100
AcDbCircle
 10
0
 20
0
 40
5
100
AcDbArc
 50
228
 51
231
  0
LINE
  5
141
100
AcDbEntity
  8
0
  6
ByLayer
 62
  256
370
   -1
100
AcDbLine
 10
-3.146601955249189
 20
-3.885729807284853
 11
-5.034563128398703
 21
-6.217167691655766
  0
LINE
  5
142
100
AcDbEntity
  8
0
  6
ByLayer
 62
  256
370
   -1
100
AcDbLine
 10
-3.345653031794293
 20
-3.71572412738697
 11
-5.353044850870869
 21
-5.945158603819153
  0
ARC
  5
143
100
AcDbEntity
  8
0
  6
ByLayer
 62
  256
370
   -1
100
AcDbCircle
 10
0
 20
0
 40
8
100
AcDbArc
 50
228
 51
231
  0
ARC
  5
144
100
AcDbEntity
  8
0
  6
ByLayer
 62
  256
370
   -1
100
AcDbCircle
 10
0
 20
0
 40
5
100
AcDbArc
 50
233
 51
236
  0
LINE
  5
145
100
AcDbEntity
  8
0
  6
ByLayer
 62
  256
370
   -1
100
AcDbLine
 10
-2.795964517353736
 20
-4.145187862775207
 11
-4.473543227765978
 21
-6.632300580440332
  0
LINE
  5
146
100
AcDbEntity
  8
0
  6
ByLayer
 62
  256
370
   -1
100
AcDbLine
 10
-3.009075115760243
 20
-3.993177550236462
 11
-4.814520185216389
 21
-6.389084080378341
  0
ARC
  5
147
100
AcDbEntity
  8
0
  6
ByLayer
 62
  256
370
   -1
100
AcDbCircle
 10
0
 20
0
 40
8
100
AcDbArc
 50
233
 51
236
  0
ARC
  5
148
100
AcDbEntity
  8
0
  6
ByLayer
 62
  256
370
   -1
100
AcDbCircle
 10
0
 20
0
 40
5
100
AcDbArc
 50
237.9999999999999
 51
241
  0
LINE
  5
149
100
AcDbEntity
  8
0
  6
ByLayer
 62
  256
370
   -1
100
AcDbLine
 10
-2.424048101231688
 20
-4.373098535696977
 11
-3.8784769619707
 21
-6.996957657115164
  0
LINE
  5
14A
100
AcDbEntity
  8
0
  6
ByLayer
 62
  256
370
   -1
100
AcDbLine
 10
-2.649596321166027
 20
-4.240240480782128
 11
-4.239354113865645
 21
-6.784384769251406
  0
ARC
  5
14B
100
AcDbEntity
  8
0
  6
ByLayer
 62
  256
370
   -1
100
AcDbCircle
 10
0
 20
0
 40
8
100
AcDbArc
 50
237.9999999999999
 51
241
  0
ARC
  5
14C
100
AcDbEntity
  8
0
  6
ByLayer
 62
  256
370
   -1
100
AcDbCircle
 10
0
 20
0
 40
5
100
AcDbArc
 50
242.9999999999999
 51
246
  0
LINE
  5
14D
100
AcDbEntity
  8
0
  6
ByLayer
 62
  256
370
   -1
100
AcDbLine
 10
-2.033683215379005
 20
-4.567727288213003
 11
-3.253893144606407
 21
-7.308363661140805
  0
LINE
  5
14E
100
AcDbEntity
  8
0
  6
ByLayer
 62
  256
370
   -1
100
AcDbLine
 10
-2.269952498697737
 20
-4.455032620941838
 11
-3.63192399791638
 21
-7.128052193506941
  0
ARC
  5
14F
100
AcDbEntity
  8
0
  6
ByLayer
 62
  256
370
   -1
100
AcDbCircle
 10
0
 20
0
 40
8
100
AcDbArc
 50
242.9999999999999
 51
246
  0
ARC
  5
150
100
AcDbEntity
  8
0
  6
ByLayer
 62
  256
370
   -1
100
AcDbCircle
 10
0
 20
0
 40
5
100
AcDbArc
 50
247.9999999999999
 51
251
  0
LINE
  5
151
100
AcDbEntity
  8
0
  6
ByLayer
 62
  256
370
   -1
100
AcDbLine
 10
-1.627840772285787
 20
-4.727592877996583
 11
-2.604545235657259
 21
-7.564148604794532
  0
LINE
  5
152
100
AcDbEntity
  8
0
  6
ByLayer
 62
  256
370
   -1
100
AcDbLine
 10
-1.873032967079564
 20
-4.635919272833935
 11
-2.996852747327303
 21
-7.417470836534297
  0
ARC
  5
153
100
AcDbEntity
  8
0
  6
ByLayer
 62
  256
370
   -1
100
AcDbCircle
 10
0
 20
0
 40
8
100
AcDbArc
 50
247.9999999999999
 51
251
  0
ARC
  5
154
100
AcDbEntity
  8
0
  6
ByLayer
 62
  256
370
   -1
100
AcDbCircle
 10
0
 20
0
 40
5
100
AcDbArc
 50
252.9999999999999
 51
255.9999999999999
  0
LINE
  5
155
100
AcDbEntity
  8
0
  6
ByLayer
 62
  256
370
   -1
100
AcDbLine
 10
-1.209609477998343
 20
-4.851478631379981
 11
-1.935375164797349
 21
-7.762365810207971
  0
LINE
  5
156
100
AcDbEntity
  8
0
  6
ByLayer
 62
  256
370
   -1
100
AcDbLine
 10
-1.461858523613688
 20
-4.781523779815176
 11
-2.338973637781901
 21
-7.650438047704283
  0
ARC
  5
157
100
AcDbEntity
  8
0
  6
ByLayer
 62
  256
370
   -1
100
AcDbCircle
 10
0
 20
0
 40
8
100
AcDbArc
 50
252.9999999999999
 51
255.9999999999999
  0
ARC
  5
158
100
AcDbEntity
  8
0
  6
ByLayer
 62
  256
370
   -1
100
AcDbCircle
 10
0
 20
0
 40
5
100
AcDbArc
 50
258.0000000000001
 51
261
  0
LINE
  5
159
100
AcDbEntity
  8
0
  6
ByLayer
 62
  256
370
   -1
100
AcDbLine
 10
-0.782172325201155
 20
-4.938441702975688
 11
-1.251475720321848
 21
-7.901506724761102
  0
LINE
  5
15A
100
AcDbEntity
  8
0
  6
ByLayer
 62
  256
370
   -1
100
AcDbLine
 10
-1.039558454088797
 20
-4.890738003669028
 11
-1.663293526542076
 21
-7.825180805870445
  0
ARC
  5
15B
100
AcDbEntity
  8
0
  6
ByLayer
 62
  256
370
   -1
100
AcDbCircle
 10
0
 20
0
 40
8
100
AcDbArc
 50
258.0000000000001
 51
261.0000000000001
  0
ARC
  5
15C
100
AcDbEntity
  8
0
  6
ByLayer
 62
  256
370
   -1
100
AcDbCircle
 10
0
 20
0
 40
5
100
AcDbArc
 50
263
 51
266
  0
LINE
  5
15D
100
AcDbEntity
  8
0
  6
ByLayer
 62
  256
370
   -1
100
AcDbLine
 10
-0.3487823687206277
 20
-4.987820251299121
 11
-0.5580517899530041
 21
-7.980512402078594
  0
LINE
  5
15E
100
AcDbEntity
  8
0
  6
ByLayer
 62
  256
370
   -1
100
AcDbLine
 10
-0.6093467170257386
 20
-4.96273075820661
 11
-0.9749547472411817
 21
-7.940369213130576
  0
ARC
  5
15F
100
AcDbEntity
  8
0
  6
ByLayer
 62
  256
370
   -1
100
AcDbCircle
 10
0
 20
0
 40
8
100
AcDbArc
 50
263
 51
266.0000000000001
  0
ARC
  5
160
100
AcDbEntity
  8
0
  6
ByLayer
 62
  256
370
   -1
100
AcDbCircle
 10
0
 20
0
 40
5
100
AcDbArc
 50
268
 51
271
  0
LINE
  5
161
100
AcDbEntity
  8
0
  6
ByLayer
 62
  256
370
   -1
100
AcDbLine
 10
0.08726203218641587
 20
-4.999238475781956
 11
0.1396192514982657
 21
-7.99878156125113
  0
LINE
  5
162
100
AcDbEntity
  8
0
  6
ByLayer
 62
  256
370
   -1
100
AcDbLine
 10
-0.1744974835125065
 20
-4.996954135095478
 11
-0.2791959736200103
 21
-7.995126616152766
  0
ARC
  5
163
100
AcDbEntity
  8
0
  6
ByLayer
 62
  256
370
   -1
100
AcDbCircle
 10
0
 20
0
 40
8
100
AcDbArc
 50
268
 51
271.0000000000001
  0
ARC
  5
164
100
AcDbEntity
  8
0
  6
ByLayer
 62
  256
370
   -1
100
AcDbCircle
 10
0
 20
0
 40
5
100
AcDbArc
 50
273
 51
276
  0
LINE
  5
165
100
AcDbEntity
  8
0
  6
ByLayer
 62
  256
370
   -1
100
AcDbLine
 10
0.5226423163382651
 20
-4.972609476841367
 11
0.8362277061412245
 21
-7.956175162946187
  0
LINE
  5
166
100
AcDbEntity
  8
0
  6
ByLayer
 62
  256
370
   -1
100
AcDbLine
 10
0.2616797812147169
 20
-4.993147673772869
 11
0.4186876499435473
 21
-7.989036278036592
  0
ARC
  5
167
100
AcDbEntity
  8
0
  6
ByLayer
 62
  256
370
   -1
100
AcDbCircle
 10
0
 20
0
 40
8
100
AcDbArc
 50
273
 51
276.0000000000001
  0
ARC
  5
168
100
AcDbEntity
  8
0
  6
ByLayer
 62
  256
370
   -1
100
AcDbCircle
 10
0
 20
0
 40
5
100
AcDbArc
 50
278
 51
281
  0
LINE
  5
169
100
AcDbEntity
  8
0
  6
ByLayer
 62
  256
370
   -1
100
AcDbLine
 10
0.9540449768827213
 20
-4.908135917238321
 11
1.526471963012354
 21
-7.853017467581312
  0
LINE
  5
16A
100
AcDbEntity
  8
0
  6
ByLayer
 62
  256
370
   -1
100
AcDbLine
 10
0.6958655048003244
 20
-4.951340343707852
 11
1.11338480768052
 21
-7.922144549932564
  0
ARC
  5
16B
100
AcDbEntity
  8
0
  6
ByLayer
 62
  256
370
   -1
100
AcDbCircle
 10
0
 20
0
 40
8
100
AcDbArc
 50
278
 51
281
  0
ARC
  5
16C
100
AcDbEntity
  8
0
  6
ByLayer
 62
  256
370
   -1
100
AcDbCircle
 10
0
 20
0
 40
5
100
AcDbArc
 50
283
 51
285.9999999999999
  0
LINE
  5
16D
100
AcDbEntity
  8
0
  6
ByLayer
 62
  256
370
   -1
100
AcDbLine
 10
1.378186779084993
 20
-4.806308479691594
 11
2.205098846535989
 21
-7.690093567506552
  0
LINE
  5
16E
100
AcDbEntity
  8
0
  6
ByLayer
 62
  256
370
   -1
100
AcDbLine
 10
1.124755271719322
 20
-4.871850323926176
 11
1.799608434750915
 21
-7.794960518281883
  0
ARC
  5
16F
100
AcDbEntity
  8
0
  6
ByLayer
 62
  256
370
   -1
100
AcDbCircle
 10
0
 20
0
 40
8
100
AcDbArc
 50
283
 51
286
  0
ARC
  5
170
100
AcDbEntity
  8
0
  6
ByLayer
 62
  256
370
   -1
100
AcDbCircle
 10
0
 20
0
 40
5
100
AcDbArc
 50
288
 51
290.9999999999999
  0
LINE
  5
171
100
AcDbEntity
  8
0
  6
ByLayer
 62
  256
370
   -1
100
AcDbLine
 10
1.791839747726498
 20
-4.66790213248601
 11
2.866943596362397
 21
-7.468643411977617
  0
LINE
  5
172
100
AcDbEntity
  8
0
  6
ByLayer
 62
  256
370
   -1
100
AcDbLine
 10
1.545084971874733
 20
-4.755282581475768
 11
2.472135954999574
 21
-7.608452130361231
  0
ARC
  5
173
100
AcDbEntity
  8
0
  6
ByLayer
 62
  256
370
   -1
100
AcDbCircle
 10
0
 20
0
 40
8
100
AcDbArc
 50
288
 51
291
  0
ARC
  5
174
100
AcDbEntity
  8
0
  6
ByLayer
 62
  256
370
   -1
100
AcDbCircle
 10
0
 20
0
 40
5
100
AcDbArc
 50
293
 51
295.9999999999999
  0
LINE
  5
175
100
AcDbEntity
  8
0
  6
ByLayer
 62
  256
370
   -1
100
AcDbLine
 10
2.191855733945383
 20
-4.493970231495836
 11
3.506969174312613
 21
-7.190352370393338
  0
LINE
  5
176
100
AcDbEntity
  8
0
  6
ByLayer
 62
  256
370
   -1
100
AcDbLine
 10
1.953655642446365
 20
-4.602524267262202
 11
3.125849027914184
 21
-7.364038827619526
  0
ARC
  5
177
100
AcDbEntity
  8
0
  6
ByLayer
 62
  256
370
   -1
100
AcDbCircle
 10
0
 20
0
 40
8
100
AcDbArc
 50
293
 51
296
  0
ARC
  5
178
100
AcDbEntity
  8
0
  6
ByLayer
 62
  256
370
   -1
100
AcDbCircle
 10
0
 20
0
 40
5
100
AcDbArc
 50
298
 51
300.9999999999999
  0
LINE
  5
179
100
AcDbEntity
  8
0
  6
ByLayer
 62
  256
370
   -1
100
AcDbLine
 10
2.575190374550267
 20
-4.285836503510564
 11
4.120304599280428
 21
-6.857338405616902
  0
LINE
  5
17A
100
AcDbEntity
  8
0
  6
ByLayer
 62
  256
370
   -1
100
AcDbLine
 10
2.34735781392945
 20
-4.414737964294637
 11
3.75577250228712
 21
-7.063580742871419
  0
ARC
  5
17B
100
AcDbEntity
  8
0
  6
ByLayer
 62
  256
370
   -1
100
AcDbCircle
 10
0
 20
0
 40
8
100
AcDbArc
 50
298
 51
301
  0
ARC
  5
17C
100
AcDbEntity
  8
0
  6
ByLayer
 62
  256
370
   -1
100
AcDbCircle
 10
0
 20
0
 40
5
100
AcDbArc
 50
303
 51
306
  0
LINE
  5
17D
100
AcDbEntity
  8
0
  6
ByLayer
 62
  256
370
   -1
100
AcDbLine
 10
2.938926261462365
 20
-4.045084971874738
 11
4.702282018339784
 21
-6.47213595499958
  0
LINE
  5
17E
100
AcDbEntity
  8
0
  6
ByLayer
 62
  256
370
   -1
100
AcDbLine
 10
2.723195175075134
 20
-4.19335283972712
 11
4.357112280120216
 21
-6.709364543563393
  0
ARC
  5
17F
100
AcDbEntity
  8
0
  6
ByLayer
 62
  256
370
   -1
100
AcDbCircle
 10
0
 20
0
 40
8
100
AcDbArc
 50
303
 51
306
  0
ENDSEC
  0
SECTION
  2
OBJECTS
  0
DICTIONARY
  5
C
330
0
100
AcDbDictionary
281
    1
  3
ACAD_GROUP
350
D
  0
DICTIONARY
  5
D
330
C
100
AcDbDictionary
281
    1
  0
ENDSEC
  0
EOF
