999
dxfrw 0.6.3
  0
SECTION
  2
HEADER
  9
$ACADVER
  1
AC1021
  9
$DWGCODEPAGE
  3
ANSI_1252
  9
$INSBASE
 10
0
 20
0
 30
0
  9
$EXTMIN
 10
0
 20
0
 30
0
  9
$EXTMAX
 10
184.8750999759424
 20
38.10343298050935
 30
0
  9
$LIMMIN
 10
0
 20
0
  9
$LIMMAX
 10
420
 20
297
  9
$ORTHOMODE
 70
    0
  9
$REGENMODE
 70
    1
  9
$FILLMODE
 70
    1
  9
$QTEXTMODE
 70
    0
  9
$MIRRTEXT
 70
    0
  9
$LTSCALE
 40
1
  9
$ATTMODE
 70
    0
  9
$TEXTSIZE
 40
2.5
  9
$TRACEWID
 40
15.68
  9
$TEXTSTYLE
  7
STANDARD
  9
$CLAYER
  8
0
  9
$CELTYPE
  6
BYLAYER
  9
$CECOLOR
 62
  256
  9
$CELTSCALE
 40
1
  9
$DISPSILH
 70
    0
  9
$DIMSCALE
 40
1
  9
$DIMASZ
 40
2.5
  9
$DIMEXO
 40
0.625
  9
$DIMDLI
 40
3.75
  9
$DIMRND
 40
0
  9
$DIMDLE
 40
0
  9
$DIMEXE
 40
1.25
  9
$DIMTP
 40
0
  9
$DIMTM
 40
0
  9
$DIMTXT
 40
2.5
  9
$DIMCEN
 40
2.5
  9
$DIMTSZ
 40
0
  9
$DIMTOL
 70
    0
  9
$DIMLIM
 70
    0
  9
$DIMTIH
 70
    0
  9
$DIMTOH
 70
    0
  9
$DIMSE1
 70
    0
  9
$DIMSE2
 70
    0
  9
$DIMTAD
 70
    1
  9
$DIMZIN
 70
    8
  9
$DIMBLK
  1

  9
$DIMASO
 70
    1
  9
$DIMSHO
 70
    1
  9
$DIMPOST
  1

  9
$DIMAPOST
  1

  9
$DIMALT
 70
    0
  9
$DIMALTD
 70
    3
  9
$DIMALTF
 40
0.03937
  9
$DIMLFAC
 40
1
  9
$DIMTOFL
 70
    1
  9
$DIMTVP
 40
0
  9
$DIMTIX
 70
    0
  9
$DIMSOXD
 70
    0
  9
$DIMSAH
 70
    0
  9
$DIMBLK1
  1

  9
$DIMBLK2
  1

  9
$DIMSTYLE
  2
STANDARD
  9
$DIMCLRD
 70
    0
  9
$DIMCLRE
 70
    0
  9
$DIMCLRT
 70
    0
  9
$DIMTFAC
 40
1
  9
$DIMGAP
 40
0.625
  9
$DIMJUST
 70
    0
  9
$DIMSD1
 70
    0
  9
$DIMSD2
 70
    0
  9
$DIMTOLJ
 70
    0
  9
$DIMTZIN
 70
    8
  9
$DIMALTZ
 70
    0
  9
$DIMALTTZ
 70
    0
  9
$DIMUPT
 70
    0
  9
$DIMDEC
 70
    2
  9
$DIMTDEC
 70
    2
  9
$DIMALTU
 70
    2
  9
$DIMALTTD
 70
    3
  9
$DIMTXSTY
  7
STANDARD
  9
$DIMAUNIT
 70
    0
  9
$DIMADEC
 70
    0
  9
$DIMALTRND
 40
0
  9
$DIMAZIN
 70
    0
  9
$DIMDSEP
 70
   44
  9
$DIMATFIT
 70
    3
  9
$DIMFRAC
 70
    0
  9
$DIMLDRBLK
  1
STANDARD
  9
$DIMLUNIT
 70
    2
  9
$DIMLWD
 70
   -2
  9
$DIMLWE
 70
   -2
  9
$DIMTMOVE
 70
    0
  9
$DIMFXL
 40
1
  9
$DIMFXLON
 70
    0
  9
$DIMJOGANG
 40
0.7854
  9
$DIMTFILL
 70
    0
  9
$DIMTFILLCLR
 70
    0
  9
$DIMARCSYM
 70
    0
  9
$DIMLTYPE
  6

  9
$DIMLTEX1
  6

  9
$DIMLTEX2
  6

  9
$LUNITS
 70
    2
  9
$LUPREC
 70
    4
  9
$SKETCHINC
 40
1
  9
$FILLETRAD
 40
0
  9
$AUNITS
 70
    0
  9
$AUPREC
 70
    2
  9
$MENU
  1
.
  9
$ELEVATION
 40
0
  9
$PELEVATION
 40
0
  9
$THICKNESS
 40
0
  9
$LIMCHECK
 70
    0
  9
$CHAMFERA
 40
0
  9
$CHAMFERB
 40
0
  9
$CHAMFERC
 40
0
  9
$CHAMFERD
 40
0
  9
$SKPOLY
 70
    0
  9
$USRTIMER
 70
    1
  9
$ANGBASE
 50
0
  9
$ANGDIR
 70
    0
  9
$PDMODE
 70
   34
  9
$PDSIZE
 40
0
  9
$PLINEWID
 40
0
  9
$SPLFRAME
 70
    0
  9
$SPLINETYPE
 70
    2
  9
$SPLINESEGS
 70
    8
  9
$HANDSEED
  5
20000
  9
$SURFTAB1
 70
    6
  9
$SURFTAB2
 70
    6
  9
$SURFTYPE
 70
    6
  9
$SURFU
 70
    6
  9
$SURFV
 70
    6
  9
$UCSBASE
  2

  9
$UCSNAME
  2

  9
$UCSORG
 10
0
 20
0
 30
0
  9
$UCSXDIR
 10
1
 20
0
 30
0
  9
$UCSYDIR
 10
0
 20
1
 30
0
  9
$UCSORTHOREF
  2

  9
$UCSORTHOVIEW
 70
    0
  9
$UCSORGTOP
 10
0
 20
0
 30
0
  9
$UCSORGBOTTOM
 10
0
 20
0
 30
0
  9
$UCSORGLEFT
 10
0
 20
0
 30
0
  9
$UCSORGRIGHT
 10
0
 20
0
 30
0
  9
$UCSORGFRONT
 10
0
 20
0
 30
0
  9
$UCSORGBACK
 10
0
 20
0
 30
0
  9
$PUCSBASE
  2

  9
$PUCSNAME
  2

  9
$PUCSORG
 10
0
 20
0
 30
0
  9
$PUCSXDIR
 10
1
 20
0
 30
0
  9
$PUCSYDIR
 10
0
 20
1
 30
0
  9
$PUCSORTHOREF
  2

  9
$PUCSORTHOVIEW
 70
    0
  9
$PUCSORGTOP
 10
0
 20
0
 30
0
  9
$PUCSORGBOTTOM
 10
0
 20
0
 30
0
  9
$PUCSORGLEFT
 10
0
 20
0
 30
0
  9
$PUCSORGRIGHT
 10
0
 20
0
 30
0
  9
$PUCSORGFRONT
 10
0
 20
0
 30
0
  9
$PUCSORGBACK
 10
0
 20
0
 30
0
  9
$USERI1
 70
    0
  9
$USERI2
 70
    0
  9
$USERI3
 70
    0
  9
$USERI4
 70
    0
  9
$USERI5
 70
    0
  9
$USERR1
 40
0
  9
$USERR2
 40
0
  9
$USERR3
 40
0
  9
$USERR4
 40
0
  9
$USERR5
 40
0
  9
$WORLDVIEW
 70
    1
  9
$SHADEDGE
 70
    3
  9
$SHADEDIF
 70
   70
  9
$TILEMODE
 70
    1
  9
$MAXACTVP
 70
   64
  9
$PINSBASE
 10
0
 20
0
 30
0
  9
$PLIMCHECK
 70
    0
  9
$PEXTMIN
 10
0
 20
0
 30
0
  9
$PEXTMAX
 10
0
 20
0
 30
0
  9
$GRIDMODE
 70
    1
  9
$SNAPSTYLE
 70
    0
  9
$PLIMMIN
 10
0
 20
0
  9
$PLIMMAX
 10
210
 20
297
  9
$UNITMODE
 70
    0
  9
$VISRETAIN
 70
    1
  9
$PLINEGEN
 70
    0
  9
$PSLTSCALE
 70
    1
  9
$TREEDEPTH
 70
 3020
  9
$CMLSTYLE
  2
Standard
  9
$CMLJUST
 70
    0
  9
$CMLSCALE
 40
20
  9
$PROXYGRAPHICS
 70
    1
  9
$MEASUREMENT
 70
    1
  9
$CELWEIGHT
370
   -1
  9
$ENDCAPS
280
    0
  9
$JOINSTYLE
280
    0
  9
$LWDISPLAY
290
    0
  9
$INSUNITS
 70
    4
  9
$HYPERLINKBASE
  1

  9
$STYLESHEET
  1

  9
$XEDIT
290
    1
  9
$CEPSNTYPE
380
    0
  9
$PSTYLEMODE
290
    1
  9
$EXTNAMES
290
    1
  9
$PSVPSCALE
 40
1
  9
$OLESTARTUP
290
    0
  9
$SORTENTS
280
  127
  9
$INDEXCTL
280
    0
  9
$HIDETEXT
280
    1
  9
$XCLIPFRAME
290
    0
  9
$HALOGAP
280
    0
  9
$OBSCOLOR
 70
  257
  9
$OBSLTYPE
280
    0
  9
$INTERSECTIONDISPLAY
280
    0
  9
$INTERSECTIONCOLOR
 70
  257
  9
$DIMASSOC
280
    1
  9
$PROJECTNAME
  1

  9
$CAMERADISPLAY
290
    0
  9
$LENSLENGTH
 40
50
  9
$CAMERAHEIGHT
 40
0
  9
$STEPSPERSEC
 40
2
  9
$STEPSIZE
 40
50
  9
$3DDWFPREC
 40
2
  9
$PSOLWIDTH
 40
5
  9
$PSOLHEIGHT
 40
80
  9
$LOFTANG1
 40
1.570796326794897
  9
$LOFTANG2
 40
1.570796326794897
  9
$LOFTMAG1
 40
0
  9
$LOFTMAG2
 40
0
  9
$LOFTPARAM
 70
    7
  9
$LOFTNORMALS
280
    1
  9
$LATITUDE
 40
1
  9
$LONGITUDE
 40
1
  9
$NORTHDIRECTION
 40
0
  9
$TIMEZONE
 70
-8000
  9
$LIGHTGLYPHDISPLAY
280
    1
  9
$TILEMODELIGHTSYNCH
280
    1
  9
$SOLIDHIST
280
    1
  9
$SHOWHIST
280
    1
  9
$DWFFRAME
280
    2
  9
$DGNFRAME
280
    0
  9
$REALWORLDSCALE
290
    1
  9
$INTERFERECOLOR
 62
    1
  9
$CSHADOW
280
    0
  9
$SHADOWPLANELOCATION
 40
0
  0
ENDSEC
  0
SECTION
  2
CLASSES
  0
ENDSEC
  0
SECTION
  2
TABLES
  0
TABLE
  2
VPORT
  5
8
330
0
100
AcDbSymbolTable
 70
    1
  0
VPORT
  5
31
330
2
100
AcDbSymbolTableRecord
100
AcDbViewportTableRecord
  2
*ACTIVE
 70
    0
 10
0
 20
0
 11
1
 21
1
 12
93.03353677061446
 22
32.54087833232255
 13
0
 23
0
 14
10
 24
10
 15
10
 25
10
 16
0
 26
0
 36
1
 17
0
 27
0
 37
0
 40
91.90116188359225
 41
2.037613488975357
 42
50
 43
0
 44
0
 50
0
 51
0
 71
    0
 72
  100
 73
    1
 74
    3
 75
    0
 76
    1
 77
    0
 78
    0
281
    0
 65
    1
110
0
120
0
130
0
111
1
121
0
131
0
112
0
122
1
132
0
 79
    0
146
0
348
10020
 60
    7
 61
    5
292
1
282
    1
141
0
142
0
 63
  250
421
3358443
  0
ENDTAB
  0
TABLE
  2
LTYPE
  5
5
330
0
100
AcDbSymbolTable
 70
    4
  0
LTYPE
  5
14
330
5
100
AcDbSymbolTableRecord
100
AcDbLinetypeTableRecord
  2
ByBlock
 70
    0
  3

 72
   65
 73
    0
 40
0
  0
LTYPE
  5
15
330
5
100
AcDbSymbolTableRecord
100
AcDbLinetypeTableRecord
  2
ByLayer
 70
    0
  3

 72
   65
 73
    0
 40
0
  0
LTYPE
  5
16
330
5
100
AcDbSymbolTableRecord
100
AcDbLinetypeTableRecord
  2
Continuous
 70
    0
  3
Solid line
 72
   65
 73
    0
 40
0
  0
LTYPE
  5
32
330
5
100
AcDbSymbolTableRecord
100
AcDbLinetypeTableRecord
  2
DOT
 70
    0
  3
Dot . . . . . . . . . . . . . . . . . . . . . .
 72
   65
 73
    2
 40
6.35
 49
0
 74
    0
 49
-6.35
 74
    0
  0
LTYPE
  5
33
330
5
100
AcDbSymbolTableRecord
100
AcDbLinetypeTableRecord
  2
DOTTINY
 70
    0
  3
Dot (.15x) .....................................
 72
   65
 73
    2
 40
0.9525
 49
0
 74
    0
 49
-0.9525
 74
    0
  0
LTYPE
  5
34
330
5
100
AcDbSymbolTableRecord
100
AcDbLinetypeTableRecord
  2
DOT2
 70
    0
  3
Dot (.5x) .....................................
 72
   65
 73
    2
 40
3.175
 49
0
 74
    0
 49
-3.175
 74
    0
  0
LTYPE
  5
35
330
5
100
AcDbSymbolTableRecord
100
AcDbLinetypeTableRecord
  2
DOTX2
 70
    0
  3
Dot (2x) .  .  .  .  .  .  .  .  .  .  .  .  .
 72
   65
 73
    2
 40
12.7
 49
0
 74
    0
 49
-12.7
 74
    0
  0
LTYPE
  5
36
330
5
100
AcDbSymbolTableRecord
100
AcDbLinetypeTableRecord
  2
DASHED
 70
    0
  3
Dashed _ _ _ _ _ _ _ _ _ _ _ _ _ _ _ _ _
 72
   65
 73
    2
 40
19.05
 49
12.7
 74
    0
 49
-6.35
 74
    0
  0
LTYPE
  5
37
330
5
100
AcDbSymbolTableRecord
100
AcDbLinetypeTableRecord
  2
DASHEDTINY
 70
    0
  3
Dashed (.15x) _ _ _ _ _ _ _ _ _ _ _ _ _ _ _ _ _
 72
   65
 73
    2
 40
2.8575
 49
1.905
 74
    0
 49
-0.9525
 74
    0
  0
LTYPE
  5
38
330
5
100
AcDbSymbolTableRecord
100
AcDbLinetypeTableRecord
  2
DASHED2
 70
    0
  3
Dashed (.5x) _ _ _ _ _ _ _ _ _ _ _ _ _ _ _ _ _
 72
   65
 73
    2
 40
9.524999999999999
 49
6.35
 74
    0
 49
-3.175
 74
    0
  0
LTYPE
  5
39
330
5
100
AcDbSymbolTableRecord
100
AcDbLinetypeTableRecord
  2
DASHEDX2
 70
    0
  3
Dashed (2x) ____  ____  ____  ____  ____  ___
 72
   65
 73
    2
 40
38.09999999999999
 49
25.4
 74
    0
 49
-12.7
 74
    0
  0
LTYPE
  5
3A
330
5
100
AcDbSymbolTableRecord
100
AcDbLinetypeTableRecord
  2
DASHDOT
 70
    0
  3
Dash dot __ . __ . __ . __ . __ . __ . __ . __
 72
   65
 73
    4
 40
25.4
 49
12.7
 74
    0
 49
-6.35
 74
    0
 49
0
 74
    0
 49
-6.35
 74
    0
  0
LTYPE
  5
3B
330
5
100
AcDbSymbolTableRecord
100
AcDbLinetypeTableRecord
  2
DASHDOTTINY
 70
    0
  3
Dash dot (.15x) _._._._._._._._._._._._._._._.
 72
   65
 73
    4
 40
3.81
 49
1.905
 74
    0
 49
-0.9525
 74
    0
 49
0
 74
    0
 49
-0.9525
 74
    0
  0
LTYPE
  5
3C
330
5
100
AcDbSymbolTableRecord
100
AcDbLinetypeTableRecord
  2
DASHDOT2
 70
    0
  3
Dash dot (.5x) _._._._._._._._._._._._._._._.
 72
   65
 73
    4
 40
12.7
 49
6.35
 74
    0
 49
-3.175
 74
    0
 49
0
 74
    0
 49
-3.175
 74
    0
  0
LTYPE
  5
3D
330
5
100
AcDbSymbolTableRecord
100
AcDbLinetypeTableRecord
  2
DASHDOTX2
 70
    0
  3
Dash dot (2x) ____  .  ____  .  ____  .  ___
 72
   65
 73
    4
 40
50.8
 49
25.4
 74
    0
 49
-12.7
 74
    0
 49
0
 74
    0
 49
-12.7
 74
    0
  0
LTYPE
  5
3E
330
5
100
AcDbSymbolTableRecord
100
AcDbLinetypeTableRecord
  2
DIVIDE
 70
    0
  3
Divide ____ . . ____ . . ____ . . ____ . . ____
 72
   65
 73
    6
 40
31.75
 49
12.7
 74
    0
 49
-6.35
 74
    0
 49
0
 74
    0
 49
-6.35
 74
    0
 49
0
 74
    0
 49
-6.35
 74
    0
  0
LTYPE
  5
3F
330
5
100
AcDbSymbolTableRecord
100
AcDbLinetypeTableRecord
  2
DIVIDETINY
 70
    0
  3
Divide (.15x) __..__..__..__..__..__..__..__.._
 72
   65
 73
    6
 40
4.7625
 49
1.905
 74
    0
 49
-0.9525
 74
    0
 49
0
 74
    0
 49
-0.9525
 74
    0
 49
0
 74
    0
 49
-0.9525
 74
    0
  0
LTYPE
  5
40
330
5
100
AcDbSymbolTableRecord
100
AcDbLinetypeTableRecord
  2
DIVIDE2
 70
    0
  3
Divide (.5x) __..__..__..__..__..__..__..__.._
 72
   65
 73
    6
 40
15.875
 49
6.35
 74
    0
 49
-3.175
 74
    0
 49
0
 74
    0
 49
-3.175
 74
    0
 49
0
 74
    0
 49
-3.175
 74
    0
  0
LTYPE
  5
41
330
5
100
AcDbSymbolTableRecord
100
AcDbLinetypeTableRecord
  2
DIVIDEX2
 70
    0
  3
Divide (2x) ________  .  .  ________  .  .  _
 72
   65
 73
    6
 40
63.5
 49
25.4
 74
    0
 49
-12.7
 74
    0
 49
0
 74
    0
 49
-12.7
 74
    0
 49
0
 74
    0
 49
-12.7
 74
    0
  0
LTYPE
  5
42
330
5
100
AcDbSymbolTableRecord
100
AcDbLinetypeTableRecord
  2
BORDER
 70
    0
  3
Border __ __ . __ __ . __ __ . __ __ . __ __ .
 72
   65
 73
    6
 40
44.45
 49
12.7
 74
    0
 49
-6.35
 74
    0
 49
12.7
 74
    0
 49
-6.35
 74
    0
 49
0
 74
    0
 49
-6.35
 74
    0
  0
LTYPE
  5
43
330
5
100
AcDbSymbolTableRecord
100
AcDbLinetypeTableRecord
  2
BORDERTINY
 70
    0
  3
Border (.15x) __.__.__.__.__.__.__.__.__.__.__.
 72
   65
 73
    6
 40
6.6675
 49
1.905
 74
    0
 49
-0.9525
 74
    0
 49
1.905
 74
    0
 49
-0.9525
 74
    0
 49
0
 74
    0
 49
-0.9525
 74
    0
  0
LTYPE
  5
44
330
5
100
AcDbSymbolTableRecord
100
AcDbLinetypeTableRecord
  2
BORDER2
 70
    0
  3
Border (.5x) __.__.__.__.__.__.__.__.__.__.__.
 72
   65
 73
    6
 40
22.225
 49
6.35
 74
    0
 49
-3.175
 74
    0
 49
6.35
 74
    0
 49
-3.175
 74
    0
 49
0
 74
    0
 49
-3.175
 74
    0
  0
LTYPE
  5
45
330
5
100
AcDbSymbolTableRecord
100
AcDbLinetypeTableRecord
  2
BORDERX2
 70
    0
  3
Border (2x) ____  ____  .  ____  ____  .  ___
 72
   65
 73
    6
 40
88.89999999999999
 49
25.4
 74
    0
 49
-12.7
 74
    0
 49
25.4
 74
    0
 49
-12.7
 74
    0
 49
0
 74
    0
 49
-12.7
 74
    0
  0
LTYPE
  5
46
330
5
100
AcDbSymbolTableRecord
100
AcDbLinetypeTableRecord
  2
CENTER
 70
    0
  3
Center ____ _ ____ _ ____ _ ____ _ ____ _ ____
 72
   65
 73
    4
 40
50.8
 49
31.75
 74
    0
 49
-6.35
 74
    0
 49
6.35
 74
    0
 49
-6.35
 74
    0
  0
LTYPE
  5
47
330
5
100
AcDbSymbolTableRecord
100
AcDbLinetypeTableRecord
  2
CENTERTINY
 70
    0
  3
Center (.15x) ___ _ ___ _ ___ _ ___ _ ___ _ ___
 72
   65
 73
    4
 40
7.619999999999999
 49
4.7625
 74
    0
 49
-0.9525
 74
    0
 49
0.9525
 74
    0
 49
-0.9525
 74
    0
  0
LTYPE
  5
48
330
5
100
AcDbSymbolTableRecord
100
AcDbLinetypeTableRecord
  2
CENTER2
 70
    0
  3
Center (.5x) ___ _ ___ _ ___ _ ___ _ ___ _ ___
 72
   65
 73
    4
 40
28.575
 49
19.05
 74
    0
 49
-3.175
 74
    0
 49
3.175
 74
    0
 49
-3.175
 74
    0
  0
LTYPE
  5
49
330
5
100
AcDbSymbolTableRecord
100
AcDbLinetypeTableRecord
  2
CENTERX2
 70
    0
  3
Center (2x) ________  __  ________  __  _____
 72
   65
 73
    4
 40
101.6
 49
63.5
 74
    0
 49
-12.7
 74
    0
 49
12.7
 74
    0
 49
-12.7
 74
    0
  0
ENDTAB
  0
TABLE
  2
LAYER
  5
2
330
0
100
AcDbSymbolTable
 70
    1
  0
LAYER
  5
10
330
2
100
AcDbSymbolTableRecord
100
AcDbLayerTableRecord
  2
0
 70
    0
 62
    7
  6
CONTINUOUS
370
    0
390
F
  0
ENDTAB
  0
TABLE
  2
STYLE
  5
3
330
0
100
AcDbSymbolTable
 70
    3
  0
STYLE
  5
4A
330
2
100
AcDbSymbolTableRecord
100
AcDbTextStyleTableRecord
  2
Standard
 70
    0
 40
0
 41
1
 50
0
 71
    0
 42
1
  3
txt
  4

  0
ENDTAB
  0
TABLE
  2
VIEW
  5
6
330
0
100
AcDbSymbolTable
 70
    0
  0
ENDTAB
  0
TABLE
  2
UCS
  5
7
330
0
100
AcDbSymbolTable
 70
    0
  0
ENDTAB
  0
TABLE
  2
APPID
  5
9
330
0
100
AcDbSymbolTable
 70
    1
  0
APPID
  5
12
330
9
100
AcDbSymbolTableRecord
100
AcDbRegAppTableRecord
  2
ACAD
 70
    0
  0
APPID
  5
4B
330
9
100
AcDbSymbolTableRecord
100
AcDbRegAppTableRecord
  2
LibreCad
 70
    0
  0
ENDTAB
  0
TABLE
  2
DIMSTYLE
  5
A
330
0
100
AcDbSymbolTable
 70
    1
100
AcDbDimStyleTable
 71
    1
  0
DIMSTYLE
105
4C
330
A
100
AcDbSymbolTableRecord
100
AcDbDimStyleTableRecord
  2
Standard
 70
    0
 40
1
 41
2.5
 42
0.625
 43
0.38
 44
1.25
 45
0
 46
0
 47
0
 48
0
 49
1
140
2.5
141
0.09
142
0
143
25.4
144
1
145
0
146
1
147
0.625
148
0
 71
    0
 72
    0
 73
    0
 74
    1
 75
    0
 76
    0
 77
    0
 78
    8
 79
    0
170
    0
171
    2
172
    0
173
    0
174
    0
175
    0
176
    0
177
    0
178
    0
179
    0
271
    2
272
    4
273
    2
274
    2
275
    0
276
    0
277
    2
278
   44
279
    0
280
    0
281
    0
282
    0
283
    1
284
    0
285
    0
286
    0
288
    0
289
    3
340
STANDARD
341

371
   -2
372
   -2
  0
ENDTAB
  0
TABLE
  2
BLOCK_RECORD
  5
1
330
0
100
AcDbSymbolTable
 70
    2
  0
BLOCK_RECORD
  5
1F
330
1
100
AcDbSymbolTableRecord
100
AcDbBlockTableRecord
  2
*Model_Space
 70
    0
280
    1
281
    0
  0
BLOCK_RECORD
  5
1E
330
1
100
AcDbSymbolTableRecord
100
AcDbBlockTableRecord
  2
*Paper_Space
 70
    0
280
    1
281
    0
  0
ENDTAB
  0
ENDSEC
  0
SECTION
  2
BLOCKS
  0
BLOCK
  5
20
330
1F
100
AcDbEntity
  8
0
100
AcDbBlockBegin
  2
*Model_Space
 70
    0
 10
0
 20
0
 30
0
  3
*Model_Space
  1

  0
ENDBLK
  5
21
330
1F
100
AcDbEntity
  8
0
100
AcDbBlockEnd
  0
BLOCK
  5
1C
330
1B
100
AcDbEntity
  8
0
100
AcDbBlockBegin
  2
*Paper_Space
 70
    0
 10
0
 20
0
 30
0
  3
*Paper_Space
  1

  0
ENDBLK
  5
1D
330
1F
100
AcDbEntity
  8
0
100
AcDbBlockEnd
  0
ENDSEC
  0
SECTION
  2
ENTITIES
  0
LINE
  5
4D
100
AcDbEntity
  8
0
  6
ByLayer
 62
  256
370
   -1
100
AcDbLine
 10
0.9700784229313525
 20
6.96533649490702
 11
0.9648868429451833
 21
6.145599672425393
  0
LINE
  5
4E
100
AcDbEntity
  8
0
  6
ByLayer
 62
  256
370
   -1
100
AcDbLine
 10
0.9648868429451833
 20
6.145599672425393
 11
1.427912390172244
 21
6.156086331483269
  0
LINE
  5
4F
100
AcDbEntity
  8
0
  6
ByLayer
 62
  256
370
   -1
100
AcDbLine
 10
1.427912390172244
 20
6.156086331483269
 11
1.486799014112666
 21
3.556019797054334
  0
LINE
  5
50
100
AcDbEntity
  8
0
  6
ByLayer
 62
  256
370
   -1
100
AcDbLine
 10
1.486799014112666
 20
3.556019797054334
 11
1.070994377907398
 21
3.558481142700525
  0
LINE
  5
51
100
AcDbEntity
  8
0
  6
ByLayer
 62
  256
370
   -1
100
AcDbLine
 10
1.070994377907398
 20
3.558481142700525
 11
1.065802797921244
 21
2.738744320218899
  0
LINE
  5
52
100
AcDbEntity
  8
0
  6
ByLayer
 62
  256
370
   -1
100
AcDbLine
 10
1.065802797921244
 20
2.738744320218899
 11
2.930315214145996
 21
2.757214945286421
  0
LINE
  5
53
100
AcDbEntity
  8
0
  6
ByLayer
 62
  256
370
   -1
100
AcDbLine
 10
2.930315214145996
 20
2.757214945286421
 11
2.923903232897051
 21
3.564810429145351
  0
LINE
  5
54
100
AcDbEntity
  8
0
  6
ByLayer
 62
  256
370
   -1
100
AcDbLine
 10
2.923903232897051
 20
3.564810429145351
 11
2.448736347047294
 21
3.565927331322591
  0
LINE
  5
55
100
AcDbEntity
  8
0
  6
ByLayer
 62
  256
370
   -1
100
AcDbLine
 10
2.448736347047294
 20
3.565927331322591
 11
2.401722173035777
 21
6.166262754445311
  0
LINE
  5
56
100
AcDbEntity
  8
0
  6
ByLayer
 62
  256
370
   -1
100
AcDbLine
 10
2.401722173035777
 20
6.166262754445311
 11
2.852606381640165
 21
6.188352974738305
  0
LINE
  5
57
100
AcDbEntity
  8
0
  6
ByLayer
 62
  256
370
   -1
100
AcDbLine
 10
2.852606381640165
 20
6.188352974738305
 11
2.834590839156105
 21
6.983807119974538
  0
LINE
  5
58
100
AcDbEntity
  8
0
  6
ByLayer
 62
  256
370
   -1
100
AcDbLine
 10
2.834590839156105
 20
6.983807119974538
 11
0.9700784229313525
 21
6.96533649490702
  0
LINE
  5
59
100
AcDbEntity
  8
0
  6
ByLayer
 62
  256
370
   -1
100
AcDbLine
 10
7.394687166628578
 20
7.039570578675012
 11
7.425650713816704
 21
6.196895522416959
  0
LINE
  5
5A
100
AcDbEntity
  8
0
  6
ByLayer
 62
  256
370
   -1
100
AcDbLine
 10
7.425650713816704
 20
6.196895522416959
 11
7.841186461328177
 21
6.206306626699678
  0
LINE
  5
5B
100
AcDbEntity
  8
0
  6
ByLayer
 62
  256
370
   -1
100
AcDbLine
 10
7.841186461328177
 20
6.206306626699678
 11
7.876328185410788
 21
3.605702314883162
  0
LINE
  5
5C
100
AcDbEntity
  8
0
  6
ByLayer
 62
  256
370
   -1
100
AcDbLine
 10
7.876328185410788
 20
3.605702314883162
 11
7.43731642673531
 21
3.583880983283963
  0
LINE
  5
5D
100
AcDbEntity
  8
0
  6
ByLayer
 62
  256
370
   -1
100
AcDbLine
 10
7.43731642673531
 20
3.583880983283963
 11
7.49229376247502
 21
2.729871254484587
  0
LINE
  5
5E
100
AcDbEntity
  8
0
  6
ByLayer
 62
  256
370
   -1
100
AcDbLine
 10
7.49229376247502
 20
2.729871254484587
 11
8.845484165675751
 21
2.772397015505752
  0
LINE
  5
5F
100
AcDbEntity
  8
0
  6
ByLayer
 62
  256
370
   -1
100
AcDbLine
 10
8.845484165675751
 20
2.772397015505752
 11
8.771725968772653
 21
4.980134924893438
  0
LINE
  5
60
100
AcDbEntity
  8
0
  6
ByLayer
 62
  256
370
   -1
100
AcDbLine
 10
8.771725968772653
 20
4.980134924893438
 11
9.858137962651471
 21
2.640910705402372
  0
LINE
  5
61
100
AcDbEntity
  8
0
  6
ByLayer
 62
  256
370
   -1
100
AcDbLine
 10
9.858137962651471
 20
2.640910705402372
 11
10.80514157093993
 21
4.883645492385042
  0
LINE
  5
62
100
AcDbEntity
  8
0
  6
ByLayer
 62
  256
370
   -1
100
AcDbLine
 10
10.80514157093993
 20
4.883645492385042
 11
10.84113130850599
 21
2.770080516347193
  0
LINE
  5
63
100
AcDbEntity
  8
0
  6
ByLayer
 62
  256
370
   -1
100
AcDbLine
 10
10.84113130850599
 20
2.770080516347193
 11
12.21887327764588
 21
2.777526704969254
  0
LINE
  5
64
100
AcDbEntity
  8
0
  6
ByLayer
 62
  256
370
   -1
100
AcDbLine
 10
12.21887327764588
 20
2.777526704969254
 11
12.20005106908046
 21
3.608598199992189
  0
LINE
  5
65
100
AcDbEntity
  8
0
  6
ByLayer
 62
  256
370
   -1
100
AcDbLine
 10
12.20005106908046
 20
3.608598199992189
 11
11.7364877444658
 21
3.621856440792105
  0
LINE
  5
66
100
AcDbEntity
  8
0
  6
ByLayer
 62
  256
370
   -1
100
AcDbLine
 10
11.7364877444658
 20
3.621856440792105
 11
11.67867667530055
 21
6.174433175505452
  0
LINE
  5
67
100
AcDbEntity
  8
0
  6
ByLayer
 62
  256
370
   -1
100
AcDbLine
 10
11.67867667530055
 20
6.174433175505452
 11
12.17705068362053
 21
6.197598950573605
  0
LINE
  5
68
100
AcDbEntity
  8
0
  6
ByLayer
 62
  256
370
   -1
100
AcDbLine
 10
12.17705068362053
 20
6.197598950573605
 11
12.13367690911593
 21
7.063750017995654
  0
LINE
  5
69
100
AcDbEntity
  8
0
  6
ByLayer
 62
  256
370
   -1
100
AcDbLine
 10
12.13367690911593
 20
7.063750017995654
 11
10.74433137874092
 21
7.044162490750912
  0
LINE
  5
6A
100
AcDbEntity
  8
0
  6
ByLayer
 62
  256
370
   -1
100
AcDbLine
 10
10.74433137874092
 20
7.044162490750912
 11
9.810275775156525
 21
4.754206792746435
  0
LINE
  5
6B
100
AcDbEntity
  8
0
  6
ByLayer
 62
  256
370
   -1
100
AcDbLine
 10
9.810275775156525
 20
4.754206792746435
 11
8.760018908452002
 21
7.070492778461078
  0
LINE
  5
6C
100
AcDbEntity
  8
0
  6
ByLayer
 62
  256
370
   -1
100
AcDbLine
 10
8.760018908452002
 20
7.070492778461078
 11
7.394687166628578
 21
7.039570578675012
  0
LINE
  5
6D
100
AcDbEntity
  8
0
  6
ByLayer
 62
  256
370
   -1
100
AcDbLine
 10
3.463292908000191
 20
7.021803120603307
 11
3.470511555330505
 21
6.17859028695768
  0
LINE
  5
6E
100
AcDbEntity
  8
0
  6
ByLayer
 62
  256
370
   -1
100
AcDbLine
 10
3.470511555330505
 20
6.17859028695768
 11
3.933805991251376
 21
6.17720449608665
  0
LINE
  5
6F
100
AcDbEntity
  8
0
  6
ByLayer
 62
  256
370
   -1
100
AcDbLine
 10
3.933805991251376
 20
6.17720449608665
 11
3.980820165262873
 21
3.576869072963928
  0
LINE
  5
70
100
AcDbEntity
  8
0
  6
ByLayer
 62
  256
370
   -1
100
AcDbLine
 10
3.980820165262873
 20
3.576869072963928
 11
3.541001740506023
 21
3.590665091151424
  0
LINE
  5
71
100
AcDbEntity
  8
0
  6
ByLayer
 62
  256
370
   -1
100
AcDbLine
 10
3.541001740506023
 20
3.590665091151424
 11
3.547951499142547
 21
2.759324707434682
  0
LINE
  5
72
100
AcDbEntity
  8
0
  6
ByLayer
 62
  256
370
   -1
100
AcDbLine
 10
3.547951499142547
 20
2.759324707434682
 11
6.077858888773262
 21
2.769108199496759
  0
LINE
  5
73
100
AcDbEntity
  8
0
  6
ByLayer
 62
  256
370
   -1
100
AcDbLine
 10
4.942488609503714
 20
3.598649057161067
 11
5.809446343007153
 21
3.606405481878983
  0
LINE
  5
74
100
AcDbEntity
  8
0
  6
ByLayer
 62
  256
370
   -1
100
AcDbLine
 10
5.809446343007153
 20
3.606405481878983
 11
5.801421029595449
 21
4.485235665311311
  0
LINE
  5
75
100
AcDbEntity
  8
0
  6
ByLayer
 62
  256
370
   -1
100
AcDbLine
 10
5.801421029595449
 20
4.485235665311311
 11
4.934463296092027
 21
4.477479240593395
  0
LINE
  5
76
100
AcDbEntity
  8
0
  6
ByLayer
 62
  256
370
   -1
100
AcDbLine
 10
4.934463296092027
 20
4.477479240593395
 11
4.942488609503714
 21
3.598649057161067
  0
LINE
  5
77
100
AcDbEntity
  8
0
  6
ByLayer
 62
  256
370
   -1
100
AcDbLine
 10
4.904844192372853
 20
5.260792047206955
 11
5.759660587253613
 21
5.280152033159982
  0
LINE
  5
78
100
AcDbEntity
  8
0
  6
ByLayer
 62
  256
370
   -1
100
AcDbLine
 10
5.759660587253613
 20
5.280152033159982
 11
5.751366385148119
 21
6.170854666521215
  0
LINE
  5
79
100
AcDbEntity
  8
0
  6
ByLayer
 62
  256
370
   -1
100
AcDbLine
 10
5.751366385148119
 20
6.170854666521215
 11
4.908422440196284
 21
6.151763569261996
  0
LINE
  5
7A
100
AcDbEntity
  8
0
  6
ByLayer
 62
  256
370
   -1
100
AcDbLine
 10
4.908422440196284
 20
6.151763569261996
 11
4.904844192372853
 21
5.260792047206955
  0
LINE
  5
7B
100
AcDbEntity
  8
0
  6
ByLayer
 62
  256
370
   -1
100
AcDbLine
 10
3.463292908000191
 20
7.021803120603307
 11
5.874744687035696
 21
7.017025275798556
  0
ARC
  5
7C
100
AcDbEntity
  8
0
  6
ByLayer
 62
  256
370
   -1
100
AcDbCircle
 10
5.622229077989666
 20
5.900569592279616
 40
1.144656029588639
100
AcDbArc
 50
297.9523577184247
 51
77.25549331693199
  0
ARC
  5
7D
100
AcDbEntity
  8
0
  6
ByLayer
 62
  256
370
   -1
100
AcDbCircle
 10
5.76409785437481
 20
3.852990047280636
 40
1.109062956747404
100
AcDbArc
 50
282.1568378119924
 51
69.1536753089987
  0
LINE
  5
7E
100
AcDbEntity
  8
0
  6
ByLayer
 62
  256
370
   -1
100
AcDbLine
 10
22.36294100500069
 20
1.612952392995819
 11
22.49056501173487
 21
1.623587726890351
  0
LINE
  5
7F
100
AcDbEntity
  8
0
  6
ByLayer
 62
  256
370
   -1
100
AcDbLine
 10
22.49056501173487
 20
1.623587726890351
 11
22.47992967784035
 21
1.729941065835472
  0
LINE
  5
80
100
AcDbEntity
  8
0
  6
ByLayer
 62
  256
370
   -1
100
AcDbLine
 10
22.47992967784035
 20
1.729941065835472
 11
22.43738834226228
 21
1.830976737833381
  0
LINE
  5
81
100
AcDbEntity
  8
0
  6
ByLayer
 62
  256
370
   -1
100
AcDbLine
 10
22.43738834226228
 20
1.830976737833381
 11
22.36294100500069
 21
1.921377075936734
  0
LINE
  5
82
100
AcDbEntity
  8
0
  6
ByLayer
 62
  256
370
   -1
100
AcDbLine
 10
22.36294100500069
 20
1.921377075936734
 11
22.24595233216103
 21
2.006459747092871
  0
LINE
  5
83
100
AcDbEntity
  8
0
  6
ByLayer
 62
  256
370
   -1
100
AcDbLine
 10
22.24595233216103
 20
2.006459747092871
 11
22.10769299153235
 21
2.022412747934638
  0
LINE
  5
84
100
AcDbEntity
  8
0
  6
ByLayer
 62
  256
370
   -1
100
AcDbLine
 10
22.10769299153235
 20
2.022412747934638
 11
21.99070431869269
 21
2.017095080987364
  0
LINE
  5
85
100
AcDbEntity
  8
0
  6
ByLayer
 62
  256
370
   -1
100
AcDbLine
 10
21.99070431869269
 20
2.017095080987364
 11
21.88966864669479
 21
2.006459747092871
  0
LINE
  5
86
100
AcDbEntity
  8
0
  6
ByLayer
 62
  256
370
   -1
100
AcDbLine
 10
21.88966864669479
 20
2.006459747092871
 11
21.79926830859143
 21
1.958600744567546
  0
LINE
  5
87
100
AcDbEntity
  8
0
  6
ByLayer
 62
  256
370
   -1
100
AcDbLine
 10
21.79926830859143
 20
1.958600744567546
 11
21.69291496964629
 21
1.89478874120045
  0
LINE
  5
88
100
AcDbEntity
  8
0
  6
ByLayer
 62
  256
370
   -1
100
AcDbLine
 10
21.69291496964629
 20
1.89478874120045
 11
21.63442063322645
 21
1.799070736149819
  0
LINE
  5
89
100
AcDbEntity
  8
0
  6
ByLayer
 62
  256
370
   -1
100
AcDbLine
 10
21.63442063322645
 20
1.799070736149819
 11
21.59719696459566
 21
1.618270059943074
  0
LINE
  5
8A
100
AcDbEntity
  8
0
  6
ByLayer
 62
  256
370
   -1
100
AcDbLine
 10
21.59719696459566
 20
1.618270059943074
 11
21.63442063322645
 21
1.495963720156163
  0
LINE
  5
8B
100
AcDbEntity
  8
0
  6
ByLayer
 62
  256
370
   -1
100
AcDbLine
 10
21.63442063322645
 20
1.495963720156163
 11
21.72482097132982
 21
1.426834049841812
  0
LINE
  5
8C
100
AcDbEntity
  8
0
  6
ByLayer
 62
  256
370
   -1
100
AcDbLine
 10
21.72482097132982
 20
1.426834049841812
 11
21.83117431027497
 21
1.378975047316506
  0
LINE
  5
8D
100
AcDbEntity
  8
0
  6
ByLayer
 62
  256
370
   -1
100
AcDbLine
 10
21.83117431027497
 20
1.378975047316506
 11
21.96943365090366
 21
1.368339713421997
  0
LINE
  5
8E
100
AcDbEntity
  8
0
  6
ByLayer
 62
  256
370
   -1
100
AcDbLine
 10
21.96943365090366
 20
1.368339713421997
 11
22.09705765763782
 21
1.309845377002159
  0
LINE
  5
8F
100
AcDbEntity
  8
0
  6
ByLayer
 62
  256
370
   -1
100
AcDbLine
 10
22.09705765763782
 20
1.309845377002159
 11
22.20341099658297
 21
1.272621708371366
  0
LINE
  5
90
100
AcDbEntity
  8
0
  6
ByLayer
 62
  256
370
   -1
100
AcDbLine
 10
22.20341099658297
 20
1.272621708371366
 11
22.29381133468634
 21
1.224762705846041
  0
LINE
  5
91
100
AcDbEntity
  8
0
  6
ByLayer
 62
  256
370
   -1
100
AcDbLine
 10
22.29381133468634
 20
1.224762705846041
 11
22.35230567110618
 21
1.123727033848156
  0
LINE
  5
92
100
AcDbEntity
  8
0
  6
ByLayer
 62
  256
370
   -1
100
AcDbLine
 10
22.35230567110618
 20
1.123727033848156
 11
22.36825867194795
 21
1.02269136185027
  0
LINE
  5
93
100
AcDbEntity
  8
0
  6
ByLayer
 62
  256
370
   -1
100
AcDbLine
 10
22.36825867194795
 20
1.02269136185027
 11
22.27785833384458
 21
0.9269733567996398
  0
LINE
  5
94
100
AcDbEntity
  8
0
  6
ByLayer
 62
  256
370
   -1
100
AcDbLine
 10
22.27785833384458
 20
0.9269733567996398
 11
22.17682266184669
 21
0.8631613534325474
  0
LINE
  5
95
100
AcDbEntity
  8
0
  6
ByLayer
 62
  256
370
   -1
100
AcDbLine
 10
22.17682266184669
 20
0.8631613534325474
 11
22.02792798732348
 21
0.8631613534325474
  0
LINE
  5
96
100
AcDbEntity
  8
0
  6
ByLayer
 62
  256
370
   -1
100
AcDbLine
 10
22.02792798732348
 20
0.8631613534325474
 11
21.88435097974754
 21
0.8737966873270795
  0
LINE
  5
97
100
AcDbEntity
  8
0
  6
ByLayer
 62
  256
370
   -1
100
AcDbLine
 10
21.88435097974754
 20
0.8737966873270795
 11
21.79926830859143
 21
0.9216556898523814
  0
LINE
  5
98
100
AcDbEntity
  8
0
  6
ByLayer
 62
  256
370
   -1
100
AcDbLine
 10
21.79926830859143
 20
0.9216556898523814
 11
21.71950330438257
 21
0.9801500262722193
  0
LINE
  5
99
100
AcDbEntity
  8
0
  6
ByLayer
 62
  256
370
   -1
100
AcDbLine
 10
21.71950330438257
 20
0.9801500262722193
 11
21.66100896796275
 21
1.059915030481064
  0
LINE
  5
9A
100
AcDbEntity
  8
0
  6
ByLayer
 62
  256
370
   -1
100
AcDbLine
 10
21.66100896796275
 20
1.059915030481064
 11
21.64505596712096
 21
1.187539037215248
  0
LINE
  5
9B
100
AcDbEntity
  8
0
  6
ByLayer
 62
  256
370
   -1
100
AcDbLine
 10
21.64505596712096
 20
1.187539037215248
 11
21.52274962733404
 21
1.155633035531694
  0
LINE
  5
9C
100
AcDbEntity
  8
0
  6
ByLayer
 62
  256
370
   -1
100
AcDbLine
 10
21.52274962733404
 20
1.155633035531694
 11
21.56529096291212
 21
0.9641970254304326
  0
LINE
  5
9D
100
AcDbEntity
  8
0
  6
ByLayer
 62
  256
370
   -1
100
AcDbLine
 10
21.56529096291212
 20
0.9641970254304326
 11
21.6397383001737
 21
0.8472083525907801
  0
LINE
  5
9E
100
AcDbEntity
  8
0
  6
ByLayer
 62
  256
370
   -1
100
AcDbLine
 10
21.6397383001737
 20
0.8472083525907801
 11
21.7779976408024
 21
0.7674433483819125
  0
LINE
  5
9F
100
AcDbEntity
  8
0
  6
ByLayer
 62
  256
370
   -1
100
AcDbLine
 10
21.7779976408024
 20
0.7674433483819125
 11
21.91625698143109
 21
0.7249020128038651
  0
LINE
  5
A0
100
AcDbEntity
  8
0
  6
ByLayer
 62
  256
370
   -1
100
AcDbLine
 10
21.91625698143109
 20
0.7249020128038651
 11
22.1130106584796
 21
0.7195843458566107
  0
LINE
  5
A1
100
AcDbEntity
  8
0
  6
ByLayer
 62
  256
370
   -1
100
AcDbLine
 10
22.1130106584796
 20
0.7195843458566107
 11
22.37357633889521
 21
0.7993493500654705
  0
LINE
  5
A2
100
AcDbEntity
  8
0
  6
ByLayer
 62
  256
370
   -1
100
AcDbLine
 10
22.37357633889521
 20
0.7993493500654705
 11
22.47992967784035
 21
0.8844320212215885
  0
LINE
  5
A3
100
AcDbEntity
  8
0
  6
ByLayer
 62
  256
370
   -1
100
AcDbLine
 10
22.47992967784035
 20
0.8844320212215885
 11
22.50651801257665
 21
1.054597363533809
  0
LINE
  5
A4
100
AcDbEntity
  8
0
  6
ByLayer
 62
  256
370
   -1
100
AcDbLine
 10
22.50651801257665
 20
1.054597363533809
 11
22.51183567952388
 21
1.224762705846041
  0
LINE
  5
A5
100
AcDbEntity
  8
0
  6
ByLayer
 62
  256
370
   -1
100
AcDbLine
 10
22.51183567952388
 20
1.224762705846041
 11
22.40548234057875
 21
1.336433711738459
  0
LINE
  5
A6
100
AcDbEntity
  8
0
  6
ByLayer
 62
  256
370
   -1
100
AcDbLine
 10
22.40548234057875
 20
1.336433711738459
 11
22.26722299995007
 21
1.416198715947299
  0
LINE
  5
A7
100
AcDbEntity
  8
0
  6
ByLayer
 62
  256
370
   -1
100
AcDbLine
 10
22.26722299995007
 20
1.416198715947299
 11
22.14491666016315
 21
1.448104717630861
  0
LINE
  5
A8
100
AcDbEntity
  8
0
  6
ByLayer
 62
  256
370
   -1
100
AcDbLine
 10
22.14491666016315
 20
1.448104717630861
 11
22.038563321218
 21
1.480010719314391
  0
LINE
  5
A9
100
AcDbEntity
  8
0
  6
ByLayer
 62
  256
370
   -1
100
AcDbLine
 10
22.038563321218
 20
1.480010719314391
 11
21.91625698143109
 21
1.533187388786959
  0
LINE
  5
AA
100
AcDbEntity
  8
0
  6
ByLayer
 62
  256
370
   -1
100
AcDbLine
 10
21.91625698143109
 20
1.533187388786959
 11
21.78863297469692
 21
1.607634726048561
  0
LINE
  5
AB
100
AcDbEntity
  8
0
  6
ByLayer
 62
  256
370
   -1
100
AcDbLine
 10
21.78863297469692
 20
1.607634726048561
 11
21.76204463996061
 21
1.698035064151934
  0
LINE
  5
AC
100
AcDbEntity
  8
0
  6
ByLayer
 62
  256
370
   -1
100
AcDbLine
 10
21.76204463996061
 20
1.698035064151934
 11
21.7779976408024
 21
1.799070736149819
  0
LINE
  5
AD
100
AcDbEntity
  8
0
  6
ByLayer
 62
  256
370
   -1
100
AcDbLine
 10
21.7779976408024
 20
1.799070736149819
 11
21.91625698143109
 21
1.841612071727889
  0
LINE
  5
AE
100
AcDbEntity
  8
0
  6
ByLayer
 62
  256
370
   -1
100
AcDbLine
 10
21.91625698143109
 20
1.841612071727889
 11
22.05451632205977
 21
1.873518073411428
  0
LINE
  5
AF
100
AcDbEntity
  8
0
  6
ByLayer
 62
  256
370
   -1
100
AcDbLine
 10
22.05451632205977
 20
1.873518073411428
 11
22.24063466521378
 21
1.841612071727889
  0
LINE
  5
B0
100
AcDbEntity
  8
0
  6
ByLayer
 62
  256
370
   -1
100
AcDbLine
 10
22.24063466521378
 20
1.841612071727889
 11
22.36294100500069
 21
1.612952392995819
  0
LINE
  5
B1
100
AcDbEntity
  8
0
  6
ByLayer
 62
  256
370
   -1
100
AcDbLine
 10
23.45838039613567
 20
1.341751378685698
 11
23.58068673592261
 21
1.341751378685698
  0
LINE
  5
B2
100
AcDbEntity
  8
0
  6
ByLayer
 62
  256
370
   -1
100
AcDbLine
 10
23.58068673592261
 20
1.341751378685698
 11
23.55409840118631
 21
1.442787050683583
  0
LINE
  5
B3
100
AcDbEntity
  8
0
  6
ByLayer
 62
  256
370
   -1
100
AcDbLine
 10
23.55409840118631
 20
1.442787050683583
 11
23.49028639781923
 21
1.554458056576
  0
LINE
  5
B4
100
AcDbEntity
  8
0
  6
ByLayer
 62
  256
370
   -1
100
AcDbLine
 10
23.49028639781923
 20
1.554458056576
 11
23.35202705719054
 21
1.634223060784845
  0
LINE
  5
B5
100
AcDbEntity
  8
0
  6
ByLayer
 62
  256
370
   -1
100
AcDbLine
 10
23.35202705719054
 20
1.634223060784845
 11
23.19781471572009
 21
1.650176061626627
  0
LINE
  5
B6
100
AcDbEntity
  8
0
  6
ByLayer
 62
  256
370
   -1
100
AcDbLine
 10
23.19781471572009
 20
1.650176061626627
 11
23.04360237424962
 21
1.607634726048561
  0
LINE
  5
B7
100
AcDbEntity
  8
0
  6
ByLayer
 62
  256
370
   -1
100
AcDbLine
 10
23.04360237424962
 20
1.607634726048561
 11
22.94256670225173
 21
1.570411057417768
  0
LINE
  5
B8
100
AcDbEntity
  8
0
  6
ByLayer
 62
  256
370
   -1
100
AcDbLine
 10
22.94256670225173
 20
1.570411057417768
 11
22.86280169804287
 21
1.495963720156163
  0
LINE
  5
B9
100
AcDbEntity
  8
0
  6
ByLayer
 62
  256
370
   -1
100
AcDbLine
 10
22.86280169804287
 20
1.495963720156163
 11
22.78303669383401
 21
1.315163043949414
  0
LINE
  5
BA
100
AcDbEntity
  8
0
  6
ByLayer
 62
  256
370
   -1
100
AcDbLine
 10
22.78303669383401
 20
1.315163043949414
 11
22.77240135993949
 21
1.219445038898787
  0
LINE
  5
BB
100
AcDbEntity
  8
0
  6
ByLayer
 62
  256
370
   -1
100
AcDbLine
 10
22.77240135993949
 20
1.219445038898787
 11
22.77240135993949
 21
1.118409366900901
  0
LINE
  5
BC
100
AcDbEntity
  8
0
  6
ByLayer
 62
  256
370
   -1
100
AcDbLine
 10
22.77240135993949
 20
1.118409366900901
 11
22.79367202772854
 21
0.9482440245886615
  0
LINE
  5
BD
100
AcDbEntity
  8
0
  6
ByLayer
 62
  256
370
   -1
100
AcDbLine
 10
22.79367202772854
 20
0.9482440245886615
 11
22.8468486972011
 21
0.8365730186962634
  0
LINE
  5
BE
100
AcDbEntity
  8
0
  6
ByLayer
 62
  256
370
   -1
100
AcDbLine
 10
22.8468486972011
 20
0.8365730186962634
 11
22.97447270393527
 21
0.7461726805928908
  0
LINE
  5
BF
100
AcDbEntity
  8
0
  6
ByLayer
 62
  256
370
   -1
100
AcDbLine
 10
22.97447270393527
 20
0.7461726805928908
 11
23.08614370982767
 21
0.735537346698378
  0
LINE
  5
C0
100
AcDbEntity
  8
0
  6
ByLayer
 62
  256
370
   -1
100
AcDbLine
 10
23.08614370982767
 20
0.735537346698378
 11
23.18717938182555
 21
0.7195843458566107
  0
LINE
  5
C1
100
AcDbEntity
  8
0
  6
ByLayer
 62
  256
370
   -1
100
AcDbLine
 10
23.18717938182555
 20
0.7195843458566107
 11
23.31480338855973
 21
0.7142666789093524
  0
LINE
  5
C2
100
AcDbEntity
  8
0
  6
ByLayer
 62
  256
370
   -1
100
AcDbLine
 10
23.31480338855973
 20
0.7142666789093524
 11
23.42647439445214
 21
0.7621256814346581
  0
LINE
  5
C3
100
AcDbEntity
  8
0
  6
ByLayer
 62
  256
370
   -1
100
AcDbLine
 10
23.42647439445214
 20
0.7621256814346581
 11
23.52751006645003
 21
0.8737966873270795
  0
LINE
  5
C4
100
AcDbEntity
  8
0
  6
ByLayer
 62
  256
370
   -1
100
AcDbLine
 10
23.52751006645003
 20
0.8737966873270795
 11
23.56473373508084
 21
0.9854676932194738
  0
LINE
  5
C5
100
AcDbEntity
  8
0
  6
ByLayer
 62
  256
370
   -1
100
AcDbLine
 10
23.56473373508084
 20
0.9854676932194738
 11
23.45838039613567
 21
1.049279696586547
  0
LINE
  5
C6
100
AcDbEntity
  8
0
  6
ByLayer
 62
  256
370
   -1
100
AcDbLine
 10
23.45838039613567
 20
1.049279696586547
 11
23.44774506224116
 21
0.9322910237468942
  0
LINE
  5
C7
100
AcDbEntity
  8
0
  6
ByLayer
 62
  256
370
   -1
100
AcDbLine
 10
23.44774506224116
 20
0.9322910237468942
 11
23.31480338855973
 21
0.8844320212215885
  0
LINE
  5
C8
100
AcDbEntity
  8
0
  6
ByLayer
 62
  256
370
   -1
100
AcDbLine
 10
23.31480338855973
 20
0.8844320212215885
 11
23.22440305045637
 21
0.8418906856435178
  0
LINE
  5
C9
100
AcDbEntity
  8
0
  6
ByLayer
 62
  256
370
   -1
100
AcDbLine
 10
23.22440305045637
 20
0.8418906856435178
 11
23.12336737845848
 21
0.8578436864852891
  0
LINE
  5
CA
100
AcDbEntity
  8
0
  6
ByLayer
 62
  256
370
   -1
100
AcDbLine
 10
23.12336737845848
 20
0.8578436864852891
 11
23.02764937340785
 21
0.8950673551161014
  0
LINE
  5
CB
100
AcDbEntity
  8
0
  6
ByLayer
 62
  256
370
   -1
100
AcDbLine
 10
23.02764937340785
 20
0.8950673551161014
 11
22.9585197030935
 21
0.9588793584831782
  0
LINE
  5
CC
100
AcDbEntity
  8
0
  6
ByLayer
 62
  256
370
   -1
100
AcDbLine
 10
22.9585197030935
 20
0.9588793584831782
 11
22.90534303362094
 21
1.097138699111872
  0
LINE
  5
CD
100
AcDbEntity
  8
0
  6
ByLayer
 62
  256
370
   -1
100
AcDbLine
 10
22.90534303362094
 20
1.097138699111872
 11
22.9106607005682
 21
1.198174371109761
  0
LINE
  5
CE
100
AcDbEntity
  8
0
  6
ByLayer
 62
  256
370
   -1
100
AcDbLine
 10
22.9106607005682
 20
1.198174371109761
 11
22.94256670225173
 21
1.357704379527485
  0
LINE
  5
CF
100
AcDbEntity
  8
0
  6
ByLayer
 62
  256
370
   -1
100
AcDbLine
 10
22.94256670225173
 20
1.357704379527485
 11
23.04360237424962
 21
1.45874005152537
  0
LINE
  5
D0
100
AcDbEntity
  8
0
  6
ByLayer
 62
  256
370
   -1
100
AcDbLine
 10
23.04360237424962
 20
1.45874005152537
 11
23.17122638098378
 21
1.51191672099793
  0
LINE
  5
D1
100
AcDbEntity
  8
0
  6
ByLayer
 62
  256
370
   -1
100
AcDbLine
 10
23.17122638098378
 20
1.51191672099793
 11
23.29885038771797
 21
1.533187388786959
  0
LINE
  5
D2
100
AcDbEntity
  8
0
  6
ByLayer
 62
  256
370
   -1
100
AcDbLine
 10
23.29885038771797
 20
1.533187388786959
 11
23.3945683927686
 21
1.453422384578115
  0
LINE
  5
D3
100
AcDbEntity
  8
0
  6
ByLayer
 62
  256
370
   -1
100
AcDbLine
 10
23.3945683927686
 20
1.453422384578115
 11
23.45838039613567
 21
1.341751378685698
  0
LINE
  5
D4
100
AcDbEntity
  8
0
  6
ByLayer
 62
  256
370
   -1
100
AcDbLine
 10
23.87847608496901
 20
1.953283077620287
 11
23.84657008328547
 21
0.7195843458566107
  0
LINE
  5
D5
100
AcDbEntity
  8
0
  6
ByLayer
 62
  256
370
   -1
100
AcDbLine
 10
23.84657008328547
 20
0.7195843458566107
 11
23.99546475780867
 21
0.735537346698378
  0
LINE
  5
D6
100
AcDbEntity
  8
0
  6
ByLayer
 62
  256
370
   -1
100
AcDbLine
 10
23.99546475780867
 20
0.735537346698378
 11
24.01673542559769
 21
1.320480710896668
  0
LINE
  5
D7
100
AcDbEntity
  8
0
  6
ByLayer
 62
  256
370
   -1
100
AcDbLine
 10
24.01673542559769
 20
1.320480710896668
 11
24.0539590942285
 21
1.426834049841812
  0
LINE
  5
D8
100
AcDbEntity
  8
0
  6
ByLayer
 62
  256
370
   -1
100
AcDbLine
 10
24.0539590942285
 20
1.426834049841812
 11
24.19753610180444
 21
1.490646053208908
  0
LINE
  5
D9
100
AcDbEntity
  8
0
  6
ByLayer
 62
  256
370
   -1
100
AcDbLine
 10
24.19753610180444
 20
1.490646053208908
 11
24.35174844327491
 21
1.464057718472628
  0
LINE
  5
DA
100
AcDbEntity
  8
0
  6
ByLayer
 62
  256
370
   -1
100
AcDbLine
 10
24.35174844327491
 20
1.464057718472628
 11
24.47937245000907
 21
1.341751378685698
  0
LINE
  5
DB
100
AcDbEntity
  8
0
  6
ByLayer
 62
  256
370
   -1
100
AcDbLine
 10
24.47937245000907
 20
1.341751378685698
 11
24.44746644832553
 21
0.7408550136456324
  0
LINE
  5
DC
100
AcDbEntity
  8
0
  6
ByLayer
 62
  256
370
   -1
100
AcDbLine
 10
24.44746644832553
 20
0.7408550136456324
 11
24.56445512116519
 21
0.7408550136456324
  0
LINE
  5
DD
100
AcDbEntity
  8
0
  6
ByLayer
 62
  256
370
   -1
100
AcDbLine
 10
24.56445512116519
 20
0.7408550136456324
 11
24.58040812200696
 21
1.410881049000045
  0
LINE
  5
DE
100
AcDbEntity
  8
0
  6
ByLayer
 62
  256
370
   -1
100
AcDbLine
 10
24.58040812200696
 20
1.410881049000045
 11
24.54318445337616
 21
1.522552054892443
  0
LINE
  5
DF
100
AcDbEntity
  8
0
  6
ByLayer
 62
  256
370
   -1
100
AcDbLine
 10
24.54318445337616
 20
1.522552054892443
 11
24.47405478306182
 21
1.602317059101307
  0
LINE
  5
E0
100
AcDbEntity
  8
0
  6
ByLayer
 62
  256
370
   -1
100
AcDbLine
 10
24.47405478306182
 20
1.602317059101307
 11
24.28793643990781
 21
1.634223060784845
  0
LINE
  5
E1
100
AcDbEntity
  8
0
  6
ByLayer
 62
  256
370
   -1
100
AcDbLine
 10
24.28793643990781
 20
1.634223060784845
 11
24.13372409843736
 21
1.612952392995819
  0
LINE
  5
E2
100
AcDbEntity
  8
0
  6
ByLayer
 62
  256
370
   -1
100
AcDbLine
 10
24.13372409843736
 20
1.612952392995819
 11
24.02205309254497
 21
1.533187388786959
  0
LINE
  5
E3
100
AcDbEntity
  8
0
  6
ByLayer
 62
  256
370
   -1
100
AcDbLine
 10
24.02205309254497
 20
1.533187388786959
 11
24.07788859549115
 21
1.573069890891397
  0
LINE
  5
E4
100
AcDbEntity
  8
0
  6
ByLayer
 62
  256
370
   -1
100
AcDbLine
 10
24.02205309254497
 20
1.533187388786959
 11
24.00610009170317
 21
1.969236078462058
  0
LINE
  5
E5
100
AcDbEntity
  8
0
  6
ByLayer
 62
  256
370
   -1
100
AcDbLine
 10
24.00610009170317
 20
1.969236078462058
 11
23.87847608496901
 21
1.953283077620287
  0
LINE
  5
E6
100
AcDbEntity
  8
0
  6
ByLayer
 62
  256
370
   -1
100
AcDbLine
 10
25.0111391447348
 20
1.501281387103421
 11
24.9366918074732
 21
1.426834049841812
  0
LINE
  5
E7
100
AcDbEntity
  8
0
  6
ByLayer
 62
  256
370
   -1
100
AcDbLine
 10
24.9366918074732
 20
1.426834049841812
 11
24.87287980410611
 21
1.198174371109761
  0
LINE
  5
E8
100
AcDbEntity
  8
0
  6
ByLayer
 62
  256
370
   -1
100
AcDbLine
 10
24.87287980410611
 20
1.198174371109761
 11
24.86224447021159
 21
1.043962029639292
  0
LINE
  5
E9
100
AcDbEntity
  8
0
  6
ByLayer
 62
  256
370
   -1
100
AcDbLine
 10
24.86224447021159
 20
1.043962029639292
 11
24.87287980410611
 21
0.9376086906941488
  0
LINE
  5
EA
100
AcDbEntity
  8
0
  6
ByLayer
 62
  256
370
   -1
100
AcDbLine
 10
24.87287980410611
 20
0.9376086906941488
 11
25.02709214557657
 21
0.7833963492237032
  0
LINE
  5
EB
100
AcDbEntity
  8
0
  6
ByLayer
 62
  256
370
   -1
100
AcDbLine
 10
25.02709214557657
 20
0.7833963492237032
 11
25.13344548452171
 21
0.6929960111203267
  0
LINE
  5
EC
100
AcDbEntity
  8
0
  6
ByLayer
 62
  256
370
   -1
100
AcDbLine
 10
25.13344548452171
 20
0.6929960111203267
 11
25.2982931598867
 21
0.6770430102785595
  0
LINE
  5
ED
100
AcDbEntity
  8
0
  6
ByLayer
 62
  256
370
   -1
100
AcDbLine
 10
25.2982931598867
 20
0.6770430102785595
 11
25.43123483356812
 21
0.6983136780675813
  0
LINE
  5
EE
100
AcDbEntity
  8
0
  6
ByLayer
 62
  256
370
   -1
100
AcDbLine
 10
25.43123483356812
 20
0.6983136780675813
 11
25.55885884030229
 21
0.7621256814346581
  0
LINE
  5
EF
100
AcDbEntity
  8
0
  6
ByLayer
 62
  256
370
   -1
100
AcDbLine
 10
25.55885884030229
 20
0.7621256814346581
 11
25.6705298461947
 21
0.9110203559578725
  0
LINE
  5
F0
100
AcDbEntity
  8
0
  6
ByLayer
 62
  256
370
   -1
100
AcDbLine
 10
25.6705298461947
 20
0.9110203559578725
 11
25.70243584787824
 21
1.001420694061241
  0
LINE
  5
F1
100
AcDbEntity
  8
0
  6
ByLayer
 62
  256
370
   -1
100
AcDbLine
 10
25.70243584787824
 20
1.001420694061241
 11
25.72370651566729
 21
1.20880970500427
  0
LINE
  5
F2
100
AcDbEntity
  8
0
  6
ByLayer
 62
  256
370
   -1
100
AcDbLine
 10
25.72370651566729
 20
1.20880970500427
 11
25.71838884872001
 21
1.331116044791185
  0
LINE
  5
F3
100
AcDbEntity
  8
0
  6
ByLayer
 62
  256
370
   -1
100
AcDbLine
 10
25.71838884872001
 20
1.331116044791185
 11
25.64394151145842
 21
1.464057718472628
  0
LINE
  5
F4
100
AcDbEntity
  8
0
  6
ByLayer
 62
  256
370
   -1
100
AcDbLine
 10
25.64394151145842
 20
1.464057718472628
 11
25.53227050556603
 21
1.59168172520679
  0
LINE
  5
F5
100
AcDbEntity
  8
0
  6
ByLayer
 62
  256
370
   -1
100
AcDbLine
 10
25.53227050556603
 20
1.59168172520679
 11
25.40996416577909
 21
1.634223060784845
  0
LINE
  5
F6
100
AcDbEntity
  8
0
  6
ByLayer
 62
  256
370
   -1
100
AcDbLine
 10
25.40996416577909
 20
1.634223060784845
 11
25.28234015904492
 21
1.639540727732119
  0
LINE
  5
F7
100
AcDbEntity
  8
0
  6
ByLayer
 62
  256
370
   -1
100
AcDbLine
 10
25.28234015904492
 20
1.639540727732119
 11
25.13876315146897
 21
1.628905393837587
  0
LINE
  5
F8
100
AcDbEntity
  8
0
  6
ByLayer
 62
  256
370
   -1
100
AcDbLine
 10
25.13876315146897
 20
1.628905393837587
 11
25.0111391447348
 21
1.501281387103421
  0
LINE
  5
F9
100
AcDbEntity
  8
0
  6
ByLayer
 62
  256
370
   -1
100
AcDbLine
 10
25.05368048031285
 20
1.368339713421997
 11
25.00050381084029
 21
1.203492038057016
  0
LINE
  5
FA
100
AcDbEntity
  8
0
  6
ByLayer
 62
  256
370
   -1
100
AcDbLine
 10
25.00050381084029
 20
1.203492038057016
 11
25.0111391447348
 21
1.107774033006385
  0
LINE
  5
FB
100
AcDbEntity
  8
0
  6
ByLayer
 62
  256
370
   -1
100
AcDbLine
 10
25.0111391447348
 20
1.107774033006385
 11
25.03240981252383
 21
1.006738361008499
  0
LINE
  5
FC
100
AcDbEntity
  8
0
  6
ByLayer
 62
  256
370
   -1
100
AcDbLine
 10
25.03240981252383
 20
1.006738361008499
 11
25.11749248367994
 21
0.8737966873270795
  0
LINE
  5
FD
100
AcDbEntity
  8
0
  6
ByLayer
 62
  256
370
   -1
100
AcDbLine
 10
25.11749248367994
 20
0.8737966873270795
 11
25.29297549293943
 21
0.831255351749009
  0
LINE
  5
FE
100
AcDbEntity
  8
0
  6
ByLayer
 62
  256
370
   -1
100
AcDbLine
 10
25.29297549293943
 20
0.831255351749009
 11
25.39932883188458
 21
0.831255351749009
  0
LINE
  5
FF
100
AcDbEntity
  8
0
  6
ByLayer
 62
  256
370
   -1
100
AcDbLine
 10
25.39932883188458
 20
0.831255351749009
 11
25.53227050556603
 21
0.9322910237468942
  0
LINE
  5
100
100
AcDbEntity
  8
0
  6
ByLayer
 62
  256
370
   -1
100
AcDbLine
 10
25.53227050556603
 20
0.9322910237468942
 11
25.58012950809133
 21
1.02269136185027
  0
LINE
  5
101
100
AcDbEntity
  8
0
  6
ByLayer
 62
  256
370
   -1
100
AcDbLine
 10
25.58012950809133
 20
1.02269136185027
 11
25.58544717503858
 21
1.144997701637201
  0
LINE
  5
102
100
AcDbEntity
  8
0
  6
ByLayer
 62
  256
370
   -1
100
AcDbLine
 10
25.58544717503858
 20
1.144997701637201
 11
25.58544717503858
 21
1.261986374476854
  0
LINE
  5
103
100
AcDbEntity
  8
0
  6
ByLayer
 62
  256
370
   -1
100
AcDbLine
 10
25.58544717503858
 20
1.261986374476854
 11
25.56417650724955
 21
1.384292714263761
  0
LINE
  5
104
100
AcDbEntity
  8
0
  6
ByLayer
 62
  256
370
   -1
100
AcDbLine
 10
25.56417650724955
 20
1.384292714263761
 11
25.40996416577909
 21
1.480010719314391
  0
LINE
  5
105
100
AcDbEntity
  8
0
  6
ByLayer
 62
  256
370
   -1
100
AcDbLine
 10
25.40996416577909
 20
1.480010719314391
 11
25.2344811565196
 21
1.495963720156163
  0
LINE
  5
106
100
AcDbEntity
  8
0
  6
ByLayer
 62
  256
370
   -1
100
AcDbLine
 10
25.2344811565196
 20
1.495963720156163
 11
25.13344548452171
 21
1.45874005152537
  0
LINE
  5
107
100
AcDbEntity
  8
0
  6
ByLayer
 62
  256
370
   -1
100
AcDbLine
 10
25.13344548452171
 20
1.45874005152537
 11
25.05368048031285
 21
1.368339713421997
  0
LINE
  5
108
100
AcDbEntity
  8
0
  6
ByLayer
 62
  256
370
   -1
100
AcDbLine
 10
26.0799902011335
 20
1.453422384578115
 11
25.99490752997739
 21
1.320480710896668
  0
LINE
  5
109
100
AcDbEntity
  8
0
  6
ByLayer
 62
  256
370
   -1
100
AcDbLine
 10
25.99490752997739
 20
1.320480710896668
 11
25.97895452913561
 21
1.118409366900901
  0
LINE
  5
10A
100
AcDbEntity
  8
0
  6
ByLayer
 62
  256
370
   -1
100
AcDbLine
 10
25.97895452913561
 20
1.118409366900901
 11
25.97895452913561
 21
0.9641970254304326
  0
LINE
  5
10B
100
AcDbEntity
  8
0
  6
ByLayer
 62
  256
370
   -1
100
AcDbLine
 10
25.97895452913561
 20
0.9641970254304326
 11
26.09594320197527
 21
0.7780786822764486
  0
LINE
  5
10C
100
AcDbEntity
  8
0
  6
ByLayer
 62
  256
370
   -1
100
AcDbLine
 10
26.09594320197527
 20
0.7780786822764486
 11
26.1916612070259
 21
0.687678344173053
  0
LINE
  5
10D
100
AcDbEntity
  8
0
  6
ByLayer
 62
  256
370
   -1
100
AcDbLine
 10
26.1916612070259
 20
0.687678344173053
 11
26.30864987986556
 21
0.6823606772258139
  0
LINE
  5
10E
100
AcDbEntity
  8
0
  6
ByLayer
 62
  256
370
   -1
100
AcDbLine
 10
26.30864987986556
 20
0.6823606772258139
 11
26.42032088575798
 21
0.6770430102785595
  0
LINE
  5
10F
100
AcDbEntity
  8
0
  6
ByLayer
 62
  256
370
   -1
100
AcDbLine
 10
26.42032088575798
 20
0.6770430102785595
 11
26.57985089417568
 21
0.6929960111203267
  0
LINE
  5
110
100
AcDbEntity
  8
0
  6
ByLayer
 62
  256
370
   -1
100
AcDbLine
 10
26.57985089417568
 20
0.6929960111203267
 11
26.68620423312082
 21
0.7674433483819125
  0
LINE
  5
111
100
AcDbEntity
  8
0
  6
ByLayer
 62
  256
370
   -1
100
AcDbLine
 10
26.68620423312082
 20
0.7674433483819125
 11
26.81914590680227
 21
0.9641970254304326
  0
LINE
  5
112
100
AcDbEntity
  8
0
  6
ByLayer
 62
  256
370
   -1
100
AcDbLine
 10
26.81914590680227
 20
0.9641970254304326
 11
26.86700490932757
 21
1.107774033006385
  0
LINE
  5
113
100
AcDbEntity
  8
0
  6
ByLayer
 62
  256
370
   -1
100
AcDbLine
 10
26.86700490932757
 20
1.107774033006385
 11
26.84573424153854
 21
1.304527710054901
  0
LINE
  5
114
100
AcDbEntity
  8
0
  6
ByLayer
 62
  256
370
   -1
100
AcDbLine
 10
26.84573424153854
 20
1.304527710054901
 11
26.82446357374952
 21
1.421516382894557
  0
LINE
  5
115
100
AcDbEntity
  8
0
  6
ByLayer
 62
  256
370
   -1
100
AcDbLine
 10
26.82446357374952
 20
1.421516382894557
 11
26.73406323564614
 21
1.522552054892443
  0
LINE
  5
116
100
AcDbEntity
  8
0
  6
ByLayer
 62
  256
370
   -1
100
AcDbLine
 10
26.73406323564614
 20
1.522552054892443
 11
26.61175689585924
 21
1.586364058259535
  0
LINE
  5
117
100
AcDbEntity
  8
0
  6
ByLayer
 62
  256
370
   -1
100
AcDbLine
 10
26.61175689585924
 20
1.586364058259535
 11
26.44690922049426
 21
1.623587726890351
  0
LINE
  5
118
100
AcDbEntity
  8
0
  6
ByLayer
 62
  256
370
   -1
100
AcDbLine
 10
26.44690922049426
 20
1.623587726890351
 11
26.3033322129183
 21
1.623587726890351
  0
LINE
  5
119
100
AcDbEntity
  8
0
  6
ByLayer
 62
  256
370
   -1
100
AcDbLine
 10
26.3033322129183
 20
1.623587726890351
 11
26.17570820618413
 21
1.549140389628742
  0
LINE
  5
11A
100
AcDbEntity
  8
0
  6
ByLayer
 62
  256
370
   -1
100
AcDbLine
 10
26.17570820618413
 20
1.549140389628742
 11
26.0799902011335
 21
1.453422384578115
  0
LINE
  5
11B
100
AcDbEntity
  8
0
  6
ByLayer
 62
  256
370
   -1
100
AcDbLine
 10
26.17039053923687
 20
1.373657380369252
 11
26.13848453755334
 21
1.2300803727933
  0
LINE
  5
11C
100
AcDbEntity
  8
0
  6
ByLayer
 62
  256
370
   -1
100
AcDbLine
 10
26.13848453755334
 20
1.2300803727933
 11
26.12253153671158
 21
1.107774033006385
  0
LINE
  5
11D
100
AcDbEntity
  8
0
  6
ByLayer
 62
  256
370
   -1
100
AcDbLine
 10
26.12253153671158
 20
1.107774033006385
 11
26.1172138697643
 21
0.9854676932194738
  0
LINE
  5
11E
100
AcDbEntity
  8
0
  6
ByLayer
 62
  256
370
   -1
100
AcDbLine
 10
26.1172138697643
 20
0.9854676932194738
 11
26.14911987144785
 21
0.889749688168843
  0
LINE
  5
11F
100
AcDbEntity
  8
0
  6
ByLayer
 62
  256
370
   -1
100
AcDbLine
 10
26.14911987144785
 20
0.889749688168843
 11
26.27674387818202
 21
0.8365730186962634
  0
LINE
  5
120
100
AcDbEntity
  8
0
  6
ByLayer
 62
  256
370
   -1
100
AcDbLine
 10
26.27674387818202
 20
0.8365730186962634
 11
26.3777795501799
 21
0.8153023509072416
  0
LINE
  5
121
100
AcDbEntity
  8
0
  6
ByLayer
 62
  256
370
   -1
100
AcDbLine
 10
26.3777795501799
 20
0.8153023509072416
 11
26.47349755523056
 21
0.8099846839599832
  0
LINE
  5
122
100
AcDbEntity
  8
0
  6
ByLayer
 62
  256
370
   -1
100
AcDbLine
 10
26.47349755523056
 20
0.8099846839599832
 11
26.60112156196473
 21
0.9110203559578725
  0
LINE
  5
123
100
AcDbEntity
  8
0
  6
ByLayer
 62
  256
370
   -1
100
AcDbLine
 10
26.60112156196473
 20
0.9110203559578725
 11
26.68088656617359
 21
1.070550364375592
  0
LINE
  5
124
100
AcDbEntity
  8
0
  6
ByLayer
 62
  256
370
   -1
100
AcDbLine
 10
26.68088656617359
 20
1.070550364375592
 11
26.72342790175163
 21
1.235398039740554
  0
LINE
  5
125
100
AcDbEntity
  8
0
  6
ByLayer
 62
  256
370
   -1
100
AcDbLine
 10
26.72342790175163
 20
1.235398039740554
 11
26.60643922891196
 21
1.394928048158277
  0
LINE
  5
126
100
AcDbEntity
  8
0
  6
ByLayer
 62
  256
370
   -1
100
AcDbLine
 10
26.60643922891196
 20
1.394928048158277
 11
26.50008588996682
 21
1.48532838626165
  0
LINE
  5
127
100
AcDbEntity
  8
0
  6
ByLayer
 62
  256
370
   -1
100
AcDbLine
 10
26.50008588996682
 20
1.48532838626165
 11
26.35650888239088
 21
1.474693052367137
  0
LINE
  5
128
100
AcDbEntity
  8
0
  6
ByLayer
 62
  256
370
   -1
100
AcDbLine
 10
26.35650888239088
 20
1.474693052367137
 11
26.17039053923687
 21
1.373657380369252
  0
LINE
  5
129
100
AcDbEntity
  8
0
  6
ByLayer
 62
  256
370
   -1
100
AcDbLine
 10
27.10098225500757
 20
1.900106408148327
 11
27.0850292541658
 21
0.730219679751719
  0
LINE
  5
12A
100
AcDbEntity
  8
0
  6
ByLayer
 62
  256
370
   -1
100
AcDbLine
 10
27.0850292541658
 20
0.730219679751719
 11
27.21265326089999
 21
0.6929960111209067
  0
LINE
  5
12B
100
AcDbEntity
  8
0
  6
ByLayer
 62
  256
370
   -1
100
AcDbLine
 10
27.21265326089999
 20
0.6929960111209067
 11
27.21797092784723
 21
1.038644362692633
  0
LINE
  5
12C
100
AcDbEntity
  8
0
  6
ByLayer
 62
  256
370
   -1
100
AcDbLine
 10
27.21797092784723
 20
1.038644362692633
 11
27.24987692953077
 21
1.464057718473224
  0
LINE
  5
12D
100
AcDbEntity
  8
0
  6
ByLayer
 62
  256
370
   -1
100
AcDbLine
 10
27.24987692953077
 20
1.464057718473224
 11
27.25519459647804
 21
1.777800068361396
  0
LINE
  5
12E
100
AcDbEntity
  8
0
  6
ByLayer
 62
  256
370
   -1
100
AcDbLine
 10
27.25519459647804
 20
1.777800068361396
 11
27.25519459647804
 21
1.884153407306559
  0
LINE
  5
12F
100
AcDbEntity
  8
0
  6
ByLayer
 62
  256
370
   -1
100
AcDbLine
 10
27.25519459647804
 20
1.884153407306559
 11
27.10098225500757
 21
1.900106408148327
  0
LINE
  5
130
100
AcDbEntity
  8
0
  6
ByLayer
 62
  256
370
   -1
100
AcDbLine
 10
27.62743128278605
 20
1.5544580565766
 11
27.59552528110251
 21
1.437469383736943
  0
LINE
  5
131
100
AcDbEntity
  8
0
  6
ByLayer
 62
  256
370
   -1
100
AcDbLine
 10
27.59552528110251
 20
1.437469383736943
 11
27.56893694636621
 21
1.288574709213733
  0
LINE
  5
132
100
AcDbEntity
  8
0
  6
ByLayer
 62
  256
370
   -1
100
AcDbLine
 10
27.56893694636621
 20
1.288574709213733
 11
27.61679594889151
 21
1.187539037215848
  0
LINE
  5
133
100
AcDbEntity
  8
0
  6
ByLayer
 62
  256
370
   -1
100
AcDbLine
 10
27.61679594889151
 20
1.187539037215848
 11
27.82418495983456
 21
1.12904470079601
  0
LINE
  5
134
100
AcDbEntity
  8
0
  6
ByLayer
 62
  256
370
   -1
100
AcDbLine
 10
27.82418495983456
 20
1.12904470079601
 11
27.91990296488519
 21
1.113091699954243
  0
LINE
  5
135
100
AcDbEntity
  8
0
  6
ByLayer
 62
  256
370
   -1
100
AcDbLine
 10
27.91990296488519
 20
1.113091699954243
 11
27.99966796909405
 21
1.054597363534424
  0
LINE
  5
136
100
AcDbEntity
  8
0
  6
ByLayer
 62
  256
370
   -1
100
AcDbLine
 10
27.99966796909405
 20
1.054597363534424
 11
28.08475064025017
 21
0.996103027114586
  0
LINE
  5
137
100
AcDbEntity
  8
0
  6
ByLayer
 62
  256
370
   -1
100
AcDbLine
 10
28.08475064025017
 20
0.996103027114586
 11
28.10070364109195
 21
0.82593768480235
  0
LINE
  5
138
100
AcDbEntity
  8
0
  6
ByLayer
 62
  256
370
   -1
100
AcDbLine
 10
28.10070364109195
 20
0.82593768480235
 11
27.93053829877971
 21
0.7940316831188114
  0
LINE
  5
139
100
AcDbEntity
  8
0
  6
ByLayer
 62
  256
370
   -1
100
AcDbLine
 10
27.93053829877971
 20
0.7940316831188114
 11
27.81886729288731
 21
0.799349350066066
  0
LINE
  5
13A
100
AcDbEntity
  8
0
  6
ByLayer
 62
  256
370
   -1
100
AcDbLine
 10
27.81886729288731
 20
0.799349350066066
 11
27.72846695478393
 21
0.8418906856441173
  0
LINE
  5
13B
100
AcDbEntity
  8
0
  6
ByLayer
 62
  256
370
   -1
100
AcDbLine
 10
27.72846695478393
 20
0.8418906856441173
 11
27.6327489497333
 21
0.9801500262728187
  0
LINE
  5
13C
100
AcDbEntity
  8
0
  6
ByLayer
 62
  256
370
   -1
100
AcDbLine
 10
27.6327489497333
 20
0.9801500262728187
 11
27.52107794384089
 21
0.9907853601673314
  0
LINE
  5
13D
100
AcDbEntity
  8
0
  6
ByLayer
 62
  256
370
   -1
100
AcDbLine
 10
27.52107794384089
 20
0.9907853601673314
 11
27.53703094468266
 21
0.8897496881694423
  0
LINE
  5
13E
100
AcDbEntity
  8
0
  6
ByLayer
 62
  256
370
   -1
100
AcDbLine
 10
27.53703094468266
 20
0.8897496881694423
 11
27.57425461331347
 21
0.7780786822770287
  0
LINE
  5
13F
100
AcDbEntity
  8
0
  6
ByLayer
 62
  256
370
   -1
100
AcDbLine
 10
27.57425461331347
 20
0.7780786822770287
 11
27.73910228867844
 21
0.6717253433318812
  0
LINE
  5
140
100
AcDbEntity
  8
0
  6
ByLayer
 62
  256
370
   -1
100
AcDbLine
 10
27.73910228867844
 20
0.6717253433318812
 11
27.86672629541263
 21
0.6504546755428593
  0
LINE
  5
141
100
AcDbEntity
  8
0
  6
ByLayer
 62
  256
370
   -1
100
AcDbLine
 10
27.86672629541263
 20
0.6504546755428593
 11
27.99966796909405
 21
0.6557723424901138
  0
LINE
  5
142
100
AcDbEntity
  8
0
  6
ByLayer
 62
  256
370
   -1
100
AcDbLine
 10
27.99966796909405
 20
0.6557723424901138
 11
28.12729197582822
 21
0.6929960111209067
  0
LINE
  5
143
100
AcDbEntity
  8
0
  6
ByLayer
 62
  256
370
   -1
100
AcDbLine
 10
28.12729197582822
 20
0.6929960111209067
 11
28.24959831561516
 21
0.7833963492243025
  0
LINE
  5
144
100
AcDbEntity
  8
0
  6
ByLayer
 62
  256
370
   -1
100
AcDbLine
 10
28.24959831561516
 20
0.7833963492243025
 11
28.30277498508771
 21
0.964197025431032
  0
LINE
  5
145
100
AcDbEntity
  8
0
  6
ByLayer
 62
  256
370
   -1
100
AcDbLine
 10
28.30277498508771
 20
0.964197025431032
 11
28.26023364950966
 21
1.091821032165217
  0
LINE
  5
146
100
AcDbEntity
  8
0
  6
ByLayer
 62
  256
370
   -1
100
AcDbLine
 10
28.26023364950966
 20
1.091821032165217
 11
28.11133897498646
 21
1.182221370268593
  0
LINE
  5
147
100
AcDbEntity
  8
0
  6
ByLayer
 62
  256
370
   -1
100
AcDbLine
 10
28.11133897498646
 20
1.182221370268593
 11
27.97307963435777
 21
1.192856704163102
  0
LINE
  5
148
100
AcDbEntity
  8
0
  6
ByLayer
 62
  256
370
   -1
100
AcDbLine
 10
27.97307963435777
 20
1.192856704163102
 11
27.87736162930714
 21
1.219445038899386
  0
LINE
  5
149
100
AcDbEntity
  8
0
  6
ByLayer
 62
  256
370
   -1
100
AcDbLine
 10
27.87736162930714
 20
1.219445038899386
 11
27.771008290362
 21
1.309845377002755
  0
LINE
  5
14A
100
AcDbEntity
  8
0
  6
ByLayer
 62
  256
370
   -1
100
AcDbLine
 10
27.771008290362
 20
1.309845377002755
 11
27.7444199556257
 21
1.43215171678967
  0
LINE
  5
14B
100
AcDbEntity
  8
0
  6
ByLayer
 62
  256
370
   -1
100
AcDbLine
 10
27.7444199556257
 20
1.43215171678967
 11
27.82950262678182
 21
1.485328386262253
  0
LINE
  5
14C
100
AcDbEntity
  8
0
  6
ByLayer
 62
  256
370
   -1
100
AcDbLine
 10
27.82950262678182
 20
1.485328386262253
 11
27.98371496825227
 21
1.495963720156762
  0
LINE
  5
14D
100
AcDbEntity
  8
0
  6
ByLayer
 62
  256
370
   -1
100
AcDbLine
 10
27.98371496825227
 20
1.495963720156762
 11
28.11665664193372
 21
1.389610381211622
  0
LINE
  5
14E
100
AcDbEntity
  8
0
  6
ByLayer
 62
  256
370
   -1
100
AcDbLine
 10
28.11665664193372
 20
1.389610381211622
 11
28.17515097835355
 21
1.315163043950013
  0
LINE
  5
14F
100
AcDbEntity
  8
0
  6
ByLayer
 62
  256
370
   -1
100
AcDbLine
 10
28.17515097835355
 20
1.315163043950013
 11
28.28150431729869
 21
1.394928048158877
  0
LINE
  5
150
100
AcDbEntity
  8
0
  6
ByLayer
 62
  256
370
   -1
100
AcDbLine
 10
28.28150431729869
 20
1.394928048158877
 11
28.20705698003708
 21
1.506599054051275
  0
LINE
  5
151
100
AcDbEntity
  8
0
  6
ByLayer
 62
  256
370
   -1
100
AcDbLine
 10
28.20705698003708
 20
1.506599054051275
 11
28.05284463856664
 21
1.591681725207393
  0
LINE
  5
152
100
AcDbEntity
  8
0
  6
ByLayer
 62
  256
370
   -1
100
AcDbLine
 10
28.05284463856664
 20
1.591681725207393
 11
27.89863229709617
 21
1.602317059101906
  0
LINE
  5
153
100
AcDbEntity
  8
0
  6
ByLayer
 62
  256
370
   -1
100
AcDbLine
 10
27.89863229709617
 20
1.602317059101906
 11
27.80291429204554
 21
1.591681725207393
  0
LINE
  5
154
100
AcDbEntity
  8
0
  6
ByLayer
 62
  256
370
   -1
100
AcDbLine
 10
27.80291429204554
 20
1.591681725207393
 11
27.62743128278605
 21
1.5544580565766
  0
LINE
  5
155
100
AcDbEntity
  8
0
  6
ByLayer
 62
  256
370
   -1
100
AcDbLine
 10
29.27059036948855
 20
1.767164734466883
 11
29.15360169664889
 21
1.628905393838205
  0
LINE
  5
156
100
AcDbEntity
  8
0
  6
ByLayer
 62
  256
370
   -1
100
AcDbLine
 10
29.15360169664889
 20
1.628905393838205
 11
29.07915435938729
 21
1.458740051525969
  0
LINE
  5
157
100
AcDbEntity
  8
0
  6
ByLayer
 62
  256
370
   -1
100
AcDbLine
 10
29.07915435938729
 20
1.458740051525969
 11
29.05256602465099
 21
1.341751378686316
  0
LINE
  5
158
100
AcDbEntity
  8
0
  6
ByLayer
 62
  256
370
   -1
100
AcDbLine
 10
29.05256602465099
 20
1.341751378686316
 11
29.05788369159826
 21
1.176903703321335
  0
LINE
  5
159
100
AcDbEntity
  8
0
  6
ByLayer
 62
  256
370
   -1
100
AcDbLine
 10
29.05788369159826
 20
1.176903703321335
 11
29.08447202633454
 21
1.022691361850866
  0
LINE
  5
15A
100
AcDbEntity
  8
0
  6
ByLayer
 62
  256
370
   -1
100
AcDbLine
 10
29.08447202633454
 20
1.022691361850866
 11
29.13233102885985
 21
0.9216556898529807
  0
LINE
  5
15B
100
AcDbEntity
  8
0
  6
ByLayer
 62
  256
370
   -1
100
AcDbLine
 10
29.13233102885985
 20
0.9216556898529807
 11
29.23336670085775
 21
0.8312553517496044
  0
LINE
  5
15C
100
AcDbEntity
  8
0
  6
ByLayer
 62
  256
370
   -1
100
AcDbLine
 10
29.23336670085775
 20
0.8312553517496044
 11
29.34503770675015
 21
0.7195843458572062
  0
LINE
  5
15D
100
AcDbEntity
  8
0
  6
ByLayer
 62
  256
370
   -1
100
AcDbLine
 10
29.34503770675015
 20
0.7195843458572062
 11
29.44075571180078
 21
0.6557723424901138
  0
LINE
  5
15E
100
AcDbEntity
  8
0
  6
ByLayer
 62
  256
370
   -1
100
AcDbLine
 10
29.44075571180078
 20
0.6557723424901138
 11
29.57369738548222
 21
0.6451370085956049
  0
LINE
  5
15F
100
AcDbEntity
  8
0
  6
ByLayer
 62
  256
370
   -1
100
AcDbLine
 10
29.57369738548222
 20
0.6451370085956049
 11
29.70663905916365
 21
0.6557723424901138
  0
LINE
  5
160
100
AcDbEntity
  8
0
  6
ByLayer
 62
  256
370
   -1
100
AcDbLine
 10
29.70663905916365
 20
0.6557723424901138
 11
29.80767473116153
 21
0.6770430102791434
  0
LINE
  5
161
100
AcDbEntity
  8
0
  6
ByLayer
 62
  256
370
   -1
100
AcDbLine
 10
29.80767473116153
 20
0.6770430102791434
 11
29.92998107094845
 21
0.7089490119626972
  0
LINE
  5
162
100
AcDbEntity
  8
0
  6
ByLayer
 62
  256
370
   -1
100
AcDbLine
 10
29.92998107094845
 20
0.7089490119626972
 11
30.01506374210457
 21
0.7514903475407447
  0
LINE
  5
163
100
AcDbEntity
  8
0
  6
ByLayer
 62
  256
370
   -1
100
AcDbLine
 10
30.01506374210457
 20
0.7514903475407447
 11
30.09482874631342
 21
0.8312553517496044
  0
LINE
  5
164
100
AcDbEntity
  8
0
  6
ByLayer
 62
  256
370
   -1
100
AcDbLine
 10
30.09482874631342
 20
0.8312553517496044
 11
30.12673474799698
 21
0.9322910237474936
  0
LINE
  5
165
100
AcDbEntity
  8
0
  6
ByLayer
 62
  256
370
   -1
100
AcDbLine
 10
30.12673474799698
 20
0.9322910237474936
 11
30.17459375052228
 21
1.059915030481663
  0
LINE
  5
166
100
AcDbEntity
  8
0
  6
ByLayer
 62
  256
370
   -1
100
AcDbLine
 10
30.17459375052228
 20
1.059915030481663
 11
30.06292274462989
 21
1.107774033006984
  0
LINE
  5
167
100
AcDbEntity
  8
0
  6
ByLayer
 62
  256
370
   -1
100
AcDbLine
 10
30.06292274462989
 20
1.107774033006984
 11
29.97784007347377
 21
0.9429263576420025
  0
LINE
  5
168
100
AcDbEntity
  8
0
  6
ByLayer
 62
  256
370
   -1
100
AcDbLine
 10
29.97784007347377
 20
0.9429263576420025
 11
29.78108639642526
 21
0.799349350066066
  0
LINE
  5
169
100
AcDbEntity
  8
0
  6
ByLayer
 62
  256
370
   -1
100
AcDbLine
 10
29.78108639642526
 20
0.799349350066066
 11
29.61623872106027
 21
0.7833963492243025
  0
LINE
  5
16A
100
AcDbEntity
  8
0
  6
ByLayer
 62
  256
370
   -1
100
AcDbLine
 10
29.61623872106027
 20
0.7833963492243025
 11
29.47797938043159
 21
0.8312553517496044
  0
LINE
  5
16B
100
AcDbEntity
  8
0
  6
ByLayer
 62
  256
370
   -1
100
AcDbLine
 10
29.47797938043159
 20
0.8312553517496044
 11
29.38757904232819
 21
0.8631613534331429
  0
LINE
  5
16C
100
AcDbEntity
  8
0
  6
ByLayer
 62
  256
370
   -1
100
AcDbLine
 10
29.38757904232819
 20
0.8631613534331429
 11
29.31313170506661
 21
0.9216556898529807
  0
LINE
  5
16D
100
AcDbEntity
  8
0
  6
ByLayer
 62
  256
370
   -1
100
AcDbLine
 10
29.31313170506661
 20
0.9216556898529807
 11
29.24931970169952
 21
1.006738361009095
  0
LINE
  5
16E
100
AcDbEntity
  8
0
  6
ByLayer
 62
  256
370
   -1
100
AcDbLine
 10
29.24931970169952
 20
1.006738361009095
 11
29.17487236443792
 21
1.139680034690523
  0
LINE
  5
16F
100
AcDbEntity
  8
0
  6
ByLayer
 62
  256
370
   -1
100
AcDbLine
 10
29.17487236443792
 20
1.139680034690523
 11
29.21741370001596
 21
1.389610381211622
  0
LINE
  5
170
100
AcDbEntity
  8
0
  6
ByLayer
 62
  256
370
   -1
100
AcDbLine
 10
29.21741370001596
 20
1.389610381211622
 11
29.25463736864678
 21
1.495963720156762
  0
LINE
  5
171
100
AcDbEntity
  8
0
  6
ByLayer
 62
  256
370
   -1
100
AcDbLine
 10
29.25463736864678
 20
1.495963720156762
 11
29.34503770675015
 21
1.602317059101906
  0
LINE
  5
172
100
AcDbEntity
  8
0
  6
ByLayer
 62
  256
370
   -1
100
AcDbLine
 10
29.34503770675015
 20
1.602317059101906
 11
29.41948504401174
 21
1.692717397205298
  0
LINE
  5
173
100
AcDbEntity
  8
0
  6
ByLayer
 62
  256
370
   -1
100
AcDbLine
 10
29.41948504401174
 20
1.692717397205298
 11
29.54179138379867
 21
1.756529400572371
  0
LINE
  5
174
100
AcDbEntity
  8
0
  6
ByLayer
 62
  256
370
   -1
100
AcDbLine
 10
29.54179138379867
 20
1.756529400572371
 11
29.65346238969109
 21
1.799070736150441
  0
LINE
  5
175
100
AcDbEntity
  8
0
  6
ByLayer
 62
  256
370
   -1
100
AcDbLine
 10
29.65346238969109
 20
1.799070736150441
 11
29.80767473116153
 21
1.788435402255928
  0
LINE
  5
176
100
AcDbEntity
  8
0
  6
ByLayer
 62
  256
370
   -1
100
AcDbLine
 10
29.80767473116153
 20
1.788435402255928
 11
29.92998107094845
 21
1.735258732783345
  0
LINE
  5
177
100
AcDbEntity
  8
0
  6
ByLayer
 62
  256
370
   -1
100
AcDbLine
 10
29.92998107094845
 20
1.735258732783345
 11
30.00442840821005
 21
1.565093390471113
  0
LINE
  5
178
100
AcDbEntity
  8
0
  6
ByLayer
 62
  256
370
   -1
100
AcDbLine
 10
30.00442840821005
 20
1.565093390471113
 11
30.10546408020794
 21
1.549140389629346
  0
LINE
  5
179
100
AcDbEntity
  8
0
  6
ByLayer
 62
  256
370
   -1
100
AcDbLine
 10
30.10546408020794
 20
1.549140389629346
 11
30.13737008189148
 21
1.682082063310765
  0
LINE
  5
17A
100
AcDbEntity
  8
0
  6
ByLayer
 62
  256
370
   -1
100
AcDbLine
 10
30.13737008189148
 20
1.682082063310765
 11
30.02569907599908
 21
1.820341403939463
  0
LINE
  5
17B
100
AcDbEntity
  8
0
  6
ByLayer
 62
  256
370
   -1
100
AcDbLine
 10
30.02569907599908
 20
1.820341403939463
 11
29.89807506926491
 21
1.878835740359281
  0
LINE
  5
17C
100
AcDbEntity
  8
0
  6
ByLayer
 62
  256
370
   -1
100
AcDbLine
 10
29.89807506926491
 20
1.878835740359281
 11
29.78640406337248
 21
1.889471074253814
  0
LINE
  5
17D
100
AcDbEntity
  8
0
  6
ByLayer
 62
  256
370
   -1
100
AcDbLine
 10
29.78640406337248
 20
1.889471074253814
 11
29.69068605832186
 21
1.889471074253814
  0
LINE
  5
17E
100
AcDbEntity
  8
0
  6
ByLayer
 62
  256
370
   -1
100
AcDbLine
 10
29.69068605832186
 20
1.889471074253814
 11
29.54179138379867
 21
1.889471074253814
  0
LINE
  5
17F
100
AcDbEntity
  8
0
  6
ByLayer
 62
  256
370
   -1
100
AcDbLine
 10
29.54179138379867
 20
1.889471074253814
 11
29.42480271095901
 21
1.857565072570256
  0
LINE
  5
180
100
AcDbEntity
  8
0
  6
ByLayer
 62
  256
370
   -1
100
AcDbLine
 10
29.42480271095901
 20
1.857565072570256
 11
29.27059036948855
 21
1.767164734466883
  0
LINE
  5
181
100
AcDbEntity
  8
0
  6
ByLayer
 62
  256
370
   -1
100
AcDbLine
 10
29.27059036948855
 20
1.767164734466883
 11
29.11637802801808
 21
1.543822722682083
  0
LINE
  5
182
100
AcDbEntity
  8
0
  6
ByLayer
 62
  256
370
   -1
100
AcDbLine
 10
30.53087743598852
 20
1.421516382895176
 11
30.46174776567417
 21
1.363022046475338
  0
LINE
  5
183
100
AcDbEntity
  8
0
  6
ByLayer
 62
  256
370
   -1
100
AcDbLine
 10
30.46174776567417
 20
1.363022046475338
 11
30.45111243177966
 21
1.261986374477453
  0
LINE
  5
184
100
AcDbEntity
  8
0
  6
ByLayer
 62
  256
370
   -1
100
AcDbLine
 10
30.45111243177966
 20
1.261986374477453
 11
30.4085710962016
 21
1.006738361009095
  0
LINE
  5
185
100
AcDbEntity
  8
0
  6
ByLayer
 62
  256
370
   -1
100
AcDbLine
 10
30.4085710962016
 20
1.006738361009095
 11
30.41388876314887
 21
0.8737966873276557
  0
LINE
  5
186
100
AcDbEntity
  8
0
  6
ByLayer
 62
  256
370
   -1
100
AcDbLine
 10
30.41388876314887
 20
0.8737966873276557
 11
30.45643009872692
 21
0.7727610153297704
  0
LINE
  5
187
100
AcDbEntity
  8
0
  6
ByLayer
 62
  256
370
   -1
100
AcDbLine
 10
30.45643009872692
 20
0.7727610153297704
 11
30.56810110461932
 21
0.6929960111209067
  0
LINE
  5
188
100
AcDbEntity
  8
0
  6
ByLayer
 62
  256
370
   -1
100
AcDbLine
 10
30.56810110461932
 20
0.6929960111209067
 11
30.69572511135351
 21
0.6451370085956049
  0
LINE
  5
189
100
AcDbEntity
  8
0
  6
ByLayer
 62
  256
370
   -1
100
AcDbLine
 10
30.69572511135351
 20
0.6451370085956049
 11
30.83398445198219
 21
0.6345016747010882
  0
LINE
  5
18A
100
AcDbEntity
  8
0
  6
ByLayer
 62
  256
370
   -1
100
AcDbLine
 10
30.83398445198219
 20
0.6345016747010882
 11
30.94033779092735
 21
0.6557723424901138
  0
LINE
  5
18B
100
AcDbEntity
  8
0
  6
ByLayer
 62
  256
370
   -1
100
AcDbLine
 10
30.94033779092735
 20
0.6557723424901138
 11
31.03073812903071
 21
0.6929960111209067
  0
LINE
  5
18C
100
AcDbEntity
  8
0
  6
ByLayer
 62
  256
370
   -1
100
AcDbLine
 10
31.03073812903071
 20
0.6929960111209067
 11
31.12113846713407
 21
0.7833963492243025
  0
LINE
  5
18D
100
AcDbEntity
  8
0
  6
ByLayer
 62
  256
370
   -1
100
AcDbLine
 10
31.12113846713407
 20
0.7833963492243025
 11
31.21685647218471
 21
0.9429263576420025
  0
LINE
  5
18E
100
AcDbEntity
  8
0
  6
ByLayer
 62
  256
370
   -1
100
AcDbLine
 10
31.21685647218471
 20
0.9429263576420025
 11
31.243444806921
 21
1.107774033006984
  0
LINE
  5
18F
100
AcDbEntity
  8
0
  6
ByLayer
 62
  256
370
   -1
100
AcDbLine
 10
31.243444806921
 20
1.107774033006984
 11
31.24876247386824
 21
1.261986374477453
  0
LINE
  5
190
100
AcDbEntity
  8
0
  6
ByLayer
 62
  256
370
   -1
100
AcDbLine
 10
31.24876247386824
 20
1.261986374477453
 11
31.21153880523747
 21
1.378975047317106
  0
LINE
  5
191
100
AcDbEntity
  8
0
  6
ByLayer
 62
  256
370
   -1
100
AcDbLine
 10
31.21153880523747
 20
1.378975047317106
 11
31.13177380102861
 21
1.469375385420482
  0
LINE
  5
192
100
AcDbEntity
  8
0
  6
ByLayer
 62
  256
370
   -1
100
AcDbLine
 10
31.13177380102861
 20
1.469375385420482
 11
31.03073812903071
 21
1.5278697218403
  0
LINE
  5
193
100
AcDbEntity
  8
0
  6
ByLayer
 62
  256
370
   -1
100
AcDbLine
 10
31.03073812903071
 20
1.5278697218403
 11
30.92438479008555
 21
1.543822722682083
  0
LINE
  5
194
100
AcDbEntity
  8
0
  6
ByLayer
 62
  256
370
   -1
100
AcDbLine
 10
30.92438479008555
 20
1.543822722682083
 11
30.76485478166785
 21
1.543822722682083
  0
LINE
  5
195
100
AcDbEntity
  8
0
  6
ByLayer
 62
  256
370
   -1
100
AcDbLine
 10
30.76485478166785
 20
1.543822722682083
 11
30.61596010714465
 21
1.517234387945807
  0
LINE
  5
196
100
AcDbEntity
  8
0
  6
ByLayer
 62
  256
370
   -1
100
AcDbLine
 10
30.61596010714465
 20
1.517234387945807
 11
30.53087743598852
 21
1.421516382895176
  0
LINE
  5
197
100
AcDbEntity
  8
0
  6
ByLayer
 62
  256
370
   -1
100
AcDbLine
 10
30.53087743598852
 20
1.421516382895176
 11
30.49631260083134
 21
1.392269214685248
  0
LINE
  5
198
100
AcDbEntity
  8
0
  6
ByLayer
 62
  256
370
   -1
100
AcDbLine
 10
30.56810110461932
 20
1.283257042266478
 11
30.53087743598852
 21
1.12904470079601
  0
LINE
  5
199
100
AcDbEntity
  8
0
  6
ByLayer
 62
  256
370
   -1
100
AcDbLine
 10
30.53087743598852
 20
1.12904470079601
 11
30.53087743598852
 21
1.017373694903612
  0
LINE
  5
19A
100
AcDbEntity
  8
0
  6
ByLayer
 62
  256
370
   -1
100
AcDbLine
 10
30.53087743598852
 20
1.017373694903612
 11
30.53087743598852
 21
0.9216556898529807
  0
LINE
  5
19B
100
AcDbEntity
  8
0
  6
ByLayer
 62
  256
370
   -1
100
AcDbLine
 10
30.53087743598852
 20
0.9216556898529807
 11
30.6212777740919
 21
0.7940316831188114
  0
LINE
  5
19C
100
AcDbEntity
  8
0
  6
ByLayer
 62
  256
370
   -1
100
AcDbLine
 10
30.6212777740919
 20
0.7940316831188114
 11
30.706360445248
 21
0.7514903475407447
  0
LINE
  5
19D
100
AcDbEntity
  8
0
  6
ByLayer
 62
  256
370
   -1
100
AcDbLine
 10
30.706360445248
 20
0.7514903475407447
 11
30.85525511977121
 21
0.7514903475407447
  0
LINE
  5
19E
100
AcDbEntity
  8
0
  6
ByLayer
 62
  256
370
   -1
100
AcDbLine
 10
30.85525511977121
 20
0.7514903475407447
 11
30.97224379261089
 21
0.8206200178550954
  0
LINE
  5
19F
100
AcDbEntity
  8
0
  6
ByLayer
 62
  256
370
   -1
100
AcDbLine
 10
30.97224379261089
 20
0.8206200178550954
 11
31.06796179766152
 21
1.006738361009095
  0
LINE
  5
1A0
100
AcDbEntity
  8
0
  6
ByLayer
 62
  256
370
   -1
100
AcDbLine
 10
31.06796179766152
 20
1.006738361009095
 11
31.13177380102861
 21
1.097138699112471
  0
LINE
  5
1A1
100
AcDbEntity
  8
0
  6
ByLayer
 62
  256
370
   -1
100
AcDbLine
 10
31.13177380102861
 20
1.097138699112471
 11
31.14240913492312
 21
1.203492038057615
  0
LINE
  5
1A2
100
AcDbEntity
  8
0
  6
ByLayer
 62
  256
370
   -1
100
AcDbLine
 10
31.14240913492312
 20
1.203492038057615
 11
31.0945501323978
 21
1.347069045633571
  0
LINE
  5
1A3
100
AcDbEntity
  8
0
  6
ByLayer
 62
  256
370
   -1
100
AcDbLine
 10
31.0945501323978
 20
1.347069045633571
 11
30.96692612566363
 21
1.442787050684198
  0
LINE
  5
1A4
100
AcDbEntity
  8
0
  6
ByLayer
 62
  256
370
   -1
100
AcDbLine
 10
30.96692612566363
 20
1.442787050684198
 11
30.7701724486151
 21
1.448104717631456
  0
LINE
  5
1A5
100
AcDbEntity
  8
0
  6
ByLayer
 62
  256
370
   -1
100
AcDbLine
 10
30.7701724486151
 20
1.448104717631456
 11
30.66381910966995
 21
1.43215171678967
  0
LINE
  5
1A6
100
AcDbEntity
  8
0
  6
ByLayer
 62
  256
370
   -1
100
AcDbLine
 10
30.66381910966995
 20
1.43215171678967
 11
30.56810110461932
 21
1.283257042266478
  0
LINE
  5
1A7
100
AcDbEntity
  8
0
  6
ByLayer
 62
  256
370
   -1
100
AcDbLine
 10
31.50932815428387
 20
1.506599054051275
 11
31.4827398195476
 21
0.6504546755428593
  0
LINE
  5
1A8
100
AcDbEntity
  8
0
  6
ByLayer
 62
  256
370
   -1
100
AcDbLine
 10
31.4827398195476
 20
0.6504546755428593
 11
31.61568149322899
 21
0.6504546755428593
  0
LINE
  5
1A9
100
AcDbEntity
  8
0
  6
ByLayer
 62
  256
370
   -1
100
AcDbLine
 10
31.61568149322899
 20
0.6504546755428593
 11
31.65290516185981
 21
1.171586036374077
  0
LINE
  5
1AA
100
AcDbEntity
  8
0
  6
ByLayer
 62
  256
370
   -1
100
AcDbLine
 10
31.65290516185981
 20
1.171586036374077
 11
31.66885816270157
 21
1.3045277100555
  0
LINE
  5
1AB
100
AcDbEntity
  8
0
  6
ByLayer
 62
  256
370
   -1
100
AcDbLine
 10
31.66885816270157
 20
1.3045277100555
 11
31.74330549996318
 21
1.368339713422593
  0
LINE
  5
1AC
100
AcDbEntity
  8
0
  6
ByLayer
 62
  256
370
   -1
100
AcDbLine
 10
31.74330549996318
 20
1.368339713422593
 11
31.83902350501381
 21
1.421516382895176
  0
LINE
  5
1AD
100
AcDbEntity
  8
0
  6
ByLayer
 62
  256
370
   -1
100
AcDbLine
 10
31.83902350501381
 20
1.421516382895176
 11
32.02514184816784
 21
1.368339713422593
  0
LINE
  5
1AE
100
AcDbEntity
  8
0
  6
ByLayer
 62
  256
370
   -1
100
AcDbLine
 10
32.0145065142733
 20
0.9801500262728187
 11
31.99323584648428
 21
0.8737966873276557
  0
LINE
  5
1AF
100
AcDbEntity
  8
0
  6
ByLayer
 62
  256
370
   -1
100
AcDbLine
 10
31.99323584648428
 20
0.8737966873276557
 11
32.02514184816784
 21
0.6929960111209067
  0
LINE
  5
1B0
100
AcDbEntity
  8
0
  6
ByLayer
 62
  256
370
   -1
100
AcDbLine
 10
32.02514184816784
 20
0.6929960111209067
 11
32.14213052100747
 21
0.6823606772263978
  0
LINE
  5
1B1
100
AcDbEntity
  8
0
  6
ByLayer
 62
  256
370
   -1
100
AcDbLine
 10
32.14213052100747
 20
0.6823606772263978
 11
32.15808352184924
 21
0.8206200178550954
  0
LINE
  5
1B2
100
AcDbEntity
  8
0
  6
ByLayer
 62
  256
370
   -1
100
AcDbLine
 10
32.15808352184924
 20
0.8206200178550954
 11
32.15808352184924
 21
0.9801500262728187
  0
LINE
  5
1B3
100
AcDbEntity
  8
0
  6
ByLayer
 62
  256
370
   -1
100
AcDbLine
 10
32.15808352184924
 20
0.9801500262728187
 11
32.16340118879651
 21
1.150315368585055
  0
LINE
  5
1B4
100
AcDbEntity
  8
0
  6
ByLayer
 62
  256
370
   -1
100
AcDbLine
 10
32.16340118879651
 20
1.150315368585055
 11
32.17935418963828
 21
1.256668707530179
  0
LINE
  5
1B5
100
AcDbEntity
  8
0
  6
ByLayer
 62
  256
370
   -1
100
AcDbLine
 10
32.17935418963828
 20
1.256668707530179
 11
32.29102519553068
 21
1.389610381211622
  0
LINE
  5
1B6
100
AcDbEntity
  8
0
  6
ByLayer
 62
  256
370
   -1
100
AcDbLine
 10
32.29102519553068
 20
1.389610381211622
 11
32.41864920226486
 21
1.400245715106131
  0
LINE
  5
1B7
100
AcDbEntity
  8
0
  6
ByLayer
 62
  256
370
   -1
100
AcDbLine
 10
32.41864920226486
 20
1.400245715106131
 11
32.54627320899903
 21
1.272621708371962
  0
LINE
  5
1B8
100
AcDbEntity
  8
0
  6
ByLayer
 62
  256
370
   -1
100
AcDbLine
 10
32.54627320899903
 20
1.272621708371962
 11
32.58881454457708
 21
1.102456366059726
  0
LINE
  5
1B9
100
AcDbEntity
  8
0
  6
ByLayer
 62
  256
370
   -1
100
AcDbLine
 10
32.58881454457708
 20
1.102456366059726
 11
32.58881454457708
 21
0.9748323593255641
  0
LINE
  5
1BA
100
AcDbEntity
  8
0
  6
ByLayer
 62
  256
370
   -1
100
AcDbLine
 10
32.58881454457708
 20
0.9748323593255641
 11
32.58349687762985
 21
0.8206200178550954
  0
LINE
  5
1BB
100
AcDbEntity
  8
0
  6
ByLayer
 62
  256
370
   -1
100
AcDbLine
 10
32.58349687762985
 20
0.8206200178550954
 11
32.5622262098408
 21
0.6823606772263978
  0
LINE
  5
1BC
100
AcDbEntity
  8
0
  6
ByLayer
 62
  256
370
   -1
100
AcDbLine
 10
32.5622262098408
 20
0.6823606772263978
 11
32.66857954878594
 21
0.6451370085956049
  0
LINE
  5
1BD
100
AcDbEntity
  8
0
  6
ByLayer
 62
  256
370
   -1
100
AcDbLine
 10
32.66857954878594
 20
0.6451370085956049
 11
32.68453254962771
 21
0.8525260195386339
  0
LINE
  5
1BE
100
AcDbEntity
  8
0
  6
ByLayer
 62
  256
370
   -1
100
AcDbLine
 10
32.68453254962771
 20
0.8525260195386339
 11
32.68453254962771
 21
1.097138699112471
  0
LINE
  5
1BF
100
AcDbEntity
  8
0
  6
ByLayer
 62
  256
370
   -1
100
AcDbLine
 10
32.68453254962771
 20
1.097138699112471
 11
32.71112088436401
 21
1.267304041424707
  0
LINE
  5
1C0
100
AcDbEntity
  8
0
  6
ByLayer
 62
  256
370
   -1
100
AcDbLine
 10
32.71112088436401
 20
1.267304041424707
 11
32.67389721573321
 21
1.394928048158877
  0
LINE
  5
1C1
100
AcDbEntity
  8
0
  6
ByLayer
 62
  256
370
   -1
100
AcDbLine
 10
32.67389721573321
 20
1.394928048158877
 11
32.60476754541885
 21
1.480010719314991
  0
LINE
  5
1C2
100
AcDbEntity
  8
0
  6
ByLayer
 62
  256
370
   -1
100
AcDbLine
 10
32.60476754541885
 20
1.480010719314991
 11
32.39737853447582
 21
1.543822722682083
  0
LINE
  5
1C3
100
AcDbEntity
  8
0
  6
ByLayer
 62
  256
370
   -1
100
AcDbLine
 10
32.39737853447582
 20
1.543822722682083
 11
32.30697819637246
 21
1.517234387945807
  0
LINE
  5
1C4
100
AcDbEntity
  8
0
  6
ByLayer
 62
  256
370
   -1
100
AcDbLine
 10
32.30697819637246
 20
1.517234387945807
 11
32.19530719048005
 21
1.469375385420482
  0
LINE
  5
1C5
100
AcDbEntity
  8
0
  6
ByLayer
 62
  256
370
   -1
100
AcDbLine
 10
32.19530719048005
 20
1.469375385420482
 11
32.06236551679861
 21
1.501281387104036
  0
LINE
  5
1C6
100
AcDbEntity
  8
0
  6
ByLayer
 62
  256
370
   -1
100
AcDbLine
 10
32.06236551679861
 20
1.501281387104036
 11
31.95601217785348
 21
1.543822722682083
  0
LINE
  5
1C7
100
AcDbEntity
  8
0
  6
ByLayer
 62
  256
370
   -1
100
AcDbLine
 10
31.95601217785348
 20
1.543822722682083
 11
31.79116450248849
 21
1.538505055734829
  0
LINE
  5
1C8
100
AcDbEntity
  8
0
  6
ByLayer
 62
  256
370
   -1
100
AcDbLine
 10
31.79116450248849
 20
1.538505055734829
 11
31.66885816270157
 21
1.437469383736943
  0
LINE
  5
1C9
100
AcDbEntity
  8
0
  6
ByLayer
 62
  256
370
   -1
100
AcDbLine
 10
31.66885816270157
 20
1.437469383736943
 11
31.73001133259505
 21
1.487987219735878
  0
LINE
  5
1CA
100
AcDbEntity
  8
0
  6
ByLayer
 62
  256
370
   -1
100
AcDbLine
 10
31.73001133259505
 20
1.487987219735878
 11
31.50932815428387
 21
1.506599054051275
  0
LINE
  5
1CB
100
AcDbEntity
  8
0
  6
ByLayer
 62
  256
370
   -1
100
AcDbLine
 10
33.03018090119946
 20
1.522552054893062
 11
32.97168656477963
 21
0.3579829934437123
  0
LINE
  5
1CC
100
AcDbEntity
  8
0
  6
ByLayer
 62
  256
370
   -1
100
AcDbLine
 10
33.12589890625009
 20
0.3686183273382251
 11
33.1365342401446
 21
0.6504546755428593
  0
LINE
  5
1CD
100
AcDbEntity
  8
0
  6
ByLayer
 62
  256
370
   -1
100
AcDbLine
 10
33.1365342401446
 20
0.6504546755428593
 11
33.2375699121425
 21
0.6451370085956049
  0
LINE
  5
1CE
100
AcDbEntity
  8
0
  6
ByLayer
 62
  256
370
   -1
100
AcDbLine
 10
33.2375699121425
 20
0.6451370085956049
 11
33.34392325108763
 21
0.6185486738593209
  0
LINE
  5
1CF
100
AcDbEntity
  8
0
  6
ByLayer
 62
  256
370
   -1
100
AcDbLine
 10
33.34392325108763
 20
0.6185486738593209
 11
33.53535926118889
 21
0.6291840077538338
  0
LINE
  5
1D0
100
AcDbEntity
  8
0
  6
ByLayer
 62
  256
370
   -1
100
AcDbLine
 10
33.53535926118889
 20
0.6291840077538338
 11
33.65234793402855
 21
0.6610900094373722
  0
LINE
  5
1D1
100
AcDbEntity
  8
0
  6
ByLayer
 62
  256
370
   -1
100
AcDbLine
 10
33.65234793402855
 20
0.6610900094373722
 11
33.77465427381548
 21
0.8312553517496044
  0
LINE
  5
1D2
100
AcDbEntity
  8
0
  6
ByLayer
 62
  256
370
   -1
100
AcDbLine
 10
33.77465427381548
 20
0.8312553517496044
 11
33.8331486102353
 21
0.9376086906947481
  0
LINE
  5
1D3
100
AcDbEntity
  8
0
  6
ByLayer
 62
  256
370
   -1
100
AcDbLine
 10
33.8331486102353
 20
0.9376086906947481
 11
33.84910161107706
 21
1.065232697428917
  0
LINE
  5
1D4
100
AcDbEntity
  8
0
  6
ByLayer
 62
  256
370
   -1
100
AcDbLine
 10
33.84910161107706
 20
1.065232697428917
 11
33.83846627718255
 21
1.272621708371962
  0
LINE
  5
1D5
100
AcDbEntity
  8
0
  6
ByLayer
 62
  256
370
   -1
100
AcDbLine
 10
33.83846627718255
 20
1.272621708371962
 11
33.77997194076274
 21
1.368339713422593
  0
LINE
  5
1D6
100
AcDbEntity
  8
0
  6
ByLayer
 62
  256
370
   -1
100
AcDbLine
 10
33.77997194076274
 20
1.368339713422593
 11
33.66298326792307
 21
1.490646053209508
  0
LINE
  5
1D7
100
AcDbEntity
  8
0
  6
ByLayer
 62
  256
370
   -1
100
AcDbLine
 10
33.66298326792307
 20
1.490646053209508
 11
33.54599459508341
 21
1.538505055734829
  0
LINE
  5
1D8
100
AcDbEntity
  8
0
  6
ByLayer
 62
  256
370
   -1
100
AcDbLine
 10
33.54599459508341
 20
1.538505055734829
 11
33.40241758750744
 21
1.5544580565766
  0
LINE
  5
1D9
100
AcDbEntity
  8
0
  6
ByLayer
 62
  256
370
   -1
100
AcDbLine
 10
33.40241758750744
 20
1.5544580565766
 11
33.29074658161505
 21
1.474693052367736
  0
LINE
  5
1DA
100
AcDbEntity
  8
0
  6
ByLayer
 62
  256
370
   -1
100
AcDbLine
 10
33.29074658161505
 20
1.474693052367736
 11
33.15780490793362
 21
1.400245715106131
  0
LINE
  5
1DB
100
AcDbEntity
  8
0
  6
ByLayer
 62
  256
370
   -1
100
AcDbLine
 10
33.15780490793362
 20
1.400245715106131
 11
33.18439324266991
 21
1.5278697218403
  0
LINE
  5
1DC
100
AcDbEntity
  8
0
  6
ByLayer
 62
  256
370
   -1
100
AcDbLine
 10
33.18439324266991
 20
1.5278697218403
 11
33.03018090119946
 21
1.522552054893062
  0
LINE
  5
1DD
100
AcDbEntity
  8
0
  6
ByLayer
 62
  256
370
   -1
100
AcDbLine
 10
34.13625562622896
 20
1.517234387945807
 11
34.12030262538719
 21
0.7621256814352575
  0
LINE
  5
1DE
100
AcDbEntity
  8
0
  6
ByLayer
 62
  256
370
   -1
100
AcDbLine
 10
34.12030262538719
 20
0.7621256814352575
 11
34.14689096012347
 21
0.6929960111209067
  0
LINE
  5
1DF
100
AcDbEntity
  8
0
  6
ByLayer
 62
  256
370
   -1
100
AcDbLine
 10
34.14689096012347
 20
0.6929960111209067
 11
34.18411462875428
 21
0.6451370085956049
  0
LINE
  5
1E0
100
AcDbEntity
  8
0
  6
ByLayer
 62
  256
370
   -1
100
AcDbLine
 10
34.18411462875428
 20
0.6451370085956049
 11
34.22665596433233
 21
0.6291840077538338
  0
LINE
  5
1E1
100
AcDbEntity
  8
0
  6
ByLayer
 62
  256
370
   -1
100
AcDbLine
 10
34.22665596433233
 20
0.6291840077538338
 11
34.29578563464668
 21
0.6132310069120431
  0
LINE
  5
1E2
100
AcDbEntity
  8
0
  6
ByLayer
 62
  256
370
   -1
100
AcDbLine
 10
34.29578563464668
 20
0.6132310069120431
 11
34.37555063885554
 21
0.6185486738593209
  0
LINE
  5
1E3
100
AcDbEntity
  8
0
  6
ByLayer
 62
  256
370
   -1
100
AcDbLine
 10
34.37555063885554
 20
0.6185486738593209
 11
34.40745664053908
 21
0.6185486738593209
  0
LINE
  5
1E4
100
AcDbEntity
  8
0
  6
ByLayer
 62
  256
370
   -1
100
AcDbLine
 10
34.40745664053908
 20
0.6185486738593209
 11
34.47658631085345
 21
0.6132310069120431
  0
LINE
  5
1E5
100
AcDbEntity
  8
0
  6
ByLayer
 62
  256
370
   -1
100
AcDbLine
 10
34.47658631085345
 20
0.6132310069120431
 11
34.57230431590407
 21
0.6291840077538338
  0
LINE
  5
1E6
100
AcDbEntity
  8
0
  6
ByLayer
 62
  256
370
   -1
100
AcDbLine
 10
34.57230431590407
 20
0.6291840077538338
 11
34.6414339862184
 21
0.6610900094373722
  0
LINE
  5
1E7
100
AcDbEntity
  8
0
  6
ByLayer
 62
  256
370
   -1
100
AcDbLine
 10
34.6414339862184
 20
0.6610900094373722
 11
34.68397532179647
 21
0.7408550136462357
  0
LINE
  5
1E8
100
AcDbEntity
  8
0
  6
ByLayer
 62
  256
370
   -1
100
AcDbLine
 10
34.68397532179647
 20
0.7408550136462357
 11
34.68929298874371
 21
0.6557723424901138
  0
LINE
  5
1E9
100
AcDbEntity
  8
0
  6
ByLayer
 62
  256
370
   -1
100
AcDbLine
 10
34.68929298874371
 20
0.6557723424901138
 11
34.69992832263824
 21
0.6398193416483465
  0
LINE
  5
1EA
100
AcDbEntity
  8
0
  6
ByLayer
 62
  256
370
   -1
100
AcDbLine
 10
34.69992832263824
 20
0.6398193416483465
 11
34.72651665737452
 21
0.6291840077538338
  0
LINE
  5
1EB
100
AcDbEntity
  8
0
  6
ByLayer
 62
  256
370
   -1
100
AcDbLine
 10
34.72651665737452
 20
0.6291840077538338
 11
34.76374032600533
 21
0.6132310069120431
  0
LINE
  5
1EC
100
AcDbEntity
  8
0
  6
ByLayer
 62
  256
370
   -1
100
AcDbLine
 10
34.76374032600533
 20
0.6132310069120431
 11
34.83818766326691
 21
0.6291840077538338
  0
LINE
  5
1ED
100
AcDbEntity
  8
0
  6
ByLayer
 62
  256
370
   -1
100
AcDbLine
 10
34.83818766326691
 20
0.6291840077538338
 11
34.82223466242515
 21
0.7568080144880031
  0
LINE
  5
1EE
100
AcDbEntity
  8
0
  6
ByLayer
 62
  256
370
   -1
100
AcDbLine
 10
34.82223466242515
 20
0.7568080144880031
 11
34.85414066410869
 21
0.911020355958468
  0
LINE
  5
1EF
100
AcDbEntity
  8
0
  6
ByLayer
 62
  256
370
   -1
100
AcDbLine
 10
34.85414066410869
 20
0.911020355958468
 11
34.85414066410869
 21
1.012056027956357
  0
LINE
  5
1F0
100
AcDbEntity
  8
0
  6
ByLayer
 62
  256
370
   -1
100
AcDbLine
 10
34.85414066410869
 20
1.012056027956357
 11
34.85414066410869
 21
1.107774033006984
  0
LINE
  5
1F1
100
AcDbEntity
  8
0
  6
ByLayer
 62
  256
370
   -1
100
AcDbLine
 10
34.85414066410869
 20
1.107774033006984
 11
34.85414066410869
 21
1.187539037215848
  0
LINE
  5
1F2
100
AcDbEntity
  8
0
  6
ByLayer
 62
  256
370
   -1
100
AcDbLine
 10
34.85414066410869
 20
1.187539037215848
 11
34.85945833105597
 21
1.325798377844545
  0
LINE
  5
1F3
100
AcDbEntity
  8
0
  6
ByLayer
 62
  256
370
   -1
100
AcDbLine
 10
34.85945833105597
 20
1.325798377844545
 11
34.87541133189774
 21
1.426834049842431
  0
LINE
  5
1F4
100
AcDbEntity
  8
0
  6
ByLayer
 62
  256
370
   -1
100
AcDbLine
 10
34.87541133189774
 20
1.426834049842431
 11
34.87541133189774
 21
1.495963720156762
  0
LINE
  5
1F5
100
AcDbEntity
  8
0
  6
ByLayer
 62
  256
370
   -1
100
AcDbLine
 10
34.87541133189774
 20
1.495963720156762
 11
34.8647759980032
 21
1.506599054051275
  0
LINE
  5
1F6
100
AcDbEntity
  8
0
  6
ByLayer
 62
  256
370
   -1
100
AcDbLine
 10
34.8647759980032
 20
1.506599054051275
 11
34.80628166158338
 21
1.517234387945807
  0
LINE
  5
1F7
100
AcDbEntity
  8
0
  6
ByLayer
 62
  256
370
   -1
100
AcDbLine
 10
34.80628166158338
 20
1.517234387945807
 11
34.79564632768888
 21
1.511916720998529
  0
LINE
  5
1F8
100
AcDbEntity
  8
0
  6
ByLayer
 62
  256
370
   -1
100
AcDbLine
 10
34.79564632768888
 20
1.511916720998529
 11
34.72119899042726
 21
1.495963720156762
  0
LINE
  5
1F9
100
AcDbEntity
  8
0
  6
ByLayer
 62
  256
370
   -1
100
AcDbLine
 10
34.72119899042726
 20
1.495963720156762
 11
34.72119899042726
 21
1.426834049842431
  0
LINE
  5
1FA
100
AcDbEntity
  8
0
  6
ByLayer
 62
  256
370
   -1
100
AcDbLine
 10
34.72119899042726
 20
1.426834049842431
 11
34.71588132348
 21
1.373657380369851
  0
LINE
  5
1FB
100
AcDbEntity
  8
0
  6
ByLayer
 62
  256
370
   -1
100
AcDbLine
 10
34.71588132348
 20
1.373657380369851
 11
34.71588132348
 21
1.293892376160992
  0
LINE
  5
1FC
100
AcDbEntity
  8
0
  6
ByLayer
 62
  256
370
   -1
100
AcDbLine
 10
34.71588132348
 20
1.293892376160992
 11
34.73715199126903
 21
1.155633035532309
  0
LINE
  5
1FD
100
AcDbEntity
  8
0
  6
ByLayer
 62
  256
370
   -1
100
AcDbLine
 10
34.73715199126903
 20
1.155633035532309
 11
34.72119899042726
 21
1.059915030481663
  0
LINE
  5
1FE
100
AcDbEntity
  8
0
  6
ByLayer
 62
  256
370
   -1
100
AcDbLine
 10
34.72119899042726
 20
1.059915030481663
 11
34.69461065569099
 21
0.9854676932200538
  0
LINE
  5
1FF
100
AcDbEntity
  8
0
  6
ByLayer
 62
  256
370
   -1
100
AcDbLine
 10
34.69461065569099
 20
0.9854676932200538
 11
34.69461065569099
 21
0.9269733568002353
  0
LINE
  5
200
100
AcDbEntity
  8
0
  6
ByLayer
 62
  256
370
   -1
100
AcDbLine
 10
34.69461065569099
 20
0.9269733568002353
 11
34.69461065569099
 21
0.8631613534331429
  0
LINE
  5
201
100
AcDbEntity
  8
0
  6
ByLayer
 62
  256
370
   -1
100
AcDbLine
 10
34.69461065569099
 20
0.8631613534331429
 11
34.68929298874371
 21
0.799349350066066
  0
LINE
  5
202
100
AcDbEntity
  8
0
  6
ByLayer
 62
  256
370
   -1
100
AcDbLine
 10
34.68929298874371
 20
0.799349350066066
 11
34.67333998790195
 21
0.7887140161715376
  0
LINE
  5
203
100
AcDbEntity
  8
0
  6
ByLayer
 62
  256
370
   -1
100
AcDbLine
 10
34.67333998790195
 20
0.7887140161715376
 11
34.59889265064036
 21
0.7461726805934902
  0
LINE
  5
204
100
AcDbEntity
  8
0
  6
ByLayer
 62
  256
370
   -1
100
AcDbLine
 10
34.59889265064036
 20
0.7461726805934902
 11
34.55103364811504
 21
0.7195843458572062
  0
LINE
  5
205
100
AcDbEntity
  8
0
  6
ByLayer
 62
  256
370
   -1
100
AcDbLine
 10
34.55103364811504
 20
0.7195843458572062
 11
34.50849231253698
 21
0.7036313450154389
  0
LINE
  5
206
100
AcDbEntity
  8
0
  6
ByLayer
 62
  256
370
   -1
100
AcDbLine
 10
34.50849231253698
 20
0.7036313450154389
 11
34.41277430748636
 21
0.730219679751719
  0
LINE
  5
207
100
AcDbEntity
  8
0
  6
ByLayer
 62
  256
370
   -1
100
AcDbLine
 10
34.41277430748636
 20
0.730219679751719
 11
34.33832697022473
 21
0.730219679751719
  0
LINE
  5
208
100
AcDbEntity
  8
0
  6
ByLayer
 62
  256
370
   -1
100
AcDbLine
 10
34.33832697022473
 20
0.730219679751719
 11
34.30642096854118
 21
0.7780786822770287
  0
LINE
  5
209
100
AcDbEntity
  8
0
  6
ByLayer
 62
  256
370
   -1
100
AcDbLine
 10
34.30642096854118
 20
0.7780786822770287
 11
34.29046796769942
 21
0.8099846839605825
  0
LINE
  5
20A
100
AcDbEntity
  8
0
  6
ByLayer
 62
  256
370
   -1
100
AcDbLine
 10
34.29046796769942
 20
0.8099846839605825
 11
34.26387963296315
 21
0.8684790203804013
  0
LINE
  5
20B
100
AcDbEntity
  8
0
  6
ByLayer
 62
  256
370
   -1
100
AcDbLine
 10
34.26387963296315
 20
0.8684790203804013
 11
34.2426089651741
 21
0.964197025431032
  0
LINE
  5
20C
100
AcDbEntity
  8
0
  6
ByLayer
 62
  256
370
   -1
100
AcDbLine
 10
34.2426089651741
 20
0.964197025431032
 11
34.25856196601589
 21
1.033326695745379
  0
LINE
  5
20D
100
AcDbEntity
  8
0
  6
ByLayer
 62
  256
370
   -1
100
AcDbLine
 10
34.25856196601589
 20
1.033326695745379
 11
34.25856196601589
 21
1.150315368585055
  0
LINE
  5
20E
100
AcDbEntity
  8
0
  6
ByLayer
 62
  256
370
   -1
100
AcDbLine
 10
34.25856196601589
 20
1.150315368585055
 11
34.25856196601589
 21
1.235398039741153
  0
LINE
  5
20F
100
AcDbEntity
  8
0
  6
ByLayer
 62
  256
370
   -1
100
AcDbLine
 10
34.25856196601589
 20
1.235398039741153
 11
34.25856196601589
 21
1.309845377002755
  0
LINE
  5
210
100
AcDbEntity
  8
0
  6
ByLayer
 62
  256
370
   -1
100
AcDbLine
 10
34.25856196601589
 20
1.309845377002755
 11
34.25856196601589
 21
1.384292714264364
  0
LINE
  5
211
100
AcDbEntity
  8
0
  6
ByLayer
 62
  256
370
   -1
100
AcDbLine
 10
34.25856196601589
 20
1.384292714264364
 11
34.25856196601589
 21
1.43215171678967
  0
LINE
  5
212
100
AcDbEntity
  8
0
  6
ByLayer
 62
  256
370
   -1
100
AcDbLine
 10
34.25856196601589
 20
1.43215171678967
 11
34.26387963296315
 21
1.495963720156762
  0
LINE
  5
213
100
AcDbEntity
  8
0
  6
ByLayer
 62
  256
370
   -1
100
AcDbLine
 10
34.26387963296315
 20
1.495963720156762
 11
34.20538529654333
 21
1.517234387945807
  0
LINE
  5
214
100
AcDbEntity
  8
0
  6
ByLayer
 62
  256
370
   -1
100
AcDbLine
 10
34.20538529654333
 20
1.517234387945807
 11
34.18411462875428
 21
1.522552054893062
  0
LINE
  5
215
100
AcDbEntity
  8
0
  6
ByLayer
 62
  256
370
   -1
100
AcDbLine
 10
34.18411462875428
 20
1.522552054893062
 11
34.10966729149269
 21
1.522552054893062
  0
LINE
  5
216
100
AcDbEntity
  8
0
  6
ByLayer
 62
  256
370
   -1
100
AcDbLine
 10
35.2423303512585
 20
1.772482401414157
 11
35.2423303512585
 21
1.63422306078546
  0
LINE
  5
217
100
AcDbEntity
  8
0
  6
ByLayer
 62
  256
370
   -1
100
AcDbLine
 10
35.2423303512585
 20
1.63422306078546
 11
35.22105968346946
 21
1.5544580565766
  0
LINE
  5
218
100
AcDbEntity
  8
0
  6
ByLayer
 62
  256
370
   -1
100
AcDbLine
 10
35.22105968346946
 20
1.5544580565766
 11
35.23169501736396
 21
1.506599054051275
  0
LINE
  5
219
100
AcDbEntity
  8
0
  6
ByLayer
 62
  256
370
   -1
100
AcDbLine
 10
35.23169501736396
 20
1.506599054051275
 11
35.13065934536609
 21
1.501281387104036
  0
LINE
  5
21A
100
AcDbEntity
  8
0
  6
ByLayer
 62
  256
370
   -1
100
AcDbLine
 10
35.13065934536609
 20
1.501281387104036
 11
35.08811800978801
 21
1.485328386262253
  0
LINE
  5
21B
100
AcDbEntity
  8
0
  6
ByLayer
 62
  256
370
   -1
100
AcDbLine
 10
35.08811800978801
 20
1.485328386262253
 11
35.08280034284077
 21
1.410881049000644
  0
LINE
  5
21C
100
AcDbEntity
  8
0
  6
ByLayer
 62
  256
370
   -1
100
AcDbLine
 10
35.08280034284077
 20
1.410881049000644
 11
35.08811800978801
 21
1.389610381211622
  0
LINE
  5
21D
100
AcDbEntity
  8
0
  6
ByLayer
 62
  256
370
   -1
100
AcDbLine
 10
35.08811800978801
 20
1.389610381211622
 11
35.12002401147155
 21
1.373657380369851
  0
LINE
  5
21E
100
AcDbEntity
  8
0
  6
ByLayer
 62
  256
370
   -1
100
AcDbLine
 10
35.12002401147155
 20
1.373657380369851
 11
35.22637735041671
 21
1.368339713422593
  0
LINE
  5
21F
100
AcDbEntity
  8
0
  6
ByLayer
 62
  256
370
   -1
100
AcDbLine
 10
35.22637735041671
 20
1.368339713422593
 11
35.23701268431123
 21
1.267304041424707
  0
LINE
  5
220
100
AcDbEntity
  8
0
  6
ByLayer
 62
  256
370
   -1
100
AcDbLine
 10
35.23701268431123
 20
1.267304041424707
 11
35.22637735041671
 21
1.176903703321335
  0
LINE
  5
221
100
AcDbEntity
  8
0
  6
ByLayer
 62
  256
370
   -1
100
AcDbLine
 10
35.22637735041671
 20
1.176903703321335
 11
35.21574201652219
 21
1.065232697428917
  0
LINE
  5
222
100
AcDbEntity
  8
0
  6
ByLayer
 62
  256
370
   -1
100
AcDbLine
 10
35.21574201652219
 20
1.065232697428917
 11
35.20510668262768
 21
1.00142069406184
  0
LINE
  5
223
100
AcDbEntity
  8
0
  6
ByLayer
 62
  256
370
   -1
100
AcDbLine
 10
35.20510668262768
 20
1.00142069406184
 11
35.18383601483865
 21
0.8844320212221879
  0
LINE
  5
224
100
AcDbEntity
  8
0
  6
ByLayer
 62
  256
370
   -1
100
AcDbLine
 10
35.18383601483865
 20
0.8844320212221879
 11
35.17851834789139
 21
0.7887140161715376
  0
LINE
  5
225
100
AcDbEntity
  8
0
  6
ByLayer
 62
  256
370
   -1
100
AcDbLine
 10
35.17851834789139
 20
0.7887140161715376
 11
35.15193001315509
 21
0.6929960111209067
  0
LINE
  5
226
100
AcDbEntity
  8
0
  6
ByLayer
 62
  256
370
   -1
100
AcDbLine
 10
35.15193001315509
 20
0.6929960111209067
 11
35.15724768010237
 21
0.6664076763846266
  0
LINE
  5
227
100
AcDbEntity
  8
0
  6
ByLayer
 62
  256
370
   -1
100
AcDbLine
 10
35.15724768010237
 20
0.6664076763846266
 11
35.22105968346946
 21
0.6504546755428593
  0
LINE
  5
228
100
AcDbEntity
  8
0
  6
ByLayer
 62
  256
370
   -1
100
AcDbLine
 10
35.22105968346946
 20
0.6504546755428593
 11
35.31677768852009
 21
0.6132310069120431
  0
LINE
  5
229
100
AcDbEntity
  8
0
  6
ByLayer
 62
  256
370
   -1
100
AcDbLine
 10
35.31677768852009
 20
0.6132310069120431
 11
35.38058969188716
 21
0.5813250052285125
  0
LINE
  5
22A
100
AcDbEntity
  8
0
  6
ByLayer
 62
  256
370
   -1
100
AcDbLine
 10
35.38058969188716
 20
0.5813250052285125
 11
35.44440169525426
 21
0.5760073382812541
  0
LINE
  5
22B
100
AcDbEntity
  8
0
  6
ByLayer
 62
  256
370
   -1
100
AcDbLine
 10
35.44440169525426
 20
0.5760073382812541
 11
35.46035469609602
 21
0.6025956730175537
  0
LINE
  5
22C
100
AcDbEntity
  8
0
  6
ByLayer
 62
  256
370
   -1
100
AcDbLine
 10
35.46035469609602
 20
0.6025956730175537
 11
35.47099002999054
 21
0.6398193416483465
  0
LINE
  5
22D
100
AcDbEntity
  8
0
  6
ByLayer
 62
  256
370
   -1
100
AcDbLine
 10
35.47099002999054
 20
0.6398193416483465
 11
35.47630769693779
 21
0.6823606772263978
  0
LINE
  5
22E
100
AcDbEntity
  8
0
  6
ByLayer
 62
  256
370
   -1
100
AcDbLine
 10
35.47630769693779
 20
0.6823606772263978
 11
35.47630769693779
 21
0.7355373466989735
  0
LINE
  5
22F
100
AcDbEntity
  8
0
  6
ByLayer
 62
  256
370
   -1
100
AcDbLine
 10
35.47630769693779
 20
0.7355373466989735
 11
35.439084028307
 21
0.7514903475407447
  0
LINE
  5
230
100
AcDbEntity
  8
0
  6
ByLayer
 62
  256
370
   -1
100
AcDbLine
 10
35.439084028307
 20
0.7514903475407447
 11
35.39654269272894
 21
0.767443348382512
  0
LINE
  5
231
100
AcDbEntity
  8
0
  6
ByLayer
 62
  256
370
   -1
100
AcDbLine
 10
35.39654269272894
 20
0.767443348382512
 11
35.38058969188716
 21
0.7833963492243025
  0
LINE
  5
232
100
AcDbEntity
  8
0
  6
ByLayer
 62
  256
370
   -1
100
AcDbLine
 10
35.38058969188716
 20
0.7833963492243025
 11
35.35931902409814
 21
0.8525260195386339
  0
LINE
  5
233
100
AcDbEntity
  8
0
  6
ByLayer
 62
  256
370
   -1
100
AcDbLine
 10
35.35931902409814
 20
0.8525260195386339
 11
35.35931902409814
 21
0.9322910237474936
  0
LINE
  5
234
100
AcDbEntity
  8
0
  6
ByLayer
 62
  256
370
   -1
100
AcDbLine
 10
35.35931902409814
 20
0.9322910237474936
 11
35.35931902409814
 21
1.006738361009095
  0
LINE
  5
235
100
AcDbEntity
  8
0
  6
ByLayer
 62
  256
370
   -1
100
AcDbLine
 10
35.35931902409814
 20
1.006738361009095
 11
35.35931902409814
 21
1.065232697428917
  0
LINE
  5
236
100
AcDbEntity
  8
0
  6
ByLayer
 62
  256
370
   -1
100
AcDbLine
 10
35.35931902409814
 20
1.065232697428917
 11
35.3646366910454
 21
1.155633035532309
  0
LINE
  5
237
100
AcDbEntity
  8
0
  6
ByLayer
 62
  256
370
   -1
100
AcDbLine
 10
35.3646366910454
 20
1.155633035532309
 11
35.3646366910454
 21
1.25135104058294
  0
LINE
  5
238
100
AcDbEntity
  8
0
  6
ByLayer
 62
  256
370
   -1
100
AcDbLine
 10
35.3646366910454
 20
1.25135104058294
 11
35.36995435799268
 21
1.299210043108246
  0
LINE
  5
239
100
AcDbEntity
  8
0
  6
ByLayer
 62
  256
370
   -1
100
AcDbLine
 10
35.36995435799268
 20
1.299210043108246
 11
35.36995435799268
 21
1.336433711739039
  0
LINE
  5
23A
100
AcDbEntity
  8
0
  6
ByLayer
 62
  256
370
   -1
100
AcDbLine
 10
35.36995435799268
 20
1.336433711739039
 11
35.3752720249399
 21
1.394928048158877
  0
LINE
  5
23B
100
AcDbEntity
  8
0
  6
ByLayer
 62
  256
370
   -1
100
AcDbLine
 10
35.3752720249399
 20
1.394928048158877
 11
35.38058969188716
 21
1.400245715106131
  0
LINE
  5
23C
100
AcDbEntity
  8
0
  6
ByLayer
 62
  256
370
   -1
100
AcDbLine
 10
35.38058969188716
 20
1.400245715106131
 11
35.40186035967621
 21
1.394928048158877
  0
LINE
  5
23D
100
AcDbEntity
  8
0
  6
ByLayer
 62
  256
370
   -1
100
AcDbLine
 10
35.40186035967621
 20
1.394928048158877
 11
35.44440169525426
 21
1.400245715106131
  0
LINE
  5
23E
100
AcDbEntity
  8
0
  6
ByLayer
 62
  256
370
   -1
100
AcDbLine
 10
35.44440169525426
 20
1.400245715106131
 11
35.49226069777959
 21
1.394928048158877
  0
LINE
  5
23F
100
AcDbEntity
  8
0
  6
ByLayer
 62
  256
370
   -1
100
AcDbLine
 10
35.49226069777959
 20
1.394928048158877
 11
35.5401197003049
 21
1.384292714264364
  0
LINE
  5
240
100
AcDbEntity
  8
0
  6
ByLayer
 62
  256
370
   -1
100
AcDbLine
 10
35.5401197003049
 20
1.384292714264364
 11
35.5507550341994
 21
1.442787050684198
  0
LINE
  5
241
100
AcDbEntity
  8
0
  6
ByLayer
 62
  256
370
   -1
100
AcDbLine
 10
35.5507550341994
 20
1.442787050684198
 11
35.55607270114665
 21
1.458740051525969
  0
LINE
  5
242
100
AcDbEntity
  8
0
  6
ByLayer
 62
  256
370
   -1
100
AcDbLine
 10
35.55607270114665
 20
1.458740051525969
 11
35.5507550341994
 21
1.485328386262253
  0
LINE
  5
243
100
AcDbEntity
  8
0
  6
ByLayer
 62
  256
370
   -1
100
AcDbLine
 10
35.5507550341994
 20
1.485328386262253
 11
35.5401197003049
 21
1.506599054051275
  0
LINE
  5
244
100
AcDbEntity
  8
0
  6
ByLayer
 62
  256
370
   -1
100
AcDbLine
 10
35.5401197003049
 20
1.506599054051275
 11
35.50821369862135
 21
1.522552054893062
  0
LINE
  5
245
100
AcDbEntity
  8
0
  6
ByLayer
 62
  256
370
   -1
100
AcDbLine
 10
35.50821369862135
 20
1.522552054893062
 11
35.45503702914876
 21
1.533187388787574
  0
LINE
  5
246
100
AcDbEntity
  8
0
  6
ByLayer
 62
  256
370
   -1
100
AcDbLine
 10
35.45503702914876
 20
1.533187388787574
 11
35.41249569357073
 21
1.538505055734829
  0
LINE
  5
247
100
AcDbEntity
  8
0
  6
ByLayer
 62
  256
370
   -1
100
AcDbLine
 10
35.41249569357073
 20
1.538505055734829
 11
35.40186035967621
 21
1.538505055734829
  0
LINE
  5
248
100
AcDbEntity
  8
0
  6
ByLayer
 62
  256
370
   -1
100
AcDbLine
 10
35.40186035967621
 20
1.538505055734829
 11
35.39122502578167
 21
1.549140389629346
  0
LINE
  5
249
100
AcDbEntity
  8
0
  6
ByLayer
 62
  256
370
   -1
100
AcDbLine
 10
35.39122502578167
 20
1.549140389629346
 11
35.39122502578167
 21
1.60763472604916
  0
LINE
  5
24A
100
AcDbEntity
  8
0
  6
ByLayer
 62
  256
370
   -1
100
AcDbLine
 10
35.39122502578167
 20
1.60763472604916
 11
35.39122502578167
 21
1.644858394679972
  0
LINE
  5
24B
100
AcDbEntity
  8
0
  6
ByLayer
 62
  256
370
   -1
100
AcDbLine
 10
35.39122502578167
 20
1.644858394679972
 11
35.39654269272894
 21
1.708670398047065
  0
LINE
  5
24C
100
AcDbEntity
  8
0
  6
ByLayer
 62
  256
370
   -1
100
AcDbLine
 10
35.39654269272894
 20
1.708670398047065
 11
35.39654269272894
 21
1.777800068361396
  0
LINE
  5
24D
100
AcDbEntity
  8
0
  6
ByLayer
 62
  256
370
   -1
100
AcDbLine
 10
35.39654269272894
 20
1.777800068361396
 11
35.39654269272894
 21
1.783117735308651
  0
LINE
  5
24E
100
AcDbEntity
  8
0
  6
ByLayer
 62
  256
370
   -1
100
AcDbLine
 10
35.39654269272894
 20
1.783117735308651
 11
35.36995435799268
 21
1.793753069203183
  0
LINE
  5
24F
100
AcDbEntity
  8
0
  6
ByLayer
 62
  256
370
   -1
100
AcDbLine
 10
35.36995435799268
 20
1.793753069203183
 11
35.31677768852009
 21
1.793753069203183
  0
LINE
  5
250
100
AcDbEntity
  8
0
  6
ByLayer
 62
  256
370
   -1
100
AcDbLine
 10
35.31677768852009
 20
1.793753069203183
 11
35.25828335210025
 21
1.799070736150441
  0
LINE
  5
251
100
AcDbEntity
  8
0
  6
ByLayer
 62
  256
370
   -1
100
AcDbLine
 10
35.86449738408759
 20
1.160950702479548
 11
35.88576805187661
 21
1.155633035532309
  0
LINE
  5
252
100
AcDbEntity
  8
0
  6
ByLayer
 62
  256
370
   -1
100
AcDbLine
 10
35.88576805187661
 20
1.155633035532309
 11
35.99212139082176
 21
1.155633035532309
  0
LINE
  5
253
100
AcDbEntity
  8
0
  6
ByLayer
 62
  256
370
   -1
100
AcDbLine
 10
35.99212139082176
 20
1.155633035532309
 11
36.07188639503062
 21
1.155633035532309
  0
LINE
  5
254
100
AcDbEntity
  8
0
  6
ByLayer
 62
  256
370
   -1
100
AcDbLine
 10
36.07188639503062
 20
1.155633035532309
 11
36.15165139923948
 21
1.144997701637777
  0
LINE
  5
255
100
AcDbEntity
  8
0
  6
ByLayer
 62
  256
370
   -1
100
AcDbLine
 10
36.15165139923948
 20
1.144997701637777
 11
36.23673407039558
 21
1.144997701637777
  0
LINE
  5
256
100
AcDbEntity
  8
0
  6
ByLayer
 62
  256
370
   -1
100
AcDbLine
 10
36.23673407039558
 20
1.144997701637777
 11
36.27395773902639
 21
1.144997701637777
  0
LINE
  5
257
100
AcDbEntity
  8
0
  6
ByLayer
 62
  256
370
   -1
100
AcDbLine
 10
36.27395773902639
 20
1.144997701637777
 11
36.30054607376267
 21
1.144997701637777
  0
LINE
  5
258
100
AcDbEntity
  8
0
  6
ByLayer
 62
  256
370
   -1
100
AcDbLine
 10
36.30054607376267
 20
1.144997701637777
 11
36.348405076288
 21
1.160950702479548
  0
LINE
  5
259
100
AcDbEntity
  8
0
  6
ByLayer
 62
  256
370
   -1
100
AcDbLine
 10
36.348405076288
 20
1.160950702479548
 11
36.39094641186606
 21
1.160950702479548
  0
LINE
  5
25A
100
AcDbEntity
  8
0
  6
ByLayer
 62
  256
370
   -1
100
AcDbLine
 10
36.39094641186606
 20
1.160950702479548
 11
36.41221707965506
 21
1.160950702479548
  0
LINE
  5
25B
100
AcDbEntity
  8
0
  6
ByLayer
 62
  256
370
   -1
100
AcDbLine
 10
36.41221707965506
 20
1.160950702479548
 11
36.3962640788133
 21
1.25135104058294
  0
LINE
  5
25C
100
AcDbEntity
  8
0
  6
ByLayer
 62
  256
370
   -1
100
AcDbLine
 10
36.3962640788133
 20
1.25135104058294
 11
36.36435807712977
 21
1.299210043108246
  0
LINE
  5
25D
100
AcDbEntity
  8
0
  6
ByLayer
 62
  256
370
   -1
100
AcDbLine
 10
36.36435807712977
 20
1.299210043108246
 11
36.31649907460444
 21
1.384292714264364
  0
LINE
  5
25E
100
AcDbEntity
  8
0
  6
ByLayer
 62
  256
370
   -1
100
AcDbLine
 10
36.31649907460444
 20
1.384292714264364
 11
36.24205173734286
 21
1.405563382053386
  0
LINE
  5
25F
100
AcDbEntity
  8
0
  6
ByLayer
 62
  256
370
   -1
100
AcDbLine
 10
36.24205173734286
 20
1.405563382053386
 11
36.14101606534495
 21
1.405563382053386
  0
LINE
  5
260
100
AcDbEntity
  8
0
  6
ByLayer
 62
  256
370
   -1
100
AcDbLine
 10
36.14101606534495
 20
1.405563382053386
 11
36.05061572724159
 21
1.400245715106131
  0
LINE
  5
261
100
AcDbEntity
  8
0
  6
ByLayer
 62
  256
370
   -1
100
AcDbLine
 10
36.05061572724159
 20
1.400245715106131
 11
36.00275672471626
 21
1.384292714264364
  0
LINE
  5
262
100
AcDbEntity
  8
0
  6
ByLayer
 62
  256
370
   -1
100
AcDbLine
 10
36.00275672471626
 20
1.384292714264364
 11
35.94426238829645
 21
1.352386712580826
  0
LINE
  5
263
100
AcDbEntity
  8
0
  6
ByLayer
 62
  256
370
   -1
100
AcDbLine
 10
35.94426238829645
 20
1.352386712580826
 11
35.90172105271839
 21
1.293892376160992
  0
LINE
  5
264
100
AcDbEntity
  8
0
  6
ByLayer
 62
  256
370
   -1
100
AcDbLine
 10
35.90172105271839
 20
1.293892376160992
 11
35.88045038492937
 21
1.219445038899386
  0
LINE
  5
265
100
AcDbEntity
  8
0
  6
ByLayer
 62
  256
370
   -1
100
AcDbLine
 10
35.88045038492937
 20
1.219445038899386
 11
35.85386205019306
 21
1.166268369426822
  0
LINE
  5
266
100
AcDbEntity
  8
0
  6
ByLayer
 62
  256
370
   -1
100
AcDbLine
 10
35.83259138240405
 20
0.9748323593255641
 11
35.84854438324582
 21
0.9216556898529807
  0
LINE
  5
267
100
AcDbEntity
  8
0
  6
ByLayer
 62
  256
370
   -1
100
AcDbLine
 10
35.84854438324582
 20
0.9216556898529807
 11
35.88045038492937
 21
0.8472083525913756
  0
LINE
  5
268
100
AcDbEntity
  8
0
  6
ByLayer
 62
  256
370
   -1
100
AcDbLine
 10
35.88045038492937
 20
0.8472083525913756
 11
35.89108571882387
 21
0.799349350066066
  0
LINE
  5
269
100
AcDbEntity
  8
0
  6
ByLayer
 62
  256
370
   -1
100
AcDbLine
 10
35.89108571882387
 20
0.799349350066066
 11
35.91235638661292
 21
0.7621256814352575
  0
LINE
  5
26A
100
AcDbEntity
  8
0
  6
ByLayer
 62
  256
370
   -1
100
AcDbLine
 10
35.91235638661292
 20
0.7621256814352575
 11
36.0612510611361
 21
0.7249020128044646
  0
LINE
  5
26B
100
AcDbEntity
  8
0
  6
ByLayer
 62
  256
370
   -1
100
AcDbLine
 10
36.0612510611361
 20
0.7249020128044646
 11
36.14633373229222
 21
0.730219679751719
  0
LINE
  5
26C
100
AcDbEntity
  8
0
  6
ByLayer
 62
  256
370
   -1
100
AcDbLine
 10
36.14633373229222
 20
0.730219679751719
 11
36.26332240513187
 21
0.7408550136462357
  0
LINE
  5
26D
100
AcDbEntity
  8
0
  6
ByLayer
 62
  256
370
   -1
100
AcDbLine
 10
36.26332240513187
 20
0.7408550136462357
 11
36.30586374070995
 21
0.7727610153297704
  0
LINE
  5
26E
100
AcDbEntity
  8
0
  6
ByLayer
 62
  256
370
   -1
100
AcDbLine
 10
36.30586374070995
 20
0.7727610153297704
 11
36.348405076288
 21
0.8046670170133281
  0
LINE
  5
26F
100
AcDbEntity
  8
0
  6
ByLayer
 62
  256
370
   -1
100
AcDbLine
 10
36.348405076288
 20
0.8046670170133281
 11
36.37499341102431
 21
0.8418906856441173
  0
LINE
  5
270
100
AcDbEntity
  8
0
  6
ByLayer
 62
  256
370
   -1
100
AcDbLine
 10
36.37499341102431
 20
0.8418906856441173
 11
36.42817008049687
 21
0.8950673551167007
  0
LINE
  5
271
100
AcDbEntity
  8
0
  6
ByLayer
 62
  256
370
   -1
100
AcDbLine
 10
36.42817008049687
 20
0.8950673551167007
 11
36.43880541439137
 21
0.8897496881694423
  0
LINE
  5
272
100
AcDbEntity
  8
0
  6
ByLayer
 62
  256
370
   -1
100
AcDbLine
 10
36.43880541439137
 20
0.8897496881694423
 11
36.4866644169167
 21
0.82593768480235
  0
LINE
  5
273
100
AcDbEntity
  8
0
  6
ByLayer
 62
  256
370
   -1
100
AcDbLine
 10
36.4866644169167
 20
0.82593768480235
 11
36.44944074828589
 21
0.7514903475407447
  0
LINE
  5
274
100
AcDbEntity
  8
0
  6
ByLayer
 62
  256
370
   -1
100
AcDbLine
 10
36.44944074828589
 20
0.7514903475407447
 11
36.43348774744411
 21
0.730219679751719
  0
LINE
  5
275
100
AcDbEntity
  8
0
  6
ByLayer
 62
  256
370
   -1
100
AcDbLine
 10
36.43348774744411
 20
0.730219679751719
 11
36.35904041018252
 21
0.6717253433318812
  0
LINE
  5
276
100
AcDbEntity
  8
0
  6
ByLayer
 62
  256
370
   -1
100
AcDbLine
 10
36.35904041018252
 20
0.6717253433318812
 11
36.28459307292089
 21
0.6132310069120431
  0
LINE
  5
277
100
AcDbEntity
  8
0
  6
ByLayer
 62
  256
370
   -1
100
AcDbLine
 10
36.28459307292089
 20
0.6132310069120431
 11
36.23673407039558
 21
0.607913339964808
  0
LINE
  5
278
100
AcDbEntity
  8
0
  6
ByLayer
 62
  256
370
   -1
100
AcDbLine
 10
36.23673407039558
 20
0.607913339964808
 11
36.09847472976689
 21
0.5972780060702758
  0
LINE
  5
279
100
AcDbEntity
  8
0
  6
ByLayer
 62
  256
370
   -1
100
AcDbLine
 10
36.09847472976689
 20
0.5972780060702758
 11
35.99743905776901
 21
0.5919603391230215
  0
LINE
  5
27A
100
AcDbEntity
  8
0
  6
ByLayer
 62
  256
370
   -1
100
AcDbLine
 10
35.99743905776901
 20
0.5919603391230215
 11
35.89108571882387
 21
0.607913339964808
  0
LINE
  5
27B
100
AcDbEntity
  8
0
  6
ByLayer
 62
  256
370
   -1
100
AcDbLine
 10
35.89108571882387
 20
0.607913339964808
 11
35.81132071461501
 21
0.6451370085956049
  0
LINE
  5
27C
100
AcDbEntity
  8
0
  6
ByLayer
 62
  256
370
   -1
100
AcDbLine
 10
35.81132071461501
 20
0.6451370085956049
 11
35.74750871124792
 21
0.7142666789099517
  0
LINE
  5
27D
100
AcDbEntity
  8
0
  6
ByLayer
 62
  256
370
   -1
100
AcDbLine
 10
35.74750871124792
 20
0.7142666789099517
 11
35.69433204177534
 21
0.8099846839605825
  0
LINE
  5
27E
100
AcDbEntity
  8
0
  6
ByLayer
 62
  256
370
   -1
100
AcDbLine
 10
35.69433204177534
 20
0.8099846839605825
 11
35.68369670788084
 21
0.8578436864858884
  0
LINE
  5
27F
100
AcDbEntity
  8
0
  6
ByLayer
 62
  256
370
   -1
100
AcDbLine
 10
35.68369670788084
 20
0.8578436864858884
 11
35.6890143748281
 21
0.9695146923782865
  0
LINE
  5
280
100
AcDbEntity
  8
0
  6
ByLayer
 62
  256
370
   -1
100
AcDbLine
 10
35.6890143748281
 20
0.9695146923782865
 11
35.6890143748281
 21
1.091821032165217
  0
LINE
  5
281
100
AcDbEntity
  8
0
  6
ByLayer
 62
  256
370
   -1
100
AcDbLine
 10
35.6890143748281
 20
1.091821032165217
 11
35.69433204177534
 21
1.182221370268593
  0
LINE
  5
282
100
AcDbEntity
  8
0
  6
ByLayer
 62
  256
370
   -1
100
AcDbLine
 10
35.69433204177534
 20
1.182221370268593
 11
35.72092037651164
 21
1.293892376160992
  0
LINE
  5
283
100
AcDbEntity
  8
0
  6
ByLayer
 62
  256
370
   -1
100
AcDbLine
 10
35.72092037651164
 20
1.293892376160992
 11
35.77941471293148
 21
1.389610381211622
  0
LINE
  5
284
100
AcDbEntity
  8
0
  6
ByLayer
 62
  256
370
   -1
100
AcDbLine
 10
35.77941471293148
 20
1.389610381211622
 11
35.80600304766775
 21
1.43215171678967
  0
LINE
  5
285
100
AcDbEntity
  8
0
  6
ByLayer
 62
  256
370
   -1
100
AcDbLine
 10
35.80600304766775
 20
1.43215171678967
 11
35.8751327179821
 21
1.485328386262253
  0
LINE
  5
286
100
AcDbEntity
  8
0
  6
ByLayer
 62
  256
370
   -1
100
AcDbLine
 10
35.8751327179821
 20
1.485328386262253
 11
35.92830938745468
 21
1.506599054051275
  0
LINE
  5
287
100
AcDbEntity
  8
0
  6
ByLayer
 62
  256
370
   -1
100
AcDbLine
 10
35.92830938745468
 20
1.506599054051275
 11
36.0612510611361
 21
1.5278697218403
  0
LINE
  5
288
100
AcDbEntity
  8
0
  6
ByLayer
 62
  256
370
   -1
100
AcDbLine
 10
36.0612510611361
 20
1.5278697218403
 11
36.12506306450317
 21
1.533187388787574
  0
LINE
  5
289
100
AcDbEntity
  8
0
  6
ByLayer
 62
  256
370
   -1
100
AcDbLine
 10
36.12506306450317
 20
1.533187388787574
 11
36.21014573565932
 21
1.538505055734829
  0
LINE
  5
28A
100
AcDbEntity
  8
0
  6
ByLayer
 62
  256
370
   -1
100
AcDbLine
 10
36.21014573565932
 20
1.538505055734829
 11
36.29522840681544
 21
1.533187388787574
  0
LINE
  5
28B
100
AcDbEntity
  8
0
  6
ByLayer
 62
  256
370
   -1
100
AcDbLine
 10
36.29522840681544
 20
1.533187388787574
 11
36.40158174576057
 21
1.442787050684198
  0
LINE
  5
28C
100
AcDbEntity
  8
0
  6
ByLayer
 62
  256
370
   -1
100
AcDbLine
 10
36.40158174576057
 20
1.442787050684198
 11
36.44412308133862
 21
1.405563382053386
  0
LINE
  5
28D
100
AcDbEntity
  8
0
  6
ByLayer
 62
  256
370
   -1
100
AcDbLine
 10
36.44412308133862
 20
1.405563382053386
 11
36.49198208386392
 21
1.315163043950013
  0
LINE
  5
28E
100
AcDbEntity
  8
0
  6
ByLayer
 62
  256
370
   -1
100
AcDbLine
 10
36.49198208386392
 20
1.315163043950013
 11
36.51857041860023
 21
1.256668707530179
  0
LINE
  5
28F
100
AcDbEntity
  8
0
  6
ByLayer
 62
  256
370
   -1
100
AcDbLine
 10
36.51857041860023
 20
1.256668707530179
 11
36.51857041860023
 21
1.160950702479548
  0
LINE
  5
290
100
AcDbEntity
  8
0
  6
ByLayer
 62
  256
370
   -1
100
AcDbLine
 10
36.51857041860023
 20
1.160950702479548
 11
36.52920575249475
 21
1.097138699112471
  0
LINE
  5
291
100
AcDbEntity
  8
0
  6
ByLayer
 62
  256
370
   -1
100
AcDbLine
 10
36.52920575249475
 20
1.097138699112471
 11
36.52920575249475
 21
1.028009028798124
  0
LINE
  5
292
100
AcDbEntity
  8
0
  6
ByLayer
 62
  256
370
   -1
100
AcDbLine
 10
36.52920575249475
 20
1.028009028798124
 11
36.52388808554749
 21
1.022691361850866
  0
LINE
  5
293
100
AcDbEntity
  8
0
  6
ByLayer
 62
  256
370
   -1
100
AcDbLine
 10
36.52388808554749
 20
1.022691361850866
 11
36.39094641186606
 21
0.996103027114586
  0
LINE
  5
294
100
AcDbEntity
  8
0
  6
ByLayer
 62
  256
370
   -1
100
AcDbLine
 10
36.39094641186606
 20
0.996103027114586
 11
36.30586374070995
 21
1.00142069406184
  0
LINE
  5
295
100
AcDbEntity
  8
0
  6
ByLayer
 62
  256
370
   -1
100
AcDbLine
 10
36.30586374070995
 20
1.00142069406184
 11
36.24205173734286
 21
1.00142069406184
  0
LINE
  5
296
100
AcDbEntity
  8
0
  6
ByLayer
 62
  256
370
   -1
100
AcDbLine
 10
36.24205173734286
 20
1.00142069406184
 11
36.06656872808337
 21
1.006738361009095
  0
LINE
  5
297
100
AcDbEntity
  8
0
  6
ByLayer
 62
  256
370
   -1
100
AcDbLine
 10
36.06656872808337
 20
1.006738361009095
 11
35.98148605692725
 21
0.996103027114586
  0
LINE
  5
298
100
AcDbEntity
  8
0
  6
ByLayer
 62
  256
370
   -1
100
AcDbLine
 10
35.98148605692725
 20
0.996103027114586
 11
35.89108571882387
 21
0.9801500262728187
  0
LINE
  5
299
100
AcDbEntity
  8
0
  6
ByLayer
 62
  256
370
   -1
100
AcDbLine
 10
35.89108571882387
 20
0.9801500262728187
 11
35.8751327179821
 21
0.9801500262728187
  0
LINE
  5
29A
100
AcDbEntity
  8
0
  6
ByLayer
 62
  256
370
   -1
100
AcDbLine
 10
35.8751327179821
 20
0.9801500262728187
 11
35.77941471293148
 21
0.9748323593255641
  0
LINE
  5
29B
100
AcDbEntity
  8
0
  6
ByLayer
 62
  256
370
   -1
100
AcDbLine
 10
36.78977143291036
 20
1.501281387104036
 11
36.77381843206859
 21
1.347069045633571
  0
LINE
  5
29C
100
AcDbEntity
  8
0
  6
ByLayer
 62
  256
370
   -1
100
AcDbLine
 10
36.77381843206859
 20
1.347069045633571
 11
36.77381843206859
 21
1.272621708371962
  0
LINE
  5
29D
100
AcDbEntity
  8
0
  6
ByLayer
 62
  256
370
   -1
100
AcDbLine
 10
36.77381843206859
 20
1.272621708371962
 11
36.76318309817405
 21
1.176903703321335
  0
LINE
  5
29E
100
AcDbEntity
  8
0
  6
ByLayer
 62
  256
370
   -1
100
AcDbLine
 10
36.76318309817405
 20
1.176903703321335
 11
36.75786543122683
 21
1.012056027956357
  0
LINE
  5
29F
100
AcDbEntity
  8
0
  6
ByLayer
 62
  256
370
   -1
100
AcDbLine
 10
36.75786543122683
 20
1.012056027956357
 11
36.76850076512132
 21
0.9003850220639551
  0
LINE
  5
2A0
100
AcDbEntity
  8
0
  6
ByLayer
 62
  256
370
   -1
100
AcDbLine
 10
36.76850076512132
 20
0.9003850220639551
 11
36.76318309817405
 21
0.7833963492243025
  0
LINE
  5
2A1
100
AcDbEntity
  8
0
  6
ByLayer
 62
  256
370
   -1
100
AcDbLine
 10
36.76318309817405
 20
0.7833963492243025
 11
36.75786543122683
 21
0.6823606772263978
  0
LINE
  5
2A2
100
AcDbEntity
  8
0
  6
ByLayer
 62
  256
370
   -1
100
AcDbLine
 10
36.75786543122683
 20
0.6823606772263978
 11
36.75254776427956
 21
0.6504546755428593
  0
LINE
  5
2A3
100
AcDbEntity
  8
0
  6
ByLayer
 62
  256
370
   -1
100
AcDbLine
 10
36.75254776427956
 20
0.6504546755428593
 11
36.75786543122683
 21
0.6398193416483465
  0
LINE
  5
2A4
100
AcDbEntity
  8
0
  6
ByLayer
 62
  256
370
   -1
100
AcDbLine
 10
36.75786543122683
 20
0.6398193416483465
 11
36.85890110322468
 21
0.6451370085956049
  0
LINE
  5
2A5
100
AcDbEntity
  8
0
  6
ByLayer
 62
  256
370
   -1
100
AcDbLine
 10
36.85890110322468
 20
0.6451370085956049
 11
36.91207777269727
 21
0.6345016747010882
  0
LINE
  5
2A6
100
AcDbEntity
  8
0
  6
ByLayer
 62
  256
370
   -1
100
AcDbLine
 10
36.91207777269727
 20
0.6345016747010882
 11
36.93866610743355
 21
0.7568080144880031
  0
LINE
  5
2A7
100
AcDbEntity
  8
0
  6
ByLayer
 62
  256
370
   -1
100
AcDbLine
 10
36.93866610743355
 20
0.7568080144880031
 11
36.9333484404863
 21
0.8631613534331429
  0
LINE
  5
2A8
100
AcDbEntity
  8
0
  6
ByLayer
 62
  256
370
   -1
100
AcDbLine
 10
36.9333484404863
 20
0.8631613534331429
 11
36.9333484404863
 21
0.9376086906947481
  0
LINE
  5
2A9
100
AcDbEntity
  8
0
  6
ByLayer
 62
  256
370
   -1
100
AcDbLine
 10
36.9333484404863
 20
0.9376086906947481
 11
36.92803077353904
 21
1.04927969658715
  0
LINE
  5
2AA
100
AcDbEntity
  8
0
  6
ByLayer
 62
  256
370
   -1
100
AcDbLine
 10
36.92803077353904
 20
1.04927969658715
 11
36.9333484404863
 21
1.160950702479548
  0
LINE
  5
2AB
100
AcDbEntity
  8
0
  6
ByLayer
 62
  256
370
   -1
100
AcDbLine
 10
36.9333484404863
 20
1.160950702479548
 11
36.9333484404863
 21
1.230080372793914
  0
LINE
  5
2AC
100
AcDbEntity
  8
0
  6
ByLayer
 62
  256
370
   -1
100
AcDbLine
 10
36.9333484404863
 20
1.230080372793914
 11
36.98120744301161
 21
1.288574709213733
  0
LINE
  5
2AD
100
AcDbEntity
  8
0
  6
ByLayer
 62
  256
370
   -1
100
AcDbLine
 10
36.98120744301161
 20
1.288574709213733
 11
37.04501944637871
 21
1.336433711739039
  0
LINE
  5
2AE
100
AcDbEntity
  8
0
  6
ByLayer
 62
  256
370
   -1
100
AcDbLine
 10
37.04501944637871
 20
1.336433711739039
 11
37.18327878700738
 21
1.368339713422593
  0
LINE
  5
2AF
100
AcDbEntity
  8
0
  6
ByLayer
 62
  256
370
   -1
100
AcDbLine
 10
37.18327878700738
 20
1.368339713422593
 11
37.24177312342723
 21
1.373657380369851
  0
LINE
  5
2B0
100
AcDbEntity
  8
0
  6
ByLayer
 62
  256
370
   -1
100
AcDbLine
 10
37.24177312342723
 20
1.373657380369851
 11
37.27899679205802
 21
1.400245715106131
  0
LINE
  5
2B1
100
AcDbEntity
  8
0
  6
ByLayer
 62
  256
370
   -1
100
AcDbLine
 10
37.27899679205802
 20
1.400245715106131
 11
37.30558512679431
 21
1.453422384578715
  0
LINE
  5
2B2
100
AcDbEntity
  8
0
  6
ByLayer
 62
  256
370
   -1
100
AcDbLine
 10
37.30558512679431
 20
1.453422384578715
 11
37.29494979289981
 21
1.474693052367736
  0
LINE
  5
2B3
100
AcDbEntity
  8
0
  6
ByLayer
 62
  256
370
   -1
100
AcDbLine
 10
37.29494979289981
 20
1.474693052367736
 11
37.24709079037449
 21
1.495963720156762
  0
LINE
  5
2B4
100
AcDbEntity
  8
0
  6
ByLayer
 62
  256
370
   -1
100
AcDbLine
 10
37.24709079037449
 20
1.495963720156762
 11
37.1939141209019
 21
1.501281387104036
  0
LINE
  5
2B5
100
AcDbEntity
  8
0
  6
ByLayer
 62
  256
370
   -1
100
AcDbLine
 10
37.1939141209019
 20
1.501281387104036
 11
37.09819611585128
 21
1.458740051525969
  0
LINE
  5
2B6
100
AcDbEntity
  8
0
  6
ByLayer
 62
  256
370
   -1
100
AcDbLine
 10
37.09819611585128
 20
1.458740051525969
 11
37.04501944637871
 21
1.43215171678967
  0
LINE
  5
2B7
100
AcDbEntity
  8
0
  6
ByLayer
 62
  256
370
   -1
100
AcDbLine
 10
37.04501944637871
 20
1.43215171678967
 11
36.99184277690613
 21
1.400245715106131
  0
LINE
  5
2B8
100
AcDbEntity
  8
0
  6
ByLayer
 62
  256
370
   -1
100
AcDbLine
 10
36.99184277690613
 20
1.400245715106131
 11
36.97057210911711
 21
1.389610381211622
  0
LINE
  5
2B9
100
AcDbEntity
  8
0
  6
ByLayer
 62
  256
370
   -1
100
AcDbLine
 10
36.97057210911711
 20
1.389610381211622
 11
36.93866610743355
 21
1.400245715106131
  0
LINE
  5
2BA
100
AcDbEntity
  8
0
  6
ByLayer
 62
  256
370
   -1
100
AcDbLine
 10
36.93866610743355
 20
1.400245715106131
 11
36.91207777269727
 21
1.448104717631456
  0
LINE
  5
2BB
100
AcDbEntity
  8
0
  6
ByLayer
 62
  256
370
   -1
100
AcDbLine
 10
36.91207777269727
 20
1.448104717631456
 11
36.91207777269727
 21
1.480010719314991
  0
LINE
  5
2BC
100
AcDbEntity
  8
0
  6
ByLayer
 62
  256
370
   -1
100
AcDbLine
 10
36.91207777269727
 20
1.480010719314991
 11
36.88548943796098
 21
1.495963720156762
  0
LINE
  5
2BD
100
AcDbEntity
  8
0
  6
ByLayer
 62
  256
370
   -1
100
AcDbLine
 10
36.88548943796098
 20
1.495963720156762
 11
36.85890110322468
 21
1.501281387104036
  0
LINE
  5
2BE
100
AcDbEntity
  8
0
  6
ByLayer
 62
  256
370
   -1
100
AcDbLine
 10
36.85890110322468
 20
1.501281387104036
 11
36.82167743459391
 21
1.501281387104036
  0
LINE
  5
2BF
100
AcDbEntity
  8
0
  6
ByLayer
 62
  256
370
   -1
100
AcDbLine
 10
36.82167743459391
 20
1.501281387104036
 11
36.7844537659631
 21
1.501281387104036
  0
LINE
  5
2C0
100
AcDbEntity
  8
0
  6
ByLayer
 62
  256
370
   -1
100
AcDbLine
 10
33.18439324267057
 20
1.267304041425249
 11
33.17375790877607
 21
1.246033373636223
  0
LINE
  5
2C1
100
AcDbEntity
  8
0
  6
ByLayer
 62
  256
370
   -1
100
AcDbLine
 10
33.17375790877607
 20
1.246033373636223
 11
33.1684402418288
 21
1.171586036374618
  0
LINE
  5
2C2
100
AcDbEntity
  8
0
  6
ByLayer
 62
  256
370
   -1
100
AcDbLine
 10
33.1684402418288
 20
1.171586036374618
 11
33.1684402418288
 21
1.150315368585596
  0
LINE
  5
2C3
100
AcDbEntity
  8
0
  6
ByLayer
 62
  256
370
   -1
100
AcDbLine
 10
33.1684402418288
 20
1.150315368585596
 11
33.1684402418288
 21
1.113091699954803
  0
LINE
  5
2C4
100
AcDbEntity
  8
0
  6
ByLayer
 62
  256
370
   -1
100
AcDbLine
 10
33.1684402418288
 20
1.113091699954803
 11
33.16312257488156
 21
1.075868031323987
  0
LINE
  5
2C5
100
AcDbEntity
  8
0
  6
ByLayer
 62
  256
370
   -1
100
AcDbLine
 10
33.16312257488156
 20
1.075868031323987
 11
33.1684402418288
 21
0.9907853601678729
  0
LINE
  5
2C6
100
AcDbEntity
  8
0
  6
ByLayer
 62
  256
370
   -1
100
AcDbLine
 10
33.1684402418288
 20
0.9907853601678729
 11
33.1684402418288
 21
0.9376086906953127
  0
LINE
  5
2C7
100
AcDbEntity
  8
0
  6
ByLayer
 62
  256
370
   -1
100
AcDbLine
 10
33.1684402418288
 20
0.9376086906953127
 11
33.17375790877607
 21
0.8844320212227291
  0
LINE
  5
2C8
100
AcDbEntity
  8
0
  6
ByLayer
 62
  256
370
   -1
100
AcDbLine
 10
33.17375790877607
 20
0.8844320212227291
 11
33.20566391045961
 21
0.8472083525919363
  0
LINE
  5
2C9
100
AcDbEntity
  8
0
  6
ByLayer
 62
  256
370
   -1
100
AcDbLine
 10
33.20566391045961
 20
0.8472083525919363
 11
33.24288757909042
 21
0.7993493500666111
  0
LINE
  5
2CA
100
AcDbEntity
  8
0
  6
ByLayer
 62
  256
370
   -1
100
AcDbLine
 10
33.24288757909042
 20
0.7993493500666111
 11
33.30138191551026
 21
0.7780786822775894
  0
LINE
  5
2CB
100
AcDbEntity
  8
0
  6
ByLayer
 62
  256
370
   -1
100
AcDbLine
 10
33.30138191551026
 20
0.7780786822775894
 11
33.38114691971912
 21
0.7621256814358183
  0
LINE
  5
2CC
100
AcDbEntity
  8
0
  6
ByLayer
 62
  256
370
   -1
100
AcDbLine
 10
33.38114691971912
 20
0.7621256814358183
 11
33.4555942569807
 21
0.7514903475413054
  0
LINE
  5
2CD
100
AcDbEntity
  8
0
  6
ByLayer
 62
  256
370
   -1
100
AcDbLine
 10
33.4555942569807
 20
0.7514903475413054
 11
33.50345325950603
 21
0.7621256814358183
  0
LINE
  5
2CE
100
AcDbEntity
  8
0
  6
ByLayer
 62
  256
370
   -1
100
AcDbLine
 10
33.50345325950603
 20
0.7621256814358183
 11
33.56194759592586
 21
0.7940316831193567
  0
LINE
  5
2CF
100
AcDbEntity
  8
0
  6
ByLayer
 62
  256
370
   -1
100
AcDbLine
 10
33.56194759592586
 20
0.7940316831193567
 11
33.59917126455666
 21
0.8259376848029106
  0
LINE
  5
2D0
100
AcDbEntity
  8
0
  6
ByLayer
 62
  256
370
   -1
100
AcDbLine
 10
33.59917126455666
 20
0.8259376848029106
 11
33.63107726624019
 21
0.8525260195391946
  0
LINE
  5
2D1
100
AcDbEntity
  8
0
  6
ByLayer
 62
  256
370
   -1
100
AcDbLine
 10
33.63107726624019
 20
0.8525260195391946
 11
33.64703026708196
 21
0.9057026890117741
  0
LINE
  5
2D2
100
AcDbEntity
  8
0
  6
ByLayer
 62
  256
370
   -1
100
AcDbLine
 10
33.64703026708196
 20
0.9057026890117741
 11
33.6576656009765
 21
0.9641970254315928
  0
LINE
  5
2D3
100
AcDbEntity
  8
0
  6
ByLayer
 62
  256
370
   -1
100
AcDbLine
 10
33.6576656009765
 20
0.9641970254315928
 11
33.67893626876553
 21
1.017373694904172
  0
LINE
  5
2D4
100
AcDbEntity
  8
0
  6
ByLayer
 62
  256
370
   -1
100
AcDbLine
 10
33.67893626876553
 20
1.017373694904172
 11
33.67893626876553
 21
1.075868031323987
  0
LINE
  5
2D5
100
AcDbEntity
  8
0
  6
ByLayer
 62
  256
370
   -1
100
AcDbLine
 10
33.67893626876553
 20
1.075868031323987
 11
33.67893626876553
 21
1.160950702480109
  0
LINE
  5
2D6
100
AcDbEntity
  8
0
  6
ByLayer
 62
  256
370
   -1
100
AcDbLine
 10
33.67893626876553
 20
1.160950702480109
 11
33.68425393571277
 21
1.235398039741714
  0
LINE
  5
2D7
100
AcDbEntity
  8
0
  6
ByLayer
 62
  256
370
   -1
100
AcDbLine
 10
33.68425393571277
 20
1.235398039741714
 11
33.68425393571277
 21
1.309845377003316
  0
LINE
  5
2D8
100
AcDbEntity
  8
0
  6
ByLayer
 62
  256
370
   -1
100
AcDbLine
 10
33.68425393571277
 20
1.309845377003316
 11
33.65234793402924
 21
1.347069045634112
  0
LINE
  5
2D9
100
AcDbEntity
  8
0
  6
ByLayer
 62
  256
370
   -1
100
AcDbLine
 10
33.65234793402924
 20
1.347069045634112
 11
33.60448893150392
 21
1.384292714264925
  0
LINE
  5
2DA
100
AcDbEntity
  8
0
  6
ByLayer
 62
  256
370
   -1
100
AcDbLine
 10
33.60448893150392
 20
1.384292714264925
 11
33.56726526287309
 21
1.384292714264925
  0
LINE
  5
2DB
100
AcDbEntity
  8
0
  6
ByLayer
 62
  256
370
   -1
100
AcDbLine
 10
33.56726526287309
 20
1.384292714264925
 11
33.51940626034779
 21
1.400245715106692
  0
LINE
  5
2DC
100
AcDbEntity
  8
0
  6
ByLayer
 62
  256
370
   -1
100
AcDbLine
 10
33.51940626034779
 20
1.400245715106692
 11
33.46622959087524
 21
1.405563382053946
  0
LINE
  5
2DD
100
AcDbEntity
  8
0
  6
ByLayer
 62
  256
370
   -1
100
AcDbLine
 10
33.46622959087524
 20
1.405563382053946
 11
33.3917822536136
 21
1.405563382053946
  0
LINE
  5
2DE
100
AcDbEntity
  8
0
  6
ByLayer
 62
  256
370
   -1
100
AcDbLine
 10
33.3917822536136
 20
1.405563382053946
 11
33.33328791719379
 21
1.405563382053946
  0
LINE
  5
2DF
100
AcDbEntity
  8
0
  6
ByLayer
 62
  256
370
   -1
100
AcDbLine
 10
33.33328791719379
 20
1.405563382053946
 11
33.23756991214316
 21
1.352386712581371
  0
LINE
  5
2E0
100
AcDbEntity
  8
0
  6
ByLayer
 62
  256
370
   -1
100
AcDbLine
 10
33.23756991214316
 20
1.352386712581371
 11
33.17375790877607
 21
1.293892376161548
  0
LINE
  5
2E1
100
AcDbEntity
  8
0
  6
ByLayer
 62
  256
370
   -1
100
AcDbLine
 10
33.17375790877607
 20
1.293892376161548
 11
33.1578049079343
 21
1.277939375319785
  0
LINE
  5
2E2
100
AcDbEntity
  8
0
  6
ByLayer
 62
  256
370
   -1
100
AcDbLine
 10
32.02713731972703
 20
1.090069449653731
 11
32.0145065142733
 21
0.9801500262728187
  0
LINE
  5
2E3
100
AcDbEntity
  8
0
  6
ByLayer
 62
  256
370
   -1
100
AcDbLine
 10
32.02514184816784
 20
1.368339713422593
 11
32.02904119027637
 21
1.211917164811922
  0
LINE
  5
2E4
100
AcDbEntity
  8
0
  6
ByLayer
 62
  256
370
   -1
100
AcDbLine
 10
32.02904119027637
 20
1.211917164811922
 11
32.02713731972703
 21
1.090069449653731
  0
LINE
  5
2E5
100
AcDbEntity
  8
0
  6
ByLayer
 62
  256
370
   -1
100
AcDbLine
 10
32.97168656477963
 20
0.3579829934437123
 11
33.12589890625009
 21
0.3686183273382251
  0
LINE
  5
2E6
100
AcDbEntity
  8
0
  6
ByLayer
 62
  256
370
   -1
100
AcDbLine
 10
0
 20
7.831938715702414
 11
37.9999999950551
 21
7.831938715702414
  0
LINE
  5
2E7
100
AcDbEntity
  8
0
  6
ByLayer
 62
  256
370
   -1
100
AcDbLine
 10
37.9999999950551
 20
7.831938715702414
 11
37.9999999950551
 21
0
  0
LINE
  5
2E8
100
AcDbEntity
  8
0
  6
ByLayer
 62
  256
370
   -1
100
AcDbLine
 10
37.9999999950551
 20
0
 11
0
 21
0
  0
LINE
  5
2E9
100
AcDbEntity
  8
0
  6
ByLayer
 62
  256
370
   -1
100
AcDbLine
 10
0
 20
0
 11
0
 21
7.831938715702414
  0
ENDSEC
  0
SECTION
  2
OBJECTS
  0
DICTIONARY
  5
C
330
0
100
AcDbDictionary
281
    1
  3
ACAD_GROUP
350
D
  0
DICTIONARY
  5
D
330
C
100
AcDbDictionary
281
    1
  0
ENDSEC
  0
EOF
