999
dxfrw 0.6.3
  0
SECTION
  2
HEADER
  9
$ACADVER
  1
AC1021
  9
$DWGCODEPAGE
  3
ANSI_1252
  9
$INSBASE
 10
0
 20
0
 30
0
  9
$EXTMIN
 10
1300.86814067605
 20
1621.017417461662
 30
0
  9
$EXTMAX
 10
5380.86814067605
 20
5156.899613767163
 30
0
  9
$LIMMIN
 10
0
 20
0
  9
$LIMMAX
 10
420
 20
297
  9
$ORTHOMODE
 70
    0
  9
$REGENMODE
 70
    1
  9
$FILLMODE
 70
    1
  9
$QTEXTMODE
 70
    0
  9
$MIRRTEXT
 70
    0
  9
$LTSCALE
 40
1
  9
$ATTMODE
 70
    0
  9
$TEXTSIZE
 40
2.5
  9
$TRACEWID
 40
15.68
  9
$TEXTSTYLE
  7
STANDARD
  9
$CLAYER
  8
0
  9
$CELTYPE
  6
BYLAYER
  9
$CECOLOR
 62
  256
  9
$CELTSCALE
 40
1
  9
$DISPSILH
 70
    0
  9
$DIMSCALE
 40
1
  9
$DIMASZ
 40
2.5
  9
$DIMEXO
 40
0.625
  9
$DIMDLI
 40
3.75
  9
$DIMRND
 40
0
  9
$DIMDLE
 40
0
  9
$DIMEXE
 40
1.25
  9
$DIMTP
 40
0
  9
$DIMTM
 40
0
  9
$DIMTXT
 40
2.5
  9
$DIMCEN
 40
2.5
  9
$DIMTSZ
 40
0
  9
$DIMTOL
 70
    0
  9
$DIMLIM
 70
    0
  9
$DIMTIH
 70
    0
  9
$DIMTOH
 70
    0
  9
$DIMSE1
 70
    0
  9
$DIMSE2
 70
    0
  9
$DIMTAD
 70
    1
  9
$DIMZIN
 70
    8
  9
$DIMBLK
  1

  9
$DIMASO
 70
    1
  9
$DIMSHO
 70
    1
  9
$DIMPOST
  1

  9
$DIMAPOST
  1

  9
$DIMALT
 70
    0
  9
$DIMALTD
 70
    3
  9
$DIMALTF
 40
0.03937
  9
$DIMLFAC
 40
1
  9
$DIMTOFL
 70
    1
  9
$DIMTVP
 40
0
  9
$DIMTIX
 70
    0
  9
$DIMSOXD
 70
    0
  9
$DIMSAH
 70
    0
  9
$DIMBLK1
  1

  9
$DIMBLK2
  1

  9
$DIMSTYLE
  2
STANDARD
  9
$DIMCLRD
 70
    0
  9
$DIMCLRE
 70
    0
  9
$DIMCLRT
 70
    0
  9
$DIMTFAC
 40
1
  9
$DIMGAP
 40
0.625
  9
$DIMJUST
 70
    0
  9
$DIMSD1
 70
    0
  9
$DIMSD2
 70
    0
  9
$DIMTOLJ
 70
    0
  9
$DIMTZIN
 70
    8
  9
$DIMALTZ
 70
    0
  9
$DIMALTTZ
 70
    0
  9
$DIMUPT
 70
    0
  9
$DIMDEC
 70
    2
  9
$DIMTDEC
 70
    2
  9
$DIMALTU
 70
    2
  9
$DIMALTTD
 70
    3
  9
$DIMTXSTY
  7
STANDARD
  9
$DIMAUNIT
 70
    0
  9
$DIMADEC
 70
    0
  9
$DIMALTRND
 40
0
  9
$DIMAZIN
 70
    0
  9
$DIMDSEP
 70
   44
  9
$DIMATFIT
 70
    3
  9
$DIMFRAC
 70
    0
  9
$DIMLDRBLK
  1
STANDARD
  9
$DIMLUNIT
 70
    2
  9
$DIMLWD
 70
   -2
  9
$DIMLWE
 70
   -2
  9
$DIMTMOVE
 70
    0
  9
$DIMFXL
 40
1
  9
$DIMFXLON
 70
    0
  9
$DIMJOGANG
 40
0.7854
  9
$DIMTFILL
 70
    0
  9
$DIMTFILLCLR
 70
    0
  9
$DIMARCSYM
 70
    0
  9
$DIMLTYPE
  6

  9
$DIMLTEX1
  6

  9
$DIMLTEX2
  6

  9
$LUNITS
 70
    2
  9
$LUPREC
 70
    4
  9
$SKETCHINC
 40
1
  9
$FILLETRAD
 40
0
  9
$AUNITS
 70
    0
  9
$AUPREC
 70
    2
  9
$MENU
  1
.
  9
$ELEVATION
 40
0
  9
$PELEVATION
 40
0
  9
$THICKNESS
 40
0
  9
$LIMCHECK
 70
    0
  9
$CHAMFERA
 40
0
  9
$CHAMFERB
 40
0
  9
$CHAMFERC
 40
0
  9
$CHAMFERD
 40
0
  9
$SKPOLY
 70
    0
  9
$USRTIMER
 70
    1
  9
$ANGBASE
 50
0
  9
$ANGDIR
 70
    0
  9
$PDMODE
 70
   34
  9
$PDSIZE
 40
0
  9
$PLINEWID
 40
0
  9
$SPLFRAME
 70
    0
  9
$SPLINETYPE
 70
    2
  9
$SPLINESEGS
 70
    8
  9
$HANDSEED
  5
20000
  9
$SURFTAB1
 70
    6
  9
$SURFTAB2
 70
    6
  9
$SURFTYPE
 70
    6
  9
$SURFU
 70
    6
  9
$SURFV
 70
    6
  9
$UCSBASE
  2

  9
$UCSNAME
  2

  9
$UCSORG
 10
0
 20
0
 30
0
  9
$UCSXDIR
 10
1
 20
0
 30
0
  9
$UCSYDIR
 10
0
 20
1
 30
0
  9
$UCSORTHOREF
  2

  9
$UCSORTHOVIEW
 70
    0
  9
$UCSORGTOP
 10
0
 20
0
 30
0
  9
$UCSORGBOTTOM
 10
0
 20
0
 30
0
  9
$UCSORGLEFT
 10
0
 20
0
 30
0
  9
$UCSORGRIGHT
 10
0
 20
0
 30
0
  9
$UCSORGFRONT
 10
0
 20
0
 30
0
  9
$UCSORGBACK
 10
0
 20
0
 30
0
  9
$PUCSBASE
  2

  9
$PUCSNAME
  2

  9
$PUCSORG
 10
0
 20
0
 30
0
  9
$PUCSXDIR
 10
1
 20
0
 30
0
  9
$PUCSYDIR
 10
0
 20
1
 30
0
  9
$PUCSORTHOREF
  2

  9
$PUCSORTHOVIEW
 70
    0
  9
$PUCSORGTOP
 10
0
 20
0
 30
0
  9
$PUCSORGBOTTOM
 10
0
 20
0
 30
0
  9
$PUCSORGLEFT
 10
0
 20
0
 30
0
  9
$PUCSORGRIGHT
 10
0
 20
0
 30
0
  9
$PUCSORGFRONT
 10
0
 20
0
 30
0
  9
$PUCSORGBACK
 10
0
 20
0
 30
0
  9
$USERI1
 70
    0
  9
$USERI2
 70
    0
  9
$USERI3
 70
    0
  9
$USERI4
 70
    0
  9
$USERI5
 70
    0
  9
$USERR1
 40
0
  9
$USERR2
 40
0
  9
$USERR3
 40
0
  9
$USERR4
 40
0
  9
$USERR5
 40
0
  9
$WORLDVIEW
 70
    1
  9
$SHADEDGE
 70
    3
  9
$SHADEDIF
 70
   70
  9
$TILEMODE
 70
    1
  9
$MAXACTVP
 70
   64
  9
$PINSBASE
 10
0
 20
0
 30
0
  9
$PLIMCHECK
 70
    0
  9
$PEXTMIN
 10
0
 20
0
 30
0
  9
$PEXTMAX
 10
0
 20
0
 30
0
  9
$SNAPSTYLE
 70
    0
  9
$PLIMMIN
 10
0
 20
0
  9
$PLIMMAX
 10
210
 20
297
  9
$UNITMODE
 70
    0
  9
$VISRETAIN
 70
    1
  9
$PLINEGEN
 70
    0
  9
$PSLTSCALE
 70
    1
  9
$TREEDEPTH
 70
 3020
  9
$CMLSTYLE
  2
Standard
  9
$CMLJUST
 70
    0
  9
$CMLSCALE
 40
20
  9
$PROXYGRAPHICS
 70
    1
  9
$MEASUREMENT
 70
    1
  9
$CELWEIGHT
370
   -1
  9
$ENDCAPS
280
    0
  9
$JOINSTYLE
280
    0
  9
$LWDISPLAY
290
    0
  9
$INSUNITS
 70
    4
  9
$HYPERLINKBASE
  1

  9
$STYLESHEET
  1

  9
$XEDIT
290
    1
  9
$CEPSNTYPE
380
    0
  9
$PSTYLEMODE
290
    1
  9
$EXTNAMES
290
    1
  9
$PSVPSCALE
 40
1
  9
$OLESTARTUP
290
    0
  9
$SORTENTS
280
  127
  9
$INDEXCTL
280
    0
  9
$HIDETEXT
280
    1
  9
$XCLIPFRAME
290
    0
  9
$HALOGAP
280
    0
  9
$OBSCOLOR
 70
  257
  9
$OBSLTYPE
280
    0
  9
$INTERSECTIONDISPLAY
280
    0
  9
$INTERSECTIONCOLOR
 70
  257
  9
$DIMASSOC
280
    1
  9
$PROJECTNAME
  1

  9
$CAMERADISPLAY
290
    0
  9
$LENSLENGTH
 40
50
  9
$CAMERAHEIGHT
 40
0
  9
$STEPSPERSEC
 40
2
  9
$STEPSIZE
 40
50
  9
$3DDWFPREC
 40
2
  9
$PSOLWIDTH
 40
5
  9
$PSOLHEIGHT
 40
80
  9
$LOFTANG1
 40
1.570796326794897
  9
$LOFTANG2
 40
1.570796326794897
  9
$LOFTMAG1
 40
0
  9
$LOFTMAG2
 40
0
  9
$LOFTPARAM
 70
    7
  9
$LOFTNORMALS
280
    1
  9
$LATITUDE
 40
1
  9
$LONGITUDE
 40
1
  9
$NORTHDIRECTION
 40
0
  9
$TIMEZONE
 70
-8000
  9
$LIGHTGLYPHDISPLAY
280
    1
  9
$TILEMODELIGHTSYNCH
280
    1
  9
$SOLIDHIST
280
    1
  9
$SHOWHIST
280
    1
  9
$DWFFRAME
280
    2
  9
$DGNFRAME
280
    0
  9
$REALWORLDSCALE
290
    1
  9
$INTERFERECOLOR
 62
    1
  9
$CSHADOW
280
    0
  9
$SHADOWPLANELOCATION
 40
0
  0
ENDSEC
  0
SECTION
  2
CLASSES
  0
ENDSEC
  0
SECTION
  2
TABLES
  0
TABLE
  2
VPORT
  5
8
330
0
100
AcDbSymbolTable
 70
    1
  0
VPORT
  5
31
330
2
100
AcDbSymbolTableRecord
100
AcDbViewportTableRecord
  2
*ACTIVE
 70
    0
 10
0
 20
0
 11
1
 21
1
 12
2793.641548913718
 22
1341.635961920595
 13
0
 23
0
 14
10
 24
10
 15
10
 25
10
 16
0
 26
0
 36
1
 17
0
 27
0
 37
0
 40
2250.393654076212
 41
2.001273885350319
 42
50
 43
0
 44
0
 50
0
 51
0
 71
    0
 72
  100
 73
    1
 74
    3
 75
    0
 76
    1
 77
    0
 78
    0
281
    0
 65
    1
110
0
120
0
130
0
111
1
121
0
131
0
112
0
122
1
132
0
 79
    0
146
0
348
10020
 60
    7
 61
    5
292
1
282
    1
141
0
142
0
 63
  250
421
3358443
  0
ENDTAB
  0
TABLE
  2
LTYPE
  5
5
330
0
100
AcDbSymbolTable
 70
    4
  0
LTYPE
  5
14
330
5
100
AcDbSymbolTableRecord
100
AcDbLinetypeTableRecord
  2
ByBlock
 70
    0
  3

 72
   65
 73
    0
 40
0
  0
LTYPE
  5
15
330
5
100
AcDbSymbolTableRecord
100
AcDbLinetypeTableRecord
  2
ByLayer
 70
    0
  3

 72
   65
 73
    0
 40
0
  0
LTYPE
  5
16
330
5
100
AcDbSymbolTableRecord
100
AcDbLinetypeTableRecord
  2
Continuous
 70
    0
  3
Solid line
 72
   65
 73
    0
 40
0
  0
LTYPE
  5
32
330
5
100
AcDbSymbolTableRecord
100
AcDbLinetypeTableRecord
  2
DOT
 70
    0
  3
Dot . . . . . . . . . . . . . . . . . . . . . .
 72
   65
 73
    2
 40
6.35
 49
0
 74
    0
 49
-6.35
 74
    0
  0
LTYPE
  5
33
330
5
100
AcDbSymbolTableRecord
100
AcDbLinetypeTableRecord
  2
DOTTINY
 70
    0
  3
Dot (.15x) .....................................
 72
   65
 73
    2
 40
0.9525
 49
0
 74
    0
 49
-0.9525
 74
    0
  0
LTYPE
  5
34
330
5
100
AcDbSymbolTableRecord
100
AcDbLinetypeTableRecord
  2
DOT2
 70
    0
  3
Dot (.5x) .....................................
 72
   65
 73
    2
 40
3.175
 49
0
 74
    0
 49
-3.175
 74
    0
  0
LTYPE
  5
35
330
5
100
AcDbSymbolTableRecord
100
AcDbLinetypeTableRecord
  2
DOTX2
 70
    0
  3
Dot (2x) .  .  .  .  .  .  .  .  .  .  .  .  .
 72
   65
 73
    2
 40
12.7
 49
0
 74
    0
 49
-12.7
 74
    0
  0
LTYPE
  5
36
330
5
100
AcDbSymbolTableRecord
100
AcDbLinetypeTableRecord
  2
DASHED
 70
    0
  3
Dashed _ _ _ _ _ _ _ _ _ _ _ _ _ _ _ _ _
 72
   65
 73
    2
 40
19.05
 49
12.7
 74
    0
 49
-6.35
 74
    0
  0
LTYPE
  5
37
330
5
100
AcDbSymbolTableRecord
100
AcDbLinetypeTableRecord
  2
DASHEDTINY
 70
    0
  3
Dashed (.15x) _ _ _ _ _ _ _ _ _ _ _ _ _ _ _ _ _
 72
   65
 73
    2
 40
2.8575
 49
1.905
 74
    0
 49
-0.9525
 74
    0
  0
LTYPE
  5
38
330
5
100
AcDbSymbolTableRecord
100
AcDbLinetypeTableRecord
  2
DASHED2
 70
    0
  3
Dashed (.5x) _ _ _ _ _ _ _ _ _ _ _ _ _ _ _ _ _
 72
   65
 73
    2
 40
9.524999999999999
 49
6.35
 74
    0
 49
-3.175
 74
    0
  0
LTYPE
  5
39
330
5
100
AcDbSymbolTableRecord
100
AcDbLinetypeTableRecord
  2
DASHEDX2
 70
    0
  3
Dashed (2x) ____  ____  ____  ____  ____  ___
 72
   65
 73
    2
 40
38.09999999999999
 49
25.4
 74
    0
 49
-12.7
 74
    0
  0
LTYPE
  5
3A
330
5
100
AcDbSymbolTableRecord
100
AcDbLinetypeTableRecord
  2
DASHDOT
 70
    0
  3
Dash dot __ . __ . __ . __ . __ . __ . __ . __
 72
   65
 73
    4
 40
25.4
 49
12.7
 74
    0
 49
-6.35
 74
    0
 49
0
 74
    0
 49
-6.35
 74
    0
  0
LTYPE
  5
3B
330
5
100
AcDbSymbolTableRecord
100
AcDbLinetypeTableRecord
  2
DASHDOTTINY
 70
    0
  3
Dash dot (.15x) _._._._._._._._._._._._._._._.
 72
   65
 73
    4
 40
3.81
 49
1.905
 74
    0
 49
-0.9525
 74
    0
 49
0
 74
    0
 49
-0.9525
 74
    0
  0
LTYPE
  5
3C
330
5
100
AcDbSymbolTableRecord
100
AcDbLinetypeTableRecord
  2
DASHDOT2
 70
    0
  3
Dash dot (.5x) _._._._._._._._._._._._._._._.
 72
   65
 73
    4
 40
12.7
 49
6.35
 74
    0
 49
-3.175
 74
    0
 49
0
 74
    0
 49
-3.175
 74
    0
  0
LTYPE
  5
3D
330
5
100
AcDbSymbolTableRecord
100
AcDbLinetypeTableRecord
  2
DASHDOTX2
 70
    0
  3
Dash dot (2x) ____  .  ____  .  ____  .  ___
 72
   65
 73
    4
 40
50.8
 49
25.4
 74
    0
 49
-12.7
 74
    0
 49
0
 74
    0
 49
-12.7
 74
    0
  0
LTYPE
  5
3E
330
5
100
AcDbSymbolTableRecord
100
AcDbLinetypeTableRecord
  2
DIVIDE
 70
    0
  3
Divide ____ . . ____ . . ____ . . ____ . . ____
 72
   65
 73
    6
 40
31.75
 49
12.7
 74
    0
 49
-6.35
 74
    0
 49
0
 74
    0
 49
-6.35
 74
    0
 49
0
 74
    0
 49
-6.35
 74
    0
  0
LTYPE
  5
3F
330
5
100
AcDbSymbolTableRecord
100
AcDbLinetypeTableRecord
  2
DIVIDETINY
 70
    0
  3
Divide (.15x) __..__..__..__..__..__..__..__.._
 72
   65
 73
    6
 40
4.7625
 49
1.905
 74
    0
 49
-0.9525
 74
    0
 49
0
 74
    0
 49
-0.9525
 74
    0
 49
0
 74
    0
 49
-0.9525
 74
    0
  0
LTYPE
  5
40
330
5
100
AcDbSymbolTableRecord
100
AcDbLinetypeTableRecord
  2
DIVIDE2
 70
    0
  3
Divide (.5x) __..__..__..__..__..__..__..__.._
 72
   65
 73
    6
 40
15.875
 49
6.35
 74
    0
 49
-3.175
 74
    0
 49
0
 74
    0
 49
-3.175
 74
    0
 49
0
 74
    0
 49
-3.175
 74
    0
  0
LTYPE
  5
41
330
5
100
AcDbSymbolTableRecord
100
AcDbLinetypeTableRecord
  2
DIVIDEX2
 70
    0
  3
Divide (2x) ________  .  .  ________  .  .  _
 72
   65
 73
    6
 40
63.5
 49
25.4
 74
    0
 49
-12.7
 74
    0
 49
0
 74
    0
 49
-12.7
 74
    0
 49
0
 74
    0
 49
-12.7
 74
    0
  0
LTYPE
  5
42
330
5
100
AcDbSymbolTableRecord
100
AcDbLinetypeTableRecord
  2
BORDER
 70
    0
  3
Border __ __ . __ __ . __ __ . __ __ . __ __ .
 72
   65
 73
    6
 40
44.45
 49
12.7
 74
    0
 49
-6.35
 74
    0
 49
12.7
 74
    0
 49
-6.35
 74
    0
 49
0
 74
    0
 49
-6.35
 74
    0
  0
LTYPE
  5
43
330
5
100
AcDbSymbolTableRecord
100
AcDbLinetypeTableRecord
  2
BORDERTINY
 70
    0
  3
Border (.15x) __.__.__.__.__.__.__.__.__.__.__.
 72
   65
 73
    6
 40
6.6675
 49
1.905
 74
    0
 49
-0.9525
 74
    0
 49
1.905
 74
    0
 49
-0.9525
 74
    0
 49
0
 74
    0
 49
-0.9525
 74
    0
  0
LTYPE
  5
44
330
5
100
AcDbSymbolTableRecord
100
AcDbLinetypeTableRecord
  2
BORDER2
 70
    0
  3
Border (.5x) __.__.__.__.__.__.__.__.__.__.__.
 72
   65
 73
    6
 40
22.225
 49
6.35
 74
    0
 49
-3.175
 74
    0
 49
6.35
 74
    0
 49
-3.175
 74
    0
 49
0
 74
    0
 49
-3.175
 74
    0
  0
LTYPE
  5
45
330
5
100
AcDbSymbolTableRecord
100
AcDbLinetypeTableRecord
  2
BORDERX2
 70
    0
  3
Border (2x) ____  ____  .  ____  ____  .  ___
 72
   65
 73
    6
 40
88.89999999999999
 49
25.4
 74
    0
 49
-12.7
 74
    0
 49
25.4
 74
    0
 49
-12.7
 74
    0
 49
0
 74
    0
 49
-12.7
 74
    0
  0
LTYPE
  5
46
330
5
100
AcDbSymbolTableRecord
100
AcDbLinetypeTableRecord
  2
CENTER
 70
    0
  3
Center ____ _ ____ _ ____ _ ____ _ ____ _ ____
 72
   65
 73
    4
 40
50.8
 49
31.75
 74
    0
 49
-6.35
 74
    0
 49
6.35
 74
    0
 49
-6.35
 74
    0
  0
LTYPE
  5
47
330
5
100
AcDbSymbolTableRecord
100
AcDbLinetypeTableRecord
  2
CENTERTINY
 70
    0
  3
Center (.15x) ___ _ ___ _ ___ _ ___ _ ___ _ ___
 72
   65
 73
    4
 40
7.619999999999999
 49
4.7625
 74
    0
 49
-0.9525
 74
    0
 49
0.9525
 74
    0
 49
-0.9525
 74
    0
  0
LTYPE
  5
48
330
5
100
AcDbSymbolTableRecord
100
AcDbLinetypeTableRecord
  2
CENTER2
 70
    0
  3
Center (.5x) ___ _ ___ _ ___ _ ___ _ ___ _ ___
 72
   65
 73
    4
 40
28.575
 49
19.05
 74
    0
 49
-3.175
 74
    0
 49
3.175
 74
    0
 49
-3.175
 74
    0
  0
LTYPE
  5
49
330
5
100
AcDbSymbolTableRecord
100
AcDbLinetypeTableRecord
  2
CENTERX2
 70
    0
  3
Center (2x) ________  __  ________  __  _____
 72
   65
 73
    4
 40
101.6
 49
63.5
 74
    0
 49
-12.7
 74
    0
 49
12.7
 74
    0
 49
-12.7
 74
    0
  0
ENDTAB
  0
TABLE
  2
LAYER
  5
2
330
0
100
AcDbSymbolTable
 70
    1
  0
LAYER
  5
10
330
2
100
AcDbSymbolTableRecord
100
AcDbLayerTableRecord
  2
0
 70
    0
 62
    7
  6
CONTINUOUS
370
    0
390
F
  0
ENDTAB
  0
TABLE
  2
STYLE
  5
3
330
0
100
AcDbSymbolTable
 70
    3
  0
STYLE
  5
4A
330
2
100
AcDbSymbolTableRecord
100
AcDbTextStyleTableRecord
  2
Standard
 70
    0
 40
0
 41
1
 50
0
 71
    0
 42
1
  3
txt
  4

  0
ENDTAB
  0
TABLE
  2
VIEW
  5
6
330
0
100
AcDbSymbolTable
 70
    0
  0
ENDTAB
  0
TABLE
  2
UCS
  5
7
330
0
100
AcDbSymbolTable
 70
    0
  0
ENDTAB
  0
TABLE
  2
APPID
  5
9
330
0
100
AcDbSymbolTable
 70
    1
  0
APPID
  5
12
330
9
100
AcDbSymbolTableRecord
100
AcDbRegAppTableRecord
  2
ACAD
 70
    0
  0
APPID
  5
4B
330
9
100
AcDbSymbolTableRecord
100
AcDbRegAppTableRecord
  2
LibreCad
 70
    0
  0
ENDTAB
  0
TABLE
  2
DIMSTYLE
  5
A
330
0
100
AcDbSymbolTable
 70
    1
100
AcDbDimStyleTable
 71
    1
  0
DIMSTYLE
105
4C
330
A
100
AcDbSymbolTableRecord
100
AcDbDimStyleTableRecord
  2
Standard
 70
    0
 40
1
 41
2.5
 42
0.625
 43
0.38
 44
1.25
 45
0
 46
0
 47
0
 48
0
 49
1
140
2.5
141
0.09
142
0
143
25.4
144
1
145
0
146
1
147
0.625
148
0
 71
    0
 72
    0
 73
    0
 74
    1
 75
    0
 76
    0
 77
    0
 78
    1
 79
    0
170
    0
171
    2
172
    0
173
    0
174
    0
175
    0
176
    0
177
    0
178
    0
179
    0
271
    2
272
    4
273
    2
274
    2
275
    0
276
    0
277
    2
278
    0
279
    0
280
    0
281
    0
282
    0
283
    1
284
    0
285
    0
286
    0
288
    0
289
    3
340
standard
341

371
   -2
372
   -2
  0
ENDTAB
  0
TABLE
  2
BLOCK_RECORD
  5
1
330
0
100
AcDbSymbolTable
 70
    2
  0
BLOCK_RECORD
  5
1F
330
1
100
AcDbSymbolTableRecord
100
AcDbBlockTableRecord
  2
*Model_Space
 70
    0
280
    1
281
    0
  0
BLOCK_RECORD
  5
1E
330
1
100
AcDbSymbolTableRecord
100
AcDbBlockTableRecord
  2
*Paper_Space
 70
    0
280
    1
281
    0
  0
ENDTAB
  0
ENDSEC
  0
SECTION
  2
BLOCKS
  0
BLOCK
  5
20
330
1F
100
AcDbEntity
  8
0
100
AcDbBlockBegin
  2
*Model_Space
 70
    0
 10
0
 20
0
 30
0
  3
*Model_Space
  1

  0
ENDBLK
  5
21
330
1F
100
AcDbEntity
  8
0
100
AcDbBlockEnd
  0
BLOCK
  5
1C
330
1B
100
AcDbEntity
  8
0
100
AcDbBlockBegin
  2
*Paper_Space
 70
    0
 10
0
 20
0
 30
0
  3
*Paper_Space
  1

  0
ENDBLK
  5
1D
330
1F
100
AcDbEntity
  8
0
100
AcDbBlockEnd
  0
ENDSEC
  0
SECTION
  2
ENTITIES
  0
LINE
  5
4D
100
AcDbEntity
  8
0
  6
ByLayer
 62
  256
370
   -1
100
AcDbLine
 10
1300.86814067605
 20
2084.899613767162
 11
3540.417742789521
 21
2084.89969954869
  0
LINE
  5
4E
100
AcDbEntity
  8
0
  6
ByLayer
 62
  256
370
   -1
100
AcDbLine
 10
3540.417742789521
 20
2084.89969954869
 11
3535.240867720293
 21
1624.387238279673
  0
LINE
  5
4F
100
AcDbEntity
  8
0
  6
ByLayer
 62
  256
370
   -1
100
AcDbLine
 10
3535.240867720293
 20
1624.387238279673
 11
1319.17750995166
 21
1621.017417461662
  0
LINE
  5
50
100
AcDbEntity
  8
0
  6
ByLayer
 62
  256
370
   -1
100
AcDbLine
 10
1319.17750995166
 20
1621.017417461662
 11
1300.86814067605
 21
2084.899613767162
  0
LINE
  5
51
100
AcDbEntity
  8
0
  6
ByLayer
 62
  256
370
   -1
100
AcDbLine
 10
1357.90805571747
 20
2033.944025146289
 11
1357.602794540289
 21
1985.744088310889
  0
LINE
  5
52
100
AcDbEntity
  8
0
  6
ByLayer
 62
  256
370
   -1
100
AcDbLine
 10
1357.602794540289
 20
1985.744088310889
 11
1384.828364403013
 21
1986.360696337199
  0
LINE
  5
53
100
AcDbEntity
  8
0
  6
ByLayer
 62
  256
370
   -1
100
AcDbLine
 10
1384.828364403013
 20
1986.360696337199
 11
1388.290855627679
 21
1833.478650184977
  0
LINE
  5
54
100
AcDbEntity
  8
0
  6
ByLayer
 62
  256
370
   -1
100
AcDbLine
 10
1388.290855627679
 20
1833.478650184977
 11
1363.841841442508
 21
1833.623375542461
  0
LINE
  5
55
100
AcDbEntity
  8
0
  6
ByLayer
 62
  256
370
   -1
100
AcDbLine
 10
1363.841841442508
 20
1833.623375542461
 11
1363.536580265328
 21
1785.423438707061
  0
LINE
  5
56
100
AcDbEntity
  8
0
  6
ByLayer
 62
  256
370
   -1
100
AcDbLine
 10
1363.536580265328
 20
1785.423438707061
 11
1473.168572175593
 21
1786.509498204632
  0
LINE
  5
57
100
AcDbEntity
  8
0
  6
ByLayer
 62
  256
370
   -1
100
AcDbLine
 10
1473.168572175593
 20
1786.509498204632
 11
1472.791552280045
 21
1833.995533042877
  0
LINE
  5
58
100
AcDbEntity
  8
0
  6
ByLayer
 62
  256
370
   -1
100
AcDbLine
 10
1472.791552280045
 20
1833.995533042877
 11
1444.852080420166
 21
1834.061206089296
  0
LINE
  5
59
100
AcDbEntity
  8
0
  6
ByLayer
 62
  256
370
   -1
100
AcDbLine
 10
1444.852080420166
 20
1834.061206089296
 11
1442.087680730442
 21
1986.959062703731
  0
LINE
  5
5A
100
AcDbEntity
  8
0
  6
ByLayer
 62
  256
370
   -1
100
AcDbLine
 10
1442.087680730442
 20
1986.959062703731
 11
1468.599348596012
 21
1988.25795180277
  0
LINE
  5
5B
100
AcDbEntity
  8
0
  6
ByLayer
 62
  256
370
   -1
100
AcDbLine
 10
1468.599348596012
 20
1988.25795180277
 11
1467.540047627735
 21
2035.03008464386
  0
LINE
  5
5C
100
AcDbEntity
  8
0
  6
ByLayer
 62
  256
370
   -1
100
AcDbLine
 10
1467.540047627735
 20
2035.03008464386
 11
1357.90805571747
 21
2033.944025146289
  0
LINE
  5
5D
100
AcDbEntity
  8
0
  6
ByLayer
 62
  256
370
   -1
100
AcDbLine
 10
1735.670438894182
 20
2038.308935993918
 11
1737.491073246253
 21
1988.760247475274
  0
LINE
  5
5E
100
AcDbEntity
  8
0
  6
ByLayer
 62
  256
370
   -1
100
AcDbLine
 10
1737.491073246253
 20
1988.760247475274
 11
1761.924276969211
 21
1989.313613652732
  0
LINE
  5
5F
100
AcDbEntity
  8
0
  6
ByLayer
 62
  256
370
   -1
100
AcDbLine
 10
1761.924276969211
 20
1989.313613652732
 11
1763.990585123993
 21
1836.399946576084
  0
LINE
  5
60
100
AcDbEntity
  8
0
  6
ByLayer
 62
  256
370
   -1
100
AcDbLine
 10
1763.990585123993
 20
1836.399946576084
 11
1738.177008793365
 21
1835.116867939258
  0
LINE
  5
61
100
AcDbEntity
  8
0
  6
ByLayer
 62
  256
370
   -1
100
AcDbLine
 10
1738.177008793365
 20
1835.116867939258
 11
1741.409636677532
 21
1784.901708810098
  0
LINE
  5
62
100
AcDbEntity
  8
0
  6
ByLayer
 62
  256
370
   -1
100
AcDbLine
 10
1741.409636677532
 20
1784.901708810098
 11
1820.976261198668
 21
1787.402193037331
  0
LINE
  5
63
100
AcDbEntity
  8
0
  6
ByLayer
 62
  256
370
   -1
100
AcDbLine
 10
1820.976261198668
 20
1787.402193037331
 11
1816.63933215715
 21
1917.215597612053
  0
LINE
  5
64
100
AcDbEntity
  8
0
  6
ByLayer
 62
  256
370
   -1
100
AcDbLine
 10
1816.63933215715
 20
1917.215597612053
 11
1880.519577677478
 21
1779.670892371202
  0
LINE
  5
65
100
AcDbEntity
  8
0
  6
ByLayer
 62
  256
370
   -1
100
AcDbLine
 10
1880.519577677478
 20
1779.670892371202
 11
1936.20271017873
 21
1911.54208823119
  0
LINE
  5
66
100
AcDbEntity
  8
0
  6
ByLayer
 62
  256
370
   -1
100
AcDbLine
 10
1936.20271017873
 20
1911.54208823119
 11
1938.318880917718
 21
1787.265984549363
  0
LINE
  5
67
100
AcDbEntity
  8
0
  6
ByLayer
 62
  256
370
   -1
100
AcDbLine
 10
1938.318880917718
 20
1787.265984549363
 11
2019.329119895376
 21
1787.703815096198
  0
LINE
  5
68
100
AcDbEntity
  8
0
  6
ByLayer
 62
  256
370
   -1
100
AcDbLine
 10
2019.329119895376
 20
1787.703815096198
 11
2018.22238754046
 21
1836.570222542113
  0
LINE
  5
69
100
AcDbEntity
  8
0
  6
ByLayer
 62
  256
370
   -1
100
AcDbLine
 10
2018.22238754046
 20
1836.570222542113
 11
1990.965196753309
 21
1837.349797585686
  0
LINE
  5
6A
100
AcDbEntity
  8
0
  6
ByLayer
 62
  256
370
   -1
100
AcDbLine
 10
1990.965196753309
 20
1837.349797585686
 11
1987.565947377496
 21
1987.439477598142
  0
LINE
  5
6B
100
AcDbEntity
  8
0
  6
ByLayer
 62
  256
370
   -1
100
AcDbLine
 10
1987.565947377496
 20
1987.439477598142
 11
2016.869981382832
 21
1988.801608546033
  0
LINE
  5
6C
100
AcDbEntity
  8
0
  6
ByLayer
 62
  256
370
   -1
100
AcDbLine
 10
2016.869981382832
 20
1988.801608546033
 11
2014.319634571394
 21
2039.730669672347
  0
LINE
  5
6D
100
AcDbEntity
  8
0
  6
ByLayer
 62
  256
370
   -1
100
AcDbLine
 10
2014.319634571394
 20
2039.730669672347
 11
1932.627114521007
 21
2038.578937128358
  0
LINE
  5
6E
100
AcDbEntity
  8
0
  6
ByLayer
 62
  256
370
   -1
100
AcDbLine
 10
1932.627114521007
 20
2038.578937128358
 11
1877.705315403549
 21
1903.931185590816
  0
LINE
  5
6F
100
AcDbEntity
  8
0
  6
ByLayer
 62
  256
370
   -1
100
AcDbLine
 10
1877.705315403549
 20
1903.931185590816
 11
1815.950965412473
 21
2040.127139148423
  0
LINE
  5
70
100
AcDbEntity
  8
0
  6
ByLayer
 62
  256
370
   -1
100
AcDbLine
 10
1815.950965412473
 20
2040.127139148423
 11
1735.670438894182
 21
2038.308935993918
  0
LINE
  5
71
100
AcDbEntity
  8
0
  6
ByLayer
 62
  256
370
   -1
100
AcDbLine
 10
1504.507278055217
 20
2037.264222211037
 11
1504.931729337404
 21
1987.683912767967
  0
LINE
  5
72
100
AcDbEntity
  8
0
  6
ByLayer
 62
  256
370
   -1
100
AcDbLine
 10
1504.931729337404
 20
1987.683912767967
 11
1532.173109662342
 21
1987.602429259335
  0
LINE
  5
73
100
AcDbEntity
  8
0
  6
ByLayer
 62
  256
370
   -1
100
AcDbLine
 10
1532.173109662342
 20
1987.602429259335
 11
1534.937509352065
 21
1834.7045726449
  0
LINE
  5
74
100
AcDbEntity
  8
0
  6
ByLayer
 62
  256
370
   -1
100
AcDbLine
 10
1534.937509352065
 20
1834.7045726449
 11
1509.076501634798
 21
1835.515768612899
  0
LINE
  5
75
100
AcDbEntity
  8
0
  6
ByLayer
 62
  256
370
   -1
100
AcDbLine
 10
1509.076501634798
 20
1835.515768612899
 11
1509.485142454772
 21
1786.63355070477
  0
LINE
  5
76
100
AcDbEntity
  8
0
  6
ByLayer
 62
  256
370
   -1
100
AcDbLine
 10
1509.485142454772
 20
1786.63355070477
 11
1658.241881246197
 21
1787.208813016391
  0
LINE
  5
77
100
AcDbEntity
  8
0
  6
ByLayer
 62
  256
370
   -1
100
AcDbLine
 10
1591.482923682339
 20
1835.98522008416
 11
1642.459416195293
 21
1836.441292290774
  0
LINE
  5
78
100
AcDbEntity
  8
0
  6
ByLayer
 62
  256
370
   -1
100
AcDbLine
 10
1642.459416195293
 20
1836.441292290774
 11
1641.987533526466
 21
1888.115876338669
  0
LINE
  5
79
100
AcDbEntity
  8
0
  6
ByLayer
 62
  256
370
   -1
100
AcDbLine
 10
1641.987533526466
 20
1888.115876338669
 11
1591.011041013513
 21
1887.659804132055
  0
LINE
  5
7A
100
AcDbEntity
  8
0
  6
ByLayer
 62
  256
370
   -1
100
AcDbLine
 10
1591.011041013513
 20
1887.659804132055
 11
1591.482923682339
 21
1835.98522008416
  0
LINE
  5
7B
100
AcDbEntity
  8
0
  6
ByLayer
 62
  256
370
   -1
100
AcDbLine
 10
1589.269458972507
 20
1933.718034975991
 11
1639.532049488307
 21
1934.856388255334
  0
LINE
  5
7C
100
AcDbEntity
  8
0
  6
ByLayer
 62
  256
370
   -1
100
AcDbLine
 10
1639.532049488307
 20
1934.856388255334
 11
1639.044356357267
 21
1987.229063838171
  0
LINE
  5
7D
100
AcDbEntity
  8
0
  6
ByLayer
 62
  256
370
   -1
100
AcDbLine
 10
1639.044356357267
 20
1987.229063838171
 11
1589.47985737641
 21
1986.106521021042
  0
LINE
  5
7E
100
AcDbEntity
  8
0
  6
ByLayer
 62
  256
370
   -1
100
AcDbLine
 10
1589.47985737641
 20
1986.106521021042
 11
1589.269458972507
 21
1933.718034975991
  0
LINE
  5
7F
100
AcDbEntity
  8
0
  6
ByLayer
 62
  256
370
   -1
100
AcDbLine
 10
1504.507278055217
 20
2037.264222211037
 11
1646.298911959438
 21
2036.983288365585
  0
ARC
  5
80
100
AcDbEntity
  8
0
  6
ByLayer
 62
  256
370
   -1
100
AcDbCircle
 10
1631.451175378416
 20
1971.336495456825
 40
67.30495301822161
100
AcDbArc
 50
297.9523577184247
 51
77.25549331693199
  0
ARC
  5
81
100
AcDbEntity
  8
0
  6
ByLayer
 62
  256
370
   -1
100
AcDbCircle
 10
1639.792957610399
 20
1850.940287762227
 40
65.21210588036622
100
AcDbArc
 50
282.1568378119924
 51
69.1536753089987
  0
LINE
  5
82
100
AcDbEntity
  8
0
  6
ByLayer
 62
  256
370
   -1
100
AcDbLine
 10
2698.608346262571
 20
1707.346995845899
 11
2705.430346262572
 21
1707.9154958459
  0
LINE
  5
83
100
AcDbEntity
  8
0
  6
ByLayer
 62
  256
370
   -1
100
AcDbLine
 10
2705.430346262572
 20
1707.9154958459
 11
2704.861846262572
 21
1713.6004958459
  0
LINE
  5
84
100
AcDbEntity
  8
0
  6
ByLayer
 62
  256
370
   -1
100
AcDbLine
 10
2704.861846262572
 20
1713.6004958459
 11
2702.587846262571
 21
1719.001245845902
  0
LINE
  5
85
100
AcDbEntity
  8
0
  6
ByLayer
 62
  256
370
   -1
100
AcDbLine
 10
2702.587846262571
 20
1719.001245845902
 11
2698.608346262571
 21
1723.833495845902
  0
LINE
  5
86
100
AcDbEntity
  8
0
  6
ByLayer
 62
  256
370
   -1
100
AcDbLine
 10
2698.608346262571
 20
1723.833495845902
 11
2692.354846262569
 21
1728.381495845904
  0
LINE
  5
87
100
AcDbEntity
  8
0
  6
ByLayer
 62
  256
370
   -1
100
AcDbLine
 10
2692.354846262569
 20
1728.381495845904
 11
2684.964346262568
 21
1729.234245845904
  0
LINE
  5
88
100
AcDbEntity
  8
0
  6
ByLayer
 62
  256
370
   -1
100
AcDbLine
 10
2684.964346262568
 20
1729.234245845904
 11
2678.710846262567
 21
1728.949995845903
  0
LINE
  5
89
100
AcDbEntity
  8
0
  6
ByLayer
 62
  256
370
   -1
100
AcDbLine
 10
2678.710846262567
 20
1728.949995845903
 11
2673.310096262566
 21
1728.381495845904
  0
LINE
  5
8A
100
AcDbEntity
  8
0
  6
ByLayer
 62
  256
370
   -1
100
AcDbLine
 10
2673.310096262566
 20
1728.381495845904
 11
2668.477846262565
 21
1725.823245845903
  0
LINE
  5
8B
100
AcDbEntity
  8
0
  6
ByLayer
 62
  256
370
   -1
100
AcDbLine
 10
2668.477846262565
 20
1725.823245845903
 11
2662.792846262564
 21
1722.412245845902
  0
LINE
  5
8C
100
AcDbEntity
  8
0
  6
ByLayer
 62
  256
370
   -1
100
AcDbLine
 10
2662.792846262564
 20
1722.412245845902
 11
2659.666096262563
 21
1717.295745845901
  0
LINE
  5
8D
100
AcDbEntity
  8
0
  6
ByLayer
 62
  256
370
   -1
100
AcDbLine
 10
2659.666096262563
 20
1717.295745845901
 11
2657.676346262563
 21
1707.631245845899
  0
LINE
  5
8E
100
AcDbEntity
  8
0
  6
ByLayer
 62
  256
370
   -1
100
AcDbLine
 10
2657.676346262563
 20
1707.631245845899
 11
2659.666096262563
 21
1701.093495845898
  0
LINE
  5
8F
100
AcDbEntity
  8
0
  6
ByLayer
 62
  256
370
   -1
100
AcDbLine
 10
2659.666096262563
 20
1701.093495845898
 11
2664.498346262564
 21
1697.398245845897
  0
LINE
  5
90
100
AcDbEntity
  8
0
  6
ByLayer
 62
  256
370
   -1
100
AcDbLine
 10
2664.498346262564
 20
1697.398245845897
 11
2670.183346262565
 21
1694.839995845897
  0
LINE
  5
91
100
AcDbEntity
  8
0
  6
ByLayer
 62
  256
370
   -1
100
AcDbLine
 10
2670.183346262565
 20
1694.839995845897
 11
2677.573846262567
 21
1694.271495845897
  0
LINE
  5
92
100
AcDbEntity
  8
0
  6
ByLayer
 62
  256
370
   -1
100
AcDbLine
 10
2677.573846262567
 20
1694.271495845897
 11
2684.395846262568
 21
1691.144745845896
  0
LINE
  5
93
100
AcDbEntity
  8
0
  6
ByLayer
 62
  256
370
   -1
100
AcDbLine
 10
2684.395846262568
 20
1691.144745845896
 11
2690.080846262569
 21
1689.154995845896
  0
LINE
  5
94
100
AcDbEntity
  8
0
  6
ByLayer
 62
  256
370
   -1
100
AcDbLine
 10
2690.080846262569
 20
1689.154995845896
 11
2694.91309626257
 21
1686.596745845895
  0
LINE
  5
95
100
AcDbEntity
  8
0
  6
ByLayer
 62
  256
370
   -1
100
AcDbLine
 10
2694.91309626257
 20
1686.596745845895
 11
2698.039846262571
 21
1681.195995845894
  0
LINE
  5
96
100
AcDbEntity
  8
0
  6
ByLayer
 62
  256
370
   -1
100
AcDbLine
 10
2698.039846262571
 20
1681.195995845894
 11
2698.892596262571
 21
1675.795245845893
  0
LINE
  5
97
100
AcDbEntity
  8
0
  6
ByLayer
 62
  256
370
   -1
100
AcDbLine
 10
2698.892596262571
 20
1675.795245845893
 11
2694.06034626257
 21
1670.678745845892
  0
LINE
  5
98
100
AcDbEntity
  8
0
  6
ByLayer
 62
  256
370
   -1
100
AcDbLine
 10
2694.06034626257
 20
1670.678745845892
 11
2688.659596262569
 21
1667.267745845891
  0
LINE
  5
99
100
AcDbEntity
  8
0
  6
ByLayer
 62
  256
370
   -1
100
AcDbLine
 10
2688.659596262569
 20
1667.267745845891
 11
2680.700596262567
 21
1667.267745845891
  0
LINE
  5
9A
100
AcDbEntity
  8
0
  6
ByLayer
 62
  256
370
   -1
100
AcDbLine
 10
2680.700596262567
 20
1667.267745845891
 11
2673.025846262566
 21
1667.836245845892
  0
LINE
  5
9B
100
AcDbEntity
  8
0
  6
ByLayer
 62
  256
370
   -1
100
AcDbLine
 10
2673.025846262566
 20
1667.836245845892
 11
2668.477846262565
 21
1670.394495845892
  0
LINE
  5
9C
100
AcDbEntity
  8
0
  6
ByLayer
 62
  256
370
   -1
100
AcDbLine
 10
2668.477846262565
 20
1670.394495845892
 11
2664.214096262564
 21
1673.521245845893
  0
LINE
  5
9D
100
AcDbEntity
  8
0
  6
ByLayer
 62
  256
370
   -1
100
AcDbLine
 10
2664.214096262564
 20
1673.521245845893
 11
2661.087346262564
 21
1677.784995845893
  0
LINE
  5
9E
100
AcDbEntity
  8
0
  6
ByLayer
 62
  256
370
   -1
100
AcDbLine
 10
2661.087346262564
 20
1677.784995845893
 11
2660.234596262563
 21
1684.606995845895
  0
LINE
  5
9F
100
AcDbEntity
  8
0
  6
ByLayer
 62
  256
370
   -1
100
AcDbLine
 10
2660.234596262563
 20
1684.606995845895
 11
2653.696846262562
 21
1682.901495845894
  0
LINE
  5
A0
100
AcDbEntity
  8
0
  6
ByLayer
 62
  256
370
   -1
100
AcDbLine
 10
2653.696846262562
 20
1682.901495845894
 11
2655.970846262563
 21
1672.668495845892
  0
LINE
  5
A1
100
AcDbEntity
  8
0
  6
ByLayer
 62
  256
370
   -1
100
AcDbLine
 10
2655.970846262563
 20
1672.668495845892
 11
2659.950346262563
 21
1666.414995845891
  0
LINE
  5
A2
100
AcDbEntity
  8
0
  6
ByLayer
 62
  256
370
   -1
100
AcDbLine
 10
2659.950346262563
 20
1666.414995845891
 11
2667.340846262565
 21
1662.15124584589
  0
LINE
  5
A3
100
AcDbEntity
  8
0
  6
ByLayer
 62
  256
370
   -1
100
AcDbLine
 10
2667.340846262565
 20
1662.15124584589
 11
2674.731346262566
 21
1659.87724584589
  0
LINE
  5
A4
100
AcDbEntity
  8
0
  6
ByLayer
 62
  256
370
   -1
100
AcDbLine
 10
2674.731346262566
 20
1659.87724584589
 11
2685.248596262568
 21
1659.59299584589
  0
LINE
  5
A5
100
AcDbEntity
  8
0
  6
ByLayer
 62
  256
370
   -1
100
AcDbLine
 10
2685.248596262568
 20
1659.59299584589
 11
2699.176846262571
 21
1663.856745845891
  0
LINE
  5
A6
100
AcDbEntity
  8
0
  6
ByLayer
 62
  256
370
   -1
100
AcDbLine
 10
2699.176846262571
 20
1663.856745845891
 11
2704.861846262572
 21
1668.404745845892
  0
LINE
  5
A7
100
AcDbEntity
  8
0
  6
ByLayer
 62
  256
370
   -1
100
AcDbLine
 10
2704.861846262572
 20
1668.404745845892
 11
2706.283096262573
 21
1677.500745845893
  0
LINE
  5
A8
100
AcDbEntity
  8
0
  6
ByLayer
 62
  256
370
   -1
100
AcDbLine
 10
2706.283096262573
 20
1677.500745845893
 11
2706.567346262572
 21
1686.596745845895
  0
LINE
  5
A9
100
AcDbEntity
  8
0
  6
ByLayer
 62
  256
370
   -1
100
AcDbLine
 10
2706.567346262572
 20
1686.596745845895
 11
2700.882346262571
 21
1692.565995845897
  0
LINE
  5
AA
100
AcDbEntity
  8
0
  6
ByLayer
 62
  256
370
   -1
100
AcDbLine
 10
2700.882346262571
 20
1692.565995845897
 11
2693.49184626257
 21
1696.829745845897
  0
LINE
  5
AB
100
AcDbEntity
  8
0
  6
ByLayer
 62
  256
370
   -1
100
AcDbLine
 10
2693.49184626257
 20
1696.829745845897
 11
2686.954096262569
 21
1698.535245845898
  0
LINE
  5
AC
100
AcDbEntity
  8
0
  6
ByLayer
 62
  256
370
   -1
100
AcDbLine
 10
2686.954096262569
 20
1698.535245845898
 11
2681.269096262567
 21
1700.240745845898
  0
LINE
  5
AD
100
AcDbEntity
  8
0
  6
ByLayer
 62
  256
370
   -1
100
AcDbLine
 10
2681.269096262567
 20
1700.240745845898
 11
2674.731346262566
 21
1703.083245845898
  0
LINE
  5
AE
100
AcDbEntity
  8
0
  6
ByLayer
 62
  256
370
   -1
100
AcDbLine
 10
2674.731346262566
 20
1703.083245845898
 11
2667.909346262565
 21
1707.062745845899
  0
LINE
  5
AF
100
AcDbEntity
  8
0
  6
ByLayer
 62
  256
370
   -1
100
AcDbLine
 10
2667.909346262565
 20
1707.062745845899
 11
2666.488096262564
 21
1711.8949958459
  0
LINE
  5
B0
100
AcDbEntity
  8
0
  6
ByLayer
 62
  256
370
   -1
100
AcDbLine
 10
2666.488096262564
 20
1711.8949958459
 11
2667.340846262565
 21
1717.295745845901
  0
LINE
  5
B1
100
AcDbEntity
  8
0
  6
ByLayer
 62
  256
370
   -1
100
AcDbLine
 10
2667.340846262565
 20
1717.295745845901
 11
2674.731346262566
 21
1719.569745845902
  0
LINE
  5
B2
100
AcDbEntity
  8
0
  6
ByLayer
 62
  256
370
   -1
100
AcDbLine
 10
2674.731346262566
 20
1719.569745845902
 11
2682.121846262567
 21
1721.275245845902
  0
LINE
  5
B3
100
AcDbEntity
  8
0
  6
ByLayer
 62
  256
370
   -1
100
AcDbLine
 10
2682.121846262567
 20
1721.275245845902
 11
2692.07059626257
 21
1719.569745845902
  0
LINE
  5
B4
100
AcDbEntity
  8
0
  6
ByLayer
 62
  256
370
   -1
100
AcDbLine
 10
2692.07059626257
 20
1719.569745845902
 11
2698.608346262571
 21
1707.346995845899
  0
LINE
  5
B5
100
AcDbEntity
  8
0
  6
ByLayer
 62
  256
370
   -1
100
AcDbLine
 10
2757.163846262582
 20
1692.850245845896
 11
2763.701596262584
 21
1692.850245845896
  0
LINE
  5
B6
100
AcDbEntity
  8
0
  6
ByLayer
 62
  256
370
   -1
100
AcDbLine
 10
2763.701596262584
 20
1692.850245845896
 11
2762.280346262583
 21
1698.250995845897
  0
LINE
  5
B7
100
AcDbEntity
  8
0
  6
ByLayer
 62
  256
370
   -1
100
AcDbLine
 10
2762.280346262583
 20
1698.250995845897
 11
2758.869346262583
 21
1704.220245845899
  0
LINE
  5
B8
100
AcDbEntity
  8
0
  6
ByLayer
 62
  256
370
   -1
100
AcDbLine
 10
2758.869346262583
 20
1704.220245845899
 11
2751.478846262581
 21
1708.483995845899
  0
LINE
  5
B9
100
AcDbEntity
  8
0
  6
ByLayer
 62
  256
370
   -1
100
AcDbLine
 10
2751.478846262581
 20
1708.483995845899
 11
2743.23559626258
 21
1709.3367458459
  0
LINE
  5
BA
100
AcDbEntity
  8
0
  6
ByLayer
 62
  256
370
   -1
100
AcDbLine
 10
2743.23559626258
 20
1709.3367458459
 11
2734.992346262578
 21
1707.062745845899
  0
LINE
  5
BB
100
AcDbEntity
  8
0
  6
ByLayer
 62
  256
370
   -1
100
AcDbLine
 10
2734.992346262578
 20
1707.062745845899
 11
2729.591596262577
 21
1705.072995845899
  0
LINE
  5
BC
100
AcDbEntity
  8
0
  6
ByLayer
 62
  256
370
   -1
100
AcDbLine
 10
2729.591596262577
 20
1705.072995845899
 11
2725.327846262576
 21
1701.093495845898
  0
LINE
  5
BD
100
AcDbEntity
  8
0
  6
ByLayer
 62
  256
370
   -1
100
AcDbLine
 10
2725.327846262576
 20
1701.093495845898
 11
2721.064096262575
 21
1691.428995845896
  0
LINE
  5
BE
100
AcDbEntity
  8
0
  6
ByLayer
 62
  256
370
   -1
100
AcDbLine
 10
2721.064096262575
 20
1691.428995845896
 11
2720.495596262575
 21
1686.312495845895
  0
LINE
  5
BF
100
AcDbEntity
  8
0
  6
ByLayer
 62
  256
370
   -1
100
AcDbLine
 10
2720.495596262575
 20
1686.312495845895
 11
2720.495596262575
 21
1680.911745845894
  0
LINE
  5
C0
100
AcDbEntity
  8
0
  6
ByLayer
 62
  256
370
   -1
100
AcDbLine
 10
2720.495596262575
 20
1680.911745845894
 11
2721.632596262576
 21
1671.815745845892
  0
LINE
  5
C1
100
AcDbEntity
  8
0
  6
ByLayer
 62
  256
370
   -1
100
AcDbLine
 10
2721.632596262576
 20
1671.815745845892
 11
2724.475096262576
 21
1665.846495845891
  0
LINE
  5
C2
100
AcDbEntity
  8
0
  6
ByLayer
 62
  256
370
   -1
100
AcDbLine
 10
2724.475096262576
 20
1665.846495845891
 11
2731.297096262577
 21
1661.01424584589
  0
LINE
  5
C3
100
AcDbEntity
  8
0
  6
ByLayer
 62
  256
370
   -1
100
AcDbLine
 10
2731.297096262577
 20
1661.01424584589
 11
2737.266346262578
 21
1660.44574584589
  0
LINE
  5
C4
100
AcDbEntity
  8
0
  6
ByLayer
 62
  256
370
   -1
100
AcDbLine
 10
2737.266346262578
 20
1660.44574584589
 11
2742.667096262579
 21
1659.59299584589
  0
LINE
  5
C5
100
AcDbEntity
  8
0
  6
ByLayer
 62
  256
370
   -1
100
AcDbLine
 10
2742.667096262579
 20
1659.59299584589
 11
2749.489096262581
 21
1659.30874584589
  0
LINE
  5
C6
100
AcDbEntity
  8
0
  6
ByLayer
 62
  256
370
   -1
100
AcDbLine
 10
2749.489096262581
 20
1659.30874584589
 11
2755.458346262582
 21
1661.86699584589
  0
LINE
  5
C7
100
AcDbEntity
  8
0
  6
ByLayer
 62
  256
370
   -1
100
AcDbLine
 10
2755.458346262582
 20
1661.86699584589
 11
2760.859096262583
 21
1667.836245845892
  0
LINE
  5
C8
100
AcDbEntity
  8
0
  6
ByLayer
 62
  256
370
   -1
100
AcDbLine
 10
2760.859096262583
 20
1667.836245845892
 11
2762.848846262584
 21
1673.805495845893
  0
LINE
  5
C9
100
AcDbEntity
  8
0
  6
ByLayer
 62
  256
370
   -1
100
AcDbLine
 10
2762.848846262584
 20
1673.805495845893
 11
2757.163846262582
 21
1677.216495845893
  0
LINE
  5
CA
100
AcDbEntity
  8
0
  6
ByLayer
 62
  256
370
   -1
100
AcDbLine
 10
2757.163846262582
 20
1677.216495845893
 11
2756.595346262582
 21
1670.962995845892
  0
LINE
  5
CB
100
AcDbEntity
  8
0
  6
ByLayer
 62
  256
370
   -1
100
AcDbLine
 10
2756.595346262582
 20
1670.962995845892
 11
2749.489096262581
 21
1668.404745845892
  0
LINE
  5
CC
100
AcDbEntity
  8
0
  6
ByLayer
 62
  256
370
   -1
100
AcDbLine
 10
2749.489096262581
 20
1668.404745845892
 11
2744.65684626258
 21
1666.130745845891
  0
LINE
  5
CD
100
AcDbEntity
  8
0
  6
ByLayer
 62
  256
370
   -1
100
AcDbLine
 10
2744.65684626258
 20
1666.130745845891
 11
2739.256096262579
 21
1666.983495845891
  0
LINE
  5
CE
100
AcDbEntity
  8
0
  6
ByLayer
 62
  256
370
   -1
100
AcDbLine
 10
2739.256096262579
 20
1666.983495845891
 11
2734.139596262578
 21
1668.973245845892
  0
LINE
  5
CF
100
AcDbEntity
  8
0
  6
ByLayer
 62
  256
370
   -1
100
AcDbLine
 10
2734.139596262578
 20
1668.973245845892
 11
2730.444346262577
 21
1672.384245845892
  0
LINE
  5
D0
100
AcDbEntity
  8
0
  6
ByLayer
 62
  256
370
   -1
100
AcDbLine
 10
2730.444346262577
 20
1672.384245845892
 11
2727.601846262577
 21
1679.774745845894
  0
LINE
  5
D1
100
AcDbEntity
  8
0
  6
ByLayer
 62
  256
370
   -1
100
AcDbLine
 10
2727.601846262577
 20
1679.774745845894
 11
2727.886096262577
 21
1685.175495845895
  0
LINE
  5
D2
100
AcDbEntity
  8
0
  6
ByLayer
 62
  256
370
   -1
100
AcDbLine
 10
2727.886096262577
 20
1685.175495845895
 11
2729.591596262577
 21
1693.702995845897
  0
LINE
  5
D3
100
AcDbEntity
  8
0
  6
ByLayer
 62
  256
370
   -1
100
AcDbLine
 10
2729.591596262577
 20
1693.702995845897
 11
2734.992346262578
 21
1699.103745845898
  0
LINE
  5
D4
100
AcDbEntity
  8
0
  6
ByLayer
 62
  256
370
   -1
100
AcDbLine
 10
2734.992346262578
 20
1699.103745845898
 11
2741.814346262579
 21
1701.946245845898
  0
LINE
  5
D5
100
AcDbEntity
  8
0
  6
ByLayer
 62
  256
370
   -1
100
AcDbLine
 10
2741.814346262579
 20
1701.946245845898
 11
2748.636346262581
 21
1703.083245845898
  0
LINE
  5
D6
100
AcDbEntity
  8
0
  6
ByLayer
 62
  256
370
   -1
100
AcDbLine
 10
2748.636346262581
 20
1703.083245845898
 11
2753.752846262582
 21
1698.819495845898
  0
LINE
  5
D7
100
AcDbEntity
  8
0
  6
ByLayer
 62
  256
370
   -1
100
AcDbLine
 10
2753.752846262582
 20
1698.819495845898
 11
2757.163846262582
 21
1692.850245845896
  0
LINE
  5
D8
100
AcDbEntity
  8
0
  6
ByLayer
 62
  256
370
   -1
100
AcDbLine
 10
2779.619596262587
 20
1725.538995845903
 11
2777.914096262587
 21
1659.59299584589
  0
LINE
  5
D9
100
AcDbEntity
  8
0
  6
ByLayer
 62
  256
370
   -1
100
AcDbLine
 10
2777.914096262587
 20
1659.59299584589
 11
2785.873096262588
 21
1660.44574584589
  0
LINE
  5
DA
100
AcDbEntity
  8
0
  6
ByLayer
 62
  256
370
   -1
100
AcDbLine
 10
2785.873096262588
 20
1660.44574584589
 11
2787.010096262588
 21
1691.713245845896
  0
LINE
  5
DB
100
AcDbEntity
  8
0
  6
ByLayer
 62
  256
370
   -1
100
AcDbLine
 10
2787.010096262588
 20
1691.713245845896
 11
2788.999846262589
 21
1697.398245845897
  0
LINE
  5
DC
100
AcDbEntity
  8
0
  6
ByLayer
 62
  256
370
   -1
100
AcDbLine
 10
2788.999846262589
 20
1697.398245845897
 11
2796.67459626259
 21
1700.809245845898
  0
LINE
  5
DD
100
AcDbEntity
  8
0
  6
ByLayer
 62
  256
370
   -1
100
AcDbLine
 10
2796.67459626259
 20
1700.809245845898
 11
2804.917846262592
 21
1699.387995845898
  0
LINE
  5
DE
100
AcDbEntity
  8
0
  6
ByLayer
 62
  256
370
   -1
100
AcDbLine
 10
2804.917846262592
 20
1699.387995845898
 11
2811.739846262593
 21
1692.850245845896
  0
LINE
  5
DF
100
AcDbEntity
  8
0
  6
ByLayer
 62
  256
370
   -1
100
AcDbLine
 10
2811.739846262593
 20
1692.850245845896
 11
2810.034346262593
 21
1660.72999584589
  0
LINE
  5
E0
100
AcDbEntity
  8
0
  6
ByLayer
 62
  256
370
   -1
100
AcDbLine
 10
2810.034346262593
 20
1660.72999584589
 11
2816.287846262594
 21
1660.72999584589
  0
LINE
  5
E1
100
AcDbEntity
  8
0
  6
ByLayer
 62
  256
370
   -1
100
AcDbLine
 10
2816.287846262594
 20
1660.72999584589
 11
2817.140596262594
 21
1696.545495845897
  0
LINE
  5
E2
100
AcDbEntity
  8
0
  6
ByLayer
 62
  256
370
   -1
100
AcDbLine
 10
2817.140596262594
 20
1696.545495845897
 11
2815.150846262594
 21
1702.514745845898
  0
LINE
  5
E3
100
AcDbEntity
  8
0
  6
ByLayer
 62
  256
370
   -1
100
AcDbLine
 10
2815.150846262594
 20
1702.514745845898
 11
2811.455596262593
 21
1706.778495845899
  0
LINE
  5
E4
100
AcDbEntity
  8
0
  6
ByLayer
 62
  256
370
   -1
100
AcDbLine
 10
2811.455596262593
 20
1706.778495845899
 11
2801.506846262591
 21
1708.483995845899
  0
LINE
  5
E5
100
AcDbEntity
  8
0
  6
ByLayer
 62
  256
370
   -1
100
AcDbLine
 10
2801.506846262591
 20
1708.483995845899
 11
2793.26359626259
 21
1707.346995845899
  0
LINE
  5
E6
100
AcDbEntity
  8
0
  6
ByLayer
 62
  256
370
   -1
100
AcDbLine
 10
2793.26359626259
 20
1707.346995845899
 11
2787.294346262589
 21
1703.083245845898
  0
LINE
  5
E7
100
AcDbEntity
  8
0
  6
ByLayer
 62
  256
370
   -1
100
AcDbLine
 10
2787.294346262589
 20
1703.083245845898
 11
2790.278971262589
 21
1705.215120845899
  0
LINE
  5
E8
100
AcDbEntity
  8
0
  6
ByLayer
 62
  256
370
   -1
100
AcDbLine
 10
2787.294346262589
 20
1703.083245845898
 11
2786.441596262588
 21
1726.391745845903
  0
LINE
  5
E9
100
AcDbEntity
  8
0
  6
ByLayer
 62
  256
370
   -1
100
AcDbLine
 10
2786.441596262588
 20
1726.391745845903
 11
2779.619596262587
 21
1725.538995845903
  0
LINE
  5
EA
100
AcDbEntity
  8
0
  6
ByLayer
 62
  256
370
   -1
100
AcDbLine
 10
2840.164846262599
 20
1701.377745845898
 11
2836.185346262598
 21
1697.398245845897
  0
LINE
  5
EB
100
AcDbEntity
  8
0
  6
ByLayer
 62
  256
370
   -1
100
AcDbLine
 10
2836.185346262598
 20
1697.398245845897
 11
2832.774346262597
 21
1685.175495845895
  0
LINE
  5
EC
100
AcDbEntity
  8
0
  6
ByLayer
 62
  256
370
   -1
100
AcDbLine
 10
2832.774346262597
 20
1685.175495845895
 11
2832.205846262597
 21
1676.932245845893
  0
LINE
  5
ED
100
AcDbEntity
  8
0
  6
ByLayer
 62
  256
370
   -1
100
AcDbLine
 10
2832.205846262597
 20
1676.932245845893
 11
2832.774346262597
 21
1671.247245845892
  0
LINE
  5
EE
100
AcDbEntity
  8
0
  6
ByLayer
 62
  256
370
   -1
100
AcDbLine
 10
2832.774346262597
 20
1671.247245845892
 11
2841.017596262599
 21
1663.003995845891
  0
LINE
  5
EF
100
AcDbEntity
  8
0
  6
ByLayer
 62
  256
370
   -1
100
AcDbLine
 10
2841.017596262599
 20
1663.003995845891
 11
2846.7025962626
 21
1658.17174584589
  0
LINE
  5
F0
100
AcDbEntity
  8
0
  6
ByLayer
 62
  256
370
   -1
100
AcDbLine
 10
2846.7025962626
 20
1658.17174584589
 11
2855.514346262602
 21
1657.31899584589
  0
LINE
  5
F1
100
AcDbEntity
  8
0
  6
ByLayer
 62
  256
370
   -1
100
AcDbLine
 10
2855.514346262602
 20
1657.31899584589
 11
2862.620596262603
 21
1658.45599584589
  0
LINE
  5
F2
100
AcDbEntity
  8
0
  6
ByLayer
 62
  256
370
   -1
100
AcDbLine
 10
2862.620596262603
 20
1658.45599584589
 11
2869.442596262604
 21
1661.86699584589
  0
LINE
  5
F3
100
AcDbEntity
  8
0
  6
ByLayer
 62
  256
370
   -1
100
AcDbLine
 10
2869.442596262604
 20
1661.86699584589
 11
2875.411846262606
 21
1669.825995845892
  0
LINE
  5
F4
100
AcDbEntity
  8
0
  6
ByLayer
 62
  256
370
   -1
100
AcDbLine
 10
2875.411846262606
 20
1669.825995845892
 11
2877.117346262606
 21
1674.658245845893
  0
LINE
  5
F5
100
AcDbEntity
  8
0
  6
ByLayer
 62
  256
370
   -1
100
AcDbLine
 10
2877.117346262606
 20
1674.658245845893
 11
2878.254346262607
 21
1685.743995845895
  0
LINE
  5
F6
100
AcDbEntity
  8
0
  6
ByLayer
 62
  256
370
   -1
100
AcDbLine
 10
2878.254346262607
 20
1685.743995845895
 11
2877.970096262606
 21
1692.281745845896
  0
LINE
  5
F7
100
AcDbEntity
  8
0
  6
ByLayer
 62
  256
370
   -1
100
AcDbLine
 10
2877.970096262606
 20
1692.281745845896
 11
2873.990596262606
 21
1699.387995845898
  0
LINE
  5
F8
100
AcDbEntity
  8
0
  6
ByLayer
 62
  256
370
   -1
100
AcDbLine
 10
2873.990596262606
 20
1699.387995845898
 11
2868.021346262605
 21
1706.209995845899
  0
LINE
  5
F9
100
AcDbEntity
  8
0
  6
ByLayer
 62
  256
370
   -1
100
AcDbLine
 10
2868.021346262605
 20
1706.209995845899
 11
2861.483596262603
 21
1708.483995845899
  0
LINE
  5
FA
100
AcDbEntity
  8
0
  6
ByLayer
 62
  256
370
   -1
100
AcDbLine
 10
2861.483596262603
 20
1708.483995845899
 11
2854.661596262602
 21
1708.7682458459
  0
LINE
  5
FB
100
AcDbEntity
  8
0
  6
ByLayer
 62
  256
370
   -1
100
AcDbLine
 10
2854.661596262602
 20
1708.7682458459
 11
2846.9868462626
 21
1708.199745845899
  0
LINE
  5
FC
100
AcDbEntity
  8
0
  6
ByLayer
 62
  256
370
   -1
100
AcDbLine
 10
2846.9868462626
 20
1708.199745845899
 11
2840.164846262599
 21
1701.377745845898
  0
LINE
  5
FD
100
AcDbEntity
  8
0
  6
ByLayer
 62
  256
370
   -1
100
AcDbLine
 10
2842.438846262599
 20
1694.271495845897
 11
2839.596346262599
 21
1685.459745845895
  0
LINE
  5
FE
100
AcDbEntity
  8
0
  6
ByLayer
 62
  256
370
   -1
100
AcDbLine
 10
2839.596346262599
 20
1685.459745845895
 11
2840.164846262599
 21
1680.343245845894
  0
LINE
  5
FF
100
AcDbEntity
  8
0
  6
ByLayer
 62
  256
370
   -1
100
AcDbLine
 10
2840.164846262599
 20
1680.343245845894
 11
2841.301846262599
 21
1674.942495845893
  0
LINE
  5
100
100
AcDbEntity
  8
0
  6
ByLayer
 62
  256
370
   -1
100
AcDbLine
 10
2841.301846262599
 20
1674.942495845893
 11
2845.8498462626
 21
1667.836245845892
  0
LINE
  5
101
100
AcDbEntity
  8
0
  6
ByLayer
 62
  256
370
   -1
100
AcDbLine
 10
2845.8498462626
 20
1667.836245845892
 11
2855.230096262602
 21
1665.562245845891
  0
LINE
  5
102
100
AcDbEntity
  8
0
  6
ByLayer
 62
  256
370
   -1
100
AcDbLine
 10
2855.230096262602
 20
1665.562245845891
 11
2860.915096262603
 21
1665.562245845891
  0
LINE
  5
103
100
AcDbEntity
  8
0
  6
ByLayer
 62
  256
370
   -1
100
AcDbLine
 10
2860.915096262603
 20
1665.562245845891
 11
2868.021346262605
 21
1670.962995845892
  0
LINE
  5
104
100
AcDbEntity
  8
0
  6
ByLayer
 62
  256
370
   -1
100
AcDbLine
 10
2868.021346262605
 20
1670.962995845892
 11
2870.579596262605
 21
1675.795245845893
  0
LINE
  5
105
100
AcDbEntity
  8
0
  6
ByLayer
 62
  256
370
   -1
100
AcDbLine
 10
2870.579596262605
 20
1675.795245845893
 11
2870.863846262605
 21
1682.332995845895
  0
LINE
  5
106
100
AcDbEntity
  8
0
  6
ByLayer
 62
  256
370
   -1
100
AcDbLine
 10
2870.863846262605
 20
1682.332995845895
 11
2870.863846262605
 21
1688.586495845896
  0
LINE
  5
107
100
AcDbEntity
  8
0
  6
ByLayer
 62
  256
370
   -1
100
AcDbLine
 10
2870.863846262605
 20
1688.586495845896
 11
2869.726846262605
 21
1695.124245845897
  0
LINE
  5
108
100
AcDbEntity
  8
0
  6
ByLayer
 62
  256
370
   -1
100
AcDbLine
 10
2869.726846262605
 20
1695.124245845897
 11
2861.483596262603
 21
1700.240745845898
  0
LINE
  5
109
100
AcDbEntity
  8
0
  6
ByLayer
 62
  256
370
   -1
100
AcDbLine
 10
2861.483596262603
 20
1700.240745845898
 11
2852.103346262601
 21
1701.093495845898
  0
LINE
  5
10A
100
AcDbEntity
  8
0
  6
ByLayer
 62
  256
370
   -1
100
AcDbLine
 10
2852.103346262601
 20
1701.093495845898
 11
2846.7025962626
 21
1699.103745845898
  0
LINE
  5
10B
100
AcDbEntity
  8
0
  6
ByLayer
 62
  256
370
   -1
100
AcDbLine
 10
2846.7025962626
 20
1699.103745845898
 11
2842.438846262599
 21
1694.271495845897
  0
LINE
  5
10C
100
AcDbEntity
  8
0
  6
ByLayer
 62
  256
370
   -1
100
AcDbLine
 10
2897.29909626261
 20
1698.819495845898
 11
2892.751096262609
 21
1691.713245845896
  0
LINE
  5
10D
100
AcDbEntity
  8
0
  6
ByLayer
 62
  256
370
   -1
100
AcDbLine
 10
2892.751096262609
 20
1691.713245845896
 11
2891.898346262609
 21
1680.911745845894
  0
LINE
  5
10E
100
AcDbEntity
  8
0
  6
ByLayer
 62
  256
370
   -1
100
AcDbLine
 10
2891.898346262609
 20
1680.911745845894
 11
2891.898346262609
 21
1672.668495845892
  0
LINE
  5
10F
100
AcDbEntity
  8
0
  6
ByLayer
 62
  256
370
   -1
100
AcDbLine
 10
2891.898346262609
 20
1672.668495845892
 11
2898.15184626261
 21
1662.719745845891
  0
LINE
  5
110
100
AcDbEntity
  8
0
  6
ByLayer
 62
  256
370
   -1
100
AcDbLine
 10
2898.15184626261
 20
1662.719745845891
 11
2903.268346262611
 21
1657.887495845889
  0
LINE
  5
111
100
AcDbEntity
  8
0
  6
ByLayer
 62
  256
370
   -1
100
AcDbLine
 10
2903.268346262611
 20
1657.887495845889
 11
2909.521846262612
 21
1657.60324584589
  0
LINE
  5
112
100
AcDbEntity
  8
0
  6
ByLayer
 62
  256
370
   -1
100
AcDbLine
 10
2909.521846262612
 20
1657.60324584589
 11
2915.491096262614
 21
1657.31899584589
  0
LINE
  5
113
100
AcDbEntity
  8
0
  6
ByLayer
 62
  256
370
   -1
100
AcDbLine
 10
2915.491096262614
 20
1657.31899584589
 11
2924.018596262615
 21
1658.17174584589
  0
LINE
  5
114
100
AcDbEntity
  8
0
  6
ByLayer
 62
  256
370
   -1
100
AcDbLine
 10
2924.018596262615
 20
1658.17174584589
 11
2929.703596262616
 21
1662.15124584589
  0
LINE
  5
115
100
AcDbEntity
  8
0
  6
ByLayer
 62
  256
370
   -1
100
AcDbLine
 10
2929.703596262616
 20
1662.15124584589
 11
2936.809846262618
 21
1672.668495845892
  0
LINE
  5
116
100
AcDbEntity
  8
0
  6
ByLayer
 62
  256
370
   -1
100
AcDbLine
 10
2936.809846262618
 20
1672.668495845892
 11
2939.368096262618
 21
1680.343245845894
  0
LINE
  5
117
100
AcDbEntity
  8
0
  6
ByLayer
 62
  256
370
   -1
100
AcDbLine
 10
2939.368096262618
 20
1680.343245845894
 11
2938.231096262618
 21
1690.860495845896
  0
LINE
  5
118
100
AcDbEntity
  8
0
  6
ByLayer
 62
  256
370
   -1
100
AcDbLine
 10
2938.231096262618
 20
1690.860495845896
 11
2937.094096262618
 21
1697.113995845897
  0
LINE
  5
119
100
AcDbEntity
  8
0
  6
ByLayer
 62
  256
370
   -1
100
AcDbLine
 10
2937.094096262618
 20
1697.113995845897
 11
2932.261846262617
 21
1702.514745845898
  0
LINE
  5
11A
100
AcDbEntity
  8
0
  6
ByLayer
 62
  256
370
   -1
100
AcDbLine
 10
2932.261846262617
 20
1702.514745845898
 11
2925.724096262616
 21
1705.925745845899
  0
LINE
  5
11B
100
AcDbEntity
  8
0
  6
ByLayer
 62
  256
370
   -1
100
AcDbLine
 10
2925.724096262616
 20
1705.925745845899
 11
2916.912346262614
 21
1707.9154958459
  0
LINE
  5
11C
100
AcDbEntity
  8
0
  6
ByLayer
 62
  256
370
   -1
100
AcDbLine
 10
2916.912346262614
 20
1707.9154958459
 11
2909.237596262612
 21
1707.9154958459
  0
LINE
  5
11D
100
AcDbEntity
  8
0
  6
ByLayer
 62
  256
370
   -1
100
AcDbLine
 10
2909.237596262612
 20
1707.9154958459
 11
2902.415596262611
 21
1703.935995845899
  0
LINE
  5
11E
100
AcDbEntity
  8
0
  6
ByLayer
 62
  256
370
   -1
100
AcDbLine
 10
2902.415596262611
 20
1703.935995845899
 11
2897.29909626261
 21
1698.819495845898
  0
LINE
  5
11F
100
AcDbEntity
  8
0
  6
ByLayer
 62
  256
370
   -1
100
AcDbLine
 10
2902.131346262611
 20
1694.555745845897
 11
2900.425846262611
 21
1686.880995845895
  0
LINE
  5
120
100
AcDbEntity
  8
0
  6
ByLayer
 62
  256
370
   -1
100
AcDbLine
 10
2900.425846262611
 20
1686.880995845895
 11
2899.573096262611
 21
1680.343245845894
  0
LINE
  5
121
100
AcDbEntity
  8
0
  6
ByLayer
 62
  256
370
   -1
100
AcDbLine
 10
2899.573096262611
 20
1680.343245845894
 11
2899.28884626261
 21
1673.805495845893
  0
LINE
  5
122
100
AcDbEntity
  8
0
  6
ByLayer
 62
  256
370
   -1
100
AcDbLine
 10
2899.28884626261
 20
1673.805495845893
 11
2900.994346262611
 21
1668.688995845892
  0
LINE
  5
123
100
AcDbEntity
  8
0
  6
ByLayer
 62
  256
370
   -1
100
AcDbLine
 10
2900.994346262611
 20
1668.688995845892
 11
2907.816346262612
 21
1665.846495845891
  0
LINE
  5
124
100
AcDbEntity
  8
0
  6
ByLayer
 62
  256
370
   -1
100
AcDbLine
 10
2907.816346262612
 20
1665.846495845891
 11
2913.217096262613
 21
1664.709495845891
  0
LINE
  5
125
100
AcDbEntity
  8
0
  6
ByLayer
 62
  256
370
   -1
100
AcDbLine
 10
2913.217096262613
 20
1664.709495845891
 11
2918.333596262615
 21
1664.425245845891
  0
LINE
  5
126
100
AcDbEntity
  8
0
  6
ByLayer
 62
  256
370
   -1
100
AcDbLine
 10
2918.333596262615
 20
1664.425245845891
 11
2925.155596262616
 21
1669.825995845892
  0
LINE
  5
127
100
AcDbEntity
  8
0
  6
ByLayer
 62
  256
370
   -1
100
AcDbLine
 10
2925.155596262616
 20
1669.825995845892
 11
2929.419346262617
 21
1678.353495845894
  0
LINE
  5
128
100
AcDbEntity
  8
0
  6
ByLayer
 62
  256
370
   -1
100
AcDbLine
 10
2929.419346262617
 20
1678.353495845894
 11
2931.693346262617
 21
1687.165245845895
  0
LINE
  5
129
100
AcDbEntity
  8
0
  6
ByLayer
 62
  256
370
   -1
100
AcDbLine
 10
2931.693346262617
 20
1687.165245845895
 11
2925.439846262615
 21
1695.692745845897
  0
LINE
  5
12A
100
AcDbEntity
  8
0
  6
ByLayer
 62
  256
370
   -1
100
AcDbLine
 10
2925.439846262615
 20
1695.692745845897
 11
2919.754846262614
 21
1700.524995845898
  0
LINE
  5
12B
100
AcDbEntity
  8
0
  6
ByLayer
 62
  256
370
   -1
100
AcDbLine
 10
2919.754846262614
 20
1700.524995845898
 11
2912.080096262613
 21
1699.956495845898
  0
LINE
  5
12C
100
AcDbEntity
  8
0
  6
ByLayer
 62
  256
370
   -1
100
AcDbLine
 10
2912.080096262613
 20
1699.956495845898
 11
2902.131346262611
 21
1694.555745845897
  0
LINE
  5
12D
100
AcDbEntity
  8
0
  6
ByLayer
 62
  256
370
   -1
100
AcDbLine
 10
2951.875096262657
 20
1722.696495845935
 11
2951.022346262657
 21
1660.161495845922
  0
LINE
  5
12E
100
AcDbEntity
  8
0
  6
ByLayer
 62
  256
370
   -1
100
AcDbLine
 10
2951.022346262657
 20
1660.161495845922
 11
2957.844346262659
 21
1658.171745845921
  0
LINE
  5
12F
100
AcDbEntity
  8
0
  6
ByLayer
 62
  256
370
   -1
100
AcDbLine
 10
2957.844346262659
 20
1658.171745845921
 11
2958.128596262658
 21
1676.647995845925
  0
LINE
  5
130
100
AcDbEntity
  8
0
  6
ByLayer
 62
  256
370
   -1
100
AcDbLine
 10
2958.128596262658
 20
1676.647995845925
 11
2959.834096262658
 21
1699.38799584593
  0
LINE
  5
131
100
AcDbEntity
  8
0
  6
ByLayer
 62
  256
370
   -1
100
AcDbLine
 10
2959.834096262658
 20
1699.38799584593
 11
2960.118346262659
 21
1716.158745845933
  0
LINE
  5
132
100
AcDbEntity
  8
0
  6
ByLayer
 62
  256
370
   -1
100
AcDbLine
 10
2960.118346262659
 20
1716.158745845933
 11
2960.118346262659
 21
1721.843745845935
  0
LINE
  5
133
100
AcDbEntity
  8
0
  6
ByLayer
 62
  256
370
   -1
100
AcDbLine
 10
2960.118346262659
 20
1721.843745845935
 11
2951.875096262657
 21
1722.696495845935
  0
LINE
  5
134
100
AcDbEntity
  8
0
  6
ByLayer
 62
  256
370
   -1
100
AcDbLine
 10
2980.015846262663
 20
1704.220245845931
 11
2978.310346262663
 21
1697.96674584593
  0
LINE
  5
135
100
AcDbEntity
  8
0
  6
ByLayer
 62
  256
370
   -1
100
AcDbLine
 10
2978.310346262663
 20
1697.96674584593
 11
2976.889096262662
 21
1690.007745845928
  0
LINE
  5
136
100
AcDbEntity
  8
0
  6
ByLayer
 62
  256
370
   -1
100
AcDbLine
 10
2976.889096262662
 20
1690.007745845928
 11
2979.447346262662
 21
1684.606995845927
  0
LINE
  5
137
100
AcDbEntity
  8
0
  6
ByLayer
 62
  256
370
   -1
100
AcDbLine
 10
2979.447346262662
 20
1684.606995845927
 11
2990.533096262665
 21
1681.480245845926
  0
LINE
  5
138
100
AcDbEntity
  8
0
  6
ByLayer
 62
  256
370
   -1
100
AcDbLine
 10
2990.533096262665
 20
1681.480245845926
 11
2995.649596262666
 21
1680.627495845926
  0
LINE
  5
139
100
AcDbEntity
  8
0
  6
ByLayer
 62
  256
370
   -1
100
AcDbLine
 10
2995.649596262666
 20
1680.627495845926
 11
2999.913346262667
 21
1677.500745845926
  0
LINE
  5
13A
100
AcDbEntity
  8
0
  6
ByLayer
 62
  256
370
   -1
100
AcDbLine
 10
2999.913346262667
 20
1677.500745845926
 11
3004.461346262668
 21
1674.373995845925
  0
LINE
  5
13B
100
AcDbEntity
  8
0
  6
ByLayer
 62
  256
370
   -1
100
AcDbLine
 10
3004.461346262668
 20
1674.373995845925
 11
3005.314096262668
 21
1665.277995845923
  0
LINE
  5
13C
100
AcDbEntity
  8
0
  6
ByLayer
 62
  256
370
   -1
100
AcDbLine
 10
3005.314096262668
 20
1665.277995845923
 11
2996.218096262666
 21
1663.572495845923
  0
LINE
  5
13D
100
AcDbEntity
  8
0
  6
ByLayer
 62
  256
370
   -1
100
AcDbLine
 10
2996.218096262666
 20
1663.572495845923
 11
2990.248846262665
 21
1663.856745845923
  0
LINE
  5
13E
100
AcDbEntity
  8
0
  6
ByLayer
 62
  256
370
   -1
100
AcDbLine
 10
2990.248846262665
 20
1663.856745845923
 11
2985.416596262664
 21
1666.130745845923
  0
LINE
  5
13F
100
AcDbEntity
  8
0
  6
ByLayer
 62
  256
370
   -1
100
AcDbLine
 10
2985.416596262664
 20
1666.130745845923
 11
2980.300096262663
 21
1673.521245845925
  0
LINE
  5
140
100
AcDbEntity
  8
0
  6
ByLayer
 62
  256
370
   -1
100
AcDbLine
 10
2980.300096262663
 20
1673.521245845925
 11
2974.330846262661
 21
1674.089745845925
  0
LINE
  5
141
100
AcDbEntity
  8
0
  6
ByLayer
 62
  256
370
   -1
100
AcDbLine
 10
2974.330846262661
 20
1674.089745845925
 11
2975.183596262661
 21
1668.688995845924
  0
LINE
  5
142
100
AcDbEntity
  8
0
  6
ByLayer
 62
  256
370
   -1
100
AcDbLine
 10
2975.183596262661
 20
1668.688995845924
 11
2977.173346262662
 21
1662.719745845922
  0
LINE
  5
143
100
AcDbEntity
  8
0
  6
ByLayer
 62
  256
370
   -1
100
AcDbLine
 10
2977.173346262662
 20
1662.719745845922
 11
2985.985096262664
 21
1657.034745845921
  0
LINE
  5
144
100
AcDbEntity
  8
0
  6
ByLayer
 62
  256
370
   -1
100
AcDbLine
 10
2985.985096262664
 20
1657.034745845921
 11
2992.807096262666
 21
1655.897745845921
  0
LINE
  5
145
100
AcDbEntity
  8
0
  6
ByLayer
 62
  256
370
   -1
100
AcDbLine
 10
2992.807096262666
 20
1655.897745845921
 11
2999.913346262667
 21
1656.181995845921
  0
LINE
  5
146
100
AcDbEntity
  8
0
  6
ByLayer
 62
  256
370
   -1
100
AcDbLine
 10
2999.913346262667
 20
1656.181995845921
 11
3006.735346262668
 21
1658.171745845921
  0
LINE
  5
147
100
AcDbEntity
  8
0
  6
ByLayer
 62
  256
370
   -1
100
AcDbLine
 10
3006.735346262668
 20
1658.171745845921
 11
3013.27309626267
 21
1663.003995845923
  0
LINE
  5
148
100
AcDbEntity
  8
0
  6
ByLayer
 62
  256
370
   -1
100
AcDbLine
 10
3013.27309626267
 20
1663.003995845923
 11
3016.11559626267
 21
1672.668495845924
  0
LINE
  5
149
100
AcDbEntity
  8
0
  6
ByLayer
 62
  256
370
   -1
100
AcDbLine
 10
3016.11559626267
 20
1672.668495845924
 11
3013.84159626267
 21
1679.490495845926
  0
LINE
  5
14A
100
AcDbEntity
  8
0
  6
ByLayer
 62
  256
370
   -1
100
AcDbLine
 10
3013.84159626267
 20
1679.490495845926
 11
3005.882596262668
 21
1684.322745845927
  0
LINE
  5
14B
100
AcDbEntity
  8
0
  6
ByLayer
 62
  256
370
   -1
100
AcDbLine
 10
3005.882596262668
 20
1684.322745845927
 11
2998.492096262667
 21
1684.891245845927
  0
LINE
  5
14C
100
AcDbEntity
  8
0
  6
ByLayer
 62
  256
370
   -1
100
AcDbLine
 10
2998.492096262667
 20
1684.891245845927
 11
2993.375596262666
 21
1686.312495845927
  0
LINE
  5
14D
100
AcDbEntity
  8
0
  6
ByLayer
 62
  256
370
   -1
100
AcDbLine
 10
2993.375596262666
 20
1686.312495845927
 11
2987.690596262665
 21
1691.144745845928
  0
LINE
  5
14E
100
AcDbEntity
  8
0
  6
ByLayer
 62
  256
370
   -1
100
AcDbLine
 10
2987.690596262665
 20
1691.144745845928
 11
2986.269346262664
 21
1697.682495845929
  0
LINE
  5
14F
100
AcDbEntity
  8
0
  6
ByLayer
 62
  256
370
   -1
100
AcDbLine
 10
2986.269346262664
 20
1697.682495845929
 11
2990.817346262665
 21
1700.52499584593
  0
LINE
  5
150
100
AcDbEntity
  8
0
  6
ByLayer
 62
  256
370
   -1
100
AcDbLine
 10
2990.817346262665
 20
1700.52499584593
 11
2999.060596262666
 21
1701.09349584593
  0
LINE
  5
151
100
AcDbEntity
  8
0
  6
ByLayer
 62
  256
370
   -1
100
AcDbLine
 10
2999.060596262666
 20
1701.09349584593
 11
3006.166846262668
 21
1695.408495845929
  0
LINE
  5
152
100
AcDbEntity
  8
0
  6
ByLayer
 62
  256
370
   -1
100
AcDbLine
 10
3006.166846262668
 20
1695.408495845929
 11
3009.293596262669
 21
1691.428995845928
  0
LINE
  5
153
100
AcDbEntity
  8
0
  6
ByLayer
 62
  256
370
   -1
100
AcDbLine
 10
3009.293596262669
 20
1691.428995845928
 11
3014.97859626267
 21
1695.692745845929
  0
LINE
  5
154
100
AcDbEntity
  8
0
  6
ByLayer
 62
  256
370
   -1
100
AcDbLine
 10
3014.97859626267
 20
1695.692745845929
 11
3010.999096262669
 21
1701.66199584593
  0
LINE
  5
155
100
AcDbEntity
  8
0
  6
ByLayer
 62
  256
370
   -1
100
AcDbLine
 10
3010.999096262669
 20
1701.66199584593
 11
3002.755846262668
 21
1706.209995845931
  0
LINE
  5
156
100
AcDbEntity
  8
0
  6
ByLayer
 62
  256
370
   -1
100
AcDbLine
 10
3002.755846262668
 20
1706.209995845931
 11
2994.512596262666
 21
1706.778495845931
  0
LINE
  5
157
100
AcDbEntity
  8
0
  6
ByLayer
 62
  256
370
   -1
100
AcDbLine
 10
2994.512596262666
 20
1706.778495845931
 11
2989.396096262665
 21
1706.209995845931
  0
LINE
  5
158
100
AcDbEntity
  8
0
  6
ByLayer
 62
  256
370
   -1
100
AcDbLine
 10
2989.396096262665
 20
1706.209995845931
 11
2980.015846262663
 21
1704.220245845931
  0
LINE
  5
159
100
AcDbEntity
  8
0
  6
ByLayer
 62
  256
370
   -1
100
AcDbLine
 10
3067.849096262681
 20
1715.590245845933
 11
3061.59559626268
 21
1708.199745845932
  0
LINE
  5
15A
100
AcDbEntity
  8
0
  6
ByLayer
 62
  256
370
   -1
100
AcDbLine
 10
3061.59559626268
 20
1708.199745845932
 11
3057.616096262679
 21
1699.10374584593
  0
LINE
  5
15B
100
AcDbEntity
  8
0
  6
ByLayer
 62
  256
370
   -1
100
AcDbLine
 10
3057.616096262679
 20
1699.10374584593
 11
3056.194846262678
 21
1692.850245845929
  0
LINE
  5
15C
100
AcDbEntity
  8
0
  6
ByLayer
 62
  256
370
   -1
100
AcDbLine
 10
3056.194846262678
 20
1692.850245845929
 11
3056.479096262679
 21
1684.038495845927
  0
LINE
  5
15D
100
AcDbEntity
  8
0
  6
ByLayer
 62
  256
370
   -1
100
AcDbLine
 10
3056.479096262679
 20
1684.038495845927
 11
3057.900346262679
 21
1675.795245845925
  0
LINE
  5
15E
100
AcDbEntity
  8
0
  6
ByLayer
 62
  256
370
   -1
100
AcDbLine
 10
3057.900346262679
 20
1675.795245845925
 11
3060.458596262679
 21
1670.394495845924
  0
LINE
  5
15F
100
AcDbEntity
  8
0
  6
ByLayer
 62
  256
370
   -1
100
AcDbLine
 10
3060.458596262679
 20
1670.394495845924
 11
3065.859346262681
 21
1665.562245845923
  0
LINE
  5
160
100
AcDbEntity
  8
0
  6
ByLayer
 62
  256
370
   -1
100
AcDbLine
 10
3065.859346262681
 20
1665.562245845923
 11
3071.828596262682
 21
1659.592995845922
  0
LINE
  5
161
100
AcDbEntity
  8
0
  6
ByLayer
 62
  256
370
   -1
100
AcDbLine
 10
3071.828596262682
 20
1659.592995845922
 11
3076.945096262683
 21
1656.181995845921
  0
LINE
  5
162
100
AcDbEntity
  8
0
  6
ByLayer
 62
  256
370
   -1
100
AcDbLine
 10
3076.945096262683
 20
1656.181995845921
 11
3084.051346262685
 21
1655.613495845921
  0
LINE
  5
163
100
AcDbEntity
  8
0
  6
ByLayer
 62
  256
370
   -1
100
AcDbLine
 10
3084.051346262685
 20
1655.613495845921
 11
3091.157596262686
 21
1656.181995845921
  0
LINE
  5
164
100
AcDbEntity
  8
0
  6
ByLayer
 62
  256
370
   -1
100
AcDbLine
 10
3091.157596262686
 20
1656.181995845921
 11
3096.558346262687
 21
1657.318995845921
  0
LINE
  5
165
100
AcDbEntity
  8
0
  6
ByLayer
 62
  256
370
   -1
100
AcDbLine
 10
3096.558346262687
 20
1657.318995845921
 11
3103.096096262688
 21
1659.024495845922
  0
LINE
  5
166
100
AcDbEntity
  8
0
  6
ByLayer
 62
  256
370
   -1
100
AcDbLine
 10
3103.096096262688
 20
1659.024495845922
 11
3107.644096262689
 21
1661.298495845922
  0
LINE
  5
167
100
AcDbEntity
  8
0
  6
ByLayer
 62
  256
370
   -1
100
AcDbLine
 10
3107.644096262689
 20
1661.298495845922
 11
3111.90784626269
 21
1665.562245845923
  0
LINE
  5
168
100
AcDbEntity
  8
0
  6
ByLayer
 62
  256
370
   -1
100
AcDbLine
 10
3111.90784626269
 20
1665.562245845923
 11
3113.613346262691
 21
1670.962995845924
  0
LINE
  5
169
100
AcDbEntity
  8
0
  6
ByLayer
 62
  256
370
   -1
100
AcDbLine
 10
3113.613346262691
 20
1670.962995845924
 11
3116.171596262691
 21
1677.784995845925
  0
LINE
  5
16A
100
AcDbEntity
  8
0
  6
ByLayer
 62
  256
370
   -1
100
AcDbLine
 10
3116.171596262691
 20
1677.784995845925
 11
3110.20234626269
 21
1680.343245845926
  0
LINE
  5
16B
100
AcDbEntity
  8
0
  6
ByLayer
 62
  256
370
   -1
100
AcDbLine
 10
3110.20234626269
 20
1680.343245845926
 11
3105.654346262689
 21
1671.531495845924
  0
LINE
  5
16C
100
AcDbEntity
  8
0
  6
ByLayer
 62
  256
370
   -1
100
AcDbLine
 10
3105.654346262689
 20
1671.531495845924
 11
3095.137096262687
 21
1663.856745845923
  0
LINE
  5
16D
100
AcDbEntity
  8
0
  6
ByLayer
 62
  256
370
   -1
100
AcDbLine
 10
3095.137096262687
 20
1663.856745845923
 11
3086.325346262685
 21
1663.003995845923
  0
LINE
  5
16E
100
AcDbEntity
  8
0
  6
ByLayer
 62
  256
370
   -1
100
AcDbLine
 10
3086.325346262685
 20
1663.003995845923
 11
3078.934846262684
 21
1665.562245845923
  0
LINE
  5
16F
100
AcDbEntity
  8
0
  6
ByLayer
 62
  256
370
   -1
100
AcDbLine
 10
3078.934846262684
 20
1665.562245845923
 11
3074.102596262682
 21
1667.267745845923
  0
LINE
  5
170
100
AcDbEntity
  8
0
  6
ByLayer
 62
  256
370
   -1
100
AcDbLine
 10
3074.102596262682
 20
1667.267745845923
 11
3070.123096262682
 21
1670.394495845924
  0
LINE
  5
171
100
AcDbEntity
  8
0
  6
ByLayer
 62
  256
370
   -1
100
AcDbLine
 10
3070.123096262682
 20
1670.394495845924
 11
3066.712096262681
 21
1674.942495845925
  0
LINE
  5
172
100
AcDbEntity
  8
0
  6
ByLayer
 62
  256
370
   -1
100
AcDbLine
 10
3066.712096262681
 20
1674.942495845925
 11
3062.73259626268
 21
1682.048745845926
  0
LINE
  5
173
100
AcDbEntity
  8
0
  6
ByLayer
 62
  256
370
   -1
100
AcDbLine
 10
3062.73259626268
 20
1682.048745845926
 11
3065.00659626268
 21
1695.408495845929
  0
LINE
  5
174
100
AcDbEntity
  8
0
  6
ByLayer
 62
  256
370
   -1
100
AcDbLine
 10
3065.00659626268
 20
1695.408495845929
 11
3066.996346262681
 21
1701.09349584593
  0
LINE
  5
175
100
AcDbEntity
  8
0
  6
ByLayer
 62
  256
370
   -1
100
AcDbLine
 10
3066.996346262681
 20
1701.09349584593
 11
3071.828596262682
 21
1706.778495845931
  0
LINE
  5
176
100
AcDbEntity
  8
0
  6
ByLayer
 62
  256
370
   -1
100
AcDbLine
 10
3071.828596262682
 20
1706.778495845931
 11
3075.808096262682
 21
1711.610745845933
  0
LINE
  5
177
100
AcDbEntity
  8
0
  6
ByLayer
 62
  256
370
   -1
100
AcDbLine
 10
3075.808096262682
 20
1711.610745845933
 11
3082.345846262684
 21
1715.021745845933
  0
LINE
  5
178
100
AcDbEntity
  8
0
  6
ByLayer
 62
  256
370
   -1
100
AcDbLine
 10
3082.345846262684
 20
1715.021745845933
 11
3088.315096262686
 21
1717.295745845934
  0
LINE
  5
179
100
AcDbEntity
  8
0
  6
ByLayer
 62
  256
370
   -1
100
AcDbLine
 10
3088.315096262686
 20
1717.295745845934
 11
3096.558346262687
 21
1716.727245845934
  0
LINE
  5
17A
100
AcDbEntity
  8
0
  6
ByLayer
 62
  256
370
   -1
100
AcDbLine
 10
3096.558346262687
 20
1716.727245845934
 11
3103.096096262688
 21
1713.884745845933
  0
LINE
  5
17B
100
AcDbEntity
  8
0
  6
ByLayer
 62
  256
370
   -1
100
AcDbLine
 10
3103.096096262688
 20
1713.884745845933
 11
3107.075596262689
 21
1704.788745845931
  0
LINE
  5
17C
100
AcDbEntity
  8
0
  6
ByLayer
 62
  256
370
   -1
100
AcDbLine
 10
3107.075596262689
 20
1704.788745845931
 11
3112.47634626269
 21
1703.935995845931
  0
LINE
  5
17D
100
AcDbEntity
  8
0
  6
ByLayer
 62
  256
370
   -1
100
AcDbLine
 10
3112.47634626269
 20
1703.935995845931
 11
3114.18184626269
 21
1711.042245845932
  0
LINE
  5
17E
100
AcDbEntity
  8
0
  6
ByLayer
 62
  256
370
   -1
100
AcDbLine
 10
3114.18184626269
 20
1711.042245845932
 11
3108.212596262689
 21
1718.432745845934
  0
LINE
  5
17F
100
AcDbEntity
  8
0
  6
ByLayer
 62
  256
370
   -1
100
AcDbLine
 10
3108.212596262689
 20
1718.432745845934
 11
3101.390596262688
 21
1721.559495845934
  0
LINE
  5
180
100
AcDbEntity
  8
0
  6
ByLayer
 62
  256
370
   -1
100
AcDbLine
 10
3101.390596262688
 20
1721.559495845934
 11
3095.421346262686
 21
1722.127995845935
  0
LINE
  5
181
100
AcDbEntity
  8
0
  6
ByLayer
 62
  256
370
   -1
100
AcDbLine
 10
3095.421346262686
 20
1722.127995845935
 11
3090.304846262685
 21
1722.127995845935
  0
LINE
  5
182
100
AcDbEntity
  8
0
  6
ByLayer
 62
  256
370
   -1
100
AcDbLine
 10
3090.304846262685
 20
1722.127995845935
 11
3082.345846262684
 21
1722.127995845935
  0
LINE
  5
183
100
AcDbEntity
  8
0
  6
ByLayer
 62
  256
370
   -1
100
AcDbLine
 10
3082.345846262684
 20
1722.127995845935
 11
3076.092346262683
 21
1720.422495845934
  0
LINE
  5
184
100
AcDbEntity
  8
0
  6
ByLayer
 62
  256
370
   -1
100
AcDbLine
 10
3076.092346262683
 20
1720.422495845934
 11
3067.849096262681
 21
1715.590245845933
  0
LINE
  5
185
100
AcDbEntity
  8
0
  6
ByLayer
 62
  256
370
   -1
100
AcDbLine
 10
3067.849096262681
 20
1715.590245845933
 11
3059.605846262679
 21
1703.651745845931
  0
LINE
  5
186
100
AcDbEntity
  8
0
  6
ByLayer
 62
  256
370
   -1
100
AcDbLine
 10
3135.216346262695
 20
1697.11399584593
 11
3131.521096262694
 21
1693.987245845929
  0
LINE
  5
187
100
AcDbEntity
  8
0
  6
ByLayer
 62
  256
370
   -1
100
AcDbLine
 10
3131.521096262694
 20
1693.987245845929
 11
3130.952596262694
 21
1688.586495845928
  0
LINE
  5
188
100
AcDbEntity
  8
0
  6
ByLayer
 62
  256
370
   -1
100
AcDbLine
 10
3130.952596262694
 20
1688.586495845928
 11
3128.678596262693
 21
1674.942495845925
  0
LINE
  5
189
100
AcDbEntity
  8
0
  6
ByLayer
 62
  256
370
   -1
100
AcDbLine
 10
3128.678596262693
 20
1674.942495845925
 11
3128.962846262694
 21
1667.836245845923
  0
LINE
  5
18A
100
AcDbEntity
  8
0
  6
ByLayer
 62
  256
370
   -1
100
AcDbLine
 10
3128.962846262694
 20
1667.836245845923
 11
3131.236846262694
 21
1662.435495845922
  0
LINE
  5
18B
100
AcDbEntity
  8
0
  6
ByLayer
 62
  256
370
   -1
100
AcDbLine
 10
3131.236846262694
 20
1662.435495845922
 11
3137.206096262695
 21
1658.171745845921
  0
LINE
  5
18C
100
AcDbEntity
  8
0
  6
ByLayer
 62
  256
370
   -1
100
AcDbLine
 10
3137.206096262695
 20
1658.171745845921
 11
3144.028096262697
 21
1655.613495845921
  0
LINE
  5
18D
100
AcDbEntity
  8
0
  6
ByLayer
 62
  256
370
   -1
100
AcDbLine
 10
3144.028096262697
 20
1655.613495845921
 11
3151.418596262698
 21
1655.044995845921
  0
LINE
  5
18E
100
AcDbEntity
  8
0
  6
ByLayer
 62
  256
370
   -1
100
AcDbLine
 10
3151.418596262698
 20
1655.044995845921
 11
3157.1035962627
 21
1656.181995845921
  0
LINE
  5
18F
100
AcDbEntity
  8
0
  6
ByLayer
 62
  256
370
   -1
100
AcDbLine
 10
3157.1035962627
 20
1656.181995845921
 11
3161.9358462627
 21
1658.171745845921
  0
LINE
  5
190
100
AcDbEntity
  8
0
  6
ByLayer
 62
  256
370
   -1
100
AcDbLine
 10
3161.9358462627
 20
1658.171745845921
 11
3166.768096262701
 21
1663.003995845923
  0
LINE
  5
191
100
AcDbEntity
  8
0
  6
ByLayer
 62
  256
370
   -1
100
AcDbLine
 10
3166.768096262701
 20
1663.003995845923
 11
3171.884596262702
 21
1671.531495845924
  0
LINE
  5
192
100
AcDbEntity
  8
0
  6
ByLayer
 62
  256
370
   -1
100
AcDbLine
 10
3171.884596262702
 20
1671.531495845924
 11
3173.305846262703
 21
1680.343245845926
  0
LINE
  5
193
100
AcDbEntity
  8
0
  6
ByLayer
 62
  256
370
   -1
100
AcDbLine
 10
3173.305846262703
 20
1680.343245845926
 11
3173.590096262702
 21
1688.586495845928
  0
LINE
  5
194
100
AcDbEntity
  8
0
  6
ByLayer
 62
  256
370
   -1
100
AcDbLine
 10
3173.590096262702
 20
1688.586495845928
 11
3171.600346262703
 21
1694.839995845929
  0
LINE
  5
195
100
AcDbEntity
  8
0
  6
ByLayer
 62
  256
370
   -1
100
AcDbLine
 10
3171.600346262703
 20
1694.839995845929
 11
3167.336596262702
 21
1699.67224584593
  0
LINE
  5
196
100
AcDbEntity
  8
0
  6
ByLayer
 62
  256
370
   -1
100
AcDbLine
 10
3167.336596262702
 20
1699.67224584593
 11
3161.9358462627
 21
1702.79899584593
  0
LINE
  5
197
100
AcDbEntity
  8
0
  6
ByLayer
 62
  256
370
   -1
100
AcDbLine
 10
3161.9358462627
 20
1702.79899584593
 11
3156.250846262699
 21
1703.651745845931
  0
LINE
  5
198
100
AcDbEntity
  8
0
  6
ByLayer
 62
  256
370
   -1
100
AcDbLine
 10
3156.250846262699
 20
1703.651745845931
 11
3147.723346262698
 21
1703.651745845931
  0
LINE
  5
199
100
AcDbEntity
  8
0
  6
ByLayer
 62
  256
370
   -1
100
AcDbLine
 10
3147.723346262698
 20
1703.651745845931
 11
3139.764346262696
 21
1702.230495845931
  0
LINE
  5
19A
100
AcDbEntity
  8
0
  6
ByLayer
 62
  256
370
   -1
100
AcDbLine
 10
3139.764346262696
 20
1702.230495845931
 11
3135.216346262695
 21
1697.11399584593
  0
LINE
  5
19B
100
AcDbEntity
  8
0
  6
ByLayer
 62
  256
370
   -1
100
AcDbLine
 10
3135.216346262695
 20
1697.11399584593
 11
3133.368721262694
 21
1695.550620845929
  0
LINE
  5
19C
100
AcDbEntity
  8
0
  6
ByLayer
 62
  256
370
   -1
100
AcDbLine
 10
3137.206096262695
 20
1689.723495845928
 11
3135.216346262695
 21
1681.480245845926
  0
LINE
  5
19D
100
AcDbEntity
  8
0
  6
ByLayer
 62
  256
370
   -1
100
AcDbLine
 10
3135.216346262695
 20
1681.480245845926
 11
3135.216346262695
 21
1675.510995845925
  0
LINE
  5
19E
100
AcDbEntity
  8
0
  6
ByLayer
 62
  256
370
   -1
100
AcDbLine
 10
3135.216346262695
 20
1675.510995845925
 11
3135.216346262695
 21
1670.394495845924
  0
LINE
  5
19F
100
AcDbEntity
  8
0
  6
ByLayer
 62
  256
370
   -1
100
AcDbLine
 10
3135.216346262695
 20
1670.394495845924
 11
3140.048596262696
 21
1663.572495845923
  0
LINE
  5
1A0
100
AcDbEntity
  8
0
  6
ByLayer
 62
  256
370
   -1
100
AcDbLine
 10
3140.048596262696
 20
1663.572495845923
 11
3144.596596262696
 21
1661.298495845922
  0
LINE
  5
1A1
100
AcDbEntity
  8
0
  6
ByLayer
 62
  256
370
   -1
100
AcDbLine
 10
3144.596596262696
 20
1661.298495845922
 11
3152.555596262698
 21
1661.298495845922
  0
LINE
  5
1A2
100
AcDbEntity
  8
0
  6
ByLayer
 62
  256
370
   -1
100
AcDbLine
 10
3152.555596262698
 20
1661.298495845922
 11
3158.8090962627
 21
1664.993745845923
  0
LINE
  5
1A3
100
AcDbEntity
  8
0
  6
ByLayer
 62
  256
370
   -1
100
AcDbLine
 10
3158.8090962627
 20
1664.993745845923
 11
3163.925596262701
 21
1674.942495845925
  0
LINE
  5
1A4
100
AcDbEntity
  8
0
  6
ByLayer
 62
  256
370
   -1
100
AcDbLine
 10
3163.925596262701
 20
1674.942495845925
 11
3167.336596262702
 21
1679.774745845926
  0
LINE
  5
1A5
100
AcDbEntity
  8
0
  6
ByLayer
 62
  256
370
   -1
100
AcDbLine
 10
3167.336596262702
 20
1679.774745845926
 11
3167.905096262702
 21
1685.459745845927
  0
LINE
  5
1A6
100
AcDbEntity
  8
0
  6
ByLayer
 62
  256
370
   -1
100
AcDbLine
 10
3167.905096262702
 20
1685.459745845927
 11
3165.346846262701
 21
1693.134495845929
  0
LINE
  5
1A7
100
AcDbEntity
  8
0
  6
ByLayer
 62
  256
370
   -1
100
AcDbLine
 10
3165.346846262701
 20
1693.134495845929
 11
3158.5248462627
 21
1698.25099584593
  0
LINE
  5
1A8
100
AcDbEntity
  8
0
  6
ByLayer
 62
  256
370
   -1
100
AcDbLine
 10
3158.5248462627
 20
1698.25099584593
 11
3148.007596262697
 21
1698.53524584593
  0
LINE
  5
1A9
100
AcDbEntity
  8
0
  6
ByLayer
 62
  256
370
   -1
100
AcDbLine
 10
3148.007596262697
 20
1698.53524584593
 11
3142.322596262696
 21
1697.682495845929
  0
LINE
  5
1AA
100
AcDbEntity
  8
0
  6
ByLayer
 62
  256
370
   -1
100
AcDbLine
 10
3142.322596262696
 20
1697.682495845929
 11
3137.206096262695
 21
1689.723495845928
  0
LINE
  5
1AB
100
AcDbEntity
  8
0
  6
ByLayer
 62
  256
370
   -1
100
AcDbLine
 10
3187.518346262706
 20
1701.66199584593
 11
3186.097096262706
 21
1655.897745845921
  0
LINE
  5
1AC
100
AcDbEntity
  8
0
  6
ByLayer
 62
  256
370
   -1
100
AcDbLine
 10
3186.097096262706
 20
1655.897745845921
 11
3193.203346262706
 21
1655.897745845921
  0
LINE
  5
1AD
100
AcDbEntity
  8
0
  6
ByLayer
 62
  256
370
   -1
100
AcDbLine
 10
3193.203346262706
 20
1655.897745845921
 11
3195.193096262707
 21
1683.754245845927
  0
LINE
  5
1AE
100
AcDbEntity
  8
0
  6
ByLayer
 62
  256
370
   -1
100
AcDbLine
 10
3195.193096262707
 20
1683.754245845927
 11
3196.045846262707
 21
1690.860495845928
  0
LINE
  5
1AF
100
AcDbEntity
  8
0
  6
ByLayer
 62
  256
370
   -1
100
AcDbLine
 10
3196.045846262707
 20
1690.860495845928
 11
3200.025346262708
 21
1694.271495845929
  0
LINE
  5
1B0
100
AcDbEntity
  8
0
  6
ByLayer
 62
  256
370
   -1
100
AcDbLine
 10
3200.025346262708
 20
1694.271495845929
 11
3205.141846262709
 21
1697.11399584593
  0
LINE
  5
1B1
100
AcDbEntity
  8
0
  6
ByLayer
 62
  256
370
   -1
100
AcDbLine
 10
3205.141846262709
 20
1697.11399584593
 11
3215.090596262712
 21
1694.271495845929
  0
LINE
  5
1B2
100
AcDbEntity
  8
0
  6
ByLayer
 62
  256
370
   -1
100
AcDbLine
 10
3214.522096262711
 20
1673.521245845925
 11
3213.385096262711
 21
1667.836245845923
  0
LINE
  5
1B3
100
AcDbEntity
  8
0
  6
ByLayer
 62
  256
370
   -1
100
AcDbLine
 10
3213.385096262711
 20
1667.836245845923
 11
3215.090596262712
 21
1658.171745845921
  0
LINE
  5
1B4
100
AcDbEntity
  8
0
  6
ByLayer
 62
  256
370
   -1
100
AcDbLine
 10
3215.090596262712
 20
1658.171745845921
 11
3221.344096262712
 21
1657.603245845921
  0
LINE
  5
1B5
100
AcDbEntity
  8
0
  6
ByLayer
 62
  256
370
   -1
100
AcDbLine
 10
3221.344096262712
 20
1657.603245845921
 11
3222.196846262712
 21
1664.993745845923
  0
LINE
  5
1B6
100
AcDbEntity
  8
0
  6
ByLayer
 62
  256
370
   -1
100
AcDbLine
 10
3222.196846262712
 20
1664.993745845923
 11
3222.196846262712
 21
1673.521245845925
  0
LINE
  5
1B7
100
AcDbEntity
  8
0
  6
ByLayer
 62
  256
370
   -1
100
AcDbLine
 10
3222.196846262712
 20
1673.521245845925
 11
3222.481096262713
 21
1682.617245845927
  0
LINE
  5
1B8
100
AcDbEntity
  8
0
  6
ByLayer
 62
  256
370
   -1
100
AcDbLine
 10
3222.481096262713
 20
1682.617245845927
 11
3223.333846262713
 21
1688.302245845927
  0
LINE
  5
1B9
100
AcDbEntity
  8
0
  6
ByLayer
 62
  256
370
   -1
100
AcDbLine
 10
3223.333846262713
 20
1688.302245845927
 11
3229.303096262714
 21
1695.408495845929
  0
LINE
  5
1BA
100
AcDbEntity
  8
0
  6
ByLayer
 62
  256
370
   -1
100
AcDbLine
 10
3229.303096262714
 20
1695.408495845929
 11
3236.125096262716
 21
1695.976995845929
  0
LINE
  5
1BB
100
AcDbEntity
  8
0
  6
ByLayer
 62
  256
370
   -1
100
AcDbLine
 10
3236.125096262716
 20
1695.976995845929
 11
3242.947096262717
 21
1689.154995845928
  0
LINE
  5
1BC
100
AcDbEntity
  8
0
  6
ByLayer
 62
  256
370
   -1
100
AcDbLine
 10
3242.947096262717
 20
1689.154995845928
 11
3245.221096262717
 21
1680.058995845926
  0
LINE
  5
1BD
100
AcDbEntity
  8
0
  6
ByLayer
 62
  256
370
   -1
100
AcDbLine
 10
3245.221096262717
 20
1680.058995845926
 11
3245.221096262717
 21
1673.236995845925
  0
LINE
  5
1BE
100
AcDbEntity
  8
0
  6
ByLayer
 62
  256
370
   -1
100
AcDbLine
 10
3245.221096262717
 20
1673.236995845925
 11
3244.936846262718
 21
1664.993745845923
  0
LINE
  5
1BF
100
AcDbEntity
  8
0
  6
ByLayer
 62
  256
370
   -1
100
AcDbLine
 10
3244.936846262718
 20
1664.993745845923
 11
3243.799846262717
 21
1657.603245845921
  0
LINE
  5
1C0
100
AcDbEntity
  8
0
  6
ByLayer
 62
  256
370
   -1
100
AcDbLine
 10
3243.799846262717
 20
1657.603245845921
 11
3249.484846262718
 21
1655.613495845921
  0
LINE
  5
1C1
100
AcDbEntity
  8
0
  6
ByLayer
 62
  256
370
   -1
100
AcDbLine
 10
3249.484846262718
 20
1655.613495845921
 11
3250.337596262718
 21
1666.699245845923
  0
LINE
  5
1C2
100
AcDbEntity
  8
0
  6
ByLayer
 62
  256
370
   -1
100
AcDbLine
 10
3250.337596262718
 20
1666.699245845923
 11
3250.337596262718
 21
1679.774745845926
  0
LINE
  5
1C3
100
AcDbEntity
  8
0
  6
ByLayer
 62
  256
370
   -1
100
AcDbLine
 10
3250.337596262718
 20
1679.774745845926
 11
3251.758846262719
 21
1688.870745845928
  0
LINE
  5
1C4
100
AcDbEntity
  8
0
  6
ByLayer
 62
  256
370
   -1
100
AcDbLine
 10
3251.758846262719
 20
1688.870745845928
 11
3249.769096262719
 21
1695.692745845929
  0
LINE
  5
1C5
100
AcDbEntity
  8
0
  6
ByLayer
 62
  256
370
   -1
100
AcDbLine
 10
3249.769096262719
 20
1695.692745845929
 11
3246.073846262717
 21
1700.24074584593
  0
LINE
  5
1C6
100
AcDbEntity
  8
0
  6
ByLayer
 62
  256
370
   -1
100
AcDbLine
 10
3246.073846262717
 20
1700.24074584593
 11
3234.988096262715
 21
1703.651745845931
  0
LINE
  5
1C7
100
AcDbEntity
  8
0
  6
ByLayer
 62
  256
370
   -1
100
AcDbLine
 10
3234.988096262715
 20
1703.651745845931
 11
3230.155846262714
 21
1702.230495845931
  0
LINE
  5
1C8
100
AcDbEntity
  8
0
  6
ByLayer
 62
  256
370
   -1
100
AcDbLine
 10
3230.155846262714
 20
1702.230495845931
 11
3224.186596262713
 21
1699.67224584593
  0
LINE
  5
1C9
100
AcDbEntity
  8
0
  6
ByLayer
 62
  256
370
   -1
100
AcDbLine
 10
3224.186596262713
 20
1699.67224584593
 11
3217.080346262711
 21
1701.377745845931
  0
LINE
  5
1CA
100
AcDbEntity
  8
0
  6
ByLayer
 62
  256
370
   -1
100
AcDbLine
 10
3217.080346262711
 20
1701.377745845931
 11
3211.395346262711
 21
1703.651745845931
  0
LINE
  5
1CB
100
AcDbEntity
  8
0
  6
ByLayer
 62
  256
370
   -1
100
AcDbLine
 10
3211.395346262711
 20
1703.651745845931
 11
3202.583596262708
 21
1703.367495845931
  0
LINE
  5
1CC
100
AcDbEntity
  8
0
  6
ByLayer
 62
  256
370
   -1
100
AcDbLine
 10
3202.583596262708
 20
1703.367495845931
 11
3196.045846262707
 21
1697.96674584593
  0
LINE
  5
1CD
100
AcDbEntity
  8
0
  6
ByLayer
 62
  256
370
   -1
100
AcDbLine
 10
3196.045846262707
 20
1697.96674584593
 11
3199.314721262708
 21
1700.66712084593
  0
LINE
  5
1CE
100
AcDbEntity
  8
0
  6
ByLayer
 62
  256
370
   -1
100
AcDbLine
 10
3199.314721262708
 20
1700.66712084593
 11
3187.518346262706
 21
1701.66199584593
  0
LINE
  5
1CF
100
AcDbEntity
  8
0
  6
ByLayer
 62
  256
370
   -1
100
AcDbLine
 10
3268.813846262723
 20
1702.514745845931
 11
3265.687096262722
 21
1640.263995845918
  0
LINE
  5
1D0
100
AcDbEntity
  8
0
  6
ByLayer
 62
  256
370
   -1
100
AcDbLine
 10
3273.930346262724
 20
1640.832495845918
 11
3274.498846262724
 21
1655.897745845921
  0
LINE
  5
1D1
100
AcDbEntity
  8
0
  6
ByLayer
 62
  256
370
   -1
100
AcDbLine
 10
3274.498846262724
 20
1655.897745845921
 11
3279.899596262725
 21
1655.613495845921
  0
LINE
  5
1D2
100
AcDbEntity
  8
0
  6
ByLayer
 62
  256
370
   -1
100
AcDbLine
 10
3279.899596262725
 20
1655.613495845921
 11
3285.584596262726
 21
1654.192245845921
  0
LINE
  5
1D3
100
AcDbEntity
  8
0
  6
ByLayer
 62
  256
370
   -1
100
AcDbLine
 10
3285.584596262726
 20
1654.192245845921
 11
3295.817596262728
 21
1654.760745845921
  0
LINE
  5
1D4
100
AcDbEntity
  8
0
  6
ByLayer
 62
  256
370
   -1
100
AcDbLine
 10
3295.817596262728
 20
1654.760745845921
 11
3302.071096262729
 21
1656.466245845921
  0
LINE
  5
1D5
100
AcDbEntity
  8
0
  6
ByLayer
 62
  256
370
   -1
100
AcDbLine
 10
3302.071096262729
 20
1656.466245845921
 11
3308.608846262731
 21
1665.562245845923
  0
LINE
  5
1D6
100
AcDbEntity
  8
0
  6
ByLayer
 62
  256
370
   -1
100
AcDbLine
 10
3308.608846262731
 20
1665.562245845923
 11
3311.735596262731
 21
1671.247245845924
  0
LINE
  5
1D7
100
AcDbEntity
  8
0
  6
ByLayer
 62
  256
370
   -1
100
AcDbLine
 10
3311.735596262731
 20
1671.247245845924
 11
3312.588346262731
 21
1678.069245845925
  0
LINE
  5
1D8
100
AcDbEntity
  8
0
  6
ByLayer
 62
  256
370
   -1
100
AcDbLine
 10
3312.588346262731
 20
1678.069245845925
 11
3312.019846262731
 21
1689.154995845928
  0
LINE
  5
1D9
100
AcDbEntity
  8
0
  6
ByLayer
 62
  256
370
   -1
100
AcDbLine
 10
3312.019846262731
 20
1689.154995845928
 11
3308.893096262731
 21
1694.271495845929
  0
LINE
  5
1DA
100
AcDbEntity
  8
0
  6
ByLayer
 62
  256
370
   -1
100
AcDbLine
 10
3308.893096262731
 20
1694.271495845929
 11
3302.63959626273
 21
1700.80924584593
  0
LINE
  5
1DB
100
AcDbEntity
  8
0
  6
ByLayer
 62
  256
370
   -1
100
AcDbLine
 10
3302.63959626273
 20
1700.80924584593
 11
3296.386096262728
 21
1703.367495845931
  0
LINE
  5
1DC
100
AcDbEntity
  8
0
  6
ByLayer
 62
  256
370
   -1
100
AcDbLine
 10
3296.386096262728
 20
1703.367495845931
 11
3288.711346262726
 21
1704.220245845931
  0
LINE
  5
1DD
100
AcDbEntity
  8
0
  6
ByLayer
 62
  256
370
   -1
100
AcDbLine
 10
3288.711346262726
 20
1704.220245845931
 11
3282.742096262725
 21
1699.95649584593
  0
LINE
  5
1DE
100
AcDbEntity
  8
0
  6
ByLayer
 62
  256
370
   -1
100
AcDbLine
 10
3282.742096262725
 20
1699.95649584593
 11
3275.635846262724
 21
1695.976995845929
  0
LINE
  5
1DF
100
AcDbEntity
  8
0
  6
ByLayer
 62
  256
370
   -1
100
AcDbLine
 10
3275.635846262724
 20
1695.976995845929
 11
3277.057096262724
 21
1702.79899584593
  0
LINE
  5
1E0
100
AcDbEntity
  8
0
  6
ByLayer
 62
  256
370
   -1
100
AcDbLine
 10
3277.057096262724
 20
1702.79899584593
 11
3268.813846262723
 21
1702.514745845931
  0
LINE
  5
1E1
100
AcDbEntity
  8
0
  6
ByLayer
 62
  256
370
   -1
100
AcDbLine
 10
3327.937846262734
 20
1702.230495845931
 11
3327.085096262734
 21
1661.866995845922
  0
LINE
  5
1E2
100
AcDbEntity
  8
0
  6
ByLayer
 62
  256
370
   -1
100
AcDbLine
 10
3327.085096262734
 20
1661.866995845922
 11
3328.506346262734
 21
1658.171745845921
  0
LINE
  5
1E3
100
AcDbEntity
  8
0
  6
ByLayer
 62
  256
370
   -1
100
AcDbLine
 10
3328.506346262734
 20
1658.171745845921
 11
3330.496096262735
 21
1655.613495845921
  0
LINE
  5
1E4
100
AcDbEntity
  8
0
  6
ByLayer
 62
  256
370
   -1
100
AcDbLine
 10
3330.496096262735
 20
1655.613495845921
 11
3332.770096262735
 21
1654.760745845921
  0
LINE
  5
1E5
100
AcDbEntity
  8
0
  6
ByLayer
 62
  256
370
   -1
100
AcDbLine
 10
3332.770096262735
 20
1654.760745845921
 11
3336.465346262736
 21
1653.90799584592
  0
LINE
  5
1E6
100
AcDbEntity
  8
0
  6
ByLayer
 62
  256
370
   -1
100
AcDbLine
 10
3336.465346262736
 20
1653.90799584592
 11
3340.729096262737
 21
1654.192245845921
  0
LINE
  5
1E7
100
AcDbEntity
  8
0
  6
ByLayer
 62
  256
370
   -1
100
AcDbLine
 10
3340.729096262737
 20
1654.192245845921
 11
3342.434596262737
 21
1654.192245845921
  0
LINE
  5
1E8
100
AcDbEntity
  8
0
  6
ByLayer
 62
  256
370
   -1
100
AcDbLine
 10
3342.434596262737
 20
1654.192245845921
 11
3346.129846262739
 21
1653.90799584592
  0
LINE
  5
1E9
100
AcDbEntity
  8
0
  6
ByLayer
 62
  256
370
   -1
100
AcDbLine
 10
3346.129846262739
 20
1653.90799584592
 11
3351.24634626274
 21
1654.760745845921
  0
LINE
  5
1EA
100
AcDbEntity
  8
0
  6
ByLayer
 62
  256
370
   -1
100
AcDbLine
 10
3351.24634626274
 20
1654.760745845921
 11
3354.94159626274
 21
1656.466245845921
  0
LINE
  5
1EB
100
AcDbEntity
  8
0
  6
ByLayer
 62
  256
370
   -1
100
AcDbLine
 10
3354.94159626274
 20
1656.466245845921
 11
3357.215596262741
 21
1660.729995845922
  0
LINE
  5
1EC
100
AcDbEntity
  8
0
  6
ByLayer
 62
  256
370
   -1
100
AcDbLine
 10
3357.215596262741
 20
1660.729995845922
 11
3357.49984626274
 21
1656.181995845921
  0
LINE
  5
1ED
100
AcDbEntity
  8
0
  6
ByLayer
 62
  256
370
   -1
100
AcDbLine
 10
3357.49984626274
 20
1656.181995845921
 11
3358.068346262741
 21
1655.329245845921
  0
LINE
  5
1EE
100
AcDbEntity
  8
0
  6
ByLayer
 62
  256
370
   -1
100
AcDbLine
 10
3358.068346262741
 20
1655.329245845921
 11
3359.489596262741
 21
1654.760745845921
  0
LINE
  5
1EF
100
AcDbEntity
  8
0
  6
ByLayer
 62
  256
370
   -1
100
AcDbLine
 10
3359.489596262741
 20
1654.760745845921
 11
3361.479346262742
 21
1653.90799584592
  0
LINE
  5
1F0
100
AcDbEntity
  8
0
  6
ByLayer
 62
  256
370
   -1
100
AcDbLine
 10
3361.479346262742
 20
1653.90799584592
 11
3365.458846262742
 21
1654.760745845921
  0
LINE
  5
1F1
100
AcDbEntity
  8
0
  6
ByLayer
 62
  256
370
   -1
100
AcDbLine
 10
3365.458846262742
 20
1654.760745845921
 11
3364.606096262742
 21
1661.582745845922
  0
LINE
  5
1F2
100
AcDbEntity
  8
0
  6
ByLayer
 62
  256
370
   -1
100
AcDbLine
 10
3364.606096262742
 20
1661.582745845922
 11
3366.311596262742
 21
1669.825995845924
  0
LINE
  5
1F3
100
AcDbEntity
  8
0
  6
ByLayer
 62
  256
370
   -1
100
AcDbLine
 10
3366.311596262742
 20
1669.825995845924
 11
3366.311596262742
 21
1675.226745845925
  0
LINE
  5
1F4
100
AcDbEntity
  8
0
  6
ByLayer
 62
  256
370
   -1
100
AcDbLine
 10
3366.311596262742
 20
1675.226745845925
 11
3366.311596262742
 21
1680.343245845926
  0
LINE
  5
1F5
100
AcDbEntity
  8
0
  6
ByLayer
 62
  256
370
   -1
100
AcDbLine
 10
3366.311596262742
 20
1680.343245845926
 11
3366.311596262742
 21
1684.606995845927
  0
LINE
  5
1F6
100
AcDbEntity
  8
0
  6
ByLayer
 62
  256
370
   -1
100
AcDbLine
 10
3366.311596262742
 20
1684.606995845927
 11
3366.595846262743
 21
1691.997495845929
  0
LINE
  5
1F7
100
AcDbEntity
  8
0
  6
ByLayer
 62
  256
370
   -1
100
AcDbLine
 10
3366.595846262743
 20
1691.997495845929
 11
3367.448596262743
 21
1697.39824584593
  0
LINE
  5
1F8
100
AcDbEntity
  8
0
  6
ByLayer
 62
  256
370
   -1
100
AcDbLine
 10
3367.448596262743
 20
1697.39824584593
 11
3367.448596262743
 21
1701.09349584593
  0
LINE
  5
1F9
100
AcDbEntity
  8
0
  6
ByLayer
 62
  256
370
   -1
100
AcDbLine
 10
3367.448596262743
 20
1701.09349584593
 11
3366.880096262742
 21
1701.66199584593
  0
LINE
  5
1FA
100
AcDbEntity
  8
0
  6
ByLayer
 62
  256
370
   -1
100
AcDbLine
 10
3366.880096262742
 20
1701.66199584593
 11
3363.753346262742
 21
1702.230495845931
  0
LINE
  5
1FB
100
AcDbEntity
  8
0
  6
ByLayer
 62
  256
370
   -1
100
AcDbLine
 10
3363.753346262742
 20
1702.230495845931
 11
3363.184846262742
 21
1701.94624584593
  0
LINE
  5
1FC
100
AcDbEntity
  8
0
  6
ByLayer
 62
  256
370
   -1
100
AcDbLine
 10
3363.184846262742
 20
1701.94624584593
 11
3359.205346262741
 21
1701.09349584593
  0
LINE
  5
1FD
100
AcDbEntity
  8
0
  6
ByLayer
 62
  256
370
   -1
100
AcDbLine
 10
3359.205346262741
 20
1701.09349584593
 11
3359.205346262741
 21
1697.39824584593
  0
LINE
  5
1FE
100
AcDbEntity
  8
0
  6
ByLayer
 62
  256
370
   -1
100
AcDbLine
 10
3359.205346262741
 20
1697.39824584593
 11
3358.921096262741
 21
1694.555745845929
  0
LINE
  5
1FF
100
AcDbEntity
  8
0
  6
ByLayer
 62
  256
370
   -1
100
AcDbLine
 10
3358.921096262741
 20
1694.555745845929
 11
3358.921096262741
 21
1690.291995845928
  0
LINE
  5
200
100
AcDbEntity
  8
0
  6
ByLayer
 62
  256
370
   -1
100
AcDbLine
 10
3358.921096262741
 20
1690.291995845928
 11
3360.058096262741
 21
1682.901495845927
  0
LINE
  5
201
100
AcDbEntity
  8
0
  6
ByLayer
 62
  256
370
   -1
100
AcDbLine
 10
3360.058096262741
 20
1682.901495845927
 11
3359.205346262741
 21
1677.784995845925
  0
LINE
  5
202
100
AcDbEntity
  8
0
  6
ByLayer
 62
  256
370
   -1
100
AcDbLine
 10
3359.205346262741
 20
1677.784995845925
 11
3357.784096262741
 21
1673.805495845924
  0
LINE
  5
203
100
AcDbEntity
  8
0
  6
ByLayer
 62
  256
370
   -1
100
AcDbLine
 10
3357.784096262741
 20
1673.805495845924
 11
3357.784096262741
 21
1670.678745845924
  0
LINE
  5
204
100
AcDbEntity
  8
0
  6
ByLayer
 62
  256
370
   -1
100
AcDbLine
 10
3357.784096262741
 20
1670.678745845924
 11
3357.784096262741
 21
1667.267745845923
  0
LINE
  5
205
100
AcDbEntity
  8
0
  6
ByLayer
 62
  256
370
   -1
100
AcDbLine
 10
3357.784096262741
 20
1667.267745845923
 11
3357.49984626274
 21
1663.856745845923
  0
LINE
  5
206
100
AcDbEntity
  8
0
  6
ByLayer
 62
  256
370
   -1
100
AcDbLine
 10
3357.49984626274
 20
1663.856745845923
 11
3356.64709626274
 21
1663.288245845922
  0
LINE
  5
207
100
AcDbEntity
  8
0
  6
ByLayer
 62
  256
370
   -1
100
AcDbLine
 10
3356.64709626274
 20
1663.288245845922
 11
3352.66759626274
 21
1661.014245845922
  0
LINE
  5
208
100
AcDbEntity
  8
0
  6
ByLayer
 62
  256
370
   -1
100
AcDbLine
 10
3352.66759626274
 20
1661.014245845922
 11
3350.109346262739
 21
1659.592995845922
  0
LINE
  5
209
100
AcDbEntity
  8
0
  6
ByLayer
 62
  256
370
   -1
100
AcDbLine
 10
3350.109346262739
 20
1659.592995845922
 11
3347.835346262739
 21
1658.740245845922
  0
LINE
  5
20A
100
AcDbEntity
  8
0
  6
ByLayer
 62
  256
370
   -1
100
AcDbLine
 10
3347.835346262739
 20
1658.740245845922
 11
3342.718846262738
 21
1660.161495845922
  0
LINE
  5
20B
100
AcDbEntity
  8
0
  6
ByLayer
 62
  256
370
   -1
100
AcDbLine
 10
3342.718846262738
 20
1660.161495845922
 11
3338.739346262736
 21
1660.161495845922
  0
LINE
  5
20C
100
AcDbEntity
  8
0
  6
ByLayer
 62
  256
370
   -1
100
AcDbLine
 10
3338.739346262736
 20
1660.161495845922
 11
3337.033846262736
 21
1662.719745845922
  0
LINE
  5
20D
100
AcDbEntity
  8
0
  6
ByLayer
 62
  256
370
   -1
100
AcDbLine
 10
3337.033846262736
 20
1662.719745845922
 11
3336.181096262736
 21
1664.425245845923
  0
LINE
  5
20E
100
AcDbEntity
  8
0
  6
ByLayer
 62
  256
370
   -1
100
AcDbLine
 10
3336.181096262736
 20
1664.425245845923
 11
3334.759846262736
 21
1667.551995845923
  0
LINE
  5
20F
100
AcDbEntity
  8
0
  6
ByLayer
 62
  256
370
   -1
100
AcDbLine
 10
3334.759846262736
 20
1667.551995845923
 11
3333.622846262735
 21
1672.668495845924
  0
LINE
  5
210
100
AcDbEntity
  8
0
  6
ByLayer
 62
  256
370
   -1
100
AcDbLine
 10
3333.622846262735
 20
1672.668495845924
 11
3334.475596262736
 21
1676.363745845925
  0
LINE
  5
211
100
AcDbEntity
  8
0
  6
ByLayer
 62
  256
370
   -1
100
AcDbLine
 10
3334.475596262736
 20
1676.363745845925
 11
3334.475596262736
 21
1682.617245845927
  0
LINE
  5
212
100
AcDbEntity
  8
0
  6
ByLayer
 62
  256
370
   -1
100
AcDbLine
 10
3334.475596262736
 20
1682.617245845927
 11
3334.475596262736
 21
1687.165245845927
  0
LINE
  5
213
100
AcDbEntity
  8
0
  6
ByLayer
 62
  256
370
   -1
100
AcDbLine
 10
3334.475596262736
 20
1687.165245845927
 11
3334.475596262736
 21
1691.144745845928
  0
LINE
  5
214
100
AcDbEntity
  8
0
  6
ByLayer
 62
  256
370
   -1
100
AcDbLine
 10
3334.475596262736
 20
1691.144745845928
 11
3334.475596262736
 21
1695.124245845929
  0
LINE
  5
215
100
AcDbEntity
  8
0
  6
ByLayer
 62
  256
370
   -1
100
AcDbLine
 10
3334.475596262736
 20
1695.124245845929
 11
3334.475596262736
 21
1697.682495845929
  0
LINE
  5
216
100
AcDbEntity
  8
0
  6
ByLayer
 62
  256
370
   -1
100
AcDbLine
 10
3334.475596262736
 20
1697.682495845929
 11
3334.759846262736
 21
1701.09349584593
  0
LINE
  5
217
100
AcDbEntity
  8
0
  6
ByLayer
 62
  256
370
   -1
100
AcDbLine
 10
3334.759846262736
 20
1701.09349584593
 11
3331.633096262736
 21
1702.230495845931
  0
LINE
  5
218
100
AcDbEntity
  8
0
  6
ByLayer
 62
  256
370
   -1
100
AcDbLine
 10
3331.633096262736
 20
1702.230495845931
 11
3330.496096262735
 21
1702.514745845931
  0
LINE
  5
219
100
AcDbEntity
  8
0
  6
ByLayer
 62
  256
370
   -1
100
AcDbLine
 10
3330.496096262735
 20
1702.514745845931
 11
3326.516596262735
 21
1702.514745845931
  0
LINE
  5
21A
100
AcDbEntity
  8
0
  6
ByLayer
 62
  256
370
   -1
100
AcDbLine
 10
3387.061846262747
 20
1715.874495845934
 11
3387.061846262747
 21
1708.483995845932
  0
LINE
  5
21B
100
AcDbEntity
  8
0
  6
ByLayer
 62
  256
370
   -1
100
AcDbLine
 10
3387.061846262747
 20
1708.483995845932
 11
3385.924846262747
 21
1704.220245845931
  0
LINE
  5
21C
100
AcDbEntity
  8
0
  6
ByLayer
 62
  256
370
   -1
100
AcDbLine
 10
3385.924846262747
 20
1704.220245845931
 11
3386.493346262746
 21
1701.66199584593
  0
LINE
  5
21D
100
AcDbEntity
  8
0
  6
ByLayer
 62
  256
370
   -1
100
AcDbLine
 10
3386.493346262746
 20
1701.66199584593
 11
3381.092596262746
 21
1701.377745845931
  0
LINE
  5
21E
100
AcDbEntity
  8
0
  6
ByLayer
 62
  256
370
   -1
100
AcDbLine
 10
3381.092596262746
 20
1701.377745845931
 11
3378.818596262745
 21
1700.52499584593
  0
LINE
  5
21F
100
AcDbEntity
  8
0
  6
ByLayer
 62
  256
370
   -1
100
AcDbLine
 10
3378.818596262745
 20
1700.52499584593
 11
3378.534346262745
 21
1696.545495845929
  0
LINE
  5
220
100
AcDbEntity
  8
0
  6
ByLayer
 62
  256
370
   -1
100
AcDbLine
 10
3378.534346262745
 20
1696.545495845929
 11
3378.818596262745
 21
1695.408495845929
  0
LINE
  5
221
100
AcDbEntity
  8
0
  6
ByLayer
 62
  256
370
   -1
100
AcDbLine
 10
3378.818596262745
 20
1695.408495845929
 11
3380.524096262745
 21
1694.555745845929
  0
LINE
  5
222
100
AcDbEntity
  8
0
  6
ByLayer
 62
  256
370
   -1
100
AcDbLine
 10
3380.524096262745
 20
1694.555745845929
 11
3386.209096262747
 21
1694.271495845929
  0
LINE
  5
223
100
AcDbEntity
  8
0
  6
ByLayer
 62
  256
370
   -1
100
AcDbLine
 10
3386.209096262747
 20
1694.271495845929
 11
3386.777596262747
 21
1688.870745845928
  0
LINE
  5
224
100
AcDbEntity
  8
0
  6
ByLayer
 62
  256
370
   -1
100
AcDbLine
 10
3386.777596262747
 20
1688.870745845928
 11
3386.209096262747
 21
1684.038495845927
  0
LINE
  5
225
100
AcDbEntity
  8
0
  6
ByLayer
 62
  256
370
   -1
100
AcDbLine
 10
3386.209096262747
 20
1684.038495845927
 11
3385.640596262746
 21
1678.069245845925
  0
LINE
  5
226
100
AcDbEntity
  8
0
  6
ByLayer
 62
  256
370
   -1
100
AcDbLine
 10
3385.640596262746
 20
1678.069245845925
 11
3385.072096262746
 21
1674.658245845925
  0
LINE
  5
227
100
AcDbEntity
  8
0
  6
ByLayer
 62
  256
370
   -1
100
AcDbLine
 10
3385.072096262746
 20
1674.658245845925
 11
3383.935096262746
 21
1668.404745845924
  0
LINE
  5
228
100
AcDbEntity
  8
0
  6
ByLayer
 62
  256
370
   -1
100
AcDbLine
 10
3383.935096262746
 20
1668.404745845924
 11
3383.650846262746
 21
1663.288245845922
  0
LINE
  5
229
100
AcDbEntity
  8
0
  6
ByLayer
 62
  256
370
   -1
100
AcDbLine
 10
3383.650846262746
 20
1663.288245845922
 11
3382.229596262745
 21
1658.171745845921
  0
LINE
  5
22A
100
AcDbEntity
  8
0
  6
ByLayer
 62
  256
370
   -1
100
AcDbLine
 10
3382.229596262745
 20
1658.171745845921
 11
3382.513846262746
 21
1656.750495845921
  0
LINE
  5
22B
100
AcDbEntity
  8
0
  6
ByLayer
 62
  256
370
   -1
100
AcDbLine
 10
3382.513846262746
 20
1656.750495845921
 11
3385.924846262747
 21
1655.897745845921
  0
LINE
  5
22C
100
AcDbEntity
  8
0
  6
ByLayer
 62
  256
370
   -1
100
AcDbLine
 10
3385.924846262747
 20
1655.897745845921
 11
3391.041346262748
 21
1653.90799584592
  0
LINE
  5
22D
100
AcDbEntity
  8
0
  6
ByLayer
 62
  256
370
   -1
100
AcDbLine
 10
3391.041346262748
 20
1653.90799584592
 11
3394.452346262748
 21
1652.20249584592
  0
LINE
  5
22E
100
AcDbEntity
  8
0
  6
ByLayer
 62
  256
370
   -1
100
AcDbLine
 10
3394.452346262748
 20
1652.20249584592
 11
3397.863346262749
 21
1651.91824584592
  0
LINE
  5
22F
100
AcDbEntity
  8
0
  6
ByLayer
 62
  256
370
   -1
100
AcDbLine
 10
3397.863346262749
 20
1651.91824584592
 11
3398.716096262749
 21
1653.339495845921
  0
LINE
  5
230
100
AcDbEntity
  8
0
  6
ByLayer
 62
  256
370
   -1
100
AcDbLine
 10
3398.716096262749
 20
1653.339495845921
 11
3399.284596262749
 21
1655.329245845921
  0
LINE
  5
231
100
AcDbEntity
  8
0
  6
ByLayer
 62
  256
370
   -1
100
AcDbLine
 10
3399.284596262749
 20
1655.329245845921
 11
3399.568846262749
 21
1657.603245845921
  0
LINE
  5
232
100
AcDbEntity
  8
0
  6
ByLayer
 62
  256
370
   -1
100
AcDbLine
 10
3399.568846262749
 20
1657.603245845921
 11
3399.568846262749
 21
1660.445745845922
  0
LINE
  5
233
100
AcDbEntity
  8
0
  6
ByLayer
 62
  256
370
   -1
100
AcDbLine
 10
3399.568846262749
 20
1660.445745845922
 11
3397.579096262749
 21
1661.298495845922
  0
LINE
  5
234
100
AcDbEntity
  8
0
  6
ByLayer
 62
  256
370
   -1
100
AcDbLine
 10
3397.579096262749
 20
1661.298495845922
 11
3395.305096262748
 21
1662.151245845922
  0
LINE
  5
235
100
AcDbEntity
  8
0
  6
ByLayer
 62
  256
370
   -1
100
AcDbLine
 10
3395.305096262748
 20
1662.151245845922
 11
3394.452346262748
 21
1663.003995845923
  0
LINE
  5
236
100
AcDbEntity
  8
0
  6
ByLayer
 62
  256
370
   -1
100
AcDbLine
 10
3394.452346262748
 20
1663.003995845923
 11
3393.315346262748
 21
1666.699245845923
  0
LINE
  5
237
100
AcDbEntity
  8
0
  6
ByLayer
 62
  256
370
   -1
100
AcDbLine
 10
3393.315346262748
 20
1666.699245845923
 11
3393.315346262748
 21
1670.962995845924
  0
LINE
  5
238
100
AcDbEntity
  8
0
  6
ByLayer
 62
  256
370
   -1
100
AcDbLine
 10
3393.315346262748
 20
1670.962995845924
 11
3393.315346262748
 21
1674.942495845925
  0
LINE
  5
239
100
AcDbEntity
  8
0
  6
ByLayer
 62
  256
370
   -1
100
AcDbLine
 10
3393.315346262748
 20
1674.942495845925
 11
3393.315346262748
 21
1678.069245845925
  0
LINE
  5
23A
100
AcDbEntity
  8
0
  6
ByLayer
 62
  256
370
   -1
100
AcDbLine
 10
3393.315346262748
 20
1678.069245845925
 11
3393.599596262748
 21
1682.901495845927
  0
LINE
  5
23B
100
AcDbEntity
  8
0
  6
ByLayer
 62
  256
370
   -1
100
AcDbLine
 10
3393.599596262748
 20
1682.901495845927
 11
3393.599596262748
 21
1688.017995845928
  0
LINE
  5
23C
100
AcDbEntity
  8
0
  6
ByLayer
 62
  256
370
   -1
100
AcDbLine
 10
3393.599596262748
 20
1688.017995845928
 11
3393.883846262749
 21
1690.576245845928
  0
LINE
  5
23D
100
AcDbEntity
  8
0
  6
ByLayer
 62
  256
370
   -1
100
AcDbLine
 10
3393.883846262749
 20
1690.576245845928
 11
3393.883846262749
 21
1692.565995845928
  0
LINE
  5
23E
100
AcDbEntity
  8
0
  6
ByLayer
 62
  256
370
   -1
100
AcDbLine
 10
3393.883846262749
 20
1692.565995845928
 11
3394.168096262748
 21
1695.692745845929
  0
LINE
  5
23F
100
AcDbEntity
  8
0
  6
ByLayer
 62
  256
370
   -1
100
AcDbLine
 10
3394.168096262748
 20
1695.692745845929
 11
3394.452346262748
 21
1695.976995845929
  0
LINE
  5
240
100
AcDbEntity
  8
0
  6
ByLayer
 62
  256
370
   -1
100
AcDbLine
 10
3394.452346262748
 20
1695.976995845929
 11
3395.589346262749
 21
1695.692745845929
  0
LINE
  5
241
100
AcDbEntity
  8
0
  6
ByLayer
 62
  256
370
   -1
100
AcDbLine
 10
3395.589346262749
 20
1695.692745845929
 11
3397.863346262749
 21
1695.976995845929
  0
LINE
  5
242
100
AcDbEntity
  8
0
  6
ByLayer
 62
  256
370
   -1
100
AcDbLine
 10
3397.863346262749
 20
1695.976995845929
 11
3400.42159626275
 21
1695.692745845929
  0
LINE
  5
243
100
AcDbEntity
  8
0
  6
ByLayer
 62
  256
370
   -1
100
AcDbLine
 10
3400.42159626275
 20
1695.692745845929
 11
3402.97984626275
 21
1695.124245845929
  0
LINE
  5
244
100
AcDbEntity
  8
0
  6
ByLayer
 62
  256
370
   -1
100
AcDbLine
 10
3402.97984626275
 20
1695.124245845929
 11
3403.54834626275
 21
1698.25099584593
  0
LINE
  5
245
100
AcDbEntity
  8
0
  6
ByLayer
 62
  256
370
   -1
100
AcDbLine
 10
3403.54834626275
 20
1698.25099584593
 11
3403.83259626275
 21
1699.10374584593
  0
LINE
  5
246
100
AcDbEntity
  8
0
  6
ByLayer
 62
  256
370
   -1
100
AcDbLine
 10
3403.83259626275
 20
1699.10374584593
 11
3403.54834626275
 21
1700.52499584593
  0
LINE
  5
247
100
AcDbEntity
  8
0
  6
ByLayer
 62
  256
370
   -1
100
AcDbLine
 10
3403.54834626275
 20
1700.52499584593
 11
3402.97984626275
 21
1701.66199584593
  0
LINE
  5
248
100
AcDbEntity
  8
0
  6
ByLayer
 62
  256
370
   -1
100
AcDbLine
 10
3402.97984626275
 20
1701.66199584593
 11
3401.27434626275
 21
1702.514745845931
  0
LINE
  5
249
100
AcDbEntity
  8
0
  6
ByLayer
 62
  256
370
   -1
100
AcDbLine
 10
3401.27434626275
 20
1702.514745845931
 11
3398.431846262749
 21
1703.083245845931
  0
LINE
  5
24A
100
AcDbEntity
  8
0
  6
ByLayer
 62
  256
370
   -1
100
AcDbLine
 10
3398.431846262749
 20
1703.083245845931
 11
3396.157846262749
 21
1703.367495845931
  0
LINE
  5
24B
100
AcDbEntity
  8
0
  6
ByLayer
 62
  256
370
   -1
100
AcDbLine
 10
3396.157846262749
 20
1703.367495845931
 11
3395.589346262749
 21
1703.367495845931
  0
LINE
  5
24C
100
AcDbEntity
  8
0
  6
ByLayer
 62
  256
370
   -1
100
AcDbLine
 10
3395.589346262749
 20
1703.367495845931
 11
3395.020846262748
 21
1703.935995845931
  0
LINE
  5
24D
100
AcDbEntity
  8
0
  6
ByLayer
 62
  256
370
   -1
100
AcDbLine
 10
3395.020846262748
 20
1703.935995845931
 11
3395.020846262748
 21
1707.062745845931
  0
LINE
  5
24E
100
AcDbEntity
  8
0
  6
ByLayer
 62
  256
370
   -1
100
AcDbLine
 10
3395.020846262748
 20
1707.062745845931
 11
3395.020846262748
 21
1709.052495845932
  0
LINE
  5
24F
100
AcDbEntity
  8
0
  6
ByLayer
 62
  256
370
   -1
100
AcDbLine
 10
3395.020846262748
 20
1709.052495845932
 11
3395.305096262748
 21
1712.463495845933
  0
LINE
  5
250
100
AcDbEntity
  8
0
  6
ByLayer
 62
  256
370
   -1
100
AcDbLine
 10
3395.305096262748
 20
1712.463495845933
 11
3395.305096262748
 21
1716.158745845933
  0
LINE
  5
251
100
AcDbEntity
  8
0
  6
ByLayer
 62
  256
370
   -1
100
AcDbLine
 10
3395.305096262748
 20
1716.158745845933
 11
3395.305096262748
 21
1716.442995845933
  0
LINE
  5
252
100
AcDbEntity
  8
0
  6
ByLayer
 62
  256
370
   -1
100
AcDbLine
 10
3395.305096262748
 20
1716.442995845933
 11
3393.883846262749
 21
1717.011495845934
  0
LINE
  5
253
100
AcDbEntity
  8
0
  6
ByLayer
 62
  256
370
   -1
100
AcDbLine
 10
3393.883846262749
 20
1717.011495845934
 11
3391.041346262748
 21
1717.011495845934
  0
LINE
  5
254
100
AcDbEntity
  8
0
  6
ByLayer
 62
  256
370
   -1
100
AcDbLine
 10
3391.041346262748
 20
1717.011495845934
 11
3387.914596262747
 21
1717.295745845934
  0
LINE
  5
255
100
AcDbEntity
  8
0
  6
ByLayer
 62
  256
370
   -1
100
AcDbLine
 10
3420.319096262754
 20
1683.185745845926
 11
3421.456096262754
 21
1682.901495845927
  0
LINE
  5
256
100
AcDbEntity
  8
0
  6
ByLayer
 62
  256
370
   -1
100
AcDbLine
 10
3421.456096262754
 20
1682.901495845927
 11
3427.141096262755
 21
1682.901495845927
  0
LINE
  5
257
100
AcDbEntity
  8
0
  6
ByLayer
 62
  256
370
   -1
100
AcDbLine
 10
3427.141096262755
 20
1682.901495845927
 11
3431.404846262756
 21
1682.901495845927
  0
LINE
  5
258
100
AcDbEntity
  8
0
  6
ByLayer
 62
  256
370
   -1
100
AcDbLine
 10
3431.404846262756
 20
1682.901495845927
 11
3435.668596262757
 21
1682.332995845926
  0
LINE
  5
259
100
AcDbEntity
  8
0
  6
ByLayer
 62
  256
370
   -1
100
AcDbLine
 10
3435.668596262757
 20
1682.332995845926
 11
3440.216596262757
 21
1682.332995845926
  0
LINE
  5
25A
100
AcDbEntity
  8
0
  6
ByLayer
 62
  256
370
   -1
100
AcDbLine
 10
3440.216596262757
 20
1682.332995845926
 11
3442.206346262758
 21
1682.332995845926
  0
LINE
  5
25B
100
AcDbEntity
  8
0
  6
ByLayer
 62
  256
370
   -1
100
AcDbLine
 10
3442.206346262758
 20
1682.332995845926
 11
3443.627596262758
 21
1682.332995845926
  0
LINE
  5
25C
100
AcDbEntity
  8
0
  6
ByLayer
 62
  256
370
   -1
100
AcDbLine
 10
3443.627596262758
 20
1682.332995845926
 11
3446.185846262759
 21
1683.185745845926
  0
LINE
  5
25D
100
AcDbEntity
  8
0
  6
ByLayer
 62
  256
370
   -1
100
AcDbLine
 10
3446.185846262759
 20
1683.185745845926
 11
3448.45984626276
 21
1683.185745845926
  0
LINE
  5
25E
100
AcDbEntity
  8
0
  6
ByLayer
 62
  256
370
   -1
100
AcDbLine
 10
3448.45984626276
 20
1683.185745845926
 11
3449.596846262759
 21
1683.185745845926
  0
LINE
  5
25F
100
AcDbEntity
  8
0
  6
ByLayer
 62
  256
370
   -1
100
AcDbLine
 10
3449.596846262759
 20
1683.185745845926
 11
3448.744096262759
 21
1688.017995845928
  0
LINE
  5
260
100
AcDbEntity
  8
0
  6
ByLayer
 62
  256
370
   -1
100
AcDbLine
 10
3448.744096262759
 20
1688.017995845928
 11
3447.038596262759
 21
1690.576245845928
  0
LINE
  5
261
100
AcDbEntity
  8
0
  6
ByLayer
 62
  256
370
   -1
100
AcDbLine
 10
3447.038596262759
 20
1690.576245845928
 11
3444.480346262758
 21
1695.124245845929
  0
LINE
  5
262
100
AcDbEntity
  8
0
  6
ByLayer
 62
  256
370
   -1
100
AcDbLine
 10
3444.480346262758
 20
1695.124245845929
 11
3440.500846262758
 21
1696.261245845929
  0
LINE
  5
263
100
AcDbEntity
  8
0
  6
ByLayer
 62
  256
370
   -1
100
AcDbLine
 10
3440.500846262758
 20
1696.261245845929
 11
3435.100096262756
 21
1696.261245845929
  0
LINE
  5
264
100
AcDbEntity
  8
0
  6
ByLayer
 62
  256
370
   -1
100
AcDbLine
 10
3435.100096262756
 20
1696.261245845929
 11
3430.267846262756
 21
1695.976995845929
  0
LINE
  5
265
100
AcDbEntity
  8
0
  6
ByLayer
 62
  256
370
   -1
100
AcDbLine
 10
3430.267846262756
 20
1695.976995845929
 11
3427.709596262755
 21
1695.124245845929
  0
LINE
  5
266
100
AcDbEntity
  8
0
  6
ByLayer
 62
  256
370
   -1
100
AcDbLine
 10
3427.709596262755
 20
1695.124245845929
 11
3424.582846262755
 21
1693.418745845929
  0
LINE
  5
267
100
AcDbEntity
  8
0
  6
ByLayer
 62
  256
370
   -1
100
AcDbLine
 10
3424.582846262755
 20
1693.418745845929
 11
3422.308846262754
 21
1690.291995845928
  0
LINE
  5
268
100
AcDbEntity
  8
0
  6
ByLayer
 62
  256
370
   -1
100
AcDbLine
 10
3422.308846262754
 20
1690.291995845928
 11
3421.171846262754
 21
1686.312495845927
  0
LINE
  5
269
100
AcDbEntity
  8
0
  6
ByLayer
 62
  256
370
   -1
100
AcDbLine
 10
3421.171846262754
 20
1686.312495845927
 11
3419.750596262753
 21
1683.469995845927
  0
LINE
  5
26A
100
AcDbEntity
  8
0
  6
ByLayer
 62
  256
370
   -1
100
AcDbLine
 10
3418.613596262754
 20
1673.236995845925
 11
3419.466346262754
 21
1670.394495845924
  0
LINE
  5
26B
100
AcDbEntity
  8
0
  6
ByLayer
 62
  256
370
   -1
100
AcDbLine
 10
3419.466346262754
 20
1670.394495845924
 11
3421.171846262754
 21
1666.414995845923
  0
LINE
  5
26C
100
AcDbEntity
  8
0
  6
ByLayer
 62
  256
370
   -1
100
AcDbLine
 10
3421.171846262754
 20
1666.414995845923
 11
3421.740346262754
 21
1663.856745845923
  0
LINE
  5
26D
100
AcDbEntity
  8
0
  6
ByLayer
 62
  256
370
   -1
100
AcDbLine
 10
3421.740346262754
 20
1663.856745845923
 11
3422.877346262755
 21
1661.866995845922
  0
LINE
  5
26E
100
AcDbEntity
  8
0
  6
ByLayer
 62
  256
370
   -1
100
AcDbLine
 10
3422.877346262755
 20
1661.866995845922
 11
3430.836346262756
 21
1659.877245845922
  0
LINE
  5
26F
100
AcDbEntity
  8
0
  6
ByLayer
 62
  256
370
   -1
100
AcDbLine
 10
3430.836346262756
 20
1659.877245845922
 11
3435.384346262757
 21
1660.161495845922
  0
LINE
  5
270
100
AcDbEntity
  8
0
  6
ByLayer
 62
  256
370
   -1
100
AcDbLine
 10
3435.384346262757
 20
1660.161495845922
 11
3441.637846262758
 21
1660.729995845922
  0
LINE
  5
271
100
AcDbEntity
  8
0
  6
ByLayer
 62
  256
370
   -1
100
AcDbLine
 10
3441.637846262758
 20
1660.729995845922
 11
3443.911846262759
 21
1662.435495845922
  0
LINE
  5
272
100
AcDbEntity
  8
0
  6
ByLayer
 62
  256
370
   -1
100
AcDbLine
 10
3443.911846262759
 20
1662.435495845922
 11
3446.185846262759
 21
1664.140995845923
  0
LINE
  5
273
100
AcDbEntity
  8
0
  6
ByLayer
 62
  256
370
   -1
100
AcDbLine
 10
3446.185846262759
 20
1664.140995845923
 11
3447.60709626276
 21
1666.130745845923
  0
LINE
  5
274
100
AcDbEntity
  8
0
  6
ByLayer
 62
  256
370
   -1
100
AcDbLine
 10
3447.60709626276
 20
1666.130745845923
 11
3450.44959626276
 21
1668.973245845924
  0
LINE
  5
275
100
AcDbEntity
  8
0
  6
ByLayer
 62
  256
370
   -1
100
AcDbLine
 10
3450.44959626276
 20
1668.973245845924
 11
3451.01809626276
 21
1668.688995845924
  0
LINE
  5
276
100
AcDbEntity
  8
0
  6
ByLayer
 62
  256
370
   -1
100
AcDbLine
 10
3451.01809626276
 20
1668.688995845924
 11
3453.576346262761
 21
1665.277995845923
  0
LINE
  5
277
100
AcDbEntity
  8
0
  6
ByLayer
 62
  256
370
   -1
100
AcDbLine
 10
3453.576346262761
 20
1665.277995845923
 11
3451.58659626276
 21
1661.298495845922
  0
LINE
  5
278
100
AcDbEntity
  8
0
  6
ByLayer
 62
  256
370
   -1
100
AcDbLine
 10
3451.58659626276
 20
1661.298495845922
 11
3450.73384626276
 21
1660.161495845922
  0
LINE
  5
279
100
AcDbEntity
  8
0
  6
ByLayer
 62
  256
370
   -1
100
AcDbLine
 10
3450.73384626276
 20
1660.161495845922
 11
3446.75434626276
 21
1657.034745845921
  0
LINE
  5
27A
100
AcDbEntity
  8
0
  6
ByLayer
 62
  256
370
   -1
100
AcDbLine
 10
3446.75434626276
 20
1657.034745845921
 11
3442.774846262758
 21
1653.90799584592
  0
LINE
  5
27B
100
AcDbEntity
  8
0
  6
ByLayer
 62
  256
370
   -1
100
AcDbLine
 10
3442.774846262758
 20
1653.90799584592
 11
3440.216596262757
 21
1653.623745845921
  0
LINE
  5
27C
100
AcDbEntity
  8
0
  6
ByLayer
 62
  256
370
   -1
100
AcDbLine
 10
3440.216596262757
 20
1653.623745845921
 11
3432.826096262756
 21
1653.05524584592
  0
LINE
  5
27D
100
AcDbEntity
  8
0
  6
ByLayer
 62
  256
370
   -1
100
AcDbLine
 10
3432.826096262756
 20
1653.05524584592
 11
3427.425346262755
 21
1652.77099584592
  0
LINE
  5
27E
100
AcDbEntity
  8
0
  6
ByLayer
 62
  256
370
   -1
100
AcDbLine
 10
3427.425346262755
 20
1652.77099584592
 11
3421.740346262754
 21
1653.623745845921
  0
LINE
  5
27F
100
AcDbEntity
  8
0
  6
ByLayer
 62
  256
370
   -1
100
AcDbLine
 10
3421.740346262754
 20
1653.623745845921
 11
3417.476596262753
 21
1655.613495845921
  0
LINE
  5
280
100
AcDbEntity
  8
0
  6
ByLayer
 62
  256
370
   -1
100
AcDbLine
 10
3417.476596262753
 20
1655.613495845921
 11
3414.065596262752
 21
1659.308745845922
  0
LINE
  5
281
100
AcDbEntity
  8
0
  6
ByLayer
 62
  256
370
   -1
100
AcDbLine
 10
3414.065596262752
 20
1659.308745845922
 11
3411.223096262751
 21
1664.425245845923
  0
LINE
  5
282
100
AcDbEntity
  8
0
  6
ByLayer
 62
  256
370
   -1
100
AcDbLine
 10
3411.223096262751
 20
1664.425245845923
 11
3410.654596262752
 21
1666.983495845923
  0
LINE
  5
283
100
AcDbEntity
  8
0
  6
ByLayer
 62
  256
370
   -1
100
AcDbLine
 10
3410.654596262752
 20
1666.983495845923
 11
3410.938846262752
 21
1672.952745845924
  0
LINE
  5
284
100
AcDbEntity
  8
0
  6
ByLayer
 62
  256
370
   -1
100
AcDbLine
 10
3410.938846262752
 20
1672.952745845924
 11
3410.938846262752
 21
1679.490495845926
  0
LINE
  5
285
100
AcDbEntity
  8
0
  6
ByLayer
 62
  256
370
   -1
100
AcDbLine
 10
3410.938846262752
 20
1679.490495845926
 11
3411.223096262751
 21
1684.322745845927
  0
LINE
  5
286
100
AcDbEntity
  8
0
  6
ByLayer
 62
  256
370
   -1
100
AcDbLine
 10
3411.223096262751
 20
1684.322745845927
 11
3412.644346262752
 21
1690.291995845928
  0
LINE
  5
287
100
AcDbEntity
  8
0
  6
ByLayer
 62
  256
370
   -1
100
AcDbLine
 10
3412.644346262752
 20
1690.291995845928
 11
3415.771096262753
 21
1695.408495845929
  0
LINE
  5
288
100
AcDbEntity
  8
0
  6
ByLayer
 62
  256
370
   -1
100
AcDbLine
 10
3415.771096262753
 20
1695.408495845929
 11
3417.192346262753
 21
1697.682495845929
  0
LINE
  5
289
100
AcDbEntity
  8
0
  6
ByLayer
 62
  256
370
   -1
100
AcDbLine
 10
3417.192346262753
 20
1697.682495845929
 11
3420.887596262754
 21
1700.52499584593
  0
LINE
  5
28A
100
AcDbEntity
  8
0
  6
ByLayer
 62
  256
370
   -1
100
AcDbLine
 10
3420.887596262754
 20
1700.52499584593
 11
3423.730096262755
 21
1701.66199584593
  0
LINE
  5
28B
100
AcDbEntity
  8
0
  6
ByLayer
 62
  256
370
   -1
100
AcDbLine
 10
3423.730096262755
 20
1701.66199584593
 11
3430.836346262756
 21
1702.79899584593
  0
LINE
  5
28C
100
AcDbEntity
  8
0
  6
ByLayer
 62
  256
370
   -1
100
AcDbLine
 10
3430.836346262756
 20
1702.79899584593
 11
3434.247346262756
 21
1703.083245845931
  0
LINE
  5
28D
100
AcDbEntity
  8
0
  6
ByLayer
 62
  256
370
   -1
100
AcDbLine
 10
3434.247346262756
 20
1703.083245845931
 11
3438.795346262758
 21
1703.367495845931
  0
LINE
  5
28E
100
AcDbEntity
  8
0
  6
ByLayer
 62
  256
370
   -1
100
AcDbLine
 10
3438.795346262758
 20
1703.367495845931
 11
3443.343346262759
 21
1703.083245845931
  0
LINE
  5
28F
100
AcDbEntity
  8
0
  6
ByLayer
 62
  256
370
   -1
100
AcDbLine
 10
3443.343346262759
 20
1703.083245845931
 11
3449.02834626276
 21
1698.25099584593
  0
LINE
  5
290
100
AcDbEntity
  8
0
  6
ByLayer
 62
  256
370
   -1
100
AcDbLine
 10
3449.02834626276
 20
1698.25099584593
 11
3451.30234626276
 21
1696.261245845929
  0
LINE
  5
291
100
AcDbEntity
  8
0
  6
ByLayer
 62
  256
370
   -1
100
AcDbLine
 10
3451.30234626276
 20
1696.261245845929
 11
3453.86059626276
 21
1691.428995845928
  0
LINE
  5
292
100
AcDbEntity
  8
0
  6
ByLayer
 62
  256
370
   -1
100
AcDbLine
 10
3453.86059626276
 20
1691.428995845928
 11
3455.281846262761
 21
1688.302245845927
  0
LINE
  5
293
100
AcDbEntity
  8
0
  6
ByLayer
 62
  256
370
   -1
100
AcDbLine
 10
3455.281846262761
 20
1688.302245845927
 11
3455.281846262761
 21
1683.185745845926
  0
LINE
  5
294
100
AcDbEntity
  8
0
  6
ByLayer
 62
  256
370
   -1
100
AcDbLine
 10
3455.281846262761
 20
1683.185745845926
 11
3455.850346262761
 21
1679.774745845926
  0
LINE
  5
295
100
AcDbEntity
  8
0
  6
ByLayer
 62
  256
370
   -1
100
AcDbLine
 10
3455.850346262761
 20
1679.774745845926
 11
3455.850346262761
 21
1676.079495845925
  0
LINE
  5
296
100
AcDbEntity
  8
0
  6
ByLayer
 62
  256
370
   -1
100
AcDbLine
 10
3455.850346262761
 20
1676.079495845925
 11
3455.566096262761
 21
1675.795245845925
  0
LINE
  5
297
100
AcDbEntity
  8
0
  6
ByLayer
 62
  256
370
   -1
100
AcDbLine
 10
3455.566096262761
 20
1675.795245845925
 11
3448.45984626276
 21
1674.373995845925
  0
LINE
  5
298
100
AcDbEntity
  8
0
  6
ByLayer
 62
  256
370
   -1
100
AcDbLine
 10
3448.45984626276
 20
1674.373995845925
 11
3443.911846262759
 21
1674.658245845925
  0
LINE
  5
299
100
AcDbEntity
  8
0
  6
ByLayer
 62
  256
370
   -1
100
AcDbLine
 10
3443.911846262759
 20
1674.658245845925
 11
3440.500846262758
 21
1674.658245845925
  0
LINE
  5
29A
100
AcDbEntity
  8
0
  6
ByLayer
 62
  256
370
   -1
100
AcDbLine
 10
3440.500846262758
 20
1674.658245845925
 11
3431.120596262756
 21
1674.942495845925
  0
LINE
  5
29B
100
AcDbEntity
  8
0
  6
ByLayer
 62
  256
370
   -1
100
AcDbLine
 10
3431.120596262756
 20
1674.942495845925
 11
3426.572596262755
 21
1674.373995845925
  0
LINE
  5
29C
100
AcDbEntity
  8
0
  6
ByLayer
 62
  256
370
   -1
100
AcDbLine
 10
3426.572596262755
 20
1674.373995845925
 11
3421.740346262754
 21
1673.521245845925
  0
LINE
  5
29D
100
AcDbEntity
  8
0
  6
ByLayer
 62
  256
370
   -1
100
AcDbLine
 10
3421.740346262754
 20
1673.521245845925
 11
3420.887596262754
 21
1673.521245845925
  0
LINE
  5
29E
100
AcDbEntity
  8
0
  6
ByLayer
 62
  256
370
   -1
100
AcDbLine
 10
3420.887596262754
 20
1673.521245845925
 11
3415.771096262753
 21
1673.236995845925
  0
LINE
  5
29F
100
AcDbEntity
  8
0
  6
ByLayer
 62
  256
370
   -1
100
AcDbLine
 10
3469.778596262764
 20
1701.377745845931
 11
3468.925846262764
 21
1693.134495845929
  0
LINE
  5
2A0
100
AcDbEntity
  8
0
  6
ByLayer
 62
  256
370
   -1
100
AcDbLine
 10
3468.925846262764
 20
1693.134495845929
 11
3468.925846262764
 21
1689.154995845928
  0
LINE
  5
2A1
100
AcDbEntity
  8
0
  6
ByLayer
 62
  256
370
   -1
100
AcDbLine
 10
3468.925846262764
 20
1689.154995845928
 11
3468.357346262763
 21
1684.038495845927
  0
LINE
  5
2A2
100
AcDbEntity
  8
0
  6
ByLayer
 62
  256
370
   -1
100
AcDbLine
 10
3468.357346262763
 20
1684.038495845927
 11
3468.073096262764
 21
1675.226745845925
  0
LINE
  5
2A3
100
AcDbEntity
  8
0
  6
ByLayer
 62
  256
370
   -1
100
AcDbLine
 10
3468.073096262764
 20
1675.226745845925
 11
3468.641596262764
 21
1669.257495845924
  0
LINE
  5
2A4
100
AcDbEntity
  8
0
  6
ByLayer
 62
  256
370
   -1
100
AcDbLine
 10
3468.641596262764
 20
1669.257495845924
 11
3468.357346262763
 21
1663.003995845923
  0
LINE
  5
2A5
100
AcDbEntity
  8
0
  6
ByLayer
 62
  256
370
   -1
100
AcDbLine
 10
3468.357346262763
 20
1663.003995845923
 11
3468.073096262764
 21
1657.603245845921
  0
LINE
  5
2A6
100
AcDbEntity
  8
0
  6
ByLayer
 62
  256
370
   -1
100
AcDbLine
 10
3468.073096262764
 20
1657.603245845921
 11
3467.788846262764
 21
1655.897745845921
  0
LINE
  5
2A7
100
AcDbEntity
  8
0
  6
ByLayer
 62
  256
370
   -1
100
AcDbLine
 10
3467.788846262764
 20
1655.897745845921
 11
3468.073096262764
 21
1655.329245845921
  0
LINE
  5
2A8
100
AcDbEntity
  8
0
  6
ByLayer
 62
  256
370
   -1
100
AcDbLine
 10
3468.073096262764
 20
1655.329245845921
 11
3473.473846262764
 21
1655.613495845921
  0
LINE
  5
2A9
100
AcDbEntity
  8
0
  6
ByLayer
 62
  256
370
   -1
100
AcDbLine
 10
3473.473846262764
 20
1655.613495845921
 11
3476.316346262765
 21
1655.044995845921
  0
LINE
  5
2AA
100
AcDbEntity
  8
0
  6
ByLayer
 62
  256
370
   -1
100
AcDbLine
 10
3476.316346262765
 20
1655.044995845921
 11
3477.737596262765
 21
1661.582745845922
  0
LINE
  5
2AB
100
AcDbEntity
  8
0
  6
ByLayer
 62
  256
370
   -1
100
AcDbLine
 10
3477.737596262765
 20
1661.582745845922
 11
3477.453346262766
 21
1667.267745845923
  0
LINE
  5
2AC
100
AcDbEntity
  8
0
  6
ByLayer
 62
  256
370
   -1
100
AcDbLine
 10
3477.453346262766
 20
1667.267745845923
 11
3477.453346262766
 21
1671.247245845924
  0
LINE
  5
2AD
100
AcDbEntity
  8
0
  6
ByLayer
 62
  256
370
   -1
100
AcDbLine
 10
3477.453346262766
 20
1671.247245845924
 11
3477.169096262766
 21
1677.216495845925
  0
LINE
  5
2AE
100
AcDbEntity
  8
0
  6
ByLayer
 62
  256
370
   -1
100
AcDbLine
 10
3477.169096262766
 20
1677.216495845925
 11
3477.453346262766
 21
1683.185745845926
  0
LINE
  5
2AF
100
AcDbEntity
  8
0
  6
ByLayer
 62
  256
370
   -1
100
AcDbLine
 10
3477.453346262766
 20
1683.185745845926
 11
3477.453346262766
 21
1686.880995845928
  0
LINE
  5
2B0
100
AcDbEntity
  8
0
  6
ByLayer
 62
  256
370
   -1
100
AcDbLine
 10
3477.453346262766
 20
1686.880995845928
 11
3480.011596262766
 21
1690.007745845928
  0
LINE
  5
2B1
100
AcDbEntity
  8
0
  6
ByLayer
 62
  256
370
   -1
100
AcDbLine
 10
3480.011596262766
 20
1690.007745845928
 11
3483.422596262767
 21
1692.565995845928
  0
LINE
  5
2B2
100
AcDbEntity
  8
0
  6
ByLayer
 62
  256
370
   -1
100
AcDbLine
 10
3483.422596262767
 20
1692.565995845928
 11
3490.813096262768
 21
1694.271495845929
  0
LINE
  5
2B3
100
AcDbEntity
  8
0
  6
ByLayer
 62
  256
370
   -1
100
AcDbLine
 10
3490.813096262768
 20
1694.271495845929
 11
3493.939846262769
 21
1694.555745845929
  0
LINE
  5
2B4
100
AcDbEntity
  8
0
  6
ByLayer
 62
  256
370
   -1
100
AcDbLine
 10
3493.939846262769
 20
1694.555745845929
 11
3495.929596262769
 21
1695.976995845929
  0
LINE
  5
2B5
100
AcDbEntity
  8
0
  6
ByLayer
 62
  256
370
   -1
100
AcDbLine
 10
3495.929596262769
 20
1695.976995845929
 11
3497.350846262769
 21
1698.81949584593
  0
LINE
  5
2B6
100
AcDbEntity
  8
0
  6
ByLayer
 62
  256
370
   -1
100
AcDbLine
 10
3497.350846262769
 20
1698.81949584593
 11
3496.78234626277
 21
1699.95649584593
  0
LINE
  5
2B7
100
AcDbEntity
  8
0
  6
ByLayer
 62
  256
370
   -1
100
AcDbLine
 10
3496.78234626277
 20
1699.95649584593
 11
3494.224096262769
 21
1701.09349584593
  0
LINE
  5
2B8
100
AcDbEntity
  8
0
  6
ByLayer
 62
  256
370
   -1
100
AcDbLine
 10
3494.224096262769
 20
1701.09349584593
 11
3491.381596262768
 21
1701.377745845931
  0
LINE
  5
2B9
100
AcDbEntity
  8
0
  6
ByLayer
 62
  256
370
   -1
100
AcDbLine
 10
3491.381596262768
 20
1701.377745845931
 11
3486.265096262767
 21
1699.10374584593
  0
LINE
  5
2BA
100
AcDbEntity
  8
0
  6
ByLayer
 62
  256
370
   -1
100
AcDbLine
 10
3486.265096262767
 20
1699.10374584593
 11
3483.422596262767
 21
1697.682495845929
  0
LINE
  5
2BB
100
AcDbEntity
  8
0
  6
ByLayer
 62
  256
370
   -1
100
AcDbLine
 10
3483.422596262767
 20
1697.682495845929
 11
3480.580096262766
 21
1695.976995845929
  0
LINE
  5
2BC
100
AcDbEntity
  8
0
  6
ByLayer
 62
  256
370
   -1
100
AcDbLine
 10
3480.580096262766
 20
1695.976995845929
 11
3479.443096262766
 21
1695.408495845929
  0
LINE
  5
2BD
100
AcDbEntity
  8
0
  6
ByLayer
 62
  256
370
   -1
100
AcDbLine
 10
3479.443096262766
 20
1695.408495845929
 11
3477.737596262765
 21
1695.976995845929
  0
LINE
  5
2BE
100
AcDbEntity
  8
0
  6
ByLayer
 62
  256
370
   -1
100
AcDbLine
 10
3477.737596262765
 20
1695.976995845929
 11
3476.316346262765
 21
1698.53524584593
  0
LINE
  5
2BF
100
AcDbEntity
  8
0
  6
ByLayer
 62
  256
370
   -1
100
AcDbLine
 10
3476.316346262765
 20
1698.53524584593
 11
3476.316346262765
 21
1700.24074584593
  0
LINE
  5
2C0
100
AcDbEntity
  8
0
  6
ByLayer
 62
  256
370
   -1
100
AcDbLine
 10
3476.316346262765
 20
1700.24074584593
 11
3474.895096262765
 21
1701.09349584593
  0
LINE
  5
2C1
100
AcDbEntity
  8
0
  6
ByLayer
 62
  256
370
   -1
100
AcDbLine
 10
3474.895096262765
 20
1701.09349584593
 11
3473.473846262764
 21
1701.377745845931
  0
LINE
  5
2C2
100
AcDbEntity
  8
0
  6
ByLayer
 62
  256
370
   -1
100
AcDbLine
 10
3473.473846262764
 20
1701.377745845931
 11
3471.484096262765
 21
1701.377745845931
  0
LINE
  5
2C3
100
AcDbEntity
  8
0
  6
ByLayer
 62
  256
370
   -1
100
AcDbLine
 10
3471.484096262765
 20
1701.377745845931
 11
3469.494346262764
 21
1701.377745845931
  0
LINE
  5
2C4
100
AcDbEntity
  8
0
  6
ByLayer
 62
  256
370
   -1
100
AcDbLine
 10
3277.05709626276
 20
1688.870745845957
 11
3276.48859626276
 21
1687.733745845957
  0
LINE
  5
2C5
100
AcDbEntity
  8
0
  6
ByLayer
 62
  256
370
   -1
100
AcDbLine
 10
3276.48859626276
 20
1687.733745845957
 11
3276.20434626276
 21
1683.754245845956
  0
LINE
  5
2C6
100
AcDbEntity
  8
0
  6
ByLayer
 62
  256
370
   -1
100
AcDbLine
 10
3276.20434626276
 20
1683.754245845956
 11
3276.20434626276
 21
1682.617245845956
  0
LINE
  5
2C7
100
AcDbEntity
  8
0
  6
ByLayer
 62
  256
370
   -1
100
AcDbLine
 10
3276.20434626276
 20
1682.617245845956
 11
3276.20434626276
 21
1680.627495845956
  0
LINE
  5
2C8
100
AcDbEntity
  8
0
  6
ByLayer
 62
  256
370
   -1
100
AcDbLine
 10
3276.20434626276
 20
1680.627495845956
 11
3275.92009626276
 21
1678.637745845955
  0
LINE
  5
2C9
100
AcDbEntity
  8
0
  6
ByLayer
 62
  256
370
   -1
100
AcDbLine
 10
3275.92009626276
 20
1678.637745845955
 11
3276.20434626276
 21
1674.089745845954
  0
LINE
  5
2CA
100
AcDbEntity
  8
0
  6
ByLayer
 62
  256
370
   -1
100
AcDbLine
 10
3276.20434626276
 20
1674.089745845954
 11
3276.20434626276
 21
1671.247245845954
  0
LINE
  5
2CB
100
AcDbEntity
  8
0
  6
ByLayer
 62
  256
370
   -1
100
AcDbLine
 10
3276.20434626276
 20
1671.247245845954
 11
3276.48859626276
 21
1668.404745845953
  0
LINE
  5
2CC
100
AcDbEntity
  8
0
  6
ByLayer
 62
  256
370
   -1
100
AcDbLine
 10
3276.48859626276
 20
1668.404745845953
 11
3278.19409626276
 21
1666.414995845953
  0
LINE
  5
2CD
100
AcDbEntity
  8
0
  6
ByLayer
 62
  256
370
   -1
100
AcDbLine
 10
3278.19409626276
 20
1666.414995845953
 11
3280.183846262761
 21
1663.856745845952
  0
LINE
  5
2CE
100
AcDbEntity
  8
0
  6
ByLayer
 62
  256
370
   -1
100
AcDbLine
 10
3280.183846262761
 20
1663.856745845952
 11
3283.310596262762
 21
1662.719745845952
  0
LINE
  5
2CF
100
AcDbEntity
  8
0
  6
ByLayer
 62
  256
370
   -1
100
AcDbLine
 10
3283.310596262762
 20
1662.719745845952
 11
3287.574346262763
 21
1661.866995845952
  0
LINE
  5
2D0
100
AcDbEntity
  8
0
  6
ByLayer
 62
  256
370
   -1
100
AcDbLine
 10
3287.574346262763
 20
1661.866995845952
 11
3291.553846262763
 21
1661.298495845952
  0
LINE
  5
2D1
100
AcDbEntity
  8
0
  6
ByLayer
 62
  256
370
   -1
100
AcDbLine
 10
3291.553846262763
 20
1661.298495845952
 11
3294.112096262764
 21
1661.866995845952
  0
LINE
  5
2D2
100
AcDbEntity
  8
0
  6
ByLayer
 62
  256
370
   -1
100
AcDbLine
 10
3294.112096262764
 20
1661.866995845952
 11
3297.238846262765
 21
1663.572495845952
  0
LINE
  5
2D3
100
AcDbEntity
  8
0
  6
ByLayer
 62
  256
370
   -1
100
AcDbLine
 10
3297.238846262765
 20
1663.572495845952
 11
3299.228596262765
 21
1665.277995845953
  0
LINE
  5
2D4
100
AcDbEntity
  8
0
  6
ByLayer
 62
  256
370
   -1
100
AcDbLine
 10
3299.228596262765
 20
1665.277995845953
 11
3300.934096262765
 21
1666.699245845953
  0
LINE
  5
2D5
100
AcDbEntity
  8
0
  6
ByLayer
 62
  256
370
   -1
100
AcDbLine
 10
3300.934096262765
 20
1666.699245845953
 11
3301.786846262765
 21
1669.541745845954
  0
LINE
  5
2D6
100
AcDbEntity
  8
0
  6
ByLayer
 62
  256
370
   -1
100
AcDbLine
 10
3301.786846262765
 20
1669.541745845954
 11
3302.355346262766
 21
1672.668495845954
  0
LINE
  5
2D7
100
AcDbEntity
  8
0
  6
ByLayer
 62
  256
370
   -1
100
AcDbLine
 10
3302.355346262766
 20
1672.668495845954
 11
3303.492346262766
 21
1675.510995845955
  0
LINE
  5
2D8
100
AcDbEntity
  8
0
  6
ByLayer
 62
  256
370
   -1
100
AcDbLine
 10
3303.492346262766
 20
1675.510995845955
 11
3303.492346262766
 21
1678.637745845955
  0
LINE
  5
2D9
100
AcDbEntity
  8
0
  6
ByLayer
 62
  256
370
   -1
100
AcDbLine
 10
3303.492346262766
 20
1678.637745845955
 11
3303.492346262766
 21
1683.185745845956
  0
LINE
  5
2DA
100
AcDbEntity
  8
0
  6
ByLayer
 62
  256
370
   -1
100
AcDbLine
 10
3303.492346262766
 20
1683.185745845956
 11
3303.776596262766
 21
1687.165245845957
  0
LINE
  5
2DB
100
AcDbEntity
  8
0
  6
ByLayer
 62
  256
370
   -1
100
AcDbLine
 10
3303.776596262766
 20
1687.165245845957
 11
3303.776596262766
 21
1691.144745845958
  0
LINE
  5
2DC
100
AcDbEntity
  8
0
  6
ByLayer
 62
  256
370
   -1
100
AcDbLine
 10
3303.776596262766
 20
1691.144745845958
 11
3302.071096262766
 21
1693.134495845958
  0
LINE
  5
2DD
100
AcDbEntity
  8
0
  6
ByLayer
 62
  256
370
   -1
100
AcDbLine
 10
3302.071096262766
 20
1693.134495845958
 11
3299.512846262765
 21
1695.124245845959
  0
LINE
  5
2DE
100
AcDbEntity
  8
0
  6
ByLayer
 62
  256
370
   -1
100
AcDbLine
 10
3299.512846262765
 20
1695.124245845959
 11
3297.523096262764
 21
1695.124245845959
  0
LINE
  5
2DF
100
AcDbEntity
  8
0
  6
ByLayer
 62
  256
370
   -1
100
AcDbLine
 10
3297.523096262764
 20
1695.124245845959
 11
3294.964846262764
 21
1695.976995845959
  0
LINE
  5
2E0
100
AcDbEntity
  8
0
  6
ByLayer
 62
  256
370
   -1
100
AcDbLine
 10
3294.964846262764
 20
1695.976995845959
 11
3292.122346262764
 21
1696.261245845959
  0
LINE
  5
2E1
100
AcDbEntity
  8
0
  6
ByLayer
 62
  256
370
   -1
100
AcDbLine
 10
3292.122346262764
 20
1696.261245845959
 11
3288.142846262762
 21
1696.261245845959
  0
LINE
  5
2E2
100
AcDbEntity
  8
0
  6
ByLayer
 62
  256
370
   -1
100
AcDbLine
 10
3288.142846262762
 20
1696.261245845959
 11
3285.016096262762
 21
1696.261245845959
  0
LINE
  5
2E3
100
AcDbEntity
  8
0
  6
ByLayer
 62
  256
370
   -1
100
AcDbLine
 10
3285.016096262762
 20
1696.261245845959
 11
3279.899596262761
 21
1693.418745845958
  0
LINE
  5
2E4
100
AcDbEntity
  8
0
  6
ByLayer
 62
  256
370
   -1
100
AcDbLine
 10
3279.899596262761
 20
1693.418745845958
 11
3276.48859626276
 21
1690.291995845958
  0
LINE
  5
2E5
100
AcDbEntity
  8
0
  6
ByLayer
 62
  256
370
   -1
100
AcDbLine
 10
3276.48859626276
 20
1690.291995845958
 11
3275.63584626276
 21
1689.439245845958
  0
LINE
  5
2E6
100
AcDbEntity
  8
0
  6
ByLayer
 62
  256
370
   -1
100
AcDbLine
 10
3215.197261985919
 20
1679.396866941779
 11
3214.522096262711
 21
1673.521245845925
  0
LINE
  5
2E7
100
AcDbEntity
  8
0
  6
ByLayer
 62
  256
370
   -1
100
AcDbLine
 10
3215.090596262712
 20
1694.271495845929
 11
3215.299031278546
 21
1685.91010166995
  0
LINE
  5
2E8
100
AcDbEntity
  8
0
  6
ByLayer
 62
  256
370
   -1
100
AcDbLine
 10
3215.299031278546
 20
1685.91010166995
 11
3215.197261985919
 21
1679.396866941779
  0
LINE
  5
2E9
100
AcDbEntity
  8
0
  6
ByLayer
 62
  256
370
   -1
100
AcDbLine
 10
3265.687096262722
 20
1640.263995845918
 11
3273.930346262724
 21
1640.832495845918
  0
ENDSEC
  0
SECTION
  2
OBJECTS
  0
DICTIONARY
  5
C
330
0
100
AcDbDictionary
281
    1
  3
ACAD_GROUP
350
D
  0
DICTIONARY
  5
D
330
C
100
AcDbDictionary
281
    1
  0
ENDSEC
  0
EOF
