999
dxfrw 0.6.3
  0
SECTION
  2
HEADER
  9
$ACADVER
  1
AC1021
  9
$DWGCODEPAGE
  3
ANSI_1252
  9
$INSBASE
 10
0
 20
0
 30
0
  9
$EXTMIN
 10
-2.194182859365128
 20
0
 30
0
  9
$EXTMAX
 10
44.26641447670977
 20
18.84722151284513
 30
0
  9
$LIMMIN
 10
0
 20
0
  9
$LIMMAX
 10
420
 20
297
  9
$ORTHOMODE
 70
    0
  9
$REGENMODE
 70
    1
  9
$FILLMODE
 70
    1
  9
$QTEXTMODE
 70
    0
  9
$MIRRTEXT
 70
    0
  9
$LTSCALE
 40
1
  9
$ATTMODE
 70
    0
  9
$TEXTSIZE
 40
2.5
  9
$TRACEWID
 40
15.68
  9
$TEXTSTYLE
  7
STANDARD
  9
$CLAYER
  8
0
  9
$CELTYPE
  6
BYLAYER
  9
$CECOLOR
 62
  256
  9
$CELTSCALE
 40
1
  9
$DISPSILH
 70
    0
  9
$DIMSCALE
 40
1
  9
$DIMASZ
 40
2.5
  9
$DIMEXO
 40
0.625
  9
$DIMDLI
 40
3.75
  9
$DIMRND
 40
0
  9
$DIMDLE
 40
0
  9
$DIMEXE
 40
1.25
  9
$DIMTP
 40
0
  9
$DIMTM
 40
0
  9
$DIMTXT
 40
2.5
  9
$DIMCEN
 40
2.5
  9
$DIMTSZ
 40
0
  9
$DIMTOL
 70
    0
  9
$DIMLIM
 70
    0
  9
$DIMTIH
 70
    0
  9
$DIMTOH
 70
    0
  9
$DIMSE1
 70
    0
  9
$DIMSE2
 70
    0
  9
$DIMTAD
 70
    1
  9
$DIMZIN
 70
    8
  9
$DIMBLK
  1

  9
$DIMASO
 70
    1
  9
$DIMSHO
 70
    1
  9
$DIMPOST
  1

  9
$DIMAPOST
  1

  9
$DIMALT
 70
    0
  9
$DIMALTD
 70
    3
  9
$DIMALTF
 40
0.03937
  9
$DIMLFAC
 40
1
  9
$DIMTOFL
 70
    1
  9
$DIMTVP
 40
0
  9
$DIMTIX
 70
    0
  9
$DIMSOXD
 70
    0
  9
$DIMSAH
 70
    0
  9
$DIMBLK1
  1

  9
$DIMBLK2
  1

  9
$DIMSTYLE
  2
STANDARD
  9
$DIMCLRD
 70
    0
  9
$DIMCLRE
 70
    0
  9
$DIMCLRT
 70
    0
  9
$DIMTFAC
 40
1
  9
$DIMGAP
 40
0.625
  9
$DIMJUST
 70
    0
  9
$DIMSD1
 70
    0
  9
$DIMSD2
 70
    0
  9
$DIMTOLJ
 70
    0
  9
$DIMTZIN
 70
    8
  9
$DIMALTZ
 70
    0
  9
$DIMALTTZ
 70
    0
  9
$DIMUPT
 70
    0
  9
$DIMDEC
 70
    2
  9
$DIMTDEC
 70
    2
  9
$DIMALTU
 70
    2
  9
$DIMALTTD
 70
    3
  9
$DIMTXSTY
  7
STANDARD
  9
$DIMAUNIT
 70
    0
  9
$DIMADEC
 70
    0
  9
$DIMALTRND
 40
0
  9
$DIMAZIN
 70
    0
  9
$DIMDSEP
 70
   44
  9
$DIMATFIT
 70
    3
  9
$DIMFRAC
 70
    0
  9
$DIMLDRBLK
  1
STANDARD
  9
$DIMLUNIT
 70
    2
  9
$DIMLWD
 70
   -2
  9
$DIMLWE
 70
   -2
  9
$DIMTMOVE
 70
    0
  9
$DIMFXL
 40
1
  9
$DIMFXLON
 70
    0
  9
$DIMJOGANG
 40
0.7854
  9
$DIMTFILL
 70
    0
  9
$DIMTFILLCLR
 70
    0
  9
$DIMARCSYM
 70
    0
  9
$DIMLTYPE
  6

  9
$DIMLTEX1
  6

  9
$DIMLTEX2
  6

  9
$LUNITS
 70
    2
  9
$LUPREC
 70
    4
  9
$SKETCHINC
 40
1
  9
$FILLETRAD
 40
0
  9
$AUNITS
 70
    0
  9
$AUPREC
 70
    2
  9
$MENU
  1
.
  9
$ELEVATION
 40
0
  9
$PELEVATION
 40
0
  9
$THICKNESS
 40
0
  9
$LIMCHECK
 70
    0
  9
$CHAMFERA
 40
0
  9
$CHAMFERB
 40
0
  9
$CHAMFERC
 40
0
  9
$CHAMFERD
 40
0
  9
$SKPOLY
 70
    0
  9
$USRTIMER
 70
    1
  9
$ANGBASE
 50
0
  9
$ANGDIR
 70
    0
  9
$PDMODE
 70
   34
  9
$PDSIZE
 40
0
  9
$PLINEWID
 40
0
  9
$SPLFRAME
 70
    0
  9
$SPLINETYPE
 70
    2
  9
$SPLINESEGS
 70
    8
  9
$HANDSEED
  5
20000
  9
$SURFTAB1
 70
    6
  9
$SURFTAB2
 70
    6
  9
$SURFTYPE
 70
    6
  9
$SURFU
 70
    6
  9
$SURFV
 70
    6
  9
$UCSBASE
  2

  9
$UCSNAME
  2

  9
$UCSORG
 10
0
 20
0
 30
0
  9
$UCSXDIR
 10
1
 20
0
 30
0
  9
$UCSYDIR
 10
0
 20
1
 30
0
  9
$UCSORTHOREF
  2

  9
$UCSORTHOVIEW
 70
    0
  9
$UCSORGTOP
 10
0
 20
0
 30
0
  9
$UCSORGBOTTOM
 10
0
 20
0
 30
0
  9
$UCSORGLEFT
 10
0
 20
0
 30
0
  9
$UCSORGRIGHT
 10
0
 20
0
 30
0
  9
$UCSORGFRONT
 10
0
 20
0
 30
0
  9
$UCSORGBACK
 10
0
 20
0
 30
0
  9
$PUCSBASE
  2

  9
$PUCSNAME
  2

  9
$PUCSORG
 10
0
 20
0
 30
0
  9
$PUCSXDIR
 10
1
 20
0
 30
0
  9
$PUCSYDIR
 10
0
 20
1
 30
0
  9
$PUCSORTHOREF
  2

  9
$PUCSORTHOVIEW
 70
    0
  9
$PUCSORGTOP
 10
0
 20
0
 30
0
  9
$PUCSORGBOTTOM
 10
0
 20
0
 30
0
  9
$PUCSORGLEFT
 10
0
 20
0
 30
0
  9
$PUCSORGRIGHT
 10
0
 20
0
 30
0
  9
$PUCSORGFRONT
 10
0
 20
0
 30
0
  9
$PUCSORGBACK
 10
0
 20
0
 30
0
  9
$USERI1
 70
    0
  9
$USERI2
 70
    0
  9
$USERI3
 70
    0
  9
$USERI4
 70
    0
  9
$USERI5
 70
    0
  9
$USERR1
 40
0
  9
$USERR2
 40
0
  9
$USERR3
 40
0
  9
$USERR4
 40
0
  9
$USERR5
 40
0
  9
$WORLDVIEW
 70
    1
  9
$SHADEDGE
 70
    3
  9
$SHADEDIF
 70
   70
  9
$TILEMODE
 70
    1
  9
$MAXACTVP
 70
   64
  9
$PINSBASE
 10
0
 20
0
 30
0
  9
$PLIMCHECK
 70
    0
  9
$PEXTMIN
 10
0
 20
0
 30
0
  9
$PEXTMAX
 10
0
 20
0
 30
0
  9
$SNAPSTYLE
 70
    0
  9
$PLIMMIN
 10
0
 20
0
  9
$PLIMMAX
 10
210
 20
297
  9
$UNITMODE
 70
    0
  9
$VISRETAIN
 70
    1
  9
$PLINEGEN
 70
    0
  9
$PSLTSCALE
 70
    1
  9
$TREEDEPTH
 70
 3020
  9
$CMLSTYLE
  2
Standard
  9
$CMLJUST
 70
    0
  9
$CMLSCALE
 40
20
  9
$PROXYGRAPHICS
 70
    1
  9
$MEASUREMENT
 70
    1
  9
$CELWEIGHT
370
   -1
  9
$ENDCAPS
280
    0
  9
$JOINSTYLE
280
    0
  9
$LWDISPLAY
290
    0
  9
$INSUNITS
 70
    4
  9
$HYPERLINKBASE
  1

  9
$STYLESHEET
  1

  9
$XEDIT
290
    1
  9
$CEPSNTYPE
380
    0
  9
$PSTYLEMODE
290
    1
  9
$EXTNAMES
290
    1
  9
$PSVPSCALE
 40
1
  9
$OLESTARTUP
290
    0
  9
$SORTENTS
280
  127
  9
$INDEXCTL
280
    0
  9
$HIDETEXT
280
    1
  9
$XCLIPFRAME
290
    0
  9
$HALOGAP
280
    0
  9
$OBSCOLOR
 70
  257
  9
$OBSLTYPE
280
    0
  9
$INTERSECTIONDISPLAY
280
    0
  9
$INTERSECTIONCOLOR
 70
  257
  9
$DIMASSOC
280
    1
  9
$PROJECTNAME
  1

  9
$CAMERADISPLAY
290
    0
  9
$LENSLENGTH
 40
50
  9
$CAMERAHEIGHT
 40
0
  9
$STEPSPERSEC
 40
2
  9
$STEPSIZE
 40
50
  9
$3DDWFPREC
 40
2
  9
$PSOLWIDTH
 40
5
  9
$PSOLHEIGHT
 40
80
  9
$LOFTANG1
 40
1.570796326794897
  9
$LOFTANG2
 40
1.570796326794897
  9
$LOFTMAG1
 40
0
  9
$LOFTMAG2
 40
0
  9
$LOFTPARAM
 70
    7
  9
$LOFTNORMALS
280
    1
  9
$LATITUDE
 40
1
  9
$LONGITUDE
 40
1
  9
$NORTHDIRECTION
 40
0
  9
$TIMEZONE
 70
-8000
  9
$LIGHTGLYPHDISPLAY
280
    1
  9
$TILEMODELIGHTSYNCH
280
    1
  9
$SOLIDHIST
280
    1
  9
$SHOWHIST
280
    1
  9
$DWFFRAME
280
    2
  9
$DGNFRAME
280
    0
  9
$REALWORLDSCALE
290
    1
  9
$INTERFERECOLOR
 62
    1
  9
$CSHADOW
280
    0
  9
$SHADOWPLANELOCATION
 40
0
  0
ENDSEC
  0
SECTION
  2
CLASSES
  0
ENDSEC
  0
SECTION
  2
TABLES
  0
TABLE
  2
VPORT
  5
8
330
0
100
AcDbSymbolTable
 70
    1
  0
VPORT
  5
31
330
2
100
AcDbSymbolTableRecord
100
AcDbViewportTableRecord
  2
*ACTIVE
 70
    0
 10
0
 20
0
 11
1
 21
1
 12
28.83615382048997
 22
14.94373596426433
 13
0
 23
0
 14
10
 24
10
 15
10
 25
10
 16
0
 26
0
 36
1
 17
0
 27
0
 37
0
 40
38.59839339513501
 41
2.037613488975357
 42
50
 43
0
 44
0
 50
0
 51
0
 71
    0
 72
  100
 73
    1
 74
    3
 75
    0
 76
    1
 77
    0
 78
    0
281
    0
 65
    1
110
0
120
0
130
0
111
1
121
0
131
0
112
0
122
1
132
0
 79
    0
146
0
348
10020
 60
    7
 61
    5
292
1
282
    1
141
0
142
0
 63
  250
421
3358443
  0
ENDTAB
  0
TABLE
  2
LTYPE
  5
5
330
0
100
AcDbSymbolTable
 70
    4
  0
LTYPE
  5
14
330
5
100
AcDbSymbolTableRecord
100
AcDbLinetypeTableRecord
  2
ByBlock
 70
    0
  3

 72
   65
 73
    0
 40
0
  0
LTYPE
  5
15
330
5
100
AcDbSymbolTableRecord
100
AcDbLinetypeTableRecord
  2
ByLayer
 70
    0
  3

 72
   65
 73
    0
 40
0
  0
LTYPE
  5
16
330
5
100
AcDbSymbolTableRecord
100
AcDbLinetypeTableRecord
  2
Continuous
 70
    0
  3
Solid line
 72
   65
 73
    0
 40
0
  0
LTYPE
  5
32
330
5
100
AcDbSymbolTableRecord
100
AcDbLinetypeTableRecord
  2
DOT
 70
    0
  3
Dot . . . . . . . . . . . . . . . . . . . . . .
 72
   65
 73
    2
 40
6.35
 49
0
 74
    0
 49
-6.35
 74
    0
  0
LTYPE
  5
33
330
5
100
AcDbSymbolTableRecord
100
AcDbLinetypeTableRecord
  2
DOTTINY
 70
    0
  3
Dot (.15x) .....................................
 72
   65
 73
    2
 40
0.9525
 49
0
 74
    0
 49
-0.9525
 74
    0
  0
LTYPE
  5
34
330
5
100
AcDbSymbolTableRecord
100
AcDbLinetypeTableRecord
  2
DOT2
 70
    0
  3
Dot (.5x) .....................................
 72
   65
 73
    2
 40
3.175
 49
0
 74
    0
 49
-3.175
 74
    0
  0
LTYPE
  5
35
330
5
100
AcDbSymbolTableRecord
100
AcDbLinetypeTableRecord
  2
DOTX2
 70
    0
  3
Dot (2x) .  .  .  .  .  .  .  .  .  .  .  .  .
 72
   65
 73
    2
 40
12.7
 49
0
 74
    0
 49
-12.7
 74
    0
  0
LTYPE
  5
36
330
5
100
AcDbSymbolTableRecord
100
AcDbLinetypeTableRecord
  2
DASHED
 70
    0
  3
Dashed _ _ _ _ _ _ _ _ _ _ _ _ _ _ _ _ _
 72
   65
 73
    2
 40
19.05
 49
12.7
 74
    0
 49
-6.35
 74
    0
  0
LTYPE
  5
37
330
5
100
AcDbSymbolTableRecord
100
AcDbLinetypeTableRecord
  2
DASHEDTINY
 70
    0
  3
Dashed (.15x) _ _ _ _ _ _ _ _ _ _ _ _ _ _ _ _ _
 72
   65
 73
    2
 40
2.8575
 49
1.905
 74
    0
 49
-0.9525
 74
    0
  0
LTYPE
  5
38
330
5
100
AcDbSymbolTableRecord
100
AcDbLinetypeTableRecord
  2
DASHED2
 70
    0
  3
Dashed (.5x) _ _ _ _ _ _ _ _ _ _ _ _ _ _ _ _ _
 72
   65
 73
    2
 40
9.524999999999999
 49
6.35
 74
    0
 49
-3.175
 74
    0
  0
LTYPE
  5
39
330
5
100
AcDbSymbolTableRecord
100
AcDbLinetypeTableRecord
  2
DASHEDX2
 70
    0
  3
Dashed (2x) ____  ____  ____  ____  ____  ___
 72
   65
 73
    2
 40
38.09999999999999
 49
25.4
 74
    0
 49
-12.7
 74
    0
  0
LTYPE
  5
3A
330
5
100
AcDbSymbolTableRecord
100
AcDbLinetypeTableRecord
  2
DASHDOT
 70
    0
  3
Dash dot __ . __ . __ . __ . __ . __ . __ . __
 72
   65
 73
    4
 40
25.4
 49
12.7
 74
    0
 49
-6.35
 74
    0
 49
0
 74
    0
 49
-6.35
 74
    0
  0
LTYPE
  5
3B
330
5
100
AcDbSymbolTableRecord
100
AcDbLinetypeTableRecord
  2
DASHDOTTINY
 70
    0
  3
Dash dot (.15x) _._._._._._._._._._._._._._._.
 72
   65
 73
    4
 40
3.81
 49
1.905
 74
    0
 49
-0.9525
 74
    0
 49
0
 74
    0
 49
-0.9525
 74
    0
  0
LTYPE
  5
3C
330
5
100
AcDbSymbolTableRecord
100
AcDbLinetypeTableRecord
  2
DASHDOT2
 70
    0
  3
Dash dot (.5x) _._._._._._._._._._._._._._._.
 72
   65
 73
    4
 40
12.7
 49
6.35
 74
    0
 49
-3.175
 74
    0
 49
0
 74
    0
 49
-3.175
 74
    0
  0
LTYPE
  5
3D
330
5
100
AcDbSymbolTableRecord
100
AcDbLinetypeTableRecord
  2
DASHDOTX2
 70
    0
  3
Dash dot (2x) ____  .  ____  .  ____  .  ___
 72
   65
 73
    4
 40
50.8
 49
25.4
 74
    0
 49
-12.7
 74
    0
 49
0
 74
    0
 49
-12.7
 74
    0
  0
LTYPE
  5
3E
330
5
100
AcDbSymbolTableRecord
100
AcDbLinetypeTableRecord
  2
DIVIDE
 70
    0
  3
Divide ____ . . ____ . . ____ . . ____ . . ____
 72
   65
 73
    6
 40
31.75
 49
12.7
 74
    0
 49
-6.35
 74
    0
 49
0
 74
    0
 49
-6.35
 74
    0
 49
0
 74
    0
 49
-6.35
 74
    0
  0
LTYPE
  5
3F
330
5
100
AcDbSymbolTableRecord
100
AcDbLinetypeTableRecord
  2
DIVIDETINY
 70
    0
  3
Divide (.15x) __..__..__..__..__..__..__..__.._
 72
   65
 73
    6
 40
4.7625
 49
1.905
 74
    0
 49
-0.9525
 74
    0
 49
0
 74
    0
 49
-0.9525
 74
    0
 49
0
 74
    0
 49
-0.9525
 74
    0
  0
LTYPE
  5
40
330
5
100
AcDbSymbolTableRecord
100
AcDbLinetypeTableRecord
  2
DIVIDE2
 70
    0
  3
Divide (.5x) __..__..__..__..__..__..__..__.._
 72
   65
 73
    6
 40
15.875
 49
6.35
 74
    0
 49
-3.175
 74
    0
 49
0
 74
    0
 49
-3.175
 74
    0
 49
0
 74
    0
 49
-3.175
 74
    0
  0
LTYPE
  5
41
330
5
100
AcDbSymbolTableRecord
100
AcDbLinetypeTableRecord
  2
DIVIDEX2
 70
    0
  3
Divide (2x) ________  .  .  ________  .  .  _
 72
   65
 73
    6
 40
63.5
 49
25.4
 74
    0
 49
-12.7
 74
    0
 49
0
 74
    0
 49
-12.7
 74
    0
 49
0
 74
    0
 49
-12.7
 74
    0
  0
LTYPE
  5
42
330
5
100
AcDbSymbolTableRecord
100
AcDbLinetypeTableRecord
  2
BORDER
 70
    0
  3
Border __ __ . __ __ . __ __ . __ __ . __ __ .
 72
   65
 73
    6
 40
44.45
 49
12.7
 74
    0
 49
-6.35
 74
    0
 49
12.7
 74
    0
 49
-6.35
 74
    0
 49
0
 74
    0
 49
-6.35
 74
    0
  0
LTYPE
  5
43
330
5
100
AcDbSymbolTableRecord
100
AcDbLinetypeTableRecord
  2
BORDERTINY
 70
    0
  3
Border (.15x) __.__.__.__.__.__.__.__.__.__.__.
 72
   65
 73
    6
 40
6.6675
 49
1.905
 74
    0
 49
-0.9525
 74
    0
 49
1.905
 74
    0
 49
-0.9525
 74
    0
 49
0
 74
    0
 49
-0.9525
 74
    0
  0
LTYPE
  5
44
330
5
100
AcDbSymbolTableRecord
100
AcDbLinetypeTableRecord
  2
BORDER2
 70
    0
  3
Border (.5x) __.__.__.__.__.__.__.__.__.__.__.
 72
   65
 73
    6
 40
22.225
 49
6.35
 74
    0
 49
-3.175
 74
    0
 49
6.35
 74
    0
 49
-3.175
 74
    0
 49
0
 74
    0
 49
-3.175
 74
    0
  0
LTYPE
  5
45
330
5
100
AcDbSymbolTableRecord
100
AcDbLinetypeTableRecord
  2
BORDERX2
 70
    0
  3
Border (2x) ____  ____  .  ____  ____  .  ___
 72
   65
 73
    6
 40
88.89999999999999
 49
25.4
 74
    0
 49
-12.7
 74
    0
 49
25.4
 74
    0
 49
-12.7
 74
    0
 49
0
 74
    0
 49
-12.7
 74
    0
  0
LTYPE
  5
46
330
5
100
AcDbSymbolTableRecord
100
AcDbLinetypeTableRecord
  2
CENTER
 70
    0
  3
Center ____ _ ____ _ ____ _ ____ _ ____ _ ____
 72
   65
 73
    4
 40
50.8
 49
31.75
 74
    0
 49
-6.35
 74
    0
 49
6.35
 74
    0
 49
-6.35
 74
    0
  0
LTYPE
  5
47
330
5
100
AcDbSymbolTableRecord
100
AcDbLinetypeTableRecord
  2
CENTERTINY
 70
    0
  3
Center (.15x) ___ _ ___ _ ___ _ ___ _ ___ _ ___
 72
   65
 73
    4
 40
7.619999999999999
 49
4.7625
 74
    0
 49
-0.9525
 74
    0
 49
0.9525
 74
    0
 49
-0.9525
 74
    0
  0
LTYPE
  5
48
330
5
100
AcDbSymbolTableRecord
100
AcDbLinetypeTableRecord
  2
CENTER2
 70
    0
  3
Center (.5x) ___ _ ___ _ ___ _ ___ _ ___ _ ___
 72
   65
 73
    4
 40
28.575
 49
19.05
 74
    0
 49
-3.175
 74
    0
 49
3.175
 74
    0
 49
-3.175
 74
    0
  0
LTYPE
  5
49
330
5
100
AcDbSymbolTableRecord
100
AcDbLinetypeTableRecord
  2
CENTERX2
 70
    0
  3
Center (2x) ________  __  ________  __  _____
 72
   65
 73
    4
 40
101.6
 49
63.5
 74
    0
 49
-12.7
 74
    0
 49
12.7
 74
    0
 49
-12.7
 74
    0
  0
ENDTAB
  0
TABLE
  2
LAYER
  5
2
330
0
100
AcDbSymbolTable
 70
    1
  0
LAYER
  5
10
330
2
100
AcDbSymbolTableRecord
100
AcDbLayerTableRecord
  2
0
 70
    0
 62
    7
  6
CONTINUOUS
370
    0
390
F
  0
ENDTAB
  0
TABLE
  2
STYLE
  5
3
330
0
100
AcDbSymbolTable
 70
    3
  0
STYLE
  5
4A
330
2
100
AcDbSymbolTableRecord
100
AcDbTextStyleTableRecord
  2
Standard
 70
    0
 40
0
 41
1
 50
0
 71
    0
 42
1
  3
txt
  4

  0
ENDTAB
  0
TABLE
  2
VIEW
  5
6
330
0
100
AcDbSymbolTable
 70
    0
  0
ENDTAB
  0
TABLE
  2
UCS
  5
7
330
0
100
AcDbSymbolTable
 70
    0
  0
ENDTAB
  0
TABLE
  2
APPID
  5
9
330
0
100
AcDbSymbolTable
 70
    1
  0
APPID
  5
12
330
9
100
AcDbSymbolTableRecord
100
AcDbRegAppTableRecord
  2
ACAD
 70
    0
  0
APPID
  5
4B
330
9
100
AcDbSymbolTableRecord
100
AcDbRegAppTableRecord
  2
LibreCad
 70
    0
  0
ENDTAB
  0
TABLE
  2
DIMSTYLE
  5
A
330
0
100
AcDbSymbolTable
 70
    1
100
AcDbDimStyleTable
 71
    1
  0
DIMSTYLE
105
4C
330
A
100
AcDbSymbolTableRecord
100
AcDbDimStyleTableRecord
  2
Standard
 70
    0
 40
1
 41
2.5
 42
0.625
 43
0.38
 44
1.25
 45
0
 46
0
 47
0
 48
0
 49
1
140
2.5
141
0.09
142
0
143
25.4
144
1
145
0
146
1
147
0.625
148
0
 71
    0
 72
    0
 73
    0
 74
    1
 75
    0
 76
    0
 77
    0
 78
    1
 79
    0
170
    0
171
    2
172
    0
173
    0
174
    0
175
    0
176
    0
177
    0
178
    0
179
    0
271
    2
272
    4
273
    2
274
    2
275
    0
276
    0
277
    2
278
    0
279
    0
280
    0
281
    0
282
    0
283
    1
284
    0
285
    0
286
    0
288
    0
289
    3
340
standard
341

371
   -2
372
   -2
  0
ENDTAB
  0
TABLE
  2
BLOCK_RECORD
  5
1
330
0
100
AcDbSymbolTable
 70
    2
  0
BLOCK_RECORD
  5
1F
330
1
100
AcDbSymbolTableRecord
100
AcDbBlockTableRecord
  2
*Model_Space
 70
    0
280
    1
281
    0
  0
BLOCK_RECORD
  5
1E
330
1
100
AcDbSymbolTableRecord
100
AcDbBlockTableRecord
  2
*Paper_Space
 70
    0
280
    1
281
    0
  0
ENDTAB
  0
ENDSEC
  0
SECTION
  2
BLOCKS
  0
BLOCK
  5
20
330
1F
100
AcDbEntity
  8
0
100
AcDbBlockBegin
  2
*Model_Space
 70
    0
 10
0
 20
0
 30
0
  3
*Model_Space
  1

  0
ENDBLK
  5
21
330
1F
100
AcDbEntity
  8
0
100
AcDbBlockEnd
  0
BLOCK
  5
1C
330
1B
100
AcDbEntity
  8
0
100
AcDbBlockBegin
  2
*Paper_Space
 70
    0
 10
0
 20
0
 30
0
  3
*Paper_Space
  1

  0
ENDBLK
  5
1D
330
1F
100
AcDbEntity
  8
0
100
AcDbBlockEnd
  0
ENDSEC
  0
SECTION
  2
ENTITIES
  0
LINE
  5
4D
100
AcDbEntity
  8
0
  6
ByLayer
 62
  256
370
   -1
100
AcDbLine
 10
1.015468649992554
 20
7.559474912454846
 11
1.009834231800423
 21
6.669815102207849
  0
LINE
  5
4E
100
AcDbEntity
  8
0
  6
ByLayer
 62
  256
370
   -1
100
AcDbLine
 10
1.009834231800423
 20
6.669815102207849
 11
1.512355540088661
 21
6.681196266078643
  0
LINE
  5
4F
100
AcDbEntity
  8
0
  6
ByLayer
 62
  256
370
   -1
100
AcDbLine
 10
1.512355540088661
 20
6.681196266078643
 11
1.576265152593746
 21
3.85934584261372
  0
LINE
  5
50
100
AcDbEntity
  8
0
  6
ByLayer
 62
  256
370
   -1
100
AcDbLine
 10
1.576265152593746
 20
3.85934584261372
 11
1.124992666594776
 21
3.862017139352474
  0
LINE
  5
51
100
AcDbEntity
  8
0
  6
ByLayer
 62
  256
370
   -1
100
AcDbLine
 10
1.124992666594776
 20
3.862017139352474
 11
1.119358248402532
 21
2.972357329105535
  0
LINE
  5
52
100
AcDbEntity
  8
0
  6
ByLayer
 62
  256
370
   -1
100
AcDbLine
 10
1.119358248402532
 20
2.972357329105535
 11
3.142912292735841
 21
2.992403485801219
  0
LINE
  5
53
100
AcDbEntity
  8
0
  6
ByLayer
 62
  256
370
   -1
100
AcDbLine
 10
3.142912292735841
 20
2.992403485801219
 11
3.135953373891707
 21
3.868886309582592
  0
LINE
  5
54
100
AcDbEntity
  8
0
  6
ByLayer
 62
  256
370
   -1
100
AcDbLine
 10
3.135953373891707
 20
3.868886309582592
 11
2.620255079137846
 21
3.870098482748176
  0
LINE
  5
55
100
AcDbEntity
  8
0
  6
ByLayer
 62
  256
370
   -1
100
AcDbLine
 10
2.620255079137846
 20
3.870098482748176
 11
2.569230628383762
 21
6.692240730927722
  0
LINE
  5
56
100
AcDbEntity
  8
0
  6
ByLayer
 62
  256
370
   -1
100
AcDbLine
 10
2.569230628383762
 20
6.692240730927722
 11
3.058574950206375
 21
6.716215231834838
  0
LINE
  5
57
100
AcDbEntity
  8
0
  6
ByLayer
 62
  256
370
   -1
100
AcDbLine
 10
3.058574950206375
 20
6.716215231834838
 11
3.039022694325863
 21
7.579521069150587
  0
LINE
  5
58
100
AcDbEntity
  8
0
  6
ByLayer
 62
  256
370
   -1
100
AcDbLine
 10
3.039022694325863
 20
7.579521069150587
 11
1.015468649992554
 21
7.559474912454846
  0
LINE
  5
59
100
AcDbEntity
  8
0
  6
ByLayer
 62
  256
370
   -1
100
AcDbLine
 10
7.988092105561291
 20
7.64004111256645
 11
8.021696822051295
 21
6.725486452961377
  0
LINE
  5
5A
100
AcDbEntity
  8
0
  6
ByLayer
 62
  256
370
   -1
100
AcDbLine
 10
8.021696822051295
 20
6.725486452961377
 11
8.472677483335643
 21
6.735700317973624
  0
LINE
  5
5B
100
AcDbEntity
  8
0
  6
ByLayer
 62
  256
370
   -1
100
AcDbLine
 10
8.472677483335643
 20
6.735700317973624
 11
8.510816772338726
 21
3.913266245079456
  0
LINE
  5
5C
100
AcDbEntity
  8
0
  6
ByLayer
 62
  256
370
   -1
100
AcDbLine
 10
11.72851556489439
 20
3.006366481234295
 11
13.22377797743746
 21
3.014447824629997
  0
LINE
  5
5D
100
AcDbEntity
  8
0
  6
ByLayer
 62
  256
370
   -1
100
AcDbLine
 10
13.22377797743746
 20
3.014447824629997
 11
13.20335024741297
 21
3.916409147198692
  0
LINE
  5
5E
100
AcDbEntity
  8
0
  6
ByLayer
 62
  256
370
   -1
100
AcDbLine
 10
13.20335024741297
 20
3.916409147198692
 11
12.70024528969549
 21
3.9307983068299
  0
LINE
  5
5F
100
AcDbEntity
  8
0
  6
ByLayer
 62
  256
370
   -1
100
AcDbLine
 10
12.70024528969549
 20
3.9307983068299
 11
12.637502976049
 21
6.701108083290876
  0
LINE
  5
60
100
AcDbEntity
  8
0
  6
ByLayer
 62
  256
370
   -1
100
AcDbLine
 10
12.637502976049
 20
6.701108083290876
 11
13.17838794487551
 21
6.726249883056539
  0
LINE
  5
61
100
AcDbEntity
  8
0
  6
ByLayer
 62
  256
370
   -1
100
AcDbLine
 10
13.17838794487551
 20
6.726249883056539
 11
13.13131441720526
 21
7.666283041448878
  0
LINE
  5
62
100
AcDbEntity
  8
0
  6
ByLayer
 62
  256
370
   -1
100
AcDbLine
 10
3.72135261769864
 20
7.620758102528157
 11
3.729187010686756
 21
6.705619793493895
  0
LINE
  5
63
100
AcDbEntity
  8
0
  6
ByLayer
 62
  256
370
   -1
100
AcDbLine
 10
3.729187010686756
 20
6.705619793493895
 11
4.232000143689616
 21
6.704115795613632
  0
LINE
  5
64
100
AcDbEntity
  8
0
  6
ByLayer
 62
  256
370
   -1
100
AcDbLine
 10
4.232000143689616
 20
6.704115795613632
 11
4.283024594443701
 21
3.881973547434086
  0
LINE
  5
65
100
AcDbEntity
  8
0
  6
ByLayer
 62
  256
370
   -1
100
AcDbLine
 10
4.283024594443701
 20
3.881973547434086
 11
3.805689960228106
 21
3.896946356494595
  0
LINE
  5
66
100
AcDbEntity
  8
0
  6
ByLayer
 62
  256
370
   -1
100
AcDbLine
 10
3.805689960228106
 20
3.896946356494595
 11
3.813232528501599
 21
2.994693209211277
  0
LINE
  5
67
100
AcDbEntity
  8
0
  6
ByLayer
 62
  256
370
   -1
100
AcDbLine
 10
5.326722696273178
 20
3.905611349319543
 11
6.267631328809498
 21
3.914029391736904
  0
LINE
  5
68
100
AcDbEntity
  8
0
  6
ByLayer
 62
  256
370
   -1
100
AcDbLine
 10
6.267631328809498
 20
3.914029391736904
 11
6.258921461677401
 21
4.867823186024168
  0
LINE
  5
69
100
AcDbEntity
  8
0
  6
ByLayer
 62
  256
370
   -1
100
AcDbLine
 10
6.258921461677401
 20
4.867823186024168
 11
5.318012829141194
 21
4.859405143606807
  0
LINE
  5
6A
100
AcDbEntity
  8
0
  6
ByLayer
 62
  256
370
   -1
100
AcDbLine
 10
5.318012829141194
 20
4.859405143606807
 11
5.326722696273178
 21
3.905611349319543
  0
LINE
  5
6B
100
AcDbEntity
  8
0
  6
ByLayer
 62
  256
370
   -1
100
AcDbLine
 10
5.285867236224304
 20
5.709533994456933
 11
6.213598882294887
 21
5.730545373910616
  0
LINE
  5
6C
100
AcDbEntity
  8
0
  6
ByLayer
 62
  256
370
   -1
100
AcDbLine
 10
6.213598882294887
 20
5.730545373910616
 11
6.204597190448281
 21
6.697224329948881
  0
LINE
  5
6D
100
AcDbEntity
  8
0
  6
ByLayer
 62
  256
370
   -1
100
AcDbLine
 10
6.204597190448281
 20
6.697224329948881
 11
5.289750706128585
 21
6.676504775209764
  0
LINE
  5
6E
100
AcDbEntity
  8
0
  6
ByLayer
 62
  256
370
   -1
100
AcDbLine
 10
5.289750706128585
 20
6.676504775209764
 11
5.285867236224304
 21
5.709533994456933
  0
LINE
  5
6F
100
AcDbEntity
  8
0
  6
ByLayer
 62
  256
370
   -1
100
AcDbLine
 10
3.72135261769864
 20
7.620758102528157
 11
6.338499576720947
 21
7.615572710844162
  0
ARC
  5
70
100
AcDbEntity
  8
0
  6
ByLayer
 62
  256
370
   -1
100
AcDbCircle
 10
6.064444559711829
 20
6.403884124571221
 40
1.242294402487589
100
AcDbArc
 50
297.9523577184247
 51
77.25549331693199
  0
ARC
  5
71
100
AcDbEntity
  8
0
  6
ByLayer
 62
  256
370
   -1
100
AcDbCircle
 10
6.218414645252947
 20
4.181647451153765
 40
1.203665264986876
100
AcDbArc
 50
282.1568378119924
 51
69.1536753089987
  0
LINE
  5
72
100
AcDbEntity
  8
0
  6
ByLayer
 62
  256
370
   -1
100
AcDbLine
 10
3.813232528501599
 20
2.994693209211277
 11
6.47189262049636
 21
3.004974605286236
  0
LINE
  5
73
100
AcDbEntity
  8
0
  6
ByLayer
 62
  256
370
   -1
100
AcDbLine
 10
8.145494433209647
 20
3.923056988659027
 11
8.162623041170546
 21
3.00382169475472
  0
LINE
  5
74
100
AcDbEntity
  8
0
  6
ByLayer
 62
  256
370
   -1
100
AcDbLine
 10
8.510816772338726
 20
3.913266245079456
 11
8.145494433209647
 21
3.923056988659027
  0
LINE
  5
75
100
AcDbEntity
  8
0
  6
ByLayer
 62
  256
370
   -1
100
AcDbLine
 10
13.13131441720526
 20
7.666283041448878
 11
11.71290968323836
 21
7.657336836450554
  0
LINE
  5
76
100
AcDbEntity
  8
0
  6
ByLayer
 62
  256
370
   -1
100
AcDbLine
 10
11.71290968323836
 20
7.657336836450554
 11
10.67282387313827
 21
5.395865854856879
  0
LINE
  5
77
100
AcDbEntity
  8
0
  6
ByLayer
 62
  256
370
   -1
100
AcDbLine
 10
11.73199382654292
 20
5.376781711552326
 11
11.72851556489439
 21
3.006366481234295
  0
LINE
  5
78
100
AcDbEntity
  8
0
  6
ByLayer
 62
  256
370
   -1
100
AcDbLine
 10
10.67105312243524
 20
3.023105321397679
 11
11.73199382654292
 21
5.376781711552326
  0
LINE
  5
79
100
AcDbEntity
  8
0
  6
ByLayer
 62
  256
370
   -1
100
AcDbLine
 10
9.480064916601519
 20
7.657336836450554
 11
7.988092105561291
 21
7.64004111256645
  0
LINE
  5
7A
100
AcDbEntity
  8
0
  6
ByLayer
 62
  256
370
   -1
100
AcDbLine
 10
10.67282387313827
 20
5.395865854856879
 11
9.480064916601519
 21
7.657336836450554
  0
LINE
  5
7B
100
AcDbEntity
  8
0
  6
ByLayer
 62
  256
370
   -1
100
AcDbLine
 10
8.162623041170546
 20
3.00382169475472
 11
9.518233203210739
 21
3.010347941783436
  0
LINE
  5
7C
100
AcDbEntity
  8
0
  6
ByLayer
 62
  256
370
   -1
100
AcDbLine
 10
9.518233203210739
 20
5.357697568247715
 11
10.67105312243524
 21
3.023105321397679
  0
LINE
  5
7D
100
AcDbEntity
  8
0
  6
ByLayer
 62
  256
370
   -1
100
AcDbLine
 10
9.518233203210739
 20
3.010347941783436
 11
9.518233203210739
 21
5.357697568247715
  0
LINE
  5
7E
100
AcDbEntity
  8
0
  6
ByLayer
 62
  256
370
   -1
100
AcDbLine
 10
21.30612157700376
 20
1.53124603516693
 11
21.43203998320895
 21
1.541739235684076
  0
LINE
  5
7F
100
AcDbEntity
  8
0
  6
ByLayer
 62
  256
370
   -1
100
AcDbLine
 10
21.43203998320895
 20
1.541739235684076
 11
21.42154678269186
 21
1.646671240855085
  0
LINE
  5
80
100
AcDbEntity
  8
0
  6
ByLayer
 62
  256
370
   -1
100
AcDbLine
 10
21.42154678269186
 20
1.646671240855085
 11
21.3795739806235
 21
1.746356645767548
  0
LINE
  5
81
100
AcDbEntity
  8
0
  6
ByLayer
 62
  256
370
   -1
100
AcDbLine
 10
21.3795739806235
 20
1.746356645767548
 11
21.30612157700376
 21
1.835548850162922
  0
LINE
  5
82
100
AcDbEntity
  8
0
  6
ByLayer
 62
  256
370
   -1
100
AcDbLine
 10
21.30612157700376
 20
1.835548850162922
 11
21.19069637131566
 21
1.919494454299752
  0
LINE
  5
83
100
AcDbEntity
  8
0
  6
ByLayer
 62
  256
370
   -1
100
AcDbLine
 10
21.19069637131566
 20
1.919494454299752
 11
21.05428476459339
 21
1.935234255075386
  0
LINE
  5
84
100
AcDbEntity
  8
0
  6
ByLayer
 62
  256
370
   -1
100
AcDbLine
 10
21.05428476459339
 20
1.935234255075386
 11
20.93885955890518
 21
1.929987654816841
  0
LINE
  5
85
100
AcDbEntity
  8
0
  6
ByLayer
 62
  256
370
   -1
100
AcDbLine
 10
20.93885955890518
 20
1.929987654816841
 11
20.83917415399277
 21
1.919494454299752
  0
LINE
  5
86
100
AcDbEntity
  8
0
  6
ByLayer
 62
  256
370
   -1
100
AcDbLine
 10
20.83917415399277
 20
1.919494454299752
 11
20.74998194959734
 21
1.872275051972792
  0
LINE
  5
87
100
AcDbEntity
  8
0
  6
ByLayer
 62
  256
370
   -1
100
AcDbLine
 10
20.74998194959734
 20
1.872275051972792
 11
20.64504994442633
 21
1.809315848870142
  0
LINE
  5
88
100
AcDbEntity
  8
0
  6
ByLayer
 62
  256
370
   -1
100
AcDbLine
 10
20.64504994442633
 20
1.809315848870142
 11
20.58733734158228
 21
1.714877044216223
  0
LINE
  5
89
100
AcDbEntity
  8
0
  6
ByLayer
 62
  256
370
   -1
100
AcDbLine
 10
20.58733734158228
 20
1.714877044216223
 11
20.55061113977241
 21
1.536492635425475
  0
LINE
  5
8A
100
AcDbEntity
  8
0
  6
ByLayer
 62
  256
370
   -1
100
AcDbLine
 10
20.55061113977241
 20
1.536492635425475
 11
20.58733734158228
 21
1.415820829478832
  0
LINE
  5
8B
100
AcDbEntity
  8
0
  6
ByLayer
 62
  256
370
   -1
100
AcDbLine
 10
20.58733734158228
 20
1.415820829478832
 11
20.67652954597771
 21
1.347615026117637
  0
LINE
  5
8C
100
AcDbEntity
  8
0
  6
ByLayer
 62
  256
370
   -1
100
AcDbLine
 10
20.67652954597771
 20
1.347615026117637
 11
20.78146155114872
 21
1.300395623790678
  0
LINE
  5
8D
100
AcDbEntity
  8
0
  6
ByLayer
 62
  256
370
   -1
100
AcDbLine
 10
21.04379156407618
 20
1.232189820429539
 11
21.14872356924731
 21
1.195463618619669
  0
LINE
  5
8E
100
AcDbEntity
  8
0
  6
ByLayer
 62
  256
370
   -1
100
AcDbLine
 10
21.14872356924731
 20
1.195463618619669
 11
21.23791577364262
 21
1.14824421629271
  0
LINE
  5
8F
100
AcDbEntity
  8
0
  6
ByLayer
 62
  256
370
   -1
100
AcDbLine
 10
21.23791577364262
 20
1.14824421629271
 11
21.29562837648667
 21
1.048558811380246
  0
LINE
  5
90
100
AcDbEntity
  8
0
  6
ByLayer
 62
  256
370
   -1
100
AcDbLine
 10
21.29562837648667
 20
1.048558811380246
 11
21.31136817726236
 21
0.9488734064677828
  0
LINE
  5
91
100
AcDbEntity
  8
0
  6
ByLayer
 62
  256
370
   -1
100
AcDbLine
 10
21.31136817726236
 20
0.9488734064677828
 11
21.22217597286693
 21
0.854434601813864
  0
LINE
  5
92
100
AcDbEntity
  8
0
  6
ByLayer
 62
  256
370
   -1
100
AcDbLine
 10
21.22217597286693
 20
0.854434601813864
 11
21.12249056795453
 21
0.7914753987112704
  0
LINE
  5
93
100
AcDbEntity
  8
0
  6
ByLayer
 62
  256
370
   -1
100
AcDbLine
 10
21.12249056795453
 20
0.7914753987112704
 11
20.97558576071505
 21
0.7914753987112704
  0
LINE
  5
94
100
AcDbEntity
  8
0
  6
ByLayer
 62
  256
370
   -1
100
AcDbLine
 10
20.97558576071505
 20
0.7914753987112704
 11
20.83392755373417
 21
0.8019685992283598
  0
LINE
  5
95
100
AcDbEntity
  8
0
  6
ByLayer
 62
  256
370
   -1
100
AcDbLine
 10
20.83392755373417
 20
0.8019685992283598
 11
20.74998194959734
 21
0.8491880015553193
  0
LINE
  5
96
100
AcDbEntity
  8
0
  6
ByLayer
 62
  256
370
   -1
100
AcDbLine
 10
20.74998194959734
 20
0.8491880015553193
 11
20.67128294571911
 21
0.9069006043993681
  0
LINE
  5
97
100
AcDbEntity
  8
0
  6
ByLayer
 62
  256
370
   -1
100
AcDbLine
 10
20.67128294571911
 20
0.9069006043993681
 11
20.61357034287506
 21
0.9855996082776528
  0
LINE
  5
98
100
AcDbEntity
  8
0
  6
ByLayer
 62
  256
370
   -1
100
AcDbLine
 10
20.61357034287506
 20
0.9855996082776528
 11
20.59783054209937
 21
1.11151801448284
  0
LINE
  5
99
100
AcDbEntity
  8
0
  6
ByLayer
 62
  256
370
   -1
100
AcDbLine
 10
20.59783054209937
 20
1.11151801448284
 11
20.47715873615267
 21
1.080038412931572
  0
LINE
  5
9A
100
AcDbEntity
  8
0
  6
ByLayer
 62
  256
370
   -1
100
AcDbLine
 10
20.47715873615267
 20
1.080038412931572
 11
20.51913153822114
 21
0.891160803623734
  0
LINE
  5
9B
100
AcDbEntity
  8
0
  6
ByLayer
 62
  256
370
   -1
100
AcDbLine
 10
20.51913153822114
 20
0.891160803623734
 11
20.59258394184088
 21
0.7757355979355793
  0
LINE
  5
9C
100
AcDbEntity
  8
0
  6
ByLayer
 62
  256
370
   -1
100
AcDbLine
 10
20.59258394184088
 20
0.7757355979355793
 11
20.72899554856316
 21
0.6970365940573515
  0
LINE
  5
9D
100
AcDbEntity
  8
0
  6
ByLayer
 62
  256
370
   -1
100
AcDbLine
 10
20.72899554856316
 20
0.6970365940573515
 11
20.86540715528555
 21
0.6550637919889368
  0
LINE
  5
9E
100
AcDbEntity
  8
0
  6
ByLayer
 62
  256
370
   -1
100
AcDbLine
 10
20.86540715528555
 20
0.6550637919889368
 11
21.05953136485187
 21
0.6498171917303921
  0
LINE
  5
9F
100
AcDbEntity
  8
0
  6
ByLayer
 62
  256
370
   -1
100
AcDbLine
 10
21.05953136485187
 20
0.6498171917303921
 11
21.31661477752085
 21
0.7285161956086199
  0
LINE
  5
A0
100
AcDbEntity
  8
0
  6
ByLayer
 62
  256
370
   -1
100
AcDbLine
 10
21.31661477752085
 20
0.7285161956086199
 11
21.42154678269186
 21
0.8124617997454493
  0
LINE
  5
A1
100
AcDbEntity
  8
0
  6
ByLayer
 62
  256
370
   -1
100
AcDbLine
 10
21.42154678269186
 20
0.8124617997454493
 11
21.44777978398464
 21
0.9803530080191081
  0
LINE
  5
A2
100
AcDbEntity
  8
0
  6
ByLayer
 62
  256
370
   -1
100
AcDbLine
 10
21.44777978398464
 20
0.9803530080191081
 11
21.45302638424324
 21
1.14824421629271
  0
LINE
  5
A3
100
AcDbEntity
  8
0
  6
ByLayer
 62
  256
370
   -1
100
AcDbLine
 10
21.45302638424324
 20
1.14824421629271
 11
21.34809437907223
 21
1.25842282172232
  0
LINE
  5
A4
100
AcDbEntity
  8
0
  6
ByLayer
 62
  256
370
   -1
100
AcDbLine
 10
21.34809437907223
 20
1.25842282172232
 11
21.21168277234984
 21
1.337121825600548
  0
LINE
  5
A5
100
AcDbEntity
  8
0
  6
ByLayer
 62
  256
370
   -1
100
AcDbLine
 10
21.21168277234984
 20
1.337121825600548
 11
21.09101096640314
 21
1.368601427151873
  0
LINE
  5
A6
100
AcDbEntity
  8
0
  6
ByLayer
 62
  256
370
   -1
100
AcDbLine
 10
21.09101096640314
 20
1.368601427151873
 11
20.98607896123213
 21
1.400081028703198
  0
LINE
  5
A7
100
AcDbEntity
  8
0
  6
ByLayer
 62
  256
370
   -1
100
AcDbLine
 10
20.98607896123213
 20
1.400081028703198
 11
20.86540715528555
 21
1.452547031288702
  0
LINE
  5
A8
100
AcDbEntity
  8
0
  6
ByLayer
 62
  256
370
   -1
100
AcDbLine
 10
20.86540715528555
 20
1.452547031288702
 11
20.73948874908025
 21
1.525999434908385
  0
LINE
  5
A9
100
AcDbEntity
  8
0
  6
ByLayer
 62
  256
370
   -1
100
AcDbLine
 10
20.73948874908025
 20
1.525999434908385
 11
20.71325574778747
 21
1.61519163930376
  0
LINE
  5
AA
100
AcDbEntity
  8
0
  6
ByLayer
 62
  256
370
   -1
100
AcDbLine
 10
20.71325574778747
 20
1.61519163930376
 11
20.72899554856316
 21
1.714877044216223
  0
LINE
  5
AB
100
AcDbEntity
  8
0
  6
ByLayer
 62
  256
370
   -1
100
AcDbLine
 10
20.72899554856316
 20
1.714877044216223
 11
20.86540715528555
 21
1.756849846284638
  0
LINE
  5
AC
100
AcDbEntity
  8
0
  6
ByLayer
 62
  256
370
   -1
100
AcDbLine
 10
20.86540715528555
 20
1.756849846284638
 11
21.00181876200783
 21
1.788329447835963
  0
LINE
  5
AD
100
AcDbEntity
  8
0
  6
ByLayer
 62
  256
370
   -1
100
AcDbLine
 10
21.00181876200783
 20
1.788329447835963
 11
21.18544977105706
 21
1.756849846284638
  0
LINE
  5
AE
100
AcDbEntity
  8
0
  6
ByLayer
 62
  256
370
   -1
100
AcDbLine
 10
21.18544977105706
 20
1.756849846284638
 11
21.30612157700376
 21
1.53124603516693
  0
LINE
  5
AF
100
AcDbEntity
  8
0
  6
ByLayer
 62
  256
370
   -1
100
AcDbLine
 10
22.38692123026534
 20
1.263669421980865
 11
22.50759303621193
 21
1.263669421980865
  0
LINE
  5
B0
100
AcDbEntity
  8
0
  6
ByLayer
 62
  256
370
   -1
100
AcDbLine
 10
22.50759303621193
 20
1.263669421980865
 11
22.48136003491926
 21
1.363354826893328
  0
LINE
  5
B1
100
AcDbEntity
  8
0
  6
ByLayer
 62
  256
370
   -1
100
AcDbLine
 10
22.48136003491926
 20
1.363354826893328
 11
22.41840083181661
 21
1.473533432322881
  0
LINE
  5
B2
100
AcDbEntity
  8
0
  6
ByLayer
 62
  256
370
   -1
100
AcDbLine
 10
22.41840083181661
 20
1.473533432322881
 11
22.28198922509422
 21
1.552232436201166
  0
LINE
  5
B3
100
AcDbEntity
  8
0
  6
ByLayer
 62
  256
370
   -1
100
AcDbLine
 10
22.28198922509422
 20
1.552232436201166
 11
22.12983781759625
 21
1.5679722369768
  0
LINE
  5
B4
100
AcDbEntity
  8
0
  6
ByLayer
 62
  256
370
   -1
100
AcDbLine
 10
22.12983781759625
 20
1.5679722369768
 11
21.97768641009828
 21
1.525999434908385
  0
LINE
  5
B5
100
AcDbEntity
  8
0
  6
ByLayer
 62
  256
370
   -1
100
AcDbLine
 10
21.97768641009828
 20
1.525999434908385
 11
21.87800100518588
 21
1.489273233098515
  0
LINE
  5
B6
100
AcDbEntity
  8
0
  6
ByLayer
 62
  256
370
   -1
100
AcDbLine
 10
21.87800100518588
 20
1.489273233098515
 11
21.79930200130753
 21
1.415820829478832
  0
LINE
  5
B7
100
AcDbEntity
  8
0
  6
ByLayer
 62
  256
370
   -1
100
AcDbLine
 10
21.79930200130753
 20
1.415820829478832
 11
21.72060299742931
 21
1.237436420688084
  0
LINE
  5
B8
100
AcDbEntity
  8
0
  6
ByLayer
 62
  256
370
   -1
100
AcDbLine
 10
21.72060299742931
 20
1.237436420688084
 11
21.71010979691222
 21
1.142997616034165
  0
LINE
  5
B9
100
AcDbEntity
  8
0
  6
ByLayer
 62
  256
370
   -1
100
AcDbLine
 10
21.71010979691222
 20
1.142997616034165
 11
21.71010979691222
 21
1.043312211121702
  0
LINE
  5
BA
100
AcDbEntity
  8
0
  6
ByLayer
 62
  256
370
   -1
100
AcDbLine
 10
21.71010979691222
 20
1.043312211121702
 11
21.7310961979464
 21
0.8754210028480998
  0
LINE
  5
BB
100
AcDbEntity
  8
0
  6
ByLayer
 62
  256
370
   -1
100
AcDbLine
 10
21.7310961979464
 20
0.8754210028480998
 11
21.78356220053196
 21
0.7652423974184899
  0
LINE
  5
BC
100
AcDbEntity
  8
0
  6
ByLayer
 62
  256
370
   -1
100
AcDbLine
 10
21.78356220053196
 20
0.7652423974184899
 11
21.90948060673714
 21
0.6760501930231158
  0
LINE
  5
BD
100
AcDbEntity
  8
0
  6
ByLayer
 62
  256
370
   -1
100
AcDbLine
 10
21.90948060673714
 20
0.6760501930231158
 11
22.01965921216675
 21
0.6655569925060263
  0
LINE
  5
BE
100
AcDbEntity
  8
0
  6
ByLayer
 62
  256
370
   -1
100
AcDbLine
 10
22.01965921216675
 20
0.6655569925060263
 11
22.11934461707916
 21
0.6498171917303921
  0
LINE
  5
BF
100
AcDbEntity
  8
0
  6
ByLayer
 62
  256
370
   -1
100
AcDbLine
 10
22.11934461707916
 20
0.6498171917303921
 11
22.24526302328446
 21
0.6445705914718474
  0
LINE
  5
C0
100
AcDbEntity
  8
0
  6
ByLayer
 62
  256
370
   -1
100
AcDbLine
 10
22.24526302328446
 20
0.6445705914718474
 11
22.35544162871396
 21
0.6917899937988068
  0
LINE
  5
C1
100
AcDbEntity
  8
0
  6
ByLayer
 62
  256
370
   -1
100
AcDbLine
 10
22.35544162871396
 20
0.6917899937988068
 11
22.45512703362648
 21
0.8019685992283598
  0
LINE
  5
C2
100
AcDbEntity
  8
0
  6
ByLayer
 62
  256
370
   -1
100
AcDbLine
 10
22.45512703362648
 20
0.8019685992283598
 11
22.49185323543635
 21
0.9121472046579129
  0
LINE
  5
C3
100
AcDbEntity
  8
0
  6
ByLayer
 62
  256
370
   -1
100
AcDbLine
 10
22.49185323543635
 20
0.9121472046579129
 11
22.38692123026534
 21
0.9751064077605633
  0
LINE
  5
C4
100
AcDbEntity
  8
0
  6
ByLayer
 62
  256
370
   -1
100
AcDbLine
 10
22.38692123026534
 20
0.9751064077605633
 11
22.37642802974814
 21
0.8596812020724087
  0
LINE
  5
C5
100
AcDbEntity
  8
0
  6
ByLayer
 62
  256
370
   -1
100
AcDbLine
 10
22.37642802974814
 20
0.8596812020724087
 11
22.24526302328446
 21
0.8124617997454493
  0
LINE
  5
C6
100
AcDbEntity
  8
0
  6
ByLayer
 62
  256
370
   -1
100
AcDbLine
 10
22.24526302328446
 20
0.8124617997454493
 11
22.15607081888903
 21
0.7704889976770346
  0
LINE
  5
C7
100
AcDbEntity
  8
0
  6
ByLayer
 62
  256
370
   -1
100
AcDbLine
 10
22.15607081888903
 20
0.7704889976770346
 11
22.05638541397662
 21
0.7862287984527256
  0
LINE
  5
C8
100
AcDbEntity
  8
0
  6
ByLayer
 62
  256
370
   -1
100
AcDbLine
 10
22.05638541397662
 20
0.7862287984527256
 11
21.96194660932271
 21
0.8229550002625388
  0
LINE
  5
C9
100
AcDbEntity
  8
0
  6
ByLayer
 62
  256
370
   -1
100
AcDbLine
 10
21.96194660932271
 20
0.8229550002625388
 11
21.89374080596145
 21
0.8859142033651892
  0
LINE
  5
CA
100
AcDbEntity
  8
0
  6
ByLayer
 62
  256
370
   -1
100
AcDbLine
 10
21.89374080596145
 20
0.8859142033651892
 11
21.84127480337601
 21
1.022325810087523
  0
LINE
  5
CB
100
AcDbEntity
  8
0
  6
ByLayer
 62
  256
370
   -1
100
AcDbLine
 10
21.84127480337601
 20
1.022325810087523
 11
21.84652140363449
 21
1.122011214999986
  0
LINE
  5
CC
100
AcDbEntity
  8
0
  6
ByLayer
 62
  256
370
   -1
100
AcDbLine
 10
21.84652140363449
 20
1.122011214999986
 11
21.87800100518588
 21
1.279409222756499
  0
LINE
  5
CD
100
AcDbEntity
  8
0
  6
ByLayer
 62
  256
370
   -1
100
AcDbLine
 10
21.87800100518588
 20
1.279409222756499
 11
21.97768641009828
 21
1.379094627668962
  0
LINE
  5
CE
100
AcDbEntity
  8
0
  6
ByLayer
 62
  256
370
   -1
100
AcDbLine
 10
21.97768641009828
 20
1.379094627668962
 11
22.10360481630358
 21
1.431560630254467
  0
LINE
  5
CF
100
AcDbEntity
  8
0
  6
ByLayer
 62
  256
370
   -1
100
AcDbLine
 10
22.10360481630358
 20
1.431560630254467
 11
22.22952322250877
 21
1.452547031288702
  0
LINE
  5
D0
100
AcDbEntity
  8
0
  6
ByLayer
 62
  256
370
   -1
100
AcDbLine
 10
22.22952322250877
 20
1.452547031288702
 11
22.32396202716269
 21
1.373848027410418
  0
LINE
  5
D1
100
AcDbEntity
  8
0
  6
ByLayer
 62
  256
370
   -1
100
AcDbLine
 10
22.32396202716269
 20
1.373848027410418
 11
22.38692123026534
 21
1.263669421980865
  0
LINE
  5
D2
100
AcDbEntity
  8
0
  6
ByLayer
 62
  256
370
   -1
100
AcDbLine
 10
22.80140265069077
 20
1.867028451714191
 11
22.7699230491395
 21
0.6498171917303921
  0
LINE
  5
D3
100
AcDbEntity
  8
0
  6
ByLayer
 62
  256
370
   -1
100
AcDbLine
 10
22.7699230491395
 20
0.6498171917303921
 11
22.91682785637898
 21
0.6655569925060263
  0
LINE
  5
D4
100
AcDbEntity
  8
0
  6
ByLayer
 62
  256
370
   -1
100
AcDbLine
 10
22.91682785637898
 20
0.6655569925060263
 11
22.93781425741316
 21
1.242683020946629
  0
LINE
  5
D5
100
AcDbEntity
  8
0
  6
ByLayer
 62
  256
370
   -1
100
AcDbLine
 10
22.93781425741316
 20
1.242683020946629
 11
22.97454045922303
 21
1.347615026117637
  0
LINE
  5
D6
100
AcDbEntity
  8
0
  6
ByLayer
 62
  256
370
   -1
100
AcDbLine
 10
22.97454045922303
 20
1.347615026117637
 11
23.11619866620391
 21
1.410574229220288
  0
LINE
  5
D7
100
AcDbEntity
  8
0
  6
ByLayer
 62
  256
370
   -1
100
AcDbLine
 10
23.11619866620391
 20
1.410574229220288
 11
23.26835007370188
 21
1.384341227927507
  0
LINE
  5
D8
100
AcDbEntity
  8
0
  6
ByLayer
 62
  256
370
   -1
100
AcDbLine
 10
23.26835007370188
 20
1.384341227927507
 11
23.39426847990707
 21
1.263669421980865
  0
LINE
  5
D9
100
AcDbEntity
  8
0
  6
ByLayer
 62
  256
370
   -1
100
AcDbLine
 10
23.39426847990707
 20
1.263669421980865
 11
23.3627888783558
 21
0.670803592764571
  0
LINE
  5
DA
100
AcDbEntity
  8
0
  6
ByLayer
 62
  256
370
   -1
100
AcDbLine
 10
23.3627888783558
 20
0.670803592764571
 11
23.47821408404389
 21
0.670803592764571
  0
LINE
  5
DB
100
AcDbEntity
  8
0
  6
ByLayer
 62
  256
370
   -1
100
AcDbLine
 10
23.47821408404389
 20
0.670803592764571
 11
23.49395388481959
 21
1.331875225342003
  0
LINE
  5
DC
100
AcDbEntity
  8
0
  6
ByLayer
 62
  256
370
   -1
100
AcDbLine
 10
23.49395388481959
 20
1.331875225342003
 11
23.45722768300972
 21
1.442053830771556
  0
LINE
  5
DD
100
AcDbEntity
  8
0
  6
ByLayer
 62
  256
370
   -1
100
AcDbLine
 10
23.45722768300972
 20
1.442053830771556
 11
23.38902187964858
 21
1.520752834649841
  0
LINE
  5
DE
100
AcDbEntity
  8
0
  6
ByLayer
 62
  256
370
   -1
100
AcDbLine
 10
23.38902187964858
 20
1.520752834649841
 11
23.20539087059923
 21
1.552232436201166
  0
LINE
  5
DF
100
AcDbEntity
  8
0
  6
ByLayer
 62
  256
370
   -1
100
AcDbLine
 10
23.20539087059923
 20
1.552232436201166
 11
23.05323946310126
 21
1.53124603516693
  0
LINE
  5
E0
100
AcDbEntity
  8
0
  6
ByLayer
 62
  256
370
   -1
100
AcDbLine
 10
23.05323946310126
 20
1.53124603516693
 11
22.94306085767165
 21
1.452547031288702
  0
LINE
  5
E1
100
AcDbEntity
  8
0
  6
ByLayer
 62
  256
370
   -1
100
AcDbLine
 10
22.94306085767165
 20
1.452547031288702
 11
22.99815016038646
 21
1.491896533227816
  0
LINE
  5
E2
100
AcDbEntity
  8
0
  6
ByLayer
 62
  256
370
   -1
100
AcDbLine
 10
22.94306085767165
 20
1.452547031288702
 11
22.92732105689607
 21
1.882768252489882
  0
LINE
  5
E3
100
AcDbEntity
  8
0
  6
ByLayer
 62
  256
370
   -1
100
AcDbLine
 10
22.92732105689607
 20
1.882768252489882
 11
22.80140265069077
 21
1.867028451714191
  0
LINE
  5
E4
100
AcDbEntity
  8
0
  6
ByLayer
 62
  256
370
   -1
100
AcDbLine
 10
23.91892850576222
 20
1.421067429737377
 11
23.84547610214248
 21
1.347615026117637
  0
LINE
  5
E5
100
AcDbEntity
  8
0
  6
ByLayer
 62
  256
370
   -1
100
AcDbLine
 10
23.84547610214248
 20
1.347615026117637
 11
23.78251689903983
 21
1.122011214999986
  0
LINE
  5
E6
100
AcDbEntity
  8
0
  6
ByLayer
 62
  256
370
   -1
100
AcDbLine
 10
23.78251689903983
 20
1.122011214999986
 11
23.77202369852274
 21
0.9698598075020186
  0
LINE
  5
E7
100
AcDbEntity
  8
0
  6
ByLayer
 62
  256
370
   -1
100
AcDbLine
 10
23.77202369852274
 20
0.9698598075020186
 11
23.78251689903983
 21
0.8649278023309535
  0
LINE
  5
E8
100
AcDbEntity
  8
0
  6
ByLayer
 62
  256
370
   -1
100
AcDbLine
 10
23.78251689903983
 20
0.8649278023309535
 11
23.9346683065378
 21
0.7127763948329857
  0
LINE
  5
E9
100
AcDbEntity
  8
0
  6
ByLayer
 62
  256
370
   -1
100
AcDbLine
 10
23.9346683065378
 20
0.7127763948329857
 11
24.03960031170892
 21
0.6235841904376116
  0
LINE
  5
EA
100
AcDbEntity
  8
0
  6
ByLayer
 62
  256
370
   -1
100
AcDbLine
 10
24.03960031170892
 20
0.6235841904376116
 11
24.20224491972398
 21
0.6078443896619774
  0
LINE
  5
EB
100
AcDbEntity
  8
0
  6
ByLayer
 62
  256
370
   -1
100
AcDbLine
 10
24.20224491972398
 20
0.6078443896619774
 11
24.33340992618777
 21
0.6288307906961563
  0
LINE
  5
EC
100
AcDbEntity
  8
0
  6
ByLayer
 62
  256
370
   -1
100
AcDbLine
 10
24.33340992618777
 20
0.6288307906961563
 11
24.45932833239295
 21
0.6917899937988068
  0
LINE
  5
ED
100
AcDbEntity
  8
0
  6
ByLayer
 62
  256
370
   -1
100
AcDbLine
 10
24.45932833239295
 20
0.6917899937988068
 11
24.56950693782256
 21
0.8386948010382298
  0
LINE
  5
EE
100
AcDbEntity
  8
0
  6
ByLayer
 62
  256
370
   -1
100
AcDbLine
 10
24.56950693782256
 20
0.8386948010382298
 11
24.60098653937383
 21
0.9278870054336039
  0
LINE
  5
EF
100
AcDbEntity
  8
0
  6
ByLayer
 62
  256
370
   -1
100
AcDbLine
 10
24.60098653937383
 20
0.9278870054336039
 11
24.62197294040801
 21
1.132504415517076
  0
LINE
  5
F0
100
AcDbEntity
  8
0
  6
ByLayer
 62
  256
370
   -1
100
AcDbLine
 10
24.62197294040801
 20
1.132504415517076
 11
24.61672634014952
 21
1.253176221463718
  0
LINE
  5
F1
100
AcDbEntity
  8
0
  6
ByLayer
 62
  256
370
   -1
100
AcDbLine
 10
24.61672634014952
 20
1.253176221463718
 11
24.54327393652978
 21
1.384341227927507
  0
LINE
  5
F2
100
AcDbEntity
  8
0
  6
ByLayer
 62
  256
370
   -1
100
AcDbLine
 10
24.54327393652978
 20
1.384341227927507
 11
24.43309533110017
 21
1.510259634132751
  0
LINE
  5
F3
100
AcDbEntity
  8
0
  6
ByLayer
 62
  256
370
   -1
100
AcDbLine
 10
24.43309533110017
 20
1.510259634132751
 11
24.31242352515347
 21
1.552232436201166
  0
LINE
  5
F4
100
AcDbEntity
  8
0
  6
ByLayer
 62
  256
370
   -1
100
AcDbLine
 10
24.31242352515347
 20
1.552232436201166
 11
24.18650511894829
 21
1.557479036459711
  0
LINE
  5
F5
100
AcDbEntity
  8
0
  6
ByLayer
 62
  256
370
   -1
100
AcDbLine
 10
24.18650511894829
 20
1.557479036459711
 11
24.04484691196741
 21
1.546985835942621
  0
LINE
  5
F6
100
AcDbEntity
  8
0
  6
ByLayer
 62
  256
370
   -1
100
AcDbLine
 10
24.04484691196741
 20
1.546985835942621
 11
23.91892850576222
 21
1.421067429737377
  0
LINE
  5
F7
100
AcDbEntity
  8
0
  6
ByLayer
 62
  256
370
   -1
100
AcDbLine
 10
23.96090130783058
 20
1.289902423273588
 11
23.90843530524513
 21
1.127257815258531
  0
LINE
  5
F8
100
AcDbEntity
  8
0
  6
ByLayer
 62
  256
370
   -1
100
AcDbLine
 10
23.90843530524513
 20
1.127257815258531
 11
23.91892850576222
 21
1.032819010604612
  0
LINE
  5
F9
100
AcDbEntity
  8
0
  6
ByLayer
 62
  256
370
   -1
100
AcDbLine
 10
23.91892850576222
 20
1.032819010604612
 11
23.9399149067964
 21
0.9331336056921486
  0
LINE
  5
FA
100
AcDbEntity
  8
0
  6
ByLayer
 62
  256
370
   -1
100
AcDbLine
 10
23.9399149067964
 20
0.9331336056921486
 11
24.02386051093323
 21
0.8019685992283598
  0
LINE
  5
FB
100
AcDbEntity
  8
0
  6
ByLayer
 62
  256
370
   -1
100
AcDbLine
 10
24.02386051093323
 20
0.8019685992283598
 11
24.19699831946538
 21
0.7599957971599451
  0
LINE
  5
FC
100
AcDbEntity
  8
0
  6
ByLayer
 62
  256
370
   -1
100
AcDbLine
 10
24.19699831946538
 20
0.7599957971599451
 11
24.30193032463638
 21
0.7599957971599451
  0
LINE
  5
FD
100
AcDbEntity
  8
0
  6
ByLayer
 62
  256
370
   -1
100
AcDbLine
 10
24.30193032463638
 20
0.7599957971599451
 11
24.43309533110017
 21
0.8596812020724087
  0
LINE
  5
FE
100
AcDbEntity
  8
0
  6
ByLayer
 62
  256
370
   -1
100
AcDbLine
 10
24.43309533110017
 20
0.8596812020724087
 11
24.48031473342713
 21
0.9488734064677828
  0
LINE
  5
FF
100
AcDbEntity
  8
0
  6
ByLayer
 62
  256
370
   -1
100
AcDbLine
 10
24.48031473342713
 20
0.9488734064677828
 11
24.48556133368573
 21
1.069545212414482
  0
LINE
  5
100
100
AcDbEntity
  8
0
  6
ByLayer
 62
  256
370
   -1
100
AcDbLine
 10
24.48556133368573
 20
1.069545212414482
 11
24.48556133368573
 21
1.18497041810258
  0
LINE
  5
101
100
AcDbEntity
  8
0
  6
ByLayer
 62
  256
370
   -1
100
AcDbLine
 10
24.48556133368573
 20
1.18497041810258
 11
24.46457493265155
 21
1.305642224049279
  0
LINE
  5
102
100
AcDbEntity
  8
0
  6
ByLayer
 62
  256
370
   -1
100
AcDbLine
 10
24.46457493265155
 20
1.305642224049279
 11
24.31242352515347
 21
1.400081028703198
  0
LINE
  5
103
100
AcDbEntity
  8
0
  6
ByLayer
 62
  256
370
   -1
100
AcDbLine
 10
24.31242352515347
 20
1.400081028703198
 11
24.13928571662133
 21
1.415820829478832
  0
LINE
  5
104
100
AcDbEntity
  8
0
  6
ByLayer
 62
  256
370
   -1
100
AcDbLine
 10
24.13928571662133
 20
1.415820829478832
 11
24.03960031170892
 21
1.379094627668962
  0
LINE
  5
105
100
AcDbEntity
  8
0
  6
ByLayer
 62
  256
370
   -1
100
AcDbLine
 10
24.03960031170892
 20
1.379094627668962
 11
23.96090130783058
 21
1.289902423273588
  0
LINE
  5
106
100
AcDbEntity
  8
0
  6
ByLayer
 62
  256
370
   -1
100
AcDbLine
 10
24.97349515773091
 20
1.373848027410418
 11
24.88954955359408
 21
1.242683020946629
  0
LINE
  5
107
100
AcDbEntity
  8
0
  6
ByLayer
 62
  256
370
   -1
100
AcDbLine
 10
24.88954955359408
 20
1.242683020946629
 11
24.8738097528185
 21
1.043312211121702
  0
LINE
  5
108
100
AcDbEntity
  8
0
  6
ByLayer
 62
  256
370
   -1
100
AcDbLine
 10
24.8738097528185
 20
1.043312211121702
 11
24.8738097528185
 21
0.891160803623734
  0
LINE
  5
109
100
AcDbEntity
  8
0
  6
ByLayer
 62
  256
370
   -1
100
AcDbLine
 10
24.8738097528185
 20
0.891160803623734
 11
24.9892349585066
 21
0.707529794574441
  0
LINE
  5
10A
100
AcDbEntity
  8
0
  6
ByLayer
 62
  256
370
   -1
100
AcDbLine
 10
24.9892349585066
 20
0.707529794574441
 11
25.08367376316052
 21
0.6183375901790669
  0
LINE
  5
10B
100
AcDbEntity
  8
0
  6
ByLayer
 62
  256
370
   -1
100
AcDbLine
 10
25.08367376316052
 20
0.6183375901790669
 11
25.19909896884861
 21
0.6130909899205221
  0
LINE
  5
10C
100
AcDbEntity
  8
0
  6
ByLayer
 62
  256
370
   -1
100
AcDbLine
 10
25.19909896884861
 20
0.6130909899205221
 11
25.30927757427822
 21
0.6078443896619774
  0
LINE
  5
10D
100
AcDbEntity
  8
0
  6
ByLayer
 62
  256
370
   -1
100
AcDbLine
 10
25.30927757427822
 20
0.6078443896619774
 11
25.46667558203479
 21
0.6235841904376116
  0
LINE
  5
10E
100
AcDbEntity
  8
0
  6
ByLayer
 62
  256
370
   -1
100
AcDbLine
 10
25.46667558203479
 20
0.6235841904376116
 11
25.5716075872058
 21
0.6970365940573515
  0
LINE
  5
10F
100
AcDbEntity
  8
0
  6
ByLayer
 62
  256
370
   -1
100
AcDbLine
 10
25.5716075872058
 20
0.6970365940573515
 11
25.70277259366959
 21
0.891160803623734
  0
LINE
  5
110
100
AcDbEntity
  8
0
  6
ByLayer
 62
  256
370
   -1
100
AcDbLine
 10
25.70277259366959
 20
0.891160803623734
 11
25.74999199599655
 21
1.032819010604612
  0
LINE
  5
111
100
AcDbEntity
  8
0
  6
ByLayer
 62
  256
370
   -1
100
AcDbLine
 10
25.74999199599655
 20
1.032819010604612
 11
25.72900559496226
 21
1.226943220170995
  0
LINE
  5
112
100
AcDbEntity
  8
0
  6
ByLayer
 62
  256
370
   -1
100
AcDbLine
 10
25.72900559496226
 20
1.226943220170995
 11
25.70801919392808
 21
1.342368425859092
  0
LINE
  5
113
100
AcDbEntity
  8
0
  6
ByLayer
 62
  256
370
   -1
100
AcDbLine
 10
25.70801919392808
 20
1.342368425859092
 11
25.61882698953276
 21
1.442053830771556
  0
LINE
  5
114
100
AcDbEntity
  8
0
  6
ByLayer
 62
  256
370
   -1
100
AcDbLine
 10
25.61882698953276
 20
1.442053830771556
 11
25.49815518358606
 21
1.505013033874206
  0
LINE
  5
115
100
AcDbEntity
  8
0
  6
ByLayer
 62
  256
370
   -1
100
AcDbLine
 10
25.49815518358606
 20
1.505013033874206
 11
25.335510575571
 21
1.541739235684076
  0
LINE
  5
116
100
AcDbEntity
  8
0
  6
ByLayer
 62
  256
370
   -1
100
AcDbLine
 10
25.335510575571
 20
1.541739235684076
 11
25.19385236859013
 21
1.541739235684076
  0
LINE
  5
117
100
AcDbEntity
  8
0
  6
ByLayer
 62
  256
370
   -1
100
AcDbLine
 10
25.19385236859013
 20
1.541739235684076
 11
25.06793396238482
 21
1.468286832064337
  0
LINE
  5
118
100
AcDbEntity
  8
0
  6
ByLayer
 62
  256
370
   -1
100
AcDbLine
 10
25.06793396238482
 20
1.468286832064337
 11
24.97349515773091
 21
1.373848027410418
  0
LINE
  5
119
100
AcDbEntity
  8
0
  6
ByLayer
 62
  256
370
   -1
100
AcDbLine
 10
25.06268736212634
 20
1.295149023532133
 11
25.03120776057495
 21
1.153490816551255
  0
LINE
  5
11A
100
AcDbEntity
  8
0
  6
ByLayer
 62
  256
370
   -1
100
AcDbLine
 10
25.03120776057495
 20
1.153490816551255
 11
25.01546795979938
 21
1.032819010604612
  0
LINE
  5
11B
100
AcDbEntity
  8
0
  6
ByLayer
 62
  256
370
   -1
100
AcDbLine
 10
25.01546795979938
 20
1.032819010604612
 11
25.01022135954078
 21
0.9121472046579129
  0
LINE
  5
11C
100
AcDbEntity
  8
0
  6
ByLayer
 62
  256
370
   -1
100
AcDbLine
 10
25.01022135954078
 20
0.9121472046579129
 11
25.04170096109216
 21
0.817708400003994
  0
LINE
  5
11D
100
AcDbEntity
  8
0
  6
ByLayer
 62
  256
370
   -1
100
AcDbLine
 10
25.04170096109216
 20
0.817708400003994
 11
25.16761936729734
 21
0.7652423974184899
  0
LINE
  5
11E
100
AcDbEntity
  8
0
  6
ByLayer
 62
  256
370
   -1
100
AcDbLine
 10
25.16761936729734
 20
0.7652423974184899
 11
25.26730477220975
 21
0.7442559963843109
  0
LINE
  5
11F
100
AcDbEntity
  8
0
  6
ByLayer
 62
  256
370
   -1
100
AcDbLine
 10
25.26730477220975
 20
0.7442559963843109
 11
25.36174357686378
 21
0.7390093961257662
  0
LINE
  5
120
100
AcDbEntity
  8
0
  6
ByLayer
 62
  256
370
   -1
100
AcDbLine
 10
25.36174357686378
 20
0.7390093961257662
 11
25.48766198306897
 21
0.8386948010382298
  0
LINE
  5
121
100
AcDbEntity
  8
0
  6
ByLayer
 62
  256
370
   -1
100
AcDbLine
 10
25.48766198306897
 20
0.8386948010382298
 11
25.5663609869472
 21
0.9960928087947423
  0
LINE
  5
122
100
AcDbEntity
  8
0
  6
ByLayer
 62
  256
370
   -1
100
AcDbLine
 10
25.5663609869472
 20
0.9960928087947423
 11
25.60833378901567
 21
1.158737416809799
  0
LINE
  5
123
100
AcDbEntity
  8
0
  6
ByLayer
 62
  256
370
   -1
100
AcDbLine
 10
25.60833378901567
 20
1.158737416809799
 11
25.49290858332746
 21
1.316135424566369
  0
LINE
  5
124
100
AcDbEntity
  8
0
  6
ByLayer
 62
  256
370
   -1
100
AcDbLine
 10
25.49290858332746
 20
1.316135424566369
 11
25.38797657815645
 21
1.405327628961743
  0
LINE
  5
125
100
AcDbEntity
  8
0
  6
ByLayer
 62
  256
370
   -1
100
AcDbLine
 10
25.38797657815645
 20
1.405327628961743
 11
25.24631837117557
 21
1.394834428444597
  0
LINE
  5
126
100
AcDbEntity
  8
0
  6
ByLayer
 62
  256
370
   -1
100
AcDbLine
 10
25.24631837117557
 20
1.394834428444597
 11
25.06268736212634
 21
1.295149023532133
  0
LINE
  5
127
100
AcDbEntity
  8
0
  6
ByLayer
 62
  256
370
   -1
100
AcDbLine
 10
26.12774721461279
 20
1.384341227928132
 11
26.13299381487139
 21
1.693890643182613
  0
LINE
  5
128
100
AcDbEntity
  8
0
  6
ByLayer
 62
  256
370
   -1
100
AcDbLine
 10
26.13299381487139
 20
1.693890643182613
 11
26.13299381487139
 21
1.798822648353621
  0
LINE
  5
129
100
AcDbEntity
  8
0
  6
ByLayer
 62
  256
370
   -1
100
AcDbLine
 10
26.13299381487139
 20
1.798822648353621
 11
25.98084240737343
 21
1.814562449129312
  0
LINE
  5
12A
100
AcDbEntity
  8
0
  6
ByLayer
 62
  256
370
   -1
100
AcDbLine
 10
26.50025583296998
 20
1.473533432323507
 11
26.46877623141871
 21
1.358108226635352
  0
LINE
  5
12B
100
AcDbEntity
  8
0
  6
ByLayer
 62
  256
370
   -1
100
AcDbLine
 10
26.46877623141871
 20
1.358108226635352
 11
26.44254323012593
 21
1.211203419395929
  0
LINE
  5
12C
100
AcDbEntity
  8
0
  6
ByLayer
 62
  256
370
   -1
100
AcDbLine
 10
26.44254323012593
 20
1.211203419395929
 11
26.48976263245289
 21
1.111518014483465
  0
LINE
  5
12D
100
AcDbEntity
  8
0
  6
ByLayer
 62
  256
370
   -1
100
AcDbLine
 10
26.48976263245289
 20
1.111518014483465
 11
26.69438004253642
 21
1.053805411639416
  0
LINE
  5
12E
100
AcDbEntity
  8
0
  6
ByLayer
 62
  256
370
   -1
100
AcDbLine
 10
26.69438004253642
 20
1.053805411639416
 11
26.78881884719034
 21
1.038065610863725
  0
LINE
  5
12F
100
AcDbEntity
  8
0
  6
ByLayer
 62
  256
370
   -1
100
AcDbLine
 10
26.78881884719034
 20
1.038065610863725
 11
26.86751785106857
 21
0.9803530080196765
  0
LINE
  5
130
100
AcDbEntity
  8
0
  6
ByLayer
 62
  256
370
   -1
100
AcDbLine
 10
26.86751785106857
 20
0.9803530080196765
 11
26.9514634552054
 21
0.9226404051756276
  0
LINE
  5
131
100
AcDbEntity
  8
0
  6
ByLayer
 62
  256
370
   -1
100
AcDbLine
 10
26.9514634552054
 20
0.9226404051756276
 11
26.96720325598097
 21
0.7547491969019688
  0
LINE
  5
132
100
AcDbEntity
  8
0
  6
ByLayer
 62
  256
370
   -1
100
AcDbLine
 10
26.96720325598097
 20
0.7547491969019688
 11
26.79931204770743
 21
0.7232695953507005
  0
LINE
  5
133
100
AcDbEntity
  8
0
  6
ByLayer
 62
  256
370
   -1
100
AcDbLine
 10
26.79931204770743
 20
0.7232695953507005
 11
26.68913344227782
 21
0.7285161956092452
  0
LINE
  5
134
100
AcDbEntity
  8
0
  6
ByLayer
 62
  256
370
   -1
100
AcDbLine
 10
26.68913344227782
 20
0.7285161956092452
 11
26.5999412378825
 21
0.7704889976776599
  0
LINE
  5
135
100
AcDbEntity
  8
0
  6
ByLayer
 62
  256
370
   -1
100
AcDbLine
 10
26.5999412378825
 20
0.7704889976776599
 11
26.50550243322858
 21
0.9069006043999934
  0
LINE
  5
136
100
AcDbEntity
  8
0
  6
ByLayer
 62
  256
370
   -1
100
AcDbLine
 10
26.50550243322858
 20
0.9069006043999934
 11
26.39532382779897
 21
0.9173938049170829
  0
LINE
  5
137
100
AcDbEntity
  8
0
  6
ByLayer
 62
  256
370
   -1
100
AcDbLine
 10
26.39532382779897
 20
0.9173938049170829
 11
26.41106362857455
 21
0.8177084000046193
  0
LINE
  5
138
100
AcDbEntity
  8
0
  6
ByLayer
 62
  256
370
   -1
100
AcDbLine
 10
26.41106362857455
 20
0.8177084000046193
 11
26.44778983038442
 21
0.7075297945750094
  0
LINE
  5
139
100
AcDbEntity
  8
0
  6
ByLayer
 62
  256
370
   -1
100
AcDbLine
 10
26.44778983038442
 20
0.7075297945750094
 11
26.61043443839959
 21
0.6025977894040011
  0
LINE
  5
13A
100
AcDbEntity
  8
0
  6
ByLayer
 62
  256
370
   -1
100
AcDbLine
 10
26.61043443839959
 20
0.6025977894040011
 11
26.73635284460478
 21
0.5816113883698222
  0
LINE
  5
13B
100
AcDbEntity
  8
0
  6
ByLayer
 62
  256
370
   -1
100
AcDbLine
 10
26.73635284460478
 20
0.5816113883698222
 11
26.86751785106857
 21
0.5868579886283669
  0
LINE
  5
13C
100
AcDbEntity
  8
0
  6
ByLayer
 62
  256
370
   -1
100
AcDbLine
 10
26.86751785106857
 20
0.5868579886283669
 11
26.99343625727375
 21
0.6235841904382369
  0
LINE
  5
13D
100
AcDbEntity
  8
0
  6
ByLayer
 62
  256
370
   -1
100
AcDbLine
 10
26.99343625727375
 20
0.6235841904382369
 11
27.11410806322045
 21
0.7127763948335541
  0
LINE
  5
13E
100
AcDbEntity
  8
0
  6
ByLayer
 62
  256
370
   -1
100
AcDbLine
 10
27.11410806322045
 20
0.7127763948335541
 11
27.16657406580601
 21
0.8911608036243024
  0
LINE
  5
13F
100
AcDbEntity
  8
0
  6
ByLayer
 62
  256
370
   -1
100
AcDbLine
 10
27.16657406580601
 20
0.8911608036243024
 11
27.12460126373754
 21
1.017079209829546
  0
LINE
  5
140
100
AcDbEntity
  8
0
  6
ByLayer
 62
  256
370
   -1
100
AcDbLine
 10
27.12460126373754
 20
1.017079209829546
 11
26.97769645649818
 21
1.106271414224921
  0
LINE
  5
141
100
AcDbEntity
  8
0
  6
ByLayer
 62
  256
370
   -1
100
AcDbLine
 10
26.97769645649818
 20
1.106271414224921
 11
26.84128484977579
 21
1.11676461474201
  0
LINE
  5
142
100
AcDbEntity
  8
0
  6
ByLayer
 62
  256
370
   -1
100
AcDbLine
 10
26.84128484977579
 20
1.11676461474201
 11
26.74684604512187
 21
1.142997616034791
  0
LINE
  5
143
100
AcDbEntity
  8
0
  6
ByLayer
 62
  256
370
   -1
100
AcDbLine
 10
26.74684604512187
 20
1.142997616034791
 11
26.64191403995086
 21
1.232189820430108
  0
LINE
  5
144
100
AcDbEntity
  8
0
  6
ByLayer
 62
  256
370
   -1
100
AcDbLine
 10
26.64191403995086
 20
1.232189820430108
 11
26.61568103865808
 21
1.352861626376807
  0
LINE
  5
145
100
AcDbEntity
  8
0
  6
ByLayer
 62
  256
370
   -1
100
AcDbLine
 10
26.61568103865808
 20
1.352861626376807
 11
26.69962664279491
 21
1.405327628962311
  0
LINE
  5
146
100
AcDbEntity
  8
0
  6
ByLayer
 62
  256
370
   -1
100
AcDbLine
 10
26.69962664279491
 20
1.405327628962311
 11
26.85177805029288
 21
1.415820829479401
  0
LINE
  5
147
100
AcDbEntity
  8
0
  6
ByLayer
 62
  256
370
   -1
100
AcDbLine
 10
26.85177805029288
 20
1.415820829479401
 11
26.98294305675666
 21
1.310888824308392
  0
LINE
  5
148
100
AcDbEntity
  8
0
  6
ByLayer
 62
  256
370
   -1
100
AcDbLine
 10
26.98294305675666
 20
1.310888824308392
 11
27.04065565960071
 21
1.237436420688709
  0
LINE
  5
149
100
AcDbEntity
  8
0
  6
ByLayer
 62
  256
370
   -1
100
AcDbLine
 10
27.04065565960071
 20
1.237436420688709
 11
27.14558766477172
 21
1.316135424566937
  0
LINE
  5
14A
100
AcDbEntity
  8
0
  6
ByLayer
 62
  256
370
   -1
100
AcDbLine
 10
27.14558766477172
 20
1.316135424566937
 11
27.07213526115209
 21
1.426314029996547
  0
LINE
  5
14B
100
AcDbEntity
  8
0
  6
ByLayer
 62
  256
370
   -1
100
AcDbLine
 10
27.07213526115209
 20
1.426314029996547
 11
26.91998385365401
 21
1.51025963413332
  0
LINE
  5
14C
100
AcDbEntity
  8
0
  6
ByLayer
 62
  256
370
   -1
100
AcDbLine
 10
26.91998385365401
 20
1.51025963413332
 11
26.76783244615605
 21
1.520752834650466
  0
LINE
  5
14D
100
AcDbEntity
  8
0
  6
ByLayer
 62
  256
370
   -1
100
AcDbLine
 10
26.76783244615605
 20
1.520752834650466
 11
26.67339364150213
 21
1.51025963413332
  0
LINE
  5
14E
100
AcDbEntity
  8
0
  6
ByLayer
 62
  256
370
   -1
100
AcDbLine
 10
26.67339364150213
 20
1.51025963413332
 11
26.50025583296998
 21
1.473533432323507
  0
LINE
  5
14F
100
AcDbEntity
  8
0
  6
ByLayer
 62
  256
370
   -1
100
AcDbLine
 10
28.12145531286229
 20
1.683397442665523
 11
28.00603010717419
 21
1.54698583594319
  0
LINE
  5
150
100
AcDbEntity
  8
0
  6
ByLayer
 62
  256
370
   -1
100
AcDbLine
 10
28.00603010717419
 20
1.54698583594319
 11
27.93257770355445
 21
1.379094627669588
  0
LINE
  5
151
100
AcDbEntity
  8
0
  6
ByLayer
 62
  256
370
   -1
100
AcDbLine
 10
27.93257770355445
 20
1.379094627669588
 11
27.90634470226167
 21
1.263669421981433
  0
LINE
  5
152
100
AcDbEntity
  8
0
  6
ByLayer
 62
  256
370
   -1
100
AcDbLine
 10
27.90634470226167
 20
1.263669421981433
 11
27.91159130252028
 21
1.101024813966376
  0
LINE
  5
153
100
AcDbEntity
  8
0
  6
ByLayer
 62
  256
370
   -1
100
AcDbLine
 10
27.91159130252028
 20
1.101024813966376
 11
27.93782430381294
 21
0.9488734064683513
  0
LINE
  5
154
100
AcDbEntity
  8
0
  6
ByLayer
 62
  256
370
   -1
100
AcDbLine
 10
27.93782430381294
 20
0.9488734064683513
 11
27.9850437061399
 21
0.8491880015558877
  0
LINE
  5
155
100
AcDbEntity
  8
0
  6
ByLayer
 62
  256
370
   -1
100
AcDbLine
 10
27.9850437061399
 20
0.8491880015558877
 11
28.08472911105242
 21
0.7599957971605136
  0
LINE
  5
156
100
AcDbEntity
  8
0
  6
ByLayer
 62
  256
370
   -1
100
AcDbLine
 10
28.08472911105242
 20
0.7599957971605136
 11
28.19490771648203
 21
0.6498171917309605
  0
LINE
  5
157
100
AcDbEntity
  8
0
  6
ByLayer
 62
  256
370
   -1
100
AcDbLine
 10
28.19490771648203
 20
0.6498171917309605
 11
28.28934652113595
 21
0.5868579886283669
  0
LINE
  5
158
100
AcDbEntity
  8
0
  6
ByLayer
 62
  256
370
   -1
100
AcDbLine
 10
28.28934652113595
 20
0.5868579886283669
 11
28.42051152759963
 21
0.5763647881112774
  0
LINE
  5
159
100
AcDbEntity
  8
0
  6
ByLayer
 62
  256
370
   -1
100
AcDbLine
 10
28.42051152759963
 20
0.5763647881112774
 11
28.55167653406341
 21
0.5868579886283669
  0
LINE
  5
15A
100
AcDbEntity
  8
0
  6
ByLayer
 62
  256
370
   -1
100
AcDbLine
 10
28.55167653406341
 20
0.5868579886283669
 11
28.65136193897593
 21
0.6078443896625458
  0
LINE
  5
15B
100
AcDbEntity
  8
0
  6
ByLayer
 62
  256
370
   -1
100
AcDbLine
 10
28.65136193897593
 20
0.6078443896625458
 11
28.77203374492263
 21
0.6393239912138711
  0
LINE
  5
15C
100
AcDbEntity
  8
0
  6
ByLayer
 62
  256
370
   -1
100
AcDbLine
 10
28.77203374492263
 20
0.6393239912138711
 11
28.85597934905946
 21
0.6812967932822858
  0
LINE
  5
15D
100
AcDbEntity
  8
0
  6
ByLayer
 62
  256
370
   -1
100
AcDbLine
 10
28.85597934905946
 20
0.6812967932822858
 11
28.93467835293769
 21
0.7599957971605136
  0
LINE
  5
15E
100
AcDbEntity
  8
0
  6
ByLayer
 62
  256
370
   -1
100
AcDbLine
 10
28.93467835293769
 20
0.7599957971605136
 11
28.96615795448896
 21
0.859681202073034
  0
LINE
  5
15F
100
AcDbEntity
  8
0
  6
ByLayer
 62
  256
370
   -1
100
AcDbLine
 10
28.96615795448896
 20
0.859681202073034
 11
29.01337735681592
 21
0.9855996082782212
  0
LINE
  5
160
100
AcDbEntity
  8
0
  6
ByLayer
 62
  256
370
   -1
100
AcDbLine
 10
29.01337735681592
 20
0.9855996082782212
 11
28.90319875138642
 21
1.032819010605181
  0
LINE
  5
161
100
AcDbEntity
  8
0
  6
ByLayer
 62
  256
370
   -1
100
AcDbLine
 10
28.90319875138642
 20
1.032819010605181
 11
28.81925314724959
 21
0.8701744025901235
  0
LINE
  5
162
100
AcDbEntity
  8
0
  6
ByLayer
 62
  256
370
   -1
100
AcDbLine
 10
28.81925314724959
 20
0.8701744025901235
 11
28.62512893768315
 21
0.7285161956092452
  0
LINE
  5
163
100
AcDbEntity
  8
0
  6
ByLayer
 62
  256
370
   -1
100
AcDbLine
 10
28.62512893768315
 20
0.7285161956092452
 11
28.4624843296681
 21
0.7127763948335541
  0
LINE
  5
164
100
AcDbEntity
  8
0
  6
ByLayer
 62
  256
370
   -1
100
AcDbLine
 10
28.4624843296681
 20
0.7127763948335541
 11
28.32607272294571
 21
0.7599957971605136
  0
LINE
  5
165
100
AcDbEntity
  8
0
  6
ByLayer
 62
  256
370
   -1
100
AcDbLine
 10
28.32607272294571
 20
0.7599957971605136
 11
28.23688051855039
 21
0.7914753987118388
  0
LINE
  5
166
100
AcDbEntity
  8
0
  6
ByLayer
 62
  256
370
   -1
100
AcDbLine
 10
28.23688051855039
 20
0.7914753987118388
 11
28.16342811493065
 21
0.8491880015558877
  0
LINE
  5
167
100
AcDbEntity
  8
0
  6
ByLayer
 62
  256
370
   -1
100
AcDbLine
 10
28.16342811493065
 20
0.8491880015558877
 11
28.10046891182811
 21
0.9331336056927171
  0
LINE
  5
168
100
AcDbEntity
  8
0
  6
ByLayer
 62
  256
370
   -1
100
AcDbLine
 10
28.10046891182811
 20
0.9331336056927171
 11
28.02701650820837
 21
1.064298612156506
  0
LINE
  5
169
100
AcDbEntity
  8
0
  6
ByLayer
 62
  256
370
   -1
100
AcDbLine
 10
28.02701650820837
 20
1.064298612156506
 11
28.06898931027673
 21
1.310888824308392
  0
LINE
  5
16A
100
AcDbEntity
  8
0
  6
ByLayer
 62
  256
370
   -1
100
AcDbLine
 10
28.06898931027673
 20
1.310888824308392
 11
28.1057155120866
 21
1.415820829479401
  0
LINE
  5
16B
100
AcDbEntity
  8
0
  6
ByLayer
 62
  256
370
   -1
100
AcDbLine
 10
28.1057155120866
 20
1.415820829479401
 11
28.19490771648203
 21
1.520752834650466
  0
LINE
  5
16C
100
AcDbEntity
  8
0
  6
ByLayer
 62
  256
370
   -1
100
AcDbLine
 10
28.19490771648203
 20
1.520752834650466
 11
28.26836012010166
 21
1.60994503904584
  0
LINE
  5
16D
100
AcDbEntity
  8
0
  6
ByLayer
 62
  256
370
   -1
100
AcDbLine
 10
28.26836012010166
 20
1.60994503904584
 11
28.38903192604836
 21
1.672904242148434
  0
LINE
  5
16E
100
AcDbEntity
  8
0
  6
ByLayer
 62
  256
370
   -1
100
AcDbLine
 10
28.38903192604836
 20
1.672904242148434
 11
28.49921053147797
 21
1.714877044216848
  0
LINE
  5
16F
100
AcDbEntity
  8
0
  6
ByLayer
 62
  256
370
   -1
100
AcDbLine
 10
28.49921053147797
 20
1.714877044216848
 11
28.65136193897593
 21
1.704383843699702
  0
LINE
  5
170
100
AcDbEntity
  8
0
  6
ByLayer
 62
  256
370
   -1
100
AcDbLine
 10
28.65136193897593
 20
1.704383843699702
 11
28.77203374492263
 21
1.651917841114198
  0
LINE
  5
171
100
AcDbEntity
  8
0
  6
ByLayer
 62
  256
370
   -1
100
AcDbLine
 10
28.77203374492263
 20
1.651917841114198
 11
28.84548614854226
 21
1.484026632840596
  0
LINE
  5
172
100
AcDbEntity
  8
0
  6
ByLayer
 62
  256
370
   -1
100
AcDbLine
 10
28.84548614854226
 20
1.484026632840596
 11
28.94517155345478
 21
1.468286832064962
  0
LINE
  5
173
100
AcDbEntity
  8
0
  6
ByLayer
 62
  256
370
   -1
100
AcDbLine
 10
28.94517155345478
 20
1.468286832064962
 11
28.97665115500605
 21
1.599451838528694
  0
LINE
  5
174
100
AcDbEntity
  8
0
  6
ByLayer
 62
  256
370
   -1
100
AcDbLine
 10
28.97665115500605
 20
1.599451838528694
 11
28.86647254957655
 21
1.735863445251027
  0
LINE
  5
175
100
AcDbEntity
  8
0
  6
ByLayer
 62
  256
370
   -1
100
AcDbLine
 10
28.86647254957655
 20
1.735863445251027
 11
28.74055414337125
 21
1.793576048095076
  0
LINE
  5
176
100
AcDbEntity
  8
0
  6
ByLayer
 62
  256
370
   -1
100
AcDbLine
 10
28.74055414337125
 20
1.793576048095076
 11
28.63037553794176
 21
1.804069248612223
  0
LINE
  5
177
100
AcDbEntity
  8
0
  6
ByLayer
 62
  256
370
   -1
100
AcDbLine
 10
28.63037553794176
 20
1.804069248612223
 11
28.53593673328784
 21
1.804069248612223
  0
LINE
  5
178
100
AcDbEntity
  8
0
  6
ByLayer
 62
  256
370
   -1
100
AcDbLine
 10
28.53593673328784
 20
1.804069248612223
 11
28.38903192604836
 21
1.804069248612223
  0
LINE
  5
179
100
AcDbEntity
  8
0
  6
ByLayer
 62
  256
370
   -1
100
AcDbLine
 10
28.38903192604836
 20
1.804069248612223
 11
28.27360672036026
 21
1.772589647060897
  0
LINE
  5
17A
100
AcDbEntity
  8
0
  6
ByLayer
 62
  256
370
   -1
100
AcDbLine
 10
28.27360672036026
 20
1.772589647060897
 11
28.12145531286229
 21
1.683397442665523
  0
LINE
  5
17B
100
AcDbEntity
  8
0
  6
ByLayer
 62
  256
370
   -1
100
AcDbLine
 10
28.12145531286229
 20
1.683397442665523
 11
27.96930390536432
 21
1.46304023180636
  0
LINE
  5
17C
100
AcDbEntity
  8
0
  6
ByLayer
 62
  256
370
   -1
100
AcDbLine
 10
29.36489957413881
 20
1.342368425859718
 11
29.29669377077768
 21
1.284655823015669
  0
LINE
  5
17D
100
AcDbEntity
  8
0
  6
ByLayer
 62
  256
370
   -1
100
AcDbLine
 10
29.29669377077768
 20
1.284655823015669
 11
29.28620057026059
 21
1.184970418103148
  0
LINE
  5
17E
100
AcDbEntity
  8
0
  6
ByLayer
 62
  256
370
   -1
100
AcDbLine
 10
29.28620057026059
 20
1.184970418103148
 11
29.24422776819223
 21
0.9331336056927171
  0
LINE
  5
17F
100
AcDbEntity
  8
0
  6
ByLayer
 62
  256
370
   -1
100
AcDbLine
 10
29.24422776819223
 20
0.9331336056927171
 11
29.24947436845072
 21
0.8019685992289283
  0
LINE
  5
180
100
AcDbEntity
  8
0
  6
ByLayer
 62
  256
370
   -1
100
AcDbLine
 10
29.24947436845072
 20
0.8019685992289283
 11
29.29144717051919
 21
0.7022831943164647
  0
LINE
  5
181
100
AcDbEntity
  8
0
  6
ByLayer
 62
  256
370
   -1
100
AcDbLine
 10
29.29144717051919
 20
0.7022831943164647
 11
29.40162577594868
 21
0.6235841904382369
  0
LINE
  5
182
100
AcDbEntity
  8
0
  6
ByLayer
 62
  256
370
   -1
100
AcDbLine
 10
29.40162577594868
 20
0.6235841904382369
 11
29.52754418215399
 21
0.5763647881112774
  0
LINE
  5
183
100
AcDbEntity
  8
0
  6
ByLayer
 62
  256
370
   -1
100
AcDbLine
 10
29.52754418215399
 20
0.5763647881112774
 11
29.66395578887626
 21
0.5658715875941311
  0
LINE
  5
184
100
AcDbEntity
  8
0
  6
ByLayer
 62
  256
370
   -1
100
AcDbLine
 10
29.66395578887626
 20
0.5658715875941311
 11
29.76888779404727
 21
0.5868579886283669
  0
LINE
  5
185
100
AcDbEntity
  8
0
  6
ByLayer
 62
  256
370
   -1
100
AcDbLine
 10
29.76888779404727
 20
0.5868579886283669
 11
29.8580799984427
 21
0.6235841904382369
  0
LINE
  5
186
100
AcDbEntity
  8
0
  6
ByLayer
 62
  256
370
   -1
100
AcDbLine
 10
29.8580799984427
 20
0.6235841904382369
 11
29.94727220283802
 21
0.7127763948335541
  0
LINE
  5
187
100
AcDbEntity
  8
0
  6
ByLayer
 62
  256
370
   -1
100
AcDbLine
 10
29.94727220283802
 20
0.7127763948335541
 11
30.04171100749194
 21
0.8701744025901235
  0
LINE
  5
188
100
AcDbEntity
  8
0
  6
ByLayer
 62
  256
370
   -1
100
AcDbLine
 10
30.04171100749194
 20
0.8701744025901235
 11
30.06794400878472
 21
1.032819010605181
  0
LINE
  5
189
100
AcDbEntity
  8
0
  6
ByLayer
 62
  256
370
   -1
100
AcDbLine
 10
30.06794400878472
 20
1.032819010605181
 11
30.07319060904321
 21
1.184970418103148
  0
LINE
  5
18A
100
AcDbEntity
  8
0
  6
ByLayer
 62
  256
370
   -1
100
AcDbLine
 10
30.07319060904321
 20
1.184970418103148
 11
30.03646440723345
 21
1.300395623791303
  0
LINE
  5
18B
100
AcDbEntity
  8
0
  6
ByLayer
 62
  256
370
   -1
100
AcDbLine
 10
30.03646440723345
 20
1.300395623791303
 11
29.95776540335511
 21
1.389587828186677
  0
LINE
  5
18C
100
AcDbEntity
  8
0
  6
ByLayer
 62
  256
370
   -1
100
AcDbLine
 10
29.95776540335511
 20
1.389587828186677
 11
29.8580799984427
 21
1.447300431030726
  0
LINE
  5
18D
100
AcDbEntity
  8
0
  6
ByLayer
 62
  256
370
   -1
100
AcDbLine
 10
29.8580799984427
 20
1.447300431030726
 11
29.75314799327158
 21
1.46304023180636
  0
LINE
  5
18E
100
AcDbEntity
  8
0
  6
ByLayer
 62
  256
370
   -1
100
AcDbLine
 10
29.75314799327158
 20
1.46304023180636
 11
29.59574998551512
 21
1.46304023180636
  0
LINE
  5
18F
100
AcDbEntity
  8
0
  6
ByLayer
 62
  256
370
   -1
100
AcDbLine
 10
29.59574998551512
 20
1.46304023180636
 11
29.44884517827564
 21
1.436807230513637
  0
LINE
  5
190
100
AcDbEntity
  8
0
  6
ByLayer
 62
  256
370
   -1
100
AcDbLine
 10
29.44884517827564
 20
1.436807230513637
 11
29.36489957413881
 21
1.342368425859718
  0
LINE
  5
191
100
AcDbEntity
  8
0
  6
ByLayer
 62
  256
370
   -1
100
AcDbLine
 10
29.36489957413881
 20
1.342368425859718
 11
29.3307966724583
 21
1.313512124437693
  0
LINE
  5
192
100
AcDbEntity
  8
0
  6
ByLayer
 62
  256
370
   -1
100
AcDbLine
 10
29.40162577594868
 20
1.205956819137384
 11
29.36489957413881
 21
1.053805411639416
  0
LINE
  5
193
100
AcDbEntity
  8
0
  6
ByLayer
 62
  256
370
   -1
100
AcDbLine
 10
29.36489957413881
 20
1.053805411639416
 11
29.36489957413881
 21
0.9436268062098065
  0
LINE
  5
194
100
AcDbEntity
  8
0
  6
ByLayer
 62
  256
370
   -1
100
AcDbLine
 10
29.36489957413881
 20
0.9436268062098065
 11
29.36489957413881
 21
0.8491880015558877
  0
LINE
  5
195
100
AcDbEntity
  8
0
  6
ByLayer
 62
  256
370
   -1
100
AcDbLine
 10
29.36489957413881
 20
0.8491880015558877
 11
29.45409177853425
 21
0.7232695953507005
  0
LINE
  5
196
100
AcDbEntity
  8
0
  6
ByLayer
 62
  256
370
   -1
100
AcDbLine
 10
29.45409177853425
 20
0.7232695953507005
 11
29.53803738267107
 21
0.6812967932822858
  0
LINE
  5
197
100
AcDbEntity
  8
0
  6
ByLayer
 62
  256
370
   -1
100
AcDbLine
 10
29.53803738267107
 20
0.6812967932822858
 11
29.68494218991044
 21
0.6812967932822858
  0
LINE
  5
198
100
AcDbEntity
  8
0
  6
ByLayer
 62
  256
370
   -1
100
AcDbLine
 10
29.68494218991044
 20
0.6812967932822858
 11
29.80036739559865
 21
0.7495025966434241
  0
LINE
  5
199
100
AcDbEntity
  8
0
  6
ByLayer
 62
  256
370
   -1
100
AcDbLine
 10
29.80036739559865
 20
0.7495025966434241
 11
29.89480620025257
 21
0.9331336056927171
  0
LINE
  5
19A
100
AcDbEntity
  8
0
  6
ByLayer
 62
  256
370
   -1
100
AcDbLine
 10
29.89480620025257
 20
0.9331336056927171
 11
29.95776540335511
 21
1.022325810088091
  0
LINE
  5
19B
100
AcDbEntity
  8
0
  6
ByLayer
 62
  256
370
   -1
100
AcDbLine
 10
29.95776540335511
 20
1.022325810088091
 11
29.9682586038722
 21
1.1272578152591
  0
LINE
  5
19C
100
AcDbEntity
  8
0
  6
ByLayer
 62
  256
370
   -1
100
AcDbLine
 10
29.9682586038722
 20
1.1272578152591
 11
29.92103920154524
 21
1.268916022239978
  0
LINE
  5
19D
100
AcDbEntity
  8
0
  6
ByLayer
 62
  256
370
   -1
100
AcDbLine
 10
29.92103920154524
 20
1.268916022239978
 11
29.79512079534005
 21
1.363354826893897
  0
LINE
  5
19E
100
AcDbEntity
  8
0
  6
ByLayer
 62
  256
370
   -1
100
AcDbLine
 10
29.79512079534005
 20
1.363354826893897
 11
29.60099658577361
 21
1.368601427152441
  0
LINE
  5
19F
100
AcDbEntity
  8
0
  6
ByLayer
 62
  256
370
   -1
100
AcDbLine
 10
29.60099658577361
 20
1.368601427152441
 11
29.4960645806026
 21
1.352861626376807
  0
LINE
  5
1A0
100
AcDbEntity
  8
0
  6
ByLayer
 62
  256
370
   -1
100
AcDbLine
 10
29.4960645806026
 20
1.352861626376807
 11
29.40162577594868
 21
1.205956819137384
  0
LINE
  5
1A1
100
AcDbEntity
  8
0
  6
ByLayer
 62
  256
370
   -1
100
AcDbLine
 10
30.3302740217123
 20
1.426314029996547
 11
30.30404102041951
 21
0.5816113883698222
  0
LINE
  5
1A2
100
AcDbEntity
  8
0
  6
ByLayer
 62
  256
370
   -1
100
AcDbLine
 10
30.47193222869317
 20
1.095778213707831
 11
30.48767202946875
 21
1.226943220171563
  0
LINE
  5
1A3
100
AcDbEntity
  8
0
  6
ByLayer
 62
  256
370
   -1
100
AcDbLine
 10
30.48767202946875
 20
1.226943220171563
 11
30.56112443308849
 21
1.289902423274214
  0
LINE
  5
1A4
100
AcDbEntity
  8
0
  6
ByLayer
 62
  256
370
   -1
100
AcDbLine
 10
30.56112443308849
 20
1.289902423274214
 11
30.65556323774241
 21
1.342368425859718
  0
LINE
  5
1A5
100
AcDbEntity
  8
0
  6
ByLayer
 62
  256
370
   -1
100
AcDbLine
 10
30.65556323774241
 20
1.342368425859718
 11
30.83919424679176
 21
1.289902423274214
  0
LINE
  5
1A6
100
AcDbEntity
  8
0
  6
ByLayer
 62
  256
370
   -1
100
AcDbLine
 10
30.83919424679176
 20
0.6235841904382369
 11
30.95461945247986
 21
0.6130909899210906
  0
LINE
  5
1A7
100
AcDbEntity
  8
0
  6
ByLayer
 62
  256
370
   -1
100
AcDbLine
 10
30.95461945247986
 20
0.6130909899210906
 11
30.97035925325543
 21
0.7495025966434241
  0
LINE
  5
1A8
100
AcDbEntity
  8
0
  6
ByLayer
 62
  256
370
   -1
100
AcDbLine
 10
30.97035925325543
 20
0.7495025966434241
 11
30.97035925325543
 21
0.9069006043999934
  0
LINE
  5
1A9
100
AcDbEntity
  8
0
  6
ByLayer
 62
  256
370
   -1
100
AcDbLine
 10
30.97035925325543
 20
0.9069006043999934
 11
30.97560585351404
 21
1.074791812673595
  0
LINE
  5
1AA
100
AcDbEntity
  8
0
  6
ByLayer
 62
  256
370
   -1
100
AcDbLine
 10
30.97560585351404
 20
1.074791812673595
 11
30.99134565428973
 21
1.179723817844604
  0
LINE
  5
1AB
100
AcDbEntity
  8
0
  6
ByLayer
 62
  256
370
   -1
100
AcDbLine
 10
30.99134565428973
 20
1.179723817844604
 11
31.10152425971922
 21
1.310888824308392
  0
LINE
  5
1AC
100
AcDbEntity
  8
0
  6
ByLayer
 62
  256
370
   -1
100
AcDbLine
 10
31.10152425971922
 20
1.310888824308392
 11
31.22744266592452
 21
1.321382024825482
  0
LINE
  5
1AD
100
AcDbEntity
  8
0
  6
ByLayer
 62
  256
370
   -1
100
AcDbLine
 10
31.22744266592452
 20
1.321382024825482
 11
31.35336107212971
 21
1.195463618620295
  0
LINE
  5
1AE
100
AcDbEntity
  8
0
  6
ByLayer
 62
  256
370
   -1
100
AcDbLine
 10
31.39533387419807
 20
0.9016540041413919
 11
31.39008727393958
 21
0.7495025966434241
  0
LINE
  5
1AF
100
AcDbEntity
  8
0
  6
ByLayer
 62
  256
370
   -1
100
AcDbLine
 10
31.51600568014477
 20
1.19021701836175
 11
31.47927947833501
 21
1.316135424566937
  0
LINE
  5
1B0
100
AcDbEntity
  8
0
  6
ByLayer
 62
  256
370
   -1
100
AcDbLine
 10
31.47927947833501
 20
1.316135424566937
 11
31.41107367497376
 21
1.400081028703767
  0
LINE
  5
1B1
100
AcDbEntity
  8
0
  6
ByLayer
 62
  256
370
   -1
100
AcDbLine
 10
31.41107367497376
 20
1.400081028703767
 11
31.20645626489023
 21
1.46304023180636
  0
LINE
  5
1B2
100
AcDbEntity
  8
0
  6
ByLayer
 62
  256
370
   -1
100
AcDbLine
 10
31.20645626489023
 20
1.46304023180636
 11
31.11726406049491
 21
1.436807230513637
  0
LINE
  5
1B3
100
AcDbEntity
  8
0
  6
ByLayer
 62
  256
370
   -1
100
AcDbLine
 10
31.11726406049491
 20
1.436807230513637
 11
31.0070854550653
 21
1.389587828186677
  0
LINE
  5
1B4
100
AcDbEntity
  8
0
  6
ByLayer
 62
  256
370
   -1
100
AcDbLine
 10
31.0070854550653
 20
1.389587828186677
 11
30.87592044860152
 21
1.421067429738002
  0
LINE
  5
1B5
100
AcDbEntity
  8
0
  6
ByLayer
 62
  256
370
   -1
100
AcDbLine
 10
30.87592044860152
 20
1.421067429738002
 11
30.77098844343051
 21
1.46304023180636
  0
LINE
  5
1B6
100
AcDbEntity
  8
0
  6
ByLayer
 62
  256
370
   -1
100
AcDbLine
 10
30.77098844343051
 20
1.46304023180636
 11
30.60834383541545
 21
1.457793631547815
  0
LINE
  5
1B7
100
AcDbEntity
  8
0
  6
ByLayer
 62
  256
370
   -1
100
AcDbLine
 10
30.60834383541545
 20
1.457793631547815
 11
30.48767202946875
 21
1.358108226635352
  0
LINE
  5
1B8
100
AcDbEntity
  8
0
  6
ByLayer
 62
  256
370
   -1
100
AcDbLine
 10
30.48767202946875
 20
1.358108226635352
 11
30.54800793244216
 21
1.407950929091612
  0
LINE
  5
1B9
100
AcDbEntity
  8
0
  6
ByLayer
 62
  256
370
   -1
100
AcDbLine
 10
31.83080169565791
 20
1.442053830772181
 11
31.77308909281386
 21
0.2930483741495209
  0
LINE
  5
1BA
100
AcDbEntity
  8
0
  6
ByLayer
 62
  256
370
   -1
100
AcDbLine
 10
31.92524050031183
 20
0.3035415746666104
 11
31.93573370082892
 21
0.5816113883698222
  0
LINE
  5
1BB
100
AcDbEntity
  8
0
  6
ByLayer
 62
  256
370
   -1
100
AcDbLine
 10
31.93573370082892
 20
0.5816113883698222
 11
32.03541910574133
 21
0.5763647881112774
  0
LINE
  5
1BC
100
AcDbEntity
  8
0
  6
ByLayer
 62
  256
370
   -1
100
AcDbLine
 10
32.03541910574133
 20
0.5763647881112774
 11
32.14035111091245
 21
0.5501317868184969
  0
LINE
  5
1BD
100
AcDbEntity
  8
0
  6
ByLayer
 62
  256
370
   -1
100
AcDbLine
 10
32.14035111091245
 20
0.5501317868184969
 11
32.32922872022029
 21
0.5606249873355864
  0
LINE
  5
1BE
100
AcDbEntity
  8
0
  6
ByLayer
 62
  256
370
   -1
100
AcDbLine
 10
32.32922872022029
 20
0.5606249873355864
 11
32.44465392590838
 21
0.5921045888869116
  0
LINE
  5
1BF
100
AcDbEntity
  8
0
  6
ByLayer
 62
  256
370
   -1
100
AcDbLine
 10
32.44465392590838
 20
0.5921045888869116
 11
32.56532573185508
 21
0.7599957971605136
  0
LINE
  5
1C0
100
AcDbEntity
  8
0
  6
ByLayer
 62
  256
370
   -1
100
AcDbLine
 10
32.56532573185508
 20
0.7599957971605136
 11
32.62303833469913
 21
0.8649278023315787
  0
LINE
  5
1C1
100
AcDbEntity
  8
0
  6
ByLayer
 62
  256
370
   -1
100
AcDbLine
 10
32.62303833469913
 20
0.8649278023315787
 11
32.63877813547471
 21
0.990846208536766
  0
LINE
  5
1C2
100
AcDbEntity
  8
0
  6
ByLayer
 62
  256
370
   -1
100
AcDbLine
 10
32.63877813547471
 20
0.990846208536766
 11
32.62828493495762
 21
1.195463618620295
  0
LINE
  5
1C3
100
AcDbEntity
  8
0
  6
ByLayer
 62
  256
370
   -1
100
AcDbLine
 10
32.62828493495762
 20
1.195463618620295
 11
32.57057233211357
 21
1.289902423274214
  0
LINE
  5
1C4
100
AcDbEntity
  8
0
  6
ByLayer
 62
  256
370
   -1
100
AcDbLine
 10
32.57057233211357
 20
1.289902423274214
 11
32.45514712642547
 21
1.410574229220856
  0
LINE
  5
1C5
100
AcDbEntity
  8
0
  6
ByLayer
 62
  256
370
   -1
100
AcDbLine
 10
32.45514712642547
 20
1.410574229220856
 11
32.33972192073738
 21
1.457793631547815
  0
LINE
  5
1C6
100
AcDbEntity
  8
0
  6
ByLayer
 62
  256
370
   -1
100
AcDbLine
 10
32.33972192073738
 20
1.457793631547815
 11
32.1980637137565
 21
1.473533432323507
  0
LINE
  5
1C7
100
AcDbEntity
  8
0
  6
ByLayer
 62
  256
370
   -1
100
AcDbLine
 10
32.1980637137565
 20
1.473533432323507
 11
32.08788510832689
 21
1.394834428445222
  0
LINE
  5
1C8
100
AcDbEntity
  8
0
  6
ByLayer
 62
  256
370
   -1
100
AcDbLine
 10
32.08788510832689
 20
1.394834428445222
 11
31.95672010186309
 21
1.321382024825482
  0
LINE
  5
1C9
100
AcDbEntity
  8
0
  6
ByLayer
 62
  256
370
   -1
100
AcDbLine
 10
31.95672010186309
 20
1.321382024825482
 11
31.98295310315588
 21
1.447300431030726
  0
LINE
  5
1CA
100
AcDbEntity
  8
0
  6
ByLayer
 62
  256
370
   -1
100
AcDbLine
 10
31.98295310315588
 20
1.447300431030726
 11
31.83080169565791
 21
1.442053830772181
  0
LINE
  5
1CB
100
AcDbEntity
  8
0
  6
ByLayer
 62
  256
370
   -1
100
AcDbLine
 10
32.92209454943647
 20
1.436807230513637
 11
32.90635474866089
 21
0.6917899937993752
  0
LINE
  5
1CC
100
AcDbEntity
  8
0
  6
ByLayer
 62
  256
370
   -1
100
AcDbLine
 10
32.90635474866089
 20
0.6917899937993752
 11
32.93258774995356
 21
0.6235841904382369
  0
LINE
  5
1CD
100
AcDbEntity
  8
0
  6
ByLayer
 62
  256
370
   -1
100
AcDbLine
 10
32.93258774995356
 20
0.6235841904382369
 11
32.96931395176343
 21
0.5763647881112774
  0
LINE
  5
1CE
100
AcDbEntity
  8
0
  6
ByLayer
 62
  256
370
   -1
100
AcDbLine
 10
32.96931395176343
 20
0.5763647881112774
 11
33.0112867538319
 21
0.5606249873355864
  0
LINE
  5
1CF
100
AcDbEntity
  8
0
  6
ByLayer
 62
  256
370
   -1
100
AcDbLine
 10
33.0112867538319
 20
0.5606249873355864
 11
33.07949255719303
 21
0.5448851865599522
  0
LINE
  5
1D0
100
AcDbEntity
  8
0
  6
ByLayer
 62
  256
370
   -1
100
AcDbLine
 10
33.07949255719303
 20
0.5448851865599522
 11
33.15819156107126
 21
0.5501317868184969
  0
LINE
  5
1D1
100
AcDbEntity
  8
0
  6
ByLayer
 62
  256
370
   -1
100
AcDbLine
 10
33.15819156107126
 20
0.5501317868184969
 11
33.18967116262264
 21
0.5501317868184969
  0
LINE
  5
1D2
100
AcDbEntity
  8
0
  6
ByLayer
 62
  256
370
   -1
100
AcDbLine
 10
33.18967116262264
 20
0.5501317868184969
 11
33.25787696598378
 21
0.5448851865599522
  0
LINE
  5
1D3
100
AcDbEntity
  8
0
  6
ByLayer
 62
  256
370
   -1
100
AcDbLine
 10
33.25787696598378
 20
0.5448851865599522
 11
33.3523157706377
 21
0.5606249873355864
  0
LINE
  5
1D4
100
AcDbEntity
  8
0
  6
ByLayer
 62
  256
370
   -1
100
AcDbLine
 10
33.3523157706377
 20
0.5606249873355864
 11
33.42052157399884
 21
0.5921045888869116
  0
LINE
  5
1D5
100
AcDbEntity
  8
0
  6
ByLayer
 62
  256
370
   -1
100
AcDbLine
 10
33.42052157399884
 20
0.5921045888869116
 11
33.46249437606731
 21
0.6708035927651963
  0
LINE
  5
1D6
100
AcDbEntity
  8
0
  6
ByLayer
 62
  256
370
   -1
100
AcDbLine
 10
33.46249437606731
 20
0.6708035927651963
 11
33.4677409763258
 21
0.5868579886283669
  0
LINE
  5
1D7
100
AcDbEntity
  8
0
  6
ByLayer
 62
  256
370
   -1
100
AcDbLine
 10
33.4677409763258
 20
0.5868579886283669
 11
33.47823417684289
 21
0.5711181878526759
  0
LINE
  5
1D8
100
AcDbEntity
  8
0
  6
ByLayer
 62
  256
370
   -1
100
AcDbLine
 10
33.47823417684289
 20
0.5711181878526759
 11
33.50446717813567
 21
0.5606249873355864
  0
LINE
  5
1D9
100
AcDbEntity
  8
0
  6
ByLayer
 62
  256
370
   -1
100
AcDbLine
 10
33.50446717813567
 20
0.5606249873355864
 11
33.54119337994554
 21
0.5448851865599522
  0
LINE
  5
1DA
100
AcDbEntity
  8
0
  6
ByLayer
 62
  256
370
   -1
100
AcDbLine
 10
33.54119337994554
 20
0.5448851865599522
 11
33.61464578356528
 21
0.5606249873355864
  0
LINE
  5
1DB
100
AcDbEntity
  8
0
  6
ByLayer
 62
  256
370
   -1
100
AcDbLine
 10
33.61464578356528
 20
0.5606249873355864
 11
33.59890598278959
 21
0.6865433935408305
  0
LINE
  5
1DC
100
AcDbEntity
  8
0
  6
ByLayer
 62
  256
370
   -1
100
AcDbLine
 10
33.59890598278959
 20
0.6865433935408305
 11
33.63038558434086
 21
0.8386948010387982
  0
LINE
  5
1DD
100
AcDbEntity
  8
0
  6
ByLayer
 62
  256
370
   -1
100
AcDbLine
 10
33.63038558434086
 20
0.8386948010387982
 11
33.63038558434086
 21
0.9383802059512618
  0
LINE
  5
1DE
100
AcDbEntity
  8
0
  6
ByLayer
 62
  256
370
   -1
100
AcDbLine
 10
33.63038558434086
 20
0.9383802059512618
 11
33.63038558434086
 21
1.032819010605181
  0
LINE
  5
1DF
100
AcDbEntity
  8
0
  6
ByLayer
 62
  256
370
   -1
100
AcDbLine
 10
33.63038558434086
 20
1.032819010605181
 11
33.63038558434086
 21
1.111518014483465
  0
LINE
  5
1E0
100
AcDbEntity
  8
0
  6
ByLayer
 62
  256
370
   -1
100
AcDbLine
 10
33.63038558434086
 20
1.111518014483465
 11
33.63563218459946
 21
1.247929621205799
  0
LINE
  5
1E1
100
AcDbEntity
  8
0
  6
ByLayer
 62
  256
370
   -1
100
AcDbLine
 10
33.63563218459946
 20
1.247929621205799
 11
33.65137198537515
 21
1.347615026118262
  0
LINE
  5
1E2
100
AcDbEntity
  8
0
  6
ByLayer
 62
  256
370
   -1
100
AcDbLine
 10
33.65137198537515
 20
1.347615026118262
 11
33.65137198537515
 21
1.415820829479401
  0
LINE
  5
1E3
100
AcDbEntity
  8
0
  6
ByLayer
 62
  256
370
   -1
100
AcDbLine
 10
33.65137198537515
 20
1.415820829479401
 11
33.64087878485795
 21
1.426314029996547
  0
LINE
  5
1E4
100
AcDbEntity
  8
0
  6
ByLayer
 62
  256
370
   -1
100
AcDbLine
 10
33.64087878485795
 20
1.426314029996547
 11
33.5831661820139
 21
1.436807230513637
  0
LINE
  5
1E5
100
AcDbEntity
  8
0
  6
ByLayer
 62
  256
370
   -1
100
AcDbLine
 10
33.5831661820139
 20
1.436807230513637
 11
33.57267298149681
 21
1.431560630255092
  0
LINE
  5
1E6
100
AcDbEntity
  8
0
  6
ByLayer
 62
  256
370
   -1
100
AcDbLine
 10
33.57267298149681
 20
1.431560630255092
 11
33.49922057787718
 21
1.415820829479401
  0
LINE
  5
1E7
100
AcDbEntity
  8
0
  6
ByLayer
 62
  256
370
   -1
100
AcDbLine
 10
33.49922057787718
 20
1.415820829479401
 11
33.49922057787718
 21
1.347615026118262
  0
LINE
  5
1E8
100
AcDbEntity
  8
0
  6
ByLayer
 62
  256
370
   -1
100
AcDbLine
 10
33.49922057787718
 20
1.347615026118262
 11
33.49397397761858
 21
1.295149023532758
  0
LINE
  5
1E9
100
AcDbEntity
  8
0
  6
ByLayer
 62
  256
370
   -1
100
AcDbLine
 10
33.49397397761858
 20
1.295149023532758
 11
33.49397397761858
 21
1.216450019654474
  0
LINE
  5
1EA
100
AcDbEntity
  8
0
  6
ByLayer
 62
  256
370
   -1
100
AcDbLine
 10
33.49397397761858
 20
1.216450019654474
 11
33.51496037865276
 21
1.08003841293214
  0
LINE
  5
1EB
100
AcDbEntity
  8
0
  6
ByLayer
 62
  256
370
   -1
100
AcDbLine
 10
33.51496037865276
 20
1.08003841293214
 11
33.49922057787718
 21
0.9855996082782212
  0
LINE
  5
1EC
100
AcDbEntity
  8
0
  6
ByLayer
 62
  256
370
   -1
100
AcDbLine
 10
33.49922057787718
 20
0.9855996082782212
 11
33.4729875765844
 21
0.9121472046585382
  0
LINE
  5
1ED
100
AcDbEntity
  8
0
  6
ByLayer
 62
  256
370
   -1
100
AcDbLine
 10
33.4729875765844
 20
0.9121472046585382
 11
33.4729875765844
 21
0.8544346018144324
  0
LINE
  5
1EE
100
AcDbEntity
  8
0
  6
ByLayer
 62
  256
370
   -1
100
AcDbLine
 10
33.4729875765844
 20
0.8544346018144324
 11
33.4729875765844
 21
0.7914753987118388
  0
LINE
  5
1EF
100
AcDbEntity
  8
0
  6
ByLayer
 62
  256
370
   -1
100
AcDbLine
 10
33.4729875765844
 20
0.7914753987118388
 11
33.4677409763258
 21
0.7285161956092452
  0
LINE
  5
1F0
100
AcDbEntity
  8
0
  6
ByLayer
 62
  256
370
   -1
100
AcDbLine
 10
33.4677409763258
 20
0.7285161956092452
 11
33.45200117555011
 21
0.7180229950921557
  0
LINE
  5
1F1
100
AcDbEntity
  8
0
  6
ByLayer
 62
  256
370
   -1
100
AcDbLine
 10
33.45200117555011
 20
0.7180229950921557
 11
33.37854877193048
 21
0.676050193023741
  0
LINE
  5
1F2
100
AcDbEntity
  8
0
  6
ByLayer
 62
  256
370
   -1
100
AcDbLine
 10
33.37854877193048
 20
0.676050193023741
 11
33.33132936960352
 21
0.6498171917309605
  0
LINE
  5
1F3
100
AcDbEntity
  8
0
  6
ByLayer
 62
  256
370
   -1
100
AcDbLine
 10
33.33132936960352
 20
0.6498171917309605
 11
33.28935656753505
 21
0.6340773909553263
  0
LINE
  5
1F4
100
AcDbEntity
  8
0
  6
ByLayer
 62
  256
370
   -1
100
AcDbLine
 10
33.28935656753505
 20
0.6340773909553263
 11
33.19491776288113
 21
0.66031039224805
  0
LINE
  5
1F5
100
AcDbEntity
  8
0
  6
ByLayer
 62
  256
370
   -1
100
AcDbLine
 10
33.19491776288113
 20
0.66031039224805
 11
33.12146535926139
 21
0.66031039224805
  0
LINE
  5
1F6
100
AcDbEntity
  8
0
  6
ByLayer
 62
  256
370
   -1
100
AcDbLine
 10
33.12146535926139
 20
0.66031039224805
 11
33.08998575771012
 21
0.7075297945750094
  0
LINE
  5
1F7
100
AcDbEntity
  8
0
  6
ByLayer
 62
  256
370
   -1
100
AcDbLine
 10
33.08998575771012
 20
0.7075297945750094
 11
33.07424595693443
 21
0.7390093961263347
  0
LINE
  5
1F8
100
AcDbEntity
  8
0
  6
ByLayer
 62
  256
370
   -1
100
AcDbLine
 10
33.07424595693443
 20
0.7390093961263347
 11
33.04801295564177
 21
0.7967219989703835
  0
LINE
  5
1F9
100
AcDbEntity
  8
0
  6
ByLayer
 62
  256
370
   -1
100
AcDbLine
 10
33.04801295564177
 20
0.7967219989703835
 11
33.02702655460747
 21
0.8911608036243024
  0
LINE
  5
1FA
100
AcDbEntity
  8
0
  6
ByLayer
 62
  256
370
   -1
100
AcDbLine
 10
33.02702655460747
 20
0.8911608036243024
 11
33.04276635538316
 21
0.9593666069854976
  0
LINE
  5
1FB
100
AcDbEntity
  8
0
  6
ByLayer
 62
  256
370
   -1
100
AcDbLine
 10
33.04276635538316
 20
0.9593666069854976
 11
33.04276635538316
 21
1.074791812673595
  0
LINE
  5
1FC
100
AcDbEntity
  8
0
  6
ByLayer
 62
  256
370
   -1
100
AcDbLine
 10
33.04276635538316
 20
1.074791812673595
 11
33.04276635538316
 21
1.158737416810425
  0
LINE
  5
1FD
100
AcDbEntity
  8
0
  6
ByLayer
 62
  256
370
   -1
100
AcDbLine
 10
33.04276635538316
 20
1.158737416810425
 11
33.04276635538316
 21
1.232189820430108
  0
LINE
  5
1FE
100
AcDbEntity
  8
0
  6
ByLayer
 62
  256
370
   -1
100
AcDbLine
 10
33.04276635538316
 20
1.232189820430108
 11
33.04276635538316
 21
1.305642224049848
  0
LINE
  5
1FF
100
AcDbEntity
  8
0
  6
ByLayer
 62
  256
370
   -1
100
AcDbLine
 10
33.04276635538316
 20
1.305642224049848
 11
33.04276635538316
 21
1.352861626376807
  0
LINE
  5
200
100
AcDbEntity
  8
0
  6
ByLayer
 62
  256
370
   -1
100
AcDbLine
 10
33.04276635538316
 20
1.352861626376807
 11
33.04801295564177
 21
1.415820829479401
  0
LINE
  5
201
100
AcDbEntity
  8
0
  6
ByLayer
 62
  256
370
   -1
100
AcDbLine
 10
33.04801295564177
 20
1.415820829479401
 11
32.99030035279772
 21
1.436807230513637
  0
LINE
  5
202
100
AcDbEntity
  8
0
  6
ByLayer
 62
  256
370
   -1
100
AcDbLine
 10
32.99030035279772
 20
1.436807230513637
 11
32.96931395176343
 21
1.442053830772181
  0
LINE
  5
203
100
AcDbEntity
  8
0
  6
ByLayer
 62
  256
370
   -1
100
AcDbLine
 10
32.96931395176343
 20
1.442053830772181
 11
32.8958615481438
 21
1.442053830772181
  0
LINE
  5
204
100
AcDbEntity
  8
0
  6
ByLayer
 62
  256
370
   -1
100
AcDbLine
 10
34.01338740321513
 20
1.688644042924068
 11
34.01338740321513
 21
1.552232436201734
  0
LINE
  5
205
100
AcDbEntity
  8
0
  6
ByLayer
 62
  256
370
   -1
100
AcDbLine
 10
34.01338740321513
 20
1.552232436201734
 11
33.99240100218096
 21
1.473533432323507
  0
LINE
  5
206
100
AcDbEntity
  8
0
  6
ByLayer
 62
  256
370
   -1
100
AcDbLine
 10
33.99240100218096
 20
1.473533432323507
 11
34.00289420269804
 21
1.426314029996547
  0
LINE
  5
207
100
AcDbEntity
  8
0
  6
ByLayer
 62
  256
370
   -1
100
AcDbLine
 10
34.00289420269804
 20
1.426314029996547
 11
33.90320879778552
 21
1.421067429738002
  0
LINE
  5
208
100
AcDbEntity
  8
0
  6
ByLayer
 62
  256
370
   -1
100
AcDbLine
 10
33.90320879778552
 20
1.421067429738002
 11
33.86123599571717
 21
1.405327628962311
  0
LINE
  5
209
100
AcDbEntity
  8
0
  6
ByLayer
 62
  256
370
   -1
100
AcDbLine
 10
33.86123599571717
 20
1.405327628962311
 11
33.85598939545856
 21
1.331875225342628
  0
LINE
  5
20A
100
AcDbEntity
  8
0
  6
ByLayer
 62
  256
370
   -1
100
AcDbLine
 10
33.85598939545856
 20
1.331875225342628
 11
33.86123599571717
 21
1.310888824308392
  0
LINE
  5
20B
100
AcDbEntity
  8
0
  6
ByLayer
 62
  256
370
   -1
100
AcDbLine
 10
33.86123599571717
 20
1.310888824308392
 11
33.89271559726843
 21
1.295149023532758
  0
LINE
  5
20C
100
AcDbEntity
  8
0
  6
ByLayer
 62
  256
370
   -1
100
AcDbLine
 10
33.89271559726843
 20
1.295149023532758
 11
33.99764760243944
 21
1.289902423274214
  0
LINE
  5
20D
100
AcDbEntity
  8
0
  6
ByLayer
 62
  256
370
   -1
100
AcDbLine
 10
33.99764760243944
 20
1.289902423274214
 11
34.00814080295653
 21
1.19021701836175
  0
LINE
  5
20E
100
AcDbEntity
  8
0
  6
ByLayer
 62
  256
370
   -1
100
AcDbLine
 10
34.00814080295653
 20
1.19021701836175
 11
33.99764760243944
 21
1.101024813966376
  0
LINE
  5
20F
100
AcDbEntity
  8
0
  6
ByLayer
 62
  256
370
   -1
100
AcDbLine
 10
33.99764760243944
 20
1.101024813966376
 11
33.98715440192235
 21
0.990846208536766
  0
LINE
  5
210
100
AcDbEntity
  8
0
  6
ByLayer
 62
  256
370
   -1
100
AcDbLine
 10
33.98715440192235
 20
0.990846208536766
 11
33.97666120140526
 21
0.9278870054341724
  0
LINE
  5
211
100
AcDbEntity
  8
0
  6
ByLayer
 62
  256
370
   -1
100
AcDbLine
 10
33.97666120140526
 20
0.9278870054341724
 11
33.95567480037109
 21
0.8124617997460746
  0
LINE
  5
212
100
AcDbEntity
  8
0
  6
ByLayer
 62
  256
370
   -1
100
AcDbLine
 10
33.95567480037109
 20
0.8124617997460746
 11
33.95042820011248
 21
0.7180229950921557
  0
LINE
  5
213
100
AcDbEntity
  8
0
  6
ByLayer
 62
  256
370
   -1
100
AcDbLine
 10
34.08683980683487
 20
0.5448851865599522
 11
34.14979900993741
 21
0.513405585008627
  0
LINE
  5
214
100
AcDbEntity
  8
0
  6
ByLayer
 62
  256
370
   -1
100
AcDbLine
 10
34.14979900993741
 20
0.513405585008627
 11
34.21275821304006
 21
0.5081589847500823
  0
LINE
  5
215
100
AcDbEntity
  8
0
  6
ByLayer
 62
  256
370
   -1
100
AcDbLine
 10
34.21275821304006
 20
0.5081589847500823
 11
34.22849801381575
 21
0.5343919860428628
  0
LINE
  5
216
100
AcDbEntity
  8
0
  6
ByLayer
 62
  256
370
   -1
100
AcDbLine
 10
34.22849801381575
 20
0.5343919860428628
 11
34.23899121433284
 21
0.5711181878526759
  0
LINE
  5
217
100
AcDbEntity
  8
0
  6
ByLayer
 62
  256
370
   -1
100
AcDbLine
 10
34.23899121433284
 20
0.5711181878526759
 11
34.24423781459133
 21
0.6130909899210906
  0
LINE
  5
218
100
AcDbEntity
  8
0
  6
ByLayer
 62
  256
370
   -1
100
AcDbLine
 10
34.24423781459133
 20
0.6130909899210906
 11
34.24423781459133
 21
0.6655569925065947
  0
LINE
  5
219
100
AcDbEntity
  8
0
  6
ByLayer
 62
  256
370
   -1
100
AcDbLine
 10
34.24423781459133
 20
0.6655569925065947
 11
34.20751161278157
 21
0.6812967932822858
  0
LINE
  5
21A
100
AcDbEntity
  8
0
  6
ByLayer
 62
  256
370
   -1
100
AcDbLine
 10
34.20751161278157
 20
0.6812967932822858
 11
34.1655388107131
 21
0.69703659405792
  0
LINE
  5
21B
100
AcDbEntity
  8
0
  6
ByLayer
 62
  256
370
   -1
100
AcDbLine
 10
34.1655388107131
 20
0.69703659405792
 11
34.14979900993741
 21
0.7127763948335541
  0
LINE
  5
21C
100
AcDbEntity
  8
0
  6
ByLayer
 62
  256
370
   -1
100
AcDbLine
 10
34.14979900993741
 20
0.7127763948335541
 11
34.12881260890323
 21
0.7809821981947493
  0
LINE
  5
21D
100
AcDbEntity
  8
0
  6
ByLayer
 62
  256
370
   -1
100
AcDbLine
 10
34.12881260890323
 20
0.7809821981947493
 11
34.12881260890323
 21
0.859681202073034
  0
LINE
  5
21E
100
AcDbEntity
  8
0
  6
ByLayer
 62
  256
370
   -1
100
AcDbLine
 10
34.12881260890323
 20
0.859681202073034
 11
34.12881260890323
 21
0.9331336056927171
  0
LINE
  5
21F
100
AcDbEntity
  8
0
  6
ByLayer
 62
  256
370
   -1
100
AcDbLine
 10
34.12881260890323
 20
0.9331336056927171
 11
34.12881260890323
 21
0.990846208536766
  0
LINE
  5
220
100
AcDbEntity
  8
0
  6
ByLayer
 62
  256
370
   -1
100
AcDbLine
 10
34.12881260890323
 20
0.990846208536766
 11
34.13405920916183
 21
1.08003841293214
  0
LINE
  5
221
100
AcDbEntity
  8
0
  6
ByLayer
 62
  256
370
   -1
100
AcDbLine
 10
34.13405920916183
 20
1.08003841293214
 11
34.13405920916183
 21
1.174477217586059
  0
LINE
  5
222
100
AcDbEntity
  8
0
  6
ByLayer
 62
  256
370
   -1
100
AcDbLine
 10
34.13405920916183
 20
1.174477217586059
 11
34.13930580942032
 21
1.221696619913018
  0
LINE
  5
223
100
AcDbEntity
  8
0
  6
ByLayer
 62
  256
370
   -1
100
AcDbLine
 10
34.13930580942032
 20
1.221696619913018
 11
34.13930580942032
 21
1.258422821722888
  0
LINE
  5
224
100
AcDbEntity
  8
0
  6
ByLayer
 62
  256
370
   -1
100
AcDbLine
 10
34.13930580942032
 20
1.258422821722888
 11
34.14455240967892
 21
1.316135424566937
  0
LINE
  5
225
100
AcDbEntity
  8
0
  6
ByLayer
 62
  256
370
   -1
100
AcDbLine
 10
34.14455240967892
 20
1.316135424566937
 11
34.14979900993741
 21
1.321382024825482
  0
LINE
  5
226
100
AcDbEntity
  8
0
  6
ByLayer
 62
  256
370
   -1
100
AcDbLine
 10
34.14979900993741
 20
1.321382024825482
 11
34.1707854109717
 21
1.316135424566937
  0
LINE
  5
227
100
AcDbEntity
  8
0
  6
ByLayer
 62
  256
370
   -1
100
AcDbLine
 10
34.1707854109717
 20
1.316135424566937
 11
34.21275821304006
 21
1.321382024825482
  0
LINE
  5
228
100
AcDbEntity
  8
0
  6
ByLayer
 62
  256
370
   -1
100
AcDbLine
 10
34.21275821304006
 20
1.321382024825482
 11
34.25997761536702
 21
1.316135424566937
  0
LINE
  5
229
100
AcDbEntity
  8
0
  6
ByLayer
 62
  256
370
   -1
100
AcDbLine
 10
34.25997761536702
 20
1.316135424566937
 11
34.30719701769398
 21
1.305642224049848
  0
LINE
  5
22A
100
AcDbEntity
  8
0
  6
ByLayer
 62
  256
370
   -1
100
AcDbLine
 10
34.30719701769398
 20
1.305642224049848
 11
34.31769021821107
 21
1.363354826893897
  0
LINE
  5
22B
100
AcDbEntity
  8
0
  6
ByLayer
 62
  256
370
   -1
100
AcDbLine
 10
34.31769021821107
 20
1.363354826893897
 11
34.32293681846967
 21
1.379094627669588
  0
LINE
  5
22C
100
AcDbEntity
  8
0
  6
ByLayer
 62
  256
370
   -1
100
AcDbLine
 10
34.32293681846967
 20
1.379094627669588
 11
34.31769021821107
 21
1.405327628962311
  0
LINE
  5
22D
100
AcDbEntity
  8
0
  6
ByLayer
 62
  256
370
   -1
100
AcDbLine
 10
34.31769021821107
 20
1.405327628962311
 11
34.30719701769398
 21
1.426314029996547
  0
LINE
  5
22E
100
AcDbEntity
  8
0
  6
ByLayer
 62
  256
370
   -1
100
AcDbLine
 10
34.30719701769398
 20
1.426314029996547
 11
34.27571741614271
 21
1.442053830772181
  0
LINE
  5
22F
100
AcDbEntity
  8
0
  6
ByLayer
 62
  256
370
   -1
100
AcDbLine
 10
34.27571741614271
 20
1.442053830772181
 11
34.22325141355715
 21
1.452547031289271
  0
LINE
  5
230
100
AcDbEntity
  8
0
  6
ByLayer
 62
  256
370
   -1
100
AcDbLine
 10
34.22325141355715
 20
1.452547031289271
 11
34.18127861148879
 21
1.457793631547815
  0
LINE
  5
231
100
AcDbEntity
  8
0
  6
ByLayer
 62
  256
370
   -1
100
AcDbLine
 10
34.18127861148879
 20
1.457793631547815
 11
34.1707854109717
 21
1.457793631547815
  0
LINE
  5
232
100
AcDbEntity
  8
0
  6
ByLayer
 62
  256
370
   -1
100
AcDbLine
 10
34.1707854109717
 20
1.457793631547815
 11
34.16029221045461
 21
1.468286832064962
  0
LINE
  5
233
100
AcDbEntity
  8
0
  6
ByLayer
 62
  256
370
   -1
100
AcDbLine
 10
34.16029221045461
 20
1.468286832064962
 11
34.16029221045461
 21
1.525999434909011
  0
LINE
  5
234
100
AcDbEntity
  8
0
  6
ByLayer
 62
  256
370
   -1
100
AcDbLine
 10
34.16029221045461
 20
1.525999434909011
 11
34.16029221045461
 21
1.562725636718881
  0
LINE
  5
235
100
AcDbEntity
  8
0
  6
ByLayer
 62
  256
370
   -1
100
AcDbLine
 10
34.16029221045461
 20
1.562725636718881
 11
34.1655388107131
 21
1.625684839821474
  0
LINE
  5
236
100
AcDbEntity
  8
0
  6
ByLayer
 62
  256
370
   -1
100
AcDbLine
 10
34.1655388107131
 20
1.625684839821474
 11
34.1655388107131
 21
1.693890643182613
  0
LINE
  5
237
100
AcDbEntity
  8
0
  6
ByLayer
 62
  256
370
   -1
100
AcDbLine
 10
34.1655388107131
 20
1.693890643182613
 11
34.1655388107131
 21
1.699137243441157
  0
LINE
  5
238
100
AcDbEntity
  8
0
  6
ByLayer
 62
  256
370
   -1
100
AcDbLine
 10
34.1655388107131
 20
1.699137243441157
 11
34.13930580942032
 21
1.709630443958304
  0
LINE
  5
239
100
AcDbEntity
  8
0
  6
ByLayer
 62
  256
370
   -1
100
AcDbLine
 10
34.13930580942032
 20
1.709630443958304
 11
34.08683980683487
 21
1.709630443958304
  0
LINE
  5
23A
100
AcDbEntity
  8
0
  6
ByLayer
 62
  256
370
   -1
100
AcDbLine
 10
34.08683980683487
 20
1.709630443958304
 11
34.02912720399083
 21
1.714877044216848
  0
LINE
  5
23B
100
AcDbEntity
  8
0
  6
ByLayer
 62
  256
370
   -1
100
AcDbLine
 10
34.62723963346561
 20
1.085285013190685
 11
34.64822603449979
 21
1.08003841293214
  0
LINE
  5
23C
100
AcDbEntity
  8
0
  6
ByLayer
 62
  256
370
   -1
100
AcDbLine
 10
34.64822603449979
 20
1.08003841293214
 11
34.75315803967079
 21
1.08003841293214
  0
LINE
  5
23D
100
AcDbEntity
  8
0
  6
ByLayer
 62
  256
370
   -1
100
AcDbLine
 10
34.75315803967079
 20
1.08003841293214
 11
34.83185704354914
 21
1.08003841293214
  0
LINE
  5
23E
100
AcDbEntity
  8
0
  6
ByLayer
 62
  256
370
   -1
100
AcDbLine
 10
34.83185704354914
 20
1.08003841293214
 11
34.91055604742736
 21
1.069545212415051
  0
LINE
  5
23F
100
AcDbEntity
  8
0
  6
ByLayer
 62
  256
370
   -1
100
AcDbLine
 10
34.91055604742736
 20
1.069545212415051
 11
34.99450165156419
 21
1.069545212415051
  0
LINE
  5
240
100
AcDbEntity
  8
0
  6
ByLayer
 62
  256
370
   -1
100
AcDbLine
 10
34.99450165156419
 20
1.069545212415051
 11
35.03122785337406
 21
1.069545212415051
  0
LINE
  5
241
100
AcDbEntity
  8
0
  6
ByLayer
 62
  256
370
   -1
100
AcDbLine
 10
35.03122785337406
 20
1.069545212415051
 11
35.05746085466673
 21
1.069545212415051
  0
LINE
  5
242
100
AcDbEntity
  8
0
  6
ByLayer
 62
  256
370
   -1
100
AcDbLine
 10
35.05746085466673
 20
1.069545212415051
 11
35.1046802569938
 21
1.085285013190685
  0
LINE
  5
243
100
AcDbEntity
  8
0
  6
ByLayer
 62
  256
370
   -1
100
AcDbLine
 10
35.1046802569938
 20
1.085285013190685
 11
35.14665305906216
 21
1.085285013190685
  0
LINE
  5
244
100
AcDbEntity
  8
0
  6
ByLayer
 62
  256
370
   -1
100
AcDbLine
 10
35.14665305906216
 20
1.085285013190685
 11
35.16763946009634
 21
1.085285013190685
  0
LINE
  5
245
100
AcDbEntity
  8
0
  6
ByLayer
 62
  256
370
   -1
100
AcDbLine
 10
35.16763946009634
 20
1.085285013190685
 11
35.15189965932065
 21
1.174477217586059
  0
LINE
  5
246
100
AcDbEntity
  8
0
  6
ByLayer
 62
  256
370
   -1
100
AcDbLine
 10
35.15189965932065
 20
1.174477217586059
 11
35.12042005776938
 21
1.221696619913018
  0
LINE
  5
247
100
AcDbEntity
  8
0
  6
ByLayer
 62
  256
370
   -1
100
AcDbLine
 10
35.12042005776938
 20
1.221696619913018
 11
35.07320065544242
 21
1.305642224049848
  0
LINE
  5
248
100
AcDbEntity
  8
0
  6
ByLayer
 62
  256
370
   -1
100
AcDbLine
 10
35.07320065544242
 20
1.305642224049848
 11
34.99974825182268
 21
1.326628625084027
  0
LINE
  5
249
100
AcDbEntity
  8
0
  6
ByLayer
 62
  256
370
   -1
100
AcDbLine
 10
34.99974825182268
 20
1.326628625084027
 11
34.90006284691027
 21
1.326628625084027
  0
LINE
  5
24A
100
AcDbEntity
  8
0
  6
ByLayer
 62
  256
370
   -1
100
AcDbLine
 10
34.90006284691027
 20
1.326628625084027
 11
34.81087064251484
 21
1.321382024825482
  0
LINE
  5
24B
100
AcDbEntity
  8
0
  6
ByLayer
 62
  256
370
   -1
100
AcDbLine
 10
34.81087064251484
 20
1.321382024825482
 11
34.76365124018788
 21
1.305642224049848
  0
LINE
  5
24C
100
AcDbEntity
  8
0
  6
ByLayer
 62
  256
370
   -1
100
AcDbLine
 10
34.76365124018788
 20
1.305642224049848
 11
34.70593863734383
 21
1.274162622498523
  0
LINE
  5
24D
100
AcDbEntity
  8
0
  6
ByLayer
 62
  256
370
   -1
100
AcDbLine
 10
34.70593863734383
 20
1.274162622498523
 11
34.66396583527548
 21
1.216450019654474
  0
LINE
  5
24E
100
AcDbEntity
  8
0
  6
ByLayer
 62
  256
370
   -1
100
AcDbLine
 10
34.66396583527548
 20
1.216450019654474
 11
34.6429794342413
 21
1.142997616034791
  0
LINE
  5
24F
100
AcDbEntity
  8
0
  6
ByLayer
 62
  256
370
   -1
100
AcDbLine
 10
34.6429794342413
 20
1.142997616034791
 11
34.61674643294852
 21
1.09053161344923
  0
LINE
  5
250
100
AcDbEntity
  8
0
  6
ByLayer
 62
  256
370
   -1
100
AcDbLine
 10
34.59576003191434
 20
0.9016540041413919
 11
34.61149983268992
 21
0.8491880015558877
  0
LINE
  5
251
100
AcDbEntity
  8
0
  6
ByLayer
 62
  256
370
   -1
100
AcDbLine
 10
34.61149983268992
 20
0.8491880015558877
 11
34.6429794342413
 21
0.7757355979362046
  0
LINE
  5
252
100
AcDbEntity
  8
0
  6
ByLayer
 62
  256
370
   -1
100
AcDbLine
 10
34.6429794342413
 20
0.7757355979362046
 11
34.65347263475839
 21
0.7285161956092452
  0
LINE
  5
253
100
AcDbEntity
  8
0
  6
ByLayer
 62
  256
370
   -1
100
AcDbLine
 10
34.65347263475839
 20
0.7285161956092452
 11
34.67445903579257
 21
0.6917899937993752
  0
LINE
  5
254
100
AcDbEntity
  8
0
  6
ByLayer
 62
  256
370
   -1
100
AcDbLine
 10
34.67445903579257
 20
0.6917899937993752
 11
34.82136384303205
 21
0.6550637919895053
  0
LINE
  5
255
100
AcDbEntity
  8
0
  6
ByLayer
 62
  256
370
   -1
100
AcDbLine
 10
34.82136384303205
 20
0.6550637919895053
 11
34.90530944716876
 21
0.66031039224805
  0
LINE
  5
256
100
AcDbEntity
  8
0
  6
ByLayer
 62
  256
370
   -1
100
AcDbLine
 10
34.90530944716876
 20
0.66031039224805
 11
35.02073465285697
 21
0.6708035927651963
  0
LINE
  5
257
100
AcDbEntity
  8
0
  6
ByLayer
 62
  256
370
   -1
100
AcDbLine
 10
35.02073465285697
 20
0.6708035927651963
 11
35.06270745492533
 21
0.7022831943164647
  0
LINE
  5
258
100
AcDbEntity
  8
0
  6
ByLayer
 62
  256
370
   -1
100
AcDbLine
 10
35.06270745492533
 20
0.7022831943164647
 11
35.1046802569938
 21
0.7337627958677899
  0
LINE
  5
259
100
AcDbEntity
  8
0
  6
ByLayer
 62
  256
370
   -1
100
AcDbLine
 10
35.1046802569938
 20
0.7337627958677899
 11
35.13091325828647
 21
0.7704889976776599
  0
LINE
  5
25A
100
AcDbEntity
  8
0
  6
ByLayer
 62
  256
370
   -1
100
AcDbLine
 10
35.13091325828647
 20
0.7704889976776599
 11
35.18337926087203
 21
0.822955000263164
  0
LINE
  5
25B
100
AcDbEntity
  8
0
  6
ByLayer
 62
  256
370
   -1
100
AcDbLine
 10
35.18337926087203
 20
0.822955000263164
 11
35.19387246138912
 21
0.8177084000046193
  0
LINE
  5
25C
100
AcDbEntity
  8
0
  6
ByLayer
 62
  256
370
   -1
100
AcDbLine
 10
35.19387246138912
 20
0.8177084000046193
 11
35.24109186371608
 21
0.7547491969019688
  0
LINE
  5
25D
100
AcDbEntity
  8
0
  6
ByLayer
 62
  256
370
   -1
100
AcDbLine
 10
35.24109186371608
 20
0.7547491969019688
 11
35.20436566190621
 21
0.6812967932822858
  0
LINE
  5
25E
100
AcDbEntity
  8
0
  6
ByLayer
 62
  256
370
   -1
100
AcDbLine
 10
35.20436566190621
 20
0.6812967932822858
 11
35.18862586113052
 21
0.66031039224805
  0
LINE
  5
25F
100
AcDbEntity
  8
0
  6
ByLayer
 62
  256
370
   -1
100
AcDbLine
 10
35.18862586113052
 20
0.66031039224805
 11
35.11517345751089
 21
0.6025977894040011
  0
LINE
  5
260
100
AcDbEntity
  8
0
  6
ByLayer
 62
  256
370
   -1
100
AcDbLine
 10
35.11517345751089
 20
0.6025977894040011
 11
35.04172105389115
 21
0.5448851865599522
  0
LINE
  5
261
100
AcDbEntity
  8
0
  6
ByLayer
 62
  256
370
   -1
100
AcDbLine
 10
35.04172105389115
 20
0.5448851865599522
 11
34.99450165156419
 21
0.5396385863014075
  0
LINE
  5
262
100
AcDbEntity
  8
0
  6
ByLayer
 62
  256
370
   -1
100
AcDbLine
 10
34.99450165156419
 20
0.5396385863014075
 11
34.8580900448418
 21
0.529145385784318
  0
LINE
  5
263
100
AcDbEntity
  8
0
  6
ByLayer
 62
  256
370
   -1
100
AcDbLine
 10
34.8580900448418
 20
0.529145385784318
 11
34.7584046399294
 21
0.5238987855257164
  0
LINE
  5
264
100
AcDbEntity
  8
0
  6
ByLayer
 62
  256
370
   -1
100
AcDbLine
 10
34.7584046399294
 20
0.5238987855257164
 11
34.65347263475839
 21
0.5396385863014075
  0
LINE
  5
265
100
AcDbEntity
  8
0
  6
ByLayer
 62
  256
370
   -1
100
AcDbLine
 10
34.65347263475839
 20
0.5396385863014075
 11
34.57477363088005
 21
0.5763647881112774
  0
LINE
  5
266
100
AcDbEntity
  8
0
  6
ByLayer
 62
  256
370
   -1
100
AcDbLine
 10
34.57477363088005
 20
0.5763647881112774
 11
34.51181442777751
 21
0.6445705914724158
  0
LINE
  5
267
100
AcDbEntity
  8
0
  6
ByLayer
 62
  256
370
   -1
100
AcDbLine
 10
34.51181442777751
 20
0.6445705914724158
 11
34.45934842519195
 21
0.7390093961263347
  0
LINE
  5
268
100
AcDbEntity
  8
0
  6
ByLayer
 62
  256
370
   -1
100
AcDbLine
 10
34.45934842519195
 20
0.7390093961263347
 11
34.44885522467486
 21
0.7862287984532941
  0
LINE
  5
269
100
AcDbEntity
  8
0
  6
ByLayer
 62
  256
370
   -1
100
AcDbLine
 10
34.44885522467486
 20
0.7862287984532941
 11
34.45410182493346
 21
0.8964074038828471
  0
LINE
  5
26A
100
AcDbEntity
  8
0
  6
ByLayer
 62
  256
370
   -1
100
AcDbLine
 10
34.45410182493346
 20
0.8964074038828471
 11
34.45410182493346
 21
1.017079209829546
  0
LINE
  5
26B
100
AcDbEntity
  8
0
  6
ByLayer
 62
  256
370
   -1
100
AcDbLine
 10
34.45410182493346
 20
1.017079209829546
 11
34.45934842519195
 21
1.106271414224921
  0
LINE
  5
26C
100
AcDbEntity
  8
0
  6
ByLayer
 62
  256
370
   -1
100
AcDbLine
 10
34.45934842519195
 20
1.106271414224921
 11
34.48558142648473
 21
1.216450019654474
  0
LINE
  5
26D
100
AcDbEntity
  8
0
  6
ByLayer
 62
  256
370
   -1
100
AcDbLine
 10
34.48558142648473
 20
1.216450019654474
 11
34.54329402932878
 21
1.310888824308392
  0
LINE
  5
26E
100
AcDbEntity
  8
0
  6
ByLayer
 62
  256
370
   -1
100
AcDbLine
 10
34.54329402932878
 20
1.310888824308392
 11
34.56952703062156
 21
1.352861626376807
  0
LINE
  5
26F
100
AcDbEntity
  8
0
  6
ByLayer
 62
  256
370
   -1
100
AcDbLine
 10
34.56952703062156
 20
1.352861626376807
 11
34.6377328339827
 21
1.405327628962311
  0
LINE
  5
270
100
AcDbEntity
  8
0
  6
ByLayer
 62
  256
370
   -1
100
AcDbLine
 10
34.6377328339827
 20
1.405327628962311
 11
34.69019883656826
 21
1.426314029996547
  0
LINE
  5
271
100
AcDbEntity
  8
0
  6
ByLayer
 62
  256
370
   -1
100
AcDbLine
 10
34.69019883656826
 20
1.426314029996547
 11
34.82136384303205
 21
1.447300431030726
  0
LINE
  5
272
100
AcDbEntity
  8
0
  6
ByLayer
 62
  256
370
   -1
100
AcDbLine
 10
34.82136384303205
 20
1.447300431030726
 11
34.88432304613458
 21
1.452547031289271
  0
LINE
  5
273
100
AcDbEntity
  8
0
  6
ByLayer
 62
  256
370
   -1
100
AcDbLine
 10
34.88432304613458
 20
1.452547031289271
 11
34.96826865027141
 21
1.457793631547815
  0
LINE
  5
274
100
AcDbEntity
  8
0
  6
ByLayer
 62
  256
370
   -1
100
AcDbLine
 10
34.96826865027141
 20
1.457793631547815
 11
35.05221425440824
 21
1.452547031289271
  0
LINE
  5
275
100
AcDbEntity
  8
0
  6
ByLayer
 62
  256
370
   -1
100
AcDbLine
 10
35.05221425440824
 20
1.452547031289271
 11
35.15714625957925
 21
1.363354826893897
  0
LINE
  5
276
100
AcDbEntity
  8
0
  6
ByLayer
 62
  256
370
   -1
100
AcDbLine
 10
35.15714625957925
 20
1.363354826893897
 11
35.19911906164772
 21
1.326628625084027
  0
LINE
  5
277
100
AcDbEntity
  8
0
  6
ByLayer
 62
  256
370
   -1
100
AcDbLine
 10
35.19911906164772
 20
1.326628625084027
 11
35.24633846397457
 21
1.237436420688709
  0
LINE
  5
278
100
AcDbEntity
  8
0
  6
ByLayer
 62
  256
370
   -1
100
AcDbLine
 10
35.24633846397457
 20
1.237436420688709
 11
35.27257146526735
 21
1.179723817844604
  0
LINE
  5
279
100
AcDbEntity
  8
0
  6
ByLayer
 62
  256
370
   -1
100
AcDbLine
 10
35.27257146526735
 20
1.179723817844604
 11
35.27257146526735
 21
1.085285013190685
  0
LINE
  5
27A
100
AcDbEntity
  8
0
  6
ByLayer
 62
  256
370
   -1
100
AcDbLine
 10
35.27257146526735
 20
1.085285013190685
 11
35.28306466578444
 21
1.022325810088091
  0
LINE
  5
27B
100
AcDbEntity
  8
0
  6
ByLayer
 62
  256
370
   -1
100
AcDbLine
 10
35.28306466578444
 20
1.022325810088091
 11
35.28306466578444
 21
0.9541200067269529
  0
LINE
  5
27C
100
AcDbEntity
  8
0
  6
ByLayer
 62
  256
370
   -1
100
AcDbLine
 10
35.28306466578444
 20
0.9541200067269529
 11
35.27781806552595
 21
0.9488734064683513
  0
LINE
  5
27D
100
AcDbEntity
  8
0
  6
ByLayer
 62
  256
370
   -1
100
AcDbLine
 10
35.27781806552595
 20
0.9488734064683513
 11
35.14665305906216
 21
0.9226404051756276
  0
LINE
  5
27E
100
AcDbEntity
  8
0
  6
ByLayer
 62
  256
370
   -1
100
AcDbLine
 10
35.14665305906216
 20
0.9226404051756276
 11
35.06270745492533
 21
0.9278870054341724
  0
LINE
  5
27F
100
AcDbEntity
  8
0
  6
ByLayer
 62
  256
370
   -1
100
AcDbLine
 10
35.06270745492533
 20
0.9278870054341724
 11
34.99974825182268
 21
0.9278870054341724
  0
LINE
  5
280
100
AcDbEntity
  8
0
  6
ByLayer
 62
  256
370
   -1
100
AcDbLine
 10
34.99974825182268
 20
0.9278870054341724
 11
34.82661044329053
 21
0.9331336056927171
  0
LINE
  5
281
100
AcDbEntity
  8
0
  6
ByLayer
 62
  256
370
   -1
100
AcDbLine
 10
34.82661044329053
 20
0.9331336056927171
 11
34.7426648391537
 21
0.9226404051756276
  0
LINE
  5
282
100
AcDbEntity
  8
0
  6
ByLayer
 62
  256
370
   -1
100
AcDbLine
 10
34.7426648391537
 20
0.9226404051756276
 11
34.65347263475839
 21
0.9069006043999934
  0
LINE
  5
283
100
AcDbEntity
  8
0
  6
ByLayer
 62
  256
370
   -1
100
AcDbLine
 10
34.65347263475839
 20
0.9069006043999934
 11
34.6377328339827
 21
0.9069006043999934
  0
LINE
  5
284
100
AcDbEntity
  8
0
  6
ByLayer
 62
  256
370
   -1
100
AcDbLine
 10
34.6377328339827
 20
0.9069006043999934
 11
34.54329402932878
 21
0.9016540041413919
  0
LINE
  5
285
100
AcDbEntity
  8
0
  6
ByLayer
 62
  256
370
   -1
100
AcDbLine
 10
35.54014807845353
 20
1.421067429738002
 11
35.52440827767784
 21
1.268916022239978
  0
LINE
  5
286
100
AcDbEntity
  8
0
  6
ByLayer
 62
  256
370
   -1
100
AcDbLine
 10
35.52440827767784
 20
1.268916022239978
 11
35.52440827767784
 21
1.195463618620295
  0
LINE
  5
287
100
AcDbEntity
  8
0
  6
ByLayer
 62
  256
370
   -1
100
AcDbLine
 10
35.52440827767784
 20
1.195463618620295
 11
35.51391507716075
 21
1.101024813966376
  0
LINE
  5
288
100
AcDbEntity
  8
0
  6
ByLayer
 62
  256
370
   -1
100
AcDbLine
 10
35.51391507716075
 20
1.101024813966376
 11
35.50866847690214
 21
0.9383802059512618
  0
LINE
  5
289
100
AcDbEntity
  8
0
  6
ByLayer
 62
  256
370
   -1
100
AcDbLine
 10
35.50866847690214
 20
0.9383802059512618
 11
35.51916167741935
 21
0.8282016005217088
  0
LINE
  5
28A
100
AcDbEntity
  8
0
  6
ByLayer
 62
  256
370
   -1
100
AcDbLine
 10
35.51916167741935
 20
0.8282016005217088
 11
35.51391507716075
 21
0.7127763948335541
  0
LINE
  5
28B
100
AcDbEntity
  8
0
  6
ByLayer
 62
  256
370
   -1
100
AcDbLine
 10
35.51391507716075
 20
0.7127763948335541
 11
35.50866847690214
 21
0.6130909899210906
  0
LINE
  5
28C
100
AcDbEntity
  8
0
  6
ByLayer
 62
  256
370
   -1
100
AcDbLine
 10
35.50866847690214
 20
0.6130909899210906
 11
35.50342187664366
 21
0.5816113883698222
  0
LINE
  5
28D
100
AcDbEntity
  8
0
  6
ByLayer
 62
  256
370
   -1
100
AcDbLine
 10
35.50342187664366
 20
0.5816113883698222
 11
35.50866847690214
 21
0.5711181878526759
  0
LINE
  5
28E
100
AcDbEntity
  8
0
  6
ByLayer
 62
  256
370
   -1
100
AcDbLine
 10
35.50866847690214
 20
0.5711181878526759
 11
35.60835388181466
 21
0.5763647881112774
  0
LINE
  5
28F
100
AcDbEntity
  8
0
  6
ByLayer
 62
  256
370
   -1
100
AcDbLine
 10
35.60835388181466
 20
0.5763647881112774
 11
35.66081988440011
 21
0.5658715875941311
  0
LINE
  5
290
100
AcDbEntity
  8
0
  6
ByLayer
 62
  256
370
   -1
100
AcDbLine
 10
35.66081988440011
 20
0.5658715875941311
 11
35.68705288569289
 21
0.6865433935408305
  0
LINE
  5
291
100
AcDbEntity
  8
0
  6
ByLayer
 62
  256
370
   -1
100
AcDbLine
 10
35.68705288569289
 20
0.6865433935408305
 11
35.6818062854344
 21
0.7914753987118388
  0
LINE
  5
292
100
AcDbEntity
  8
0
  6
ByLayer
 62
  256
370
   -1
100
AcDbLine
 10
35.6818062854344
 20
0.7914753987118388
 11
35.6818062854344
 21
0.8649278023315787
  0
LINE
  5
293
100
AcDbEntity
  8
0
  6
ByLayer
 62
  256
370
   -1
100
AcDbLine
 10
35.6818062854344
 20
0.8649278023315787
 11
35.6765596851758
 21
0.9751064077611318
  0
LINE
  5
294
100
AcDbEntity
  8
0
  6
ByLayer
 62
  256
370
   -1
100
AcDbLine
 10
35.6765596851758
 20
0.9751064077611318
 11
35.6818062854344
 21
1.085285013190685
  0
LINE
  5
295
100
AcDbEntity
  8
0
  6
ByLayer
 62
  256
370
   -1
100
AcDbLine
 10
35.6818062854344
 20
1.085285013190685
 11
35.6818062854344
 21
1.15349081655188
  0
LINE
  5
296
100
AcDbEntity
  8
0
  6
ByLayer
 62
  256
370
   -1
100
AcDbLine
 10
35.6818062854344
 20
1.15349081655188
 11
35.72902568776136
 21
1.211203419395929
  0
LINE
  5
297
100
AcDbEntity
  8
0
  6
ByLayer
 62
  256
370
   -1
100
AcDbLine
 10
35.72902568776136
 20
1.211203419395929
 11
35.7919848908639
 21
1.258422821722888
  0
LINE
  5
298
100
AcDbEntity
  8
0
  6
ByLayer
 62
  256
370
   -1
100
AcDbLine
 10
35.7919848908639
 20
1.258422821722888
 11
35.92839649758629
 21
1.289902423274214
  0
LINE
  5
299
100
AcDbEntity
  8
0
  6
ByLayer
 62
  256
370
   -1
100
AcDbLine
 10
35.92839649758629
 20
1.289902423274214
 11
35.98610910043034
 21
1.295149023532758
  0
LINE
  5
29A
100
AcDbEntity
  8
0
  6
ByLayer
 62
  256
370
   -1
100
AcDbLine
 10
35.98610910043034
 20
1.295149023532758
 11
36.02283530224021
 21
1.321382024825482
  0
LINE
  5
29B
100
AcDbEntity
  8
0
  6
ByLayer
 62
  256
370
   -1
100
AcDbLine
 10
36.02283530224021
 20
1.321382024825482
 11
36.04906830353299
 21
1.373848027410986
  0
LINE
  5
29C
100
AcDbEntity
  8
0
  6
ByLayer
 62
  256
370
   -1
100
AcDbLine
 10
36.04906830353299
 20
1.373848027410986
 11
36.0385751030159
 21
1.394834428445222
  0
LINE
  5
29D
100
AcDbEntity
  8
0
  6
ByLayer
 62
  256
370
   -1
100
AcDbLine
 10
36.0385751030159
 20
1.394834428445222
 11
35.99135570068894
 21
1.415820829479401
  0
LINE
  5
29E
100
AcDbEntity
  8
0
  6
ByLayer
 62
  256
370
   -1
100
AcDbLine
 10
35.99135570068894
 20
1.415820829479401
 11
35.93888969810338
 21
1.421067429738002
  0
LINE
  5
29F
100
AcDbEntity
  8
0
  6
ByLayer
 62
  256
370
   -1
100
AcDbLine
 10
35.93888969810338
 20
1.421067429738002
 11
35.84445089344946
 21
1.379094627669588
  0
LINE
  5
2A0
100
AcDbEntity
  8
0
  6
ByLayer
 62
  256
370
   -1
100
AcDbLine
 10
35.84445089344946
 20
1.379094627669588
 11
35.7919848908639
 21
1.352861626376807
  0
LINE
  5
2A1
100
AcDbEntity
  8
0
  6
ByLayer
 62
  256
370
   -1
100
AcDbLine
 10
35.7919848908639
 20
1.352861626376807
 11
35.73951888827845
 21
1.321382024825482
  0
LINE
  5
2A2
100
AcDbEntity
  8
0
  6
ByLayer
 62
  256
370
   -1
100
AcDbLine
 10
35.73951888827845
 20
1.321382024825482
 11
35.71853248724427
 21
1.310888824308392
  0
LINE
  5
2A3
100
AcDbEntity
  8
0
  6
ByLayer
 62
  256
370
   -1
100
AcDbLine
 10
35.71853248724427
 20
1.310888824308392
 11
35.68705288569289
 21
1.321382024825482
  0
LINE
  5
2A4
100
AcDbEntity
  8
0
  6
ByLayer
 62
  256
370
   -1
100
AcDbLine
 10
35.68705288569289
 20
1.321382024825482
 11
35.66081988440011
 21
1.368601427152441
  0
LINE
  5
2A5
100
AcDbEntity
  8
0
  6
ByLayer
 62
  256
370
   -1
100
AcDbLine
 10
35.66081988440011
 20
1.368601427152441
 11
35.66081988440011
 21
1.400081028703767
  0
LINE
  5
2A6
100
AcDbEntity
  8
0
  6
ByLayer
 62
  256
370
   -1
100
AcDbLine
 10
35.66081988440011
 20
1.400081028703767
 11
35.63458688310745
 21
1.415820829479401
  0
LINE
  5
2A7
100
AcDbEntity
  8
0
  6
ByLayer
 62
  256
370
   -1
100
AcDbLine
 10
35.63458688310745
 20
1.415820829479401
 11
35.60835388181466
 21
1.421067429738002
  0
LINE
  5
2A8
100
AcDbEntity
  8
0
  6
ByLayer
 62
  256
370
   -1
100
AcDbLine
 10
35.60835388181466
 20
1.421067429738002
 11
35.5716276800048
 21
1.421067429738002
  0
LINE
  5
2A9
100
AcDbEntity
  8
0
  6
ByLayer
 62
  256
370
   -1
100
AcDbLine
 10
35.5716276800048
 20
1.421067429738002
 11
35.53490147819493
 21
1.421067429738002
  0
LINE
  5
2AA
100
AcDbEntity
  8
0
  6
ByLayer
 62
  256
370
   -1
100
AcDbLine
 10
31.98295310315656
 20
1.190217018362262
 11
31.97245990263947
 21
1.169230617328083
  0
LINE
  5
2AB
100
AcDbEntity
  8
0
  6
ByLayer
 62
  256
370
   -1
100
AcDbLine
 10
31.97245990263947
 20
1.169230617328083
 11
31.96721330238087
 21
1.095778213708343
  0
LINE
  5
2AC
100
AcDbEntity
  8
0
  6
ByLayer
 62
  256
370
   -1
100
AcDbLine
 10
31.96721330238087
 20
1.095778213708343
 11
31.96721330238087
 21
1.074791812674164
  0
LINE
  5
2AD
100
AcDbEntity
  8
0
  6
ByLayer
 62
  256
370
   -1
100
AcDbLine
 10
31.96721330238087
 20
1.074791812674164
 11
31.96721330238087
 21
1.038065610864294
  0
LINE
  5
2AE
100
AcDbEntity
  8
0
  6
ByLayer
 62
  256
370
   -1
100
AcDbLine
 10
31.96721330238087
 20
1.038065610864294
 11
31.96196670212226
 21
1.001339409054424
  0
LINE
  5
2AF
100
AcDbEntity
  8
0
  6
ByLayer
 62
  256
370
   -1
100
AcDbLine
 10
31.96196670212226
 20
1.001339409054424
 11
31.96721330238087
 21
0.9173938049175945
  0
LINE
  5
2B0
100
AcDbEntity
  8
0
  6
ByLayer
 62
  256
370
   -1
100
AcDbLine
 10
31.96721330238087
 20
0.9173938049175945
 11
31.96721330238087
 21
0.8649278023320903
  0
LINE
  5
2B1
100
AcDbEntity
  8
0
  6
ByLayer
 62
  256
370
   -1
100
AcDbLine
 10
31.96721330238087
 20
0.8649278023320903
 11
31.97245990263947
 21
0.8124617997465862
  0
LINE
  5
2B2
100
AcDbEntity
  8
0
  6
ByLayer
 62
  256
370
   -1
100
AcDbLine
 10
31.97245990263947
 20
0.8124617997465862
 11
32.00393950419074
 21
0.7757355979367162
  0
LINE
  5
2B3
100
AcDbEntity
  8
0
  6
ByLayer
 62
  256
370
   -1
100
AcDbLine
 10
32.00393950419074
 20
0.7757355979367162
 11
32.04066570600061
 21
0.7285161956097568
  0
LINE
  5
2B4
100
AcDbEntity
  8
0
  6
ByLayer
 62
  256
370
   -1
100
AcDbLine
 10
32.04066570600061
 20
0.7285161956097568
 11
32.09837830884466
 21
0.7075297945755779
  0
LINE
  5
2B5
100
AcDbEntity
  8
0
  6
ByLayer
 62
  256
370
   -1
100
AcDbLine
 10
32.09837830884466
 20
0.7075297945755779
 11
32.17707731272289
 21
0.6917899937999437
  0
LINE
  5
2B6
100
AcDbEntity
  8
0
  6
ByLayer
 62
  256
370
   -1
100
AcDbLine
 10
32.17707731272289
 20
0.6917899937999437
 11
32.25052971634263
 21
0.6812967932827974
  0
LINE
  5
2B7
100
AcDbEntity
  8
0
  6
ByLayer
 62
  256
370
   -1
100
AcDbLine
 10
32.25052971634263
 20
0.6812967932827974
 11
32.29774911866959
 21
0.6917899937999437
  0
LINE
  5
2B8
100
AcDbEntity
  8
0
  6
ByLayer
 62
  256
370
   -1
100
AcDbLine
 10
32.29774911866959
 20
0.6917899937999437
 11
32.35546172151363
 21
0.723269595351212
  0
LINE
  5
2B9
100
AcDbEntity
  8
0
  6
ByLayer
 62
  256
370
   -1
100
AcDbLine
 10
32.35546172151363
 20
0.723269595351212
 11
32.3921879233235
 21
0.7547491969025373
  0
LINE
  5
2BA
100
AcDbEntity
  8
0
  6
ByLayer
 62
  256
370
   -1
100
AcDbLine
 10
32.3921879233235
 20
0.7547491969025373
 11
32.42366752487477
 21
0.7809821981952609
  0
LINE
  5
2BB
100
AcDbEntity
  8
0
  6
ByLayer
 62
  256
370
   -1
100
AcDbLine
 10
32.42366752487477
 20
0.7809821981952609
 11
32.43940732565046
 21
0.8334482007808219
  0
LINE
  5
2BC
100
AcDbEntity
  8
0
  6
ByLayer
 62
  256
370
   -1
100
AcDbLine
 10
32.43940732565046
 20
0.8334482007808219
 11
32.44990052616755
 21
0.8911608036248708
  0
LINE
  5
2BD
100
AcDbEntity
  8
0
  6
ByLayer
 62
  256
370
   -1
100
AcDbLine
 10
32.44990052616755
 20
0.8911608036248708
 11
32.47088692720173
 21
0.943626806210375
  0
LINE
  5
2BE
100
AcDbEntity
  8
0
  6
ByLayer
 62
  256
370
   -1
100
AcDbLine
 10
32.47088692720173
 20
0.943626806210375
 11
32.47088692720173
 21
1.001339409054424
  0
LINE
  5
2BF
100
AcDbEntity
  8
0
  6
ByLayer
 62
  256
370
   -1
100
AcDbLine
 10
32.47088692720173
 20
1.001339409054424
 11
32.47088692720173
 21
1.085285013191253
  0
LINE
  5
2C0
100
AcDbEntity
  8
0
  6
ByLayer
 62
  256
370
   -1
100
AcDbLine
 10
32.47088692720173
 20
1.085285013191253
 11
32.47613352746033
 21
1.158737416810993
  0
LINE
  5
2C1
100
AcDbEntity
  8
0
  6
ByLayer
 62
  256
370
   -1
100
AcDbLine
 10
32.47613352746033
 20
1.158737416810993
 11
32.47613352746033
 21
1.232189820430676
  0
LINE
  5
2C2
100
AcDbEntity
  8
0
  6
ByLayer
 62
  256
370
   -1
100
AcDbLine
 10
32.47613352746033
 20
1.232189820430676
 11
32.44465392590907
 21
1.268916022240546
  0
LINE
  5
2C3
100
AcDbEntity
  8
0
  6
ByLayer
 62
  256
370
   -1
100
AcDbLine
 10
32.44465392590907
 20
1.268916022240546
 11
32.39743452358211
 21
1.305642224050416
  0
LINE
  5
2C4
100
AcDbEntity
  8
0
  6
ByLayer
 62
  256
370
   -1
100
AcDbLine
 10
32.39743452358211
 20
1.305642224050416
 11
32.36070832177224
 21
1.305642224050416
  0
LINE
  5
2C5
100
AcDbEntity
  8
0
  6
ByLayer
 62
  256
370
   -1
100
AcDbLine
 10
32.36070832177224
 20
1.305642224050416
 11
32.31348891944528
 21
1.32138202482605
  0
LINE
  5
2C6
100
AcDbEntity
  8
0
  6
ByLayer
 62
  256
370
   -1
100
AcDbLine
 10
32.31348891944528
 20
1.32138202482605
 11
32.26102291685972
 21
1.326628625084595
  0
LINE
  5
2C7
100
AcDbEntity
  8
0
  6
ByLayer
 62
  256
370
   -1
100
AcDbLine
 10
32.26102291685972
 20
1.326628625084595
 11
32.18757051323998
 21
1.326628625084595
  0
LINE
  5
2C8
100
AcDbEntity
  8
0
  6
ByLayer
 62
  256
370
   -1
100
AcDbLine
 10
32.18757051323998
 20
1.326628625084595
 11
32.12985791039593
 21
1.326628625084595
  0
LINE
  5
2C9
100
AcDbEntity
  8
0
  6
ByLayer
 62
  256
370
   -1
100
AcDbLine
 10
32.12985791039593
 20
1.326628625084595
 11
32.03541910574201
 21
1.274162622499091
  0
LINE
  5
2CA
100
AcDbEntity
  8
0
  6
ByLayer
 62
  256
370
   -1
100
AcDbLine
 10
30.83919424679176
 20
1.289902423274214
 11
30.84304147707486
 21
1.135570346420991
  0
LINE
  5
2CB
100
AcDbEntity
  8
0
  6
ByLayer
 62
  256
370
   -1
100
AcDbLine
 10
30.84304147707486
 20
1.135570346420991
 11
30.84116305034832
 21
1.0153510359238
  0
LINE
  5
2CC
100
AcDbEntity
  8
0
  6
ByLayer
 62
  256
370
   -1
100
AcDbLine
 10
31.77308909281386
 20
0.2930483741495209
 11
31.92524050031183
 21
0.3035415746666104
  0
LINE
  5
2CD
100
AcDbEntity
  8
0
  6
ByLayer
 62
  256
370
   -1
100
AcDbLine
 10
20.90695076694091
 20
1.260983786348447
 11
21.04379156407618
 21
1.232189820429539
  0
LINE
  5
2CE
100
AcDbEntity
  8
0
  6
ByLayer
 62
  256
370
   -1
100
AcDbLine
 10
20.78146155114872
 20
1.300395623790678
 11
20.90695076694091
 21
1.260983786348447
  0
LINE
  5
2CF
100
AcDbEntity
  8
0
  6
ByLayer
 62
  256
370
   -1
100
AcDbLine
 10
25.96581797702175
 20
0.6275299449476961
 11
26.09102101280304
 21
0.6235841904382369
  0
LINE
  5
2D0
100
AcDbEntity
  8
0
  6
ByLayer
 62
  256
370
   -1
100
AcDbLine
 10
26.09102101280304
 20
0.6235841904382369
 11
26.11380582457492
 21
0.6354578653523504
  0
LINE
  5
2D1
100
AcDbEntity
  8
0
  6
ByLayer
 62
  256
370
   -1
100
AcDbLine
 10
26.11380582457492
 20
0.6354578653523504
 11
26.12774721461279
 21
1.384341227928132
  0
LINE
  5
2D2
100
AcDbEntity
  8
0
  6
ByLayer
 62
  256
370
   -1
100
AcDbLine
 10
25.98084240737343
 20
1.814562449129312
 11
25.96581797702175
 21
0.6275299449476961
  0
LINE
  5
2D3
100
AcDbEntity
  8
0
  6
ByLayer
 62
  256
370
   -1
100
AcDbLine
 10
31.99976241944888
 20
1.227386439623274
 11
31.98295310315656
 21
1.190217018362262
  0
LINE
  5
2D4
100
AcDbEntity
  8
0
  6
ByLayer
 62
  256
370
   -1
100
AcDbLine
 10
32.03541910574201
 20
1.274162622499091
 11
31.99976241944888
 21
1.227386439623274
  0
LINE
  5
2D5
100
AcDbEntity
  8
0
  6
ByLayer
 62
  256
370
   -1
100
AcDbLine
 10
30.48891277716758
 20
1.421685452070903
 11
30.3302740217123
 21
1.426314029996547
  0
LINE
  5
2D6
100
AcDbEntity
  8
0
  6
ByLayer
 62
  256
370
   -1
100
AcDbLine
 10
30.48891277716758
 20
1.421685452070903
 11
30.48767202946875
 21
1.358108226635352
  0
LINE
  5
2D7
100
AcDbEntity
  8
0
  6
ByLayer
 62
  256
370
   -1
100
AcDbLine
 10
30.30404102041951
 20
0.5816113883698222
 11
30.45831721876915
 21
0.5816983033127485
  0
LINE
  5
2D8
100
AcDbEntity
  8
0
  6
ByLayer
 62
  256
370
   -1
100
AcDbLine
 10
30.45831721876915
 20
0.5816983033127485
 11
30.47193222869317
 21
1.095778213707831
  0
LINE
  5
2D9
100
AcDbEntity
  8
0
  6
ByLayer
 62
  256
370
   -1
100
AcDbLine
 10
30.84215240595007
 20
0.9057330808965958
 11
30.83798028435025
 21
0.8042114553016404
  0
LINE
  5
2DA
100
AcDbEntity
  8
0
  6
ByLayer
 62
  256
370
   -1
100
AcDbLine
 10
30.84116305034832
 20
1.0153510359238
 11
30.84215240595007
 21
0.9057330808965958
  0
LINE
  5
2DB
100
AcDbEntity
  8
0
  6
ByLayer
 62
  256
370
   -1
100
AcDbLine
 10
30.83798028435025
 20
0.8042114553016404
 11
30.83919424679176
 21
0.6235841904382369
  0
LINE
  5
2DC
100
AcDbEntity
  8
0
  6
ByLayer
 62
  256
370
   -1
100
AcDbLine
 10
31.38730962832291
 20
1.133809061685213
 11
31.39533387419807
 21
0.9016540041413919
  0
LINE
  5
2DD
100
AcDbEntity
  8
0
  6
ByLayer
 62
  256
370
   -1
100
AcDbLine
 10
31.35336107212971
 20
1.195463618620295
 11
31.38730962832291
 21
1.133809061685213
  0
LINE
  5
2DE
100
AcDbEntity
  8
0
  6
ByLayer
 62
  256
370
   -1
100
AcDbLine
 10
31.39008727393958
 20
0.7495025966434241
 11
31.38452821392299
 21
0.5803075961127888
  0
LINE
  5
2DF
100
AcDbEntity
  8
0
  6
ByLayer
 62
  256
370
   -1
100
AcDbLine
 10
31.38452821392299
 20
0.5803075961127888
 11
31.47403287807641
 21
0.5763647881112774
  0
LINE
  5
2E0
100
AcDbEntity
  8
0
  6
ByLayer
 62
  256
370
   -1
100
AcDbLine
 10
31.47403287807641
 20
0.5763647881112774
 11
31.51803610511639
 21
0.578916888912886
  0
LINE
  5
2E1
100
AcDbEntity
  8
0
  6
ByLayer
 62
  256
370
   -1
100
AcDbLine
 10
31.51803610511639
 20
0.578916888912886
 11
31.51525469071647
 21
0.9794405624929254
  0
LINE
  5
2E2
100
AcDbEntity
  8
0
  6
ByLayer
 62
  256
370
   -1
100
AcDbLine
 10
31.51525469071647
 20
0.9794405624929254
 11
31.51600568014477
 21
1.19021701836175
  0
LINE
  5
2E3
100
AcDbEntity
  8
0
  6
ByLayer
 62
  256
370
   -1
100
AcDbLine
 10
33.95042820011248
 20
0.7180229950921557
 11
33.94695821313475
 21
0.6252040767466269
  0
LINE
  5
2E4
100
AcDbEntity
  8
0
  6
ByLayer
 62
  256
370
   -1
100
AcDbLine
 10
33.94695821313475
 20
0.6252040767466269
 11
33.97142096071481
 21
0.6007413291665102
  0
LINE
  5
2E5
100
AcDbEntity
  8
0
  6
ByLayer
 62
  256
370
   -1
100
AcDbLine
 10
33.99240100218096
 20
0.5816113883698222
 11
34.08683980683487
 21
0.5448851865599522
  0
LINE
  5
2E6
100
AcDbEntity
  8
0
  6
ByLayer
 62
  256
370
   -1
100
AcDbLine
 10
33.97142096071481
 20
0.6007413291665102
 11
33.99240100218096
 21
0.5816113883698222
  0
ENDSEC
  0
SECTION
  2
OBJECTS
  0
DICTIONARY
  5
C
330
0
100
AcDbDictionary
281
    1
  3
ACAD_GROUP
350
D
  0
DICTIONARY
  5
D
330
C
100
AcDbDictionary
281
    1
  0
ENDSEC
  0
EOF
