999
dxfrw 0.6.3
  0
SECTION
  2
HEADER
  9
$ACADVER
  1
AC1021
  9
$DWGCODEPAGE
  3
ANSI_1252
  9
$INSBASE
 10
0
 20
0
 30
0
  9
$EXTMIN
 10
-0.7500000000009095
 20
-0.7500000000004547
 30
0
  9
$EXTMAX
 10
29.75
 20
32.74999999999955
 30
0
  9
$LIMMIN
 10
0
 20
0
  9
$LIMMAX
 10
420
 20
297
  9
$ORTHOMODE
 70
    0
  9
$REGENMODE
 70
    1
  9
$FILLMODE
 70
    1
  9
$QTEXTMODE
 70
    0
  9
$MIRRTEXT
 70
    0
  9
$LTSCALE
 40
1
  9
$ATTMODE
 70
    0
  9
$TEXTSIZE
 40
2.5
  9
$TRACEWID
 40
15.68
  9
$TEXTSTYLE
  7
STANDARD
  9
$CLAYER
  8
0
  9
$CELTYPE
  6
BYLAYER
  9
$CECOLOR
 62
  256
  9
$CELTSCALE
 40
1
  9
$DISPSILH
 70
    0
  9
$DIMSCALE
 40
5
  9
$DIMASZ
 40
2.5
  9
$DIMEXO
 40
0.625
  9
$DIMDLI
 40
3.75
  9
$DIMRND
 40
0
  9
$DIMDLE
 40
0
  9
$DIMEXE
 40
1.25
  9
$DIMTP
 40
0
  9
$DIMTM
 40
0
  9
$DIMTXT
 40
2.5
  9
$DIMCEN
 40
2.5
  9
$DIMTSZ
 40
0
  9
$DIMTOL
 70
    0
  9
$DIMLIM
 70
    0
  9
$DIMTIH
 70
    0
  9
$DIMTOH
 70
    0
  9
$DIMSE1
 70
    0
  9
$DIMSE2
 70
    0
  9
$DIMTAD
 70
    1
  9
$DIMZIN
 70
    8
  9
$DIMBLK
  1

  9
$DIMASO
 70
    1
  9
$DIMSHO
 70
    1
  9
$DIMPOST
  1

  9
$DIMAPOST
  1

  9
$DIMALT
 70
    0
  9
$DIMALTD
 70
    3
  9
$DIMALTF
 40
0.03937
  9
$DIMLFAC
 40
1
  9
$DIMTOFL
 70
    1
  9
$DIMTVP
 40
0
  9
$DIMTIX
 70
    0
  9
$DIMSOXD
 70
    0
  9
$DIMSAH
 70
    0
  9
$DIMBLK1
  1

  9
$DIMBLK2
  1

  9
$DIMSTYLE
  2
STANDARD
  9
$DIMCLRD
 70
    0
  9
$DIMCLRE
 70
    0
  9
$DIMCLRT
 70
    0
  9
$DIMTFAC
 40
1
  9
$DIMGAP
 40
0.625
  9
$DIMJUST
 70
    0
  9
$DIMSD1
 70
    0
  9
$DIMSD2
 70
    0
  9
$DIMTOLJ
 70
    0
  9
$DIMTZIN
 70
    8
  9
$DIMALTZ
 70
    0
  9
$DIMALTTZ
 70
    0
  9
$DIMUPT
 70
    0
  9
$DIMDEC
 70
    2
  9
$DIMTDEC
 70
    2
  9
$DIMALTU
 70
    2
  9
$DIMALTTD
 70
    3
  9
$DIMTXSTY
  7
standard
  9
$DIMAUNIT
 70
    0
  9
$DIMADEC
 70
    0
  9
$DIMALTRND
 40
0
  9
$DIMAZIN
 70
    0
  9
$DIMDSEP
 70
   44
  9
$DIMATFIT
 70
    3
  9
$DIMFRAC
 70
    0
  9
$DIMLDRBLK
  1
STANDARD
  9
$DIMLUNIT
 70
    2
  9
$DIMLWD
 70
   -2
  9
$DIMLWE
 70
   -2
  9
$DIMTMOVE
 70
    0
  9
$DIMFXL
 40
1
  9
$DIMFXLON
 70
    0
  9
$DIMJOGANG
 40
0.7854
  9
$DIMTFILL
 70
    0
  9
$DIMTFILLCLR
 70
    0
  9
$DIMARCSYM
 70
    0
  9
$DIMLTYPE
  6

  9
$DIMLTEX1
  6

  9
$DIMLTEX2
  6

  9
$LUNITS
 70
    2
  9
$LUPREC
 70
    4
  9
$SKETCHINC
 40
1
  9
$FILLETRAD
 40
0
  9
$AUNITS
 70
    0
  9
$AUPREC
 70
    2
  9
$MENU
  1
.
  9
$ELEVATION
 40
0
  9
$PELEVATION
 40
0
  9
$THICKNESS
 40
0
  9
$LIMCHECK
 70
    0
  9
$CHAMFERA
 40
0
  9
$CHAMFERB
 40
0
  9
$CHAMFERC
 40
0
  9
$CHAMFERD
 40
0
  9
$SKPOLY
 70
    0
  9
$USRTIMER
 70
    1
  9
$ANGBASE
 50
0
  9
$ANGDIR
 70
    0
  9
$PDMODE
 70
   34
  9
$PDSIZE
 40
0
  9
$PLINEWID
 40
0
  9
$SPLFRAME
 70
    0
  9
$SPLINETYPE
 70
    2
  9
$SPLINESEGS
 70
    8
  9
$HANDSEED
  5
20000
  9
$SURFTAB1
 70
    6
  9
$SURFTAB2
 70
    6
  9
$SURFTYPE
 70
    6
  9
$SURFU
 70
    6
  9
$SURFV
 70
    6
  9
$UCSBASE
  2

  9
$UCSNAME
  2

  9
$UCSORG
 10
0
 20
0
 30
0
  9
$UCSXDIR
 10
1
 20
0
 30
0
  9
$UCSYDIR
 10
0
 20
1
 30
0
  9
$UCSORTHOREF
  2

  9
$UCSORTHOVIEW
 70
    0
  9
$UCSORGTOP
 10
0
 20
0
 30
0
  9
$UCSORGBOTTOM
 10
0
 20
0
 30
0
  9
$UCSORGLEFT
 10
0
 20
0
 30
0
  9
$UCSORGRIGHT
 10
0
 20
0
 30
0
  9
$UCSORGFRONT
 10
0
 20
0
 30
0
  9
$UCSORGBACK
 10
0
 20
0
 30
0
  9
$PUCSBASE
  2

  9
$PUCSNAME
  2

  9
$PUCSORG
 10
0
 20
0
 30
0
  9
$PUCSXDIR
 10
1
 20
0
 30
0
  9
$PUCSYDIR
 10
0
 20
1
 30
0
  9
$PUCSORTHOREF
  2

  9
$PUCSORTHOVIEW
 70
    0
  9
$PUCSORGTOP
 10
0
 20
0
 30
0
  9
$PUCSORGBOTTOM
 10
0
 20
0
 30
0
  9
$PUCSORGLEFT
 10
0
 20
0
 30
0
  9
$PUCSORGRIGHT
 10
0
 20
0
 30
0
  9
$PUCSORGFRONT
 10
0
 20
0
 30
0
  9
$PUCSORGBACK
 10
0
 20
0
 30
0
  9
$USERI1
 70
    0
  9
$USERI2
 70
    0
  9
$USERI3
 70
    0
  9
$USERI4
 70
    0
  9
$USERI5
 70
    0
  9
$USERR1
 40
0
  9
$USERR2
 40
0
  9
$USERR3
 40
0
  9
$USERR4
 40
0
  9
$USERR5
 40
0
  9
$WORLDVIEW
 70
    1
  9
$SHADEDGE
 70
    3
  9
$SHADEDIF
 70
   70
  9
$TILEMODE
 70
    1
  9
$MAXACTVP
 70
   64
  9
$PINSBASE
 10
143.7510716761377
 20
112.6583198806473
 30
0
  9
$PLIMCHECK
 70
    0
  9
$PEXTMIN
 10
0
 20
0
 30
0
  9
$PEXTMAX
 10
0
 20
0
 30
0
  9
$GRIDMODE
 70
    1
  9
$SNAPSTYLE
 70
    0
  9
$GRIDUNIT
 10
0
 20
0
  9
$PLIMMIN
 10
0
 20
0
  9
$PLIMMAX
 10
210
 20
297
  9
$UNITMODE
 70
    0
  9
$VISRETAIN
 70
    1
  9
$PLINEGEN
 70
    0
  9
$PSLTSCALE
 70
    1
  9
$TREEDEPTH
 70
 3020
  9
$CMLSTYLE
  2
Standard
  9
$CMLJUST
 70
    0
  9
$CMLSCALE
 40
20
  9
$PROXYGRAPHICS
 70
    1
  9
$MEASUREMENT
 70
    1
  9
$CELWEIGHT
370
   -1
  9
$ENDCAPS
280
    0
  9
$JOINSTYLE
280
    0
  9
$LWDISPLAY
290
    0
  9
$INSUNITS
 70
    4
  9
$HYPERLINKBASE
  1

  9
$STYLESHEET
  1

  9
$XEDIT
290
    1
  9
$CEPSNTYPE
380
    0
  9
$PSTYLEMODE
290
    1
  9
$EXTNAMES
290
    1
  9
$PSVPSCALE
 40
0.01941031464120033
  9
$OLESTARTUP
290
    0
  9
$SORTENTS
280
  127
  9
$INDEXCTL
280
    0
  9
$HIDETEXT
280
    1
  9
$XCLIPFRAME
290
    0
  9
$HALOGAP
280
    0
  9
$OBSCOLOR
 70
  257
  9
$OBSLTYPE
280
    0
  9
$INTERSECTIONDISPLAY
280
    0
  9
$INTERSECTIONCOLOR
 70
  257
  9
$DIMASSOC
280
    1
  9
$PROJECTNAME
  1

  9
$CAMERADISPLAY
290
    0
  9
$LENSLENGTH
 40
50
  9
$CAMERAHEIGHT
 40
0
  9
$STEPSPERSEC
 40
2
  9
$STEPSIZE
 40
50
  9
$3DDWFPREC
 40
2
  9
$PSOLWIDTH
 40
5
  9
$PSOLHEIGHT
 40
80
  9
$LOFTANG1
 40
1.570796326794897
  9
$LOFTANG2
 40
1.570796326794897
  9
$LOFTMAG1
 40
0
  9
$LOFTMAG2
 40
0
  9
$LOFTPARAM
 70
    7
  9
$LOFTNORMALS
280
    1
  9
$LATITUDE
 40
1
  9
$LONGITUDE
 40
1
  9
$NORTHDIRECTION
 40
0
  9
$TIMEZONE
 70
-8000
  9
$LIGHTGLYPHDISPLAY
280
    1
  9
$TILEMODELIGHTSYNCH
280
    1
  9
$SOLIDHIST
280
    1
  9
$SHOWHIST
280
    1
  9
$DWFFRAME
280
    2
  9
$DGNFRAME
280
    0
  9
$REALWORLDSCALE
290
    1
  9
$INTERFERECOLOR
 62
    1
  9
$CSHADOW
280
    0
  9
$SHADOWPLANELOCATION
 40
0
  0
ENDSEC
  0
SECTION
  2
CLASSES
  0
ENDSEC
  0
SECTION
  2
TABLES
  0
TABLE
  2
VPORT
  5
8
330
0
100
AcDbSymbolTable
 70
    1
  0
VPORT
  5
31
330
2
100
AcDbSymbolTableRecord
100
AcDbViewportTableRecord
  2
*ACTIVE
 70
    0
 10
0
 20
0
 11
1
 21
1
 12
25.91735028495341
 22
19.55506769640481
 13
0
 23
0
 14
10
 24
10
 15
10
 25
10
 16
0
 26
0
 36
1
 17
0
 27
0
 37
0
 40
42.47030195472706
 41
2.037613488975357
 42
50
 43
0
 44
0
 50
0
 51
0
 71
    0
 72
  100
 73
    1
 74
    3
 75
    0
 76
    1
 77
    0
 78
    0
281
    0
 65
    1
110
0
120
0
130
0
111
1
121
0
131
0
112
0
122
1
132
0
 79
    0
146
0
348
10020
 60
    7
 61
    5
292
1
282
    1
141
0
142
0
 63
  250
421
3358443
  0
ENDTAB
  0
TABLE
  2
LTYPE
  5
5
330
0
100
AcDbSymbolTable
 70
    4
  0
LTYPE
  5
14
330
5
100
AcDbSymbolTableRecord
100
AcDbLinetypeTableRecord
  2
ByBlock
 70
    0
  3

 72
   65
 73
    0
 40
0
  0
LTYPE
  5
15
330
5
100
AcDbSymbolTableRecord
100
AcDbLinetypeTableRecord
  2
ByLayer
 70
    0
  3

 72
   65
 73
    0
 40
0
  0
LTYPE
  5
16
330
5
100
AcDbSymbolTableRecord
100
AcDbLinetypeTableRecord
  2
Continuous
 70
    0
  3
Solid line
 72
   65
 73
    0
 40
0
  0
LTYPE
  5
32
330
5
100
AcDbSymbolTableRecord
100
AcDbLinetypeTableRecord
  2
DOT
 70
    0
  3
Dot . . . . . . . . . . . . . . . . . . . . . .
 72
   65
 73
    2
 40
6.35
 49
0
 74
    0
 49
-6.35
 74
    0
  0
LTYPE
  5
33
330
5
100
AcDbSymbolTableRecord
100
AcDbLinetypeTableRecord
  2
DOTTINY
 70
    0
  3
Dot (.15x) .....................................
 72
   65
 73
    2
 40
0.9525
 49
0
 74
    0
 49
-0.9525
 74
    0
  0
LTYPE
  5
34
330
5
100
AcDbSymbolTableRecord
100
AcDbLinetypeTableRecord
  2
DOT2
 70
    0
  3
Dot (.5x) .....................................
 72
   65
 73
    2
 40
3.175
 49
0
 74
    0
 49
-3.175
 74
    0
  0
LTYPE
  5
35
330
5
100
AcDbSymbolTableRecord
100
AcDbLinetypeTableRecord
  2
DOTX2
 70
    0
  3
Dot (2x) .  .  .  .  .  .  .  .  .  .  .  .  .
 72
   65
 73
    2
 40
12.7
 49
0
 74
    0
 49
-12.7
 74
    0
  0
LTYPE
  5
36
330
5
100
AcDbSymbolTableRecord
100
AcDbLinetypeTableRecord
  2
DASHED
 70
    0
  3
Dashed _ _ _ _ _ _ _ _ _ _ _ _ _ _ _ _ _
 72
   65
 73
    2
 40
19.05
 49
12.7
 74
    0
 49
-6.35
 74
    0
  0
LTYPE
  5
37
330
5
100
AcDbSymbolTableRecord
100
AcDbLinetypeTableRecord
  2
DASHEDTINY
 70
    0
  3
Dashed (.15x) _ _ _ _ _ _ _ _ _ _ _ _ _ _ _ _ _
 72
   65
 73
    2
 40
2.8575
 49
1.905
 74
    0
 49
-0.9525
 74
    0
  0
LTYPE
  5
38
330
5
100
AcDbSymbolTableRecord
100
AcDbLinetypeTableRecord
  2
DASHED2
 70
    0
  3
Dashed (.5x) _ _ _ _ _ _ _ _ _ _ _ _ _ _ _ _ _
 72
   65
 73
    2
 40
9.524999999999999
 49
6.35
 74
    0
 49
-3.175
 74
    0
  0
LTYPE
  5
39
330
5
100
AcDbSymbolTableRecord
100
AcDbLinetypeTableRecord
  2
DASHEDX2
 70
    0
  3
Dashed (2x) ____  ____  ____  ____  ____  ___
 72
   65
 73
    2
 40
38.09999999999999
 49
25.4
 74
    0
 49
-12.7
 74
    0
  0
LTYPE
  5
3A
330
5
100
AcDbSymbolTableRecord
100
AcDbLinetypeTableRecord
  2
DASHDOT
 70
    0
  3
Dash dot __ . __ . __ . __ . __ . __ . __ . __
 72
   65
 73
    4
 40
25.4
 49
12.7
 74
    0
 49
-6.35
 74
    0
 49
0
 74
    0
 49
-6.35
 74
    0
  0
LTYPE
  5
3B
330
5
100
AcDbSymbolTableRecord
100
AcDbLinetypeTableRecord
  2
DASHDOTTINY
 70
    0
  3
Dash dot (.15x) _._._._._._._._._._._._._._._.
 72
   65
 73
    4
 40
3.81
 49
1.905
 74
    0
 49
-0.9525
 74
    0
 49
0
 74
    0
 49
-0.9525
 74
    0
  0
LTYPE
  5
3C
330
5
100
AcDbSymbolTableRecord
100
AcDbLinetypeTableRecord
  2
DASHDOT2
 70
    0
  3
Dash dot (.5x) _._._._._._._._._._._._._._._.
 72
   65
 73
    4
 40
12.7
 49
6.35
 74
    0
 49
-3.175
 74
    0
 49
0
 74
    0
 49
-3.175
 74
    0
  0
LTYPE
  5
3D
330
5
100
AcDbSymbolTableRecord
100
AcDbLinetypeTableRecord
  2
DASHDOTX2
 70
    0
  3
Dash dot (2x) ____  .  ____  .  ____  .  ___
 72
   65
 73
    4
 40
50.8
 49
25.4
 74
    0
 49
-12.7
 74
    0
 49
0
 74
    0
 49
-12.7
 74
    0
  0
LTYPE
  5
3E
330
5
100
AcDbSymbolTableRecord
100
AcDbLinetypeTableRecord
  2
DIVIDE
 70
    0
  3
Divide ____ . . ____ . . ____ . . ____ . . ____
 72
   65
 73
    6
 40
31.75
 49
12.7
 74
    0
 49
-6.35
 74
    0
 49
0
 74
    0
 49
-6.35
 74
    0
 49
0
 74
    0
 49
-6.35
 74
    0
  0
LTYPE
  5
3F
330
5
100
AcDbSymbolTableRecord
100
AcDbLinetypeTableRecord
  2
DIVIDETINY
 70
    0
  3
Divide (.15x) __..__..__..__..__..__..__..__.._
 72
   65
 73
    6
 40
4.7625
 49
1.905
 74
    0
 49
-0.9525
 74
    0
 49
0
 74
    0
 49
-0.9525
 74
    0
 49
0
 74
    0
 49
-0.9525
 74
    0
  0
LTYPE
  5
40
330
5
100
AcDbSymbolTableRecord
100
AcDbLinetypeTableRecord
  2
DIVIDE2
 70
    0
  3
Divide (.5x) __..__..__..__..__..__..__..__.._
 72
   65
 73
    6
 40
15.875
 49
6.35
 74
    0
 49
-3.175
 74
    0
 49
0
 74
    0
 49
-3.175
 74
    0
 49
0
 74
    0
 49
-3.175
 74
    0
  0
LTYPE
  5
41
330
5
100
AcDbSymbolTableRecord
100
AcDbLinetypeTableRecord
  2
DIVIDEX2
 70
    0
  3
Divide (2x) ________  .  .  ________  .  .  _
 72
   65
 73
    6
 40
63.5
 49
25.4
 74
    0
 49
-12.7
 74
    0
 49
0
 74
    0
 49
-12.7
 74
    0
 49
0
 74
    0
 49
-12.7
 74
    0
  0
LTYPE
  5
42
330
5
100
AcDbSymbolTableRecord
100
AcDbLinetypeTableRecord
  2
BORDER
 70
    0
  3
Border __ __ . __ __ . __ __ . __ __ . __ __ .
 72
   65
 73
    6
 40
44.45
 49
12.7
 74
    0
 49
-6.35
 74
    0
 49
12.7
 74
    0
 49
-6.35
 74
    0
 49
0
 74
    0
 49
-6.35
 74
    0
  0
LTYPE
  5
43
330
5
100
AcDbSymbolTableRecord
100
AcDbLinetypeTableRecord
  2
BORDERTINY
 70
    0
  3
Border (.15x) __.__.__.__.__.__.__.__.__.__.__.
 72
   65
 73
    6
 40
6.6675
 49
1.905
 74
    0
 49
-0.9525
 74
    0
 49
1.905
 74
    0
 49
-0.9525
 74
    0
 49
0
 74
    0
 49
-0.9525
 74
    0
  0
LTYPE
  5
44
330
5
100
AcDbSymbolTableRecord
100
AcDbLinetypeTableRecord
  2
BORDER2
 70
    0
  3
Border (.5x) __.__.__.__.__.__.__.__.__.__.__.
 72
   65
 73
    6
 40
22.225
 49
6.35
 74
    0
 49
-3.175
 74
    0
 49
6.35
 74
    0
 49
-3.175
 74
    0
 49
0
 74
    0
 49
-3.175
 74
    0
  0
LTYPE
  5
45
330
5
100
AcDbSymbolTableRecord
100
AcDbLinetypeTableRecord
  2
BORDERX2
 70
    0
  3
Border (2x) ____  ____  .  ____  ____  .  ___
 72
   65
 73
    6
 40
88.89999999999999
 49
25.4
 74
    0
 49
-12.7
 74
    0
 49
25.4
 74
    0
 49
-12.7
 74
    0
 49
0
 74
    0
 49
-12.7
 74
    0
  0
LTYPE
  5
46
330
5
100
AcDbSymbolTableRecord
100
AcDbLinetypeTableRecord
  2
CENTER
 70
    0
  3
Center ____ _ ____ _ ____ _ ____ _ ____ _ ____
 72
   65
 73
    4
 40
50.8
 49
31.75
 74
    0
 49
-6.35
 74
    0
 49
6.35
 74
    0
 49
-6.35
 74
    0
  0
LTYPE
  5
47
330
5
100
AcDbSymbolTableRecord
100
AcDbLinetypeTableRecord
  2
CENTERTINY
 70
    0
  3
Center (.15x) ___ _ ___ _ ___ _ ___ _ ___ _ ___
 72
   65
 73
    4
 40
7.619999999999999
 49
4.7625
 74
    0
 49
-0.9525
 74
    0
 49
0.9525
 74
    0
 49
-0.9525
 74
    0
  0
LTYPE
  5
48
330
5
100
AcDbSymbolTableRecord
100
AcDbLinetypeTableRecord
  2
CENTER2
 70
    0
  3
Center (.5x) ___ _ ___ _ ___ _ ___ _ ___ _ ___
 72
   65
 73
    4
 40
28.575
 49
19.05
 74
    0
 49
-3.175
 74
    0
 49
3.175
 74
    0
 49
-3.175
 74
    0
  0
LTYPE
  5
49
330
5
100
AcDbSymbolTableRecord
100
AcDbLinetypeTableRecord
  2
CENTERX2
 70
    0
  3
Center (2x) ________  __  ________  __  _____
 72
   65
 73
    4
 40
101.6
 49
63.5
 74
    0
 49
-12.7
 74
    0
 49
12.7
 74
    0
 49
-12.7
 74
    0
  0
ENDTAB
  0
TABLE
  2
LAYER
  5
2
330
0
100
AcDbSymbolTable
 70
    1
  0
LAYER
  5
10
330
2
100
AcDbSymbolTableRecord
100
AcDbLayerTableRecord
  2
0
 70
    0
 62
    7
  6
CONTINUOUS
370
    0
390
F
  0
ENDTAB
  0
TABLE
  2
STYLE
  5
3
330
0
100
AcDbSymbolTable
 70
    3
  0
STYLE
  5
4A
330
2
100
AcDbSymbolTableRecord
100
AcDbTextStyleTableRecord
  2
Standard
 70
    0
 40
0
 41
1
 50
0
 71
    0
 42
1
  3
txt
  4

  0
ENDTAB
  0
TABLE
  2
VIEW
  5
6
330
0
100
AcDbSymbolTable
 70
    0
  0
ENDTAB
  0
TABLE
  2
UCS
  5
7
330
0
100
AcDbSymbolTable
 70
    0
  0
ENDTAB
  0
TABLE
  2
APPID
  5
9
330
0
100
AcDbSymbolTable
 70
    1
  0
APPID
  5
12
330
9
100
AcDbSymbolTableRecord
100
AcDbRegAppTableRecord
  2
ACAD
 70
    0
  0
APPID
  5
4B
330
9
100
AcDbSymbolTableRecord
100
AcDbRegAppTableRecord
  2
LibreCad
 70
    0
  0
ENDTAB
  0
TABLE
  2
DIMSTYLE
  5
A
330
0
100
AcDbSymbolTable
 70
    1
100
AcDbDimStyleTable
 71
    1
  0
DIMSTYLE
105
4C
330
A
100
AcDbSymbolTableRecord
100
AcDbDimStyleTableRecord
  2
Standard
 70
    0
 40
5
 41
2.5
 42
0.625
 43
0.38
 44
1.25
 45
0
 46
0
 47
0
 48
0
 49
1
140
2.5
141
0.09
142
0
143
25.4
144
1
145
0
146
1
147
0.625
148
0
 71
    0
 72
    0
 73
    0
 74
    1
 75
    0
 76
    0
 77
    0
 78
    8
 79
    0
170
    0
171
    2
172
    0
173
    0
174
    0
175
    0
176
    0
177
    0
178
    0
179
    0
271
    2
272
    4
273
    2
274
    2
275
    0
276
    0
277
    2
278
   44
279
    0
280
    0
281
    0
282
    0
283
    1
284
    0
285
    0
286
    0
288
    0
289
    3
340
standard
341

371
   -2
372
   -2
  0
ENDTAB
  0
TABLE
  2
BLOCK_RECORD
  5
1
330
0
100
AcDbSymbolTable
 70
    2
  0
BLOCK_RECORD
  5
1F
330
1
100
AcDbSymbolTableRecord
100
AcDbBlockTableRecord
  2
*Model_Space
 70
    0
280
    1
281
    0
  0
BLOCK_RECORD
  5
1E
330
1
100
AcDbSymbolTableRecord
100
AcDbBlockTableRecord
  2
*Paper_Space
 70
    0
280
    1
281
    0
  0
BLOCK_RECORD
  5
4D
330
1
100
AcDbSymbolTableRecord
100
AcDbBlockTableRecord
  2
touch_kb1-F_SilkS
 70
    0
280
    1
281
    0
  0
ENDTAB
  0
ENDSEC
  0
SECTION
  2
BLOCKS
  0
BLOCK
  5
20
330
1F
100
AcDbEntity
  8
0
100
AcDbBlockBegin
  2
*Model_Space
 70
    0
 10
0
 20
0
 30
0
  3
*Model_Space
  1

  0
ENDBLK
  5
21
330
1F
100
AcDbEntity
  8
0
100
AcDbBlockEnd
  0
BLOCK
  5
1C
330
1B
100
AcDbEntity
  8
0
100
AcDbBlockBegin
  2
*Paper_Space
 70
    0
 10
0
 20
0
 30
0
  3
*Paper_Space
  1

  0
ENDBLK
  5
1D
330
1F
100
AcDbEntity
  8
0
100
AcDbBlockEnd
  0
BLOCK
  5
4E
330
4D
100
AcDbEntity
  8
0
100
AcDbBlockBegin
  2
touch_kb1-F_SilkS
 70
    0
 10
0
 20
0
  3
touch_kb1-F_SilkS
  1

  0
LWPOLYLINE
  5
50
100
AcDbEntity
  8
0
  6
ByLayer
 62
    0
370
   -1
100
AcDbPolyline
 90
    5
 70
    1
 43
0
 10
6.968579999999747
 20
1.742080000000001
 10
11.22050000000036
 20
1.742080000000001
 10
11.22050000000036
 20
0.4822060000000015
 10
6.968579999999747
 20
0.4822060000000015
 10
6.968579999999747
 20
1.742080000000001
  0
LWPOLYLINE
  5
51
100
AcDbEntity
  8
0
  6
ByLayer
 62
    0
370
   -1
100
AcDbPolyline
 90
    5
 70
    1
 43
0
 10
0.3937180000002627
 20
7.884059999999998
 10
11.29929999999968
 20
7.884059999999998
 10
11.29929999999968
 20
0.4034830000000014
 10
0.3937180000002627
 20
0.4034830000000014
 10
0.3937180000002627
 20
7.884059999999998
  0
LWPOLYLINE
  5
52
100
AcDbEntity
  8
0
  6
ByLayer
 62
    0
370
   -1
100
AcDbPolyline
 90
    5
 70
    1
 43
0
 10
0.4724390000001222
 20
7.805329999999998
 10
11.22050000000036
 20
7.805329999999998
 10
11.22050000000036
 20
0.4822060000000015
 10
0.4724390000001222
 20
0.4822060000000015
 10
0.4724390000001222
 20
7.805329999999998
  0
LWPOLYLINE
  5
53
100
AcDbEntity
  8
0
  6
ByLayer
 62
    0
370
   -1
100
AcDbPolyline
 90
    2
 70
    0
 43
0
 10
2.362189999999828
 20
7.805389999999999
 10
2.362189999999828
 20
7.884059999999998
  0
LWPOLYLINE
  5
54
100
AcDbEntity
  8
0
  6
ByLayer
 62
    0
370
   -1
100
AcDbPolyline
 90
    2
 70
    0
 43
0
 10
4.330680000000029
 20
7.805389999999999
 10
4.330680000000029
 20
7.884059999999998
  0
LWPOLYLINE
  5
55
100
AcDbEntity
  8
0
  6
ByLayer
 62
    0
370
   -1
100
AcDbPolyline
 90
    2
 70
    0
 43
0
 10
6.29921000000013
 20
7.805389999999999
 10
6.29921000000013
 20
7.884059999999998
  0
LWPOLYLINE
  5
56
100
AcDbEntity
  8
0
  6
ByLayer
 62
    0
370
   -1
100
AcDbPolyline
 90
    2
 70
    0
 43
0
 10
8.267679999999928
 20
7.805389999999999
 10
8.267679999999928
 20
7.884059999999998
  0
LWPOLYLINE
  5
57
100
AcDbEntity
  8
0
  6
ByLayer
 62
    0
370
   -1
100
AcDbPolyline
 90
    2
 70
    0
 43
0
 10
10.23620000000028
 20
7.805389999999999
 10
10.23620000000028
 20
7.884059999999998
  0
LWPOLYLINE
  5
58
100
AcDbEntity
  8
0
  6
ByLayer
 62
    0
370
   -1
100
AcDbPolyline
 90
    2
 70
    0
 43
0
 10
1.419920000000275
 20
7.821559999999998
 10
1.390629999999874
 20
7.821559999999998
  0
LWPOLYLINE
  5
59
100
AcDbEntity
  8
0
  6
ByLayer
 62
    0
370
   -1
100
AcDbPolyline
 90
    5
 70
    0
 43
0
 10
1.405219999999645
 20
7.821559999999998
 10
1.405219999999645
 20
7.872779999999999
 10
1.400389999999788
 20
7.865459999999999
 10
1.395510000000286
 20
7.860569999999999
 10
1.390629999999874
 20
7.858180000000001
  0
LWPOLYLINE
  5
5A
100
AcDbEntity
  8
0
  6
ByLayer
 62
    0
370
   -1
100
AcDbPolyline
 90
   11
 70
    0
 43
0
 10
3.359099999999671
 20
7.867889999999999
 10
3.361490000000231
 20
7.87039
 10
3.366369999999733
 20
7.872779999999999
 10
3.378579999999602
 20
7.872779999999999
 10
3.38350999999966
 20
7.87039
 10
3.38590000000022
 20
7.867889999999999
 10
3.38839999999982
 20
7.86307
 10
3.38839999999982
 20
7.858180000000001
 10
3.38590000000022
 20
7.850860000000001
 10
3.356719999999768
 20
7.821559999999998
 10
3.38839999999982
 20
7.821559999999998
  0
LWPOLYLINE
  5
5B
100
AcDbEntity
  8
0
  6
ByLayer
 62
    0
370
   -1
100
AcDbPolyline
 90
   14
 70
    0
 43
0
 10
5.325189999999566
 20
7.872779999999999
 10
5.356880000000274
 20
7.872779999999999
 10
5.339789999999994
 20
7.85331
 10
5.347109999999702
 20
7.85331
 10
5.351999999999862
 20
7.850860000000001
 10
5.354390000000421
 20
7.84836
 10
5.356880000000274
 20
7.843579999999999
 10
5.356880000000274
 20
7.831379999999999
 10
5.354390000000421
 20
7.826499999999999
 10
5.351999999999862
 20
7.824059999999999
 10
5.347109999999702
 20
7.821559999999998
 10
5.332510000000184
 20
7.821559999999998
 10
5.327580000000125
 20
7.824059999999999
 10
5.325189999999566
 20
7.826499999999999
  0
LWPOLYLINE
  5
5C
100
AcDbEntity
  8
0
  6
ByLayer
 62
    0
370
   -1
100
AcDbPolyline
 90
    2
 70
    0
 43
0
 10
7.320469999999659
 20
7.85568
 10
7.320469999999659
 20
7.821559999999998
  0
LWPOLYLINE
  5
5D
100
AcDbEntity
  8
0
  6
ByLayer
 62
    0
370
   -1
100
AcDbPolyline
 90
    3
 70
    0
 43
0
 10
7.308259999999791
 20
7.875170000000001
 10
7.296110000000226
 20
7.838709999999999
 10
7.327809999999772
 20
7.838709999999999
  0
LWPOLYLINE
  5
5E
100
AcDbEntity
  8
0
  6
ByLayer
 62
    0
370
   -1
100
AcDbPolyline
 90
   16
 70
    0
 43
0
 10
9.29139000000032
 20
7.872779999999999
 10
9.267079999999623
 20
7.872779999999999
 10
9.264600000000428
 20
7.84836
 10
9.267079999999623
 20
7.850860000000001
 10
9.271920000000136
 20
7.85331
 10
9.284069999999701
 20
7.85331
 10
9.289010000000417
 20
7.850860000000001
 10
9.29139000000032
 20
7.84836
 10
9.293889999999919
 20
7.843579999999999
 10
9.293889999999919
 20
7.831379999999999
 10
9.29139000000032
 20
7.826499999999999
 10
9.289010000000417
 20
7.824059999999999
 10
9.284069999999701
 20
7.821559999999998
 10
9.271920000000136
 20
7.821559999999998
 10
9.267079999999623
 20
7.824059999999999
 10
9.264600000000428
 20
7.826499999999999
  0
LWPOLYLINE
  5
5F
100
AcDbEntity
  8
0
  6
ByLayer
 62
    0
370
   -1
100
AcDbPolyline
 90
   22
 70
    0
 43
0
 10
11.25749999999971
 20
7.872779999999999
 10
11.2476999999999
 20
7.872779999999999
 10
11.24290000000019
 20
7.87039
 10
11.24039999999968
 20
7.867889999999999
 10
11.23559999999998
 20
7.860569999999999
 10
11.23310000000038
 20
7.850860000000001
 10
11.23310000000038
 20
7.831379999999999
 10
11.23559999999998
 20
7.826499999999999
 10
11.23800000000028
 20
7.824059999999999
 10
11.24290000000019
 20
7.821559999999998
 10
11.2525999999998
 20
7.821559999999998
 10
11.25749999999971
 20
7.824059999999999
 10
11.25990000000002
 20
7.826499999999999
 10
11.26239999999962
 20
7.831379999999999
 10
11.26239999999962
 20
7.843579999999999
 10
11.25990000000002
 20
7.84836
 10
11.25749999999971
 20
7.850860000000001
 10
11.2525999999998
 20
7.85331
 10
11.24290000000019
 20
7.85331
 10
11.23800000000028
 20
7.850860000000001
 10
11.23559999999998
 20
7.84836
 10
11.23310000000038
 20
7.843579999999999
  0
LWPOLYLINE
  5
60
100
AcDbEntity
  8
0
  6
ByLayer
 62
    0
370
   -1
100
AcDbPolyline
 90
    2
 70
    0
 43
0
 10
2.362189999999828
 20
0.4822600000000001
 10
2.362189999999828
 20
0.4035919999999997
  0
LWPOLYLINE
  5
61
100
AcDbEntity
  8
0
  6
ByLayer
 62
    0
370
   -1
100
AcDbPolyline
 90
    2
 70
    0
 43
0
 10
4.330680000000029
 20
0.4822600000000001
 10
4.330680000000029
 20
0.4035919999999997
  0
LWPOLYLINE
  5
62
100
AcDbEntity
  8
0
  6
ByLayer
 62
    0
370
   -1
100
AcDbPolyline
 90
    2
 70
    0
 43
0
 10
6.29921000000013
 20
0.4822600000000001
 10
6.29921000000013
 20
0.4035919999999997
  0
LWPOLYLINE
  5
63
100
AcDbEntity
  8
0
  6
ByLayer
 62
    0
370
   -1
100
AcDbPolyline
 90
    2
 70
    0
 43
0
 10
8.267679999999928
 20
0.4822600000000001
 10
8.267679999999928
 20
0.4035919999999997
  0
LWPOLYLINE
  5
64
100
AcDbEntity
  8
0
  6
ByLayer
 62
    0
370
   -1
100
AcDbPolyline
 90
    2
 70
    0
 43
0
 10
10.23620000000028
 20
0.4822600000000001
 10
10.23620000000028
 20
0.4035919999999997
  0
LWPOLYLINE
  5
65
100
AcDbEntity
  8
0
  6
ByLayer
 62
    0
370
   -1
100
AcDbPolyline
 90
    2
 70
    0
 43
0
 10
1.419920000000275
 20
0.4197600000000001
 10
1.390629999999874
 20
0.4197600000000001
  0
LWPOLYLINE
  5
66
100
AcDbEntity
  8
0
  6
ByLayer
 62
    0
370
   -1
100
AcDbPolyline
 90
    5
 70
    0
 43
0
 10
1.405219999999645
 20
0.4197600000000001
 10
1.405219999999645
 20
0.4708649999999999
 10
1.400389999999788
 20
0.463595999999999
 10
1.395510000000286
 20
0.4587679999999992
 10
1.390629999999874
 20
0.4562719999999985
  0
LWPOLYLINE
  5
67
100
AcDbEntity
  8
0
  6
ByLayer
 62
    0
370
   -1
100
AcDbPolyline
 90
   11
 70
    0
 43
0
 10
3.359099999999671
 20
0.4660919999999997
 10
3.361490000000231
 20
0.4684789999999985
 10
3.366369999999733
 20
0.4708649999999999
 10
3.378579999999602
 20
0.4708649999999999
 10
3.38350999999966
 20
0.4684789999999985
 10
3.38590000000022
 20
0.4660919999999997
 10
3.38839999999982
 20
0.4612079999999992
 10
3.38839999999982
 20
0.4562719999999985
 10
3.38590000000022
 20
0.4490009999999991
 10
3.356719999999768
 20
0.4197600000000001
 10
3.38839999999982
 20
0.4197600000000001
  0
LWPOLYLINE
  5
68
100
AcDbEntity
  8
0
  6
ByLayer
 62
    0
370
   -1
100
AcDbPolyline
 90
   14
 70
    0
 43
0
 10
5.325189999999566
 20
0.4708649999999999
 10
5.356880000000274
 20
0.4708649999999999
 10
5.339789999999994
 20
0.4514969999999998
 10
5.347109999999702
 20
0.4514969999999998
 10
5.351999999999862
 20
0.4490009999999991
 10
5.354390000000421
 20
0.4465600000000016
 10
5.356880000000274
 20
0.4416779999999996
 10
5.356880000000274
 20
0.4294709999999995
 10
5.354390000000421
 20
0.4245869999999989
 10
5.351999999999862
 20
0.4222000000000001
 10
5.347109999999702
 20
0.4197600000000001
 10
5.332510000000184
 20
0.4197600000000001
 10
5.327580000000125
 20
0.4222000000000001
 10
5.325189999999566
 20
0.4245869999999989
  0
LWPOLYLINE
  5
69
100
AcDbEntity
  8
0
  6
ByLayer
 62
    0
370
   -1
100
AcDbPolyline
 90
    2
 70
    0
 43
0
 10
7.320469999999659
 20
0.4538849999999996
 10
7.320469999999659
 20
0.4197600000000001
  0
LWPOLYLINE
  5
6A
100
AcDbEntity
  8
0
  6
ByLayer
 62
    0
370
   -1
100
AcDbPolyline
 90
    3
 70
    0
 43
0
 10
7.308259999999791
 20
0.4733610000000006
 10
7.296110000000226
 20
0.436793999999999
 10
7.327809999999772
 20
0.436793999999999
  0
LWPOLYLINE
  5
6B
100
AcDbEntity
  8
0
  6
ByLayer
 62
    0
370
   -1
100
AcDbPolyline
 90
   16
 70
    0
 43
0
 10
9.29139000000032
 20
0.4708649999999999
 10
9.267079999999623
 20
0.4708649999999999
 10
9.264600000000428
 20
0.4465600000000016
 10
9.267079999999623
 20
0.4490009999999991
 10
9.271920000000136
 20
0.4514969999999998
 10
9.284069999999701
 20
0.4514969999999998
 10
9.289010000000417
 20
0.4490009999999991
 10
9.29139000000032
 20
0.4465600000000016
 10
9.293889999999919
 20
0.4416779999999996
 10
9.293889999999919
 20
0.4294709999999995
 10
9.29139000000032
 20
0.4245869999999989
 10
9.289010000000417
 20
0.4222000000000001
 10
9.284069999999701
 20
0.4197600000000001
 10
9.271920000000136
 20
0.4197600000000001
 10
9.267079999999623
 20
0.4222000000000001
 10
9.264600000000428
 20
0.4245869999999989
  0
LWPOLYLINE
  5
6C
100
AcDbEntity
  8
0
  6
ByLayer
 62
    0
370
   -1
100
AcDbPolyline
 90
   22
 70
    0
 43
0
 10
11.25749999999971
 20
0.4708649999999999
 10
11.2476999999999
 20
0.4708649999999999
 10
11.24290000000019
 20
0.4684789999999985
 10
11.24039999999968
 20
0.4660919999999997
 10
11.23559999999998
 20
0.4587679999999992
 10
11.23310000000038
 20
0.4490009999999991
 10
11.23310000000038
 20
0.4294709999999995
 10
11.23559999999998
 20
0.4245869999999989
 10
11.23800000000028
 20
0.4222000000000001
 10
11.24290000000019
 20
0.4197600000000001
 10
11.2525999999998
 20
0.4197600000000001
 10
11.25749999999971
 20
0.4222000000000001
 10
11.25990000000002
 20
0.4245869999999989
 10
11.26239999999962
 20
0.4294709999999995
 10
11.26239999999962
 20
0.4416779999999996
 10
11.25990000000002
 20
0.4465600000000016
 10
11.25749999999971
 20
0.4490009999999991
 10
11.2525999999998
 20
0.4514969999999998
 10
11.24290000000019
 20
0.4514969999999998
 10
11.23800000000028
 20
0.4490009999999991
 10
11.23559999999998
 20
0.4465600000000016
 10
11.23310000000038
 20
0.4416779999999996
  0
LWPOLYLINE
  5
6D
100
AcDbEntity
  8
0
  6
ByLayer
 62
    0
370
   -1
100
AcDbPolyline
 90
    2
 70
    0
 43
0
 10
0.3937180000002627
 20
5.915579999999999
 10
0.4723850000000311
 20
5.915579999999999
  0
LWPOLYLINE
  5
6E
100
AcDbEntity
  8
0
  6
ByLayer
 62
    0
370
   -1
100
AcDbPolyline
 90
    2
 70
    0
 43
0
 10
0.3937180000002627
 20
3.947099999999999
 10
0.4723850000000311
 20
3.947099999999999
  0
LWPOLYLINE
  5
6F
100
AcDbEntity
  8
0
  6
ByLayer
 62
    0
370
   -1
100
AcDbPolyline
 90
    2
 70
    0
 43
0
 10
0.3937180000002627
 20
1.978570000000001
 10
0.4723850000000311
 20
1.978570000000001
  0
LWPOLYLINE
  5
70
100
AcDbEntity
  8
0
  6
ByLayer
 62
    0
370
   -1
100
AcDbPolyline
 90
    2
 70
    0
 43
0
 10
0.4207900000001246
 20
6.891390000000001
 10
0.4452039999996487
 20
6.891390000000001
  0
LWPOLYLINE
  5
71
100
AcDbEntity
  8
0
  6
ByLayer
 62
    0
370
   -1
100
AcDbPolyline
 90
    3
 70
    0
 43
0
 10
0.4160149999997884
 20
6.87668
 10
0.4329969999998866
 20
6.927900000000001
 10
0.4500870000001669
 20
6.87668
  0
LWPOLYLINE
  5
72
100
AcDbEntity
  8
0
  6
ByLayer
 62
    0
370
   -1
100
AcDbPolyline
 90
   19
 70
    0
 43
0
 10
0.4366860000000088
 20
4.934999999999999
 10
0.4440109999995911
 20
4.932569999999998
 10
0.4463969999997062
 20
4.93018
 10
0.4488929999997708
 20
4.92529
 10
0.4488929999997708
 20
4.91797
 10
0.4463969999997062
 20
4.913080000000001
 10
0.4440109999995911
 20
4.910689999999999
 10
0.4390739999998914
 20
4.90821
 10
0.4195959999997285
 20
4.90821
 10
0.4195959999997285
 20
4.95936
 10
0.4366860000000088
 20
4.95936
 10
0.4416240000000471
 20
4.956969999999998
 10
0.4440109999995911
 20
4.95449
 10
0.4463969999997062
 20
4.94971
 10
0.4463969999997062
 20
4.944759999999999
 10
0.4440109999995911
 20
4.939889999999998
 10
0.4416240000000471
 20
4.9375
 10
0.4366860000000088
 20
4.934999999999999
 10
0.4195959999997285
 20
4.934999999999999
  0
LWPOLYLINE
  5
73
100
AcDbEntity
  8
0
  6
ByLayer
 62
    0
370
   -1
100
AcDbPolyline
 90
   16
 70
    0
 43
0
 10
0.4488929999997708
 20
2.944610000000001
 10
0.4463969999997062
 20
2.942170000000001
 10
0.4390739999998914
 20
2.93967
 10
0.4341899999999441
 20
2.93967
 10
0.4269210000002204
 20
2.942170000000001
 10
0.4220919999997932
 20
2.946999999999999
 10
0.4195959999997285
 20
2.951879999999999
 10
0.4172099999996135
 20
2.961690000000001
 10
0.4172099999996135
 20
2.968969999999999
 10
0.4195959999997285
 20
2.978680000000001
 10
0.4220919999997932
 20
2.983560000000001
 10
0.4269210000002204
 20
2.988500000000002
 10
0.4341899999999441
 20
2.99089
 10
0.4390739999998914
 20
2.99089
 10
0.4463969999997062
 20
2.988500000000002
 10
0.4488929999997708
 20
2.986000000000001
  0
LWPOLYLINE
  5
74
100
AcDbEntity
  8
0
  6
ByLayer
 62
    0
370
   -1
100
AcDbPolyline
 90
   13
 70
    1
 43
0
 10
0.4195959999997285
 20
0.9711919999999985
 10
0.4195959999997285
 20
1.022410000000001
 10
0.4318030000004001
 20
1.022410000000001
 10
0.4390739999998914
 20
1.019970000000001
 10
0.4440109999995911
 20
1.015080000000001
 10
0.4463969999997062
 20
1.010200000000001
 10
0.4488929999997708
 20
1.000489999999999
 10
0.4488929999997708
 20
0.9931640000000002
 10
0.4463969999997062
 20
0.9833989999999986
 10
0.4440109999995911
 20
0.9784609999999994
 10
0.4390739999998914
 20
0.9736869999999982
 10
0.4318030000004001
 20
0.9711919999999985
 10
0.4195959999997285
 20
0.9711919999999985
  0
LWPOLYLINE
  5
75
100
AcDbEntity
  8
0
  6
ByLayer
 62
    0
370
   -1
100
AcDbPolyline
 90
    2
 70
    0
 43
0
 10
11.29920000000038
 20
5.915579999999999
 10
11.22050000000036
 20
5.915579999999999
  0
LWPOLYLINE
  5
76
100
AcDbEntity
  8
0
  6
ByLayer
 62
    0
370
   -1
100
AcDbPolyline
 90
    2
 70
    0
 43
0
 10
11.29920000000038
 20
3.947099999999999
 10
11.22050000000036
 20
3.947099999999999
  0
LWPOLYLINE
  5
77
100
AcDbEntity
  8
0
  6
ByLayer
 62
    0
370
   -1
100
AcDbPolyline
 90
    2
 70
    0
 43
0
 10
11.29920000000038
 20
1.978570000000001
 10
11.22050000000036
 20
1.978570000000001
  0
LWPOLYLINE
  5
78
100
AcDbEntity
  8
0
  6
ByLayer
 62
    0
370
   -1
100
AcDbPolyline
 90
    2
 70
    0
 43
0
 10
11.2476999999999
 20
6.891390000000001
 10
11.27210000000014
 20
6.891390000000001
  0
LWPOLYLINE
  5
79
100
AcDbEntity
  8
0
  6
ByLayer
 62
    0
370
   -1
100
AcDbPolyline
 90
    3
 70
    0
 43
0
 10
11.24279999999999
 20
6.87668
 10
11.25990000000002
 20
6.927900000000001
 10
11.27689999999984
 20
6.87668
  0
LWPOLYLINE
  5
7A
100
AcDbEntity
  8
0
  6
ByLayer
 62
    0
370
   -1
100
AcDbPolyline
 90
   19
 70
    0
 43
0
 10
11.26350000000002
 20
4.934999999999999
 10
11.27080000000024
 20
4.932569999999998
 10
11.27329999999984
 20
4.93018
 10
11.27570000000014
 20
4.92529
 10
11.27570000000014
 20
4.91797
 10
11.27329999999984
 20
4.913080000000001
 10
11.27080000000024
 20
4.910689999999999
 10
11.26599999999962
 20
4.90821
 10
11.2465000000002
 20
4.90821
 10
11.2465000000002
 20
4.95936
 10
11.26350000000002
 20
4.95936
 10
11.26839999999993
 20
4.956969999999998
 10
11.27080000000024
 20
4.95449
 10
11.27329999999984
 20
4.94971
 10
11.27329999999984
 20
4.944759999999999
 10
11.27080000000024
 20
4.939889999999998
 10
11.26839999999993
 20
4.9375
 10
11.26350000000002
 20
4.934999999999999
 10
11.2465000000002
 20
4.934999999999999
  0
LWPOLYLINE
  5
7B
100
AcDbEntity
  8
0
  6
ByLayer
 62
    0
370
   -1
100
AcDbPolyline
 90
   16
 70
    0
 43
0
 10
11.27570000000014
 20
2.944610000000001
 10
11.27329999999984
 20
2.942170000000001
 10
11.26599999999962
 20
2.93967
 10
11.26109999999971
 20
2.93967
 10
11.25380000000041
 20
2.942170000000001
 10
11.24889999999959
 20
2.946999999999999
 10
11.2465000000002
 20
2.951879999999999
 10
11.24399999999969
 20
2.961690000000001
 10
11.24399999999969
 20
2.968969999999999
 10
11.2465000000002
 20
2.978680000000001
 10
11.24889999999959
 20
2.983560000000001
 10
11.25380000000041
 20
2.988500000000002
 10
11.26109999999971
 20
2.99089
 10
11.26599999999962
 20
2.99089
 10
11.27329999999984
 20
2.988500000000002
 10
11.27570000000014
 20
2.986000000000001
  0
LWPOLYLINE
  5
7C
100
AcDbEntity
  8
0
  6
ByLayer
 62
    0
370
   -1
100
AcDbPolyline
 90
   13
 70
    1
 43
0
 10
11.2465000000002
 20
0.9711919999999985
 10
11.2465000000002
 20
1.022410000000001
 10
11.25870000000032
 20
1.022410000000001
 10
11.26599999999962
 20
1.019970000000001
 10
11.27080000000024
 20
1.015080000000001
 10
11.27329999999984
 20
1.010200000000001
 10
11.27570000000014
 20
1.000489999999999
 10
11.27570000000014
 20
0.9931640000000002
 10
11.27329999999984
 20
0.9833989999999986
 10
11.27080000000024
 20
0.9784609999999994
 10
11.26599999999962
 20
0.9736869999999982
 10
11.25870000000032
 20
0.9711919999999985
 10
11.2465000000002
 20
0.9711919999999985
  0
LWPOLYLINE
  5
7D
100
AcDbEntity
  8
0
  6
ByLayer
 62
    0
370
   -1
100
AcDbPolyline
 90
   13
 70
    1
 43
0
 10
7.891109999999571
 20
0.648492000000001
 10
7.891109999999571
 20
0.7074649999999991
 10
7.905109999999695
 20
0.7074649999999991
 10
7.913569999999709
 20
0.7046990000000015
 10
7.919219999999768
 20
0.699110000000001
 10
7.921989999999823
 20
0.6934679999999993
 10
7.924810000000434
 20
0.6821829999999984
 10
7.924810000000434
 20
0.6737740000000016
 10
7.921989999999823
 20
0.6624890000000008
 10
7.919219999999768
 20
0.6569010000000013
 10
7.913569999999709
 20
0.6512579999999986
 10
7.905109999999695
 20
0.648492000000001
 10
7.891109999999571
 20
0.648492000000001
  0
LWPOLYLINE
  5
7E
100
AcDbEntity
  8
0
  6
ByLayer
 62
    0
370
   -1
100
AcDbPolyline
 90
    6
 70
    0
 43
0
 10
7.975370000000112
 20
0.648492000000001
 10
7.975370000000112
 20
0.6793629999999986
 10
7.972600000000057
 20
0.6850039999999993
 10
7.9670100000003
 20
0.6878789999999988
 10
7.955680000000029
 20
0.6878789999999988
 10
7.950079999999616
 20
0.6850039999999993
  0
LWPOLYLINE
  5
7F
100
AcDbEntity
  8
0
  6
ByLayer
 62
    0
370
   -1
100
AcDbPolyline
 90
   10
 70
    0
 43
0
 10
7.975370000000112
 20
0.6512579999999986
 10
7.969780000000355
 20
0.648492000000001
 10
7.955680000000029
 20
0.648492000000001
 10
7.950079999999616
 20
0.6512579999999986
 10
7.947320000000218
 20
0.6569010000000013
 10
7.947320000000218
 20
0.6624890000000008
 10
7.950079999999616
 20
0.6681859999999986
 10
7.955680000000029
 20
0.6710069999999995
 10
7.969780000000355
 20
0.6710069999999995
 10
7.975370000000112
 20
0.6737740000000016
  0
LWPOLYLINE
  5
80
100
AcDbEntity
  8
0
  6
ByLayer
 62
    0
370
   -1
100
AcDbPolyline
 90
    2
 70
    0
 43
0
 10
7.995109999999841
 20
0.6878789999999988
 10
8.017579999999725
 20
0.6878789999999988
  0
LWPOLYLINE
  5
81
100
AcDbEntity
  8
0
  6
ByLayer
 62
    0
370
   -1
100
AcDbPolyline
 90
    5
 70
    0
 43
0
 10
8.003579999999602
 20
0.7074649999999991
 10
8.003579999999602
 20
0.6569010000000013
 10
8.006400000000212
 20
0.6512579999999986
 10
8.011989999999969
 20
0.648492000000001
 10
8.017579999999725
 20
0.648492000000001
  0
LWPOLYLINE
  5
82
100
AcDbEntity
  8
0
  6
ByLayer
 62
    0
370
   -1
100
AcDbPolyline
 90
   13
 70
    0
 43
0
 10
8.059790000000248
 20
0.6512579999999986
 10
8.054189999999835
 20
0.648492000000001
 10
8.042919999999867
 20
0.648492000000001
 10
8.037279999999555
 20
0.6512579999999986
 10
8.034499999999753
 20
0.6569010000000013
 10
8.034499999999753
 20
0.6793629999999986
 10
8.037279999999555
 20
0.6850039999999993
 10
8.042919999999867
 20
0.6878789999999988
 10
8.054189999999835
 20
0.6878789999999988
 10
8.059790000000248
 20
0.6850039999999993
 10
8.06260999999995
 20
0.6793629999999986
 10
8.06260999999995
 20
0.6737740000000016
 10
8.034499999999753
 20
0.6681859999999986
  0
LWPOLYLINE
  5
83
100
AcDbEntity
  8
0
  6
ByLayer
 62
    0
370
   -1
100
AcDbPolyline
 90
    6
 70
    0
 43
0
 10
8.087889999999788
 20
0.6540810000000015
 10
8.090710000000399
 20
0.6512579999999986
 10
8.087889999999788
 20
0.648492000000001
 10
8.085070000000087
 20
0.6512579999999986
 10
8.087889999999788
 20
0.6540810000000015
 10
8.087889999999788
 20
0.648492000000001
  0
LWPOLYLINE
  5
84
100
AcDbEntity
  8
0
  6
ByLayer
 62
    0
370
   -1
100
AcDbPolyline
 90
    6
 70
    0
 43
0
 10
8.087889999999788
 20
0.6850039999999993
 10
8.090710000000399
 20
0.6821829999999984
 10
8.087889999999788
 20
0.6793629999999986
 10
8.085070000000087
 20
0.6821829999999984
 10
8.087889999999788
 20
0.6850039999999993
 10
8.087889999999788
 20
0.6793629999999986
  0
LWPOLYLINE
  5
85
100
AcDbEntity
  8
0
  6
ByLayer
 62
    0
370
   -1
100
AcDbPolyline
 90
    2
 70
    0
 43
0
 10
6.968469999999797
 20
0.6200630000000018
 10
11.22050000000036
 20
0.6200630000000018
  0
LWPOLYLINE
  5
86
100
AcDbEntity
  8
0
  6
ByLayer
 62
    0
370
   -1
100
AcDbPolyline
 90
    2
 70
    0
 43
0
 10
7.024900000000343
 20
0.5383029999999991
 10
7.024900000000343
 20
0.5972760000000008
  0
LWPOLYLINE
  5
87
100
AcDbEntity
  8
0
  6
ByLayer
 62
    0
370
   -1
100
AcDbPolyline
 90
    2
 70
    0
 43
0
 10
7.058710000000247
 20
0.5383029999999991
 10
7.033419999999751
 20
0.5719940000000001
  0
LWPOLYLINE
  5
88
100
AcDbEntity
  8
0
  6
ByLayer
 62
    0
370
   -1
100
AcDbPolyline
 90
    2
 70
    0
 43
0
 10
7.058710000000247
 20
0.5972760000000008
 10
7.024900000000343
 20
0.5635849999999998
  0
LWPOLYLINE
  5
89
100
AcDbEntity
  8
0
  6
ByLayer
 62
    0
370
   -1
100
AcDbPolyline
 90
    2
 70
    0
 43
0
 10
7.083990000000085
 20
0.5383029999999991
 10
7.083990000000085
 20
0.5775819999999996
  0
LWPOLYLINE
  5
8A
100
AcDbEntity
  8
0
  6
ByLayer
 62
    0
370
   -1
100
AcDbPolyline
 90
    6
 70
    0
 43
0
 10
7.083990000000085
 20
0.5972760000000008
 10
7.08122000000003
 20
0.5945099999999996
 10
7.083990000000085
 20
0.5916889999999988
 10
7.086809999999787
 20
0.5945099999999996
 10
7.083990000000085
 20
0.5972760000000008
 10
7.083990000000085
 20
0.5916889999999988
  0
LWPOLYLINE
  5
8B
100
AcDbEntity
  8
0
  6
ByLayer
 62
    0
370
   -1
100
AcDbPolyline
 90
   16
 70
    0
 43
0
 10
7.145779999999831
 20
0.5438919999999996
 10
7.143009999999776
 20
0.5410690000000002
 10
7.134600000000319
 20
0.5383029999999991
 10
7.129009999999653
 20
0.5383029999999991
 10
7.120499999999993
 20
0.5410690000000002
 10
7.114899999999579
 20
0.5466580000000008
 10
7.112079999999878
 20
0.5522999999999989
 10
7.10931999999957
 20
0.5635849999999998
 10
7.10931999999957
 20
0.5719940000000001
 10
7.112079999999878
 20
0.5831710000000001
 10
7.114899999999579
 20
0.5888670000000005
 10
7.120499999999993
 20
0.5945099999999996
 10
7.129009999999653
 20
0.5972760000000008
 10
7.134600000000319
 20
0.5972760000000008
 10
7.143009999999776
 20
0.5945099999999996
 10
7.145779999999831
 20
0.5916889999999988
  0
LWPOLYLINE
  5
8C
100
AcDbEntity
  8
0
  6
ByLayer
 62
    0
370
   -1
100
AcDbPolyline
 90
    6
 70
    0
 43
0
 10
7.196500000000015
 20
0.5383029999999991
 10
7.196500000000015
 20
0.5691740000000003
 10
7.193680000000313
 20
0.5747609999999987
 10
7.187990000000354
 20
0.5775819999999996
 10
7.176809999999932
 20
0.5775819999999996
 10
7.17116999999962
 20
0.5747609999999987
  0
LWPOLYLINE
  5
8D
100
AcDbEntity
  8
0
  6
ByLayer
 62
    0
370
   -1
100
AcDbPolyline
 90
   10
 70
    0
 43
0
 10
7.196500000000015
 20
0.5410690000000002
 10
7.190810000000056
 20
0.5383029999999991
 10
7.176809999999932
 20
0.5383029999999991
 10
7.17116999999962
 20
0.5410690000000002
 10
7.168289999999615
 20
0.5466580000000008
 10
7.168289999999615
 20
0.5522999999999989
 10
7.17116999999962
 20
0.5578889999999994
 10
7.176809999999932
 20
0.5607100000000003
 10
7.190810000000056
 20
0.5607100000000003
 10
7.196500000000015
 20
0.5635849999999998
  0
LWPOLYLINE
  5
8E
100
AcDbEntity
  8
0
  6
ByLayer
 62
    0
370
   -1
100
AcDbPolyline
 90
    2
 70
    0
 43
0
 10
7.24989000000005
 20
0.5383029999999991
 10
7.24989000000005
 20
0.5972760000000008
  0
LWPOLYLINE
  5
8F
100
AcDbEntity
  8
0
  6
ByLayer
 62
    0
370
   -1
100
AcDbPolyline
 90
   12
 70
    0
 43
0
 10
7.24989000000005
 20
0.5410690000000002
 10
7.244310000000041
 20
0.5383029999999991
 10
7.233009999999922
 20
0.5383029999999991
 10
7.22736999999961
 20
0.5410690000000002
 10
7.224610000000212
 20
0.5438919999999996
 10
7.221789999999601
 20
0.5494790000000016
 10
7.221789999999601
 20
0.5664070000000017
 10
7.224610000000212
 20
0.5719940000000001
 10
7.22736999999961
 20
0.5747609999999987
 10
7.233009999999922
 20
0.5775819999999996
 10
7.244310000000041
 20
0.5775819999999996
 10
7.24989000000005
 20
0.5747609999999987
  0
LWPOLYLINE
  5
90
100
AcDbEntity
  8
0
  6
ByLayer
 62
    0
370
   -1
100
AcDbPolyline
 90
    2
 70
    0
 43
0
 10
7.322970000000169
 20
0.5691740000000003
 10
7.342719999999645
 20
0.5691740000000003
  0
LWPOLYLINE
  5
91
100
AcDbEntity
  8
0
  6
ByLayer
 62
    0
370
   -1
100
AcDbPolyline
 90
    4
 70
    0
 43
0
 10
7.351069999999709
 20
0.5383029999999991
 10
7.322970000000169
 20
0.5383029999999991
 10
7.322970000000169
 20
0.5972760000000008
 10
7.351069999999709
 20
0.5972760000000008
  0
LWPOLYLINE
  5
92
100
AcDbEntity
  8
0
  6
ByLayer
 62
    0
370
   -1
100
AcDbPolyline
 90
    6
 70
    0
 43
0
 10
7.376419999999598
 20
0.5438919999999996
 10
7.379289999999855
 20
0.5410690000000002
 10
7.376419999999598
 20
0.5383029999999991
 10
7.373580000000402
 20
0.5410690000000002
 10
7.376419999999598
 20
0.5438919999999996
 10
7.376419999999598
 20
0.5383029999999991
  0
LWPOLYLINE
  5
93
100
AcDbEntity
  8
0
  6
ByLayer
 62
    0
370
   -1
100
AcDbPolyline
 90
   13
 70
    1
 43
0
 10
7.404569999999694
 20
0.5383029999999991
 10
7.404569999999694
 20
0.5972760000000008
 10
7.418620000000374
 20
0.5972760000000008
 10
7.427080000000387
 20
0.5945099999999996
 10
7.432670000000144
 20
0.5888670000000005
 10
7.435489999999845
 20
0.5831710000000001
 10
7.438320000000203
 20
0.5719940000000001
 10
7.438320000000203
 20
0.5635849999999998
 10
7.435489999999845
 20
0.5522999999999989
 10
7.432670000000144
 20
0.5466580000000008
 10
7.427080000000387
 20
0.5410690000000002
 10
7.418620000000374
 20
0.5383029999999991
 10
7.404569999999694
 20
0.5383029999999991
  0
LWPOLYLINE
  5
94
100
AcDbEntity
  8
0
  6
ByLayer
 62
    0
370
   -1
100
AcDbPolyline
 90
    6
 70
    0
 43
0
 10
7.463600000000042
 20
0.5438919999999996
 10
7.466419999999744
 20
0.5410690000000002
 10
7.463600000000042
 20
0.5383029999999991
 10
7.460780000000341
 20
0.5410690000000002
 10
7.463600000000042
 20
0.5438919999999996
 10
7.463600000000042
 20
0.5383029999999991
  0
LWPOLYLINE
  5
95
100
AcDbEntity
  8
0
  6
ByLayer
 62
    0
370
   -1
100
AcDbPolyline
 90
    2
 70
    0
 43
0
 10
7.488870000000134
 20
0.5550670000000011
 10
7.517079999999623
 20
0.5550670000000011
  0
LWPOLYLINE
  5
96
100
AcDbEntity
  8
0
  6
ByLayer
 62
    0
370
   -1
100
AcDbPolyline
 90
    3
 70
    0
 43
0
 10
7.483290000000125
 20
0.5383029999999991
 10
7.502989999999954
 20
0.5972760000000008
 10
7.522680000000037
 20
0.5383029999999991
  0
LWPOLYLINE
  5
97
100
AcDbEntity
  8
0
  6
ByLayer
 62
    0
370
   -1
100
AcDbPolyline
 90
    6
 70
    0
 43
0
 10
7.542379999999866
 20
0.5438919999999996
 10
7.54518999999982
 20
0.5410690000000002
 10
7.542379999999866
 20
0.5383029999999991
 10
7.539499999999862
 20
0.5410690000000002
 10
7.542379999999866
 20
0.5438919999999996
 10
7.542379999999866
 20
0.5383029999999991
  0
LWPOLYLINE
  5
98
100
AcDbEntity
  8
0
  6
ByLayer
 62
    0
370
   -1
100
AcDbPolyline
 90
    2
 70
    0
 43
0
 10
7.660490000000209
 20
0.5383029999999991
 10
7.660490000000209
 20
0.5972760000000008
  0
LWPOLYLINE
  5
99
100
AcDbEntity
  8
0
  6
ByLayer
 62
    0
370
   -1
100
AcDbPolyline
 90
    2
 70
    0
 43
0
 10
7.666070000000218
 20
0.5607100000000003
 10
7.682999999999993
 20
0.5383029999999991
  0
LWPOLYLINE
  5
9A
100
AcDbEntity
  8
0
  6
ByLayer
 62
    0
370
   -1
100
AcDbPolyline
 90
    2
 70
    0
 43
0
 10
7.682999999999993
 20
0.5775819999999996
 10
7.660490000000209
 20
0.5550670000000011
  0
LWPOLYLINE
  5
9B
100
AcDbEntity
  8
0
  6
ByLayer
 62
    0
370
   -1
100
AcDbPolyline
 90
    2
 70
    0
 43
0
 10
7.708279999999831
 20
0.5383029999999991
 10
7.708279999999831
 20
0.5775819999999996
  0
LWPOLYLINE
  5
9C
100
AcDbEntity
  8
0
  6
ByLayer
 62
    0
370
   -1
100
AcDbPolyline
 90
    6
 70
    0
 43
0
 10
7.708279999999831
 20
0.5972760000000008
 10
7.705509999999776
 20
0.5945099999999996
 10
7.708279999999831
 20
0.5916889999999988
 10
7.711100000000442
 20
0.5945099999999996
 10
7.708279999999831
 20
0.5972760000000008
 10
7.708279999999831
 20
0.5916889999999988
  0
LWPOLYLINE
  5
9D
100
AcDbEntity
  8
0
  6
ByLayer
 62
    0
370
   -1
100
AcDbPolyline
 90
   12
 70
    0
 43
0
 10
7.761720000000423
 20
0.5410690000000002
 10
7.756080000000111
 20
0.5383029999999991
 10
7.744789999999739
 20
0.5383029999999991
 10
7.73920999999973
 20
0.5410690000000002
 10
7.736390000000029
 20
0.5438919999999996
 10
7.733610000000226
 20
0.5494790000000016
 10
7.733610000000226
 20
0.5664070000000017
 10
7.736390000000029
 20
0.5719940000000001
 10
7.73920999999973
 20
0.5747609999999987
 10
7.744789999999739
 20
0.5775819999999996
 10
7.756080000000111
 20
0.5775819999999996
 10
7.761720000000423
 20
0.5747609999999987
  0
LWPOLYLINE
  5
9E
100
AcDbEntity
  8
0
  6
ByLayer
 62
    0
370
   -1
100
AcDbPolyline
 90
    6
 70
    0
 43
0
 10
7.812280000000101
 20
0.5383029999999991
 10
7.812280000000101
 20
0.5691740000000003
 10
7.809510000000046
 20
0.5747609999999987
 10
7.80388000000039
 20
0.5775819999999996
 10
7.792580000000271
 20
0.5775819999999996
 10
7.787000000000262
 20
0.5747609999999987
  0
LWPOLYLINE
  5
9F
100
AcDbEntity
  8
0
  6
ByLayer
 62
    0
370
   -1
100
AcDbPolyline
 90
   10
 70
    0
 43
0
 10
7.812280000000101
 20
0.5410690000000002
 10
7.806690000000344
 20
0.5383029999999991
 10
7.792580000000271
 20
0.5383029999999991
 10
7.787000000000262
 20
0.5410690000000002
 10
7.784179999999651
 20
0.5466580000000008
 10
7.784179999999651
 20
0.5522999999999989
 10
7.787000000000262
 20
0.5578889999999994
 10
7.792580000000271
 20
0.5607100000000003
 10
7.806690000000344
 20
0.5607100000000003
 10
7.812280000000101
 20
0.5635849999999998
  0
LWPOLYLINE
  5
A0
100
AcDbEntity
  8
0
  6
ByLayer
 62
    0
370
   -1
100
AcDbPolyline
 90
    2
 70
    0
 43
0
 10
7.865780000000086
 20
0.5383029999999991
 10
7.865780000000086
 20
0.5972760000000008
  0
LWPOLYLINE
  5
A1
100
AcDbEntity
  8
0
  6
ByLayer
 62
    0
370
   -1
100
AcDbPolyline
 90
   12
 70
    0
 43
0
 10
7.865780000000086
 20
0.5410690000000002
 10
7.86008000000038
 20
0.5383029999999991
 10
7.848899999999958
 20
0.5383029999999991
 10
7.843319999999949
 20
0.5410690000000002
 10
7.840390000000298
 20
0.5438919999999996
 10
7.83762999999999
 20
0.5494790000000016
 10
7.83762999999999
 20
0.5664070000000017
 10
7.840390000000298
 20
0.5719940000000001
 10
7.843319999999949
 20
0.5747609999999987
 10
7.848899999999958
 20
0.5775819999999996
 10
7.86008000000038
 20
0.5775819999999996
 10
7.865780000000086
 20
0.5747609999999987
  0
LWPOLYLINE
  5
A2
100
AcDbEntity
  8
0
  6
ByLayer
 62
    0
370
   -1
100
AcDbPolyline
 90
   16
 70
    0
 43
0
 10
7.9670100000003
 20
0.5972760000000008
 10
7.938919999999598
 20
0.5972760000000008
 10
7.936080000000402
 20
0.5691740000000003
 10
7.938919999999598
 20
0.5719940000000001
 10
7.944499999999607
 20
0.5747609999999987
 10
7.95860999999968
 20
0.5747609999999987
 10
7.964189999999689
 20
0.5719940000000001
 10
7.9670100000003
 20
0.5691740000000003
 10
7.969780000000355
 20
0.5635849999999998
 10
7.969780000000355
 20
0.5494790000000016
 10
7.9670100000003
 20
0.5438919999999996
 10
7.964189999999689
 20
0.5410690000000002
 10
7.95860999999968
 20
0.5383029999999991
 10
7.944499999999607
 20
0.5383029999999991
 10
7.938919999999598
 20
0.5410690000000002
 10
7.936080000000402
 20
0.5438919999999996
  0
LWPOLYLINE
  5
A3
100
AcDbEntity
  8
0
  6
ByLayer
 62
    0
370
   -1
100
AcDbPolyline
 90
    6
 70
    0
 43
0
 10
7.995109999999841
 20
0.5438919999999996
 10
7.997889999999643
 20
0.5410690000000002
 10
7.995109999999841
 20
0.5383029999999991
 10
7.992290000000139
 20
0.5410690000000002
 10
7.995109999999841
 20
0.5438919999999996
 10
7.995109999999841
 20
0.5383029999999991
  0
LWPOLYLINE
  5
A4
100
AcDbEntity
  8
0
  6
ByLayer
 62
    0
370
   -1
100
AcDbPolyline
 90
    2
 70
    0
 43
0
 10
8.054189999999835
 20
0.5383029999999991
 10
8.020400000000336
 20
0.5383029999999991
  0
LWPOLYLINE
  5
A5
100
AcDbEntity
  8
0
  6
ByLayer
 62
    0
370
   -1
100
AcDbPolyline
 90
    5
 70
    0
 43
0
 10
8.037279999999555
 20
0.5383029999999991
 10
8.037279999999555
 20
0.5972760000000008
 10
8.031680000000051
 20
0.5888670000000005
 10
8.025990000000093
 20
0.5831710000000001
 10
8.020400000000336
 20
0.5804040000000015
  0
LWPOLYLINE
  5
A6
100
AcDbEntity
  8
0
  6
ByLayer
 62
    0
370
   -1
100
AcDbPolyline
 90
    6
 70
    0
 43
0
 10
8.079490000000078
 20
0.5438919999999996
 10
8.082309999999779
 20
0.5410690000000002
 10
8.079490000000078
 20
0.5383029999999991
 10
8.076710000000276
 20
0.5410690000000002
 10
8.079490000000078
 20
0.5438919999999996
 10
8.079490000000078
 20
0.5383029999999991
  0
LWPOLYLINE
  5
A7
100
AcDbEntity
  8
0
  6
ByLayer
 62
    0
370
   -1
100
AcDbPolyline
 90
   16
 70
    0
 43
0
 10
8.135690000000068
 20
0.5972760000000008
 10
8.107579999999871
 20
0.5972760000000008
 10
8.104819999999563
 20
0.5691740000000003
 10
8.107579999999871
 20
0.5719940000000001
 10
8.113169999999627
 20
0.5747609999999987
 10
8.127279999999701
 20
0.5747609999999987
 10
8.13285999999971
 20
0.5719940000000001
 10
8.135690000000068
 20
0.5691740000000003
 10
8.138509999999769
 20
0.5635849999999998
 10
8.138509999999769
 20
0.5494790000000016
 10
8.135690000000068
 20
0.5438919999999996
 10
8.13285999999971
 20
0.5410690000000002
 10
8.127279999999701
 20
0.5383029999999991
 10
8.113169999999627
 20
0.5383029999999991
 10
8.107579999999871
 20
0.5410690000000002
 10
8.104819999999563
 20
0.5438919999999996
  0
LWPOLYLINE
  5
A8
100
AcDbEntity
  8
0
  6
ByLayer
 62
    0
370
   -1
100
AcDbPolyline
 90
    2
 70
    0
 43
0
 10
8.163789999999608
 20
0.5607100000000003
 10
8.208760000000439
 20
0.5607100000000003
  0
LWPOLYLINE
  5
A9
100
AcDbEntity
  8
0
  6
ByLayer
 62
    0
370
   -1
100
AcDbPolyline
 90
    2
 70
    0
 43
0
 10
8.186310000000049
 20
0.5383029999999991
 10
8.186310000000049
 20
0.5831710000000001
  0
LWPOLYLINE
  5
AA
100
AcDbEntity
  8
0
  6
ByLayer
 62
    0
370
   -1
100
AcDbPolyline
 90
    2
 70
    0
 43
0
 10
8.262319999999818
 20
0.5383029999999991
 10
8.262319999999818
 20
0.5972760000000008
  0
LWPOLYLINE
  5
AB
100
AcDbEntity
  8
0
  6
ByLayer
 62
    0
370
   -1
100
AcDbPolyline
 90
   12
 70
    0
 43
0
 10
8.262319999999818
 20
0.5410690000000002
 10
8.256620000000112
 20
0.5383029999999991
 10
8.245390000000043
 20
0.5383029999999991
 10
8.239810000000034
 20
0.5410690000000002
 10
8.236990000000333
 20
0.5438919999999996
 10
8.234099999999671
 20
0.5494790000000016
 10
8.234099999999671
 20
0.5664070000000017
 10
8.236990000000333
 20
0.5719940000000001
 10
8.239810000000034
 20
0.5747609999999987
 10
8.245390000000043
 20
0.5775819999999996
 10
8.256620000000112
 20
0.5775819999999996
 10
8.262319999999818
 20
0.5747609999999987
  0
LWPOLYLINE
  5
AC
100
AcDbEntity
  8
0
  6
ByLayer
 62
    0
370
   -1
100
AcDbPolyline
 90
    2
 70
    0
 43
0
 10
8.2820099999999
 20
0.5775819999999996
 10
8.304470000000038
 20
0.5775819999999996
  0
LWPOLYLINE
  5
AD
100
AcDbEntity
  8
0
  6
ByLayer
 62
    0
370
   -1
100
AcDbPolyline
 90
    5
 70
    0
 43
0
 10
8.290420000000267
 20
0.5383029999999991
 10
8.290420000000267
 20
0.5888670000000005
 10
8.293179999999666
 20
0.5945099999999996
 10
8.298780000000079
 20
0.5972760000000008
 10
8.304470000000038
 20
0.5972760000000008
  0
LWPOLYLINE
  5
AE
100
AcDbEntity
  8
0
  6
ByLayer
 62
    0
370
   -1
100
AcDbPolyline
 90
   16
 70
    0
 43
0
 10
8.321289999999863
 20
0.5410690000000002
 10
8.326869999999872
 20
0.5383029999999991
 10
8.338219999999637
 20
0.5383029999999991
 10
8.343810000000303
 20
0.5410690000000002
 10
8.346569999999701
 20
0.5466580000000008
 10
8.346569999999701
 20
0.5494790000000016
 10
8.343810000000303
 20
0.5550670000000011
 10
8.338219999999637
 20
0.5578889999999994
 10
8.32981000000018
 20
0.5578889999999994
 10
8.324109999999564
 20
0.5607100000000003
 10
8.321289999999863
 20
0.5664070000000017
 10
8.321289999999863
 20
0.5691740000000003
 10
8.324109999999564
 20
0.5747609999999987
 10
8.32981000000018
 20
0.5775819999999996
 10
8.338219999999637
 20
0.5775819999999996
 10
8.343810000000303
 20
0.5747609999999987
  0
LWPOLYLINE
  5
AF
100
AcDbEntity
  8
0
  6
ByLayer
 62
    0
370
   -1
100
AcDbPolyline
 90
    7
 70
    0
 43
0
 10
8.397289999999884
 20
0.5775819999999996
 10
8.397289999999884
 20
0.5297850000000004
 10
8.394379999999728
 20
0.5241970000000009
 10
8.391599999999926
 20
0.5213760000000001
 10
8.386010000000169
 20
0.5186080000000004
 10
8.377609999999549
 20
0.5186080000000004
 10
8.371900000000096
 20
0.5213760000000001
  0
LWPOLYLINE
  5
B0
100
AcDbEntity
  8
0
  6
ByLayer
 62
    0
370
   -1
100
AcDbPolyline
 90
   12
 70
    0
 43
0
 10
8.397289999999884
 20
0.5410690000000002
 10
8.391599999999926
 20
0.5383029999999991
 10
8.380379999999604
 20
0.5383029999999991
 10
8.374780000000101
 20
0.5410690000000002
 10
8.371900000000096
 20
0.5438919999999996
 10
8.369080000000395
 20
0.5494790000000016
 10
8.369080000000395
 20
0.5664070000000017
 10
8.371900000000096
 20
0.5719940000000001
 10
8.374780000000101
 20
0.5747609999999987
 10
8.380379999999604
 20
0.5775819999999996
 10
8.391599999999926
 20
0.5775819999999996
 10
8.397289999999884
 20
0.5747609999999987
  0
LWPOLYLINE
  5
B1
100
AcDbEntity
  8
0
  6
ByLayer
 62
    0
370
   -1
100
AcDbPolyline
 90
    2
 70
    0
 43
0
 10
8.456280000000334
 20
0.5383029999999991
 10
8.42258000000038
 20
0.5383029999999991
  0
LWPOLYLINE
  5
B2
100
AcDbEntity
  8
0
  6
ByLayer
 62
    0
370
   -1
100
AcDbPolyline
 90
    5
 70
    0
 43
0
 10
8.439400000000205
 20
0.5383029999999991
 10
8.439400000000205
 20
0.5972760000000008
 10
8.433810000000449
 20
0.5888670000000005
 10
8.428170000000136
 20
0.5831710000000001
 10
8.42258000000038
 20
0.5804040000000015
  0
LWPOLYLINE
  5
B3
100
AcDbEntity
  8
0
  6
ByLayer
 62
    0
370
   -1
100
AcDbPolyline
 90
    2
 70
    0
 43
0
 10
8.481609999999819
 20
0.5607100000000003
 10
8.52657999999974
 20
0.5607100000000003
  0
LWPOLYLINE
  5
B4
100
AcDbEntity
  8
0
  6
ByLayer
 62
    0
370
   -1
100
AcDbPolyline
 90
   11
 70
    0
 43
0
 10
8.551859999999579
 20
0.5916889999999988
 10
8.554689999999937
 20
0.5945099999999996
 10
8.560389999999643
 20
0.5972760000000008
 10
8.574370000000272
 20
0.5972760000000008
 10
8.579969999999776
 20
0.5945099999999996
 10
8.582900000000336
 20
0.5916889999999988
 10
8.585670000000391
 20
0.5860999999999983
 10
8.585670000000391
 20
0.5804040000000015
 10
8.582900000000336
 20
0.5719940000000001
 10
8.54910000000018
 20
0.5383029999999991
 10
8.585670000000391
 20
0.5383029999999991
  0
LWPOLYLINE
  5
B5
100
AcDbEntity
  8
0
  6
ByLayer
 62
    0
370
   -1
100
AcDbPolyline
 90
    2
 70
    0
 43
0
 10
8.610999999999876
 20
0.5383029999999991
 10
8.610999999999876
 20
0.5972760000000008
  0
LWPOLYLINE
  5
B6
100
AcDbEntity
  8
0
  6
ByLayer
 62
    0
370
   -1
100
AcDbPolyline
 90
   12
 70
    0
 43
0
 10
8.610999999999876
 20
0.5747609999999987
 10
8.61660000000029
 20
0.5775819999999996
 10
8.627760000000308
 20
0.5775819999999996
 10
8.63350999999966
 20
0.5747609999999987
 10
8.636290000000372
 20
0.5719940000000001
 10
8.639110000000073
 20
0.5664070000000017
 10
8.639110000000073
 20
0.5494790000000016
 10
8.636290000000372
 20
0.5438919999999996
 10
8.63350999999966
 20
0.5410690000000002
 10
8.627760000000308
 20
0.5383029999999991
 10
8.61660000000029
 20
0.5383029999999991
 10
8.610999999999876
 20
0.5410690000000002
  0
LWPOLYLINE
  5
B7
100
AcDbEntity
  8
0
  6
ByLayer
 62
    0
370
   -1
100
AcDbPolyline
 90
    2
 70
    0
 43
0
 10
8.689669999999751
 20
0.5775819999999996
 10
8.689669999999751
 20
0.5383029999999991
  0
LWPOLYLINE
  5
B8
100
AcDbEntity
  8
0
  6
ByLayer
 62
    0
370
   -1
100
AcDbPolyline
 90
    7
 70
    0
 43
0
 10
8.664389999999912
 20
0.5775819999999996
 10
8.664389999999912
 20
0.5466580000000008
 10
8.667209999999614
 20
0.5410690000000002
 10
8.672789999999623
 20
0.5383029999999991
 10
8.681319999999687
 20
0.5383029999999991
 10
8.686899999999696
 20
0.5410690000000002
 10
8.689669999999751
 20
0.5438919999999996
  0
LWPOLYLINE
  5
B9
100
AcDbEntity
  8
0
  6
ByLayer
 62
    0
370
   -1
100
AcDbPolyline
 90
    2
 70
    0
 43
0
 10
8.717779999999948
 20
0.5383029999999991
 10
8.717779999999948
 20
0.5775819999999996
  0
LWPOLYLINE
  5
BA
100
AcDbEntity
  8
0
  6
ByLayer
 62
    0
370
   -1
100
AcDbPolyline
 90
    6
 70
    0
 43
0
 10
8.717779999999948
 20
0.5972760000000008
 10
8.715000000000146
 20
0.5945099999999996
 10
8.717779999999948
 20
0.5916889999999988
 10
8.720599999999649
 20
0.5945099999999996
 10
8.717779999999948
 20
0.5972760000000008
 10
8.717779999999948
 20
0.5916889999999988
  0
LWPOLYLINE
  5
BB
100
AcDbEntity
  8
0
  6
ByLayer
 62
    0
370
   -1
100
AcDbPolyline
 90
    4
 70
    0
 43
0
 10
8.754390000000058
 20
0.5383029999999991
 10
8.748810000000049
 20
0.5410690000000002
 10
8.745990000000347
 20
0.5466580000000008
 10
8.745990000000347
 20
0.5972760000000008
  0
LWPOLYLINE
  5
BC
100
AcDbEntity
  8
0
  6
ByLayer
 62
    0
370
   -1
100
AcDbPolyline
 90
    2
 70
    0
 43
0
 10
8.802190000000337
 20
0.5383029999999991
 10
8.802190000000337
 20
0.5972760000000008
  0
LWPOLYLINE
  5
BD
100
AcDbEntity
  8
0
  6
ByLayer
 62
    0
370
   -1
100
AcDbPolyline
 90
   12
 70
    0
 43
0
 10
8.802190000000337
 20
0.5410690000000002
 10
8.796599999999671
 20
0.5383029999999991
 10
8.785319999999956
 20
0.5383029999999991
 10
8.779679999999644
 20
0.5410690000000002
 10
8.776920000000246
 20
0.5438919999999996
 10
8.77408000000014
 20
0.5494790000000016
 10
8.77408000000014
 20
0.5664070000000017
 10
8.776920000000246
 20
0.5719940000000001
 10
8.779679999999644
 20
0.5747609999999987
 10
8.785319999999956
 20
0.5775819999999996
 10
8.796599999999671
 20
0.5775819999999996
 10
8.802190000000337
 20
0.5747609999999987
  0
LWPOLYLINE
  5
BE
100
AcDbEntity
  8
0
  6
ByLayer
 62
    0
370
   -1
100
AcDbPolyline
 90
   11
 70
    0
 43
0
 10
8.827470000000176
 20
0.5916889999999988
 10
8.830289999999877
 20
0.5945099999999996
 10
8.83589000000029
 20
0.5972760000000008
 10
8.849989999999707
 20
0.5972760000000008
 10
8.855580000000373
 20
0.5945099999999996
 10
8.858400000000074
 20
0.5916889999999988
 10
8.861280000000079
 20
0.5860999999999983
 10
8.861280000000079
 20
0.5804040000000015
 10
8.858400000000074
 20
0.5719940000000001
 10
8.824709999999868
 20
0.5383029999999991
 10
8.861280000000079
 20
0.5383029999999991
  0
LWPOLYLINE
  5
BF
100
AcDbEntity
  8
0
  6
ByLayer
 62
    0
370
   -1
100
AcDbPolyline
 90
    2
 70
    0
 43
0
 10
6.968469999999797
 20
0.7381719999999987
 10
11.22050000000036
 20
0.7381719999999987
  0
LWPOLYLINE
  5
C0
100
AcDbEntity
  8
0
  6
ByLayer
 62
    0
370
   -1
100
AcDbPolyline
 90
    2
 70
    0
 43
0
 10
10.40989999999965
 20
0.648492000000001
 10
10.39019999999982
 20
0.6765940000000015
  0
LWPOLYLINE
  5
C1
100
AcDbEntity
  8
0
  6
ByLayer
 62
    0
370
   -1
100
AcDbPolyline
 90
   11
 70
    0
 43
0
 10
10.37610000000041
 20
0.648492000000001
 10
10.37610000000041
 20
0.7074649999999991
 10
10.39860000000044
 20
0.7074649999999991
 10
10.40419999999995
 20
0.7046990000000015
 10
10.40700000000015
 20
0.7018780000000007
 10
10.40989999999965
 20
0.6962890000000002
 10
10.40989999999965
 20
0.6878789999999988
 10
10.40700000000015
 20
0.6821829999999984
 10
10.40419999999995
 20
0.6793629999999986
 10
10.39860000000044
 20
0.6765940000000015
 10
10.37610000000041
 20
0.6765940000000015
  0
LWPOLYLINE
  5
C2
100
AcDbEntity
  8
0
  6
ByLayer
 62
    0
370
   -1
100
AcDbPolyline
 90
   13
 70
    0
 43
0
 10
10.45769999999993
 20
0.6512579999999986
 10
10.45200000000023
 20
0.648492000000001
 10
10.44080000000031
 20
0.648492000000001
 10
10.4351999999999
 20
0.6512579999999986
 10
10.4323000000004
 20
0.6569010000000013
 10
10.4323000000004
 20
0.6793629999999986
 10
10.4351999999999
 20
0.6850039999999993
 10
10.44080000000031
 20
0.6878789999999988
 10
10.45200000000023
 20
0.6878789999999988
 10
10.45769999999993
 20
0.6850039999999993
 10
10.46050000000014
 20
0.6793629999999986
 10
10.46050000000014
 20
0.6737740000000016
 10
10.4323000000004
 20
0.6681859999999986
  0
LWPOLYLINE
  5
C3
100
AcDbEntity
  8
0
  6
ByLayer
 62
    0
370
   -1
100
AcDbPolyline
 90
    3
 70
    0
 43
0
 10
10.48019999999997
 20
0.6878789999999988
 10
10.49420000000009
 20
0.648492000000001
 10
10.50830000000042
 20
0.6878789999999988
  0
LWPOLYLINE
  5
C4
100
AcDbEntity
  8
0
  6
ByLayer
 62
    0
370
   -1
100
AcDbPolyline
 90
    6
 70
    0
 43
0
 10
10.53079999999954
 20
0.6540810000000015
 10
10.53359999999975
 20
0.6512579999999986
 10
10.53079999999954
 20
0.648492000000001
 10
10.52800000000025
 20
0.6512579999999986
 10
10.53079999999954
 20
0.6540810000000015
 10
10.53079999999954
 20
0.648492000000001
  0
LWPOLYLINE
  5
C5
100
AcDbEntity
  8
0
  6
ByLayer
 62
    0
370
   -1
100
AcDbPolyline
 90
    6
 70
    0
 43
0
 10
10.53079999999954
 20
0.6850039999999993
 10
10.53359999999975
 20
0.6821829999999984
 10
10.53079999999954
 20
0.6793629999999986
 10
10.52800000000025
 20
0.6821829999999984
 10
10.53079999999954
 20
0.6850039999999993
 10
10.53079999999954
 20
0.6793629999999986
  0
LWPOLYLINE
  5
C6
100
AcDbEntity
  8
0
  6
ByLayer
 62
    0
370
   -1
100
AcDbPolyline
 90
   20
 70
    0
 43
0
 10
7.022079999999733
 20
0.6512579999999986
 10
7.0304900000001
 20
0.648492000000001
 10
7.044600000000173
 20
0.648492000000001
 10
7.050180000000182
 20
0.6512579999999986
 10
7.052999999999884
 20
0.6540810000000015
 10
7.055879999999888
 20
0.6596679999999999
 10
7.055879999999888
 20
0.6653650000000013
 10
7.052999999999884
 20
0.6710069999999995
 10
7.050180000000182
 20
0.6737740000000016
 10
7.044600000000173
 20
0.6765940000000015
 10
7.033419999999751
 20
0.6793629999999986
 10
7.027670000000398
 20
0.6821829999999984
 10
7.024900000000343
 20
0.6850039999999993
 10
7.022079999999733
 20
0.6907010000000007
 10
7.022079999999733
 20
0.6962890000000002
 10
7.024900000000343
 20
0.7018780000000007
 10
7.027670000000398
 20
0.7046990000000015
 10
7.033419999999751
 20
0.7074649999999991
 10
7.047419999999875
 20
0.7074649999999991
 10
7.055879999999888
 20
0.7046990000000015
  0
LWPOLYLINE
  5
C7
100
AcDbEntity
  8
0
  6
ByLayer
 62
    0
370
   -1
100
AcDbPolyline
 90
    2
 70
    0
 43
0
 10
7.08122000000003
 20
0.648492000000001
 10
7.08122000000003
 20
0.6878789999999988
  0
LWPOLYLINE
  5
C8
100
AcDbEntity
  8
0
  6
ByLayer
 62
    0
370
   -1
100
AcDbPolyline
 90
    6
 70
    0
 43
0
 10
7.08122000000003
 20
0.7074649999999991
 10
7.078400000000329
 20
0.7046990000000015
 10
7.08122000000003
 20
0.7018780000000007
 10
7.083990000000085
 20
0.7046990000000015
 10
7.08122000000003
 20
0.7074649999999991
 10
7.08122000000003
 20
0.7018780000000007
  0
LWPOLYLINE
  5
C9
100
AcDbEntity
  8
0
  6
ByLayer
 62
    0
370
   -1
100
AcDbPolyline
 90
    4
 70
    0
 43
0
 10
7.103680000000168
 20
0.6878789999999988
 10
7.134600000000319
 20
0.6878789999999988
 10
7.103680000000168
 20
0.648492000000001
 10
7.134600000000319
 20
0.648492000000001
  0
LWPOLYLINE
  5
CA
100
AcDbEntity
  8
0
  6
ByLayer
 62
    0
370
   -1
100
AcDbPolyline
 90
   13
 70
    0
 43
0
 10
7.179579999999987
 20
0.6512579999999986
 10
7.173990000000231
 20
0.648492000000001
 10
7.162709999999606
 20
0.648492000000001
 10
7.15711999999985
 20
0.6512579999999986
 10
7.154290000000401
 20
0.6569010000000013
 10
7.154290000000401
 20
0.6793629999999986
 10
7.15711999999985
 20
0.6850039999999993
 10
7.162709999999606
 20
0.6878789999999988
 10
7.173990000000231
 20
0.6878789999999988
 10
7.179579999999987
 20
0.6850039999999993
 10
7.182399999999689
 20
0.6793629999999986
 10
7.182399999999689
 20
0.6737740000000016
 10
7.154290000000401
 20
0.6681859999999986
  0
LWPOLYLINE
  5
CB
100
AcDbEntity
  8
0
  6
ByLayer
 62
    0
370
   -1
100
AcDbPolyline
 90
    6
 70
    0
 43
0
 10
7.207680000000437
 20
0.6540810000000015
 10
7.210500000000138
 20
0.6512579999999986
 10
7.207680000000437
 20
0.648492000000001
 10
7.204920000000129
 20
0.6512579999999986
 10
7.207680000000437
 20
0.6540810000000015
 10
7.207680000000437
 20
0.648492000000001
  0
LWPOLYLINE
  5
CC
100
AcDbEntity
  8
0
  6
ByLayer
 62
    0
370
   -1
100
AcDbPolyline
 90
    6
 70
    0
 43
0
 10
7.207680000000437
 20
0.6850039999999993
 10
7.210500000000138
 20
0.6821829999999984
 10
7.207680000000437
 20
0.6793629999999986
 10
7.204920000000129
 20
0.6821829999999984
 10
7.207680000000437
 20
0.6850039999999993
 10
7.207680000000437
 20
0.6793629999999986
  0
LWPOLYLINE
  5
CD
100
AcDbEntity
  8
0
  6
ByLayer
 62
    0
370
   -1
100
AcDbPolyline
 90
    2
 70
    0
 43
0
 10
7.278000000000247
 20
0.6653650000000013
 10
7.306099999999788
 20
0.6653650000000013
  0
LWPOLYLINE
  5
CE
100
AcDbEntity
  8
0
  6
ByLayer
 62
    0
370
   -1
100
AcDbPolyline
 90
    3
 70
    0
 43
0
 10
7.272399999999834
 20
0.648492000000001
 10
7.292099999999664
 20
0.7074649999999991
 10
7.311789999999746
 20
0.648492000000001
  0
LWPOLYLINE
  5
CF
100
AcDbEntity
  8
0
  6
ByLayer
 62
    0
370
   -1
100
AcDbPolyline
 90
    2
 70
    0
 43
0
 10
7.356780000000072
 20
0.6878789999999988
 10
7.356780000000072
 20
0.648492000000001
  0
LWPOLYLINE
  5
D0
100
AcDbEntity
  8
0
  6
ByLayer
 62
    0
370
   -1
100
AcDbPolyline
 90
    3
 70
    0
 43
0
 10
7.342719999999645
 20
0.7103940000000009
 10
7.328609999999571
 20
0.6681859999999986
 10
7.365179999999782
 20
0.6681859999999986
  0
LWPOLYLINE
  5
D1
100
AcDbEntity
  8
0
  6
ByLayer
 62
    0
370
   -1
100
AcDbPolyline
 90
    2
 70
    0
 43
0
 10
10.37139999999999
 20
0.5383029999999991
 10
10.37139999999999
 20
0.5972760000000008
  0
LWPOLYLINE
  5
D2
100
AcDbEntity
  8
0
  6
ByLayer
 62
    0
370
   -1
100
AcDbPolyline
 90
    2
 70
    0
 43
0
 10
10.42479999999978
 20
0.5383029999999991
 10
10.42479999999978
 20
0.5972760000000008
  0
LWPOLYLINE
  5
D3
100
AcDbEntity
  8
0
  6
ByLayer
 62
    0
370
   -1
100
AcDbPolyline
 90
   12
 70
    0
 43
0
 10
10.42479999999978
 20
0.5410690000000002
 10
10.41920000000027
 20
0.5383029999999991
 10
10.40790000000015
 20
0.5383029999999991
 10
10.40229999999974
 20
0.5410690000000002
 10
10.39950000000044
 20
0.5438919999999996
 10
10.39670000000024
 20
0.5494790000000016
 10
10.39670000000024
 20
0.5664070000000017
 10
10.39950000000044
 20
0.5719940000000001
 10
10.40229999999974
 20
0.5747609999999987
 10
10.40790000000015
 20
0.5775819999999996
 10
10.41920000000027
 20
0.5775819999999996
 10
10.42479999999978
 20
0.5747609999999987
  0
LWPOLYLINE
  5
D4
100
AcDbEntity
  8
0
  6
ByLayer
 62
    0
370
   -1
100
AcDbPolyline
 90
    6
 70
    0
 43
0
 10
10.45290000000023
 20
0.5438919999999996
 10
10.45570000000043
 20
0.5410690000000002
 10
10.45290000000023
 20
0.5383029999999991
 10
10.45010000000002
 20
0.5410690000000002
 10
10.45290000000023
 20
0.5438919999999996
 10
10.45290000000023
 20
0.5383029999999991
  0
LWPOLYLINE
  5
D5
100
AcDbEntity
  8
0
  6
ByLayer
 62
    0
370
   -1
100
AcDbPolyline
 90
    6
 70
    0
 43
0
 10
10.45290000000023
 20
0.5747609999999987
 10
10.45570000000043
 20
0.5719940000000001
 10
10.45290000000023
 20
0.5691740000000003
 10
10.45010000000002
 20
0.5719940000000001
 10
10.45290000000023
 20
0.5747609999999987
 10
10.45290000000023
 20
0.5691740000000003
  0
LWPOLYLINE
  5
D6
100
AcDbEntity
  8
0
  6
ByLayer
 62
    0
370
   -1
100
AcDbPolyline
 90
    2
 70
    0
 43
0
 10
10.55699999999979
 20
0.5383029999999991
 10
10.52319999999963
 20
0.5383029999999991
  0
LWPOLYLINE
  5
D7
100
AcDbEntity
  8
0
  6
ByLayer
 62
    0
370
   -1
100
AcDbPolyline
 90
    5
 70
    0
 43
0
 10
10.54010000000017
 20
0.5383029999999991
 10
10.54010000000017
 20
0.5972760000000008
 10
10.53449999999975
 20
0.5888670000000005
 10
10.52890000000025
 20
0.5831710000000001
 10
10.52319999999963
 20
0.5804040000000015
  0
LWPOLYLINE
  5
D8
100
AcDbEntity
  8
0
  6
ByLayer
 62
    0
370
   -1
100
AcDbPolyline
 90
    2
 70
    0
 43
0
 10
10.6244999999999
 20
0.6000970000000017
 10
10.57390000000032
 20
0.5241970000000009
  0
LWPOLYLINE
  5
D9
100
AcDbEntity
  8
0
  6
ByLayer
 62
    0
370
   -1
100
AcDbPolyline
 90
    2
 70
    0
 43
0
 10
10.67510000000038
 20
0.5383029999999991
 10
10.64130000000023
 20
0.5383029999999991
  0
LWPOLYLINE
  5
DA
100
AcDbEntity
  8
0
  6
ByLayer
 62
    0
370
   -1
100
AcDbPolyline
 90
    5
 70
    0
 43
0
 10
10.65819999999985
 20
0.5383029999999991
 10
10.65819999999985
 20
0.5972760000000008
 10
10.65260000000035
 20
0.5888670000000005
 10
10.64699999999993
 20
0.5831710000000001
 10
10.64130000000023
 20
0.5804040000000015
  0
LWPOLYLINE
  5
DB
100
AcDbEntity
  8
0
  6
ByLayer
 62
    0
370
   -1
100
AcDbPolyline
 90
    2
 70
    0
 43
0
 10
6.968469999999797
 20
0.8956710000000001
 10
11.22050000000036
 20
0.8956710000000001
  0
LWPOLYLINE
  5
DC
100
AcDbEntity
  8
0
  6
ByLayer
 62
    0
370
   -1
100
AcDbPolyline
 90
    2
 70
    0
 43
0
 10
7.035969999999907
 20
0.8678929999999987
 10
7.081000000000131
 20
0.8678929999999987
  0
LWPOLYLINE
  5
DD
100
AcDbEntity
  8
0
  6
ByLayer
 62
    0
370
   -1
100
AcDbPolyline
 90
    2
 70
    0
 43
0
 10
7.048609999999826
 20
0.7891709999999996
 10
7.058490000000347
 20
0.8678929999999987
  0
LWPOLYLINE
  5
DE
100
AcDbEntity
  8
0
  6
ByLayer
 62
    0
370
   -1
100
AcDbPolyline
 90
    2
 70
    0
 43
0
 10
7.097389999999905
 20
0.7891709999999996
 10
7.10389000000032
 20
0.8416889999999988
  0
LWPOLYLINE
  5
DF
100
AcDbEntity
  8
0
  6
ByLayer
 62
    0
370
   -1
100
AcDbPolyline
 90
    6
 70
    0
 43
0
 10
7.107210000000123
 20
0.8678929999999987
 10
7.102969999999914
 20
0.8642040000000009
 10
7.10627999999997
 20
0.8604060000000011
 10
7.110510000000431
 20
0.8642040000000009
 10
7.107210000000123
 20
0.8678929999999987
 10
7.10627999999997
 20
0.8604060000000011
  0
LWPOLYLINE
  5
E0
100
AcDbEntity
  8
0
  6
ByLayer
 62
    0
370
   -1
100
AcDbPolyline
 90
    2
 70
    0
 43
0
 10
7.130210000000261
 20
0.8416889999999988
 10
7.160210000000006
 20
0.8416889999999988
  0
LWPOLYLINE
  5
E1
100
AcDbEntity
  8
0
  6
ByLayer
 62
    0
370
   -1
100
AcDbPolyline
 90
    5
 70
    0
 43
0
 10
7.144690000000082
 20
0.8678929999999987
 10
7.136290000000372
 20
0.8004010000000008
 10
7.139110000000073
 20
0.792860000000001
 10
7.14610999999968
 20
0.7891709999999996
 10
7.153599999999642
 20
0.7891709999999996
  0
LWPOLYLINE
  5
E2
100
AcDbEntity
  8
0
  6
ByLayer
 62
    0
370
   -1
100
AcDbPolyline
 90
    4
 70
    0
 43
0
 10
7.191079999999602
 20
0.7891709999999996
 10
7.184079999999994
 20
0.792860000000001
 10
7.181319999999687
 20
0.8004010000000008
 10
7.189669999999751
 20
0.8678929999999987
  0
LWPOLYLINE
  5
E3
100
AcDbEntity
  8
0
  6
ByLayer
 62
    0
370
   -1
100
AcDbPolyline
 90
   13
 70
    0
 43
0
 10
7.251570000000356
 20
0.792860000000001
 10
7.243599999999788
 20
0.7891709999999996
 10
7.228570000000218
 20
0.7891709999999996
 10
7.221569999999701
 20
0.792860000000001
 10
7.218689999999697
 20
0.8004010000000008
 10
7.222499999999854
 20
0.8304040000000015
 10
7.227210000000014
 20
0.8378900000000016
 10
7.23519000000033
 20
0.8416889999999988
 10
7.25010999999995
 20
0.8416889999999988
 10
7.257220000000416
 20
0.8378900000000016
 10
7.259989999999561
 20
0.8304040000000015
 10
7.259109999999964
 20
0.8228630000000017
 10
7.220599999999649
 20
0.8153749999999995
  0
LWPOLYLINE
  5
E4
100
AcDbEntity
  8
0
  6
ByLayer
 62
    0
370
   -1
100
AcDbPolyline
 90
    6
 70
    0
 43
0
 10
7.289499999999862
 20
0.7966580000000008
 10
7.292809999999918
 20
0.792860000000001
 10
7.288569999999709
 20
0.7891709999999996
 10
7.285319999999956
 20
0.792860000000001
 10
7.289499999999862
 20
0.7966580000000008
 10
7.288569999999709
 20
0.7891709999999996
  0
LWPOLYLINE
  5
E5
100
AcDbEntity
  8
0
  6
ByLayer
 62
    0
370
   -1
100
AcDbPolyline
 90
    6
 70
    0
 43
0
 10
7.294710000000123
 20
0.8378900000000016
 10
7.298010000000431
 20
0.8342010000000002
 10
7.293679999999767
 20
0.8304040000000015
 10
7.290469999999914
 20
0.8342010000000002
 10
7.294710000000123
 20
0.8378900000000016
 10
7.293679999999767
 20
0.8304040000000015
  0
LWPOLYLINE
  5
E6
100
AcDbEntity
  8
0
  6
ByLayer
 62
    0
370
   -1
100
AcDbPolyline
 90
    2
 70
    0
 43
0
 10
7.044600000000173
 20
0.970756999999999
 10
7.024900000000343
 20
0.970756999999999
  0
LWPOLYLINE
  5
E7
100
AcDbEntity
  8
0
  6
ByLayer
 62
    0
370
   -1
100
AcDbPolyline
 90
    3
 70
    0
 43
0
 10
7.024900000000343
 20
0.9397790000000015
 10
7.024900000000343
 20
0.9988610000000016
 10
7.052999999999884
 20
0.9988610000000016
  0
LWPOLYLINE
  5
E8
100
AcDbEntity
  8
0
  6
ByLayer
 62
    0
370
   -1
100
AcDbPolyline
 90
    2
 70
    0
 43
0
 10
7.075530000000072
 20
0.9397790000000015
 10
7.075530000000072
 20
0.9791670000000003
  0
LWPOLYLINE
  5
E9
100
AcDbEntity
  8
0
  6
ByLayer
 62
    0
370
   -1
100
AcDbPolyline
 90
    6
 70
    0
 43
0
 10
7.075530000000072
 20
0.9988610000000016
 10
7.072689999999966
 20
0.9960939999999994
 10
7.075530000000072
 20
0.993272000000001
 10
7.078400000000329
 20
0.9960939999999994
 10
7.075530000000072
 20
0.9988610000000016
 10
7.075530000000072
 20
0.993272000000001
  0
LWPOLYLINE
  5
EA
100
AcDbEntity
  8
0
  6
ByLayer
 62
    0
370
   -1
100
AcDbPolyline
 90
    4
 70
    0
 43
0
 10
7.112079999999878
 20
0.9397790000000015
 10
7.106499999999869
 20
0.9425999999999988
 10
7.103680000000168
 20
0.9482959999999991
 10
7.103680000000168
 20
0.9988610000000016
  0
LWPOLYLINE
  5
EB
100
AcDbEntity
  8
0
  6
ByLayer
 62
    0
370
   -1
100
AcDbPolyline
 90
   13
 70
    0
 43
0
 10
7.15711999999985
 20
0.9425999999999988
 10
7.15146999999979
 20
0.9397790000000015
 10
7.140190000000075
 20
0.9397790000000015
 10
7.134600000000319
 20
0.9425999999999988
 10
7.131779999999708
 20
0.9482959999999991
 10
7.131779999999708
 20
0.970756999999999
 10
7.134600000000319
 20
0.9764000000000017
 10
7.140190000000075
 20
0.9791670000000003
 10
7.15146999999979
 20
0.9791670000000003
 10
7.15711999999985
 20
0.9764000000000017
 10
7.159889999999905
 20
0.970756999999999
 10
7.159889999999905
 20
0.9650609999999986
 10
7.131779999999708
 20
0.9594720000000017
  0
LWPOLYLINE
  5
EC
100
AcDbEntity
  8
0
  6
ByLayer
 62
    0
370
   -1
100
AcDbPolyline
 90
    6
 70
    0
 43
0
 10
7.185169999999744
 20
0.9454749999999983
 10
7.187990000000354
 20
0.9425999999999988
 10
7.185169999999744
 20
0.9397790000000015
 10
7.182399999999689
 20
0.9425999999999988
 10
7.185169999999744
 20
0.9454749999999983
 10
7.185169999999744
 20
0.9397790000000015
  0
LWPOLYLINE
  5
ED
100
AcDbEntity
  8
0
  6
ByLayer
 62
    0
370
   -1
100
AcDbPolyline
 90
    6
 70
    0
 43
0
 10
7.185169999999744
 20
0.9764000000000017
 10
7.187990000000354
 20
0.9735790000000009
 10
7.185169999999744
 20
0.970756999999999
 10
7.182399999999689
 20
0.9735790000000009
 10
7.185169999999744
 20
0.9764000000000017
 10
7.185169999999744
 20
0.970756999999999
  0
LWPOLYLINE
  5
EE
100
AcDbEntity
  8
0
  6
ByLayer
 62
    0
370
   -1
100
AcDbPolyline
 90
    2
 70
    0
 43
0
 10
7.24989000000005
 20
0.9791670000000003
 10
7.272399999999834
 20
0.9791670000000003
  0
LWPOLYLINE
  5
EF
100
AcDbEntity
  8
0
  6
ByLayer
 62
    0
370
   -1
100
AcDbPolyline
 90
    5
 70
    0
 43
0
 10
7.258310000000165
 20
0.9988610000000016
 10
7.258310000000165
 20
0.9482959999999991
 10
7.261069999999563
 20
0.9425999999999988
 10
7.266819999999825
 20
0.9397790000000015
 10
7.272399999999834
 20
0.9397790000000015
  0
LWPOLYLINE
  5
F0
100
AcDbEntity
  8
0
  6
ByLayer
 62
    0
370
   -1
100
AcDbPolyline
 90
   17
 70
    1
 43
0
 10
7.300510000000031
 20
0.9397790000000015
 10
7.294859999999971
 20
0.9425999999999988
 10
7.292099999999664
 20
0.9454749999999983
 10
7.289279999999962
 20
0.9510639999999988
 10
7.289279999999962
 20
0.9678819999999995
 10
7.292099999999664
 20
0.9735790000000009
 10
7.294859999999971
 20
0.9764000000000017
 10
7.300510000000031
 20
0.9791670000000003
 10
7.308970000000045
 20
0.9791670000000003
 10
7.314610000000357
 20
0.9764000000000017
 10
7.317390000000159
 20
0.9735790000000009
 10
7.320209999999861
 20
0.9678819999999995
 10
7.320209999999861
 20
0.9510639999999988
 10
7.317390000000159
 20
0.9454749999999983
 10
7.314610000000357
 20
0.9425999999999988
 10
7.308970000000045
 20
0.9397790000000015
 10
7.300510000000031
 20
0.9397790000000015
  0
LWPOLYLINE
  5
F1
100
AcDbEntity
  8
0
  6
ByLayer
 62
    0
370
   -1
100
AcDbPolyline
 90
    2
 70
    0
 43
0
 10
7.370759999999791
 20
0.9791670000000003
 10
7.370759999999791
 20
0.9397790000000015
  0
LWPOLYLINE
  5
F2
100
AcDbEntity
  8
0
  6
ByLayer
 62
    0
370
   -1
100
AcDbPolyline
 90
    7
 70
    0
 43
0
 10
7.3454899999997
 20
0.9791670000000003
 10
7.3454899999997
 20
0.9482959999999991
 10
7.348310000000311
 20
0.9425999999999988
 10
7.35389000000032
 20
0.9397790000000015
 10
7.362420000000384
 20
0.9397790000000015
 10
7.368000000000393
 20
0.9425999999999988
 10
7.370759999999791
 20
0.9454749999999983
  0
LWPOLYLINE
  5
F3
100
AcDbEntity
  8
0
  6
ByLayer
 62
    0
370
   -1
100
AcDbPolyline
 90
   12
 70
    0
 43
0
 10
7.42421000000013
 20
0.9425999999999988
 10
7.418620000000374
 20
0.9397790000000015
 10
7.407390000000305
 20
0.9397790000000015
 10
7.401810000000296
 20
0.9425999999999988
 10
7.398869999999988
 20
0.9454749999999983
 10
7.39610999999968
 20
0.9510639999999988
 10
7.39610999999968
 20
0.9678819999999995
 10
7.398869999999988
 20
0.9735790000000009
 10
7.401810000000296
 20
0.9764000000000017
 10
7.407390000000305
 20
0.9791670000000003
 10
7.418620000000374
 20
0.9791670000000003
 10
7.42421000000013
 20
0.9764000000000017
  0
LWPOLYLINE
  5
F4
100
AcDbEntity
  8
0
  6
ByLayer
 62
    0
370
   -1
100
AcDbPolyline
 90
    2
 70
    0
 43
0
 10
7.449599999999919
 20
0.9397790000000015
 10
7.449599999999919
 20
0.9988610000000016
  0
LWPOLYLINE
  5
F5
100
AcDbEntity
  8
0
  6
ByLayer
 62
    0
370
   -1
100
AcDbPolyline
 90
    7
 70
    0
 43
0
 10
7.47487000000001
 20
0.9397790000000015
 10
7.47487000000001
 20
0.970756999999999
 10
7.472109999999702
 20
0.9764000000000017
 10
7.466419999999744
 20
0.9791670000000003
 10
7.458010000000286
 20
0.9791670000000003
 10
7.45241999999962
 20
0.9764000000000017
 10
7.449599999999919
 20
0.9735790000000009
  0
LWPOLYLINE
  5
F6
100
AcDbEntity
  8
0
  6
ByLayer
 62
    0
370
   -1
100
AcDbPolyline
 90
    2
 70
    0
 43
0
 10
7.488870000000134
 20
0.934190000000001
 10
7.533900000000358
 20
0.934190000000001
  0
LWPOLYLINE
  5
F7
100
AcDbEntity
  8
0
  6
ByLayer
 62
    0
370
   -1
100
AcDbPolyline
 90
    2
 70
    0
 43
0
 10
7.548010000000431
 20
0.9397790000000015
 10
7.548010000000431
 20
0.9988610000000016
  0
LWPOLYLINE
  5
F8
100
AcDbEntity
  8
0
  6
ByLayer
 62
    0
370
   -1
100
AcDbPolyline
 90
    2
 70
    0
 43
0
 10
7.553600000000188
 20
0.962294
 10
7.570469999999659
 20
0.9397790000000015
  0
LWPOLYLINE
  5
F9
100
AcDbEntity
  8
0
  6
ByLayer
 62
    0
370
   -1
100
AcDbPolyline
 90
    2
 70
    0
 43
0
 10
7.570469999999659
 20
0.9791670000000003
 10
7.548010000000431
 20
0.9567060000000005
  0
LWPOLYLINE
  5
FA
100
AcDbEntity
  8
0
  6
ByLayer
 62
    0
370
   -1
100
AcDbPolyline
 90
    2
 70
    0
 43
0
 10
7.595809999999801
 20
0.9397790000000015
 10
7.595809999999801
 20
0.9988610000000016
  0
LWPOLYLINE
  5
FB
100
AcDbEntity
  8
0
  6
ByLayer
 62
    0
370
   -1
100
AcDbPolyline
 90
   12
 70
    0
 43
0
 10
7.595809999999801
 20
0.9764000000000017
 10
7.601399999999558
 20
0.9791670000000003
 10
7.612680000000182
 20
0.9791670000000003
 10
7.618279999999686
 20
0.9764000000000017
 10
7.621100000000297
 20
0.9735790000000009
 10
7.623919999999998
 20
0.9678819999999995
 10
7.623919999999998
 20
0.9510639999999988
 10
7.621100000000297
 20
0.9454749999999983
 10
7.618279999999686
 20
0.9425999999999988
 10
7.612680000000182
 20
0.9397790000000015
 10
7.601399999999558
 20
0.9397790000000015
 10
7.595809999999801
 20
0.9425999999999988
  0
LWPOLYLINE
  5
FC
100
AcDbEntity
  8
0
  6
ByLayer
 62
    0
370
   -1
100
AcDbPolyline
 90
    2
 70
    0
 43
0
 10
7.680180000000291
 20
0.9397790000000015
 10
7.646380000000136
 20
0.9397790000000015
  0
LWPOLYLINE
  5
FD
100
AcDbEntity
  8
0
  6
ByLayer
 62
    0
370
   -1
100
AcDbPolyline
 90
    5
 70
    0
 43
0
 10
7.66330999999991
 20
0.9397790000000015
 10
7.66330999999991
 20
0.9988610000000016
 10
7.657710000000407
 20
0.9903970000000015
 10
7.652009999999791
 20
0.9848099999999995
 10
7.646380000000136
 20
0.9819880000000012
  0
LWPOLYLINE
  5
FE
100
AcDbEntity
  8
0
  6
ByLayer
 62
    0
370
   -1
100
AcDbPolyline
 90
    6
 70
    0
 43
0
 10
7.705509999999776
 20
0.9454749999999983
 10
7.708279999999831
 20
0.9425999999999988
 10
7.705509999999776
 20
0.9397790000000015
 10
7.702690000000075
 20
0.9425999999999988
 10
7.705509999999776
 20
0.9454749999999983
 10
7.705509999999776
 20
0.9397790000000015
  0
LWPOLYLINE
  5
FF
100
AcDbEntity
  8
0
  6
ByLayer
 62
    0
370
   -1
100
AcDbPolyline
 90
    2
 70
    0
 43
0
 10
7.733610000000226
 20
0.9397790000000015
 10
7.733610000000226
 20
0.9988610000000016
  0
LWPOLYLINE
  5
100
100
AcDbEntity
  8
0
  6
ByLayer
 62
    0
370
   -1
100
AcDbPolyline
 90
    2
 70
    0
 43
0
 10
7.73920999999973
 20
0.962294
 10
7.756080000000111
 20
0.9397790000000015
  0
LWPOLYLINE
  5
101
100
AcDbEntity
  8
0
  6
ByLayer
 62
    0
370
   -1
100
AcDbPolyline
 90
    2
 70
    0
 43
0
 10
7.756080000000111
 20
0.9791670000000003
 10
7.733610000000226
 20
0.9567060000000005
  0
LWPOLYLINE
  5
102
100
AcDbEntity
  8
0
  6
ByLayer
 62
    0
370
   -1
100
AcDbPolyline
 90
    2
 70
    0
 43
0
 10
7.781420000000253
 20
0.9397790000000015
 10
7.781420000000253
 20
0.9791670000000003
  0
LWPOLYLINE
  5
103
100
AcDbEntity
  8
0
  6
ByLayer
 62
    0
370
   -1
100
AcDbPolyline
 90
    6
 70
    0
 43
0
 10
7.781420000000253
 20
0.9988610000000016
 10
7.778599999999642
 20
0.9960939999999994
 10
7.781420000000253
 20
0.993272000000001
 10
7.784179999999651
 20
0.9960939999999994
 10
7.781420000000253
 20
0.9988610000000016
 10
7.781420000000253
 20
0.993272000000001
  0
LWPOLYLINE
  5
104
100
AcDbEntity
  8
0
  6
ByLayer
 62
    0
370
   -1
100
AcDbPolyline
 90
   12
 70
    0
 43
0
 10
7.834789999999884
 20
0.9425999999999988
 10
7.829209999999875
 20
0.9397790000000015
 10
7.817989999999554
 20
0.9397790000000015
 10
7.812280000000101
 20
0.9425999999999988
 10
7.809510000000046
 20
0.9454749999999983
 10
7.806690000000344
 20
0.9510639999999988
 10
7.806690000000344
 20
0.9678819999999995
 10
7.809510000000046
 20
0.9735790000000009
 10
7.812280000000101
 20
0.9764000000000017
 10
7.817989999999554
 20
0.9791670000000003
 10
7.829209999999875
 20
0.9791670000000003
 10
7.834789999999884
 20
0.9764000000000017
  0
LWPOLYLINE
  5
105
100
AcDbEntity
  8
0
  6
ByLayer
 62
    0
370
   -1
100
AcDbPolyline
 90
    6
 70
    0
 43
0
 10
7.885419999999613
 20
0.9397790000000015
 10
7.885419999999613
 20
0.970756999999999
 10
7.882599999999911
 20
0.9764000000000017
 10
7.877010000000155
 20
0.9791670000000003
 10
7.865780000000086
 20
0.9791670000000003
 10
7.86008000000038
 20
0.9764000000000017
  0
LWPOLYLINE
  5
106
100
AcDbEntity
  8
0
  6
ByLayer
 62
    0
370
   -1
100
AcDbPolyline
 90
   10
 70
    0
 43
0
 10
7.885419999999613
 20
0.9425999999999988
 10
7.87978000000021
 20
0.9397790000000015
 10
7.865780000000086
 20
0.9397790000000015
 10
7.86008000000038
 20
0.9425999999999988
 10
7.857320000000072
 20
0.9482959999999991
 10
7.857320000000072
 20
0.9538849999999996
 10
7.86008000000038
 20
0.9594720000000017
 10
7.865780000000086
 20
0.962294
 10
7.87978000000021
 20
0.962294
 10
7.885419999999613
 20
0.9650609999999986
  0
LWPOLYLINE
  5
107
100
AcDbEntity
  8
0
  6
ByLayer
 62
    0
370
   -1
100
AcDbPolyline
 90
    2
 70
    0
 43
0
 10
7.938919999999598
 20
0.9397790000000015
 10
7.938919999999598
 20
0.9988610000000016
  0
LWPOLYLINE
  5
108
100
AcDbEntity
  8
0
  6
ByLayer
 62
    0
370
   -1
100
AcDbPolyline
 90
   12
 70
    0
 43
0
 10
7.938919999999598
 20
0.9425999999999988
 10
7.933210000000145
 20
0.9397790000000015
 10
7.921989999999823
 20
0.9397790000000015
 10
7.91639000000032
 20
0.9425999999999988
 10
7.913569999999709
 20
0.9454749999999983
 10
7.910810000000311
 20
0.9510639999999988
 10
7.910810000000311
 20
0.9678819999999995
 10
7.913569999999709
 20
0.9735790000000009
 10
7.91639000000032
 20
0.9764000000000017
 10
7.921989999999823
 20
0.9791670000000003
 10
7.933210000000145
 20
0.9791670000000003
 10
7.938919999999598
 20
0.9764000000000017
  0
LWPOLYLINE
  5
109
100
AcDbEntity
  8
0
  6
ByLayer
 62
    0
370
   -1
100
AcDbPolyline
 90
    2
 70
    0
 43
0
 10
7.952900000000227
 20
0.934190000000001
 10
7.997889999999643
 20
0.934190000000001
  0
LWPOLYLINE
  5
10A
100
AcDbEntity
  8
0
  6
ByLayer
 62
    0
370
   -1
100
AcDbPolyline
 90
    2
 70
    0
 43
0
 10
8.011989999999969
 20
0.9791670000000003
 10
8.011989999999969
 20
0.9200850000000003
  0
LWPOLYLINE
  5
10B
100
AcDbEntity
  8
0
  6
ByLayer
 62
    0
370
   -1
100
AcDbPolyline
 90
   12
 70
    0
 43
0
 10
8.011989999999969
 20
0.9764000000000017
 10
8.017579999999725
 20
0.9791670000000003
 10
8.028919999999744
 20
0.9791670000000003
 10
8.034499999999753
 20
0.9764000000000017
 10
8.037279999999555
 20
0.9735790000000009
 10
8.040100000000166
 20
0.9678819999999995
 10
8.040100000000166
 20
0.9510639999999988
 10
8.037279999999555
 20
0.9454749999999983
 10
8.034499999999753
 20
0.9425999999999988
 10
8.028919999999744
 20
0.9397790000000015
 10
8.017579999999725
 20
0.9397790000000015
 10
8.011989999999969
 20
0.9425999999999988
  0
LWPOLYLINE
  5
10C
100
AcDbEntity
  8
0
  6
ByLayer
 62
    0
370
   -1
100
AcDbPolyline
 90
   12
 70
    0
 43
0
 10
8.090710000000399
 20
0.9425999999999988
 10
8.085070000000087
 20
0.9397790000000015
 10
8.073889999999665
 20
0.9397790000000015
 10
8.068189999999959
 20
0.9425999999999988
 10
8.065370000000257
 20
0.9454749999999983
 10
8.06260999999995
 20
0.9510639999999988
 10
8.06260999999995
 20
0.9678819999999995
 10
8.065370000000257
 20
0.9735790000000009
 10
8.068189999999959
 20
0.9764000000000017
 10
8.073889999999665
 20
0.9791670000000003
 10
8.085070000000087
 20
0.9791670000000003
 10
8.090710000000399
 20
0.9764000000000017
  0
LWPOLYLINE
  5
10D
100
AcDbEntity
  8
0
  6
ByLayer
 62
    0
370
   -1
100
AcDbPolyline
 90
    2
 70
    0
 43
0
 10
8.115999999999985
 20
0.9397790000000015
 10
8.115999999999985
 20
0.9988610000000016
  0
LWPOLYLINE
  5
10E
100
AcDbEntity
  8
0
  6
ByLayer
 62
    0
370
   -1
100
AcDbPolyline
 90
   12
 70
    0
 43
0
 10
8.115999999999985
 20
0.9764000000000017
 10
8.121689999999944
 20
0.9791670000000003
 10
8.13285999999971
 20
0.9791670000000003
 10
8.138509999999769
 20
0.9764000000000017
 10
8.141279999999824
 20
0.9735790000000009
 10
8.144210000000385
 20
0.9678819999999995
 10
8.144210000000385
 20
0.9510639999999988
 10
8.141279999999824
 20
0.9454749999999983
 10
8.138509999999769
 20
0.9425999999999988
 10
8.13285999999971
 20
0.9397790000000015
 10
8.121689999999944
 20
0.9397790000000015
 10
8.115999999999985
 20
0.9425999999999988
  0
LWPOLYLINE
  5
10F
100
AcDbEntity
  8
0
  6
ByLayer
 62
    0
370
   -1
100
AcDbPolyline
 90
    2
 70
    0
 43
0
 10
6.968469999999797
 20
1.131889999999999
 10
11.22050000000036
 20
1.131889999999999
  0
LWPOLYLINE
  5
110
100
AcDbEntity
  8
0
  6
ByLayer
 62
    0
370
   -1
100
AcDbPolyline
 90
   20
 70
    0
 43
0
 10
7.022079999999733
 20
1.04888
 10
7.0304900000001
 20
1.046060000000001
 10
7.044600000000173
 20
1.046060000000001
 10
7.050180000000182
 20
1.04888
 10
7.052999999999884
 20
1.051760000000002
 10
7.055879999999888
 20
1.057400000000001
 10
7.055879999999888
 20
1.062989999999999
 10
7.052999999999884
 20
1.068580000000001
 10
7.050180000000182
 20
1.071400000000001
 10
7.044600000000173
 20
1.074159999999999
 10
7.033419999999751
 20
1.077089999999998
 10
7.027670000000398
 20
1.07986
 10
7.024900000000343
 20
1.08268
 10
7.022079999999733
 20
1.088270000000001
 10
7.022079999999733
 20
1.093859999999999
 10
7.024900000000343
 20
1.099609999999998
 10
7.027670000000398
 20
1.10238
 10
7.033419999999751
 20
1.1052
 10
7.047419999999875
 20
1.1052
 10
7.055879999999888
 20
1.10238
  0
LWPOLYLINE
  5
111
100
AcDbEntity
  8
0
  6
ByLayer
 62
    0
370
   -1
100
AcDbPolyline
 90
    2
 70
    0
 43
0
 10
7.08122000000003
 20
1.046060000000001
 10
7.08122000000003
 20
1.1052
  0
LWPOLYLINE
  5
112
100
AcDbEntity
  8
0
  6
ByLayer
 62
    0
370
   -1
100
AcDbPolyline
 90
    7
 70
    0
 43
0
 10
7.106499999999869
 20
1.046060000000001
 10
7.106499999999869
 20
1.077089999999998
 10
7.103680000000168
 20
1.08268
 10
7.097990000000209
 20
1.0855
 10
7.089570000000094
 20
1.0855
 10
7.083990000000085
 20
1.08268
 10
7.08122000000003
 20
1.07986
  0
LWPOLYLINE
  5
113
100
AcDbEntity
  8
0
  6
ByLayer
 62
    0
370
   -1
100
AcDbPolyline
 90
   13
 70
    0
 43
0
 10
7.15711999999985
 20
1.04888
 10
7.15146999999979
 20
1.046060000000001
 10
7.140190000000075
 20
1.046060000000001
 10
7.134600000000319
 20
1.04888
 10
7.131779999999708
 20
1.054580000000001
 10
7.131779999999708
 20
1.077089999999998
 10
7.134600000000319
 20
1.08268
 10
7.140190000000075
 20
1.0855
 10
7.15146999999979
 20
1.0855
 10
7.15711999999985
 20
1.08268
 10
7.159889999999905
 20
1.077089999999998
 10
7.159889999999905
 20
1.071400000000001
 10
7.131779999999708
 20
1.065809999999999
  0
LWPOLYLINE
  5
114
100
AcDbEntity
  8
0
  6
ByLayer
 62
    0
370
   -1
100
AcDbPolyline
 90
   13
 70
    0
 43
0
 10
7.207680000000437
 20
1.04888
 10
7.202100000000428
 20
1.046060000000001
 10
7.190810000000056
 20
1.046060000000001
 10
7.185169999999744
 20
1.04888
 10
7.182399999999689
 20
1.054580000000001
 10
7.182399999999689
 20
1.077089999999998
 10
7.185169999999744
 20
1.08268
 10
7.190810000000056
 20
1.0855
 10
7.202100000000428
 20
1.0855
 10
7.207680000000437
 20
1.08268
 10
7.210500000000138
 20
1.077089999999998
 10
7.210500000000138
 20
1.071400000000001
 10
7.182399999999689
 20
1.065809999999999
  0
LWPOLYLINE
  5
115
100
AcDbEntity
  8
0
  6
ByLayer
 62
    0
370
   -1
100
AcDbPolyline
 90
    2
 70
    0
 43
0
 10
7.22736999999961
 20
1.0855
 10
7.24989000000005
 20
1.0855
  0
LWPOLYLINE
  5
116
100
AcDbEntity
  8
0
  6
ByLayer
 62
    0
370
   -1
100
AcDbPolyline
 90
    5
 70
    0
 43
0
 10
7.235789999999724
 20
1.1052
 10
7.235789999999724
 20
1.054580000000001
 10
7.238610000000335
 20
1.04888
 10
7.244310000000041
 20
1.046060000000001
 10
7.24989000000005
 20
1.046060000000001
  0
LWPOLYLINE
  5
117
100
AcDbEntity
  8
0
  6
ByLayer
 62
    0
370
   -1
100
AcDbPolyline
 90
    6
 70
    0
 43
0
 10
7.269580000000133
 20
1.051760000000002
 10
7.272399999999834
 20
1.04888
 10
7.269580000000133
 20
1.046060000000001
 10
7.266819999999825
 20
1.04888
 10
7.269580000000133
 20
1.051760000000002
 10
7.269580000000133
 20
1.046060000000001
  0
LWPOLYLINE
  5
118
100
AcDbEntity
  8
0
  6
ByLayer
 62
    0
370
   -1
100
AcDbPolyline
 90
    6
 70
    0
 43
0
 10
7.269580000000133
 20
1.08268
 10
7.272399999999834
 20
1.07986
 10
7.269580000000133
 20
1.077089999999998
 10
7.266819999999825
 20
1.07986
 10
7.269580000000133
 20
1.08268
 10
7.269580000000133
 20
1.077089999999998
  0
LWPOLYLINE
  5
119
100
AcDbEntity
  8
0
  6
ByLayer
 62
    0
370
   -1
100
AcDbPolyline
 90
    2
 70
    0
 43
0
 10
7.755919999999605
 20
0.7381719999999987
 10
7.755919999999605
 20
0.6200630000000018
  0
LWPOLYLINE
  5
11A
100
AcDbEntity
  8
0
  6
ByLayer
 62
    0
370
   -1
100
AcDbPolyline
 90
    2
 70
    0
 43
0
 10
10.27559999999994
 20
0.7381719999999987
 10
10.27559999999994
 20
0.4822600000000001
  0
LWPOLYLINE
  5
11B
100
AcDbEntity
  8
0
  6
ByLayer
 62
  134
370
   -1
100
AcDbPolyline
 90
    2
 70
    0
 43
0
 10
8.360289999999623
 20
3.999680000000001
 10
8.333990000000085
 20
4.03717
  0
LWPOLYLINE
  5
11C
100
AcDbEntity
  8
0
  6
ByLayer
 62
  134
370
   -1
100
AcDbPolyline
 90
   11
 70
    0
 43
0
 10
8.315260000000308
 20
3.999680000000001
 10
8.315260000000308
 20
4.078400000000002
 10
8.345260000000053
 20
4.078400000000002
 10
8.352810000000318
 20
4.07471
 10
8.356499999999869
 20
4.07086
 10
8.360289999999623
 20
4.063369999999999
 10
8.360289999999623
 20
4.05219
 10
8.356499999999869
 20
4.044710000000002
 10
8.352810000000318
 20
4.040900000000001
 10
8.345260000000053
 20
4.03717
 10
8.315260000000308
 20
4.03717
  0
LWPOLYLINE
  5
11D
100
AcDbEntity
  8
0
  6
ByLayer
 62
  134
370
   -1
100
AcDbPolyline
 90
    2
 70
    0
 43
0
 10
8.393989999999576
 20
4.040900000000001
 10
8.420310000000427
 20
4.040900000000001
  0
LWPOLYLINE
  5
11E
100
AcDbEntity
  8
0
  6
ByLayer
 62
  134
370
   -1
100
AcDbPolyline
 90
    4
 70
    0
 43
0
 10
8.431470000000445
 20
3.999680000000001
 10
8.393989999999576
 20
3.999680000000001
 10
8.393989999999576
 20
4.078400000000002
 10
8.431470000000445
 20
4.078400000000002
  0
LWPOLYLINE
  5
11F
100
AcDbEntity
  8
0
  6
ByLayer
 62
  134
370
   -1
100
AcDbPolyline
 90
    3
 70
    0
 43
0
 10
8.502709999999752
 20
3.999680000000001
 10
8.465280000000348
 20
3.999680000000001
 10
8.465280000000348
 20
4.078400000000002
  0
LWPOLYLINE
  5
120
100
AcDbEntity
  8
0
  6
ByLayer
 62
  134
370
   -1
100
AcDbPolyline
 90
   17
 70
    1
 43
0
 10
8.543999999999869
 20
4.078400000000002
 10
8.558970000000045
 20
4.078400000000002
 10
8.566509999999653
 20
4.07471
 10
8.573999999999614
 20
4.067170000000001
 10
8.577690000000075
 20
4.05219
 10
8.577690000000075
 20
4.025880000000001
 10
8.573999999999614
 20
4.010899999999999
 10
8.566509999999653
 20
4.003360000000001
 10
8.558970000000045
 20
3.999680000000001
 10
8.543999999999869
 20
3.999680000000001
 10
8.536509999999907
 20
4.003360000000001
 10
8.528970000000299
 20
4.010899999999999
 10
8.525179999999636
 20
4.025880000000001
 10
8.525179999999636
 20
4.05219
 10
8.528970000000299
 20
4.067170000000001
 10
8.536509999999907
 20
4.07471
 10
8.543999999999869
 20
4.078400000000002
  0
LWPOLYLINE
  5
121
100
AcDbEntity
  8
0
  6
ByLayer
 62
  134
370
   -1
100
AcDbPolyline
 90
    2
 70
    0
 43
0
 10
8.60768999999982
 20
4.022190000000002
 10
8.645180000000437
 20
4.022190000000002
  0
LWPOLYLINE
  5
122
100
AcDbEntity
  8
0
  6
ByLayer
 62
  134
370
   -1
100
AcDbPolyline
 90
    3
 70
    0
 43
0
 10
8.600209999999606
 20
3.999680000000001
 10
8.626510000000053
 20
4.078400000000002
 10
8.652670000000398
 20
3.999680000000001
  0
LWPOLYLINE
  5
123
100
AcDbEntity
  8
0
  6
ByLayer
 62
  134
370
   -1
100
AcDbPolyline
 90
   13
 70
    1
 43
0
 10
8.67899000000034
 20
3.999680000000001
 10
8.67899000000034
 20
4.078400000000002
 10
8.697689999999966
 20
4.078400000000002
 10
8.708990000000085
 20
4.07471
 10
8.716470000000299
 20
4.067170000000001
 10
8.720210000000407
 20
4.05968
 10
8.724009999999907
 20
4.044710000000002
 10
8.724009999999907
 20
4.033360000000002
 10
8.720210000000407
 20
4.01839
 10
8.716470000000299
 20
4.010899999999999
 10
8.708990000000085
 20
4.003360000000001
 10
8.697689999999966
 20
3.999680000000001
 10
8.67899000000034
 20
3.999680000000001
  0
LWPOLYLINE
  5
124
100
AcDbEntity
  8
0
  6
ByLayer
 62
  134
370
   -1
100
AcDbPolyline
 90
   13
 70
    1
 43
0
 10
8.757489999999962
 20
4.58567
 10
8.757489999999962
 20
4.664390000000001
 10
8.776319999999942
 20
4.664390000000001
 10
8.787489999999707
 20
4.660689999999999
 10
8.794969999999921
 20
4.65315
 10
8.798780000000079
 20
4.645669999999999
 10
8.802510000000439
 20
4.630690000000001
 10
8.802510000000439
 20
4.61936
 10
8.798780000000079
 20
4.604390000000002
 10
8.794969999999921
 20
4.596899999999998
 10
8.787489999999707
 20
4.589359999999999
 10
8.776319999999942
 20
4.58567
 10
8.757489999999962
 20
4.58567
  0
LWPOLYLINE
  5
125
100
AcDbEntity
  8
0
  6
ByLayer
 62
  134
370
   -1
100
AcDbPolyline
 90
   10
 70
    0
 43
0
 10
8.836320000000342
 20
4.664390000000001
 10
8.836320000000342
 20
4.60069
 10
8.840000000000146
 20
4.593209999999999
 10
8.843810000000303
 20
4.589359999999999
 10
8.851289999999608
 20
4.58567
 10
8.866210000000137
 20
4.58567
 10
8.873690000000352
 20
4.589359999999999
 10
8.8774999999996
 20
4.593209999999999
 10
8.881180000000313
 20
4.60069
 10
8.881180000000313
 20
4.664390000000001
  0
LWPOLYLINE
  5
126
100
AcDbEntity
  8
0
  6
ByLayer
 62
  134
370
   -1
100
AcDbPolyline
 90
    5
 70
    0
 43
0
 10
8.918679999999767
 20
4.58567
 10
8.918679999999767
 20
4.664390000000001
 10
8.944989999999962
 20
4.608180000000001
 10
8.971190000000206
 20
4.664390000000001
 10
8.971190000000206
 20
4.58567
  0
LWPOLYLINE
  5
127
100
AcDbEntity
  8
0
  6
ByLayer
 62
  134
370
   -1
100
AcDbPolyline
 90
   11
 70
    0
 43
0
 10
9.008679999999913
 20
4.58567
 10
9.008679999999913
 20
4.664390000000001
 10
9.038679999999658
 20
4.664390000000001
 10
9.04616999999962
 20
4.660689999999999
 10
9.04997000000003
 20
4.6569
 10
9.053710000000137
 20
4.649360000000001
 10
9.053710000000137
 20
4.638179999999998
 10
9.04997000000003
 20
4.630690000000001
 10
9.04616999999962
 20
4.626899999999999
 10
9.038679999999658
 20
4.623149999999999
 10
9.008679999999913
 20
4.623149999999999
  0
LWPOLYLINE
  5
128
100
AcDbEntity
  8
0
  6
ByLayer
 62
  134
370
   -1
100
AcDbPolyline
 90
   13
 70
    1
 43
0
 10
8.3774999999996
 20
5.17567
 10
8.3774999999996
 20
5.254390000000001
 10
8.396260000000439
 20
5.254390000000001
 10
8.407500000000255
 20
5.250709999999998
 10
8.414990000000216
 20
5.243169999999999
 10
8.41877999999997
 20
5.235680000000002
 10
8.42247000000043
 20
5.22071
 10
8.42247000000043
 20
5.20936
 10
8.41877999999997
 20
5.194389999999999
 10
8.414990000000216
 20
5.186900000000001
 10
8.407500000000255
 20
5.179359999999999
 10
8.396260000000439
 20
5.17567
 10
8.3774999999996
 20
5.17567
  0
LWPOLYLINE
  5
129
100
AcDbEntity
  8
0
  6
ByLayer
 62
  134
370
   -1
100
AcDbPolyline
 90
   10
 70
    0
 43
0
 10
8.456280000000334
 20
5.254390000000001
 10
8.456280000000334
 20
5.19069
 10
8.460009999999784
 20
5.18317
 10
8.463819999999942
 20
5.179359999999999
 10
8.471309999999903
 20
5.17567
 10
8.486219999999776
 20
5.17567
 10
8.493709999999737
 20
5.179359999999999
 10
8.4975000000004
 20
5.18317
 10
8.501189999999951
 20
5.19069
 10
8.501189999999951
 20
5.254390000000001
  0
LWPOLYLINE
  5
12A
100
AcDbEntity
  8
0
  6
ByLayer
 62
  134
370
   -1
100
AcDbPolyline
 90
    5
 70
    0
 43
0
 10
8.538679999999658
 20
5.17567
 10
8.538679999999658
 20
5.254390000000001
 10
8.5649999999996
 20
5.19819
 10
8.591190000000097
 20
5.254390000000001
 10
8.591190000000097
 20
5.17567
  0
LWPOLYLINE
  5
12B
100
AcDbEntity
  8
0
  6
ByLayer
 62
  134
370
   -1
100
AcDbPolyline
 90
   11
 70
    0
 43
0
 10
8.628689999999551
 20
5.17567
 10
8.628689999999551
 20
5.254390000000001
 10
8.658690000000206
 20
5.254390000000001
 10
8.666180000000168
 20
5.250709999999998
 10
8.669969999999921
 20
5.246850000000002
 10
8.673719999999776
 20
5.239359999999998
 10
8.673719999999776
 20
5.228189999999998
 10
8.669969999999921
 20
5.22071
 10
8.666180000000168
 20
5.216899999999999
 10
8.658690000000206
 20
5.213169999999998
 10
8.628689999999551
 20
5.213169999999998
  0
LWPOLYLINE
  5
12C
100
AcDbEntity
  8
0
  6
ByLayer
 62
  134
370
   -1
100
AcDbPolyline
 90
   16
 70
    0
 43
0
 10
7.084469999999783
 20
4.56907
 10
7.076989999999569
 20
4.561579999999999
 10
7.054470000000038
 20
4.554099999999998
 10
7.039499999999862
 20
4.554099999999998
 10
7.016990000000078
 20
4.561579999999999
 10
7.002010000000155
 20
4.576609999999999
 10
6.994510000000446
 20
4.59158
 10
6.986990000000333
 20
4.621580000000002
 10
6.986990000000333
 20
4.644100000000002
 10
6.994510000000446
 20
4.674099999999999
 10
7.002010000000155
 20
4.689070000000001
 10
7.016990000000078
 20
4.7041
 10
7.039499999999862
 20
4.711579999999998
 10
7.054470000000038
 20
4.711579999999998
 10
7.076989999999569
 20
4.7041
 10
7.084469999999783
 20
4.696559999999998
  0
LWPOLYLINE
  5
12D
100
AcDbEntity
  8
0
  6
ByLayer
 62
  134
370
   -1
100
AcDbPolyline
 90
   19
 70
    0
 43
0
 10
6.759000000000015
 20
5.226569999999999
 10
6.781530000000203
 20
5.219070000000002
 10
6.789010000000417
 20
5.211579999999998
 10
6.796500000000378
 20
5.196559999999998
 10
6.796500000000378
 20
5.174099999999999
 10
6.789010000000417
 20
5.15907
 10
6.781530000000203
 20
5.151579999999999
 10
6.766499999999724
 20
5.144100000000002
 10
6.706489999999576
 20
5.144100000000002
 10
6.706489999999576
 20
5.301600000000001
 10
6.759000000000015
 20
5.301600000000001
 10
6.773989999999685
 20
5.294060000000002
 10
6.781530000000203
 20
5.286570000000001
 10
6.789010000000417
 20
5.271599999999999
 10
6.789010000000417
 20
5.25657
 10
6.781530000000203
 20
5.241599999999998
 10
6.773989999999685
 20
5.234099999999998
 10
6.759000000000015
 20
5.226569999999999
 10
6.706489999999576
 20
5.226569999999999
  0
LWPOLYLINE
  5
12E
100
AcDbEntity
  8
0
  6
ByLayer
 62
  134
370
   -1
100
AcDbPolyline
 90
    2
 70
    0
 43
0
 10
6.412220000000161
 20
5.791070000000001
 10
6.487189999999828
 20
5.791070000000001
  0
LWPOLYLINE
  5
12F
100
AcDbEntity
  8
0
  6
ByLayer
 62
  134
370
   -1
100
AcDbPolyline
 90
    3
 70
    0
 43
0
 10
6.397289999999884
 20
5.746099999999998
 10
6.449709999999868
 20
5.903600000000001
 10
6.502169999999751
 20
5.746099999999998
  0
LWPOLYLINE
  5
130
100
AcDbEntity
  8
0
  6
ByLayer
 62
  134
370
   -1
100
AcDbPolyline
 90
    2
 70
    0
 43
0
 10
6.708389999999781
 20
4.07667
 10
6.708389999999781
 20
4.155390000000001
  0
LWPOLYLINE
  5
131
100
AcDbEntity
  8
0
  6
ByLayer
 62
  134
370
   -1
100
AcDbPolyline
 90
    2
 70
    0
 43
0
 10
6.753420000000006
 20
4.07667
 10
6.71961999999985
 20
4.121580000000002
  0
LWPOLYLINE
  5
132
100
AcDbEntity
  8
0
  6
ByLayer
 62
  134
370
   -1
100
AcDbPolyline
 90
    2
 70
    0
 43
0
 10
6.753420000000006
 20
4.155390000000001
 10
6.708389999999781
 20
4.110399999999998
  0
LWPOLYLINE
  5
133
100
AcDbEntity
  8
0
  6
ByLayer
 62
  134
370
   -1
100
AcDbPolyline
 90
    2
 70
    0
 43
0
 10
6.787110000000212
 20
4.07667
 10
6.787110000000212
 20
4.155390000000001
  0
LWPOLYLINE
  5
134
100
AcDbEntity
  8
0
  6
ByLayer
 62
  134
370
   -1
100
AcDbPolyline
 90
    2
 70
    0
 43
0
 10
6.63339999999971
 20
3.946670000000001
 10
6.607100000000173
 20
3.98415
  0
LWPOLYLINE
  5
135
100
AcDbEntity
  8
0
  6
ByLayer
 62
  134
370
   -1
100
AcDbPolyline
 90
   11
 70
    0
 43
0
 10
6.588380000000143
 20
3.946670000000001
 10
6.588380000000143
 20
4.025500000000001
 10
6.618379999999888
 20
4.025500000000001
 10
6.62586999999985
 20
4.021709999999999
 10
6.629609999999957
 20
4.017960000000002
 10
6.63339999999971
 20
4.010469999999998
 10
6.63339999999971
 20
3.999179999999999
 10
6.629609999999957
 20
3.991689999999998
 10
6.62586999999985
 20
3.987960000000001
 10
6.618379999999888
 20
3.98415
 10
6.588380000000143
 20
3.98415
  0
LWPOLYLINE
  5
136
100
AcDbEntity
  8
0
  6
ByLayer
 62
  134
370
   -1
100
AcDbPolyline
 90
    2
 70
    0
 43
0
 10
6.667099999999664
 20
3.987960000000001
 10
6.693419999999605
 20
3.987960000000001
  0
LWPOLYLINE
  5
137
100
AcDbEntity
  8
0
  6
ByLayer
 62
  134
370
   -1
100
AcDbPolyline
 90
    4
 70
    0
 43
0
 10
6.704579999999623
 20
3.946670000000001
 10
6.667099999999664
 20
3.946670000000001
 10
6.667099999999664
 20
4.025500000000001
 10
6.704579999999623
 20
4.025500000000001
  0
LWPOLYLINE
  5
138
100
AcDbEntity
  8
0
  6
ByLayer
 62
  134
370
   -1
100
AcDbPolyline
 90
   20
 70
    0
 43
0
 10
6.734599999999773
 20
3.950469999999999
 10
6.745880000000398
 20
3.946670000000001
 10
6.764600000000428
 20
3.946670000000001
 10
6.772079999999733
 20
3.950469999999999
 10
6.775880000000143
 20
3.954149999999998
 10
6.779569999999694
 20
3.961690000000001
 10
6.779569999999694
 20
3.969180000000001
 10
6.775880000000143
 20
3.976669999999999
 10
6.772079999999733
 20
3.98047
 10
6.764600000000428
 20
3.98415
 10
6.749619999999595
 20
3.987960000000001
 10
6.742079999999987
 20
3.991689999999998
 10
6.738390000000436
 20
3.9955
 10
6.734599999999773
 20
4.00299
 10
6.734599999999773
 20
4.010469999999998
 10
6.738390000000436
 20
4.017960000000002
 10
6.742079999999987
 20
4.021709999999999
 10
6.749619999999595
 20
4.025500000000001
 10
6.768390000000181
 20
4.025500000000001
 10
6.779569999999694
 20
4.021709999999999
  0
LWPOLYLINE
  5
139
100
AcDbEntity
  8
0
  6
ByLayer
 62
  134
370
   -1
100
AcDbPolyline
 90
    2
 70
    0
 43
0
 10
6.81336999999985
 20
3.987960000000001
 10
6.839570000000094
 20
3.987960000000001
  0
LWPOLYLINE
  5
13A
100
AcDbEntity
  8
0
  6
ByLayer
 62
  134
370
   -1
100
AcDbPolyline
 90
    4
 70
    0
 43
0
 10
6.85091999999986
 20
3.946670000000001
 10
6.81336999999985
 20
3.946670000000001
 10
6.81336999999985
 20
4.025500000000001
 10
6.85091999999986
 20
4.025500000000001
  0
LWPOLYLINE
  5
13B
100
AcDbEntity
  8
0
  6
ByLayer
 62
  134
370
   -1
100
AcDbPolyline
 90
    2
 70
    0
 43
0
 10
6.87337000000025
 20
4.025500000000001
 10
6.918289999999615
 20
4.025500000000001
  0
LWPOLYLINE
  5
13C
100
AcDbEntity
  8
0
  6
ByLayer
 62
  134
370
   -1
100
AcDbPolyline
 90
    2
 70
    0
 43
0
 10
6.895889999999781
 20
3.946670000000001
 10
6.895889999999781
 20
4.025500000000001
  0
LWPOLYLINE
  5
13D
100
AcDbEntity
  8
0
  6
ByLayer
 62
  134
370
   -1
100
AcDbPolyline
 90
   20
 70
    0
 43
0
 10
7.20860999999968
 20
5.181370000000001
 10
7.219890000000305
 20
5.177679999999999
 10
7.238610000000335
 20
5.177679999999999
 10
7.246100000000297
 20
5.181370000000001
 10
7.24989000000005
 20
5.185169999999999
 10
7.253579999999602
 20
5.19265
 10
7.253579999999602
 20
5.200189999999999
 10
7.24989000000005
 20
5.20768
 10
7.246100000000297
 20
5.211369999999999
 10
7.238610000000335
 20
5.215170000000001
 10
7.223579999999856
 20
5.218859999999999
 10
7.216099999999642
 20
5.222650000000002
 10
7.212400000000343
 20
5.226399999999998
 10
7.20860999999968
 20
5.233889999999999
 10
7.20860999999968
 20
5.241379999999999
 10
7.212400000000343
 20
5.248860000000001
 10
7.216099999999642
 20
5.252649999999999
 10
7.223579999999856
 20
5.256399999999999
 10
7.242400000000089
 20
5.256399999999999
 10
7.253579999999602
 20
5.252649999999999
  0
LWPOLYLINE
  5
13E
100
AcDbEntity
  8
0
  6
ByLayer
 62
  134
370
   -1
100
AcDbPolyline
 90
    2
 70
    0
 43
0
 10
7.276100000000042
 20
5.256399999999999
 10
7.321069999999963
 20
5.256399999999999
  0
LWPOLYLINE
  5
13F
100
AcDbEntity
  8
0
  6
ByLayer
 62
  134
370
   -1
100
AcDbPolyline
 90
    2
 70
    0
 43
0
 10
7.298609999999826
 20
5.177679999999999
 10
7.298609999999826
 20
5.256399999999999
  0
LWPOLYLINE
  5
140
100
AcDbEntity
  8
0
  6
ByLayer
 62
  134
370
   -1
100
AcDbPolyline
 90
   17
 70
    1
 43
0
 10
7.362420000000384
 20
5.256399999999999
 10
7.37738999999965
 20
5.256399999999999
 10
7.384879999999612
 20
5.252649999999999
 10
7.392420000000129
 20
5.245170000000002
 10
7.39610999999968
 20
5.23019
 10
7.39610999999968
 20
5.203890000000001
 10
7.392420000000129
 20
5.188859999999998
 10
7.384879999999612
 20
5.181370000000001
 10
7.37738999999965
 20
5.177679999999999
 10
7.362420000000384
 20
5.177679999999999
 10
7.354879999999866
 20
5.181370000000001
 10
7.347389999999905
 20
5.188859999999998
 10
7.343579999999747
 20
5.203890000000001
 10
7.343579999999747
 20
5.23019
 10
7.347389999999905
 20
5.245170000000002
 10
7.354879999999866
 20
5.252649999999999
 10
7.362420000000384
 20
5.256399999999999
  0
LWPOLYLINE
  5
141
100
AcDbEntity
  8
0
  6
ByLayer
 62
  134
370
   -1
100
AcDbPolyline
 90
   11
 70
    0
 43
0
 10
7.429900000000089
 20
5.177679999999999
 10
7.429900000000089
 20
5.256399999999999
 10
7.459899999999834
 20
5.256399999999999
 10
7.467389999999796
 20
5.252649999999999
 10
7.471080000000256
 20
5.248860000000001
 10
7.47487000000001
 20
5.241379999999999
 10
7.47487000000001
 20
5.23019
 10
7.471080000000256
 20
5.222650000000002
 10
7.467389999999796
 20
5.218859999999999
 10
7.459899999999834
 20
5.215170000000001
 10
7.429900000000089
 20
5.215170000000001
  0
LWPOLYLINE
  5
142
100
AcDbEntity
  8
0
  6
ByLayer
 62
  134
370
   -1
100
AcDbPolyline
 90
    2
 70
    0
 43
0
 10
6.977600000000166
 20
5.771709999999999
 10
6.951390000000174
 20
5.809190000000001
  0
LWPOLYLINE
  5
143
100
AcDbEntity
  8
0
  6
ByLayer
 62
  134
370
   -1
100
AcDbPolyline
 90
   11
 70
    0
 43
0
 10
6.932609999999841
 20
5.771709999999999
 10
6.932609999999841
 20
5.850369999999998
 10
6.962620000000243
 20
5.850369999999998
 10
6.970110000000204
 20
5.846679999999999
 10
6.973899999999958
 20
5.842890000000001
 10
6.977600000000166
 20
5.83539
 10
6.977600000000166
 20
5.824169999999999
 10
6.973899999999958
 20
5.816679999999998
 10
6.970110000000204
 20
5.81288
 10
6.962620000000243
 20
5.809190000000001
 10
6.932609999999841
 20
5.809190000000001
  0
LWPOLYLINE
  5
144
100
AcDbEntity
  8
0
  6
ByLayer
 62
  134
370
   -1
100
AcDbPolyline
 90
   10
 70
    0
 43
0
 10
7.011389999999665
 20
5.850369999999998
 10
7.011389999999665
 20
5.78668
 10
7.015080000000125
 20
5.77919
 10
7.018879999999626
 20
5.775390000000002
 10
7.026359999999841
 20
5.771709999999999
 10
7.04139000000032
 20
5.771709999999999
 10
7.048890000000029
 20
5.775390000000002
 10
7.052569999999832
 20
5.77919
 10
7.056370000000243
 20
5.78668
 10
7.056370000000243
 20
5.850369999999998
  0
LWPOLYLINE
  5
145
100
AcDbEntity
  8
0
  6
ByLayer
 62
  134
370
   -1
100
AcDbPolyline
 90
    4
 70
    0
 43
0
 10
7.093920000000253
 20
5.771709999999999
 10
7.093920000000253
 20
5.850369999999998
 10
7.138890000000174
 20
5.771709999999999
 10
7.138890000000174
 20
5.850369999999998
  0
LWPOLYLINE
  5
146
100
AcDbEntity
  8
0
  6
ByLayer
 62
  134
370
   -1
100
AcDbPolyline
 90
   21
 70
    1
 43
0
 10
5.560220000000299
 20
4.121580000000002
 10
5.575189999999566
 20
4.121580000000002
 10
5.590170000000398
 20
4.114100000000001
 10
5.597710000000006
 20
4.10661
 10
5.605190000000221
 20
4.09158
 10
5.612680000000182
 20
4.061579999999999
 10
5.612680000000182
 20
4.024079999999998
 10
5.605190000000221
 20
3.99408
 10
5.597710000000006
 20
3.97906
 10
5.590170000000398
 20
3.97157
 10
5.575189999999566
 20
3.964079999999999
 10
5.560220000000299
 20
3.964079999999999
 10
5.54518999999982
 20
3.97157
 10
5.537709999999606
 20
3.97906
 10
5.530219999999645
 20
3.99408
 10
5.522789999999986
 20
4.024079999999998
 10
5.522789999999986
 20
4.061579999999999
 10
5.530219999999645
 20
4.09158
 10
5.537709999999606
 20
4.10661
 10
5.54518999999982
 20
4.114100000000001
 10
5.560220000000299
 20
4.121580000000002
  0
LWPOLYLINE
  5
147
100
AcDbEntity
  8
0
  6
ByLayer
 62
  134
370
   -1
100
AcDbPolyline
 90
   22
 70
    0
 43
0
 10
4.945689999999558
 20
3.964079999999999
 10
4.975690000000213
 20
3.964079999999999
 10
4.990719999999783
 20
3.97157
 10
4.998209999999744
 20
3.97906
 10
5.01317999999992
 20
4.001570000000001
 10
5.020669999999882
 20
4.031570000000002
 10
5.020669999999882
 20
4.09158
 10
5.01317999999992
 20
4.10661
 10
5.005689999999959
 20
4.114100000000001
 10
4.990719999999783
 20
4.121580000000002
 10
4.960720000000038
 20
4.121580000000002
 10
4.945689999999558
 20
4.114100000000001
 10
4.938210000000254
 20
4.10661
 10
4.930779999999686
 20
4.09158
 10
4.930779999999686
 20
4.054099999999998
 10
4.938210000000254
 20
4.039069999999999
 10
4.945689999999558
 20
4.031570000000002
 10
4.960720000000038
 20
4.024079999999998
 10
4.990719999999783
 20
4.024079999999998
 10
5.005689999999959
 20
4.031570000000002
 10
5.01317999999992
 20
4.039069999999999
 10
5.020669999999882
 20
4.054099999999998
  0
LWPOLYLINE
  5
148
100
AcDbEntity
  8
0
  6
ByLayer
 62
  134
370
   -1
100
AcDbPolyline
 90
   32
 70
    0
 43
0
 10
4.368709999999737
 20
4.05208
 10
4.353680000000168
 20
4.059570000000001
 10
4.346190000000206
 20
4.067059999999998
 10
4.338819999999942
 20
4.082080000000001
 10
4.338819999999942
 20
4.089570000000002
 10
4.346190000000206
 20
4.104599999999998
 10
4.353680000000168
 20
4.112079999999999
 10
4.368709999999737
 20
4.11957
 10
4.398710000000392
 20
4.11957
 10
4.413679999999658
 20
4.112079999999999
 10
4.42116999999962
 20
4.104599999999998
 10
4.428710000000137
 20
4.089570000000002
 10
4.428710000000137
 20
4.082080000000001
 10
4.42116999999962
 20
4.067059999999998
 10
4.413679999999658
 20
4.059570000000001
 10
4.398710000000392
 20
4.05208
 10
4.368709999999737
 20
4.05208
 10
4.353680000000168
 20
4.044599999999999
 10
4.346190000000206
 20
4.03706
 10
4.338819999999942
 20
4.022079999999999
 10
4.338819999999942
 20
3.992080000000001
 10
4.346190000000206
 20
3.97711
 10
4.353680000000168
 20
3.969570000000001
 10
4.368709999999737
 20
3.96208
 10
4.398710000000392
 20
3.96208
 10
4.413679999999658
 20
3.969570000000001
 10
4.42116999999962
 20
3.97711
 10
4.428710000000137
 20
3.992080000000001
 10
4.428710000000137
 20
4.022079999999999
 10
4.42116999999962
 20
4.03706
 10
4.413679999999658
 20
4.044599999999999
 10
4.398710000000392
 20
4.05208
  0
LWPOLYLINE
  5
149
100
AcDbEntity
  8
0
  6
ByLayer
 62
  134
370
   -1
100
AcDbPolyline
 90
    3
 70
    0
 43
0
 10
3.737310000000434
 20
4.11957
 10
3.842179999999644
 20
4.11957
 10
3.774680000000444
 20
3.96208
  0
LWPOLYLINE
  5
14A
100
AcDbEntity
  8
0
  6
ByLayer
 62
  134
370
   -1
100
AcDbPolyline
 90
   22
 70
    0
 43
0
 10
5.303710000000137
 20
4.70356
 10
5.273710000000392
 20
4.70356
 10
5.258679999999913
 20
4.696069999999999
 10
5.251189999999951
 20
4.688580000000002
 10
5.236219999999776
 20
4.666070000000001
 10
5.228790000000117
 20
4.63607
 10
5.228790000000117
 20
4.576070000000001
 10
5.236219999999776
 20
4.56108
 10
5.243709999999737
 20
4.553599999999999
 10
5.258679999999913
 20
4.546060000000001
 10
5.288679999999658
 20
4.546060000000001
 10
5.303710000000137
 20
4.553599999999999
 10
5.311190000000352
 20
4.56108
 10
5.318680000000313
 20
4.576070000000001
 10
5.318680000000313
 20
4.613610000000001
 10
5.311190000000352
 20
4.628579999999999
 10
5.303710000000137
 20
4.63607
 10
5.288679999999658
 20
4.643560000000001
 10
5.258679999999913
 20
4.643560000000001
 10
5.243709999999737
 20
4.63607
 10
5.236219999999776
 20
4.628579999999999
 10
5.228790000000117
 20
4.613610000000001
  0
LWPOLYLINE
  5
14B
100
AcDbEntity
  8
0
  6
ByLayer
 62
  134
370
   -1
100
AcDbPolyline
 90
   16
 70
    0
 43
0
 10
4.721190000000206
 20
4.709579999999999
 10
4.646209999999883
 20
4.709579999999999
 10
4.638780000000224
 20
4.634599999999999
 10
4.646209999999883
 20
4.64208
 10
4.661180000000058
 20
4.64958
 10
4.698680000000422
 20
4.64958
 10
4.713709999999992
 20
4.64208
 10
4.721190000000206
 20
4.634599999999999
 10
4.728680000000168
 20
4.61957
 10
4.728680000000168
 20
4.582080000000001
 10
4.721190000000206
 20
4.567059999999998
 10
4.713709999999992
 20
4.559570000000001
 10
4.698680000000422
 20
4.55208
 10
4.661180000000058
 20
4.55208
 10
4.646209999999883
 20
4.559570000000001
 10
4.638780000000224
 20
4.567059999999998
  0
LWPOLYLINE
  5
14C
100
AcDbEntity
  8
0
  6
ByLayer
 62
  134
370
   -1
100
AcDbPolyline
 90
    2
 70
    0
 43
0
 10
4.101670000000013
 20
4.6511
 10
4.101670000000013
 20
4.546060000000001
  0
LWPOLYLINE
  5
14D
100
AcDbEntity
  8
0
  6
ByLayer
 62
  134
370
   -1
100
AcDbPolyline
 90
    3
 70
    0
 43
0
 10
4.064180000000306
 20
4.711100000000002
 10
4.026810000000296
 20
4.598579999999998
 10
4.124179999999797
 20
4.598579999999998
  0
LWPOLYLINE
  5
14E
100
AcDbEntity
  8
0
  6
ByLayer
 62
  134
370
   -1
100
AcDbPolyline
 90
   14
 70
    0
 43
0
 10
4.929310000000442
 20
5.307569999999998
 10
5.026689999999689
 20
5.307569999999998
 10
4.97418000000016
 20
5.24756
 10
4.996689999999944
 20
5.24756
 10
5.011720000000423
 20
5.240069999999999
 10
5.019210000000385
 20
5.232579999999999
 10
5.026689999999689
 20
5.217559999999999
 10
5.026689999999689
 20
5.180070000000001
 10
5.019210000000385
 20
5.165099999999999
 10
5.011720000000423
 20
5.157609999999998
 10
4.996689999999944
 20
5.150069999999999
 10
4.951710000000276
 20
5.150069999999999
 10
4.936789999999746
 20
5.157609999999998
 10
4.929310000000442
 20
5.165099999999999
  0
LWPOLYLINE
  5
14F
100
AcDbEntity
  8
0
  6
ByLayer
 62
  134
370
   -1
100
AcDbPolyline
 90
   11
 70
    0
 43
0
 10
4.332790000000386
 20
5.304580000000001
 10
4.340220000000045
 20
5.312069999999999
 10
4.355190000000221
 20
5.319610000000001
 10
4.392679999999928
 20
5.319610000000001
 10
4.407710000000407
 20
5.312069999999999
 10
4.415210000000116
 20
5.304580000000001
 10
4.42269000000033
 20
5.28961
 10
4.42269000000033
 20
5.27458
 10
4.415210000000116
 20
5.25206
 10
4.325310000000172
 20
5.16206
 10
4.42269000000033
 20
5.16206
  0
LWPOLYLINE
  5
150
100
AcDbEntity
  8
0
  6
ByLayer
 62
  134
370
   -1
100
AcDbPolyline
 90
    2
 70
    0
 43
0
 10
3.83669000000009
 20
5.156079999999999
 10
3.746809999999641
 20
5.156079999999999
  0
LWPOLYLINE
  5
151
100
AcDbEntity
  8
0
  6
ByLayer
 62
  134
370
   -1
100
AcDbPolyline
 90
    5
 70
    0
 43
0
 10
3.791720000000169
 20
5.156079999999999
 10
3.791720000000169
 20
5.313580000000002
 10
3.776689999999689
 20
5.291070000000001
 10
3.761720000000423
 20
5.2761
 10
3.746809999999641
 20
5.268560000000001
  0
LWPOLYLINE
  5
152
100
AcDbEntity
  8
0
  6
ByLayer
 62
  134
370
   -1
100
AcDbPolyline
 90
    6
 70
    0
 43
0
 10
5.273710000000392
 20
5.817
 10
5.284999999999854
 20
5.805669999999999
 10
5.273710000000392
 20
5.79449
 10
5.262469999999666
 20
5.805669999999999
 10
5.273710000000392
 20
5.817
 10
5.273710000000392
 20
5.79449
  0
LWPOLYLINE
  5
153
100
AcDbEntity
  8
0
  6
ByLayer
 62
  134
370
   -1
100
AcDbPolyline
 90
    2
 70
    0
 43
0
 10
4.615780000000086
 20
5.804099999999998
 10
4.735679999999775
 20
5.804099999999998
  0
LWPOLYLINE
  5
154
100
AcDbEntity
  8
0
  6
ByLayer
 62
  134
370
   -1
100
AcDbPolyline
 90
   16
 70
    0
 43
0
 10
3.9695099999999
 20
5.775179999999999
 10
3.965820000000349
 20
5.771380000000001
 10
3.954490000000078
 20
5.767679999999999
 10
3.947000000000116
 20
5.767679999999999
 10
3.935819999999694
 20
5.771380000000001
 10
3.928280000000086
 20
5.778860000000002
 10
3.924490000000333
 20
5.7864
 10
3.920790000000125
 20
5.801380000000002
 10
3.920790000000125
 20
5.812670000000001
 10
3.924490000000333
 20
5.82769
 10
3.928280000000086
 20
5.835180000000001
 10
3.935819999999694
 20
5.842669999999998
 10
3.947000000000116
 20
5.846360000000001
 10
3.954490000000078
 20
5.846360000000001
 10
3.965820000000349
 20
5.842669999999998
 10
3.9695099999999
 20
5.83886
  0
LWPOLYLINE
  5
155
100
AcDbEntity
  8
0
  6
ByLayer
 62
  134
370
   -1
100
AcDbPolyline
 90
    3
 70
    0
 43
0
 10
4.04081000000042
 20
5.767679999999999
 10
4.003310000000056
 20
5.767679999999999
 10
4.003310000000056
 20
5.846360000000001
  0
LWPOLYLINE
  5
156
100
AcDbEntity
  8
0
  6
ByLayer
 62
  134
370
   -1
100
AcDbPolyline
 90
    2
 70
    0
 43
0
 10
4.067000000000007
 20
5.808859999999999
 10
4.093209999999999
 20
5.808859999999999
  0
LWPOLYLINE
  5
157
100
AcDbEntity
  8
0
  6
ByLayer
 62
  134
370
   -1
100
AcDbPolyline
 90
    4
 70
    0
 43
0
 10
4.104489999999714
 20
5.767679999999999
 10
4.067000000000007
 20
5.767679999999999
 10
4.067000000000007
 20
5.846360000000001
 10
4.104489999999714
 20
5.846360000000001
  0
LWPOLYLINE
  5
158
100
AcDbEntity
  8
0
  6
ByLayer
 62
  134
370
   -1
100
AcDbPolyline
 90
    2
 70
    0
 43
0
 10
4.134500000000116
 20
5.790210000000002
 10
4.171989999999823
 20
5.790210000000002
  0
LWPOLYLINE
  5
159
100
AcDbEntity
  8
0
  6
ByLayer
 62
  134
370
   -1
100
AcDbPolyline
 90
    3
 70
    0
 43
0
 10
4.127010000000155
 20
5.767679999999999
 10
4.153210000000399
 20
5.846360000000001
 10
4.179470000000038
 20
5.767679999999999
  0
LWPOLYLINE
  5
15A
100
AcDbEntity
  8
0
  6
ByLayer
 62
  134
370
   -1
100
AcDbPolyline
 90
    2
 70
    0
 43
0
 10
4.250710000000254
 20
5.767679999999999
 10
4.224500000000262
 20
5.80518
  0
LWPOLYLINE
  5
15B
100
AcDbEntity
  8
0
  6
ByLayer
 62
  134
370
   -1
100
AcDbPolyline
 90
   11
 70
    0
 43
0
 10
4.205680000000029
 20
5.767679999999999
 10
4.205680000000029
 20
5.846360000000001
 10
4.235679999999775
 20
5.846360000000001
 10
4.243220000000292
 20
5.842669999999998
 10
4.247010000000046
 20
5.83886
 10
4.250710000000254
 20
5.831379999999999
 10
4.250710000000254
 20
5.820209999999999
 10
4.247010000000046
 20
5.812670000000001
 10
4.243220000000292
 20
5.808859999999999
 10
4.235679999999775
 20
5.80518
 10
4.205680000000029
 20
5.80518
  0
LWPOLYLINE
  5
15C
100
AcDbEntity
  8
0
  6
ByLayer
 62
  134
370
   -1
100
AcDbPolyline
 90
    4
 70
    0
 43
0
 10
2.463600000000042
 20
4.086690000000001
 10
2.463600000000042
 20
4.16536
 10
2.508569999999963
 20
4.086690000000001
 10
2.508569999999963
 20
4.16536
  0
LWPOLYLINE
  5
15D
100
AcDbEntity
  8
0
  6
ByLayer
 62
  134
370
   -1
100
AcDbPolyline
 90
   17
 70
    1
 43
0
 10
2.561080000000402
 20
4.16536
 10
2.576109999999971
 20
4.16536
 10
2.58360999999968
 20
4.161570000000001
 10
2.591099999999642
 20
4.15408
 10
2.594890000000305
 20
4.139109999999999
 10
2.594890000000305
 20
4.1129
 10
2.591099999999642
 20
4.09787
 10
2.58360999999968
 20
4.090389999999999
 10
2.576109999999971
 20
4.086690000000001
 10
2.561080000000402
 20
4.086690000000001
 10
2.553600000000188
 20
4.090389999999999
 10
2.546110000000226
 20
4.09787
 10
2.542370000000119
 20
4.1129
 10
2.542370000000119
 20
4.139109999999999
 10
2.546110000000226
 20
4.15408
 10
2.553600000000188
 20
4.161570000000001
 10
2.561080000000402
 20
4.16536
  0
LWPOLYLINE
  5
15E
100
AcDbEntity
  8
0
  6
ByLayer
 62
  134
370
   -1
100
AcDbPolyline
 90
    2
 70
    0
 43
0
 10
2.673609999999826
 20
4.086690000000001
 10
2.647399999999834
 20
4.124079999999999
  0
LWPOLYLINE
  5
15F
100
AcDbEntity
  8
0
  6
ByLayer
 62
  134
370
   -1
100
AcDbPolyline
 90
   11
 70
    0
 43
0
 10
2.628579999999602
 20
4.086690000000001
 10
2.628579999999602
 20
4.16536
 10
2.658580000000256
 20
4.16536
 10
2.666119999999864
 20
4.161570000000001
 10
2.669920000000275
 20
4.157879999999999
 10
2.673609999999826
 20
4.150390000000002
 10
2.673609999999826
 20
4.139109999999999
 10
2.669920000000275
 20
4.13157
 10
2.666119999999864
 20
4.127880000000001
 10
2.658580000000256
 20
4.124079999999999
 10
2.628579999999602
 20
4.124079999999999
  0
LWPOLYLINE
  5
160
100
AcDbEntity
  8
0
  6
ByLayer
 62
  134
370
   -1
100
AcDbPolyline
 90
    5
 70
    0
 43
0
 10
2.707419999999729
 20
4.086690000000001
 10
2.707419999999729
 20
4.16536
 10
2.733610000000226
 20
4.10915
 10
2.759879999999612
 20
4.16536
 10
2.759879999999612
 20
4.086690000000001
  0
LWPOLYLINE
  5
161
100
AcDbEntity
  8
0
  6
ByLayer
 62
  134
370
   -1
100
AcDbPolyline
 90
    2
 70
    0
 43
0
 10
2.497400000000198
 20
3.956710000000001
 10
2.471080000000256
 20
3.99419
  0
LWPOLYLINE
  5
162
100
AcDbEntity
  8
0
  6
ByLayer
 62
  134
370
   -1
100
AcDbPolyline
 90
   11
 70
    0
 43
0
 10
2.45241999999962
 20
3.956710000000001
 10
2.45241999999962
 20
4.035489999999999
 10
2.482420000000275
 20
4.035489999999999
 10
2.489899999999579
 20
4.031680000000001
 10
2.493599999999788
 20
4.027999999999999
 10
2.497400000000198
 20
4.020510000000002
 10
2.497400000000198
 20
4.009170000000001
 10
2.493599999999788
 20
4.00168
 10
2.489899999999579
 20
3.997990000000001
 10
2.482420000000275
 20
3.99419
 10
2.45241999999962
 20
3.99419
  0
LWPOLYLINE
  5
163
100
AcDbEntity
  8
0
  6
ByLayer
 62
  134
370
   -1
100
AcDbPolyline
 90
    2
 70
    0
 43
0
 10
2.531079999999747
 20
3.997990000000001
 10
2.557399999999689
 20
3.997990000000001
  0
LWPOLYLINE
  5
164
100
AcDbEntity
  8
0
  6
ByLayer
 62
  134
370
   -1
100
AcDbPolyline
 90
    4
 70
    0
 43
0
 10
2.568580000000111
 20
3.956710000000001
 10
2.531079999999747
 20
3.956710000000001
 10
2.531079999999747
 20
4.035489999999999
 10
2.568580000000111
 20
4.035489999999999
  0
LWPOLYLINE
  5
165
100
AcDbEntity
  8
0
  6
ByLayer
 62
  134
370
   -1
100
AcDbPolyline
 90
   20
 70
    0
 43
0
 10
2.598579999999856
 20
3.9605
 10
2.609919999999875
 20
3.956710000000001
 10
2.628579999999602
 20
3.956710000000001
 10
2.636120000000119
 20
3.9605
 10
2.63991999999962
 20
3.964189999999999
 10
2.643610000000081
 20
3.971679999999999
 10
2.643610000000081
 20
3.97917
 10
2.63991999999962
 20
3.986709999999999
 10
2.636120000000119
 20
3.990500000000001
 10
2.628579999999602
 20
3.99419
 10
2.613610000000335
 20
3.997990000000001
 10
2.606130000000121
 20
4.00168
 10
2.602380000000267
 20
4.005490000000002
 10
2.598579999999856
 20
4.012969999999999
 10
2.598579999999856
 20
4.020510000000002
 10
2.602380000000267
 20
4.027999999999999
 10
2.606130000000121
 20
4.031680000000001
 10
2.613610000000335
 20
4.035489999999999
 10
2.632380000000012
 20
4.035489999999999
 10
2.643610000000081
 20
4.031680000000001
  0
LWPOLYLINE
  5
166
100
AcDbEntity
  8
0
  6
ByLayer
 62
  134
370
   -1
100
AcDbPolyline
 90
    2
 70
    0
 43
0
 10
2.677399999999579
 20
3.997990000000001
 10
2.703609999999571
 20
3.997990000000001
  0
LWPOLYLINE
  5
167
100
AcDbEntity
  8
0
  6
ByLayer
 62
  134
370
   -1
100
AcDbPolyline
 90
    4
 70
    0
 43
0
 10
2.714899999999943
 20
3.956710000000001
 10
2.677399999999579
 20
3.956710000000001
 10
2.677399999999579
 20
4.035489999999999
 10
2.714899999999943
 20
4.035489999999999
  0
LWPOLYLINE
  5
168
100
AcDbEntity
  8
0
  6
ByLayer
 62
  134
370
   -1
100
AcDbPolyline
 90
    2
 70
    0
 43
0
 10
2.737420000000384
 20
4.035489999999999
 10
2.782280000000355
 20
4.035489999999999
  0
LWPOLYLINE
  5
169
100
AcDbEntity
  8
0
  6
ByLayer
 62
  134
370
   -1
100
AcDbPolyline
 90
    2
 70
    0
 43
0
 10
2.759879999999612
 20
3.956710000000001
 10
2.759879999999612
 20
4.035489999999999
  0
LWPOLYLINE
  5
16A
100
AcDbEntity
  8
0
  6
ByLayer
 62
  134
370
   -1
100
AcDbPolyline
 90
    2
 70
    0
 43
0
 10
2.783809999999903
 20
4.668680000000002
 10
2.783809999999903
 20
4.747399999999999
  0
LWPOLYLINE
  5
16B
100
AcDbEntity
  8
0
  6
ByLayer
 62
  134
370
   -1
100
AcDbPolyline
 90
    4
 70
    0
 43
0
 10
2.821289999999863
 20
4.668680000000002
 10
2.821289999999863
 20
4.747399999999999
 10
2.866210000000137
 20
4.668680000000002
 10
2.866210000000137
 20
4.747399999999999
  0
LWPOLYLINE
  5
16C
100
AcDbEntity
  8
0
  6
ByLayer
 62
  134
370
   -1
100
AcDbPolyline
 90
   16
 70
    0
 43
0
 10
2.948680000000422
 20
4.676169999999999
 10
2.944989999999962
 20
4.672360000000001
 10
2.933710000000247
 20
4.668680000000002
 10
2.926220000000285
 20
4.668680000000002
 10
2.914990000000216
 20
4.672360000000001
 10
2.907500000000255
 20
4.6799
 10
2.903690000000097
 20
4.687390000000001
 10
2.900010000000293
 20
4.702359999999999
 10
2.900010000000293
 20
4.7136
 10
2.903690000000097
 20
4.728570000000001
 10
2.907500000000255
 20
4.736060000000002
 10
2.914990000000216
 20
4.743600000000001
 10
2.926220000000285
 20
4.747399999999999
 10
2.933710000000247
 20
4.747399999999999
 10
2.944989999999962
 20
4.743600000000001
 10
2.948680000000422
 20
4.73986
  0
LWPOLYLINE
  5
16D
100
AcDbEntity
  8
0
  6
ByLayer
 62
  134
370
   -1
100
AcDbPolyline
 90
    2
 70
    0
 43
0
 10
3.027500000000146
 20
4.668680000000002
 10
3.001189999999951
 20
4.706060000000001
  0
LWPOLYLINE
  5
16E
100
AcDbEntity
  8
0
  6
ByLayer
 62
  134
370
   -1
100
AcDbPolyline
 90
   11
 70
    0
 43
0
 10
2.982469999999921
 20
4.668680000000002
 10
2.982469999999921
 20
4.747399999999999
 10
3.012469999999666
 20
4.747399999999999
 10
3.020010000000184
 20
4.743600000000001
 10
3.023710000000392
 20
4.73986
 10
3.027500000000146
 20
4.73236
 10
3.027500000000146
 20
4.721080000000001
 10
3.023710000000392
 20
4.7136
 10
3.020010000000184
 20
4.709900000000001
 10
3.012469999999666
 20
4.706060000000001
 10
2.982469999999921
 20
4.706060000000001
  0
LWPOLYLINE
  5
16F
100
AcDbEntity
  8
0
  6
ByLayer
 62
  134
370
   -1
100
AcDbPolyline
 90
    2
 70
    0
 43
0
 10
2.766870000000381
 20
4.56119
 10
2.804420000000391
 20
4.56119
  0
LWPOLYLINE
  5
170
100
AcDbEntity
  8
0
  6
ByLayer
 62
  134
370
   -1
100
AcDbPolyline
 90
    3
 70
    0
 43
0
 10
2.759390000000167
 20
4.538679999999999
 10
2.785600000000159
 20
4.617460000000001
 10
2.811899999999696
 20
4.538679999999999
  0
LWPOLYLINE
  5
171
100
AcDbEntity
  8
0
  6
ByLayer
 62
  134
370
   -1
100
AcDbPolyline
 90
   13
 70
    1
 43
0
 10
2.838109999999688
 20
4.538679999999999
 10
2.838109999999688
 20
4.617460000000001
 10
2.856880000000274
 20
4.617460000000001
 10
2.868110000000343
 20
4.613669999999999
 10
2.875600000000304
 20
4.606180000000002
 10
2.879390000000058
 20
4.598680000000002
 10
2.883079999999609
 20
4.583649999999999
 10
2.883079999999609
 20
4.572490000000002
 10
2.879390000000058
 20
4.557459999999999
 10
2.875600000000304
 20
4.549970000000002
 10
2.868110000000343
 20
4.542490000000001
 10
2.856880000000274
 20
4.538679999999999
 10
2.838109999999688
 20
4.538679999999999
  0
LWPOLYLINE
  5
172
100
AcDbEntity
  8
0
  6
ByLayer
 62
  134
370
   -1
100
AcDbPolyline
 90
   13
 70
    1
 43
0
 10
2.916890000000421
 20
4.538679999999999
 10
2.916890000000421
 20
4.617460000000001
 10
2.935599999999795
 20
4.617460000000001
 10
2.946890000000167
 20
4.613669999999999
 10
2.954370000000381
 20
4.606180000000002
 10
2.958109999999579
 20
4.598680000000002
 10
2.961919999999736
 20
4.583649999999999
 10
2.961919999999736
 20
4.572490000000002
 10
2.958109999999579
 20
4.557459999999999
 10
2.954370000000381
 20
4.549970000000002
 10
2.946890000000167
 20
4.542490000000001
 10
2.935599999999795
 20
4.538679999999999
 10
2.916890000000421
 20
4.538679999999999
  0
LWPOLYLINE
  5
173
100
AcDbEntity
  8
0
  6
ByLayer
 62
  134
370
   -1
100
AcDbPolyline
 90
    2
 70
    0
 43
0
 10
3.040579999999864
 20
4.538679999999999
 10
3.014379999999619
 20
4.576170000000001
  0
LWPOLYLINE
  5
174
100
AcDbEntity
  8
0
  6
ByLayer
 62
  134
370
   -1
100
AcDbPolyline
 90
   11
 70
    0
 43
0
 10
2.995609999999942
 20
4.538679999999999
 10
2.995609999999942
 20
4.617460000000001
 10
3.025609999999688
 20
4.617460000000001
 10
3.033099999999649
 20
4.613669999999999
 10
3.036890000000312
 20
4.609970000000001
 10
3.040579999999864
 20
4.60249
 10
3.040579999999864
 20
4.591190000000001
 10
3.036890000000312
 20
4.583649999999999
 10
3.033099999999649
 20
4.579969999999999
 10
3.025609999999688
 20
4.576170000000001
 10
2.995609999999942
 20
4.576170000000001
  0
LWPOLYLINE
  5
175
100
AcDbEntity
  8
0
  6
ByLayer
 62
  134
370
   -1
100
AcDbPolyline
 90
   13
 70
    1
 43
0
 10
2.180779999999686
 20
4.654679999999999
 10
2.180779999999686
 20
4.7334
 10
2.199489999999969
 20
4.7334
 10
2.210780000000341
 20
4.729599999999998
 10
2.218319999999949
 20
4.722059999999999
 10
2.221999999999753
 20
4.714570000000002
 10
2.22580999999991
 20
4.6996
 10
2.22580999999991
 20
4.688369999999999
 10
2.221999999999753
 20
4.673390000000001
 10
2.218319999999949
 20
4.665900000000001
 10
2.210780000000341
 20
4.658360000000002
 10
2.199489999999969
 20
4.654679999999999
 10
2.180779999999686
 20
4.654679999999999
  0
LWPOLYLINE
  5
176
100
AcDbEntity
  8
0
  6
ByLayer
 62
  134
370
   -1
100
AcDbPolyline
 90
    2
 70
    0
 43
0
 10
2.259500000000116
 20
4.69586
 10
2.285689999999704
 20
4.69586
  0
LWPOLYLINE
  5
177
100
AcDbEntity
  8
0
  6
ByLayer
 62
  134
370
   -1
100
AcDbPolyline
 90
    4
 70
    0
 43
0
 10
2.296989999999823
 20
4.654679999999999
 10
2.259500000000116
 20
4.654679999999999
 10
2.259500000000116
 20
4.7334
 10
2.296989999999823
 20
4.7334
  0
LWPOLYLINE
  5
178
100
AcDbEntity
  8
0
  6
ByLayer
 62
  134
370
   -1
100
AcDbPolyline
 90
   16
 70
    0
 43
0
 10
2.375710000000254
 20
4.66217
 10
2.372010000000046
 20
4.658360000000002
 10
2.360679999999775
 20
4.654679999999999
 10
2.353189999999813
 20
4.654679999999999
 10
2.3420100000003
 20
4.658360000000002
 10
2.334469999999783
 20
4.665900000000001
 10
2.330680000000029
 20
4.673390000000001
 10
2.326989999999569
 20
4.688369999999999
 10
2.326989999999569
 20
4.6996
 10
2.330680000000029
 20
4.714570000000002
 10
2.334469999999783
 20
4.722059999999999
 10
2.3420100000003
 20
4.729599999999998
 10
2.353189999999813
 20
4.7334
 10
2.360679999999775
 20
4.7334
 10
2.372010000000046
 20
4.729599999999998
 10
2.375710000000254
 20
4.725860000000001
  0
LWPOLYLINE
  5
179
100
AcDbEntity
  8
0
  6
ByLayer
 62
  134
370
   -1
100
AcDbPolyline
 90
    2
 70
    0
 43
0
 10
2.454490000000078
 20
4.654679999999999
 10
2.428219999999783
 20
4.692059999999998
  0
LWPOLYLINE
  5
17A
100
AcDbEntity
  8
0
  6
ByLayer
 62
  134
370
   -1
100
AcDbPolyline
 90
   11
 70
    0
 43
0
 10
2.409499999999753
 20
4.654679999999999
 10
2.409499999999753
 20
4.7334
 10
2.439510000000155
 20
4.7334
 10
2.447000000000116
 20
4.729599999999998
 10
2.45067999999992
 20
4.725860000000001
 10
2.454490000000078
 20
4.71837
 10
2.454490000000078
 20
4.707080000000001
 10
2.45067999999992
 20
4.6996
 10
2.447000000000116
 20
4.69586
 10
2.439510000000155
 20
4.692059999999998
 10
2.409499999999753
 20
4.692059999999998
  0
LWPOLYLINE
  5
17B
100
AcDbEntity
  8
0
  6
ByLayer
 62
  134
370
   -1
100
AcDbPolyline
 90
    2
 70
    0
 43
0
 10
2.178869999999733
 20
4.547190000000001
 10
2.216419999999744
 20
4.547190000000001
  0
LWPOLYLINE
  5
17C
100
AcDbEntity
  8
0
  6
ByLayer
 62
  134
370
   -1
100
AcDbPolyline
 90
    3
 70
    0
 43
0
 10
2.171390000000429
 20
4.52468
 10
2.197600000000421
 20
4.603459999999998
 10
2.223899999999958
 20
4.52468
  0
LWPOLYLINE
  5
17D
100
AcDbEntity
  8
0
  6
ByLayer
 62
  134
370
   -1
100
AcDbPolyline
 90
   13
 70
    1
 43
0
 10
2.25010999999995
 20
4.52468
 10
2.25010999999995
 20
4.603459999999998
 10
2.268869999999879
 20
4.603459999999998
 10
2.280109999999695
 20
4.59967
 10
2.287599999999657
 20
4.592179999999999
 10
2.29139000000032
 20
4.584690000000002
 10
2.295079999999871
 20
4.569670000000002
 10
2.295079999999871
 20
4.558489999999999
 10
2.29139000000032
 20
4.54346
 10
2.287599999999657
 20
4.535969999999999
 10
2.280109999999695
 20
4.528489999999998
 10
2.268869999999879
 20
4.52468
 10
2.25010999999995
 20
4.52468
  0
LWPOLYLINE
  5
17E
100
AcDbEntity
  8
0
  6
ByLayer
 62
  134
370
   -1
100
AcDbPolyline
 90
   13
 70
    1
 43
0
 10
2.328889999999774
 20
4.52468
 10
2.328889999999774
 20
4.603459999999998
 10
2.347600000000057
 20
4.603459999999998
 10
2.358890000000429
 20
4.59967
 10
2.366369999999733
 20
4.592179999999999
 10
2.370109999999841
 20
4.584690000000002
 10
2.373919999999998
 20
4.569670000000002
 10
2.373919999999998
 20
4.558489999999999
 10
2.370109999999841
 20
4.54346
 10
2.366369999999733
 20
4.535969999999999
 10
2.358890000000429
 20
4.528489999999998
 10
2.347600000000057
 20
4.52468
 10
2.328889999999774
 20
4.52468
  0
LWPOLYLINE
  5
17F
100
AcDbEntity
  8
0
  6
ByLayer
 62
  134
370
   -1
100
AcDbPolyline
 90
    2
 70
    0
 43
0
 10
2.452580000000125
 20
4.52468
 10
2.426379999999881
 20
4.562179999999998
  0
LWPOLYLINE
  5
180
100
AcDbEntity
  8
0
  6
ByLayer
 62
  134
370
   -1
100
AcDbPolyline
 90
   11
 70
    0
 43
0
 10
2.407610000000204
 20
4.52468
 10
2.407610000000204
 20
4.603459999999998
 10
2.43760999999995
 20
4.603459999999998
 10
2.445099999999911
 20
4.59967
 10
2.448889999999665
 20
4.595970000000001
 10
2.452580000000125
 20
4.58849
 10
2.452580000000125
 20
4.577210000000001
 10
2.448889999999665
 20
4.569670000000002
 10
2.445099999999911
 20
4.56597
 10
2.43760999999995
 20
4.562179999999998
 10
2.407610000000204
 20
4.562179999999998
  0
LWPOLYLINE
  5
181
100
AcDbEntity
  8
0
  6
ByLayer
 62
  134
370
   -1
100
AcDbPolyline
 90
    3
 70
    0
 43
0
 10
2.523820000000342
 20
5.262689999999999
 10
2.486280000000079
 20
5.262689999999999
 10
2.486280000000079
 20
5.341360000000002
  0
LWPOLYLINE
  5
182
100
AcDbEntity
  8
0
  6
ByLayer
 62
  134
370
   -1
100
AcDbPolyline
 90
   17
 70
    1
 43
0
 10
2.5649999999996
 20
5.341360000000002
 10
2.580030000000079
 20
5.341360000000002
 10
2.587510000000293
 20
5.337569999999999
 10
2.595000000000255
 20
5.330079999999999
 10
2.598680000000058
 20
5.315110000000001
 10
2.598680000000058
 20
5.288899999999998
 10
2.595000000000255
 20
5.273869999999999
 10
2.587510000000293
 20
5.266390000000001
 10
2.580030000000079
 20
5.262689999999999
 10
2.5649999999996
 20
5.262689999999999
 10
2.557509999999638
 20
5.266390000000001
 10
2.550030000000334
 20
5.273869999999999
 10
2.54627999999957
 20
5.288899999999998
 10
2.54627999999957
 20
5.315110000000001
 10
2.550030000000334
 20
5.330079999999999
 10
2.557509999999638
 20
5.337569999999999
 10
2.5649999999996
 20
5.341360000000002
  0
LWPOLYLINE
  5
183
100
AcDbEntity
  8
0
  6
ByLayer
 62
  134
370
   -1
100
AcDbPolyline
 90
    2
 70
    0
 43
0
 10
2.628689999999551
 20
5.285150000000002
 10
2.666180000000168
 20
5.285150000000002
  0
LWPOLYLINE
  5
184
100
AcDbEntity
  8
0
  6
ByLayer
 62
  134
370
   -1
100
AcDbPolyline
 90
    3
 70
    0
 43
0
 10
2.621210000000247
 20
5.262689999999999
 10
2.647509999999784
 20
5.341360000000002
 10
2.673719999999776
 20
5.262689999999999
  0
LWPOLYLINE
  5
185
100
AcDbEntity
  8
0
  6
ByLayer
 62
  134
370
   -1
100
AcDbPolyline
 90
   13
 70
    1
 43
0
 10
2.699969999999666
 20
5.262689999999999
 10
2.699969999999666
 20
5.341360000000002
 10
2.718689999999697
 20
5.341360000000002
 10
2.729989999999816
 20
5.337569999999999
 10
2.737530000000334
 20
5.330079999999999
 10
2.741210000000137
 20
5.322600000000001
 10
2.745009999999638
 20
5.307569999999998
 10
2.745009999999638
 20
5.296389999999999
 10
2.741210000000137
 20
5.281359999999999
 10
2.737530000000334
 20
5.273869999999999
 10
2.729989999999816
 20
5.266390000000001
 10
2.718689999999697
 20
5.262689999999999
 10
2.699969999999666
 20
5.262689999999999
  0
LWPOLYLINE
  5
186
100
AcDbEntity
  8
0
  6
ByLayer
 62
  134
370
   -1
100
AcDbPolyline
 90
   20
 70
    0
 43
0
 10
2.444989999999962
 20
5.136499999999998
 10
2.456280000000334
 20
5.132709999999999
 10
2.474989999999707
 20
5.132709999999999
 10
2.482469999999921
 20
5.136499999999998
 10
2.486280000000079
 20
5.14019
 10
2.490010000000439
 20
5.147680000000001
 10
2.490010000000439
 20
5.155169999999998
 10
2.486280000000079
 20
5.162710000000001
 10
2.482469999999921
 20
5.166499999999999
 10
2.474989999999707
 20
5.170189999999998
 10
2.460009999999784
 20
5.17399
 10
2.452470000000176
 20
5.177679999999999
 10
2.448790000000372
 20
5.181470000000001
 10
2.444989999999962
 20
5.188960000000002
 10
2.444989999999962
 20
5.1965
 10
2.448790000000372
 20
5.204000000000001
 10
2.452470000000176
 20
5.20768
 10
2.460009999999784
 20
5.211490000000001
 10
2.478790000000117
 20
5.211490000000001
 10
2.490010000000439
 20
5.20768
  0
LWPOLYLINE
  5
187
100
AcDbEntity
  8
0
  6
ByLayer
 62
  134
370
   -1
100
AcDbPolyline
 90
    2
 70
    0
 43
0
 10
2.512469999999666
 20
5.211490000000001
 10
2.557509999999638
 20
5.211490000000001
  0
LWPOLYLINE
  5
188
100
AcDbEntity
  8
0
  6
ByLayer
 62
  134
370
   -1
100
AcDbPolyline
 90
    2
 70
    0
 43
0
 10
2.534999999999854
 20
5.132709999999999
 10
2.534999999999854
 20
5.211490000000001
  0
LWPOLYLINE
  5
189
100
AcDbEntity
  8
0
  6
ByLayer
 62
  134
370
   -1
100
AcDbPolyline
 90
   17
 70
    1
 43
0
 10
2.598680000000058
 20
5.211490000000001
 10
2.613720000000285
 20
5.211490000000001
 10
2.621210000000247
 20
5.20768
 10
2.628689999999551
 20
5.200189999999999
 10
2.632489999999962
 20
5.185169999999999
 10
2.632489999999962
 20
5.15896
 10
2.628689999999551
 20
5.143989999999999
 10
2.621210000000247
 20
5.136499999999998
 10
2.613720000000285
 20
5.132709999999999
 10
2.598680000000058
 20
5.132709999999999
 10
2.591190000000097
 20
5.136499999999998
 10
2.583709999999883
 20
5.143989999999999
 10
2.580030000000079
 20
5.15896
 10
2.580030000000079
 20
5.185169999999999
 10
2.583709999999883
 20
5.200189999999999
 10
2.591190000000097
 20
5.20768
 10
2.598680000000058
 20
5.211490000000001
  0
LWPOLYLINE
  5
18A
100
AcDbEntity
  8
0
  6
ByLayer
 62
  134
370
   -1
100
AcDbPolyline
 90
    2
 70
    0
 43
0
 10
2.711210000000392
 20
5.132709999999999
 10
2.6850000000004
 20
5.170189999999998
  0
LWPOLYLINE
  5
18B
100
AcDbEntity
  8
0
  6
ByLayer
 62
  134
370
   -1
100
AcDbPolyline
 90
   11
 70
    0
 43
0
 10
2.666180000000168
 20
5.132709999999999
 10
2.666180000000168
 20
5.211490000000001
 10
2.696179999999913
 20
5.211490000000001
 10
2.70372000000043
 20
5.20768
 10
2.707510000000184
 20
5.204000000000001
 10
2.711210000000392
 20
5.1965
 10
2.711210000000392
 20
5.185169999999999
 10
2.707510000000184
 20
5.177679999999999
 10
2.70372000000043
 20
5.17399
 10
2.696179999999913
 20
5.170189999999998
 10
2.666180000000168
 20
5.170189999999998
  0
LWPOLYLINE
  5
18C
100
AcDbEntity
  8
0
  6
ByLayer
 62
  134
370
   -1
100
AcDbPolyline
 90
    2
 70
    0
 43
0
 10
2.745009999999638
 20
5.17399
 10
2.771209999999883
 20
5.17399
  0
LWPOLYLINE
  5
18D
100
AcDbEntity
  8
0
  6
ByLayer
 62
  134
370
   -1
100
AcDbPolyline
 90
    4
 70
    0
 43
0
 10
2.782500000000255
 20
5.132709999999999
 10
2.745009999999638
 20
5.132709999999999
 10
2.745009999999638
 20
5.211490000000001
 10
2.782500000000255
 20
5.211490000000001
  0
LWPOLYLINE
  5
18E
100
AcDbEntity
  8
0
  6
ByLayer
 62
  134
370
   -1
100
AcDbPolyline
 90
    3
 70
    0
 43
0
 10
2.819819999999709
 20
5.834690000000002
 10
2.782280000000355
 20
5.834690000000002
 10
2.782280000000355
 20
5.913360000000001
  0
LWPOLYLINE
  5
18F
100
AcDbEntity
  8
0
  6
ByLayer
 62
  134
370
   -1
100
AcDbPolyline
 90
   17
 70
    1
 43
0
 10
2.860999999999876
 20
5.913360000000001
 10
2.875970000000052
 20
5.913360000000001
 10
2.88350999999966
 20
5.909559999999999
 10
2.890999999999622
 20
5.902070000000002
 10
2.894690000000082
 20
5.8871
 10
2.894690000000082
 20
5.860890000000001
 10
2.890999999999622
 20
5.845860000000002
 10
2.88350999999966
 20
5.838380000000001
 10
2.875970000000052
 20
5.834690000000002
 10
2.860999999999876
 20
5.834690000000002
 10
2.853509999999915
 20
5.838380000000001
 10
2.845970000000307
 20
5.845860000000002
 10
2.842289999999593
 20
5.860890000000001
 10
2.842289999999593
 20
5.8871
 10
2.845970000000307
 20
5.902070000000002
 10
2.853509999999915
 20
5.909559999999999
 10
2.860999999999876
 20
5.913360000000001
  0
LWPOLYLINE
  5
190
100
AcDbEntity
  8
0
  6
ByLayer
 62
  134
370
   -1
100
AcDbPolyline
 90
    2
 70
    0
 43
0
 10
2.924689999999828
 20
5.857210000000002
 10
2.962180000000444
 20
5.857210000000002
  0
LWPOLYLINE
  5
191
100
AcDbEntity
  8
0
  6
ByLayer
 62
  134
370
   -1
100
AcDbPolyline
 90
    3
 70
    0
 43
0
 10
2.917209999999614
 20
5.834690000000002
 10
2.943529999999555
 20
5.913360000000001
 10
2.969670000000406
 20
5.834690000000002
  0
LWPOLYLINE
  5
192
100
AcDbEntity
  8
0
  6
ByLayer
 62
  134
370
   -1
100
AcDbPolyline
 90
   13
 70
    1
 43
0
 10
2.995990000000347
 20
5.834690000000002
 10
2.995990000000347
 20
5.913360000000001
 10
3.014710000000377
 20
5.913360000000001
 10
3.025990000000093
 20
5.909559999999999
 10
3.033470000000307
 20
5.902070000000002
 10
3.037220000000161
 20
5.894580000000001
 10
3.041009999999915
 20
5.879559999999998
 10
3.041009999999915
 20
5.868380000000002
 10
3.037220000000161
 20
5.853349999999999
 10
3.033470000000307
 20
5.845860000000002
 10
3.025990000000093
 20
5.838380000000001
 10
3.014710000000377
 20
5.834690000000002
 10
2.995990000000347
 20
5.834690000000002
  0
LWPOLYLINE
  5
193
100
AcDbEntity
  8
0
  6
ByLayer
 62
  134
370
   -1
100
AcDbPolyline
 90
    2
 70
    0
 43
0
 10
2.772890000000189
 20
5.727150000000002
 10
2.810389999999643
 20
5.727150000000002
  0
LWPOLYLINE
  5
194
100
AcDbEntity
  8
0
  6
ByLayer
 62
  134
370
   -1
100
AcDbPolyline
 90
    3
 70
    0
 43
0
 10
2.765400000000227
 20
5.704689999999999
 10
2.791610000000219
 20
5.783470000000001
 10
2.817869999999857
 20
5.704689999999999
  0
LWPOLYLINE
  5
195
100
AcDbEntity
  8
0
  6
ByLayer
 62
  134
370
   -1
100
AcDbPolyline
 90
   13
 70
    1
 43
0
 10
2.844070000000102
 20
5.704689999999999
 10
2.844070000000102
 20
5.783470000000001
 10
2.862900000000081
 20
5.783470000000001
 10
2.874079999999594
 20
5.779679999999999
 10
2.881629999999859
 20
5.772190000000002
 10
2.885419999999613
 20
5.764710000000001
 10
2.889110000000073
 20
5.749679999999998
 10
2.889110000000073
 20
5.738500000000002
 10
2.885419999999613
 20
5.723469999999999
 10
2.881629999999859
 20
5.715989999999998
 10
2.874079999999594
 20
5.708500000000001
 10
2.862900000000081
 20
5.704689999999999
 10
2.844070000000102
 20
5.704689999999999
  0
LWPOLYLINE
  5
196
100
AcDbEntity
  8
0
  6
ByLayer
 62
  134
370
   -1
100
AcDbPolyline
 90
   13
 70
    1
 43
0
 10
2.922899999999572
 20
5.704689999999999
 10
2.922899999999572
 20
5.783470000000001
 10
2.941619999999602
 20
5.783470000000001
 10
2.952900000000227
 20
5.779679999999999
 10
2.960390000000189
 20
5.772190000000002
 10
2.96407999999974
 20
5.764710000000001
 10
2.967889999999898
 20
5.749679999999998
 10
2.967889999999898
 20
5.738500000000002
 10
2.96407999999974
 20
5.723469999999999
 10
2.960390000000189
 20
5.715989999999998
 10
2.952900000000227
 20
5.708500000000001
 10
2.941619999999602
 20
5.704689999999999
 10
2.922899999999572
 20
5.704689999999999
  0
LWPOLYLINE
  5
197
100
AcDbEntity
  8
0
  6
ByLayer
 62
  134
370
   -1
100
AcDbPolyline
 90
    2
 70
    0
 43
0
 10
3.046599999999671
 20
5.704689999999999
 10
3.020400000000336
 20
5.742190000000001
  0
LWPOLYLINE
  5
198
100
AcDbEntity
  8
0
  6
ByLayer
 62
  134
370
   -1
100
AcDbPolyline
 90
   11
 70
    0
 43
0
 10
3.001570000000356
 20
5.704689999999999
 10
3.001570000000356
 20
5.783470000000001
 10
3.031570000000102
 20
5.783470000000001
 10
3.03910999999971
 20
5.779679999999999
 10
3.042919999999867
 20
5.77599
 10
3.046599999999671
 20
5.7685
 10
3.046599999999671
 20
5.757170000000002
 10
3.042919999999867
 20
5.749679999999998
 10
3.03910999999971
 20
5.745989999999999
 10
3.031570000000102
 20
5.742190000000001
 10
3.001570000000356
 20
5.742190000000001
  0
LWPOLYLINE
  5
199
100
AcDbEntity
  8
0
  6
ByLayer
 62
  134
370
   -1
100
AcDbPolyline
 90
    3
 70
    0
 43
0
 10
2.229819999999563
 20
5.834690000000002
 10
2.19228000000021
 20
5.834690000000002
 10
2.19228000000021
 20
5.913360000000001
  0
LWPOLYLINE
  5
19A
100
AcDbEntity
  8
0
  6
ByLayer
 62
  134
370
   -1
100
AcDbPolyline
 90
   17
 70
    1
 43
0
 10
2.270999999999731
 20
5.913360000000001
 10
2.28603000000021
 20
5.913360000000001
 10
2.293510000000424
 20
5.909559999999999
 10
2.301000000000386
 20
5.902070000000002
 10
2.304689999999937
 20
5.8871
 10
2.304689999999937
 20
5.860890000000001
 10
2.301000000000386
 20
5.845860000000002
 10
2.293510000000424
 20
5.838380000000001
 10
2.28603000000021
 20
5.834690000000002
 10
2.270999999999731
 20
5.834690000000002
 10
2.263509999999769
 20
5.838380000000001
 10
2.256029999999555
 20
5.845860000000002
 10
2.252279999999701
 20
5.860890000000001
 10
2.252279999999701
 20
5.8871
 10
2.256029999999555
 20
5.902070000000002
 10
2.263509999999769
 20
5.909559999999999
 10
2.270999999999731
 20
5.913360000000001
  0
LWPOLYLINE
  5
19B
100
AcDbEntity
  8
0
  6
ByLayer
 62
  134
370
   -1
100
AcDbPolyline
 90
    2
 70
    0
 43
0
 10
2.334689999999682
 20
5.857210000000002
 10
2.372180000000299
 20
5.857210000000002
  0
LWPOLYLINE
  5
19C
100
AcDbEntity
  8
0
  6
ByLayer
 62
  134
370
   -1
100
AcDbPolyline
 90
    3
 70
    0
 43
0
 10
2.327210000000377
 20
5.834690000000002
 10
2.353509999999915
 20
5.913360000000001
 10
2.379719999999907
 20
5.834690000000002
  0
LWPOLYLINE
  5
19D
100
AcDbEntity
  8
0
  6
ByLayer
 62
  134
370
   -1
100
AcDbPolyline
 90
   13
 70
    1
 43
0
 10
2.405969999999797
 20
5.834690000000002
 10
2.405969999999797
 20
5.913360000000001
 10
2.424689999999828
 20
5.913360000000001
 10
2.435989999999947
 20
5.909559999999999
 10
2.443529999999555
 20
5.902070000000002
 10
2.447210000000268
 20
5.894580000000001
 10
2.451009999999769
 20
5.879559999999998
 10
2.451009999999769
 20
5.868380000000002
 10
2.447210000000268
 20
5.853349999999999
 10
2.443529999999555
 20
5.845860000000002
 10
2.435989999999947
 20
5.838380000000001
 10
2.424689999999828
 20
5.834690000000002
 10
2.405969999999797
 20
5.834690000000002
  0
LWPOLYLINE
  5
19E
100
AcDbEntity
  8
0
  6
ByLayer
 62
  134
370
   -1
100
AcDbPolyline
 90
    2
 70
    0
 43
0
 10
2.246579999999994
 20
5.704689999999999
 10
2.246579999999994
 20
5.783470000000001
  0
LWPOLYLINE
  5
19F
100
AcDbEntity
  8
0
  6
ByLayer
 62
  134
370
   -1
100
AcDbPolyline
 90
    2
 70
    0
 43
0
 10
2.280389999999898
 20
5.727150000000002
 10
2.317869999999857
 20
5.727150000000002
  0
LWPOLYLINE
  5
1A0
100
AcDbEntity
  8
0
  6
ByLayer
 62
  134
370
   -1
100
AcDbPolyline
 90
    3
 70
    0
 43
0
 10
2.272890000000189
 20
5.704689999999999
 10
2.29910000000018
 20
5.783470000000001
 10
2.325420000000122
 20
5.704689999999999
  0
LWPOLYLINE
  5
1A1
100
AcDbEntity
  8
0
  6
ByLayer
 62
  134
370
   -1
100
AcDbPolyline
 90
    2
 70
    0
 43
0
 10
2.396600000000035
 20
5.704689999999999
 10
2.370390000000043
 20
5.742190000000001
  0
LWPOLYLINE
  5
1A2
100
AcDbEntity
  8
0
  6
ByLayer
 62
  134
370
   -1
100
AcDbPolyline
 90
   11
 70
    0
 43
0
 10
2.35160999999971
 20
5.704689999999999
 10
2.35160999999971
 20
5.783470000000001
 10
2.381629999999859
 20
5.783470000000001
 10
2.389110000000073
 20
5.779679999999999
 10
2.392899999999827
 20
5.77599
 10
2.396600000000035
 20
5.7685
 10
2.396600000000035
 20
5.757170000000002
 10
2.392899999999827
 20
5.749679999999998
 10
2.389110000000073
 20
5.745989999999999
 10
2.381629999999859
 20
5.742190000000001
 10
2.35160999999971
 20
5.742190000000001
  0
LWPOLYLINE
  5
1A3
100
AcDbEntity
  8
0
  6
ByLayer
 62
  134
370
   -1
100
AcDbPolyline
 90
   25
 70
    1
 43
0
 10
8.765739999999823
 20
4.037600000000001
 10
8.765739999999823
 20
4.013670000000001
 10
8.746360000000095
 20
3.941890000000001
 10
8.69362000000001
 20
3.863669999999999
 10
8.615459999999985
 20
3.810929999999999
 10
8.543620000000374
 20
3.79156
 10
8.519690000000082
 20
3.79156
 10
8.495710000000145
 20
3.79156
 10
8.423890000000029
 20
3.810929999999999
 10
8.345650000000205
 20
3.863669999999999
 10
8.292919999999867
 20
3.941890000000001
 10
8.273600000000442
 20
4.013670000000001
 10
8.273600000000442
 20
4.037600000000001
 10
8.273600000000442
 20
4.061579999999999
 10
8.292919999999867
 20
4.133400000000002
 10
8.345650000000205
 20
4.211639999999999
 10
8.423890000000029
 20
4.264379999999999
 10
8.495710000000145
 20
4.28369
 10
8.519690000000082
 20
4.28369
 10
8.543620000000374
 20
4.28369
 10
8.615459999999985
 20
4.264379999999999
 10
8.69362000000001
 20
4.211639999999999
 10
8.746360000000095
 20
4.133400000000002
 10
8.765739999999823
 20
4.061579999999999
 10
8.765739999999823
 20
4.037600000000001
  0
LWPOLYLINE
  5
1A4
100
AcDbEntity
  8
0
  6
ByLayer
 62
  134
370
   -1
100
AcDbPolyline
 90
   25
 70
    1
 43
0
 10
5.222439999999551
 20
5.218689999999999
 10
5.222439999999551
 20
5.194759999999999
 10
5.20306999999957
 20
5.122990000000001
 10
5.150330000000395
 20
5.04476
 10
5.072100000000319
 20
4.99203
 10
5.000320000000102
 20
4.972650000000002
 10
4.976399999999558
 20
4.972650000000002
 10
4.95241999999962
 20
4.972650000000002
 10
4.880580000000009
 20
4.99203
 10
4.80235999999968
 20
5.04476
 10
4.749619999999595
 20
5.122990000000001
 10
4.730309999999918
 20
5.194759999999999
 10
4.730309999999918
 20
5.218689999999999
 10
4.730309999999918
 20
5.24268
 10
4.749619999999595
 20
5.314509999999999
 10
4.80235999999968
 20
5.39274
 10
4.880580000000009
 20
5.44547
 10
4.95241999999962
 20
5.464790000000001
 10
4.976399999999558
 20
5.464790000000001
 10
5.000320000000102
 20
5.464790000000001
 10
5.072100000000319
 20
5.44547
 10
5.150330000000395
 20
5.39274
 10
5.20306999999957
 20
5.314509999999999
 10
5.222439999999551
 20
5.24268
 10
5.222439999999551
 20
5.218689999999999
  0
LWPOLYLINE
  5
1A5
100
AcDbEntity
  8
0
  6
ByLayer
 62
  134
370
   -1
100
AcDbPolyline
 90
   25
 70
    1
 43
0
 10
4.631889999999657
 20
5.218689999999999
 10
4.631889999999657
 20
5.194759999999999
 10
4.612530000000334
 20
5.122990000000001
 10
4.559790000000248
 20
5.04476
 10
4.481560000000172
 20
4.99203
 10
4.409779999999955
 20
4.972650000000002
 10
4.385849999999664
 20
4.972650000000002
 10
4.361869999999726
 20
4.972650000000002
 10
4.290039999999863
 20
4.99203
 10
4.211809999999787
 20
5.04476
 10
4.159069999999701
 20
5.122990000000001
 10
4.139760000000024
 20
5.194759999999999
 10
4.139760000000024
 20
5.218689999999999
 10
4.139760000000024
 20
5.24268
 10
4.159069999999701
 20
5.314509999999999
 10
4.211809999999787
 20
5.39274
 10
4.290039999999863
 20
5.44547
 10
4.361869999999726
 20
5.464790000000001
 10
4.385849999999664
 20
5.464790000000001
 10
4.409779999999955
 20
5.464790000000001
 10
4.481560000000172
 20
5.44547
 10
4.559790000000248
 20
5.39274
 10
4.612530000000334
 20
5.314509999999999
 10
4.631889999999657
 20
5.24268
 10
4.631889999999657
 20
5.218689999999999
  0
LWPOLYLINE
  5
1A6
100
AcDbEntity
  8
0
  6
ByLayer
 62
  134
370
   -1
100
AcDbPolyline
 90
   25
 70
    1
 43
0
 10
4.041350000000421
 20
5.218689999999999
 10
4.041350000000421
 20
5.194759999999999
 10
4.021969999999783
 20
5.122990000000001
 10
3.969240000000354
 20
5.04476
 10
3.890999999999622
 20
4.99203
 10
3.819220000000314
 20
4.972650000000002
 10
3.795310000000427
 20
4.972650000000002
 10
3.771319999999832
 20
4.972650000000002
 10
3.699489999999969
 20
4.99203
 10
3.621250000000146
 20
5.04476
 10
3.568529999999555
 20
5.122990000000001
 10
3.54921000000013
 20
5.194759999999999
 10
3.54921000000013
 20
5.218689999999999
 10
3.54921000000013
 20
5.24268
 10
3.568529999999555
 20
5.314509999999999
 10
3.621250000000146
 20
5.39274
 10
3.699489999999969
 20
5.44547
 10
3.771319999999832
 20
5.464790000000001
 10
3.795310000000427
 20
5.464790000000001
 10
3.819220000000314
 20
5.464790000000001
 10
3.890999999999622
 20
5.44547
 10
3.969240000000354
 20
5.39274
 10
4.021969999999783
 20
5.314509999999999
 10
4.041350000000421
 20
5.24268
 10
4.041350000000421
 20
5.218689999999999
  0
LWPOLYLINE
  5
1A7
100
AcDbEntity
  8
0
  6
ByLayer
 62
  134
370
   -1
100
AcDbPolyline
 90
   25
 70
    1
 43
0
 10
5.517679999999928
 20
5.80931
 10
5.517679999999928
 20
5.78538
 10
5.498319999999694
 20
5.713540000000002
 10
5.445579999999609
 20
5.63531
 10
5.367400000000089
 20
5.58257
 10
5.295570000000225
 20
5.563209999999998
 10
5.271649999999681
 20
5.563209999999998
 10
5.247669999999744
 20
5.563209999999998
 10
5.175830000000133
 20
5.58257
 10
5.097649999999703
 20
5.63531
 10
5.044920000000275
 20
5.713540000000002
 10
5.025609999999688
 20
5.78538
 10
5.025609999999688
 20
5.80931
 10
5.025609999999688
 20
5.833280000000002
 10
5.044920000000275
 20
5.905059999999999
 10
5.097649999999703
 20
5.98329
 10
5.175830000000133
 20
6.03603
 10
5.247669999999744
 20
6.055329999999998
 10
5.271649999999681
 20
6.055329999999998
 10
5.295570000000225
 20
6.055329999999998
 10
5.367400000000089
 20
6.03603
 10
5.445579999999609
 20
5.98329
 10
5.498319999999694
 20
5.905059999999999
 10
5.517679999999928
 20
5.833280000000002
 10
5.517679999999928
 20
5.80931
  0
LWPOLYLINE
  5
1A8
100
AcDbEntity
  8
0
  6
ByLayer
 62
  134
370
   -1
100
AcDbPolyline
 90
   25
 70
    1
 43
0
 10
4.041350000000421
 20
4.037600000000001
 10
4.041350000000421
 20
4.013670000000001
 10
4.021969999999783
 20
3.941890000000001
 10
3.969240000000354
 20
3.863669999999999
 10
3.890999999999622
 20
3.810929999999999
 10
3.819220000000314
 20
3.79156
 10
3.795310000000427
 20
3.79156
 10
3.771319999999832
 20
3.79156
 10
3.699489999999969
 20
3.810929999999999
 10
3.621250000000146
 20
3.863669999999999
 10
3.568529999999555
 20
3.941890000000001
 10
3.54921000000013
 20
4.013670000000001
 10
3.54921000000013
 20
4.037600000000001
 10
3.54921000000013
 20
4.061579999999999
 10
3.568529999999555
 20
4.133400000000002
 10
3.621250000000146
 20
4.211639999999999
 10
3.699489999999969
 20
4.264379999999999
 10
3.771319999999832
 20
4.28369
 10
3.795310000000427
 20
4.28369
 10
3.819220000000314
 20
4.28369
 10
3.890999999999622
 20
4.264379999999999
 10
3.969240000000354
 20
4.211639999999999
 10
4.021969999999783
 20
4.133400000000002
 10
4.041350000000421
 20
4.061579999999999
 10
4.041350000000421
 20
4.037600000000001
  0
LWPOLYLINE
  5
1A9
100
AcDbEntity
  8
0
  6
ByLayer
 62
  134
370
   -1
100
AcDbPolyline
 90
   25
 70
    1
 43
0
 10
6.994080000000395
 20
4.037600000000001
 10
6.994080000000395
 20
4.013670000000001
 10
6.974720000000161
 20
3.941890000000001
 10
6.921989999999823
 20
3.863669999999999
 10
6.84375
 20
3.810929999999999
 10
6.771969999999783
 20
3.79156
 10
6.748040000000401
 20
3.79156
 10
6.724070000000211
 20
3.79156
 10
6.652240000000347
 20
3.810929999999999
 10
6.573999999999614
 20
3.863669999999999
 10
6.521260000000439
 20
3.941890000000001
 10
6.501959999999599
 20
4.013670000000001
 10
6.501959999999599
 20
4.037600000000001
 10
6.501959999999599
 20
4.061579999999999
 10
6.521260000000439
 20
4.133400000000002
 10
6.573999999999614
 20
4.211639999999999
 10
6.652240000000347
 20
4.264379999999999
 10
6.724070000000211
 20
4.28369
 10
6.748040000000401
 20
4.28369
 10
6.771969999999783
 20
4.28369
 10
6.84375
 20
4.264379999999999
 10
6.921989999999823
 20
4.211639999999999
 10
6.974720000000161
 20
4.133400000000002
 10
6.994080000000395
 20
4.061579999999999
 10
6.994080000000395
 20
4.037600000000001
  0
LWPOLYLINE
  5
1AA
100
AcDbEntity
  8
0
  6
ByLayer
 62
  134
370
   -1
100
AcDbPolyline
 90
   25
 70
    1
 43
0
 10
5.517679999999928
 20
4.628149999999998
 10
5.517679999999928
 20
4.604219999999998
 10
5.498319999999694
 20
4.532440000000001
 10
5.445579999999609
 20
4.45421
 10
5.367400000000089
 20
4.40147
 10
5.295570000000225
 20
4.382110000000001
 10
5.271649999999681
 20
4.382110000000001
 10
5.247669999999744
 20
4.382110000000001
 10
5.175830000000133
 20
4.40147
 10
5.097649999999703
 20
4.45421
 10
5.044920000000275
 20
4.532440000000001
 10
5.025609999999688
 20
4.604219999999998
 10
5.025609999999688
 20
4.628149999999998
 10
5.025609999999688
 20
4.65213
 10
5.044920000000275
 20
4.723959999999998
 10
5.097649999999703
 20
4.80219
 10
5.175830000000133
 20
4.85493
 10
5.247669999999744
 20
4.87424
 10
5.271649999999681
 20
4.87424
 10
5.295570000000225
 20
4.87424
 10
5.367400000000089
 20
4.85493
 10
5.445579999999609
 20
4.80219
 10
5.498319999999694
 20
4.723959999999998
 10
5.517679999999928
 20
4.65213
 10
5.517679999999928
 20
4.628149999999998
  0
LWPOLYLINE
  5
1AB
100
AcDbEntity
  8
0
  6
ByLayer
 62
  134
370
   -1
100
AcDbPolyline
 90
   25
 70
    1
 43
0
 10
9.159440000000359
 20
4.628149999999998
 10
9.159440000000359
 20
4.604219999999998
 10
9.140080000000125
 20
4.532440000000001
 10
9.087349999999788
 20
4.45421
 10
9.009109999999964
 20
4.40147
 10
8.937280000000101
 20
4.382110000000001
 10
8.913359999999557
 20
4.382110000000001
 10
8.889369999999872
 20
4.382110000000001
 10
8.817600000000311
 20
4.40147
 10
8.739359999999579
 20
4.45421
 10
8.686639999999898
 20
4.532440000000001
 10
8.667319999999563
 20
4.604219999999998
 10
8.667319999999563
 20
4.628149999999998
 10
8.667319999999563
 20
4.65213
 10
8.686639999999898
 20
4.723959999999998
 10
8.739359999999579
 20
4.80219
 10
8.817600000000311
 20
4.85493
 10
8.889369999999872
 20
4.87424
 10
8.913359999999557
 20
4.87424
 10
8.937280000000101
 20
4.87424
 10
9.009109999999964
 20
4.85493
 10
9.087349999999788
 20
4.80219
 10
9.140080000000125
 20
4.723959999999998
 10
9.159440000000359
 20
4.65213
 10
9.159440000000359
 20
4.628149999999998
  0
LWPOLYLINE
  5
1AC
100
AcDbEntity
  8
0
  6
ByLayer
 62
  134
370
   -1
100
AcDbPolyline
 90
   25
 70
    1
 43
0
 10
4.927139999999781
 20
4.628149999999998
 10
4.927139999999781
 20
4.604219999999998
 10
4.907760000000053
 20
4.532440000000001
 10
4.855040000000372
 20
4.45421
 10
4.776859999999942
 20
4.40147
 10
4.705030000000079
 20
4.382110000000001
 10
4.681099999999788
 20
4.382110000000001
 10
4.65711999999985
 20
4.382110000000001
 10
4.585289999999986
 20
4.40147
 10
4.507109999999557
 20
4.45421
 10
4.454370000000381
 20
4.532440000000001
 10
4.435059999999794
 20
4.604219999999998
 10
4.435059999999794
 20
4.628149999999998
 10
4.435059999999794
 20
4.65213
 10
4.454370000000381
 20
4.723959999999998
 10
4.507109999999557
 20
4.80219
 10
4.585289999999986
 20
4.85493
 10
4.65711999999985
 20
4.87424
 10
4.681099999999788
 20
4.87424
 10
4.705030000000079
 20
4.87424
 10
4.776859999999942
 20
4.85493
 10
4.855040000000372
 20
4.80219
 10
4.907760000000053
 20
4.723959999999998
 10
4.927139999999781
 20
4.65213
 10
4.927139999999781
 20
4.628149999999998
  0
LWPOLYLINE
  5
1AD
100
AcDbEntity
  8
0
  6
ByLayer
 62
  134
370
   -1
100
AcDbPolyline
 90
   25
 70
    1
 43
0
 10
8.765739999999823
 20
5.218689999999999
 10
8.765739999999823
 20
5.194759999999999
 10
8.746360000000095
 20
5.122990000000001
 10
8.69362000000001
 20
5.04476
 10
8.615459999999985
 20
4.99203
 10
8.543620000000374
 20
4.972650000000002
 10
8.519690000000082
 20
4.972650000000002
 10
8.495710000000145
 20
4.972650000000002
 10
8.423890000000029
 20
4.99203
 10
8.345650000000205
 20
5.04476
 10
8.292919999999867
 20
5.122990000000001
 10
8.273600000000442
 20
5.194759999999999
 10
8.273600000000442
 20
5.218689999999999
 10
8.273600000000442
 20
5.24268
 10
8.292919999999867
 20
5.314509999999999
 10
8.345650000000205
 20
5.39274
 10
8.423890000000029
 20
5.44547
 10
8.495710000000145
 20
5.464790000000001
 10
8.519690000000082
 20
5.464790000000001
 10
8.543620000000374
 20
5.464790000000001
 10
8.615459999999985
 20
5.44547
 10
8.69362000000001
 20
5.39274
 10
8.746360000000095
 20
5.314509999999999
 10
8.765739999999823
 20
5.24268
 10
8.765739999999823
 20
5.218689999999999
  0
LWPOLYLINE
  5
1AE
100
AcDbEntity
  8
0
  6
ByLayer
 62
  134
370
   -1
100
AcDbPolyline
 90
   25
 70
    1
 43
0
 10
4.33658000000014
 20
4.628149999999998
 10
4.33658000000014
 20
4.604219999999998
 10
4.317219999999907
 20
4.532440000000001
 10
4.264489999999569
 20
4.45421
 10
4.186310000000049
 20
4.40147
 10
4.114470000000438
 20
4.382110000000001
 10
4.090559999999641
 20
4.382110000000001
 10
4.066569999999956
 20
4.382110000000001
 10
3.994740000000093
 20
4.40147
 10
3.916559999999663
 20
4.45421
 10
3.863819999999578
 20
4.532440000000001
 10
3.8445099999999
 20
4.604219999999998
 10
3.8445099999999
 20
4.628149999999998
 10
3.8445099999999
 20
4.65213
 10
3.863819999999578
 20
4.723959999999998
 10
3.916559999999663
 20
4.80219
 10
3.994740000000093
 20
4.85493
 10
4.066569999999956
 20
4.87424
 10
4.090559999999641
 20
4.87424
 10
4.114470000000438
 20
4.87424
 10
4.186310000000049
 20
4.85493
 10
4.264489999999569
 20
4.80219
 10
4.317219999999907
 20
4.723959999999998
 10
4.33658000000014
 20
4.65213
 10
4.33658000000014
 20
4.628149999999998
  0
LWPOLYLINE
  5
1AF
100
AcDbEntity
  8
0
  6
ByLayer
 62
  134
370
   -1
100
AcDbPolyline
 90
   25
 70
    1
 43
0
 10
3.1554900000001
 20
5.80931
 10
3.1554900000001
 20
5.78538
 10
3.136120000000119
 20
5.713540000000002
 10
3.083389999999781
 20
5.63531
 10
3.005210000000261
 20
5.58257
 10
2.933380000000398
 20
5.563209999999998
 10
2.909440000000359
 20
5.563209999999998
 10
2.885470000000169
 20
5.563209999999998
 10
2.813640000000305
 20
5.58257
 10
2.735459999999875
 20
5.63531
 10
2.68271999999979
 20
5.713540000000002
 10
2.66341999999986
 20
5.78538
 10
2.66341999999986
 20
5.80931
 10
2.66341999999986
 20
5.833280000000002
 10
2.68271999999979
 20
5.905059999999999
 10
2.735459999999875
 20
5.98329
 10
2.813640000000305
 20
6.03603
 10
2.885470000000169
 20
6.055329999999998
 10
2.909440000000359
 20
6.055329999999998
 10
2.933380000000398
 20
6.055329999999998
 10
3.005210000000261
 20
6.03603
 10
3.083389999999781
 20
5.98329
 10
3.136120000000119
 20
5.905059999999999
 10
3.1554900000001
 20
5.833280000000002
 10
3.1554900000001
 20
5.80931
  0
LWPOLYLINE
  5
1B0
100
AcDbEntity
  8
0
  6
ByLayer
 62
  134
370
   -1
100
AcDbPolyline
 90
   25
 70
    1
 43
0
 10
4.631889999999657
 20
4.037600000000001
 10
4.631889999999657
 20
4.013670000000001
 10
4.612530000000334
 20
3.941890000000001
 10
4.559790000000248
 20
3.863669999999999
 10
4.481560000000172
 20
3.810929999999999
 10
4.409779999999955
 20
3.79156
 10
4.385849999999664
 20
3.79156
 10
4.361869999999726
 20
3.79156
 10
4.290039999999863
 20
3.810929999999999
 10
4.211809999999787
 20
3.863669999999999
 10
4.159069999999701
 20
3.941890000000001
 10
4.139760000000024
 20
4.013670000000001
 10
4.139760000000024
 20
4.037600000000001
 10
4.139760000000024
 20
4.061579999999999
 10
4.159069999999701
 20
4.133400000000002
 10
4.211809999999787
 20
4.211639999999999
 10
4.290039999999863
 20
4.264379999999999
 10
4.361869999999726
 20
4.28369
 10
4.385849999999664
 20
4.28369
 10
4.409779999999955
 20
4.28369
 10
4.481560000000172
 20
4.264379999999999
 10
4.559790000000248
 20
4.211639999999999
 10
4.612530000000334
 20
4.133400000000002
 10
4.631889999999657
 20
4.061579999999999
 10
4.631889999999657
 20
4.037600000000001
  0
LWPOLYLINE
  5
1B1
100
AcDbEntity
  8
0
  6
ByLayer
 62
  134
370
   -1
100
AcDbPolyline
 90
   25
 70
    1
 43
0
 10
2.860249999999724
 20
5.218689999999999
 10
2.860249999999724
 20
5.194759999999999
 10
2.840879999999743
 20
5.122990000000001
 10
2.788139999999657
 20
5.04476
 10
2.709899999999834
 20
4.99203
 10
2.638069999999971
 20
4.972650000000002
 10
2.614150000000336
 20
4.972650000000002
 10
2.590170000000398
 20
4.972650000000002
 10
2.518329999999878
 20
4.99203
 10
2.440150000000358
 20
5.04476
 10
2.387429999999767
 20
5.122990000000001
 10
2.368110000000343
 20
5.194759999999999
 10
2.368110000000343
 20
5.218689999999999
 10
2.368110000000343
 20
5.24268
 10
2.387429999999767
 20
5.314509999999999
 10
2.440150000000358
 20
5.39274
 10
2.518329999999878
 20
5.44547
 10
2.590170000000398
 20
5.464790000000001
 10
2.614150000000336
 20
5.464790000000001
 10
2.638069999999971
 20
5.464790000000001
 10
2.709899999999834
 20
5.44547
 10
2.788139999999657
 20
5.39274
 10
2.840879999999743
 20
5.314509999999999
 10
2.860249999999724
 20
5.24268
 10
2.860249999999724
 20
5.218689999999999
  0
LWPOLYLINE
  5
1B2
100
AcDbEntity
  8
0
  6
ByLayer
 62
  134
370
   -1
100
AcDbPolyline
 90
   25
 70
    1
 43
0
 10
5.222439999999551
 20
4.037600000000001
 10
5.222439999999551
 20
4.013670000000001
 10
5.20306999999957
 20
3.941890000000001
 10
5.150330000000395
 20
3.863669999999999
 10
5.072100000000319
 20
3.810929999999999
 10
5.000320000000102
 20
3.79156
 10
4.976399999999558
 20
3.79156
 10
4.95241999999962
 20
3.79156
 10
4.880580000000009
 20
3.810929999999999
 10
4.80235999999968
 20
3.863669999999999
 10
4.749619999999595
 20
3.941890000000001
 10
4.730309999999918
 20
4.013670000000001
 10
4.730309999999918
 20
4.037600000000001
 10
4.730309999999918
 20
4.061579999999999
 10
4.749619999999595
 20
4.133400000000002
 10
4.80235999999968
 20
4.211639999999999
 10
4.880580000000009
 20
4.264379999999999
 10
4.95241999999962
 20
4.28369
 10
4.976399999999558
 20
4.28369
 10
5.000320000000102
 20
4.28369
 10
5.072100000000319
 20
4.264379999999999
 10
5.150330000000395
 20
4.211639999999999
 10
5.20306999999957
 20
4.133400000000002
 10
5.222439999999551
 20
4.061579999999999
 10
5.222439999999551
 20
4.037600000000001
  0
LWPOLYLINE
  5
1B3
100
AcDbEntity
  8
0
  6
ByLayer
 62
  134
370
   -1
100
AcDbPolyline
 90
   25
 70
    1
 43
0
 10
2.564940000000206
 20
4.628149999999998
 10
2.564940000000206
 20
4.604219999999998
 10
2.545570000000225
 20
4.532440000000001
 10
2.49283000000014
 20
4.45421
 10
2.41464999999971
 20
4.40147
 10
2.342829999999594
 20
4.382110000000001
 10
2.318900000000212
 20
4.382110000000001
 10
2.294920000000275
 20
4.382110000000001
 10
2.223100000000159
 20
4.40147
 10
2.144919999999729
 20
4.45421
 10
2.092179999999644
 20
4.532440000000001
 10
2.072860000000219
 20
4.604219999999998
 10
2.072860000000219
 20
4.628149999999998
 10
2.072860000000219
 20
4.65213
 10
2.092179999999644
 20
4.723959999999998
 10
2.144919999999729
 20
4.80219
 10
2.223100000000159
 20
4.85493
 10
2.294920000000275
 20
4.87424
 10
2.318900000000212
 20
4.87424
 10
2.342829999999594
 20
4.87424
 10
2.41464999999971
 20
4.85493
 10
2.49283000000014
 20
4.80219
 10
2.545570000000225
 20
4.723959999999998
 10
2.564940000000206
 20
4.65213
 10
2.564940000000206
 20
4.628149999999998
  0
LWPOLYLINE
  5
1B4
100
AcDbEntity
  8
0
  6
ByLayer
 62
  134
370
   -1
100
AcDbPolyline
 90
   25
 70
    1
 43
0
 10
5.812990000000354
 20
4.037600000000001
 10
5.812990000000354
 20
4.013670000000001
 10
5.793620000000374
 20
3.941890000000001
 10
5.740890000000036
 20
3.863669999999999
 10
5.662650000000212
 20
3.810929999999999
 10
5.590879999999743
 20
3.79156
 10
5.566939999999704
 20
3.79156
 10
5.542970000000423
 20
3.79156
 10
5.47113999999965
 20
3.810929999999999
 10
5.392899999999827
 20
3.863669999999999
 10
5.340170000000398
 20
3.941890000000001
 10
5.320859999999811
 20
4.013670000000001
 10
5.320859999999811
 20
4.037600000000001
 10
5.320859999999811
 20
4.061579999999999
 10
5.340170000000398
 20
4.133400000000002
 10
5.392899999999827
 20
4.211639999999999
 10
5.47113999999965
 20
4.264379999999999
 10
5.542970000000423
 20
4.28369
 10
5.566939999999704
 20
4.28369
 10
5.590879999999743
 20
4.28369
 10
5.662650000000212
 20
4.264379999999999
 10
5.740890000000036
 20
4.211639999999999
 10
5.793620000000374
 20
4.133400000000002
 10
5.812990000000354
 20
4.061579999999999
 10
5.812990000000354
 20
4.037600000000001
  0
LWPOLYLINE
  5
1B5
100
AcDbEntity
  8
0
  6
ByLayer
 62
  134
370
   -1
100
AcDbPolyline
 90
   25
 70
    1
 43
0
 10
3.1554900000001
 20
4.628149999999998
 10
3.1554900000001
 20
4.604219999999998
 10
3.136120000000119
 20
4.532440000000001
 10
3.083389999999781
 20
4.45421
 10
3.005210000000261
 20
4.40147
 10
2.933380000000398
 20
4.382110000000001
 10
2.909440000000359
 20
4.382110000000001
 10
2.885470000000169
 20
4.382110000000001
 10
2.813640000000305
 20
4.40147
 10
2.735459999999875
 20
4.45421
 10
2.68271999999979
 20
4.532440000000001
 10
2.66341999999986
 20
4.604219999999998
 10
2.66341999999986
 20
4.628149999999998
 10
2.66341999999986
 20
4.65213
 10
2.68271999999979
 20
4.723959999999998
 10
2.735459999999875
 20
4.80219
 10
2.813640000000305
 20
4.85493
 10
2.885470000000169
 20
4.87424
 10
2.909440000000359
 20
4.87424
 10
2.933380000000398
 20
4.87424
 10
3.005210000000261
 20
4.85493
 10
3.083389999999781
 20
4.80219
 10
3.136120000000119
 20
4.723959999999998
 10
3.1554900000001
 20
4.65213
 10
3.1554900000001
 20
4.628149999999998
  0
LWPOLYLINE
  5
1B6
100
AcDbEntity
  8
0
  6
ByLayer
 62
  134
370
   -1
100
AcDbPolyline
 90
   25
 70
    1
 43
0
 10
6.698830000000271
 20
5.80931
 10
6.698830000000271
 20
5.78538
 10
6.679470000000038
 20
5.713540000000002
 10
6.6267399999997
 20
5.63531
 10
6.548499999999876
 20
5.58257
 10
6.476670000000013
 20
5.563209999999998
 10
6.452750000000378
 20
5.563209999999998
 10
6.428759999999784
 20
5.563209999999998
 10
6.35692999999992
 20
5.58257
 10
6.2787500000004
 20
5.63531
 10
6.226010000000315
 20
5.713540000000002
 10
6.206710000000385
 20
5.78538
 10
6.206710000000385
 20
5.80931
 10
6.206710000000385
 20
5.833280000000002
 10
6.226010000000315
 20
5.905059999999999
 10
6.2787500000004
 20
5.98329
 10
6.35692999999992
 20
6.03603
 10
6.428759999999784
 20
6.055329999999998
 10
6.452750000000378
 20
6.055329999999998
 10
6.476670000000013
 20
6.055329999999998
 10
6.548499999999876
 20
6.03603
 10
6.6267399999997
 20
5.98329
 10
6.679470000000038
 20
5.905059999999999
 10
6.698830000000271
 20
5.833280000000002
 10
6.698830000000271
 20
5.80931
  0
LWPOLYLINE
  5
1B7
100
AcDbEntity
  8
0
  6
ByLayer
 62
  134
370
   -1
100
AcDbPolyline
 90
   25
 70
    1
 43
0
 10
2.564940000000206
 20
5.80931
 10
2.564940000000206
 20
5.78538
 10
2.545570000000225
 20
5.713540000000002
 10
2.49283000000014
 20
5.63531
 10
2.41464999999971
 20
5.58257
 10
2.342829999999594
 20
5.563209999999998
 10
2.318900000000212
 20
5.563209999999998
 10
2.294920000000275
 20
5.563209999999998
 10
2.223100000000159
 20
5.58257
 10
2.144919999999729
 20
5.63531
 10
2.092179999999644
 20
5.713540000000002
 10
2.072860000000219
 20
5.78538
 10
2.072860000000219
 20
5.80931
 10
2.072860000000219
 20
5.833280000000002
 10
2.092179999999644
 20
5.905059999999999
 10
2.144919999999729
 20
5.98329
 10
2.223100000000159
 20
6.03603
 10
2.294920000000275
 20
6.055329999999998
 10
2.318900000000212
 20
6.055329999999998
 10
2.342829999999594
 20
6.055329999999998
 10
2.41464999999971
 20
6.03603
 10
2.49283000000014
 20
5.98329
 10
2.545570000000225
 20
5.905059999999999
 10
2.564940000000206
 20
5.833280000000002
 10
2.564940000000206
 20
5.80931
  0
LWPOLYLINE
  5
1B8
100
AcDbEntity
  8
0
  6
ByLayer
 62
  134
370
   -1
100
AcDbPolyline
 90
   25
 70
    1
 43
0
 10
7.289389999999912
 20
5.80931
 10
7.289389999999912
 20
5.78538
 10
7.270010000000184
 20
5.713540000000002
 10
7.217289999999593
 20
5.63531
 10
7.139060000000427
 20
5.58257
 10
7.067219999999907
 20
5.563209999999998
 10
7.043289999999615
 20
5.563209999999998
 10
7.019320000000334
 20
5.563209999999998
 10
6.947489999999561
 20
5.58257
 10
6.869310000000041
 20
5.63531
 10
6.816569999999956
 20
5.713540000000002
 10
6.797249999999622
 20
5.78538
 10
6.797249999999622
 20
5.80931
 10
6.797249999999622
 20
5.833280000000002
 10
6.816569999999956
 20
5.905059999999999
 10
6.869310000000041
 20
5.98329
 10
6.947489999999561
 20
6.03603
 10
7.019320000000334
 20
6.055329999999998
 10
7.043289999999615
 20
6.055329999999998
 10
7.067219999999907
 20
6.055329999999998
 10
7.139060000000427
 20
6.03603
 10
7.217289999999593
 20
5.98329
 10
7.270010000000184
 20
5.905059999999999
 10
7.289389999999912
 20
5.833280000000002
 10
7.289389999999912
 20
5.80931
  0
LWPOLYLINE
  5
1B9
100
AcDbEntity
  8
0
  6
ByLayer
 62
  134
370
   -1
100
AcDbPolyline
 90
   25
 70
    1
 43
0
 10
2.860249999999724
 20
4.057290000000002
 10
2.860249999999724
 20
4.033360000000002
 10
2.840879999999743
 20
3.961580000000001
 10
2.788139999999657
 20
3.88336
 10
2.709899999999834
 20
3.83062
 10
2.638069999999971
 20
3.811250000000001
 10
2.614150000000336
 20
3.811250000000001
 10
2.590170000000398
 20
3.811250000000001
 10
2.518329999999878
 20
3.83062
 10
2.440150000000358
 20
3.88336
 10
2.387429999999767
 20
3.961580000000001
 10
2.368110000000343
 20
4.033360000000002
 10
2.368110000000343
 20
4.057290000000002
 10
2.368110000000343
 20
4.08128
 10
2.387429999999767
 20
4.153100000000002
 10
2.440150000000358
 20
4.23133
 10
2.518329999999878
 20
4.28407
 10
2.590170000000398
 20
4.30339
 10
2.614150000000336
 20
4.30339
 10
2.638069999999971
 20
4.30339
 10
2.709899999999834
 20
4.28407
 10
2.788139999999657
 20
4.23133
 10
2.840879999999743
 20
4.153100000000002
 10
2.860249999999724
 20
4.08128
 10
2.860249999999724
 20
4.057290000000002
  0
LWPOLYLINE
  5
1BA
100
AcDbEntity
  8
0
  6
ByLayer
 62
  134
370
   -1
100
AcDbPolyline
 90
   25
 70
    1
 43
0
 10
6.994080000000395
 20
5.218689999999999
 10
6.994080000000395
 20
5.194759999999999
 10
6.974720000000161
 20
5.122990000000001
 10
6.921989999999823
 20
5.04476
 10
6.84375
 20
4.99203
 10
6.771969999999783
 20
4.972650000000002
 10
6.748040000000401
 20
4.972650000000002
 10
6.724070000000211
 20
4.972650000000002
 10
6.652240000000347
 20
4.99203
 10
6.573999999999614
 20
5.04476
 10
6.521260000000439
 20
5.122990000000001
 10
6.501959999999599
 20
5.194759999999999
 10
6.501959999999599
 20
5.218689999999999
 10
6.501959999999599
 20
5.24268
 10
6.521260000000439
 20
5.314509999999999
 10
6.573999999999614
 20
5.39274
 10
6.652240000000347
 20
5.44547
 10
6.724070000000211
 20
5.464790000000001
 10
6.748040000000401
 20
5.464790000000001
 10
6.771969999999783
 20
5.464790000000001
 10
6.84375
 20
5.44547
 10
6.921989999999823
 20
5.39274
 10
6.974720000000161
 20
5.314509999999999
 10
6.994080000000395
 20
5.24268
 10
6.994080000000395
 20
5.218689999999999
  0
LWPOLYLINE
  5
1BB
100
AcDbEntity
  8
0
  6
ByLayer
 62
  134
370
   -1
100
AcDbPolyline
 90
   25
 70
    1
 43
0
 10
4.33658000000014
 20
5.80931
 10
4.33658000000014
 20
5.78538
 10
4.317219999999907
 20
5.713540000000002
 10
4.264489999999569
 20
5.63531
 10
4.186310000000049
 20
5.58257
 10
4.114470000000438
 20
5.563209999999998
 10
4.090559999999641
 20
5.563209999999998
 10
4.066569999999956
 20
5.563209999999998
 10
3.994740000000093
 20
5.58257
 10
3.916559999999663
 20
5.63531
 10
3.863819999999578
 20
5.713540000000002
 10
3.8445099999999
 20
5.78538
 10
3.8445099999999
 20
5.80931
 10
3.8445099999999
 20
5.833280000000002
 10
3.863819999999578
 20
5.905059999999999
 10
3.916559999999663
 20
5.98329
 10
3.994740000000093
 20
6.03603
 10
4.066569999999956
 20
6.055329999999998
 10
4.090559999999641
 20
6.055329999999998
 10
4.114470000000438
 20
6.055329999999998
 10
4.186310000000049
 20
6.03603
 10
4.264489999999569
 20
5.98329
 10
4.317219999999907
 20
5.905059999999999
 10
4.33658000000014
 20
5.833280000000002
 10
4.33658000000014
 20
5.80931
  0
LWPOLYLINE
  5
1BC
100
AcDbEntity
  8
0
  6
ByLayer
 62
  134
370
   -1
100
AcDbPolyline
 90
   25
 70
    1
 43
0
 10
7.289389999999912
 20
4.628149999999998
 10
7.289389999999912
 20
4.604219999999998
 10
7.270010000000184
 20
4.532440000000001
 10
7.217289999999593
 20
4.45421
 10
7.139060000000427
 20
4.40147
 10
7.067219999999907
 20
4.382110000000001
 10
7.043289999999615
 20
4.382110000000001
 10
7.019320000000334
 20
4.382110000000001
 10
6.947489999999561
 20
4.40147
 10
6.869310000000041
 20
4.45421
 10
6.816569999999956
 20
4.532440000000001
 10
6.797249999999622
 20
4.604219999999998
 10
6.797249999999622
 20
4.628149999999998
 10
6.797249999999622
 20
4.65213
 10
6.816569999999956
 20
4.723959999999998
 10
6.869310000000041
 20
4.80219
 10
6.947489999999561
 20
4.85493
 10
7.019320000000334
 20
4.87424
 10
7.043289999999615
 20
4.87424
 10
7.067219999999907
 20
4.87424
 10
7.139060000000427
 20
4.85493
 10
7.217289999999593
 20
4.80219
 10
7.270010000000184
 20
4.723959999999998
 10
7.289389999999912
 20
4.65213
 10
7.289389999999912
 20
4.628149999999998
  0
LWPOLYLINE
  5
1BD
100
AcDbEntity
  8
0
  6
ByLayer
 62
  134
370
   -1
100
AcDbPolyline
 90
   25
 70
    1
 43
0
 10
4.927139999999781
 20
5.80931
 10
4.927139999999781
 20
5.78538
 10
4.907760000000053
 20
5.713540000000002
 10
4.855040000000372
 20
5.63531
 10
4.776859999999942
 20
5.58257
 10
4.705030000000079
 20
5.563209999999998
 10
4.681099999999788
 20
5.563209999999998
 10
4.65711999999985
 20
5.563209999999998
 10
4.585289999999986
 20
5.58257
 10
4.507109999999557
 20
5.63531
 10
4.454370000000381
 20
5.713540000000002
 10
4.435059999999794
 20
5.78538
 10
4.435059999999794
 20
5.80931
 10
4.435059999999794
 20
5.833280000000002
 10
4.454370000000381
 20
5.905059999999999
 10
4.507109999999557
 20
5.98329
 10
4.585289999999986
 20
6.03603
 10
4.65711999999985
 20
6.055329999999998
 10
4.681099999999788
 20
6.055329999999998
 10
4.705030000000079
 20
6.055329999999998
 10
4.776859999999942
 20
6.03603
 10
4.855040000000372
 20
5.98329
 10
4.907760000000053
 20
5.905059999999999
 10
4.927139999999781
 20
5.833280000000002
 10
4.927139999999781
 20
5.80931
  0
LWPOLYLINE
  5
1BE
100
AcDbEntity
  8
0
  6
ByLayer
 62
  134
370
   -1
100
AcDbPolyline
 90
   25
 70
    1
 43
0
 10
7.584640000000036
 20
5.218689999999999
 10
7.584640000000036
 20
5.194759999999999
 10
7.565260000000308
 20
5.122990000000001
 10
7.51252999999997
 20
5.04476
 10
7.434309999999641
 20
4.99203
 10
7.362530000000334
 20
4.972650000000002
 10
7.338600000000042
 20
4.972650000000002
 10
7.314610000000357
 20
4.972650000000002
 10
7.242779999999584
 20
4.99203
 10
7.164560000000165
 20
5.04476
 10
7.11182000000008
 20
5.122990000000001
 10
7.092499999999745
 20
5.194759999999999
 10
7.092499999999745
 20
5.218689999999999
 10
7.092499999999745
 20
5.24268
 10
7.11182000000008
 20
5.314509999999999
 10
7.164560000000165
 20
5.39274
 10
7.242779999999584
 20
5.44547
 10
7.314610000000357
 20
5.464790000000001
 10
7.338600000000042
 20
5.464790000000001
 10
7.362530000000334
 20
5.464790000000001
 10
7.434309999999641
 20
5.44547
 10
7.51252999999997
 20
5.39274
 10
7.565260000000308
 20
5.314509999999999
 10
7.584640000000036
 20
5.24268
 10
7.584640000000036
 20
5.218689999999999
  0
LWPOLYLINE
  5
1BF
100
AcDbEntity
  8
0
  6
ByLayer
 62
   52
370
   -1
100
AcDbPolyline
 90
    2
 70
    0
 43
0
 10
1.137700000000223
 20
2.561309999999999
 10
1.177080000000387
 20
2.561309999999999
  0
LWPOLYLINE
  5
1C0
100
AcDbEntity
  8
0
  6
ByLayer
 62
   52
370
   -1
100
AcDbPolyline
 90
    2
 70
    0
 43
0
 10
1.137700000000223
 20
6.675460000000001
 10
1.137700000000223
 20
2.561309999999999
  0
LWPOLYLINE
  5
1C1
100
AcDbEntity
  8
0
  6
ByLayer
 62
   52
370
   -1
100
AcDbPolyline
 90
    2
 70
    0
 43
0
 10
10.15350000000035
 20
6.675460000000001
 10
1.137700000000223
 20
6.675460000000001
  0
LWPOLYLINE
  5
1C2
100
AcDbEntity
  8
0
  6
ByLayer
 62
   52
370
   -1
100
AcDbPolyline
 90
    2
 70
    0
 43
0
 10
10.15350000000035
 20
2.561309999999999
 10
10.15350000000035
 20
6.675460000000001
  0
LWPOLYLINE
  5
1C3
100
AcDbEntity
  8
0
  6
ByLayer
 62
   52
370
   -1
100
AcDbPolyline
 90
    2
 70
    0
 43
0
 10
1.177080000000387
 20
2.561309999999999
 10
10.15350000000035
 20
2.561309999999999
  0
ENDBLK
  5
4F
330
4D
100
AcDbEntity
  8
0
100
AcDbBlockEnd
  0
ENDSEC
  0
SECTION
  2
ENTITIES
  0
CIRCLE
  5
1C4
100
AcDbEntity
  8
0
  6
ByLayer
 62
  256
370
   -1
100
AcDbCircle
 10
26.5
 20
29.49999999999955
 40
0.6499999999999999
  0
CIRCLE
  5
1C5
100
AcDbEntity
  8
0
  6
ByLayer
 62
  256
370
   -1
100
AcDbCircle
 10
2.499999999999091
 20
29.49999999999955
 40
0.6499999999999999
  0
CIRCLE
  5
1C6
100
AcDbEntity
  8
0
  6
ByLayer
 62
  256
370
   -1
100
AcDbCircle
 10
2.5
 20
2.499999999999545
 40
0.6499999999999999
  0
CIRCLE
  5
1C7
100
AcDbEntity
  8
0
  6
ByLayer
 62
  256
370
   -1
100
AcDbCircle
 10
26.49999999999909
 20
2.499999999999545
 40
0.6499999999999999
  0
LINE
  5
1C8
100
AcDbEntity
  8
0
  6
ByLayer
 62
  256
370
   -1
100
AcDbLine
 10
15.5
 20
12.74999999999955
 11
15.5
 21
19.24999999999955
  0
ARC
  5
1C9
100
AcDbEntity
  8
0
  6
ByLayer
 62
  256
370
   -1
100
AcDbCircle
 10
14.5
 20
19.24999999999955
 40
1
100
AcDbArc
 50
90
 51
180
  0
ARC
  5
1CA
100
AcDbEntity
  8
0
  6
ByLayer
 62
  256
370
   -1
100
AcDbCircle
 10
14.5
 20
19.24999999999955
 40
1
100
AcDbArc
 50
0
 51
90
  0
LINE
  5
1CB
100
AcDbEntity
  8
0
  6
ByLayer
 62
  256
370
   -1
100
AcDbLine
 10
13.5
 20
19.24999999999955
 11
13.5
 21
12.74999999999955
  0
ARC
  5
1CC
100
AcDbEntity
  8
0
  6
ByLayer
 62
  256
370
   -1
100
AcDbCircle
 10
14.5
 20
12.74999999999955
 40
1
100
AcDbArc
 50
180
 51
270
  0
ARC
  5
1CD
100
AcDbEntity
  8
0
  6
ByLayer
 62
  256
370
   -1
100
AcDbCircle
 10
14.5
 20
12.74999999999955
 40
1
100
AcDbArc
 50
270
 51
0
  0
LINE
  5
1CE
100
AcDbEntity
  8
0
  6
ByLayer
 62
  256
370
   -1
100
AcDbLine
 10
13.49575094540613
 20
32.49999999999955
 11
-0.5000000000009405
 21
32.49999999999955
  0
LINE
  5
1CF
100
AcDbEntity
  8
0
  6
ByLayer
 62
  256
370
   -1
100
AcDbLine
 10
-0.5000000000009405
 20
32.49999999999955
 11
-0.5
 21
17.35167978695071
  0
LINE
  5
1D0
100
AcDbEntity
  8
0
  6
ByLayer
 62
  256
370
   -1
100
AcDbLine
 10
29.49999999999963
 20
18.89405132356857
 11
29.50000000000001
 21
32.49999999999955
  0
LINE
  5
1D1
100
AcDbEntity
  8
0
  6
ByLayer
 62
  256
370
   -1
100
AcDbLine
 10
29.50000000000001
 20
32.49999999999955
 11
16.63557871637817
 21
32.49999999999955
  0
LINE
  5
1D2
100
AcDbEntity
  8
0
  6
ByLayer
 62
  256
370
   -1
100
AcDbLine
 10
29.49999999999908
 20
-0.5000000000004626
 11
29.49999999999955
 21
16.2499858322237
  0
LINE
  5
1D3
100
AcDbEntity
  8
0
  6
ByLayer
 62
  256
370
   -1
100
AcDbLine
 10
-0.500000000000418
 20
14.70761429560586
 11
-0.4999999999999858
 21
-0.4999999999999922
  0
LINE
  5
1D4
100
AcDbEntity
  8
0
  6
ByLayer
 62
  256
370
   -1
100
AcDbLine
 10
-0.4999999999999858
 20
-0.4999999999999922
 11
29.49999999999908
 21
-0.5000000000004626
  0
ENDSEC
  0
SECTION
  2
OBJECTS
  0
DICTIONARY
  5
C
330
0
100
AcDbDictionary
281
    1
  3
ACAD_GROUP
350
D
  0
DICTIONARY
  5
D
330
C
100
AcDbDictionary
281
    1
  0
ENDSEC
  0
EOF
