  0
SECTION
  2
BLOCKS
  0
ENDSEC
  0
SECTION
  2
ENTITIES
  0
LINE
  8
0
 10
115.5
 20
-0.0533752
 11
115.501
 21
-0.0533752
  0
LINE
  8
0
 10
115.501
 20
-0.0533752
 11
115.501
 21
104.328
  0
LINE
  8
0
 10
115.501
 20
104.328
 11
115.5
 21
104.328
  0
LINE
  8
0
 10
115.5
 20
104.328
 11
115.5
 21
114.692
  0
LINE
  8
0
 10
115.5
 20
114.692
 11
-115.5
 21
114.692
  0
LINE
  8
0
 10
-115.5
 20
114.692
 11
-115.5
 21
-0.75
  0
LINE
  8
0
 10
-115.5
 20
-0.75
 11
115.5
 21
-0.75
  0
LINE
  8
0
 10
115.5
 20
-0.75
 11
115.5
 21
-0.0533752
  0
LINE
  8
0
 10
84.1137
 20
108.639
 11
83.7653
 21
108.812
  0
LINE
  8
0
 10
83.7653
 20
108.812
 11
83.4887
 21
109.083
  0
LINE
  8
0
 10
83.4887
 20
109.083
 11
83.3112
 21
109.424
  0
LINE
  8
0
 10
83.3112
 20
109.424
 11
83.2971
 21
109.51
  0
LINE
  8
0
 10
83.2971
 20
109.51
 11
83.3112
 21
109.597
  0
LINE
  8
0
 10
83.3112
 20
109.597
 11
83.4887
 21
109.938
  0
LINE
  8
0
 10
83.4887
 20
109.938
 11
83.7653
 21
110.209
  0
LINE
  8
0
 10
83.7653
 20
110.209
 11
84.1137
 21
110.382
  0
LINE
  8
0
 10
84.1137
 20
110.382
 11
84.5
 21
110.442
  0
LINE
  8
0
 10
84.5
 20
110.442
 11
84.8863
 21
110.382
  0
LINE
  8
0
 10
84.8863
 20
110.382
 11
85.2347
 21
110.209
  0
LINE
  8
0
 10
85.2347
 20
110.209
 11
85.5113
 21
109.938
  0
LINE
  8
0
 10
85.5113
 20
109.938
 11
85.6888
 21
109.597
  0
LINE
  8
0
 10
85.6888
 20
109.597
 11
85.7029
 21
109.51
  0
LINE
  8
0
 10
85.7029
 20
109.51
 11
85.6888
 21
109.424
  0
LINE
  8
0
 10
85.6888
 20
109.424
 11
85.5113
 21
109.083
  0
LINE
  8
0
 10
85.5113
 20
109.083
 11
85.2347
 21
108.812
  0
LINE
  8
0
 10
85.2347
 20
108.812
 11
84.8863
 21
108.639
  0
LINE
  8
0
 10
84.8863
 20
108.639
 11
84.5
 21
108.579
  0
LINE
  8
0
 10
84.5
 20
108.579
 11
84.1137
 21
108.639
  0
LINE
  8
0
 10
64.1137
 20
108.639
 11
63.7653
 21
108.812
  0
LINE
  8
0
 10
63.7653
 20
108.812
 11
63.4887
 21
109.083
  0
LINE
  8
0
 10
63.4887
 20
109.083
 11
63.3112
 21
109.424
  0
LINE
  8
0
 10
63.3112
 20
109.424
 11
63.2971
 21
109.51
  0
LINE
  8
0
 10
63.2971
 20
109.51
 11
63.3112
 21
109.597
  0
LINE
  8
0
 10
63.3112
 20
109.597
 11
63.4887
 21
109.938
  0
LINE
  8
0
 10
63.4887
 20
109.938
 11
63.7653
 21
110.209
  0
LINE
  8
0
 10
63.7653
 20
110.209
 11
64.1137
 21
110.382
  0
LINE
  8
0
 10
64.1137
 20
110.382
 11
64.5
 21
110.442
  0
LINE
  8
0
 10
64.5
 20
110.442
 11
64.8863
 21
110.382
  0
LINE
  8
0
 10
64.8863
 20
110.382
 11
65.2347
 21
110.209
  0
LINE
  8
0
 10
65.2347
 20
110.209
 11
65.5113
 21
109.938
  0
LINE
  8
0
 10
65.5113
 20
109.938
 11
65.6888
 21
109.597
  0
LINE
  8
0
 10
65.6888
 20
109.597
 11
65.7029
 21
109.51
  0
LINE
  8
0
 10
65.7029
 20
109.51
 11
65.6888
 21
109.424
  0
LINE
  8
0
 10
65.6888
 20
109.424
 11
65.5113
 21
109.083
  0
LINE
  8
0
 10
65.5113
 20
109.083
 11
65.2347
 21
108.812
  0
LINE
  8
0
 10
65.2347
 20
108.812
 11
64.8863
 21
108.639
  0
LINE
  8
0
 10
64.8863
 20
108.639
 11
64.5
 21
108.579
  0
LINE
  8
0
 10
64.5
 20
108.579
 11
64.1137
 21
108.639
  0
LINE
  8
0
 10
44.1137
 20
108.639
 11
43.7653
 21
108.812
  0
LINE
  8
0
 10
43.7653
 20
108.812
 11
43.4887
 21
109.083
  0
LINE
  8
0
 10
43.4887
 20
109.083
 11
43.3112
 21
109.424
  0
LINE
  8
0
 10
43.3112
 20
109.424
 11
43.2971
 21
109.51
  0
LINE
  8
0
 10
43.2971
 20
109.51
 11
43.3112
 21
109.597
  0
LINE
  8
0
 10
43.3112
 20
109.597
 11
43.4887
 21
109.938
  0
LINE
  8
0
 10
43.4887
 20
109.938
 11
43.7653
 21
110.209
  0
LINE
  8
0
 10
43.7653
 20
110.209
 11
44.1137
 21
110.382
  0
LINE
  8
0
 10
44.1137
 20
110.382
 11
44.5
 21
110.442
  0
LINE
  8
0
 10
44.5
 20
110.442
 11
44.8863
 21
110.382
  0
LINE
  8
0
 10
44.8863
 20
110.382
 11
45.2347
 21
110.209
  0
LINE
  8
0
 10
45.2347
 20
110.209
 11
45.5113
 21
109.938
  0
LINE
  8
0
 10
45.5113
 20
109.938
 11
45.6888
 21
109.597
  0
LINE
  8
0
 10
45.6888
 20
109.597
 11
45.7029
 21
109.51
  0
LINE
  8
0
 10
45.7029
 20
109.51
 11
45.6888
 21
109.424
  0
LINE
  8
0
 10
45.6888
 20
109.424
 11
45.5113
 21
109.083
  0
LINE
  8
0
 10
45.5113
 20
109.083
 11
45.2347
 21
108.812
  0
LINE
  8
0
 10
45.2347
 20
108.812
 11
44.8863
 21
108.639
  0
LINE
  8
0
 10
44.8863
 20
108.639
 11
44.5
 21
108.579
  0
LINE
  8
0
 10
44.5
 20
108.579
 11
44.1137
 21
108.639
  0
LINE
  8
0
 10
24.1137
 20
108.639
 11
23.7653
 21
108.812
  0
LINE
  8
0
 10
23.7653
 20
108.812
 11
23.4887
 21
109.083
  0
LINE
  8
0
 10
23.4887
 20
109.083
 11
23.3112
 21
109.424
  0
LINE
  8
0
 10
23.3112
 20
109.424
 11
23.2971
 21
109.51
  0
LINE
  8
0
 10
23.2971
 20
109.51
 11
23.3112
 21
109.597
  0
LINE
  8
0
 10
23.3112
 20
109.597
 11
23.4887
 21
109.938
  0
LINE
  8
0
 10
23.4887
 20
109.938
 11
23.7653
 21
110.209
  0
LINE
  8
0
 10
23.7653
 20
110.209
 11
24.1137
 21
110.382
  0
LINE
  8
0
 10
24.1137
 20
110.382
 11
24.5
 21
110.442
  0
LINE
  8
0
 10
24.5
 20
110.442
 11
24.8863
 21
110.382
  0
LINE
  8
0
 10
24.8863
 20
110.382
 11
25.2347
 21
110.209
  0
LINE
  8
0
 10
25.2347
 20
110.209
 11
25.5113
 21
109.938
  0
LINE
  8
0
 10
25.5113
 20
109.938
 11
25.6888
 21
109.597
  0
LINE
  8
0
 10
25.6888
 20
109.597
 11
25.7029
 21
109.51
  0
LINE
  8
0
 10
25.7029
 20
109.51
 11
25.6888
 21
109.424
  0
LINE
  8
0
 10
25.6888
 20
109.424
 11
25.5113
 21
109.083
  0
LINE
  8
0
 10
25.5113
 20
109.083
 11
25.2347
 21
108.812
  0
LINE
  8
0
 10
25.2347
 20
108.812
 11
24.8863
 21
108.639
  0
LINE
  8
0
 10
24.8863
 20
108.639
 11
24.5
 21
108.579
  0
LINE
  8
0
 10
24.5
 20
108.579
 11
24.1137
 21
108.639
  0
LINE
  8
0
 10
4.11372
 20
108.639
 11
3.76526
 21
108.812
  0
LINE
  8
0
 10
3.76526
 20
108.812
 11
3.48872
 21
109.083
  0
LINE
  8
0
 10
3.48872
 20
109.083
 11
3.31117
 21
109.424
  0
LINE
  8
0
 10
3.31117
 20
109.424
 11
3.29712
 21
109.51
  0
LINE
  8
0
 10
3.29712
 20
109.51
 11
3.31117
 21
109.597
  0
LINE
  8
0
 10
3.31117
 20
109.597
 11
3.48872
 21
109.938
  0
LINE
  8
0
 10
3.48872
 20
109.938
 11
3.76526
 21
110.209
  0
LINE
  8
0
 10
3.76526
 20
110.209
 11
4.11372
 21
110.382
  0
LINE
  8
0
 10
4.11372
 20
110.382
 11
4.5
 21
110.442
  0
LINE
  8
0
 10
4.5
 20
110.442
 11
4.88626
 21
110.382
  0
LINE
  8
0
 10
4.88626
 20
110.382
 11
5.23473
 21
110.209
  0
LINE
  8
0
 10
5.23473
 20
110.209
 11
5.51126
 21
109.938
  0
LINE
  8
0
 10
5.51126
 20
109.938
 11
5.68881
 21
109.597
  0
LINE
  8
0
 10
5.68881
 20
109.597
 11
5.70287
 21
109.51
  0
LINE
  8
0
 10
5.70287
 20
109.51
 11
5.68881
 21
109.424
  0
LINE
  8
0
 10
5.68881
 20
109.424
 11
5.51126
 21
109.083
  0
LINE
  8
0
 10
5.51126
 20
109.083
 11
5.23473
 21
108.812
  0
LINE
  8
0
 10
5.23473
 20
108.812
 11
4.88626
 21
108.639
  0
LINE
  8
0
 10
4.88626
 20
108.639
 11
4.5
 21
108.579
  0
LINE
  8
0
 10
4.5
 20
108.579
 11
4.11372
 21
108.639
  0
LINE
  8
0
 10
-35.8863
 20
108.639
 11
-36.2347
 21
108.812
  0
LINE
  8
0
 10
-36.2347
 20
108.812
 11
-36.5113
 21
109.083
  0
LINE
  8
0
 10
-36.5113
 20
109.083
 11
-36.6888
 21
109.424
  0
LINE
  8
0
 10
-36.6888
 20
109.424
 11
-36.7029
 21
109.51
  0
LINE
  8
0
 10
-36.7029
 20
109.51
 11
-36.6888
 21
109.597
  0
LINE
  8
0
 10
-36.6888
 20
109.597
 11
-36.5113
 21
109.938
  0
LINE
  8
0
 10
-36.5113
 20
109.938
 11
-36.2347
 21
110.209
  0
LINE
  8
0
 10
-36.2347
 20
110.209
 11
-35.8863
 21
110.382
  0
LINE
  8
0
 10
-35.8863
 20
110.382
 11
-35.5
 21
110.442
  0
LINE
  8
0
 10
-35.5
 20
110.442
 11
-35.1137
 21
110.382
  0
LINE
  8
0
 10
-35.1137
 20
110.382
 11
-34.7653
 21
110.209
  0
LINE
  8
0
 10
-34.7653
 20
110.209
 11
-34.4887
 21
109.938
  0
LINE
  8
0
 10
-34.4887
 20
109.938
 11
-34.3112
 21
109.597
  0
LINE
  8
0
 10
-34.3112
 20
109.597
 11
-34.2971
 21
109.51
  0
LINE
  8
0
 10
-34.2971
 20
109.51
 11
-34.3112
 21
109.424
  0
LINE
  8
0
 10
-34.3112
 20
109.424
 11
-34.4887
 21
109.083
  0
LINE
  8
0
 10
-34.4887
 20
109.083
 11
-34.7653
 21
108.812
  0
LINE
  8
0
 10
-34.7653
 20
108.812
 11
-35.1137
 21
108.639
  0
LINE
  8
0
 10
-35.1137
 20
108.639
 11
-35.5
 21
108.579
  0
LINE
  8
0
 10
-35.5
 20
108.579
 11
-35.8863
 21
108.639
  0
LINE
  8
0
 10
-55.8863
 20
108.639
 11
-56.2347
 21
108.812
  0
LINE
  8
0
 10
-56.2347
 20
108.812
 11
-56.5113
 21
109.083
  0
LINE
  8
0
 10
-56.5113
 20
109.083
 11
-56.6888
 21
109.424
  0
LINE
  8
0
 10
-56.6888
 20
109.424
 11
-56.7029
 21
109.51
  0
LINE
  8
0
 10
-56.7029
 20
109.51
 11
-56.6888
 21
109.597
  0
LINE
  8
0
 10
-56.6888
 20
109.597
 11
-56.5113
 21
109.938
  0
LINE
  8
0
 10
-56.5113
 20
109.938
 11
-56.2347
 21
110.209
  0
LINE
  8
0
 10
-56.2347
 20
110.209
 11
-55.8863
 21
110.382
  0
LINE
  8
0
 10
-55.8863
 20
110.382
 11
-55.5
 21
110.442
  0
LINE
  8
0
 10
-55.5
 20
110.442
 11
-55.1137
 21
110.382
  0
LINE
  8
0
 10
-55.1137
 20
110.382
 11
-54.7653
 21
110.209
  0
LINE
  8
0
 10
-54.7653
 20
110.209
 11
-54.4887
 21
109.938
  0
LINE
  8
0
 10
-54.4887
 20
109.938
 11
-54.3112
 21
109.597
  0
LINE
  8
0
 10
-54.3112
 20
109.597
 11
-54.2971
 21
109.51
  0
LINE
  8
0
 10
-54.2971
 20
109.51
 11
-54.3112
 21
109.424
  0
LINE
  8
0
 10
-54.3112
 20
109.424
 11
-54.4887
 21
109.083
  0
LINE
  8
0
 10
-54.4887
 20
109.083
 11
-54.7653
 21
108.812
  0
LINE
  8
0
 10
-54.7653
 20
108.812
 11
-55.1137
 21
108.639
  0
LINE
  8
0
 10
-55.1137
 20
108.639
 11
-55.5
 21
108.579
  0
LINE
  8
0
 10
-55.5
 20
108.579
 11
-55.8863
 21
108.639
  0
LINE
  8
0
 10
-75.8863
 20
108.639
 11
-76.2347
 21
108.812
  0
LINE
  8
0
 10
-76.2347
 20
108.812
 11
-76.5113
 21
109.083
  0
LINE
  8
0
 10
-76.5113
 20
109.083
 11
-76.6888
 21
109.424
  0
LINE
  8
0
 10
-76.6888
 20
109.424
 11
-76.7029
 21
109.51
  0
LINE
  8
0
 10
-76.7029
 20
109.51
 11
-76.6888
 21
109.597
  0
LINE
  8
0
 10
-76.6888
 20
109.597
 11
-76.5113
 21
109.938
  0
LINE
  8
0
 10
-76.5113
 20
109.938
 11
-76.2347
 21
110.209
  0
LINE
  8
0
 10
-76.2347
 20
110.209
 11
-75.8863
 21
110.382
  0
LINE
  8
0
 10
-75.8863
 20
110.382
 11
-75.5
 21
110.442
  0
LINE
  8
0
 10
-75.5
 20
110.442
 11
-75.1137
 21
110.382
  0
LINE
  8
0
 10
-75.1137
 20
110.382
 11
-74.7653
 21
110.209
  0
LINE
  8
0
 10
-74.7653
 20
110.209
 11
-74.4887
 21
109.938
  0
LINE
  8
0
 10
-74.4887
 20
109.938
 11
-74.3112
 21
109.597
  0
LINE
  8
0
 10
-74.3112
 20
109.597
 11
-74.2971
 21
109.51
  0
LINE
  8
0
 10
-74.2971
 20
109.51
 11
-74.3112
 21
109.424
  0
LINE
  8
0
 10
-74.3112
 20
109.424
 11
-74.4887
 21
109.083
  0
LINE
  8
0
 10
-74.4887
 20
109.083
 11
-74.7653
 21
108.812
  0
LINE
  8
0
 10
-74.7653
 20
108.812
 11
-75.1137
 21
108.639
  0
LINE
  8
0
 10
-75.1137
 20
108.639
 11
-75.5
 21
108.579
  0
LINE
  8
0
 10
-75.5
 20
108.579
 11
-75.8863
 21
108.639
  0
LINE
  8
0
 10
-95.8863
 20
108.639
 11
-96.2347
 21
108.812
  0
LINE
  8
0
 10
-96.2347
 20
108.812
 11
-96.5113
 21
109.083
  0
LINE
  8
0
 10
-96.5113
 20
109.083
 11
-96.6888
 21
109.424
  0
LINE
  8
0
 10
-96.6888
 20
109.424
 11
-96.7029
 21
109.51
  0
LINE
  8
0
 10
-96.7029
 20
109.51
 11
-96.6888
 21
109.597
  0
LINE
  8
0
 10
-96.6888
 20
109.597
 11
-96.5113
 21
109.938
  0
LINE
  8
0
 10
-96.5113
 20
109.938
 11
-96.2347
 21
110.209
  0
LINE
  8
0
 10
-96.2347
 20
110.209
 11
-95.8863
 21
110.382
  0
LINE
  8
0
 10
-95.8863
 20
110.382
 11
-95.5
 21
110.442
  0
LINE
  8
0
 10
-95.5
 20
110.442
 11
-95.1137
 21
110.382
  0
LINE
  8
0
 10
-95.1137
 20
110.382
 11
-94.7653
 21
110.209
  0
LINE
  8
0
 10
-94.7653
 20
110.209
 11
-94.4887
 21
109.938
  0
LINE
  8
0
 10
-94.4887
 20
109.938
 11
-94.3112
 21
109.597
  0
LINE
  8
0
 10
-94.3112
 20
109.597
 11
-94.2971
 21
109.51
  0
LINE
  8
0
 10
-94.2971
 20
109.51
 11
-94.3112
 21
109.424
  0
LINE
  8
0
 10
-94.3112
 20
109.424
 11
-94.4887
 21
109.083
  0
LINE
  8
0
 10
-94.4887
 20
109.083
 11
-94.7653
 21
108.812
  0
LINE
  8
0
 10
-94.7653
 20
108.812
 11
-95.1137
 21
108.639
  0
LINE
  8
0
 10
-95.1137
 20
108.639
 11
-95.5
 21
108.579
  0
LINE
  8
0
 10
-95.5
 20
108.579
 11
-95.8863
 21
108.639
  0
LINE
  8
0
 10
-15.8863
 20
108.639
 11
-16.2347
 21
108.812
  0
LINE
  8
0
 10
-16.2347
 20
108.812
 11
-16.5113
 21
109.083
  0
LINE
  8
0
 10
-16.5113
 20
109.083
 11
-16.6888
 21
109.424
  0
LINE
  8
0
 10
-16.6888
 20
109.424
 11
-16.7029
 21
109.51
  0
LINE
  8
0
 10
-16.7029
 20
109.51
 11
-16.6888
 21
109.597
  0
LINE
  8
0
 10
-16.6888
 20
109.597
 11
-16.5113
 21
109.938
  0
LINE
  8
0
 10
-16.5113
 20
109.938
 11
-16.2347
 21
110.209
  0
LINE
  8
0
 10
-16.2347
 20
110.209
 11
-15.8863
 21
110.382
  0
LINE
  8
0
 10
-15.8863
 20
110.382
 11
-15.5
 21
110.442
  0
LINE
  8
0
 10
-15.5
 20
110.442
 11
-15.1137
 21
110.382
  0
LINE
  8
0
 10
-15.1137
 20
110.382
 11
-14.7653
 21
110.209
  0
LINE
  8
0
 10
-14.7653
 20
110.209
 11
-14.4887
 21
109.938
  0
LINE
  8
0
 10
-14.4887
 20
109.938
 11
-14.3112
 21
109.597
  0
LINE
  8
0
 10
-14.3112
 20
109.597
 11
-14.2971
 21
109.51
  0
LINE
  8
0
 10
-14.2971
 20
109.51
 11
-14.3112
 21
109.424
  0
LINE
  8
0
 10
-14.3112
 20
109.424
 11
-14.4887
 21
109.083
  0
LINE
  8
0
 10
-14.4887
 20
109.083
 11
-14.7653
 21
108.812
  0
LINE
  8
0
 10
-14.7653
 20
108.812
 11
-15.1137
 21
108.639
  0
LINE
  8
0
 10
-15.1137
 20
108.639
 11
-15.5
 21
108.579
  0
LINE
  8
0
 10
-15.5
 20
108.579
 11
-15.8863
 21
108.639
  0
LINE
  8
0
 10
-9.49239
 20
75.6663
 11
-11.434
 21
75.9671
  0
LINE
  8
0
 10
-11.434
 20
75.9671
 11
-13.1856
 21
76.8401
  0
LINE
  8
0
 10
-13.1856
 20
76.8401
 11
-14.5757
 21
78.1998
  0
LINE
  8
0
 10
-14.5757
 20
78.1998
 11
-15.4681
 21
79.9131
  0
LINE
  8
0
 10
-15.4681
 20
79.9131
 11
-15.7757
 21
81.8123
  0
LINE
  8
0
 10
-15.7757
 20
81.8123
 11
-15.4681
 21
83.7115
  0
LINE
  8
0
 10
-15.4681
 20
83.7115
 11
-14.5757
 21
85.4248
  0
LINE
  8
0
 10
-14.5757
 20
85.4248
 11
-13.1856
 21
86.7845
  0
LINE
  8
0
 10
-13.1856
 20
86.7845
 11
-11.434
 21
87.6574
  0
LINE
  8
0
 10
-11.434
 20
87.6574
 11
-10.9524
 21
87.732
  0
LINE
  8
0
 10
-10.9524
 20
87.732
 11
-9.49239
 21
87.9586
  0
LINE
  8
0
 10
-9.49239
 20
87.9586
 11
-9.49121
 21
87.9587
  0
LINE
  8
0
 10
-9.49121
 20
87.9587
 11
-7.56543
 21
87.6599
  0
LINE
  8
0
 10
-7.56543
 20
87.6599
 11
-7.56447
 21
87.6595
  0
LINE
  8
0
 10
-7.56447
 20
87.6595
 11
-7.55077
 21
87.6574
  0
LINE
  8
0
 10
-7.55077
 20
87.6574
 11
-5.79919
 21
86.7845
  0
LINE
  8
0
 10
-5.79919
 20
86.7845
 11
-4.40913
 21
85.4248
  0
LINE
  8
0
 10
-4.40913
 20
85.4248
 11
-3.51666
 21
83.7115
  0
LINE
  8
0
 10
-3.51666
 20
83.7115
 11
-3.20914
 21
81.8123
  0
LINE
  8
0
 10
-3.20914
 20
81.8123
 11
-3.51666
 21
79.9131
  0
LINE
  8
0
 10
-3.51666
 20
79.9131
 11
-4.40913
 21
78.1998
  0
LINE
  8
0
 10
-4.40913
 20
78.1998
 11
-5.79919
 21
76.8401
  0
LINE
  8
0
 10
-5.79919
 20
76.8401
 11
-7.55077
 21
75.9671
  0
LINE
  8
0
 10
-7.55077
 20
75.9671
 11
-9.49239
 21
75.6663
  0
LINE
  8
0
 10
-24.4924
 20
75.6663
 11
-26.434
 21
75.9671
  0
LINE
  8
0
 10
-26.434
 20
75.9671
 11
-28.1856
 21
76.8401
  0
LINE
  8
0
 10
-28.1856
 20
76.8401
 11
-29.5757
 21
78.1998
  0
LINE
  8
0
 10
-29.5757
 20
78.1998
 11
-30.4681
 21
79.9131
  0
LINE
  8
0
 10
-30.4681
 20
79.9131
 11
-30.7757
 21
81.8123
  0
LINE
  8
0
 10
-30.7757
 20
81.8123
 11
-30.4681
 21
83.7115
  0
LINE
  8
0
 10
-30.4681
 20
83.7115
 11
-29.5757
 21
85.4248
  0
LINE
  8
0
 10
-29.5757
 20
85.4248
 11
-28.1856
 21
86.7845
  0
LINE
  8
0
 10
-28.1856
 20
86.7845
 11
-26.434
 21
87.6574
  0
LINE
  8
0
 10
-26.434
 20
87.6574
 11
-24.4924
 21
87.9582
  0
LINE
  8
0
 10
-24.4924
 20
87.9582
 11
-22.5508
 21
87.6574
  0
LINE
  8
0
 10
-22.5508
 20
87.6574
 11
-20.7992
 21
86.7845
  0
LINE
  8
0
 10
-20.7992
 20
86.7845
 11
-19.4091
 21
85.4248
  0
LINE
  8
0
 10
-19.4091
 20
85.4248
 11
-18.5167
 21
83.7115
  0
LINE
  8
0
 10
-18.5167
 20
83.7115
 11
-18.2091
 21
81.8123
  0
LINE
  8
0
 10
-18.2091
 20
81.8123
 11
-18.5167
 21
79.9131
  0
LINE
  8
0
 10
-18.5167
 20
79.9131
 11
-19.4091
 21
78.1998
  0
LINE
  8
0
 10
-19.4091
 20
78.1998
 11
-20.7992
 21
76.8401
  0
LINE
  8
0
 10
-20.7992
 20
76.8401
 11
-22.5508
 21
75.9671
  0
LINE
  8
0
 10
-22.5508
 20
75.9671
 11
-24.4924
 21
75.6663
  0
LINE
  8
0
 10
20.5076
 20
75.6663
 11
18.566
 21
75.9671
  0
LINE
  8
0
 10
18.566
 20
75.9671
 11
16.8144
 21
76.8401
  0
LINE
  8
0
 10
16.8144
 20
76.8401
 11
15.4243
 21
78.1998
  0
LINE
  8
0
 10
15.4243
 20
78.1998
 11
14.5319
 21
79.9131
  0
LINE
  8
0
 10
14.5319
 20
79.9131
 11
14.2243
 21
81.8123
  0
LINE
  8
0
 10
14.2243
 20
81.8123
 11
14.5319
 21
83.7115
  0
LINE
  8
0
 10
14.5319
 20
83.7115
 11
15.4243
 21
85.4248
  0
LINE
  8
0
 10
15.4243
 20
85.4248
 11
16.8144
 21
86.7845
  0
LINE
  8
0
 10
16.8144
 20
86.7845
 11
18.566
 21
87.6574
  0
LINE
  8
0
 10
18.566
 20
87.6574
 11
20.5076
 21
87.9582
  0
LINE
  8
0
 10
20.5076
 20
87.9582
 11
22.4492
 21
87.6574
  0
LINE
  8
0
 10
22.4492
 20
87.6574
 11
24.2008
 21
86.7845
  0
LINE
  8
0
 10
24.2008
 20
86.7845
 11
25.5909
 21
85.4248
  0
LINE
  8
0
 10
25.5909
 20
85.4248
 11
26.4833
 21
83.7115
  0
LINE
  8
0
 10
26.4833
 20
83.7115
 11
26.7908
 21
81.8123
  0
LINE
  8
0
 10
26.7908
 20
81.8123
 11
26.4833
 21
79.9131
  0
LINE
  8
0
 10
26.4833
 20
79.9131
 11
25.5909
 21
78.1998
  0
LINE
  8
0
 10
25.5909
 20
78.1998
 11
24.2008
 21
76.8401
  0
LINE
  8
0
 10
24.2008
 20
76.8401
 11
22.4492
 21
75.9671
  0
LINE
  8
0
 10
22.4492
 20
75.9671
 11
20.5076
 21
75.6663
  0
LINE
  8
0
 10
35.5076
 20
75.6663
 11
33.566
 21
75.9671
  0
LINE
  8
0
 10
33.566
 20
75.9671
 11
31.8144
 21
76.8401
  0
LINE
  8
0
 10
31.8144
 20
76.8401
 11
30.4243
 21
78.1998
  0
LINE
  8
0
 10
30.4243
 20
78.1998
 11
29.5319
 21
79.9131
  0
LINE
  8
0
 10
29.5319
 20
79.9131
 11
29.2243
 21
81.8123
  0
LINE
  8
0
 10
29.2243
 20
81.8123
 11
29.5319
 21
83.7115
  0
LINE
  8
0
 10
29.5319
 20
83.7115
 11
30.4243
 21
85.4248
  0
LINE
  8
0
 10
30.4243
 20
85.4248
 11
31.8144
 21
86.7845
  0
LINE
  8
0
 10
31.8144
 20
86.7845
 11
33.566
 21
87.6574
  0
LINE
  8
0
 10
33.566
 20
87.6574
 11
35.5076
 21
87.9582
  0
LINE
  8
0
 10
35.5076
 20
87.9582
 11
37.4492
 21
87.6574
  0
LINE
  8
0
 10
37.4492
 20
87.6574
 11
39.2008
 21
86.7845
  0
LINE
  8
0
 10
39.2008
 20
86.7845
 11
40.5909
 21
85.4248
  0
LINE
  8
0
 10
40.5909
 20
85.4248
 11
41.4833
 21
83.7115
  0
LINE
  8
0
 10
41.4833
 20
83.7115
 11
41.7908
 21
81.8123
  0
LINE
  8
0
 10
41.7908
 20
81.8123
 11
41.4833
 21
79.9131
  0
LINE
  8
0
 10
41.4833
 20
79.9131
 11
40.5909
 21
78.1998
  0
LINE
  8
0
 10
40.5909
 20
78.1998
 11
39.2008
 21
76.8401
  0
LINE
  8
0
 10
39.2008
 20
76.8401
 11
37.4492
 21
75.9671
  0
LINE
  8
0
 10
37.4492
 20
75.9671
 11
35.5076
 21
75.6663
  0
LINE
  8
0
 10
-39.4924
 20
75.6663
 11
-41.434
 21
75.9671
  0
LINE
  8
0
 10
-41.434
 20
75.9671
 11
-43.1856
 21
76.8401
  0
LINE
  8
0
 10
-43.1856
 20
76.8401
 11
-44.5757
 21
78.1998
  0
LINE
  8
0
 10
-44.5757
 20
78.1998
 11
-45.4681
 21
79.9131
  0
LINE
  8
0
 10
-45.4681
 20
79.9131
 11
-45.7757
 21
81.8123
  0
LINE
  8
0
 10
-45.7757
 20
81.8123
 11
-45.4681
 21
83.7115
  0
LINE
  8
0
 10
-45.4681
 20
83.7115
 11
-44.5757
 21
85.4248
  0
LINE
  8
0
 10
-44.5757
 20
85.4248
 11
-43.1856
 21
86.7845
  0
LINE
  8
0
 10
-43.1856
 20
86.7845
 11
-41.434
 21
87.6574
  0
LINE
  8
0
 10
-41.434
 20
87.6574
 11
-39.4924
 21
87.9582
  0
LINE
  8
0
 10
-39.4924
 20
87.9582
 11
-37.5508
 21
87.6574
  0
LINE
  8
0
 10
-37.5508
 20
87.6574
 11
-35.7992
 21
86.7845
  0
LINE
  8
0
 10
-35.7992
 20
86.7845
 11
-34.4091
 21
85.4248
  0
LINE
  8
0
 10
-34.4091
 20
85.4248
 11
-33.5167
 21
83.7115
  0
LINE
  8
0
 10
-33.5167
 20
83.7115
 11
-33.2092
 21
81.8123
  0
LINE
  8
0
 10
-33.2092
 20
81.8123
 11
-33.5167
 21
79.9131
  0
LINE
  8
0
 10
-33.5167
 20
79.9131
 11
-34.4091
 21
78.1998
  0
LINE
  8
0
 10
-34.4091
 20
78.1998
 11
-35.7992
 21
76.8401
  0
LINE
  8
0
 10
-35.7992
 20
76.8401
 11
-37.5508
 21
75.9671
  0
LINE
  8
0
 10
-37.5508
 20
75.9671
 11
-39.4924
 21
75.6663
  0
LINE
  8
0
 10
-69.4924
 20
75.6663
 11
-71.434
 21
75.9671
  0
LINE
  8
0
 10
-71.434
 20
75.9671
 11
-73.1856
 21
76.8401
  0
LINE
  8
0
 10
-73.1856
 20
76.8401
 11
-74.5757
 21
78.1998
  0
LINE
  8
0
 10
-74.5757
 20
78.1998
 11
-75.4681
 21
79.9131
  0
LINE
  8
0
 10
-75.4681
 20
79.9131
 11
-75.7757
 21
81.8123
  0
LINE
  8
0
 10
-75.7757
 20
81.8123
 11
-75.4681
 21
83.7115
  0
LINE
  8
0
 10
-75.4681
 20
83.7115
 11
-74.5757
 21
85.4248
  0
LINE
  8
0
 10
-74.5757
 20
85.4248
 11
-73.1856
 21
86.7845
  0
LINE
  8
0
 10
-73.1856
 20
86.7845
 11
-71.434
 21
87.6574
  0
LINE
  8
0
 10
-71.434
 20
87.6574
 11
-69.4924
 21
87.9582
  0
LINE
  8
0
 10
-69.4924
 20
87.9582
 11
-67.5508
 21
87.6574
  0
LINE
  8
0
 10
-67.5508
 20
87.6574
 11
-65.7992
 21
86.7845
  0
LINE
  8
0
 10
-65.7992
 20
86.7845
 11
-64.4091
 21
85.4248
  0
LINE
  8
0
 10
-64.4091
 20
85.4248
 11
-63.5167
 21
83.7115
  0
LINE
  8
0
 10
-63.5167
 20
83.7115
 11
-63.2092
 21
81.8123
  0
LINE
  8
0
 10
-63.2092
 20
81.8123
 11
-63.5167
 21
79.9131
  0
LINE
  8
0
 10
-63.5167
 20
79.9131
 11
-64.4091
 21
78.1998
  0
LINE
  8
0
 10
-64.4091
 20
78.1998
 11
-65.7992
 21
76.8401
  0
LINE
  8
0
 10
-65.7992
 20
76.8401
 11
-67.5508
 21
75.9671
  0
LINE
  8
0
 10
-67.5508
 20
75.9671
 11
-69.4924
 21
75.6663
  0
LINE
  8
0
 10
-84.4924
 20
75.6663
 11
-86.434
 21
75.9671
  0
LINE
  8
0
 10
-86.434
 20
75.9671
 11
-88.1856
 21
76.8401
  0
LINE
  8
0
 10
-88.1856
 20
76.8401
 11
-89.5757
 21
78.1998
  0
LINE
  8
0
 10
-89.5757
 20
78.1998
 11
-90.4681
 21
79.9131
  0
LINE
  8
0
 10
-90.4681
 20
79.9131
 11
-90.7757
 21
81.8123
  0
LINE
  8
0
 10
-90.7757
 20
81.8123
 11
-90.4681
 21
83.7115
  0
LINE
  8
0
 10
-90.4681
 20
83.7115
 11
-89.5757
 21
85.4248
  0
LINE
  8
0
 10
-89.5757
 20
85.4248
 11
-88.1856
 21
86.7845
  0
LINE
  8
0
 10
-88.1856
 20
86.7845
 11
-86.434
 21
87.6574
  0
LINE
  8
0
 10
-86.434
 20
87.6574
 11
-84.4924
 21
87.9582
  0
LINE
  8
0
 10
-84.4924
 20
87.9582
 11
-82.5508
 21
87.6574
  0
LINE
  8
0
 10
-82.5508
 20
87.6574
 11
-80.7992
 21
86.7845
  0
LINE
  8
0
 10
-80.7992
 20
86.7845
 11
-79.4091
 21
85.4248
  0
LINE
  8
0
 10
-79.4091
 20
85.4248
 11
-78.5167
 21
83.7115
  0
LINE
  8
0
 10
-78.5167
 20
83.7115
 11
-78.2092
 21
81.8123
  0
LINE
  8
0
 10
-78.2092
 20
81.8123
 11
-78.5167
 21
79.9131
  0
LINE
  8
0
 10
-78.5167
 20
79.9131
 11
-79.4091
 21
78.1998
  0
LINE
  8
0
 10
-79.4091
 20
78.1998
 11
-80.7992
 21
76.8401
  0
LINE
  8
0
 10
-80.7992
 20
76.8401
 11
-82.5508
 21
75.9671
  0
LINE
  8
0
 10
-82.5508
 20
75.9671
 11
-84.4924
 21
75.6663
  0
LINE
  8
0
 10
73.0066
 20
61.008
 11
71.065
 21
61.3088
  0
LINE
  8
0
 10
71.065
 20
61.3088
 11
69.3134
 21
62.1818
  0
LINE
  8
0
 10
69.3134
 20
62.1818
 11
67.9233
 21
63.5415
  0
LINE
  8
0
 10
67.9233
 20
63.5415
 11
67.0309
 21
65.2547
  0
LINE
  8
0
 10
67.0309
 20
65.2547
 11
66.7233
 21
67.1539
  0
LINE
  8
0
 10
66.7233
 20
67.1539
 11
67.0309
 21
69.0532
  0
LINE
  8
0
 10
67.0309
 20
69.0532
 11
67.9233
 21
70.7664
  0
LINE
  8
0
 10
67.9233
 20
70.7664
 11
69.3134
 21
72.1261
  0
LINE
  8
0
 10
69.3134
 20
72.1261
 11
71.065
 21
72.9991
  0
LINE
  8
0
 10
71.065
 20
72.9991
 11
73.0066
 21
73.2999
  0
LINE
  8
0
 10
73.0066
 20
73.2999
 11
74.9482
 21
72.9991
  0
LINE
  8
0
 10
74.9482
 20
72.9991
 11
76.6998
 21
72.1261
  0
LINE
  8
0
 10
76.6998
 20
72.1261
 11
78.0899
 21
70.7664
  0
LINE
  8
0
 10
78.0899
 20
70.7664
 11
78.9823
 21
69.0532
  0
LINE
  8
0
 10
78.9823
 20
69.0532
 11
79.2898
 21
67.1539
  0
LINE
  8
0
 10
79.2898
 20
67.1539
 11
78.9823
 21
65.2547
  0
LINE
  8
0
 10
78.9823
 20
65.2547
 11
78.0899
 21
63.5415
  0
LINE
  8
0
 10
78.0899
 20
63.5415
 11
76.6998
 21
62.1818
  0
LINE
  8
0
 10
76.6998
 20
62.1818
 11
74.9482
 21
61.3088
  0
LINE
  8
0
 10
74.9482
 20
61.3088
 11
73.0066
 21
61.008
  0
LINE
  8
0
 10
43.0066
 20
61.008
 11
41.065
 21
61.3088
  0
LINE
  8
0
 10
41.065
 20
61.3088
 11
39.3134
 21
62.1818
  0
LINE
  8
0
 10
39.3134
 20
62.1818
 11
37.9233
 21
63.5415
  0
LINE
  8
0
 10
37.9233
 20
63.5415
 11
37.0309
 21
65.2547
  0
LINE
  8
0
 10
37.0309
 20
65.2547
 11
36.7233
 21
67.1539
  0
LINE
  8
0
 10
36.7233
 20
67.1539
 11
37.0309
 21
69.0532
  0
LINE
  8
0
 10
37.0309
 20
69.0532
 11
37.9233
 21
70.7664
  0
LINE
  8
0
 10
37.9233
 20
70.7664
 11
39.3134
 21
72.1261
  0
LINE
  8
0
 10
39.3134
 20
72.1261
 11
41.065
 21
72.9991
  0
LINE
  8
0
 10
41.065
 20
72.9991
 11
43.0066
 21
73.2999
  0
LINE
  8
0
 10
43.0066
 20
73.2999
 11
44.9482
 21
72.9991
  0
LINE
  8
0
 10
44.9482
 20
72.9991
 11
46.6998
 21
72.1261
  0
LINE
  8
0
 10
46.6998
 20
72.1261
 11
48.0898
 21
70.7664
  0
LINE
  8
0
 10
48.0898
 20
70.7664
 11
48.9823
 21
69.0532
  0
LINE
  8
0
 10
48.9823
 20
69.0532
 11
49.2898
 21
67.1539
  0
LINE
  8
0
 10
49.2898
 20
67.1539
 11
48.9823
 21
65.2547
  0
LINE
  8
0
 10
48.9823
 20
65.2547
 11
48.0898
 21
63.5415
  0
LINE
  8
0
 10
48.0898
 20
63.5415
 11
46.6998
 21
62.1818
  0
LINE
  8
0
 10
46.6998
 20
62.1818
 11
44.9482
 21
61.3088
  0
LINE
  8
0
 10
44.9482
 20
61.3088
 11
43.0066
 21
61.008
  0
LINE
  8
0
 10
-16.9934
 20
61.008
 11
-18.935
 21
61.3088
  0
LINE
  8
0
 10
-18.935
 20
61.3088
 11
-20.6866
 21
62.1818
  0
LINE
  8
0
 10
-20.6866
 20
62.1818
 11
-22.0766
 21
63.5415
  0
LINE
  8
0
 10
-22.0766
 20
63.5415
 11
-22.9691
 21
65.2547
  0
LINE
  8
0
 10
-22.9691
 20
65.2547
 11
-23.2766
 21
67.1539
  0
LINE
  8
0
 10
-23.2766
 20
67.1539
 11
-22.9691
 21
69.0532
  0
LINE
  8
0
 10
-22.9691
 20
69.0532
 11
-22.0766
 21
70.7664
  0
LINE
  8
0
 10
-22.0766
 20
70.7664
 11
-20.6866
 21
72.1261
  0
LINE
  8
0
 10
-20.6866
 20
72.1261
 11
-18.935
 21
72.9991
  0
LINE
  8
0
 10
-18.935
 20
72.9991
 11
-16.9934
 21
73.2999
  0
LINE
  8
0
 10
-16.9934
 20
73.2999
 11
-15.0518
 21
72.9991
  0
LINE
  8
0
 10
-15.0518
 20
72.9991
 11
-13.3002
 21
72.1261
  0
LINE
  8
0
 10
-13.3002
 20
72.1261
 11
-11.9101
 21
70.7664
  0
LINE
  8
0
 10
-11.9101
 20
70.7664
 11
-11.0177
 21
69.0532
  0
LINE
  8
0
 10
-11.0177
 20
69.0532
 11
-10.7101
 21
67.1539
  0
LINE
  8
0
 10
-10.7101
 20
67.1539
 11
-11.0177
 21
65.2547
  0
LINE
  8
0
 10
-11.0177
 20
65.2547
 11
-11.9101
 21
63.5415
  0
LINE
  8
0
 10
-11.9101
 20
63.5415
 11
-13.3002
 21
62.1818
  0
LINE
  8
0
 10
-13.3002
 20
62.1818
 11
-15.0518
 21
61.3088
  0
LINE
  8
0
 10
-15.0518
 20
61.3088
 11
-16.9934
 21
61.008
  0
LINE
  8
0
 10
28.0066
 20
61.008
 11
26.065
 21
61.3088
  0
LINE
  8
0
 10
26.065
 20
61.3088
 11
24.3134
 21
62.1818
  0
LINE
  8
0
 10
24.3134
 20
62.1818
 11
22.9233
 21
63.5415
  0
LINE
  8
0
 10
22.9233
 20
63.5415
 11
22.0309
 21
65.2547
  0
LINE
  8
0
 10
22.0309
 20
65.2547
 11
21.7233
 21
67.1539
  0
LINE
  8
0
 10
21.7233
 20
67.1539
 11
22.0309
 21
69.0532
  0
LINE
  8
0
 10
22.0309
 20
69.0532
 11
22.9233
 21
70.7664
  0
LINE
  8
0
 10
22.9233
 20
70.7664
 11
24.3134
 21
72.1261
  0
LINE
  8
0
 10
24.3134
 20
72.1261
 11
26.065
 21
72.9991
  0
LINE
  8
0
 10
26.065
 20
72.9991
 11
28.0066
 21
73.2999
  0
LINE
  8
0
 10
28.0066
 20
73.2999
 11
29.9482
 21
72.9991
  0
LINE
  8
0
 10
29.9482
 20
72.9991
 11
31.6998
 21
72.1261
  0
LINE
  8
0
 10
31.6998
 20
72.1261
 11
33.0898
 21
70.7664
  0
LINE
  8
0
 10
33.0898
 20
70.7664
 11
33.9823
 21
69.0532
  0
LINE
  8
0
 10
33.9823
 20
69.0532
 11
34.2898
 21
67.1539
  0
LINE
  8
0
 10
34.2898
 20
67.1539
 11
33.9823
 21
65.2547
  0
LINE
  8
0
 10
33.9823
 20
65.2547
 11
33.0898
 21
63.5415
  0
LINE
  8
0
 10
33.0898
 20
63.5415
 11
31.6998
 21
62.1818
  0
LINE
  8
0
 10
31.6998
 20
62.1818
 11
29.9482
 21
61.3088
  0
LINE
  8
0
 10
29.9482
 20
61.3088
 11
28.0066
 21
61.008
  0
LINE
  8
0
 10
-31.9934
 20
61.008
 11
-33.935
 21
61.3088
  0
LINE
  8
0
 10
-33.935
 20
61.3088
 11
-35.6866
 21
62.1818
  0
LINE
  8
0
 10
-35.6866
 20
62.1818
 11
-37.0766
 21
63.5415
  0
LINE
  8
0
 10
-37.0766
 20
63.5415
 11
-37.9691
 21
65.2547
  0
LINE
  8
0
 10
-37.9691
 20
65.2547
 11
-38.2766
 21
67.1539
  0
LINE
  8
0
 10
-38.2766
 20
67.1539
 11
-37.9691
 21
69.0532
  0
LINE
  8
0
 10
-37.9691
 20
69.0532
 11
-37.0766
 21
70.7664
  0
LINE
  8
0
 10
-37.0766
 20
70.7664
 11
-35.6866
 21
72.1261
  0
LINE
  8
0
 10
-35.6866
 20
72.1261
 11
-33.935
 21
72.9991
  0
LINE
  8
0
 10
-33.935
 20
72.9991
 11
-31.9934
 21
73.2999
  0
LINE
  8
0
 10
-31.9934
 20
73.2999
 11
-30.0518
 21
72.9991
  0
LINE
  8
0
 10
-30.0518
 20
72.9991
 11
-28.3002
 21
72.1261
  0
LINE
  8
0
 10
-28.3002
 20
72.1261
 11
-26.9101
 21
70.7664
  0
LINE
  8
0
 10
-26.9101
 20
70.7664
 11
-26.0177
 21
69.0532
  0
LINE
  8
0
 10
-26.0177
 20
69.0532
 11
-25.7101
 21
67.1539
  0
LINE
  8
0
 10
-25.7101
 20
67.1539
 11
-26.0177
 21
65.2547
  0
LINE
  8
0
 10
-26.0177
 20
65.2547
 11
-26.9101
 21
63.5415
  0
LINE
  8
0
 10
-26.9101
 20
63.5415
 11
-28.3002
 21
62.1818
  0
LINE
  8
0
 10
-28.3002
 20
62.1818
 11
-30.0518
 21
61.3088
  0
LINE
  8
0
 10
-30.0518
 20
61.3088
 11
-31.9934
 21
61.008
  0
LINE
  8
0
 10
-76.9794
 20
61.008
 11
-78.921
 21
61.3088
  0
LINE
  8
0
 10
-78.921
 20
61.3088
 11
-80.6726
 21
62.1818
  0
LINE
  8
0
 10
-80.6726
 20
62.1818
 11
-82.0627
 21
63.5415
  0
LINE
  8
0
 10
-82.0627
 20
63.5415
 11
-82.9551
 21
65.2547
  0
LINE
  8
0
 10
-82.9551
 20
65.2547
 11
-83.2626
 21
67.1539
  0
LINE
  8
0
 10
-83.2626
 20
67.1539
 11
-82.9551
 21
69.0532
  0
LINE
  8
0
 10
-82.9551
 20
69.0532
 11
-82.0627
 21
70.7664
  0
LINE
  8
0
 10
-82.0627
 20
70.7664
 11
-80.6726
 21
72.1261
  0
LINE
  8
0
 10
-80.6726
 20
72.1261
 11
-78.921
 21
72.9991
  0
LINE
  8
0
 10
-78.921
 20
72.9991
 11
-76.9794
 21
73.2999
  0
LINE
  8
0
 10
-76.9794
 20
73.2999
 11
-75.0378
 21
72.9991
  0
LINE
  8
0
 10
-75.0378
 20
72.9991
 11
-73.2862
 21
72.1261
  0
LINE
  8
0
 10
-73.2862
 20
72.1261
 11
-71.8961
 21
70.7664
  0
LINE
  8
0
 10
-71.8961
 20
70.7664
 11
-71.0037
 21
69.0532
  0
LINE
  8
0
 10
-71.0037
 20
69.0532
 11
-70.6962
 21
67.1539
  0
LINE
  8
0
 10
-70.6962
 20
67.1539
 11
-71.0037
 21
65.2547
  0
LINE
  8
0
 10
-71.0037
 20
65.2547
 11
-71.8961
 21
63.5415
  0
LINE
  8
0
 10
-71.8961
 20
63.5415
 11
-73.2862
 21
62.1818
  0
LINE
  8
0
 10
-73.2862
 20
62.1818
 11
-75.0378
 21
61.3088
  0
LINE
  8
0
 10
-75.0378
 20
61.3088
 11
-76.9794
 21
61.008
  0
LINE
  8
0
 10
-46.9934
 20
61.008
 11
-48.935
 21
61.3088
  0
LINE
  8
0
 10
-48.935
 20
61.3088
 11
-50.6866
 21
62.1818
  0
LINE
  8
0
 10
-50.6866
 20
62.1818
 11
-52.0766
 21
63.5415
  0
LINE
  8
0
 10
-52.0766
 20
63.5415
 11
-52.9691
 21
65.2547
  0
LINE
  8
0
 10
-52.9691
 20
65.2547
 11
-53.2766
 21
67.1539
  0
LINE
  8
0
 10
-53.2766
 20
67.1539
 11
-52.9691
 21
69.0532
  0
LINE
  8
0
 10
-52.9691
 20
69.0532
 11
-52.0766
 21
70.7664
  0
LINE
  8
0
 10
-52.0766
 20
70.7664
 11
-50.6866
 21
72.1261
  0
LINE
  8
0
 10
-50.6866
 20
72.1261
 11
-48.935
 21
72.9991
  0
LINE
  8
0
 10
-48.935
 20
72.9991
 11
-46.9934
 21
73.2999
  0
LINE
  8
0
 10
-46.9934
 20
73.2999
 11
-45.0518
 21
72.9991
  0
LINE
  8
0
 10
-45.0518
 20
72.9991
 11
-43.3002
 21
72.1261
  0
LINE
  8
0
 10
-43.3002
 20
72.1261
 11
-41.9101
 21
70.7664
  0
LINE
  8
0
 10
-41.9101
 20
70.7664
 11
-41.0177
 21
69.0532
  0
LINE
  8
0
 10
-41.0177
 20
69.0532
 11
-40.7101
 21
67.1539
  0
LINE
  8
0
 10
-40.7101
 20
67.1539
 11
-41.0177
 21
65.2547
  0
LINE
  8
0
 10
-41.0177
 20
65.2547
 11
-41.9101
 21
63.5415
  0
LINE
  8
0
 10
-41.9101
 20
63.5415
 11
-43.3002
 21
62.1818
  0
LINE
  8
0
 10
-43.3002
 20
62.1818
 11
-45.0518
 21
61.3088
  0
LINE
  8
0
 10
-45.0518
 20
61.3088
 11
-46.9934
 21
61.008
  0
LINE
  8
0
 10
-9.49239
 20
46.3414
 11
-11.434
 21
46.6422
  0
LINE
  8
0
 10
-11.434
 20
46.6422
 11
-13.1856
 21
47.5151
  0
LINE
  8
0
 10
-13.1856
 20
47.5151
 11
-14.5757
 21
48.8748
  0
LINE
  8
0
 10
-14.5757
 20
48.8748
 11
-15.4681
 21
50.5881
  0
LINE
  8
0
 10
-15.4681
 20
50.5881
 11
-15.7757
 21
52.4873
  0
LINE
  8
0
 10
-15.7757
 20
52.4873
 11
-15.4681
 21
54.3865
  0
LINE
  8
0
 10
-15.4681
 20
54.3865
 11
-14.5757
 21
56.0998
  0
LINE
  8
0
 10
-14.5757
 20
56.0998
 11
-13.1856
 21
57.4595
  0
LINE
  8
0
 10
-13.1856
 20
57.4595
 11
-11.434
 21
58.3325
  0
LINE
  8
0
 10
-11.434
 20
58.3325
 11
-9.49239
 21
58.6333
  0
LINE
  8
0
 10
-9.49239
 20
58.6333
 11
-7.55077
 21
58.3325
  0
LINE
  8
0
 10
-7.55077
 20
58.3325
 11
-5.79919
 21
57.4595
  0
LINE
  8
0
 10
-5.79919
 20
57.4595
 11
-4.40913
 21
56.0998
  0
LINE
  8
0
 10
-4.40913
 20
56.0998
 11
-3.51666
 21
54.3865
  0
LINE
  8
0
 10
-3.51666
 20
54.3865
 11
-3.20914
 21
52.4873
  0
LINE
  8
0
 10
-3.20914
 20
52.4873
 11
-3.51666
 21
50.5881
  0
LINE
  8
0
 10
-3.51666
 20
50.5881
 11
-4.40913
 21
48.8748
  0
LINE
  8
0
 10
-4.40913
 20
48.8748
 11
-5.79919
 21
47.5151
  0
LINE
  8
0
 10
-5.79919
 20
47.5151
 11
-7.55077
 21
46.6422
  0
LINE
  8
0
 10
-7.55077
 20
46.6422
 11
-9.49239
 21
46.3414
  0
LINE
  8
0
 10
-84.4924
 20
46.3414
 11
-86.434
 21
46.6422
  0
LINE
  8
0
 10
-86.434
 20
46.6422
 11
-88.1856
 21
47.5151
  0
LINE
  8
0
 10
-88.1856
 20
47.5151
 11
-89.5757
 21
48.8748
  0
LINE
  8
0
 10
-89.5757
 20
48.8748
 11
-90.4681
 21
50.5881
  0
LINE
  8
0
 10
-90.4681
 20
50.5881
 11
-90.7757
 21
52.4873
  0
LINE
  8
0
 10
-90.7757
 20
52.4873
 11
-90.4681
 21
54.3865
  0
LINE
  8
0
 10
-90.4681
 20
54.3865
 11
-89.5757
 21
56.0998
  0
LINE
  8
0
 10
-89.5757
 20
56.0998
 11
-88.1856
 21
57.4595
  0
LINE
  8
0
 10
-88.1856
 20
57.4595
 11
-86.434
 21
58.3325
  0
LINE
  8
0
 10
-86.434
 20
58.3325
 11
-84.4924
 21
58.6333
  0
LINE
  8
0
 10
-84.4924
 20
58.6333
 11
-82.5508
 21
58.3325
  0
LINE
  8
0
 10
-82.5508
 20
58.3325
 11
-80.7992
 21
57.4595
  0
LINE
  8
0
 10
-80.7992
 20
57.4595
 11
-79.4091
 21
56.0998
  0
LINE
  8
0
 10
-79.4091
 20
56.0998
 11
-78.5167
 21
54.3865
  0
LINE
  8
0
 10
-78.5167
 20
54.3865
 11
-78.2092
 21
52.4873
  0
LINE
  8
0
 10
-78.2092
 20
52.4873
 11
-78.5167
 21
50.5881
  0
LINE
  8
0
 10
-78.5167
 20
50.5881
 11
-79.4091
 21
48.8748
  0
LINE
  8
0
 10
-79.4091
 20
48.8748
 11
-80.7992
 21
47.5151
  0
LINE
  8
0
 10
-80.7992
 20
47.5151
 11
-82.5508
 21
46.6422
  0
LINE
  8
0
 10
-82.5508
 20
46.6422
 11
-84.4924
 21
46.3414
  0
LINE
  8
0
 10
63.5076
 20
46.3414
 11
61.566
 21
46.6422
  0
LINE
  8
0
 10
61.566
 20
46.6422
 11
59.8144
 21
47.5151
  0
LINE
  8
0
 10
59.8144
 20
47.5151
 11
58.4243
 21
48.8748
  0
LINE
  8
0
 10
58.4243
 20
48.8748
 11
57.5319
 21
50.5881
  0
LINE
  8
0
 10
57.5319
 20
50.5881
 11
57.2243
 21
52.4873
  0
LINE
  8
0
 10
57.2243
 20
52.4873
 11
57.5319
 21
54.3865
  0
LINE
  8
0
 10
57.5319
 20
54.3865
 11
58.4243
 21
56.0998
  0
LINE
  8
0
 10
58.4243
 20
56.0998
 11
59.8144
 21
57.4595
  0
LINE
  8
0
 10
59.8144
 20
57.4595
 11
61.566
 21
58.3325
  0
LINE
  8
0
 10
61.566
 20
58.3325
 11
63.5076
 21
58.6333
  0
LINE
  8
0
 10
63.5076
 20
58.6333
 11
65.4492
 21
58.3325
  0
LINE
  8
0
 10
65.4492
 20
58.3325
 11
65.4823
 21
58.316
  0
LINE
  8
0
 10
65.4823
 20
58.316
 11
65.5156
 21
58.3073
  0
LINE
  8
0
 10
65.5156
 20
58.3073
 11
67.2068
 21
57.4641
  0
LINE
  8
0
 10
67.2068
 20
57.4641
 11
67.2588
 21
57.4321
  0
LINE
  8
0
 10
67.2588
 20
57.4321
 11
68.6138
 21
56.1067
  0
LINE
  8
0
 10
68.6138
 20
56.1067
 11
68.6426
 21
56.0743
  0
LINE
  8
0
 10
68.6426
 20
56.0743
 11
69.5228
 21
54.3853
  0
LINE
  8
0
 10
69.5228
 20
54.3853
 11
69.5312
 21
54.3672
  0
LINE
  8
0
 10
69.5312
 20
54.3672
 11
69.8356
 21
52.4848
  0
LINE
  8
0
 10
69.8356
 20
52.4848
 11
69.5312
 21
50.6031
  0
LINE
  8
0
 10
69.5312
 20
50.6031
 11
68.6426
 21
48.8981
  0
LINE
  8
0
 10
68.6426
 20
48.8981
 11
67.2588
 21
47.5445
  0
LINE
  8
0
 10
67.2588
 20
47.5445
 11
67.2017
 21
47.5161
  0
LINE
  8
0
 10
67.2017
 20
47.5161
 11
67.2008
 21
47.5151
  0
LINE
  8
0
 10
67.2008
 20
47.5151
 11
65.4492
 21
46.6422
  0
LINE
  8
0
 10
65.4492
 20
46.6422
 11
63.5076
 21
46.3414
  0
LINE
  8
0
 10
-24.4924
 20
46.3414
 11
-26.434
 21
46.6422
  0
LINE
  8
0
 10
-26.434
 20
46.6422
 11
-28.1856
 21
47.5151
  0
LINE
  8
0
 10
-28.1856
 20
47.5151
 11
-29.5757
 21
48.8748
  0
LINE
  8
0
 10
-29.5757
 20
48.8748
 11
-30.4681
 21
50.5881
  0
LINE
  8
0
 10
-30.4681
 20
50.5881
 11
-30.7757
 21
52.4873
  0
LINE
  8
0
 10
-30.7757
 20
52.4873
 11
-30.4681
 21
54.3865
  0
LINE
  8
0
 10
-30.4681
 20
54.3865
 11
-29.5757
 21
56.0998
  0
LINE
  8
0
 10
-29.5757
 20
56.0998
 11
-28.1856
 21
57.4595
  0
LINE
  8
0
 10
-28.1856
 20
57.4595
 11
-26.434
 21
58.3325
  0
LINE
  8
0
 10
-26.434
 20
58.3325
 11
-24.4924
 21
58.6333
  0
LINE
  8
0
 10
-24.4924
 20
58.6333
 11
-22.5508
 21
58.3325
  0
LINE
  8
0
 10
-22.5508
 20
58.3325
 11
-20.7992
 21
57.4595
  0
LINE
  8
0
 10
-20.7992
 20
57.4595
 11
-19.4091
 21
56.0998
  0
LINE
  8
0
 10
-19.4091
 20
56.0998
 11
-18.5167
 21
54.3865
  0
LINE
  8
0
 10
-18.5167
 20
54.3865
 11
-18.2091
 21
52.4873
  0
LINE
  8
0
 10
-18.2091
 20
52.4873
 11
-18.5167
 21
50.5881
  0
LINE
  8
0
 10
-18.5167
 20
50.5881
 11
-19.4091
 21
48.8748
  0
LINE
  8
0
 10
-19.4091
 20
48.8748
 11
-20.7992
 21
47.5151
  0
LINE
  8
0
 10
-20.7992
 20
47.5151
 11
-22.5508
 21
46.6422
  0
LINE
  8
0
 10
-22.5508
 20
46.6422
 11
-24.4924
 21
46.3414
  0
LINE
  8
0
 10
-39.4924
 20
46.3414
 11
-41.434
 21
46.6422
  0
LINE
  8
0
 10
-41.434
 20
46.6422
 11
-43.1856
 21
47.5151
  0
LINE
  8
0
 10
-43.1856
 20
47.5151
 11
-44.5757
 21
48.8748
  0
LINE
  8
0
 10
-44.5757
 20
48.8748
 11
-45.4681
 21
50.5881
  0
LINE
  8
0
 10
-45.4681
 20
50.5881
 11
-45.7757
 21
52.4873
  0
LINE
  8
0
 10
-45.7757
 20
52.4873
 11
-45.4681
 21
54.3865
  0
LINE
  8
0
 10
-45.4681
 20
54.3865
 11
-44.5757
 21
56.0998
  0
LINE
  8
0
 10
-44.5757
 20
56.0998
 11
-43.1856
 21
57.4595
  0
LINE
  8
0
 10
-43.1856
 20
57.4595
 11
-41.434
 21
58.3325
  0
LINE
  8
0
 10
-41.434
 20
58.3325
 11
-39.4924
 21
58.6333
  0
LINE
  8
0
 10
-39.4924
 20
58.6333
 11
-37.5508
 21
58.3325
  0
LINE
  8
0
 10
-37.5508
 20
58.3325
 11
-35.7992
 21
57.4595
  0
LINE
  8
0
 10
-35.7992
 20
57.4595
 11
-34.4091
 21
56.0998
  0
LINE
  8
0
 10
-34.4091
 20
56.0998
 11
-33.5167
 21
54.3865
  0
LINE
  8
0
 10
-33.5167
 20
54.3865
 11
-33.2092
 21
52.4873
  0
LINE
  8
0
 10
-33.2092
 20
52.4873
 11
-33.5167
 21
50.5881
  0
LINE
  8
0
 10
-33.5167
 20
50.5881
 11
-34.4091
 21
48.8748
  0
LINE
  8
0
 10
-34.4091
 20
48.8748
 11
-35.7992
 21
47.5151
  0
LINE
  8
0
 10
-35.7992
 20
47.5151
 11
-37.5508
 21
46.6422
  0
LINE
  8
0
 10
-37.5508
 20
46.6422
 11
-39.4924
 21
46.3414
  0
LINE
  8
0
 10
-69.4924
 20
46.3414
 11
-71.434
 21
46.6422
  0
LINE
  8
0
 10
-71.434
 20
46.6422
 11
-73.1856
 21
47.5151
  0
LINE
  8
0
 10
-73.1856
 20
47.5151
 11
-74.5757
 21
48.8748
  0
LINE
  8
0
 10
-74.5757
 20
48.8748
 11
-75.4681
 21
50.5881
  0
LINE
  8
0
 10
-75.4681
 20
50.5881
 11
-75.7757
 21
52.4873
  0
LINE
  8
0
 10
-75.7757
 20
52.4873
 11
-75.4681
 21
54.3865
  0
LINE
  8
0
 10
-75.4681
 20
54.3865
 11
-74.5757
 21
56.0998
  0
LINE
  8
0
 10
-74.5757
 20
56.0998
 11
-73.1856
 21
57.4595
  0
LINE
  8
0
 10
-73.1856
 20
57.4595
 11
-71.434
 21
58.3325
  0
LINE
  8
0
 10
-71.434
 20
58.3325
 11
-69.4924
 21
58.6333
  0
LINE
  8
0
 10
-69.4924
 20
58.6333
 11
-67.5508
 21
58.3325
  0
LINE
  8
0
 10
-67.5508
 20
58.3325
 11
-65.7992
 21
57.4595
  0
LINE
  8
0
 10
-65.7992
 20
57.4595
 11
-64.4091
 21
56.0998
  0
LINE
  8
0
 10
-64.4091
 20
56.0998
 11
-63.5167
 21
54.3865
  0
LINE
  8
0
 10
-63.5167
 20
54.3865
 11
-63.2092
 21
52.4873
  0
LINE
  8
0
 10
-63.2092
 20
52.4873
 11
-63.5167
 21
50.5881
  0
LINE
  8
0
 10
-63.5167
 20
50.5881
 11
-64.4091
 21
48.8748
  0
LINE
  8
0
 10
-64.4091
 20
48.8748
 11
-65.7992
 21
47.5151
  0
LINE
  8
0
 10
-65.7992
 20
47.5151
 11
-67.5508
 21
46.6422
  0
LINE
  8
0
 10
-67.5508
 20
46.6422
 11
-69.4924
 21
46.3414
  0
LINE
  8
0
 10
35.5076
 20
46.3414
 11
33.566
 21
46.6422
  0
LINE
  8
0
 10
33.566
 20
46.6422
 11
31.8144
 21
47.5151
  0
LINE
  8
0
 10
31.8144
 20
47.5151
 11
30.4243
 21
48.8748
  0
LINE
  8
0
 10
30.4243
 20
48.8748
 11
29.5319
 21
50.5881
  0
LINE
  8
0
 10
29.5319
 20
50.5881
 11
29.2243
 21
52.4873
  0
LINE
  8
0
 10
29.2243
 20
52.4873
 11
29.5319
 21
54.3865
  0
LINE
  8
0
 10
29.5319
 20
54.3865
 11
30.4243
 21
56.0998
  0
LINE
  8
0
 10
30.4243
 20
56.0998
 11
31.8144
 21
57.4595
  0
LINE
  8
0
 10
31.8144
 20
57.4595
 11
33.566
 21
58.3325
  0
LINE
  8
0
 10
33.566
 20
58.3325
 11
35.5076
 21
58.6333
  0
LINE
  8
0
 10
35.5076
 20
58.6333
 11
37.4492
 21
58.3325
  0
LINE
  8
0
 10
37.4492
 20
58.3325
 11
39.2008
 21
57.4595
  0
LINE
  8
0
 10
39.2008
 20
57.4595
 11
40.5909
 21
56.0998
  0
LINE
  8
0
 10
40.5909
 20
56.0998
 11
41.4833
 21
54.3865
  0
LINE
  8
0
 10
41.4833
 20
54.3865
 11
41.7908
 21
52.4873
  0
LINE
  8
0
 10
41.7908
 20
52.4873
 11
41.4833
 21
50.5881
  0
LINE
  8
0
 10
41.4833
 20
50.5881
 11
40.5909
 21
48.8748
  0
LINE
  8
0
 10
40.5909
 20
48.8748
 11
39.2008
 21
47.5151
  0
LINE
  8
0
 10
39.2008
 20
47.5151
 11
37.4492
 21
46.6422
  0
LINE
  8
0
 10
37.4492
 20
46.6422
 11
35.5076
 21
46.3414
  0
LINE
  8
0
 10
-76.9794
 20
32.1547
 11
-78.921
 21
32.4555
  0
LINE
  8
0
 10
-78.921
 20
32.4555
 11
-80.6726
 21
33.3285
  0
LINE
  8
0
 10
-80.6726
 20
33.3285
 11
-82.0627
 21
34.6882
  0
LINE
  8
0
 10
-82.0627
 20
34.6882
 11
-82.9551
 21
36.4015
  0
LINE
  8
0
 10
-82.9551
 20
36.4015
 11
-83.2626
 21
38.3007
  0
LINE
  8
0
 10
-83.2626
 20
38.3007
 11
-82.9551
 21
40.1999
  0
LINE
  8
0
 10
-82.9551
 20
40.1999
 11
-82.0627
 21
41.9131
  0
LINE
  8
0
 10
-82.0627
 20
41.9131
 11
-80.6726
 21
43.2728
  0
LINE
  8
0
 10
-80.6726
 20
43.2728
 11
-78.921
 21
44.1458
  0
LINE
  8
0
 10
-78.921
 20
44.1458
 11
-76.9794
 21
44.4466
  0
LINE
  8
0
 10
-76.9794
 20
44.4466
 11
-75.0378
 21
44.1458
  0
LINE
  8
0
 10
-75.0378
 20
44.1458
 11
-73.2862
 21
43.2728
  0
LINE
  8
0
 10
-73.2862
 20
43.2728
 11
-71.8961
 21
41.9131
  0
LINE
  8
0
 10
-71.8961
 20
41.9131
 11
-71.0037
 21
40.1999
  0
LINE
  8
0
 10
-71.0037
 20
40.1999
 11
-70.6962
 21
38.3007
  0
LINE
  8
0
 10
-70.6962
 20
38.3007
 11
-71.0037
 21
36.4015
  0
LINE
  8
0
 10
-71.0037
 20
36.4015
 11
-71.8961
 21
34.6882
  0
LINE
  8
0
 10
-71.8961
 20
34.6882
 11
-73.2862
 21
33.3285
  0
LINE
  8
0
 10
-73.2862
 20
33.3285
 11
-75.0378
 21
32.4555
  0
LINE
  8
0
 10
-75.0378
 20
32.4555
 11
-76.9794
 21
32.1547
  0
LINE
  8
0
 10
28.0066
 20
31.6679
 11
26.065
 21
31.9687
  0
LINE
  8
0
 10
26.065
 20
31.9687
 11
24.3134
 21
32.8417
  0
LINE
  8
0
 10
24.3134
 20
32.8417
 11
22.9233
 21
34.2013
  0
LINE
  8
0
 10
22.9233
 20
34.2013
 11
22.0309
 21
35.9146
  0
LINE
  8
0
 10
22.0309
 20
35.9146
 11
21.7233
 21
37.8138
  0
LINE
  8
0
 10
21.7233
 20
37.8138
 11
22.0309
 21
39.713
  0
LINE
  8
0
 10
22.0309
 20
39.713
 11
22.9233
 21
41.4263
  0
LINE
  8
0
 10
22.9233
 20
41.4263
 11
24.3134
 21
42.786
  0
LINE
  8
0
 10
24.3134
 20
42.786
 11
26.065
 21
43.659
  0
LINE
  8
0
 10
26.065
 20
43.659
 11
28.0066
 21
43.9598
  0
LINE
  8
0
 10
28.0066
 20
43.9598
 11
28.0118
 21
43.959
  0
LINE
  8
0
 10
28.0118
 20
43.959
 11
28.0342
 21
43.9601
  0
LINE
  8
0
 10
28.0342
 20
43.9601
 11
29.9504
 21
43.6632
  0
LINE
  8
0
 10
29.9504
 20
43.6632
 11
29.9639
 21
43.6597
  0
LINE
  8
0
 10
29.9639
 20
43.6597
 11
31.7041
 21
42.7923
  0
LINE
  8
0
 10
31.7041
 20
42.7923
 11
31.7059
 21
42.7908
  0
LINE
  8
0
 10
31.7059
 20
42.7908
 11
33.085
 21
41.4412
  0
LINE
  8
0
 10
33.085
 20
41.4412
 11
33.0932
 21
41.4273
  0
LINE
  8
0
 10
33.0932
 20
41.4273
 11
33.9717
 21
39.7409
  0
LINE
  8
0
 10
33.9717
 20
39.7409
 11
33.9737
 21
39.7295
  0
LINE
  8
0
 10
33.9737
 20
39.7295
 11
33.9823
 21
39.713
  0
LINE
  8
0
 10
33.9823
 20
39.713
 11
34.2898
 21
37.8138
  0
LINE
  8
0
 10
34.2898
 20
37.8138
 11
33.9823
 21
35.9146
  0
LINE
  8
0
 10
33.9823
 20
35.9146
 11
33.0898
 21
34.2013
  0
LINE
  8
0
 10
33.0898
 20
34.2013
 11
31.6998
 21
32.8417
  0
LINE
  8
0
 10
31.6998
 20
32.8417
 11
29.9482
 21
31.9687
  0
LINE
  8
0
 10
29.9482
 20
31.9687
 11
28.0066
 21
31.6679
  0
LINE
  8
0
 10
-31.9934
 20
31.6679
 11
-33.935
 21
31.9687
  0
LINE
  8
0
 10
-33.935
 20
31.9687
 11
-35.6866
 21
32.8417
  0
LINE
  8
0
 10
-35.6866
 20
32.8417
 11
-37.0766
 21
34.2013
  0
LINE
  8
0
 10
-37.0766
 20
34.2013
 11
-37.9691
 21
35.9146
  0
LINE
  8
0
 10
-37.9691
 20
35.9146
 11
-38.2766
 21
37.8138
  0
LINE
  8
0
 10
-38.2766
 20
37.8138
 11
-37.9691
 21
39.713
  0
LINE
  8
0
 10
-37.9691
 20
39.713
 11
-37.0766
 21
41.4263
  0
LINE
  8
0
 10
-37.0766
 20
41.4263
 11
-35.6866
 21
42.786
  0
LINE
  8
0
 10
-35.6866
 20
42.786
 11
-33.935
 21
43.659
  0
LINE
  8
0
 10
-33.935
 20
43.659
 11
-31.9934
 21
43.9598
  0
LINE
  8
0
 10
-31.9934
 20
43.9598
 11
-30.0518
 21
43.659
  0
LINE
  8
0
 10
-30.0518
 20
43.659
 11
-28.3002
 21
42.786
  0
LINE
  8
0
 10
-28.3002
 20
42.786
 11
-26.9101
 21
41.4263
  0
LINE
  8
0
 10
-26.9101
 20
41.4263
 11
-26.0177
 21
39.713
  0
LINE
  8
0
 10
-26.0177
 20
39.713
 11
-25.7101
 21
37.8138
  0
LINE
  8
0
 10
-25.7101
 20
37.8138
 11
-26.0177
 21
35.9146
  0
LINE
  8
0
 10
-26.0177
 20
35.9146
 11
-26.9101
 21
34.2013
  0
LINE
  8
0
 10
-26.9101
 20
34.2013
 11
-28.3002
 21
32.8417
  0
LINE
  8
0
 10
-28.3002
 20
32.8417
 11
-30.0518
 21
31.9687
  0
LINE
  8
0
 10
-30.0518
 20
31.9687
 11
-31.9934
 21
31.6679
  0
LINE
  8
0
 10
-16.9934
 20
31.6679
 11
-18.935
 21
31.9687
  0
LINE
  8
0
 10
-18.935
 20
31.9687
 11
-20.6866
 21
32.8417
  0
LINE
  8
0
 10
-20.6866
 20
32.8417
 11
-22.0766
 21
34.2013
  0
LINE
  8
0
 10
-22.0766
 20
34.2013
 11
-22.9691
 21
35.9146
  0
LINE
  8
0
 10
-22.9691
 20
35.9146
 11
-23.2766
 21
37.8138
  0
LINE
  8
0
 10
-23.2766
 20
37.8138
 11
-22.9691
 21
39.713
  0
LINE
  8
0
 10
-22.9691
 20
39.713
 11
-22.0766
 21
41.4263
  0
LINE
  8
0
 10
-22.0766
 20
41.4263
 11
-20.6866
 21
42.786
  0
LINE
  8
0
 10
-20.6866
 20
42.786
 11
-18.935
 21
43.659
  0
LINE
  8
0
 10
-18.935
 20
43.659
 11
-16.9934
 21
43.9598
  0
LINE
  8
0
 10
-16.9934
 20
43.9598
 11
-15.0518
 21
43.659
  0
LINE
  8
0
 10
-15.0518
 20
43.659
 11
-13.3002
 21
42.786
  0
LINE
  8
0
 10
-13.3002
 20
42.786
 11
-11.9101
 21
41.4263
  0
LINE
  8
0
 10
-11.9101
 20
41.4263
 11
-11.0177
 21
39.713
  0
LINE
  8
0
 10
-11.0177
 20
39.713
 11
-10.7101
 21
37.8138
  0
LINE
  8
0
 10
-10.7101
 20
37.8138
 11
-11.0177
 21
35.9146
  0
LINE
  8
0
 10
-11.0177
 20
35.9146
 11
-11.9101
 21
34.2013
  0
LINE
  8
0
 10
-11.9101
 20
34.2013
 11
-13.3002
 21
32.8417
  0
LINE
  8
0
 10
-13.3002
 20
32.8417
 11
-15.0518
 21
31.9687
  0
LINE
  8
0
 10
-15.0518
 20
31.9687
 11
-16.9934
 21
31.6679
  0
LINE
  8
0
 10
-46.9934
 20
31.6679
 11
-48.935
 21
31.9687
  0
LINE
  8
0
 10
-48.935
 20
31.9687
 11
-50.6866
 21
32.8417
  0
LINE
  8
0
 10
-50.6866
 20
32.8417
 11
-52.0766
 21
34.2013
  0
LINE
  8
0
 10
-52.0766
 20
34.2013
 11
-52.9691
 21
35.9146
  0
LINE
  8
0
 10
-52.9691
 20
35.9146
 11
-53.2766
 21
37.8138
  0
LINE
  8
0
 10
-53.2766
 20
37.8138
 11
-52.9691
 21
39.713
  0
LINE
  8
0
 10
-52.9691
 20
39.713
 11
-52.0766
 21
41.4263
  0
LINE
  8
0
 10
-52.0766
 20
41.4263
 11
-50.6866
 21
42.786
  0
LINE
  8
0
 10
-50.6866
 20
42.786
 11
-48.935
 21
43.659
  0
LINE
  8
0
 10
-48.935
 20
43.659
 11
-46.9934
 21
43.9598
  0
LINE
  8
0
 10
-46.9934
 20
43.9598
 11
-45.0518
 21
43.659
  0
LINE
  8
0
 10
-45.0518
 20
43.659
 11
-43.3002
 21
42.786
  0
LINE
  8
0
 10
-43.3002
 20
42.786
 11
-41.9101
 21
41.4263
  0
LINE
  8
0
 10
-41.9101
 20
41.4263
 11
-41.0177
 21
39.713
  0
LINE
  8
0
 10
-41.0177
 20
39.713
 11
-40.7101
 21
37.8138
  0
LINE
  8
0
 10
-40.7101
 20
37.8138
 11
-41.0177
 21
35.9146
  0
LINE
  8
0
 10
-41.0177
 20
35.9146
 11
-41.9101
 21
34.2013
  0
LINE
  8
0
 10
-41.9101
 20
34.2013
 11
-43.3002
 21
32.8417
  0
LINE
  8
0
 10
-43.3002
 20
32.8417
 11
-45.0518
 21
31.9687
  0
LINE
  8
0
 10
-45.0518
 20
31.9687
 11
-46.9934
 21
31.6679
  0
LINE
  8
0
 10
-1.99339
 20
31.6679
 11
-3.93503
 21
31.9687
  0
LINE
  8
0
 10
-3.93503
 20
31.9687
 11
-5.6866
 21
32.8417
  0
LINE
  8
0
 10
-5.6866
 20
32.8417
 11
-7.07664
 21
34.2013
  0
LINE
  8
0
 10
-7.07664
 20
34.2013
 11
-7.96912
 21
35.9146
  0
LINE
  8
0
 10
-7.96912
 20
35.9146
 11
-8.27664
 21
37.8138
  0
LINE
  8
0
 10
-8.27664
 20
37.8138
 11
-7.96912
 21
39.713
  0
LINE
  8
0
 10
-7.96912
 20
39.713
 11
-7.07664
 21
41.4263
  0
LINE
  8
0
 10
-7.07664
 20
41.4263
 11
-5.6866
 21
42.786
  0
LINE
  8
0
 10
-5.6866
 20
42.786
 11
-3.93503
 21
43.659
  0
LINE
  8
0
 10
-3.93503
 20
43.659
 11
-1.99339
 21
43.9598
  0
LINE
  8
0
 10
-1.99339
 20
43.9598
 11
-0.0517578
 21
43.659
  0
LINE
  8
0
 10
-0.0517578
 20
43.659
 11
1.6998
 21
42.786
  0
LINE
  8
0
 10
1.6998
 20
42.786
 11
3.08984
 21
41.4263
  0
LINE
  8
0
 10
3.08984
 20
41.4263
 11
3.98232
 21
39.713
  0
LINE
  8
0
 10
3.98232
 20
39.713
 11
4.28984
 21
37.8138
  0
LINE
  8
0
 10
4.28984
 20
37.8138
 11
3.98232
 21
35.9146
  0
LINE
  8
0
 10
3.98232
 20
35.9146
 11
3.08984
 21
34.2013
  0
LINE
  8
0
 10
3.08984
 20
34.2013
 11
1.6998
 21
32.8417
  0
LINE
  8
0
 10
1.6998
 20
32.8417
 11
-0.0517578
 21
31.9687
  0
LINE
  8
0
 10
-0.0517578
 20
31.9687
 11
-1.99339
 21
31.6679
  0
LINE
  8
0
 10
73.0066
 20
31.6679
 11
71.065
 21
31.9687
  0
LINE
  8
0
 10
71.065
 20
31.9687
 11
69.3134
 21
32.8417
  0
LINE
  8
0
 10
69.3134
 20
32.8417
 11
67.9233
 21
34.2013
  0
LINE
  8
0
 10
67.9233
 20
34.2013
 11
67.0309
 21
35.9146
  0
LINE
  8
0
 10
67.0309
 20
35.9146
 11
66.7233
 21
37.8138
  0
LINE
  8
0
 10
66.7233
 20
37.8138
 11
67.0309
 21
39.713
  0
LINE
  8
0
 10
67.0309
 20
39.713
 11
67.9233
 21
41.4263
  0
LINE
  8
0
 10
67.9233
 20
41.4263
 11
69.3134
 21
42.786
  0
LINE
  8
0
 10
69.3134
 20
42.786
 11
71.065
 21
43.659
  0
LINE
  8
0
 10
71.065
 20
43.659
 11
73.0066
 21
43.9598
  0
LINE
  8
0
 10
73.0066
 20
43.9598
 11
74.9482
 21
43.659
  0
LINE
  8
0
 10
74.9482
 20
43.659
 11
76.6998
 21
42.786
  0
LINE
  8
0
 10
76.6998
 20
42.786
 11
78.0899
 21
41.4263
  0
LINE
  8
0
 10
78.0899
 20
41.4263
 11
78.9823
 21
39.713
  0
LINE
  8
0
 10
78.9823
 20
39.713
 11
79.2898
 21
37.8138
  0
LINE
  8
0
 10
79.2898
 20
37.8138
 11
78.9823
 21
35.9146
  0
LINE
  8
0
 10
78.9823
 20
35.9146
 11
78.0899
 21
34.2013
  0
LINE
  8
0
 10
78.0899
 20
34.2013
 11
76.6998
 21
32.8417
  0
LINE
  8
0
 10
76.6998
 20
32.8417
 11
74.9482
 21
31.9687
  0
LINE
  8
0
 10
74.9482
 20
31.9687
 11
73.0066
 21
31.6679
  0
ENDSEC
  0
SECTION
  2
OBJECTS
  0
DICTIONARY
  0
ENDSEC
  0
EOF
