M48
; DRILL file {KiCad 5.1.5+dfsg1-2build2} date Sat 23 Dec 2023 23:04:04 GMT
; FORMAT={-:-/ absolute / inch / decimal}
; #@! TF.CreationDate,2023-12-23T23:04:04+00:00
; #@! TF.GenerationSoftware,Kicad,Pcbnew,5.1.5+dfsg1-2build2
; #@! TF.FileFunction,Plated,1,2,PTH
FMAT,2
INCH
T1C0.0394
T2C0.0402
T3C0.0433
%
G90
G05
T1
X4.7Y-5.4
X4.8Y-5.4
X4.9Y-5.4
X5.0Y-5.4
T2
X5.825Y-5.575
X5.825Y-6.275
X5.8341Y-5.825
X5.8341Y-5.925
X5.8341Y-6.025
X5.925Y-5.575
X5.925Y-6.275
X6.025Y-5.575
X6.025Y-6.275
X6.125Y-5.575
X6.125Y-6.275
X6.225Y-5.575
X6.225Y-6.275
X6.325Y-5.575
X6.325Y-6.275
X6.425Y-5.575
X6.425Y-6.275
X6.525Y-5.575
X6.525Y-6.275
X6.625Y-5.575
X6.625Y-6.275
X6.725Y-5.575
X6.725Y-6.275
X6.825Y-5.575
X6.825Y-6.275
X6.925Y-5.575
X6.925Y-6.275
X7.025Y-5.575
X7.025Y-6.275
X7.125Y-5.575
X7.125Y-6.275
X7.225Y-5.575
X7.225Y-6.275
X7.325Y-5.575
X7.325Y-6.275
X7.425Y-5.575
X7.425Y-6.275
X7.525Y-5.575
X7.525Y-6.275
X7.625Y-5.575
X7.625Y-6.275
X7.725Y-5.575
X7.725Y-6.275
T3
X6.575Y-7.775
X6.575Y-7.9522
X6.8309Y-7.775
X6.8309Y-7.9522
X8.175Y-7.025
X8.175Y-7.2022
X8.4309Y-7.025
X8.4309Y-7.2022
X7.1Y-7.025
X7.1Y-7.2022
X7.3559Y-7.025
X7.3559Y-7.2022
X7.1Y-7.775
X7.1Y-7.9522
X7.3559Y-7.775
X7.3559Y-7.9522
X4.55Y-7.8
X4.55Y-7.9772
X4.8059Y-7.8
X4.8059Y-7.9772
X5.45Y-7.4
X5.45Y-7.5772
X5.7059Y-7.4
X5.7059Y-7.5772
X7.55Y-7.025
X7.55Y-7.2022
X7.8059Y-7.025
X7.8059Y-7.2022
X5.675Y-7.025
X5.675Y-7.2022
X5.9309Y-7.025
X5.9309Y-7.2022
X4.3Y-6.65
X4.3Y-6.8272
X4.5559Y-6.65
X4.5559Y-6.8272
X5.225Y-7.775
X5.225Y-7.9522
X5.4809Y-7.775
X5.4809Y-7.9522
X4.75Y-6.65
X4.75Y-6.8272
X5.0059Y-6.65
X5.0059Y-6.8272
X8.0Y-7.4
X8.0Y-7.5772
X8.2559Y-7.4
X8.2559Y-7.5772
X5.9Y-7.4
X5.9Y-7.5772
X6.1559Y-7.4
X6.1559Y-7.5772
X6.125Y-7.775
X6.125Y-7.9522
X6.3809Y-7.775
X6.3809Y-7.9522
X7.325Y-6.65
X7.325Y-6.8272
X7.5809Y-6.65
X7.5809Y-6.8272
X5.225Y-7.025
X5.225Y-7.2022
X5.4809Y-7.025
X5.4809Y-7.2022
X8.2Y-7.775
X8.2Y-7.9522
X8.4559Y-7.775
X8.4559Y-7.9522
X6.35Y-7.4
X6.35Y-7.5772
X6.6059Y-7.4
X6.6059Y-7.5772
X4.3Y-7.4
X4.3Y-7.5772
X4.5559Y-7.4
X4.5559Y-7.5772
X5.675Y-7.775
X5.675Y-7.9522
X5.9309Y-7.775
X5.9309Y-7.9522
X4.75Y-7.4
X4.75Y-7.5772
X5.0059Y-7.4
X5.0059Y-7.5772
X6.125Y-7.025
X6.125Y-7.2022
X6.3809Y-7.025
X6.3809Y-7.2022
X6.3441Y-6.65
X6.3441Y-6.8272
X6.6Y-6.65
X6.6Y-6.8272
X7.325Y-7.4
X7.325Y-7.5772
X7.5809Y-7.4
X7.5809Y-7.5772
X6.875Y-6.65
X6.875Y-6.8272
X7.1309Y-6.65
X7.1309Y-6.8272
X4.5441Y-7.0228
X4.5441Y-7.2
X4.8Y-7.0228
X4.8Y-7.2
X5.9Y-6.65
X5.9Y-6.8272
X6.1559Y-6.65
X6.1559Y-6.8272
X5.45Y-6.65
X5.45Y-6.8272
X5.7059Y-6.65
X5.7059Y-6.8272
T0
M30
