G04 #@! TF.GenerationSoftware,KiCad,Pcbnew,5.1.5+dfsg1-2build2*
G04 #@! TF.CreationDate,2023-12-23T23:04:05+00:00*
G04 #@! TF.ProjectId,small_esc,736d616c-6c5f-4657-9363-2e6b69636164,rev?*
G04 #@! TF.SameCoordinates,Original*
G04 #@! TF.FileFunction,Copper,L1,Top*
G04 #@! TF.FilePolarity,Positive*
%FSLAX46Y46*%
G04 Gerber Fmt 4.6, Leading zero omitted, Abs format (unit mm)*
G04 Created by KiCad (PCBNEW 5.1.5+dfsg1-2build2) date 2023-12-23 23:04:05*
%MOMM*%
%LPD*%
G04 APERTURE LIST*
%ADD10C,0.100000*%
%ADD11C,2.000000*%
%ADD12O,1.700000X1.700000*%
%ADD13R,3.500000X1.700000*%
%ADD14R,1.700000X1.700000*%
%ADD15R,1.700000X3.500000*%
%ADD16R,1.200000X0.900000*%
G04 APERTURE END LIST*
G04 #@! TA.AperFunction,SMDPad,CuDef*
D10*
G36*
X136144505Y-144071204D02*
G01*
X136168773Y-144074804D01*
X136192572Y-144080765D01*
X136215671Y-144089030D01*
X136237850Y-144099520D01*
X136258893Y-144112132D01*
X136278599Y-144126747D01*
X136296777Y-144143223D01*
X136313253Y-144161401D01*
X136327868Y-144181107D01*
X136340480Y-144202150D01*
X136350970Y-144224329D01*
X136359235Y-144247428D01*
X136365196Y-144271227D01*
X136368796Y-144295495D01*
X136370000Y-144319999D01*
X136370000Y-145220001D01*
X136368796Y-145244505D01*
X136365196Y-145268773D01*
X136359235Y-145292572D01*
X136350970Y-145315671D01*
X136340480Y-145337850D01*
X136327868Y-145358893D01*
X136313253Y-145378599D01*
X136296777Y-145396777D01*
X136278599Y-145413253D01*
X136258893Y-145427868D01*
X136237850Y-145440480D01*
X136215671Y-145450970D01*
X136192572Y-145459235D01*
X136168773Y-145465196D01*
X136144505Y-145468796D01*
X136120001Y-145470000D01*
X135419999Y-145470000D01*
X135395495Y-145468796D01*
X135371227Y-145465196D01*
X135347428Y-145459235D01*
X135324329Y-145450970D01*
X135302150Y-145440480D01*
X135281107Y-145427868D01*
X135261401Y-145413253D01*
X135243223Y-145396777D01*
X135226747Y-145378599D01*
X135212132Y-145358893D01*
X135199520Y-145337850D01*
X135189030Y-145315671D01*
X135180765Y-145292572D01*
X135174804Y-145268773D01*
X135171204Y-145244505D01*
X135170000Y-145220001D01*
X135170000Y-144319999D01*
X135171204Y-144295495D01*
X135174804Y-144271227D01*
X135180765Y-144247428D01*
X135189030Y-144224329D01*
X135199520Y-144202150D01*
X135212132Y-144181107D01*
X135226747Y-144161401D01*
X135243223Y-144143223D01*
X135261401Y-144126747D01*
X135281107Y-144112132D01*
X135302150Y-144099520D01*
X135324329Y-144089030D01*
X135347428Y-144080765D01*
X135371227Y-144074804D01*
X135395495Y-144071204D01*
X135419999Y-144070000D01*
X136120001Y-144070000D01*
X136144505Y-144071204D01*
G37*
G04 #@! TD.AperFunction*
G04 #@! TA.AperFunction,SMDPad,CuDef*
G36*
X134144505Y-144071204D02*
G01*
X134168773Y-144074804D01*
X134192572Y-144080765D01*
X134215671Y-144089030D01*
X134237850Y-144099520D01*
X134258893Y-144112132D01*
X134278599Y-144126747D01*
X134296777Y-144143223D01*
X134313253Y-144161401D01*
X134327868Y-144181107D01*
X134340480Y-144202150D01*
X134350970Y-144224329D01*
X134359235Y-144247428D01*
X134365196Y-144271227D01*
X134368796Y-144295495D01*
X134370000Y-144319999D01*
X134370000Y-145220001D01*
X134368796Y-145244505D01*
X134365196Y-145268773D01*
X134359235Y-145292572D01*
X134350970Y-145315671D01*
X134340480Y-145337850D01*
X134327868Y-145358893D01*
X134313253Y-145378599D01*
X134296777Y-145396777D01*
X134278599Y-145413253D01*
X134258893Y-145427868D01*
X134237850Y-145440480D01*
X134215671Y-145450970D01*
X134192572Y-145459235D01*
X134168773Y-145465196D01*
X134144505Y-145468796D01*
X134120001Y-145470000D01*
X133419999Y-145470000D01*
X133395495Y-145468796D01*
X133371227Y-145465196D01*
X133347428Y-145459235D01*
X133324329Y-145450970D01*
X133302150Y-145440480D01*
X133281107Y-145427868D01*
X133261401Y-145413253D01*
X133243223Y-145396777D01*
X133226747Y-145378599D01*
X133212132Y-145358893D01*
X133199520Y-145337850D01*
X133189030Y-145315671D01*
X133180765Y-145292572D01*
X133174804Y-145268773D01*
X133171204Y-145244505D01*
X133170000Y-145220001D01*
X133170000Y-144319999D01*
X133171204Y-144295495D01*
X133174804Y-144271227D01*
X133180765Y-144247428D01*
X133189030Y-144224329D01*
X133199520Y-144202150D01*
X133212132Y-144181107D01*
X133226747Y-144161401D01*
X133243223Y-144143223D01*
X133261401Y-144126747D01*
X133281107Y-144112132D01*
X133302150Y-144099520D01*
X133324329Y-144089030D01*
X133347428Y-144080765D01*
X133371227Y-144074804D01*
X133395495Y-144071204D01*
X133419999Y-144070000D01*
X134120001Y-144070000D01*
X134144505Y-144071204D01*
G37*
G04 #@! TD.AperFunction*
G04 #@! TA.AperFunction,SMDPad,CuDef*
G36*
X132184505Y-128841204D02*
G01*
X132208773Y-128844804D01*
X132232572Y-128850765D01*
X132255671Y-128859030D01*
X132277850Y-128869520D01*
X132298893Y-128882132D01*
X132318599Y-128896747D01*
X132336777Y-128913223D01*
X132353253Y-128931401D01*
X132367868Y-128951107D01*
X132380480Y-128972150D01*
X132390970Y-128994329D01*
X132399235Y-129017428D01*
X132405196Y-129041227D01*
X132408796Y-129065495D01*
X132410000Y-129089999D01*
X132410000Y-129990001D01*
X132408796Y-130014505D01*
X132405196Y-130038773D01*
X132399235Y-130062572D01*
X132390970Y-130085671D01*
X132380480Y-130107850D01*
X132367868Y-130128893D01*
X132353253Y-130148599D01*
X132336777Y-130166777D01*
X132318599Y-130183253D01*
X132298893Y-130197868D01*
X132277850Y-130210480D01*
X132255671Y-130220970D01*
X132232572Y-130229235D01*
X132208773Y-130235196D01*
X132184505Y-130238796D01*
X132160001Y-130240000D01*
X131459999Y-130240000D01*
X131435495Y-130238796D01*
X131411227Y-130235196D01*
X131387428Y-130229235D01*
X131364329Y-130220970D01*
X131342150Y-130210480D01*
X131321107Y-130197868D01*
X131301401Y-130183253D01*
X131283223Y-130166777D01*
X131266747Y-130148599D01*
X131252132Y-130128893D01*
X131239520Y-130107850D01*
X131229030Y-130085671D01*
X131220765Y-130062572D01*
X131214804Y-130038773D01*
X131211204Y-130014505D01*
X131210000Y-129990001D01*
X131210000Y-129089999D01*
X131211204Y-129065495D01*
X131214804Y-129041227D01*
X131220765Y-129017428D01*
X131229030Y-128994329D01*
X131239520Y-128972150D01*
X131252132Y-128951107D01*
X131266747Y-128931401D01*
X131283223Y-128913223D01*
X131301401Y-128896747D01*
X131321107Y-128882132D01*
X131342150Y-128869520D01*
X131364329Y-128859030D01*
X131387428Y-128850765D01*
X131411227Y-128844804D01*
X131435495Y-128841204D01*
X131459999Y-128840000D01*
X132160001Y-128840000D01*
X132184505Y-128841204D01*
G37*
G04 #@! TD.AperFunction*
G04 #@! TA.AperFunction,SMDPad,CuDef*
G36*
X130184505Y-128841204D02*
G01*
X130208773Y-128844804D01*
X130232572Y-128850765D01*
X130255671Y-128859030D01*
X130277850Y-128869520D01*
X130298893Y-128882132D01*
X130318599Y-128896747D01*
X130336777Y-128913223D01*
X130353253Y-128931401D01*
X130367868Y-128951107D01*
X130380480Y-128972150D01*
X130390970Y-128994329D01*
X130399235Y-129017428D01*
X130405196Y-129041227D01*
X130408796Y-129065495D01*
X130410000Y-129089999D01*
X130410000Y-129990001D01*
X130408796Y-130014505D01*
X130405196Y-130038773D01*
X130399235Y-130062572D01*
X130390970Y-130085671D01*
X130380480Y-130107850D01*
X130367868Y-130128893D01*
X130353253Y-130148599D01*
X130336777Y-130166777D01*
X130318599Y-130183253D01*
X130298893Y-130197868D01*
X130277850Y-130210480D01*
X130255671Y-130220970D01*
X130232572Y-130229235D01*
X130208773Y-130235196D01*
X130184505Y-130238796D01*
X130160001Y-130240000D01*
X129459999Y-130240000D01*
X129435495Y-130238796D01*
X129411227Y-130235196D01*
X129387428Y-130229235D01*
X129364329Y-130220970D01*
X129342150Y-130210480D01*
X129321107Y-130197868D01*
X129301401Y-130183253D01*
X129283223Y-130166777D01*
X129266747Y-130148599D01*
X129252132Y-130128893D01*
X129239520Y-130107850D01*
X129229030Y-130085671D01*
X129220765Y-130062572D01*
X129214804Y-130038773D01*
X129211204Y-130014505D01*
X129210000Y-129990001D01*
X129210000Y-129089999D01*
X129211204Y-129065495D01*
X129214804Y-129041227D01*
X129220765Y-129017428D01*
X129229030Y-128994329D01*
X129239520Y-128972150D01*
X129252132Y-128951107D01*
X129266747Y-128931401D01*
X129283223Y-128913223D01*
X129301401Y-128896747D01*
X129321107Y-128882132D01*
X129342150Y-128869520D01*
X129364329Y-128859030D01*
X129387428Y-128850765D01*
X129411227Y-128844804D01*
X129435495Y-128841204D01*
X129459999Y-128840000D01*
X130160001Y-128840000D01*
X130184505Y-128841204D01*
G37*
G04 #@! TD.AperFunction*
D11*
X214780000Y-197485000D03*
X214780000Y-201985000D03*
X208280000Y-197485000D03*
X208280000Y-201985000D03*
X209700000Y-187960000D03*
X209700000Y-192460000D03*
X203200000Y-187960000D03*
X203200000Y-192460000D03*
X214145000Y-178435000D03*
X214145000Y-182935000D03*
X207645000Y-178435000D03*
X207645000Y-182935000D03*
X198270000Y-178435000D03*
X198270000Y-182935000D03*
X191770000Y-178435000D03*
X191770000Y-182935000D03*
X192555000Y-168910000D03*
X192555000Y-173410000D03*
X186055000Y-168910000D03*
X186055000Y-173410000D03*
X186840000Y-197485000D03*
X186840000Y-201985000D03*
X180340000Y-197485000D03*
X180340000Y-201985000D03*
X192555000Y-187960000D03*
X192555000Y-192460000D03*
X186055000Y-187960000D03*
X186055000Y-192460000D03*
X186840000Y-178435000D03*
X186840000Y-182935000D03*
X180340000Y-178435000D03*
X180340000Y-182935000D03*
X181125000Y-168910000D03*
X181125000Y-173410000D03*
X174625000Y-168910000D03*
X174625000Y-173410000D03*
X173505000Y-197485000D03*
X173505000Y-201985000D03*
X167005000Y-197485000D03*
X167005000Y-201985000D03*
X162075000Y-197485000D03*
X162075000Y-201985000D03*
X155575000Y-197485000D03*
X155575000Y-201985000D03*
X150645000Y-197485000D03*
X150645000Y-201985000D03*
X144145000Y-197485000D03*
X144145000Y-201985000D03*
X139215000Y-197485000D03*
X139215000Y-201985000D03*
X132715000Y-197485000D03*
X132715000Y-201985000D03*
X167790000Y-187960000D03*
X167790000Y-192460000D03*
X161290000Y-187960000D03*
X161290000Y-192460000D03*
X156360000Y-187960000D03*
X156360000Y-192460000D03*
X149860000Y-187960000D03*
X149860000Y-192460000D03*
X144930000Y-187960000D03*
X144930000Y-192460000D03*
X138430000Y-187960000D03*
X138430000Y-192460000D03*
X162075000Y-178435000D03*
X162075000Y-182935000D03*
X155575000Y-178435000D03*
X155575000Y-182935000D03*
X150645000Y-178435000D03*
X150645000Y-182935000D03*
X144145000Y-178435000D03*
X144145000Y-182935000D03*
X139215000Y-178435000D03*
X139215000Y-182935000D03*
X132715000Y-178435000D03*
X132715000Y-182935000D03*
X167640000Y-168910000D03*
X167640000Y-173410000D03*
X161140000Y-168910000D03*
X161140000Y-173410000D03*
X156360000Y-168910000D03*
X156360000Y-173410000D03*
X149860000Y-168910000D03*
X149860000Y-173410000D03*
X144930000Y-168910000D03*
X144930000Y-173410000D03*
X138430000Y-168910000D03*
X138430000Y-173410000D03*
X122070000Y-198120000D03*
X122070000Y-202620000D03*
X115570000Y-198120000D03*
X115570000Y-202620000D03*
X115720000Y-187960000D03*
X115720000Y-192460000D03*
X109220000Y-187960000D03*
X109220000Y-192460000D03*
X127150000Y-187960000D03*
X127150000Y-192460000D03*
X120650000Y-187960000D03*
X120650000Y-192460000D03*
X121920000Y-178380000D03*
X121920000Y-182880000D03*
X115420000Y-178380000D03*
X115420000Y-182880000D03*
X127150000Y-168910000D03*
X127150000Y-173410000D03*
X120650000Y-168910000D03*
X120650000Y-173410000D03*
X115720000Y-168910000D03*
X115720000Y-173410000D03*
X109220000Y-168910000D03*
X109220000Y-173410000D03*
D12*
X148185000Y-153035000D03*
D13*
X147285000Y-153035000D03*
D14*
X148185000Y-150495000D03*
D13*
X147285000Y-150495000D03*
D12*
X148185000Y-147955000D03*
D13*
X147285000Y-147955000D03*
D15*
X147955000Y-160285000D03*
X150495000Y-160285000D03*
X153035000Y-160285000D03*
X155575000Y-160285000D03*
X158115000Y-160285000D03*
X160655000Y-160285000D03*
X163195000Y-160285000D03*
X165735000Y-160285000D03*
X168275000Y-160285000D03*
X170815000Y-160285000D03*
X173355000Y-160285000D03*
X175895000Y-160285000D03*
X178435000Y-160285000D03*
X180975000Y-160285000D03*
X183515000Y-160285000D03*
X186055000Y-160285000D03*
X188595000Y-160285000D03*
X191135000Y-160285000D03*
X193675000Y-160285000D03*
X196215000Y-160285000D03*
X147955000Y-140705000D03*
X150495000Y-140705000D03*
X153035000Y-140705000D03*
X155575000Y-140705000D03*
X158115000Y-140705000D03*
X160655000Y-140705000D03*
X163195000Y-140705000D03*
X165735000Y-140705000D03*
X168275000Y-140705000D03*
X170815000Y-140705000D03*
X173355000Y-140705000D03*
X175895000Y-140705000D03*
X178435000Y-140705000D03*
X180975000Y-140705000D03*
X183515000Y-140705000D03*
X186055000Y-140705000D03*
X188595000Y-140705000D03*
X191135000Y-140705000D03*
X193675000Y-140705000D03*
X196215000Y-140705000D03*
D12*
X196215000Y-159385000D03*
X193675000Y-159385000D03*
D14*
X191135000Y-159385000D03*
D12*
X188595000Y-159385000D03*
X186055000Y-159385000D03*
X183515000Y-159385000D03*
X180975000Y-159385000D03*
D14*
X178435000Y-159385000D03*
D12*
X175895000Y-159385000D03*
X173355000Y-159385000D03*
X170815000Y-159385000D03*
X168275000Y-159385000D03*
D14*
X165735000Y-159385000D03*
D12*
X163195000Y-159385000D03*
X160655000Y-159385000D03*
X158115000Y-159385000D03*
X155575000Y-159385000D03*
D14*
X153035000Y-159385000D03*
D12*
X150495000Y-159385000D03*
X147955000Y-159385000D03*
X147955000Y-141605000D03*
X150495000Y-141605000D03*
D14*
X153035000Y-141605000D03*
D12*
X155575000Y-141605000D03*
X158115000Y-141605000D03*
X160655000Y-141605000D03*
X163195000Y-141605000D03*
D14*
X165735000Y-141605000D03*
D12*
X168275000Y-141605000D03*
X170815000Y-141605000D03*
X173355000Y-141605000D03*
X175895000Y-141605000D03*
D14*
X178435000Y-141605000D03*
D12*
X180975000Y-141605000D03*
X183515000Y-141605000D03*
X186055000Y-141605000D03*
X188595000Y-141605000D03*
D14*
X191135000Y-141605000D03*
D12*
X193675000Y-141605000D03*
X196215000Y-141605000D03*
G04 #@! TA.AperFunction,SMDPad,CuDef*
D10*
G36*
X133620000Y-157370000D02*
G01*
X133120000Y-158120000D01*
X132120000Y-158120000D01*
X132120000Y-156620000D01*
X133120000Y-156620000D01*
X133620000Y-157370000D01*
G37*
G04 #@! TD.AperFunction*
G04 #@! TA.AperFunction,SMDPad,CuDef*
G36*
X134570000Y-158120000D02*
G01*
X133420000Y-158120000D01*
X133920000Y-157370000D01*
X133420000Y-156620000D01*
X134570000Y-156620000D01*
X134570000Y-158120000D01*
G37*
G04 #@! TD.AperFunction*
G04 #@! TA.AperFunction,SMDPad,CuDef*
G36*
X147760001Y-127465001D02*
G01*
X147260001Y-128215001D01*
X146260001Y-128215001D01*
X146260001Y-126715001D01*
X147260001Y-126715001D01*
X147760001Y-127465001D01*
G37*
G04 #@! TD.AperFunction*
G04 #@! TA.AperFunction,SMDPad,CuDef*
G36*
X148710001Y-128215001D02*
G01*
X147560001Y-128215001D01*
X148060001Y-127465001D01*
X147560001Y-126715001D01*
X148710001Y-126715001D01*
X148710001Y-128215001D01*
G37*
G04 #@! TD.AperFunction*
G04 #@! TA.AperFunction,SMDPad,CuDef*
G36*
X125645000Y-148070000D02*
G01*
X125145000Y-148820000D01*
X124145000Y-148820000D01*
X124145000Y-147320000D01*
X125145000Y-147320000D01*
X125645000Y-148070000D01*
G37*
G04 #@! TD.AperFunction*
G04 #@! TA.AperFunction,SMDPad,CuDef*
G36*
X126595000Y-148820000D02*
G01*
X125445000Y-148820000D01*
X125945000Y-148070000D01*
X125445000Y-147320000D01*
X126595000Y-147320000D01*
X126595000Y-148820000D01*
G37*
G04 #@! TD.AperFunction*
G04 #@! TA.AperFunction,SMDPad,CuDef*
G36*
X135720000Y-153170000D02*
G01*
X135220000Y-153920000D01*
X134220000Y-153920000D01*
X134220000Y-152420000D01*
X135220000Y-152420000D01*
X135720000Y-153170000D01*
G37*
G04 #@! TD.AperFunction*
G04 #@! TA.AperFunction,SMDPad,CuDef*
G36*
X136670000Y-153920000D02*
G01*
X135520000Y-153920000D01*
X136020000Y-153170000D01*
X135520000Y-152420000D01*
X136670000Y-152420000D01*
X136670000Y-153920000D01*
G37*
G04 #@! TD.AperFunction*
D12*
X119380000Y-137160000D03*
X121920000Y-137160000D03*
X124460000Y-137160000D03*
D14*
X127000000Y-137160000D03*
D16*
X186436000Y-133222000D03*
X186436000Y-129922000D03*
X194056000Y-133095000D03*
X194056000Y-129795000D03*
X183896000Y-133222000D03*
X183896000Y-129922000D03*
X191516000Y-133095000D03*
X191516000Y-129795000D03*
M02*
