G04 #@! TF.GenerationSoftware,KiCad,Pcbnew,5.1.5+dfsg1-2build2*
G04 #@! TF.CreationDate,2023-12-23T23:04:05+00:00*
G04 #@! TF.ProjectId,small_esc,736d616c-6c5f-4657-9363-2e6b69636164,rev?*
G04 #@! TF.SameCoordinates,Original*
G04 #@! TF.FileFunction,Soldermask,Bot*
G04 #@! TF.FilePolarity,Negative*
%FSLAX46Y46*%
G04 Gerber Fmt 4.6, Leading zero omitted, Abs format (unit mm)*
G04 Created by KiCad (PCBNEW 5.1.5+dfsg1-2build2) date 2023-12-23 23:04:05*
%MOMM*%
%LPD*%
G04 APERTURE LIST*
%ADD10C,0.100000*%
G04 APERTURE END LIST*
D10*
G36*
X122376564Y-201609389D02*
G01*
X122567833Y-201688615D01*
X122567835Y-201688616D01*
X122739973Y-201803635D01*
X122886365Y-201950027D01*
X123001385Y-202122167D01*
X123080611Y-202313436D01*
X123121000Y-202516484D01*
X123121000Y-202723516D01*
X123080611Y-202926564D01*
X123035281Y-203036000D01*
X123001384Y-203117835D01*
X122886365Y-203289973D01*
X122739973Y-203436365D01*
X122567835Y-203551384D01*
X122567834Y-203551385D01*
X122567833Y-203551385D01*
X122376564Y-203630611D01*
X122173516Y-203671000D01*
X121966484Y-203671000D01*
X121763436Y-203630611D01*
X121572167Y-203551385D01*
X121572166Y-203551385D01*
X121572165Y-203551384D01*
X121400027Y-203436365D01*
X121253635Y-203289973D01*
X121138616Y-203117835D01*
X121104719Y-203036000D01*
X121059389Y-202926564D01*
X121019000Y-202723516D01*
X121019000Y-202516484D01*
X121059389Y-202313436D01*
X121138615Y-202122167D01*
X121253635Y-201950027D01*
X121400027Y-201803635D01*
X121572165Y-201688616D01*
X121572167Y-201688615D01*
X121763436Y-201609389D01*
X121966484Y-201569000D01*
X122173516Y-201569000D01*
X122376564Y-201609389D01*
G37*
G36*
X115876564Y-201609389D02*
G01*
X116067833Y-201688615D01*
X116067835Y-201688616D01*
X116239973Y-201803635D01*
X116386365Y-201950027D01*
X116501385Y-202122167D01*
X116580611Y-202313436D01*
X116621000Y-202516484D01*
X116621000Y-202723516D01*
X116580611Y-202926564D01*
X116535281Y-203036000D01*
X116501384Y-203117835D01*
X116386365Y-203289973D01*
X116239973Y-203436365D01*
X116067835Y-203551384D01*
X116067834Y-203551385D01*
X116067833Y-203551385D01*
X115876564Y-203630611D01*
X115673516Y-203671000D01*
X115466484Y-203671000D01*
X115263436Y-203630611D01*
X115072167Y-203551385D01*
X115072166Y-203551385D01*
X115072165Y-203551384D01*
X114900027Y-203436365D01*
X114753635Y-203289973D01*
X114638616Y-203117835D01*
X114604719Y-203036000D01*
X114559389Y-202926564D01*
X114519000Y-202723516D01*
X114519000Y-202516484D01*
X114559389Y-202313436D01*
X114638615Y-202122167D01*
X114753635Y-201950027D01*
X114900027Y-201803635D01*
X115072165Y-201688616D01*
X115072167Y-201688615D01*
X115263436Y-201609389D01*
X115466484Y-201569000D01*
X115673516Y-201569000D01*
X115876564Y-201609389D01*
G37*
G36*
X144451564Y-200974389D02*
G01*
X144642833Y-201053615D01*
X144642835Y-201053616D01*
X144814973Y-201168635D01*
X144961365Y-201315027D01*
X145076385Y-201487167D01*
X145155611Y-201678436D01*
X145196000Y-201881484D01*
X145196000Y-202088516D01*
X145155611Y-202291564D01*
X145146551Y-202313436D01*
X145076384Y-202482835D01*
X144961365Y-202654973D01*
X144814973Y-202801365D01*
X144642835Y-202916384D01*
X144642834Y-202916385D01*
X144642833Y-202916385D01*
X144451564Y-202995611D01*
X144248516Y-203036000D01*
X144041484Y-203036000D01*
X143838436Y-202995611D01*
X143647167Y-202916385D01*
X143647166Y-202916385D01*
X143647165Y-202916384D01*
X143475027Y-202801365D01*
X143328635Y-202654973D01*
X143213616Y-202482835D01*
X143143449Y-202313436D01*
X143134389Y-202291564D01*
X143094000Y-202088516D01*
X143094000Y-201881484D01*
X143134389Y-201678436D01*
X143213615Y-201487167D01*
X143328635Y-201315027D01*
X143475027Y-201168635D01*
X143647165Y-201053616D01*
X143647167Y-201053615D01*
X143838436Y-200974389D01*
X144041484Y-200934000D01*
X144248516Y-200934000D01*
X144451564Y-200974389D01*
G37*
G36*
X133021564Y-200974389D02*
G01*
X133212833Y-201053615D01*
X133212835Y-201053616D01*
X133384973Y-201168635D01*
X133531365Y-201315027D01*
X133646385Y-201487167D01*
X133725611Y-201678436D01*
X133766000Y-201881484D01*
X133766000Y-202088516D01*
X133725611Y-202291564D01*
X133716551Y-202313436D01*
X133646384Y-202482835D01*
X133531365Y-202654973D01*
X133384973Y-202801365D01*
X133212835Y-202916384D01*
X133212834Y-202916385D01*
X133212833Y-202916385D01*
X133021564Y-202995611D01*
X132818516Y-203036000D01*
X132611484Y-203036000D01*
X132408436Y-202995611D01*
X132217167Y-202916385D01*
X132217166Y-202916385D01*
X132217165Y-202916384D01*
X132045027Y-202801365D01*
X131898635Y-202654973D01*
X131783616Y-202482835D01*
X131713449Y-202313436D01*
X131704389Y-202291564D01*
X131664000Y-202088516D01*
X131664000Y-201881484D01*
X131704389Y-201678436D01*
X131783615Y-201487167D01*
X131898635Y-201315027D01*
X132045027Y-201168635D01*
X132217165Y-201053616D01*
X132217167Y-201053615D01*
X132408436Y-200974389D01*
X132611484Y-200934000D01*
X132818516Y-200934000D01*
X133021564Y-200974389D01*
G37*
G36*
X139521564Y-200974389D02*
G01*
X139712833Y-201053615D01*
X139712835Y-201053616D01*
X139884973Y-201168635D01*
X140031365Y-201315027D01*
X140146385Y-201487167D01*
X140225611Y-201678436D01*
X140266000Y-201881484D01*
X140266000Y-202088516D01*
X140225611Y-202291564D01*
X140216551Y-202313436D01*
X140146384Y-202482835D01*
X140031365Y-202654973D01*
X139884973Y-202801365D01*
X139712835Y-202916384D01*
X139712834Y-202916385D01*
X139712833Y-202916385D01*
X139521564Y-202995611D01*
X139318516Y-203036000D01*
X139111484Y-203036000D01*
X138908436Y-202995611D01*
X138717167Y-202916385D01*
X138717166Y-202916385D01*
X138717165Y-202916384D01*
X138545027Y-202801365D01*
X138398635Y-202654973D01*
X138283616Y-202482835D01*
X138213449Y-202313436D01*
X138204389Y-202291564D01*
X138164000Y-202088516D01*
X138164000Y-201881484D01*
X138204389Y-201678436D01*
X138283615Y-201487167D01*
X138398635Y-201315027D01*
X138545027Y-201168635D01*
X138717165Y-201053616D01*
X138717167Y-201053615D01*
X138908436Y-200974389D01*
X139111484Y-200934000D01*
X139318516Y-200934000D01*
X139521564Y-200974389D01*
G37*
G36*
X150951564Y-200974389D02*
G01*
X151142833Y-201053615D01*
X151142835Y-201053616D01*
X151314973Y-201168635D01*
X151461365Y-201315027D01*
X151576385Y-201487167D01*
X151655611Y-201678436D01*
X151696000Y-201881484D01*
X151696000Y-202088516D01*
X151655611Y-202291564D01*
X151646551Y-202313436D01*
X151576384Y-202482835D01*
X151461365Y-202654973D01*
X151314973Y-202801365D01*
X151142835Y-202916384D01*
X151142834Y-202916385D01*
X151142833Y-202916385D01*
X150951564Y-202995611D01*
X150748516Y-203036000D01*
X150541484Y-203036000D01*
X150338436Y-202995611D01*
X150147167Y-202916385D01*
X150147166Y-202916385D01*
X150147165Y-202916384D01*
X149975027Y-202801365D01*
X149828635Y-202654973D01*
X149713616Y-202482835D01*
X149643449Y-202313436D01*
X149634389Y-202291564D01*
X149594000Y-202088516D01*
X149594000Y-201881484D01*
X149634389Y-201678436D01*
X149713615Y-201487167D01*
X149828635Y-201315027D01*
X149975027Y-201168635D01*
X150147165Y-201053616D01*
X150147167Y-201053615D01*
X150338436Y-200974389D01*
X150541484Y-200934000D01*
X150748516Y-200934000D01*
X150951564Y-200974389D01*
G37*
G36*
X155881564Y-200974389D02*
G01*
X156072833Y-201053615D01*
X156072835Y-201053616D01*
X156244973Y-201168635D01*
X156391365Y-201315027D01*
X156506385Y-201487167D01*
X156585611Y-201678436D01*
X156626000Y-201881484D01*
X156626000Y-202088516D01*
X156585611Y-202291564D01*
X156576551Y-202313436D01*
X156506384Y-202482835D01*
X156391365Y-202654973D01*
X156244973Y-202801365D01*
X156072835Y-202916384D01*
X156072834Y-202916385D01*
X156072833Y-202916385D01*
X155881564Y-202995611D01*
X155678516Y-203036000D01*
X155471484Y-203036000D01*
X155268436Y-202995611D01*
X155077167Y-202916385D01*
X155077166Y-202916385D01*
X155077165Y-202916384D01*
X154905027Y-202801365D01*
X154758635Y-202654973D01*
X154643616Y-202482835D01*
X154573449Y-202313436D01*
X154564389Y-202291564D01*
X154524000Y-202088516D01*
X154524000Y-201881484D01*
X154564389Y-201678436D01*
X154643615Y-201487167D01*
X154758635Y-201315027D01*
X154905027Y-201168635D01*
X155077165Y-201053616D01*
X155077167Y-201053615D01*
X155268436Y-200974389D01*
X155471484Y-200934000D01*
X155678516Y-200934000D01*
X155881564Y-200974389D01*
G37*
G36*
X215086564Y-200974389D02*
G01*
X215277833Y-201053615D01*
X215277835Y-201053616D01*
X215449973Y-201168635D01*
X215596365Y-201315027D01*
X215711385Y-201487167D01*
X215790611Y-201678436D01*
X215831000Y-201881484D01*
X215831000Y-202088516D01*
X215790611Y-202291564D01*
X215781551Y-202313436D01*
X215711384Y-202482835D01*
X215596365Y-202654973D01*
X215449973Y-202801365D01*
X215277835Y-202916384D01*
X215277834Y-202916385D01*
X215277833Y-202916385D01*
X215086564Y-202995611D01*
X214883516Y-203036000D01*
X214676484Y-203036000D01*
X214473436Y-202995611D01*
X214282167Y-202916385D01*
X214282166Y-202916385D01*
X214282165Y-202916384D01*
X214110027Y-202801365D01*
X213963635Y-202654973D01*
X213848616Y-202482835D01*
X213778449Y-202313436D01*
X213769389Y-202291564D01*
X213729000Y-202088516D01*
X213729000Y-201881484D01*
X213769389Y-201678436D01*
X213848615Y-201487167D01*
X213963635Y-201315027D01*
X214110027Y-201168635D01*
X214282165Y-201053616D01*
X214282167Y-201053615D01*
X214473436Y-200974389D01*
X214676484Y-200934000D01*
X214883516Y-200934000D01*
X215086564Y-200974389D01*
G37*
G36*
X208586564Y-200974389D02*
G01*
X208777833Y-201053615D01*
X208777835Y-201053616D01*
X208949973Y-201168635D01*
X209096365Y-201315027D01*
X209211385Y-201487167D01*
X209290611Y-201678436D01*
X209331000Y-201881484D01*
X209331000Y-202088516D01*
X209290611Y-202291564D01*
X209281551Y-202313436D01*
X209211384Y-202482835D01*
X209096365Y-202654973D01*
X208949973Y-202801365D01*
X208777835Y-202916384D01*
X208777834Y-202916385D01*
X208777833Y-202916385D01*
X208586564Y-202995611D01*
X208383516Y-203036000D01*
X208176484Y-203036000D01*
X207973436Y-202995611D01*
X207782167Y-202916385D01*
X207782166Y-202916385D01*
X207782165Y-202916384D01*
X207610027Y-202801365D01*
X207463635Y-202654973D01*
X207348616Y-202482835D01*
X207278449Y-202313436D01*
X207269389Y-202291564D01*
X207229000Y-202088516D01*
X207229000Y-201881484D01*
X207269389Y-201678436D01*
X207348615Y-201487167D01*
X207463635Y-201315027D01*
X207610027Y-201168635D01*
X207782165Y-201053616D01*
X207782167Y-201053615D01*
X207973436Y-200974389D01*
X208176484Y-200934000D01*
X208383516Y-200934000D01*
X208586564Y-200974389D01*
G37*
G36*
X187146564Y-200974389D02*
G01*
X187337833Y-201053615D01*
X187337835Y-201053616D01*
X187509973Y-201168635D01*
X187656365Y-201315027D01*
X187771385Y-201487167D01*
X187850611Y-201678436D01*
X187891000Y-201881484D01*
X187891000Y-202088516D01*
X187850611Y-202291564D01*
X187841551Y-202313436D01*
X187771384Y-202482835D01*
X187656365Y-202654973D01*
X187509973Y-202801365D01*
X187337835Y-202916384D01*
X187337834Y-202916385D01*
X187337833Y-202916385D01*
X187146564Y-202995611D01*
X186943516Y-203036000D01*
X186736484Y-203036000D01*
X186533436Y-202995611D01*
X186342167Y-202916385D01*
X186342166Y-202916385D01*
X186342165Y-202916384D01*
X186170027Y-202801365D01*
X186023635Y-202654973D01*
X185908616Y-202482835D01*
X185838449Y-202313436D01*
X185829389Y-202291564D01*
X185789000Y-202088516D01*
X185789000Y-201881484D01*
X185829389Y-201678436D01*
X185908615Y-201487167D01*
X186023635Y-201315027D01*
X186170027Y-201168635D01*
X186342165Y-201053616D01*
X186342167Y-201053615D01*
X186533436Y-200974389D01*
X186736484Y-200934000D01*
X186943516Y-200934000D01*
X187146564Y-200974389D01*
G37*
G36*
X180646564Y-200974389D02*
G01*
X180837833Y-201053615D01*
X180837835Y-201053616D01*
X181009973Y-201168635D01*
X181156365Y-201315027D01*
X181271385Y-201487167D01*
X181350611Y-201678436D01*
X181391000Y-201881484D01*
X181391000Y-202088516D01*
X181350611Y-202291564D01*
X181341551Y-202313436D01*
X181271384Y-202482835D01*
X181156365Y-202654973D01*
X181009973Y-202801365D01*
X180837835Y-202916384D01*
X180837834Y-202916385D01*
X180837833Y-202916385D01*
X180646564Y-202995611D01*
X180443516Y-203036000D01*
X180236484Y-203036000D01*
X180033436Y-202995611D01*
X179842167Y-202916385D01*
X179842166Y-202916385D01*
X179842165Y-202916384D01*
X179670027Y-202801365D01*
X179523635Y-202654973D01*
X179408616Y-202482835D01*
X179338449Y-202313436D01*
X179329389Y-202291564D01*
X179289000Y-202088516D01*
X179289000Y-201881484D01*
X179329389Y-201678436D01*
X179408615Y-201487167D01*
X179523635Y-201315027D01*
X179670027Y-201168635D01*
X179842165Y-201053616D01*
X179842167Y-201053615D01*
X180033436Y-200974389D01*
X180236484Y-200934000D01*
X180443516Y-200934000D01*
X180646564Y-200974389D01*
G37*
G36*
X173811564Y-200974389D02*
G01*
X174002833Y-201053615D01*
X174002835Y-201053616D01*
X174174973Y-201168635D01*
X174321365Y-201315027D01*
X174436385Y-201487167D01*
X174515611Y-201678436D01*
X174556000Y-201881484D01*
X174556000Y-202088516D01*
X174515611Y-202291564D01*
X174506551Y-202313436D01*
X174436384Y-202482835D01*
X174321365Y-202654973D01*
X174174973Y-202801365D01*
X174002835Y-202916384D01*
X174002834Y-202916385D01*
X174002833Y-202916385D01*
X173811564Y-202995611D01*
X173608516Y-203036000D01*
X173401484Y-203036000D01*
X173198436Y-202995611D01*
X173007167Y-202916385D01*
X173007166Y-202916385D01*
X173007165Y-202916384D01*
X172835027Y-202801365D01*
X172688635Y-202654973D01*
X172573616Y-202482835D01*
X172503449Y-202313436D01*
X172494389Y-202291564D01*
X172454000Y-202088516D01*
X172454000Y-201881484D01*
X172494389Y-201678436D01*
X172573615Y-201487167D01*
X172688635Y-201315027D01*
X172835027Y-201168635D01*
X173007165Y-201053616D01*
X173007167Y-201053615D01*
X173198436Y-200974389D01*
X173401484Y-200934000D01*
X173608516Y-200934000D01*
X173811564Y-200974389D01*
G37*
G36*
X167311564Y-200974389D02*
G01*
X167502833Y-201053615D01*
X167502835Y-201053616D01*
X167674973Y-201168635D01*
X167821365Y-201315027D01*
X167936385Y-201487167D01*
X168015611Y-201678436D01*
X168056000Y-201881484D01*
X168056000Y-202088516D01*
X168015611Y-202291564D01*
X168006551Y-202313436D01*
X167936384Y-202482835D01*
X167821365Y-202654973D01*
X167674973Y-202801365D01*
X167502835Y-202916384D01*
X167502834Y-202916385D01*
X167502833Y-202916385D01*
X167311564Y-202995611D01*
X167108516Y-203036000D01*
X166901484Y-203036000D01*
X166698436Y-202995611D01*
X166507167Y-202916385D01*
X166507166Y-202916385D01*
X166507165Y-202916384D01*
X166335027Y-202801365D01*
X166188635Y-202654973D01*
X166073616Y-202482835D01*
X166003449Y-202313436D01*
X165994389Y-202291564D01*
X165954000Y-202088516D01*
X165954000Y-201881484D01*
X165994389Y-201678436D01*
X166073615Y-201487167D01*
X166188635Y-201315027D01*
X166335027Y-201168635D01*
X166507165Y-201053616D01*
X166507167Y-201053615D01*
X166698436Y-200974389D01*
X166901484Y-200934000D01*
X167108516Y-200934000D01*
X167311564Y-200974389D01*
G37*
G36*
X162381564Y-200974389D02*
G01*
X162572833Y-201053615D01*
X162572835Y-201053616D01*
X162744973Y-201168635D01*
X162891365Y-201315027D01*
X163006385Y-201487167D01*
X163085611Y-201678436D01*
X163126000Y-201881484D01*
X163126000Y-202088516D01*
X163085611Y-202291564D01*
X163076551Y-202313436D01*
X163006384Y-202482835D01*
X162891365Y-202654973D01*
X162744973Y-202801365D01*
X162572835Y-202916384D01*
X162572834Y-202916385D01*
X162572833Y-202916385D01*
X162381564Y-202995611D01*
X162178516Y-203036000D01*
X161971484Y-203036000D01*
X161768436Y-202995611D01*
X161577167Y-202916385D01*
X161577166Y-202916385D01*
X161577165Y-202916384D01*
X161405027Y-202801365D01*
X161258635Y-202654973D01*
X161143616Y-202482835D01*
X161073449Y-202313436D01*
X161064389Y-202291564D01*
X161024000Y-202088516D01*
X161024000Y-201881484D01*
X161064389Y-201678436D01*
X161143615Y-201487167D01*
X161258635Y-201315027D01*
X161405027Y-201168635D01*
X161577165Y-201053616D01*
X161577167Y-201053615D01*
X161768436Y-200974389D01*
X161971484Y-200934000D01*
X162178516Y-200934000D01*
X162381564Y-200974389D01*
G37*
G36*
X115876564Y-197109389D02*
G01*
X116067833Y-197188615D01*
X116067835Y-197188616D01*
X116239973Y-197303635D01*
X116386365Y-197450027D01*
X116501385Y-197622167D01*
X116580611Y-197813436D01*
X116621000Y-198016484D01*
X116621000Y-198223516D01*
X116580611Y-198426564D01*
X116535281Y-198536000D01*
X116501384Y-198617835D01*
X116386365Y-198789973D01*
X116239973Y-198936365D01*
X116067835Y-199051384D01*
X116067834Y-199051385D01*
X116067833Y-199051385D01*
X115876564Y-199130611D01*
X115673516Y-199171000D01*
X115466484Y-199171000D01*
X115263436Y-199130611D01*
X115072167Y-199051385D01*
X115072166Y-199051385D01*
X115072165Y-199051384D01*
X114900027Y-198936365D01*
X114753635Y-198789973D01*
X114638616Y-198617835D01*
X114604719Y-198536000D01*
X114559389Y-198426564D01*
X114519000Y-198223516D01*
X114519000Y-198016484D01*
X114559389Y-197813436D01*
X114638615Y-197622167D01*
X114753635Y-197450027D01*
X114900027Y-197303635D01*
X115072165Y-197188616D01*
X115072167Y-197188615D01*
X115263436Y-197109389D01*
X115466484Y-197069000D01*
X115673516Y-197069000D01*
X115876564Y-197109389D01*
G37*
G36*
X122376564Y-197109389D02*
G01*
X122567833Y-197188615D01*
X122567835Y-197188616D01*
X122739973Y-197303635D01*
X122886365Y-197450027D01*
X123001385Y-197622167D01*
X123080611Y-197813436D01*
X123121000Y-198016484D01*
X123121000Y-198223516D01*
X123080611Y-198426564D01*
X123035281Y-198536000D01*
X123001384Y-198617835D01*
X122886365Y-198789973D01*
X122739973Y-198936365D01*
X122567835Y-199051384D01*
X122567834Y-199051385D01*
X122567833Y-199051385D01*
X122376564Y-199130611D01*
X122173516Y-199171000D01*
X121966484Y-199171000D01*
X121763436Y-199130611D01*
X121572167Y-199051385D01*
X121572166Y-199051385D01*
X121572165Y-199051384D01*
X121400027Y-198936365D01*
X121253635Y-198789973D01*
X121138616Y-198617835D01*
X121104719Y-198536000D01*
X121059389Y-198426564D01*
X121019000Y-198223516D01*
X121019000Y-198016484D01*
X121059389Y-197813436D01*
X121138615Y-197622167D01*
X121253635Y-197450027D01*
X121400027Y-197303635D01*
X121572165Y-197188616D01*
X121572167Y-197188615D01*
X121763436Y-197109389D01*
X121966484Y-197069000D01*
X122173516Y-197069000D01*
X122376564Y-197109389D01*
G37*
G36*
X173811564Y-196474389D02*
G01*
X174002833Y-196553615D01*
X174002835Y-196553616D01*
X174174973Y-196668635D01*
X174321365Y-196815027D01*
X174436385Y-196987167D01*
X174515611Y-197178436D01*
X174556000Y-197381484D01*
X174556000Y-197588516D01*
X174515611Y-197791564D01*
X174506551Y-197813436D01*
X174436384Y-197982835D01*
X174321365Y-198154973D01*
X174174973Y-198301365D01*
X174002835Y-198416384D01*
X174002834Y-198416385D01*
X174002833Y-198416385D01*
X173811564Y-198495611D01*
X173608516Y-198536000D01*
X173401484Y-198536000D01*
X173198436Y-198495611D01*
X173007167Y-198416385D01*
X173007166Y-198416385D01*
X173007165Y-198416384D01*
X172835027Y-198301365D01*
X172688635Y-198154973D01*
X172573616Y-197982835D01*
X172503449Y-197813436D01*
X172494389Y-197791564D01*
X172454000Y-197588516D01*
X172454000Y-197381484D01*
X172494389Y-197178436D01*
X172573615Y-196987167D01*
X172688635Y-196815027D01*
X172835027Y-196668635D01*
X173007165Y-196553616D01*
X173007167Y-196553615D01*
X173198436Y-196474389D01*
X173401484Y-196434000D01*
X173608516Y-196434000D01*
X173811564Y-196474389D01*
G37*
G36*
X133021564Y-196474389D02*
G01*
X133212833Y-196553615D01*
X133212835Y-196553616D01*
X133384973Y-196668635D01*
X133531365Y-196815027D01*
X133646385Y-196987167D01*
X133725611Y-197178436D01*
X133766000Y-197381484D01*
X133766000Y-197588516D01*
X133725611Y-197791564D01*
X133716551Y-197813436D01*
X133646384Y-197982835D01*
X133531365Y-198154973D01*
X133384973Y-198301365D01*
X133212835Y-198416384D01*
X133212834Y-198416385D01*
X133212833Y-198416385D01*
X133021564Y-198495611D01*
X132818516Y-198536000D01*
X132611484Y-198536000D01*
X132408436Y-198495611D01*
X132217167Y-198416385D01*
X132217166Y-198416385D01*
X132217165Y-198416384D01*
X132045027Y-198301365D01*
X131898635Y-198154973D01*
X131783616Y-197982835D01*
X131713449Y-197813436D01*
X131704389Y-197791564D01*
X131664000Y-197588516D01*
X131664000Y-197381484D01*
X131704389Y-197178436D01*
X131783615Y-196987167D01*
X131898635Y-196815027D01*
X132045027Y-196668635D01*
X132217165Y-196553616D01*
X132217167Y-196553615D01*
X132408436Y-196474389D01*
X132611484Y-196434000D01*
X132818516Y-196434000D01*
X133021564Y-196474389D01*
G37*
G36*
X162381564Y-196474389D02*
G01*
X162572833Y-196553615D01*
X162572835Y-196553616D01*
X162744973Y-196668635D01*
X162891365Y-196815027D01*
X163006385Y-196987167D01*
X163085611Y-197178436D01*
X163126000Y-197381484D01*
X163126000Y-197588516D01*
X163085611Y-197791564D01*
X163076551Y-197813436D01*
X163006384Y-197982835D01*
X162891365Y-198154973D01*
X162744973Y-198301365D01*
X162572835Y-198416384D01*
X162572834Y-198416385D01*
X162572833Y-198416385D01*
X162381564Y-198495611D01*
X162178516Y-198536000D01*
X161971484Y-198536000D01*
X161768436Y-198495611D01*
X161577167Y-198416385D01*
X161577166Y-198416385D01*
X161577165Y-198416384D01*
X161405027Y-198301365D01*
X161258635Y-198154973D01*
X161143616Y-197982835D01*
X161073449Y-197813436D01*
X161064389Y-197791564D01*
X161024000Y-197588516D01*
X161024000Y-197381484D01*
X161064389Y-197178436D01*
X161143615Y-196987167D01*
X161258635Y-196815027D01*
X161405027Y-196668635D01*
X161577165Y-196553616D01*
X161577167Y-196553615D01*
X161768436Y-196474389D01*
X161971484Y-196434000D01*
X162178516Y-196434000D01*
X162381564Y-196474389D01*
G37*
G36*
X167311564Y-196474389D02*
G01*
X167502833Y-196553615D01*
X167502835Y-196553616D01*
X167674973Y-196668635D01*
X167821365Y-196815027D01*
X167936385Y-196987167D01*
X168015611Y-197178436D01*
X168056000Y-197381484D01*
X168056000Y-197588516D01*
X168015611Y-197791564D01*
X168006551Y-197813436D01*
X167936384Y-197982835D01*
X167821365Y-198154973D01*
X167674973Y-198301365D01*
X167502835Y-198416384D01*
X167502834Y-198416385D01*
X167502833Y-198416385D01*
X167311564Y-198495611D01*
X167108516Y-198536000D01*
X166901484Y-198536000D01*
X166698436Y-198495611D01*
X166507167Y-198416385D01*
X166507166Y-198416385D01*
X166507165Y-198416384D01*
X166335027Y-198301365D01*
X166188635Y-198154973D01*
X166073616Y-197982835D01*
X166003449Y-197813436D01*
X165994389Y-197791564D01*
X165954000Y-197588516D01*
X165954000Y-197381484D01*
X165994389Y-197178436D01*
X166073615Y-196987167D01*
X166188635Y-196815027D01*
X166335027Y-196668635D01*
X166507165Y-196553616D01*
X166507167Y-196553615D01*
X166698436Y-196474389D01*
X166901484Y-196434000D01*
X167108516Y-196434000D01*
X167311564Y-196474389D01*
G37*
G36*
X180646564Y-196474389D02*
G01*
X180837833Y-196553615D01*
X180837835Y-196553616D01*
X181009973Y-196668635D01*
X181156365Y-196815027D01*
X181271385Y-196987167D01*
X181350611Y-197178436D01*
X181391000Y-197381484D01*
X181391000Y-197588516D01*
X181350611Y-197791564D01*
X181341551Y-197813436D01*
X181271384Y-197982835D01*
X181156365Y-198154973D01*
X181009973Y-198301365D01*
X180837835Y-198416384D01*
X180837834Y-198416385D01*
X180837833Y-198416385D01*
X180646564Y-198495611D01*
X180443516Y-198536000D01*
X180236484Y-198536000D01*
X180033436Y-198495611D01*
X179842167Y-198416385D01*
X179842166Y-198416385D01*
X179842165Y-198416384D01*
X179670027Y-198301365D01*
X179523635Y-198154973D01*
X179408616Y-197982835D01*
X179338449Y-197813436D01*
X179329389Y-197791564D01*
X179289000Y-197588516D01*
X179289000Y-197381484D01*
X179329389Y-197178436D01*
X179408615Y-196987167D01*
X179523635Y-196815027D01*
X179670027Y-196668635D01*
X179842165Y-196553616D01*
X179842167Y-196553615D01*
X180033436Y-196474389D01*
X180236484Y-196434000D01*
X180443516Y-196434000D01*
X180646564Y-196474389D01*
G37*
G36*
X187146564Y-196474389D02*
G01*
X187337833Y-196553615D01*
X187337835Y-196553616D01*
X187509973Y-196668635D01*
X187656365Y-196815027D01*
X187771385Y-196987167D01*
X187850611Y-197178436D01*
X187891000Y-197381484D01*
X187891000Y-197588516D01*
X187850611Y-197791564D01*
X187841551Y-197813436D01*
X187771384Y-197982835D01*
X187656365Y-198154973D01*
X187509973Y-198301365D01*
X187337835Y-198416384D01*
X187337834Y-198416385D01*
X187337833Y-198416385D01*
X187146564Y-198495611D01*
X186943516Y-198536000D01*
X186736484Y-198536000D01*
X186533436Y-198495611D01*
X186342167Y-198416385D01*
X186342166Y-198416385D01*
X186342165Y-198416384D01*
X186170027Y-198301365D01*
X186023635Y-198154973D01*
X185908616Y-197982835D01*
X185838449Y-197813436D01*
X185829389Y-197791564D01*
X185789000Y-197588516D01*
X185789000Y-197381484D01*
X185829389Y-197178436D01*
X185908615Y-196987167D01*
X186023635Y-196815027D01*
X186170027Y-196668635D01*
X186342165Y-196553616D01*
X186342167Y-196553615D01*
X186533436Y-196474389D01*
X186736484Y-196434000D01*
X186943516Y-196434000D01*
X187146564Y-196474389D01*
G37*
G36*
X150951564Y-196474389D02*
G01*
X151142833Y-196553615D01*
X151142835Y-196553616D01*
X151314973Y-196668635D01*
X151461365Y-196815027D01*
X151576385Y-196987167D01*
X151655611Y-197178436D01*
X151696000Y-197381484D01*
X151696000Y-197588516D01*
X151655611Y-197791564D01*
X151646551Y-197813436D01*
X151576384Y-197982835D01*
X151461365Y-198154973D01*
X151314973Y-198301365D01*
X151142835Y-198416384D01*
X151142834Y-198416385D01*
X151142833Y-198416385D01*
X150951564Y-198495611D01*
X150748516Y-198536000D01*
X150541484Y-198536000D01*
X150338436Y-198495611D01*
X150147167Y-198416385D01*
X150147166Y-198416385D01*
X150147165Y-198416384D01*
X149975027Y-198301365D01*
X149828635Y-198154973D01*
X149713616Y-197982835D01*
X149643449Y-197813436D01*
X149634389Y-197791564D01*
X149594000Y-197588516D01*
X149594000Y-197381484D01*
X149634389Y-197178436D01*
X149713615Y-196987167D01*
X149828635Y-196815027D01*
X149975027Y-196668635D01*
X150147165Y-196553616D01*
X150147167Y-196553615D01*
X150338436Y-196474389D01*
X150541484Y-196434000D01*
X150748516Y-196434000D01*
X150951564Y-196474389D01*
G37*
G36*
X144451564Y-196474389D02*
G01*
X144642833Y-196553615D01*
X144642835Y-196553616D01*
X144814973Y-196668635D01*
X144961365Y-196815027D01*
X145076385Y-196987167D01*
X145155611Y-197178436D01*
X145196000Y-197381484D01*
X145196000Y-197588516D01*
X145155611Y-197791564D01*
X145146551Y-197813436D01*
X145076384Y-197982835D01*
X144961365Y-198154973D01*
X144814973Y-198301365D01*
X144642835Y-198416384D01*
X144642834Y-198416385D01*
X144642833Y-198416385D01*
X144451564Y-198495611D01*
X144248516Y-198536000D01*
X144041484Y-198536000D01*
X143838436Y-198495611D01*
X143647167Y-198416385D01*
X143647166Y-198416385D01*
X143647165Y-198416384D01*
X143475027Y-198301365D01*
X143328635Y-198154973D01*
X143213616Y-197982835D01*
X143143449Y-197813436D01*
X143134389Y-197791564D01*
X143094000Y-197588516D01*
X143094000Y-197381484D01*
X143134389Y-197178436D01*
X143213615Y-196987167D01*
X143328635Y-196815027D01*
X143475027Y-196668635D01*
X143647165Y-196553616D01*
X143647167Y-196553615D01*
X143838436Y-196474389D01*
X144041484Y-196434000D01*
X144248516Y-196434000D01*
X144451564Y-196474389D01*
G37*
G36*
X215086564Y-196474389D02*
G01*
X215277833Y-196553615D01*
X215277835Y-196553616D01*
X215449973Y-196668635D01*
X215596365Y-196815027D01*
X215711385Y-196987167D01*
X215790611Y-197178436D01*
X215831000Y-197381484D01*
X215831000Y-197588516D01*
X215790611Y-197791564D01*
X215781551Y-197813436D01*
X215711384Y-197982835D01*
X215596365Y-198154973D01*
X215449973Y-198301365D01*
X215277835Y-198416384D01*
X215277834Y-198416385D01*
X215277833Y-198416385D01*
X215086564Y-198495611D01*
X214883516Y-198536000D01*
X214676484Y-198536000D01*
X214473436Y-198495611D01*
X214282167Y-198416385D01*
X214282166Y-198416385D01*
X214282165Y-198416384D01*
X214110027Y-198301365D01*
X213963635Y-198154973D01*
X213848616Y-197982835D01*
X213778449Y-197813436D01*
X213769389Y-197791564D01*
X213729000Y-197588516D01*
X213729000Y-197381484D01*
X213769389Y-197178436D01*
X213848615Y-196987167D01*
X213963635Y-196815027D01*
X214110027Y-196668635D01*
X214282165Y-196553616D01*
X214282167Y-196553615D01*
X214473436Y-196474389D01*
X214676484Y-196434000D01*
X214883516Y-196434000D01*
X215086564Y-196474389D01*
G37*
G36*
X139521564Y-196474389D02*
G01*
X139712833Y-196553615D01*
X139712835Y-196553616D01*
X139884973Y-196668635D01*
X140031365Y-196815027D01*
X140146385Y-196987167D01*
X140225611Y-197178436D01*
X140266000Y-197381484D01*
X140266000Y-197588516D01*
X140225611Y-197791564D01*
X140216551Y-197813436D01*
X140146384Y-197982835D01*
X140031365Y-198154973D01*
X139884973Y-198301365D01*
X139712835Y-198416384D01*
X139712834Y-198416385D01*
X139712833Y-198416385D01*
X139521564Y-198495611D01*
X139318516Y-198536000D01*
X139111484Y-198536000D01*
X138908436Y-198495611D01*
X138717167Y-198416385D01*
X138717166Y-198416385D01*
X138717165Y-198416384D01*
X138545027Y-198301365D01*
X138398635Y-198154973D01*
X138283616Y-197982835D01*
X138213449Y-197813436D01*
X138204389Y-197791564D01*
X138164000Y-197588516D01*
X138164000Y-197381484D01*
X138204389Y-197178436D01*
X138283615Y-196987167D01*
X138398635Y-196815027D01*
X138545027Y-196668635D01*
X138717165Y-196553616D01*
X138717167Y-196553615D01*
X138908436Y-196474389D01*
X139111484Y-196434000D01*
X139318516Y-196434000D01*
X139521564Y-196474389D01*
G37*
G36*
X155881564Y-196474389D02*
G01*
X156072833Y-196553615D01*
X156072835Y-196553616D01*
X156244973Y-196668635D01*
X156391365Y-196815027D01*
X156506385Y-196987167D01*
X156585611Y-197178436D01*
X156626000Y-197381484D01*
X156626000Y-197588516D01*
X156585611Y-197791564D01*
X156576551Y-197813436D01*
X156506384Y-197982835D01*
X156391365Y-198154973D01*
X156244973Y-198301365D01*
X156072835Y-198416384D01*
X156072834Y-198416385D01*
X156072833Y-198416385D01*
X155881564Y-198495611D01*
X155678516Y-198536000D01*
X155471484Y-198536000D01*
X155268436Y-198495611D01*
X155077167Y-198416385D01*
X155077166Y-198416385D01*
X155077165Y-198416384D01*
X154905027Y-198301365D01*
X154758635Y-198154973D01*
X154643616Y-197982835D01*
X154573449Y-197813436D01*
X154564389Y-197791564D01*
X154524000Y-197588516D01*
X154524000Y-197381484D01*
X154564389Y-197178436D01*
X154643615Y-196987167D01*
X154758635Y-196815027D01*
X154905027Y-196668635D01*
X155077165Y-196553616D01*
X155077167Y-196553615D01*
X155268436Y-196474389D01*
X155471484Y-196434000D01*
X155678516Y-196434000D01*
X155881564Y-196474389D01*
G37*
G36*
X208586564Y-196474389D02*
G01*
X208777833Y-196553615D01*
X208777835Y-196553616D01*
X208949973Y-196668635D01*
X209096365Y-196815027D01*
X209211385Y-196987167D01*
X209290611Y-197178436D01*
X209331000Y-197381484D01*
X209331000Y-197588516D01*
X209290611Y-197791564D01*
X209281551Y-197813436D01*
X209211384Y-197982835D01*
X209096365Y-198154973D01*
X208949973Y-198301365D01*
X208777835Y-198416384D01*
X208777834Y-198416385D01*
X208777833Y-198416385D01*
X208586564Y-198495611D01*
X208383516Y-198536000D01*
X208176484Y-198536000D01*
X207973436Y-198495611D01*
X207782167Y-198416385D01*
X207782166Y-198416385D01*
X207782165Y-198416384D01*
X207610027Y-198301365D01*
X207463635Y-198154973D01*
X207348616Y-197982835D01*
X207278449Y-197813436D01*
X207269389Y-197791564D01*
X207229000Y-197588516D01*
X207229000Y-197381484D01*
X207269389Y-197178436D01*
X207348615Y-196987167D01*
X207463635Y-196815027D01*
X207610027Y-196668635D01*
X207782165Y-196553616D01*
X207782167Y-196553615D01*
X207973436Y-196474389D01*
X208176484Y-196434000D01*
X208383516Y-196434000D01*
X208586564Y-196474389D01*
G37*
G36*
X150166564Y-191449389D02*
G01*
X150357833Y-191528615D01*
X150357835Y-191528616D01*
X150529973Y-191643635D01*
X150676365Y-191790027D01*
X150791385Y-191962167D01*
X150870611Y-192153436D01*
X150911000Y-192356484D01*
X150911000Y-192563516D01*
X150870611Y-192766564D01*
X150791385Y-192957833D01*
X150791384Y-192957835D01*
X150676365Y-193129973D01*
X150529973Y-193276365D01*
X150357835Y-193391384D01*
X150357834Y-193391385D01*
X150357833Y-193391385D01*
X150166564Y-193470611D01*
X149963516Y-193511000D01*
X149756484Y-193511000D01*
X149553436Y-193470611D01*
X149362167Y-193391385D01*
X149362166Y-193391385D01*
X149362165Y-193391384D01*
X149190027Y-193276365D01*
X149043635Y-193129973D01*
X148928616Y-192957835D01*
X148928615Y-192957833D01*
X148849389Y-192766564D01*
X148809000Y-192563516D01*
X148809000Y-192356484D01*
X148849389Y-192153436D01*
X148928615Y-191962167D01*
X149043635Y-191790027D01*
X149190027Y-191643635D01*
X149362165Y-191528616D01*
X149362167Y-191528615D01*
X149553436Y-191449389D01*
X149756484Y-191409000D01*
X149963516Y-191409000D01*
X150166564Y-191449389D01*
G37*
G36*
X127456564Y-191449389D02*
G01*
X127647833Y-191528615D01*
X127647835Y-191528616D01*
X127819973Y-191643635D01*
X127966365Y-191790027D01*
X128081385Y-191962167D01*
X128160611Y-192153436D01*
X128201000Y-192356484D01*
X128201000Y-192563516D01*
X128160611Y-192766564D01*
X128081385Y-192957833D01*
X128081384Y-192957835D01*
X127966365Y-193129973D01*
X127819973Y-193276365D01*
X127647835Y-193391384D01*
X127647834Y-193391385D01*
X127647833Y-193391385D01*
X127456564Y-193470611D01*
X127253516Y-193511000D01*
X127046484Y-193511000D01*
X126843436Y-193470611D01*
X126652167Y-193391385D01*
X126652166Y-193391385D01*
X126652165Y-193391384D01*
X126480027Y-193276365D01*
X126333635Y-193129973D01*
X126218616Y-192957835D01*
X126218615Y-192957833D01*
X126139389Y-192766564D01*
X126099000Y-192563516D01*
X126099000Y-192356484D01*
X126139389Y-192153436D01*
X126218615Y-191962167D01*
X126333635Y-191790027D01*
X126480027Y-191643635D01*
X126652165Y-191528616D01*
X126652167Y-191528615D01*
X126843436Y-191449389D01*
X127046484Y-191409000D01*
X127253516Y-191409000D01*
X127456564Y-191449389D01*
G37*
G36*
X109526564Y-191449389D02*
G01*
X109717833Y-191528615D01*
X109717835Y-191528616D01*
X109889973Y-191643635D01*
X110036365Y-191790027D01*
X110151385Y-191962167D01*
X110230611Y-192153436D01*
X110271000Y-192356484D01*
X110271000Y-192563516D01*
X110230611Y-192766564D01*
X110151385Y-192957833D01*
X110151384Y-192957835D01*
X110036365Y-193129973D01*
X109889973Y-193276365D01*
X109717835Y-193391384D01*
X109717834Y-193391385D01*
X109717833Y-193391385D01*
X109526564Y-193470611D01*
X109323516Y-193511000D01*
X109116484Y-193511000D01*
X108913436Y-193470611D01*
X108722167Y-193391385D01*
X108722166Y-193391385D01*
X108722165Y-193391384D01*
X108550027Y-193276365D01*
X108403635Y-193129973D01*
X108288616Y-192957835D01*
X108288615Y-192957833D01*
X108209389Y-192766564D01*
X108169000Y-192563516D01*
X108169000Y-192356484D01*
X108209389Y-192153436D01*
X108288615Y-191962167D01*
X108403635Y-191790027D01*
X108550027Y-191643635D01*
X108722165Y-191528616D01*
X108722167Y-191528615D01*
X108913436Y-191449389D01*
X109116484Y-191409000D01*
X109323516Y-191409000D01*
X109526564Y-191449389D01*
G37*
G36*
X116026564Y-191449389D02*
G01*
X116217833Y-191528615D01*
X116217835Y-191528616D01*
X116389973Y-191643635D01*
X116536365Y-191790027D01*
X116651385Y-191962167D01*
X116730611Y-192153436D01*
X116771000Y-192356484D01*
X116771000Y-192563516D01*
X116730611Y-192766564D01*
X116651385Y-192957833D01*
X116651384Y-192957835D01*
X116536365Y-193129973D01*
X116389973Y-193276365D01*
X116217835Y-193391384D01*
X116217834Y-193391385D01*
X116217833Y-193391385D01*
X116026564Y-193470611D01*
X115823516Y-193511000D01*
X115616484Y-193511000D01*
X115413436Y-193470611D01*
X115222167Y-193391385D01*
X115222166Y-193391385D01*
X115222165Y-193391384D01*
X115050027Y-193276365D01*
X114903635Y-193129973D01*
X114788616Y-192957835D01*
X114788615Y-192957833D01*
X114709389Y-192766564D01*
X114669000Y-192563516D01*
X114669000Y-192356484D01*
X114709389Y-192153436D01*
X114788615Y-191962167D01*
X114903635Y-191790027D01*
X115050027Y-191643635D01*
X115222165Y-191528616D01*
X115222167Y-191528615D01*
X115413436Y-191449389D01*
X115616484Y-191409000D01*
X115823516Y-191409000D01*
X116026564Y-191449389D01*
G37*
G36*
X168096564Y-191449389D02*
G01*
X168287833Y-191528615D01*
X168287835Y-191528616D01*
X168459973Y-191643635D01*
X168606365Y-191790027D01*
X168721385Y-191962167D01*
X168800611Y-192153436D01*
X168841000Y-192356484D01*
X168841000Y-192563516D01*
X168800611Y-192766564D01*
X168721385Y-192957833D01*
X168721384Y-192957835D01*
X168606365Y-193129973D01*
X168459973Y-193276365D01*
X168287835Y-193391384D01*
X168287834Y-193391385D01*
X168287833Y-193391385D01*
X168096564Y-193470611D01*
X167893516Y-193511000D01*
X167686484Y-193511000D01*
X167483436Y-193470611D01*
X167292167Y-193391385D01*
X167292166Y-193391385D01*
X167292165Y-193391384D01*
X167120027Y-193276365D01*
X166973635Y-193129973D01*
X166858616Y-192957835D01*
X166858615Y-192957833D01*
X166779389Y-192766564D01*
X166739000Y-192563516D01*
X166739000Y-192356484D01*
X166779389Y-192153436D01*
X166858615Y-191962167D01*
X166973635Y-191790027D01*
X167120027Y-191643635D01*
X167292165Y-191528616D01*
X167292167Y-191528615D01*
X167483436Y-191449389D01*
X167686484Y-191409000D01*
X167893516Y-191409000D01*
X168096564Y-191449389D01*
G37*
G36*
X161596564Y-191449389D02*
G01*
X161787833Y-191528615D01*
X161787835Y-191528616D01*
X161959973Y-191643635D01*
X162106365Y-191790027D01*
X162221385Y-191962167D01*
X162300611Y-192153436D01*
X162341000Y-192356484D01*
X162341000Y-192563516D01*
X162300611Y-192766564D01*
X162221385Y-192957833D01*
X162221384Y-192957835D01*
X162106365Y-193129973D01*
X161959973Y-193276365D01*
X161787835Y-193391384D01*
X161787834Y-193391385D01*
X161787833Y-193391385D01*
X161596564Y-193470611D01*
X161393516Y-193511000D01*
X161186484Y-193511000D01*
X160983436Y-193470611D01*
X160792167Y-193391385D01*
X160792166Y-193391385D01*
X160792165Y-193391384D01*
X160620027Y-193276365D01*
X160473635Y-193129973D01*
X160358616Y-192957835D01*
X160358615Y-192957833D01*
X160279389Y-192766564D01*
X160239000Y-192563516D01*
X160239000Y-192356484D01*
X160279389Y-192153436D01*
X160358615Y-191962167D01*
X160473635Y-191790027D01*
X160620027Y-191643635D01*
X160792165Y-191528616D01*
X160792167Y-191528615D01*
X160983436Y-191449389D01*
X161186484Y-191409000D01*
X161393516Y-191409000D01*
X161596564Y-191449389D01*
G37*
G36*
X156666564Y-191449389D02*
G01*
X156857833Y-191528615D01*
X156857835Y-191528616D01*
X157029973Y-191643635D01*
X157176365Y-191790027D01*
X157291385Y-191962167D01*
X157370611Y-192153436D01*
X157411000Y-192356484D01*
X157411000Y-192563516D01*
X157370611Y-192766564D01*
X157291385Y-192957833D01*
X157291384Y-192957835D01*
X157176365Y-193129973D01*
X157029973Y-193276365D01*
X156857835Y-193391384D01*
X156857834Y-193391385D01*
X156857833Y-193391385D01*
X156666564Y-193470611D01*
X156463516Y-193511000D01*
X156256484Y-193511000D01*
X156053436Y-193470611D01*
X155862167Y-193391385D01*
X155862166Y-193391385D01*
X155862165Y-193391384D01*
X155690027Y-193276365D01*
X155543635Y-193129973D01*
X155428616Y-192957835D01*
X155428615Y-192957833D01*
X155349389Y-192766564D01*
X155309000Y-192563516D01*
X155309000Y-192356484D01*
X155349389Y-192153436D01*
X155428615Y-191962167D01*
X155543635Y-191790027D01*
X155690027Y-191643635D01*
X155862165Y-191528616D01*
X155862167Y-191528615D01*
X156053436Y-191449389D01*
X156256484Y-191409000D01*
X156463516Y-191409000D01*
X156666564Y-191449389D01*
G37*
G36*
X138736564Y-191449389D02*
G01*
X138927833Y-191528615D01*
X138927835Y-191528616D01*
X139099973Y-191643635D01*
X139246365Y-191790027D01*
X139361385Y-191962167D01*
X139440611Y-192153436D01*
X139481000Y-192356484D01*
X139481000Y-192563516D01*
X139440611Y-192766564D01*
X139361385Y-192957833D01*
X139361384Y-192957835D01*
X139246365Y-193129973D01*
X139099973Y-193276365D01*
X138927835Y-193391384D01*
X138927834Y-193391385D01*
X138927833Y-193391385D01*
X138736564Y-193470611D01*
X138533516Y-193511000D01*
X138326484Y-193511000D01*
X138123436Y-193470611D01*
X137932167Y-193391385D01*
X137932166Y-193391385D01*
X137932165Y-193391384D01*
X137760027Y-193276365D01*
X137613635Y-193129973D01*
X137498616Y-192957835D01*
X137498615Y-192957833D01*
X137419389Y-192766564D01*
X137379000Y-192563516D01*
X137379000Y-192356484D01*
X137419389Y-192153436D01*
X137498615Y-191962167D01*
X137613635Y-191790027D01*
X137760027Y-191643635D01*
X137932165Y-191528616D01*
X137932167Y-191528615D01*
X138123436Y-191449389D01*
X138326484Y-191409000D01*
X138533516Y-191409000D01*
X138736564Y-191449389D01*
G37*
G36*
X120956564Y-191449389D02*
G01*
X121147833Y-191528615D01*
X121147835Y-191528616D01*
X121319973Y-191643635D01*
X121466365Y-191790027D01*
X121581385Y-191962167D01*
X121660611Y-192153436D01*
X121701000Y-192356484D01*
X121701000Y-192563516D01*
X121660611Y-192766564D01*
X121581385Y-192957833D01*
X121581384Y-192957835D01*
X121466365Y-193129973D01*
X121319973Y-193276365D01*
X121147835Y-193391384D01*
X121147834Y-193391385D01*
X121147833Y-193391385D01*
X120956564Y-193470611D01*
X120753516Y-193511000D01*
X120546484Y-193511000D01*
X120343436Y-193470611D01*
X120152167Y-193391385D01*
X120152166Y-193391385D01*
X120152165Y-193391384D01*
X119980027Y-193276365D01*
X119833635Y-193129973D01*
X119718616Y-192957835D01*
X119718615Y-192957833D01*
X119639389Y-192766564D01*
X119599000Y-192563516D01*
X119599000Y-192356484D01*
X119639389Y-192153436D01*
X119718615Y-191962167D01*
X119833635Y-191790027D01*
X119980027Y-191643635D01*
X120152165Y-191528616D01*
X120152167Y-191528615D01*
X120343436Y-191449389D01*
X120546484Y-191409000D01*
X120753516Y-191409000D01*
X120956564Y-191449389D01*
G37*
G36*
X203506564Y-191449389D02*
G01*
X203697833Y-191528615D01*
X203697835Y-191528616D01*
X203869973Y-191643635D01*
X204016365Y-191790027D01*
X204131385Y-191962167D01*
X204210611Y-192153436D01*
X204251000Y-192356484D01*
X204251000Y-192563516D01*
X204210611Y-192766564D01*
X204131385Y-192957833D01*
X204131384Y-192957835D01*
X204016365Y-193129973D01*
X203869973Y-193276365D01*
X203697835Y-193391384D01*
X203697834Y-193391385D01*
X203697833Y-193391385D01*
X203506564Y-193470611D01*
X203303516Y-193511000D01*
X203096484Y-193511000D01*
X202893436Y-193470611D01*
X202702167Y-193391385D01*
X202702166Y-193391385D01*
X202702165Y-193391384D01*
X202530027Y-193276365D01*
X202383635Y-193129973D01*
X202268616Y-192957835D01*
X202268615Y-192957833D01*
X202189389Y-192766564D01*
X202149000Y-192563516D01*
X202149000Y-192356484D01*
X202189389Y-192153436D01*
X202268615Y-191962167D01*
X202383635Y-191790027D01*
X202530027Y-191643635D01*
X202702165Y-191528616D01*
X202702167Y-191528615D01*
X202893436Y-191449389D01*
X203096484Y-191409000D01*
X203303516Y-191409000D01*
X203506564Y-191449389D01*
G37*
G36*
X192861564Y-191449389D02*
G01*
X193052833Y-191528615D01*
X193052835Y-191528616D01*
X193224973Y-191643635D01*
X193371365Y-191790027D01*
X193486385Y-191962167D01*
X193565611Y-192153436D01*
X193606000Y-192356484D01*
X193606000Y-192563516D01*
X193565611Y-192766564D01*
X193486385Y-192957833D01*
X193486384Y-192957835D01*
X193371365Y-193129973D01*
X193224973Y-193276365D01*
X193052835Y-193391384D01*
X193052834Y-193391385D01*
X193052833Y-193391385D01*
X192861564Y-193470611D01*
X192658516Y-193511000D01*
X192451484Y-193511000D01*
X192248436Y-193470611D01*
X192057167Y-193391385D01*
X192057166Y-193391385D01*
X192057165Y-193391384D01*
X191885027Y-193276365D01*
X191738635Y-193129973D01*
X191623616Y-192957835D01*
X191623615Y-192957833D01*
X191544389Y-192766564D01*
X191504000Y-192563516D01*
X191504000Y-192356484D01*
X191544389Y-192153436D01*
X191623615Y-191962167D01*
X191738635Y-191790027D01*
X191885027Y-191643635D01*
X192057165Y-191528616D01*
X192057167Y-191528615D01*
X192248436Y-191449389D01*
X192451484Y-191409000D01*
X192658516Y-191409000D01*
X192861564Y-191449389D01*
G37*
G36*
X186361564Y-191449389D02*
G01*
X186552833Y-191528615D01*
X186552835Y-191528616D01*
X186724973Y-191643635D01*
X186871365Y-191790027D01*
X186986385Y-191962167D01*
X187065611Y-192153436D01*
X187106000Y-192356484D01*
X187106000Y-192563516D01*
X187065611Y-192766564D01*
X186986385Y-192957833D01*
X186986384Y-192957835D01*
X186871365Y-193129973D01*
X186724973Y-193276365D01*
X186552835Y-193391384D01*
X186552834Y-193391385D01*
X186552833Y-193391385D01*
X186361564Y-193470611D01*
X186158516Y-193511000D01*
X185951484Y-193511000D01*
X185748436Y-193470611D01*
X185557167Y-193391385D01*
X185557166Y-193391385D01*
X185557165Y-193391384D01*
X185385027Y-193276365D01*
X185238635Y-193129973D01*
X185123616Y-192957835D01*
X185123615Y-192957833D01*
X185044389Y-192766564D01*
X185004000Y-192563516D01*
X185004000Y-192356484D01*
X185044389Y-192153436D01*
X185123615Y-191962167D01*
X185238635Y-191790027D01*
X185385027Y-191643635D01*
X185557165Y-191528616D01*
X185557167Y-191528615D01*
X185748436Y-191449389D01*
X185951484Y-191409000D01*
X186158516Y-191409000D01*
X186361564Y-191449389D01*
G37*
G36*
X145236564Y-191449389D02*
G01*
X145427833Y-191528615D01*
X145427835Y-191528616D01*
X145599973Y-191643635D01*
X145746365Y-191790027D01*
X145861385Y-191962167D01*
X145940611Y-192153436D01*
X145981000Y-192356484D01*
X145981000Y-192563516D01*
X145940611Y-192766564D01*
X145861385Y-192957833D01*
X145861384Y-192957835D01*
X145746365Y-193129973D01*
X145599973Y-193276365D01*
X145427835Y-193391384D01*
X145427834Y-193391385D01*
X145427833Y-193391385D01*
X145236564Y-193470611D01*
X145033516Y-193511000D01*
X144826484Y-193511000D01*
X144623436Y-193470611D01*
X144432167Y-193391385D01*
X144432166Y-193391385D01*
X144432165Y-193391384D01*
X144260027Y-193276365D01*
X144113635Y-193129973D01*
X143998616Y-192957835D01*
X143998615Y-192957833D01*
X143919389Y-192766564D01*
X143879000Y-192563516D01*
X143879000Y-192356484D01*
X143919389Y-192153436D01*
X143998615Y-191962167D01*
X144113635Y-191790027D01*
X144260027Y-191643635D01*
X144432165Y-191528616D01*
X144432167Y-191528615D01*
X144623436Y-191449389D01*
X144826484Y-191409000D01*
X145033516Y-191409000D01*
X145236564Y-191449389D01*
G37*
G36*
X210006564Y-191449389D02*
G01*
X210197833Y-191528615D01*
X210197835Y-191528616D01*
X210369973Y-191643635D01*
X210516365Y-191790027D01*
X210631385Y-191962167D01*
X210710611Y-192153436D01*
X210751000Y-192356484D01*
X210751000Y-192563516D01*
X210710611Y-192766564D01*
X210631385Y-192957833D01*
X210631384Y-192957835D01*
X210516365Y-193129973D01*
X210369973Y-193276365D01*
X210197835Y-193391384D01*
X210197834Y-193391385D01*
X210197833Y-193391385D01*
X210006564Y-193470611D01*
X209803516Y-193511000D01*
X209596484Y-193511000D01*
X209393436Y-193470611D01*
X209202167Y-193391385D01*
X209202166Y-193391385D01*
X209202165Y-193391384D01*
X209030027Y-193276365D01*
X208883635Y-193129973D01*
X208768616Y-192957835D01*
X208768615Y-192957833D01*
X208689389Y-192766564D01*
X208649000Y-192563516D01*
X208649000Y-192356484D01*
X208689389Y-192153436D01*
X208768615Y-191962167D01*
X208883635Y-191790027D01*
X209030027Y-191643635D01*
X209202165Y-191528616D01*
X209202167Y-191528615D01*
X209393436Y-191449389D01*
X209596484Y-191409000D01*
X209803516Y-191409000D01*
X210006564Y-191449389D01*
G37*
G36*
X116026564Y-186949389D02*
G01*
X116217833Y-187028615D01*
X116217835Y-187028616D01*
X116389973Y-187143635D01*
X116536365Y-187290027D01*
X116651385Y-187462167D01*
X116730611Y-187653436D01*
X116771000Y-187856484D01*
X116771000Y-188063516D01*
X116730611Y-188266564D01*
X116651385Y-188457833D01*
X116651384Y-188457835D01*
X116536365Y-188629973D01*
X116389973Y-188776365D01*
X116217835Y-188891384D01*
X116217834Y-188891385D01*
X116217833Y-188891385D01*
X116026564Y-188970611D01*
X115823516Y-189011000D01*
X115616484Y-189011000D01*
X115413436Y-188970611D01*
X115222167Y-188891385D01*
X115222166Y-188891385D01*
X115222165Y-188891384D01*
X115050027Y-188776365D01*
X114903635Y-188629973D01*
X114788616Y-188457835D01*
X114788615Y-188457833D01*
X114709389Y-188266564D01*
X114669000Y-188063516D01*
X114669000Y-187856484D01*
X114709389Y-187653436D01*
X114788615Y-187462167D01*
X114903635Y-187290027D01*
X115050027Y-187143635D01*
X115222165Y-187028616D01*
X115222167Y-187028615D01*
X115413436Y-186949389D01*
X115616484Y-186909000D01*
X115823516Y-186909000D01*
X116026564Y-186949389D01*
G37*
G36*
X192861564Y-186949389D02*
G01*
X193052833Y-187028615D01*
X193052835Y-187028616D01*
X193224973Y-187143635D01*
X193371365Y-187290027D01*
X193486385Y-187462167D01*
X193565611Y-187653436D01*
X193606000Y-187856484D01*
X193606000Y-188063516D01*
X193565611Y-188266564D01*
X193486385Y-188457833D01*
X193486384Y-188457835D01*
X193371365Y-188629973D01*
X193224973Y-188776365D01*
X193052835Y-188891384D01*
X193052834Y-188891385D01*
X193052833Y-188891385D01*
X192861564Y-188970611D01*
X192658516Y-189011000D01*
X192451484Y-189011000D01*
X192248436Y-188970611D01*
X192057167Y-188891385D01*
X192057166Y-188891385D01*
X192057165Y-188891384D01*
X191885027Y-188776365D01*
X191738635Y-188629973D01*
X191623616Y-188457835D01*
X191623615Y-188457833D01*
X191544389Y-188266564D01*
X191504000Y-188063516D01*
X191504000Y-187856484D01*
X191544389Y-187653436D01*
X191623615Y-187462167D01*
X191738635Y-187290027D01*
X191885027Y-187143635D01*
X192057165Y-187028616D01*
X192057167Y-187028615D01*
X192248436Y-186949389D01*
X192451484Y-186909000D01*
X192658516Y-186909000D01*
X192861564Y-186949389D01*
G37*
G36*
X186361564Y-186949389D02*
G01*
X186552833Y-187028615D01*
X186552835Y-187028616D01*
X186724973Y-187143635D01*
X186871365Y-187290027D01*
X186986385Y-187462167D01*
X187065611Y-187653436D01*
X187106000Y-187856484D01*
X187106000Y-188063516D01*
X187065611Y-188266564D01*
X186986385Y-188457833D01*
X186986384Y-188457835D01*
X186871365Y-188629973D01*
X186724973Y-188776365D01*
X186552835Y-188891384D01*
X186552834Y-188891385D01*
X186552833Y-188891385D01*
X186361564Y-188970611D01*
X186158516Y-189011000D01*
X185951484Y-189011000D01*
X185748436Y-188970611D01*
X185557167Y-188891385D01*
X185557166Y-188891385D01*
X185557165Y-188891384D01*
X185385027Y-188776365D01*
X185238635Y-188629973D01*
X185123616Y-188457835D01*
X185123615Y-188457833D01*
X185044389Y-188266564D01*
X185004000Y-188063516D01*
X185004000Y-187856484D01*
X185044389Y-187653436D01*
X185123615Y-187462167D01*
X185238635Y-187290027D01*
X185385027Y-187143635D01*
X185557165Y-187028616D01*
X185557167Y-187028615D01*
X185748436Y-186949389D01*
X185951484Y-186909000D01*
X186158516Y-186909000D01*
X186361564Y-186949389D01*
G37*
G36*
X168096564Y-186949389D02*
G01*
X168287833Y-187028615D01*
X168287835Y-187028616D01*
X168459973Y-187143635D01*
X168606365Y-187290027D01*
X168721385Y-187462167D01*
X168800611Y-187653436D01*
X168841000Y-187856484D01*
X168841000Y-188063516D01*
X168800611Y-188266564D01*
X168721385Y-188457833D01*
X168721384Y-188457835D01*
X168606365Y-188629973D01*
X168459973Y-188776365D01*
X168287835Y-188891384D01*
X168287834Y-188891385D01*
X168287833Y-188891385D01*
X168096564Y-188970611D01*
X167893516Y-189011000D01*
X167686484Y-189011000D01*
X167483436Y-188970611D01*
X167292167Y-188891385D01*
X167292166Y-188891385D01*
X167292165Y-188891384D01*
X167120027Y-188776365D01*
X166973635Y-188629973D01*
X166858616Y-188457835D01*
X166858615Y-188457833D01*
X166779389Y-188266564D01*
X166739000Y-188063516D01*
X166739000Y-187856484D01*
X166779389Y-187653436D01*
X166858615Y-187462167D01*
X166973635Y-187290027D01*
X167120027Y-187143635D01*
X167292165Y-187028616D01*
X167292167Y-187028615D01*
X167483436Y-186949389D01*
X167686484Y-186909000D01*
X167893516Y-186909000D01*
X168096564Y-186949389D01*
G37*
G36*
X161596564Y-186949389D02*
G01*
X161787833Y-187028615D01*
X161787835Y-187028616D01*
X161959973Y-187143635D01*
X162106365Y-187290027D01*
X162221385Y-187462167D01*
X162300611Y-187653436D01*
X162341000Y-187856484D01*
X162341000Y-188063516D01*
X162300611Y-188266564D01*
X162221385Y-188457833D01*
X162221384Y-188457835D01*
X162106365Y-188629973D01*
X161959973Y-188776365D01*
X161787835Y-188891384D01*
X161787834Y-188891385D01*
X161787833Y-188891385D01*
X161596564Y-188970611D01*
X161393516Y-189011000D01*
X161186484Y-189011000D01*
X160983436Y-188970611D01*
X160792167Y-188891385D01*
X160792166Y-188891385D01*
X160792165Y-188891384D01*
X160620027Y-188776365D01*
X160473635Y-188629973D01*
X160358616Y-188457835D01*
X160358615Y-188457833D01*
X160279389Y-188266564D01*
X160239000Y-188063516D01*
X160239000Y-187856484D01*
X160279389Y-187653436D01*
X160358615Y-187462167D01*
X160473635Y-187290027D01*
X160620027Y-187143635D01*
X160792165Y-187028616D01*
X160792167Y-187028615D01*
X160983436Y-186949389D01*
X161186484Y-186909000D01*
X161393516Y-186909000D01*
X161596564Y-186949389D01*
G37*
G36*
X156666564Y-186949389D02*
G01*
X156857833Y-187028615D01*
X156857835Y-187028616D01*
X157029973Y-187143635D01*
X157176365Y-187290027D01*
X157291385Y-187462167D01*
X157370611Y-187653436D01*
X157411000Y-187856484D01*
X157411000Y-188063516D01*
X157370611Y-188266564D01*
X157291385Y-188457833D01*
X157291384Y-188457835D01*
X157176365Y-188629973D01*
X157029973Y-188776365D01*
X156857835Y-188891384D01*
X156857834Y-188891385D01*
X156857833Y-188891385D01*
X156666564Y-188970611D01*
X156463516Y-189011000D01*
X156256484Y-189011000D01*
X156053436Y-188970611D01*
X155862167Y-188891385D01*
X155862166Y-188891385D01*
X155862165Y-188891384D01*
X155690027Y-188776365D01*
X155543635Y-188629973D01*
X155428616Y-188457835D01*
X155428615Y-188457833D01*
X155349389Y-188266564D01*
X155309000Y-188063516D01*
X155309000Y-187856484D01*
X155349389Y-187653436D01*
X155428615Y-187462167D01*
X155543635Y-187290027D01*
X155690027Y-187143635D01*
X155862165Y-187028616D01*
X155862167Y-187028615D01*
X156053436Y-186949389D01*
X156256484Y-186909000D01*
X156463516Y-186909000D01*
X156666564Y-186949389D01*
G37*
G36*
X150166564Y-186949389D02*
G01*
X150357833Y-187028615D01*
X150357835Y-187028616D01*
X150529973Y-187143635D01*
X150676365Y-187290027D01*
X150791385Y-187462167D01*
X150870611Y-187653436D01*
X150911000Y-187856484D01*
X150911000Y-188063516D01*
X150870611Y-188266564D01*
X150791385Y-188457833D01*
X150791384Y-188457835D01*
X150676365Y-188629973D01*
X150529973Y-188776365D01*
X150357835Y-188891384D01*
X150357834Y-188891385D01*
X150357833Y-188891385D01*
X150166564Y-188970611D01*
X149963516Y-189011000D01*
X149756484Y-189011000D01*
X149553436Y-188970611D01*
X149362167Y-188891385D01*
X149362166Y-188891385D01*
X149362165Y-188891384D01*
X149190027Y-188776365D01*
X149043635Y-188629973D01*
X148928616Y-188457835D01*
X148928615Y-188457833D01*
X148849389Y-188266564D01*
X148809000Y-188063516D01*
X148809000Y-187856484D01*
X148849389Y-187653436D01*
X148928615Y-187462167D01*
X149043635Y-187290027D01*
X149190027Y-187143635D01*
X149362165Y-187028616D01*
X149362167Y-187028615D01*
X149553436Y-186949389D01*
X149756484Y-186909000D01*
X149963516Y-186909000D01*
X150166564Y-186949389D01*
G37*
G36*
X138736564Y-186949389D02*
G01*
X138927833Y-187028615D01*
X138927835Y-187028616D01*
X139099973Y-187143635D01*
X139246365Y-187290027D01*
X139361385Y-187462167D01*
X139440611Y-187653436D01*
X139481000Y-187856484D01*
X139481000Y-188063516D01*
X139440611Y-188266564D01*
X139361385Y-188457833D01*
X139361384Y-188457835D01*
X139246365Y-188629973D01*
X139099973Y-188776365D01*
X138927835Y-188891384D01*
X138927834Y-188891385D01*
X138927833Y-188891385D01*
X138736564Y-188970611D01*
X138533516Y-189011000D01*
X138326484Y-189011000D01*
X138123436Y-188970611D01*
X137932167Y-188891385D01*
X137932166Y-188891385D01*
X137932165Y-188891384D01*
X137760027Y-188776365D01*
X137613635Y-188629973D01*
X137498616Y-188457835D01*
X137498615Y-188457833D01*
X137419389Y-188266564D01*
X137379000Y-188063516D01*
X137379000Y-187856484D01*
X137419389Y-187653436D01*
X137498615Y-187462167D01*
X137613635Y-187290027D01*
X137760027Y-187143635D01*
X137932165Y-187028616D01*
X137932167Y-187028615D01*
X138123436Y-186949389D01*
X138326484Y-186909000D01*
X138533516Y-186909000D01*
X138736564Y-186949389D01*
G37*
G36*
X127456564Y-186949389D02*
G01*
X127647833Y-187028615D01*
X127647835Y-187028616D01*
X127819973Y-187143635D01*
X127966365Y-187290027D01*
X128081385Y-187462167D01*
X128160611Y-187653436D01*
X128201000Y-187856484D01*
X128201000Y-188063516D01*
X128160611Y-188266564D01*
X128081385Y-188457833D01*
X128081384Y-188457835D01*
X127966365Y-188629973D01*
X127819973Y-188776365D01*
X127647835Y-188891384D01*
X127647834Y-188891385D01*
X127647833Y-188891385D01*
X127456564Y-188970611D01*
X127253516Y-189011000D01*
X127046484Y-189011000D01*
X126843436Y-188970611D01*
X126652167Y-188891385D01*
X126652166Y-188891385D01*
X126652165Y-188891384D01*
X126480027Y-188776365D01*
X126333635Y-188629973D01*
X126218616Y-188457835D01*
X126218615Y-188457833D01*
X126139389Y-188266564D01*
X126099000Y-188063516D01*
X126099000Y-187856484D01*
X126139389Y-187653436D01*
X126218615Y-187462167D01*
X126333635Y-187290027D01*
X126480027Y-187143635D01*
X126652165Y-187028616D01*
X126652167Y-187028615D01*
X126843436Y-186949389D01*
X127046484Y-186909000D01*
X127253516Y-186909000D01*
X127456564Y-186949389D01*
G37*
G36*
X120956564Y-186949389D02*
G01*
X121147833Y-187028615D01*
X121147835Y-187028616D01*
X121319973Y-187143635D01*
X121466365Y-187290027D01*
X121581385Y-187462167D01*
X121660611Y-187653436D01*
X121701000Y-187856484D01*
X121701000Y-188063516D01*
X121660611Y-188266564D01*
X121581385Y-188457833D01*
X121581384Y-188457835D01*
X121466365Y-188629973D01*
X121319973Y-188776365D01*
X121147835Y-188891384D01*
X121147834Y-188891385D01*
X121147833Y-188891385D01*
X120956564Y-188970611D01*
X120753516Y-189011000D01*
X120546484Y-189011000D01*
X120343436Y-188970611D01*
X120152167Y-188891385D01*
X120152166Y-188891385D01*
X120152165Y-188891384D01*
X119980027Y-188776365D01*
X119833635Y-188629973D01*
X119718616Y-188457835D01*
X119718615Y-188457833D01*
X119639389Y-188266564D01*
X119599000Y-188063516D01*
X119599000Y-187856484D01*
X119639389Y-187653436D01*
X119718615Y-187462167D01*
X119833635Y-187290027D01*
X119980027Y-187143635D01*
X120152165Y-187028616D01*
X120152167Y-187028615D01*
X120343436Y-186949389D01*
X120546484Y-186909000D01*
X120753516Y-186909000D01*
X120956564Y-186949389D01*
G37*
G36*
X210006564Y-186949389D02*
G01*
X210197833Y-187028615D01*
X210197835Y-187028616D01*
X210369973Y-187143635D01*
X210516365Y-187290027D01*
X210631385Y-187462167D01*
X210710611Y-187653436D01*
X210751000Y-187856484D01*
X210751000Y-188063516D01*
X210710611Y-188266564D01*
X210631385Y-188457833D01*
X210631384Y-188457835D01*
X210516365Y-188629973D01*
X210369973Y-188776365D01*
X210197835Y-188891384D01*
X210197834Y-188891385D01*
X210197833Y-188891385D01*
X210006564Y-188970611D01*
X209803516Y-189011000D01*
X209596484Y-189011000D01*
X209393436Y-188970611D01*
X209202167Y-188891385D01*
X209202166Y-188891385D01*
X209202165Y-188891384D01*
X209030027Y-188776365D01*
X208883635Y-188629973D01*
X208768616Y-188457835D01*
X208768615Y-188457833D01*
X208689389Y-188266564D01*
X208649000Y-188063516D01*
X208649000Y-187856484D01*
X208689389Y-187653436D01*
X208768615Y-187462167D01*
X208883635Y-187290027D01*
X209030027Y-187143635D01*
X209202165Y-187028616D01*
X209202167Y-187028615D01*
X209393436Y-186949389D01*
X209596484Y-186909000D01*
X209803516Y-186909000D01*
X210006564Y-186949389D01*
G37*
G36*
X203506564Y-186949389D02*
G01*
X203697833Y-187028615D01*
X203697835Y-187028616D01*
X203869973Y-187143635D01*
X204016365Y-187290027D01*
X204131385Y-187462167D01*
X204210611Y-187653436D01*
X204251000Y-187856484D01*
X204251000Y-188063516D01*
X204210611Y-188266564D01*
X204131385Y-188457833D01*
X204131384Y-188457835D01*
X204016365Y-188629973D01*
X203869973Y-188776365D01*
X203697835Y-188891384D01*
X203697834Y-188891385D01*
X203697833Y-188891385D01*
X203506564Y-188970611D01*
X203303516Y-189011000D01*
X203096484Y-189011000D01*
X202893436Y-188970611D01*
X202702167Y-188891385D01*
X202702166Y-188891385D01*
X202702165Y-188891384D01*
X202530027Y-188776365D01*
X202383635Y-188629973D01*
X202268616Y-188457835D01*
X202268615Y-188457833D01*
X202189389Y-188266564D01*
X202149000Y-188063516D01*
X202149000Y-187856484D01*
X202189389Y-187653436D01*
X202268615Y-187462167D01*
X202383635Y-187290027D01*
X202530027Y-187143635D01*
X202702165Y-187028616D01*
X202702167Y-187028615D01*
X202893436Y-186949389D01*
X203096484Y-186909000D01*
X203303516Y-186909000D01*
X203506564Y-186949389D01*
G37*
G36*
X109526564Y-186949389D02*
G01*
X109717833Y-187028615D01*
X109717835Y-187028616D01*
X109889973Y-187143635D01*
X110036365Y-187290027D01*
X110151385Y-187462167D01*
X110230611Y-187653436D01*
X110271000Y-187856484D01*
X110271000Y-188063516D01*
X110230611Y-188266564D01*
X110151385Y-188457833D01*
X110151384Y-188457835D01*
X110036365Y-188629973D01*
X109889973Y-188776365D01*
X109717835Y-188891384D01*
X109717834Y-188891385D01*
X109717833Y-188891385D01*
X109526564Y-188970611D01*
X109323516Y-189011000D01*
X109116484Y-189011000D01*
X108913436Y-188970611D01*
X108722167Y-188891385D01*
X108722166Y-188891385D01*
X108722165Y-188891384D01*
X108550027Y-188776365D01*
X108403635Y-188629973D01*
X108288616Y-188457835D01*
X108288615Y-188457833D01*
X108209389Y-188266564D01*
X108169000Y-188063516D01*
X108169000Y-187856484D01*
X108209389Y-187653436D01*
X108288615Y-187462167D01*
X108403635Y-187290027D01*
X108550027Y-187143635D01*
X108722165Y-187028616D01*
X108722167Y-187028615D01*
X108913436Y-186949389D01*
X109116484Y-186909000D01*
X109323516Y-186909000D01*
X109526564Y-186949389D01*
G37*
G36*
X145236564Y-186949389D02*
G01*
X145427833Y-187028615D01*
X145427835Y-187028616D01*
X145599973Y-187143635D01*
X145746365Y-187290027D01*
X145861385Y-187462167D01*
X145940611Y-187653436D01*
X145981000Y-187856484D01*
X145981000Y-188063516D01*
X145940611Y-188266564D01*
X145861385Y-188457833D01*
X145861384Y-188457835D01*
X145746365Y-188629973D01*
X145599973Y-188776365D01*
X145427835Y-188891384D01*
X145427834Y-188891385D01*
X145427833Y-188891385D01*
X145236564Y-188970611D01*
X145033516Y-189011000D01*
X144826484Y-189011000D01*
X144623436Y-188970611D01*
X144432167Y-188891385D01*
X144432166Y-188891385D01*
X144432165Y-188891384D01*
X144260027Y-188776365D01*
X144113635Y-188629973D01*
X143998616Y-188457835D01*
X143998615Y-188457833D01*
X143919389Y-188266564D01*
X143879000Y-188063516D01*
X143879000Y-187856484D01*
X143919389Y-187653436D01*
X143998615Y-187462167D01*
X144113635Y-187290027D01*
X144260027Y-187143635D01*
X144432165Y-187028616D01*
X144432167Y-187028615D01*
X144623436Y-186949389D01*
X144826484Y-186909000D01*
X145033516Y-186909000D01*
X145236564Y-186949389D01*
G37*
G36*
X144451564Y-181924389D02*
G01*
X144642833Y-182003615D01*
X144642835Y-182003616D01*
X144814973Y-182118635D01*
X144961365Y-182265027D01*
X145076385Y-182437167D01*
X145155611Y-182628436D01*
X145196000Y-182831484D01*
X145196000Y-183038516D01*
X145155611Y-183241564D01*
X145099166Y-183377835D01*
X145076384Y-183432835D01*
X144961365Y-183604973D01*
X144814973Y-183751365D01*
X144642835Y-183866384D01*
X144642834Y-183866385D01*
X144642833Y-183866385D01*
X144451564Y-183945611D01*
X144248516Y-183986000D01*
X144041484Y-183986000D01*
X143838436Y-183945611D01*
X143647167Y-183866385D01*
X143647166Y-183866385D01*
X143647165Y-183866384D01*
X143475027Y-183751365D01*
X143328635Y-183604973D01*
X143213616Y-183432835D01*
X143190834Y-183377835D01*
X143134389Y-183241564D01*
X143094000Y-183038516D01*
X143094000Y-182831484D01*
X143134389Y-182628436D01*
X143213615Y-182437167D01*
X143328635Y-182265027D01*
X143475027Y-182118635D01*
X143647165Y-182003616D01*
X143647167Y-182003615D01*
X143838436Y-181924389D01*
X144041484Y-181884000D01*
X144248516Y-181884000D01*
X144451564Y-181924389D01*
G37*
G36*
X192076564Y-181924389D02*
G01*
X192267833Y-182003615D01*
X192267835Y-182003616D01*
X192439973Y-182118635D01*
X192586365Y-182265027D01*
X192701385Y-182437167D01*
X192780611Y-182628436D01*
X192821000Y-182831484D01*
X192821000Y-183038516D01*
X192780611Y-183241564D01*
X192724166Y-183377835D01*
X192701384Y-183432835D01*
X192586365Y-183604973D01*
X192439973Y-183751365D01*
X192267835Y-183866384D01*
X192267834Y-183866385D01*
X192267833Y-183866385D01*
X192076564Y-183945611D01*
X191873516Y-183986000D01*
X191666484Y-183986000D01*
X191463436Y-183945611D01*
X191272167Y-183866385D01*
X191272166Y-183866385D01*
X191272165Y-183866384D01*
X191100027Y-183751365D01*
X190953635Y-183604973D01*
X190838616Y-183432835D01*
X190815834Y-183377835D01*
X190759389Y-183241564D01*
X190719000Y-183038516D01*
X190719000Y-182831484D01*
X190759389Y-182628436D01*
X190838615Y-182437167D01*
X190953635Y-182265027D01*
X191100027Y-182118635D01*
X191272165Y-182003616D01*
X191272167Y-182003615D01*
X191463436Y-181924389D01*
X191666484Y-181884000D01*
X191873516Y-181884000D01*
X192076564Y-181924389D01*
G37*
G36*
X214451564Y-181924389D02*
G01*
X214642833Y-182003615D01*
X214642835Y-182003616D01*
X214814973Y-182118635D01*
X214961365Y-182265027D01*
X215076385Y-182437167D01*
X215155611Y-182628436D01*
X215196000Y-182831484D01*
X215196000Y-183038516D01*
X215155611Y-183241564D01*
X215099166Y-183377835D01*
X215076384Y-183432835D01*
X214961365Y-183604973D01*
X214814973Y-183751365D01*
X214642835Y-183866384D01*
X214642834Y-183866385D01*
X214642833Y-183866385D01*
X214451564Y-183945611D01*
X214248516Y-183986000D01*
X214041484Y-183986000D01*
X213838436Y-183945611D01*
X213647167Y-183866385D01*
X213647166Y-183866385D01*
X213647165Y-183866384D01*
X213475027Y-183751365D01*
X213328635Y-183604973D01*
X213213616Y-183432835D01*
X213190834Y-183377835D01*
X213134389Y-183241564D01*
X213094000Y-183038516D01*
X213094000Y-182831484D01*
X213134389Y-182628436D01*
X213213615Y-182437167D01*
X213328635Y-182265027D01*
X213475027Y-182118635D01*
X213647165Y-182003616D01*
X213647167Y-182003615D01*
X213838436Y-181924389D01*
X214041484Y-181884000D01*
X214248516Y-181884000D01*
X214451564Y-181924389D01*
G37*
G36*
X207951564Y-181924389D02*
G01*
X208142833Y-182003615D01*
X208142835Y-182003616D01*
X208314973Y-182118635D01*
X208461365Y-182265027D01*
X208576385Y-182437167D01*
X208655611Y-182628436D01*
X208696000Y-182831484D01*
X208696000Y-183038516D01*
X208655611Y-183241564D01*
X208599166Y-183377835D01*
X208576384Y-183432835D01*
X208461365Y-183604973D01*
X208314973Y-183751365D01*
X208142835Y-183866384D01*
X208142834Y-183866385D01*
X208142833Y-183866385D01*
X207951564Y-183945611D01*
X207748516Y-183986000D01*
X207541484Y-183986000D01*
X207338436Y-183945611D01*
X207147167Y-183866385D01*
X207147166Y-183866385D01*
X207147165Y-183866384D01*
X206975027Y-183751365D01*
X206828635Y-183604973D01*
X206713616Y-183432835D01*
X206690834Y-183377835D01*
X206634389Y-183241564D01*
X206594000Y-183038516D01*
X206594000Y-182831484D01*
X206634389Y-182628436D01*
X206713615Y-182437167D01*
X206828635Y-182265027D01*
X206975027Y-182118635D01*
X207147165Y-182003616D01*
X207147167Y-182003615D01*
X207338436Y-181924389D01*
X207541484Y-181884000D01*
X207748516Y-181884000D01*
X207951564Y-181924389D01*
G37*
G36*
X162381564Y-181924389D02*
G01*
X162572833Y-182003615D01*
X162572835Y-182003616D01*
X162744973Y-182118635D01*
X162891365Y-182265027D01*
X163006385Y-182437167D01*
X163085611Y-182628436D01*
X163126000Y-182831484D01*
X163126000Y-183038516D01*
X163085611Y-183241564D01*
X163029166Y-183377835D01*
X163006384Y-183432835D01*
X162891365Y-183604973D01*
X162744973Y-183751365D01*
X162572835Y-183866384D01*
X162572834Y-183866385D01*
X162572833Y-183866385D01*
X162381564Y-183945611D01*
X162178516Y-183986000D01*
X161971484Y-183986000D01*
X161768436Y-183945611D01*
X161577167Y-183866385D01*
X161577166Y-183866385D01*
X161577165Y-183866384D01*
X161405027Y-183751365D01*
X161258635Y-183604973D01*
X161143616Y-183432835D01*
X161120834Y-183377835D01*
X161064389Y-183241564D01*
X161024000Y-183038516D01*
X161024000Y-182831484D01*
X161064389Y-182628436D01*
X161143615Y-182437167D01*
X161258635Y-182265027D01*
X161405027Y-182118635D01*
X161577165Y-182003616D01*
X161577167Y-182003615D01*
X161768436Y-181924389D01*
X161971484Y-181884000D01*
X162178516Y-181884000D01*
X162381564Y-181924389D01*
G37*
G36*
X133021564Y-181924389D02*
G01*
X133212833Y-182003615D01*
X133212835Y-182003616D01*
X133384973Y-182118635D01*
X133531365Y-182265027D01*
X133646385Y-182437167D01*
X133725611Y-182628436D01*
X133766000Y-182831484D01*
X133766000Y-183038516D01*
X133725611Y-183241564D01*
X133669166Y-183377835D01*
X133646384Y-183432835D01*
X133531365Y-183604973D01*
X133384973Y-183751365D01*
X133212835Y-183866384D01*
X133212834Y-183866385D01*
X133212833Y-183866385D01*
X133021564Y-183945611D01*
X132818516Y-183986000D01*
X132611484Y-183986000D01*
X132408436Y-183945611D01*
X132217167Y-183866385D01*
X132217166Y-183866385D01*
X132217165Y-183866384D01*
X132045027Y-183751365D01*
X131898635Y-183604973D01*
X131783616Y-183432835D01*
X131760834Y-183377835D01*
X131704389Y-183241564D01*
X131664000Y-183038516D01*
X131664000Y-182831484D01*
X131704389Y-182628436D01*
X131783615Y-182437167D01*
X131898635Y-182265027D01*
X132045027Y-182118635D01*
X132217165Y-182003616D01*
X132217167Y-182003615D01*
X132408436Y-181924389D01*
X132611484Y-181884000D01*
X132818516Y-181884000D01*
X133021564Y-181924389D01*
G37*
G36*
X180646564Y-181924389D02*
G01*
X180837833Y-182003615D01*
X180837835Y-182003616D01*
X181009973Y-182118635D01*
X181156365Y-182265027D01*
X181271385Y-182437167D01*
X181350611Y-182628436D01*
X181391000Y-182831484D01*
X181391000Y-183038516D01*
X181350611Y-183241564D01*
X181294166Y-183377835D01*
X181271384Y-183432835D01*
X181156365Y-183604973D01*
X181009973Y-183751365D01*
X180837835Y-183866384D01*
X180837834Y-183866385D01*
X180837833Y-183866385D01*
X180646564Y-183945611D01*
X180443516Y-183986000D01*
X180236484Y-183986000D01*
X180033436Y-183945611D01*
X179842167Y-183866385D01*
X179842166Y-183866385D01*
X179842165Y-183866384D01*
X179670027Y-183751365D01*
X179523635Y-183604973D01*
X179408616Y-183432835D01*
X179385834Y-183377835D01*
X179329389Y-183241564D01*
X179289000Y-183038516D01*
X179289000Y-182831484D01*
X179329389Y-182628436D01*
X179408615Y-182437167D01*
X179523635Y-182265027D01*
X179670027Y-182118635D01*
X179842165Y-182003616D01*
X179842167Y-182003615D01*
X180033436Y-181924389D01*
X180236484Y-181884000D01*
X180443516Y-181884000D01*
X180646564Y-181924389D01*
G37*
G36*
X139521564Y-181924389D02*
G01*
X139712833Y-182003615D01*
X139712835Y-182003616D01*
X139884973Y-182118635D01*
X140031365Y-182265027D01*
X140146385Y-182437167D01*
X140225611Y-182628436D01*
X140266000Y-182831484D01*
X140266000Y-183038516D01*
X140225611Y-183241564D01*
X140169166Y-183377835D01*
X140146384Y-183432835D01*
X140031365Y-183604973D01*
X139884973Y-183751365D01*
X139712835Y-183866384D01*
X139712834Y-183866385D01*
X139712833Y-183866385D01*
X139521564Y-183945611D01*
X139318516Y-183986000D01*
X139111484Y-183986000D01*
X138908436Y-183945611D01*
X138717167Y-183866385D01*
X138717166Y-183866385D01*
X138717165Y-183866384D01*
X138545027Y-183751365D01*
X138398635Y-183604973D01*
X138283616Y-183432835D01*
X138260834Y-183377835D01*
X138204389Y-183241564D01*
X138164000Y-183038516D01*
X138164000Y-182831484D01*
X138204389Y-182628436D01*
X138283615Y-182437167D01*
X138398635Y-182265027D01*
X138545027Y-182118635D01*
X138717165Y-182003616D01*
X138717167Y-182003615D01*
X138908436Y-181924389D01*
X139111484Y-181884000D01*
X139318516Y-181884000D01*
X139521564Y-181924389D01*
G37*
G36*
X187146564Y-181924389D02*
G01*
X187337833Y-182003615D01*
X187337835Y-182003616D01*
X187509973Y-182118635D01*
X187656365Y-182265027D01*
X187771385Y-182437167D01*
X187850611Y-182628436D01*
X187891000Y-182831484D01*
X187891000Y-183038516D01*
X187850611Y-183241564D01*
X187794166Y-183377835D01*
X187771384Y-183432835D01*
X187656365Y-183604973D01*
X187509973Y-183751365D01*
X187337835Y-183866384D01*
X187337834Y-183866385D01*
X187337833Y-183866385D01*
X187146564Y-183945611D01*
X186943516Y-183986000D01*
X186736484Y-183986000D01*
X186533436Y-183945611D01*
X186342167Y-183866385D01*
X186342166Y-183866385D01*
X186342165Y-183866384D01*
X186170027Y-183751365D01*
X186023635Y-183604973D01*
X185908616Y-183432835D01*
X185885834Y-183377835D01*
X185829389Y-183241564D01*
X185789000Y-183038516D01*
X185789000Y-182831484D01*
X185829389Y-182628436D01*
X185908615Y-182437167D01*
X186023635Y-182265027D01*
X186170027Y-182118635D01*
X186342165Y-182003616D01*
X186342167Y-182003615D01*
X186533436Y-181924389D01*
X186736484Y-181884000D01*
X186943516Y-181884000D01*
X187146564Y-181924389D01*
G37*
G36*
X198576564Y-181924389D02*
G01*
X198767833Y-182003615D01*
X198767835Y-182003616D01*
X198939973Y-182118635D01*
X199086365Y-182265027D01*
X199201385Y-182437167D01*
X199280611Y-182628436D01*
X199321000Y-182831484D01*
X199321000Y-183038516D01*
X199280611Y-183241564D01*
X199224166Y-183377835D01*
X199201384Y-183432835D01*
X199086365Y-183604973D01*
X198939973Y-183751365D01*
X198767835Y-183866384D01*
X198767834Y-183866385D01*
X198767833Y-183866385D01*
X198576564Y-183945611D01*
X198373516Y-183986000D01*
X198166484Y-183986000D01*
X197963436Y-183945611D01*
X197772167Y-183866385D01*
X197772166Y-183866385D01*
X197772165Y-183866384D01*
X197600027Y-183751365D01*
X197453635Y-183604973D01*
X197338616Y-183432835D01*
X197315834Y-183377835D01*
X197259389Y-183241564D01*
X197219000Y-183038516D01*
X197219000Y-182831484D01*
X197259389Y-182628436D01*
X197338615Y-182437167D01*
X197453635Y-182265027D01*
X197600027Y-182118635D01*
X197772165Y-182003616D01*
X197772167Y-182003615D01*
X197963436Y-181924389D01*
X198166484Y-181884000D01*
X198373516Y-181884000D01*
X198576564Y-181924389D01*
G37*
G36*
X150951564Y-181924389D02*
G01*
X151142833Y-182003615D01*
X151142835Y-182003616D01*
X151314973Y-182118635D01*
X151461365Y-182265027D01*
X151576385Y-182437167D01*
X151655611Y-182628436D01*
X151696000Y-182831484D01*
X151696000Y-183038516D01*
X151655611Y-183241564D01*
X151599166Y-183377835D01*
X151576384Y-183432835D01*
X151461365Y-183604973D01*
X151314973Y-183751365D01*
X151142835Y-183866384D01*
X151142834Y-183866385D01*
X151142833Y-183866385D01*
X150951564Y-183945611D01*
X150748516Y-183986000D01*
X150541484Y-183986000D01*
X150338436Y-183945611D01*
X150147167Y-183866385D01*
X150147166Y-183866385D01*
X150147165Y-183866384D01*
X149975027Y-183751365D01*
X149828635Y-183604973D01*
X149713616Y-183432835D01*
X149690834Y-183377835D01*
X149634389Y-183241564D01*
X149594000Y-183038516D01*
X149594000Y-182831484D01*
X149634389Y-182628436D01*
X149713615Y-182437167D01*
X149828635Y-182265027D01*
X149975027Y-182118635D01*
X150147165Y-182003616D01*
X150147167Y-182003615D01*
X150338436Y-181924389D01*
X150541484Y-181884000D01*
X150748516Y-181884000D01*
X150951564Y-181924389D01*
G37*
G36*
X155881564Y-181924389D02*
G01*
X156072833Y-182003615D01*
X156072835Y-182003616D01*
X156244973Y-182118635D01*
X156391365Y-182265027D01*
X156506385Y-182437167D01*
X156585611Y-182628436D01*
X156626000Y-182831484D01*
X156626000Y-183038516D01*
X156585611Y-183241564D01*
X156529166Y-183377835D01*
X156506384Y-183432835D01*
X156391365Y-183604973D01*
X156244973Y-183751365D01*
X156072835Y-183866384D01*
X156072834Y-183866385D01*
X156072833Y-183866385D01*
X155881564Y-183945611D01*
X155678516Y-183986000D01*
X155471484Y-183986000D01*
X155268436Y-183945611D01*
X155077167Y-183866385D01*
X155077166Y-183866385D01*
X155077165Y-183866384D01*
X154905027Y-183751365D01*
X154758635Y-183604973D01*
X154643616Y-183432835D01*
X154620834Y-183377835D01*
X154564389Y-183241564D01*
X154524000Y-183038516D01*
X154524000Y-182831484D01*
X154564389Y-182628436D01*
X154643615Y-182437167D01*
X154758635Y-182265027D01*
X154905027Y-182118635D01*
X155077165Y-182003616D01*
X155077167Y-182003615D01*
X155268436Y-181924389D01*
X155471484Y-181884000D01*
X155678516Y-181884000D01*
X155881564Y-181924389D01*
G37*
G36*
X115726564Y-181869389D02*
G01*
X115917833Y-181948615D01*
X115917835Y-181948616D01*
X116000147Y-182003615D01*
X116089973Y-182063635D01*
X116236365Y-182210027D01*
X116351385Y-182382167D01*
X116430611Y-182573436D01*
X116471000Y-182776484D01*
X116471000Y-182983516D01*
X116430611Y-183186564D01*
X116351385Y-183377833D01*
X116351384Y-183377835D01*
X116236365Y-183549973D01*
X116089973Y-183696365D01*
X115917835Y-183811384D01*
X115917834Y-183811385D01*
X115917833Y-183811385D01*
X115726564Y-183890611D01*
X115523516Y-183931000D01*
X115316484Y-183931000D01*
X115113436Y-183890611D01*
X114922167Y-183811385D01*
X114922166Y-183811385D01*
X114922165Y-183811384D01*
X114750027Y-183696365D01*
X114603635Y-183549973D01*
X114488616Y-183377835D01*
X114488615Y-183377833D01*
X114409389Y-183186564D01*
X114369000Y-182983516D01*
X114369000Y-182776484D01*
X114409389Y-182573436D01*
X114488615Y-182382167D01*
X114603635Y-182210027D01*
X114750027Y-182063635D01*
X114839853Y-182003615D01*
X114922165Y-181948616D01*
X114922167Y-181948615D01*
X115113436Y-181869389D01*
X115316484Y-181829000D01*
X115523516Y-181829000D01*
X115726564Y-181869389D01*
G37*
G36*
X122226564Y-181869389D02*
G01*
X122417833Y-181948615D01*
X122417835Y-181948616D01*
X122500147Y-182003615D01*
X122589973Y-182063635D01*
X122736365Y-182210027D01*
X122851385Y-182382167D01*
X122930611Y-182573436D01*
X122971000Y-182776484D01*
X122971000Y-182983516D01*
X122930611Y-183186564D01*
X122851385Y-183377833D01*
X122851384Y-183377835D01*
X122736365Y-183549973D01*
X122589973Y-183696365D01*
X122417835Y-183811384D01*
X122417834Y-183811385D01*
X122417833Y-183811385D01*
X122226564Y-183890611D01*
X122023516Y-183931000D01*
X121816484Y-183931000D01*
X121613436Y-183890611D01*
X121422167Y-183811385D01*
X121422166Y-183811385D01*
X121422165Y-183811384D01*
X121250027Y-183696365D01*
X121103635Y-183549973D01*
X120988616Y-183377835D01*
X120988615Y-183377833D01*
X120909389Y-183186564D01*
X120869000Y-182983516D01*
X120869000Y-182776484D01*
X120909389Y-182573436D01*
X120988615Y-182382167D01*
X121103635Y-182210027D01*
X121250027Y-182063635D01*
X121339853Y-182003615D01*
X121422165Y-181948616D01*
X121422167Y-181948615D01*
X121613436Y-181869389D01*
X121816484Y-181829000D01*
X122023516Y-181829000D01*
X122226564Y-181869389D01*
G37*
G36*
X139521564Y-177424389D02*
G01*
X139712833Y-177503615D01*
X139712835Y-177503616D01*
X139884973Y-177618635D01*
X140031365Y-177765027D01*
X140146385Y-177937167D01*
X140225611Y-178128436D01*
X140266000Y-178331484D01*
X140266000Y-178538516D01*
X140225611Y-178741564D01*
X140169166Y-178877835D01*
X140146384Y-178932835D01*
X140031365Y-179104973D01*
X139884973Y-179251365D01*
X139712835Y-179366384D01*
X139712834Y-179366385D01*
X139712833Y-179366385D01*
X139521564Y-179445611D01*
X139318516Y-179486000D01*
X139111484Y-179486000D01*
X138908436Y-179445611D01*
X138717167Y-179366385D01*
X138717166Y-179366385D01*
X138717165Y-179366384D01*
X138545027Y-179251365D01*
X138398635Y-179104973D01*
X138283616Y-178932835D01*
X138260834Y-178877835D01*
X138204389Y-178741564D01*
X138164000Y-178538516D01*
X138164000Y-178331484D01*
X138204389Y-178128436D01*
X138283615Y-177937167D01*
X138398635Y-177765027D01*
X138545027Y-177618635D01*
X138717165Y-177503616D01*
X138717167Y-177503615D01*
X138908436Y-177424389D01*
X139111484Y-177384000D01*
X139318516Y-177384000D01*
X139521564Y-177424389D01*
G37*
G36*
X180646564Y-177424389D02*
G01*
X180837833Y-177503615D01*
X180837835Y-177503616D01*
X181009973Y-177618635D01*
X181156365Y-177765027D01*
X181271385Y-177937167D01*
X181350611Y-178128436D01*
X181391000Y-178331484D01*
X181391000Y-178538516D01*
X181350611Y-178741564D01*
X181294166Y-178877835D01*
X181271384Y-178932835D01*
X181156365Y-179104973D01*
X181009973Y-179251365D01*
X180837835Y-179366384D01*
X180837834Y-179366385D01*
X180837833Y-179366385D01*
X180646564Y-179445611D01*
X180443516Y-179486000D01*
X180236484Y-179486000D01*
X180033436Y-179445611D01*
X179842167Y-179366385D01*
X179842166Y-179366385D01*
X179842165Y-179366384D01*
X179670027Y-179251365D01*
X179523635Y-179104973D01*
X179408616Y-178932835D01*
X179385834Y-178877835D01*
X179329389Y-178741564D01*
X179289000Y-178538516D01*
X179289000Y-178331484D01*
X179329389Y-178128436D01*
X179408615Y-177937167D01*
X179523635Y-177765027D01*
X179670027Y-177618635D01*
X179842165Y-177503616D01*
X179842167Y-177503615D01*
X180033436Y-177424389D01*
X180236484Y-177384000D01*
X180443516Y-177384000D01*
X180646564Y-177424389D01*
G37*
G36*
X187146564Y-177424389D02*
G01*
X187337833Y-177503615D01*
X187337835Y-177503616D01*
X187509973Y-177618635D01*
X187656365Y-177765027D01*
X187771385Y-177937167D01*
X187850611Y-178128436D01*
X187891000Y-178331484D01*
X187891000Y-178538516D01*
X187850611Y-178741564D01*
X187794166Y-178877835D01*
X187771384Y-178932835D01*
X187656365Y-179104973D01*
X187509973Y-179251365D01*
X187337835Y-179366384D01*
X187337834Y-179366385D01*
X187337833Y-179366385D01*
X187146564Y-179445611D01*
X186943516Y-179486000D01*
X186736484Y-179486000D01*
X186533436Y-179445611D01*
X186342167Y-179366385D01*
X186342166Y-179366385D01*
X186342165Y-179366384D01*
X186170027Y-179251365D01*
X186023635Y-179104973D01*
X185908616Y-178932835D01*
X185885834Y-178877835D01*
X185829389Y-178741564D01*
X185789000Y-178538516D01*
X185789000Y-178331484D01*
X185829389Y-178128436D01*
X185908615Y-177937167D01*
X186023635Y-177765027D01*
X186170027Y-177618635D01*
X186342165Y-177503616D01*
X186342167Y-177503615D01*
X186533436Y-177424389D01*
X186736484Y-177384000D01*
X186943516Y-177384000D01*
X187146564Y-177424389D01*
G37*
G36*
X192076564Y-177424389D02*
G01*
X192267833Y-177503615D01*
X192267835Y-177503616D01*
X192439973Y-177618635D01*
X192586365Y-177765027D01*
X192701385Y-177937167D01*
X192780611Y-178128436D01*
X192821000Y-178331484D01*
X192821000Y-178538516D01*
X192780611Y-178741564D01*
X192724166Y-178877835D01*
X192701384Y-178932835D01*
X192586365Y-179104973D01*
X192439973Y-179251365D01*
X192267835Y-179366384D01*
X192267834Y-179366385D01*
X192267833Y-179366385D01*
X192076564Y-179445611D01*
X191873516Y-179486000D01*
X191666484Y-179486000D01*
X191463436Y-179445611D01*
X191272167Y-179366385D01*
X191272166Y-179366385D01*
X191272165Y-179366384D01*
X191100027Y-179251365D01*
X190953635Y-179104973D01*
X190838616Y-178932835D01*
X190815834Y-178877835D01*
X190759389Y-178741564D01*
X190719000Y-178538516D01*
X190719000Y-178331484D01*
X190759389Y-178128436D01*
X190838615Y-177937167D01*
X190953635Y-177765027D01*
X191100027Y-177618635D01*
X191272165Y-177503616D01*
X191272167Y-177503615D01*
X191463436Y-177424389D01*
X191666484Y-177384000D01*
X191873516Y-177384000D01*
X192076564Y-177424389D01*
G37*
G36*
X198576564Y-177424389D02*
G01*
X198767833Y-177503615D01*
X198767835Y-177503616D01*
X198939973Y-177618635D01*
X199086365Y-177765027D01*
X199201385Y-177937167D01*
X199280611Y-178128436D01*
X199321000Y-178331484D01*
X199321000Y-178538516D01*
X199280611Y-178741564D01*
X199224166Y-178877835D01*
X199201384Y-178932835D01*
X199086365Y-179104973D01*
X198939973Y-179251365D01*
X198767835Y-179366384D01*
X198767834Y-179366385D01*
X198767833Y-179366385D01*
X198576564Y-179445611D01*
X198373516Y-179486000D01*
X198166484Y-179486000D01*
X197963436Y-179445611D01*
X197772167Y-179366385D01*
X197772166Y-179366385D01*
X197772165Y-179366384D01*
X197600027Y-179251365D01*
X197453635Y-179104973D01*
X197338616Y-178932835D01*
X197315834Y-178877835D01*
X197259389Y-178741564D01*
X197219000Y-178538516D01*
X197219000Y-178331484D01*
X197259389Y-178128436D01*
X197338615Y-177937167D01*
X197453635Y-177765027D01*
X197600027Y-177618635D01*
X197772165Y-177503616D01*
X197772167Y-177503615D01*
X197963436Y-177424389D01*
X198166484Y-177384000D01*
X198373516Y-177384000D01*
X198576564Y-177424389D01*
G37*
G36*
X214451564Y-177424389D02*
G01*
X214642833Y-177503615D01*
X214642835Y-177503616D01*
X214814973Y-177618635D01*
X214961365Y-177765027D01*
X215076385Y-177937167D01*
X215155611Y-178128436D01*
X215196000Y-178331484D01*
X215196000Y-178538516D01*
X215155611Y-178741564D01*
X215099166Y-178877835D01*
X215076384Y-178932835D01*
X214961365Y-179104973D01*
X214814973Y-179251365D01*
X214642835Y-179366384D01*
X214642834Y-179366385D01*
X214642833Y-179366385D01*
X214451564Y-179445611D01*
X214248516Y-179486000D01*
X214041484Y-179486000D01*
X213838436Y-179445611D01*
X213647167Y-179366385D01*
X213647166Y-179366385D01*
X213647165Y-179366384D01*
X213475027Y-179251365D01*
X213328635Y-179104973D01*
X213213616Y-178932835D01*
X213190834Y-178877835D01*
X213134389Y-178741564D01*
X213094000Y-178538516D01*
X213094000Y-178331484D01*
X213134389Y-178128436D01*
X213213615Y-177937167D01*
X213328635Y-177765027D01*
X213475027Y-177618635D01*
X213647165Y-177503616D01*
X213647167Y-177503615D01*
X213838436Y-177424389D01*
X214041484Y-177384000D01*
X214248516Y-177384000D01*
X214451564Y-177424389D01*
G37*
G36*
X207951564Y-177424389D02*
G01*
X208142833Y-177503615D01*
X208142835Y-177503616D01*
X208314973Y-177618635D01*
X208461365Y-177765027D01*
X208576385Y-177937167D01*
X208655611Y-178128436D01*
X208696000Y-178331484D01*
X208696000Y-178538516D01*
X208655611Y-178741564D01*
X208599166Y-178877835D01*
X208576384Y-178932835D01*
X208461365Y-179104973D01*
X208314973Y-179251365D01*
X208142835Y-179366384D01*
X208142834Y-179366385D01*
X208142833Y-179366385D01*
X207951564Y-179445611D01*
X207748516Y-179486000D01*
X207541484Y-179486000D01*
X207338436Y-179445611D01*
X207147167Y-179366385D01*
X207147166Y-179366385D01*
X207147165Y-179366384D01*
X206975027Y-179251365D01*
X206828635Y-179104973D01*
X206713616Y-178932835D01*
X206690834Y-178877835D01*
X206634389Y-178741564D01*
X206594000Y-178538516D01*
X206594000Y-178331484D01*
X206634389Y-178128436D01*
X206713615Y-177937167D01*
X206828635Y-177765027D01*
X206975027Y-177618635D01*
X207147165Y-177503616D01*
X207147167Y-177503615D01*
X207338436Y-177424389D01*
X207541484Y-177384000D01*
X207748516Y-177384000D01*
X207951564Y-177424389D01*
G37*
G36*
X162381564Y-177424389D02*
G01*
X162572833Y-177503615D01*
X162572835Y-177503616D01*
X162744973Y-177618635D01*
X162891365Y-177765027D01*
X163006385Y-177937167D01*
X163085611Y-178128436D01*
X163126000Y-178331484D01*
X163126000Y-178538516D01*
X163085611Y-178741564D01*
X163029166Y-178877835D01*
X163006384Y-178932835D01*
X162891365Y-179104973D01*
X162744973Y-179251365D01*
X162572835Y-179366384D01*
X162572834Y-179366385D01*
X162572833Y-179366385D01*
X162381564Y-179445611D01*
X162178516Y-179486000D01*
X161971484Y-179486000D01*
X161768436Y-179445611D01*
X161577167Y-179366385D01*
X161577166Y-179366385D01*
X161577165Y-179366384D01*
X161405027Y-179251365D01*
X161258635Y-179104973D01*
X161143616Y-178932835D01*
X161120834Y-178877835D01*
X161064389Y-178741564D01*
X161024000Y-178538516D01*
X161024000Y-178331484D01*
X161064389Y-178128436D01*
X161143615Y-177937167D01*
X161258635Y-177765027D01*
X161405027Y-177618635D01*
X161577165Y-177503616D01*
X161577167Y-177503615D01*
X161768436Y-177424389D01*
X161971484Y-177384000D01*
X162178516Y-177384000D01*
X162381564Y-177424389D01*
G37*
G36*
X155881564Y-177424389D02*
G01*
X156072833Y-177503615D01*
X156072835Y-177503616D01*
X156244973Y-177618635D01*
X156391365Y-177765027D01*
X156506385Y-177937167D01*
X156585611Y-178128436D01*
X156626000Y-178331484D01*
X156626000Y-178538516D01*
X156585611Y-178741564D01*
X156529166Y-178877835D01*
X156506384Y-178932835D01*
X156391365Y-179104973D01*
X156244973Y-179251365D01*
X156072835Y-179366384D01*
X156072834Y-179366385D01*
X156072833Y-179366385D01*
X155881564Y-179445611D01*
X155678516Y-179486000D01*
X155471484Y-179486000D01*
X155268436Y-179445611D01*
X155077167Y-179366385D01*
X155077166Y-179366385D01*
X155077165Y-179366384D01*
X154905027Y-179251365D01*
X154758635Y-179104973D01*
X154643616Y-178932835D01*
X154620834Y-178877835D01*
X154564389Y-178741564D01*
X154524000Y-178538516D01*
X154524000Y-178331484D01*
X154564389Y-178128436D01*
X154643615Y-177937167D01*
X154758635Y-177765027D01*
X154905027Y-177618635D01*
X155077165Y-177503616D01*
X155077167Y-177503615D01*
X155268436Y-177424389D01*
X155471484Y-177384000D01*
X155678516Y-177384000D01*
X155881564Y-177424389D01*
G37*
G36*
X133021564Y-177424389D02*
G01*
X133212833Y-177503615D01*
X133212835Y-177503616D01*
X133384973Y-177618635D01*
X133531365Y-177765027D01*
X133646385Y-177937167D01*
X133725611Y-178128436D01*
X133766000Y-178331484D01*
X133766000Y-178538516D01*
X133725611Y-178741564D01*
X133669166Y-178877835D01*
X133646384Y-178932835D01*
X133531365Y-179104973D01*
X133384973Y-179251365D01*
X133212835Y-179366384D01*
X133212834Y-179366385D01*
X133212833Y-179366385D01*
X133021564Y-179445611D01*
X132818516Y-179486000D01*
X132611484Y-179486000D01*
X132408436Y-179445611D01*
X132217167Y-179366385D01*
X132217166Y-179366385D01*
X132217165Y-179366384D01*
X132045027Y-179251365D01*
X131898635Y-179104973D01*
X131783616Y-178932835D01*
X131760834Y-178877835D01*
X131704389Y-178741564D01*
X131664000Y-178538516D01*
X131664000Y-178331484D01*
X131704389Y-178128436D01*
X131783615Y-177937167D01*
X131898635Y-177765027D01*
X132045027Y-177618635D01*
X132217165Y-177503616D01*
X132217167Y-177503615D01*
X132408436Y-177424389D01*
X132611484Y-177384000D01*
X132818516Y-177384000D01*
X133021564Y-177424389D01*
G37*
G36*
X150951564Y-177424389D02*
G01*
X151142833Y-177503615D01*
X151142835Y-177503616D01*
X151314973Y-177618635D01*
X151461365Y-177765027D01*
X151576385Y-177937167D01*
X151655611Y-178128436D01*
X151696000Y-178331484D01*
X151696000Y-178538516D01*
X151655611Y-178741564D01*
X151599166Y-178877835D01*
X151576384Y-178932835D01*
X151461365Y-179104973D01*
X151314973Y-179251365D01*
X151142835Y-179366384D01*
X151142834Y-179366385D01*
X151142833Y-179366385D01*
X150951564Y-179445611D01*
X150748516Y-179486000D01*
X150541484Y-179486000D01*
X150338436Y-179445611D01*
X150147167Y-179366385D01*
X150147166Y-179366385D01*
X150147165Y-179366384D01*
X149975027Y-179251365D01*
X149828635Y-179104973D01*
X149713616Y-178932835D01*
X149690834Y-178877835D01*
X149634389Y-178741564D01*
X149594000Y-178538516D01*
X149594000Y-178331484D01*
X149634389Y-178128436D01*
X149713615Y-177937167D01*
X149828635Y-177765027D01*
X149975027Y-177618635D01*
X150147165Y-177503616D01*
X150147167Y-177503615D01*
X150338436Y-177424389D01*
X150541484Y-177384000D01*
X150748516Y-177384000D01*
X150951564Y-177424389D01*
G37*
G36*
X144451564Y-177424389D02*
G01*
X144642833Y-177503615D01*
X144642835Y-177503616D01*
X144814973Y-177618635D01*
X144961365Y-177765027D01*
X145076385Y-177937167D01*
X145155611Y-178128436D01*
X145196000Y-178331484D01*
X145196000Y-178538516D01*
X145155611Y-178741564D01*
X145099166Y-178877835D01*
X145076384Y-178932835D01*
X144961365Y-179104973D01*
X144814973Y-179251365D01*
X144642835Y-179366384D01*
X144642834Y-179366385D01*
X144642833Y-179366385D01*
X144451564Y-179445611D01*
X144248516Y-179486000D01*
X144041484Y-179486000D01*
X143838436Y-179445611D01*
X143647167Y-179366385D01*
X143647166Y-179366385D01*
X143647165Y-179366384D01*
X143475027Y-179251365D01*
X143328635Y-179104973D01*
X143213616Y-178932835D01*
X143190834Y-178877835D01*
X143134389Y-178741564D01*
X143094000Y-178538516D01*
X143094000Y-178331484D01*
X143134389Y-178128436D01*
X143213615Y-177937167D01*
X143328635Y-177765027D01*
X143475027Y-177618635D01*
X143647165Y-177503616D01*
X143647167Y-177503615D01*
X143838436Y-177424389D01*
X144041484Y-177384000D01*
X144248516Y-177384000D01*
X144451564Y-177424389D01*
G37*
G36*
X115726564Y-177369389D02*
G01*
X115917833Y-177448615D01*
X115917835Y-177448616D01*
X116000147Y-177503615D01*
X116089973Y-177563635D01*
X116236365Y-177710027D01*
X116351385Y-177882167D01*
X116430611Y-178073436D01*
X116471000Y-178276484D01*
X116471000Y-178483516D01*
X116430611Y-178686564D01*
X116351385Y-178877833D01*
X116351384Y-178877835D01*
X116236365Y-179049973D01*
X116089973Y-179196365D01*
X115917835Y-179311384D01*
X115917834Y-179311385D01*
X115917833Y-179311385D01*
X115726564Y-179390611D01*
X115523516Y-179431000D01*
X115316484Y-179431000D01*
X115113436Y-179390611D01*
X114922167Y-179311385D01*
X114922166Y-179311385D01*
X114922165Y-179311384D01*
X114750027Y-179196365D01*
X114603635Y-179049973D01*
X114488616Y-178877835D01*
X114488615Y-178877833D01*
X114409389Y-178686564D01*
X114369000Y-178483516D01*
X114369000Y-178276484D01*
X114409389Y-178073436D01*
X114488615Y-177882167D01*
X114603635Y-177710027D01*
X114750027Y-177563635D01*
X114839853Y-177503615D01*
X114922165Y-177448616D01*
X114922167Y-177448615D01*
X115113436Y-177369389D01*
X115316484Y-177329000D01*
X115523516Y-177329000D01*
X115726564Y-177369389D01*
G37*
G36*
X122226564Y-177369389D02*
G01*
X122417833Y-177448615D01*
X122417835Y-177448616D01*
X122500147Y-177503615D01*
X122589973Y-177563635D01*
X122736365Y-177710027D01*
X122851385Y-177882167D01*
X122930611Y-178073436D01*
X122971000Y-178276484D01*
X122971000Y-178483516D01*
X122930611Y-178686564D01*
X122851385Y-178877833D01*
X122851384Y-178877835D01*
X122736365Y-179049973D01*
X122589973Y-179196365D01*
X122417835Y-179311384D01*
X122417834Y-179311385D01*
X122417833Y-179311385D01*
X122226564Y-179390611D01*
X122023516Y-179431000D01*
X121816484Y-179431000D01*
X121613436Y-179390611D01*
X121422167Y-179311385D01*
X121422166Y-179311385D01*
X121422165Y-179311384D01*
X121250027Y-179196365D01*
X121103635Y-179049973D01*
X120988616Y-178877835D01*
X120988615Y-178877833D01*
X120909389Y-178686564D01*
X120869000Y-178483516D01*
X120869000Y-178276484D01*
X120909389Y-178073436D01*
X120988615Y-177882167D01*
X121103635Y-177710027D01*
X121250027Y-177563635D01*
X121339853Y-177503615D01*
X121422165Y-177448616D01*
X121422167Y-177448615D01*
X121613436Y-177369389D01*
X121816484Y-177329000D01*
X122023516Y-177329000D01*
X122226564Y-177369389D01*
G37*
G36*
X174931564Y-172399389D02*
G01*
X175122833Y-172478615D01*
X175122835Y-172478616D01*
X175294973Y-172593635D01*
X175441365Y-172740027D01*
X175556385Y-172912167D01*
X175635611Y-173103436D01*
X175676000Y-173306484D01*
X175676000Y-173513516D01*
X175635611Y-173716564D01*
X175556385Y-173907833D01*
X175556384Y-173907835D01*
X175441365Y-174079973D01*
X175294973Y-174226365D01*
X175122835Y-174341384D01*
X175122834Y-174341385D01*
X175122833Y-174341385D01*
X174931564Y-174420611D01*
X174728516Y-174461000D01*
X174521484Y-174461000D01*
X174318436Y-174420611D01*
X174127167Y-174341385D01*
X174127166Y-174341385D01*
X174127165Y-174341384D01*
X173955027Y-174226365D01*
X173808635Y-174079973D01*
X173693616Y-173907835D01*
X173693615Y-173907833D01*
X173614389Y-173716564D01*
X173574000Y-173513516D01*
X173574000Y-173306484D01*
X173614389Y-173103436D01*
X173693615Y-172912167D01*
X173808635Y-172740027D01*
X173955027Y-172593635D01*
X174127165Y-172478616D01*
X174127167Y-172478615D01*
X174318436Y-172399389D01*
X174521484Y-172359000D01*
X174728516Y-172359000D01*
X174931564Y-172399389D01*
G37*
G36*
X181431564Y-172399389D02*
G01*
X181622833Y-172478615D01*
X181622835Y-172478616D01*
X181794973Y-172593635D01*
X181941365Y-172740027D01*
X182056385Y-172912167D01*
X182135611Y-173103436D01*
X182176000Y-173306484D01*
X182176000Y-173513516D01*
X182135611Y-173716564D01*
X182056385Y-173907833D01*
X182056384Y-173907835D01*
X181941365Y-174079973D01*
X181794973Y-174226365D01*
X181622835Y-174341384D01*
X181622834Y-174341385D01*
X181622833Y-174341385D01*
X181431564Y-174420611D01*
X181228516Y-174461000D01*
X181021484Y-174461000D01*
X180818436Y-174420611D01*
X180627167Y-174341385D01*
X180627166Y-174341385D01*
X180627165Y-174341384D01*
X180455027Y-174226365D01*
X180308635Y-174079973D01*
X180193616Y-173907835D01*
X180193615Y-173907833D01*
X180114389Y-173716564D01*
X180074000Y-173513516D01*
X180074000Y-173306484D01*
X180114389Y-173103436D01*
X180193615Y-172912167D01*
X180308635Y-172740027D01*
X180455027Y-172593635D01*
X180627165Y-172478616D01*
X180627167Y-172478615D01*
X180818436Y-172399389D01*
X181021484Y-172359000D01*
X181228516Y-172359000D01*
X181431564Y-172399389D01*
G37*
G36*
X192861564Y-172399389D02*
G01*
X193052833Y-172478615D01*
X193052835Y-172478616D01*
X193224973Y-172593635D01*
X193371365Y-172740027D01*
X193486385Y-172912167D01*
X193565611Y-173103436D01*
X193606000Y-173306484D01*
X193606000Y-173513516D01*
X193565611Y-173716564D01*
X193486385Y-173907833D01*
X193486384Y-173907835D01*
X193371365Y-174079973D01*
X193224973Y-174226365D01*
X193052835Y-174341384D01*
X193052834Y-174341385D01*
X193052833Y-174341385D01*
X192861564Y-174420611D01*
X192658516Y-174461000D01*
X192451484Y-174461000D01*
X192248436Y-174420611D01*
X192057167Y-174341385D01*
X192057166Y-174341385D01*
X192057165Y-174341384D01*
X191885027Y-174226365D01*
X191738635Y-174079973D01*
X191623616Y-173907835D01*
X191623615Y-173907833D01*
X191544389Y-173716564D01*
X191504000Y-173513516D01*
X191504000Y-173306484D01*
X191544389Y-173103436D01*
X191623615Y-172912167D01*
X191738635Y-172740027D01*
X191885027Y-172593635D01*
X192057165Y-172478616D01*
X192057167Y-172478615D01*
X192248436Y-172399389D01*
X192451484Y-172359000D01*
X192658516Y-172359000D01*
X192861564Y-172399389D01*
G37*
G36*
X116026564Y-172399389D02*
G01*
X116217833Y-172478615D01*
X116217835Y-172478616D01*
X116389973Y-172593635D01*
X116536365Y-172740027D01*
X116651385Y-172912167D01*
X116730611Y-173103436D01*
X116771000Y-173306484D01*
X116771000Y-173513516D01*
X116730611Y-173716564D01*
X116651385Y-173907833D01*
X116651384Y-173907835D01*
X116536365Y-174079973D01*
X116389973Y-174226365D01*
X116217835Y-174341384D01*
X116217834Y-174341385D01*
X116217833Y-174341385D01*
X116026564Y-174420611D01*
X115823516Y-174461000D01*
X115616484Y-174461000D01*
X115413436Y-174420611D01*
X115222167Y-174341385D01*
X115222166Y-174341385D01*
X115222165Y-174341384D01*
X115050027Y-174226365D01*
X114903635Y-174079973D01*
X114788616Y-173907835D01*
X114788615Y-173907833D01*
X114709389Y-173716564D01*
X114669000Y-173513516D01*
X114669000Y-173306484D01*
X114709389Y-173103436D01*
X114788615Y-172912167D01*
X114903635Y-172740027D01*
X115050027Y-172593635D01*
X115222165Y-172478616D01*
X115222167Y-172478615D01*
X115413436Y-172399389D01*
X115616484Y-172359000D01*
X115823516Y-172359000D01*
X116026564Y-172399389D01*
G37*
G36*
X186361564Y-172399389D02*
G01*
X186552833Y-172478615D01*
X186552835Y-172478616D01*
X186724973Y-172593635D01*
X186871365Y-172740027D01*
X186986385Y-172912167D01*
X187065611Y-173103436D01*
X187106000Y-173306484D01*
X187106000Y-173513516D01*
X187065611Y-173716564D01*
X186986385Y-173907833D01*
X186986384Y-173907835D01*
X186871365Y-174079973D01*
X186724973Y-174226365D01*
X186552835Y-174341384D01*
X186552834Y-174341385D01*
X186552833Y-174341385D01*
X186361564Y-174420611D01*
X186158516Y-174461000D01*
X185951484Y-174461000D01*
X185748436Y-174420611D01*
X185557167Y-174341385D01*
X185557166Y-174341385D01*
X185557165Y-174341384D01*
X185385027Y-174226365D01*
X185238635Y-174079973D01*
X185123616Y-173907835D01*
X185123615Y-173907833D01*
X185044389Y-173716564D01*
X185004000Y-173513516D01*
X185004000Y-173306484D01*
X185044389Y-173103436D01*
X185123615Y-172912167D01*
X185238635Y-172740027D01*
X185385027Y-172593635D01*
X185557165Y-172478616D01*
X185557167Y-172478615D01*
X185748436Y-172399389D01*
X185951484Y-172359000D01*
X186158516Y-172359000D01*
X186361564Y-172399389D01*
G37*
G36*
X127456564Y-172399389D02*
G01*
X127647833Y-172478615D01*
X127647835Y-172478616D01*
X127819973Y-172593635D01*
X127966365Y-172740027D01*
X128081385Y-172912167D01*
X128160611Y-173103436D01*
X128201000Y-173306484D01*
X128201000Y-173513516D01*
X128160611Y-173716564D01*
X128081385Y-173907833D01*
X128081384Y-173907835D01*
X127966365Y-174079973D01*
X127819973Y-174226365D01*
X127647835Y-174341384D01*
X127647834Y-174341385D01*
X127647833Y-174341385D01*
X127456564Y-174420611D01*
X127253516Y-174461000D01*
X127046484Y-174461000D01*
X126843436Y-174420611D01*
X126652167Y-174341385D01*
X126652166Y-174341385D01*
X126652165Y-174341384D01*
X126480027Y-174226365D01*
X126333635Y-174079973D01*
X126218616Y-173907835D01*
X126218615Y-173907833D01*
X126139389Y-173716564D01*
X126099000Y-173513516D01*
X126099000Y-173306484D01*
X126139389Y-173103436D01*
X126218615Y-172912167D01*
X126333635Y-172740027D01*
X126480027Y-172593635D01*
X126652165Y-172478616D01*
X126652167Y-172478615D01*
X126843436Y-172399389D01*
X127046484Y-172359000D01*
X127253516Y-172359000D01*
X127456564Y-172399389D01*
G37*
G36*
X145236564Y-172399389D02*
G01*
X145427833Y-172478615D01*
X145427835Y-172478616D01*
X145599973Y-172593635D01*
X145746365Y-172740027D01*
X145861385Y-172912167D01*
X145940611Y-173103436D01*
X145981000Y-173306484D01*
X145981000Y-173513516D01*
X145940611Y-173716564D01*
X145861385Y-173907833D01*
X145861384Y-173907835D01*
X145746365Y-174079973D01*
X145599973Y-174226365D01*
X145427835Y-174341384D01*
X145427834Y-174341385D01*
X145427833Y-174341385D01*
X145236564Y-174420611D01*
X145033516Y-174461000D01*
X144826484Y-174461000D01*
X144623436Y-174420611D01*
X144432167Y-174341385D01*
X144432166Y-174341385D01*
X144432165Y-174341384D01*
X144260027Y-174226365D01*
X144113635Y-174079973D01*
X143998616Y-173907835D01*
X143998615Y-173907833D01*
X143919389Y-173716564D01*
X143879000Y-173513516D01*
X143879000Y-173306484D01*
X143919389Y-173103436D01*
X143998615Y-172912167D01*
X144113635Y-172740027D01*
X144260027Y-172593635D01*
X144432165Y-172478616D01*
X144432167Y-172478615D01*
X144623436Y-172399389D01*
X144826484Y-172359000D01*
X145033516Y-172359000D01*
X145236564Y-172399389D01*
G37*
G36*
X156666564Y-172399389D02*
G01*
X156857833Y-172478615D01*
X156857835Y-172478616D01*
X157029973Y-172593635D01*
X157176365Y-172740027D01*
X157291385Y-172912167D01*
X157370611Y-173103436D01*
X157411000Y-173306484D01*
X157411000Y-173513516D01*
X157370611Y-173716564D01*
X157291385Y-173907833D01*
X157291384Y-173907835D01*
X157176365Y-174079973D01*
X157029973Y-174226365D01*
X156857835Y-174341384D01*
X156857834Y-174341385D01*
X156857833Y-174341385D01*
X156666564Y-174420611D01*
X156463516Y-174461000D01*
X156256484Y-174461000D01*
X156053436Y-174420611D01*
X155862167Y-174341385D01*
X155862166Y-174341385D01*
X155862165Y-174341384D01*
X155690027Y-174226365D01*
X155543635Y-174079973D01*
X155428616Y-173907835D01*
X155428615Y-173907833D01*
X155349389Y-173716564D01*
X155309000Y-173513516D01*
X155309000Y-173306484D01*
X155349389Y-173103436D01*
X155428615Y-172912167D01*
X155543635Y-172740027D01*
X155690027Y-172593635D01*
X155862165Y-172478616D01*
X155862167Y-172478615D01*
X156053436Y-172399389D01*
X156256484Y-172359000D01*
X156463516Y-172359000D01*
X156666564Y-172399389D01*
G37*
G36*
X109526564Y-172399389D02*
G01*
X109717833Y-172478615D01*
X109717835Y-172478616D01*
X109889973Y-172593635D01*
X110036365Y-172740027D01*
X110151385Y-172912167D01*
X110230611Y-173103436D01*
X110271000Y-173306484D01*
X110271000Y-173513516D01*
X110230611Y-173716564D01*
X110151385Y-173907833D01*
X110151384Y-173907835D01*
X110036365Y-174079973D01*
X109889973Y-174226365D01*
X109717835Y-174341384D01*
X109717834Y-174341385D01*
X109717833Y-174341385D01*
X109526564Y-174420611D01*
X109323516Y-174461000D01*
X109116484Y-174461000D01*
X108913436Y-174420611D01*
X108722167Y-174341385D01*
X108722166Y-174341385D01*
X108722165Y-174341384D01*
X108550027Y-174226365D01*
X108403635Y-174079973D01*
X108288616Y-173907835D01*
X108288615Y-173907833D01*
X108209389Y-173716564D01*
X108169000Y-173513516D01*
X108169000Y-173306484D01*
X108209389Y-173103436D01*
X108288615Y-172912167D01*
X108403635Y-172740027D01*
X108550027Y-172593635D01*
X108722165Y-172478616D01*
X108722167Y-172478615D01*
X108913436Y-172399389D01*
X109116484Y-172359000D01*
X109323516Y-172359000D01*
X109526564Y-172399389D01*
G37*
G36*
X161446564Y-172399389D02*
G01*
X161637833Y-172478615D01*
X161637835Y-172478616D01*
X161809973Y-172593635D01*
X161956365Y-172740027D01*
X162071385Y-172912167D01*
X162150611Y-173103436D01*
X162191000Y-173306484D01*
X162191000Y-173513516D01*
X162150611Y-173716564D01*
X162071385Y-173907833D01*
X162071384Y-173907835D01*
X161956365Y-174079973D01*
X161809973Y-174226365D01*
X161637835Y-174341384D01*
X161637834Y-174341385D01*
X161637833Y-174341385D01*
X161446564Y-174420611D01*
X161243516Y-174461000D01*
X161036484Y-174461000D01*
X160833436Y-174420611D01*
X160642167Y-174341385D01*
X160642166Y-174341385D01*
X160642165Y-174341384D01*
X160470027Y-174226365D01*
X160323635Y-174079973D01*
X160208616Y-173907835D01*
X160208615Y-173907833D01*
X160129389Y-173716564D01*
X160089000Y-173513516D01*
X160089000Y-173306484D01*
X160129389Y-173103436D01*
X160208615Y-172912167D01*
X160323635Y-172740027D01*
X160470027Y-172593635D01*
X160642165Y-172478616D01*
X160642167Y-172478615D01*
X160833436Y-172399389D01*
X161036484Y-172359000D01*
X161243516Y-172359000D01*
X161446564Y-172399389D01*
G37*
G36*
X167946564Y-172399389D02*
G01*
X168137833Y-172478615D01*
X168137835Y-172478616D01*
X168309973Y-172593635D01*
X168456365Y-172740027D01*
X168571385Y-172912167D01*
X168650611Y-173103436D01*
X168691000Y-173306484D01*
X168691000Y-173513516D01*
X168650611Y-173716564D01*
X168571385Y-173907833D01*
X168571384Y-173907835D01*
X168456365Y-174079973D01*
X168309973Y-174226365D01*
X168137835Y-174341384D01*
X168137834Y-174341385D01*
X168137833Y-174341385D01*
X167946564Y-174420611D01*
X167743516Y-174461000D01*
X167536484Y-174461000D01*
X167333436Y-174420611D01*
X167142167Y-174341385D01*
X167142166Y-174341385D01*
X167142165Y-174341384D01*
X166970027Y-174226365D01*
X166823635Y-174079973D01*
X166708616Y-173907835D01*
X166708615Y-173907833D01*
X166629389Y-173716564D01*
X166589000Y-173513516D01*
X166589000Y-173306484D01*
X166629389Y-173103436D01*
X166708615Y-172912167D01*
X166823635Y-172740027D01*
X166970027Y-172593635D01*
X167142165Y-172478616D01*
X167142167Y-172478615D01*
X167333436Y-172399389D01*
X167536484Y-172359000D01*
X167743516Y-172359000D01*
X167946564Y-172399389D01*
G37*
G36*
X120956564Y-172399389D02*
G01*
X121147833Y-172478615D01*
X121147835Y-172478616D01*
X121319973Y-172593635D01*
X121466365Y-172740027D01*
X121581385Y-172912167D01*
X121660611Y-173103436D01*
X121701000Y-173306484D01*
X121701000Y-173513516D01*
X121660611Y-173716564D01*
X121581385Y-173907833D01*
X121581384Y-173907835D01*
X121466365Y-174079973D01*
X121319973Y-174226365D01*
X121147835Y-174341384D01*
X121147834Y-174341385D01*
X121147833Y-174341385D01*
X120956564Y-174420611D01*
X120753516Y-174461000D01*
X120546484Y-174461000D01*
X120343436Y-174420611D01*
X120152167Y-174341385D01*
X120152166Y-174341385D01*
X120152165Y-174341384D01*
X119980027Y-174226365D01*
X119833635Y-174079973D01*
X119718616Y-173907835D01*
X119718615Y-173907833D01*
X119639389Y-173716564D01*
X119599000Y-173513516D01*
X119599000Y-173306484D01*
X119639389Y-173103436D01*
X119718615Y-172912167D01*
X119833635Y-172740027D01*
X119980027Y-172593635D01*
X120152165Y-172478616D01*
X120152167Y-172478615D01*
X120343436Y-172399389D01*
X120546484Y-172359000D01*
X120753516Y-172359000D01*
X120956564Y-172399389D01*
G37*
G36*
X138736564Y-172399389D02*
G01*
X138927833Y-172478615D01*
X138927835Y-172478616D01*
X139099973Y-172593635D01*
X139246365Y-172740027D01*
X139361385Y-172912167D01*
X139440611Y-173103436D01*
X139481000Y-173306484D01*
X139481000Y-173513516D01*
X139440611Y-173716564D01*
X139361385Y-173907833D01*
X139361384Y-173907835D01*
X139246365Y-174079973D01*
X139099973Y-174226365D01*
X138927835Y-174341384D01*
X138927834Y-174341385D01*
X138927833Y-174341385D01*
X138736564Y-174420611D01*
X138533516Y-174461000D01*
X138326484Y-174461000D01*
X138123436Y-174420611D01*
X137932167Y-174341385D01*
X137932166Y-174341385D01*
X137932165Y-174341384D01*
X137760027Y-174226365D01*
X137613635Y-174079973D01*
X137498616Y-173907835D01*
X137498615Y-173907833D01*
X137419389Y-173716564D01*
X137379000Y-173513516D01*
X137379000Y-173306484D01*
X137419389Y-173103436D01*
X137498615Y-172912167D01*
X137613635Y-172740027D01*
X137760027Y-172593635D01*
X137932165Y-172478616D01*
X137932167Y-172478615D01*
X138123436Y-172399389D01*
X138326484Y-172359000D01*
X138533516Y-172359000D01*
X138736564Y-172399389D01*
G37*
G36*
X150166564Y-172399389D02*
G01*
X150357833Y-172478615D01*
X150357835Y-172478616D01*
X150529973Y-172593635D01*
X150676365Y-172740027D01*
X150791385Y-172912167D01*
X150870611Y-173103436D01*
X150911000Y-173306484D01*
X150911000Y-173513516D01*
X150870611Y-173716564D01*
X150791385Y-173907833D01*
X150791384Y-173907835D01*
X150676365Y-174079973D01*
X150529973Y-174226365D01*
X150357835Y-174341384D01*
X150357834Y-174341385D01*
X150357833Y-174341385D01*
X150166564Y-174420611D01*
X149963516Y-174461000D01*
X149756484Y-174461000D01*
X149553436Y-174420611D01*
X149362167Y-174341385D01*
X149362166Y-174341385D01*
X149362165Y-174341384D01*
X149190027Y-174226365D01*
X149043635Y-174079973D01*
X148928616Y-173907835D01*
X148928615Y-173907833D01*
X148849389Y-173716564D01*
X148809000Y-173513516D01*
X148809000Y-173306484D01*
X148849389Y-173103436D01*
X148928615Y-172912167D01*
X149043635Y-172740027D01*
X149190027Y-172593635D01*
X149362165Y-172478616D01*
X149362167Y-172478615D01*
X149553436Y-172399389D01*
X149756484Y-172359000D01*
X149963516Y-172359000D01*
X150166564Y-172399389D01*
G37*
G36*
X127456564Y-167899389D02*
G01*
X127647833Y-167978615D01*
X127647835Y-167978616D01*
X127819973Y-168093635D01*
X127966365Y-168240027D01*
X128081385Y-168412167D01*
X128160611Y-168603436D01*
X128201000Y-168806484D01*
X128201000Y-169013516D01*
X128160611Y-169216564D01*
X128081385Y-169407833D01*
X128081384Y-169407835D01*
X127966365Y-169579973D01*
X127819973Y-169726365D01*
X127647835Y-169841384D01*
X127647834Y-169841385D01*
X127647833Y-169841385D01*
X127456564Y-169920611D01*
X127253516Y-169961000D01*
X127046484Y-169961000D01*
X126843436Y-169920611D01*
X126652167Y-169841385D01*
X126652166Y-169841385D01*
X126652165Y-169841384D01*
X126480027Y-169726365D01*
X126333635Y-169579973D01*
X126218616Y-169407835D01*
X126218615Y-169407833D01*
X126139389Y-169216564D01*
X126099000Y-169013516D01*
X126099000Y-168806484D01*
X126139389Y-168603436D01*
X126218615Y-168412167D01*
X126333635Y-168240027D01*
X126480027Y-168093635D01*
X126652165Y-167978616D01*
X126652167Y-167978615D01*
X126843436Y-167899389D01*
X127046484Y-167859000D01*
X127253516Y-167859000D01*
X127456564Y-167899389D01*
G37*
G36*
X167946564Y-167899389D02*
G01*
X168137833Y-167978615D01*
X168137835Y-167978616D01*
X168309973Y-168093635D01*
X168456365Y-168240027D01*
X168571385Y-168412167D01*
X168650611Y-168603436D01*
X168691000Y-168806484D01*
X168691000Y-169013516D01*
X168650611Y-169216564D01*
X168571385Y-169407833D01*
X168571384Y-169407835D01*
X168456365Y-169579973D01*
X168309973Y-169726365D01*
X168137835Y-169841384D01*
X168137834Y-169841385D01*
X168137833Y-169841385D01*
X167946564Y-169920611D01*
X167743516Y-169961000D01*
X167536484Y-169961000D01*
X167333436Y-169920611D01*
X167142167Y-169841385D01*
X167142166Y-169841385D01*
X167142165Y-169841384D01*
X166970027Y-169726365D01*
X166823635Y-169579973D01*
X166708616Y-169407835D01*
X166708615Y-169407833D01*
X166629389Y-169216564D01*
X166589000Y-169013516D01*
X166589000Y-168806484D01*
X166629389Y-168603436D01*
X166708615Y-168412167D01*
X166823635Y-168240027D01*
X166970027Y-168093635D01*
X167142165Y-167978616D01*
X167142167Y-167978615D01*
X167333436Y-167899389D01*
X167536484Y-167859000D01*
X167743516Y-167859000D01*
X167946564Y-167899389D01*
G37*
G36*
X161446564Y-167899389D02*
G01*
X161637833Y-167978615D01*
X161637835Y-167978616D01*
X161809973Y-168093635D01*
X161956365Y-168240027D01*
X162071385Y-168412167D01*
X162150611Y-168603436D01*
X162191000Y-168806484D01*
X162191000Y-169013516D01*
X162150611Y-169216564D01*
X162071385Y-169407833D01*
X162071384Y-169407835D01*
X161956365Y-169579973D01*
X161809973Y-169726365D01*
X161637835Y-169841384D01*
X161637834Y-169841385D01*
X161637833Y-169841385D01*
X161446564Y-169920611D01*
X161243516Y-169961000D01*
X161036484Y-169961000D01*
X160833436Y-169920611D01*
X160642167Y-169841385D01*
X160642166Y-169841385D01*
X160642165Y-169841384D01*
X160470027Y-169726365D01*
X160323635Y-169579973D01*
X160208616Y-169407835D01*
X160208615Y-169407833D01*
X160129389Y-169216564D01*
X160089000Y-169013516D01*
X160089000Y-168806484D01*
X160129389Y-168603436D01*
X160208615Y-168412167D01*
X160323635Y-168240027D01*
X160470027Y-168093635D01*
X160642165Y-167978616D01*
X160642167Y-167978615D01*
X160833436Y-167899389D01*
X161036484Y-167859000D01*
X161243516Y-167859000D01*
X161446564Y-167899389D01*
G37*
G36*
X116026564Y-167899389D02*
G01*
X116217833Y-167978615D01*
X116217835Y-167978616D01*
X116389973Y-168093635D01*
X116536365Y-168240027D01*
X116651385Y-168412167D01*
X116730611Y-168603436D01*
X116771000Y-168806484D01*
X116771000Y-169013516D01*
X116730611Y-169216564D01*
X116651385Y-169407833D01*
X116651384Y-169407835D01*
X116536365Y-169579973D01*
X116389973Y-169726365D01*
X116217835Y-169841384D01*
X116217834Y-169841385D01*
X116217833Y-169841385D01*
X116026564Y-169920611D01*
X115823516Y-169961000D01*
X115616484Y-169961000D01*
X115413436Y-169920611D01*
X115222167Y-169841385D01*
X115222166Y-169841385D01*
X115222165Y-169841384D01*
X115050027Y-169726365D01*
X114903635Y-169579973D01*
X114788616Y-169407835D01*
X114788615Y-169407833D01*
X114709389Y-169216564D01*
X114669000Y-169013516D01*
X114669000Y-168806484D01*
X114709389Y-168603436D01*
X114788615Y-168412167D01*
X114903635Y-168240027D01*
X115050027Y-168093635D01*
X115222165Y-167978616D01*
X115222167Y-167978615D01*
X115413436Y-167899389D01*
X115616484Y-167859000D01*
X115823516Y-167859000D01*
X116026564Y-167899389D01*
G37*
G36*
X120956564Y-167899389D02*
G01*
X121147833Y-167978615D01*
X121147835Y-167978616D01*
X121319973Y-168093635D01*
X121466365Y-168240027D01*
X121581385Y-168412167D01*
X121660611Y-168603436D01*
X121701000Y-168806484D01*
X121701000Y-169013516D01*
X121660611Y-169216564D01*
X121581385Y-169407833D01*
X121581384Y-169407835D01*
X121466365Y-169579973D01*
X121319973Y-169726365D01*
X121147835Y-169841384D01*
X121147834Y-169841385D01*
X121147833Y-169841385D01*
X120956564Y-169920611D01*
X120753516Y-169961000D01*
X120546484Y-169961000D01*
X120343436Y-169920611D01*
X120152167Y-169841385D01*
X120152166Y-169841385D01*
X120152165Y-169841384D01*
X119980027Y-169726365D01*
X119833635Y-169579973D01*
X119718616Y-169407835D01*
X119718615Y-169407833D01*
X119639389Y-169216564D01*
X119599000Y-169013516D01*
X119599000Y-168806484D01*
X119639389Y-168603436D01*
X119718615Y-168412167D01*
X119833635Y-168240027D01*
X119980027Y-168093635D01*
X120152165Y-167978616D01*
X120152167Y-167978615D01*
X120343436Y-167899389D01*
X120546484Y-167859000D01*
X120753516Y-167859000D01*
X120956564Y-167899389D01*
G37*
G36*
X156666564Y-167899389D02*
G01*
X156857833Y-167978615D01*
X156857835Y-167978616D01*
X157029973Y-168093635D01*
X157176365Y-168240027D01*
X157291385Y-168412167D01*
X157370611Y-168603436D01*
X157411000Y-168806484D01*
X157411000Y-169013516D01*
X157370611Y-169216564D01*
X157291385Y-169407833D01*
X157291384Y-169407835D01*
X157176365Y-169579973D01*
X157029973Y-169726365D01*
X156857835Y-169841384D01*
X156857834Y-169841385D01*
X156857833Y-169841385D01*
X156666564Y-169920611D01*
X156463516Y-169961000D01*
X156256484Y-169961000D01*
X156053436Y-169920611D01*
X155862167Y-169841385D01*
X155862166Y-169841385D01*
X155862165Y-169841384D01*
X155690027Y-169726365D01*
X155543635Y-169579973D01*
X155428616Y-169407835D01*
X155428615Y-169407833D01*
X155349389Y-169216564D01*
X155309000Y-169013516D01*
X155309000Y-168806484D01*
X155349389Y-168603436D01*
X155428615Y-168412167D01*
X155543635Y-168240027D01*
X155690027Y-168093635D01*
X155862165Y-167978616D01*
X155862167Y-167978615D01*
X156053436Y-167899389D01*
X156256484Y-167859000D01*
X156463516Y-167859000D01*
X156666564Y-167899389D01*
G37*
G36*
X145236564Y-167899389D02*
G01*
X145427833Y-167978615D01*
X145427835Y-167978616D01*
X145599973Y-168093635D01*
X145746365Y-168240027D01*
X145861385Y-168412167D01*
X145940611Y-168603436D01*
X145981000Y-168806484D01*
X145981000Y-169013516D01*
X145940611Y-169216564D01*
X145861385Y-169407833D01*
X145861384Y-169407835D01*
X145746365Y-169579973D01*
X145599973Y-169726365D01*
X145427835Y-169841384D01*
X145427834Y-169841385D01*
X145427833Y-169841385D01*
X145236564Y-169920611D01*
X145033516Y-169961000D01*
X144826484Y-169961000D01*
X144623436Y-169920611D01*
X144432167Y-169841385D01*
X144432166Y-169841385D01*
X144432165Y-169841384D01*
X144260027Y-169726365D01*
X144113635Y-169579973D01*
X143998616Y-169407835D01*
X143998615Y-169407833D01*
X143919389Y-169216564D01*
X143879000Y-169013516D01*
X143879000Y-168806484D01*
X143919389Y-168603436D01*
X143998615Y-168412167D01*
X144113635Y-168240027D01*
X144260027Y-168093635D01*
X144432165Y-167978616D01*
X144432167Y-167978615D01*
X144623436Y-167899389D01*
X144826484Y-167859000D01*
X145033516Y-167859000D01*
X145236564Y-167899389D01*
G37*
G36*
X109526564Y-167899389D02*
G01*
X109717833Y-167978615D01*
X109717835Y-167978616D01*
X109889973Y-168093635D01*
X110036365Y-168240027D01*
X110151385Y-168412167D01*
X110230611Y-168603436D01*
X110271000Y-168806484D01*
X110271000Y-169013516D01*
X110230611Y-169216564D01*
X110151385Y-169407833D01*
X110151384Y-169407835D01*
X110036365Y-169579973D01*
X109889973Y-169726365D01*
X109717835Y-169841384D01*
X109717834Y-169841385D01*
X109717833Y-169841385D01*
X109526564Y-169920611D01*
X109323516Y-169961000D01*
X109116484Y-169961000D01*
X108913436Y-169920611D01*
X108722167Y-169841385D01*
X108722166Y-169841385D01*
X108722165Y-169841384D01*
X108550027Y-169726365D01*
X108403635Y-169579973D01*
X108288616Y-169407835D01*
X108288615Y-169407833D01*
X108209389Y-169216564D01*
X108169000Y-169013516D01*
X108169000Y-168806484D01*
X108209389Y-168603436D01*
X108288615Y-168412167D01*
X108403635Y-168240027D01*
X108550027Y-168093635D01*
X108722165Y-167978616D01*
X108722167Y-167978615D01*
X108913436Y-167899389D01*
X109116484Y-167859000D01*
X109323516Y-167859000D01*
X109526564Y-167899389D01*
G37*
G36*
X174931564Y-167899389D02*
G01*
X175122833Y-167978615D01*
X175122835Y-167978616D01*
X175294973Y-168093635D01*
X175441365Y-168240027D01*
X175556385Y-168412167D01*
X175635611Y-168603436D01*
X175676000Y-168806484D01*
X175676000Y-169013516D01*
X175635611Y-169216564D01*
X175556385Y-169407833D01*
X175556384Y-169407835D01*
X175441365Y-169579973D01*
X175294973Y-169726365D01*
X175122835Y-169841384D01*
X175122834Y-169841385D01*
X175122833Y-169841385D01*
X174931564Y-169920611D01*
X174728516Y-169961000D01*
X174521484Y-169961000D01*
X174318436Y-169920611D01*
X174127167Y-169841385D01*
X174127166Y-169841385D01*
X174127165Y-169841384D01*
X173955027Y-169726365D01*
X173808635Y-169579973D01*
X173693616Y-169407835D01*
X173693615Y-169407833D01*
X173614389Y-169216564D01*
X173574000Y-169013516D01*
X173574000Y-168806484D01*
X173614389Y-168603436D01*
X173693615Y-168412167D01*
X173808635Y-168240027D01*
X173955027Y-168093635D01*
X174127165Y-167978616D01*
X174127167Y-167978615D01*
X174318436Y-167899389D01*
X174521484Y-167859000D01*
X174728516Y-167859000D01*
X174931564Y-167899389D01*
G37*
G36*
X181431564Y-167899389D02*
G01*
X181622833Y-167978615D01*
X181622835Y-167978616D01*
X181794973Y-168093635D01*
X181941365Y-168240027D01*
X182056385Y-168412167D01*
X182135611Y-168603436D01*
X182176000Y-168806484D01*
X182176000Y-169013516D01*
X182135611Y-169216564D01*
X182056385Y-169407833D01*
X182056384Y-169407835D01*
X181941365Y-169579973D01*
X181794973Y-169726365D01*
X181622835Y-169841384D01*
X181622834Y-169841385D01*
X181622833Y-169841385D01*
X181431564Y-169920611D01*
X181228516Y-169961000D01*
X181021484Y-169961000D01*
X180818436Y-169920611D01*
X180627167Y-169841385D01*
X180627166Y-169841385D01*
X180627165Y-169841384D01*
X180455027Y-169726365D01*
X180308635Y-169579973D01*
X180193616Y-169407835D01*
X180193615Y-169407833D01*
X180114389Y-169216564D01*
X180074000Y-169013516D01*
X180074000Y-168806484D01*
X180114389Y-168603436D01*
X180193615Y-168412167D01*
X180308635Y-168240027D01*
X180455027Y-168093635D01*
X180627165Y-167978616D01*
X180627167Y-167978615D01*
X180818436Y-167899389D01*
X181021484Y-167859000D01*
X181228516Y-167859000D01*
X181431564Y-167899389D01*
G37*
G36*
X192861564Y-167899389D02*
G01*
X193052833Y-167978615D01*
X193052835Y-167978616D01*
X193224973Y-168093635D01*
X193371365Y-168240027D01*
X193486385Y-168412167D01*
X193565611Y-168603436D01*
X193606000Y-168806484D01*
X193606000Y-169013516D01*
X193565611Y-169216564D01*
X193486385Y-169407833D01*
X193486384Y-169407835D01*
X193371365Y-169579973D01*
X193224973Y-169726365D01*
X193052835Y-169841384D01*
X193052834Y-169841385D01*
X193052833Y-169841385D01*
X192861564Y-169920611D01*
X192658516Y-169961000D01*
X192451484Y-169961000D01*
X192248436Y-169920611D01*
X192057167Y-169841385D01*
X192057166Y-169841385D01*
X192057165Y-169841384D01*
X191885027Y-169726365D01*
X191738635Y-169579973D01*
X191623616Y-169407835D01*
X191623615Y-169407833D01*
X191544389Y-169216564D01*
X191504000Y-169013516D01*
X191504000Y-168806484D01*
X191544389Y-168603436D01*
X191623615Y-168412167D01*
X191738635Y-168240027D01*
X191885027Y-168093635D01*
X192057165Y-167978616D01*
X192057167Y-167978615D01*
X192248436Y-167899389D01*
X192451484Y-167859000D01*
X192658516Y-167859000D01*
X192861564Y-167899389D01*
G37*
G36*
X186361564Y-167899389D02*
G01*
X186552833Y-167978615D01*
X186552835Y-167978616D01*
X186724973Y-168093635D01*
X186871365Y-168240027D01*
X186986385Y-168412167D01*
X187065611Y-168603436D01*
X187106000Y-168806484D01*
X187106000Y-169013516D01*
X187065611Y-169216564D01*
X186986385Y-169407833D01*
X186986384Y-169407835D01*
X186871365Y-169579973D01*
X186724973Y-169726365D01*
X186552835Y-169841384D01*
X186552834Y-169841385D01*
X186552833Y-169841385D01*
X186361564Y-169920611D01*
X186158516Y-169961000D01*
X185951484Y-169961000D01*
X185748436Y-169920611D01*
X185557167Y-169841385D01*
X185557166Y-169841385D01*
X185557165Y-169841384D01*
X185385027Y-169726365D01*
X185238635Y-169579973D01*
X185123616Y-169407835D01*
X185123615Y-169407833D01*
X185044389Y-169216564D01*
X185004000Y-169013516D01*
X185004000Y-168806484D01*
X185044389Y-168603436D01*
X185123615Y-168412167D01*
X185238635Y-168240027D01*
X185385027Y-168093635D01*
X185557165Y-167978616D01*
X185557167Y-167978615D01*
X185748436Y-167899389D01*
X185951484Y-167859000D01*
X186158516Y-167859000D01*
X186361564Y-167899389D01*
G37*
G36*
X150166564Y-167899389D02*
G01*
X150357833Y-167978615D01*
X150357835Y-167978616D01*
X150529973Y-168093635D01*
X150676365Y-168240027D01*
X150791385Y-168412167D01*
X150870611Y-168603436D01*
X150911000Y-168806484D01*
X150911000Y-169013516D01*
X150870611Y-169216564D01*
X150791385Y-169407833D01*
X150791384Y-169407835D01*
X150676365Y-169579973D01*
X150529973Y-169726365D01*
X150357835Y-169841384D01*
X150357834Y-169841385D01*
X150357833Y-169841385D01*
X150166564Y-169920611D01*
X149963516Y-169961000D01*
X149756484Y-169961000D01*
X149553436Y-169920611D01*
X149362167Y-169841385D01*
X149362166Y-169841385D01*
X149362165Y-169841384D01*
X149190027Y-169726365D01*
X149043635Y-169579973D01*
X148928616Y-169407835D01*
X148928615Y-169407833D01*
X148849389Y-169216564D01*
X148809000Y-169013516D01*
X148809000Y-168806484D01*
X148849389Y-168603436D01*
X148928615Y-168412167D01*
X149043635Y-168240027D01*
X149190027Y-168093635D01*
X149362165Y-167978616D01*
X149362167Y-167978615D01*
X149553436Y-167899389D01*
X149756484Y-167859000D01*
X149963516Y-167859000D01*
X150166564Y-167899389D01*
G37*
G36*
X138736564Y-167899389D02*
G01*
X138927833Y-167978615D01*
X138927835Y-167978616D01*
X139099973Y-168093635D01*
X139246365Y-168240027D01*
X139361385Y-168412167D01*
X139440611Y-168603436D01*
X139481000Y-168806484D01*
X139481000Y-169013516D01*
X139440611Y-169216564D01*
X139361385Y-169407833D01*
X139361384Y-169407835D01*
X139246365Y-169579973D01*
X139099973Y-169726365D01*
X138927835Y-169841384D01*
X138927834Y-169841385D01*
X138927833Y-169841385D01*
X138736564Y-169920611D01*
X138533516Y-169961000D01*
X138326484Y-169961000D01*
X138123436Y-169920611D01*
X137932167Y-169841385D01*
X137932166Y-169841385D01*
X137932165Y-169841384D01*
X137760027Y-169726365D01*
X137613635Y-169579973D01*
X137498616Y-169407835D01*
X137498615Y-169407833D01*
X137419389Y-169216564D01*
X137379000Y-169013516D01*
X137379000Y-168806484D01*
X137419389Y-168603436D01*
X137498615Y-168412167D01*
X137613635Y-168240027D01*
X137760027Y-168093635D01*
X137932165Y-167978616D01*
X137932167Y-167978615D01*
X138123436Y-167899389D01*
X138326484Y-167859000D01*
X138533516Y-167859000D01*
X138736564Y-167899389D01*
G37*
G36*
X113311000Y-162706000D02*
G01*
X111009000Y-162706000D01*
X111009000Y-161404000D01*
X113311000Y-161404000D01*
X113311000Y-162706000D01*
G37*
G36*
X123111000Y-161306000D02*
G01*
X122635999Y-161306000D01*
X122611613Y-161308402D01*
X122588164Y-161315515D01*
X122566553Y-161327066D01*
X122547611Y-161342611D01*
X122532066Y-161361553D01*
X122520515Y-161383164D01*
X122513402Y-161406613D01*
X122511000Y-161430999D01*
X122511000Y-162706000D01*
X121009000Y-162706000D01*
X121009000Y-161404000D01*
X121284001Y-161404000D01*
X121308387Y-161401598D01*
X121331836Y-161394485D01*
X121353447Y-161382934D01*
X121372389Y-161367389D01*
X121387934Y-161348447D01*
X121399485Y-161326836D01*
X121406598Y-161303387D01*
X121409000Y-161279001D01*
X121409000Y-160504000D01*
X123111000Y-160504000D01*
X123111000Y-161306000D01*
G37*
G36*
X196328512Y-158488927D02*
G01*
X196477812Y-158518624D01*
X196641784Y-158586544D01*
X196789354Y-158685147D01*
X196914853Y-158810646D01*
X197013456Y-158958216D01*
X197081376Y-159122188D01*
X197116000Y-159296259D01*
X197116000Y-159473741D01*
X197081376Y-159647812D01*
X197013456Y-159811784D01*
X196914853Y-159959354D01*
X196789354Y-160084853D01*
X196641784Y-160183456D01*
X196477812Y-160251376D01*
X196328512Y-160281073D01*
X196303742Y-160286000D01*
X196126258Y-160286000D01*
X196101488Y-160281073D01*
X195952188Y-160251376D01*
X195788216Y-160183456D01*
X195640646Y-160084853D01*
X195515147Y-159959354D01*
X195416544Y-159811784D01*
X195348624Y-159647812D01*
X195314000Y-159473741D01*
X195314000Y-159296259D01*
X195348624Y-159122188D01*
X195416544Y-158958216D01*
X195515147Y-158810646D01*
X195640646Y-158685147D01*
X195788216Y-158586544D01*
X195952188Y-158518624D01*
X196101488Y-158488927D01*
X196126258Y-158484000D01*
X196303742Y-158484000D01*
X196328512Y-158488927D01*
G37*
G36*
X193788512Y-158488927D02*
G01*
X193937812Y-158518624D01*
X194101784Y-158586544D01*
X194249354Y-158685147D01*
X194374853Y-158810646D01*
X194473456Y-158958216D01*
X194541376Y-159122188D01*
X194576000Y-159296259D01*
X194576000Y-159473741D01*
X194541376Y-159647812D01*
X194473456Y-159811784D01*
X194374853Y-159959354D01*
X194249354Y-160084853D01*
X194101784Y-160183456D01*
X193937812Y-160251376D01*
X193788512Y-160281073D01*
X193763742Y-160286000D01*
X193586258Y-160286000D01*
X193561488Y-160281073D01*
X193412188Y-160251376D01*
X193248216Y-160183456D01*
X193100646Y-160084853D01*
X192975147Y-159959354D01*
X192876544Y-159811784D01*
X192808624Y-159647812D01*
X192774000Y-159473741D01*
X192774000Y-159296259D01*
X192808624Y-159122188D01*
X192876544Y-158958216D01*
X192975147Y-158810646D01*
X193100646Y-158685147D01*
X193248216Y-158586544D01*
X193412188Y-158518624D01*
X193561488Y-158488927D01*
X193586258Y-158484000D01*
X193763742Y-158484000D01*
X193788512Y-158488927D01*
G37*
G36*
X176008512Y-158488927D02*
G01*
X176157812Y-158518624D01*
X176321784Y-158586544D01*
X176469354Y-158685147D01*
X176594853Y-158810646D01*
X176693456Y-158958216D01*
X176761376Y-159122188D01*
X176796000Y-159296259D01*
X176796000Y-159473741D01*
X176761376Y-159647812D01*
X176693456Y-159811784D01*
X176594853Y-159959354D01*
X176469354Y-160084853D01*
X176321784Y-160183456D01*
X176157812Y-160251376D01*
X176008512Y-160281073D01*
X175983742Y-160286000D01*
X175806258Y-160286000D01*
X175781488Y-160281073D01*
X175632188Y-160251376D01*
X175468216Y-160183456D01*
X175320646Y-160084853D01*
X175195147Y-159959354D01*
X175096544Y-159811784D01*
X175028624Y-159647812D01*
X174994000Y-159473741D01*
X174994000Y-159296259D01*
X175028624Y-159122188D01*
X175096544Y-158958216D01*
X175195147Y-158810646D01*
X175320646Y-158685147D01*
X175468216Y-158586544D01*
X175632188Y-158518624D01*
X175781488Y-158488927D01*
X175806258Y-158484000D01*
X175983742Y-158484000D01*
X176008512Y-158488927D01*
G37*
G36*
X173468512Y-158488927D02*
G01*
X173617812Y-158518624D01*
X173781784Y-158586544D01*
X173929354Y-158685147D01*
X174054853Y-158810646D01*
X174153456Y-158958216D01*
X174221376Y-159122188D01*
X174256000Y-159296259D01*
X174256000Y-159473741D01*
X174221376Y-159647812D01*
X174153456Y-159811784D01*
X174054853Y-159959354D01*
X173929354Y-160084853D01*
X173781784Y-160183456D01*
X173617812Y-160251376D01*
X173468512Y-160281073D01*
X173443742Y-160286000D01*
X173266258Y-160286000D01*
X173241488Y-160281073D01*
X173092188Y-160251376D01*
X172928216Y-160183456D01*
X172780646Y-160084853D01*
X172655147Y-159959354D01*
X172556544Y-159811784D01*
X172488624Y-159647812D01*
X172454000Y-159473741D01*
X172454000Y-159296259D01*
X172488624Y-159122188D01*
X172556544Y-158958216D01*
X172655147Y-158810646D01*
X172780646Y-158685147D01*
X172928216Y-158586544D01*
X173092188Y-158518624D01*
X173241488Y-158488927D01*
X173266258Y-158484000D01*
X173443742Y-158484000D01*
X173468512Y-158488927D01*
G37*
G36*
X170928512Y-158488927D02*
G01*
X171077812Y-158518624D01*
X171241784Y-158586544D01*
X171389354Y-158685147D01*
X171514853Y-158810646D01*
X171613456Y-158958216D01*
X171681376Y-159122188D01*
X171716000Y-159296259D01*
X171716000Y-159473741D01*
X171681376Y-159647812D01*
X171613456Y-159811784D01*
X171514853Y-159959354D01*
X171389354Y-160084853D01*
X171241784Y-160183456D01*
X171077812Y-160251376D01*
X170928512Y-160281073D01*
X170903742Y-160286000D01*
X170726258Y-160286000D01*
X170701488Y-160281073D01*
X170552188Y-160251376D01*
X170388216Y-160183456D01*
X170240646Y-160084853D01*
X170115147Y-159959354D01*
X170016544Y-159811784D01*
X169948624Y-159647812D01*
X169914000Y-159473741D01*
X169914000Y-159296259D01*
X169948624Y-159122188D01*
X170016544Y-158958216D01*
X170115147Y-158810646D01*
X170240646Y-158685147D01*
X170388216Y-158586544D01*
X170552188Y-158518624D01*
X170701488Y-158488927D01*
X170726258Y-158484000D01*
X170903742Y-158484000D01*
X170928512Y-158488927D01*
G37*
G36*
X168388512Y-158488927D02*
G01*
X168537812Y-158518624D01*
X168701784Y-158586544D01*
X168849354Y-158685147D01*
X168974853Y-158810646D01*
X169073456Y-158958216D01*
X169141376Y-159122188D01*
X169176000Y-159296259D01*
X169176000Y-159473741D01*
X169141376Y-159647812D01*
X169073456Y-159811784D01*
X168974853Y-159959354D01*
X168849354Y-160084853D01*
X168701784Y-160183456D01*
X168537812Y-160251376D01*
X168388512Y-160281073D01*
X168363742Y-160286000D01*
X168186258Y-160286000D01*
X168161488Y-160281073D01*
X168012188Y-160251376D01*
X167848216Y-160183456D01*
X167700646Y-160084853D01*
X167575147Y-159959354D01*
X167476544Y-159811784D01*
X167408624Y-159647812D01*
X167374000Y-159473741D01*
X167374000Y-159296259D01*
X167408624Y-159122188D01*
X167476544Y-158958216D01*
X167575147Y-158810646D01*
X167700646Y-158685147D01*
X167848216Y-158586544D01*
X168012188Y-158518624D01*
X168161488Y-158488927D01*
X168186258Y-158484000D01*
X168363742Y-158484000D01*
X168388512Y-158488927D01*
G37*
G36*
X153936000Y-160286000D02*
G01*
X152134000Y-160286000D01*
X152134000Y-158484000D01*
X153936000Y-158484000D01*
X153936000Y-160286000D01*
G37*
G36*
X179336000Y-160286000D02*
G01*
X177534000Y-160286000D01*
X177534000Y-158484000D01*
X179336000Y-158484000D01*
X179336000Y-160286000D01*
G37*
G36*
X181088512Y-158488927D02*
G01*
X181237812Y-158518624D01*
X181401784Y-158586544D01*
X181549354Y-158685147D01*
X181674853Y-158810646D01*
X181773456Y-158958216D01*
X181841376Y-159122188D01*
X181876000Y-159296259D01*
X181876000Y-159473741D01*
X181841376Y-159647812D01*
X181773456Y-159811784D01*
X181674853Y-159959354D01*
X181549354Y-160084853D01*
X181401784Y-160183456D01*
X181237812Y-160251376D01*
X181088512Y-160281073D01*
X181063742Y-160286000D01*
X180886258Y-160286000D01*
X180861488Y-160281073D01*
X180712188Y-160251376D01*
X180548216Y-160183456D01*
X180400646Y-160084853D01*
X180275147Y-159959354D01*
X180176544Y-159811784D01*
X180108624Y-159647812D01*
X180074000Y-159473741D01*
X180074000Y-159296259D01*
X180108624Y-159122188D01*
X180176544Y-158958216D01*
X180275147Y-158810646D01*
X180400646Y-158685147D01*
X180548216Y-158586544D01*
X180712188Y-158518624D01*
X180861488Y-158488927D01*
X180886258Y-158484000D01*
X181063742Y-158484000D01*
X181088512Y-158488927D01*
G37*
G36*
X183628512Y-158488927D02*
G01*
X183777812Y-158518624D01*
X183941784Y-158586544D01*
X184089354Y-158685147D01*
X184214853Y-158810646D01*
X184313456Y-158958216D01*
X184381376Y-159122188D01*
X184416000Y-159296259D01*
X184416000Y-159473741D01*
X184381376Y-159647812D01*
X184313456Y-159811784D01*
X184214853Y-159959354D01*
X184089354Y-160084853D01*
X183941784Y-160183456D01*
X183777812Y-160251376D01*
X183628512Y-160281073D01*
X183603742Y-160286000D01*
X183426258Y-160286000D01*
X183401488Y-160281073D01*
X183252188Y-160251376D01*
X183088216Y-160183456D01*
X182940646Y-160084853D01*
X182815147Y-159959354D01*
X182716544Y-159811784D01*
X182648624Y-159647812D01*
X182614000Y-159473741D01*
X182614000Y-159296259D01*
X182648624Y-159122188D01*
X182716544Y-158958216D01*
X182815147Y-158810646D01*
X182940646Y-158685147D01*
X183088216Y-158586544D01*
X183252188Y-158518624D01*
X183401488Y-158488927D01*
X183426258Y-158484000D01*
X183603742Y-158484000D01*
X183628512Y-158488927D01*
G37*
G36*
X188708512Y-158488927D02*
G01*
X188857812Y-158518624D01*
X189021784Y-158586544D01*
X189169354Y-158685147D01*
X189294853Y-158810646D01*
X189393456Y-158958216D01*
X189461376Y-159122188D01*
X189496000Y-159296259D01*
X189496000Y-159473741D01*
X189461376Y-159647812D01*
X189393456Y-159811784D01*
X189294853Y-159959354D01*
X189169354Y-160084853D01*
X189021784Y-160183456D01*
X188857812Y-160251376D01*
X188708512Y-160281073D01*
X188683742Y-160286000D01*
X188506258Y-160286000D01*
X188481488Y-160281073D01*
X188332188Y-160251376D01*
X188168216Y-160183456D01*
X188020646Y-160084853D01*
X187895147Y-159959354D01*
X187796544Y-159811784D01*
X187728624Y-159647812D01*
X187694000Y-159473741D01*
X187694000Y-159296259D01*
X187728624Y-159122188D01*
X187796544Y-158958216D01*
X187895147Y-158810646D01*
X188020646Y-158685147D01*
X188168216Y-158586544D01*
X188332188Y-158518624D01*
X188481488Y-158488927D01*
X188506258Y-158484000D01*
X188683742Y-158484000D01*
X188708512Y-158488927D01*
G37*
G36*
X186168512Y-158488927D02*
G01*
X186317812Y-158518624D01*
X186481784Y-158586544D01*
X186629354Y-158685147D01*
X186754853Y-158810646D01*
X186853456Y-158958216D01*
X186921376Y-159122188D01*
X186956000Y-159296259D01*
X186956000Y-159473741D01*
X186921376Y-159647812D01*
X186853456Y-159811784D01*
X186754853Y-159959354D01*
X186629354Y-160084853D01*
X186481784Y-160183456D01*
X186317812Y-160251376D01*
X186168512Y-160281073D01*
X186143742Y-160286000D01*
X185966258Y-160286000D01*
X185941488Y-160281073D01*
X185792188Y-160251376D01*
X185628216Y-160183456D01*
X185480646Y-160084853D01*
X185355147Y-159959354D01*
X185256544Y-159811784D01*
X185188624Y-159647812D01*
X185154000Y-159473741D01*
X185154000Y-159296259D01*
X185188624Y-159122188D01*
X185256544Y-158958216D01*
X185355147Y-158810646D01*
X185480646Y-158685147D01*
X185628216Y-158586544D01*
X185792188Y-158518624D01*
X185941488Y-158488927D01*
X185966258Y-158484000D01*
X186143742Y-158484000D01*
X186168512Y-158488927D01*
G37*
G36*
X150608512Y-158488927D02*
G01*
X150757812Y-158518624D01*
X150921784Y-158586544D01*
X151069354Y-158685147D01*
X151194853Y-158810646D01*
X151293456Y-158958216D01*
X151361376Y-159122188D01*
X151396000Y-159296259D01*
X151396000Y-159473741D01*
X151361376Y-159647812D01*
X151293456Y-159811784D01*
X151194853Y-159959354D01*
X151069354Y-160084853D01*
X150921784Y-160183456D01*
X150757812Y-160251376D01*
X150608512Y-160281073D01*
X150583742Y-160286000D01*
X150406258Y-160286000D01*
X150381488Y-160281073D01*
X150232188Y-160251376D01*
X150068216Y-160183456D01*
X149920646Y-160084853D01*
X149795147Y-159959354D01*
X149696544Y-159811784D01*
X149628624Y-159647812D01*
X149594000Y-159473741D01*
X149594000Y-159296259D01*
X149628624Y-159122188D01*
X149696544Y-158958216D01*
X149795147Y-158810646D01*
X149920646Y-158685147D01*
X150068216Y-158586544D01*
X150232188Y-158518624D01*
X150381488Y-158488927D01*
X150406258Y-158484000D01*
X150583742Y-158484000D01*
X150608512Y-158488927D01*
G37*
G36*
X148068512Y-158488927D02*
G01*
X148217812Y-158518624D01*
X148381784Y-158586544D01*
X148529354Y-158685147D01*
X148654853Y-158810646D01*
X148753456Y-158958216D01*
X148821376Y-159122188D01*
X148856000Y-159296259D01*
X148856000Y-159473741D01*
X148821376Y-159647812D01*
X148753456Y-159811784D01*
X148654853Y-159959354D01*
X148529354Y-160084853D01*
X148381784Y-160183456D01*
X148217812Y-160251376D01*
X148068512Y-160281073D01*
X148043742Y-160286000D01*
X147866258Y-160286000D01*
X147841488Y-160281073D01*
X147692188Y-160251376D01*
X147528216Y-160183456D01*
X147380646Y-160084853D01*
X147255147Y-159959354D01*
X147156544Y-159811784D01*
X147088624Y-159647812D01*
X147054000Y-159473741D01*
X147054000Y-159296259D01*
X147088624Y-159122188D01*
X147156544Y-158958216D01*
X147255147Y-158810646D01*
X147380646Y-158685147D01*
X147528216Y-158586544D01*
X147692188Y-158518624D01*
X147841488Y-158488927D01*
X147866258Y-158484000D01*
X148043742Y-158484000D01*
X148068512Y-158488927D01*
G37*
G36*
X166636000Y-160286000D02*
G01*
X164834000Y-160286000D01*
X164834000Y-158484000D01*
X166636000Y-158484000D01*
X166636000Y-160286000D01*
G37*
G36*
X163308512Y-158488927D02*
G01*
X163457812Y-158518624D01*
X163621784Y-158586544D01*
X163769354Y-158685147D01*
X163894853Y-158810646D01*
X163993456Y-158958216D01*
X164061376Y-159122188D01*
X164096000Y-159296259D01*
X164096000Y-159473741D01*
X164061376Y-159647812D01*
X163993456Y-159811784D01*
X163894853Y-159959354D01*
X163769354Y-160084853D01*
X163621784Y-160183456D01*
X163457812Y-160251376D01*
X163308512Y-160281073D01*
X163283742Y-160286000D01*
X163106258Y-160286000D01*
X163081488Y-160281073D01*
X162932188Y-160251376D01*
X162768216Y-160183456D01*
X162620646Y-160084853D01*
X162495147Y-159959354D01*
X162396544Y-159811784D01*
X162328624Y-159647812D01*
X162294000Y-159473741D01*
X162294000Y-159296259D01*
X162328624Y-159122188D01*
X162396544Y-158958216D01*
X162495147Y-158810646D01*
X162620646Y-158685147D01*
X162768216Y-158586544D01*
X162932188Y-158518624D01*
X163081488Y-158488927D01*
X163106258Y-158484000D01*
X163283742Y-158484000D01*
X163308512Y-158488927D01*
G37*
G36*
X158228512Y-158488927D02*
G01*
X158377812Y-158518624D01*
X158541784Y-158586544D01*
X158689354Y-158685147D01*
X158814853Y-158810646D01*
X158913456Y-158958216D01*
X158981376Y-159122188D01*
X159016000Y-159296259D01*
X159016000Y-159473741D01*
X158981376Y-159647812D01*
X158913456Y-159811784D01*
X158814853Y-159959354D01*
X158689354Y-160084853D01*
X158541784Y-160183456D01*
X158377812Y-160251376D01*
X158228512Y-160281073D01*
X158203742Y-160286000D01*
X158026258Y-160286000D01*
X158001488Y-160281073D01*
X157852188Y-160251376D01*
X157688216Y-160183456D01*
X157540646Y-160084853D01*
X157415147Y-159959354D01*
X157316544Y-159811784D01*
X157248624Y-159647812D01*
X157214000Y-159473741D01*
X157214000Y-159296259D01*
X157248624Y-159122188D01*
X157316544Y-158958216D01*
X157415147Y-158810646D01*
X157540646Y-158685147D01*
X157688216Y-158586544D01*
X157852188Y-158518624D01*
X158001488Y-158488927D01*
X158026258Y-158484000D01*
X158203742Y-158484000D01*
X158228512Y-158488927D01*
G37*
G36*
X155688512Y-158488927D02*
G01*
X155837812Y-158518624D01*
X156001784Y-158586544D01*
X156149354Y-158685147D01*
X156274853Y-158810646D01*
X156373456Y-158958216D01*
X156441376Y-159122188D01*
X156476000Y-159296259D01*
X156476000Y-159473741D01*
X156441376Y-159647812D01*
X156373456Y-159811784D01*
X156274853Y-159959354D01*
X156149354Y-160084853D01*
X156001784Y-160183456D01*
X155837812Y-160251376D01*
X155688512Y-160281073D01*
X155663742Y-160286000D01*
X155486258Y-160286000D01*
X155461488Y-160281073D01*
X155312188Y-160251376D01*
X155148216Y-160183456D01*
X155000646Y-160084853D01*
X154875147Y-159959354D01*
X154776544Y-159811784D01*
X154708624Y-159647812D01*
X154674000Y-159473741D01*
X154674000Y-159296259D01*
X154708624Y-159122188D01*
X154776544Y-158958216D01*
X154875147Y-158810646D01*
X155000646Y-158685147D01*
X155148216Y-158586544D01*
X155312188Y-158518624D01*
X155461488Y-158488927D01*
X155486258Y-158484000D01*
X155663742Y-158484000D01*
X155688512Y-158488927D01*
G37*
G36*
X192036000Y-160286000D02*
G01*
X190234000Y-160286000D01*
X190234000Y-158484000D01*
X192036000Y-158484000D01*
X192036000Y-160286000D01*
G37*
G36*
X160768512Y-158488927D02*
G01*
X160917812Y-158518624D01*
X161081784Y-158586544D01*
X161229354Y-158685147D01*
X161354853Y-158810646D01*
X161453456Y-158958216D01*
X161521376Y-159122188D01*
X161556000Y-159296259D01*
X161556000Y-159473741D01*
X161521376Y-159647812D01*
X161453456Y-159811784D01*
X161354853Y-159959354D01*
X161229354Y-160084853D01*
X161081784Y-160183456D01*
X160917812Y-160251376D01*
X160768512Y-160281073D01*
X160743742Y-160286000D01*
X160566258Y-160286000D01*
X160541488Y-160281073D01*
X160392188Y-160251376D01*
X160228216Y-160183456D01*
X160080646Y-160084853D01*
X159955147Y-159959354D01*
X159856544Y-159811784D01*
X159788624Y-159647812D01*
X159754000Y-159473741D01*
X159754000Y-159296259D01*
X159788624Y-159122188D01*
X159856544Y-158958216D01*
X159955147Y-158810646D01*
X160080646Y-158685147D01*
X160228216Y-158586544D01*
X160392188Y-158518624D01*
X160541488Y-158488927D01*
X160566258Y-158484000D01*
X160743742Y-158484000D01*
X160768512Y-158488927D01*
G37*
G36*
X123111000Y-160206000D02*
G01*
X121409000Y-160206000D01*
X121409000Y-159404000D01*
X123111000Y-159404000D01*
X123111000Y-160206000D01*
G37*
G36*
X123111000Y-159106000D02*
G01*
X121409000Y-159106000D01*
X121409000Y-158304000D01*
X123111000Y-158304000D01*
X123111000Y-159106000D01*
G37*
G36*
X123111000Y-158006000D02*
G01*
X121409000Y-158006000D01*
X121409000Y-157204000D01*
X123111000Y-157204000D01*
X123111000Y-158006000D01*
G37*
G36*
X123111000Y-156906000D02*
G01*
X121409000Y-156906000D01*
X121409000Y-156104000D01*
X123111000Y-156104000D01*
X123111000Y-156906000D01*
G37*
G36*
X123111000Y-155806000D02*
G01*
X121409000Y-155806000D01*
X121409000Y-155004000D01*
X123111000Y-155004000D01*
X123111000Y-155806000D01*
G37*
G36*
X123111000Y-154706000D02*
G01*
X121409000Y-154706000D01*
X121409000Y-153904000D01*
X123111000Y-153904000D01*
X123111000Y-154706000D01*
G37*
G36*
X196362395Y-152305546D02*
G01*
X196535466Y-152377234D01*
X196535467Y-152377235D01*
X196691227Y-152481310D01*
X196823690Y-152613773D01*
X196876081Y-152692182D01*
X196927766Y-152769534D01*
X196999454Y-152942605D01*
X197036000Y-153126333D01*
X197036000Y-153313667D01*
X196999454Y-153497395D01*
X196927766Y-153670466D01*
X196927765Y-153670467D01*
X196823690Y-153826227D01*
X196691227Y-153958690D01*
X196612818Y-154011081D01*
X196535466Y-154062766D01*
X196362395Y-154134454D01*
X196178667Y-154171000D01*
X195991333Y-154171000D01*
X195807605Y-154134454D01*
X195634534Y-154062766D01*
X195557182Y-154011081D01*
X195478773Y-153958690D01*
X195346310Y-153826227D01*
X195242235Y-153670467D01*
X195242234Y-153670466D01*
X195170546Y-153497395D01*
X195134000Y-153313667D01*
X195134000Y-153126333D01*
X195170546Y-152942605D01*
X195242234Y-152769534D01*
X195293919Y-152692182D01*
X195346310Y-152613773D01*
X195478773Y-152481310D01*
X195634533Y-152377235D01*
X195634534Y-152377234D01*
X195807605Y-152305546D01*
X195991333Y-152269000D01*
X196178667Y-152269000D01*
X196362395Y-152305546D01*
G37*
G36*
X148298512Y-152138927D02*
G01*
X148447812Y-152168624D01*
X148611784Y-152236544D01*
X148759354Y-152335147D01*
X148884853Y-152460646D01*
X148983456Y-152608216D01*
X149051376Y-152772188D01*
X149081073Y-152921488D01*
X149086000Y-152946258D01*
X149086000Y-153123742D01*
X149085484Y-153126335D01*
X149051376Y-153297812D01*
X148983456Y-153461784D01*
X148884853Y-153609354D01*
X148759354Y-153734853D01*
X148611784Y-153833456D01*
X148447812Y-153901376D01*
X148298512Y-153931073D01*
X148273742Y-153936000D01*
X148096258Y-153936000D01*
X148071488Y-153931073D01*
X147922188Y-153901376D01*
X147758216Y-153833456D01*
X147610646Y-153734853D01*
X147485147Y-153609354D01*
X147386544Y-153461784D01*
X147318624Y-153297812D01*
X147284516Y-153126335D01*
X147284000Y-153123742D01*
X147284000Y-152946258D01*
X147288927Y-152921488D01*
X147318624Y-152772188D01*
X147386544Y-152608216D01*
X147485147Y-152460646D01*
X147610646Y-152335147D01*
X147758216Y-152236544D01*
X147922188Y-152168624D01*
X148071488Y-152138927D01*
X148096258Y-152134000D01*
X148273742Y-152134000D01*
X148298512Y-152138927D01*
G37*
G36*
X193288642Y-152149781D02*
G01*
X193434414Y-152210162D01*
X193434416Y-152210163D01*
X193565608Y-152297822D01*
X193677178Y-152409392D01*
X193764837Y-152540584D01*
X193764838Y-152540586D01*
X193825219Y-152686358D01*
X193856000Y-152841107D01*
X193856000Y-152998893D01*
X193825219Y-153153642D01*
X193764838Y-153299414D01*
X193764837Y-153299416D01*
X193677178Y-153430608D01*
X193565608Y-153542178D01*
X193434416Y-153629837D01*
X193434415Y-153629838D01*
X193434414Y-153629838D01*
X193288642Y-153690219D01*
X193133893Y-153721000D01*
X192976107Y-153721000D01*
X192821358Y-153690219D01*
X192675586Y-153629838D01*
X192675585Y-153629838D01*
X192675584Y-153629837D01*
X192544392Y-153542178D01*
X192432822Y-153430608D01*
X192345163Y-153299416D01*
X192345162Y-153299414D01*
X192284781Y-153153642D01*
X192254000Y-152998893D01*
X192254000Y-152841107D01*
X192284781Y-152686358D01*
X192345162Y-152540586D01*
X192345163Y-152540584D01*
X192432822Y-152409392D01*
X192544392Y-152297822D01*
X192675584Y-152210163D01*
X192675586Y-152210162D01*
X192821358Y-152149781D01*
X192976107Y-152119000D01*
X193133893Y-152119000D01*
X193288642Y-152149781D01*
G37*
G36*
X123111000Y-153606000D02*
G01*
X121409000Y-153606000D01*
X121409000Y-152804000D01*
X123111000Y-152804000D01*
X123111000Y-153606000D01*
G37*
G36*
X123111000Y-152506000D02*
G01*
X121409000Y-152506000D01*
X121409000Y-151704000D01*
X123111000Y-151704000D01*
X123111000Y-152506000D01*
G37*
G36*
X149086000Y-151396000D02*
G01*
X147284000Y-151396000D01*
X147284000Y-149594000D01*
X149086000Y-149594000D01*
X149086000Y-151396000D01*
G37*
G36*
X193288642Y-147299781D02*
G01*
X193434414Y-147360162D01*
X193434416Y-147360163D01*
X193565608Y-147447822D01*
X193677178Y-147559392D01*
X193755316Y-147676335D01*
X193764838Y-147690586D01*
X193825219Y-147836358D01*
X193856000Y-147991107D01*
X193856000Y-148148893D01*
X193825219Y-148303642D01*
X193824242Y-148306000D01*
X193764837Y-148449416D01*
X193677178Y-148580608D01*
X193565608Y-148692178D01*
X193434416Y-148779837D01*
X193434415Y-148779838D01*
X193434414Y-148779838D01*
X193288642Y-148840219D01*
X193133893Y-148871000D01*
X192976107Y-148871000D01*
X192821358Y-148840219D01*
X192675586Y-148779838D01*
X192675585Y-148779838D01*
X192675584Y-148779837D01*
X192544392Y-148692178D01*
X192432822Y-148580608D01*
X192345163Y-148449416D01*
X192285758Y-148306000D01*
X192284781Y-148303642D01*
X192254000Y-148148893D01*
X192254000Y-147991107D01*
X192284781Y-147836358D01*
X192345162Y-147690586D01*
X192354684Y-147676335D01*
X192432822Y-147559392D01*
X192544392Y-147447822D01*
X192675584Y-147360163D01*
X192675586Y-147360162D01*
X192821358Y-147299781D01*
X192976107Y-147269000D01*
X193133893Y-147269000D01*
X193288642Y-147299781D01*
G37*
G36*
X148298512Y-147058927D02*
G01*
X148447812Y-147088624D01*
X148611784Y-147156544D01*
X148759354Y-147255147D01*
X148884853Y-147380646D01*
X148983456Y-147528216D01*
X149051376Y-147692188D01*
X149080052Y-147836357D01*
X149085485Y-147863667D01*
X149086000Y-147866259D01*
X149086000Y-148043741D01*
X149051376Y-148217812D01*
X148983456Y-148381784D01*
X148884853Y-148529354D01*
X148759354Y-148654853D01*
X148611784Y-148753456D01*
X148447812Y-148821376D01*
X148298512Y-148851073D01*
X148273742Y-148856000D01*
X148096258Y-148856000D01*
X148071488Y-148851073D01*
X147922188Y-148821376D01*
X147758216Y-148753456D01*
X147610646Y-148654853D01*
X147485147Y-148529354D01*
X147386544Y-148381784D01*
X147318624Y-148217812D01*
X147284000Y-148043741D01*
X147284000Y-147866259D01*
X147284516Y-147863667D01*
X147289948Y-147836357D01*
X147318624Y-147692188D01*
X147386544Y-147528216D01*
X147485147Y-147380646D01*
X147610646Y-147255147D01*
X147758216Y-147156544D01*
X147922188Y-147088624D01*
X148071488Y-147058927D01*
X148096258Y-147054000D01*
X148273742Y-147054000D01*
X148298512Y-147058927D01*
G37*
G36*
X196362395Y-146855546D02*
G01*
X196535466Y-146927234D01*
X196535467Y-146927235D01*
X196691227Y-147031310D01*
X196823690Y-147163773D01*
X196823691Y-147163775D01*
X196927766Y-147319534D01*
X196999454Y-147492605D01*
X197036000Y-147676333D01*
X197036000Y-147863667D01*
X196999454Y-148047395D01*
X196927766Y-148220466D01*
X196927765Y-148220467D01*
X196823690Y-148376227D01*
X196691227Y-148508690D01*
X196660302Y-148529353D01*
X196535466Y-148612766D01*
X196362395Y-148684454D01*
X196178667Y-148721000D01*
X195991333Y-148721000D01*
X195807605Y-148684454D01*
X195634534Y-148612766D01*
X195509698Y-148529353D01*
X195478773Y-148508690D01*
X195346310Y-148376227D01*
X195242235Y-148220467D01*
X195242234Y-148220466D01*
X195170546Y-148047395D01*
X195134000Y-147863667D01*
X195134000Y-147676333D01*
X195170546Y-147492605D01*
X195242234Y-147319534D01*
X195346309Y-147163775D01*
X195346310Y-147163773D01*
X195478773Y-147031310D01*
X195634533Y-146927235D01*
X195634534Y-146927234D01*
X195807605Y-146855546D01*
X195991333Y-146819000D01*
X196178667Y-146819000D01*
X196362395Y-146855546D01*
G37*
G36*
X122511000Y-148306000D02*
G01*
X121009000Y-148306000D01*
X121009000Y-146604000D01*
X122511000Y-146604000D01*
X122511000Y-148306000D01*
G37*
G36*
X113311000Y-147206000D02*
G01*
X111009000Y-147206000D01*
X111009000Y-145904000D01*
X113311000Y-145904000D01*
X113311000Y-147206000D01*
G37*
G36*
X170928512Y-140708927D02*
G01*
X171077812Y-140738624D01*
X171241784Y-140806544D01*
X171389354Y-140905147D01*
X171514853Y-141030646D01*
X171613456Y-141178216D01*
X171681376Y-141342188D01*
X171716000Y-141516259D01*
X171716000Y-141693741D01*
X171681376Y-141867812D01*
X171613456Y-142031784D01*
X171514853Y-142179354D01*
X171389354Y-142304853D01*
X171241784Y-142403456D01*
X171077812Y-142471376D01*
X170928512Y-142501073D01*
X170903742Y-142506000D01*
X170726258Y-142506000D01*
X170701488Y-142501073D01*
X170552188Y-142471376D01*
X170388216Y-142403456D01*
X170240646Y-142304853D01*
X170115147Y-142179354D01*
X170016544Y-142031784D01*
X169948624Y-141867812D01*
X169914000Y-141693741D01*
X169914000Y-141516259D01*
X169948624Y-141342188D01*
X170016544Y-141178216D01*
X170115147Y-141030646D01*
X170240646Y-140905147D01*
X170388216Y-140806544D01*
X170552188Y-140738624D01*
X170701488Y-140708927D01*
X170726258Y-140704000D01*
X170903742Y-140704000D01*
X170928512Y-140708927D01*
G37*
G36*
X192036000Y-142506000D02*
G01*
X190234000Y-142506000D01*
X190234000Y-140704000D01*
X192036000Y-140704000D01*
X192036000Y-142506000D01*
G37*
G36*
X188708512Y-140708927D02*
G01*
X188857812Y-140738624D01*
X189021784Y-140806544D01*
X189169354Y-140905147D01*
X189294853Y-141030646D01*
X189393456Y-141178216D01*
X189461376Y-141342188D01*
X189496000Y-141516259D01*
X189496000Y-141693741D01*
X189461376Y-141867812D01*
X189393456Y-142031784D01*
X189294853Y-142179354D01*
X189169354Y-142304853D01*
X189021784Y-142403456D01*
X188857812Y-142471376D01*
X188708512Y-142501073D01*
X188683742Y-142506000D01*
X188506258Y-142506000D01*
X188481488Y-142501073D01*
X188332188Y-142471376D01*
X188168216Y-142403456D01*
X188020646Y-142304853D01*
X187895147Y-142179354D01*
X187796544Y-142031784D01*
X187728624Y-141867812D01*
X187694000Y-141693741D01*
X187694000Y-141516259D01*
X187728624Y-141342188D01*
X187796544Y-141178216D01*
X187895147Y-141030646D01*
X188020646Y-140905147D01*
X188168216Y-140806544D01*
X188332188Y-140738624D01*
X188481488Y-140708927D01*
X188506258Y-140704000D01*
X188683742Y-140704000D01*
X188708512Y-140708927D01*
G37*
G36*
X186168512Y-140708927D02*
G01*
X186317812Y-140738624D01*
X186481784Y-140806544D01*
X186629354Y-140905147D01*
X186754853Y-141030646D01*
X186853456Y-141178216D01*
X186921376Y-141342188D01*
X186956000Y-141516259D01*
X186956000Y-141693741D01*
X186921376Y-141867812D01*
X186853456Y-142031784D01*
X186754853Y-142179354D01*
X186629354Y-142304853D01*
X186481784Y-142403456D01*
X186317812Y-142471376D01*
X186168512Y-142501073D01*
X186143742Y-142506000D01*
X185966258Y-142506000D01*
X185941488Y-142501073D01*
X185792188Y-142471376D01*
X185628216Y-142403456D01*
X185480646Y-142304853D01*
X185355147Y-142179354D01*
X185256544Y-142031784D01*
X185188624Y-141867812D01*
X185154000Y-141693741D01*
X185154000Y-141516259D01*
X185188624Y-141342188D01*
X185256544Y-141178216D01*
X185355147Y-141030646D01*
X185480646Y-140905147D01*
X185628216Y-140806544D01*
X185792188Y-140738624D01*
X185941488Y-140708927D01*
X185966258Y-140704000D01*
X186143742Y-140704000D01*
X186168512Y-140708927D01*
G37*
G36*
X183628512Y-140708927D02*
G01*
X183777812Y-140738624D01*
X183941784Y-140806544D01*
X184089354Y-140905147D01*
X184214853Y-141030646D01*
X184313456Y-141178216D01*
X184381376Y-141342188D01*
X184416000Y-141516259D01*
X184416000Y-141693741D01*
X184381376Y-141867812D01*
X184313456Y-142031784D01*
X184214853Y-142179354D01*
X184089354Y-142304853D01*
X183941784Y-142403456D01*
X183777812Y-142471376D01*
X183628512Y-142501073D01*
X183603742Y-142506000D01*
X183426258Y-142506000D01*
X183401488Y-142501073D01*
X183252188Y-142471376D01*
X183088216Y-142403456D01*
X182940646Y-142304853D01*
X182815147Y-142179354D01*
X182716544Y-142031784D01*
X182648624Y-141867812D01*
X182614000Y-141693741D01*
X182614000Y-141516259D01*
X182648624Y-141342188D01*
X182716544Y-141178216D01*
X182815147Y-141030646D01*
X182940646Y-140905147D01*
X183088216Y-140806544D01*
X183252188Y-140738624D01*
X183401488Y-140708927D01*
X183426258Y-140704000D01*
X183603742Y-140704000D01*
X183628512Y-140708927D01*
G37*
G36*
X181088512Y-140708927D02*
G01*
X181237812Y-140738624D01*
X181401784Y-140806544D01*
X181549354Y-140905147D01*
X181674853Y-141030646D01*
X181773456Y-141178216D01*
X181841376Y-141342188D01*
X181876000Y-141516259D01*
X181876000Y-141693741D01*
X181841376Y-141867812D01*
X181773456Y-142031784D01*
X181674853Y-142179354D01*
X181549354Y-142304853D01*
X181401784Y-142403456D01*
X181237812Y-142471376D01*
X181088512Y-142501073D01*
X181063742Y-142506000D01*
X180886258Y-142506000D01*
X180861488Y-142501073D01*
X180712188Y-142471376D01*
X180548216Y-142403456D01*
X180400646Y-142304853D01*
X180275147Y-142179354D01*
X180176544Y-142031784D01*
X180108624Y-141867812D01*
X180074000Y-141693741D01*
X180074000Y-141516259D01*
X180108624Y-141342188D01*
X180176544Y-141178216D01*
X180275147Y-141030646D01*
X180400646Y-140905147D01*
X180548216Y-140806544D01*
X180712188Y-140738624D01*
X180861488Y-140708927D01*
X180886258Y-140704000D01*
X181063742Y-140704000D01*
X181088512Y-140708927D01*
G37*
G36*
X179336000Y-142506000D02*
G01*
X177534000Y-142506000D01*
X177534000Y-140704000D01*
X179336000Y-140704000D01*
X179336000Y-142506000D01*
G37*
G36*
X176008512Y-140708927D02*
G01*
X176157812Y-140738624D01*
X176321784Y-140806544D01*
X176469354Y-140905147D01*
X176594853Y-141030646D01*
X176693456Y-141178216D01*
X176761376Y-141342188D01*
X176796000Y-141516259D01*
X176796000Y-141693741D01*
X176761376Y-141867812D01*
X176693456Y-142031784D01*
X176594853Y-142179354D01*
X176469354Y-142304853D01*
X176321784Y-142403456D01*
X176157812Y-142471376D01*
X176008512Y-142501073D01*
X175983742Y-142506000D01*
X175806258Y-142506000D01*
X175781488Y-142501073D01*
X175632188Y-142471376D01*
X175468216Y-142403456D01*
X175320646Y-142304853D01*
X175195147Y-142179354D01*
X175096544Y-142031784D01*
X175028624Y-141867812D01*
X174994000Y-141693741D01*
X174994000Y-141516259D01*
X175028624Y-141342188D01*
X175096544Y-141178216D01*
X175195147Y-141030646D01*
X175320646Y-140905147D01*
X175468216Y-140806544D01*
X175632188Y-140738624D01*
X175781488Y-140708927D01*
X175806258Y-140704000D01*
X175983742Y-140704000D01*
X176008512Y-140708927D01*
G37*
G36*
X173468512Y-140708927D02*
G01*
X173617812Y-140738624D01*
X173781784Y-140806544D01*
X173929354Y-140905147D01*
X174054853Y-141030646D01*
X174153456Y-141178216D01*
X174221376Y-141342188D01*
X174256000Y-141516259D01*
X174256000Y-141693741D01*
X174221376Y-141867812D01*
X174153456Y-142031784D01*
X174054853Y-142179354D01*
X173929354Y-142304853D01*
X173781784Y-142403456D01*
X173617812Y-142471376D01*
X173468512Y-142501073D01*
X173443742Y-142506000D01*
X173266258Y-142506000D01*
X173241488Y-142501073D01*
X173092188Y-142471376D01*
X172928216Y-142403456D01*
X172780646Y-142304853D01*
X172655147Y-142179354D01*
X172556544Y-142031784D01*
X172488624Y-141867812D01*
X172454000Y-141693741D01*
X172454000Y-141516259D01*
X172488624Y-141342188D01*
X172556544Y-141178216D01*
X172655147Y-141030646D01*
X172780646Y-140905147D01*
X172928216Y-140806544D01*
X173092188Y-140738624D01*
X173241488Y-140708927D01*
X173266258Y-140704000D01*
X173443742Y-140704000D01*
X173468512Y-140708927D01*
G37*
G36*
X193788512Y-140708927D02*
G01*
X193937812Y-140738624D01*
X194101784Y-140806544D01*
X194249354Y-140905147D01*
X194374853Y-141030646D01*
X194473456Y-141178216D01*
X194541376Y-141342188D01*
X194576000Y-141516259D01*
X194576000Y-141693741D01*
X194541376Y-141867812D01*
X194473456Y-142031784D01*
X194374853Y-142179354D01*
X194249354Y-142304853D01*
X194101784Y-142403456D01*
X193937812Y-142471376D01*
X193788512Y-142501073D01*
X193763742Y-142506000D01*
X193586258Y-142506000D01*
X193561488Y-142501073D01*
X193412188Y-142471376D01*
X193248216Y-142403456D01*
X193100646Y-142304853D01*
X192975147Y-142179354D01*
X192876544Y-142031784D01*
X192808624Y-141867812D01*
X192774000Y-141693741D01*
X192774000Y-141516259D01*
X192808624Y-141342188D01*
X192876544Y-141178216D01*
X192975147Y-141030646D01*
X193100646Y-140905147D01*
X193248216Y-140806544D01*
X193412188Y-140738624D01*
X193561488Y-140708927D01*
X193586258Y-140704000D01*
X193763742Y-140704000D01*
X193788512Y-140708927D01*
G37*
G36*
X168388512Y-140708927D02*
G01*
X168537812Y-140738624D01*
X168701784Y-140806544D01*
X168849354Y-140905147D01*
X168974853Y-141030646D01*
X169073456Y-141178216D01*
X169141376Y-141342188D01*
X169176000Y-141516259D01*
X169176000Y-141693741D01*
X169141376Y-141867812D01*
X169073456Y-142031784D01*
X168974853Y-142179354D01*
X168849354Y-142304853D01*
X168701784Y-142403456D01*
X168537812Y-142471376D01*
X168388512Y-142501073D01*
X168363742Y-142506000D01*
X168186258Y-142506000D01*
X168161488Y-142501073D01*
X168012188Y-142471376D01*
X167848216Y-142403456D01*
X167700646Y-142304853D01*
X167575147Y-142179354D01*
X167476544Y-142031784D01*
X167408624Y-141867812D01*
X167374000Y-141693741D01*
X167374000Y-141516259D01*
X167408624Y-141342188D01*
X167476544Y-141178216D01*
X167575147Y-141030646D01*
X167700646Y-140905147D01*
X167848216Y-140806544D01*
X168012188Y-140738624D01*
X168161488Y-140708927D01*
X168186258Y-140704000D01*
X168363742Y-140704000D01*
X168388512Y-140708927D01*
G37*
G36*
X166636000Y-142506000D02*
G01*
X164834000Y-142506000D01*
X164834000Y-140704000D01*
X166636000Y-140704000D01*
X166636000Y-142506000D01*
G37*
G36*
X163308512Y-140708927D02*
G01*
X163457812Y-140738624D01*
X163621784Y-140806544D01*
X163769354Y-140905147D01*
X163894853Y-141030646D01*
X163993456Y-141178216D01*
X164061376Y-141342188D01*
X164096000Y-141516259D01*
X164096000Y-141693741D01*
X164061376Y-141867812D01*
X163993456Y-142031784D01*
X163894853Y-142179354D01*
X163769354Y-142304853D01*
X163621784Y-142403456D01*
X163457812Y-142471376D01*
X163308512Y-142501073D01*
X163283742Y-142506000D01*
X163106258Y-142506000D01*
X163081488Y-142501073D01*
X162932188Y-142471376D01*
X162768216Y-142403456D01*
X162620646Y-142304853D01*
X162495147Y-142179354D01*
X162396544Y-142031784D01*
X162328624Y-141867812D01*
X162294000Y-141693741D01*
X162294000Y-141516259D01*
X162328624Y-141342188D01*
X162396544Y-141178216D01*
X162495147Y-141030646D01*
X162620646Y-140905147D01*
X162768216Y-140806544D01*
X162932188Y-140738624D01*
X163081488Y-140708927D01*
X163106258Y-140704000D01*
X163283742Y-140704000D01*
X163308512Y-140708927D01*
G37*
G36*
X160768512Y-140708927D02*
G01*
X160917812Y-140738624D01*
X161081784Y-140806544D01*
X161229354Y-140905147D01*
X161354853Y-141030646D01*
X161453456Y-141178216D01*
X161521376Y-141342188D01*
X161556000Y-141516259D01*
X161556000Y-141693741D01*
X161521376Y-141867812D01*
X161453456Y-142031784D01*
X161354853Y-142179354D01*
X161229354Y-142304853D01*
X161081784Y-142403456D01*
X160917812Y-142471376D01*
X160768512Y-142501073D01*
X160743742Y-142506000D01*
X160566258Y-142506000D01*
X160541488Y-142501073D01*
X160392188Y-142471376D01*
X160228216Y-142403456D01*
X160080646Y-142304853D01*
X159955147Y-142179354D01*
X159856544Y-142031784D01*
X159788624Y-141867812D01*
X159754000Y-141693741D01*
X159754000Y-141516259D01*
X159788624Y-141342188D01*
X159856544Y-141178216D01*
X159955147Y-141030646D01*
X160080646Y-140905147D01*
X160228216Y-140806544D01*
X160392188Y-140738624D01*
X160541488Y-140708927D01*
X160566258Y-140704000D01*
X160743742Y-140704000D01*
X160768512Y-140708927D01*
G37*
G36*
X158228512Y-140708927D02*
G01*
X158377812Y-140738624D01*
X158541784Y-140806544D01*
X158689354Y-140905147D01*
X158814853Y-141030646D01*
X158913456Y-141178216D01*
X158981376Y-141342188D01*
X159016000Y-141516259D01*
X159016000Y-141693741D01*
X158981376Y-141867812D01*
X158913456Y-142031784D01*
X158814853Y-142179354D01*
X158689354Y-142304853D01*
X158541784Y-142403456D01*
X158377812Y-142471376D01*
X158228512Y-142501073D01*
X158203742Y-142506000D01*
X158026258Y-142506000D01*
X158001488Y-142501073D01*
X157852188Y-142471376D01*
X157688216Y-142403456D01*
X157540646Y-142304853D01*
X157415147Y-142179354D01*
X157316544Y-142031784D01*
X157248624Y-141867812D01*
X157214000Y-141693741D01*
X157214000Y-141516259D01*
X157248624Y-141342188D01*
X157316544Y-141178216D01*
X157415147Y-141030646D01*
X157540646Y-140905147D01*
X157688216Y-140806544D01*
X157852188Y-140738624D01*
X158001488Y-140708927D01*
X158026258Y-140704000D01*
X158203742Y-140704000D01*
X158228512Y-140708927D01*
G37*
G36*
X155688512Y-140708927D02*
G01*
X155837812Y-140738624D01*
X156001784Y-140806544D01*
X156149354Y-140905147D01*
X156274853Y-141030646D01*
X156373456Y-141178216D01*
X156441376Y-141342188D01*
X156476000Y-141516259D01*
X156476000Y-141693741D01*
X156441376Y-141867812D01*
X156373456Y-142031784D01*
X156274853Y-142179354D01*
X156149354Y-142304853D01*
X156001784Y-142403456D01*
X155837812Y-142471376D01*
X155688512Y-142501073D01*
X155663742Y-142506000D01*
X155486258Y-142506000D01*
X155461488Y-142501073D01*
X155312188Y-142471376D01*
X155148216Y-142403456D01*
X155000646Y-142304853D01*
X154875147Y-142179354D01*
X154776544Y-142031784D01*
X154708624Y-141867812D01*
X154674000Y-141693741D01*
X154674000Y-141516259D01*
X154708624Y-141342188D01*
X154776544Y-141178216D01*
X154875147Y-141030646D01*
X155000646Y-140905147D01*
X155148216Y-140806544D01*
X155312188Y-140738624D01*
X155461488Y-140708927D01*
X155486258Y-140704000D01*
X155663742Y-140704000D01*
X155688512Y-140708927D01*
G37*
G36*
X153936000Y-142506000D02*
G01*
X152134000Y-142506000D01*
X152134000Y-140704000D01*
X153936000Y-140704000D01*
X153936000Y-142506000D01*
G37*
G36*
X150608512Y-140708927D02*
G01*
X150757812Y-140738624D01*
X150921784Y-140806544D01*
X151069354Y-140905147D01*
X151194853Y-141030646D01*
X151293456Y-141178216D01*
X151361376Y-141342188D01*
X151396000Y-141516259D01*
X151396000Y-141693741D01*
X151361376Y-141867812D01*
X151293456Y-142031784D01*
X151194853Y-142179354D01*
X151069354Y-142304853D01*
X150921784Y-142403456D01*
X150757812Y-142471376D01*
X150608512Y-142501073D01*
X150583742Y-142506000D01*
X150406258Y-142506000D01*
X150381488Y-142501073D01*
X150232188Y-142471376D01*
X150068216Y-142403456D01*
X149920646Y-142304853D01*
X149795147Y-142179354D01*
X149696544Y-142031784D01*
X149628624Y-141867812D01*
X149594000Y-141693741D01*
X149594000Y-141516259D01*
X149628624Y-141342188D01*
X149696544Y-141178216D01*
X149795147Y-141030646D01*
X149920646Y-140905147D01*
X150068216Y-140806544D01*
X150232188Y-140738624D01*
X150381488Y-140708927D01*
X150406258Y-140704000D01*
X150583742Y-140704000D01*
X150608512Y-140708927D01*
G37*
G36*
X148068512Y-140708927D02*
G01*
X148217812Y-140738624D01*
X148381784Y-140806544D01*
X148529354Y-140905147D01*
X148654853Y-141030646D01*
X148753456Y-141178216D01*
X148821376Y-141342188D01*
X148856000Y-141516259D01*
X148856000Y-141693741D01*
X148821376Y-141867812D01*
X148753456Y-142031784D01*
X148654853Y-142179354D01*
X148529354Y-142304853D01*
X148381784Y-142403456D01*
X148217812Y-142471376D01*
X148068512Y-142501073D01*
X148043742Y-142506000D01*
X147866258Y-142506000D01*
X147841488Y-142501073D01*
X147692188Y-142471376D01*
X147528216Y-142403456D01*
X147380646Y-142304853D01*
X147255147Y-142179354D01*
X147156544Y-142031784D01*
X147088624Y-141867812D01*
X147054000Y-141693741D01*
X147054000Y-141516259D01*
X147088624Y-141342188D01*
X147156544Y-141178216D01*
X147255147Y-141030646D01*
X147380646Y-140905147D01*
X147528216Y-140806544D01*
X147692188Y-140738624D01*
X147841488Y-140708927D01*
X147866258Y-140704000D01*
X148043742Y-140704000D01*
X148068512Y-140708927D01*
G37*
G36*
X196328512Y-140708927D02*
G01*
X196477812Y-140738624D01*
X196641784Y-140806544D01*
X196789354Y-140905147D01*
X196914853Y-141030646D01*
X197013456Y-141178216D01*
X197081376Y-141342188D01*
X197116000Y-141516259D01*
X197116000Y-141693741D01*
X197081376Y-141867812D01*
X197013456Y-142031784D01*
X196914853Y-142179354D01*
X196789354Y-142304853D01*
X196641784Y-142403456D01*
X196477812Y-142471376D01*
X196328512Y-142501073D01*
X196303742Y-142506000D01*
X196126258Y-142506000D01*
X196101488Y-142501073D01*
X195952188Y-142471376D01*
X195788216Y-142403456D01*
X195640646Y-142304853D01*
X195515147Y-142179354D01*
X195416544Y-142031784D01*
X195348624Y-141867812D01*
X195314000Y-141693741D01*
X195314000Y-141516259D01*
X195348624Y-141342188D01*
X195416544Y-141178216D01*
X195515147Y-141030646D01*
X195640646Y-140905147D01*
X195788216Y-140806544D01*
X195952188Y-140738624D01*
X196101488Y-140708927D01*
X196126258Y-140704000D01*
X196303742Y-140704000D01*
X196328512Y-140708927D01*
G37*
G36*
X127901000Y-138061000D02*
G01*
X126099000Y-138061000D01*
X126099000Y-136259000D01*
X127901000Y-136259000D01*
X127901000Y-138061000D01*
G37*
G36*
X122033512Y-136263927D02*
G01*
X122182812Y-136293624D01*
X122346784Y-136361544D01*
X122494354Y-136460147D01*
X122619853Y-136585646D01*
X122718456Y-136733216D01*
X122786376Y-136897188D01*
X122821000Y-137071259D01*
X122821000Y-137248741D01*
X122786376Y-137422812D01*
X122718456Y-137586784D01*
X122619853Y-137734354D01*
X122494354Y-137859853D01*
X122346784Y-137958456D01*
X122182812Y-138026376D01*
X122033512Y-138056073D01*
X122008742Y-138061000D01*
X121831258Y-138061000D01*
X121806488Y-138056073D01*
X121657188Y-138026376D01*
X121493216Y-137958456D01*
X121345646Y-137859853D01*
X121220147Y-137734354D01*
X121121544Y-137586784D01*
X121053624Y-137422812D01*
X121019000Y-137248741D01*
X121019000Y-137071259D01*
X121053624Y-136897188D01*
X121121544Y-136733216D01*
X121220147Y-136585646D01*
X121345646Y-136460147D01*
X121493216Y-136361544D01*
X121657188Y-136293624D01*
X121806488Y-136263927D01*
X121831258Y-136259000D01*
X122008742Y-136259000D01*
X122033512Y-136263927D01*
G37*
G36*
X124573512Y-136263927D02*
G01*
X124722812Y-136293624D01*
X124886784Y-136361544D01*
X125034354Y-136460147D01*
X125159853Y-136585646D01*
X125258456Y-136733216D01*
X125326376Y-136897188D01*
X125361000Y-137071259D01*
X125361000Y-137248741D01*
X125326376Y-137422812D01*
X125258456Y-137586784D01*
X125159853Y-137734354D01*
X125034354Y-137859853D01*
X124886784Y-137958456D01*
X124722812Y-138026376D01*
X124573512Y-138056073D01*
X124548742Y-138061000D01*
X124371258Y-138061000D01*
X124346488Y-138056073D01*
X124197188Y-138026376D01*
X124033216Y-137958456D01*
X123885646Y-137859853D01*
X123760147Y-137734354D01*
X123661544Y-137586784D01*
X123593624Y-137422812D01*
X123559000Y-137248741D01*
X123559000Y-137071259D01*
X123593624Y-136897188D01*
X123661544Y-136733216D01*
X123760147Y-136585646D01*
X123885646Y-136460147D01*
X124033216Y-136361544D01*
X124197188Y-136293624D01*
X124346488Y-136263927D01*
X124371258Y-136259000D01*
X124548742Y-136259000D01*
X124573512Y-136263927D01*
G37*
G36*
X119493512Y-136263927D02*
G01*
X119642812Y-136293624D01*
X119806784Y-136361544D01*
X119954354Y-136460147D01*
X120079853Y-136585646D01*
X120178456Y-136733216D01*
X120246376Y-136897188D01*
X120281000Y-137071259D01*
X120281000Y-137248741D01*
X120246376Y-137422812D01*
X120178456Y-137586784D01*
X120079853Y-137734354D01*
X119954354Y-137859853D01*
X119806784Y-137958456D01*
X119642812Y-138026376D01*
X119493512Y-138056073D01*
X119468742Y-138061000D01*
X119291258Y-138061000D01*
X119266488Y-138056073D01*
X119117188Y-138026376D01*
X118953216Y-137958456D01*
X118805646Y-137859853D01*
X118680147Y-137734354D01*
X118581544Y-137586784D01*
X118513624Y-137422812D01*
X118479000Y-137248741D01*
X118479000Y-137071259D01*
X118513624Y-136897188D01*
X118581544Y-136733216D01*
X118680147Y-136585646D01*
X118805646Y-136460147D01*
X118953216Y-136361544D01*
X119117188Y-136293624D01*
X119266488Y-136263927D01*
X119291258Y-136259000D01*
X119468742Y-136259000D01*
X119493512Y-136263927D01*
G37*
M02*
