G04 #@! TF.GenerationSoftware,KiCad,Pcbnew,5.1.5+dfsg1-2build2*
G04 #@! TF.CreationDate,2023-12-24T06:28:24+00:00*
G04 #@! TF.ProjectId,small_esc,736d616c-6c5f-4657-9363-2e6b69636164,rev?*
G04 #@! TF.SameCoordinates,Original*
G04 #@! TF.FileFunction,Paste,Top*
G04 #@! TF.FilePolarity,Positive*
%FSLAX46Y46*%
G04 Gerber Fmt 4.6, Leading zero omitted, Abs format (unit mm)*
G04 Created by KiCad (PCBNEW 5.1.5+dfsg1-2build2) date 2023-12-24 06:28:24*
%MOMM*%
%LPD*%
G04 APERTURE LIST*
%ADD10R,1.200000X0.900000*%
%ADD11C,0.100000*%
%ADD12R,1.500000X2.000000*%
%ADD13R,3.800000X2.000000*%
%ADD14R,2.200000X1.200000*%
%ADD15R,1.400000X1.600000*%
%ADD16R,1.400000X1.200000*%
%ADD17R,1.600000X0.700000*%
G04 APERTURE END LIST*
D10*
X141224000Y-53976000D03*
X141224000Y-57276000D03*
D11*
G36*
X204309505Y-91841204D02*
G01*
X204333773Y-91844804D01*
X204357572Y-91850765D01*
X204380671Y-91859030D01*
X204402850Y-91869520D01*
X204423893Y-91882132D01*
X204443599Y-91896747D01*
X204461777Y-91913223D01*
X204478253Y-91931401D01*
X204492868Y-91951107D01*
X204505480Y-91972150D01*
X204515970Y-91994329D01*
X204524235Y-92017428D01*
X204530196Y-92041227D01*
X204533796Y-92065495D01*
X204535000Y-92089999D01*
X204535000Y-92790001D01*
X204533796Y-92814505D01*
X204530196Y-92838773D01*
X204524235Y-92862572D01*
X204515970Y-92885671D01*
X204505480Y-92907850D01*
X204492868Y-92928893D01*
X204478253Y-92948599D01*
X204461777Y-92966777D01*
X204443599Y-92983253D01*
X204423893Y-92997868D01*
X204402850Y-93010480D01*
X204380671Y-93020970D01*
X204357572Y-93029235D01*
X204333773Y-93035196D01*
X204309505Y-93038796D01*
X204285001Y-93040000D01*
X203384999Y-93040000D01*
X203360495Y-93038796D01*
X203336227Y-93035196D01*
X203312428Y-93029235D01*
X203289329Y-93020970D01*
X203267150Y-93010480D01*
X203246107Y-92997868D01*
X203226401Y-92983253D01*
X203208223Y-92966777D01*
X203191747Y-92948599D01*
X203177132Y-92928893D01*
X203164520Y-92907850D01*
X203154030Y-92885671D01*
X203145765Y-92862572D01*
X203139804Y-92838773D01*
X203136204Y-92814505D01*
X203135000Y-92790001D01*
X203135000Y-92089999D01*
X203136204Y-92065495D01*
X203139804Y-92041227D01*
X203145765Y-92017428D01*
X203154030Y-91994329D01*
X203164520Y-91972150D01*
X203177132Y-91951107D01*
X203191747Y-91931401D01*
X203208223Y-91913223D01*
X203226401Y-91896747D01*
X203246107Y-91882132D01*
X203267150Y-91869520D01*
X203289329Y-91859030D01*
X203312428Y-91850765D01*
X203336227Y-91844804D01*
X203360495Y-91841204D01*
X203384999Y-91840000D01*
X204285001Y-91840000D01*
X204309505Y-91841204D01*
G37*
G36*
X204309505Y-89841204D02*
G01*
X204333773Y-89844804D01*
X204357572Y-89850765D01*
X204380671Y-89859030D01*
X204402850Y-89869520D01*
X204423893Y-89882132D01*
X204443599Y-89896747D01*
X204461777Y-89913223D01*
X204478253Y-89931401D01*
X204492868Y-89951107D01*
X204505480Y-89972150D01*
X204515970Y-89994329D01*
X204524235Y-90017428D01*
X204530196Y-90041227D01*
X204533796Y-90065495D01*
X204535000Y-90089999D01*
X204535000Y-90790001D01*
X204533796Y-90814505D01*
X204530196Y-90838773D01*
X204524235Y-90862572D01*
X204515970Y-90885671D01*
X204505480Y-90907850D01*
X204492868Y-90928893D01*
X204478253Y-90948599D01*
X204461777Y-90966777D01*
X204443599Y-90983253D01*
X204423893Y-90997868D01*
X204402850Y-91010480D01*
X204380671Y-91020970D01*
X204357572Y-91029235D01*
X204333773Y-91035196D01*
X204309505Y-91038796D01*
X204285001Y-91040000D01*
X203384999Y-91040000D01*
X203360495Y-91038796D01*
X203336227Y-91035196D01*
X203312428Y-91029235D01*
X203289329Y-91020970D01*
X203267150Y-91010480D01*
X203246107Y-90997868D01*
X203226401Y-90983253D01*
X203208223Y-90966777D01*
X203191747Y-90948599D01*
X203177132Y-90928893D01*
X203164520Y-90907850D01*
X203154030Y-90885671D01*
X203145765Y-90862572D01*
X203139804Y-90838773D01*
X203136204Y-90814505D01*
X203135000Y-90790001D01*
X203135000Y-90089999D01*
X203136204Y-90065495D01*
X203139804Y-90041227D01*
X203145765Y-90017428D01*
X203154030Y-89994329D01*
X203164520Y-89972150D01*
X203177132Y-89951107D01*
X203191747Y-89931401D01*
X203208223Y-89913223D01*
X203226401Y-89896747D01*
X203246107Y-89882132D01*
X203267150Y-89869520D01*
X203289329Y-89859030D01*
X203312428Y-89850765D01*
X203336227Y-89844804D01*
X203360495Y-89841204D01*
X203384999Y-89840000D01*
X204285001Y-89840000D01*
X204309505Y-89841204D01*
G37*
G36*
X209559505Y-95821204D02*
G01*
X209583773Y-95824804D01*
X209607572Y-95830765D01*
X209630671Y-95839030D01*
X209652850Y-95849520D01*
X209673893Y-95862132D01*
X209693599Y-95876747D01*
X209711777Y-95893223D01*
X209728253Y-95911401D01*
X209742868Y-95931107D01*
X209755480Y-95952150D01*
X209765970Y-95974329D01*
X209774235Y-95997428D01*
X209780196Y-96021227D01*
X209783796Y-96045495D01*
X209785000Y-96069999D01*
X209785000Y-96970001D01*
X209783796Y-96994505D01*
X209780196Y-97018773D01*
X209774235Y-97042572D01*
X209765970Y-97065671D01*
X209755480Y-97087850D01*
X209742868Y-97108893D01*
X209728253Y-97128599D01*
X209711777Y-97146777D01*
X209693599Y-97163253D01*
X209673893Y-97177868D01*
X209652850Y-97190480D01*
X209630671Y-97200970D01*
X209607572Y-97209235D01*
X209583773Y-97215196D01*
X209559505Y-97218796D01*
X209535001Y-97220000D01*
X208834999Y-97220000D01*
X208810495Y-97218796D01*
X208786227Y-97215196D01*
X208762428Y-97209235D01*
X208739329Y-97200970D01*
X208717150Y-97190480D01*
X208696107Y-97177868D01*
X208676401Y-97163253D01*
X208658223Y-97146777D01*
X208641747Y-97128599D01*
X208627132Y-97108893D01*
X208614520Y-97087850D01*
X208604030Y-97065671D01*
X208595765Y-97042572D01*
X208589804Y-97018773D01*
X208586204Y-96994505D01*
X208585000Y-96970001D01*
X208585000Y-96069999D01*
X208586204Y-96045495D01*
X208589804Y-96021227D01*
X208595765Y-95997428D01*
X208604030Y-95974329D01*
X208614520Y-95952150D01*
X208627132Y-95931107D01*
X208641747Y-95911401D01*
X208658223Y-95893223D01*
X208676401Y-95876747D01*
X208696107Y-95862132D01*
X208717150Y-95849520D01*
X208739329Y-95839030D01*
X208762428Y-95830765D01*
X208786227Y-95824804D01*
X208810495Y-95821204D01*
X208834999Y-95820000D01*
X209535001Y-95820000D01*
X209559505Y-95821204D01*
G37*
G36*
X211559505Y-95821204D02*
G01*
X211583773Y-95824804D01*
X211607572Y-95830765D01*
X211630671Y-95839030D01*
X211652850Y-95849520D01*
X211673893Y-95862132D01*
X211693599Y-95876747D01*
X211711777Y-95893223D01*
X211728253Y-95911401D01*
X211742868Y-95931107D01*
X211755480Y-95952150D01*
X211765970Y-95974329D01*
X211774235Y-95997428D01*
X211780196Y-96021227D01*
X211783796Y-96045495D01*
X211785000Y-96069999D01*
X211785000Y-96970001D01*
X211783796Y-96994505D01*
X211780196Y-97018773D01*
X211774235Y-97042572D01*
X211765970Y-97065671D01*
X211755480Y-97087850D01*
X211742868Y-97108893D01*
X211728253Y-97128599D01*
X211711777Y-97146777D01*
X211693599Y-97163253D01*
X211673893Y-97177868D01*
X211652850Y-97190480D01*
X211630671Y-97200970D01*
X211607572Y-97209235D01*
X211583773Y-97215196D01*
X211559505Y-97218796D01*
X211535001Y-97220000D01*
X210834999Y-97220000D01*
X210810495Y-97218796D01*
X210786227Y-97215196D01*
X210762428Y-97209235D01*
X210739329Y-97200970D01*
X210717150Y-97190480D01*
X210696107Y-97177868D01*
X210676401Y-97163253D01*
X210658223Y-97146777D01*
X210641747Y-97128599D01*
X210627132Y-97108893D01*
X210614520Y-97087850D01*
X210604030Y-97065671D01*
X210595765Y-97042572D01*
X210589804Y-97018773D01*
X210586204Y-96994505D01*
X210585000Y-96970001D01*
X210585000Y-96069999D01*
X210586204Y-96045495D01*
X210589804Y-96021227D01*
X210595765Y-95997428D01*
X210604030Y-95974329D01*
X210614520Y-95952150D01*
X210627132Y-95931107D01*
X210641747Y-95911401D01*
X210658223Y-95893223D01*
X210676401Y-95876747D01*
X210696107Y-95862132D01*
X210717150Y-95849520D01*
X210739329Y-95839030D01*
X210762428Y-95830765D01*
X210786227Y-95824804D01*
X210810495Y-95821204D01*
X210834999Y-95820000D01*
X211535001Y-95820000D01*
X211559505Y-95821204D01*
G37*
D12*
X207885000Y-92050000D03*
X212485000Y-92050000D03*
X210185000Y-92050000D03*
D13*
X210185000Y-85750000D03*
D11*
G36*
X110964505Y-61551204D02*
G01*
X110988773Y-61554804D01*
X111012572Y-61560765D01*
X111035671Y-61569030D01*
X111057850Y-61579520D01*
X111078893Y-61592132D01*
X111098599Y-61606747D01*
X111116777Y-61623223D01*
X111133253Y-61641401D01*
X111147868Y-61661107D01*
X111160480Y-61682150D01*
X111170970Y-61704329D01*
X111179235Y-61727428D01*
X111185196Y-61751227D01*
X111188796Y-61775495D01*
X111190000Y-61799999D01*
X111190000Y-62500001D01*
X111188796Y-62524505D01*
X111185196Y-62548773D01*
X111179235Y-62572572D01*
X111170970Y-62595671D01*
X111160480Y-62617850D01*
X111147868Y-62638893D01*
X111133253Y-62658599D01*
X111116777Y-62676777D01*
X111098599Y-62693253D01*
X111078893Y-62707868D01*
X111057850Y-62720480D01*
X111035671Y-62730970D01*
X111012572Y-62739235D01*
X110988773Y-62745196D01*
X110964505Y-62748796D01*
X110940001Y-62750000D01*
X110039999Y-62750000D01*
X110015495Y-62748796D01*
X109991227Y-62745196D01*
X109967428Y-62739235D01*
X109944329Y-62730970D01*
X109922150Y-62720480D01*
X109901107Y-62707868D01*
X109881401Y-62693253D01*
X109863223Y-62676777D01*
X109846747Y-62658599D01*
X109832132Y-62638893D01*
X109819520Y-62617850D01*
X109809030Y-62595671D01*
X109800765Y-62572572D01*
X109794804Y-62548773D01*
X109791204Y-62524505D01*
X109790000Y-62500001D01*
X109790000Y-61799999D01*
X109791204Y-61775495D01*
X109794804Y-61751227D01*
X109800765Y-61727428D01*
X109809030Y-61704329D01*
X109819520Y-61682150D01*
X109832132Y-61661107D01*
X109846747Y-61641401D01*
X109863223Y-61623223D01*
X109881401Y-61606747D01*
X109901107Y-61592132D01*
X109922150Y-61579520D01*
X109944329Y-61569030D01*
X109967428Y-61560765D01*
X109991227Y-61554804D01*
X110015495Y-61551204D01*
X110039999Y-61550000D01*
X110940001Y-61550000D01*
X110964505Y-61551204D01*
G37*
G36*
X110964505Y-59551204D02*
G01*
X110988773Y-59554804D01*
X111012572Y-59560765D01*
X111035671Y-59569030D01*
X111057850Y-59579520D01*
X111078893Y-59592132D01*
X111098599Y-59606747D01*
X111116777Y-59623223D01*
X111133253Y-59641401D01*
X111147868Y-59661107D01*
X111160480Y-59682150D01*
X111170970Y-59704329D01*
X111179235Y-59727428D01*
X111185196Y-59751227D01*
X111188796Y-59775495D01*
X111190000Y-59799999D01*
X111190000Y-60500001D01*
X111188796Y-60524505D01*
X111185196Y-60548773D01*
X111179235Y-60572572D01*
X111170970Y-60595671D01*
X111160480Y-60617850D01*
X111147868Y-60638893D01*
X111133253Y-60658599D01*
X111116777Y-60676777D01*
X111098599Y-60693253D01*
X111078893Y-60707868D01*
X111057850Y-60720480D01*
X111035671Y-60730970D01*
X111012572Y-60739235D01*
X110988773Y-60745196D01*
X110964505Y-60748796D01*
X110940001Y-60750000D01*
X110039999Y-60750000D01*
X110015495Y-60748796D01*
X109991227Y-60745196D01*
X109967428Y-60739235D01*
X109944329Y-60730970D01*
X109922150Y-60720480D01*
X109901107Y-60707868D01*
X109881401Y-60693253D01*
X109863223Y-60676777D01*
X109846747Y-60658599D01*
X109832132Y-60638893D01*
X109819520Y-60617850D01*
X109809030Y-60595671D01*
X109800765Y-60572572D01*
X109794804Y-60548773D01*
X109791204Y-60524505D01*
X109790000Y-60500001D01*
X109790000Y-59799999D01*
X109791204Y-59775495D01*
X109794804Y-59751227D01*
X109800765Y-59727428D01*
X109809030Y-59704329D01*
X109819520Y-59682150D01*
X109832132Y-59661107D01*
X109846747Y-59641401D01*
X109863223Y-59623223D01*
X109881401Y-59606747D01*
X109901107Y-59592132D01*
X109922150Y-59579520D01*
X109944329Y-59569030D01*
X109967428Y-59560765D01*
X109991227Y-59554804D01*
X110015495Y-59551204D01*
X110039999Y-59550000D01*
X110940001Y-59550000D01*
X110964505Y-59551204D01*
G37*
G36*
X113504505Y-59551204D02*
G01*
X113528773Y-59554804D01*
X113552572Y-59560765D01*
X113575671Y-59569030D01*
X113597850Y-59579520D01*
X113618893Y-59592132D01*
X113638599Y-59606747D01*
X113656777Y-59623223D01*
X113673253Y-59641401D01*
X113687868Y-59661107D01*
X113700480Y-59682150D01*
X113710970Y-59704329D01*
X113719235Y-59727428D01*
X113725196Y-59751227D01*
X113728796Y-59775495D01*
X113730000Y-59799999D01*
X113730000Y-60500001D01*
X113728796Y-60524505D01*
X113725196Y-60548773D01*
X113719235Y-60572572D01*
X113710970Y-60595671D01*
X113700480Y-60617850D01*
X113687868Y-60638893D01*
X113673253Y-60658599D01*
X113656777Y-60676777D01*
X113638599Y-60693253D01*
X113618893Y-60707868D01*
X113597850Y-60720480D01*
X113575671Y-60730970D01*
X113552572Y-60739235D01*
X113528773Y-60745196D01*
X113504505Y-60748796D01*
X113480001Y-60750000D01*
X112579999Y-60750000D01*
X112555495Y-60748796D01*
X112531227Y-60745196D01*
X112507428Y-60739235D01*
X112484329Y-60730970D01*
X112462150Y-60720480D01*
X112441107Y-60707868D01*
X112421401Y-60693253D01*
X112403223Y-60676777D01*
X112386747Y-60658599D01*
X112372132Y-60638893D01*
X112359520Y-60617850D01*
X112349030Y-60595671D01*
X112340765Y-60572572D01*
X112334804Y-60548773D01*
X112331204Y-60524505D01*
X112330000Y-60500001D01*
X112330000Y-59799999D01*
X112331204Y-59775495D01*
X112334804Y-59751227D01*
X112340765Y-59727428D01*
X112349030Y-59704329D01*
X112359520Y-59682150D01*
X112372132Y-59661107D01*
X112386747Y-59641401D01*
X112403223Y-59623223D01*
X112421401Y-59606747D01*
X112441107Y-59592132D01*
X112462150Y-59579520D01*
X112484329Y-59569030D01*
X112507428Y-59560765D01*
X112531227Y-59554804D01*
X112555495Y-59551204D01*
X112579999Y-59550000D01*
X113480001Y-59550000D01*
X113504505Y-59551204D01*
G37*
G36*
X113504505Y-61551204D02*
G01*
X113528773Y-61554804D01*
X113552572Y-61560765D01*
X113575671Y-61569030D01*
X113597850Y-61579520D01*
X113618893Y-61592132D01*
X113638599Y-61606747D01*
X113656777Y-61623223D01*
X113673253Y-61641401D01*
X113687868Y-61661107D01*
X113700480Y-61682150D01*
X113710970Y-61704329D01*
X113719235Y-61727428D01*
X113725196Y-61751227D01*
X113728796Y-61775495D01*
X113730000Y-61799999D01*
X113730000Y-62500001D01*
X113728796Y-62524505D01*
X113725196Y-62548773D01*
X113719235Y-62572572D01*
X113710970Y-62595671D01*
X113700480Y-62617850D01*
X113687868Y-62638893D01*
X113673253Y-62658599D01*
X113656777Y-62676777D01*
X113638599Y-62693253D01*
X113618893Y-62707868D01*
X113597850Y-62720480D01*
X113575671Y-62730970D01*
X113552572Y-62739235D01*
X113528773Y-62745196D01*
X113504505Y-62748796D01*
X113480001Y-62750000D01*
X112579999Y-62750000D01*
X112555495Y-62748796D01*
X112531227Y-62745196D01*
X112507428Y-62739235D01*
X112484329Y-62730970D01*
X112462150Y-62720480D01*
X112441107Y-62707868D01*
X112421401Y-62693253D01*
X112403223Y-62676777D01*
X112386747Y-62658599D01*
X112372132Y-62638893D01*
X112359520Y-62617850D01*
X112349030Y-62595671D01*
X112340765Y-62572572D01*
X112334804Y-62548773D01*
X112331204Y-62524505D01*
X112330000Y-62500001D01*
X112330000Y-61799999D01*
X112331204Y-61775495D01*
X112334804Y-61751227D01*
X112340765Y-61727428D01*
X112349030Y-61704329D01*
X112359520Y-61682150D01*
X112372132Y-61661107D01*
X112386747Y-61641401D01*
X112403223Y-61623223D01*
X112421401Y-61606747D01*
X112441107Y-61592132D01*
X112462150Y-61579520D01*
X112484329Y-61569030D01*
X112507428Y-61560765D01*
X112531227Y-61554804D01*
X112555495Y-61551204D01*
X112579999Y-61550000D01*
X113480001Y-61550000D01*
X113504505Y-61551204D01*
G37*
D14*
X215500000Y-65910000D03*
X215500000Y-81410000D03*
D15*
X205900000Y-66810000D03*
D16*
X205900000Y-81410000D03*
D17*
X205400000Y-80260000D03*
X205400000Y-78060000D03*
X205400000Y-79160000D03*
X205400000Y-76960000D03*
X205400000Y-75860000D03*
X205400000Y-74760000D03*
X205400000Y-71460000D03*
X205400000Y-72560000D03*
X205400000Y-73660000D03*
D10*
X174466000Y-64872000D03*
X174466000Y-61572000D03*
X182086000Y-64745000D03*
X182086000Y-61445000D03*
X171926000Y-64872000D03*
X171926000Y-61572000D03*
X179546000Y-64745000D03*
X179546000Y-61445000D03*
M02*
