G04 #@! TF.GenerationSoftware,KiCad,Pcbnew,5.1.5+dfsg1-2build2*
G04 #@! TF.CreationDate,2024-06-21T19:04:03+01:00*
G04 #@! TF.ProjectId,desktop_esc,6465736b-746f-4705-9f65-73632e6b6963,rev?*
G04 #@! TF.SameCoordinates,Original*
G04 #@! TF.FileFunction,Soldermask,Bot*
G04 #@! TF.FilePolarity,Negative*
%FSLAX46Y46*%
G04 Gerber Fmt 4.6, Leading zero omitted, Abs format (unit mm)*
G04 Created by KiCad (PCBNEW 5.1.5+dfsg1-2build2) date 2024-06-21 19:04:03*
%MOMM*%
%LPD*%
G04 APERTURE LIST*
%ADD10C,0.100000*%
G04 APERTURE END LIST*
D10*
G36*
X118985512Y-129659927D02*
G01*
X119134812Y-129689624D01*
X119298784Y-129757544D01*
X119446354Y-129856147D01*
X119571853Y-129981646D01*
X119670456Y-130129216D01*
X119738376Y-130293188D01*
X119773000Y-130467259D01*
X119773000Y-130644741D01*
X119738376Y-130818812D01*
X119670456Y-130982784D01*
X119571853Y-131130354D01*
X119446354Y-131255853D01*
X119298784Y-131354456D01*
X119134812Y-131422376D01*
X118985512Y-131452073D01*
X118960742Y-131457000D01*
X118783258Y-131457000D01*
X118758488Y-131452073D01*
X118609188Y-131422376D01*
X118445216Y-131354456D01*
X118297646Y-131255853D01*
X118172147Y-131130354D01*
X118073544Y-130982784D01*
X118005624Y-130818812D01*
X117971000Y-130644741D01*
X117971000Y-130467259D01*
X118005624Y-130293188D01*
X118073544Y-130129216D01*
X118172147Y-129981646D01*
X118297646Y-129856147D01*
X118445216Y-129757544D01*
X118609188Y-129689624D01*
X118758488Y-129659927D01*
X118783258Y-129655000D01*
X118960742Y-129655000D01*
X118985512Y-129659927D01*
G37*
G36*
X117233000Y-131457000D02*
G01*
X115431000Y-131457000D01*
X115431000Y-129655000D01*
X117233000Y-129655000D01*
X117233000Y-131457000D01*
G37*
G36*
X100113512Y-124043927D02*
G01*
X100262812Y-124073624D01*
X100426784Y-124141544D01*
X100574354Y-124240147D01*
X100699853Y-124365646D01*
X100798456Y-124513216D01*
X100866376Y-124677188D01*
X100901000Y-124851259D01*
X100901000Y-125028741D01*
X100866376Y-125202812D01*
X100798456Y-125366784D01*
X100699853Y-125514354D01*
X100574354Y-125639853D01*
X100426784Y-125738456D01*
X100262812Y-125806376D01*
X100113512Y-125836073D01*
X100088742Y-125841000D01*
X99911258Y-125841000D01*
X99886488Y-125836073D01*
X99737188Y-125806376D01*
X99573216Y-125738456D01*
X99425646Y-125639853D01*
X99300147Y-125514354D01*
X99201544Y-125366784D01*
X99133624Y-125202812D01*
X99099000Y-125028741D01*
X99099000Y-124851259D01*
X99133624Y-124677188D01*
X99201544Y-124513216D01*
X99300147Y-124365646D01*
X99425646Y-124240147D01*
X99573216Y-124141544D01*
X99737188Y-124073624D01*
X99886488Y-124043927D01*
X99911258Y-124039000D01*
X100088742Y-124039000D01*
X100113512Y-124043927D01*
G37*
G36*
X100113512Y-121503927D02*
G01*
X100262812Y-121533624D01*
X100426784Y-121601544D01*
X100574354Y-121700147D01*
X100699853Y-121825646D01*
X100798456Y-121973216D01*
X100866376Y-122137188D01*
X100901000Y-122311259D01*
X100901000Y-122488741D01*
X100866376Y-122662812D01*
X100798456Y-122826784D01*
X100699853Y-122974354D01*
X100574354Y-123099853D01*
X100426784Y-123198456D01*
X100262812Y-123266376D01*
X100113512Y-123296073D01*
X100088742Y-123301000D01*
X99911258Y-123301000D01*
X99886488Y-123296073D01*
X99737188Y-123266376D01*
X99573216Y-123198456D01*
X99425646Y-123099853D01*
X99300147Y-122974354D01*
X99201544Y-122826784D01*
X99133624Y-122662812D01*
X99099000Y-122488741D01*
X99099000Y-122311259D01*
X99133624Y-122137188D01*
X99201544Y-121973216D01*
X99300147Y-121825646D01*
X99425646Y-121700147D01*
X99573216Y-121601544D01*
X99737188Y-121533624D01*
X99886488Y-121503927D01*
X99911258Y-121499000D01*
X100088742Y-121499000D01*
X100113512Y-121503927D01*
G37*
G36*
X184543512Y-120793927D02*
G01*
X184692812Y-120823624D01*
X184856784Y-120891544D01*
X185004354Y-120990147D01*
X185129853Y-121115646D01*
X185228456Y-121263216D01*
X185296376Y-121427188D01*
X185331000Y-121601259D01*
X185331000Y-121778741D01*
X185296376Y-121952812D01*
X185228456Y-122116784D01*
X185129853Y-122264354D01*
X185004354Y-122389853D01*
X184856784Y-122488456D01*
X184692812Y-122556376D01*
X184543512Y-122586073D01*
X184518742Y-122591000D01*
X184341258Y-122591000D01*
X184316488Y-122586073D01*
X184167188Y-122556376D01*
X184003216Y-122488456D01*
X183855646Y-122389853D01*
X183730147Y-122264354D01*
X183631544Y-122116784D01*
X183563624Y-121952812D01*
X183529000Y-121778741D01*
X183529000Y-121601259D01*
X183563624Y-121427188D01*
X183631544Y-121263216D01*
X183730147Y-121115646D01*
X183855646Y-120990147D01*
X184003216Y-120891544D01*
X184167188Y-120823624D01*
X184316488Y-120793927D01*
X184341258Y-120789000D01*
X184518742Y-120789000D01*
X184543512Y-120793927D01*
G37*
G36*
X142151000Y-122591000D02*
G01*
X140349000Y-122591000D01*
X140349000Y-120789000D01*
X142151000Y-120789000D01*
X142151000Y-122591000D01*
G37*
G36*
X143903512Y-120793927D02*
G01*
X144052812Y-120823624D01*
X144216784Y-120891544D01*
X144364354Y-120990147D01*
X144489853Y-121115646D01*
X144588456Y-121263216D01*
X144656376Y-121427188D01*
X144691000Y-121601259D01*
X144691000Y-121778741D01*
X144656376Y-121952812D01*
X144588456Y-122116784D01*
X144489853Y-122264354D01*
X144364354Y-122389853D01*
X144216784Y-122488456D01*
X144052812Y-122556376D01*
X143903512Y-122586073D01*
X143878742Y-122591000D01*
X143701258Y-122591000D01*
X143676488Y-122586073D01*
X143527188Y-122556376D01*
X143363216Y-122488456D01*
X143215646Y-122389853D01*
X143090147Y-122264354D01*
X142991544Y-122116784D01*
X142923624Y-121952812D01*
X142889000Y-121778741D01*
X142889000Y-121601259D01*
X142923624Y-121427188D01*
X142991544Y-121263216D01*
X143090147Y-121115646D01*
X143215646Y-120990147D01*
X143363216Y-120891544D01*
X143527188Y-120823624D01*
X143676488Y-120793927D01*
X143701258Y-120789000D01*
X143878742Y-120789000D01*
X143903512Y-120793927D01*
G37*
G36*
X146443512Y-120793927D02*
G01*
X146592812Y-120823624D01*
X146756784Y-120891544D01*
X146904354Y-120990147D01*
X147029853Y-121115646D01*
X147128456Y-121263216D01*
X147196376Y-121427188D01*
X147231000Y-121601259D01*
X147231000Y-121778741D01*
X147196376Y-121952812D01*
X147128456Y-122116784D01*
X147029853Y-122264354D01*
X146904354Y-122389853D01*
X146756784Y-122488456D01*
X146592812Y-122556376D01*
X146443512Y-122586073D01*
X146418742Y-122591000D01*
X146241258Y-122591000D01*
X146216488Y-122586073D01*
X146067188Y-122556376D01*
X145903216Y-122488456D01*
X145755646Y-122389853D01*
X145630147Y-122264354D01*
X145531544Y-122116784D01*
X145463624Y-121952812D01*
X145429000Y-121778741D01*
X145429000Y-121601259D01*
X145463624Y-121427188D01*
X145531544Y-121263216D01*
X145630147Y-121115646D01*
X145755646Y-120990147D01*
X145903216Y-120891544D01*
X146067188Y-120823624D01*
X146216488Y-120793927D01*
X146241258Y-120789000D01*
X146418742Y-120789000D01*
X146443512Y-120793927D01*
G37*
G36*
X148983512Y-120793927D02*
G01*
X149132812Y-120823624D01*
X149296784Y-120891544D01*
X149444354Y-120990147D01*
X149569853Y-121115646D01*
X149668456Y-121263216D01*
X149736376Y-121427188D01*
X149771000Y-121601259D01*
X149771000Y-121778741D01*
X149736376Y-121952812D01*
X149668456Y-122116784D01*
X149569853Y-122264354D01*
X149444354Y-122389853D01*
X149296784Y-122488456D01*
X149132812Y-122556376D01*
X148983512Y-122586073D01*
X148958742Y-122591000D01*
X148781258Y-122591000D01*
X148756488Y-122586073D01*
X148607188Y-122556376D01*
X148443216Y-122488456D01*
X148295646Y-122389853D01*
X148170147Y-122264354D01*
X148071544Y-122116784D01*
X148003624Y-121952812D01*
X147969000Y-121778741D01*
X147969000Y-121601259D01*
X148003624Y-121427188D01*
X148071544Y-121263216D01*
X148170147Y-121115646D01*
X148295646Y-120990147D01*
X148443216Y-120891544D01*
X148607188Y-120823624D01*
X148756488Y-120793927D01*
X148781258Y-120789000D01*
X148958742Y-120789000D01*
X148983512Y-120793927D01*
G37*
G36*
X151523512Y-120793927D02*
G01*
X151672812Y-120823624D01*
X151836784Y-120891544D01*
X151984354Y-120990147D01*
X152109853Y-121115646D01*
X152208456Y-121263216D01*
X152276376Y-121427188D01*
X152311000Y-121601259D01*
X152311000Y-121778741D01*
X152276376Y-121952812D01*
X152208456Y-122116784D01*
X152109853Y-122264354D01*
X151984354Y-122389853D01*
X151836784Y-122488456D01*
X151672812Y-122556376D01*
X151523512Y-122586073D01*
X151498742Y-122591000D01*
X151321258Y-122591000D01*
X151296488Y-122586073D01*
X151147188Y-122556376D01*
X150983216Y-122488456D01*
X150835646Y-122389853D01*
X150710147Y-122264354D01*
X150611544Y-122116784D01*
X150543624Y-121952812D01*
X150509000Y-121778741D01*
X150509000Y-121601259D01*
X150543624Y-121427188D01*
X150611544Y-121263216D01*
X150710147Y-121115646D01*
X150835646Y-120990147D01*
X150983216Y-120891544D01*
X151147188Y-120823624D01*
X151296488Y-120793927D01*
X151321258Y-120789000D01*
X151498742Y-120789000D01*
X151523512Y-120793927D01*
G37*
G36*
X154851000Y-122591000D02*
G01*
X153049000Y-122591000D01*
X153049000Y-120789000D01*
X154851000Y-120789000D01*
X154851000Y-122591000D01*
G37*
G36*
X156603512Y-120793927D02*
G01*
X156752812Y-120823624D01*
X156916784Y-120891544D01*
X157064354Y-120990147D01*
X157189853Y-121115646D01*
X157288456Y-121263216D01*
X157356376Y-121427188D01*
X157391000Y-121601259D01*
X157391000Y-121778741D01*
X157356376Y-121952812D01*
X157288456Y-122116784D01*
X157189853Y-122264354D01*
X157064354Y-122389853D01*
X156916784Y-122488456D01*
X156752812Y-122556376D01*
X156603512Y-122586073D01*
X156578742Y-122591000D01*
X156401258Y-122591000D01*
X156376488Y-122586073D01*
X156227188Y-122556376D01*
X156063216Y-122488456D01*
X155915646Y-122389853D01*
X155790147Y-122264354D01*
X155691544Y-122116784D01*
X155623624Y-121952812D01*
X155589000Y-121778741D01*
X155589000Y-121601259D01*
X155623624Y-121427188D01*
X155691544Y-121263216D01*
X155790147Y-121115646D01*
X155915646Y-120990147D01*
X156063216Y-120891544D01*
X156227188Y-120823624D01*
X156376488Y-120793927D01*
X156401258Y-120789000D01*
X156578742Y-120789000D01*
X156603512Y-120793927D01*
G37*
G36*
X159143512Y-120793927D02*
G01*
X159292812Y-120823624D01*
X159456784Y-120891544D01*
X159604354Y-120990147D01*
X159729853Y-121115646D01*
X159828456Y-121263216D01*
X159896376Y-121427188D01*
X159931000Y-121601259D01*
X159931000Y-121778741D01*
X159896376Y-121952812D01*
X159828456Y-122116784D01*
X159729853Y-122264354D01*
X159604354Y-122389853D01*
X159456784Y-122488456D01*
X159292812Y-122556376D01*
X159143512Y-122586073D01*
X159118742Y-122591000D01*
X158941258Y-122591000D01*
X158916488Y-122586073D01*
X158767188Y-122556376D01*
X158603216Y-122488456D01*
X158455646Y-122389853D01*
X158330147Y-122264354D01*
X158231544Y-122116784D01*
X158163624Y-121952812D01*
X158129000Y-121778741D01*
X158129000Y-121601259D01*
X158163624Y-121427188D01*
X158231544Y-121263216D01*
X158330147Y-121115646D01*
X158455646Y-120990147D01*
X158603216Y-120891544D01*
X158767188Y-120823624D01*
X158916488Y-120793927D01*
X158941258Y-120789000D01*
X159118742Y-120789000D01*
X159143512Y-120793927D01*
G37*
G36*
X161683512Y-120793927D02*
G01*
X161832812Y-120823624D01*
X161996784Y-120891544D01*
X162144354Y-120990147D01*
X162269853Y-121115646D01*
X162368456Y-121263216D01*
X162436376Y-121427188D01*
X162471000Y-121601259D01*
X162471000Y-121778741D01*
X162436376Y-121952812D01*
X162368456Y-122116784D01*
X162269853Y-122264354D01*
X162144354Y-122389853D01*
X161996784Y-122488456D01*
X161832812Y-122556376D01*
X161683512Y-122586073D01*
X161658742Y-122591000D01*
X161481258Y-122591000D01*
X161456488Y-122586073D01*
X161307188Y-122556376D01*
X161143216Y-122488456D01*
X160995646Y-122389853D01*
X160870147Y-122264354D01*
X160771544Y-122116784D01*
X160703624Y-121952812D01*
X160669000Y-121778741D01*
X160669000Y-121601259D01*
X160703624Y-121427188D01*
X160771544Y-121263216D01*
X160870147Y-121115646D01*
X160995646Y-120990147D01*
X161143216Y-120891544D01*
X161307188Y-120823624D01*
X161456488Y-120793927D01*
X161481258Y-120789000D01*
X161658742Y-120789000D01*
X161683512Y-120793927D01*
G37*
G36*
X138823512Y-120793927D02*
G01*
X138972812Y-120823624D01*
X139136784Y-120891544D01*
X139284354Y-120990147D01*
X139409853Y-121115646D01*
X139508456Y-121263216D01*
X139576376Y-121427188D01*
X139611000Y-121601259D01*
X139611000Y-121778741D01*
X139576376Y-121952812D01*
X139508456Y-122116784D01*
X139409853Y-122264354D01*
X139284354Y-122389853D01*
X139136784Y-122488456D01*
X138972812Y-122556376D01*
X138823512Y-122586073D01*
X138798742Y-122591000D01*
X138621258Y-122591000D01*
X138596488Y-122586073D01*
X138447188Y-122556376D01*
X138283216Y-122488456D01*
X138135646Y-122389853D01*
X138010147Y-122264354D01*
X137911544Y-122116784D01*
X137843624Y-121952812D01*
X137809000Y-121778741D01*
X137809000Y-121601259D01*
X137843624Y-121427188D01*
X137911544Y-121263216D01*
X138010147Y-121115646D01*
X138135646Y-120990147D01*
X138283216Y-120891544D01*
X138447188Y-120823624D01*
X138596488Y-120793927D01*
X138621258Y-120789000D01*
X138798742Y-120789000D01*
X138823512Y-120793927D01*
G37*
G36*
X167551000Y-122591000D02*
G01*
X165749000Y-122591000D01*
X165749000Y-120789000D01*
X167551000Y-120789000D01*
X167551000Y-122591000D01*
G37*
G36*
X169303512Y-120793927D02*
G01*
X169452812Y-120823624D01*
X169616784Y-120891544D01*
X169764354Y-120990147D01*
X169889853Y-121115646D01*
X169988456Y-121263216D01*
X170056376Y-121427188D01*
X170091000Y-121601259D01*
X170091000Y-121778741D01*
X170056376Y-121952812D01*
X169988456Y-122116784D01*
X169889853Y-122264354D01*
X169764354Y-122389853D01*
X169616784Y-122488456D01*
X169452812Y-122556376D01*
X169303512Y-122586073D01*
X169278742Y-122591000D01*
X169101258Y-122591000D01*
X169076488Y-122586073D01*
X168927188Y-122556376D01*
X168763216Y-122488456D01*
X168615646Y-122389853D01*
X168490147Y-122264354D01*
X168391544Y-122116784D01*
X168323624Y-121952812D01*
X168289000Y-121778741D01*
X168289000Y-121601259D01*
X168323624Y-121427188D01*
X168391544Y-121263216D01*
X168490147Y-121115646D01*
X168615646Y-120990147D01*
X168763216Y-120891544D01*
X168927188Y-120823624D01*
X169076488Y-120793927D01*
X169101258Y-120789000D01*
X169278742Y-120789000D01*
X169303512Y-120793927D01*
G37*
G36*
X171843512Y-120793927D02*
G01*
X171992812Y-120823624D01*
X172156784Y-120891544D01*
X172304354Y-120990147D01*
X172429853Y-121115646D01*
X172528456Y-121263216D01*
X172596376Y-121427188D01*
X172631000Y-121601259D01*
X172631000Y-121778741D01*
X172596376Y-121952812D01*
X172528456Y-122116784D01*
X172429853Y-122264354D01*
X172304354Y-122389853D01*
X172156784Y-122488456D01*
X171992812Y-122556376D01*
X171843512Y-122586073D01*
X171818742Y-122591000D01*
X171641258Y-122591000D01*
X171616488Y-122586073D01*
X171467188Y-122556376D01*
X171303216Y-122488456D01*
X171155646Y-122389853D01*
X171030147Y-122264354D01*
X170931544Y-122116784D01*
X170863624Y-121952812D01*
X170829000Y-121778741D01*
X170829000Y-121601259D01*
X170863624Y-121427188D01*
X170931544Y-121263216D01*
X171030147Y-121115646D01*
X171155646Y-120990147D01*
X171303216Y-120891544D01*
X171467188Y-120823624D01*
X171616488Y-120793927D01*
X171641258Y-120789000D01*
X171818742Y-120789000D01*
X171843512Y-120793927D01*
G37*
G36*
X174383512Y-120793927D02*
G01*
X174532812Y-120823624D01*
X174696784Y-120891544D01*
X174844354Y-120990147D01*
X174969853Y-121115646D01*
X175068456Y-121263216D01*
X175136376Y-121427188D01*
X175171000Y-121601259D01*
X175171000Y-121778741D01*
X175136376Y-121952812D01*
X175068456Y-122116784D01*
X174969853Y-122264354D01*
X174844354Y-122389853D01*
X174696784Y-122488456D01*
X174532812Y-122556376D01*
X174383512Y-122586073D01*
X174358742Y-122591000D01*
X174181258Y-122591000D01*
X174156488Y-122586073D01*
X174007188Y-122556376D01*
X173843216Y-122488456D01*
X173695646Y-122389853D01*
X173570147Y-122264354D01*
X173471544Y-122116784D01*
X173403624Y-121952812D01*
X173369000Y-121778741D01*
X173369000Y-121601259D01*
X173403624Y-121427188D01*
X173471544Y-121263216D01*
X173570147Y-121115646D01*
X173695646Y-120990147D01*
X173843216Y-120891544D01*
X174007188Y-120823624D01*
X174156488Y-120793927D01*
X174181258Y-120789000D01*
X174358742Y-120789000D01*
X174383512Y-120793927D01*
G37*
G36*
X176923512Y-120793927D02*
G01*
X177072812Y-120823624D01*
X177236784Y-120891544D01*
X177384354Y-120990147D01*
X177509853Y-121115646D01*
X177608456Y-121263216D01*
X177676376Y-121427188D01*
X177711000Y-121601259D01*
X177711000Y-121778741D01*
X177676376Y-121952812D01*
X177608456Y-122116784D01*
X177509853Y-122264354D01*
X177384354Y-122389853D01*
X177236784Y-122488456D01*
X177072812Y-122556376D01*
X176923512Y-122586073D01*
X176898742Y-122591000D01*
X176721258Y-122591000D01*
X176696488Y-122586073D01*
X176547188Y-122556376D01*
X176383216Y-122488456D01*
X176235646Y-122389853D01*
X176110147Y-122264354D01*
X176011544Y-122116784D01*
X175943624Y-121952812D01*
X175909000Y-121778741D01*
X175909000Y-121601259D01*
X175943624Y-121427188D01*
X176011544Y-121263216D01*
X176110147Y-121115646D01*
X176235646Y-120990147D01*
X176383216Y-120891544D01*
X176547188Y-120823624D01*
X176696488Y-120793927D01*
X176721258Y-120789000D01*
X176898742Y-120789000D01*
X176923512Y-120793927D01*
G37*
G36*
X180251000Y-122591000D02*
G01*
X178449000Y-122591000D01*
X178449000Y-120789000D01*
X180251000Y-120789000D01*
X180251000Y-122591000D01*
G37*
G36*
X182003512Y-120793927D02*
G01*
X182152812Y-120823624D01*
X182316784Y-120891544D01*
X182464354Y-120990147D01*
X182589853Y-121115646D01*
X182688456Y-121263216D01*
X182756376Y-121427188D01*
X182791000Y-121601259D01*
X182791000Y-121778741D01*
X182756376Y-121952812D01*
X182688456Y-122116784D01*
X182589853Y-122264354D01*
X182464354Y-122389853D01*
X182316784Y-122488456D01*
X182152812Y-122556376D01*
X182003512Y-122586073D01*
X181978742Y-122591000D01*
X181801258Y-122591000D01*
X181776488Y-122586073D01*
X181627188Y-122556376D01*
X181463216Y-122488456D01*
X181315646Y-122389853D01*
X181190147Y-122264354D01*
X181091544Y-122116784D01*
X181023624Y-121952812D01*
X180989000Y-121778741D01*
X180989000Y-121601259D01*
X181023624Y-121427188D01*
X181091544Y-121263216D01*
X181190147Y-121115646D01*
X181315646Y-120990147D01*
X181463216Y-120891544D01*
X181627188Y-120823624D01*
X181776488Y-120793927D01*
X181801258Y-120789000D01*
X181978742Y-120789000D01*
X182003512Y-120793927D01*
G37*
G36*
X136283512Y-120793927D02*
G01*
X136432812Y-120823624D01*
X136596784Y-120891544D01*
X136744354Y-120990147D01*
X136869853Y-121115646D01*
X136968456Y-121263216D01*
X137036376Y-121427188D01*
X137071000Y-121601259D01*
X137071000Y-121778741D01*
X137036376Y-121952812D01*
X136968456Y-122116784D01*
X136869853Y-122264354D01*
X136744354Y-122389853D01*
X136596784Y-122488456D01*
X136432812Y-122556376D01*
X136283512Y-122586073D01*
X136258742Y-122591000D01*
X136081258Y-122591000D01*
X136056488Y-122586073D01*
X135907188Y-122556376D01*
X135743216Y-122488456D01*
X135595646Y-122389853D01*
X135470147Y-122264354D01*
X135371544Y-122116784D01*
X135303624Y-121952812D01*
X135269000Y-121778741D01*
X135269000Y-121601259D01*
X135303624Y-121427188D01*
X135371544Y-121263216D01*
X135470147Y-121115646D01*
X135595646Y-120990147D01*
X135743216Y-120891544D01*
X135907188Y-120823624D01*
X136056488Y-120793927D01*
X136081258Y-120789000D01*
X136258742Y-120789000D01*
X136283512Y-120793927D01*
G37*
G36*
X164223512Y-120793927D02*
G01*
X164372812Y-120823624D01*
X164536784Y-120891544D01*
X164684354Y-120990147D01*
X164809853Y-121115646D01*
X164908456Y-121263216D01*
X164976376Y-121427188D01*
X165011000Y-121601259D01*
X165011000Y-121778741D01*
X164976376Y-121952812D01*
X164908456Y-122116784D01*
X164809853Y-122264354D01*
X164684354Y-122389853D01*
X164536784Y-122488456D01*
X164372812Y-122556376D01*
X164223512Y-122586073D01*
X164198742Y-122591000D01*
X164021258Y-122591000D01*
X163996488Y-122586073D01*
X163847188Y-122556376D01*
X163683216Y-122488456D01*
X163535646Y-122389853D01*
X163410147Y-122264354D01*
X163311544Y-122116784D01*
X163243624Y-121952812D01*
X163209000Y-121778741D01*
X163209000Y-121601259D01*
X163243624Y-121427188D01*
X163311544Y-121263216D01*
X163410147Y-121115646D01*
X163535646Y-120990147D01*
X163683216Y-120891544D01*
X163847188Y-120823624D01*
X163996488Y-120793927D01*
X164021258Y-120789000D01*
X164198742Y-120789000D01*
X164223512Y-120793927D01*
G37*
G36*
X100113512Y-118963927D02*
G01*
X100262812Y-118993624D01*
X100426784Y-119061544D01*
X100574354Y-119160147D01*
X100699853Y-119285646D01*
X100798456Y-119433216D01*
X100866376Y-119597188D01*
X100901000Y-119771259D01*
X100901000Y-119948741D01*
X100866376Y-120122812D01*
X100798456Y-120286784D01*
X100699853Y-120434354D01*
X100574354Y-120559853D01*
X100426784Y-120658456D01*
X100262812Y-120726376D01*
X100113512Y-120756073D01*
X100088742Y-120761000D01*
X99911258Y-120761000D01*
X99886488Y-120756073D01*
X99737188Y-120726376D01*
X99573216Y-120658456D01*
X99425646Y-120559853D01*
X99300147Y-120434354D01*
X99201544Y-120286784D01*
X99133624Y-120122812D01*
X99099000Y-119948741D01*
X99099000Y-119771259D01*
X99133624Y-119597188D01*
X99201544Y-119433216D01*
X99300147Y-119285646D01*
X99425646Y-119160147D01*
X99573216Y-119061544D01*
X99737188Y-118993624D01*
X99886488Y-118963927D01*
X99911258Y-118959000D01*
X100088742Y-118959000D01*
X100113512Y-118963927D01*
G37*
G36*
X100113512Y-116423927D02*
G01*
X100262812Y-116453624D01*
X100426784Y-116521544D01*
X100574354Y-116620147D01*
X100699853Y-116745646D01*
X100798456Y-116893216D01*
X100866376Y-117057188D01*
X100901000Y-117231259D01*
X100901000Y-117408741D01*
X100866376Y-117582812D01*
X100798456Y-117746784D01*
X100699853Y-117894354D01*
X100574354Y-118019853D01*
X100426784Y-118118456D01*
X100262812Y-118186376D01*
X100113512Y-118216073D01*
X100088742Y-118221000D01*
X99911258Y-118221000D01*
X99886488Y-118216073D01*
X99737188Y-118186376D01*
X99573216Y-118118456D01*
X99425646Y-118019853D01*
X99300147Y-117894354D01*
X99201544Y-117746784D01*
X99133624Y-117582812D01*
X99099000Y-117408741D01*
X99099000Y-117231259D01*
X99133624Y-117057188D01*
X99201544Y-116893216D01*
X99300147Y-116745646D01*
X99425646Y-116620147D01*
X99573216Y-116521544D01*
X99737188Y-116453624D01*
X99886488Y-116423927D01*
X99911258Y-116419000D01*
X100088742Y-116419000D01*
X100113512Y-116423927D01*
G37*
G36*
X184577395Y-114610546D02*
G01*
X184750466Y-114682234D01*
X184798594Y-114714392D01*
X184906227Y-114786310D01*
X185038690Y-114918773D01*
X185091081Y-114997182D01*
X185142766Y-115074534D01*
X185214454Y-115247605D01*
X185251000Y-115431333D01*
X185251000Y-115618667D01*
X185214454Y-115802395D01*
X185142766Y-115975466D01*
X185142765Y-115975467D01*
X185038690Y-116131227D01*
X184906227Y-116263690D01*
X184827818Y-116316081D01*
X184750466Y-116367766D01*
X184577395Y-116439454D01*
X184393667Y-116476000D01*
X184206333Y-116476000D01*
X184022605Y-116439454D01*
X183849534Y-116367766D01*
X183772182Y-116316081D01*
X183693773Y-116263690D01*
X183561310Y-116131227D01*
X183457235Y-115975467D01*
X183457234Y-115975466D01*
X183385546Y-115802395D01*
X183349000Y-115618667D01*
X183349000Y-115431333D01*
X183385546Y-115247605D01*
X183457234Y-115074534D01*
X183508919Y-114997182D01*
X183561310Y-114918773D01*
X183693773Y-114786310D01*
X183801406Y-114714392D01*
X183849534Y-114682234D01*
X184022605Y-114610546D01*
X184206333Y-114574000D01*
X184393667Y-114574000D01*
X184577395Y-114610546D01*
G37*
G36*
X136513512Y-114443927D02*
G01*
X136662812Y-114473624D01*
X136826784Y-114541544D01*
X136974354Y-114640147D01*
X137099853Y-114765646D01*
X137198456Y-114913216D01*
X137266376Y-115077188D01*
X137296073Y-115226488D01*
X137301000Y-115251258D01*
X137301000Y-115428742D01*
X137300484Y-115431335D01*
X137266376Y-115602812D01*
X137198456Y-115766784D01*
X137099853Y-115914354D01*
X136974354Y-116039853D01*
X136826784Y-116138456D01*
X136662812Y-116206376D01*
X136513512Y-116236073D01*
X136488742Y-116241000D01*
X136311258Y-116241000D01*
X136286488Y-116236073D01*
X136137188Y-116206376D01*
X135973216Y-116138456D01*
X135825646Y-116039853D01*
X135700147Y-115914354D01*
X135601544Y-115766784D01*
X135533624Y-115602812D01*
X135499516Y-115431335D01*
X135499000Y-115428742D01*
X135499000Y-115251258D01*
X135503927Y-115226488D01*
X135533624Y-115077188D01*
X135601544Y-114913216D01*
X135700147Y-114765646D01*
X135825646Y-114640147D01*
X135973216Y-114541544D01*
X136137188Y-114473624D01*
X136286488Y-114443927D01*
X136311258Y-114439000D01*
X136488742Y-114439000D01*
X136513512Y-114443927D01*
G37*
G36*
X127393000Y-116217000D02*
G01*
X125591000Y-116217000D01*
X125591000Y-114415000D01*
X127393000Y-114415000D01*
X127393000Y-116217000D01*
G37*
G36*
X181503642Y-114454781D02*
G01*
X181649414Y-114515162D01*
X181649416Y-114515163D01*
X181780608Y-114602822D01*
X181892178Y-114714392D01*
X181979837Y-114845584D01*
X181979838Y-114845586D01*
X182040219Y-114991358D01*
X182071000Y-115146107D01*
X182071000Y-115303893D01*
X182040219Y-115458642D01*
X181979838Y-115604414D01*
X181979837Y-115604416D01*
X181892178Y-115735608D01*
X181780608Y-115847178D01*
X181649416Y-115934837D01*
X181649415Y-115934838D01*
X181649414Y-115934838D01*
X181503642Y-115995219D01*
X181348893Y-116026000D01*
X181191107Y-116026000D01*
X181036358Y-115995219D01*
X180890586Y-115934838D01*
X180890585Y-115934838D01*
X180890584Y-115934837D01*
X180759392Y-115847178D01*
X180647822Y-115735608D01*
X180560163Y-115604416D01*
X180560162Y-115604414D01*
X180499781Y-115458642D01*
X180469000Y-115303893D01*
X180469000Y-115146107D01*
X180499781Y-114991358D01*
X180560162Y-114845586D01*
X180560163Y-114845584D01*
X180647822Y-114714392D01*
X180759392Y-114602822D01*
X180890584Y-114515163D01*
X180890586Y-114515162D01*
X181036358Y-114454781D01*
X181191107Y-114424000D01*
X181348893Y-114424000D01*
X181503642Y-114454781D01*
G37*
G36*
X100113512Y-113883927D02*
G01*
X100262812Y-113913624D01*
X100426784Y-113981544D01*
X100574354Y-114080147D01*
X100699853Y-114205646D01*
X100798456Y-114353216D01*
X100866376Y-114517188D01*
X100901000Y-114691259D01*
X100901000Y-114868741D01*
X100866376Y-115042812D01*
X100798456Y-115206784D01*
X100699853Y-115354354D01*
X100574354Y-115479853D01*
X100426784Y-115578456D01*
X100262812Y-115646376D01*
X100113512Y-115676073D01*
X100088742Y-115681000D01*
X99911258Y-115681000D01*
X99886488Y-115676073D01*
X99737188Y-115646376D01*
X99573216Y-115578456D01*
X99425646Y-115479853D01*
X99300147Y-115354354D01*
X99201544Y-115206784D01*
X99133624Y-115042812D01*
X99099000Y-114868741D01*
X99099000Y-114691259D01*
X99133624Y-114517188D01*
X99201544Y-114353216D01*
X99300147Y-114205646D01*
X99425646Y-114080147D01*
X99573216Y-113981544D01*
X99737188Y-113913624D01*
X99886488Y-113883927D01*
X99911258Y-113879000D01*
X100088742Y-113879000D01*
X100113512Y-113883927D01*
G37*
G36*
X137301000Y-113701000D02*
G01*
X135499000Y-113701000D01*
X135499000Y-111899000D01*
X137301000Y-111899000D01*
X137301000Y-113701000D01*
G37*
G36*
X126605512Y-111879927D02*
G01*
X126754812Y-111909624D01*
X126918784Y-111977544D01*
X127066354Y-112076147D01*
X127191853Y-112201646D01*
X127290456Y-112349216D01*
X127358376Y-112513188D01*
X127393000Y-112687259D01*
X127393000Y-112864741D01*
X127358376Y-113038812D01*
X127290456Y-113202784D01*
X127191853Y-113350354D01*
X127066354Y-113475853D01*
X126918784Y-113574456D01*
X126754812Y-113642376D01*
X126605512Y-113672073D01*
X126580742Y-113677000D01*
X126403258Y-113677000D01*
X126378488Y-113672073D01*
X126229188Y-113642376D01*
X126065216Y-113574456D01*
X125917646Y-113475853D01*
X125792147Y-113350354D01*
X125693544Y-113202784D01*
X125625624Y-113038812D01*
X125591000Y-112864741D01*
X125591000Y-112687259D01*
X125625624Y-112513188D01*
X125693544Y-112349216D01*
X125792147Y-112201646D01*
X125917646Y-112076147D01*
X126065216Y-111977544D01*
X126229188Y-111909624D01*
X126378488Y-111879927D01*
X126403258Y-111875000D01*
X126580742Y-111875000D01*
X126605512Y-111879927D01*
G37*
G36*
X100113512Y-111343927D02*
G01*
X100262812Y-111373624D01*
X100426784Y-111441544D01*
X100574354Y-111540147D01*
X100699853Y-111665646D01*
X100798456Y-111813216D01*
X100866376Y-111977188D01*
X100901000Y-112151259D01*
X100901000Y-112328741D01*
X100866376Y-112502812D01*
X100798456Y-112666784D01*
X100699853Y-112814354D01*
X100574354Y-112939853D01*
X100426784Y-113038456D01*
X100262812Y-113106376D01*
X100113512Y-113136073D01*
X100088742Y-113141000D01*
X99911258Y-113141000D01*
X99886488Y-113136073D01*
X99737188Y-113106376D01*
X99573216Y-113038456D01*
X99425646Y-112939853D01*
X99300147Y-112814354D01*
X99201544Y-112666784D01*
X99133624Y-112502812D01*
X99099000Y-112328741D01*
X99099000Y-112151259D01*
X99133624Y-111977188D01*
X99201544Y-111813216D01*
X99300147Y-111665646D01*
X99425646Y-111540147D01*
X99573216Y-111441544D01*
X99737188Y-111373624D01*
X99886488Y-111343927D01*
X99911258Y-111339000D01*
X100088742Y-111339000D01*
X100113512Y-111343927D01*
G37*
G36*
X181503642Y-109604781D02*
G01*
X181640928Y-109661647D01*
X181649416Y-109665163D01*
X181780608Y-109752822D01*
X181892178Y-109864392D01*
X181970316Y-109981335D01*
X181979838Y-109995586D01*
X182040219Y-110141358D01*
X182071000Y-110296107D01*
X182071000Y-110453893D01*
X182040219Y-110608642D01*
X182010154Y-110681225D01*
X181979837Y-110754416D01*
X181892178Y-110885608D01*
X181780608Y-110997178D01*
X181649416Y-111084837D01*
X181649415Y-111084838D01*
X181649414Y-111084838D01*
X181503642Y-111145219D01*
X181348893Y-111176000D01*
X181191107Y-111176000D01*
X181036358Y-111145219D01*
X180890586Y-111084838D01*
X180890585Y-111084838D01*
X180890584Y-111084837D01*
X180759392Y-110997178D01*
X180647822Y-110885608D01*
X180560163Y-110754416D01*
X180529846Y-110681225D01*
X180499781Y-110608642D01*
X180469000Y-110453893D01*
X180469000Y-110296107D01*
X180499781Y-110141358D01*
X180560162Y-109995586D01*
X180569684Y-109981335D01*
X180647822Y-109864392D01*
X180759392Y-109752822D01*
X180890584Y-109665163D01*
X180899072Y-109661647D01*
X181036358Y-109604781D01*
X181191107Y-109574000D01*
X181348893Y-109574000D01*
X181503642Y-109604781D01*
G37*
G36*
X136513512Y-109363927D02*
G01*
X136662812Y-109393624D01*
X136826784Y-109461544D01*
X136974354Y-109560147D01*
X137099853Y-109685646D01*
X137198456Y-109833216D01*
X137266376Y-109997188D01*
X137295052Y-110141357D01*
X137300485Y-110168667D01*
X137301000Y-110171259D01*
X137301000Y-110348741D01*
X137266376Y-110522812D01*
X137198456Y-110686784D01*
X137099853Y-110834354D01*
X136974354Y-110959853D01*
X136826784Y-111058456D01*
X136662812Y-111126376D01*
X136513512Y-111156073D01*
X136488742Y-111161000D01*
X136311258Y-111161000D01*
X136286488Y-111156073D01*
X136137188Y-111126376D01*
X135973216Y-111058456D01*
X135825646Y-110959853D01*
X135700147Y-110834354D01*
X135601544Y-110686784D01*
X135533624Y-110522812D01*
X135499000Y-110348741D01*
X135499000Y-110171259D01*
X135499516Y-110168667D01*
X135504948Y-110141357D01*
X135533624Y-109997188D01*
X135601544Y-109833216D01*
X135700147Y-109685646D01*
X135825646Y-109560147D01*
X135973216Y-109461544D01*
X136137188Y-109393624D01*
X136286488Y-109363927D01*
X136311258Y-109359000D01*
X136488742Y-109359000D01*
X136513512Y-109363927D01*
G37*
G36*
X126605512Y-109339927D02*
G01*
X126754812Y-109369624D01*
X126918784Y-109437544D01*
X127066354Y-109536147D01*
X127191853Y-109661646D01*
X127290456Y-109809216D01*
X127358376Y-109973188D01*
X127393000Y-110147259D01*
X127393000Y-110324741D01*
X127358376Y-110498812D01*
X127290456Y-110662784D01*
X127191853Y-110810354D01*
X127066354Y-110935853D01*
X126918784Y-111034456D01*
X126754812Y-111102376D01*
X126605512Y-111132073D01*
X126580742Y-111137000D01*
X126403258Y-111137000D01*
X126378488Y-111132073D01*
X126229188Y-111102376D01*
X126065216Y-111034456D01*
X125917646Y-110935853D01*
X125792147Y-110810354D01*
X125693544Y-110662784D01*
X125625624Y-110498812D01*
X125591000Y-110324741D01*
X125591000Y-110147259D01*
X125625624Y-109973188D01*
X125693544Y-109809216D01*
X125792147Y-109661646D01*
X125917646Y-109536147D01*
X126065216Y-109437544D01*
X126229188Y-109369624D01*
X126378488Y-109339927D01*
X126403258Y-109335000D01*
X126580742Y-109335000D01*
X126605512Y-109339927D01*
G37*
G36*
X184577395Y-109160546D02*
G01*
X184750466Y-109232234D01*
X184750467Y-109232235D01*
X184906227Y-109336310D01*
X185038690Y-109468773D01*
X185038691Y-109468775D01*
X185142766Y-109624534D01*
X185214454Y-109797605D01*
X185251000Y-109981333D01*
X185251000Y-110168667D01*
X185214454Y-110352395D01*
X185142766Y-110525466D01*
X185142765Y-110525467D01*
X185038690Y-110681227D01*
X184906227Y-110813690D01*
X184875302Y-110834353D01*
X184750466Y-110917766D01*
X184577395Y-110989454D01*
X184393667Y-111026000D01*
X184206333Y-111026000D01*
X184022605Y-110989454D01*
X183849534Y-110917766D01*
X183724698Y-110834353D01*
X183693773Y-110813690D01*
X183561310Y-110681227D01*
X183457235Y-110525467D01*
X183457234Y-110525466D01*
X183385546Y-110352395D01*
X183349000Y-110168667D01*
X183349000Y-109981333D01*
X183385546Y-109797605D01*
X183457234Y-109624534D01*
X183561309Y-109468775D01*
X183561310Y-109468773D01*
X183693773Y-109336310D01*
X183849533Y-109232235D01*
X183849534Y-109232234D01*
X184022605Y-109160546D01*
X184206333Y-109124000D01*
X184393667Y-109124000D01*
X184577395Y-109160546D01*
G37*
G36*
X100113512Y-108803927D02*
G01*
X100262812Y-108833624D01*
X100426784Y-108901544D01*
X100574354Y-109000147D01*
X100699853Y-109125646D01*
X100798456Y-109273216D01*
X100866376Y-109437188D01*
X100893589Y-109574000D01*
X100899712Y-109604781D01*
X100901000Y-109611259D01*
X100901000Y-109788741D01*
X100866376Y-109962812D01*
X100798456Y-110126784D01*
X100699853Y-110274354D01*
X100574354Y-110399853D01*
X100426784Y-110498456D01*
X100262812Y-110566376D01*
X100113512Y-110596073D01*
X100088742Y-110601000D01*
X99911258Y-110601000D01*
X99886488Y-110596073D01*
X99737188Y-110566376D01*
X99573216Y-110498456D01*
X99425646Y-110399853D01*
X99300147Y-110274354D01*
X99201544Y-110126784D01*
X99133624Y-109962812D01*
X99099000Y-109788741D01*
X99099000Y-109611259D01*
X99100289Y-109604781D01*
X99106411Y-109574000D01*
X99133624Y-109437188D01*
X99201544Y-109273216D01*
X99300147Y-109125646D01*
X99425646Y-109000147D01*
X99573216Y-108901544D01*
X99737188Y-108833624D01*
X99886488Y-108803927D01*
X99911258Y-108799000D01*
X100088742Y-108799000D01*
X100113512Y-108803927D01*
G37*
G36*
X100113512Y-106263927D02*
G01*
X100262812Y-106293624D01*
X100426784Y-106361544D01*
X100574354Y-106460147D01*
X100699853Y-106585646D01*
X100798456Y-106733216D01*
X100866376Y-106897188D01*
X100901000Y-107071259D01*
X100901000Y-107248741D01*
X100866376Y-107422812D01*
X100798456Y-107586784D01*
X100699853Y-107734354D01*
X100574354Y-107859853D01*
X100426784Y-107958456D01*
X100262812Y-108026376D01*
X100113512Y-108056073D01*
X100088742Y-108061000D01*
X99911258Y-108061000D01*
X99886488Y-108056073D01*
X99737188Y-108026376D01*
X99573216Y-107958456D01*
X99425646Y-107859853D01*
X99300147Y-107734354D01*
X99201544Y-107586784D01*
X99133624Y-107422812D01*
X99099000Y-107248741D01*
X99099000Y-107071259D01*
X99133624Y-106897188D01*
X99201544Y-106733216D01*
X99300147Y-106585646D01*
X99425646Y-106460147D01*
X99573216Y-106361544D01*
X99737188Y-106293624D01*
X99886488Y-106263927D01*
X99911258Y-106259000D01*
X100088742Y-106259000D01*
X100113512Y-106263927D01*
G37*
G36*
X100113512Y-103723927D02*
G01*
X100262812Y-103753624D01*
X100426784Y-103821544D01*
X100574354Y-103920147D01*
X100699853Y-104045646D01*
X100798456Y-104193216D01*
X100866376Y-104357188D01*
X100901000Y-104531259D01*
X100901000Y-104708741D01*
X100866376Y-104882812D01*
X100798456Y-105046784D01*
X100699853Y-105194354D01*
X100574354Y-105319853D01*
X100426784Y-105418456D01*
X100262812Y-105486376D01*
X100113512Y-105516073D01*
X100088742Y-105521000D01*
X99911258Y-105521000D01*
X99886488Y-105516073D01*
X99737188Y-105486376D01*
X99573216Y-105418456D01*
X99425646Y-105319853D01*
X99300147Y-105194354D01*
X99201544Y-105046784D01*
X99133624Y-104882812D01*
X99099000Y-104708741D01*
X99099000Y-104531259D01*
X99133624Y-104357188D01*
X99201544Y-104193216D01*
X99300147Y-104045646D01*
X99425646Y-103920147D01*
X99573216Y-103821544D01*
X99737188Y-103753624D01*
X99886488Y-103723927D01*
X99911258Y-103719000D01*
X100088742Y-103719000D01*
X100113512Y-103723927D01*
G37*
G36*
X174383512Y-103013927D02*
G01*
X174532812Y-103043624D01*
X174696784Y-103111544D01*
X174844354Y-103210147D01*
X174969853Y-103335646D01*
X175068456Y-103483216D01*
X175136376Y-103647188D01*
X175171000Y-103821259D01*
X175171000Y-103998741D01*
X175136376Y-104172812D01*
X175068456Y-104336784D01*
X174969853Y-104484354D01*
X174844354Y-104609853D01*
X174696784Y-104708456D01*
X174532812Y-104776376D01*
X174383512Y-104806073D01*
X174358742Y-104811000D01*
X174181258Y-104811000D01*
X174156488Y-104806073D01*
X174007188Y-104776376D01*
X173843216Y-104708456D01*
X173695646Y-104609853D01*
X173570147Y-104484354D01*
X173471544Y-104336784D01*
X173403624Y-104172812D01*
X173369000Y-103998741D01*
X173369000Y-103821259D01*
X173403624Y-103647188D01*
X173471544Y-103483216D01*
X173570147Y-103335646D01*
X173695646Y-103210147D01*
X173843216Y-103111544D01*
X174007188Y-103043624D01*
X174156488Y-103013927D01*
X174181258Y-103009000D01*
X174358742Y-103009000D01*
X174383512Y-103013927D01*
G37*
G36*
X180251000Y-104811000D02*
G01*
X178449000Y-104811000D01*
X178449000Y-103009000D01*
X180251000Y-103009000D01*
X180251000Y-104811000D01*
G37*
G36*
X182003512Y-103013927D02*
G01*
X182152812Y-103043624D01*
X182316784Y-103111544D01*
X182464354Y-103210147D01*
X182589853Y-103335646D01*
X182688456Y-103483216D01*
X182756376Y-103647188D01*
X182791000Y-103821259D01*
X182791000Y-103998741D01*
X182756376Y-104172812D01*
X182688456Y-104336784D01*
X182589853Y-104484354D01*
X182464354Y-104609853D01*
X182316784Y-104708456D01*
X182152812Y-104776376D01*
X182003512Y-104806073D01*
X181978742Y-104811000D01*
X181801258Y-104811000D01*
X181776488Y-104806073D01*
X181627188Y-104776376D01*
X181463216Y-104708456D01*
X181315646Y-104609853D01*
X181190147Y-104484354D01*
X181091544Y-104336784D01*
X181023624Y-104172812D01*
X180989000Y-103998741D01*
X180989000Y-103821259D01*
X181023624Y-103647188D01*
X181091544Y-103483216D01*
X181190147Y-103335646D01*
X181315646Y-103210147D01*
X181463216Y-103111544D01*
X181627188Y-103043624D01*
X181776488Y-103013927D01*
X181801258Y-103009000D01*
X181978742Y-103009000D01*
X182003512Y-103013927D01*
G37*
G36*
X176923512Y-103013927D02*
G01*
X177072812Y-103043624D01*
X177236784Y-103111544D01*
X177384354Y-103210147D01*
X177509853Y-103335646D01*
X177608456Y-103483216D01*
X177676376Y-103647188D01*
X177711000Y-103821259D01*
X177711000Y-103998741D01*
X177676376Y-104172812D01*
X177608456Y-104336784D01*
X177509853Y-104484354D01*
X177384354Y-104609853D01*
X177236784Y-104708456D01*
X177072812Y-104776376D01*
X176923512Y-104806073D01*
X176898742Y-104811000D01*
X176721258Y-104811000D01*
X176696488Y-104806073D01*
X176547188Y-104776376D01*
X176383216Y-104708456D01*
X176235646Y-104609853D01*
X176110147Y-104484354D01*
X176011544Y-104336784D01*
X175943624Y-104172812D01*
X175909000Y-103998741D01*
X175909000Y-103821259D01*
X175943624Y-103647188D01*
X176011544Y-103483216D01*
X176110147Y-103335646D01*
X176235646Y-103210147D01*
X176383216Y-103111544D01*
X176547188Y-103043624D01*
X176696488Y-103013927D01*
X176721258Y-103009000D01*
X176898742Y-103009000D01*
X176923512Y-103013927D01*
G37*
G36*
X148983512Y-103013927D02*
G01*
X149132812Y-103043624D01*
X149296784Y-103111544D01*
X149444354Y-103210147D01*
X149569853Y-103335646D01*
X149668456Y-103483216D01*
X149736376Y-103647188D01*
X149771000Y-103821259D01*
X149771000Y-103998741D01*
X149736376Y-104172812D01*
X149668456Y-104336784D01*
X149569853Y-104484354D01*
X149444354Y-104609853D01*
X149296784Y-104708456D01*
X149132812Y-104776376D01*
X148983512Y-104806073D01*
X148958742Y-104811000D01*
X148781258Y-104811000D01*
X148756488Y-104806073D01*
X148607188Y-104776376D01*
X148443216Y-104708456D01*
X148295646Y-104609853D01*
X148170147Y-104484354D01*
X148071544Y-104336784D01*
X148003624Y-104172812D01*
X147969000Y-103998741D01*
X147969000Y-103821259D01*
X148003624Y-103647188D01*
X148071544Y-103483216D01*
X148170147Y-103335646D01*
X148295646Y-103210147D01*
X148443216Y-103111544D01*
X148607188Y-103043624D01*
X148756488Y-103013927D01*
X148781258Y-103009000D01*
X148958742Y-103009000D01*
X148983512Y-103013927D01*
G37*
G36*
X151523512Y-103013927D02*
G01*
X151672812Y-103043624D01*
X151836784Y-103111544D01*
X151984354Y-103210147D01*
X152109853Y-103335646D01*
X152208456Y-103483216D01*
X152276376Y-103647188D01*
X152311000Y-103821259D01*
X152311000Y-103998741D01*
X152276376Y-104172812D01*
X152208456Y-104336784D01*
X152109853Y-104484354D01*
X151984354Y-104609853D01*
X151836784Y-104708456D01*
X151672812Y-104776376D01*
X151523512Y-104806073D01*
X151498742Y-104811000D01*
X151321258Y-104811000D01*
X151296488Y-104806073D01*
X151147188Y-104776376D01*
X150983216Y-104708456D01*
X150835646Y-104609853D01*
X150710147Y-104484354D01*
X150611544Y-104336784D01*
X150543624Y-104172812D01*
X150509000Y-103998741D01*
X150509000Y-103821259D01*
X150543624Y-103647188D01*
X150611544Y-103483216D01*
X150710147Y-103335646D01*
X150835646Y-103210147D01*
X150983216Y-103111544D01*
X151147188Y-103043624D01*
X151296488Y-103013927D01*
X151321258Y-103009000D01*
X151498742Y-103009000D01*
X151523512Y-103013927D01*
G37*
G36*
X154851000Y-104811000D02*
G01*
X153049000Y-104811000D01*
X153049000Y-103009000D01*
X154851000Y-103009000D01*
X154851000Y-104811000D01*
G37*
G36*
X156603512Y-103013927D02*
G01*
X156752812Y-103043624D01*
X156916784Y-103111544D01*
X157064354Y-103210147D01*
X157189853Y-103335646D01*
X157288456Y-103483216D01*
X157356376Y-103647188D01*
X157391000Y-103821259D01*
X157391000Y-103998741D01*
X157356376Y-104172812D01*
X157288456Y-104336784D01*
X157189853Y-104484354D01*
X157064354Y-104609853D01*
X156916784Y-104708456D01*
X156752812Y-104776376D01*
X156603512Y-104806073D01*
X156578742Y-104811000D01*
X156401258Y-104811000D01*
X156376488Y-104806073D01*
X156227188Y-104776376D01*
X156063216Y-104708456D01*
X155915646Y-104609853D01*
X155790147Y-104484354D01*
X155691544Y-104336784D01*
X155623624Y-104172812D01*
X155589000Y-103998741D01*
X155589000Y-103821259D01*
X155623624Y-103647188D01*
X155691544Y-103483216D01*
X155790147Y-103335646D01*
X155915646Y-103210147D01*
X156063216Y-103111544D01*
X156227188Y-103043624D01*
X156376488Y-103013927D01*
X156401258Y-103009000D01*
X156578742Y-103009000D01*
X156603512Y-103013927D01*
G37*
G36*
X159143512Y-103013927D02*
G01*
X159292812Y-103043624D01*
X159456784Y-103111544D01*
X159604354Y-103210147D01*
X159729853Y-103335646D01*
X159828456Y-103483216D01*
X159896376Y-103647188D01*
X159931000Y-103821259D01*
X159931000Y-103998741D01*
X159896376Y-104172812D01*
X159828456Y-104336784D01*
X159729853Y-104484354D01*
X159604354Y-104609853D01*
X159456784Y-104708456D01*
X159292812Y-104776376D01*
X159143512Y-104806073D01*
X159118742Y-104811000D01*
X158941258Y-104811000D01*
X158916488Y-104806073D01*
X158767188Y-104776376D01*
X158603216Y-104708456D01*
X158455646Y-104609853D01*
X158330147Y-104484354D01*
X158231544Y-104336784D01*
X158163624Y-104172812D01*
X158129000Y-103998741D01*
X158129000Y-103821259D01*
X158163624Y-103647188D01*
X158231544Y-103483216D01*
X158330147Y-103335646D01*
X158455646Y-103210147D01*
X158603216Y-103111544D01*
X158767188Y-103043624D01*
X158916488Y-103013927D01*
X158941258Y-103009000D01*
X159118742Y-103009000D01*
X159143512Y-103013927D01*
G37*
G36*
X161683512Y-103013927D02*
G01*
X161832812Y-103043624D01*
X161996784Y-103111544D01*
X162144354Y-103210147D01*
X162269853Y-103335646D01*
X162368456Y-103483216D01*
X162436376Y-103647188D01*
X162471000Y-103821259D01*
X162471000Y-103998741D01*
X162436376Y-104172812D01*
X162368456Y-104336784D01*
X162269853Y-104484354D01*
X162144354Y-104609853D01*
X161996784Y-104708456D01*
X161832812Y-104776376D01*
X161683512Y-104806073D01*
X161658742Y-104811000D01*
X161481258Y-104811000D01*
X161456488Y-104806073D01*
X161307188Y-104776376D01*
X161143216Y-104708456D01*
X160995646Y-104609853D01*
X160870147Y-104484354D01*
X160771544Y-104336784D01*
X160703624Y-104172812D01*
X160669000Y-103998741D01*
X160669000Y-103821259D01*
X160703624Y-103647188D01*
X160771544Y-103483216D01*
X160870147Y-103335646D01*
X160995646Y-103210147D01*
X161143216Y-103111544D01*
X161307188Y-103043624D01*
X161456488Y-103013927D01*
X161481258Y-103009000D01*
X161658742Y-103009000D01*
X161683512Y-103013927D01*
G37*
G36*
X184543512Y-103013927D02*
G01*
X184692812Y-103043624D01*
X184856784Y-103111544D01*
X185004354Y-103210147D01*
X185129853Y-103335646D01*
X185228456Y-103483216D01*
X185296376Y-103647188D01*
X185331000Y-103821259D01*
X185331000Y-103998741D01*
X185296376Y-104172812D01*
X185228456Y-104336784D01*
X185129853Y-104484354D01*
X185004354Y-104609853D01*
X184856784Y-104708456D01*
X184692812Y-104776376D01*
X184543512Y-104806073D01*
X184518742Y-104811000D01*
X184341258Y-104811000D01*
X184316488Y-104806073D01*
X184167188Y-104776376D01*
X184003216Y-104708456D01*
X183855646Y-104609853D01*
X183730147Y-104484354D01*
X183631544Y-104336784D01*
X183563624Y-104172812D01*
X183529000Y-103998741D01*
X183529000Y-103821259D01*
X183563624Y-103647188D01*
X183631544Y-103483216D01*
X183730147Y-103335646D01*
X183855646Y-103210147D01*
X184003216Y-103111544D01*
X184167188Y-103043624D01*
X184316488Y-103013927D01*
X184341258Y-103009000D01*
X184518742Y-103009000D01*
X184543512Y-103013927D01*
G37*
G36*
X146443512Y-103013927D02*
G01*
X146592812Y-103043624D01*
X146756784Y-103111544D01*
X146904354Y-103210147D01*
X147029853Y-103335646D01*
X147128456Y-103483216D01*
X147196376Y-103647188D01*
X147231000Y-103821259D01*
X147231000Y-103998741D01*
X147196376Y-104172812D01*
X147128456Y-104336784D01*
X147029853Y-104484354D01*
X146904354Y-104609853D01*
X146756784Y-104708456D01*
X146592812Y-104776376D01*
X146443512Y-104806073D01*
X146418742Y-104811000D01*
X146241258Y-104811000D01*
X146216488Y-104806073D01*
X146067188Y-104776376D01*
X145903216Y-104708456D01*
X145755646Y-104609853D01*
X145630147Y-104484354D01*
X145531544Y-104336784D01*
X145463624Y-104172812D01*
X145429000Y-103998741D01*
X145429000Y-103821259D01*
X145463624Y-103647188D01*
X145531544Y-103483216D01*
X145630147Y-103335646D01*
X145755646Y-103210147D01*
X145903216Y-103111544D01*
X146067188Y-103043624D01*
X146216488Y-103013927D01*
X146241258Y-103009000D01*
X146418742Y-103009000D01*
X146443512Y-103013927D01*
G37*
G36*
X143903512Y-103013927D02*
G01*
X144052812Y-103043624D01*
X144216784Y-103111544D01*
X144364354Y-103210147D01*
X144489853Y-103335646D01*
X144588456Y-103483216D01*
X144656376Y-103647188D01*
X144691000Y-103821259D01*
X144691000Y-103998741D01*
X144656376Y-104172812D01*
X144588456Y-104336784D01*
X144489853Y-104484354D01*
X144364354Y-104609853D01*
X144216784Y-104708456D01*
X144052812Y-104776376D01*
X143903512Y-104806073D01*
X143878742Y-104811000D01*
X143701258Y-104811000D01*
X143676488Y-104806073D01*
X143527188Y-104776376D01*
X143363216Y-104708456D01*
X143215646Y-104609853D01*
X143090147Y-104484354D01*
X142991544Y-104336784D01*
X142923624Y-104172812D01*
X142889000Y-103998741D01*
X142889000Y-103821259D01*
X142923624Y-103647188D01*
X142991544Y-103483216D01*
X143090147Y-103335646D01*
X143215646Y-103210147D01*
X143363216Y-103111544D01*
X143527188Y-103043624D01*
X143676488Y-103013927D01*
X143701258Y-103009000D01*
X143878742Y-103009000D01*
X143903512Y-103013927D01*
G37*
G36*
X164223512Y-103013927D02*
G01*
X164372812Y-103043624D01*
X164536784Y-103111544D01*
X164684354Y-103210147D01*
X164809853Y-103335646D01*
X164908456Y-103483216D01*
X164976376Y-103647188D01*
X165011000Y-103821259D01*
X165011000Y-103998741D01*
X164976376Y-104172812D01*
X164908456Y-104336784D01*
X164809853Y-104484354D01*
X164684354Y-104609853D01*
X164536784Y-104708456D01*
X164372812Y-104776376D01*
X164223512Y-104806073D01*
X164198742Y-104811000D01*
X164021258Y-104811000D01*
X163996488Y-104806073D01*
X163847188Y-104776376D01*
X163683216Y-104708456D01*
X163535646Y-104609853D01*
X163410147Y-104484354D01*
X163311544Y-104336784D01*
X163243624Y-104172812D01*
X163209000Y-103998741D01*
X163209000Y-103821259D01*
X163243624Y-103647188D01*
X163311544Y-103483216D01*
X163410147Y-103335646D01*
X163535646Y-103210147D01*
X163683216Y-103111544D01*
X163847188Y-103043624D01*
X163996488Y-103013927D01*
X164021258Y-103009000D01*
X164198742Y-103009000D01*
X164223512Y-103013927D01*
G37*
G36*
X167551000Y-104811000D02*
G01*
X165749000Y-104811000D01*
X165749000Y-103009000D01*
X167551000Y-103009000D01*
X167551000Y-104811000D01*
G37*
G36*
X169303512Y-103013927D02*
G01*
X169452812Y-103043624D01*
X169616784Y-103111544D01*
X169764354Y-103210147D01*
X169889853Y-103335646D01*
X169988456Y-103483216D01*
X170056376Y-103647188D01*
X170091000Y-103821259D01*
X170091000Y-103998741D01*
X170056376Y-104172812D01*
X169988456Y-104336784D01*
X169889853Y-104484354D01*
X169764354Y-104609853D01*
X169616784Y-104708456D01*
X169452812Y-104776376D01*
X169303512Y-104806073D01*
X169278742Y-104811000D01*
X169101258Y-104811000D01*
X169076488Y-104806073D01*
X168927188Y-104776376D01*
X168763216Y-104708456D01*
X168615646Y-104609853D01*
X168490147Y-104484354D01*
X168391544Y-104336784D01*
X168323624Y-104172812D01*
X168289000Y-103998741D01*
X168289000Y-103821259D01*
X168323624Y-103647188D01*
X168391544Y-103483216D01*
X168490147Y-103335646D01*
X168615646Y-103210147D01*
X168763216Y-103111544D01*
X168927188Y-103043624D01*
X169076488Y-103013927D01*
X169101258Y-103009000D01*
X169278742Y-103009000D01*
X169303512Y-103013927D01*
G37*
G36*
X136283512Y-103013927D02*
G01*
X136432812Y-103043624D01*
X136596784Y-103111544D01*
X136744354Y-103210147D01*
X136869853Y-103335646D01*
X136968456Y-103483216D01*
X137036376Y-103647188D01*
X137071000Y-103821259D01*
X137071000Y-103998741D01*
X137036376Y-104172812D01*
X136968456Y-104336784D01*
X136869853Y-104484354D01*
X136744354Y-104609853D01*
X136596784Y-104708456D01*
X136432812Y-104776376D01*
X136283512Y-104806073D01*
X136258742Y-104811000D01*
X136081258Y-104811000D01*
X136056488Y-104806073D01*
X135907188Y-104776376D01*
X135743216Y-104708456D01*
X135595646Y-104609853D01*
X135470147Y-104484354D01*
X135371544Y-104336784D01*
X135303624Y-104172812D01*
X135269000Y-103998741D01*
X135269000Y-103821259D01*
X135303624Y-103647188D01*
X135371544Y-103483216D01*
X135470147Y-103335646D01*
X135595646Y-103210147D01*
X135743216Y-103111544D01*
X135907188Y-103043624D01*
X136056488Y-103013927D01*
X136081258Y-103009000D01*
X136258742Y-103009000D01*
X136283512Y-103013927D01*
G37*
G36*
X138823512Y-103013927D02*
G01*
X138972812Y-103043624D01*
X139136784Y-103111544D01*
X139284354Y-103210147D01*
X139409853Y-103335646D01*
X139508456Y-103483216D01*
X139576376Y-103647188D01*
X139611000Y-103821259D01*
X139611000Y-103998741D01*
X139576376Y-104172812D01*
X139508456Y-104336784D01*
X139409853Y-104484354D01*
X139284354Y-104609853D01*
X139136784Y-104708456D01*
X138972812Y-104776376D01*
X138823512Y-104806073D01*
X138798742Y-104811000D01*
X138621258Y-104811000D01*
X138596488Y-104806073D01*
X138447188Y-104776376D01*
X138283216Y-104708456D01*
X138135646Y-104609853D01*
X138010147Y-104484354D01*
X137911544Y-104336784D01*
X137843624Y-104172812D01*
X137809000Y-103998741D01*
X137809000Y-103821259D01*
X137843624Y-103647188D01*
X137911544Y-103483216D01*
X138010147Y-103335646D01*
X138135646Y-103210147D01*
X138283216Y-103111544D01*
X138447188Y-103043624D01*
X138596488Y-103013927D01*
X138621258Y-103009000D01*
X138798742Y-103009000D01*
X138823512Y-103013927D01*
G37*
G36*
X142151000Y-104811000D02*
G01*
X140349000Y-104811000D01*
X140349000Y-103009000D01*
X142151000Y-103009000D01*
X142151000Y-104811000D01*
G37*
G36*
X171843512Y-103013927D02*
G01*
X171992812Y-103043624D01*
X172156784Y-103111544D01*
X172304354Y-103210147D01*
X172429853Y-103335646D01*
X172528456Y-103483216D01*
X172596376Y-103647188D01*
X172631000Y-103821259D01*
X172631000Y-103998741D01*
X172596376Y-104172812D01*
X172528456Y-104336784D01*
X172429853Y-104484354D01*
X172304354Y-104609853D01*
X172156784Y-104708456D01*
X171992812Y-104776376D01*
X171843512Y-104806073D01*
X171818742Y-104811000D01*
X171641258Y-104811000D01*
X171616488Y-104806073D01*
X171467188Y-104776376D01*
X171303216Y-104708456D01*
X171155646Y-104609853D01*
X171030147Y-104484354D01*
X170931544Y-104336784D01*
X170863624Y-104172812D01*
X170829000Y-103998741D01*
X170829000Y-103821259D01*
X170863624Y-103647188D01*
X170931544Y-103483216D01*
X171030147Y-103335646D01*
X171155646Y-103210147D01*
X171303216Y-103111544D01*
X171467188Y-103043624D01*
X171616488Y-103013927D01*
X171641258Y-103009000D01*
X171818742Y-103009000D01*
X171843512Y-103013927D01*
G37*
G36*
X100113512Y-101183927D02*
G01*
X100262812Y-101213624D01*
X100426784Y-101281544D01*
X100574354Y-101380147D01*
X100699853Y-101505646D01*
X100798456Y-101653216D01*
X100866376Y-101817188D01*
X100901000Y-101991259D01*
X100901000Y-102168741D01*
X100866376Y-102342812D01*
X100798456Y-102506784D01*
X100699853Y-102654354D01*
X100574354Y-102779853D01*
X100426784Y-102878456D01*
X100262812Y-102946376D01*
X100113512Y-102976073D01*
X100088742Y-102981000D01*
X99911258Y-102981000D01*
X99886488Y-102976073D01*
X99737188Y-102946376D01*
X99573216Y-102878456D01*
X99425646Y-102779853D01*
X99300147Y-102654354D01*
X99201544Y-102506784D01*
X99133624Y-102342812D01*
X99099000Y-102168741D01*
X99099000Y-101991259D01*
X99133624Y-101817188D01*
X99201544Y-101653216D01*
X99300147Y-101505646D01*
X99425646Y-101380147D01*
X99573216Y-101281544D01*
X99737188Y-101213624D01*
X99886488Y-101183927D01*
X99911258Y-101179000D01*
X100088742Y-101179000D01*
X100113512Y-101183927D01*
G37*
G36*
X100113512Y-98643927D02*
G01*
X100262812Y-98673624D01*
X100426784Y-98741544D01*
X100574354Y-98840147D01*
X100699853Y-98965646D01*
X100798456Y-99113216D01*
X100866376Y-99277188D01*
X100901000Y-99451259D01*
X100901000Y-99628741D01*
X100866376Y-99802812D01*
X100798456Y-99966784D01*
X100699853Y-100114354D01*
X100574354Y-100239853D01*
X100426784Y-100338456D01*
X100262812Y-100406376D01*
X100113512Y-100436073D01*
X100088742Y-100441000D01*
X99911258Y-100441000D01*
X99886488Y-100436073D01*
X99737188Y-100406376D01*
X99573216Y-100338456D01*
X99425646Y-100239853D01*
X99300147Y-100114354D01*
X99201544Y-99966784D01*
X99133624Y-99802812D01*
X99099000Y-99628741D01*
X99099000Y-99451259D01*
X99133624Y-99277188D01*
X99201544Y-99113216D01*
X99300147Y-98965646D01*
X99425646Y-98840147D01*
X99573216Y-98741544D01*
X99737188Y-98673624D01*
X99886488Y-98643927D01*
X99911258Y-98639000D01*
X100088742Y-98639000D01*
X100113512Y-98643927D01*
G37*
G36*
X100901000Y-97901000D02*
G01*
X99099000Y-97901000D01*
X99099000Y-96099000D01*
X100901000Y-96099000D01*
X100901000Y-97901000D01*
G37*
G36*
X150134623Y-85595034D02*
G01*
X150172012Y-85606376D01*
X150206466Y-85624791D01*
X150236665Y-85649575D01*
X150261449Y-85679774D01*
X150279864Y-85714228D01*
X150291206Y-85751617D01*
X150295640Y-85796635D01*
X150295640Y-86661565D01*
X150291206Y-86706583D01*
X150279864Y-86743972D01*
X150261449Y-86778426D01*
X150236665Y-86808625D01*
X150206466Y-86833409D01*
X150172012Y-86851824D01*
X150134623Y-86863166D01*
X150089605Y-86867600D01*
X148949675Y-86867600D01*
X148904657Y-86863166D01*
X148867268Y-86851824D01*
X148832814Y-86833409D01*
X148802615Y-86808625D01*
X148777831Y-86778426D01*
X148759416Y-86743972D01*
X148748074Y-86706583D01*
X148743640Y-86661565D01*
X148743640Y-85796635D01*
X148748074Y-85751617D01*
X148759416Y-85714228D01*
X148777831Y-85679774D01*
X148802615Y-85649575D01*
X148832814Y-85624791D01*
X148867268Y-85606376D01*
X148904657Y-85595034D01*
X148949675Y-85590600D01*
X150089605Y-85590600D01*
X150134623Y-85595034D01*
G37*
G36*
X146898663Y-85513754D02*
G01*
X146936052Y-85525096D01*
X146970506Y-85543511D01*
X147000705Y-85568295D01*
X147025489Y-85598494D01*
X147043904Y-85632948D01*
X147055246Y-85670337D01*
X147059680Y-85715355D01*
X147059680Y-86580285D01*
X147055246Y-86625303D01*
X147043904Y-86662692D01*
X147025489Y-86697146D01*
X147000705Y-86727345D01*
X146970506Y-86752129D01*
X146936052Y-86770544D01*
X146898663Y-86781886D01*
X146853645Y-86786320D01*
X145713715Y-86786320D01*
X145668697Y-86781886D01*
X145631308Y-86770544D01*
X145596854Y-86752129D01*
X145566655Y-86727345D01*
X145541871Y-86697146D01*
X145523456Y-86662692D01*
X145512114Y-86625303D01*
X145507680Y-86580285D01*
X145507680Y-85715355D01*
X145512114Y-85670337D01*
X145523456Y-85632948D01*
X145541871Y-85598494D01*
X145566655Y-85568295D01*
X145596854Y-85543511D01*
X145631308Y-85525096D01*
X145668697Y-85513754D01*
X145713715Y-85509320D01*
X146853645Y-85509320D01*
X146898663Y-85513754D01*
G37*
G36*
X111440263Y-85422314D02*
G01*
X111477652Y-85433656D01*
X111512106Y-85452071D01*
X111542305Y-85476855D01*
X111567089Y-85507054D01*
X111585504Y-85541508D01*
X111596846Y-85578897D01*
X111601280Y-85623915D01*
X111601280Y-86488845D01*
X111596846Y-86533863D01*
X111585504Y-86571252D01*
X111567089Y-86605706D01*
X111542305Y-86635905D01*
X111512106Y-86660689D01*
X111477652Y-86679104D01*
X111440263Y-86690446D01*
X111395245Y-86694880D01*
X110255315Y-86694880D01*
X110210297Y-86690446D01*
X110172908Y-86679104D01*
X110138454Y-86660689D01*
X110108255Y-86635905D01*
X110083471Y-86605706D01*
X110065056Y-86571252D01*
X110053714Y-86533863D01*
X110049280Y-86488845D01*
X110049280Y-85623915D01*
X110053714Y-85578897D01*
X110065056Y-85541508D01*
X110083471Y-85507054D01*
X110108255Y-85476855D01*
X110138454Y-85452071D01*
X110172908Y-85433656D01*
X110210297Y-85422314D01*
X110255315Y-85417880D01*
X111395245Y-85417880D01*
X111440263Y-85422314D01*
G37*
G36*
X131861863Y-85381674D02*
G01*
X131899252Y-85393016D01*
X131933706Y-85411431D01*
X131963905Y-85436215D01*
X131988689Y-85466414D01*
X132007104Y-85500868D01*
X132018446Y-85538257D01*
X132022880Y-85583275D01*
X132022880Y-86448205D01*
X132018446Y-86493223D01*
X132007104Y-86530612D01*
X131988689Y-86565066D01*
X131963905Y-86595265D01*
X131933706Y-86620049D01*
X131899252Y-86638464D01*
X131861863Y-86649806D01*
X131816845Y-86654240D01*
X130676915Y-86654240D01*
X130631897Y-86649806D01*
X130594508Y-86638464D01*
X130560054Y-86620049D01*
X130529855Y-86595265D01*
X130505071Y-86565066D01*
X130486656Y-86530612D01*
X130475314Y-86493223D01*
X130470880Y-86448205D01*
X130470880Y-85583275D01*
X130475314Y-85538257D01*
X130486656Y-85500868D01*
X130505071Y-85466414D01*
X130529855Y-85436215D01*
X130560054Y-85411431D01*
X130594508Y-85393016D01*
X130631897Y-85381674D01*
X130676915Y-85377240D01*
X131816845Y-85377240D01*
X131861863Y-85381674D01*
G37*
G36*
X114762583Y-85341034D02*
G01*
X114799972Y-85352376D01*
X114834426Y-85370791D01*
X114864625Y-85395575D01*
X114889409Y-85425774D01*
X114907824Y-85460228D01*
X114919166Y-85497617D01*
X114923600Y-85542635D01*
X114923600Y-86407565D01*
X114919166Y-86452583D01*
X114907824Y-86489972D01*
X114889409Y-86524426D01*
X114864625Y-86554625D01*
X114834426Y-86579409D01*
X114799972Y-86597824D01*
X114762583Y-86609166D01*
X114717565Y-86613600D01*
X113577635Y-86613600D01*
X113532617Y-86609166D01*
X113495228Y-86597824D01*
X113460774Y-86579409D01*
X113430575Y-86554625D01*
X113405791Y-86524426D01*
X113387376Y-86489972D01*
X113376034Y-86452583D01*
X113371600Y-86407565D01*
X113371600Y-85542635D01*
X113376034Y-85497617D01*
X113387376Y-85460228D01*
X113405791Y-85425774D01*
X113430575Y-85395575D01*
X113460774Y-85370791D01*
X113495228Y-85352376D01*
X113532617Y-85341034D01*
X113577635Y-85336600D01*
X114717565Y-85336600D01*
X114762583Y-85341034D01*
G37*
G36*
X167807943Y-85310554D02*
G01*
X167845332Y-85321896D01*
X167879786Y-85340311D01*
X167909985Y-85365095D01*
X167934769Y-85395294D01*
X167953184Y-85429748D01*
X167964526Y-85467137D01*
X167968960Y-85512155D01*
X167968960Y-86377085D01*
X167964526Y-86422103D01*
X167953184Y-86459492D01*
X167934769Y-86493946D01*
X167909985Y-86524145D01*
X167879786Y-86548929D01*
X167845332Y-86567344D01*
X167807943Y-86578686D01*
X167762925Y-86583120D01*
X166622995Y-86583120D01*
X166577977Y-86578686D01*
X166540588Y-86567344D01*
X166506134Y-86548929D01*
X166475935Y-86524145D01*
X166451151Y-86493946D01*
X166432736Y-86459492D01*
X166421394Y-86422103D01*
X166416960Y-86377085D01*
X166416960Y-85512155D01*
X166421394Y-85467137D01*
X166432736Y-85429748D01*
X166451151Y-85395294D01*
X166475935Y-85365095D01*
X166506134Y-85340311D01*
X166540588Y-85321896D01*
X166577977Y-85310554D01*
X166622995Y-85306120D01*
X167762925Y-85306120D01*
X167807943Y-85310554D01*
G37*
G36*
X128539543Y-85300394D02*
G01*
X128576932Y-85311736D01*
X128611386Y-85330151D01*
X128641585Y-85354935D01*
X128666369Y-85385134D01*
X128684784Y-85419588D01*
X128696126Y-85456977D01*
X128700560Y-85501995D01*
X128700560Y-86366925D01*
X128696126Y-86411943D01*
X128684784Y-86449332D01*
X128666369Y-86483786D01*
X128641585Y-86513985D01*
X128611386Y-86538769D01*
X128576932Y-86557184D01*
X128539543Y-86568526D01*
X128494525Y-86572960D01*
X127354595Y-86572960D01*
X127309577Y-86568526D01*
X127272188Y-86557184D01*
X127237734Y-86538769D01*
X127207535Y-86513985D01*
X127182751Y-86483786D01*
X127164336Y-86449332D01*
X127152994Y-86411943D01*
X127148560Y-86366925D01*
X127148560Y-85501995D01*
X127152994Y-85456977D01*
X127164336Y-85419588D01*
X127182751Y-85385134D01*
X127207535Y-85354935D01*
X127237734Y-85330151D01*
X127272188Y-85311736D01*
X127309577Y-85300394D01*
X127354595Y-85295960D01*
X128494525Y-85295960D01*
X128539543Y-85300394D01*
G37*
G36*
X164693903Y-85269914D02*
G01*
X164731292Y-85281256D01*
X164765746Y-85299671D01*
X164795945Y-85324455D01*
X164820729Y-85354654D01*
X164839144Y-85389108D01*
X164850486Y-85426497D01*
X164854920Y-85471515D01*
X164854920Y-86336445D01*
X164850486Y-86381463D01*
X164839144Y-86418852D01*
X164820729Y-86453306D01*
X164795945Y-86483505D01*
X164765746Y-86508289D01*
X164731292Y-86526704D01*
X164693903Y-86538046D01*
X164648885Y-86542480D01*
X163508955Y-86542480D01*
X163463937Y-86538046D01*
X163426548Y-86526704D01*
X163392094Y-86508289D01*
X163361895Y-86483505D01*
X163337111Y-86453306D01*
X163318696Y-86418852D01*
X163307354Y-86381463D01*
X163302920Y-86336445D01*
X163302920Y-85471515D01*
X163307354Y-85426497D01*
X163318696Y-85389108D01*
X163337111Y-85354654D01*
X163361895Y-85324455D01*
X163392094Y-85299671D01*
X163426548Y-85281256D01*
X163463937Y-85269914D01*
X163508955Y-85265480D01*
X164648885Y-85265480D01*
X164693903Y-85269914D01*
G37*
G36*
X150134623Y-83520034D02*
G01*
X150172012Y-83531376D01*
X150206466Y-83549791D01*
X150236665Y-83574575D01*
X150261449Y-83604774D01*
X150279864Y-83639228D01*
X150291206Y-83676617D01*
X150295640Y-83721635D01*
X150295640Y-84586565D01*
X150291206Y-84631583D01*
X150279864Y-84668972D01*
X150261449Y-84703426D01*
X150236665Y-84733625D01*
X150206466Y-84758409D01*
X150172012Y-84776824D01*
X150134623Y-84788166D01*
X150089605Y-84792600D01*
X148949675Y-84792600D01*
X148904657Y-84788166D01*
X148867268Y-84776824D01*
X148832814Y-84758409D01*
X148802615Y-84733625D01*
X148777831Y-84703426D01*
X148759416Y-84668972D01*
X148748074Y-84631583D01*
X148743640Y-84586565D01*
X148743640Y-83721635D01*
X148748074Y-83676617D01*
X148759416Y-83639228D01*
X148777831Y-83604774D01*
X148802615Y-83574575D01*
X148832814Y-83549791D01*
X148867268Y-83531376D01*
X148904657Y-83520034D01*
X148949675Y-83515600D01*
X150089605Y-83515600D01*
X150134623Y-83520034D01*
G37*
G36*
X146898663Y-83438754D02*
G01*
X146936052Y-83450096D01*
X146970506Y-83468511D01*
X147000705Y-83493295D01*
X147025489Y-83523494D01*
X147043904Y-83557948D01*
X147055246Y-83595337D01*
X147059680Y-83640355D01*
X147059680Y-84505285D01*
X147055246Y-84550303D01*
X147043904Y-84587692D01*
X147025489Y-84622146D01*
X147000705Y-84652345D01*
X146970506Y-84677129D01*
X146936052Y-84695544D01*
X146898663Y-84706886D01*
X146853645Y-84711320D01*
X145713715Y-84711320D01*
X145668697Y-84706886D01*
X145631308Y-84695544D01*
X145596854Y-84677129D01*
X145566655Y-84652345D01*
X145541871Y-84622146D01*
X145523456Y-84587692D01*
X145512114Y-84550303D01*
X145507680Y-84505285D01*
X145507680Y-83640355D01*
X145512114Y-83595337D01*
X145523456Y-83557948D01*
X145541871Y-83523494D01*
X145566655Y-83493295D01*
X145596854Y-83468511D01*
X145631308Y-83450096D01*
X145668697Y-83438754D01*
X145713715Y-83434320D01*
X146853645Y-83434320D01*
X146898663Y-83438754D01*
G37*
G36*
X111440263Y-83347314D02*
G01*
X111477652Y-83358656D01*
X111512106Y-83377071D01*
X111542305Y-83401855D01*
X111567089Y-83432054D01*
X111585504Y-83466508D01*
X111596846Y-83503897D01*
X111601280Y-83548915D01*
X111601280Y-84413845D01*
X111596846Y-84458863D01*
X111585504Y-84496252D01*
X111567089Y-84530706D01*
X111542305Y-84560905D01*
X111512106Y-84585689D01*
X111477652Y-84604104D01*
X111440263Y-84615446D01*
X111395245Y-84619880D01*
X110255315Y-84619880D01*
X110210297Y-84615446D01*
X110172908Y-84604104D01*
X110138454Y-84585689D01*
X110108255Y-84560905D01*
X110083471Y-84530706D01*
X110065056Y-84496252D01*
X110053714Y-84458863D01*
X110049280Y-84413845D01*
X110049280Y-83548915D01*
X110053714Y-83503897D01*
X110065056Y-83466508D01*
X110083471Y-83432054D01*
X110108255Y-83401855D01*
X110138454Y-83377071D01*
X110172908Y-83358656D01*
X110210297Y-83347314D01*
X110255315Y-83342880D01*
X111395245Y-83342880D01*
X111440263Y-83347314D01*
G37*
G36*
X131861863Y-83306674D02*
G01*
X131899252Y-83318016D01*
X131933706Y-83336431D01*
X131963905Y-83361215D01*
X131988689Y-83391414D01*
X132007104Y-83425868D01*
X132018446Y-83463257D01*
X132022880Y-83508275D01*
X132022880Y-84373205D01*
X132018446Y-84418223D01*
X132007104Y-84455612D01*
X131988689Y-84490066D01*
X131963905Y-84520265D01*
X131933706Y-84545049D01*
X131899252Y-84563464D01*
X131861863Y-84574806D01*
X131816845Y-84579240D01*
X130676915Y-84579240D01*
X130631897Y-84574806D01*
X130594508Y-84563464D01*
X130560054Y-84545049D01*
X130529855Y-84520265D01*
X130505071Y-84490066D01*
X130486656Y-84455612D01*
X130475314Y-84418223D01*
X130470880Y-84373205D01*
X130470880Y-83508275D01*
X130475314Y-83463257D01*
X130486656Y-83425868D01*
X130505071Y-83391414D01*
X130529855Y-83361215D01*
X130560054Y-83336431D01*
X130594508Y-83318016D01*
X130631897Y-83306674D01*
X130676915Y-83302240D01*
X131816845Y-83302240D01*
X131861863Y-83306674D01*
G37*
G36*
X114762583Y-83266034D02*
G01*
X114799972Y-83277376D01*
X114834426Y-83295791D01*
X114864625Y-83320575D01*
X114889409Y-83350774D01*
X114907824Y-83385228D01*
X114919166Y-83422617D01*
X114923600Y-83467635D01*
X114923600Y-84332565D01*
X114919166Y-84377583D01*
X114907824Y-84414972D01*
X114889409Y-84449426D01*
X114864625Y-84479625D01*
X114834426Y-84504409D01*
X114799972Y-84522824D01*
X114762583Y-84534166D01*
X114717565Y-84538600D01*
X113577635Y-84538600D01*
X113532617Y-84534166D01*
X113495228Y-84522824D01*
X113460774Y-84504409D01*
X113430575Y-84479625D01*
X113405791Y-84449426D01*
X113387376Y-84414972D01*
X113376034Y-84377583D01*
X113371600Y-84332565D01*
X113371600Y-83467635D01*
X113376034Y-83422617D01*
X113387376Y-83385228D01*
X113405791Y-83350774D01*
X113430575Y-83320575D01*
X113460774Y-83295791D01*
X113495228Y-83277376D01*
X113532617Y-83266034D01*
X113577635Y-83261600D01*
X114717565Y-83261600D01*
X114762583Y-83266034D01*
G37*
G36*
X167807943Y-83235554D02*
G01*
X167845332Y-83246896D01*
X167879786Y-83265311D01*
X167909985Y-83290095D01*
X167934769Y-83320294D01*
X167953184Y-83354748D01*
X167964526Y-83392137D01*
X167968960Y-83437155D01*
X167968960Y-84302085D01*
X167964526Y-84347103D01*
X167953184Y-84384492D01*
X167934769Y-84418946D01*
X167909985Y-84449145D01*
X167879786Y-84473929D01*
X167845332Y-84492344D01*
X167807943Y-84503686D01*
X167762925Y-84508120D01*
X166622995Y-84508120D01*
X166577977Y-84503686D01*
X166540588Y-84492344D01*
X166506134Y-84473929D01*
X166475935Y-84449145D01*
X166451151Y-84418946D01*
X166432736Y-84384492D01*
X166421394Y-84347103D01*
X166416960Y-84302085D01*
X166416960Y-83437155D01*
X166421394Y-83392137D01*
X166432736Y-83354748D01*
X166451151Y-83320294D01*
X166475935Y-83290095D01*
X166506134Y-83265311D01*
X166540588Y-83246896D01*
X166577977Y-83235554D01*
X166622995Y-83231120D01*
X167762925Y-83231120D01*
X167807943Y-83235554D01*
G37*
G36*
X128539543Y-83225394D02*
G01*
X128576932Y-83236736D01*
X128611386Y-83255151D01*
X128641585Y-83279935D01*
X128666369Y-83310134D01*
X128684784Y-83344588D01*
X128696126Y-83381977D01*
X128700560Y-83426995D01*
X128700560Y-84291925D01*
X128696126Y-84336943D01*
X128684784Y-84374332D01*
X128666369Y-84408786D01*
X128641585Y-84438985D01*
X128611386Y-84463769D01*
X128576932Y-84482184D01*
X128539543Y-84493526D01*
X128494525Y-84497960D01*
X127354595Y-84497960D01*
X127309577Y-84493526D01*
X127272188Y-84482184D01*
X127237734Y-84463769D01*
X127207535Y-84438985D01*
X127182751Y-84408786D01*
X127164336Y-84374332D01*
X127152994Y-84336943D01*
X127148560Y-84291925D01*
X127148560Y-83426995D01*
X127152994Y-83381977D01*
X127164336Y-83344588D01*
X127182751Y-83310134D01*
X127207535Y-83279935D01*
X127237734Y-83255151D01*
X127272188Y-83236736D01*
X127309577Y-83225394D01*
X127354595Y-83220960D01*
X128494525Y-83220960D01*
X128539543Y-83225394D01*
G37*
G36*
X164693903Y-83194914D02*
G01*
X164731292Y-83206256D01*
X164765746Y-83224671D01*
X164795945Y-83249455D01*
X164820729Y-83279654D01*
X164839144Y-83314108D01*
X164850486Y-83351497D01*
X164854920Y-83396515D01*
X164854920Y-84261445D01*
X164850486Y-84306463D01*
X164839144Y-84343852D01*
X164820729Y-84378306D01*
X164795945Y-84408505D01*
X164765746Y-84433289D01*
X164731292Y-84451704D01*
X164693903Y-84463046D01*
X164648885Y-84467480D01*
X163508955Y-84467480D01*
X163463937Y-84463046D01*
X163426548Y-84451704D01*
X163392094Y-84433289D01*
X163361895Y-84408505D01*
X163337111Y-84378306D01*
X163318696Y-84343852D01*
X163307354Y-84306463D01*
X163302920Y-84261445D01*
X163302920Y-83396515D01*
X163307354Y-83351497D01*
X163318696Y-83314108D01*
X163337111Y-83279654D01*
X163361895Y-83249455D01*
X163392094Y-83224671D01*
X163426548Y-83206256D01*
X163463937Y-83194914D01*
X163508955Y-83190480D01*
X164648885Y-83190480D01*
X164693903Y-83194914D01*
G37*
G36*
X107821589Y-71374876D02*
G01*
X107920893Y-71394629D01*
X108061206Y-71452748D01*
X108187484Y-71537125D01*
X108294875Y-71644516D01*
X108379252Y-71770794D01*
X108437371Y-71911107D01*
X108467000Y-72060063D01*
X108467000Y-72211937D01*
X108437371Y-72360893D01*
X108379252Y-72501206D01*
X108294875Y-72627484D01*
X108187484Y-72734875D01*
X108061206Y-72819252D01*
X107920893Y-72877371D01*
X107821589Y-72897124D01*
X107771938Y-72907000D01*
X107620062Y-72907000D01*
X107570411Y-72897124D01*
X107471107Y-72877371D01*
X107330794Y-72819252D01*
X107204516Y-72734875D01*
X107097125Y-72627484D01*
X107012748Y-72501206D01*
X106954629Y-72360893D01*
X106925000Y-72211937D01*
X106925000Y-72060063D01*
X106954629Y-71911107D01*
X107012748Y-71770794D01*
X107097125Y-71644516D01*
X107204516Y-71537125D01*
X107330794Y-71452748D01*
X107471107Y-71394629D01*
X107570411Y-71374876D01*
X107620062Y-71365000D01*
X107771938Y-71365000D01*
X107821589Y-71374876D01*
G37*
G36*
X107821589Y-68834876D02*
G01*
X107920893Y-68854629D01*
X108061206Y-68912748D01*
X108187484Y-68997125D01*
X108294875Y-69104516D01*
X108379252Y-69230794D01*
X108437371Y-69371107D01*
X108467000Y-69520063D01*
X108467000Y-69671937D01*
X108437371Y-69820893D01*
X108379252Y-69961206D01*
X108294875Y-70087484D01*
X108187484Y-70194875D01*
X108061206Y-70279252D01*
X107920893Y-70337371D01*
X107821589Y-70357124D01*
X107771938Y-70367000D01*
X107620062Y-70367000D01*
X107570411Y-70357124D01*
X107471107Y-70337371D01*
X107330794Y-70279252D01*
X107204516Y-70194875D01*
X107097125Y-70087484D01*
X107012748Y-69961206D01*
X106954629Y-69820893D01*
X106925000Y-69671937D01*
X106925000Y-69520063D01*
X106954629Y-69371107D01*
X107012748Y-69230794D01*
X107097125Y-69104516D01*
X107204516Y-68997125D01*
X107330794Y-68912748D01*
X107471107Y-68854629D01*
X107570411Y-68834876D01*
X107620062Y-68825000D01*
X107771938Y-68825000D01*
X107821589Y-68834876D01*
G37*
G36*
X107821589Y-66294876D02*
G01*
X107920893Y-66314629D01*
X108061206Y-66372748D01*
X108187484Y-66457125D01*
X108294875Y-66564516D01*
X108379252Y-66690794D01*
X108437371Y-66831107D01*
X108467000Y-66980063D01*
X108467000Y-67131937D01*
X108437371Y-67280893D01*
X108379252Y-67421206D01*
X108294875Y-67547484D01*
X108187484Y-67654875D01*
X108061206Y-67739252D01*
X107920893Y-67797371D01*
X107821589Y-67817124D01*
X107771938Y-67827000D01*
X107620062Y-67827000D01*
X107570411Y-67817124D01*
X107471107Y-67797371D01*
X107330794Y-67739252D01*
X107204516Y-67654875D01*
X107097125Y-67547484D01*
X107012748Y-67421206D01*
X106954629Y-67280893D01*
X106925000Y-67131937D01*
X106925000Y-66980063D01*
X106954629Y-66831107D01*
X107012748Y-66690794D01*
X107097125Y-66564516D01*
X107204516Y-66457125D01*
X107330794Y-66372748D01*
X107471107Y-66314629D01*
X107570411Y-66294876D01*
X107620062Y-66285000D01*
X107771938Y-66285000D01*
X107821589Y-66294876D01*
G37*
G36*
X171533512Y-64143927D02*
G01*
X171682812Y-64173624D01*
X171846784Y-64241544D01*
X171994354Y-64340147D01*
X172119853Y-64465646D01*
X172218456Y-64613216D01*
X172286376Y-64777188D01*
X172321000Y-64951259D01*
X172321000Y-65128741D01*
X172286376Y-65302812D01*
X172218456Y-65466784D01*
X172119853Y-65614354D01*
X171994354Y-65739853D01*
X171846784Y-65838456D01*
X171682812Y-65906376D01*
X171533512Y-65936073D01*
X171508742Y-65941000D01*
X171331258Y-65941000D01*
X171306488Y-65936073D01*
X171157188Y-65906376D01*
X170993216Y-65838456D01*
X170845646Y-65739853D01*
X170720147Y-65614354D01*
X170621544Y-65466784D01*
X170553624Y-65302812D01*
X170519000Y-65128741D01*
X170519000Y-64951259D01*
X170553624Y-64777188D01*
X170621544Y-64613216D01*
X170720147Y-64465646D01*
X170845646Y-64340147D01*
X170993216Y-64241544D01*
X171157188Y-64173624D01*
X171306488Y-64143927D01*
X171331258Y-64139000D01*
X171508742Y-64139000D01*
X171533512Y-64143927D01*
G37*
G36*
X176613512Y-64143927D02*
G01*
X176762812Y-64173624D01*
X176926784Y-64241544D01*
X177074354Y-64340147D01*
X177199853Y-64465646D01*
X177298456Y-64613216D01*
X177366376Y-64777188D01*
X177401000Y-64951259D01*
X177401000Y-65128741D01*
X177366376Y-65302812D01*
X177298456Y-65466784D01*
X177199853Y-65614354D01*
X177074354Y-65739853D01*
X176926784Y-65838456D01*
X176762812Y-65906376D01*
X176613512Y-65936073D01*
X176588742Y-65941000D01*
X176411258Y-65941000D01*
X176386488Y-65936073D01*
X176237188Y-65906376D01*
X176073216Y-65838456D01*
X175925646Y-65739853D01*
X175800147Y-65614354D01*
X175701544Y-65466784D01*
X175633624Y-65302812D01*
X175599000Y-65128741D01*
X175599000Y-64951259D01*
X175633624Y-64777188D01*
X175701544Y-64613216D01*
X175800147Y-64465646D01*
X175925646Y-64340147D01*
X176073216Y-64241544D01*
X176237188Y-64173624D01*
X176386488Y-64143927D01*
X176411258Y-64139000D01*
X176588742Y-64139000D01*
X176613512Y-64143927D01*
G37*
G36*
X174073512Y-64143927D02*
G01*
X174222812Y-64173624D01*
X174386784Y-64241544D01*
X174534354Y-64340147D01*
X174659853Y-64465646D01*
X174758456Y-64613216D01*
X174826376Y-64777188D01*
X174861000Y-64951259D01*
X174861000Y-65128741D01*
X174826376Y-65302812D01*
X174758456Y-65466784D01*
X174659853Y-65614354D01*
X174534354Y-65739853D01*
X174386784Y-65838456D01*
X174222812Y-65906376D01*
X174073512Y-65936073D01*
X174048742Y-65941000D01*
X173871258Y-65941000D01*
X173846488Y-65936073D01*
X173697188Y-65906376D01*
X173533216Y-65838456D01*
X173385646Y-65739853D01*
X173260147Y-65614354D01*
X173161544Y-65466784D01*
X173093624Y-65302812D01*
X173059000Y-65128741D01*
X173059000Y-64951259D01*
X173093624Y-64777188D01*
X173161544Y-64613216D01*
X173260147Y-64465646D01*
X173385646Y-64340147D01*
X173533216Y-64241544D01*
X173697188Y-64173624D01*
X173846488Y-64143927D01*
X173871258Y-64139000D01*
X174048742Y-64139000D01*
X174073512Y-64143927D01*
G37*
G36*
X168993512Y-64143927D02*
G01*
X169142812Y-64173624D01*
X169306784Y-64241544D01*
X169454354Y-64340147D01*
X169579853Y-64465646D01*
X169678456Y-64613216D01*
X169746376Y-64777188D01*
X169781000Y-64951259D01*
X169781000Y-65128741D01*
X169746376Y-65302812D01*
X169678456Y-65466784D01*
X169579853Y-65614354D01*
X169454354Y-65739853D01*
X169306784Y-65838456D01*
X169142812Y-65906376D01*
X168993512Y-65936073D01*
X168968742Y-65941000D01*
X168791258Y-65941000D01*
X168766488Y-65936073D01*
X168617188Y-65906376D01*
X168453216Y-65838456D01*
X168305646Y-65739853D01*
X168180147Y-65614354D01*
X168081544Y-65466784D01*
X168013624Y-65302812D01*
X167979000Y-65128741D01*
X167979000Y-64951259D01*
X168013624Y-64777188D01*
X168081544Y-64613216D01*
X168180147Y-64465646D01*
X168305646Y-64340147D01*
X168453216Y-64241544D01*
X168617188Y-64173624D01*
X168766488Y-64143927D01*
X168791258Y-64139000D01*
X168968742Y-64139000D01*
X168993512Y-64143927D01*
G37*
G36*
X166453512Y-64143927D02*
G01*
X166602812Y-64173624D01*
X166766784Y-64241544D01*
X166914354Y-64340147D01*
X167039853Y-64465646D01*
X167138456Y-64613216D01*
X167206376Y-64777188D01*
X167241000Y-64951259D01*
X167241000Y-65128741D01*
X167206376Y-65302812D01*
X167138456Y-65466784D01*
X167039853Y-65614354D01*
X166914354Y-65739853D01*
X166766784Y-65838456D01*
X166602812Y-65906376D01*
X166453512Y-65936073D01*
X166428742Y-65941000D01*
X166251258Y-65941000D01*
X166226488Y-65936073D01*
X166077188Y-65906376D01*
X165913216Y-65838456D01*
X165765646Y-65739853D01*
X165640147Y-65614354D01*
X165541544Y-65466784D01*
X165473624Y-65302812D01*
X165439000Y-65128741D01*
X165439000Y-64951259D01*
X165473624Y-64777188D01*
X165541544Y-64613216D01*
X165640147Y-64465646D01*
X165765646Y-64340147D01*
X165913216Y-64241544D01*
X166077188Y-64173624D01*
X166226488Y-64143927D01*
X166251258Y-64139000D01*
X166428742Y-64139000D01*
X166453512Y-64143927D01*
G37*
G36*
X163913512Y-64143927D02*
G01*
X164062812Y-64173624D01*
X164226784Y-64241544D01*
X164374354Y-64340147D01*
X164499853Y-64465646D01*
X164598456Y-64613216D01*
X164666376Y-64777188D01*
X164701000Y-64951259D01*
X164701000Y-65128741D01*
X164666376Y-65302812D01*
X164598456Y-65466784D01*
X164499853Y-65614354D01*
X164374354Y-65739853D01*
X164226784Y-65838456D01*
X164062812Y-65906376D01*
X163913512Y-65936073D01*
X163888742Y-65941000D01*
X163711258Y-65941000D01*
X163686488Y-65936073D01*
X163537188Y-65906376D01*
X163373216Y-65838456D01*
X163225646Y-65739853D01*
X163100147Y-65614354D01*
X163001544Y-65466784D01*
X162933624Y-65302812D01*
X162899000Y-65128741D01*
X162899000Y-64951259D01*
X162933624Y-64777188D01*
X163001544Y-64613216D01*
X163100147Y-64465646D01*
X163225646Y-64340147D01*
X163373216Y-64241544D01*
X163537188Y-64173624D01*
X163686488Y-64143927D01*
X163711258Y-64139000D01*
X163888742Y-64139000D01*
X163913512Y-64143927D01*
G37*
G36*
X161373512Y-64143927D02*
G01*
X161522812Y-64173624D01*
X161686784Y-64241544D01*
X161834354Y-64340147D01*
X161959853Y-64465646D01*
X162058456Y-64613216D01*
X162126376Y-64777188D01*
X162161000Y-64951259D01*
X162161000Y-65128741D01*
X162126376Y-65302812D01*
X162058456Y-65466784D01*
X161959853Y-65614354D01*
X161834354Y-65739853D01*
X161686784Y-65838456D01*
X161522812Y-65906376D01*
X161373512Y-65936073D01*
X161348742Y-65941000D01*
X161171258Y-65941000D01*
X161146488Y-65936073D01*
X160997188Y-65906376D01*
X160833216Y-65838456D01*
X160685646Y-65739853D01*
X160560147Y-65614354D01*
X160461544Y-65466784D01*
X160393624Y-65302812D01*
X160359000Y-65128741D01*
X160359000Y-64951259D01*
X160393624Y-64777188D01*
X160461544Y-64613216D01*
X160560147Y-64465646D01*
X160685646Y-64340147D01*
X160833216Y-64241544D01*
X160997188Y-64173624D01*
X161146488Y-64143927D01*
X161171258Y-64139000D01*
X161348742Y-64139000D01*
X161373512Y-64143927D01*
G37*
G36*
X153753512Y-64143927D02*
G01*
X153902812Y-64173624D01*
X154066784Y-64241544D01*
X154214354Y-64340147D01*
X154339853Y-64465646D01*
X154438456Y-64613216D01*
X154506376Y-64777188D01*
X154541000Y-64951259D01*
X154541000Y-65128741D01*
X154506376Y-65302812D01*
X154438456Y-65466784D01*
X154339853Y-65614354D01*
X154214354Y-65739853D01*
X154066784Y-65838456D01*
X153902812Y-65906376D01*
X153753512Y-65936073D01*
X153728742Y-65941000D01*
X153551258Y-65941000D01*
X153526488Y-65936073D01*
X153377188Y-65906376D01*
X153213216Y-65838456D01*
X153065646Y-65739853D01*
X152940147Y-65614354D01*
X152841544Y-65466784D01*
X152773624Y-65302812D01*
X152739000Y-65128741D01*
X152739000Y-64951259D01*
X152773624Y-64777188D01*
X152841544Y-64613216D01*
X152940147Y-64465646D01*
X153065646Y-64340147D01*
X153213216Y-64241544D01*
X153377188Y-64173624D01*
X153526488Y-64143927D01*
X153551258Y-64139000D01*
X153728742Y-64139000D01*
X153753512Y-64143927D01*
G37*
G36*
X158833512Y-64143927D02*
G01*
X158982812Y-64173624D01*
X159146784Y-64241544D01*
X159294354Y-64340147D01*
X159419853Y-64465646D01*
X159518456Y-64613216D01*
X159586376Y-64777188D01*
X159621000Y-64951259D01*
X159621000Y-65128741D01*
X159586376Y-65302812D01*
X159518456Y-65466784D01*
X159419853Y-65614354D01*
X159294354Y-65739853D01*
X159146784Y-65838456D01*
X158982812Y-65906376D01*
X158833512Y-65936073D01*
X158808742Y-65941000D01*
X158631258Y-65941000D01*
X158606488Y-65936073D01*
X158457188Y-65906376D01*
X158293216Y-65838456D01*
X158145646Y-65739853D01*
X158020147Y-65614354D01*
X157921544Y-65466784D01*
X157853624Y-65302812D01*
X157819000Y-65128741D01*
X157819000Y-64951259D01*
X157853624Y-64777188D01*
X157921544Y-64613216D01*
X158020147Y-64465646D01*
X158145646Y-64340147D01*
X158293216Y-64241544D01*
X158457188Y-64173624D01*
X158606488Y-64143927D01*
X158631258Y-64139000D01*
X158808742Y-64139000D01*
X158833512Y-64143927D01*
G37*
G36*
X156293512Y-64143927D02*
G01*
X156442812Y-64173624D01*
X156606784Y-64241544D01*
X156754354Y-64340147D01*
X156879853Y-64465646D01*
X156978456Y-64613216D01*
X157046376Y-64777188D01*
X157081000Y-64951259D01*
X157081000Y-65128741D01*
X157046376Y-65302812D01*
X156978456Y-65466784D01*
X156879853Y-65614354D01*
X156754354Y-65739853D01*
X156606784Y-65838456D01*
X156442812Y-65906376D01*
X156293512Y-65936073D01*
X156268742Y-65941000D01*
X156091258Y-65941000D01*
X156066488Y-65936073D01*
X155917188Y-65906376D01*
X155753216Y-65838456D01*
X155605646Y-65739853D01*
X155480147Y-65614354D01*
X155381544Y-65466784D01*
X155313624Y-65302812D01*
X155279000Y-65128741D01*
X155279000Y-64951259D01*
X155313624Y-64777188D01*
X155381544Y-64613216D01*
X155480147Y-64465646D01*
X155605646Y-64340147D01*
X155753216Y-64241544D01*
X155917188Y-64173624D01*
X156066488Y-64143927D01*
X156091258Y-64139000D01*
X156268742Y-64139000D01*
X156293512Y-64143927D01*
G37*
G36*
X156288796Y-61602989D02*
G01*
X156442812Y-61633624D01*
X156606784Y-61701544D01*
X156754354Y-61800147D01*
X156879853Y-61925646D01*
X156978456Y-62073216D01*
X157046376Y-62237188D01*
X157081000Y-62411259D01*
X157081000Y-62588741D01*
X157046376Y-62762812D01*
X156978456Y-62926784D01*
X156879853Y-63074354D01*
X156754354Y-63199853D01*
X156606784Y-63298456D01*
X156442812Y-63366376D01*
X156294341Y-63395908D01*
X156268742Y-63401000D01*
X156091258Y-63401000D01*
X156065659Y-63395908D01*
X155917188Y-63366376D01*
X155753216Y-63298456D01*
X155605646Y-63199853D01*
X155480147Y-63074354D01*
X155381544Y-62926784D01*
X155313624Y-62762812D01*
X155279000Y-62588741D01*
X155279000Y-62411259D01*
X155313624Y-62237188D01*
X155381544Y-62073216D01*
X155480147Y-61925646D01*
X155605646Y-61800147D01*
X155753216Y-61701544D01*
X155917188Y-61633624D01*
X156071204Y-61602989D01*
X156091258Y-61599000D01*
X156268742Y-61599000D01*
X156288796Y-61602989D01*
G37*
G36*
X177258600Y-61602989D02*
G01*
X177291652Y-61613015D01*
X177322103Y-61629292D01*
X177348799Y-61651201D01*
X177370708Y-61677897D01*
X177386985Y-61708348D01*
X177397011Y-61741400D01*
X177401000Y-61781903D01*
X177401000Y-63218097D01*
X177397011Y-63258600D01*
X177386985Y-63291652D01*
X177370708Y-63322103D01*
X177348799Y-63348799D01*
X177322103Y-63370708D01*
X177291652Y-63386985D01*
X177258600Y-63397011D01*
X177218097Y-63401000D01*
X175781903Y-63401000D01*
X175741400Y-63397011D01*
X175708348Y-63386985D01*
X175677897Y-63370708D01*
X175651201Y-63348799D01*
X175629292Y-63322103D01*
X175613015Y-63291652D01*
X175602989Y-63258600D01*
X175599000Y-63218097D01*
X175599000Y-61781903D01*
X175602989Y-61741400D01*
X175613015Y-61708348D01*
X175629292Y-61677897D01*
X175651201Y-61651201D01*
X175677897Y-61629292D01*
X175708348Y-61613015D01*
X175741400Y-61602989D01*
X175781903Y-61599000D01*
X177218097Y-61599000D01*
X177258600Y-61602989D01*
G37*
G36*
X153748796Y-61602989D02*
G01*
X153902812Y-61633624D01*
X154066784Y-61701544D01*
X154214354Y-61800147D01*
X154339853Y-61925646D01*
X154438456Y-62073216D01*
X154506376Y-62237188D01*
X154541000Y-62411259D01*
X154541000Y-62588741D01*
X154506376Y-62762812D01*
X154438456Y-62926784D01*
X154339853Y-63074354D01*
X154214354Y-63199853D01*
X154066784Y-63298456D01*
X153902812Y-63366376D01*
X153754341Y-63395908D01*
X153728742Y-63401000D01*
X153551258Y-63401000D01*
X153525659Y-63395908D01*
X153377188Y-63366376D01*
X153213216Y-63298456D01*
X153065646Y-63199853D01*
X152940147Y-63074354D01*
X152841544Y-62926784D01*
X152773624Y-62762812D01*
X152739000Y-62588741D01*
X152739000Y-62411259D01*
X152773624Y-62237188D01*
X152841544Y-62073216D01*
X152940147Y-61925646D01*
X153065646Y-61800147D01*
X153213216Y-61701544D01*
X153377188Y-61633624D01*
X153531204Y-61602989D01*
X153551258Y-61599000D01*
X153728742Y-61599000D01*
X153748796Y-61602989D01*
G37*
G36*
X158828796Y-61602989D02*
G01*
X158982812Y-61633624D01*
X159146784Y-61701544D01*
X159294354Y-61800147D01*
X159419853Y-61925646D01*
X159518456Y-62073216D01*
X159586376Y-62237188D01*
X159621000Y-62411259D01*
X159621000Y-62588741D01*
X159586376Y-62762812D01*
X159518456Y-62926784D01*
X159419853Y-63074354D01*
X159294354Y-63199853D01*
X159146784Y-63298456D01*
X158982812Y-63366376D01*
X158834341Y-63395908D01*
X158808742Y-63401000D01*
X158631258Y-63401000D01*
X158605659Y-63395908D01*
X158457188Y-63366376D01*
X158293216Y-63298456D01*
X158145646Y-63199853D01*
X158020147Y-63074354D01*
X157921544Y-62926784D01*
X157853624Y-62762812D01*
X157819000Y-62588741D01*
X157819000Y-62411259D01*
X157853624Y-62237188D01*
X157921544Y-62073216D01*
X158020147Y-61925646D01*
X158145646Y-61800147D01*
X158293216Y-61701544D01*
X158457188Y-61633624D01*
X158611204Y-61602989D01*
X158631258Y-61599000D01*
X158808742Y-61599000D01*
X158828796Y-61602989D01*
G37*
G36*
X161368796Y-61602989D02*
G01*
X161522812Y-61633624D01*
X161686784Y-61701544D01*
X161834354Y-61800147D01*
X161959853Y-61925646D01*
X162058456Y-62073216D01*
X162126376Y-62237188D01*
X162161000Y-62411259D01*
X162161000Y-62588741D01*
X162126376Y-62762812D01*
X162058456Y-62926784D01*
X161959853Y-63074354D01*
X161834354Y-63199853D01*
X161686784Y-63298456D01*
X161522812Y-63366376D01*
X161374341Y-63395908D01*
X161348742Y-63401000D01*
X161171258Y-63401000D01*
X161145659Y-63395908D01*
X160997188Y-63366376D01*
X160833216Y-63298456D01*
X160685646Y-63199853D01*
X160560147Y-63074354D01*
X160461544Y-62926784D01*
X160393624Y-62762812D01*
X160359000Y-62588741D01*
X160359000Y-62411259D01*
X160393624Y-62237188D01*
X160461544Y-62073216D01*
X160560147Y-61925646D01*
X160685646Y-61800147D01*
X160833216Y-61701544D01*
X160997188Y-61633624D01*
X161151204Y-61602989D01*
X161171258Y-61599000D01*
X161348742Y-61599000D01*
X161368796Y-61602989D01*
G37*
G36*
X163908796Y-61602989D02*
G01*
X164062812Y-61633624D01*
X164226784Y-61701544D01*
X164374354Y-61800147D01*
X164499853Y-61925646D01*
X164598456Y-62073216D01*
X164666376Y-62237188D01*
X164701000Y-62411259D01*
X164701000Y-62588741D01*
X164666376Y-62762812D01*
X164598456Y-62926784D01*
X164499853Y-63074354D01*
X164374354Y-63199853D01*
X164226784Y-63298456D01*
X164062812Y-63366376D01*
X163914341Y-63395908D01*
X163888742Y-63401000D01*
X163711258Y-63401000D01*
X163685659Y-63395908D01*
X163537188Y-63366376D01*
X163373216Y-63298456D01*
X163225646Y-63199853D01*
X163100147Y-63074354D01*
X163001544Y-62926784D01*
X162933624Y-62762812D01*
X162899000Y-62588741D01*
X162899000Y-62411259D01*
X162933624Y-62237188D01*
X163001544Y-62073216D01*
X163100147Y-61925646D01*
X163225646Y-61800147D01*
X163373216Y-61701544D01*
X163537188Y-61633624D01*
X163691204Y-61602989D01*
X163711258Y-61599000D01*
X163888742Y-61599000D01*
X163908796Y-61602989D01*
G37*
G36*
X166448796Y-61602989D02*
G01*
X166602812Y-61633624D01*
X166766784Y-61701544D01*
X166914354Y-61800147D01*
X167039853Y-61925646D01*
X167138456Y-62073216D01*
X167206376Y-62237188D01*
X167241000Y-62411259D01*
X167241000Y-62588741D01*
X167206376Y-62762812D01*
X167138456Y-62926784D01*
X167039853Y-63074354D01*
X166914354Y-63199853D01*
X166766784Y-63298456D01*
X166602812Y-63366376D01*
X166454341Y-63395908D01*
X166428742Y-63401000D01*
X166251258Y-63401000D01*
X166225659Y-63395908D01*
X166077188Y-63366376D01*
X165913216Y-63298456D01*
X165765646Y-63199853D01*
X165640147Y-63074354D01*
X165541544Y-62926784D01*
X165473624Y-62762812D01*
X165439000Y-62588741D01*
X165439000Y-62411259D01*
X165473624Y-62237188D01*
X165541544Y-62073216D01*
X165640147Y-61925646D01*
X165765646Y-61800147D01*
X165913216Y-61701544D01*
X166077188Y-61633624D01*
X166231204Y-61602989D01*
X166251258Y-61599000D01*
X166428742Y-61599000D01*
X166448796Y-61602989D01*
G37*
G36*
X168988796Y-61602989D02*
G01*
X169142812Y-61633624D01*
X169306784Y-61701544D01*
X169454354Y-61800147D01*
X169579853Y-61925646D01*
X169678456Y-62073216D01*
X169746376Y-62237188D01*
X169781000Y-62411259D01*
X169781000Y-62588741D01*
X169746376Y-62762812D01*
X169678456Y-62926784D01*
X169579853Y-63074354D01*
X169454354Y-63199853D01*
X169306784Y-63298456D01*
X169142812Y-63366376D01*
X168994341Y-63395908D01*
X168968742Y-63401000D01*
X168791258Y-63401000D01*
X168765659Y-63395908D01*
X168617188Y-63366376D01*
X168453216Y-63298456D01*
X168305646Y-63199853D01*
X168180147Y-63074354D01*
X168081544Y-62926784D01*
X168013624Y-62762812D01*
X167979000Y-62588741D01*
X167979000Y-62411259D01*
X168013624Y-62237188D01*
X168081544Y-62073216D01*
X168180147Y-61925646D01*
X168305646Y-61800147D01*
X168453216Y-61701544D01*
X168617188Y-61633624D01*
X168771204Y-61602989D01*
X168791258Y-61599000D01*
X168968742Y-61599000D01*
X168988796Y-61602989D01*
G37*
G36*
X171528796Y-61602989D02*
G01*
X171682812Y-61633624D01*
X171846784Y-61701544D01*
X171994354Y-61800147D01*
X172119853Y-61925646D01*
X172218456Y-62073216D01*
X172286376Y-62237188D01*
X172321000Y-62411259D01*
X172321000Y-62588741D01*
X172286376Y-62762812D01*
X172218456Y-62926784D01*
X172119853Y-63074354D01*
X171994354Y-63199853D01*
X171846784Y-63298456D01*
X171682812Y-63366376D01*
X171534341Y-63395908D01*
X171508742Y-63401000D01*
X171331258Y-63401000D01*
X171305659Y-63395908D01*
X171157188Y-63366376D01*
X170993216Y-63298456D01*
X170845646Y-63199853D01*
X170720147Y-63074354D01*
X170621544Y-62926784D01*
X170553624Y-62762812D01*
X170519000Y-62588741D01*
X170519000Y-62411259D01*
X170553624Y-62237188D01*
X170621544Y-62073216D01*
X170720147Y-61925646D01*
X170845646Y-61800147D01*
X170993216Y-61701544D01*
X171157188Y-61633624D01*
X171311204Y-61602989D01*
X171331258Y-61599000D01*
X171508742Y-61599000D01*
X171528796Y-61602989D01*
G37*
G36*
X174068796Y-61602989D02*
G01*
X174222812Y-61633624D01*
X174386784Y-61701544D01*
X174534354Y-61800147D01*
X174659853Y-61925646D01*
X174758456Y-62073216D01*
X174826376Y-62237188D01*
X174861000Y-62411259D01*
X174861000Y-62588741D01*
X174826376Y-62762812D01*
X174758456Y-62926784D01*
X174659853Y-63074354D01*
X174534354Y-63199853D01*
X174386784Y-63298456D01*
X174222812Y-63366376D01*
X174074341Y-63395908D01*
X174048742Y-63401000D01*
X173871258Y-63401000D01*
X173845659Y-63395908D01*
X173697188Y-63366376D01*
X173533216Y-63298456D01*
X173385646Y-63199853D01*
X173260147Y-63074354D01*
X173161544Y-62926784D01*
X173093624Y-62762812D01*
X173059000Y-62588741D01*
X173059000Y-62411259D01*
X173093624Y-62237188D01*
X173161544Y-62073216D01*
X173260147Y-61925646D01*
X173385646Y-61800147D01*
X173533216Y-61701544D01*
X173697188Y-61633624D01*
X173851204Y-61602989D01*
X173871258Y-61599000D01*
X174048742Y-61599000D01*
X174068796Y-61602989D01*
G37*
M02*
