G04 #@! TF.GenerationSoftware,KiCad,Pcbnew,5.1.5+dfsg1-2build2*
G04 #@! TF.CreationDate,2024-06-21T19:04:03+01:00*
G04 #@! TF.ProjectId,desktop_esc,6465736b-746f-4705-9f65-73632e6b6963,rev?*
G04 #@! TF.SameCoordinates,Original*
G04 #@! TF.FileFunction,Soldermask,Top*
G04 #@! TF.FilePolarity,Negative*
%FSLAX46Y46*%
G04 Gerber Fmt 4.6, Leading zero omitted, Abs format (unit mm)*
G04 Created by KiCad (PCBNEW 5.1.5+dfsg1-2build2) date 2024-06-21 19:04:03*
%MOMM*%
%LPD*%
G04 APERTURE LIST*
%ADD10C,0.100000*%
G04 APERTURE END LIST*
D10*
G36*
X118985512Y-129659927D02*
G01*
X119134812Y-129689624D01*
X119298784Y-129757544D01*
X119446354Y-129856147D01*
X119571853Y-129981646D01*
X119670456Y-130129216D01*
X119738376Y-130293188D01*
X119773000Y-130467259D01*
X119773000Y-130644741D01*
X119738376Y-130818812D01*
X119670456Y-130982784D01*
X119571853Y-131130354D01*
X119446354Y-131255853D01*
X119298784Y-131354456D01*
X119134812Y-131422376D01*
X118985512Y-131452073D01*
X118960742Y-131457000D01*
X118783258Y-131457000D01*
X118758488Y-131452073D01*
X118609188Y-131422376D01*
X118445216Y-131354456D01*
X118297646Y-131255853D01*
X118172147Y-131130354D01*
X118073544Y-130982784D01*
X118005624Y-130818812D01*
X117971000Y-130644741D01*
X117971000Y-130467259D01*
X118005624Y-130293188D01*
X118073544Y-130129216D01*
X118172147Y-129981646D01*
X118297646Y-129856147D01*
X118445216Y-129757544D01*
X118609188Y-129689624D01*
X118758488Y-129659927D01*
X118783258Y-129655000D01*
X118960742Y-129655000D01*
X118985512Y-129659927D01*
G37*
G36*
X117233000Y-131457000D02*
G01*
X115431000Y-131457000D01*
X115431000Y-129655000D01*
X117233000Y-129655000D01*
X117233000Y-131457000D01*
G37*
G36*
X112919000Y-129151000D02*
G01*
X111617000Y-129151000D01*
X111617000Y-128149000D01*
X112919000Y-128149000D01*
X112919000Y-129151000D01*
G37*
G36*
X130848999Y-127215737D02*
G01*
X130858608Y-127218652D01*
X130867472Y-127223390D01*
X130875212Y-127229742D01*
X130875213Y-127229743D01*
X130875237Y-127229763D01*
X130881640Y-127237573D01*
X130881677Y-127237628D01*
X130889480Y-127247147D01*
X130889511Y-127247122D01*
X130900853Y-127260972D01*
X130919779Y-127276537D01*
X130941377Y-127288111D01*
X130964819Y-127295249D01*
X130989202Y-127297676D01*
X131013591Y-127295300D01*
X131037047Y-127288211D01*
X131058670Y-127276682D01*
X131077628Y-127261157D01*
X131093193Y-127242231D01*
X131095029Y-127239175D01*
X131096418Y-127237486D01*
X131096419Y-127237484D01*
X131102801Y-127229725D01*
X131110573Y-127223360D01*
X131110575Y-127223358D01*
X131119399Y-127218654D01*
X131119438Y-127218633D01*
X131129055Y-127215727D01*
X131129085Y-127215718D01*
X131145113Y-127214148D01*
X132282860Y-127214148D01*
X132298999Y-127215737D01*
X132308608Y-127218652D01*
X132317472Y-127223390D01*
X132325237Y-127229763D01*
X132331610Y-127237528D01*
X132336348Y-127246392D01*
X132339263Y-127256001D01*
X132340852Y-127272140D01*
X132340852Y-128759860D01*
X132339263Y-128775999D01*
X132336348Y-128785608D01*
X132331610Y-128794472D01*
X132325237Y-128802237D01*
X132317472Y-128808610D01*
X132308608Y-128813348D01*
X132298999Y-128816263D01*
X132282860Y-128817852D01*
X131145140Y-128817852D01*
X131129001Y-128816263D01*
X131119392Y-128813348D01*
X131110528Y-128808610D01*
X131102763Y-128802237D01*
X131092116Y-128789263D01*
X131085947Y-128780032D01*
X131068619Y-128762706D01*
X131048244Y-128749093D01*
X131025605Y-128739717D01*
X131001572Y-128734937D01*
X130977068Y-128734938D01*
X130953035Y-128739720D01*
X130930396Y-128749098D01*
X130910022Y-128762713D01*
X130892696Y-128780041D01*
X130885825Y-128789317D01*
X130881640Y-128794427D01*
X130875275Y-128802199D01*
X130867516Y-128808581D01*
X130858661Y-128813326D01*
X130855623Y-128814251D01*
X130849085Y-128816242D01*
X130849082Y-128816242D01*
X130849050Y-128816252D01*
X130839000Y-128817247D01*
X130838935Y-128817247D01*
X130832825Y-128817852D01*
X129845140Y-128817852D01*
X129829001Y-128816263D01*
X129819392Y-128813348D01*
X129810528Y-128808610D01*
X129802763Y-128802237D01*
X129796390Y-128794472D01*
X129791652Y-128785608D01*
X129788737Y-128775999D01*
X129787148Y-128759860D01*
X129787148Y-127272140D01*
X129788737Y-127256001D01*
X129791652Y-127246392D01*
X129796390Y-127237528D01*
X129802763Y-127229763D01*
X129810528Y-127223390D01*
X129819392Y-127218652D01*
X129829001Y-127215737D01*
X129845140Y-127214148D01*
X130832860Y-127214148D01*
X130848999Y-127215737D01*
G37*
G36*
X126276999Y-127215737D02*
G01*
X126286608Y-127218652D01*
X126295472Y-127223390D01*
X126303212Y-127229742D01*
X126303213Y-127229743D01*
X126303237Y-127229763D01*
X126309640Y-127237573D01*
X126309677Y-127237628D01*
X126317480Y-127247147D01*
X126317511Y-127247122D01*
X126328853Y-127260972D01*
X126347779Y-127276537D01*
X126369377Y-127288111D01*
X126392819Y-127295249D01*
X126417202Y-127297676D01*
X126441591Y-127295300D01*
X126465047Y-127288211D01*
X126486670Y-127276682D01*
X126505628Y-127261157D01*
X126521193Y-127242231D01*
X126523029Y-127239175D01*
X126524418Y-127237486D01*
X126524419Y-127237484D01*
X126530801Y-127229725D01*
X126538573Y-127223360D01*
X126538575Y-127223358D01*
X126547399Y-127218654D01*
X126547438Y-127218633D01*
X126557055Y-127215727D01*
X126557085Y-127215718D01*
X126573113Y-127214148D01*
X127710860Y-127214148D01*
X127726999Y-127215737D01*
X127736608Y-127218652D01*
X127745472Y-127223390D01*
X127753237Y-127229763D01*
X127759610Y-127237528D01*
X127764348Y-127246392D01*
X127767263Y-127256001D01*
X127768852Y-127272140D01*
X127768852Y-128759860D01*
X127767263Y-128775999D01*
X127764348Y-128785608D01*
X127759610Y-128794472D01*
X127753237Y-128802237D01*
X127745472Y-128808610D01*
X127736608Y-128813348D01*
X127726999Y-128816263D01*
X127710860Y-128817852D01*
X126573140Y-128817852D01*
X126557001Y-128816263D01*
X126547392Y-128813348D01*
X126538528Y-128808610D01*
X126530763Y-128802237D01*
X126520116Y-128789263D01*
X126513947Y-128780032D01*
X126496619Y-128762706D01*
X126476244Y-128749093D01*
X126453605Y-128739717D01*
X126429572Y-128734937D01*
X126405068Y-128734938D01*
X126381035Y-128739720D01*
X126358396Y-128749098D01*
X126338022Y-128762713D01*
X126320696Y-128780041D01*
X126313825Y-128789317D01*
X126309640Y-128794427D01*
X126303275Y-128802199D01*
X126295516Y-128808581D01*
X126286661Y-128813326D01*
X126283623Y-128814251D01*
X126277085Y-128816242D01*
X126277082Y-128816242D01*
X126277050Y-128816252D01*
X126267000Y-128817247D01*
X126266935Y-128817247D01*
X126260825Y-128817852D01*
X125273140Y-128817852D01*
X125257001Y-128816263D01*
X125247392Y-128813348D01*
X125238528Y-128808610D01*
X125230763Y-128802237D01*
X125224390Y-128794472D01*
X125219652Y-128785608D01*
X125216737Y-128775999D01*
X125215148Y-128759860D01*
X125215148Y-127272140D01*
X125216737Y-127256001D01*
X125219652Y-127246392D01*
X125224390Y-127237528D01*
X125230763Y-127229763D01*
X125238528Y-127223390D01*
X125247392Y-127218652D01*
X125257001Y-127215737D01*
X125273140Y-127214148D01*
X126260860Y-127214148D01*
X126276999Y-127215737D01*
G37*
G36*
X112919000Y-125851000D02*
G01*
X111617000Y-125851000D01*
X111617000Y-124849000D01*
X112919000Y-124849000D01*
X112919000Y-125851000D01*
G37*
G36*
X100113512Y-124043927D02*
G01*
X100262812Y-124073624D01*
X100426784Y-124141544D01*
X100574354Y-124240147D01*
X100699853Y-124365646D01*
X100798456Y-124513216D01*
X100866376Y-124677188D01*
X100901000Y-124851259D01*
X100901000Y-125028741D01*
X100866376Y-125202812D01*
X100798456Y-125366784D01*
X100699853Y-125514354D01*
X100574354Y-125639853D01*
X100426784Y-125738456D01*
X100262812Y-125806376D01*
X100113512Y-125836073D01*
X100088742Y-125841000D01*
X99911258Y-125841000D01*
X99886488Y-125836073D01*
X99737188Y-125806376D01*
X99573216Y-125738456D01*
X99425646Y-125639853D01*
X99300147Y-125514354D01*
X99201544Y-125366784D01*
X99133624Y-125202812D01*
X99099000Y-125028741D01*
X99099000Y-124851259D01*
X99133624Y-124677188D01*
X99201544Y-124513216D01*
X99300147Y-124365646D01*
X99425646Y-124240147D01*
X99573216Y-124141544D01*
X99737188Y-124073624D01*
X99886488Y-124043927D01*
X99911258Y-124039000D01*
X100088742Y-124039000D01*
X100113512Y-124043927D01*
G37*
G36*
X137071000Y-124391000D02*
G01*
X135269000Y-124391000D01*
X135269000Y-120789000D01*
X137071000Y-120789000D01*
X137071000Y-124391000D01*
G37*
G36*
X139611000Y-124391000D02*
G01*
X137809000Y-124391000D01*
X137809000Y-120789000D01*
X139611000Y-120789000D01*
X139611000Y-124391000D01*
G37*
G36*
X142151000Y-124391000D02*
G01*
X140349000Y-124391000D01*
X140349000Y-120789000D01*
X142151000Y-120789000D01*
X142151000Y-124391000D01*
G37*
G36*
X144691000Y-124391000D02*
G01*
X142889000Y-124391000D01*
X142889000Y-120789000D01*
X144691000Y-120789000D01*
X144691000Y-124391000D01*
G37*
G36*
X147231000Y-124391000D02*
G01*
X145429000Y-124391000D01*
X145429000Y-120789000D01*
X147231000Y-120789000D01*
X147231000Y-124391000D01*
G37*
G36*
X149771000Y-124391000D02*
G01*
X147969000Y-124391000D01*
X147969000Y-120789000D01*
X149771000Y-120789000D01*
X149771000Y-124391000D01*
G37*
G36*
X152311000Y-124391000D02*
G01*
X150509000Y-124391000D01*
X150509000Y-120789000D01*
X152311000Y-120789000D01*
X152311000Y-124391000D01*
G37*
G36*
X154851000Y-124391000D02*
G01*
X153049000Y-124391000D01*
X153049000Y-120789000D01*
X154851000Y-120789000D01*
X154851000Y-124391000D01*
G37*
G36*
X157391000Y-124391000D02*
G01*
X155589000Y-124391000D01*
X155589000Y-120789000D01*
X157391000Y-120789000D01*
X157391000Y-124391000D01*
G37*
G36*
X159931000Y-124391000D02*
G01*
X158129000Y-124391000D01*
X158129000Y-120789000D01*
X159931000Y-120789000D01*
X159931000Y-124391000D01*
G37*
G36*
X165011000Y-124391000D02*
G01*
X163209000Y-124391000D01*
X163209000Y-120789000D01*
X165011000Y-120789000D01*
X165011000Y-124391000D01*
G37*
G36*
X167551000Y-124391000D02*
G01*
X165749000Y-124391000D01*
X165749000Y-120789000D01*
X167551000Y-120789000D01*
X167551000Y-124391000D01*
G37*
G36*
X170091000Y-124391000D02*
G01*
X168289000Y-124391000D01*
X168289000Y-120789000D01*
X170091000Y-120789000D01*
X170091000Y-124391000D01*
G37*
G36*
X172631000Y-124391000D02*
G01*
X170829000Y-124391000D01*
X170829000Y-120789000D01*
X172631000Y-120789000D01*
X172631000Y-124391000D01*
G37*
G36*
X175171000Y-124391000D02*
G01*
X173369000Y-124391000D01*
X173369000Y-120789000D01*
X175171000Y-120789000D01*
X175171000Y-124391000D01*
G37*
G36*
X177711000Y-124391000D02*
G01*
X175909000Y-124391000D01*
X175909000Y-120789000D01*
X177711000Y-120789000D01*
X177711000Y-124391000D01*
G37*
G36*
X182791000Y-124391000D02*
G01*
X180989000Y-124391000D01*
X180989000Y-120789000D01*
X182791000Y-120789000D01*
X182791000Y-124391000D01*
G37*
G36*
X180251000Y-124391000D02*
G01*
X178449000Y-124391000D01*
X178449000Y-120789000D01*
X180251000Y-120789000D01*
X180251000Y-124391000D01*
G37*
G36*
X185331000Y-124391000D02*
G01*
X183529000Y-124391000D01*
X183529000Y-120789000D01*
X185331000Y-120789000D01*
X185331000Y-124391000D01*
G37*
G36*
X162471000Y-124391000D02*
G01*
X160669000Y-124391000D01*
X160669000Y-120789000D01*
X162471000Y-120789000D01*
X162471000Y-124391000D01*
G37*
G36*
X100113512Y-121503927D02*
G01*
X100262812Y-121533624D01*
X100426784Y-121601544D01*
X100574354Y-121700147D01*
X100699853Y-121825646D01*
X100798456Y-121973216D01*
X100866376Y-122137188D01*
X100901000Y-122311259D01*
X100901000Y-122488741D01*
X100866376Y-122662812D01*
X100798456Y-122826784D01*
X100699853Y-122974354D01*
X100574354Y-123099853D01*
X100426784Y-123198456D01*
X100262812Y-123266376D01*
X100113512Y-123296073D01*
X100088742Y-123301000D01*
X99911258Y-123301000D01*
X99886488Y-123296073D01*
X99737188Y-123266376D01*
X99573216Y-123198456D01*
X99425646Y-123099853D01*
X99300147Y-122974354D01*
X99201544Y-122826784D01*
X99133624Y-122662812D01*
X99099000Y-122488741D01*
X99099000Y-122311259D01*
X99133624Y-122137188D01*
X99201544Y-121973216D01*
X99300147Y-121825646D01*
X99425646Y-121700147D01*
X99573216Y-121601544D01*
X99737188Y-121533624D01*
X99886488Y-121503927D01*
X99911258Y-121499000D01*
X100088742Y-121499000D01*
X100113512Y-121503927D01*
G37*
G36*
X111843242Y-120749404D02*
G01*
X111880337Y-120760657D01*
X111914515Y-120778925D01*
X111944481Y-120803519D01*
X111969075Y-120833485D01*
X111987343Y-120867663D01*
X111998596Y-120904758D01*
X112003000Y-120949474D01*
X112003000Y-121842526D01*
X111998596Y-121887242D01*
X111987343Y-121924337D01*
X111969075Y-121958515D01*
X111944481Y-121988481D01*
X111914515Y-122013075D01*
X111880337Y-122031343D01*
X111843242Y-122042596D01*
X111798526Y-122047000D01*
X110705474Y-122047000D01*
X110660758Y-122042596D01*
X110623663Y-122031343D01*
X110589485Y-122013075D01*
X110559519Y-121988481D01*
X110534925Y-121958515D01*
X110516657Y-121924337D01*
X110505404Y-121887242D01*
X110501000Y-121842526D01*
X110501000Y-120949474D01*
X110505404Y-120904758D01*
X110516657Y-120867663D01*
X110534925Y-120833485D01*
X110559519Y-120803519D01*
X110589485Y-120778925D01*
X110623663Y-120760657D01*
X110660758Y-120749404D01*
X110705474Y-120745000D01*
X111798526Y-120745000D01*
X111843242Y-120749404D01*
G37*
G36*
X115757000Y-121465000D02*
G01*
X113655000Y-121465000D01*
X113655000Y-119863000D01*
X115757000Y-119863000D01*
X115757000Y-121465000D01*
G37*
G36*
X100110515Y-118963331D02*
G01*
X100262812Y-118993624D01*
X100426784Y-119061544D01*
X100574354Y-119160147D01*
X100699853Y-119285646D01*
X100798456Y-119433216D01*
X100866376Y-119597188D01*
X100901000Y-119771259D01*
X100901000Y-119948741D01*
X100866376Y-120122812D01*
X100798456Y-120286784D01*
X100699853Y-120434354D01*
X100574354Y-120559853D01*
X100426784Y-120658456D01*
X100262812Y-120726376D01*
X100113512Y-120756073D01*
X100088742Y-120761000D01*
X99911258Y-120761000D01*
X99886488Y-120756073D01*
X99737188Y-120726376D01*
X99573216Y-120658456D01*
X99425646Y-120559853D01*
X99300147Y-120434354D01*
X99201544Y-120286784D01*
X99133624Y-120122812D01*
X99099000Y-119948741D01*
X99099000Y-119771259D01*
X99133624Y-119597188D01*
X99201544Y-119433216D01*
X99300147Y-119285646D01*
X99425646Y-119160147D01*
X99573216Y-119061544D01*
X99737188Y-118993624D01*
X99889485Y-118963331D01*
X99911258Y-118959000D01*
X100088742Y-118959000D01*
X100110515Y-118963331D01*
G37*
G36*
X122057000Y-120315000D02*
G01*
X119955000Y-120315000D01*
X119955000Y-116413000D01*
X122057000Y-116413000D01*
X122057000Y-120315000D01*
G37*
G36*
X111843242Y-118749404D02*
G01*
X111880337Y-118760657D01*
X111914515Y-118778925D01*
X111944481Y-118803519D01*
X111969075Y-118833485D01*
X111987343Y-118867663D01*
X111998596Y-118904758D01*
X112003000Y-118949474D01*
X112003000Y-119842526D01*
X111998596Y-119887242D01*
X111987343Y-119924337D01*
X111969075Y-119958515D01*
X111944481Y-119988481D01*
X111914515Y-120013075D01*
X111880337Y-120031343D01*
X111843242Y-120042596D01*
X111798526Y-120047000D01*
X110705474Y-120047000D01*
X110660758Y-120042596D01*
X110623663Y-120031343D01*
X110589485Y-120013075D01*
X110559519Y-119988481D01*
X110534925Y-119958515D01*
X110516657Y-119924337D01*
X110505404Y-119887242D01*
X110501000Y-119842526D01*
X110501000Y-118949474D01*
X110505404Y-118904758D01*
X110516657Y-118867663D01*
X110534925Y-118833485D01*
X110559519Y-118803519D01*
X110589485Y-118778925D01*
X110623663Y-118760657D01*
X110660758Y-118749404D01*
X110705474Y-118745000D01*
X111798526Y-118745000D01*
X111843242Y-118749404D01*
G37*
G36*
X115757000Y-119165000D02*
G01*
X113655000Y-119165000D01*
X113655000Y-117563000D01*
X115757000Y-117563000D01*
X115757000Y-119165000D01*
G37*
G36*
X100097474Y-116420737D02*
G01*
X100262812Y-116453624D01*
X100426784Y-116521544D01*
X100574354Y-116620147D01*
X100699853Y-116745646D01*
X100798456Y-116893216D01*
X100866376Y-117057188D01*
X100893305Y-117192573D01*
X100900959Y-117231050D01*
X100901000Y-117231259D01*
X100901000Y-117408741D01*
X100866376Y-117582812D01*
X100798456Y-117746784D01*
X100699853Y-117894354D01*
X100574354Y-118019853D01*
X100426784Y-118118456D01*
X100262812Y-118186376D01*
X100113512Y-118216073D01*
X100088742Y-118221000D01*
X99911258Y-118221000D01*
X99886488Y-118216073D01*
X99737188Y-118186376D01*
X99573216Y-118118456D01*
X99425646Y-118019853D01*
X99300147Y-117894354D01*
X99201544Y-117746784D01*
X99133624Y-117582812D01*
X99099000Y-117408741D01*
X99099000Y-117231259D01*
X99099042Y-117231050D01*
X99106695Y-117192573D01*
X99133624Y-117057188D01*
X99201544Y-116893216D01*
X99300147Y-116745646D01*
X99425646Y-116620147D01*
X99573216Y-116521544D01*
X99737188Y-116453624D01*
X99902526Y-116420737D01*
X99911258Y-116419000D01*
X100088742Y-116419000D01*
X100097474Y-116420737D01*
G37*
G36*
X105475839Y-116420737D02*
G01*
X105485448Y-116423652D01*
X105494312Y-116428390D01*
X105502052Y-116434742D01*
X105502053Y-116434743D01*
X105502077Y-116434763D01*
X105508480Y-116442573D01*
X105508517Y-116442628D01*
X105516320Y-116452147D01*
X105516351Y-116452122D01*
X105527693Y-116465972D01*
X105546619Y-116481537D01*
X105568217Y-116493111D01*
X105591659Y-116500249D01*
X105616042Y-116502676D01*
X105640431Y-116500300D01*
X105663887Y-116493211D01*
X105685510Y-116481682D01*
X105704468Y-116466157D01*
X105720033Y-116447231D01*
X105721869Y-116444175D01*
X105723258Y-116442486D01*
X105723259Y-116442484D01*
X105729641Y-116434725D01*
X105737413Y-116428360D01*
X105737415Y-116428358D01*
X105746239Y-116423654D01*
X105746278Y-116423633D01*
X105755895Y-116420727D01*
X105755925Y-116420718D01*
X105771953Y-116419148D01*
X106909700Y-116419148D01*
X106925839Y-116420737D01*
X106935448Y-116423652D01*
X106944312Y-116428390D01*
X106952077Y-116434763D01*
X106958450Y-116442528D01*
X106963188Y-116451392D01*
X106966103Y-116461001D01*
X106967692Y-116477140D01*
X106967692Y-117964860D01*
X106966103Y-117980999D01*
X106963188Y-117990608D01*
X106958450Y-117999472D01*
X106952077Y-118007237D01*
X106944312Y-118013610D01*
X106935448Y-118018348D01*
X106925839Y-118021263D01*
X106909700Y-118022852D01*
X105771980Y-118022852D01*
X105755841Y-118021263D01*
X105746232Y-118018348D01*
X105737368Y-118013610D01*
X105729603Y-118007237D01*
X105718956Y-117994263D01*
X105712787Y-117985032D01*
X105695459Y-117967706D01*
X105675084Y-117954093D01*
X105652445Y-117944717D01*
X105628412Y-117939937D01*
X105603908Y-117939938D01*
X105579875Y-117944720D01*
X105557236Y-117954098D01*
X105536862Y-117967713D01*
X105519536Y-117985041D01*
X105512665Y-117994317D01*
X105508480Y-117999427D01*
X105502115Y-118007199D01*
X105494356Y-118013581D01*
X105485501Y-118018326D01*
X105482463Y-118019251D01*
X105475925Y-118021242D01*
X105475922Y-118021242D01*
X105475890Y-118021252D01*
X105465840Y-118022247D01*
X105465775Y-118022247D01*
X105459665Y-118022852D01*
X104471980Y-118022852D01*
X104455841Y-118021263D01*
X104446232Y-118018348D01*
X104437368Y-118013610D01*
X104429603Y-118007237D01*
X104423230Y-117999472D01*
X104418492Y-117990608D01*
X104415577Y-117980999D01*
X104413988Y-117964860D01*
X104413988Y-116477140D01*
X104415577Y-116461001D01*
X104418492Y-116451392D01*
X104423230Y-116442528D01*
X104429603Y-116434763D01*
X104437368Y-116428390D01*
X104446232Y-116423652D01*
X104455841Y-116420737D01*
X104471980Y-116419148D01*
X105459700Y-116419148D01*
X105475839Y-116420737D01*
G37*
G36*
X111843242Y-116701404D02*
G01*
X111880337Y-116712657D01*
X111914515Y-116730925D01*
X111944481Y-116755519D01*
X111969075Y-116785485D01*
X111987343Y-116819663D01*
X111998596Y-116856758D01*
X112003000Y-116901474D01*
X112003000Y-117794526D01*
X111998596Y-117839242D01*
X111987343Y-117876337D01*
X111969075Y-117910515D01*
X111944481Y-117940481D01*
X111914515Y-117965075D01*
X111880337Y-117983343D01*
X111843242Y-117994596D01*
X111798526Y-117999000D01*
X110705474Y-117999000D01*
X110660758Y-117994596D01*
X110623663Y-117983343D01*
X110589485Y-117965075D01*
X110559519Y-117940481D01*
X110534925Y-117910515D01*
X110516657Y-117876337D01*
X110505404Y-117839242D01*
X110501000Y-117794526D01*
X110501000Y-116901474D01*
X110505404Y-116856758D01*
X110516657Y-116819663D01*
X110534925Y-116785485D01*
X110559519Y-116755519D01*
X110589485Y-116730925D01*
X110623663Y-116712657D01*
X110660758Y-116701404D01*
X110705474Y-116697000D01*
X111798526Y-116697000D01*
X111843242Y-116701404D01*
G37*
G36*
X115757000Y-116865000D02*
G01*
X113655000Y-116865000D01*
X113655000Y-115263000D01*
X115757000Y-115263000D01*
X115757000Y-116865000D01*
G37*
G36*
X184577395Y-114610546D02*
G01*
X184750466Y-114682234D01*
X184779156Y-114701404D01*
X184906227Y-114786310D01*
X185038690Y-114918773D01*
X185091081Y-114997182D01*
X185142766Y-115074534D01*
X185214454Y-115247605D01*
X185251000Y-115431333D01*
X185251000Y-115618667D01*
X185214454Y-115802395D01*
X185142766Y-115975466D01*
X185129568Y-115995218D01*
X185038690Y-116131227D01*
X184906227Y-116263690D01*
X184827818Y-116316081D01*
X184750466Y-116367766D01*
X184577395Y-116439454D01*
X184393667Y-116476000D01*
X184206333Y-116476000D01*
X184022605Y-116439454D01*
X183849534Y-116367766D01*
X183772182Y-116316081D01*
X183693773Y-116263690D01*
X183561310Y-116131227D01*
X183470432Y-115995218D01*
X183457234Y-115975466D01*
X183385546Y-115802395D01*
X183349000Y-115618667D01*
X183349000Y-115431333D01*
X183385546Y-115247605D01*
X183457234Y-115074534D01*
X183508919Y-114997182D01*
X183561310Y-114918773D01*
X183693773Y-114786310D01*
X183820844Y-114701404D01*
X183849534Y-114682234D01*
X184022605Y-114610546D01*
X184206333Y-114574000D01*
X184393667Y-114574000D01*
X184577395Y-114610546D01*
G37*
G36*
X137301000Y-116241000D02*
G01*
X133699000Y-116241000D01*
X133699000Y-114439000D01*
X137301000Y-114439000D01*
X137301000Y-116241000D01*
G37*
G36*
X127393000Y-116217000D02*
G01*
X125591000Y-116217000D01*
X125591000Y-114415000D01*
X127393000Y-114415000D01*
X127393000Y-116217000D01*
G37*
G36*
X181503642Y-114454781D02*
G01*
X181649414Y-114515162D01*
X181649416Y-114515163D01*
X181780608Y-114602822D01*
X181892178Y-114714392D01*
X181961106Y-114817551D01*
X181979838Y-114845586D01*
X182040219Y-114991358D01*
X182071000Y-115146107D01*
X182071000Y-115303893D01*
X182040219Y-115458642D01*
X181979838Y-115604414D01*
X181979837Y-115604416D01*
X181892178Y-115735608D01*
X181780608Y-115847178D01*
X181649416Y-115934837D01*
X181649415Y-115934838D01*
X181649414Y-115934838D01*
X181503642Y-115995219D01*
X181348893Y-116026000D01*
X181191107Y-116026000D01*
X181036358Y-115995219D01*
X180890586Y-115934838D01*
X180890585Y-115934838D01*
X180890584Y-115934837D01*
X180759392Y-115847178D01*
X180647822Y-115735608D01*
X180560163Y-115604416D01*
X180560162Y-115604414D01*
X180499781Y-115458642D01*
X180469000Y-115303893D01*
X180469000Y-115146107D01*
X180499781Y-114991358D01*
X180560162Y-114845586D01*
X180578894Y-114817551D01*
X180647822Y-114714392D01*
X180759392Y-114602822D01*
X180890584Y-114515163D01*
X180890586Y-114515162D01*
X181036358Y-114454781D01*
X181191107Y-114424000D01*
X181348893Y-114424000D01*
X181503642Y-114454781D01*
G37*
G36*
X111843242Y-114701404D02*
G01*
X111880337Y-114712657D01*
X111914515Y-114730925D01*
X111944481Y-114755519D01*
X111969075Y-114785485D01*
X111987343Y-114819663D01*
X111998596Y-114856758D01*
X112003000Y-114901474D01*
X112003000Y-115794526D01*
X111998596Y-115839242D01*
X111987343Y-115876337D01*
X111969075Y-115910515D01*
X111944481Y-115940481D01*
X111914515Y-115965075D01*
X111880337Y-115983343D01*
X111843242Y-115994596D01*
X111798526Y-115999000D01*
X110705474Y-115999000D01*
X110660758Y-115994596D01*
X110623663Y-115983343D01*
X110589485Y-115965075D01*
X110559519Y-115940481D01*
X110534925Y-115910515D01*
X110516657Y-115876337D01*
X110505404Y-115839242D01*
X110501000Y-115794526D01*
X110501000Y-114901474D01*
X110505404Y-114856758D01*
X110516657Y-114819663D01*
X110534925Y-114785485D01*
X110559519Y-114755519D01*
X110589485Y-114730925D01*
X110623663Y-114712657D01*
X110660758Y-114701404D01*
X110705474Y-114697000D01*
X111798526Y-114697000D01*
X111843242Y-114701404D01*
G37*
G36*
X191397199Y-113353954D02*
G01*
X191409450Y-113354556D01*
X191427869Y-113354556D01*
X191450149Y-113356750D01*
X191534233Y-113373476D01*
X191555660Y-113379976D01*
X191634858Y-113412780D01*
X191640303Y-113415691D01*
X191640309Y-113415693D01*
X191649169Y-113420429D01*
X191649173Y-113420432D01*
X191654614Y-113423340D01*
X191725899Y-113470971D01*
X191743204Y-113485172D01*
X191803828Y-113545796D01*
X191818029Y-113563101D01*
X191865660Y-113634386D01*
X191868568Y-113639827D01*
X191868571Y-113639831D01*
X191873307Y-113648691D01*
X191873309Y-113648697D01*
X191876220Y-113654142D01*
X191909024Y-113733340D01*
X191915524Y-113754767D01*
X191932250Y-113838851D01*
X191934444Y-113861131D01*
X191934444Y-113879550D01*
X191935046Y-113891801D01*
X191936852Y-113910139D01*
X191936852Y-114397860D01*
X191935263Y-114413999D01*
X191932348Y-114423608D01*
X191927610Y-114432472D01*
X191921237Y-114440237D01*
X191908794Y-114450448D01*
X191898425Y-114457378D01*
X191881098Y-114474705D01*
X191867485Y-114495080D01*
X191858109Y-114517720D01*
X191853329Y-114541753D01*
X191853330Y-114566257D01*
X191858112Y-114590290D01*
X191867490Y-114612929D01*
X191881105Y-114633302D01*
X191898432Y-114650629D01*
X191908802Y-114657558D01*
X191921237Y-114667763D01*
X191927610Y-114675528D01*
X191932348Y-114684392D01*
X191935263Y-114694001D01*
X191936852Y-114710140D01*
X191936852Y-115197862D01*
X191935046Y-115216199D01*
X191934444Y-115228450D01*
X191934444Y-115246869D01*
X191932250Y-115269149D01*
X191915524Y-115353233D01*
X191909024Y-115374660D01*
X191876220Y-115453858D01*
X191873309Y-115459303D01*
X191873307Y-115459309D01*
X191868571Y-115468169D01*
X191868568Y-115468173D01*
X191865660Y-115473614D01*
X191818029Y-115544899D01*
X191803828Y-115562204D01*
X191743204Y-115622828D01*
X191725899Y-115637029D01*
X191654614Y-115684660D01*
X191649173Y-115687568D01*
X191649169Y-115687571D01*
X191640309Y-115692307D01*
X191640303Y-115692309D01*
X191634858Y-115695220D01*
X191555660Y-115728024D01*
X191534233Y-115734524D01*
X191450149Y-115751250D01*
X191427869Y-115753444D01*
X191409450Y-115753444D01*
X191397199Y-115754046D01*
X191378862Y-115755852D01*
X190891138Y-115755852D01*
X190872801Y-115754046D01*
X190860550Y-115753444D01*
X190842131Y-115753444D01*
X190819851Y-115751250D01*
X190735767Y-115734524D01*
X190714340Y-115728024D01*
X190635142Y-115695220D01*
X190629697Y-115692309D01*
X190629691Y-115692307D01*
X190620831Y-115687571D01*
X190620827Y-115687568D01*
X190615386Y-115684660D01*
X190544101Y-115637029D01*
X190526796Y-115622828D01*
X190466172Y-115562204D01*
X190451971Y-115544899D01*
X190404340Y-115473614D01*
X190401432Y-115468173D01*
X190401429Y-115468169D01*
X190396693Y-115459309D01*
X190396691Y-115459303D01*
X190393780Y-115453858D01*
X190360976Y-115374660D01*
X190354476Y-115353233D01*
X190337750Y-115269149D01*
X190335556Y-115246869D01*
X190335556Y-115228450D01*
X190334954Y-115216199D01*
X190333148Y-115197862D01*
X190333148Y-114710140D01*
X190334737Y-114694001D01*
X190337652Y-114684392D01*
X190342390Y-114675528D01*
X190348763Y-114667763D01*
X190361206Y-114657552D01*
X190371575Y-114650622D01*
X190388902Y-114633295D01*
X190402515Y-114612920D01*
X190411891Y-114590280D01*
X190416671Y-114566247D01*
X190416670Y-114541743D01*
X190411888Y-114517710D01*
X190402510Y-114495071D01*
X190388895Y-114474698D01*
X190371568Y-114457371D01*
X190361198Y-114450442D01*
X190348763Y-114440237D01*
X190342390Y-114432472D01*
X190337652Y-114423608D01*
X190334737Y-114413999D01*
X190333148Y-114397860D01*
X190333148Y-113910139D01*
X190334954Y-113891801D01*
X190335556Y-113879550D01*
X190335556Y-113861131D01*
X190337750Y-113838851D01*
X190354476Y-113754767D01*
X190360976Y-113733340D01*
X190393780Y-113654142D01*
X190396691Y-113648697D01*
X190396693Y-113648691D01*
X190401429Y-113639831D01*
X190401432Y-113639827D01*
X190404340Y-113634386D01*
X190451971Y-113563101D01*
X190466172Y-113545796D01*
X190526796Y-113485172D01*
X190544101Y-113470971D01*
X190615386Y-113423340D01*
X190620827Y-113420432D01*
X190620831Y-113420429D01*
X190629691Y-113415693D01*
X190629697Y-113415691D01*
X190635142Y-113412780D01*
X190714340Y-113379976D01*
X190735767Y-113373476D01*
X190819851Y-113356750D01*
X190842131Y-113354556D01*
X190860550Y-113354556D01*
X190872801Y-113353954D01*
X190891139Y-113352148D01*
X191378861Y-113352148D01*
X191397199Y-113353954D01*
G37*
G36*
X100113512Y-113883927D02*
G01*
X100262812Y-113913624D01*
X100426784Y-113981544D01*
X100574354Y-114080147D01*
X100699853Y-114205646D01*
X100798456Y-114353216D01*
X100866376Y-114517188D01*
X100901000Y-114691259D01*
X100901000Y-114868741D01*
X100866376Y-115042812D01*
X100798456Y-115206784D01*
X100699853Y-115354354D01*
X100574354Y-115479853D01*
X100426784Y-115578456D01*
X100262812Y-115646376D01*
X100113512Y-115676073D01*
X100088742Y-115681000D01*
X99911258Y-115681000D01*
X99886488Y-115676073D01*
X99737188Y-115646376D01*
X99573216Y-115578456D01*
X99425646Y-115479853D01*
X99300147Y-115354354D01*
X99201544Y-115206784D01*
X99133624Y-115042812D01*
X99099000Y-114868741D01*
X99099000Y-114691259D01*
X99133624Y-114517188D01*
X99201544Y-114353216D01*
X99300147Y-114205646D01*
X99425646Y-114080147D01*
X99573216Y-113981544D01*
X99737188Y-113913624D01*
X99886488Y-113883927D01*
X99911258Y-113879000D01*
X100088742Y-113879000D01*
X100113512Y-113883927D01*
G37*
G36*
X137301000Y-113701000D02*
G01*
X133699000Y-113701000D01*
X133699000Y-111899000D01*
X137301000Y-111899000D01*
X137301000Y-113701000D01*
G37*
G36*
X126605512Y-111879927D02*
G01*
X126754812Y-111909624D01*
X126918784Y-111977544D01*
X127066354Y-112076147D01*
X127191853Y-112201646D01*
X127290456Y-112349216D01*
X127358376Y-112513188D01*
X127393000Y-112687259D01*
X127393000Y-112864741D01*
X127358376Y-113038812D01*
X127290456Y-113202784D01*
X127191853Y-113350354D01*
X127066354Y-113475853D01*
X126918784Y-113574456D01*
X126754812Y-113642376D01*
X126605512Y-113672073D01*
X126580742Y-113677000D01*
X126403258Y-113677000D01*
X126378488Y-113672073D01*
X126229188Y-113642376D01*
X126065216Y-113574456D01*
X125917646Y-113475853D01*
X125792147Y-113350354D01*
X125693544Y-113202784D01*
X125625624Y-113038812D01*
X125591000Y-112864741D01*
X125591000Y-112687259D01*
X125625624Y-112513188D01*
X125693544Y-112349216D01*
X125792147Y-112201646D01*
X125917646Y-112076147D01*
X126065216Y-111977544D01*
X126229188Y-111909624D01*
X126378488Y-111879927D01*
X126403258Y-111875000D01*
X126580742Y-111875000D01*
X126605512Y-111879927D01*
G37*
G36*
X100113512Y-111343927D02*
G01*
X100262812Y-111373624D01*
X100426784Y-111441544D01*
X100574354Y-111540147D01*
X100699853Y-111665646D01*
X100798456Y-111813216D01*
X100866376Y-111977188D01*
X100901000Y-112151259D01*
X100901000Y-112328741D01*
X100866376Y-112502812D01*
X100798456Y-112666784D01*
X100699853Y-112814354D01*
X100574354Y-112939853D01*
X100426784Y-113038456D01*
X100262812Y-113106376D01*
X100113512Y-113136073D01*
X100088742Y-113141000D01*
X99911258Y-113141000D01*
X99886488Y-113136073D01*
X99737188Y-113106376D01*
X99573216Y-113038456D01*
X99425646Y-112939853D01*
X99300147Y-112814354D01*
X99201544Y-112666784D01*
X99133624Y-112502812D01*
X99099000Y-112328741D01*
X99099000Y-112151259D01*
X99133624Y-111977188D01*
X99201544Y-111813216D01*
X99300147Y-111665646D01*
X99425646Y-111540147D01*
X99573216Y-111441544D01*
X99737188Y-111373624D01*
X99886488Y-111343927D01*
X99911258Y-111339000D01*
X100088742Y-111339000D01*
X100113512Y-111343927D01*
G37*
G36*
X181503642Y-109604781D02*
G01*
X181640928Y-109661647D01*
X181649416Y-109665163D01*
X181780608Y-109752822D01*
X181892178Y-109864392D01*
X181970316Y-109981335D01*
X181979838Y-109995586D01*
X182040219Y-110141358D01*
X182071000Y-110296107D01*
X182071000Y-110453893D01*
X182040219Y-110608642D01*
X182010154Y-110681225D01*
X181979837Y-110754416D01*
X181892178Y-110885608D01*
X181780608Y-110997178D01*
X181649416Y-111084837D01*
X181649415Y-111084838D01*
X181649414Y-111084838D01*
X181503642Y-111145219D01*
X181348893Y-111176000D01*
X181191107Y-111176000D01*
X181036358Y-111145219D01*
X180890586Y-111084838D01*
X180890585Y-111084838D01*
X180890584Y-111084837D01*
X180759392Y-110997178D01*
X180647822Y-110885608D01*
X180560163Y-110754416D01*
X180529846Y-110681225D01*
X180499781Y-110608642D01*
X180469000Y-110453893D01*
X180469000Y-110296107D01*
X180499781Y-110141358D01*
X180560162Y-109995586D01*
X180569684Y-109981335D01*
X180647822Y-109864392D01*
X180759392Y-109752822D01*
X180890584Y-109665163D01*
X180899072Y-109661647D01*
X181036358Y-109604781D01*
X181191107Y-109574000D01*
X181348893Y-109574000D01*
X181503642Y-109604781D01*
G37*
G36*
X137301000Y-111161000D02*
G01*
X133699000Y-111161000D01*
X133699000Y-109359000D01*
X137301000Y-109359000D01*
X137301000Y-111161000D01*
G37*
G36*
X126605512Y-109339927D02*
G01*
X126754812Y-109369624D01*
X126918784Y-109437544D01*
X127066354Y-109536147D01*
X127191853Y-109661646D01*
X127290456Y-109809216D01*
X127358376Y-109973188D01*
X127393000Y-110147259D01*
X127393000Y-110324741D01*
X127358376Y-110498812D01*
X127290456Y-110662784D01*
X127191853Y-110810354D01*
X127066354Y-110935853D01*
X126918784Y-111034456D01*
X126754812Y-111102376D01*
X126605512Y-111132073D01*
X126580742Y-111137000D01*
X126403258Y-111137000D01*
X126378488Y-111132073D01*
X126229188Y-111102376D01*
X126065216Y-111034456D01*
X125917646Y-110935853D01*
X125792147Y-110810354D01*
X125693544Y-110662784D01*
X125625624Y-110498812D01*
X125591000Y-110324741D01*
X125591000Y-110147259D01*
X125625624Y-109973188D01*
X125693544Y-109809216D01*
X125792147Y-109661646D01*
X125917646Y-109536147D01*
X126065216Y-109437544D01*
X126229188Y-109369624D01*
X126378488Y-109339927D01*
X126403258Y-109335000D01*
X126580742Y-109335000D01*
X126605512Y-109339927D01*
G37*
G36*
X184577395Y-109160546D02*
G01*
X184750466Y-109232234D01*
X184750467Y-109232235D01*
X184906227Y-109336310D01*
X185038690Y-109468773D01*
X185038691Y-109468775D01*
X185142766Y-109624534D01*
X185214454Y-109797605D01*
X185251000Y-109981333D01*
X185251000Y-110168667D01*
X185214454Y-110352395D01*
X185142766Y-110525466D01*
X185142765Y-110525467D01*
X185038690Y-110681227D01*
X184906227Y-110813690D01*
X184875301Y-110834354D01*
X184750466Y-110917766D01*
X184577395Y-110989454D01*
X184393667Y-111026000D01*
X184206333Y-111026000D01*
X184022605Y-110989454D01*
X183849534Y-110917766D01*
X183724699Y-110834354D01*
X183693773Y-110813690D01*
X183561310Y-110681227D01*
X183457235Y-110525467D01*
X183457234Y-110525466D01*
X183385546Y-110352395D01*
X183349000Y-110168667D01*
X183349000Y-109981333D01*
X183385546Y-109797605D01*
X183457234Y-109624534D01*
X183561309Y-109468775D01*
X183561310Y-109468773D01*
X183693773Y-109336310D01*
X183849533Y-109232235D01*
X183849534Y-109232234D01*
X184022605Y-109160546D01*
X184206333Y-109124000D01*
X184393667Y-109124000D01*
X184577395Y-109160546D01*
G37*
G36*
X100113512Y-108803927D02*
G01*
X100262812Y-108833624D01*
X100426784Y-108901544D01*
X100574354Y-109000147D01*
X100699853Y-109125646D01*
X100798456Y-109273216D01*
X100866376Y-109437188D01*
X100890833Y-109560147D01*
X100899712Y-109604781D01*
X100901000Y-109611259D01*
X100901000Y-109788741D01*
X100866376Y-109962812D01*
X100798456Y-110126784D01*
X100699853Y-110274354D01*
X100574354Y-110399853D01*
X100426784Y-110498456D01*
X100262812Y-110566376D01*
X100113512Y-110596073D01*
X100088742Y-110601000D01*
X99911258Y-110601000D01*
X99886488Y-110596073D01*
X99737188Y-110566376D01*
X99573216Y-110498456D01*
X99425646Y-110399853D01*
X99300147Y-110274354D01*
X99201544Y-110126784D01*
X99133624Y-109962812D01*
X99099000Y-109788741D01*
X99099000Y-109611259D01*
X99100289Y-109604781D01*
X99109167Y-109560147D01*
X99133624Y-109437188D01*
X99201544Y-109273216D01*
X99300147Y-109125646D01*
X99425646Y-109000147D01*
X99573216Y-108901544D01*
X99737188Y-108833624D01*
X99886488Y-108803927D01*
X99911258Y-108799000D01*
X100088742Y-108799000D01*
X100113512Y-108803927D01*
G37*
G36*
X100113512Y-106263927D02*
G01*
X100262812Y-106293624D01*
X100426784Y-106361544D01*
X100574354Y-106460147D01*
X100699853Y-106585646D01*
X100798456Y-106733216D01*
X100866376Y-106897188D01*
X100901000Y-107071259D01*
X100901000Y-107248741D01*
X100866376Y-107422812D01*
X100798456Y-107586784D01*
X100699853Y-107734354D01*
X100574354Y-107859853D01*
X100426784Y-107958456D01*
X100262812Y-108026376D01*
X100113512Y-108056073D01*
X100088742Y-108061000D01*
X99911258Y-108061000D01*
X99886488Y-108056073D01*
X99737188Y-108026376D01*
X99573216Y-107958456D01*
X99425646Y-107859853D01*
X99300147Y-107734354D01*
X99201544Y-107586784D01*
X99133624Y-107422812D01*
X99099000Y-107248741D01*
X99099000Y-107071259D01*
X99133624Y-106897188D01*
X99201544Y-106733216D01*
X99300147Y-106585646D01*
X99425646Y-106460147D01*
X99573216Y-106361544D01*
X99737188Y-106293624D01*
X99886488Y-106263927D01*
X99911258Y-106259000D01*
X100088742Y-106259000D01*
X100113512Y-106263927D01*
G37*
G36*
X105353919Y-106372497D02*
G01*
X105363528Y-106375412D01*
X105372392Y-106380150D01*
X105380132Y-106386502D01*
X105380133Y-106386503D01*
X105380157Y-106386523D01*
X105386560Y-106394333D01*
X105386597Y-106394388D01*
X105394400Y-106403907D01*
X105394431Y-106403882D01*
X105405773Y-106417732D01*
X105424699Y-106433297D01*
X105446297Y-106444871D01*
X105469739Y-106452009D01*
X105494122Y-106454436D01*
X105518511Y-106452060D01*
X105541967Y-106444971D01*
X105563590Y-106433442D01*
X105582548Y-106417917D01*
X105598113Y-106398991D01*
X105599949Y-106395935D01*
X105601338Y-106394246D01*
X105601339Y-106394244D01*
X105607721Y-106386485D01*
X105615493Y-106380120D01*
X105615495Y-106380118D01*
X105624319Y-106375414D01*
X105624358Y-106375393D01*
X105633975Y-106372487D01*
X105634005Y-106372478D01*
X105650033Y-106370908D01*
X106787780Y-106370908D01*
X106803919Y-106372497D01*
X106813528Y-106375412D01*
X106822392Y-106380150D01*
X106830157Y-106386523D01*
X106836530Y-106394288D01*
X106841268Y-106403152D01*
X106844183Y-106412761D01*
X106845772Y-106428900D01*
X106845772Y-107916620D01*
X106844183Y-107932759D01*
X106841268Y-107942368D01*
X106836530Y-107951232D01*
X106830157Y-107958997D01*
X106822392Y-107965370D01*
X106813528Y-107970108D01*
X106803919Y-107973023D01*
X106787780Y-107974612D01*
X105650060Y-107974612D01*
X105633921Y-107973023D01*
X105624312Y-107970108D01*
X105615448Y-107965370D01*
X105607683Y-107958997D01*
X105597036Y-107946023D01*
X105590867Y-107936792D01*
X105573539Y-107919466D01*
X105553164Y-107905853D01*
X105530525Y-107896477D01*
X105506492Y-107891697D01*
X105481988Y-107891698D01*
X105457955Y-107896480D01*
X105435316Y-107905858D01*
X105414942Y-107919473D01*
X105397616Y-107936801D01*
X105390745Y-107946077D01*
X105386560Y-107951187D01*
X105380195Y-107958959D01*
X105372436Y-107965341D01*
X105363581Y-107970086D01*
X105360543Y-107971011D01*
X105354005Y-107973002D01*
X105354002Y-107973002D01*
X105353970Y-107973012D01*
X105343920Y-107974007D01*
X105343855Y-107974007D01*
X105337745Y-107974612D01*
X104350060Y-107974612D01*
X104333921Y-107973023D01*
X104324312Y-107970108D01*
X104315448Y-107965370D01*
X104307683Y-107958997D01*
X104301310Y-107951232D01*
X104296572Y-107942368D01*
X104293657Y-107932759D01*
X104292068Y-107916620D01*
X104292068Y-106428900D01*
X104293657Y-106412761D01*
X104296572Y-106403152D01*
X104301310Y-106394288D01*
X104307683Y-106386523D01*
X104315448Y-106380150D01*
X104324312Y-106375412D01*
X104333921Y-106372497D01*
X104350060Y-106370908D01*
X105337780Y-106370908D01*
X105353919Y-106372497D01*
G37*
G36*
X100113512Y-103723927D02*
G01*
X100262812Y-103753624D01*
X100426784Y-103821544D01*
X100574354Y-103920147D01*
X100699853Y-104045646D01*
X100798456Y-104193216D01*
X100866376Y-104357188D01*
X100901000Y-104531259D01*
X100901000Y-104708741D01*
X100866376Y-104882812D01*
X100798456Y-105046784D01*
X100699853Y-105194354D01*
X100574354Y-105319853D01*
X100426784Y-105418456D01*
X100262812Y-105486376D01*
X100113512Y-105516073D01*
X100088742Y-105521000D01*
X99911258Y-105521000D01*
X99886488Y-105516073D01*
X99737188Y-105486376D01*
X99573216Y-105418456D01*
X99425646Y-105319853D01*
X99300147Y-105194354D01*
X99201544Y-105046784D01*
X99133624Y-104882812D01*
X99099000Y-104708741D01*
X99099000Y-104531259D01*
X99133624Y-104357188D01*
X99201544Y-104193216D01*
X99300147Y-104045646D01*
X99425646Y-103920147D01*
X99573216Y-103821544D01*
X99737188Y-103753624D01*
X99886488Y-103723927D01*
X99911258Y-103719000D01*
X100088742Y-103719000D01*
X100113512Y-103723927D01*
G37*
G36*
X105447559Y-103380377D02*
G01*
X105457168Y-103383292D01*
X105466032Y-103388030D01*
X105473772Y-103394382D01*
X105473773Y-103394383D01*
X105473797Y-103394403D01*
X105480200Y-103402213D01*
X105480237Y-103402268D01*
X105488040Y-103411787D01*
X105488071Y-103411762D01*
X105499413Y-103425612D01*
X105518339Y-103441177D01*
X105539937Y-103452751D01*
X105563379Y-103459889D01*
X105587762Y-103462316D01*
X105612151Y-103459940D01*
X105635607Y-103452851D01*
X105657230Y-103441322D01*
X105676188Y-103425797D01*
X105691753Y-103406871D01*
X105693589Y-103403815D01*
X105694978Y-103402126D01*
X105694979Y-103402124D01*
X105701361Y-103394365D01*
X105709133Y-103388000D01*
X105709135Y-103387998D01*
X105717959Y-103383294D01*
X105717998Y-103383273D01*
X105727615Y-103380367D01*
X105727645Y-103380358D01*
X105743673Y-103378788D01*
X106881420Y-103378788D01*
X106897559Y-103380377D01*
X106907168Y-103383292D01*
X106916032Y-103388030D01*
X106923797Y-103394403D01*
X106930170Y-103402168D01*
X106934908Y-103411032D01*
X106937823Y-103420641D01*
X106939412Y-103436780D01*
X106939412Y-104924500D01*
X106937823Y-104940639D01*
X106934908Y-104950248D01*
X106930170Y-104959112D01*
X106923797Y-104966877D01*
X106916032Y-104973250D01*
X106907168Y-104977988D01*
X106897559Y-104980903D01*
X106881420Y-104982492D01*
X105743700Y-104982492D01*
X105727561Y-104980903D01*
X105717952Y-104977988D01*
X105709088Y-104973250D01*
X105701323Y-104966877D01*
X105690676Y-104953903D01*
X105684507Y-104944672D01*
X105667179Y-104927346D01*
X105646804Y-104913733D01*
X105624165Y-104904357D01*
X105600132Y-104899577D01*
X105575628Y-104899578D01*
X105551595Y-104904360D01*
X105528956Y-104913738D01*
X105508582Y-104927353D01*
X105491256Y-104944681D01*
X105484385Y-104953957D01*
X105480200Y-104959067D01*
X105473835Y-104966839D01*
X105466076Y-104973221D01*
X105457221Y-104977966D01*
X105454183Y-104978891D01*
X105447645Y-104980882D01*
X105447642Y-104980882D01*
X105447610Y-104980892D01*
X105437560Y-104981887D01*
X105437495Y-104981887D01*
X105431385Y-104982492D01*
X104443700Y-104982492D01*
X104427561Y-104980903D01*
X104417952Y-104977988D01*
X104409088Y-104973250D01*
X104401323Y-104966877D01*
X104394950Y-104959112D01*
X104390212Y-104950248D01*
X104387297Y-104940639D01*
X104385708Y-104924500D01*
X104385708Y-103436780D01*
X104387297Y-103420641D01*
X104390212Y-103411032D01*
X104394950Y-103402168D01*
X104401323Y-103394403D01*
X104409088Y-103388030D01*
X104417952Y-103383292D01*
X104427561Y-103380377D01*
X104443700Y-103378788D01*
X105431420Y-103378788D01*
X105447559Y-103380377D01*
G37*
G36*
X139611000Y-104811000D02*
G01*
X137809000Y-104811000D01*
X137809000Y-101209000D01*
X139611000Y-101209000D01*
X139611000Y-104811000D01*
G37*
G36*
X137071000Y-104811000D02*
G01*
X135269000Y-104811000D01*
X135269000Y-101209000D01*
X137071000Y-101209000D01*
X137071000Y-104811000D01*
G37*
G36*
X142151000Y-104811000D02*
G01*
X140349000Y-104811000D01*
X140349000Y-101209000D01*
X142151000Y-101209000D01*
X142151000Y-104811000D01*
G37*
G36*
X144691000Y-104811000D02*
G01*
X142889000Y-104811000D01*
X142889000Y-101209000D01*
X144691000Y-101209000D01*
X144691000Y-104811000D01*
G37*
G36*
X147231000Y-104811000D02*
G01*
X145429000Y-104811000D01*
X145429000Y-101209000D01*
X147231000Y-101209000D01*
X147231000Y-104811000D01*
G37*
G36*
X172631000Y-104811000D02*
G01*
X170829000Y-104811000D01*
X170829000Y-101209000D01*
X172631000Y-101209000D01*
X172631000Y-104811000D01*
G37*
G36*
X170091000Y-104811000D02*
G01*
X168289000Y-104811000D01*
X168289000Y-101209000D01*
X170091000Y-101209000D01*
X170091000Y-104811000D01*
G37*
G36*
X167551000Y-104811000D02*
G01*
X165749000Y-104811000D01*
X165749000Y-101209000D01*
X167551000Y-101209000D01*
X167551000Y-104811000D01*
G37*
G36*
X165011000Y-104811000D02*
G01*
X163209000Y-104811000D01*
X163209000Y-101209000D01*
X165011000Y-101209000D01*
X165011000Y-104811000D01*
G37*
G36*
X162471000Y-104811000D02*
G01*
X160669000Y-104811000D01*
X160669000Y-101209000D01*
X162471000Y-101209000D01*
X162471000Y-104811000D01*
G37*
G36*
X159931000Y-104811000D02*
G01*
X158129000Y-104811000D01*
X158129000Y-101209000D01*
X159931000Y-101209000D01*
X159931000Y-104811000D01*
G37*
G36*
X149771000Y-104811000D02*
G01*
X147969000Y-104811000D01*
X147969000Y-101209000D01*
X149771000Y-101209000D01*
X149771000Y-104811000D01*
G37*
G36*
X175171000Y-104811000D02*
G01*
X173369000Y-104811000D01*
X173369000Y-101209000D01*
X175171000Y-101209000D01*
X175171000Y-104811000D01*
G37*
G36*
X157391000Y-104811000D02*
G01*
X155589000Y-104811000D01*
X155589000Y-101209000D01*
X157391000Y-101209000D01*
X157391000Y-104811000D01*
G37*
G36*
X154851000Y-104811000D02*
G01*
X153049000Y-104811000D01*
X153049000Y-101209000D01*
X154851000Y-101209000D01*
X154851000Y-104811000D01*
G37*
G36*
X180251000Y-104811000D02*
G01*
X178449000Y-104811000D01*
X178449000Y-101209000D01*
X180251000Y-101209000D01*
X180251000Y-104811000D01*
G37*
G36*
X177711000Y-104811000D02*
G01*
X175909000Y-104811000D01*
X175909000Y-101209000D01*
X177711000Y-101209000D01*
X177711000Y-104811000D01*
G37*
G36*
X182791000Y-104811000D02*
G01*
X180989000Y-104811000D01*
X180989000Y-101209000D01*
X182791000Y-101209000D01*
X182791000Y-104811000D01*
G37*
G36*
X152311000Y-104811000D02*
G01*
X150509000Y-104811000D01*
X150509000Y-101209000D01*
X152311000Y-101209000D01*
X152311000Y-104811000D01*
G37*
G36*
X185331000Y-104811000D02*
G01*
X183529000Y-104811000D01*
X183529000Y-101209000D01*
X185331000Y-101209000D01*
X185331000Y-104811000D01*
G37*
G36*
X100113512Y-101183927D02*
G01*
X100262812Y-101213624D01*
X100426784Y-101281544D01*
X100574354Y-101380147D01*
X100699853Y-101505646D01*
X100798456Y-101653216D01*
X100866376Y-101817188D01*
X100901000Y-101991259D01*
X100901000Y-102168741D01*
X100866376Y-102342812D01*
X100798456Y-102506784D01*
X100699853Y-102654354D01*
X100574354Y-102779853D01*
X100426784Y-102878456D01*
X100262812Y-102946376D01*
X100113512Y-102976073D01*
X100088742Y-102981000D01*
X99911258Y-102981000D01*
X99886488Y-102976073D01*
X99737188Y-102946376D01*
X99573216Y-102878456D01*
X99425646Y-102779853D01*
X99300147Y-102654354D01*
X99201544Y-102506784D01*
X99133624Y-102342812D01*
X99099000Y-102168741D01*
X99099000Y-101991259D01*
X99133624Y-101817188D01*
X99201544Y-101653216D01*
X99300147Y-101505646D01*
X99425646Y-101380147D01*
X99573216Y-101281544D01*
X99737188Y-101213624D01*
X99886488Y-101183927D01*
X99911258Y-101179000D01*
X100088742Y-101179000D01*
X100113512Y-101183927D01*
G37*
G36*
X105586159Y-99768497D02*
G01*
X105595768Y-99771412D01*
X105604632Y-99776150D01*
X105612372Y-99782502D01*
X105612373Y-99782503D01*
X105612397Y-99782523D01*
X105618800Y-99790333D01*
X105618837Y-99790388D01*
X105626640Y-99799907D01*
X105626671Y-99799882D01*
X105638013Y-99813732D01*
X105656939Y-99829297D01*
X105678537Y-99840871D01*
X105701979Y-99848009D01*
X105726362Y-99850436D01*
X105750751Y-99848060D01*
X105774207Y-99840971D01*
X105795830Y-99829442D01*
X105814788Y-99813917D01*
X105830353Y-99794991D01*
X105832189Y-99791935D01*
X105833578Y-99790246D01*
X105833579Y-99790244D01*
X105839961Y-99782485D01*
X105847733Y-99776120D01*
X105847735Y-99776118D01*
X105856559Y-99771414D01*
X105856598Y-99771393D01*
X105866215Y-99768487D01*
X105866245Y-99768478D01*
X105882273Y-99766908D01*
X107020020Y-99766908D01*
X107036159Y-99768497D01*
X107045768Y-99771412D01*
X107054632Y-99776150D01*
X107062397Y-99782523D01*
X107068770Y-99790288D01*
X107073508Y-99799152D01*
X107076423Y-99808761D01*
X107078012Y-99824900D01*
X107078012Y-101312620D01*
X107076423Y-101328759D01*
X107073508Y-101338368D01*
X107068770Y-101347232D01*
X107062397Y-101354997D01*
X107054632Y-101361370D01*
X107045768Y-101366108D01*
X107036159Y-101369023D01*
X107020020Y-101370612D01*
X105882300Y-101370612D01*
X105866161Y-101369023D01*
X105856552Y-101366108D01*
X105847688Y-101361370D01*
X105839923Y-101354997D01*
X105829276Y-101342023D01*
X105823107Y-101332792D01*
X105805779Y-101315466D01*
X105785404Y-101301853D01*
X105762765Y-101292477D01*
X105738732Y-101287697D01*
X105714228Y-101287698D01*
X105690195Y-101292480D01*
X105667556Y-101301858D01*
X105647182Y-101315473D01*
X105629856Y-101332801D01*
X105622985Y-101342077D01*
X105618800Y-101347187D01*
X105612435Y-101354959D01*
X105604676Y-101361341D01*
X105595821Y-101366086D01*
X105592783Y-101367011D01*
X105586245Y-101369002D01*
X105586242Y-101369002D01*
X105586210Y-101369012D01*
X105576160Y-101370007D01*
X105576095Y-101370007D01*
X105569985Y-101370612D01*
X104582300Y-101370612D01*
X104566161Y-101369023D01*
X104556552Y-101366108D01*
X104547688Y-101361370D01*
X104539923Y-101354997D01*
X104533550Y-101347232D01*
X104528812Y-101338368D01*
X104525897Y-101328759D01*
X104524308Y-101312620D01*
X104524308Y-99824900D01*
X104525897Y-99808761D01*
X104528812Y-99799152D01*
X104533550Y-99790288D01*
X104539923Y-99782523D01*
X104547688Y-99776150D01*
X104556552Y-99771412D01*
X104566161Y-99768497D01*
X104582300Y-99766908D01*
X105570020Y-99766908D01*
X105586159Y-99768497D01*
G37*
G36*
X100113512Y-98643927D02*
G01*
X100262812Y-98673624D01*
X100426784Y-98741544D01*
X100574354Y-98840147D01*
X100699853Y-98965646D01*
X100798456Y-99113216D01*
X100866376Y-99277188D01*
X100901000Y-99451259D01*
X100901000Y-99628741D01*
X100866376Y-99802812D01*
X100798456Y-99966784D01*
X100699853Y-100114354D01*
X100574354Y-100239853D01*
X100426784Y-100338456D01*
X100262812Y-100406376D01*
X100113512Y-100436073D01*
X100088742Y-100441000D01*
X99911258Y-100441000D01*
X99886488Y-100436073D01*
X99737188Y-100406376D01*
X99573216Y-100338456D01*
X99425646Y-100239853D01*
X99300147Y-100114354D01*
X99201544Y-99966784D01*
X99133624Y-99802812D01*
X99099000Y-99628741D01*
X99099000Y-99451259D01*
X99133624Y-99277188D01*
X99201544Y-99113216D01*
X99300147Y-98965646D01*
X99425646Y-98840147D01*
X99573216Y-98741544D01*
X99737188Y-98673624D01*
X99886488Y-98643927D01*
X99911258Y-98639000D01*
X100088742Y-98639000D01*
X100113512Y-98643927D01*
G37*
G36*
X100901000Y-97901000D02*
G01*
X99099000Y-97901000D01*
X99099000Y-96099000D01*
X100901000Y-96099000D01*
X100901000Y-97901000D01*
G37*
G36*
X164182759Y-92676817D02*
G01*
X164192368Y-92679732D01*
X164201232Y-92684470D01*
X164208997Y-92690843D01*
X164219208Y-92703286D01*
X164226138Y-92713655D01*
X164243465Y-92730982D01*
X164263840Y-92744595D01*
X164286480Y-92753971D01*
X164310513Y-92758751D01*
X164335017Y-92758750D01*
X164359050Y-92753968D01*
X164381689Y-92744590D01*
X164402062Y-92730975D01*
X164419389Y-92713648D01*
X164426318Y-92703278D01*
X164436523Y-92690843D01*
X164444288Y-92684470D01*
X164453152Y-92679732D01*
X164462761Y-92676817D01*
X164478900Y-92675228D01*
X164966621Y-92675228D01*
X164984959Y-92677034D01*
X164997210Y-92677636D01*
X165015629Y-92677636D01*
X165037909Y-92679830D01*
X165121993Y-92696556D01*
X165143420Y-92703056D01*
X165222618Y-92735860D01*
X165228063Y-92738771D01*
X165228069Y-92738773D01*
X165236929Y-92743509D01*
X165236933Y-92743512D01*
X165242374Y-92746420D01*
X165313659Y-92794051D01*
X165330964Y-92808252D01*
X165391588Y-92868876D01*
X165405789Y-92886181D01*
X165453420Y-92957466D01*
X165456328Y-92962907D01*
X165456331Y-92962911D01*
X165461067Y-92971771D01*
X165461069Y-92971777D01*
X165463980Y-92977222D01*
X165496784Y-93056420D01*
X165503284Y-93077847D01*
X165520010Y-93161931D01*
X165522204Y-93184211D01*
X165522204Y-93202630D01*
X165522806Y-93214881D01*
X165524612Y-93233219D01*
X165524612Y-93720942D01*
X165522806Y-93739279D01*
X165522204Y-93751530D01*
X165522204Y-93769949D01*
X165520010Y-93792229D01*
X165503284Y-93876313D01*
X165496784Y-93897740D01*
X165463980Y-93976938D01*
X165461069Y-93982383D01*
X165461067Y-93982389D01*
X165456331Y-93991249D01*
X165456328Y-93991253D01*
X165453420Y-93996694D01*
X165405789Y-94067979D01*
X165391588Y-94085284D01*
X165330964Y-94145908D01*
X165313659Y-94160109D01*
X165242374Y-94207740D01*
X165236933Y-94210648D01*
X165236929Y-94210651D01*
X165228069Y-94215387D01*
X165228063Y-94215389D01*
X165222618Y-94218300D01*
X165143420Y-94251104D01*
X165121993Y-94257604D01*
X165037909Y-94274330D01*
X165015629Y-94276524D01*
X164997210Y-94276524D01*
X164984959Y-94277126D01*
X164966622Y-94278932D01*
X164478900Y-94278932D01*
X164462761Y-94277343D01*
X164453152Y-94274428D01*
X164444288Y-94269690D01*
X164436523Y-94263317D01*
X164426312Y-94250874D01*
X164419382Y-94240505D01*
X164402055Y-94223178D01*
X164381680Y-94209565D01*
X164359040Y-94200189D01*
X164335007Y-94195409D01*
X164310503Y-94195410D01*
X164286470Y-94200192D01*
X164263831Y-94209570D01*
X164243458Y-94223185D01*
X164226131Y-94240512D01*
X164219202Y-94250882D01*
X164208997Y-94263317D01*
X164201232Y-94269690D01*
X164192368Y-94274428D01*
X164182759Y-94277343D01*
X164166620Y-94278932D01*
X163678898Y-94278932D01*
X163660561Y-94277126D01*
X163648310Y-94276524D01*
X163629891Y-94276524D01*
X163607611Y-94274330D01*
X163523527Y-94257604D01*
X163502100Y-94251104D01*
X163422902Y-94218300D01*
X163417457Y-94215389D01*
X163417451Y-94215387D01*
X163408591Y-94210651D01*
X163408587Y-94210648D01*
X163403146Y-94207740D01*
X163331861Y-94160109D01*
X163314556Y-94145908D01*
X163253932Y-94085284D01*
X163239731Y-94067979D01*
X163192100Y-93996694D01*
X163189192Y-93991253D01*
X163189189Y-93991249D01*
X163184453Y-93982389D01*
X163184451Y-93982383D01*
X163181540Y-93976938D01*
X163148736Y-93897740D01*
X163142236Y-93876313D01*
X163125510Y-93792229D01*
X163123316Y-93769949D01*
X163123316Y-93751530D01*
X163122714Y-93739279D01*
X163120908Y-93720942D01*
X163120908Y-93233219D01*
X163122714Y-93214881D01*
X163123316Y-93202630D01*
X163123316Y-93184211D01*
X163125510Y-93161931D01*
X163142236Y-93077847D01*
X163148736Y-93056420D01*
X163181540Y-92977222D01*
X163184451Y-92971777D01*
X163184453Y-92971771D01*
X163189189Y-92962911D01*
X163189192Y-92962907D01*
X163192100Y-92957466D01*
X163239731Y-92886181D01*
X163253932Y-92868876D01*
X163314556Y-92808252D01*
X163331861Y-92794051D01*
X163403146Y-92746420D01*
X163408587Y-92743512D01*
X163408591Y-92743509D01*
X163417451Y-92738773D01*
X163417457Y-92738771D01*
X163422902Y-92735860D01*
X163502100Y-92703056D01*
X163523527Y-92696556D01*
X163607611Y-92679830D01*
X163629891Y-92677636D01*
X163648310Y-92677636D01*
X163660561Y-92677034D01*
X163678899Y-92675228D01*
X164166620Y-92675228D01*
X164182759Y-92676817D01*
G37*
G36*
X168160399Y-92636177D02*
G01*
X168170008Y-92639092D01*
X168178872Y-92643830D01*
X168186637Y-92650203D01*
X168196848Y-92662646D01*
X168203778Y-92673015D01*
X168221105Y-92690342D01*
X168241480Y-92703955D01*
X168264120Y-92713331D01*
X168288153Y-92718111D01*
X168312657Y-92718110D01*
X168336690Y-92713328D01*
X168359329Y-92703950D01*
X168379702Y-92690335D01*
X168397029Y-92673008D01*
X168403958Y-92662638D01*
X168414163Y-92650203D01*
X168421928Y-92643830D01*
X168430792Y-92639092D01*
X168440401Y-92636177D01*
X168456540Y-92634588D01*
X168944261Y-92634588D01*
X168962599Y-92636394D01*
X168974850Y-92636996D01*
X168993269Y-92636996D01*
X169015549Y-92639190D01*
X169099633Y-92655916D01*
X169121060Y-92662416D01*
X169200258Y-92695220D01*
X169205703Y-92698131D01*
X169205709Y-92698133D01*
X169214569Y-92702869D01*
X169214573Y-92702872D01*
X169220014Y-92705780D01*
X169291299Y-92753411D01*
X169308604Y-92767612D01*
X169369228Y-92828236D01*
X169383429Y-92845541D01*
X169431060Y-92916826D01*
X169433968Y-92922267D01*
X169433971Y-92922271D01*
X169438707Y-92931131D01*
X169438709Y-92931137D01*
X169441620Y-92936582D01*
X169474424Y-93015780D01*
X169480924Y-93037207D01*
X169497650Y-93121291D01*
X169499844Y-93143569D01*
X169499844Y-93161990D01*
X169500446Y-93174241D01*
X169502252Y-93192579D01*
X169502252Y-93680302D01*
X169500446Y-93698639D01*
X169499844Y-93710890D01*
X169499844Y-93729309D01*
X169497650Y-93751589D01*
X169480924Y-93835673D01*
X169474424Y-93857100D01*
X169441620Y-93936298D01*
X169438709Y-93941743D01*
X169438707Y-93941749D01*
X169433971Y-93950609D01*
X169433968Y-93950613D01*
X169431060Y-93956054D01*
X169383429Y-94027339D01*
X169369228Y-94044644D01*
X169308604Y-94105268D01*
X169291299Y-94119469D01*
X169220014Y-94167100D01*
X169214573Y-94170008D01*
X169214569Y-94170011D01*
X169205709Y-94174747D01*
X169205703Y-94174749D01*
X169200258Y-94177660D01*
X169121060Y-94210464D01*
X169099633Y-94216964D01*
X169015549Y-94233690D01*
X168993269Y-94235884D01*
X168974850Y-94235884D01*
X168962599Y-94236486D01*
X168944262Y-94238292D01*
X168456540Y-94238292D01*
X168440401Y-94236703D01*
X168430792Y-94233788D01*
X168421928Y-94229050D01*
X168414163Y-94222677D01*
X168403952Y-94210234D01*
X168397022Y-94199865D01*
X168379695Y-94182538D01*
X168359320Y-94168925D01*
X168336680Y-94159549D01*
X168312647Y-94154769D01*
X168288143Y-94154770D01*
X168264110Y-94159552D01*
X168241471Y-94168930D01*
X168221098Y-94182545D01*
X168203771Y-94199872D01*
X168196842Y-94210242D01*
X168186637Y-94222677D01*
X168178872Y-94229050D01*
X168170008Y-94233788D01*
X168160399Y-94236703D01*
X168144260Y-94238292D01*
X167656538Y-94238292D01*
X167638201Y-94236486D01*
X167625950Y-94235884D01*
X167607531Y-94235884D01*
X167585251Y-94233690D01*
X167501167Y-94216964D01*
X167479740Y-94210464D01*
X167400542Y-94177660D01*
X167395097Y-94174749D01*
X167395091Y-94174747D01*
X167386231Y-94170011D01*
X167386227Y-94170008D01*
X167380786Y-94167100D01*
X167309501Y-94119469D01*
X167292196Y-94105268D01*
X167231572Y-94044644D01*
X167217371Y-94027339D01*
X167169740Y-93956054D01*
X167166832Y-93950613D01*
X167166829Y-93950609D01*
X167162093Y-93941749D01*
X167162091Y-93941743D01*
X167159180Y-93936298D01*
X167126376Y-93857100D01*
X167119876Y-93835673D01*
X167103150Y-93751589D01*
X167100956Y-93729309D01*
X167100956Y-93710890D01*
X167100354Y-93698639D01*
X167098548Y-93680302D01*
X167098548Y-93192579D01*
X167100354Y-93174241D01*
X167100956Y-93161990D01*
X167100956Y-93143569D01*
X167103150Y-93121291D01*
X167119876Y-93037207D01*
X167126376Y-93015780D01*
X167159180Y-92936582D01*
X167162091Y-92931137D01*
X167162093Y-92931131D01*
X167166829Y-92922271D01*
X167166832Y-92922267D01*
X167169740Y-92916826D01*
X167217371Y-92845541D01*
X167231572Y-92828236D01*
X167292196Y-92767612D01*
X167309501Y-92753411D01*
X167380786Y-92705780D01*
X167386227Y-92702872D01*
X167386231Y-92702869D01*
X167395091Y-92698133D01*
X167395097Y-92698131D01*
X167400542Y-92695220D01*
X167479740Y-92662416D01*
X167501167Y-92655916D01*
X167585251Y-92639190D01*
X167607531Y-92636996D01*
X167625950Y-92636996D01*
X167638201Y-92636394D01*
X167656539Y-92634588D01*
X168144260Y-92634588D01*
X168160399Y-92636177D01*
G37*
G36*
X168704928Y-88576764D02*
G01*
X168726009Y-88583160D01*
X168745445Y-88593548D01*
X168762476Y-88607524D01*
X168776452Y-88624555D01*
X168786840Y-88643991D01*
X168793236Y-88665072D01*
X168796000Y-88693140D01*
X168796000Y-90606860D01*
X168793236Y-90634928D01*
X168786840Y-90656009D01*
X168776452Y-90675445D01*
X168762476Y-90692476D01*
X168745445Y-90706452D01*
X168726009Y-90716840D01*
X168704928Y-90723236D01*
X168676860Y-90726000D01*
X168213140Y-90726000D01*
X168185072Y-90723236D01*
X168163991Y-90716840D01*
X168144555Y-90706452D01*
X168127524Y-90692476D01*
X168113548Y-90675445D01*
X168103160Y-90656009D01*
X168096764Y-90634928D01*
X168094000Y-90606860D01*
X168094000Y-88693140D01*
X168096764Y-88665072D01*
X168103160Y-88643991D01*
X168113548Y-88624555D01*
X168127524Y-88607524D01*
X168144555Y-88593548D01*
X168163991Y-88583160D01*
X168185072Y-88576764D01*
X168213140Y-88574000D01*
X168676860Y-88574000D01*
X168704928Y-88576764D01*
G37*
G36*
X143084928Y-88576764D02*
G01*
X143106009Y-88583160D01*
X143125445Y-88593548D01*
X143142476Y-88607524D01*
X143156452Y-88624555D01*
X143166840Y-88643991D01*
X143173236Y-88665072D01*
X143176000Y-88693140D01*
X143176000Y-90606860D01*
X143173236Y-90634928D01*
X143166840Y-90656009D01*
X143156452Y-90675445D01*
X143142476Y-90692476D01*
X143125445Y-90706452D01*
X143106009Y-90716840D01*
X143084928Y-90723236D01*
X143056860Y-90726000D01*
X142593140Y-90726000D01*
X142565072Y-90723236D01*
X142543991Y-90716840D01*
X142524555Y-90706452D01*
X142507524Y-90692476D01*
X142493548Y-90675445D01*
X142483160Y-90656009D01*
X142476764Y-90634928D01*
X142474000Y-90606860D01*
X142474000Y-88693140D01*
X142476764Y-88665072D01*
X142483160Y-88643991D01*
X142493548Y-88624555D01*
X142507524Y-88607524D01*
X142524555Y-88593548D01*
X142543991Y-88583160D01*
X142565072Y-88576764D01*
X142593140Y-88574000D01*
X143056860Y-88574000D01*
X143084928Y-88576764D01*
G37*
G36*
X144354928Y-88576764D02*
G01*
X144376009Y-88583160D01*
X144395445Y-88593548D01*
X144412476Y-88607524D01*
X144426452Y-88624555D01*
X144436840Y-88643991D01*
X144443236Y-88665072D01*
X144446000Y-88693140D01*
X144446000Y-90606860D01*
X144443236Y-90634928D01*
X144436840Y-90656009D01*
X144426452Y-90675445D01*
X144412476Y-90692476D01*
X144395445Y-90706452D01*
X144376009Y-90716840D01*
X144354928Y-90723236D01*
X144326860Y-90726000D01*
X143863140Y-90726000D01*
X143835072Y-90723236D01*
X143813991Y-90716840D01*
X143794555Y-90706452D01*
X143777524Y-90692476D01*
X143763548Y-90675445D01*
X143753160Y-90656009D01*
X143746764Y-90634928D01*
X143744000Y-90606860D01*
X143744000Y-88693140D01*
X143746764Y-88665072D01*
X143753160Y-88643991D01*
X143763548Y-88624555D01*
X143777524Y-88607524D01*
X143794555Y-88593548D01*
X143813991Y-88583160D01*
X143835072Y-88576764D01*
X143863140Y-88574000D01*
X144326860Y-88574000D01*
X144354928Y-88576764D01*
G37*
G36*
X145624928Y-88576764D02*
G01*
X145646009Y-88583160D01*
X145665445Y-88593548D01*
X145682476Y-88607524D01*
X145696452Y-88624555D01*
X145706840Y-88643991D01*
X145713236Y-88665072D01*
X145716000Y-88693140D01*
X145716000Y-90606860D01*
X145713236Y-90634928D01*
X145706840Y-90656009D01*
X145696452Y-90675445D01*
X145682476Y-90692476D01*
X145665445Y-90706452D01*
X145646009Y-90716840D01*
X145624928Y-90723236D01*
X145596860Y-90726000D01*
X145133140Y-90726000D01*
X145105072Y-90723236D01*
X145083991Y-90716840D01*
X145064555Y-90706452D01*
X145047524Y-90692476D01*
X145033548Y-90675445D01*
X145023160Y-90656009D01*
X145016764Y-90634928D01*
X145014000Y-90606860D01*
X145014000Y-88693140D01*
X145016764Y-88665072D01*
X145023160Y-88643991D01*
X145033548Y-88624555D01*
X145047524Y-88607524D01*
X145064555Y-88593548D01*
X145083991Y-88583160D01*
X145105072Y-88576764D01*
X145133140Y-88574000D01*
X145596860Y-88574000D01*
X145624928Y-88576764D01*
G37*
G36*
X146894928Y-88576764D02*
G01*
X146916009Y-88583160D01*
X146935445Y-88593548D01*
X146952476Y-88607524D01*
X146966452Y-88624555D01*
X146976840Y-88643991D01*
X146983236Y-88665072D01*
X146986000Y-88693140D01*
X146986000Y-90606860D01*
X146983236Y-90634928D01*
X146976840Y-90656009D01*
X146966452Y-90675445D01*
X146952476Y-90692476D01*
X146935445Y-90706452D01*
X146916009Y-90716840D01*
X146894928Y-90723236D01*
X146866860Y-90726000D01*
X146403140Y-90726000D01*
X146375072Y-90723236D01*
X146353991Y-90716840D01*
X146334555Y-90706452D01*
X146317524Y-90692476D01*
X146303548Y-90675445D01*
X146293160Y-90656009D01*
X146286764Y-90634928D01*
X146284000Y-90606860D01*
X146284000Y-88693140D01*
X146286764Y-88665072D01*
X146293160Y-88643991D01*
X146303548Y-88624555D01*
X146317524Y-88607524D01*
X146334555Y-88593548D01*
X146353991Y-88583160D01*
X146375072Y-88576764D01*
X146403140Y-88574000D01*
X146866860Y-88574000D01*
X146894928Y-88576764D01*
G37*
G36*
X148164928Y-88576764D02*
G01*
X148186009Y-88583160D01*
X148205445Y-88593548D01*
X148222476Y-88607524D01*
X148236452Y-88624555D01*
X148246840Y-88643991D01*
X148253236Y-88665072D01*
X148256000Y-88693140D01*
X148256000Y-90606860D01*
X148253236Y-90634928D01*
X148246840Y-90656009D01*
X148236452Y-90675445D01*
X148222476Y-90692476D01*
X148205445Y-90706452D01*
X148186009Y-90716840D01*
X148164928Y-90723236D01*
X148136860Y-90726000D01*
X147673140Y-90726000D01*
X147645072Y-90723236D01*
X147623991Y-90716840D01*
X147604555Y-90706452D01*
X147587524Y-90692476D01*
X147573548Y-90675445D01*
X147563160Y-90656009D01*
X147556764Y-90634928D01*
X147554000Y-90606860D01*
X147554000Y-88693140D01*
X147556764Y-88665072D01*
X147563160Y-88643991D01*
X147573548Y-88624555D01*
X147587524Y-88607524D01*
X147604555Y-88593548D01*
X147623991Y-88583160D01*
X147645072Y-88576764D01*
X147673140Y-88574000D01*
X148136860Y-88574000D01*
X148164928Y-88576764D01*
G37*
G36*
X149434928Y-88576764D02*
G01*
X149456009Y-88583160D01*
X149475445Y-88593548D01*
X149492476Y-88607524D01*
X149506452Y-88624555D01*
X149516840Y-88643991D01*
X149523236Y-88665072D01*
X149526000Y-88693140D01*
X149526000Y-90606860D01*
X149523236Y-90634928D01*
X149516840Y-90656009D01*
X149506452Y-90675445D01*
X149492476Y-90692476D01*
X149475445Y-90706452D01*
X149456009Y-90716840D01*
X149434928Y-90723236D01*
X149406860Y-90726000D01*
X148943140Y-90726000D01*
X148915072Y-90723236D01*
X148893991Y-90716840D01*
X148874555Y-90706452D01*
X148857524Y-90692476D01*
X148843548Y-90675445D01*
X148833160Y-90656009D01*
X148826764Y-90634928D01*
X148824000Y-90606860D01*
X148824000Y-88693140D01*
X148826764Y-88665072D01*
X148833160Y-88643991D01*
X148843548Y-88624555D01*
X148857524Y-88607524D01*
X148874555Y-88593548D01*
X148893991Y-88583160D01*
X148915072Y-88576764D01*
X148943140Y-88574000D01*
X149406860Y-88574000D01*
X149434928Y-88576764D01*
G37*
G36*
X150704928Y-88576764D02*
G01*
X150726009Y-88583160D01*
X150745445Y-88593548D01*
X150762476Y-88607524D01*
X150776452Y-88624555D01*
X150786840Y-88643991D01*
X150793236Y-88665072D01*
X150796000Y-88693140D01*
X150796000Y-90606860D01*
X150793236Y-90634928D01*
X150786840Y-90656009D01*
X150776452Y-90675445D01*
X150762476Y-90692476D01*
X150745445Y-90706452D01*
X150726009Y-90716840D01*
X150704928Y-90723236D01*
X150676860Y-90726000D01*
X150213140Y-90726000D01*
X150185072Y-90723236D01*
X150163991Y-90716840D01*
X150144555Y-90706452D01*
X150127524Y-90692476D01*
X150113548Y-90675445D01*
X150103160Y-90656009D01*
X150096764Y-90634928D01*
X150094000Y-90606860D01*
X150094000Y-88693140D01*
X150096764Y-88665072D01*
X150103160Y-88643991D01*
X150113548Y-88624555D01*
X150127524Y-88607524D01*
X150144555Y-88593548D01*
X150163991Y-88583160D01*
X150185072Y-88576764D01*
X150213140Y-88574000D01*
X150676860Y-88574000D01*
X150704928Y-88576764D01*
G37*
G36*
X159814928Y-88576764D02*
G01*
X159836009Y-88583160D01*
X159855445Y-88593548D01*
X159872476Y-88607524D01*
X159886452Y-88624555D01*
X159896840Y-88643991D01*
X159903236Y-88665072D01*
X159906000Y-88693140D01*
X159906000Y-90606860D01*
X159903236Y-90634928D01*
X159896840Y-90656009D01*
X159886452Y-90675445D01*
X159872476Y-90692476D01*
X159855445Y-90706452D01*
X159836009Y-90716840D01*
X159814928Y-90723236D01*
X159786860Y-90726000D01*
X159323140Y-90726000D01*
X159295072Y-90723236D01*
X159273991Y-90716840D01*
X159254555Y-90706452D01*
X159237524Y-90692476D01*
X159223548Y-90675445D01*
X159213160Y-90656009D01*
X159206764Y-90634928D01*
X159204000Y-90606860D01*
X159204000Y-88693140D01*
X159206764Y-88665072D01*
X159213160Y-88643991D01*
X159223548Y-88624555D01*
X159237524Y-88607524D01*
X159254555Y-88593548D01*
X159273991Y-88583160D01*
X159295072Y-88576764D01*
X159323140Y-88574000D01*
X159786860Y-88574000D01*
X159814928Y-88576764D01*
G37*
G36*
X161084928Y-88576764D02*
G01*
X161106009Y-88583160D01*
X161125445Y-88593548D01*
X161142476Y-88607524D01*
X161156452Y-88624555D01*
X161166840Y-88643991D01*
X161173236Y-88665072D01*
X161176000Y-88693140D01*
X161176000Y-90606860D01*
X161173236Y-90634928D01*
X161166840Y-90656009D01*
X161156452Y-90675445D01*
X161142476Y-90692476D01*
X161125445Y-90706452D01*
X161106009Y-90716840D01*
X161084928Y-90723236D01*
X161056860Y-90726000D01*
X160593140Y-90726000D01*
X160565072Y-90723236D01*
X160543991Y-90716840D01*
X160524555Y-90706452D01*
X160507524Y-90692476D01*
X160493548Y-90675445D01*
X160483160Y-90656009D01*
X160476764Y-90634928D01*
X160474000Y-90606860D01*
X160474000Y-88693140D01*
X160476764Y-88665072D01*
X160483160Y-88643991D01*
X160493548Y-88624555D01*
X160507524Y-88607524D01*
X160524555Y-88593548D01*
X160543991Y-88583160D01*
X160565072Y-88576764D01*
X160593140Y-88574000D01*
X161056860Y-88574000D01*
X161084928Y-88576764D01*
G37*
G36*
X162354928Y-88576764D02*
G01*
X162376009Y-88583160D01*
X162395445Y-88593548D01*
X162412476Y-88607524D01*
X162426452Y-88624555D01*
X162436840Y-88643991D01*
X162443236Y-88665072D01*
X162446000Y-88693140D01*
X162446000Y-90606860D01*
X162443236Y-90634928D01*
X162436840Y-90656009D01*
X162426452Y-90675445D01*
X162412476Y-90692476D01*
X162395445Y-90706452D01*
X162376009Y-90716840D01*
X162354928Y-90723236D01*
X162326860Y-90726000D01*
X161863140Y-90726000D01*
X161835072Y-90723236D01*
X161813991Y-90716840D01*
X161794555Y-90706452D01*
X161777524Y-90692476D01*
X161763548Y-90675445D01*
X161753160Y-90656009D01*
X161746764Y-90634928D01*
X161744000Y-90606860D01*
X161744000Y-88693140D01*
X161746764Y-88665072D01*
X161753160Y-88643991D01*
X161763548Y-88624555D01*
X161777524Y-88607524D01*
X161794555Y-88593548D01*
X161813991Y-88583160D01*
X161835072Y-88576764D01*
X161863140Y-88574000D01*
X162326860Y-88574000D01*
X162354928Y-88576764D01*
G37*
G36*
X163624928Y-88576764D02*
G01*
X163646009Y-88583160D01*
X163665445Y-88593548D01*
X163682476Y-88607524D01*
X163696452Y-88624555D01*
X163706840Y-88643991D01*
X163713236Y-88665072D01*
X163716000Y-88693140D01*
X163716000Y-90606860D01*
X163713236Y-90634928D01*
X163706840Y-90656009D01*
X163696452Y-90675445D01*
X163682476Y-90692476D01*
X163665445Y-90706452D01*
X163646009Y-90716840D01*
X163624928Y-90723236D01*
X163596860Y-90726000D01*
X163133140Y-90726000D01*
X163105072Y-90723236D01*
X163083991Y-90716840D01*
X163064555Y-90706452D01*
X163047524Y-90692476D01*
X163033548Y-90675445D01*
X163023160Y-90656009D01*
X163016764Y-90634928D01*
X163014000Y-90606860D01*
X163014000Y-88693140D01*
X163016764Y-88665072D01*
X163023160Y-88643991D01*
X163033548Y-88624555D01*
X163047524Y-88607524D01*
X163064555Y-88593548D01*
X163083991Y-88583160D01*
X163105072Y-88576764D01*
X163133140Y-88574000D01*
X163596860Y-88574000D01*
X163624928Y-88576764D01*
G37*
G36*
X164894928Y-88576764D02*
G01*
X164916009Y-88583160D01*
X164935445Y-88593548D01*
X164952476Y-88607524D01*
X164966452Y-88624555D01*
X164976840Y-88643991D01*
X164983236Y-88665072D01*
X164986000Y-88693140D01*
X164986000Y-90606860D01*
X164983236Y-90634928D01*
X164976840Y-90656009D01*
X164966452Y-90675445D01*
X164952476Y-90692476D01*
X164935445Y-90706452D01*
X164916009Y-90716840D01*
X164894928Y-90723236D01*
X164866860Y-90726000D01*
X164403140Y-90726000D01*
X164375072Y-90723236D01*
X164353991Y-90716840D01*
X164334555Y-90706452D01*
X164317524Y-90692476D01*
X164303548Y-90675445D01*
X164293160Y-90656009D01*
X164286764Y-90634928D01*
X164284000Y-90606860D01*
X164284000Y-88693140D01*
X164286764Y-88665072D01*
X164293160Y-88643991D01*
X164303548Y-88624555D01*
X164317524Y-88607524D01*
X164334555Y-88593548D01*
X164353991Y-88583160D01*
X164375072Y-88576764D01*
X164403140Y-88574000D01*
X164866860Y-88574000D01*
X164894928Y-88576764D01*
G37*
G36*
X123814928Y-88576764D02*
G01*
X123836009Y-88583160D01*
X123855445Y-88593548D01*
X123872476Y-88607524D01*
X123886452Y-88624555D01*
X123896840Y-88643991D01*
X123903236Y-88665072D01*
X123906000Y-88693140D01*
X123906000Y-90606860D01*
X123903236Y-90634928D01*
X123896840Y-90656009D01*
X123886452Y-90675445D01*
X123872476Y-90692476D01*
X123855445Y-90706452D01*
X123836009Y-90716840D01*
X123814928Y-90723236D01*
X123786860Y-90726000D01*
X123323140Y-90726000D01*
X123295072Y-90723236D01*
X123273991Y-90716840D01*
X123254555Y-90706452D01*
X123237524Y-90692476D01*
X123223548Y-90675445D01*
X123213160Y-90656009D01*
X123206764Y-90634928D01*
X123204000Y-90606860D01*
X123204000Y-88693140D01*
X123206764Y-88665072D01*
X123213160Y-88643991D01*
X123223548Y-88624555D01*
X123237524Y-88607524D01*
X123254555Y-88593548D01*
X123273991Y-88583160D01*
X123295072Y-88576764D01*
X123323140Y-88574000D01*
X123786860Y-88574000D01*
X123814928Y-88576764D01*
G37*
G36*
X166164928Y-88576764D02*
G01*
X166186009Y-88583160D01*
X166205445Y-88593548D01*
X166222476Y-88607524D01*
X166236452Y-88624555D01*
X166246840Y-88643991D01*
X166253236Y-88665072D01*
X166256000Y-88693140D01*
X166256000Y-90606860D01*
X166253236Y-90634928D01*
X166246840Y-90656009D01*
X166236452Y-90675445D01*
X166222476Y-90692476D01*
X166205445Y-90706452D01*
X166186009Y-90716840D01*
X166164928Y-90723236D01*
X166136860Y-90726000D01*
X165673140Y-90726000D01*
X165645072Y-90723236D01*
X165623991Y-90716840D01*
X165604555Y-90706452D01*
X165587524Y-90692476D01*
X165573548Y-90675445D01*
X165563160Y-90656009D01*
X165556764Y-90634928D01*
X165554000Y-90606860D01*
X165554000Y-88693140D01*
X165556764Y-88665072D01*
X165563160Y-88643991D01*
X165573548Y-88624555D01*
X165587524Y-88607524D01*
X165604555Y-88593548D01*
X165623991Y-88583160D01*
X165645072Y-88576764D01*
X165673140Y-88574000D01*
X166136860Y-88574000D01*
X166164928Y-88576764D01*
G37*
G36*
X167434928Y-88576764D02*
G01*
X167456009Y-88583160D01*
X167475445Y-88593548D01*
X167492476Y-88607524D01*
X167506452Y-88624555D01*
X167516840Y-88643991D01*
X167523236Y-88665072D01*
X167526000Y-88693140D01*
X167526000Y-90606860D01*
X167523236Y-90634928D01*
X167516840Y-90656009D01*
X167506452Y-90675445D01*
X167492476Y-90692476D01*
X167475445Y-90706452D01*
X167456009Y-90716840D01*
X167434928Y-90723236D01*
X167406860Y-90726000D01*
X166943140Y-90726000D01*
X166915072Y-90723236D01*
X166893991Y-90716840D01*
X166874555Y-90706452D01*
X166857524Y-90692476D01*
X166843548Y-90675445D01*
X166833160Y-90656009D01*
X166826764Y-90634928D01*
X166824000Y-90606860D01*
X166824000Y-88693140D01*
X166826764Y-88665072D01*
X166833160Y-88643991D01*
X166843548Y-88624555D01*
X166857524Y-88607524D01*
X166874555Y-88593548D01*
X166893991Y-88583160D01*
X166915072Y-88576764D01*
X166943140Y-88574000D01*
X167406860Y-88574000D01*
X167434928Y-88576764D01*
G37*
G36*
X141814928Y-88576764D02*
G01*
X141836009Y-88583160D01*
X141855445Y-88593548D01*
X141872476Y-88607524D01*
X141886452Y-88624555D01*
X141896840Y-88643991D01*
X141903236Y-88665072D01*
X141906000Y-88693140D01*
X141906000Y-90606860D01*
X141903236Y-90634928D01*
X141896840Y-90656009D01*
X141886452Y-90675445D01*
X141872476Y-90692476D01*
X141855445Y-90706452D01*
X141836009Y-90716840D01*
X141814928Y-90723236D01*
X141786860Y-90726000D01*
X141323140Y-90726000D01*
X141295072Y-90723236D01*
X141273991Y-90716840D01*
X141254555Y-90706452D01*
X141237524Y-90692476D01*
X141223548Y-90675445D01*
X141213160Y-90656009D01*
X141206764Y-90634928D01*
X141204000Y-90606860D01*
X141204000Y-88693140D01*
X141206764Y-88665072D01*
X141213160Y-88643991D01*
X141223548Y-88624555D01*
X141237524Y-88607524D01*
X141254555Y-88593548D01*
X141273991Y-88583160D01*
X141295072Y-88576764D01*
X141323140Y-88574000D01*
X141786860Y-88574000D01*
X141814928Y-88576764D01*
G37*
G36*
X132704928Y-88576764D02*
G01*
X132726009Y-88583160D01*
X132745445Y-88593548D01*
X132762476Y-88607524D01*
X132776452Y-88624555D01*
X132786840Y-88643991D01*
X132793236Y-88665072D01*
X132796000Y-88693140D01*
X132796000Y-90606860D01*
X132793236Y-90634928D01*
X132786840Y-90656009D01*
X132776452Y-90675445D01*
X132762476Y-90692476D01*
X132745445Y-90706452D01*
X132726009Y-90716840D01*
X132704928Y-90723236D01*
X132676860Y-90726000D01*
X132213140Y-90726000D01*
X132185072Y-90723236D01*
X132163991Y-90716840D01*
X132144555Y-90706452D01*
X132127524Y-90692476D01*
X132113548Y-90675445D01*
X132103160Y-90656009D01*
X132096764Y-90634928D01*
X132094000Y-90606860D01*
X132094000Y-88693140D01*
X132096764Y-88665072D01*
X132103160Y-88643991D01*
X132113548Y-88624555D01*
X132127524Y-88607524D01*
X132144555Y-88593548D01*
X132163991Y-88583160D01*
X132185072Y-88576764D01*
X132213140Y-88574000D01*
X132676860Y-88574000D01*
X132704928Y-88576764D01*
G37*
G36*
X130164928Y-88576764D02*
G01*
X130186009Y-88583160D01*
X130205445Y-88593548D01*
X130222476Y-88607524D01*
X130236452Y-88624555D01*
X130246840Y-88643991D01*
X130253236Y-88665072D01*
X130256000Y-88693140D01*
X130256000Y-90606860D01*
X130253236Y-90634928D01*
X130246840Y-90656009D01*
X130236452Y-90675445D01*
X130222476Y-90692476D01*
X130205445Y-90706452D01*
X130186009Y-90716840D01*
X130164928Y-90723236D01*
X130136860Y-90726000D01*
X129673140Y-90726000D01*
X129645072Y-90723236D01*
X129623991Y-90716840D01*
X129604555Y-90706452D01*
X129587524Y-90692476D01*
X129573548Y-90675445D01*
X129563160Y-90656009D01*
X129556764Y-90634928D01*
X129554000Y-90606860D01*
X129554000Y-88693140D01*
X129556764Y-88665072D01*
X129563160Y-88643991D01*
X129573548Y-88624555D01*
X129587524Y-88607524D01*
X129604555Y-88593548D01*
X129623991Y-88583160D01*
X129645072Y-88576764D01*
X129673140Y-88574000D01*
X130136860Y-88574000D01*
X130164928Y-88576764D01*
G37*
G36*
X131434928Y-88576764D02*
G01*
X131456009Y-88583160D01*
X131475445Y-88593548D01*
X131492476Y-88607524D01*
X131506452Y-88624555D01*
X131516840Y-88643991D01*
X131523236Y-88665072D01*
X131526000Y-88693140D01*
X131526000Y-90606860D01*
X131523236Y-90634928D01*
X131516840Y-90656009D01*
X131506452Y-90675445D01*
X131492476Y-90692476D01*
X131475445Y-90706452D01*
X131456009Y-90716840D01*
X131434928Y-90723236D01*
X131406860Y-90726000D01*
X130943140Y-90726000D01*
X130915072Y-90723236D01*
X130893991Y-90716840D01*
X130874555Y-90706452D01*
X130857524Y-90692476D01*
X130843548Y-90675445D01*
X130833160Y-90656009D01*
X130826764Y-90634928D01*
X130824000Y-90606860D01*
X130824000Y-88693140D01*
X130826764Y-88665072D01*
X130833160Y-88643991D01*
X130843548Y-88624555D01*
X130857524Y-88607524D01*
X130874555Y-88593548D01*
X130893991Y-88583160D01*
X130915072Y-88576764D01*
X130943140Y-88574000D01*
X131406860Y-88574000D01*
X131434928Y-88576764D01*
G37*
G36*
X127624928Y-88576764D02*
G01*
X127646009Y-88583160D01*
X127665445Y-88593548D01*
X127682476Y-88607524D01*
X127696452Y-88624555D01*
X127706840Y-88643991D01*
X127713236Y-88665072D01*
X127716000Y-88693140D01*
X127716000Y-90606860D01*
X127713236Y-90634928D01*
X127706840Y-90656009D01*
X127696452Y-90675445D01*
X127682476Y-90692476D01*
X127665445Y-90706452D01*
X127646009Y-90716840D01*
X127624928Y-90723236D01*
X127596860Y-90726000D01*
X127133140Y-90726000D01*
X127105072Y-90723236D01*
X127083991Y-90716840D01*
X127064555Y-90706452D01*
X127047524Y-90692476D01*
X127033548Y-90675445D01*
X127023160Y-90656009D01*
X127016764Y-90634928D01*
X127014000Y-90606860D01*
X127014000Y-88693140D01*
X127016764Y-88665072D01*
X127023160Y-88643991D01*
X127033548Y-88624555D01*
X127047524Y-88607524D01*
X127064555Y-88593548D01*
X127083991Y-88583160D01*
X127105072Y-88576764D01*
X127133140Y-88574000D01*
X127596860Y-88574000D01*
X127624928Y-88576764D01*
G37*
G36*
X128894928Y-88576764D02*
G01*
X128916009Y-88583160D01*
X128935445Y-88593548D01*
X128952476Y-88607524D01*
X128966452Y-88624555D01*
X128976840Y-88643991D01*
X128983236Y-88665072D01*
X128986000Y-88693140D01*
X128986000Y-90606860D01*
X128983236Y-90634928D01*
X128976840Y-90656009D01*
X128966452Y-90675445D01*
X128952476Y-90692476D01*
X128935445Y-90706452D01*
X128916009Y-90716840D01*
X128894928Y-90723236D01*
X128866860Y-90726000D01*
X128403140Y-90726000D01*
X128375072Y-90723236D01*
X128353991Y-90716840D01*
X128334555Y-90706452D01*
X128317524Y-90692476D01*
X128303548Y-90675445D01*
X128293160Y-90656009D01*
X128286764Y-90634928D01*
X128284000Y-90606860D01*
X128284000Y-88693140D01*
X128286764Y-88665072D01*
X128293160Y-88643991D01*
X128303548Y-88624555D01*
X128317524Y-88607524D01*
X128334555Y-88593548D01*
X128353991Y-88583160D01*
X128375072Y-88576764D01*
X128403140Y-88574000D01*
X128866860Y-88574000D01*
X128894928Y-88576764D01*
G37*
G36*
X126354928Y-88576764D02*
G01*
X126376009Y-88583160D01*
X126395445Y-88593548D01*
X126412476Y-88607524D01*
X126426452Y-88624555D01*
X126436840Y-88643991D01*
X126443236Y-88665072D01*
X126446000Y-88693140D01*
X126446000Y-90606860D01*
X126443236Y-90634928D01*
X126436840Y-90656009D01*
X126426452Y-90675445D01*
X126412476Y-90692476D01*
X126395445Y-90706452D01*
X126376009Y-90716840D01*
X126354928Y-90723236D01*
X126326860Y-90726000D01*
X125863140Y-90726000D01*
X125835072Y-90723236D01*
X125813991Y-90716840D01*
X125794555Y-90706452D01*
X125777524Y-90692476D01*
X125763548Y-90675445D01*
X125753160Y-90656009D01*
X125746764Y-90634928D01*
X125744000Y-90606860D01*
X125744000Y-88693140D01*
X125746764Y-88665072D01*
X125753160Y-88643991D01*
X125763548Y-88624555D01*
X125777524Y-88607524D01*
X125794555Y-88593548D01*
X125813991Y-88583160D01*
X125835072Y-88576764D01*
X125863140Y-88574000D01*
X126326860Y-88574000D01*
X126354928Y-88576764D01*
G37*
G36*
X125084928Y-88576764D02*
G01*
X125106009Y-88583160D01*
X125125445Y-88593548D01*
X125142476Y-88607524D01*
X125156452Y-88624555D01*
X125166840Y-88643991D01*
X125173236Y-88665072D01*
X125176000Y-88693140D01*
X125176000Y-90606860D01*
X125173236Y-90634928D01*
X125166840Y-90656009D01*
X125156452Y-90675445D01*
X125142476Y-90692476D01*
X125125445Y-90706452D01*
X125106009Y-90716840D01*
X125084928Y-90723236D01*
X125056860Y-90726000D01*
X124593140Y-90726000D01*
X124565072Y-90723236D01*
X124543991Y-90716840D01*
X124524555Y-90706452D01*
X124507524Y-90692476D01*
X124493548Y-90675445D01*
X124483160Y-90656009D01*
X124476764Y-90634928D01*
X124474000Y-90606860D01*
X124474000Y-88693140D01*
X124476764Y-88665072D01*
X124483160Y-88643991D01*
X124493548Y-88624555D01*
X124507524Y-88607524D01*
X124524555Y-88593548D01*
X124543991Y-88583160D01*
X124565072Y-88576764D01*
X124593140Y-88574000D01*
X125056860Y-88574000D01*
X125084928Y-88576764D01*
G37*
G36*
X114704928Y-88576764D02*
G01*
X114726009Y-88583160D01*
X114745445Y-88593548D01*
X114762476Y-88607524D01*
X114776452Y-88624555D01*
X114786840Y-88643991D01*
X114793236Y-88665072D01*
X114796000Y-88693140D01*
X114796000Y-90606860D01*
X114793236Y-90634928D01*
X114786840Y-90656009D01*
X114776452Y-90675445D01*
X114762476Y-90692476D01*
X114745445Y-90706452D01*
X114726009Y-90716840D01*
X114704928Y-90723236D01*
X114676860Y-90726000D01*
X114213140Y-90726000D01*
X114185072Y-90723236D01*
X114163991Y-90716840D01*
X114144555Y-90706452D01*
X114127524Y-90692476D01*
X114113548Y-90675445D01*
X114103160Y-90656009D01*
X114096764Y-90634928D01*
X114094000Y-90606860D01*
X114094000Y-88693140D01*
X114096764Y-88665072D01*
X114103160Y-88643991D01*
X114113548Y-88624555D01*
X114127524Y-88607524D01*
X114144555Y-88593548D01*
X114163991Y-88583160D01*
X114185072Y-88576764D01*
X114213140Y-88574000D01*
X114676860Y-88574000D01*
X114704928Y-88576764D01*
G37*
G36*
X113434928Y-88576764D02*
G01*
X113456009Y-88583160D01*
X113475445Y-88593548D01*
X113492476Y-88607524D01*
X113506452Y-88624555D01*
X113516840Y-88643991D01*
X113523236Y-88665072D01*
X113526000Y-88693140D01*
X113526000Y-90606860D01*
X113523236Y-90634928D01*
X113516840Y-90656009D01*
X113506452Y-90675445D01*
X113492476Y-90692476D01*
X113475445Y-90706452D01*
X113456009Y-90716840D01*
X113434928Y-90723236D01*
X113406860Y-90726000D01*
X112943140Y-90726000D01*
X112915072Y-90723236D01*
X112893991Y-90716840D01*
X112874555Y-90706452D01*
X112857524Y-90692476D01*
X112843548Y-90675445D01*
X112833160Y-90656009D01*
X112826764Y-90634928D01*
X112824000Y-90606860D01*
X112824000Y-88693140D01*
X112826764Y-88665072D01*
X112833160Y-88643991D01*
X112843548Y-88624555D01*
X112857524Y-88607524D01*
X112874555Y-88593548D01*
X112893991Y-88583160D01*
X112915072Y-88576764D01*
X112943140Y-88574000D01*
X113406860Y-88574000D01*
X113434928Y-88576764D01*
G37*
G36*
X112164928Y-88576764D02*
G01*
X112186009Y-88583160D01*
X112205445Y-88593548D01*
X112222476Y-88607524D01*
X112236452Y-88624555D01*
X112246840Y-88643991D01*
X112253236Y-88665072D01*
X112256000Y-88693140D01*
X112256000Y-90606860D01*
X112253236Y-90634928D01*
X112246840Y-90656009D01*
X112236452Y-90675445D01*
X112222476Y-90692476D01*
X112205445Y-90706452D01*
X112186009Y-90716840D01*
X112164928Y-90723236D01*
X112136860Y-90726000D01*
X111673140Y-90726000D01*
X111645072Y-90723236D01*
X111623991Y-90716840D01*
X111604555Y-90706452D01*
X111587524Y-90692476D01*
X111573548Y-90675445D01*
X111563160Y-90656009D01*
X111556764Y-90634928D01*
X111554000Y-90606860D01*
X111554000Y-88693140D01*
X111556764Y-88665072D01*
X111563160Y-88643991D01*
X111573548Y-88624555D01*
X111587524Y-88607524D01*
X111604555Y-88593548D01*
X111623991Y-88583160D01*
X111645072Y-88576764D01*
X111673140Y-88574000D01*
X112136860Y-88574000D01*
X112164928Y-88576764D01*
G37*
G36*
X110894928Y-88576764D02*
G01*
X110916009Y-88583160D01*
X110935445Y-88593548D01*
X110952476Y-88607524D01*
X110966452Y-88624555D01*
X110976840Y-88643991D01*
X110983236Y-88665072D01*
X110986000Y-88693140D01*
X110986000Y-90606860D01*
X110983236Y-90634928D01*
X110976840Y-90656009D01*
X110966452Y-90675445D01*
X110952476Y-90692476D01*
X110935445Y-90706452D01*
X110916009Y-90716840D01*
X110894928Y-90723236D01*
X110866860Y-90726000D01*
X110403140Y-90726000D01*
X110375072Y-90723236D01*
X110353991Y-90716840D01*
X110334555Y-90706452D01*
X110317524Y-90692476D01*
X110303548Y-90675445D01*
X110293160Y-90656009D01*
X110286764Y-90634928D01*
X110284000Y-90606860D01*
X110284000Y-88693140D01*
X110286764Y-88665072D01*
X110293160Y-88643991D01*
X110303548Y-88624555D01*
X110317524Y-88607524D01*
X110334555Y-88593548D01*
X110353991Y-88583160D01*
X110375072Y-88576764D01*
X110403140Y-88574000D01*
X110866860Y-88574000D01*
X110894928Y-88576764D01*
G37*
G36*
X109624928Y-88576764D02*
G01*
X109646009Y-88583160D01*
X109665445Y-88593548D01*
X109682476Y-88607524D01*
X109696452Y-88624555D01*
X109706840Y-88643991D01*
X109713236Y-88665072D01*
X109716000Y-88693140D01*
X109716000Y-90606860D01*
X109713236Y-90634928D01*
X109706840Y-90656009D01*
X109696452Y-90675445D01*
X109682476Y-90692476D01*
X109665445Y-90706452D01*
X109646009Y-90716840D01*
X109624928Y-90723236D01*
X109596860Y-90726000D01*
X109133140Y-90726000D01*
X109105072Y-90723236D01*
X109083991Y-90716840D01*
X109064555Y-90706452D01*
X109047524Y-90692476D01*
X109033548Y-90675445D01*
X109023160Y-90656009D01*
X109016764Y-90634928D01*
X109014000Y-90606860D01*
X109014000Y-88693140D01*
X109016764Y-88665072D01*
X109023160Y-88643991D01*
X109033548Y-88624555D01*
X109047524Y-88607524D01*
X109064555Y-88593548D01*
X109083991Y-88583160D01*
X109105072Y-88576764D01*
X109133140Y-88574000D01*
X109596860Y-88574000D01*
X109624928Y-88576764D01*
G37*
G36*
X108354928Y-88576764D02*
G01*
X108376009Y-88583160D01*
X108395445Y-88593548D01*
X108412476Y-88607524D01*
X108426452Y-88624555D01*
X108436840Y-88643991D01*
X108443236Y-88665072D01*
X108446000Y-88693140D01*
X108446000Y-90606860D01*
X108443236Y-90634928D01*
X108436840Y-90656009D01*
X108426452Y-90675445D01*
X108412476Y-90692476D01*
X108395445Y-90706452D01*
X108376009Y-90716840D01*
X108354928Y-90723236D01*
X108326860Y-90726000D01*
X107863140Y-90726000D01*
X107835072Y-90723236D01*
X107813991Y-90716840D01*
X107794555Y-90706452D01*
X107777524Y-90692476D01*
X107763548Y-90675445D01*
X107753160Y-90656009D01*
X107746764Y-90634928D01*
X107744000Y-90606860D01*
X107744000Y-88693140D01*
X107746764Y-88665072D01*
X107753160Y-88643991D01*
X107763548Y-88624555D01*
X107777524Y-88607524D01*
X107794555Y-88593548D01*
X107813991Y-88583160D01*
X107835072Y-88576764D01*
X107863140Y-88574000D01*
X108326860Y-88574000D01*
X108354928Y-88576764D01*
G37*
G36*
X107084928Y-88576764D02*
G01*
X107106009Y-88583160D01*
X107125445Y-88593548D01*
X107142476Y-88607524D01*
X107156452Y-88624555D01*
X107166840Y-88643991D01*
X107173236Y-88665072D01*
X107176000Y-88693140D01*
X107176000Y-90606860D01*
X107173236Y-90634928D01*
X107166840Y-90656009D01*
X107156452Y-90675445D01*
X107142476Y-90692476D01*
X107125445Y-90706452D01*
X107106009Y-90716840D01*
X107084928Y-90723236D01*
X107056860Y-90726000D01*
X106593140Y-90726000D01*
X106565072Y-90723236D01*
X106543991Y-90716840D01*
X106524555Y-90706452D01*
X106507524Y-90692476D01*
X106493548Y-90675445D01*
X106483160Y-90656009D01*
X106476764Y-90634928D01*
X106474000Y-90606860D01*
X106474000Y-88693140D01*
X106476764Y-88665072D01*
X106483160Y-88643991D01*
X106493548Y-88624555D01*
X106507524Y-88607524D01*
X106524555Y-88593548D01*
X106543991Y-88583160D01*
X106565072Y-88576764D01*
X106593140Y-88574000D01*
X107056860Y-88574000D01*
X107084928Y-88576764D01*
G37*
G36*
X105814928Y-88576764D02*
G01*
X105836009Y-88583160D01*
X105855445Y-88593548D01*
X105872476Y-88607524D01*
X105886452Y-88624555D01*
X105896840Y-88643991D01*
X105903236Y-88665072D01*
X105906000Y-88693140D01*
X105906000Y-90606860D01*
X105903236Y-90634928D01*
X105896840Y-90656009D01*
X105886452Y-90675445D01*
X105872476Y-90692476D01*
X105855445Y-90706452D01*
X105836009Y-90716840D01*
X105814928Y-90723236D01*
X105786860Y-90726000D01*
X105323140Y-90726000D01*
X105295072Y-90723236D01*
X105273991Y-90716840D01*
X105254555Y-90706452D01*
X105237524Y-90692476D01*
X105223548Y-90675445D01*
X105213160Y-90656009D01*
X105206764Y-90634928D01*
X105204000Y-90606860D01*
X105204000Y-88693140D01*
X105206764Y-88665072D01*
X105213160Y-88643991D01*
X105223548Y-88624555D01*
X105237524Y-88607524D01*
X105254555Y-88593548D01*
X105273991Y-88583160D01*
X105295072Y-88576764D01*
X105323140Y-88574000D01*
X105786860Y-88574000D01*
X105814928Y-88576764D01*
G37*
G36*
X191451000Y-86601000D02*
G01*
X189149000Y-86601000D01*
X189149000Y-85299000D01*
X191451000Y-85299000D01*
X191451000Y-86601000D01*
G37*
G36*
X181051000Y-85174001D02*
G01*
X181053402Y-85198387D01*
X181060515Y-85221836D01*
X181072066Y-85243447D01*
X181087611Y-85262389D01*
X181106553Y-85277934D01*
X181128164Y-85289485D01*
X181151613Y-85296598D01*
X181175999Y-85299000D01*
X181451000Y-85299000D01*
X181451000Y-86601000D01*
X179949000Y-86601000D01*
X179949000Y-85325999D01*
X179946598Y-85301613D01*
X179939485Y-85278164D01*
X179927934Y-85256553D01*
X179912389Y-85237611D01*
X179893447Y-85222066D01*
X179871836Y-85210515D01*
X179848387Y-85203402D01*
X179824001Y-85201000D01*
X179349000Y-85201000D01*
X179349000Y-84399000D01*
X181051000Y-84399000D01*
X181051000Y-85174001D01*
G37*
G36*
X181051000Y-84101000D02*
G01*
X179349000Y-84101000D01*
X179349000Y-83299000D01*
X181051000Y-83299000D01*
X181051000Y-84101000D01*
G37*
G36*
X181051000Y-83001000D02*
G01*
X179349000Y-83001000D01*
X179349000Y-82199000D01*
X181051000Y-82199000D01*
X181051000Y-83001000D01*
G37*
G36*
X181051000Y-81901000D02*
G01*
X179349000Y-81901000D01*
X179349000Y-81099000D01*
X181051000Y-81099000D01*
X181051000Y-81901000D01*
G37*
G36*
X161084928Y-79276764D02*
G01*
X161106009Y-79283160D01*
X161125445Y-79293548D01*
X161142476Y-79307524D01*
X161156452Y-79324555D01*
X161166840Y-79343991D01*
X161173236Y-79365072D01*
X161176000Y-79393140D01*
X161176000Y-81306860D01*
X161173236Y-81334928D01*
X161166840Y-81356009D01*
X161156452Y-81375445D01*
X161142476Y-81392476D01*
X161125445Y-81406452D01*
X161106009Y-81416840D01*
X161084928Y-81423236D01*
X161056860Y-81426000D01*
X160593140Y-81426000D01*
X160565072Y-81423236D01*
X160543991Y-81416840D01*
X160524555Y-81406452D01*
X160507524Y-81392476D01*
X160493548Y-81375445D01*
X160483160Y-81356009D01*
X160476764Y-81334928D01*
X160474000Y-81306860D01*
X160474000Y-79393140D01*
X160476764Y-79365072D01*
X160483160Y-79343991D01*
X160493548Y-79324555D01*
X160507524Y-79307524D01*
X160524555Y-79293548D01*
X160543991Y-79283160D01*
X160565072Y-79276764D01*
X160593140Y-79274000D01*
X161056860Y-79274000D01*
X161084928Y-79276764D01*
G37*
G36*
X162354928Y-79276764D02*
G01*
X162376009Y-79283160D01*
X162395445Y-79293548D01*
X162412476Y-79307524D01*
X162426452Y-79324555D01*
X162436840Y-79343991D01*
X162443236Y-79365072D01*
X162446000Y-79393140D01*
X162446000Y-81306860D01*
X162443236Y-81334928D01*
X162436840Y-81356009D01*
X162426452Y-81375445D01*
X162412476Y-81392476D01*
X162395445Y-81406452D01*
X162376009Y-81416840D01*
X162354928Y-81423236D01*
X162326860Y-81426000D01*
X161863140Y-81426000D01*
X161835072Y-81423236D01*
X161813991Y-81416840D01*
X161794555Y-81406452D01*
X161777524Y-81392476D01*
X161763548Y-81375445D01*
X161753160Y-81356009D01*
X161746764Y-81334928D01*
X161744000Y-81306860D01*
X161744000Y-79393140D01*
X161746764Y-79365072D01*
X161753160Y-79343991D01*
X161763548Y-79324555D01*
X161777524Y-79307524D01*
X161794555Y-79293548D01*
X161813991Y-79283160D01*
X161835072Y-79276764D01*
X161863140Y-79274000D01*
X162326860Y-79274000D01*
X162354928Y-79276764D01*
G37*
G36*
X168704928Y-79276764D02*
G01*
X168726009Y-79283160D01*
X168745445Y-79293548D01*
X168762476Y-79307524D01*
X168776452Y-79324555D01*
X168786840Y-79343991D01*
X168793236Y-79365072D01*
X168796000Y-79393140D01*
X168796000Y-81306860D01*
X168793236Y-81334928D01*
X168786840Y-81356009D01*
X168776452Y-81375445D01*
X168762476Y-81392476D01*
X168745445Y-81406452D01*
X168726009Y-81416840D01*
X168704928Y-81423236D01*
X168676860Y-81426000D01*
X168213140Y-81426000D01*
X168185072Y-81423236D01*
X168163991Y-81416840D01*
X168144555Y-81406452D01*
X168127524Y-81392476D01*
X168113548Y-81375445D01*
X168103160Y-81356009D01*
X168096764Y-81334928D01*
X168094000Y-81306860D01*
X168094000Y-79393140D01*
X168096764Y-79365072D01*
X168103160Y-79343991D01*
X168113548Y-79324555D01*
X168127524Y-79307524D01*
X168144555Y-79293548D01*
X168163991Y-79283160D01*
X168185072Y-79276764D01*
X168213140Y-79274000D01*
X168676860Y-79274000D01*
X168704928Y-79276764D01*
G37*
G36*
X167434928Y-79276764D02*
G01*
X167456009Y-79283160D01*
X167475445Y-79293548D01*
X167492476Y-79307524D01*
X167506452Y-79324555D01*
X167516840Y-79343991D01*
X167523236Y-79365072D01*
X167526000Y-79393140D01*
X167526000Y-81306860D01*
X167523236Y-81334928D01*
X167516840Y-81356009D01*
X167506452Y-81375445D01*
X167492476Y-81392476D01*
X167475445Y-81406452D01*
X167456009Y-81416840D01*
X167434928Y-81423236D01*
X167406860Y-81426000D01*
X166943140Y-81426000D01*
X166915072Y-81423236D01*
X166893991Y-81416840D01*
X166874555Y-81406452D01*
X166857524Y-81392476D01*
X166843548Y-81375445D01*
X166833160Y-81356009D01*
X166826764Y-81334928D01*
X166824000Y-81306860D01*
X166824000Y-79393140D01*
X166826764Y-79365072D01*
X166833160Y-79343991D01*
X166843548Y-79324555D01*
X166857524Y-79307524D01*
X166874555Y-79293548D01*
X166893991Y-79283160D01*
X166915072Y-79276764D01*
X166943140Y-79274000D01*
X167406860Y-79274000D01*
X167434928Y-79276764D01*
G37*
G36*
X166164928Y-79276764D02*
G01*
X166186009Y-79283160D01*
X166205445Y-79293548D01*
X166222476Y-79307524D01*
X166236452Y-79324555D01*
X166246840Y-79343991D01*
X166253236Y-79365072D01*
X166256000Y-79393140D01*
X166256000Y-81306860D01*
X166253236Y-81334928D01*
X166246840Y-81356009D01*
X166236452Y-81375445D01*
X166222476Y-81392476D01*
X166205445Y-81406452D01*
X166186009Y-81416840D01*
X166164928Y-81423236D01*
X166136860Y-81426000D01*
X165673140Y-81426000D01*
X165645072Y-81423236D01*
X165623991Y-81416840D01*
X165604555Y-81406452D01*
X165587524Y-81392476D01*
X165573548Y-81375445D01*
X165563160Y-81356009D01*
X165556764Y-81334928D01*
X165554000Y-81306860D01*
X165554000Y-79393140D01*
X165556764Y-79365072D01*
X165563160Y-79343991D01*
X165573548Y-79324555D01*
X165587524Y-79307524D01*
X165604555Y-79293548D01*
X165623991Y-79283160D01*
X165645072Y-79276764D01*
X165673140Y-79274000D01*
X166136860Y-79274000D01*
X166164928Y-79276764D01*
G37*
G36*
X127624928Y-79276764D02*
G01*
X127646009Y-79283160D01*
X127665445Y-79293548D01*
X127682476Y-79307524D01*
X127696452Y-79324555D01*
X127706840Y-79343991D01*
X127713236Y-79365072D01*
X127716000Y-79393140D01*
X127716000Y-81306860D01*
X127713236Y-81334928D01*
X127706840Y-81356009D01*
X127696452Y-81375445D01*
X127682476Y-81392476D01*
X127665445Y-81406452D01*
X127646009Y-81416840D01*
X127624928Y-81423236D01*
X127596860Y-81426000D01*
X127133140Y-81426000D01*
X127105072Y-81423236D01*
X127083991Y-81416840D01*
X127064555Y-81406452D01*
X127047524Y-81392476D01*
X127033548Y-81375445D01*
X127023160Y-81356009D01*
X127016764Y-81334928D01*
X127014000Y-81306860D01*
X127014000Y-79393140D01*
X127016764Y-79365072D01*
X127023160Y-79343991D01*
X127033548Y-79324555D01*
X127047524Y-79307524D01*
X127064555Y-79293548D01*
X127083991Y-79283160D01*
X127105072Y-79276764D01*
X127133140Y-79274000D01*
X127596860Y-79274000D01*
X127624928Y-79276764D01*
G37*
G36*
X149434928Y-79276764D02*
G01*
X149456009Y-79283160D01*
X149475445Y-79293548D01*
X149492476Y-79307524D01*
X149506452Y-79324555D01*
X149516840Y-79343991D01*
X149523236Y-79365072D01*
X149526000Y-79393140D01*
X149526000Y-81306860D01*
X149523236Y-81334928D01*
X149516840Y-81356009D01*
X149506452Y-81375445D01*
X149492476Y-81392476D01*
X149475445Y-81406452D01*
X149456009Y-81416840D01*
X149434928Y-81423236D01*
X149406860Y-81426000D01*
X148943140Y-81426000D01*
X148915072Y-81423236D01*
X148893991Y-81416840D01*
X148874555Y-81406452D01*
X148857524Y-81392476D01*
X148843548Y-81375445D01*
X148833160Y-81356009D01*
X148826764Y-81334928D01*
X148824000Y-81306860D01*
X148824000Y-79393140D01*
X148826764Y-79365072D01*
X148833160Y-79343991D01*
X148843548Y-79324555D01*
X148857524Y-79307524D01*
X148874555Y-79293548D01*
X148893991Y-79283160D01*
X148915072Y-79276764D01*
X148943140Y-79274000D01*
X149406860Y-79274000D01*
X149434928Y-79276764D01*
G37*
G36*
X148164928Y-79276764D02*
G01*
X148186009Y-79283160D01*
X148205445Y-79293548D01*
X148222476Y-79307524D01*
X148236452Y-79324555D01*
X148246840Y-79343991D01*
X148253236Y-79365072D01*
X148256000Y-79393140D01*
X148256000Y-81306860D01*
X148253236Y-81334928D01*
X148246840Y-81356009D01*
X148236452Y-81375445D01*
X148222476Y-81392476D01*
X148205445Y-81406452D01*
X148186009Y-81416840D01*
X148164928Y-81423236D01*
X148136860Y-81426000D01*
X147673140Y-81426000D01*
X147645072Y-81423236D01*
X147623991Y-81416840D01*
X147604555Y-81406452D01*
X147587524Y-81392476D01*
X147573548Y-81375445D01*
X147563160Y-81356009D01*
X147556764Y-81334928D01*
X147554000Y-81306860D01*
X147554000Y-79393140D01*
X147556764Y-79365072D01*
X147563160Y-79343991D01*
X147573548Y-79324555D01*
X147587524Y-79307524D01*
X147604555Y-79293548D01*
X147623991Y-79283160D01*
X147645072Y-79276764D01*
X147673140Y-79274000D01*
X148136860Y-79274000D01*
X148164928Y-79276764D01*
G37*
G36*
X146894928Y-79276764D02*
G01*
X146916009Y-79283160D01*
X146935445Y-79293548D01*
X146952476Y-79307524D01*
X146966452Y-79324555D01*
X146976840Y-79343991D01*
X146983236Y-79365072D01*
X146986000Y-79393140D01*
X146986000Y-81306860D01*
X146983236Y-81334928D01*
X146976840Y-81356009D01*
X146966452Y-81375445D01*
X146952476Y-81392476D01*
X146935445Y-81406452D01*
X146916009Y-81416840D01*
X146894928Y-81423236D01*
X146866860Y-81426000D01*
X146403140Y-81426000D01*
X146375072Y-81423236D01*
X146353991Y-81416840D01*
X146334555Y-81406452D01*
X146317524Y-81392476D01*
X146303548Y-81375445D01*
X146293160Y-81356009D01*
X146286764Y-81334928D01*
X146284000Y-81306860D01*
X146284000Y-79393140D01*
X146286764Y-79365072D01*
X146293160Y-79343991D01*
X146303548Y-79324555D01*
X146317524Y-79307524D01*
X146334555Y-79293548D01*
X146353991Y-79283160D01*
X146375072Y-79276764D01*
X146403140Y-79274000D01*
X146866860Y-79274000D01*
X146894928Y-79276764D01*
G37*
G36*
X145624928Y-79276764D02*
G01*
X145646009Y-79283160D01*
X145665445Y-79293548D01*
X145682476Y-79307524D01*
X145696452Y-79324555D01*
X145706840Y-79343991D01*
X145713236Y-79365072D01*
X145716000Y-79393140D01*
X145716000Y-81306860D01*
X145713236Y-81334928D01*
X145706840Y-81356009D01*
X145696452Y-81375445D01*
X145682476Y-81392476D01*
X145665445Y-81406452D01*
X145646009Y-81416840D01*
X145624928Y-81423236D01*
X145596860Y-81426000D01*
X145133140Y-81426000D01*
X145105072Y-81423236D01*
X145083991Y-81416840D01*
X145064555Y-81406452D01*
X145047524Y-81392476D01*
X145033548Y-81375445D01*
X145023160Y-81356009D01*
X145016764Y-81334928D01*
X145014000Y-81306860D01*
X145014000Y-79393140D01*
X145016764Y-79365072D01*
X145023160Y-79343991D01*
X145033548Y-79324555D01*
X145047524Y-79307524D01*
X145064555Y-79293548D01*
X145083991Y-79283160D01*
X145105072Y-79276764D01*
X145133140Y-79274000D01*
X145596860Y-79274000D01*
X145624928Y-79276764D01*
G37*
G36*
X144354928Y-79276764D02*
G01*
X144376009Y-79283160D01*
X144395445Y-79293548D01*
X144412476Y-79307524D01*
X144426452Y-79324555D01*
X144436840Y-79343991D01*
X144443236Y-79365072D01*
X144446000Y-79393140D01*
X144446000Y-81306860D01*
X144443236Y-81334928D01*
X144436840Y-81356009D01*
X144426452Y-81375445D01*
X144412476Y-81392476D01*
X144395445Y-81406452D01*
X144376009Y-81416840D01*
X144354928Y-81423236D01*
X144326860Y-81426000D01*
X143863140Y-81426000D01*
X143835072Y-81423236D01*
X143813991Y-81416840D01*
X143794555Y-81406452D01*
X143777524Y-81392476D01*
X143763548Y-81375445D01*
X143753160Y-81356009D01*
X143746764Y-81334928D01*
X143744000Y-81306860D01*
X143744000Y-79393140D01*
X143746764Y-79365072D01*
X143753160Y-79343991D01*
X143763548Y-79324555D01*
X143777524Y-79307524D01*
X143794555Y-79293548D01*
X143813991Y-79283160D01*
X143835072Y-79276764D01*
X143863140Y-79274000D01*
X144326860Y-79274000D01*
X144354928Y-79276764D01*
G37*
G36*
X143084928Y-79276764D02*
G01*
X143106009Y-79283160D01*
X143125445Y-79293548D01*
X143142476Y-79307524D01*
X143156452Y-79324555D01*
X143166840Y-79343991D01*
X143173236Y-79365072D01*
X143176000Y-79393140D01*
X143176000Y-81306860D01*
X143173236Y-81334928D01*
X143166840Y-81356009D01*
X143156452Y-81375445D01*
X143142476Y-81392476D01*
X143125445Y-81406452D01*
X143106009Y-81416840D01*
X143084928Y-81423236D01*
X143056860Y-81426000D01*
X142593140Y-81426000D01*
X142565072Y-81423236D01*
X142543991Y-81416840D01*
X142524555Y-81406452D01*
X142507524Y-81392476D01*
X142493548Y-81375445D01*
X142483160Y-81356009D01*
X142476764Y-81334928D01*
X142474000Y-81306860D01*
X142474000Y-79393140D01*
X142476764Y-79365072D01*
X142483160Y-79343991D01*
X142493548Y-79324555D01*
X142507524Y-79307524D01*
X142524555Y-79293548D01*
X142543991Y-79283160D01*
X142565072Y-79276764D01*
X142593140Y-79274000D01*
X143056860Y-79274000D01*
X143084928Y-79276764D01*
G37*
G36*
X141814928Y-79276764D02*
G01*
X141836009Y-79283160D01*
X141855445Y-79293548D01*
X141872476Y-79307524D01*
X141886452Y-79324555D01*
X141896840Y-79343991D01*
X141903236Y-79365072D01*
X141906000Y-79393140D01*
X141906000Y-81306860D01*
X141903236Y-81334928D01*
X141896840Y-81356009D01*
X141886452Y-81375445D01*
X141872476Y-81392476D01*
X141855445Y-81406452D01*
X141836009Y-81416840D01*
X141814928Y-81423236D01*
X141786860Y-81426000D01*
X141323140Y-81426000D01*
X141295072Y-81423236D01*
X141273991Y-81416840D01*
X141254555Y-81406452D01*
X141237524Y-81392476D01*
X141223548Y-81375445D01*
X141213160Y-81356009D01*
X141206764Y-81334928D01*
X141204000Y-81306860D01*
X141204000Y-79393140D01*
X141206764Y-79365072D01*
X141213160Y-79343991D01*
X141223548Y-79324555D01*
X141237524Y-79307524D01*
X141254555Y-79293548D01*
X141273991Y-79283160D01*
X141295072Y-79276764D01*
X141323140Y-79274000D01*
X141786860Y-79274000D01*
X141814928Y-79276764D01*
G37*
G36*
X131434928Y-79276764D02*
G01*
X131456009Y-79283160D01*
X131475445Y-79293548D01*
X131492476Y-79307524D01*
X131506452Y-79324555D01*
X131516840Y-79343991D01*
X131523236Y-79365072D01*
X131526000Y-79393140D01*
X131526000Y-81306860D01*
X131523236Y-81334928D01*
X131516840Y-81356009D01*
X131506452Y-81375445D01*
X131492476Y-81392476D01*
X131475445Y-81406452D01*
X131456009Y-81416840D01*
X131434928Y-81423236D01*
X131406860Y-81426000D01*
X130943140Y-81426000D01*
X130915072Y-81423236D01*
X130893991Y-81416840D01*
X130874555Y-81406452D01*
X130857524Y-81392476D01*
X130843548Y-81375445D01*
X130833160Y-81356009D01*
X130826764Y-81334928D01*
X130824000Y-81306860D01*
X130824000Y-79393140D01*
X130826764Y-79365072D01*
X130833160Y-79343991D01*
X130843548Y-79324555D01*
X130857524Y-79307524D01*
X130874555Y-79293548D01*
X130893991Y-79283160D01*
X130915072Y-79276764D01*
X130943140Y-79274000D01*
X131406860Y-79274000D01*
X131434928Y-79276764D01*
G37*
G36*
X130164928Y-79276764D02*
G01*
X130186009Y-79283160D01*
X130205445Y-79293548D01*
X130222476Y-79307524D01*
X130236452Y-79324555D01*
X130246840Y-79343991D01*
X130253236Y-79365072D01*
X130256000Y-79393140D01*
X130256000Y-81306860D01*
X130253236Y-81334928D01*
X130246840Y-81356009D01*
X130236452Y-81375445D01*
X130222476Y-81392476D01*
X130205445Y-81406452D01*
X130186009Y-81416840D01*
X130164928Y-81423236D01*
X130136860Y-81426000D01*
X129673140Y-81426000D01*
X129645072Y-81423236D01*
X129623991Y-81416840D01*
X129604555Y-81406452D01*
X129587524Y-81392476D01*
X129573548Y-81375445D01*
X129563160Y-81356009D01*
X129556764Y-81334928D01*
X129554000Y-81306860D01*
X129554000Y-79393140D01*
X129556764Y-79365072D01*
X129563160Y-79343991D01*
X129573548Y-79324555D01*
X129587524Y-79307524D01*
X129604555Y-79293548D01*
X129623991Y-79283160D01*
X129645072Y-79276764D01*
X129673140Y-79274000D01*
X130136860Y-79274000D01*
X130164928Y-79276764D01*
G37*
G36*
X128894928Y-79276764D02*
G01*
X128916009Y-79283160D01*
X128935445Y-79293548D01*
X128952476Y-79307524D01*
X128966452Y-79324555D01*
X128976840Y-79343991D01*
X128983236Y-79365072D01*
X128986000Y-79393140D01*
X128986000Y-81306860D01*
X128983236Y-81334928D01*
X128976840Y-81356009D01*
X128966452Y-81375445D01*
X128952476Y-81392476D01*
X128935445Y-81406452D01*
X128916009Y-81416840D01*
X128894928Y-81423236D01*
X128866860Y-81426000D01*
X128403140Y-81426000D01*
X128375072Y-81423236D01*
X128353991Y-81416840D01*
X128334555Y-81406452D01*
X128317524Y-81392476D01*
X128303548Y-81375445D01*
X128293160Y-81356009D01*
X128286764Y-81334928D01*
X128284000Y-81306860D01*
X128284000Y-79393140D01*
X128286764Y-79365072D01*
X128293160Y-79343991D01*
X128303548Y-79324555D01*
X128317524Y-79307524D01*
X128334555Y-79293548D01*
X128353991Y-79283160D01*
X128375072Y-79276764D01*
X128403140Y-79274000D01*
X128866860Y-79274000D01*
X128894928Y-79276764D01*
G37*
G36*
X163624928Y-79276764D02*
G01*
X163646009Y-79283160D01*
X163665445Y-79293548D01*
X163682476Y-79307524D01*
X163696452Y-79324555D01*
X163706840Y-79343991D01*
X163713236Y-79365072D01*
X163716000Y-79393140D01*
X163716000Y-81306860D01*
X163713236Y-81334928D01*
X163706840Y-81356009D01*
X163696452Y-81375445D01*
X163682476Y-81392476D01*
X163665445Y-81406452D01*
X163646009Y-81416840D01*
X163624928Y-81423236D01*
X163596860Y-81426000D01*
X163133140Y-81426000D01*
X163105072Y-81423236D01*
X163083991Y-81416840D01*
X163064555Y-81406452D01*
X163047524Y-81392476D01*
X163033548Y-81375445D01*
X163023160Y-81356009D01*
X163016764Y-81334928D01*
X163014000Y-81306860D01*
X163014000Y-79393140D01*
X163016764Y-79365072D01*
X163023160Y-79343991D01*
X163033548Y-79324555D01*
X163047524Y-79307524D01*
X163064555Y-79293548D01*
X163083991Y-79283160D01*
X163105072Y-79276764D01*
X163133140Y-79274000D01*
X163596860Y-79274000D01*
X163624928Y-79276764D01*
G37*
G36*
X159814928Y-79276764D02*
G01*
X159836009Y-79283160D01*
X159855445Y-79293548D01*
X159872476Y-79307524D01*
X159886452Y-79324555D01*
X159896840Y-79343991D01*
X159903236Y-79365072D01*
X159906000Y-79393140D01*
X159906000Y-81306860D01*
X159903236Y-81334928D01*
X159896840Y-81356009D01*
X159886452Y-81375445D01*
X159872476Y-81392476D01*
X159855445Y-81406452D01*
X159836009Y-81416840D01*
X159814928Y-81423236D01*
X159786860Y-81426000D01*
X159323140Y-81426000D01*
X159295072Y-81423236D01*
X159273991Y-81416840D01*
X159254555Y-81406452D01*
X159237524Y-81392476D01*
X159223548Y-81375445D01*
X159213160Y-81356009D01*
X159206764Y-81334928D01*
X159204000Y-81306860D01*
X159204000Y-79393140D01*
X159206764Y-79365072D01*
X159213160Y-79343991D01*
X159223548Y-79324555D01*
X159237524Y-79307524D01*
X159254555Y-79293548D01*
X159273991Y-79283160D01*
X159295072Y-79276764D01*
X159323140Y-79274000D01*
X159786860Y-79274000D01*
X159814928Y-79276764D01*
G37*
G36*
X126354928Y-79276764D02*
G01*
X126376009Y-79283160D01*
X126395445Y-79293548D01*
X126412476Y-79307524D01*
X126426452Y-79324555D01*
X126436840Y-79343991D01*
X126443236Y-79365072D01*
X126446000Y-79393140D01*
X126446000Y-81306860D01*
X126443236Y-81334928D01*
X126436840Y-81356009D01*
X126426452Y-81375445D01*
X126412476Y-81392476D01*
X126395445Y-81406452D01*
X126376009Y-81416840D01*
X126354928Y-81423236D01*
X126326860Y-81426000D01*
X125863140Y-81426000D01*
X125835072Y-81423236D01*
X125813991Y-81416840D01*
X125794555Y-81406452D01*
X125777524Y-81392476D01*
X125763548Y-81375445D01*
X125753160Y-81356009D01*
X125746764Y-81334928D01*
X125744000Y-81306860D01*
X125744000Y-79393140D01*
X125746764Y-79365072D01*
X125753160Y-79343991D01*
X125763548Y-79324555D01*
X125777524Y-79307524D01*
X125794555Y-79293548D01*
X125813991Y-79283160D01*
X125835072Y-79276764D01*
X125863140Y-79274000D01*
X126326860Y-79274000D01*
X126354928Y-79276764D01*
G37*
G36*
X164894928Y-79276764D02*
G01*
X164916009Y-79283160D01*
X164935445Y-79293548D01*
X164952476Y-79307524D01*
X164966452Y-79324555D01*
X164976840Y-79343991D01*
X164983236Y-79365072D01*
X164986000Y-79393140D01*
X164986000Y-81306860D01*
X164983236Y-81334928D01*
X164976840Y-81356009D01*
X164966452Y-81375445D01*
X164952476Y-81392476D01*
X164935445Y-81406452D01*
X164916009Y-81416840D01*
X164894928Y-81423236D01*
X164866860Y-81426000D01*
X164403140Y-81426000D01*
X164375072Y-81423236D01*
X164353991Y-81416840D01*
X164334555Y-81406452D01*
X164317524Y-81392476D01*
X164303548Y-81375445D01*
X164293160Y-81356009D01*
X164286764Y-81334928D01*
X164284000Y-81306860D01*
X164284000Y-79393140D01*
X164286764Y-79365072D01*
X164293160Y-79343991D01*
X164303548Y-79324555D01*
X164317524Y-79307524D01*
X164334555Y-79293548D01*
X164353991Y-79283160D01*
X164375072Y-79276764D01*
X164403140Y-79274000D01*
X164866860Y-79274000D01*
X164894928Y-79276764D01*
G37*
G36*
X105814928Y-79276764D02*
G01*
X105836009Y-79283160D01*
X105855445Y-79293548D01*
X105872476Y-79307524D01*
X105886452Y-79324555D01*
X105896840Y-79343991D01*
X105903236Y-79365072D01*
X105906000Y-79393140D01*
X105906000Y-81306860D01*
X105903236Y-81334928D01*
X105896840Y-81356009D01*
X105886452Y-81375445D01*
X105872476Y-81392476D01*
X105855445Y-81406452D01*
X105836009Y-81416840D01*
X105814928Y-81423236D01*
X105786860Y-81426000D01*
X105323140Y-81426000D01*
X105295072Y-81423236D01*
X105273991Y-81416840D01*
X105254555Y-81406452D01*
X105237524Y-81392476D01*
X105223548Y-81375445D01*
X105213160Y-81356009D01*
X105206764Y-81334928D01*
X105204000Y-81306860D01*
X105204000Y-79393140D01*
X105206764Y-79365072D01*
X105213160Y-79343991D01*
X105223548Y-79324555D01*
X105237524Y-79307524D01*
X105254555Y-79293548D01*
X105273991Y-79283160D01*
X105295072Y-79276764D01*
X105323140Y-79274000D01*
X105786860Y-79274000D01*
X105814928Y-79276764D01*
G37*
G36*
X125084928Y-79276764D02*
G01*
X125106009Y-79283160D01*
X125125445Y-79293548D01*
X125142476Y-79307524D01*
X125156452Y-79324555D01*
X125166840Y-79343991D01*
X125173236Y-79365072D01*
X125176000Y-79393140D01*
X125176000Y-81306860D01*
X125173236Y-81334928D01*
X125166840Y-81356009D01*
X125156452Y-81375445D01*
X125142476Y-81392476D01*
X125125445Y-81406452D01*
X125106009Y-81416840D01*
X125084928Y-81423236D01*
X125056860Y-81426000D01*
X124593140Y-81426000D01*
X124565072Y-81423236D01*
X124543991Y-81416840D01*
X124524555Y-81406452D01*
X124507524Y-81392476D01*
X124493548Y-81375445D01*
X124483160Y-81356009D01*
X124476764Y-81334928D01*
X124474000Y-81306860D01*
X124474000Y-79393140D01*
X124476764Y-79365072D01*
X124483160Y-79343991D01*
X124493548Y-79324555D01*
X124507524Y-79307524D01*
X124524555Y-79293548D01*
X124543991Y-79283160D01*
X124565072Y-79276764D01*
X124593140Y-79274000D01*
X125056860Y-79274000D01*
X125084928Y-79276764D01*
G37*
G36*
X123814928Y-79276764D02*
G01*
X123836009Y-79283160D01*
X123855445Y-79293548D01*
X123872476Y-79307524D01*
X123886452Y-79324555D01*
X123896840Y-79343991D01*
X123903236Y-79365072D01*
X123906000Y-79393140D01*
X123906000Y-81306860D01*
X123903236Y-81334928D01*
X123896840Y-81356009D01*
X123886452Y-81375445D01*
X123872476Y-81392476D01*
X123855445Y-81406452D01*
X123836009Y-81416840D01*
X123814928Y-81423236D01*
X123786860Y-81426000D01*
X123323140Y-81426000D01*
X123295072Y-81423236D01*
X123273991Y-81416840D01*
X123254555Y-81406452D01*
X123237524Y-81392476D01*
X123223548Y-81375445D01*
X123213160Y-81356009D01*
X123206764Y-81334928D01*
X123204000Y-81306860D01*
X123204000Y-79393140D01*
X123206764Y-79365072D01*
X123213160Y-79343991D01*
X123223548Y-79324555D01*
X123237524Y-79307524D01*
X123254555Y-79293548D01*
X123273991Y-79283160D01*
X123295072Y-79276764D01*
X123323140Y-79274000D01*
X123786860Y-79274000D01*
X123814928Y-79276764D01*
G37*
G36*
X114704928Y-79276764D02*
G01*
X114726009Y-79283160D01*
X114745445Y-79293548D01*
X114762476Y-79307524D01*
X114776452Y-79324555D01*
X114786840Y-79343991D01*
X114793236Y-79365072D01*
X114796000Y-79393140D01*
X114796000Y-81306860D01*
X114793236Y-81334928D01*
X114786840Y-81356009D01*
X114776452Y-81375445D01*
X114762476Y-81392476D01*
X114745445Y-81406452D01*
X114726009Y-81416840D01*
X114704928Y-81423236D01*
X114676860Y-81426000D01*
X114213140Y-81426000D01*
X114185072Y-81423236D01*
X114163991Y-81416840D01*
X114144555Y-81406452D01*
X114127524Y-81392476D01*
X114113548Y-81375445D01*
X114103160Y-81356009D01*
X114096764Y-81334928D01*
X114094000Y-81306860D01*
X114094000Y-79393140D01*
X114096764Y-79365072D01*
X114103160Y-79343991D01*
X114113548Y-79324555D01*
X114127524Y-79307524D01*
X114144555Y-79293548D01*
X114163991Y-79283160D01*
X114185072Y-79276764D01*
X114213140Y-79274000D01*
X114676860Y-79274000D01*
X114704928Y-79276764D01*
G37*
G36*
X112164928Y-79276764D02*
G01*
X112186009Y-79283160D01*
X112205445Y-79293548D01*
X112222476Y-79307524D01*
X112236452Y-79324555D01*
X112246840Y-79343991D01*
X112253236Y-79365072D01*
X112256000Y-79393140D01*
X112256000Y-81306860D01*
X112253236Y-81334928D01*
X112246840Y-81356009D01*
X112236452Y-81375445D01*
X112222476Y-81392476D01*
X112205445Y-81406452D01*
X112186009Y-81416840D01*
X112164928Y-81423236D01*
X112136860Y-81426000D01*
X111673140Y-81426000D01*
X111645072Y-81423236D01*
X111623991Y-81416840D01*
X111604555Y-81406452D01*
X111587524Y-81392476D01*
X111573548Y-81375445D01*
X111563160Y-81356009D01*
X111556764Y-81334928D01*
X111554000Y-81306860D01*
X111554000Y-79393140D01*
X111556764Y-79365072D01*
X111563160Y-79343991D01*
X111573548Y-79324555D01*
X111587524Y-79307524D01*
X111604555Y-79293548D01*
X111623991Y-79283160D01*
X111645072Y-79276764D01*
X111673140Y-79274000D01*
X112136860Y-79274000D01*
X112164928Y-79276764D01*
G37*
G36*
X150704928Y-79276764D02*
G01*
X150726009Y-79283160D01*
X150745445Y-79293548D01*
X150762476Y-79307524D01*
X150776452Y-79324555D01*
X150786840Y-79343991D01*
X150793236Y-79365072D01*
X150796000Y-79393140D01*
X150796000Y-81306860D01*
X150793236Y-81334928D01*
X150786840Y-81356009D01*
X150776452Y-81375445D01*
X150762476Y-81392476D01*
X150745445Y-81406452D01*
X150726009Y-81416840D01*
X150704928Y-81423236D01*
X150676860Y-81426000D01*
X150213140Y-81426000D01*
X150185072Y-81423236D01*
X150163991Y-81416840D01*
X150144555Y-81406452D01*
X150127524Y-81392476D01*
X150113548Y-81375445D01*
X150103160Y-81356009D01*
X150096764Y-81334928D01*
X150094000Y-81306860D01*
X150094000Y-79393140D01*
X150096764Y-79365072D01*
X150103160Y-79343991D01*
X150113548Y-79324555D01*
X150127524Y-79307524D01*
X150144555Y-79293548D01*
X150163991Y-79283160D01*
X150185072Y-79276764D01*
X150213140Y-79274000D01*
X150676860Y-79274000D01*
X150704928Y-79276764D01*
G37*
G36*
X132704928Y-79276764D02*
G01*
X132726009Y-79283160D01*
X132745445Y-79293548D01*
X132762476Y-79307524D01*
X132776452Y-79324555D01*
X132786840Y-79343991D01*
X132793236Y-79365072D01*
X132796000Y-79393140D01*
X132796000Y-81306860D01*
X132793236Y-81334928D01*
X132786840Y-81356009D01*
X132776452Y-81375445D01*
X132762476Y-81392476D01*
X132745445Y-81406452D01*
X132726009Y-81416840D01*
X132704928Y-81423236D01*
X132676860Y-81426000D01*
X132213140Y-81426000D01*
X132185072Y-81423236D01*
X132163991Y-81416840D01*
X132144555Y-81406452D01*
X132127524Y-81392476D01*
X132113548Y-81375445D01*
X132103160Y-81356009D01*
X132096764Y-81334928D01*
X132094000Y-81306860D01*
X132094000Y-79393140D01*
X132096764Y-79365072D01*
X132103160Y-79343991D01*
X132113548Y-79324555D01*
X132127524Y-79307524D01*
X132144555Y-79293548D01*
X132163991Y-79283160D01*
X132185072Y-79276764D01*
X132213140Y-79274000D01*
X132676860Y-79274000D01*
X132704928Y-79276764D01*
G37*
G36*
X107084928Y-79276764D02*
G01*
X107106009Y-79283160D01*
X107125445Y-79293548D01*
X107142476Y-79307524D01*
X107156452Y-79324555D01*
X107166840Y-79343991D01*
X107173236Y-79365072D01*
X107176000Y-79393140D01*
X107176000Y-81306860D01*
X107173236Y-81334928D01*
X107166840Y-81356009D01*
X107156452Y-81375445D01*
X107142476Y-81392476D01*
X107125445Y-81406452D01*
X107106009Y-81416840D01*
X107084928Y-81423236D01*
X107056860Y-81426000D01*
X106593140Y-81426000D01*
X106565072Y-81423236D01*
X106543991Y-81416840D01*
X106524555Y-81406452D01*
X106507524Y-81392476D01*
X106493548Y-81375445D01*
X106483160Y-81356009D01*
X106476764Y-81334928D01*
X106474000Y-81306860D01*
X106474000Y-79393140D01*
X106476764Y-79365072D01*
X106483160Y-79343991D01*
X106493548Y-79324555D01*
X106507524Y-79307524D01*
X106524555Y-79293548D01*
X106543991Y-79283160D01*
X106565072Y-79276764D01*
X106593140Y-79274000D01*
X107056860Y-79274000D01*
X107084928Y-79276764D01*
G37*
G36*
X109624928Y-79276764D02*
G01*
X109646009Y-79283160D01*
X109665445Y-79293548D01*
X109682476Y-79307524D01*
X109696452Y-79324555D01*
X109706840Y-79343991D01*
X109713236Y-79365072D01*
X109716000Y-79393140D01*
X109716000Y-81306860D01*
X109713236Y-81334928D01*
X109706840Y-81356009D01*
X109696452Y-81375445D01*
X109682476Y-81392476D01*
X109665445Y-81406452D01*
X109646009Y-81416840D01*
X109624928Y-81423236D01*
X109596860Y-81426000D01*
X109133140Y-81426000D01*
X109105072Y-81423236D01*
X109083991Y-81416840D01*
X109064555Y-81406452D01*
X109047524Y-81392476D01*
X109033548Y-81375445D01*
X109023160Y-81356009D01*
X109016764Y-81334928D01*
X109014000Y-81306860D01*
X109014000Y-79393140D01*
X109016764Y-79365072D01*
X109023160Y-79343991D01*
X109033548Y-79324555D01*
X109047524Y-79307524D01*
X109064555Y-79293548D01*
X109083991Y-79283160D01*
X109105072Y-79276764D01*
X109133140Y-79274000D01*
X109596860Y-79274000D01*
X109624928Y-79276764D01*
G37*
G36*
X113434928Y-79276764D02*
G01*
X113456009Y-79283160D01*
X113475445Y-79293548D01*
X113492476Y-79307524D01*
X113506452Y-79324555D01*
X113516840Y-79343991D01*
X113523236Y-79365072D01*
X113526000Y-79393140D01*
X113526000Y-81306860D01*
X113523236Y-81334928D01*
X113516840Y-81356009D01*
X113506452Y-81375445D01*
X113492476Y-81392476D01*
X113475445Y-81406452D01*
X113456009Y-81416840D01*
X113434928Y-81423236D01*
X113406860Y-81426000D01*
X112943140Y-81426000D01*
X112915072Y-81423236D01*
X112893991Y-81416840D01*
X112874555Y-81406452D01*
X112857524Y-81392476D01*
X112843548Y-81375445D01*
X112833160Y-81356009D01*
X112826764Y-81334928D01*
X112824000Y-81306860D01*
X112824000Y-79393140D01*
X112826764Y-79365072D01*
X112833160Y-79343991D01*
X112843548Y-79324555D01*
X112857524Y-79307524D01*
X112874555Y-79293548D01*
X112893991Y-79283160D01*
X112915072Y-79276764D01*
X112943140Y-79274000D01*
X113406860Y-79274000D01*
X113434928Y-79276764D01*
G37*
G36*
X110894928Y-79276764D02*
G01*
X110916009Y-79283160D01*
X110935445Y-79293548D01*
X110952476Y-79307524D01*
X110966452Y-79324555D01*
X110976840Y-79343991D01*
X110983236Y-79365072D01*
X110986000Y-79393140D01*
X110986000Y-81306860D01*
X110983236Y-81334928D01*
X110976840Y-81356009D01*
X110966452Y-81375445D01*
X110952476Y-81392476D01*
X110935445Y-81406452D01*
X110916009Y-81416840D01*
X110894928Y-81423236D01*
X110866860Y-81426000D01*
X110403140Y-81426000D01*
X110375072Y-81423236D01*
X110353991Y-81416840D01*
X110334555Y-81406452D01*
X110317524Y-81392476D01*
X110303548Y-81375445D01*
X110293160Y-81356009D01*
X110286764Y-81334928D01*
X110284000Y-81306860D01*
X110284000Y-79393140D01*
X110286764Y-79365072D01*
X110293160Y-79343991D01*
X110303548Y-79324555D01*
X110317524Y-79307524D01*
X110334555Y-79293548D01*
X110353991Y-79283160D01*
X110375072Y-79276764D01*
X110403140Y-79274000D01*
X110866860Y-79274000D01*
X110894928Y-79276764D01*
G37*
G36*
X108354928Y-79276764D02*
G01*
X108376009Y-79283160D01*
X108395445Y-79293548D01*
X108412476Y-79307524D01*
X108426452Y-79324555D01*
X108436840Y-79343991D01*
X108443236Y-79365072D01*
X108446000Y-79393140D01*
X108446000Y-81306860D01*
X108443236Y-81334928D01*
X108436840Y-81356009D01*
X108426452Y-81375445D01*
X108412476Y-81392476D01*
X108395445Y-81406452D01*
X108376009Y-81416840D01*
X108354928Y-81423236D01*
X108326860Y-81426000D01*
X107863140Y-81426000D01*
X107835072Y-81423236D01*
X107813991Y-81416840D01*
X107794555Y-81406452D01*
X107777524Y-81392476D01*
X107763548Y-81375445D01*
X107753160Y-81356009D01*
X107746764Y-81334928D01*
X107744000Y-81306860D01*
X107744000Y-79393140D01*
X107746764Y-79365072D01*
X107753160Y-79343991D01*
X107763548Y-79324555D01*
X107777524Y-79307524D01*
X107794555Y-79293548D01*
X107813991Y-79283160D01*
X107835072Y-79276764D01*
X107863140Y-79274000D01*
X108326860Y-79274000D01*
X108354928Y-79276764D01*
G37*
G36*
X181051000Y-80801000D02*
G01*
X179349000Y-80801000D01*
X179349000Y-79999000D01*
X181051000Y-79999000D01*
X181051000Y-80801000D01*
G37*
G36*
X181051000Y-79701000D02*
G01*
X179349000Y-79701000D01*
X179349000Y-78899000D01*
X181051000Y-78899000D01*
X181051000Y-79701000D01*
G37*
G36*
X181051000Y-78601000D02*
G01*
X179349000Y-78601000D01*
X179349000Y-77799000D01*
X181051000Y-77799000D01*
X181051000Y-78601000D01*
G37*
G36*
X181051000Y-77501000D02*
G01*
X179349000Y-77501000D01*
X179349000Y-76699000D01*
X181051000Y-76699000D01*
X181051000Y-77501000D01*
G37*
G36*
X165986159Y-75699457D02*
G01*
X165995768Y-75702372D01*
X166004632Y-75707110D01*
X166012397Y-75713483D01*
X166022608Y-75725926D01*
X166029538Y-75736295D01*
X166046865Y-75753622D01*
X166067240Y-75767235D01*
X166089880Y-75776611D01*
X166113913Y-75781391D01*
X166138417Y-75781390D01*
X166162450Y-75776608D01*
X166185089Y-75767230D01*
X166205462Y-75753615D01*
X166222789Y-75736288D01*
X166229718Y-75725918D01*
X166239923Y-75713483D01*
X166247688Y-75707110D01*
X166256552Y-75702372D01*
X166266161Y-75699457D01*
X166282300Y-75697868D01*
X166770021Y-75697868D01*
X166788359Y-75699674D01*
X166800610Y-75700276D01*
X166819029Y-75700276D01*
X166841309Y-75702470D01*
X166925393Y-75719196D01*
X166946820Y-75725696D01*
X167026018Y-75758500D01*
X167031463Y-75761411D01*
X167031469Y-75761413D01*
X167040329Y-75766149D01*
X167040333Y-75766152D01*
X167045774Y-75769060D01*
X167117059Y-75816691D01*
X167134364Y-75830892D01*
X167194988Y-75891516D01*
X167209189Y-75908821D01*
X167256820Y-75980106D01*
X167259728Y-75985547D01*
X167259731Y-75985551D01*
X167264467Y-75994411D01*
X167264469Y-75994417D01*
X167267380Y-75999862D01*
X167300184Y-76079060D01*
X167306684Y-76100487D01*
X167323410Y-76184571D01*
X167325604Y-76206851D01*
X167325604Y-76225270D01*
X167326206Y-76237521D01*
X167328012Y-76255859D01*
X167328012Y-76743582D01*
X167326206Y-76761919D01*
X167325604Y-76774170D01*
X167325604Y-76792589D01*
X167323410Y-76814869D01*
X167306684Y-76898953D01*
X167300184Y-76920380D01*
X167267380Y-76999578D01*
X167264469Y-77005023D01*
X167264467Y-77005029D01*
X167259731Y-77013889D01*
X167259728Y-77013893D01*
X167256820Y-77019334D01*
X167209189Y-77090619D01*
X167194988Y-77107924D01*
X167134364Y-77168548D01*
X167117059Y-77182749D01*
X167045774Y-77230380D01*
X167040333Y-77233288D01*
X167040329Y-77233291D01*
X167031469Y-77238027D01*
X167031463Y-77238029D01*
X167026018Y-77240940D01*
X166946820Y-77273744D01*
X166925393Y-77280244D01*
X166841309Y-77296970D01*
X166819029Y-77299164D01*
X166800610Y-77299164D01*
X166788359Y-77299766D01*
X166770022Y-77301572D01*
X166282300Y-77301572D01*
X166266161Y-77299983D01*
X166256552Y-77297068D01*
X166247688Y-77292330D01*
X166239923Y-77285957D01*
X166229712Y-77273514D01*
X166222782Y-77263145D01*
X166205455Y-77245818D01*
X166185080Y-77232205D01*
X166162440Y-77222829D01*
X166138407Y-77218049D01*
X166113903Y-77218050D01*
X166089870Y-77222832D01*
X166067231Y-77232210D01*
X166046858Y-77245825D01*
X166029531Y-77263152D01*
X166022602Y-77273522D01*
X166012397Y-77285957D01*
X166004632Y-77292330D01*
X165995768Y-77297068D01*
X165986159Y-77299983D01*
X165970020Y-77301572D01*
X165482298Y-77301572D01*
X165463961Y-77299766D01*
X165451710Y-77299164D01*
X165433291Y-77299164D01*
X165411011Y-77296970D01*
X165326927Y-77280244D01*
X165305500Y-77273744D01*
X165226302Y-77240940D01*
X165220857Y-77238029D01*
X165220851Y-77238027D01*
X165211991Y-77233291D01*
X165211987Y-77233288D01*
X165206546Y-77230380D01*
X165135261Y-77182749D01*
X165117956Y-77168548D01*
X165057332Y-77107924D01*
X165043131Y-77090619D01*
X164995500Y-77019334D01*
X164992592Y-77013893D01*
X164992589Y-77013889D01*
X164987853Y-77005029D01*
X164987851Y-77005023D01*
X164984940Y-76999578D01*
X164952136Y-76920380D01*
X164945636Y-76898953D01*
X164928910Y-76814869D01*
X164926716Y-76792589D01*
X164926716Y-76774170D01*
X164926114Y-76761919D01*
X164924308Y-76743582D01*
X164924308Y-76255859D01*
X164926114Y-76237521D01*
X164926716Y-76225270D01*
X164926716Y-76206851D01*
X164928910Y-76184571D01*
X164945636Y-76100487D01*
X164952136Y-76079060D01*
X164984940Y-75999862D01*
X164987851Y-75994417D01*
X164987853Y-75994411D01*
X164992589Y-75985551D01*
X164992592Y-75985547D01*
X164995500Y-75980106D01*
X165043131Y-75908821D01*
X165057332Y-75891516D01*
X165117956Y-75830892D01*
X165135261Y-75816691D01*
X165206546Y-75769060D01*
X165211987Y-75766152D01*
X165211991Y-75766149D01*
X165220851Y-75761413D01*
X165220857Y-75761411D01*
X165226302Y-75758500D01*
X165305500Y-75725696D01*
X165326927Y-75719196D01*
X165411011Y-75702470D01*
X165433291Y-75700276D01*
X165451710Y-75700276D01*
X165463961Y-75699674D01*
X165482299Y-75697868D01*
X165970020Y-75697868D01*
X165986159Y-75699457D01*
G37*
G36*
X181051000Y-76401000D02*
G01*
X179349000Y-76401000D01*
X179349000Y-75599000D01*
X181051000Y-75599000D01*
X181051000Y-76401000D01*
G37*
G36*
X107821589Y-71374876D02*
G01*
X107920893Y-71394629D01*
X108061206Y-71452748D01*
X108187484Y-71537125D01*
X108294875Y-71644516D01*
X108379252Y-71770794D01*
X108437371Y-71911107D01*
X108467000Y-72060063D01*
X108467000Y-72211937D01*
X108437371Y-72360893D01*
X108379252Y-72501206D01*
X108294875Y-72627484D01*
X108187484Y-72734875D01*
X108061206Y-72819252D01*
X107920893Y-72877371D01*
X107821589Y-72897124D01*
X107771938Y-72907000D01*
X107620062Y-72907000D01*
X107570411Y-72897124D01*
X107471107Y-72877371D01*
X107330794Y-72819252D01*
X107204516Y-72734875D01*
X107097125Y-72627484D01*
X107012748Y-72501206D01*
X106954629Y-72360893D01*
X106925000Y-72211937D01*
X106925000Y-72060063D01*
X106954629Y-71911107D01*
X107012748Y-71770794D01*
X107097125Y-71644516D01*
X107204516Y-71537125D01*
X107330794Y-71452748D01*
X107471107Y-71394629D01*
X107570411Y-71374876D01*
X107620062Y-71365000D01*
X107771938Y-71365000D01*
X107821589Y-71374876D01*
G37*
G36*
X163414983Y-70928434D02*
G01*
X163452372Y-70939776D01*
X163486826Y-70958191D01*
X163517025Y-70982975D01*
X163541809Y-71013174D01*
X163560224Y-71047628D01*
X163571566Y-71085017D01*
X163576000Y-71130035D01*
X163576000Y-72269965D01*
X163571566Y-72314983D01*
X163560224Y-72352372D01*
X163541809Y-72386826D01*
X163517025Y-72417025D01*
X163486826Y-72441809D01*
X163452372Y-72460224D01*
X163414983Y-72471566D01*
X163369965Y-72476000D01*
X162505035Y-72476000D01*
X162460017Y-72471566D01*
X162422628Y-72460224D01*
X162388174Y-72441809D01*
X162357975Y-72417025D01*
X162333191Y-72386826D01*
X162314776Y-72352372D01*
X162303434Y-72314983D01*
X162299000Y-72269965D01*
X162299000Y-71130035D01*
X162303434Y-71085017D01*
X162314776Y-71047628D01*
X162333191Y-71013174D01*
X162357975Y-70982975D01*
X162388174Y-70958191D01*
X162422628Y-70939776D01*
X162460017Y-70928434D01*
X162505035Y-70924000D01*
X163369965Y-70924000D01*
X163414983Y-70928434D01*
G37*
G36*
X161339983Y-70928434D02*
G01*
X161377372Y-70939776D01*
X161411826Y-70958191D01*
X161442025Y-70982975D01*
X161466809Y-71013174D01*
X161485224Y-71047628D01*
X161496566Y-71085017D01*
X161501000Y-71130035D01*
X161501000Y-72269965D01*
X161496566Y-72314983D01*
X161485224Y-72352372D01*
X161466809Y-72386826D01*
X161442025Y-72417025D01*
X161411826Y-72441809D01*
X161377372Y-72460224D01*
X161339983Y-72471566D01*
X161294965Y-72476000D01*
X160430035Y-72476000D01*
X160385017Y-72471566D01*
X160347628Y-72460224D01*
X160313174Y-72441809D01*
X160282975Y-72417025D01*
X160258191Y-72386826D01*
X160239776Y-72352372D01*
X160228434Y-72314983D01*
X160224000Y-72269965D01*
X160224000Y-71130035D01*
X160228434Y-71085017D01*
X160239776Y-71047628D01*
X160258191Y-71013174D01*
X160282975Y-70982975D01*
X160313174Y-70958191D01*
X160347628Y-70939776D01*
X160385017Y-70928434D01*
X160430035Y-70924000D01*
X161294965Y-70924000D01*
X161339983Y-70928434D01*
G37*
G36*
X174939983Y-70828434D02*
G01*
X174977372Y-70839776D01*
X175011826Y-70858191D01*
X175042025Y-70882975D01*
X175066809Y-70913174D01*
X175085224Y-70947628D01*
X175096566Y-70985017D01*
X175101000Y-71030035D01*
X175101000Y-72169965D01*
X175096566Y-72214983D01*
X175085224Y-72252372D01*
X175066809Y-72286826D01*
X175042025Y-72317025D01*
X175011826Y-72341809D01*
X174977372Y-72360224D01*
X174939983Y-72371566D01*
X174894965Y-72376000D01*
X174030035Y-72376000D01*
X173985017Y-72371566D01*
X173947628Y-72360224D01*
X173913174Y-72341809D01*
X173882975Y-72317025D01*
X173858191Y-72286826D01*
X173839776Y-72252372D01*
X173828434Y-72214983D01*
X173824000Y-72169965D01*
X173824000Y-71030035D01*
X173828434Y-70985017D01*
X173839776Y-70947628D01*
X173858191Y-70913174D01*
X173882975Y-70882975D01*
X173913174Y-70858191D01*
X173947628Y-70839776D01*
X173985017Y-70828434D01*
X174030035Y-70824000D01*
X174894965Y-70824000D01*
X174939983Y-70828434D01*
G37*
G36*
X156839983Y-70828434D02*
G01*
X156877372Y-70839776D01*
X156911826Y-70858191D01*
X156942025Y-70882975D01*
X156966809Y-70913174D01*
X156985224Y-70947628D01*
X156996566Y-70985017D01*
X157001000Y-71030035D01*
X157001000Y-72169965D01*
X156996566Y-72214983D01*
X156985224Y-72252372D01*
X156966809Y-72286826D01*
X156942025Y-72317025D01*
X156911826Y-72341809D01*
X156877372Y-72360224D01*
X156839983Y-72371566D01*
X156794965Y-72376000D01*
X155930035Y-72376000D01*
X155885017Y-72371566D01*
X155847628Y-72360224D01*
X155813174Y-72341809D01*
X155782975Y-72317025D01*
X155758191Y-72286826D01*
X155739776Y-72252372D01*
X155728434Y-72214983D01*
X155724000Y-72169965D01*
X155724000Y-71030035D01*
X155728434Y-70985017D01*
X155739776Y-70947628D01*
X155758191Y-70913174D01*
X155782975Y-70882975D01*
X155813174Y-70858191D01*
X155847628Y-70839776D01*
X155885017Y-70828434D01*
X155930035Y-70824000D01*
X156794965Y-70824000D01*
X156839983Y-70828434D01*
G37*
G36*
X177014983Y-70828434D02*
G01*
X177052372Y-70839776D01*
X177086826Y-70858191D01*
X177117025Y-70882975D01*
X177141809Y-70913174D01*
X177160224Y-70947628D01*
X177171566Y-70985017D01*
X177176000Y-71030035D01*
X177176000Y-72169965D01*
X177171566Y-72214983D01*
X177160224Y-72252372D01*
X177141809Y-72286826D01*
X177117025Y-72317025D01*
X177086826Y-72341809D01*
X177052372Y-72360224D01*
X177014983Y-72371566D01*
X176969965Y-72376000D01*
X176105035Y-72376000D01*
X176060017Y-72371566D01*
X176022628Y-72360224D01*
X175988174Y-72341809D01*
X175957975Y-72317025D01*
X175933191Y-72286826D01*
X175914776Y-72252372D01*
X175903434Y-72214983D01*
X175899000Y-72169965D01*
X175899000Y-71030035D01*
X175903434Y-70985017D01*
X175914776Y-70947628D01*
X175933191Y-70913174D01*
X175957975Y-70882975D01*
X175988174Y-70858191D01*
X176022628Y-70839776D01*
X176060017Y-70828434D01*
X176105035Y-70824000D01*
X176969965Y-70824000D01*
X177014983Y-70828434D01*
G37*
G36*
X158914983Y-70828434D02*
G01*
X158952372Y-70839776D01*
X158986826Y-70858191D01*
X159017025Y-70882975D01*
X159041809Y-70913174D01*
X159060224Y-70947628D01*
X159071566Y-70985017D01*
X159076000Y-71030035D01*
X159076000Y-72169965D01*
X159071566Y-72214983D01*
X159060224Y-72252372D01*
X159041809Y-72286826D01*
X159017025Y-72317025D01*
X158986826Y-72341809D01*
X158952372Y-72360224D01*
X158914983Y-72371566D01*
X158869965Y-72376000D01*
X158005035Y-72376000D01*
X157960017Y-72371566D01*
X157922628Y-72360224D01*
X157888174Y-72341809D01*
X157857975Y-72317025D01*
X157833191Y-72286826D01*
X157814776Y-72252372D01*
X157803434Y-72214983D01*
X157799000Y-72169965D01*
X157799000Y-71030035D01*
X157803434Y-70985017D01*
X157814776Y-70947628D01*
X157833191Y-70913174D01*
X157857975Y-70882975D01*
X157888174Y-70858191D01*
X157922628Y-70839776D01*
X157960017Y-70828434D01*
X158005035Y-70824000D01*
X158869965Y-70824000D01*
X158914983Y-70828434D01*
G37*
G36*
X170739983Y-70728434D02*
G01*
X170777372Y-70739776D01*
X170811826Y-70758191D01*
X170842025Y-70782975D01*
X170866809Y-70813174D01*
X170885224Y-70847628D01*
X170896566Y-70885017D01*
X170901000Y-70930035D01*
X170901000Y-72069965D01*
X170896566Y-72114983D01*
X170885224Y-72152372D01*
X170866809Y-72186826D01*
X170842025Y-72217025D01*
X170811826Y-72241809D01*
X170777372Y-72260224D01*
X170739983Y-72271566D01*
X170694965Y-72276000D01*
X169830035Y-72276000D01*
X169785017Y-72271566D01*
X169747628Y-72260224D01*
X169713174Y-72241809D01*
X169682975Y-72217025D01*
X169658191Y-72186826D01*
X169639776Y-72152372D01*
X169628434Y-72114983D01*
X169624000Y-72069965D01*
X169624000Y-70930035D01*
X169628434Y-70885017D01*
X169639776Y-70847628D01*
X169658191Y-70813174D01*
X169682975Y-70782975D01*
X169713174Y-70758191D01*
X169747628Y-70739776D01*
X169785017Y-70728434D01*
X169830035Y-70724000D01*
X170694965Y-70724000D01*
X170739983Y-70728434D01*
G37*
G36*
X172814983Y-70728434D02*
G01*
X172852372Y-70739776D01*
X172886826Y-70758191D01*
X172917025Y-70782975D01*
X172941809Y-70813174D01*
X172960224Y-70847628D01*
X172971566Y-70885017D01*
X172976000Y-70930035D01*
X172976000Y-72069965D01*
X172971566Y-72114983D01*
X172960224Y-72152372D01*
X172941809Y-72186826D01*
X172917025Y-72217025D01*
X172886826Y-72241809D01*
X172852372Y-72260224D01*
X172814983Y-72271566D01*
X172769965Y-72276000D01*
X171905035Y-72276000D01*
X171860017Y-72271566D01*
X171822628Y-72260224D01*
X171788174Y-72241809D01*
X171757975Y-72217025D01*
X171733191Y-72186826D01*
X171714776Y-72152372D01*
X171703434Y-72114983D01*
X171699000Y-72069965D01*
X171699000Y-70930035D01*
X171703434Y-70885017D01*
X171714776Y-70847628D01*
X171733191Y-70813174D01*
X171757975Y-70782975D01*
X171788174Y-70758191D01*
X171822628Y-70739776D01*
X171860017Y-70728434D01*
X171905035Y-70724000D01*
X172769965Y-70724000D01*
X172814983Y-70728434D01*
G37*
G36*
X181451000Y-72201000D02*
G01*
X179949000Y-72201000D01*
X179949000Y-70499000D01*
X181451000Y-70499000D01*
X181451000Y-72201000D01*
G37*
G36*
X191451000Y-71101000D02*
G01*
X189149000Y-71101000D01*
X189149000Y-69799000D01*
X191451000Y-69799000D01*
X191451000Y-71101000D01*
G37*
G36*
X107821589Y-68834876D02*
G01*
X107920893Y-68854629D01*
X108061206Y-68912748D01*
X108187484Y-68997125D01*
X108294875Y-69104516D01*
X108379252Y-69230794D01*
X108437371Y-69371107D01*
X108467000Y-69520063D01*
X108467000Y-69671937D01*
X108437371Y-69820893D01*
X108379252Y-69961206D01*
X108294875Y-70087484D01*
X108187484Y-70194875D01*
X108061206Y-70279252D01*
X107920893Y-70337371D01*
X107821589Y-70357124D01*
X107771938Y-70367000D01*
X107620062Y-70367000D01*
X107570411Y-70357124D01*
X107471107Y-70337371D01*
X107330794Y-70279252D01*
X107204516Y-70194875D01*
X107097125Y-70087484D01*
X107012748Y-69961206D01*
X106954629Y-69820893D01*
X106925000Y-69671937D01*
X106925000Y-69520063D01*
X106954629Y-69371107D01*
X107012748Y-69230794D01*
X107097125Y-69104516D01*
X107204516Y-68997125D01*
X107330794Y-68912748D01*
X107471107Y-68854629D01*
X107570411Y-68834876D01*
X107620062Y-68825000D01*
X107771938Y-68825000D01*
X107821589Y-68834876D01*
G37*
G36*
X107821589Y-66294876D02*
G01*
X107920893Y-66314629D01*
X108061206Y-66372748D01*
X108187484Y-66457125D01*
X108294875Y-66564516D01*
X108379252Y-66690794D01*
X108437371Y-66831107D01*
X108467000Y-66980063D01*
X108467000Y-67131937D01*
X108437371Y-67280893D01*
X108379252Y-67421206D01*
X108294875Y-67547484D01*
X108187484Y-67654875D01*
X108061206Y-67739252D01*
X107920893Y-67797371D01*
X107821589Y-67817124D01*
X107771938Y-67827000D01*
X107620062Y-67827000D01*
X107570411Y-67817124D01*
X107471107Y-67797371D01*
X107330794Y-67739252D01*
X107204516Y-67654875D01*
X107097125Y-67547484D01*
X107012748Y-67421206D01*
X106954629Y-67280893D01*
X106925000Y-67131937D01*
X106925000Y-66980063D01*
X106954629Y-66831107D01*
X107012748Y-66690794D01*
X107097125Y-66564516D01*
X107204516Y-66457125D01*
X107330794Y-66372748D01*
X107471107Y-66314629D01*
X107570411Y-66294876D01*
X107620062Y-66285000D01*
X107771938Y-66285000D01*
X107821589Y-66294876D01*
G37*
G36*
X171533512Y-64143927D02*
G01*
X171682812Y-64173624D01*
X171846784Y-64241544D01*
X171994354Y-64340147D01*
X172119853Y-64465646D01*
X172218456Y-64613216D01*
X172286376Y-64777188D01*
X172321000Y-64951259D01*
X172321000Y-65128741D01*
X172286376Y-65302812D01*
X172218456Y-65466784D01*
X172119853Y-65614354D01*
X171994354Y-65739853D01*
X171846784Y-65838456D01*
X171682812Y-65906376D01*
X171533512Y-65936073D01*
X171508742Y-65941000D01*
X171331258Y-65941000D01*
X171306488Y-65936073D01*
X171157188Y-65906376D01*
X170993216Y-65838456D01*
X170845646Y-65739853D01*
X170720147Y-65614354D01*
X170621544Y-65466784D01*
X170553624Y-65302812D01*
X170519000Y-65128741D01*
X170519000Y-64951259D01*
X170553624Y-64777188D01*
X170621544Y-64613216D01*
X170720147Y-64465646D01*
X170845646Y-64340147D01*
X170993216Y-64241544D01*
X171157188Y-64173624D01*
X171306488Y-64143927D01*
X171331258Y-64139000D01*
X171508742Y-64139000D01*
X171533512Y-64143927D01*
G37*
G36*
X153753512Y-64143927D02*
G01*
X153902812Y-64173624D01*
X154066784Y-64241544D01*
X154214354Y-64340147D01*
X154339853Y-64465646D01*
X154438456Y-64613216D01*
X154506376Y-64777188D01*
X154541000Y-64951259D01*
X154541000Y-65128741D01*
X154506376Y-65302812D01*
X154438456Y-65466784D01*
X154339853Y-65614354D01*
X154214354Y-65739853D01*
X154066784Y-65838456D01*
X153902812Y-65906376D01*
X153753512Y-65936073D01*
X153728742Y-65941000D01*
X153551258Y-65941000D01*
X153526488Y-65936073D01*
X153377188Y-65906376D01*
X153213216Y-65838456D01*
X153065646Y-65739853D01*
X152940147Y-65614354D01*
X152841544Y-65466784D01*
X152773624Y-65302812D01*
X152739000Y-65128741D01*
X152739000Y-64951259D01*
X152773624Y-64777188D01*
X152841544Y-64613216D01*
X152940147Y-64465646D01*
X153065646Y-64340147D01*
X153213216Y-64241544D01*
X153377188Y-64173624D01*
X153526488Y-64143927D01*
X153551258Y-64139000D01*
X153728742Y-64139000D01*
X153753512Y-64143927D01*
G37*
G36*
X176613512Y-64143927D02*
G01*
X176762812Y-64173624D01*
X176926784Y-64241544D01*
X177074354Y-64340147D01*
X177199853Y-64465646D01*
X177298456Y-64613216D01*
X177366376Y-64777188D01*
X177401000Y-64951259D01*
X177401000Y-65128741D01*
X177366376Y-65302812D01*
X177298456Y-65466784D01*
X177199853Y-65614354D01*
X177074354Y-65739853D01*
X176926784Y-65838456D01*
X176762812Y-65906376D01*
X176613512Y-65936073D01*
X176588742Y-65941000D01*
X176411258Y-65941000D01*
X176386488Y-65936073D01*
X176237188Y-65906376D01*
X176073216Y-65838456D01*
X175925646Y-65739853D01*
X175800147Y-65614354D01*
X175701544Y-65466784D01*
X175633624Y-65302812D01*
X175599000Y-65128741D01*
X175599000Y-64951259D01*
X175633624Y-64777188D01*
X175701544Y-64613216D01*
X175800147Y-64465646D01*
X175925646Y-64340147D01*
X176073216Y-64241544D01*
X176237188Y-64173624D01*
X176386488Y-64143927D01*
X176411258Y-64139000D01*
X176588742Y-64139000D01*
X176613512Y-64143927D01*
G37*
G36*
X174073512Y-64143927D02*
G01*
X174222812Y-64173624D01*
X174386784Y-64241544D01*
X174534354Y-64340147D01*
X174659853Y-64465646D01*
X174758456Y-64613216D01*
X174826376Y-64777188D01*
X174861000Y-64951259D01*
X174861000Y-65128741D01*
X174826376Y-65302812D01*
X174758456Y-65466784D01*
X174659853Y-65614354D01*
X174534354Y-65739853D01*
X174386784Y-65838456D01*
X174222812Y-65906376D01*
X174073512Y-65936073D01*
X174048742Y-65941000D01*
X173871258Y-65941000D01*
X173846488Y-65936073D01*
X173697188Y-65906376D01*
X173533216Y-65838456D01*
X173385646Y-65739853D01*
X173260147Y-65614354D01*
X173161544Y-65466784D01*
X173093624Y-65302812D01*
X173059000Y-65128741D01*
X173059000Y-64951259D01*
X173093624Y-64777188D01*
X173161544Y-64613216D01*
X173260147Y-64465646D01*
X173385646Y-64340147D01*
X173533216Y-64241544D01*
X173697188Y-64173624D01*
X173846488Y-64143927D01*
X173871258Y-64139000D01*
X174048742Y-64139000D01*
X174073512Y-64143927D01*
G37*
G36*
X168993512Y-64143927D02*
G01*
X169142812Y-64173624D01*
X169306784Y-64241544D01*
X169454354Y-64340147D01*
X169579853Y-64465646D01*
X169678456Y-64613216D01*
X169746376Y-64777188D01*
X169781000Y-64951259D01*
X169781000Y-65128741D01*
X169746376Y-65302812D01*
X169678456Y-65466784D01*
X169579853Y-65614354D01*
X169454354Y-65739853D01*
X169306784Y-65838456D01*
X169142812Y-65906376D01*
X168993512Y-65936073D01*
X168968742Y-65941000D01*
X168791258Y-65941000D01*
X168766488Y-65936073D01*
X168617188Y-65906376D01*
X168453216Y-65838456D01*
X168305646Y-65739853D01*
X168180147Y-65614354D01*
X168081544Y-65466784D01*
X168013624Y-65302812D01*
X167979000Y-65128741D01*
X167979000Y-64951259D01*
X168013624Y-64777188D01*
X168081544Y-64613216D01*
X168180147Y-64465646D01*
X168305646Y-64340147D01*
X168453216Y-64241544D01*
X168617188Y-64173624D01*
X168766488Y-64143927D01*
X168791258Y-64139000D01*
X168968742Y-64139000D01*
X168993512Y-64143927D01*
G37*
G36*
X163913512Y-64143927D02*
G01*
X164062812Y-64173624D01*
X164226784Y-64241544D01*
X164374354Y-64340147D01*
X164499853Y-64465646D01*
X164598456Y-64613216D01*
X164666376Y-64777188D01*
X164701000Y-64951259D01*
X164701000Y-65128741D01*
X164666376Y-65302812D01*
X164598456Y-65466784D01*
X164499853Y-65614354D01*
X164374354Y-65739853D01*
X164226784Y-65838456D01*
X164062812Y-65906376D01*
X163913512Y-65936073D01*
X163888742Y-65941000D01*
X163711258Y-65941000D01*
X163686488Y-65936073D01*
X163537188Y-65906376D01*
X163373216Y-65838456D01*
X163225646Y-65739853D01*
X163100147Y-65614354D01*
X163001544Y-65466784D01*
X162933624Y-65302812D01*
X162899000Y-65128741D01*
X162899000Y-64951259D01*
X162933624Y-64777188D01*
X163001544Y-64613216D01*
X163100147Y-64465646D01*
X163225646Y-64340147D01*
X163373216Y-64241544D01*
X163537188Y-64173624D01*
X163686488Y-64143927D01*
X163711258Y-64139000D01*
X163888742Y-64139000D01*
X163913512Y-64143927D01*
G37*
G36*
X161373512Y-64143927D02*
G01*
X161522812Y-64173624D01*
X161686784Y-64241544D01*
X161834354Y-64340147D01*
X161959853Y-64465646D01*
X162058456Y-64613216D01*
X162126376Y-64777188D01*
X162161000Y-64951259D01*
X162161000Y-65128741D01*
X162126376Y-65302812D01*
X162058456Y-65466784D01*
X161959853Y-65614354D01*
X161834354Y-65739853D01*
X161686784Y-65838456D01*
X161522812Y-65906376D01*
X161373512Y-65936073D01*
X161348742Y-65941000D01*
X161171258Y-65941000D01*
X161146488Y-65936073D01*
X160997188Y-65906376D01*
X160833216Y-65838456D01*
X160685646Y-65739853D01*
X160560147Y-65614354D01*
X160461544Y-65466784D01*
X160393624Y-65302812D01*
X160359000Y-65128741D01*
X160359000Y-64951259D01*
X160393624Y-64777188D01*
X160461544Y-64613216D01*
X160560147Y-64465646D01*
X160685646Y-64340147D01*
X160833216Y-64241544D01*
X160997188Y-64173624D01*
X161146488Y-64143927D01*
X161171258Y-64139000D01*
X161348742Y-64139000D01*
X161373512Y-64143927D01*
G37*
G36*
X158833512Y-64143927D02*
G01*
X158982812Y-64173624D01*
X159146784Y-64241544D01*
X159294354Y-64340147D01*
X159419853Y-64465646D01*
X159518456Y-64613216D01*
X159586376Y-64777188D01*
X159621000Y-64951259D01*
X159621000Y-65128741D01*
X159586376Y-65302812D01*
X159518456Y-65466784D01*
X159419853Y-65614354D01*
X159294354Y-65739853D01*
X159146784Y-65838456D01*
X158982812Y-65906376D01*
X158833512Y-65936073D01*
X158808742Y-65941000D01*
X158631258Y-65941000D01*
X158606488Y-65936073D01*
X158457188Y-65906376D01*
X158293216Y-65838456D01*
X158145646Y-65739853D01*
X158020147Y-65614354D01*
X157921544Y-65466784D01*
X157853624Y-65302812D01*
X157819000Y-65128741D01*
X157819000Y-64951259D01*
X157853624Y-64777188D01*
X157921544Y-64613216D01*
X158020147Y-64465646D01*
X158145646Y-64340147D01*
X158293216Y-64241544D01*
X158457188Y-64173624D01*
X158606488Y-64143927D01*
X158631258Y-64139000D01*
X158808742Y-64139000D01*
X158833512Y-64143927D01*
G37*
G36*
X166453512Y-64143927D02*
G01*
X166602812Y-64173624D01*
X166766784Y-64241544D01*
X166914354Y-64340147D01*
X167039853Y-64465646D01*
X167138456Y-64613216D01*
X167206376Y-64777188D01*
X167241000Y-64951259D01*
X167241000Y-65128741D01*
X167206376Y-65302812D01*
X167138456Y-65466784D01*
X167039853Y-65614354D01*
X166914354Y-65739853D01*
X166766784Y-65838456D01*
X166602812Y-65906376D01*
X166453512Y-65936073D01*
X166428742Y-65941000D01*
X166251258Y-65941000D01*
X166226488Y-65936073D01*
X166077188Y-65906376D01*
X165913216Y-65838456D01*
X165765646Y-65739853D01*
X165640147Y-65614354D01*
X165541544Y-65466784D01*
X165473624Y-65302812D01*
X165439000Y-65128741D01*
X165439000Y-64951259D01*
X165473624Y-64777188D01*
X165541544Y-64613216D01*
X165640147Y-64465646D01*
X165765646Y-64340147D01*
X165913216Y-64241544D01*
X166077188Y-64173624D01*
X166226488Y-64143927D01*
X166251258Y-64139000D01*
X166428742Y-64139000D01*
X166453512Y-64143927D01*
G37*
G36*
X156293512Y-64143927D02*
G01*
X156442812Y-64173624D01*
X156606784Y-64241544D01*
X156754354Y-64340147D01*
X156879853Y-64465646D01*
X156978456Y-64613216D01*
X157046376Y-64777188D01*
X157081000Y-64951259D01*
X157081000Y-65128741D01*
X157046376Y-65302812D01*
X156978456Y-65466784D01*
X156879853Y-65614354D01*
X156754354Y-65739853D01*
X156606784Y-65838456D01*
X156442812Y-65906376D01*
X156293512Y-65936073D01*
X156268742Y-65941000D01*
X156091258Y-65941000D01*
X156066488Y-65936073D01*
X155917188Y-65906376D01*
X155753216Y-65838456D01*
X155605646Y-65739853D01*
X155480147Y-65614354D01*
X155381544Y-65466784D01*
X155313624Y-65302812D01*
X155279000Y-65128741D01*
X155279000Y-64951259D01*
X155313624Y-64777188D01*
X155381544Y-64613216D01*
X155480147Y-64465646D01*
X155605646Y-64340147D01*
X155753216Y-64241544D01*
X155917188Y-64173624D01*
X156066488Y-64143927D01*
X156091258Y-64139000D01*
X156268742Y-64139000D01*
X156293512Y-64143927D01*
G37*
G36*
X161368796Y-61602989D02*
G01*
X161522812Y-61633624D01*
X161686784Y-61701544D01*
X161834354Y-61800147D01*
X161959853Y-61925646D01*
X162058456Y-62073216D01*
X162126376Y-62237188D01*
X162161000Y-62411259D01*
X162161000Y-62588741D01*
X162126376Y-62762812D01*
X162058456Y-62926784D01*
X161959853Y-63074354D01*
X161834354Y-63199853D01*
X161686784Y-63298456D01*
X161522812Y-63366376D01*
X161374341Y-63395908D01*
X161348742Y-63401000D01*
X161171258Y-63401000D01*
X161145659Y-63395908D01*
X160997188Y-63366376D01*
X160833216Y-63298456D01*
X160685646Y-63199853D01*
X160560147Y-63074354D01*
X160461544Y-62926784D01*
X160393624Y-62762812D01*
X160359000Y-62588741D01*
X160359000Y-62411259D01*
X160393624Y-62237188D01*
X160461544Y-62073216D01*
X160560147Y-61925646D01*
X160685646Y-61800147D01*
X160833216Y-61701544D01*
X160997188Y-61633624D01*
X161151204Y-61602989D01*
X161171258Y-61599000D01*
X161348742Y-61599000D01*
X161368796Y-61602989D01*
G37*
G36*
X177258600Y-61602989D02*
G01*
X177291652Y-61613015D01*
X177322103Y-61629292D01*
X177348799Y-61651201D01*
X177370708Y-61677897D01*
X177386985Y-61708348D01*
X177397011Y-61741400D01*
X177401000Y-61781903D01*
X177401000Y-63218097D01*
X177397011Y-63258600D01*
X177386985Y-63291652D01*
X177370708Y-63322103D01*
X177348799Y-63348799D01*
X177322103Y-63370708D01*
X177291652Y-63386985D01*
X177258600Y-63397011D01*
X177218097Y-63401000D01*
X175781903Y-63401000D01*
X175741400Y-63397011D01*
X175708348Y-63386985D01*
X175677897Y-63370708D01*
X175651201Y-63348799D01*
X175629292Y-63322103D01*
X175613015Y-63291652D01*
X175602989Y-63258600D01*
X175599000Y-63218097D01*
X175599000Y-61781903D01*
X175602989Y-61741400D01*
X175613015Y-61708348D01*
X175629292Y-61677897D01*
X175651201Y-61651201D01*
X175677897Y-61629292D01*
X175708348Y-61613015D01*
X175741400Y-61602989D01*
X175781903Y-61599000D01*
X177218097Y-61599000D01*
X177258600Y-61602989D01*
G37*
G36*
X174068796Y-61602989D02*
G01*
X174222812Y-61633624D01*
X174386784Y-61701544D01*
X174534354Y-61800147D01*
X174659853Y-61925646D01*
X174758456Y-62073216D01*
X174826376Y-62237188D01*
X174861000Y-62411259D01*
X174861000Y-62588741D01*
X174826376Y-62762812D01*
X174758456Y-62926784D01*
X174659853Y-63074354D01*
X174534354Y-63199853D01*
X174386784Y-63298456D01*
X174222812Y-63366376D01*
X174074341Y-63395908D01*
X174048742Y-63401000D01*
X173871258Y-63401000D01*
X173845659Y-63395908D01*
X173697188Y-63366376D01*
X173533216Y-63298456D01*
X173385646Y-63199853D01*
X173260147Y-63074354D01*
X173161544Y-62926784D01*
X173093624Y-62762812D01*
X173059000Y-62588741D01*
X173059000Y-62411259D01*
X173093624Y-62237188D01*
X173161544Y-62073216D01*
X173260147Y-61925646D01*
X173385646Y-61800147D01*
X173533216Y-61701544D01*
X173697188Y-61633624D01*
X173851204Y-61602989D01*
X173871258Y-61599000D01*
X174048742Y-61599000D01*
X174068796Y-61602989D01*
G37*
G36*
X171528796Y-61602989D02*
G01*
X171682812Y-61633624D01*
X171846784Y-61701544D01*
X171994354Y-61800147D01*
X172119853Y-61925646D01*
X172218456Y-62073216D01*
X172286376Y-62237188D01*
X172321000Y-62411259D01*
X172321000Y-62588741D01*
X172286376Y-62762812D01*
X172218456Y-62926784D01*
X172119853Y-63074354D01*
X171994354Y-63199853D01*
X171846784Y-63298456D01*
X171682812Y-63366376D01*
X171534341Y-63395908D01*
X171508742Y-63401000D01*
X171331258Y-63401000D01*
X171305659Y-63395908D01*
X171157188Y-63366376D01*
X170993216Y-63298456D01*
X170845646Y-63199853D01*
X170720147Y-63074354D01*
X170621544Y-62926784D01*
X170553624Y-62762812D01*
X170519000Y-62588741D01*
X170519000Y-62411259D01*
X170553624Y-62237188D01*
X170621544Y-62073216D01*
X170720147Y-61925646D01*
X170845646Y-61800147D01*
X170993216Y-61701544D01*
X171157188Y-61633624D01*
X171311204Y-61602989D01*
X171331258Y-61599000D01*
X171508742Y-61599000D01*
X171528796Y-61602989D01*
G37*
G36*
X168988796Y-61602989D02*
G01*
X169142812Y-61633624D01*
X169306784Y-61701544D01*
X169454354Y-61800147D01*
X169579853Y-61925646D01*
X169678456Y-62073216D01*
X169746376Y-62237188D01*
X169781000Y-62411259D01*
X169781000Y-62588741D01*
X169746376Y-62762812D01*
X169678456Y-62926784D01*
X169579853Y-63074354D01*
X169454354Y-63199853D01*
X169306784Y-63298456D01*
X169142812Y-63366376D01*
X168994341Y-63395908D01*
X168968742Y-63401000D01*
X168791258Y-63401000D01*
X168765659Y-63395908D01*
X168617188Y-63366376D01*
X168453216Y-63298456D01*
X168305646Y-63199853D01*
X168180147Y-63074354D01*
X168081544Y-62926784D01*
X168013624Y-62762812D01*
X167979000Y-62588741D01*
X167979000Y-62411259D01*
X168013624Y-62237188D01*
X168081544Y-62073216D01*
X168180147Y-61925646D01*
X168305646Y-61800147D01*
X168453216Y-61701544D01*
X168617188Y-61633624D01*
X168771204Y-61602989D01*
X168791258Y-61599000D01*
X168968742Y-61599000D01*
X168988796Y-61602989D01*
G37*
G36*
X166448796Y-61602989D02*
G01*
X166602812Y-61633624D01*
X166766784Y-61701544D01*
X166914354Y-61800147D01*
X167039853Y-61925646D01*
X167138456Y-62073216D01*
X167206376Y-62237188D01*
X167241000Y-62411259D01*
X167241000Y-62588741D01*
X167206376Y-62762812D01*
X167138456Y-62926784D01*
X167039853Y-63074354D01*
X166914354Y-63199853D01*
X166766784Y-63298456D01*
X166602812Y-63366376D01*
X166454341Y-63395908D01*
X166428742Y-63401000D01*
X166251258Y-63401000D01*
X166225659Y-63395908D01*
X166077188Y-63366376D01*
X165913216Y-63298456D01*
X165765646Y-63199853D01*
X165640147Y-63074354D01*
X165541544Y-62926784D01*
X165473624Y-62762812D01*
X165439000Y-62588741D01*
X165439000Y-62411259D01*
X165473624Y-62237188D01*
X165541544Y-62073216D01*
X165640147Y-61925646D01*
X165765646Y-61800147D01*
X165913216Y-61701544D01*
X166077188Y-61633624D01*
X166231204Y-61602989D01*
X166251258Y-61599000D01*
X166428742Y-61599000D01*
X166448796Y-61602989D01*
G37*
G36*
X153748796Y-61602989D02*
G01*
X153902812Y-61633624D01*
X154066784Y-61701544D01*
X154214354Y-61800147D01*
X154339853Y-61925646D01*
X154438456Y-62073216D01*
X154506376Y-62237188D01*
X154541000Y-62411259D01*
X154541000Y-62588741D01*
X154506376Y-62762812D01*
X154438456Y-62926784D01*
X154339853Y-63074354D01*
X154214354Y-63199853D01*
X154066784Y-63298456D01*
X153902812Y-63366376D01*
X153754341Y-63395908D01*
X153728742Y-63401000D01*
X153551258Y-63401000D01*
X153525659Y-63395908D01*
X153377188Y-63366376D01*
X153213216Y-63298456D01*
X153065646Y-63199853D01*
X152940147Y-63074354D01*
X152841544Y-62926784D01*
X152773624Y-62762812D01*
X152739000Y-62588741D01*
X152739000Y-62411259D01*
X152773624Y-62237188D01*
X152841544Y-62073216D01*
X152940147Y-61925646D01*
X153065646Y-61800147D01*
X153213216Y-61701544D01*
X153377188Y-61633624D01*
X153531204Y-61602989D01*
X153551258Y-61599000D01*
X153728742Y-61599000D01*
X153748796Y-61602989D01*
G37*
G36*
X156288796Y-61602989D02*
G01*
X156442812Y-61633624D01*
X156606784Y-61701544D01*
X156754354Y-61800147D01*
X156879853Y-61925646D01*
X156978456Y-62073216D01*
X157046376Y-62237188D01*
X157081000Y-62411259D01*
X157081000Y-62588741D01*
X157046376Y-62762812D01*
X156978456Y-62926784D01*
X156879853Y-63074354D01*
X156754354Y-63199853D01*
X156606784Y-63298456D01*
X156442812Y-63366376D01*
X156294341Y-63395908D01*
X156268742Y-63401000D01*
X156091258Y-63401000D01*
X156065659Y-63395908D01*
X155917188Y-63366376D01*
X155753216Y-63298456D01*
X155605646Y-63199853D01*
X155480147Y-63074354D01*
X155381544Y-62926784D01*
X155313624Y-62762812D01*
X155279000Y-62588741D01*
X155279000Y-62411259D01*
X155313624Y-62237188D01*
X155381544Y-62073216D01*
X155480147Y-61925646D01*
X155605646Y-61800147D01*
X155753216Y-61701544D01*
X155917188Y-61633624D01*
X156071204Y-61602989D01*
X156091258Y-61599000D01*
X156268742Y-61599000D01*
X156288796Y-61602989D01*
G37*
G36*
X158828796Y-61602989D02*
G01*
X158982812Y-61633624D01*
X159146784Y-61701544D01*
X159294354Y-61800147D01*
X159419853Y-61925646D01*
X159518456Y-62073216D01*
X159586376Y-62237188D01*
X159621000Y-62411259D01*
X159621000Y-62588741D01*
X159586376Y-62762812D01*
X159518456Y-62926784D01*
X159419853Y-63074354D01*
X159294354Y-63199853D01*
X159146784Y-63298456D01*
X158982812Y-63366376D01*
X158834341Y-63395908D01*
X158808742Y-63401000D01*
X158631258Y-63401000D01*
X158605659Y-63395908D01*
X158457188Y-63366376D01*
X158293216Y-63298456D01*
X158145646Y-63199853D01*
X158020147Y-63074354D01*
X157921544Y-62926784D01*
X157853624Y-62762812D01*
X157819000Y-62588741D01*
X157819000Y-62411259D01*
X157853624Y-62237188D01*
X157921544Y-62073216D01*
X158020147Y-61925646D01*
X158145646Y-61800147D01*
X158293216Y-61701544D01*
X158457188Y-61633624D01*
X158611204Y-61602989D01*
X158631258Y-61599000D01*
X158808742Y-61599000D01*
X158828796Y-61602989D01*
G37*
G36*
X163908796Y-61602989D02*
G01*
X164062812Y-61633624D01*
X164226784Y-61701544D01*
X164374354Y-61800147D01*
X164499853Y-61925646D01*
X164598456Y-62073216D01*
X164666376Y-62237188D01*
X164701000Y-62411259D01*
X164701000Y-62588741D01*
X164666376Y-62762812D01*
X164598456Y-62926784D01*
X164499853Y-63074354D01*
X164374354Y-63199853D01*
X164226784Y-63298456D01*
X164062812Y-63366376D01*
X163914341Y-63395908D01*
X163888742Y-63401000D01*
X163711258Y-63401000D01*
X163685659Y-63395908D01*
X163537188Y-63366376D01*
X163373216Y-63298456D01*
X163225646Y-63199853D01*
X163100147Y-63074354D01*
X163001544Y-62926784D01*
X162933624Y-62762812D01*
X162899000Y-62588741D01*
X162899000Y-62411259D01*
X162933624Y-62237188D01*
X163001544Y-62073216D01*
X163100147Y-61925646D01*
X163225646Y-61800147D01*
X163373216Y-61701544D01*
X163537188Y-61633624D01*
X163691204Y-61602989D01*
X163711258Y-61599000D01*
X163888742Y-61599000D01*
X163908796Y-61602989D01*
G37*
M02*
