M48
; DRILL file {KiCad 5.1.5+dfsg1-2build2} date Fri 21 Jun 2024 19:04:01 BST
; FORMAT={-:-/ absolute / inch / decimal}
; #@! TF.CreationDate,2024-06-21T19:04:01+01:00
; #@! TF.GenerationSoftware,Kicad,Pcbnew,5.1.5+dfsg1-2build2
; #@! TF.FileFunction,Plated,1,2,PTH
FMAT,2
INCH
T1C0.0157
T2C0.0315
T3C0.0394
T4C0.0402
T5C0.1181
%
G90
G05
T1
X3.945Y-3.615
X4.055Y-4.52
X4.065Y-3.8
X4.0669Y-2.6299
X4.085Y-3.295
X4.09Y-4.925
X4.095Y-4.82
X4.1Y-4.1
X4.13Y-4.29
X4.145Y-3.35
X4.15Y-3.455
X4.1535Y-3.6575
X4.155Y-3.61
X4.205Y-3.46
X4.235Y-4.185
X4.2482Y-3.7804
X4.265Y-4.56
X4.2688Y-4.2053
X4.2992Y-3.0079
X4.305Y-4.595
X4.315Y-4.685
X4.374Y-2.9173
X4.38Y-3.855
X4.3937Y-2.6024
X4.41Y-3.7627
X4.425Y-4.83
X4.4291Y-2.6378
X4.4449Y-3.7323
X4.45Y-3.46
X4.4567Y-3.0748
X4.465Y-5.07
X4.495Y-3.855
X4.57Y-4.63
X4.58Y-3.385
X4.58Y-4.02
X4.595Y-4.675
X4.6Y-4.565
X4.705Y-4.64
X4.83Y-4.66
X4.835Y-3.8198
X4.835Y-3.95
X4.86Y-3.385
X4.865Y-3.46
X4.915Y-3.46
X4.955Y-3.8326
X4.96Y-3.24
X4.965Y-4.66
X5.0157Y-2.7115
X5.0197Y-2.7795
X5.05Y-2.935
X5.055Y-4.02
X5.0669Y-2.7971
X5.105Y-3.8503
X5.1181Y-2.6663
X5.16Y-3.075
X5.1645Y-3.4605
X5.185Y-4.835
X5.215Y-2.9271
X5.215Y-3.6
X5.225Y-3.8681
X5.2478Y-3.075
X5.27Y-3.8858
X5.275Y-5.12
X5.28Y-3.235
X5.32Y-5.16
X5.3583Y-4.689
X5.395Y-4.92
X5.47Y-4.695
X5.48Y-5.0515
X5.575Y-3.385
X5.5754Y-3.4646
X5.62Y-3.465
X5.6417Y-2.4055
X5.645Y-3.7
X5.65Y-4.21
X5.655Y-3.3
X5.6575Y-4.695
X5.6762Y-3.64
X5.7165Y-2.9793
X5.7166Y-3.2334
X5.725Y-3.9212
X5.73Y-3.67
X5.752Y-2.5276
X5.752Y-4.2441
X5.755Y-4.175
X5.8189Y-3.0512
X5.82Y-3.67
X5.8579Y-3.7477
X5.8707Y-3.4657
X5.8898Y-4.2756
X5.92Y-3.7933
X5.945Y-2.9
X5.95Y-3.355
X5.955Y-2.85
X5.9567Y-4.9646
X5.96Y-3.9389
X5.9724Y-2.4055
X5.995Y-3.31
X6.06Y-2.895
X6.1535Y-2.8819
X6.165Y-3.7293
X6.1693Y-4.5665
X6.248Y-2.9882
X6.265Y-3.747
X6.275Y-3.4
X6.2817Y-3.4667
X6.2992Y-3.0551
X6.3258Y-2.9803
X6.3319Y-3.4669
X6.3386Y-2.878
X6.3535Y-3.721
X6.355Y-4.37
X6.38Y-3.0
X6.3819Y-3.6102
X6.4094Y-2.4055
X6.445Y-3.605
X6.465Y-3.7933
X6.5039Y-2.874
X6.5079Y-2.6732
X6.535Y-3.605
X6.536Y-2.9285
X6.5394Y-2.8256
X6.5514Y-2.7685
X6.575Y-3.075
X6.5825Y-3.4675
X6.6181Y-2.7115
X6.62Y-3.01
X6.625Y-3.6
X6.6299Y-3.2362
X6.64Y-4.62
X6.6533Y-2.8198
X6.6575Y-2.7756
X6.66Y-3.9212
X6.665Y-3.075
X6.7Y-3.305
X6.7008Y-3.1614
X6.7047Y-3.0669
X6.7126Y-4.5315
X6.7205Y-3.7874
X6.748Y-2.6535
X6.755Y-3.645
X6.7717Y-3.3819
X6.7756Y-3.1299
X6.7953Y-2.874
X6.8189Y-2.7244
X6.8583Y-2.6614
X6.865Y-5.11
X6.875Y-3.8858
X6.8819Y-2.8937
X6.9488Y-2.6693
X6.95Y-3.875
X6.9793Y-3.7874
X6.9882Y-3.0354
X7.0236Y-4.6614
X7.0276Y-3.122
X7.0827Y-4.6811
X7.1181Y-4.252
X7.1575Y-2.9961
X7.1575Y-3.0827
X7.16Y-5.13
X7.163Y-3.8503
X7.1787Y-3.3858
X7.2598Y-3.8218
X7.275Y-4.675
X7.3031Y-3.0
X7.3031Y-4.9567
X7.3228Y-4.2244
X7.3425Y-3.0827
X7.4291Y-3.3858
X7.53Y-3.465
X7.53Y-4.69
T2
X4.24Y-2.64
X4.24Y-2.74
X4.24Y-2.84
T3
X6.0488Y-2.4606
X6.0488Y-2.5606
X6.1488Y-2.4606
X6.1488Y-2.5606
X6.2488Y-2.4606
X6.2488Y-2.5606
X6.3488Y-2.4606
X6.3488Y-2.5606
X6.4488Y-2.4606
X6.4488Y-2.5606
X6.5488Y-2.4606
X6.5488Y-2.5606
X6.6488Y-2.4606
X6.6488Y-2.5606
X6.7488Y-2.4606
X6.7488Y-2.5606
X6.8488Y-2.4606
X6.8488Y-2.5606
X6.9488Y-2.4606
X6.9488Y-2.5606
X4.58Y-5.14
X4.68Y-5.14
X3.937Y-3.8189
X3.937Y-3.9189
X3.937Y-4.0189
X3.937Y-4.1189
X3.937Y-4.2189
X3.937Y-4.3189
X3.937Y-4.4189
X3.937Y-4.5189
X3.937Y-4.6189
X3.937Y-4.7189
X3.937Y-4.8189
X3.937Y-4.9189
X4.98Y-4.34
X4.98Y-4.44
X4.98Y-4.54
T4
X5.361Y-4.0909
X5.361Y-4.7909
X5.3701Y-4.3409
X5.3701Y-4.4409
X5.3701Y-4.5409
X5.461Y-4.0909
X5.461Y-4.7909
X5.561Y-4.0909
X5.561Y-4.7909
X5.661Y-4.0909
X5.661Y-4.7909
X5.761Y-4.0909
X5.761Y-4.7909
X5.861Y-4.0909
X5.861Y-4.7909
X5.961Y-4.0909
X5.961Y-4.7909
X6.061Y-4.0909
X6.061Y-4.7909
X6.161Y-4.0909
X6.161Y-4.7909
X6.261Y-4.0909
X6.261Y-4.7909
X6.361Y-4.0909
X6.361Y-4.7909
X6.461Y-4.0909
X6.461Y-4.7909
X6.561Y-4.0909
X6.561Y-4.7909
X6.661Y-4.0909
X6.661Y-4.7909
X6.761Y-4.0909
X6.761Y-4.7909
X6.861Y-4.0909
X6.861Y-4.7909
X6.961Y-4.0909
X6.961Y-4.7909
X7.061Y-4.0909
X7.061Y-4.7909
X7.161Y-4.0909
X7.161Y-4.7909
X7.261Y-4.0909
X7.261Y-4.7909
T5
X3.8976Y-2.5197
X3.8976Y-5.1575
X7.5197Y-2.5197
X7.5197Y-5.1575
T0
M30
