G04 #@! TF.GenerationSoftware,KiCad,Pcbnew,5.1.5+dfsg1-2build2*
G04 #@! TF.CreationDate,2024-06-21T19:04:03+01:00*
G04 #@! TF.ProjectId,desktop_esc,6465736b-746f-4705-9f65-73632e6b6963,rev?*
G04 #@! TF.SameCoordinates,Original*
G04 #@! TF.FileFunction,Copper,L1,Top*
G04 #@! TF.FilePolarity,Positive*
%FSLAX46Y46*%
G04 Gerber Fmt 4.6, Leading zero omitted, Abs format (unit mm)*
G04 Created by KiCad (PCBNEW 5.1.5+dfsg1-2build2) date 2024-06-21 19:04:03*
%MOMM*%
%LPD*%
G04 APERTURE LIST*
%ADD10C,0.100000*%
%ADD11O,1.700000X1.700000*%
%ADD12R,1.700000X1.700000*%
%ADD13R,1.600000X0.700000*%
%ADD14R,1.400000X1.200000*%
%ADD15R,1.400000X1.600000*%
%ADD16R,2.200000X1.200000*%
%ADD17C,1.440000*%
%ADD18C,1.700000*%
%ADD19R,2.000000X1.500000*%
%ADD20R,2.000000X3.800000*%
%ADD21R,3.500000X1.700000*%
%ADD22R,1.700000X3.500000*%
%ADD23R,1.200000X0.900000*%
%ADD24C,4.000000*%
%ADD25C,0.800000*%
%ADD26C,0.250000*%
%ADD27C,0.500000*%
G04 APERTURE END LIST*
D10*
G36*
X191435000Y-114804000D02*
G01*
X191435000Y-114304000D01*
X190835000Y-114304000D01*
X190835000Y-114804000D01*
X191435000Y-114804000D01*
G37*
G36*
X165876160Y-76799720D02*
G01*
X166376160Y-76799720D01*
X166376160Y-76199720D01*
X165876160Y-76199720D01*
X165876160Y-76799720D01*
G37*
G36*
X168050400Y-93736440D02*
G01*
X168550400Y-93736440D01*
X168550400Y-93136440D01*
X168050400Y-93136440D01*
X168050400Y-93736440D01*
G37*
G36*
X164572760Y-93177080D02*
G01*
X164072760Y-93177080D01*
X164072760Y-93777080D01*
X164572760Y-93777080D01*
X164572760Y-93177080D01*
G37*
G04 #@! TA.AperFunction,SMDPad,CuDef*
G36*
X156724504Y-70876204D02*
G01*
X156748773Y-70879804D01*
X156772571Y-70885765D01*
X156795671Y-70894030D01*
X156817849Y-70904520D01*
X156838893Y-70917133D01*
X156858598Y-70931747D01*
X156876777Y-70948223D01*
X156893253Y-70966402D01*
X156907867Y-70986107D01*
X156920480Y-71007151D01*
X156930970Y-71029329D01*
X156939235Y-71052429D01*
X156945196Y-71076227D01*
X156948796Y-71100496D01*
X156950000Y-71125000D01*
X156950000Y-72075000D01*
X156948796Y-72099504D01*
X156945196Y-72123773D01*
X156939235Y-72147571D01*
X156930970Y-72170671D01*
X156920480Y-72192849D01*
X156907867Y-72213893D01*
X156893253Y-72233598D01*
X156876777Y-72251777D01*
X156858598Y-72268253D01*
X156838893Y-72282867D01*
X156817849Y-72295480D01*
X156795671Y-72305970D01*
X156772571Y-72314235D01*
X156748773Y-72320196D01*
X156724504Y-72323796D01*
X156700000Y-72325000D01*
X156025000Y-72325000D01*
X156000496Y-72323796D01*
X155976227Y-72320196D01*
X155952429Y-72314235D01*
X155929329Y-72305970D01*
X155907151Y-72295480D01*
X155886107Y-72282867D01*
X155866402Y-72268253D01*
X155848223Y-72251777D01*
X155831747Y-72233598D01*
X155817133Y-72213893D01*
X155804520Y-72192849D01*
X155794030Y-72170671D01*
X155785765Y-72147571D01*
X155779804Y-72123773D01*
X155776204Y-72099504D01*
X155775000Y-72075000D01*
X155775000Y-71125000D01*
X155776204Y-71100496D01*
X155779804Y-71076227D01*
X155785765Y-71052429D01*
X155794030Y-71029329D01*
X155804520Y-71007151D01*
X155817133Y-70986107D01*
X155831747Y-70966402D01*
X155848223Y-70948223D01*
X155866402Y-70931747D01*
X155886107Y-70917133D01*
X155907151Y-70904520D01*
X155929329Y-70894030D01*
X155952429Y-70885765D01*
X155976227Y-70879804D01*
X156000496Y-70876204D01*
X156025000Y-70875000D01*
X156700000Y-70875000D01*
X156724504Y-70876204D01*
G37*
G04 #@! TD.AperFunction*
G04 #@! TA.AperFunction,SMDPad,CuDef*
G36*
X158799504Y-70876204D02*
G01*
X158823773Y-70879804D01*
X158847571Y-70885765D01*
X158870671Y-70894030D01*
X158892849Y-70904520D01*
X158913893Y-70917133D01*
X158933598Y-70931747D01*
X158951777Y-70948223D01*
X158968253Y-70966402D01*
X158982867Y-70986107D01*
X158995480Y-71007151D01*
X159005970Y-71029329D01*
X159014235Y-71052429D01*
X159020196Y-71076227D01*
X159023796Y-71100496D01*
X159025000Y-71125000D01*
X159025000Y-72075000D01*
X159023796Y-72099504D01*
X159020196Y-72123773D01*
X159014235Y-72147571D01*
X159005970Y-72170671D01*
X158995480Y-72192849D01*
X158982867Y-72213893D01*
X158968253Y-72233598D01*
X158951777Y-72251777D01*
X158933598Y-72268253D01*
X158913893Y-72282867D01*
X158892849Y-72295480D01*
X158870671Y-72305970D01*
X158847571Y-72314235D01*
X158823773Y-72320196D01*
X158799504Y-72323796D01*
X158775000Y-72325000D01*
X158100000Y-72325000D01*
X158075496Y-72323796D01*
X158051227Y-72320196D01*
X158027429Y-72314235D01*
X158004329Y-72305970D01*
X157982151Y-72295480D01*
X157961107Y-72282867D01*
X157941402Y-72268253D01*
X157923223Y-72251777D01*
X157906747Y-72233598D01*
X157892133Y-72213893D01*
X157879520Y-72192849D01*
X157869030Y-72170671D01*
X157860765Y-72147571D01*
X157854804Y-72123773D01*
X157851204Y-72099504D01*
X157850000Y-72075000D01*
X157850000Y-71125000D01*
X157851204Y-71100496D01*
X157854804Y-71076227D01*
X157860765Y-71052429D01*
X157869030Y-71029329D01*
X157879520Y-71007151D01*
X157892133Y-70986107D01*
X157906747Y-70966402D01*
X157923223Y-70948223D01*
X157941402Y-70931747D01*
X157961107Y-70917133D01*
X157982151Y-70904520D01*
X158004329Y-70894030D01*
X158027429Y-70885765D01*
X158051227Y-70879804D01*
X158075496Y-70876204D01*
X158100000Y-70875000D01*
X158775000Y-70875000D01*
X158799504Y-70876204D01*
G37*
G04 #@! TD.AperFunction*
G04 #@! TA.AperFunction,SMDPad,CuDef*
G36*
X161224504Y-70976204D02*
G01*
X161248773Y-70979804D01*
X161272571Y-70985765D01*
X161295671Y-70994030D01*
X161317849Y-71004520D01*
X161338893Y-71017133D01*
X161358598Y-71031747D01*
X161376777Y-71048223D01*
X161393253Y-71066402D01*
X161407867Y-71086107D01*
X161420480Y-71107151D01*
X161430970Y-71129329D01*
X161439235Y-71152429D01*
X161445196Y-71176227D01*
X161448796Y-71200496D01*
X161450000Y-71225000D01*
X161450000Y-72175000D01*
X161448796Y-72199504D01*
X161445196Y-72223773D01*
X161439235Y-72247571D01*
X161430970Y-72270671D01*
X161420480Y-72292849D01*
X161407867Y-72313893D01*
X161393253Y-72333598D01*
X161376777Y-72351777D01*
X161358598Y-72368253D01*
X161338893Y-72382867D01*
X161317849Y-72395480D01*
X161295671Y-72405970D01*
X161272571Y-72414235D01*
X161248773Y-72420196D01*
X161224504Y-72423796D01*
X161200000Y-72425000D01*
X160525000Y-72425000D01*
X160500496Y-72423796D01*
X160476227Y-72420196D01*
X160452429Y-72414235D01*
X160429329Y-72405970D01*
X160407151Y-72395480D01*
X160386107Y-72382867D01*
X160366402Y-72368253D01*
X160348223Y-72351777D01*
X160331747Y-72333598D01*
X160317133Y-72313893D01*
X160304520Y-72292849D01*
X160294030Y-72270671D01*
X160285765Y-72247571D01*
X160279804Y-72223773D01*
X160276204Y-72199504D01*
X160275000Y-72175000D01*
X160275000Y-71225000D01*
X160276204Y-71200496D01*
X160279804Y-71176227D01*
X160285765Y-71152429D01*
X160294030Y-71129329D01*
X160304520Y-71107151D01*
X160317133Y-71086107D01*
X160331747Y-71066402D01*
X160348223Y-71048223D01*
X160366402Y-71031747D01*
X160386107Y-71017133D01*
X160407151Y-71004520D01*
X160429329Y-70994030D01*
X160452429Y-70985765D01*
X160476227Y-70979804D01*
X160500496Y-70976204D01*
X160525000Y-70975000D01*
X161200000Y-70975000D01*
X161224504Y-70976204D01*
G37*
G04 #@! TD.AperFunction*
G04 #@! TA.AperFunction,SMDPad,CuDef*
G36*
X163299504Y-70976204D02*
G01*
X163323773Y-70979804D01*
X163347571Y-70985765D01*
X163370671Y-70994030D01*
X163392849Y-71004520D01*
X163413893Y-71017133D01*
X163433598Y-71031747D01*
X163451777Y-71048223D01*
X163468253Y-71066402D01*
X163482867Y-71086107D01*
X163495480Y-71107151D01*
X163505970Y-71129329D01*
X163514235Y-71152429D01*
X163520196Y-71176227D01*
X163523796Y-71200496D01*
X163525000Y-71225000D01*
X163525000Y-72175000D01*
X163523796Y-72199504D01*
X163520196Y-72223773D01*
X163514235Y-72247571D01*
X163505970Y-72270671D01*
X163495480Y-72292849D01*
X163482867Y-72313893D01*
X163468253Y-72333598D01*
X163451777Y-72351777D01*
X163433598Y-72368253D01*
X163413893Y-72382867D01*
X163392849Y-72395480D01*
X163370671Y-72405970D01*
X163347571Y-72414235D01*
X163323773Y-72420196D01*
X163299504Y-72423796D01*
X163275000Y-72425000D01*
X162600000Y-72425000D01*
X162575496Y-72423796D01*
X162551227Y-72420196D01*
X162527429Y-72414235D01*
X162504329Y-72405970D01*
X162482151Y-72395480D01*
X162461107Y-72382867D01*
X162441402Y-72368253D01*
X162423223Y-72351777D01*
X162406747Y-72333598D01*
X162392133Y-72313893D01*
X162379520Y-72292849D01*
X162369030Y-72270671D01*
X162360765Y-72247571D01*
X162354804Y-72223773D01*
X162351204Y-72199504D01*
X162350000Y-72175000D01*
X162350000Y-71225000D01*
X162351204Y-71200496D01*
X162354804Y-71176227D01*
X162360765Y-71152429D01*
X162369030Y-71129329D01*
X162379520Y-71107151D01*
X162392133Y-71086107D01*
X162406747Y-71066402D01*
X162423223Y-71048223D01*
X162441402Y-71031747D01*
X162461107Y-71017133D01*
X162482151Y-71004520D01*
X162504329Y-70994030D01*
X162527429Y-70985765D01*
X162551227Y-70979804D01*
X162575496Y-70976204D01*
X162600000Y-70975000D01*
X163275000Y-70975000D01*
X163299504Y-70976204D01*
G37*
G04 #@! TD.AperFunction*
G04 #@! TA.AperFunction,SMDPad,CuDef*
G36*
X172699504Y-70776204D02*
G01*
X172723773Y-70779804D01*
X172747571Y-70785765D01*
X172770671Y-70794030D01*
X172792849Y-70804520D01*
X172813893Y-70817133D01*
X172833598Y-70831747D01*
X172851777Y-70848223D01*
X172868253Y-70866402D01*
X172882867Y-70886107D01*
X172895480Y-70907151D01*
X172905970Y-70929329D01*
X172914235Y-70952429D01*
X172920196Y-70976227D01*
X172923796Y-71000496D01*
X172925000Y-71025000D01*
X172925000Y-71975000D01*
X172923796Y-71999504D01*
X172920196Y-72023773D01*
X172914235Y-72047571D01*
X172905970Y-72070671D01*
X172895480Y-72092849D01*
X172882867Y-72113893D01*
X172868253Y-72133598D01*
X172851777Y-72151777D01*
X172833598Y-72168253D01*
X172813893Y-72182867D01*
X172792849Y-72195480D01*
X172770671Y-72205970D01*
X172747571Y-72214235D01*
X172723773Y-72220196D01*
X172699504Y-72223796D01*
X172675000Y-72225000D01*
X172000000Y-72225000D01*
X171975496Y-72223796D01*
X171951227Y-72220196D01*
X171927429Y-72214235D01*
X171904329Y-72205970D01*
X171882151Y-72195480D01*
X171861107Y-72182867D01*
X171841402Y-72168253D01*
X171823223Y-72151777D01*
X171806747Y-72133598D01*
X171792133Y-72113893D01*
X171779520Y-72092849D01*
X171769030Y-72070671D01*
X171760765Y-72047571D01*
X171754804Y-72023773D01*
X171751204Y-71999504D01*
X171750000Y-71975000D01*
X171750000Y-71025000D01*
X171751204Y-71000496D01*
X171754804Y-70976227D01*
X171760765Y-70952429D01*
X171769030Y-70929329D01*
X171779520Y-70907151D01*
X171792133Y-70886107D01*
X171806747Y-70866402D01*
X171823223Y-70848223D01*
X171841402Y-70831747D01*
X171861107Y-70817133D01*
X171882151Y-70804520D01*
X171904329Y-70794030D01*
X171927429Y-70785765D01*
X171951227Y-70779804D01*
X171975496Y-70776204D01*
X172000000Y-70775000D01*
X172675000Y-70775000D01*
X172699504Y-70776204D01*
G37*
G04 #@! TD.AperFunction*
G04 #@! TA.AperFunction,SMDPad,CuDef*
G36*
X170624504Y-70776204D02*
G01*
X170648773Y-70779804D01*
X170672571Y-70785765D01*
X170695671Y-70794030D01*
X170717849Y-70804520D01*
X170738893Y-70817133D01*
X170758598Y-70831747D01*
X170776777Y-70848223D01*
X170793253Y-70866402D01*
X170807867Y-70886107D01*
X170820480Y-70907151D01*
X170830970Y-70929329D01*
X170839235Y-70952429D01*
X170845196Y-70976227D01*
X170848796Y-71000496D01*
X170850000Y-71025000D01*
X170850000Y-71975000D01*
X170848796Y-71999504D01*
X170845196Y-72023773D01*
X170839235Y-72047571D01*
X170830970Y-72070671D01*
X170820480Y-72092849D01*
X170807867Y-72113893D01*
X170793253Y-72133598D01*
X170776777Y-72151777D01*
X170758598Y-72168253D01*
X170738893Y-72182867D01*
X170717849Y-72195480D01*
X170695671Y-72205970D01*
X170672571Y-72214235D01*
X170648773Y-72220196D01*
X170624504Y-72223796D01*
X170600000Y-72225000D01*
X169925000Y-72225000D01*
X169900496Y-72223796D01*
X169876227Y-72220196D01*
X169852429Y-72214235D01*
X169829329Y-72205970D01*
X169807151Y-72195480D01*
X169786107Y-72182867D01*
X169766402Y-72168253D01*
X169748223Y-72151777D01*
X169731747Y-72133598D01*
X169717133Y-72113893D01*
X169704520Y-72092849D01*
X169694030Y-72070671D01*
X169685765Y-72047571D01*
X169679804Y-72023773D01*
X169676204Y-71999504D01*
X169675000Y-71975000D01*
X169675000Y-71025000D01*
X169676204Y-71000496D01*
X169679804Y-70976227D01*
X169685765Y-70952429D01*
X169694030Y-70929329D01*
X169704520Y-70907151D01*
X169717133Y-70886107D01*
X169731747Y-70866402D01*
X169748223Y-70848223D01*
X169766402Y-70831747D01*
X169786107Y-70817133D01*
X169807151Y-70804520D01*
X169829329Y-70794030D01*
X169852429Y-70785765D01*
X169876227Y-70779804D01*
X169900496Y-70776204D01*
X169925000Y-70775000D01*
X170600000Y-70775000D01*
X170624504Y-70776204D01*
G37*
G04 #@! TD.AperFunction*
G04 #@! TA.AperFunction,SMDPad,CuDef*
G36*
X174824504Y-70876204D02*
G01*
X174848773Y-70879804D01*
X174872571Y-70885765D01*
X174895671Y-70894030D01*
X174917849Y-70904520D01*
X174938893Y-70917133D01*
X174958598Y-70931747D01*
X174976777Y-70948223D01*
X174993253Y-70966402D01*
X175007867Y-70986107D01*
X175020480Y-71007151D01*
X175030970Y-71029329D01*
X175039235Y-71052429D01*
X175045196Y-71076227D01*
X175048796Y-71100496D01*
X175050000Y-71125000D01*
X175050000Y-72075000D01*
X175048796Y-72099504D01*
X175045196Y-72123773D01*
X175039235Y-72147571D01*
X175030970Y-72170671D01*
X175020480Y-72192849D01*
X175007867Y-72213893D01*
X174993253Y-72233598D01*
X174976777Y-72251777D01*
X174958598Y-72268253D01*
X174938893Y-72282867D01*
X174917849Y-72295480D01*
X174895671Y-72305970D01*
X174872571Y-72314235D01*
X174848773Y-72320196D01*
X174824504Y-72323796D01*
X174800000Y-72325000D01*
X174125000Y-72325000D01*
X174100496Y-72323796D01*
X174076227Y-72320196D01*
X174052429Y-72314235D01*
X174029329Y-72305970D01*
X174007151Y-72295480D01*
X173986107Y-72282867D01*
X173966402Y-72268253D01*
X173948223Y-72251777D01*
X173931747Y-72233598D01*
X173917133Y-72213893D01*
X173904520Y-72192849D01*
X173894030Y-72170671D01*
X173885765Y-72147571D01*
X173879804Y-72123773D01*
X173876204Y-72099504D01*
X173875000Y-72075000D01*
X173875000Y-71125000D01*
X173876204Y-71100496D01*
X173879804Y-71076227D01*
X173885765Y-71052429D01*
X173894030Y-71029329D01*
X173904520Y-71007151D01*
X173917133Y-70986107D01*
X173931747Y-70966402D01*
X173948223Y-70948223D01*
X173966402Y-70931747D01*
X173986107Y-70917133D01*
X174007151Y-70904520D01*
X174029329Y-70894030D01*
X174052429Y-70885765D01*
X174076227Y-70879804D01*
X174100496Y-70876204D01*
X174125000Y-70875000D01*
X174800000Y-70875000D01*
X174824504Y-70876204D01*
G37*
G04 #@! TD.AperFunction*
G04 #@! TA.AperFunction,SMDPad,CuDef*
G36*
X176899504Y-70876204D02*
G01*
X176923773Y-70879804D01*
X176947571Y-70885765D01*
X176970671Y-70894030D01*
X176992849Y-70904520D01*
X177013893Y-70917133D01*
X177033598Y-70931747D01*
X177051777Y-70948223D01*
X177068253Y-70966402D01*
X177082867Y-70986107D01*
X177095480Y-71007151D01*
X177105970Y-71029329D01*
X177114235Y-71052429D01*
X177120196Y-71076227D01*
X177123796Y-71100496D01*
X177125000Y-71125000D01*
X177125000Y-72075000D01*
X177123796Y-72099504D01*
X177120196Y-72123773D01*
X177114235Y-72147571D01*
X177105970Y-72170671D01*
X177095480Y-72192849D01*
X177082867Y-72213893D01*
X177068253Y-72233598D01*
X177051777Y-72251777D01*
X177033598Y-72268253D01*
X177013893Y-72282867D01*
X176992849Y-72295480D01*
X176970671Y-72305970D01*
X176947571Y-72314235D01*
X176923773Y-72320196D01*
X176899504Y-72323796D01*
X176875000Y-72325000D01*
X176200000Y-72325000D01*
X176175496Y-72323796D01*
X176151227Y-72320196D01*
X176127429Y-72314235D01*
X176104329Y-72305970D01*
X176082151Y-72295480D01*
X176061107Y-72282867D01*
X176041402Y-72268253D01*
X176023223Y-72251777D01*
X176006747Y-72233598D01*
X175992133Y-72213893D01*
X175979520Y-72192849D01*
X175969030Y-72170671D01*
X175960765Y-72147571D01*
X175954804Y-72123773D01*
X175951204Y-72099504D01*
X175950000Y-72075000D01*
X175950000Y-71125000D01*
X175951204Y-71100496D01*
X175954804Y-71076227D01*
X175960765Y-71052429D01*
X175969030Y-71029329D01*
X175979520Y-71007151D01*
X175992133Y-70986107D01*
X176006747Y-70966402D01*
X176023223Y-70948223D01*
X176041402Y-70931747D01*
X176061107Y-70917133D01*
X176082151Y-70904520D01*
X176104329Y-70894030D01*
X176127429Y-70885765D01*
X176151227Y-70879804D01*
X176175496Y-70876204D01*
X176200000Y-70875000D01*
X176875000Y-70875000D01*
X176899504Y-70876204D01*
G37*
G04 #@! TD.AperFunction*
G04 #@! TA.AperFunction,SMDPad,CuDef*
G36*
X159719703Y-79325722D02*
G01*
X159734264Y-79327882D01*
X159748543Y-79331459D01*
X159762403Y-79336418D01*
X159775710Y-79342712D01*
X159788336Y-79350280D01*
X159800159Y-79359048D01*
X159811066Y-79368934D01*
X159820952Y-79379841D01*
X159829720Y-79391664D01*
X159837288Y-79404290D01*
X159843582Y-79417597D01*
X159848541Y-79431457D01*
X159852118Y-79445736D01*
X159854278Y-79460297D01*
X159855000Y-79475000D01*
X159855000Y-81225000D01*
X159854278Y-81239703D01*
X159852118Y-81254264D01*
X159848541Y-81268543D01*
X159843582Y-81282403D01*
X159837288Y-81295710D01*
X159829720Y-81308336D01*
X159820952Y-81320159D01*
X159811066Y-81331066D01*
X159800159Y-81340952D01*
X159788336Y-81349720D01*
X159775710Y-81357288D01*
X159762403Y-81363582D01*
X159748543Y-81368541D01*
X159734264Y-81372118D01*
X159719703Y-81374278D01*
X159705000Y-81375000D01*
X159405000Y-81375000D01*
X159390297Y-81374278D01*
X159375736Y-81372118D01*
X159361457Y-81368541D01*
X159347597Y-81363582D01*
X159334290Y-81357288D01*
X159321664Y-81349720D01*
X159309841Y-81340952D01*
X159298934Y-81331066D01*
X159289048Y-81320159D01*
X159280280Y-81308336D01*
X159272712Y-81295710D01*
X159266418Y-81282403D01*
X159261459Y-81268543D01*
X159257882Y-81254264D01*
X159255722Y-81239703D01*
X159255000Y-81225000D01*
X159255000Y-79475000D01*
X159255722Y-79460297D01*
X159257882Y-79445736D01*
X159261459Y-79431457D01*
X159266418Y-79417597D01*
X159272712Y-79404290D01*
X159280280Y-79391664D01*
X159289048Y-79379841D01*
X159298934Y-79368934D01*
X159309841Y-79359048D01*
X159321664Y-79350280D01*
X159334290Y-79342712D01*
X159347597Y-79336418D01*
X159361457Y-79331459D01*
X159375736Y-79327882D01*
X159390297Y-79325722D01*
X159405000Y-79325000D01*
X159705000Y-79325000D01*
X159719703Y-79325722D01*
G37*
G04 #@! TD.AperFunction*
G04 #@! TA.AperFunction,SMDPad,CuDef*
G36*
X160989703Y-79325722D02*
G01*
X161004264Y-79327882D01*
X161018543Y-79331459D01*
X161032403Y-79336418D01*
X161045710Y-79342712D01*
X161058336Y-79350280D01*
X161070159Y-79359048D01*
X161081066Y-79368934D01*
X161090952Y-79379841D01*
X161099720Y-79391664D01*
X161107288Y-79404290D01*
X161113582Y-79417597D01*
X161118541Y-79431457D01*
X161122118Y-79445736D01*
X161124278Y-79460297D01*
X161125000Y-79475000D01*
X161125000Y-81225000D01*
X161124278Y-81239703D01*
X161122118Y-81254264D01*
X161118541Y-81268543D01*
X161113582Y-81282403D01*
X161107288Y-81295710D01*
X161099720Y-81308336D01*
X161090952Y-81320159D01*
X161081066Y-81331066D01*
X161070159Y-81340952D01*
X161058336Y-81349720D01*
X161045710Y-81357288D01*
X161032403Y-81363582D01*
X161018543Y-81368541D01*
X161004264Y-81372118D01*
X160989703Y-81374278D01*
X160975000Y-81375000D01*
X160675000Y-81375000D01*
X160660297Y-81374278D01*
X160645736Y-81372118D01*
X160631457Y-81368541D01*
X160617597Y-81363582D01*
X160604290Y-81357288D01*
X160591664Y-81349720D01*
X160579841Y-81340952D01*
X160568934Y-81331066D01*
X160559048Y-81320159D01*
X160550280Y-81308336D01*
X160542712Y-81295710D01*
X160536418Y-81282403D01*
X160531459Y-81268543D01*
X160527882Y-81254264D01*
X160525722Y-81239703D01*
X160525000Y-81225000D01*
X160525000Y-79475000D01*
X160525722Y-79460297D01*
X160527882Y-79445736D01*
X160531459Y-79431457D01*
X160536418Y-79417597D01*
X160542712Y-79404290D01*
X160550280Y-79391664D01*
X160559048Y-79379841D01*
X160568934Y-79368934D01*
X160579841Y-79359048D01*
X160591664Y-79350280D01*
X160604290Y-79342712D01*
X160617597Y-79336418D01*
X160631457Y-79331459D01*
X160645736Y-79327882D01*
X160660297Y-79325722D01*
X160675000Y-79325000D01*
X160975000Y-79325000D01*
X160989703Y-79325722D01*
G37*
G04 #@! TD.AperFunction*
G04 #@! TA.AperFunction,SMDPad,CuDef*
G36*
X162259703Y-79325722D02*
G01*
X162274264Y-79327882D01*
X162288543Y-79331459D01*
X162302403Y-79336418D01*
X162315710Y-79342712D01*
X162328336Y-79350280D01*
X162340159Y-79359048D01*
X162351066Y-79368934D01*
X162360952Y-79379841D01*
X162369720Y-79391664D01*
X162377288Y-79404290D01*
X162383582Y-79417597D01*
X162388541Y-79431457D01*
X162392118Y-79445736D01*
X162394278Y-79460297D01*
X162395000Y-79475000D01*
X162395000Y-81225000D01*
X162394278Y-81239703D01*
X162392118Y-81254264D01*
X162388541Y-81268543D01*
X162383582Y-81282403D01*
X162377288Y-81295710D01*
X162369720Y-81308336D01*
X162360952Y-81320159D01*
X162351066Y-81331066D01*
X162340159Y-81340952D01*
X162328336Y-81349720D01*
X162315710Y-81357288D01*
X162302403Y-81363582D01*
X162288543Y-81368541D01*
X162274264Y-81372118D01*
X162259703Y-81374278D01*
X162245000Y-81375000D01*
X161945000Y-81375000D01*
X161930297Y-81374278D01*
X161915736Y-81372118D01*
X161901457Y-81368541D01*
X161887597Y-81363582D01*
X161874290Y-81357288D01*
X161861664Y-81349720D01*
X161849841Y-81340952D01*
X161838934Y-81331066D01*
X161829048Y-81320159D01*
X161820280Y-81308336D01*
X161812712Y-81295710D01*
X161806418Y-81282403D01*
X161801459Y-81268543D01*
X161797882Y-81254264D01*
X161795722Y-81239703D01*
X161795000Y-81225000D01*
X161795000Y-79475000D01*
X161795722Y-79460297D01*
X161797882Y-79445736D01*
X161801459Y-79431457D01*
X161806418Y-79417597D01*
X161812712Y-79404290D01*
X161820280Y-79391664D01*
X161829048Y-79379841D01*
X161838934Y-79368934D01*
X161849841Y-79359048D01*
X161861664Y-79350280D01*
X161874290Y-79342712D01*
X161887597Y-79336418D01*
X161901457Y-79331459D01*
X161915736Y-79327882D01*
X161930297Y-79325722D01*
X161945000Y-79325000D01*
X162245000Y-79325000D01*
X162259703Y-79325722D01*
G37*
G04 #@! TD.AperFunction*
G04 #@! TA.AperFunction,SMDPad,CuDef*
G36*
X163529703Y-79325722D02*
G01*
X163544264Y-79327882D01*
X163558543Y-79331459D01*
X163572403Y-79336418D01*
X163585710Y-79342712D01*
X163598336Y-79350280D01*
X163610159Y-79359048D01*
X163621066Y-79368934D01*
X163630952Y-79379841D01*
X163639720Y-79391664D01*
X163647288Y-79404290D01*
X163653582Y-79417597D01*
X163658541Y-79431457D01*
X163662118Y-79445736D01*
X163664278Y-79460297D01*
X163665000Y-79475000D01*
X163665000Y-81225000D01*
X163664278Y-81239703D01*
X163662118Y-81254264D01*
X163658541Y-81268543D01*
X163653582Y-81282403D01*
X163647288Y-81295710D01*
X163639720Y-81308336D01*
X163630952Y-81320159D01*
X163621066Y-81331066D01*
X163610159Y-81340952D01*
X163598336Y-81349720D01*
X163585710Y-81357288D01*
X163572403Y-81363582D01*
X163558543Y-81368541D01*
X163544264Y-81372118D01*
X163529703Y-81374278D01*
X163515000Y-81375000D01*
X163215000Y-81375000D01*
X163200297Y-81374278D01*
X163185736Y-81372118D01*
X163171457Y-81368541D01*
X163157597Y-81363582D01*
X163144290Y-81357288D01*
X163131664Y-81349720D01*
X163119841Y-81340952D01*
X163108934Y-81331066D01*
X163099048Y-81320159D01*
X163090280Y-81308336D01*
X163082712Y-81295710D01*
X163076418Y-81282403D01*
X163071459Y-81268543D01*
X163067882Y-81254264D01*
X163065722Y-81239703D01*
X163065000Y-81225000D01*
X163065000Y-79475000D01*
X163065722Y-79460297D01*
X163067882Y-79445736D01*
X163071459Y-79431457D01*
X163076418Y-79417597D01*
X163082712Y-79404290D01*
X163090280Y-79391664D01*
X163099048Y-79379841D01*
X163108934Y-79368934D01*
X163119841Y-79359048D01*
X163131664Y-79350280D01*
X163144290Y-79342712D01*
X163157597Y-79336418D01*
X163171457Y-79331459D01*
X163185736Y-79327882D01*
X163200297Y-79325722D01*
X163215000Y-79325000D01*
X163515000Y-79325000D01*
X163529703Y-79325722D01*
G37*
G04 #@! TD.AperFunction*
G04 #@! TA.AperFunction,SMDPad,CuDef*
G36*
X164799703Y-79325722D02*
G01*
X164814264Y-79327882D01*
X164828543Y-79331459D01*
X164842403Y-79336418D01*
X164855710Y-79342712D01*
X164868336Y-79350280D01*
X164880159Y-79359048D01*
X164891066Y-79368934D01*
X164900952Y-79379841D01*
X164909720Y-79391664D01*
X164917288Y-79404290D01*
X164923582Y-79417597D01*
X164928541Y-79431457D01*
X164932118Y-79445736D01*
X164934278Y-79460297D01*
X164935000Y-79475000D01*
X164935000Y-81225000D01*
X164934278Y-81239703D01*
X164932118Y-81254264D01*
X164928541Y-81268543D01*
X164923582Y-81282403D01*
X164917288Y-81295710D01*
X164909720Y-81308336D01*
X164900952Y-81320159D01*
X164891066Y-81331066D01*
X164880159Y-81340952D01*
X164868336Y-81349720D01*
X164855710Y-81357288D01*
X164842403Y-81363582D01*
X164828543Y-81368541D01*
X164814264Y-81372118D01*
X164799703Y-81374278D01*
X164785000Y-81375000D01*
X164485000Y-81375000D01*
X164470297Y-81374278D01*
X164455736Y-81372118D01*
X164441457Y-81368541D01*
X164427597Y-81363582D01*
X164414290Y-81357288D01*
X164401664Y-81349720D01*
X164389841Y-81340952D01*
X164378934Y-81331066D01*
X164369048Y-81320159D01*
X164360280Y-81308336D01*
X164352712Y-81295710D01*
X164346418Y-81282403D01*
X164341459Y-81268543D01*
X164337882Y-81254264D01*
X164335722Y-81239703D01*
X164335000Y-81225000D01*
X164335000Y-79475000D01*
X164335722Y-79460297D01*
X164337882Y-79445736D01*
X164341459Y-79431457D01*
X164346418Y-79417597D01*
X164352712Y-79404290D01*
X164360280Y-79391664D01*
X164369048Y-79379841D01*
X164378934Y-79368934D01*
X164389841Y-79359048D01*
X164401664Y-79350280D01*
X164414290Y-79342712D01*
X164427597Y-79336418D01*
X164441457Y-79331459D01*
X164455736Y-79327882D01*
X164470297Y-79325722D01*
X164485000Y-79325000D01*
X164785000Y-79325000D01*
X164799703Y-79325722D01*
G37*
G04 #@! TD.AperFunction*
G04 #@! TA.AperFunction,SMDPad,CuDef*
G36*
X166069703Y-79325722D02*
G01*
X166084264Y-79327882D01*
X166098543Y-79331459D01*
X166112403Y-79336418D01*
X166125710Y-79342712D01*
X166138336Y-79350280D01*
X166150159Y-79359048D01*
X166161066Y-79368934D01*
X166170952Y-79379841D01*
X166179720Y-79391664D01*
X166187288Y-79404290D01*
X166193582Y-79417597D01*
X166198541Y-79431457D01*
X166202118Y-79445736D01*
X166204278Y-79460297D01*
X166205000Y-79475000D01*
X166205000Y-81225000D01*
X166204278Y-81239703D01*
X166202118Y-81254264D01*
X166198541Y-81268543D01*
X166193582Y-81282403D01*
X166187288Y-81295710D01*
X166179720Y-81308336D01*
X166170952Y-81320159D01*
X166161066Y-81331066D01*
X166150159Y-81340952D01*
X166138336Y-81349720D01*
X166125710Y-81357288D01*
X166112403Y-81363582D01*
X166098543Y-81368541D01*
X166084264Y-81372118D01*
X166069703Y-81374278D01*
X166055000Y-81375000D01*
X165755000Y-81375000D01*
X165740297Y-81374278D01*
X165725736Y-81372118D01*
X165711457Y-81368541D01*
X165697597Y-81363582D01*
X165684290Y-81357288D01*
X165671664Y-81349720D01*
X165659841Y-81340952D01*
X165648934Y-81331066D01*
X165639048Y-81320159D01*
X165630280Y-81308336D01*
X165622712Y-81295710D01*
X165616418Y-81282403D01*
X165611459Y-81268543D01*
X165607882Y-81254264D01*
X165605722Y-81239703D01*
X165605000Y-81225000D01*
X165605000Y-79475000D01*
X165605722Y-79460297D01*
X165607882Y-79445736D01*
X165611459Y-79431457D01*
X165616418Y-79417597D01*
X165622712Y-79404290D01*
X165630280Y-79391664D01*
X165639048Y-79379841D01*
X165648934Y-79368934D01*
X165659841Y-79359048D01*
X165671664Y-79350280D01*
X165684290Y-79342712D01*
X165697597Y-79336418D01*
X165711457Y-79331459D01*
X165725736Y-79327882D01*
X165740297Y-79325722D01*
X165755000Y-79325000D01*
X166055000Y-79325000D01*
X166069703Y-79325722D01*
G37*
G04 #@! TD.AperFunction*
G04 #@! TA.AperFunction,SMDPad,CuDef*
G36*
X167339703Y-79325722D02*
G01*
X167354264Y-79327882D01*
X167368543Y-79331459D01*
X167382403Y-79336418D01*
X167395710Y-79342712D01*
X167408336Y-79350280D01*
X167420159Y-79359048D01*
X167431066Y-79368934D01*
X167440952Y-79379841D01*
X167449720Y-79391664D01*
X167457288Y-79404290D01*
X167463582Y-79417597D01*
X167468541Y-79431457D01*
X167472118Y-79445736D01*
X167474278Y-79460297D01*
X167475000Y-79475000D01*
X167475000Y-81225000D01*
X167474278Y-81239703D01*
X167472118Y-81254264D01*
X167468541Y-81268543D01*
X167463582Y-81282403D01*
X167457288Y-81295710D01*
X167449720Y-81308336D01*
X167440952Y-81320159D01*
X167431066Y-81331066D01*
X167420159Y-81340952D01*
X167408336Y-81349720D01*
X167395710Y-81357288D01*
X167382403Y-81363582D01*
X167368543Y-81368541D01*
X167354264Y-81372118D01*
X167339703Y-81374278D01*
X167325000Y-81375000D01*
X167025000Y-81375000D01*
X167010297Y-81374278D01*
X166995736Y-81372118D01*
X166981457Y-81368541D01*
X166967597Y-81363582D01*
X166954290Y-81357288D01*
X166941664Y-81349720D01*
X166929841Y-81340952D01*
X166918934Y-81331066D01*
X166909048Y-81320159D01*
X166900280Y-81308336D01*
X166892712Y-81295710D01*
X166886418Y-81282403D01*
X166881459Y-81268543D01*
X166877882Y-81254264D01*
X166875722Y-81239703D01*
X166875000Y-81225000D01*
X166875000Y-79475000D01*
X166875722Y-79460297D01*
X166877882Y-79445736D01*
X166881459Y-79431457D01*
X166886418Y-79417597D01*
X166892712Y-79404290D01*
X166900280Y-79391664D01*
X166909048Y-79379841D01*
X166918934Y-79368934D01*
X166929841Y-79359048D01*
X166941664Y-79350280D01*
X166954290Y-79342712D01*
X166967597Y-79336418D01*
X166981457Y-79331459D01*
X166995736Y-79327882D01*
X167010297Y-79325722D01*
X167025000Y-79325000D01*
X167325000Y-79325000D01*
X167339703Y-79325722D01*
G37*
G04 #@! TD.AperFunction*
G04 #@! TA.AperFunction,SMDPad,CuDef*
G36*
X168609703Y-79325722D02*
G01*
X168624264Y-79327882D01*
X168638543Y-79331459D01*
X168652403Y-79336418D01*
X168665710Y-79342712D01*
X168678336Y-79350280D01*
X168690159Y-79359048D01*
X168701066Y-79368934D01*
X168710952Y-79379841D01*
X168719720Y-79391664D01*
X168727288Y-79404290D01*
X168733582Y-79417597D01*
X168738541Y-79431457D01*
X168742118Y-79445736D01*
X168744278Y-79460297D01*
X168745000Y-79475000D01*
X168745000Y-81225000D01*
X168744278Y-81239703D01*
X168742118Y-81254264D01*
X168738541Y-81268543D01*
X168733582Y-81282403D01*
X168727288Y-81295710D01*
X168719720Y-81308336D01*
X168710952Y-81320159D01*
X168701066Y-81331066D01*
X168690159Y-81340952D01*
X168678336Y-81349720D01*
X168665710Y-81357288D01*
X168652403Y-81363582D01*
X168638543Y-81368541D01*
X168624264Y-81372118D01*
X168609703Y-81374278D01*
X168595000Y-81375000D01*
X168295000Y-81375000D01*
X168280297Y-81374278D01*
X168265736Y-81372118D01*
X168251457Y-81368541D01*
X168237597Y-81363582D01*
X168224290Y-81357288D01*
X168211664Y-81349720D01*
X168199841Y-81340952D01*
X168188934Y-81331066D01*
X168179048Y-81320159D01*
X168170280Y-81308336D01*
X168162712Y-81295710D01*
X168156418Y-81282403D01*
X168151459Y-81268543D01*
X168147882Y-81254264D01*
X168145722Y-81239703D01*
X168145000Y-81225000D01*
X168145000Y-79475000D01*
X168145722Y-79460297D01*
X168147882Y-79445736D01*
X168151459Y-79431457D01*
X168156418Y-79417597D01*
X168162712Y-79404290D01*
X168170280Y-79391664D01*
X168179048Y-79379841D01*
X168188934Y-79368934D01*
X168199841Y-79359048D01*
X168211664Y-79350280D01*
X168224290Y-79342712D01*
X168237597Y-79336418D01*
X168251457Y-79331459D01*
X168265736Y-79327882D01*
X168280297Y-79325722D01*
X168295000Y-79325000D01*
X168595000Y-79325000D01*
X168609703Y-79325722D01*
G37*
G04 #@! TD.AperFunction*
G04 #@! TA.AperFunction,SMDPad,CuDef*
G36*
X168609703Y-88625722D02*
G01*
X168624264Y-88627882D01*
X168638543Y-88631459D01*
X168652403Y-88636418D01*
X168665710Y-88642712D01*
X168678336Y-88650280D01*
X168690159Y-88659048D01*
X168701066Y-88668934D01*
X168710952Y-88679841D01*
X168719720Y-88691664D01*
X168727288Y-88704290D01*
X168733582Y-88717597D01*
X168738541Y-88731457D01*
X168742118Y-88745736D01*
X168744278Y-88760297D01*
X168745000Y-88775000D01*
X168745000Y-90525000D01*
X168744278Y-90539703D01*
X168742118Y-90554264D01*
X168738541Y-90568543D01*
X168733582Y-90582403D01*
X168727288Y-90595710D01*
X168719720Y-90608336D01*
X168710952Y-90620159D01*
X168701066Y-90631066D01*
X168690159Y-90640952D01*
X168678336Y-90649720D01*
X168665710Y-90657288D01*
X168652403Y-90663582D01*
X168638543Y-90668541D01*
X168624264Y-90672118D01*
X168609703Y-90674278D01*
X168595000Y-90675000D01*
X168295000Y-90675000D01*
X168280297Y-90674278D01*
X168265736Y-90672118D01*
X168251457Y-90668541D01*
X168237597Y-90663582D01*
X168224290Y-90657288D01*
X168211664Y-90649720D01*
X168199841Y-90640952D01*
X168188934Y-90631066D01*
X168179048Y-90620159D01*
X168170280Y-90608336D01*
X168162712Y-90595710D01*
X168156418Y-90582403D01*
X168151459Y-90568543D01*
X168147882Y-90554264D01*
X168145722Y-90539703D01*
X168145000Y-90525000D01*
X168145000Y-88775000D01*
X168145722Y-88760297D01*
X168147882Y-88745736D01*
X168151459Y-88731457D01*
X168156418Y-88717597D01*
X168162712Y-88704290D01*
X168170280Y-88691664D01*
X168179048Y-88679841D01*
X168188934Y-88668934D01*
X168199841Y-88659048D01*
X168211664Y-88650280D01*
X168224290Y-88642712D01*
X168237597Y-88636418D01*
X168251457Y-88631459D01*
X168265736Y-88627882D01*
X168280297Y-88625722D01*
X168295000Y-88625000D01*
X168595000Y-88625000D01*
X168609703Y-88625722D01*
G37*
G04 #@! TD.AperFunction*
G04 #@! TA.AperFunction,SMDPad,CuDef*
G36*
X167339703Y-88625722D02*
G01*
X167354264Y-88627882D01*
X167368543Y-88631459D01*
X167382403Y-88636418D01*
X167395710Y-88642712D01*
X167408336Y-88650280D01*
X167420159Y-88659048D01*
X167431066Y-88668934D01*
X167440952Y-88679841D01*
X167449720Y-88691664D01*
X167457288Y-88704290D01*
X167463582Y-88717597D01*
X167468541Y-88731457D01*
X167472118Y-88745736D01*
X167474278Y-88760297D01*
X167475000Y-88775000D01*
X167475000Y-90525000D01*
X167474278Y-90539703D01*
X167472118Y-90554264D01*
X167468541Y-90568543D01*
X167463582Y-90582403D01*
X167457288Y-90595710D01*
X167449720Y-90608336D01*
X167440952Y-90620159D01*
X167431066Y-90631066D01*
X167420159Y-90640952D01*
X167408336Y-90649720D01*
X167395710Y-90657288D01*
X167382403Y-90663582D01*
X167368543Y-90668541D01*
X167354264Y-90672118D01*
X167339703Y-90674278D01*
X167325000Y-90675000D01*
X167025000Y-90675000D01*
X167010297Y-90674278D01*
X166995736Y-90672118D01*
X166981457Y-90668541D01*
X166967597Y-90663582D01*
X166954290Y-90657288D01*
X166941664Y-90649720D01*
X166929841Y-90640952D01*
X166918934Y-90631066D01*
X166909048Y-90620159D01*
X166900280Y-90608336D01*
X166892712Y-90595710D01*
X166886418Y-90582403D01*
X166881459Y-90568543D01*
X166877882Y-90554264D01*
X166875722Y-90539703D01*
X166875000Y-90525000D01*
X166875000Y-88775000D01*
X166875722Y-88760297D01*
X166877882Y-88745736D01*
X166881459Y-88731457D01*
X166886418Y-88717597D01*
X166892712Y-88704290D01*
X166900280Y-88691664D01*
X166909048Y-88679841D01*
X166918934Y-88668934D01*
X166929841Y-88659048D01*
X166941664Y-88650280D01*
X166954290Y-88642712D01*
X166967597Y-88636418D01*
X166981457Y-88631459D01*
X166995736Y-88627882D01*
X167010297Y-88625722D01*
X167025000Y-88625000D01*
X167325000Y-88625000D01*
X167339703Y-88625722D01*
G37*
G04 #@! TD.AperFunction*
G04 #@! TA.AperFunction,SMDPad,CuDef*
G36*
X166069703Y-88625722D02*
G01*
X166084264Y-88627882D01*
X166098543Y-88631459D01*
X166112403Y-88636418D01*
X166125710Y-88642712D01*
X166138336Y-88650280D01*
X166150159Y-88659048D01*
X166161066Y-88668934D01*
X166170952Y-88679841D01*
X166179720Y-88691664D01*
X166187288Y-88704290D01*
X166193582Y-88717597D01*
X166198541Y-88731457D01*
X166202118Y-88745736D01*
X166204278Y-88760297D01*
X166205000Y-88775000D01*
X166205000Y-90525000D01*
X166204278Y-90539703D01*
X166202118Y-90554264D01*
X166198541Y-90568543D01*
X166193582Y-90582403D01*
X166187288Y-90595710D01*
X166179720Y-90608336D01*
X166170952Y-90620159D01*
X166161066Y-90631066D01*
X166150159Y-90640952D01*
X166138336Y-90649720D01*
X166125710Y-90657288D01*
X166112403Y-90663582D01*
X166098543Y-90668541D01*
X166084264Y-90672118D01*
X166069703Y-90674278D01*
X166055000Y-90675000D01*
X165755000Y-90675000D01*
X165740297Y-90674278D01*
X165725736Y-90672118D01*
X165711457Y-90668541D01*
X165697597Y-90663582D01*
X165684290Y-90657288D01*
X165671664Y-90649720D01*
X165659841Y-90640952D01*
X165648934Y-90631066D01*
X165639048Y-90620159D01*
X165630280Y-90608336D01*
X165622712Y-90595710D01*
X165616418Y-90582403D01*
X165611459Y-90568543D01*
X165607882Y-90554264D01*
X165605722Y-90539703D01*
X165605000Y-90525000D01*
X165605000Y-88775000D01*
X165605722Y-88760297D01*
X165607882Y-88745736D01*
X165611459Y-88731457D01*
X165616418Y-88717597D01*
X165622712Y-88704290D01*
X165630280Y-88691664D01*
X165639048Y-88679841D01*
X165648934Y-88668934D01*
X165659841Y-88659048D01*
X165671664Y-88650280D01*
X165684290Y-88642712D01*
X165697597Y-88636418D01*
X165711457Y-88631459D01*
X165725736Y-88627882D01*
X165740297Y-88625722D01*
X165755000Y-88625000D01*
X166055000Y-88625000D01*
X166069703Y-88625722D01*
G37*
G04 #@! TD.AperFunction*
G04 #@! TA.AperFunction,SMDPad,CuDef*
G36*
X164799703Y-88625722D02*
G01*
X164814264Y-88627882D01*
X164828543Y-88631459D01*
X164842403Y-88636418D01*
X164855710Y-88642712D01*
X164868336Y-88650280D01*
X164880159Y-88659048D01*
X164891066Y-88668934D01*
X164900952Y-88679841D01*
X164909720Y-88691664D01*
X164917288Y-88704290D01*
X164923582Y-88717597D01*
X164928541Y-88731457D01*
X164932118Y-88745736D01*
X164934278Y-88760297D01*
X164935000Y-88775000D01*
X164935000Y-90525000D01*
X164934278Y-90539703D01*
X164932118Y-90554264D01*
X164928541Y-90568543D01*
X164923582Y-90582403D01*
X164917288Y-90595710D01*
X164909720Y-90608336D01*
X164900952Y-90620159D01*
X164891066Y-90631066D01*
X164880159Y-90640952D01*
X164868336Y-90649720D01*
X164855710Y-90657288D01*
X164842403Y-90663582D01*
X164828543Y-90668541D01*
X164814264Y-90672118D01*
X164799703Y-90674278D01*
X164785000Y-90675000D01*
X164485000Y-90675000D01*
X164470297Y-90674278D01*
X164455736Y-90672118D01*
X164441457Y-90668541D01*
X164427597Y-90663582D01*
X164414290Y-90657288D01*
X164401664Y-90649720D01*
X164389841Y-90640952D01*
X164378934Y-90631066D01*
X164369048Y-90620159D01*
X164360280Y-90608336D01*
X164352712Y-90595710D01*
X164346418Y-90582403D01*
X164341459Y-90568543D01*
X164337882Y-90554264D01*
X164335722Y-90539703D01*
X164335000Y-90525000D01*
X164335000Y-88775000D01*
X164335722Y-88760297D01*
X164337882Y-88745736D01*
X164341459Y-88731457D01*
X164346418Y-88717597D01*
X164352712Y-88704290D01*
X164360280Y-88691664D01*
X164369048Y-88679841D01*
X164378934Y-88668934D01*
X164389841Y-88659048D01*
X164401664Y-88650280D01*
X164414290Y-88642712D01*
X164427597Y-88636418D01*
X164441457Y-88631459D01*
X164455736Y-88627882D01*
X164470297Y-88625722D01*
X164485000Y-88625000D01*
X164785000Y-88625000D01*
X164799703Y-88625722D01*
G37*
G04 #@! TD.AperFunction*
G04 #@! TA.AperFunction,SMDPad,CuDef*
G36*
X163529703Y-88625722D02*
G01*
X163544264Y-88627882D01*
X163558543Y-88631459D01*
X163572403Y-88636418D01*
X163585710Y-88642712D01*
X163598336Y-88650280D01*
X163610159Y-88659048D01*
X163621066Y-88668934D01*
X163630952Y-88679841D01*
X163639720Y-88691664D01*
X163647288Y-88704290D01*
X163653582Y-88717597D01*
X163658541Y-88731457D01*
X163662118Y-88745736D01*
X163664278Y-88760297D01*
X163665000Y-88775000D01*
X163665000Y-90525000D01*
X163664278Y-90539703D01*
X163662118Y-90554264D01*
X163658541Y-90568543D01*
X163653582Y-90582403D01*
X163647288Y-90595710D01*
X163639720Y-90608336D01*
X163630952Y-90620159D01*
X163621066Y-90631066D01*
X163610159Y-90640952D01*
X163598336Y-90649720D01*
X163585710Y-90657288D01*
X163572403Y-90663582D01*
X163558543Y-90668541D01*
X163544264Y-90672118D01*
X163529703Y-90674278D01*
X163515000Y-90675000D01*
X163215000Y-90675000D01*
X163200297Y-90674278D01*
X163185736Y-90672118D01*
X163171457Y-90668541D01*
X163157597Y-90663582D01*
X163144290Y-90657288D01*
X163131664Y-90649720D01*
X163119841Y-90640952D01*
X163108934Y-90631066D01*
X163099048Y-90620159D01*
X163090280Y-90608336D01*
X163082712Y-90595710D01*
X163076418Y-90582403D01*
X163071459Y-90568543D01*
X163067882Y-90554264D01*
X163065722Y-90539703D01*
X163065000Y-90525000D01*
X163065000Y-88775000D01*
X163065722Y-88760297D01*
X163067882Y-88745736D01*
X163071459Y-88731457D01*
X163076418Y-88717597D01*
X163082712Y-88704290D01*
X163090280Y-88691664D01*
X163099048Y-88679841D01*
X163108934Y-88668934D01*
X163119841Y-88659048D01*
X163131664Y-88650280D01*
X163144290Y-88642712D01*
X163157597Y-88636418D01*
X163171457Y-88631459D01*
X163185736Y-88627882D01*
X163200297Y-88625722D01*
X163215000Y-88625000D01*
X163515000Y-88625000D01*
X163529703Y-88625722D01*
G37*
G04 #@! TD.AperFunction*
G04 #@! TA.AperFunction,SMDPad,CuDef*
G36*
X162259703Y-88625722D02*
G01*
X162274264Y-88627882D01*
X162288543Y-88631459D01*
X162302403Y-88636418D01*
X162315710Y-88642712D01*
X162328336Y-88650280D01*
X162340159Y-88659048D01*
X162351066Y-88668934D01*
X162360952Y-88679841D01*
X162369720Y-88691664D01*
X162377288Y-88704290D01*
X162383582Y-88717597D01*
X162388541Y-88731457D01*
X162392118Y-88745736D01*
X162394278Y-88760297D01*
X162395000Y-88775000D01*
X162395000Y-90525000D01*
X162394278Y-90539703D01*
X162392118Y-90554264D01*
X162388541Y-90568543D01*
X162383582Y-90582403D01*
X162377288Y-90595710D01*
X162369720Y-90608336D01*
X162360952Y-90620159D01*
X162351066Y-90631066D01*
X162340159Y-90640952D01*
X162328336Y-90649720D01*
X162315710Y-90657288D01*
X162302403Y-90663582D01*
X162288543Y-90668541D01*
X162274264Y-90672118D01*
X162259703Y-90674278D01*
X162245000Y-90675000D01*
X161945000Y-90675000D01*
X161930297Y-90674278D01*
X161915736Y-90672118D01*
X161901457Y-90668541D01*
X161887597Y-90663582D01*
X161874290Y-90657288D01*
X161861664Y-90649720D01*
X161849841Y-90640952D01*
X161838934Y-90631066D01*
X161829048Y-90620159D01*
X161820280Y-90608336D01*
X161812712Y-90595710D01*
X161806418Y-90582403D01*
X161801459Y-90568543D01*
X161797882Y-90554264D01*
X161795722Y-90539703D01*
X161795000Y-90525000D01*
X161795000Y-88775000D01*
X161795722Y-88760297D01*
X161797882Y-88745736D01*
X161801459Y-88731457D01*
X161806418Y-88717597D01*
X161812712Y-88704290D01*
X161820280Y-88691664D01*
X161829048Y-88679841D01*
X161838934Y-88668934D01*
X161849841Y-88659048D01*
X161861664Y-88650280D01*
X161874290Y-88642712D01*
X161887597Y-88636418D01*
X161901457Y-88631459D01*
X161915736Y-88627882D01*
X161930297Y-88625722D01*
X161945000Y-88625000D01*
X162245000Y-88625000D01*
X162259703Y-88625722D01*
G37*
G04 #@! TD.AperFunction*
G04 #@! TA.AperFunction,SMDPad,CuDef*
G36*
X160989703Y-88625722D02*
G01*
X161004264Y-88627882D01*
X161018543Y-88631459D01*
X161032403Y-88636418D01*
X161045710Y-88642712D01*
X161058336Y-88650280D01*
X161070159Y-88659048D01*
X161081066Y-88668934D01*
X161090952Y-88679841D01*
X161099720Y-88691664D01*
X161107288Y-88704290D01*
X161113582Y-88717597D01*
X161118541Y-88731457D01*
X161122118Y-88745736D01*
X161124278Y-88760297D01*
X161125000Y-88775000D01*
X161125000Y-90525000D01*
X161124278Y-90539703D01*
X161122118Y-90554264D01*
X161118541Y-90568543D01*
X161113582Y-90582403D01*
X161107288Y-90595710D01*
X161099720Y-90608336D01*
X161090952Y-90620159D01*
X161081066Y-90631066D01*
X161070159Y-90640952D01*
X161058336Y-90649720D01*
X161045710Y-90657288D01*
X161032403Y-90663582D01*
X161018543Y-90668541D01*
X161004264Y-90672118D01*
X160989703Y-90674278D01*
X160975000Y-90675000D01*
X160675000Y-90675000D01*
X160660297Y-90674278D01*
X160645736Y-90672118D01*
X160631457Y-90668541D01*
X160617597Y-90663582D01*
X160604290Y-90657288D01*
X160591664Y-90649720D01*
X160579841Y-90640952D01*
X160568934Y-90631066D01*
X160559048Y-90620159D01*
X160550280Y-90608336D01*
X160542712Y-90595710D01*
X160536418Y-90582403D01*
X160531459Y-90568543D01*
X160527882Y-90554264D01*
X160525722Y-90539703D01*
X160525000Y-90525000D01*
X160525000Y-88775000D01*
X160525722Y-88760297D01*
X160527882Y-88745736D01*
X160531459Y-88731457D01*
X160536418Y-88717597D01*
X160542712Y-88704290D01*
X160550280Y-88691664D01*
X160559048Y-88679841D01*
X160568934Y-88668934D01*
X160579841Y-88659048D01*
X160591664Y-88650280D01*
X160604290Y-88642712D01*
X160617597Y-88636418D01*
X160631457Y-88631459D01*
X160645736Y-88627882D01*
X160660297Y-88625722D01*
X160675000Y-88625000D01*
X160975000Y-88625000D01*
X160989703Y-88625722D01*
G37*
G04 #@! TD.AperFunction*
G04 #@! TA.AperFunction,SMDPad,CuDef*
G36*
X159719703Y-88625722D02*
G01*
X159734264Y-88627882D01*
X159748543Y-88631459D01*
X159762403Y-88636418D01*
X159775710Y-88642712D01*
X159788336Y-88650280D01*
X159800159Y-88659048D01*
X159811066Y-88668934D01*
X159820952Y-88679841D01*
X159829720Y-88691664D01*
X159837288Y-88704290D01*
X159843582Y-88717597D01*
X159848541Y-88731457D01*
X159852118Y-88745736D01*
X159854278Y-88760297D01*
X159855000Y-88775000D01*
X159855000Y-90525000D01*
X159854278Y-90539703D01*
X159852118Y-90554264D01*
X159848541Y-90568543D01*
X159843582Y-90582403D01*
X159837288Y-90595710D01*
X159829720Y-90608336D01*
X159820952Y-90620159D01*
X159811066Y-90631066D01*
X159800159Y-90640952D01*
X159788336Y-90649720D01*
X159775710Y-90657288D01*
X159762403Y-90663582D01*
X159748543Y-90668541D01*
X159734264Y-90672118D01*
X159719703Y-90674278D01*
X159705000Y-90675000D01*
X159405000Y-90675000D01*
X159390297Y-90674278D01*
X159375736Y-90672118D01*
X159361457Y-90668541D01*
X159347597Y-90663582D01*
X159334290Y-90657288D01*
X159321664Y-90649720D01*
X159309841Y-90640952D01*
X159298934Y-90631066D01*
X159289048Y-90620159D01*
X159280280Y-90608336D01*
X159272712Y-90595710D01*
X159266418Y-90582403D01*
X159261459Y-90568543D01*
X159257882Y-90554264D01*
X159255722Y-90539703D01*
X159255000Y-90525000D01*
X159255000Y-88775000D01*
X159255722Y-88760297D01*
X159257882Y-88745736D01*
X159261459Y-88731457D01*
X159266418Y-88717597D01*
X159272712Y-88704290D01*
X159280280Y-88691664D01*
X159289048Y-88679841D01*
X159298934Y-88668934D01*
X159309841Y-88659048D01*
X159321664Y-88650280D01*
X159334290Y-88642712D01*
X159347597Y-88636418D01*
X159361457Y-88631459D01*
X159375736Y-88627882D01*
X159390297Y-88625722D01*
X159405000Y-88625000D01*
X159705000Y-88625000D01*
X159719703Y-88625722D01*
G37*
G04 #@! TD.AperFunction*
G04 #@! TA.AperFunction,SMDPad,CuDef*
G36*
X141719703Y-79325722D02*
G01*
X141734264Y-79327882D01*
X141748543Y-79331459D01*
X141762403Y-79336418D01*
X141775710Y-79342712D01*
X141788336Y-79350280D01*
X141800159Y-79359048D01*
X141811066Y-79368934D01*
X141820952Y-79379841D01*
X141829720Y-79391664D01*
X141837288Y-79404290D01*
X141843582Y-79417597D01*
X141848541Y-79431457D01*
X141852118Y-79445736D01*
X141854278Y-79460297D01*
X141855000Y-79475000D01*
X141855000Y-81225000D01*
X141854278Y-81239703D01*
X141852118Y-81254264D01*
X141848541Y-81268543D01*
X141843582Y-81282403D01*
X141837288Y-81295710D01*
X141829720Y-81308336D01*
X141820952Y-81320159D01*
X141811066Y-81331066D01*
X141800159Y-81340952D01*
X141788336Y-81349720D01*
X141775710Y-81357288D01*
X141762403Y-81363582D01*
X141748543Y-81368541D01*
X141734264Y-81372118D01*
X141719703Y-81374278D01*
X141705000Y-81375000D01*
X141405000Y-81375000D01*
X141390297Y-81374278D01*
X141375736Y-81372118D01*
X141361457Y-81368541D01*
X141347597Y-81363582D01*
X141334290Y-81357288D01*
X141321664Y-81349720D01*
X141309841Y-81340952D01*
X141298934Y-81331066D01*
X141289048Y-81320159D01*
X141280280Y-81308336D01*
X141272712Y-81295710D01*
X141266418Y-81282403D01*
X141261459Y-81268543D01*
X141257882Y-81254264D01*
X141255722Y-81239703D01*
X141255000Y-81225000D01*
X141255000Y-79475000D01*
X141255722Y-79460297D01*
X141257882Y-79445736D01*
X141261459Y-79431457D01*
X141266418Y-79417597D01*
X141272712Y-79404290D01*
X141280280Y-79391664D01*
X141289048Y-79379841D01*
X141298934Y-79368934D01*
X141309841Y-79359048D01*
X141321664Y-79350280D01*
X141334290Y-79342712D01*
X141347597Y-79336418D01*
X141361457Y-79331459D01*
X141375736Y-79327882D01*
X141390297Y-79325722D01*
X141405000Y-79325000D01*
X141705000Y-79325000D01*
X141719703Y-79325722D01*
G37*
G04 #@! TD.AperFunction*
G04 #@! TA.AperFunction,SMDPad,CuDef*
G36*
X142989703Y-79325722D02*
G01*
X143004264Y-79327882D01*
X143018543Y-79331459D01*
X143032403Y-79336418D01*
X143045710Y-79342712D01*
X143058336Y-79350280D01*
X143070159Y-79359048D01*
X143081066Y-79368934D01*
X143090952Y-79379841D01*
X143099720Y-79391664D01*
X143107288Y-79404290D01*
X143113582Y-79417597D01*
X143118541Y-79431457D01*
X143122118Y-79445736D01*
X143124278Y-79460297D01*
X143125000Y-79475000D01*
X143125000Y-81225000D01*
X143124278Y-81239703D01*
X143122118Y-81254264D01*
X143118541Y-81268543D01*
X143113582Y-81282403D01*
X143107288Y-81295710D01*
X143099720Y-81308336D01*
X143090952Y-81320159D01*
X143081066Y-81331066D01*
X143070159Y-81340952D01*
X143058336Y-81349720D01*
X143045710Y-81357288D01*
X143032403Y-81363582D01*
X143018543Y-81368541D01*
X143004264Y-81372118D01*
X142989703Y-81374278D01*
X142975000Y-81375000D01*
X142675000Y-81375000D01*
X142660297Y-81374278D01*
X142645736Y-81372118D01*
X142631457Y-81368541D01*
X142617597Y-81363582D01*
X142604290Y-81357288D01*
X142591664Y-81349720D01*
X142579841Y-81340952D01*
X142568934Y-81331066D01*
X142559048Y-81320159D01*
X142550280Y-81308336D01*
X142542712Y-81295710D01*
X142536418Y-81282403D01*
X142531459Y-81268543D01*
X142527882Y-81254264D01*
X142525722Y-81239703D01*
X142525000Y-81225000D01*
X142525000Y-79475000D01*
X142525722Y-79460297D01*
X142527882Y-79445736D01*
X142531459Y-79431457D01*
X142536418Y-79417597D01*
X142542712Y-79404290D01*
X142550280Y-79391664D01*
X142559048Y-79379841D01*
X142568934Y-79368934D01*
X142579841Y-79359048D01*
X142591664Y-79350280D01*
X142604290Y-79342712D01*
X142617597Y-79336418D01*
X142631457Y-79331459D01*
X142645736Y-79327882D01*
X142660297Y-79325722D01*
X142675000Y-79325000D01*
X142975000Y-79325000D01*
X142989703Y-79325722D01*
G37*
G04 #@! TD.AperFunction*
G04 #@! TA.AperFunction,SMDPad,CuDef*
G36*
X144259703Y-79325722D02*
G01*
X144274264Y-79327882D01*
X144288543Y-79331459D01*
X144302403Y-79336418D01*
X144315710Y-79342712D01*
X144328336Y-79350280D01*
X144340159Y-79359048D01*
X144351066Y-79368934D01*
X144360952Y-79379841D01*
X144369720Y-79391664D01*
X144377288Y-79404290D01*
X144383582Y-79417597D01*
X144388541Y-79431457D01*
X144392118Y-79445736D01*
X144394278Y-79460297D01*
X144395000Y-79475000D01*
X144395000Y-81225000D01*
X144394278Y-81239703D01*
X144392118Y-81254264D01*
X144388541Y-81268543D01*
X144383582Y-81282403D01*
X144377288Y-81295710D01*
X144369720Y-81308336D01*
X144360952Y-81320159D01*
X144351066Y-81331066D01*
X144340159Y-81340952D01*
X144328336Y-81349720D01*
X144315710Y-81357288D01*
X144302403Y-81363582D01*
X144288543Y-81368541D01*
X144274264Y-81372118D01*
X144259703Y-81374278D01*
X144245000Y-81375000D01*
X143945000Y-81375000D01*
X143930297Y-81374278D01*
X143915736Y-81372118D01*
X143901457Y-81368541D01*
X143887597Y-81363582D01*
X143874290Y-81357288D01*
X143861664Y-81349720D01*
X143849841Y-81340952D01*
X143838934Y-81331066D01*
X143829048Y-81320159D01*
X143820280Y-81308336D01*
X143812712Y-81295710D01*
X143806418Y-81282403D01*
X143801459Y-81268543D01*
X143797882Y-81254264D01*
X143795722Y-81239703D01*
X143795000Y-81225000D01*
X143795000Y-79475000D01*
X143795722Y-79460297D01*
X143797882Y-79445736D01*
X143801459Y-79431457D01*
X143806418Y-79417597D01*
X143812712Y-79404290D01*
X143820280Y-79391664D01*
X143829048Y-79379841D01*
X143838934Y-79368934D01*
X143849841Y-79359048D01*
X143861664Y-79350280D01*
X143874290Y-79342712D01*
X143887597Y-79336418D01*
X143901457Y-79331459D01*
X143915736Y-79327882D01*
X143930297Y-79325722D01*
X143945000Y-79325000D01*
X144245000Y-79325000D01*
X144259703Y-79325722D01*
G37*
G04 #@! TD.AperFunction*
G04 #@! TA.AperFunction,SMDPad,CuDef*
G36*
X145529703Y-79325722D02*
G01*
X145544264Y-79327882D01*
X145558543Y-79331459D01*
X145572403Y-79336418D01*
X145585710Y-79342712D01*
X145598336Y-79350280D01*
X145610159Y-79359048D01*
X145621066Y-79368934D01*
X145630952Y-79379841D01*
X145639720Y-79391664D01*
X145647288Y-79404290D01*
X145653582Y-79417597D01*
X145658541Y-79431457D01*
X145662118Y-79445736D01*
X145664278Y-79460297D01*
X145665000Y-79475000D01*
X145665000Y-81225000D01*
X145664278Y-81239703D01*
X145662118Y-81254264D01*
X145658541Y-81268543D01*
X145653582Y-81282403D01*
X145647288Y-81295710D01*
X145639720Y-81308336D01*
X145630952Y-81320159D01*
X145621066Y-81331066D01*
X145610159Y-81340952D01*
X145598336Y-81349720D01*
X145585710Y-81357288D01*
X145572403Y-81363582D01*
X145558543Y-81368541D01*
X145544264Y-81372118D01*
X145529703Y-81374278D01*
X145515000Y-81375000D01*
X145215000Y-81375000D01*
X145200297Y-81374278D01*
X145185736Y-81372118D01*
X145171457Y-81368541D01*
X145157597Y-81363582D01*
X145144290Y-81357288D01*
X145131664Y-81349720D01*
X145119841Y-81340952D01*
X145108934Y-81331066D01*
X145099048Y-81320159D01*
X145090280Y-81308336D01*
X145082712Y-81295710D01*
X145076418Y-81282403D01*
X145071459Y-81268543D01*
X145067882Y-81254264D01*
X145065722Y-81239703D01*
X145065000Y-81225000D01*
X145065000Y-79475000D01*
X145065722Y-79460297D01*
X145067882Y-79445736D01*
X145071459Y-79431457D01*
X145076418Y-79417597D01*
X145082712Y-79404290D01*
X145090280Y-79391664D01*
X145099048Y-79379841D01*
X145108934Y-79368934D01*
X145119841Y-79359048D01*
X145131664Y-79350280D01*
X145144290Y-79342712D01*
X145157597Y-79336418D01*
X145171457Y-79331459D01*
X145185736Y-79327882D01*
X145200297Y-79325722D01*
X145215000Y-79325000D01*
X145515000Y-79325000D01*
X145529703Y-79325722D01*
G37*
G04 #@! TD.AperFunction*
G04 #@! TA.AperFunction,SMDPad,CuDef*
G36*
X146799703Y-79325722D02*
G01*
X146814264Y-79327882D01*
X146828543Y-79331459D01*
X146842403Y-79336418D01*
X146855710Y-79342712D01*
X146868336Y-79350280D01*
X146880159Y-79359048D01*
X146891066Y-79368934D01*
X146900952Y-79379841D01*
X146909720Y-79391664D01*
X146917288Y-79404290D01*
X146923582Y-79417597D01*
X146928541Y-79431457D01*
X146932118Y-79445736D01*
X146934278Y-79460297D01*
X146935000Y-79475000D01*
X146935000Y-81225000D01*
X146934278Y-81239703D01*
X146932118Y-81254264D01*
X146928541Y-81268543D01*
X146923582Y-81282403D01*
X146917288Y-81295710D01*
X146909720Y-81308336D01*
X146900952Y-81320159D01*
X146891066Y-81331066D01*
X146880159Y-81340952D01*
X146868336Y-81349720D01*
X146855710Y-81357288D01*
X146842403Y-81363582D01*
X146828543Y-81368541D01*
X146814264Y-81372118D01*
X146799703Y-81374278D01*
X146785000Y-81375000D01*
X146485000Y-81375000D01*
X146470297Y-81374278D01*
X146455736Y-81372118D01*
X146441457Y-81368541D01*
X146427597Y-81363582D01*
X146414290Y-81357288D01*
X146401664Y-81349720D01*
X146389841Y-81340952D01*
X146378934Y-81331066D01*
X146369048Y-81320159D01*
X146360280Y-81308336D01*
X146352712Y-81295710D01*
X146346418Y-81282403D01*
X146341459Y-81268543D01*
X146337882Y-81254264D01*
X146335722Y-81239703D01*
X146335000Y-81225000D01*
X146335000Y-79475000D01*
X146335722Y-79460297D01*
X146337882Y-79445736D01*
X146341459Y-79431457D01*
X146346418Y-79417597D01*
X146352712Y-79404290D01*
X146360280Y-79391664D01*
X146369048Y-79379841D01*
X146378934Y-79368934D01*
X146389841Y-79359048D01*
X146401664Y-79350280D01*
X146414290Y-79342712D01*
X146427597Y-79336418D01*
X146441457Y-79331459D01*
X146455736Y-79327882D01*
X146470297Y-79325722D01*
X146485000Y-79325000D01*
X146785000Y-79325000D01*
X146799703Y-79325722D01*
G37*
G04 #@! TD.AperFunction*
G04 #@! TA.AperFunction,SMDPad,CuDef*
G36*
X148069703Y-79325722D02*
G01*
X148084264Y-79327882D01*
X148098543Y-79331459D01*
X148112403Y-79336418D01*
X148125710Y-79342712D01*
X148138336Y-79350280D01*
X148150159Y-79359048D01*
X148161066Y-79368934D01*
X148170952Y-79379841D01*
X148179720Y-79391664D01*
X148187288Y-79404290D01*
X148193582Y-79417597D01*
X148198541Y-79431457D01*
X148202118Y-79445736D01*
X148204278Y-79460297D01*
X148205000Y-79475000D01*
X148205000Y-81225000D01*
X148204278Y-81239703D01*
X148202118Y-81254264D01*
X148198541Y-81268543D01*
X148193582Y-81282403D01*
X148187288Y-81295710D01*
X148179720Y-81308336D01*
X148170952Y-81320159D01*
X148161066Y-81331066D01*
X148150159Y-81340952D01*
X148138336Y-81349720D01*
X148125710Y-81357288D01*
X148112403Y-81363582D01*
X148098543Y-81368541D01*
X148084264Y-81372118D01*
X148069703Y-81374278D01*
X148055000Y-81375000D01*
X147755000Y-81375000D01*
X147740297Y-81374278D01*
X147725736Y-81372118D01*
X147711457Y-81368541D01*
X147697597Y-81363582D01*
X147684290Y-81357288D01*
X147671664Y-81349720D01*
X147659841Y-81340952D01*
X147648934Y-81331066D01*
X147639048Y-81320159D01*
X147630280Y-81308336D01*
X147622712Y-81295710D01*
X147616418Y-81282403D01*
X147611459Y-81268543D01*
X147607882Y-81254264D01*
X147605722Y-81239703D01*
X147605000Y-81225000D01*
X147605000Y-79475000D01*
X147605722Y-79460297D01*
X147607882Y-79445736D01*
X147611459Y-79431457D01*
X147616418Y-79417597D01*
X147622712Y-79404290D01*
X147630280Y-79391664D01*
X147639048Y-79379841D01*
X147648934Y-79368934D01*
X147659841Y-79359048D01*
X147671664Y-79350280D01*
X147684290Y-79342712D01*
X147697597Y-79336418D01*
X147711457Y-79331459D01*
X147725736Y-79327882D01*
X147740297Y-79325722D01*
X147755000Y-79325000D01*
X148055000Y-79325000D01*
X148069703Y-79325722D01*
G37*
G04 #@! TD.AperFunction*
G04 #@! TA.AperFunction,SMDPad,CuDef*
G36*
X149339703Y-79325722D02*
G01*
X149354264Y-79327882D01*
X149368543Y-79331459D01*
X149382403Y-79336418D01*
X149395710Y-79342712D01*
X149408336Y-79350280D01*
X149420159Y-79359048D01*
X149431066Y-79368934D01*
X149440952Y-79379841D01*
X149449720Y-79391664D01*
X149457288Y-79404290D01*
X149463582Y-79417597D01*
X149468541Y-79431457D01*
X149472118Y-79445736D01*
X149474278Y-79460297D01*
X149475000Y-79475000D01*
X149475000Y-81225000D01*
X149474278Y-81239703D01*
X149472118Y-81254264D01*
X149468541Y-81268543D01*
X149463582Y-81282403D01*
X149457288Y-81295710D01*
X149449720Y-81308336D01*
X149440952Y-81320159D01*
X149431066Y-81331066D01*
X149420159Y-81340952D01*
X149408336Y-81349720D01*
X149395710Y-81357288D01*
X149382403Y-81363582D01*
X149368543Y-81368541D01*
X149354264Y-81372118D01*
X149339703Y-81374278D01*
X149325000Y-81375000D01*
X149025000Y-81375000D01*
X149010297Y-81374278D01*
X148995736Y-81372118D01*
X148981457Y-81368541D01*
X148967597Y-81363582D01*
X148954290Y-81357288D01*
X148941664Y-81349720D01*
X148929841Y-81340952D01*
X148918934Y-81331066D01*
X148909048Y-81320159D01*
X148900280Y-81308336D01*
X148892712Y-81295710D01*
X148886418Y-81282403D01*
X148881459Y-81268543D01*
X148877882Y-81254264D01*
X148875722Y-81239703D01*
X148875000Y-81225000D01*
X148875000Y-79475000D01*
X148875722Y-79460297D01*
X148877882Y-79445736D01*
X148881459Y-79431457D01*
X148886418Y-79417597D01*
X148892712Y-79404290D01*
X148900280Y-79391664D01*
X148909048Y-79379841D01*
X148918934Y-79368934D01*
X148929841Y-79359048D01*
X148941664Y-79350280D01*
X148954290Y-79342712D01*
X148967597Y-79336418D01*
X148981457Y-79331459D01*
X148995736Y-79327882D01*
X149010297Y-79325722D01*
X149025000Y-79325000D01*
X149325000Y-79325000D01*
X149339703Y-79325722D01*
G37*
G04 #@! TD.AperFunction*
G04 #@! TA.AperFunction,SMDPad,CuDef*
G36*
X150609703Y-79325722D02*
G01*
X150624264Y-79327882D01*
X150638543Y-79331459D01*
X150652403Y-79336418D01*
X150665710Y-79342712D01*
X150678336Y-79350280D01*
X150690159Y-79359048D01*
X150701066Y-79368934D01*
X150710952Y-79379841D01*
X150719720Y-79391664D01*
X150727288Y-79404290D01*
X150733582Y-79417597D01*
X150738541Y-79431457D01*
X150742118Y-79445736D01*
X150744278Y-79460297D01*
X150745000Y-79475000D01*
X150745000Y-81225000D01*
X150744278Y-81239703D01*
X150742118Y-81254264D01*
X150738541Y-81268543D01*
X150733582Y-81282403D01*
X150727288Y-81295710D01*
X150719720Y-81308336D01*
X150710952Y-81320159D01*
X150701066Y-81331066D01*
X150690159Y-81340952D01*
X150678336Y-81349720D01*
X150665710Y-81357288D01*
X150652403Y-81363582D01*
X150638543Y-81368541D01*
X150624264Y-81372118D01*
X150609703Y-81374278D01*
X150595000Y-81375000D01*
X150295000Y-81375000D01*
X150280297Y-81374278D01*
X150265736Y-81372118D01*
X150251457Y-81368541D01*
X150237597Y-81363582D01*
X150224290Y-81357288D01*
X150211664Y-81349720D01*
X150199841Y-81340952D01*
X150188934Y-81331066D01*
X150179048Y-81320159D01*
X150170280Y-81308336D01*
X150162712Y-81295710D01*
X150156418Y-81282403D01*
X150151459Y-81268543D01*
X150147882Y-81254264D01*
X150145722Y-81239703D01*
X150145000Y-81225000D01*
X150145000Y-79475000D01*
X150145722Y-79460297D01*
X150147882Y-79445736D01*
X150151459Y-79431457D01*
X150156418Y-79417597D01*
X150162712Y-79404290D01*
X150170280Y-79391664D01*
X150179048Y-79379841D01*
X150188934Y-79368934D01*
X150199841Y-79359048D01*
X150211664Y-79350280D01*
X150224290Y-79342712D01*
X150237597Y-79336418D01*
X150251457Y-79331459D01*
X150265736Y-79327882D01*
X150280297Y-79325722D01*
X150295000Y-79325000D01*
X150595000Y-79325000D01*
X150609703Y-79325722D01*
G37*
G04 #@! TD.AperFunction*
G04 #@! TA.AperFunction,SMDPad,CuDef*
G36*
X150609703Y-88625722D02*
G01*
X150624264Y-88627882D01*
X150638543Y-88631459D01*
X150652403Y-88636418D01*
X150665710Y-88642712D01*
X150678336Y-88650280D01*
X150690159Y-88659048D01*
X150701066Y-88668934D01*
X150710952Y-88679841D01*
X150719720Y-88691664D01*
X150727288Y-88704290D01*
X150733582Y-88717597D01*
X150738541Y-88731457D01*
X150742118Y-88745736D01*
X150744278Y-88760297D01*
X150745000Y-88775000D01*
X150745000Y-90525000D01*
X150744278Y-90539703D01*
X150742118Y-90554264D01*
X150738541Y-90568543D01*
X150733582Y-90582403D01*
X150727288Y-90595710D01*
X150719720Y-90608336D01*
X150710952Y-90620159D01*
X150701066Y-90631066D01*
X150690159Y-90640952D01*
X150678336Y-90649720D01*
X150665710Y-90657288D01*
X150652403Y-90663582D01*
X150638543Y-90668541D01*
X150624264Y-90672118D01*
X150609703Y-90674278D01*
X150595000Y-90675000D01*
X150295000Y-90675000D01*
X150280297Y-90674278D01*
X150265736Y-90672118D01*
X150251457Y-90668541D01*
X150237597Y-90663582D01*
X150224290Y-90657288D01*
X150211664Y-90649720D01*
X150199841Y-90640952D01*
X150188934Y-90631066D01*
X150179048Y-90620159D01*
X150170280Y-90608336D01*
X150162712Y-90595710D01*
X150156418Y-90582403D01*
X150151459Y-90568543D01*
X150147882Y-90554264D01*
X150145722Y-90539703D01*
X150145000Y-90525000D01*
X150145000Y-88775000D01*
X150145722Y-88760297D01*
X150147882Y-88745736D01*
X150151459Y-88731457D01*
X150156418Y-88717597D01*
X150162712Y-88704290D01*
X150170280Y-88691664D01*
X150179048Y-88679841D01*
X150188934Y-88668934D01*
X150199841Y-88659048D01*
X150211664Y-88650280D01*
X150224290Y-88642712D01*
X150237597Y-88636418D01*
X150251457Y-88631459D01*
X150265736Y-88627882D01*
X150280297Y-88625722D01*
X150295000Y-88625000D01*
X150595000Y-88625000D01*
X150609703Y-88625722D01*
G37*
G04 #@! TD.AperFunction*
G04 #@! TA.AperFunction,SMDPad,CuDef*
G36*
X149339703Y-88625722D02*
G01*
X149354264Y-88627882D01*
X149368543Y-88631459D01*
X149382403Y-88636418D01*
X149395710Y-88642712D01*
X149408336Y-88650280D01*
X149420159Y-88659048D01*
X149431066Y-88668934D01*
X149440952Y-88679841D01*
X149449720Y-88691664D01*
X149457288Y-88704290D01*
X149463582Y-88717597D01*
X149468541Y-88731457D01*
X149472118Y-88745736D01*
X149474278Y-88760297D01*
X149475000Y-88775000D01*
X149475000Y-90525000D01*
X149474278Y-90539703D01*
X149472118Y-90554264D01*
X149468541Y-90568543D01*
X149463582Y-90582403D01*
X149457288Y-90595710D01*
X149449720Y-90608336D01*
X149440952Y-90620159D01*
X149431066Y-90631066D01*
X149420159Y-90640952D01*
X149408336Y-90649720D01*
X149395710Y-90657288D01*
X149382403Y-90663582D01*
X149368543Y-90668541D01*
X149354264Y-90672118D01*
X149339703Y-90674278D01*
X149325000Y-90675000D01*
X149025000Y-90675000D01*
X149010297Y-90674278D01*
X148995736Y-90672118D01*
X148981457Y-90668541D01*
X148967597Y-90663582D01*
X148954290Y-90657288D01*
X148941664Y-90649720D01*
X148929841Y-90640952D01*
X148918934Y-90631066D01*
X148909048Y-90620159D01*
X148900280Y-90608336D01*
X148892712Y-90595710D01*
X148886418Y-90582403D01*
X148881459Y-90568543D01*
X148877882Y-90554264D01*
X148875722Y-90539703D01*
X148875000Y-90525000D01*
X148875000Y-88775000D01*
X148875722Y-88760297D01*
X148877882Y-88745736D01*
X148881459Y-88731457D01*
X148886418Y-88717597D01*
X148892712Y-88704290D01*
X148900280Y-88691664D01*
X148909048Y-88679841D01*
X148918934Y-88668934D01*
X148929841Y-88659048D01*
X148941664Y-88650280D01*
X148954290Y-88642712D01*
X148967597Y-88636418D01*
X148981457Y-88631459D01*
X148995736Y-88627882D01*
X149010297Y-88625722D01*
X149025000Y-88625000D01*
X149325000Y-88625000D01*
X149339703Y-88625722D01*
G37*
G04 #@! TD.AperFunction*
G04 #@! TA.AperFunction,SMDPad,CuDef*
G36*
X148069703Y-88625722D02*
G01*
X148084264Y-88627882D01*
X148098543Y-88631459D01*
X148112403Y-88636418D01*
X148125710Y-88642712D01*
X148138336Y-88650280D01*
X148150159Y-88659048D01*
X148161066Y-88668934D01*
X148170952Y-88679841D01*
X148179720Y-88691664D01*
X148187288Y-88704290D01*
X148193582Y-88717597D01*
X148198541Y-88731457D01*
X148202118Y-88745736D01*
X148204278Y-88760297D01*
X148205000Y-88775000D01*
X148205000Y-90525000D01*
X148204278Y-90539703D01*
X148202118Y-90554264D01*
X148198541Y-90568543D01*
X148193582Y-90582403D01*
X148187288Y-90595710D01*
X148179720Y-90608336D01*
X148170952Y-90620159D01*
X148161066Y-90631066D01*
X148150159Y-90640952D01*
X148138336Y-90649720D01*
X148125710Y-90657288D01*
X148112403Y-90663582D01*
X148098543Y-90668541D01*
X148084264Y-90672118D01*
X148069703Y-90674278D01*
X148055000Y-90675000D01*
X147755000Y-90675000D01*
X147740297Y-90674278D01*
X147725736Y-90672118D01*
X147711457Y-90668541D01*
X147697597Y-90663582D01*
X147684290Y-90657288D01*
X147671664Y-90649720D01*
X147659841Y-90640952D01*
X147648934Y-90631066D01*
X147639048Y-90620159D01*
X147630280Y-90608336D01*
X147622712Y-90595710D01*
X147616418Y-90582403D01*
X147611459Y-90568543D01*
X147607882Y-90554264D01*
X147605722Y-90539703D01*
X147605000Y-90525000D01*
X147605000Y-88775000D01*
X147605722Y-88760297D01*
X147607882Y-88745736D01*
X147611459Y-88731457D01*
X147616418Y-88717597D01*
X147622712Y-88704290D01*
X147630280Y-88691664D01*
X147639048Y-88679841D01*
X147648934Y-88668934D01*
X147659841Y-88659048D01*
X147671664Y-88650280D01*
X147684290Y-88642712D01*
X147697597Y-88636418D01*
X147711457Y-88631459D01*
X147725736Y-88627882D01*
X147740297Y-88625722D01*
X147755000Y-88625000D01*
X148055000Y-88625000D01*
X148069703Y-88625722D01*
G37*
G04 #@! TD.AperFunction*
G04 #@! TA.AperFunction,SMDPad,CuDef*
G36*
X146799703Y-88625722D02*
G01*
X146814264Y-88627882D01*
X146828543Y-88631459D01*
X146842403Y-88636418D01*
X146855710Y-88642712D01*
X146868336Y-88650280D01*
X146880159Y-88659048D01*
X146891066Y-88668934D01*
X146900952Y-88679841D01*
X146909720Y-88691664D01*
X146917288Y-88704290D01*
X146923582Y-88717597D01*
X146928541Y-88731457D01*
X146932118Y-88745736D01*
X146934278Y-88760297D01*
X146935000Y-88775000D01*
X146935000Y-90525000D01*
X146934278Y-90539703D01*
X146932118Y-90554264D01*
X146928541Y-90568543D01*
X146923582Y-90582403D01*
X146917288Y-90595710D01*
X146909720Y-90608336D01*
X146900952Y-90620159D01*
X146891066Y-90631066D01*
X146880159Y-90640952D01*
X146868336Y-90649720D01*
X146855710Y-90657288D01*
X146842403Y-90663582D01*
X146828543Y-90668541D01*
X146814264Y-90672118D01*
X146799703Y-90674278D01*
X146785000Y-90675000D01*
X146485000Y-90675000D01*
X146470297Y-90674278D01*
X146455736Y-90672118D01*
X146441457Y-90668541D01*
X146427597Y-90663582D01*
X146414290Y-90657288D01*
X146401664Y-90649720D01*
X146389841Y-90640952D01*
X146378934Y-90631066D01*
X146369048Y-90620159D01*
X146360280Y-90608336D01*
X146352712Y-90595710D01*
X146346418Y-90582403D01*
X146341459Y-90568543D01*
X146337882Y-90554264D01*
X146335722Y-90539703D01*
X146335000Y-90525000D01*
X146335000Y-88775000D01*
X146335722Y-88760297D01*
X146337882Y-88745736D01*
X146341459Y-88731457D01*
X146346418Y-88717597D01*
X146352712Y-88704290D01*
X146360280Y-88691664D01*
X146369048Y-88679841D01*
X146378934Y-88668934D01*
X146389841Y-88659048D01*
X146401664Y-88650280D01*
X146414290Y-88642712D01*
X146427597Y-88636418D01*
X146441457Y-88631459D01*
X146455736Y-88627882D01*
X146470297Y-88625722D01*
X146485000Y-88625000D01*
X146785000Y-88625000D01*
X146799703Y-88625722D01*
G37*
G04 #@! TD.AperFunction*
G04 #@! TA.AperFunction,SMDPad,CuDef*
G36*
X145529703Y-88625722D02*
G01*
X145544264Y-88627882D01*
X145558543Y-88631459D01*
X145572403Y-88636418D01*
X145585710Y-88642712D01*
X145598336Y-88650280D01*
X145610159Y-88659048D01*
X145621066Y-88668934D01*
X145630952Y-88679841D01*
X145639720Y-88691664D01*
X145647288Y-88704290D01*
X145653582Y-88717597D01*
X145658541Y-88731457D01*
X145662118Y-88745736D01*
X145664278Y-88760297D01*
X145665000Y-88775000D01*
X145665000Y-90525000D01*
X145664278Y-90539703D01*
X145662118Y-90554264D01*
X145658541Y-90568543D01*
X145653582Y-90582403D01*
X145647288Y-90595710D01*
X145639720Y-90608336D01*
X145630952Y-90620159D01*
X145621066Y-90631066D01*
X145610159Y-90640952D01*
X145598336Y-90649720D01*
X145585710Y-90657288D01*
X145572403Y-90663582D01*
X145558543Y-90668541D01*
X145544264Y-90672118D01*
X145529703Y-90674278D01*
X145515000Y-90675000D01*
X145215000Y-90675000D01*
X145200297Y-90674278D01*
X145185736Y-90672118D01*
X145171457Y-90668541D01*
X145157597Y-90663582D01*
X145144290Y-90657288D01*
X145131664Y-90649720D01*
X145119841Y-90640952D01*
X145108934Y-90631066D01*
X145099048Y-90620159D01*
X145090280Y-90608336D01*
X145082712Y-90595710D01*
X145076418Y-90582403D01*
X145071459Y-90568543D01*
X145067882Y-90554264D01*
X145065722Y-90539703D01*
X145065000Y-90525000D01*
X145065000Y-88775000D01*
X145065722Y-88760297D01*
X145067882Y-88745736D01*
X145071459Y-88731457D01*
X145076418Y-88717597D01*
X145082712Y-88704290D01*
X145090280Y-88691664D01*
X145099048Y-88679841D01*
X145108934Y-88668934D01*
X145119841Y-88659048D01*
X145131664Y-88650280D01*
X145144290Y-88642712D01*
X145157597Y-88636418D01*
X145171457Y-88631459D01*
X145185736Y-88627882D01*
X145200297Y-88625722D01*
X145215000Y-88625000D01*
X145515000Y-88625000D01*
X145529703Y-88625722D01*
G37*
G04 #@! TD.AperFunction*
G04 #@! TA.AperFunction,SMDPad,CuDef*
G36*
X144259703Y-88625722D02*
G01*
X144274264Y-88627882D01*
X144288543Y-88631459D01*
X144302403Y-88636418D01*
X144315710Y-88642712D01*
X144328336Y-88650280D01*
X144340159Y-88659048D01*
X144351066Y-88668934D01*
X144360952Y-88679841D01*
X144369720Y-88691664D01*
X144377288Y-88704290D01*
X144383582Y-88717597D01*
X144388541Y-88731457D01*
X144392118Y-88745736D01*
X144394278Y-88760297D01*
X144395000Y-88775000D01*
X144395000Y-90525000D01*
X144394278Y-90539703D01*
X144392118Y-90554264D01*
X144388541Y-90568543D01*
X144383582Y-90582403D01*
X144377288Y-90595710D01*
X144369720Y-90608336D01*
X144360952Y-90620159D01*
X144351066Y-90631066D01*
X144340159Y-90640952D01*
X144328336Y-90649720D01*
X144315710Y-90657288D01*
X144302403Y-90663582D01*
X144288543Y-90668541D01*
X144274264Y-90672118D01*
X144259703Y-90674278D01*
X144245000Y-90675000D01*
X143945000Y-90675000D01*
X143930297Y-90674278D01*
X143915736Y-90672118D01*
X143901457Y-90668541D01*
X143887597Y-90663582D01*
X143874290Y-90657288D01*
X143861664Y-90649720D01*
X143849841Y-90640952D01*
X143838934Y-90631066D01*
X143829048Y-90620159D01*
X143820280Y-90608336D01*
X143812712Y-90595710D01*
X143806418Y-90582403D01*
X143801459Y-90568543D01*
X143797882Y-90554264D01*
X143795722Y-90539703D01*
X143795000Y-90525000D01*
X143795000Y-88775000D01*
X143795722Y-88760297D01*
X143797882Y-88745736D01*
X143801459Y-88731457D01*
X143806418Y-88717597D01*
X143812712Y-88704290D01*
X143820280Y-88691664D01*
X143829048Y-88679841D01*
X143838934Y-88668934D01*
X143849841Y-88659048D01*
X143861664Y-88650280D01*
X143874290Y-88642712D01*
X143887597Y-88636418D01*
X143901457Y-88631459D01*
X143915736Y-88627882D01*
X143930297Y-88625722D01*
X143945000Y-88625000D01*
X144245000Y-88625000D01*
X144259703Y-88625722D01*
G37*
G04 #@! TD.AperFunction*
G04 #@! TA.AperFunction,SMDPad,CuDef*
G36*
X142989703Y-88625722D02*
G01*
X143004264Y-88627882D01*
X143018543Y-88631459D01*
X143032403Y-88636418D01*
X143045710Y-88642712D01*
X143058336Y-88650280D01*
X143070159Y-88659048D01*
X143081066Y-88668934D01*
X143090952Y-88679841D01*
X143099720Y-88691664D01*
X143107288Y-88704290D01*
X143113582Y-88717597D01*
X143118541Y-88731457D01*
X143122118Y-88745736D01*
X143124278Y-88760297D01*
X143125000Y-88775000D01*
X143125000Y-90525000D01*
X143124278Y-90539703D01*
X143122118Y-90554264D01*
X143118541Y-90568543D01*
X143113582Y-90582403D01*
X143107288Y-90595710D01*
X143099720Y-90608336D01*
X143090952Y-90620159D01*
X143081066Y-90631066D01*
X143070159Y-90640952D01*
X143058336Y-90649720D01*
X143045710Y-90657288D01*
X143032403Y-90663582D01*
X143018543Y-90668541D01*
X143004264Y-90672118D01*
X142989703Y-90674278D01*
X142975000Y-90675000D01*
X142675000Y-90675000D01*
X142660297Y-90674278D01*
X142645736Y-90672118D01*
X142631457Y-90668541D01*
X142617597Y-90663582D01*
X142604290Y-90657288D01*
X142591664Y-90649720D01*
X142579841Y-90640952D01*
X142568934Y-90631066D01*
X142559048Y-90620159D01*
X142550280Y-90608336D01*
X142542712Y-90595710D01*
X142536418Y-90582403D01*
X142531459Y-90568543D01*
X142527882Y-90554264D01*
X142525722Y-90539703D01*
X142525000Y-90525000D01*
X142525000Y-88775000D01*
X142525722Y-88760297D01*
X142527882Y-88745736D01*
X142531459Y-88731457D01*
X142536418Y-88717597D01*
X142542712Y-88704290D01*
X142550280Y-88691664D01*
X142559048Y-88679841D01*
X142568934Y-88668934D01*
X142579841Y-88659048D01*
X142591664Y-88650280D01*
X142604290Y-88642712D01*
X142617597Y-88636418D01*
X142631457Y-88631459D01*
X142645736Y-88627882D01*
X142660297Y-88625722D01*
X142675000Y-88625000D01*
X142975000Y-88625000D01*
X142989703Y-88625722D01*
G37*
G04 #@! TD.AperFunction*
G04 #@! TA.AperFunction,SMDPad,CuDef*
G36*
X141719703Y-88625722D02*
G01*
X141734264Y-88627882D01*
X141748543Y-88631459D01*
X141762403Y-88636418D01*
X141775710Y-88642712D01*
X141788336Y-88650280D01*
X141800159Y-88659048D01*
X141811066Y-88668934D01*
X141820952Y-88679841D01*
X141829720Y-88691664D01*
X141837288Y-88704290D01*
X141843582Y-88717597D01*
X141848541Y-88731457D01*
X141852118Y-88745736D01*
X141854278Y-88760297D01*
X141855000Y-88775000D01*
X141855000Y-90525000D01*
X141854278Y-90539703D01*
X141852118Y-90554264D01*
X141848541Y-90568543D01*
X141843582Y-90582403D01*
X141837288Y-90595710D01*
X141829720Y-90608336D01*
X141820952Y-90620159D01*
X141811066Y-90631066D01*
X141800159Y-90640952D01*
X141788336Y-90649720D01*
X141775710Y-90657288D01*
X141762403Y-90663582D01*
X141748543Y-90668541D01*
X141734264Y-90672118D01*
X141719703Y-90674278D01*
X141705000Y-90675000D01*
X141405000Y-90675000D01*
X141390297Y-90674278D01*
X141375736Y-90672118D01*
X141361457Y-90668541D01*
X141347597Y-90663582D01*
X141334290Y-90657288D01*
X141321664Y-90649720D01*
X141309841Y-90640952D01*
X141298934Y-90631066D01*
X141289048Y-90620159D01*
X141280280Y-90608336D01*
X141272712Y-90595710D01*
X141266418Y-90582403D01*
X141261459Y-90568543D01*
X141257882Y-90554264D01*
X141255722Y-90539703D01*
X141255000Y-90525000D01*
X141255000Y-88775000D01*
X141255722Y-88760297D01*
X141257882Y-88745736D01*
X141261459Y-88731457D01*
X141266418Y-88717597D01*
X141272712Y-88704290D01*
X141280280Y-88691664D01*
X141289048Y-88679841D01*
X141298934Y-88668934D01*
X141309841Y-88659048D01*
X141321664Y-88650280D01*
X141334290Y-88642712D01*
X141347597Y-88636418D01*
X141361457Y-88631459D01*
X141375736Y-88627882D01*
X141390297Y-88625722D01*
X141405000Y-88625000D01*
X141705000Y-88625000D01*
X141719703Y-88625722D01*
G37*
G04 #@! TD.AperFunction*
G04 #@! TA.AperFunction,SMDPad,CuDef*
G36*
X105719703Y-79325722D02*
G01*
X105734264Y-79327882D01*
X105748543Y-79331459D01*
X105762403Y-79336418D01*
X105775710Y-79342712D01*
X105788336Y-79350280D01*
X105800159Y-79359048D01*
X105811066Y-79368934D01*
X105820952Y-79379841D01*
X105829720Y-79391664D01*
X105837288Y-79404290D01*
X105843582Y-79417597D01*
X105848541Y-79431457D01*
X105852118Y-79445736D01*
X105854278Y-79460297D01*
X105855000Y-79475000D01*
X105855000Y-81225000D01*
X105854278Y-81239703D01*
X105852118Y-81254264D01*
X105848541Y-81268543D01*
X105843582Y-81282403D01*
X105837288Y-81295710D01*
X105829720Y-81308336D01*
X105820952Y-81320159D01*
X105811066Y-81331066D01*
X105800159Y-81340952D01*
X105788336Y-81349720D01*
X105775710Y-81357288D01*
X105762403Y-81363582D01*
X105748543Y-81368541D01*
X105734264Y-81372118D01*
X105719703Y-81374278D01*
X105705000Y-81375000D01*
X105405000Y-81375000D01*
X105390297Y-81374278D01*
X105375736Y-81372118D01*
X105361457Y-81368541D01*
X105347597Y-81363582D01*
X105334290Y-81357288D01*
X105321664Y-81349720D01*
X105309841Y-81340952D01*
X105298934Y-81331066D01*
X105289048Y-81320159D01*
X105280280Y-81308336D01*
X105272712Y-81295710D01*
X105266418Y-81282403D01*
X105261459Y-81268543D01*
X105257882Y-81254264D01*
X105255722Y-81239703D01*
X105255000Y-81225000D01*
X105255000Y-79475000D01*
X105255722Y-79460297D01*
X105257882Y-79445736D01*
X105261459Y-79431457D01*
X105266418Y-79417597D01*
X105272712Y-79404290D01*
X105280280Y-79391664D01*
X105289048Y-79379841D01*
X105298934Y-79368934D01*
X105309841Y-79359048D01*
X105321664Y-79350280D01*
X105334290Y-79342712D01*
X105347597Y-79336418D01*
X105361457Y-79331459D01*
X105375736Y-79327882D01*
X105390297Y-79325722D01*
X105405000Y-79325000D01*
X105705000Y-79325000D01*
X105719703Y-79325722D01*
G37*
G04 #@! TD.AperFunction*
G04 #@! TA.AperFunction,SMDPad,CuDef*
G36*
X106989703Y-79325722D02*
G01*
X107004264Y-79327882D01*
X107018543Y-79331459D01*
X107032403Y-79336418D01*
X107045710Y-79342712D01*
X107058336Y-79350280D01*
X107070159Y-79359048D01*
X107081066Y-79368934D01*
X107090952Y-79379841D01*
X107099720Y-79391664D01*
X107107288Y-79404290D01*
X107113582Y-79417597D01*
X107118541Y-79431457D01*
X107122118Y-79445736D01*
X107124278Y-79460297D01*
X107125000Y-79475000D01*
X107125000Y-81225000D01*
X107124278Y-81239703D01*
X107122118Y-81254264D01*
X107118541Y-81268543D01*
X107113582Y-81282403D01*
X107107288Y-81295710D01*
X107099720Y-81308336D01*
X107090952Y-81320159D01*
X107081066Y-81331066D01*
X107070159Y-81340952D01*
X107058336Y-81349720D01*
X107045710Y-81357288D01*
X107032403Y-81363582D01*
X107018543Y-81368541D01*
X107004264Y-81372118D01*
X106989703Y-81374278D01*
X106975000Y-81375000D01*
X106675000Y-81375000D01*
X106660297Y-81374278D01*
X106645736Y-81372118D01*
X106631457Y-81368541D01*
X106617597Y-81363582D01*
X106604290Y-81357288D01*
X106591664Y-81349720D01*
X106579841Y-81340952D01*
X106568934Y-81331066D01*
X106559048Y-81320159D01*
X106550280Y-81308336D01*
X106542712Y-81295710D01*
X106536418Y-81282403D01*
X106531459Y-81268543D01*
X106527882Y-81254264D01*
X106525722Y-81239703D01*
X106525000Y-81225000D01*
X106525000Y-79475000D01*
X106525722Y-79460297D01*
X106527882Y-79445736D01*
X106531459Y-79431457D01*
X106536418Y-79417597D01*
X106542712Y-79404290D01*
X106550280Y-79391664D01*
X106559048Y-79379841D01*
X106568934Y-79368934D01*
X106579841Y-79359048D01*
X106591664Y-79350280D01*
X106604290Y-79342712D01*
X106617597Y-79336418D01*
X106631457Y-79331459D01*
X106645736Y-79327882D01*
X106660297Y-79325722D01*
X106675000Y-79325000D01*
X106975000Y-79325000D01*
X106989703Y-79325722D01*
G37*
G04 #@! TD.AperFunction*
G04 #@! TA.AperFunction,SMDPad,CuDef*
G36*
X108259703Y-79325722D02*
G01*
X108274264Y-79327882D01*
X108288543Y-79331459D01*
X108302403Y-79336418D01*
X108315710Y-79342712D01*
X108328336Y-79350280D01*
X108340159Y-79359048D01*
X108351066Y-79368934D01*
X108360952Y-79379841D01*
X108369720Y-79391664D01*
X108377288Y-79404290D01*
X108383582Y-79417597D01*
X108388541Y-79431457D01*
X108392118Y-79445736D01*
X108394278Y-79460297D01*
X108395000Y-79475000D01*
X108395000Y-81225000D01*
X108394278Y-81239703D01*
X108392118Y-81254264D01*
X108388541Y-81268543D01*
X108383582Y-81282403D01*
X108377288Y-81295710D01*
X108369720Y-81308336D01*
X108360952Y-81320159D01*
X108351066Y-81331066D01*
X108340159Y-81340952D01*
X108328336Y-81349720D01*
X108315710Y-81357288D01*
X108302403Y-81363582D01*
X108288543Y-81368541D01*
X108274264Y-81372118D01*
X108259703Y-81374278D01*
X108245000Y-81375000D01*
X107945000Y-81375000D01*
X107930297Y-81374278D01*
X107915736Y-81372118D01*
X107901457Y-81368541D01*
X107887597Y-81363582D01*
X107874290Y-81357288D01*
X107861664Y-81349720D01*
X107849841Y-81340952D01*
X107838934Y-81331066D01*
X107829048Y-81320159D01*
X107820280Y-81308336D01*
X107812712Y-81295710D01*
X107806418Y-81282403D01*
X107801459Y-81268543D01*
X107797882Y-81254264D01*
X107795722Y-81239703D01*
X107795000Y-81225000D01*
X107795000Y-79475000D01*
X107795722Y-79460297D01*
X107797882Y-79445736D01*
X107801459Y-79431457D01*
X107806418Y-79417597D01*
X107812712Y-79404290D01*
X107820280Y-79391664D01*
X107829048Y-79379841D01*
X107838934Y-79368934D01*
X107849841Y-79359048D01*
X107861664Y-79350280D01*
X107874290Y-79342712D01*
X107887597Y-79336418D01*
X107901457Y-79331459D01*
X107915736Y-79327882D01*
X107930297Y-79325722D01*
X107945000Y-79325000D01*
X108245000Y-79325000D01*
X108259703Y-79325722D01*
G37*
G04 #@! TD.AperFunction*
G04 #@! TA.AperFunction,SMDPad,CuDef*
G36*
X109529703Y-79325722D02*
G01*
X109544264Y-79327882D01*
X109558543Y-79331459D01*
X109572403Y-79336418D01*
X109585710Y-79342712D01*
X109598336Y-79350280D01*
X109610159Y-79359048D01*
X109621066Y-79368934D01*
X109630952Y-79379841D01*
X109639720Y-79391664D01*
X109647288Y-79404290D01*
X109653582Y-79417597D01*
X109658541Y-79431457D01*
X109662118Y-79445736D01*
X109664278Y-79460297D01*
X109665000Y-79475000D01*
X109665000Y-81225000D01*
X109664278Y-81239703D01*
X109662118Y-81254264D01*
X109658541Y-81268543D01*
X109653582Y-81282403D01*
X109647288Y-81295710D01*
X109639720Y-81308336D01*
X109630952Y-81320159D01*
X109621066Y-81331066D01*
X109610159Y-81340952D01*
X109598336Y-81349720D01*
X109585710Y-81357288D01*
X109572403Y-81363582D01*
X109558543Y-81368541D01*
X109544264Y-81372118D01*
X109529703Y-81374278D01*
X109515000Y-81375000D01*
X109215000Y-81375000D01*
X109200297Y-81374278D01*
X109185736Y-81372118D01*
X109171457Y-81368541D01*
X109157597Y-81363582D01*
X109144290Y-81357288D01*
X109131664Y-81349720D01*
X109119841Y-81340952D01*
X109108934Y-81331066D01*
X109099048Y-81320159D01*
X109090280Y-81308336D01*
X109082712Y-81295710D01*
X109076418Y-81282403D01*
X109071459Y-81268543D01*
X109067882Y-81254264D01*
X109065722Y-81239703D01*
X109065000Y-81225000D01*
X109065000Y-79475000D01*
X109065722Y-79460297D01*
X109067882Y-79445736D01*
X109071459Y-79431457D01*
X109076418Y-79417597D01*
X109082712Y-79404290D01*
X109090280Y-79391664D01*
X109099048Y-79379841D01*
X109108934Y-79368934D01*
X109119841Y-79359048D01*
X109131664Y-79350280D01*
X109144290Y-79342712D01*
X109157597Y-79336418D01*
X109171457Y-79331459D01*
X109185736Y-79327882D01*
X109200297Y-79325722D01*
X109215000Y-79325000D01*
X109515000Y-79325000D01*
X109529703Y-79325722D01*
G37*
G04 #@! TD.AperFunction*
G04 #@! TA.AperFunction,SMDPad,CuDef*
G36*
X110799703Y-79325722D02*
G01*
X110814264Y-79327882D01*
X110828543Y-79331459D01*
X110842403Y-79336418D01*
X110855710Y-79342712D01*
X110868336Y-79350280D01*
X110880159Y-79359048D01*
X110891066Y-79368934D01*
X110900952Y-79379841D01*
X110909720Y-79391664D01*
X110917288Y-79404290D01*
X110923582Y-79417597D01*
X110928541Y-79431457D01*
X110932118Y-79445736D01*
X110934278Y-79460297D01*
X110935000Y-79475000D01*
X110935000Y-81225000D01*
X110934278Y-81239703D01*
X110932118Y-81254264D01*
X110928541Y-81268543D01*
X110923582Y-81282403D01*
X110917288Y-81295710D01*
X110909720Y-81308336D01*
X110900952Y-81320159D01*
X110891066Y-81331066D01*
X110880159Y-81340952D01*
X110868336Y-81349720D01*
X110855710Y-81357288D01*
X110842403Y-81363582D01*
X110828543Y-81368541D01*
X110814264Y-81372118D01*
X110799703Y-81374278D01*
X110785000Y-81375000D01*
X110485000Y-81375000D01*
X110470297Y-81374278D01*
X110455736Y-81372118D01*
X110441457Y-81368541D01*
X110427597Y-81363582D01*
X110414290Y-81357288D01*
X110401664Y-81349720D01*
X110389841Y-81340952D01*
X110378934Y-81331066D01*
X110369048Y-81320159D01*
X110360280Y-81308336D01*
X110352712Y-81295710D01*
X110346418Y-81282403D01*
X110341459Y-81268543D01*
X110337882Y-81254264D01*
X110335722Y-81239703D01*
X110335000Y-81225000D01*
X110335000Y-79475000D01*
X110335722Y-79460297D01*
X110337882Y-79445736D01*
X110341459Y-79431457D01*
X110346418Y-79417597D01*
X110352712Y-79404290D01*
X110360280Y-79391664D01*
X110369048Y-79379841D01*
X110378934Y-79368934D01*
X110389841Y-79359048D01*
X110401664Y-79350280D01*
X110414290Y-79342712D01*
X110427597Y-79336418D01*
X110441457Y-79331459D01*
X110455736Y-79327882D01*
X110470297Y-79325722D01*
X110485000Y-79325000D01*
X110785000Y-79325000D01*
X110799703Y-79325722D01*
G37*
G04 #@! TD.AperFunction*
G04 #@! TA.AperFunction,SMDPad,CuDef*
G36*
X112069703Y-79325722D02*
G01*
X112084264Y-79327882D01*
X112098543Y-79331459D01*
X112112403Y-79336418D01*
X112125710Y-79342712D01*
X112138336Y-79350280D01*
X112150159Y-79359048D01*
X112161066Y-79368934D01*
X112170952Y-79379841D01*
X112179720Y-79391664D01*
X112187288Y-79404290D01*
X112193582Y-79417597D01*
X112198541Y-79431457D01*
X112202118Y-79445736D01*
X112204278Y-79460297D01*
X112205000Y-79475000D01*
X112205000Y-81225000D01*
X112204278Y-81239703D01*
X112202118Y-81254264D01*
X112198541Y-81268543D01*
X112193582Y-81282403D01*
X112187288Y-81295710D01*
X112179720Y-81308336D01*
X112170952Y-81320159D01*
X112161066Y-81331066D01*
X112150159Y-81340952D01*
X112138336Y-81349720D01*
X112125710Y-81357288D01*
X112112403Y-81363582D01*
X112098543Y-81368541D01*
X112084264Y-81372118D01*
X112069703Y-81374278D01*
X112055000Y-81375000D01*
X111755000Y-81375000D01*
X111740297Y-81374278D01*
X111725736Y-81372118D01*
X111711457Y-81368541D01*
X111697597Y-81363582D01*
X111684290Y-81357288D01*
X111671664Y-81349720D01*
X111659841Y-81340952D01*
X111648934Y-81331066D01*
X111639048Y-81320159D01*
X111630280Y-81308336D01*
X111622712Y-81295710D01*
X111616418Y-81282403D01*
X111611459Y-81268543D01*
X111607882Y-81254264D01*
X111605722Y-81239703D01*
X111605000Y-81225000D01*
X111605000Y-79475000D01*
X111605722Y-79460297D01*
X111607882Y-79445736D01*
X111611459Y-79431457D01*
X111616418Y-79417597D01*
X111622712Y-79404290D01*
X111630280Y-79391664D01*
X111639048Y-79379841D01*
X111648934Y-79368934D01*
X111659841Y-79359048D01*
X111671664Y-79350280D01*
X111684290Y-79342712D01*
X111697597Y-79336418D01*
X111711457Y-79331459D01*
X111725736Y-79327882D01*
X111740297Y-79325722D01*
X111755000Y-79325000D01*
X112055000Y-79325000D01*
X112069703Y-79325722D01*
G37*
G04 #@! TD.AperFunction*
G04 #@! TA.AperFunction,SMDPad,CuDef*
G36*
X113339703Y-79325722D02*
G01*
X113354264Y-79327882D01*
X113368543Y-79331459D01*
X113382403Y-79336418D01*
X113395710Y-79342712D01*
X113408336Y-79350280D01*
X113420159Y-79359048D01*
X113431066Y-79368934D01*
X113440952Y-79379841D01*
X113449720Y-79391664D01*
X113457288Y-79404290D01*
X113463582Y-79417597D01*
X113468541Y-79431457D01*
X113472118Y-79445736D01*
X113474278Y-79460297D01*
X113475000Y-79475000D01*
X113475000Y-81225000D01*
X113474278Y-81239703D01*
X113472118Y-81254264D01*
X113468541Y-81268543D01*
X113463582Y-81282403D01*
X113457288Y-81295710D01*
X113449720Y-81308336D01*
X113440952Y-81320159D01*
X113431066Y-81331066D01*
X113420159Y-81340952D01*
X113408336Y-81349720D01*
X113395710Y-81357288D01*
X113382403Y-81363582D01*
X113368543Y-81368541D01*
X113354264Y-81372118D01*
X113339703Y-81374278D01*
X113325000Y-81375000D01*
X113025000Y-81375000D01*
X113010297Y-81374278D01*
X112995736Y-81372118D01*
X112981457Y-81368541D01*
X112967597Y-81363582D01*
X112954290Y-81357288D01*
X112941664Y-81349720D01*
X112929841Y-81340952D01*
X112918934Y-81331066D01*
X112909048Y-81320159D01*
X112900280Y-81308336D01*
X112892712Y-81295710D01*
X112886418Y-81282403D01*
X112881459Y-81268543D01*
X112877882Y-81254264D01*
X112875722Y-81239703D01*
X112875000Y-81225000D01*
X112875000Y-79475000D01*
X112875722Y-79460297D01*
X112877882Y-79445736D01*
X112881459Y-79431457D01*
X112886418Y-79417597D01*
X112892712Y-79404290D01*
X112900280Y-79391664D01*
X112909048Y-79379841D01*
X112918934Y-79368934D01*
X112929841Y-79359048D01*
X112941664Y-79350280D01*
X112954290Y-79342712D01*
X112967597Y-79336418D01*
X112981457Y-79331459D01*
X112995736Y-79327882D01*
X113010297Y-79325722D01*
X113025000Y-79325000D01*
X113325000Y-79325000D01*
X113339703Y-79325722D01*
G37*
G04 #@! TD.AperFunction*
G04 #@! TA.AperFunction,SMDPad,CuDef*
G36*
X114609703Y-79325722D02*
G01*
X114624264Y-79327882D01*
X114638543Y-79331459D01*
X114652403Y-79336418D01*
X114665710Y-79342712D01*
X114678336Y-79350280D01*
X114690159Y-79359048D01*
X114701066Y-79368934D01*
X114710952Y-79379841D01*
X114719720Y-79391664D01*
X114727288Y-79404290D01*
X114733582Y-79417597D01*
X114738541Y-79431457D01*
X114742118Y-79445736D01*
X114744278Y-79460297D01*
X114745000Y-79475000D01*
X114745000Y-81225000D01*
X114744278Y-81239703D01*
X114742118Y-81254264D01*
X114738541Y-81268543D01*
X114733582Y-81282403D01*
X114727288Y-81295710D01*
X114719720Y-81308336D01*
X114710952Y-81320159D01*
X114701066Y-81331066D01*
X114690159Y-81340952D01*
X114678336Y-81349720D01*
X114665710Y-81357288D01*
X114652403Y-81363582D01*
X114638543Y-81368541D01*
X114624264Y-81372118D01*
X114609703Y-81374278D01*
X114595000Y-81375000D01*
X114295000Y-81375000D01*
X114280297Y-81374278D01*
X114265736Y-81372118D01*
X114251457Y-81368541D01*
X114237597Y-81363582D01*
X114224290Y-81357288D01*
X114211664Y-81349720D01*
X114199841Y-81340952D01*
X114188934Y-81331066D01*
X114179048Y-81320159D01*
X114170280Y-81308336D01*
X114162712Y-81295710D01*
X114156418Y-81282403D01*
X114151459Y-81268543D01*
X114147882Y-81254264D01*
X114145722Y-81239703D01*
X114145000Y-81225000D01*
X114145000Y-79475000D01*
X114145722Y-79460297D01*
X114147882Y-79445736D01*
X114151459Y-79431457D01*
X114156418Y-79417597D01*
X114162712Y-79404290D01*
X114170280Y-79391664D01*
X114179048Y-79379841D01*
X114188934Y-79368934D01*
X114199841Y-79359048D01*
X114211664Y-79350280D01*
X114224290Y-79342712D01*
X114237597Y-79336418D01*
X114251457Y-79331459D01*
X114265736Y-79327882D01*
X114280297Y-79325722D01*
X114295000Y-79325000D01*
X114595000Y-79325000D01*
X114609703Y-79325722D01*
G37*
G04 #@! TD.AperFunction*
G04 #@! TA.AperFunction,SMDPad,CuDef*
G36*
X114609703Y-88625722D02*
G01*
X114624264Y-88627882D01*
X114638543Y-88631459D01*
X114652403Y-88636418D01*
X114665710Y-88642712D01*
X114678336Y-88650280D01*
X114690159Y-88659048D01*
X114701066Y-88668934D01*
X114710952Y-88679841D01*
X114719720Y-88691664D01*
X114727288Y-88704290D01*
X114733582Y-88717597D01*
X114738541Y-88731457D01*
X114742118Y-88745736D01*
X114744278Y-88760297D01*
X114745000Y-88775000D01*
X114745000Y-90525000D01*
X114744278Y-90539703D01*
X114742118Y-90554264D01*
X114738541Y-90568543D01*
X114733582Y-90582403D01*
X114727288Y-90595710D01*
X114719720Y-90608336D01*
X114710952Y-90620159D01*
X114701066Y-90631066D01*
X114690159Y-90640952D01*
X114678336Y-90649720D01*
X114665710Y-90657288D01*
X114652403Y-90663582D01*
X114638543Y-90668541D01*
X114624264Y-90672118D01*
X114609703Y-90674278D01*
X114595000Y-90675000D01*
X114295000Y-90675000D01*
X114280297Y-90674278D01*
X114265736Y-90672118D01*
X114251457Y-90668541D01*
X114237597Y-90663582D01*
X114224290Y-90657288D01*
X114211664Y-90649720D01*
X114199841Y-90640952D01*
X114188934Y-90631066D01*
X114179048Y-90620159D01*
X114170280Y-90608336D01*
X114162712Y-90595710D01*
X114156418Y-90582403D01*
X114151459Y-90568543D01*
X114147882Y-90554264D01*
X114145722Y-90539703D01*
X114145000Y-90525000D01*
X114145000Y-88775000D01*
X114145722Y-88760297D01*
X114147882Y-88745736D01*
X114151459Y-88731457D01*
X114156418Y-88717597D01*
X114162712Y-88704290D01*
X114170280Y-88691664D01*
X114179048Y-88679841D01*
X114188934Y-88668934D01*
X114199841Y-88659048D01*
X114211664Y-88650280D01*
X114224290Y-88642712D01*
X114237597Y-88636418D01*
X114251457Y-88631459D01*
X114265736Y-88627882D01*
X114280297Y-88625722D01*
X114295000Y-88625000D01*
X114595000Y-88625000D01*
X114609703Y-88625722D01*
G37*
G04 #@! TD.AperFunction*
G04 #@! TA.AperFunction,SMDPad,CuDef*
G36*
X113339703Y-88625722D02*
G01*
X113354264Y-88627882D01*
X113368543Y-88631459D01*
X113382403Y-88636418D01*
X113395710Y-88642712D01*
X113408336Y-88650280D01*
X113420159Y-88659048D01*
X113431066Y-88668934D01*
X113440952Y-88679841D01*
X113449720Y-88691664D01*
X113457288Y-88704290D01*
X113463582Y-88717597D01*
X113468541Y-88731457D01*
X113472118Y-88745736D01*
X113474278Y-88760297D01*
X113475000Y-88775000D01*
X113475000Y-90525000D01*
X113474278Y-90539703D01*
X113472118Y-90554264D01*
X113468541Y-90568543D01*
X113463582Y-90582403D01*
X113457288Y-90595710D01*
X113449720Y-90608336D01*
X113440952Y-90620159D01*
X113431066Y-90631066D01*
X113420159Y-90640952D01*
X113408336Y-90649720D01*
X113395710Y-90657288D01*
X113382403Y-90663582D01*
X113368543Y-90668541D01*
X113354264Y-90672118D01*
X113339703Y-90674278D01*
X113325000Y-90675000D01*
X113025000Y-90675000D01*
X113010297Y-90674278D01*
X112995736Y-90672118D01*
X112981457Y-90668541D01*
X112967597Y-90663582D01*
X112954290Y-90657288D01*
X112941664Y-90649720D01*
X112929841Y-90640952D01*
X112918934Y-90631066D01*
X112909048Y-90620159D01*
X112900280Y-90608336D01*
X112892712Y-90595710D01*
X112886418Y-90582403D01*
X112881459Y-90568543D01*
X112877882Y-90554264D01*
X112875722Y-90539703D01*
X112875000Y-90525000D01*
X112875000Y-88775000D01*
X112875722Y-88760297D01*
X112877882Y-88745736D01*
X112881459Y-88731457D01*
X112886418Y-88717597D01*
X112892712Y-88704290D01*
X112900280Y-88691664D01*
X112909048Y-88679841D01*
X112918934Y-88668934D01*
X112929841Y-88659048D01*
X112941664Y-88650280D01*
X112954290Y-88642712D01*
X112967597Y-88636418D01*
X112981457Y-88631459D01*
X112995736Y-88627882D01*
X113010297Y-88625722D01*
X113025000Y-88625000D01*
X113325000Y-88625000D01*
X113339703Y-88625722D01*
G37*
G04 #@! TD.AperFunction*
G04 #@! TA.AperFunction,SMDPad,CuDef*
G36*
X112069703Y-88625722D02*
G01*
X112084264Y-88627882D01*
X112098543Y-88631459D01*
X112112403Y-88636418D01*
X112125710Y-88642712D01*
X112138336Y-88650280D01*
X112150159Y-88659048D01*
X112161066Y-88668934D01*
X112170952Y-88679841D01*
X112179720Y-88691664D01*
X112187288Y-88704290D01*
X112193582Y-88717597D01*
X112198541Y-88731457D01*
X112202118Y-88745736D01*
X112204278Y-88760297D01*
X112205000Y-88775000D01*
X112205000Y-90525000D01*
X112204278Y-90539703D01*
X112202118Y-90554264D01*
X112198541Y-90568543D01*
X112193582Y-90582403D01*
X112187288Y-90595710D01*
X112179720Y-90608336D01*
X112170952Y-90620159D01*
X112161066Y-90631066D01*
X112150159Y-90640952D01*
X112138336Y-90649720D01*
X112125710Y-90657288D01*
X112112403Y-90663582D01*
X112098543Y-90668541D01*
X112084264Y-90672118D01*
X112069703Y-90674278D01*
X112055000Y-90675000D01*
X111755000Y-90675000D01*
X111740297Y-90674278D01*
X111725736Y-90672118D01*
X111711457Y-90668541D01*
X111697597Y-90663582D01*
X111684290Y-90657288D01*
X111671664Y-90649720D01*
X111659841Y-90640952D01*
X111648934Y-90631066D01*
X111639048Y-90620159D01*
X111630280Y-90608336D01*
X111622712Y-90595710D01*
X111616418Y-90582403D01*
X111611459Y-90568543D01*
X111607882Y-90554264D01*
X111605722Y-90539703D01*
X111605000Y-90525000D01*
X111605000Y-88775000D01*
X111605722Y-88760297D01*
X111607882Y-88745736D01*
X111611459Y-88731457D01*
X111616418Y-88717597D01*
X111622712Y-88704290D01*
X111630280Y-88691664D01*
X111639048Y-88679841D01*
X111648934Y-88668934D01*
X111659841Y-88659048D01*
X111671664Y-88650280D01*
X111684290Y-88642712D01*
X111697597Y-88636418D01*
X111711457Y-88631459D01*
X111725736Y-88627882D01*
X111740297Y-88625722D01*
X111755000Y-88625000D01*
X112055000Y-88625000D01*
X112069703Y-88625722D01*
G37*
G04 #@! TD.AperFunction*
G04 #@! TA.AperFunction,SMDPad,CuDef*
G36*
X110799703Y-88625722D02*
G01*
X110814264Y-88627882D01*
X110828543Y-88631459D01*
X110842403Y-88636418D01*
X110855710Y-88642712D01*
X110868336Y-88650280D01*
X110880159Y-88659048D01*
X110891066Y-88668934D01*
X110900952Y-88679841D01*
X110909720Y-88691664D01*
X110917288Y-88704290D01*
X110923582Y-88717597D01*
X110928541Y-88731457D01*
X110932118Y-88745736D01*
X110934278Y-88760297D01*
X110935000Y-88775000D01*
X110935000Y-90525000D01*
X110934278Y-90539703D01*
X110932118Y-90554264D01*
X110928541Y-90568543D01*
X110923582Y-90582403D01*
X110917288Y-90595710D01*
X110909720Y-90608336D01*
X110900952Y-90620159D01*
X110891066Y-90631066D01*
X110880159Y-90640952D01*
X110868336Y-90649720D01*
X110855710Y-90657288D01*
X110842403Y-90663582D01*
X110828543Y-90668541D01*
X110814264Y-90672118D01*
X110799703Y-90674278D01*
X110785000Y-90675000D01*
X110485000Y-90675000D01*
X110470297Y-90674278D01*
X110455736Y-90672118D01*
X110441457Y-90668541D01*
X110427597Y-90663582D01*
X110414290Y-90657288D01*
X110401664Y-90649720D01*
X110389841Y-90640952D01*
X110378934Y-90631066D01*
X110369048Y-90620159D01*
X110360280Y-90608336D01*
X110352712Y-90595710D01*
X110346418Y-90582403D01*
X110341459Y-90568543D01*
X110337882Y-90554264D01*
X110335722Y-90539703D01*
X110335000Y-90525000D01*
X110335000Y-88775000D01*
X110335722Y-88760297D01*
X110337882Y-88745736D01*
X110341459Y-88731457D01*
X110346418Y-88717597D01*
X110352712Y-88704290D01*
X110360280Y-88691664D01*
X110369048Y-88679841D01*
X110378934Y-88668934D01*
X110389841Y-88659048D01*
X110401664Y-88650280D01*
X110414290Y-88642712D01*
X110427597Y-88636418D01*
X110441457Y-88631459D01*
X110455736Y-88627882D01*
X110470297Y-88625722D01*
X110485000Y-88625000D01*
X110785000Y-88625000D01*
X110799703Y-88625722D01*
G37*
G04 #@! TD.AperFunction*
G04 #@! TA.AperFunction,SMDPad,CuDef*
G36*
X109529703Y-88625722D02*
G01*
X109544264Y-88627882D01*
X109558543Y-88631459D01*
X109572403Y-88636418D01*
X109585710Y-88642712D01*
X109598336Y-88650280D01*
X109610159Y-88659048D01*
X109621066Y-88668934D01*
X109630952Y-88679841D01*
X109639720Y-88691664D01*
X109647288Y-88704290D01*
X109653582Y-88717597D01*
X109658541Y-88731457D01*
X109662118Y-88745736D01*
X109664278Y-88760297D01*
X109665000Y-88775000D01*
X109665000Y-90525000D01*
X109664278Y-90539703D01*
X109662118Y-90554264D01*
X109658541Y-90568543D01*
X109653582Y-90582403D01*
X109647288Y-90595710D01*
X109639720Y-90608336D01*
X109630952Y-90620159D01*
X109621066Y-90631066D01*
X109610159Y-90640952D01*
X109598336Y-90649720D01*
X109585710Y-90657288D01*
X109572403Y-90663582D01*
X109558543Y-90668541D01*
X109544264Y-90672118D01*
X109529703Y-90674278D01*
X109515000Y-90675000D01*
X109215000Y-90675000D01*
X109200297Y-90674278D01*
X109185736Y-90672118D01*
X109171457Y-90668541D01*
X109157597Y-90663582D01*
X109144290Y-90657288D01*
X109131664Y-90649720D01*
X109119841Y-90640952D01*
X109108934Y-90631066D01*
X109099048Y-90620159D01*
X109090280Y-90608336D01*
X109082712Y-90595710D01*
X109076418Y-90582403D01*
X109071459Y-90568543D01*
X109067882Y-90554264D01*
X109065722Y-90539703D01*
X109065000Y-90525000D01*
X109065000Y-88775000D01*
X109065722Y-88760297D01*
X109067882Y-88745736D01*
X109071459Y-88731457D01*
X109076418Y-88717597D01*
X109082712Y-88704290D01*
X109090280Y-88691664D01*
X109099048Y-88679841D01*
X109108934Y-88668934D01*
X109119841Y-88659048D01*
X109131664Y-88650280D01*
X109144290Y-88642712D01*
X109157597Y-88636418D01*
X109171457Y-88631459D01*
X109185736Y-88627882D01*
X109200297Y-88625722D01*
X109215000Y-88625000D01*
X109515000Y-88625000D01*
X109529703Y-88625722D01*
G37*
G04 #@! TD.AperFunction*
G04 #@! TA.AperFunction,SMDPad,CuDef*
G36*
X108259703Y-88625722D02*
G01*
X108274264Y-88627882D01*
X108288543Y-88631459D01*
X108302403Y-88636418D01*
X108315710Y-88642712D01*
X108328336Y-88650280D01*
X108340159Y-88659048D01*
X108351066Y-88668934D01*
X108360952Y-88679841D01*
X108369720Y-88691664D01*
X108377288Y-88704290D01*
X108383582Y-88717597D01*
X108388541Y-88731457D01*
X108392118Y-88745736D01*
X108394278Y-88760297D01*
X108395000Y-88775000D01*
X108395000Y-90525000D01*
X108394278Y-90539703D01*
X108392118Y-90554264D01*
X108388541Y-90568543D01*
X108383582Y-90582403D01*
X108377288Y-90595710D01*
X108369720Y-90608336D01*
X108360952Y-90620159D01*
X108351066Y-90631066D01*
X108340159Y-90640952D01*
X108328336Y-90649720D01*
X108315710Y-90657288D01*
X108302403Y-90663582D01*
X108288543Y-90668541D01*
X108274264Y-90672118D01*
X108259703Y-90674278D01*
X108245000Y-90675000D01*
X107945000Y-90675000D01*
X107930297Y-90674278D01*
X107915736Y-90672118D01*
X107901457Y-90668541D01*
X107887597Y-90663582D01*
X107874290Y-90657288D01*
X107861664Y-90649720D01*
X107849841Y-90640952D01*
X107838934Y-90631066D01*
X107829048Y-90620159D01*
X107820280Y-90608336D01*
X107812712Y-90595710D01*
X107806418Y-90582403D01*
X107801459Y-90568543D01*
X107797882Y-90554264D01*
X107795722Y-90539703D01*
X107795000Y-90525000D01*
X107795000Y-88775000D01*
X107795722Y-88760297D01*
X107797882Y-88745736D01*
X107801459Y-88731457D01*
X107806418Y-88717597D01*
X107812712Y-88704290D01*
X107820280Y-88691664D01*
X107829048Y-88679841D01*
X107838934Y-88668934D01*
X107849841Y-88659048D01*
X107861664Y-88650280D01*
X107874290Y-88642712D01*
X107887597Y-88636418D01*
X107901457Y-88631459D01*
X107915736Y-88627882D01*
X107930297Y-88625722D01*
X107945000Y-88625000D01*
X108245000Y-88625000D01*
X108259703Y-88625722D01*
G37*
G04 #@! TD.AperFunction*
G04 #@! TA.AperFunction,SMDPad,CuDef*
G36*
X106989703Y-88625722D02*
G01*
X107004264Y-88627882D01*
X107018543Y-88631459D01*
X107032403Y-88636418D01*
X107045710Y-88642712D01*
X107058336Y-88650280D01*
X107070159Y-88659048D01*
X107081066Y-88668934D01*
X107090952Y-88679841D01*
X107099720Y-88691664D01*
X107107288Y-88704290D01*
X107113582Y-88717597D01*
X107118541Y-88731457D01*
X107122118Y-88745736D01*
X107124278Y-88760297D01*
X107125000Y-88775000D01*
X107125000Y-90525000D01*
X107124278Y-90539703D01*
X107122118Y-90554264D01*
X107118541Y-90568543D01*
X107113582Y-90582403D01*
X107107288Y-90595710D01*
X107099720Y-90608336D01*
X107090952Y-90620159D01*
X107081066Y-90631066D01*
X107070159Y-90640952D01*
X107058336Y-90649720D01*
X107045710Y-90657288D01*
X107032403Y-90663582D01*
X107018543Y-90668541D01*
X107004264Y-90672118D01*
X106989703Y-90674278D01*
X106975000Y-90675000D01*
X106675000Y-90675000D01*
X106660297Y-90674278D01*
X106645736Y-90672118D01*
X106631457Y-90668541D01*
X106617597Y-90663582D01*
X106604290Y-90657288D01*
X106591664Y-90649720D01*
X106579841Y-90640952D01*
X106568934Y-90631066D01*
X106559048Y-90620159D01*
X106550280Y-90608336D01*
X106542712Y-90595710D01*
X106536418Y-90582403D01*
X106531459Y-90568543D01*
X106527882Y-90554264D01*
X106525722Y-90539703D01*
X106525000Y-90525000D01*
X106525000Y-88775000D01*
X106525722Y-88760297D01*
X106527882Y-88745736D01*
X106531459Y-88731457D01*
X106536418Y-88717597D01*
X106542712Y-88704290D01*
X106550280Y-88691664D01*
X106559048Y-88679841D01*
X106568934Y-88668934D01*
X106579841Y-88659048D01*
X106591664Y-88650280D01*
X106604290Y-88642712D01*
X106617597Y-88636418D01*
X106631457Y-88631459D01*
X106645736Y-88627882D01*
X106660297Y-88625722D01*
X106675000Y-88625000D01*
X106975000Y-88625000D01*
X106989703Y-88625722D01*
G37*
G04 #@! TD.AperFunction*
G04 #@! TA.AperFunction,SMDPad,CuDef*
G36*
X105719703Y-88625722D02*
G01*
X105734264Y-88627882D01*
X105748543Y-88631459D01*
X105762403Y-88636418D01*
X105775710Y-88642712D01*
X105788336Y-88650280D01*
X105800159Y-88659048D01*
X105811066Y-88668934D01*
X105820952Y-88679841D01*
X105829720Y-88691664D01*
X105837288Y-88704290D01*
X105843582Y-88717597D01*
X105848541Y-88731457D01*
X105852118Y-88745736D01*
X105854278Y-88760297D01*
X105855000Y-88775000D01*
X105855000Y-90525000D01*
X105854278Y-90539703D01*
X105852118Y-90554264D01*
X105848541Y-90568543D01*
X105843582Y-90582403D01*
X105837288Y-90595710D01*
X105829720Y-90608336D01*
X105820952Y-90620159D01*
X105811066Y-90631066D01*
X105800159Y-90640952D01*
X105788336Y-90649720D01*
X105775710Y-90657288D01*
X105762403Y-90663582D01*
X105748543Y-90668541D01*
X105734264Y-90672118D01*
X105719703Y-90674278D01*
X105705000Y-90675000D01*
X105405000Y-90675000D01*
X105390297Y-90674278D01*
X105375736Y-90672118D01*
X105361457Y-90668541D01*
X105347597Y-90663582D01*
X105334290Y-90657288D01*
X105321664Y-90649720D01*
X105309841Y-90640952D01*
X105298934Y-90631066D01*
X105289048Y-90620159D01*
X105280280Y-90608336D01*
X105272712Y-90595710D01*
X105266418Y-90582403D01*
X105261459Y-90568543D01*
X105257882Y-90554264D01*
X105255722Y-90539703D01*
X105255000Y-90525000D01*
X105255000Y-88775000D01*
X105255722Y-88760297D01*
X105257882Y-88745736D01*
X105261459Y-88731457D01*
X105266418Y-88717597D01*
X105272712Y-88704290D01*
X105280280Y-88691664D01*
X105289048Y-88679841D01*
X105298934Y-88668934D01*
X105309841Y-88659048D01*
X105321664Y-88650280D01*
X105334290Y-88642712D01*
X105347597Y-88636418D01*
X105361457Y-88631459D01*
X105375736Y-88627882D01*
X105390297Y-88625722D01*
X105405000Y-88625000D01*
X105705000Y-88625000D01*
X105719703Y-88625722D01*
G37*
G04 #@! TD.AperFunction*
G04 #@! TA.AperFunction,SMDPad,CuDef*
G36*
X123719703Y-79325722D02*
G01*
X123734264Y-79327882D01*
X123748543Y-79331459D01*
X123762403Y-79336418D01*
X123775710Y-79342712D01*
X123788336Y-79350280D01*
X123800159Y-79359048D01*
X123811066Y-79368934D01*
X123820952Y-79379841D01*
X123829720Y-79391664D01*
X123837288Y-79404290D01*
X123843582Y-79417597D01*
X123848541Y-79431457D01*
X123852118Y-79445736D01*
X123854278Y-79460297D01*
X123855000Y-79475000D01*
X123855000Y-81225000D01*
X123854278Y-81239703D01*
X123852118Y-81254264D01*
X123848541Y-81268543D01*
X123843582Y-81282403D01*
X123837288Y-81295710D01*
X123829720Y-81308336D01*
X123820952Y-81320159D01*
X123811066Y-81331066D01*
X123800159Y-81340952D01*
X123788336Y-81349720D01*
X123775710Y-81357288D01*
X123762403Y-81363582D01*
X123748543Y-81368541D01*
X123734264Y-81372118D01*
X123719703Y-81374278D01*
X123705000Y-81375000D01*
X123405000Y-81375000D01*
X123390297Y-81374278D01*
X123375736Y-81372118D01*
X123361457Y-81368541D01*
X123347597Y-81363582D01*
X123334290Y-81357288D01*
X123321664Y-81349720D01*
X123309841Y-81340952D01*
X123298934Y-81331066D01*
X123289048Y-81320159D01*
X123280280Y-81308336D01*
X123272712Y-81295710D01*
X123266418Y-81282403D01*
X123261459Y-81268543D01*
X123257882Y-81254264D01*
X123255722Y-81239703D01*
X123255000Y-81225000D01*
X123255000Y-79475000D01*
X123255722Y-79460297D01*
X123257882Y-79445736D01*
X123261459Y-79431457D01*
X123266418Y-79417597D01*
X123272712Y-79404290D01*
X123280280Y-79391664D01*
X123289048Y-79379841D01*
X123298934Y-79368934D01*
X123309841Y-79359048D01*
X123321664Y-79350280D01*
X123334290Y-79342712D01*
X123347597Y-79336418D01*
X123361457Y-79331459D01*
X123375736Y-79327882D01*
X123390297Y-79325722D01*
X123405000Y-79325000D01*
X123705000Y-79325000D01*
X123719703Y-79325722D01*
G37*
G04 #@! TD.AperFunction*
G04 #@! TA.AperFunction,SMDPad,CuDef*
G36*
X124989703Y-79325722D02*
G01*
X125004264Y-79327882D01*
X125018543Y-79331459D01*
X125032403Y-79336418D01*
X125045710Y-79342712D01*
X125058336Y-79350280D01*
X125070159Y-79359048D01*
X125081066Y-79368934D01*
X125090952Y-79379841D01*
X125099720Y-79391664D01*
X125107288Y-79404290D01*
X125113582Y-79417597D01*
X125118541Y-79431457D01*
X125122118Y-79445736D01*
X125124278Y-79460297D01*
X125125000Y-79475000D01*
X125125000Y-81225000D01*
X125124278Y-81239703D01*
X125122118Y-81254264D01*
X125118541Y-81268543D01*
X125113582Y-81282403D01*
X125107288Y-81295710D01*
X125099720Y-81308336D01*
X125090952Y-81320159D01*
X125081066Y-81331066D01*
X125070159Y-81340952D01*
X125058336Y-81349720D01*
X125045710Y-81357288D01*
X125032403Y-81363582D01*
X125018543Y-81368541D01*
X125004264Y-81372118D01*
X124989703Y-81374278D01*
X124975000Y-81375000D01*
X124675000Y-81375000D01*
X124660297Y-81374278D01*
X124645736Y-81372118D01*
X124631457Y-81368541D01*
X124617597Y-81363582D01*
X124604290Y-81357288D01*
X124591664Y-81349720D01*
X124579841Y-81340952D01*
X124568934Y-81331066D01*
X124559048Y-81320159D01*
X124550280Y-81308336D01*
X124542712Y-81295710D01*
X124536418Y-81282403D01*
X124531459Y-81268543D01*
X124527882Y-81254264D01*
X124525722Y-81239703D01*
X124525000Y-81225000D01*
X124525000Y-79475000D01*
X124525722Y-79460297D01*
X124527882Y-79445736D01*
X124531459Y-79431457D01*
X124536418Y-79417597D01*
X124542712Y-79404290D01*
X124550280Y-79391664D01*
X124559048Y-79379841D01*
X124568934Y-79368934D01*
X124579841Y-79359048D01*
X124591664Y-79350280D01*
X124604290Y-79342712D01*
X124617597Y-79336418D01*
X124631457Y-79331459D01*
X124645736Y-79327882D01*
X124660297Y-79325722D01*
X124675000Y-79325000D01*
X124975000Y-79325000D01*
X124989703Y-79325722D01*
G37*
G04 #@! TD.AperFunction*
G04 #@! TA.AperFunction,SMDPad,CuDef*
G36*
X126259703Y-79325722D02*
G01*
X126274264Y-79327882D01*
X126288543Y-79331459D01*
X126302403Y-79336418D01*
X126315710Y-79342712D01*
X126328336Y-79350280D01*
X126340159Y-79359048D01*
X126351066Y-79368934D01*
X126360952Y-79379841D01*
X126369720Y-79391664D01*
X126377288Y-79404290D01*
X126383582Y-79417597D01*
X126388541Y-79431457D01*
X126392118Y-79445736D01*
X126394278Y-79460297D01*
X126395000Y-79475000D01*
X126395000Y-81225000D01*
X126394278Y-81239703D01*
X126392118Y-81254264D01*
X126388541Y-81268543D01*
X126383582Y-81282403D01*
X126377288Y-81295710D01*
X126369720Y-81308336D01*
X126360952Y-81320159D01*
X126351066Y-81331066D01*
X126340159Y-81340952D01*
X126328336Y-81349720D01*
X126315710Y-81357288D01*
X126302403Y-81363582D01*
X126288543Y-81368541D01*
X126274264Y-81372118D01*
X126259703Y-81374278D01*
X126245000Y-81375000D01*
X125945000Y-81375000D01*
X125930297Y-81374278D01*
X125915736Y-81372118D01*
X125901457Y-81368541D01*
X125887597Y-81363582D01*
X125874290Y-81357288D01*
X125861664Y-81349720D01*
X125849841Y-81340952D01*
X125838934Y-81331066D01*
X125829048Y-81320159D01*
X125820280Y-81308336D01*
X125812712Y-81295710D01*
X125806418Y-81282403D01*
X125801459Y-81268543D01*
X125797882Y-81254264D01*
X125795722Y-81239703D01*
X125795000Y-81225000D01*
X125795000Y-79475000D01*
X125795722Y-79460297D01*
X125797882Y-79445736D01*
X125801459Y-79431457D01*
X125806418Y-79417597D01*
X125812712Y-79404290D01*
X125820280Y-79391664D01*
X125829048Y-79379841D01*
X125838934Y-79368934D01*
X125849841Y-79359048D01*
X125861664Y-79350280D01*
X125874290Y-79342712D01*
X125887597Y-79336418D01*
X125901457Y-79331459D01*
X125915736Y-79327882D01*
X125930297Y-79325722D01*
X125945000Y-79325000D01*
X126245000Y-79325000D01*
X126259703Y-79325722D01*
G37*
G04 #@! TD.AperFunction*
G04 #@! TA.AperFunction,SMDPad,CuDef*
G36*
X127529703Y-79325722D02*
G01*
X127544264Y-79327882D01*
X127558543Y-79331459D01*
X127572403Y-79336418D01*
X127585710Y-79342712D01*
X127598336Y-79350280D01*
X127610159Y-79359048D01*
X127621066Y-79368934D01*
X127630952Y-79379841D01*
X127639720Y-79391664D01*
X127647288Y-79404290D01*
X127653582Y-79417597D01*
X127658541Y-79431457D01*
X127662118Y-79445736D01*
X127664278Y-79460297D01*
X127665000Y-79475000D01*
X127665000Y-81225000D01*
X127664278Y-81239703D01*
X127662118Y-81254264D01*
X127658541Y-81268543D01*
X127653582Y-81282403D01*
X127647288Y-81295710D01*
X127639720Y-81308336D01*
X127630952Y-81320159D01*
X127621066Y-81331066D01*
X127610159Y-81340952D01*
X127598336Y-81349720D01*
X127585710Y-81357288D01*
X127572403Y-81363582D01*
X127558543Y-81368541D01*
X127544264Y-81372118D01*
X127529703Y-81374278D01*
X127515000Y-81375000D01*
X127215000Y-81375000D01*
X127200297Y-81374278D01*
X127185736Y-81372118D01*
X127171457Y-81368541D01*
X127157597Y-81363582D01*
X127144290Y-81357288D01*
X127131664Y-81349720D01*
X127119841Y-81340952D01*
X127108934Y-81331066D01*
X127099048Y-81320159D01*
X127090280Y-81308336D01*
X127082712Y-81295710D01*
X127076418Y-81282403D01*
X127071459Y-81268543D01*
X127067882Y-81254264D01*
X127065722Y-81239703D01*
X127065000Y-81225000D01*
X127065000Y-79475000D01*
X127065722Y-79460297D01*
X127067882Y-79445736D01*
X127071459Y-79431457D01*
X127076418Y-79417597D01*
X127082712Y-79404290D01*
X127090280Y-79391664D01*
X127099048Y-79379841D01*
X127108934Y-79368934D01*
X127119841Y-79359048D01*
X127131664Y-79350280D01*
X127144290Y-79342712D01*
X127157597Y-79336418D01*
X127171457Y-79331459D01*
X127185736Y-79327882D01*
X127200297Y-79325722D01*
X127215000Y-79325000D01*
X127515000Y-79325000D01*
X127529703Y-79325722D01*
G37*
G04 #@! TD.AperFunction*
G04 #@! TA.AperFunction,SMDPad,CuDef*
G36*
X128799703Y-79325722D02*
G01*
X128814264Y-79327882D01*
X128828543Y-79331459D01*
X128842403Y-79336418D01*
X128855710Y-79342712D01*
X128868336Y-79350280D01*
X128880159Y-79359048D01*
X128891066Y-79368934D01*
X128900952Y-79379841D01*
X128909720Y-79391664D01*
X128917288Y-79404290D01*
X128923582Y-79417597D01*
X128928541Y-79431457D01*
X128932118Y-79445736D01*
X128934278Y-79460297D01*
X128935000Y-79475000D01*
X128935000Y-81225000D01*
X128934278Y-81239703D01*
X128932118Y-81254264D01*
X128928541Y-81268543D01*
X128923582Y-81282403D01*
X128917288Y-81295710D01*
X128909720Y-81308336D01*
X128900952Y-81320159D01*
X128891066Y-81331066D01*
X128880159Y-81340952D01*
X128868336Y-81349720D01*
X128855710Y-81357288D01*
X128842403Y-81363582D01*
X128828543Y-81368541D01*
X128814264Y-81372118D01*
X128799703Y-81374278D01*
X128785000Y-81375000D01*
X128485000Y-81375000D01*
X128470297Y-81374278D01*
X128455736Y-81372118D01*
X128441457Y-81368541D01*
X128427597Y-81363582D01*
X128414290Y-81357288D01*
X128401664Y-81349720D01*
X128389841Y-81340952D01*
X128378934Y-81331066D01*
X128369048Y-81320159D01*
X128360280Y-81308336D01*
X128352712Y-81295710D01*
X128346418Y-81282403D01*
X128341459Y-81268543D01*
X128337882Y-81254264D01*
X128335722Y-81239703D01*
X128335000Y-81225000D01*
X128335000Y-79475000D01*
X128335722Y-79460297D01*
X128337882Y-79445736D01*
X128341459Y-79431457D01*
X128346418Y-79417597D01*
X128352712Y-79404290D01*
X128360280Y-79391664D01*
X128369048Y-79379841D01*
X128378934Y-79368934D01*
X128389841Y-79359048D01*
X128401664Y-79350280D01*
X128414290Y-79342712D01*
X128427597Y-79336418D01*
X128441457Y-79331459D01*
X128455736Y-79327882D01*
X128470297Y-79325722D01*
X128485000Y-79325000D01*
X128785000Y-79325000D01*
X128799703Y-79325722D01*
G37*
G04 #@! TD.AperFunction*
G04 #@! TA.AperFunction,SMDPad,CuDef*
G36*
X130069703Y-79325722D02*
G01*
X130084264Y-79327882D01*
X130098543Y-79331459D01*
X130112403Y-79336418D01*
X130125710Y-79342712D01*
X130138336Y-79350280D01*
X130150159Y-79359048D01*
X130161066Y-79368934D01*
X130170952Y-79379841D01*
X130179720Y-79391664D01*
X130187288Y-79404290D01*
X130193582Y-79417597D01*
X130198541Y-79431457D01*
X130202118Y-79445736D01*
X130204278Y-79460297D01*
X130205000Y-79475000D01*
X130205000Y-81225000D01*
X130204278Y-81239703D01*
X130202118Y-81254264D01*
X130198541Y-81268543D01*
X130193582Y-81282403D01*
X130187288Y-81295710D01*
X130179720Y-81308336D01*
X130170952Y-81320159D01*
X130161066Y-81331066D01*
X130150159Y-81340952D01*
X130138336Y-81349720D01*
X130125710Y-81357288D01*
X130112403Y-81363582D01*
X130098543Y-81368541D01*
X130084264Y-81372118D01*
X130069703Y-81374278D01*
X130055000Y-81375000D01*
X129755000Y-81375000D01*
X129740297Y-81374278D01*
X129725736Y-81372118D01*
X129711457Y-81368541D01*
X129697597Y-81363582D01*
X129684290Y-81357288D01*
X129671664Y-81349720D01*
X129659841Y-81340952D01*
X129648934Y-81331066D01*
X129639048Y-81320159D01*
X129630280Y-81308336D01*
X129622712Y-81295710D01*
X129616418Y-81282403D01*
X129611459Y-81268543D01*
X129607882Y-81254264D01*
X129605722Y-81239703D01*
X129605000Y-81225000D01*
X129605000Y-79475000D01*
X129605722Y-79460297D01*
X129607882Y-79445736D01*
X129611459Y-79431457D01*
X129616418Y-79417597D01*
X129622712Y-79404290D01*
X129630280Y-79391664D01*
X129639048Y-79379841D01*
X129648934Y-79368934D01*
X129659841Y-79359048D01*
X129671664Y-79350280D01*
X129684290Y-79342712D01*
X129697597Y-79336418D01*
X129711457Y-79331459D01*
X129725736Y-79327882D01*
X129740297Y-79325722D01*
X129755000Y-79325000D01*
X130055000Y-79325000D01*
X130069703Y-79325722D01*
G37*
G04 #@! TD.AperFunction*
G04 #@! TA.AperFunction,SMDPad,CuDef*
G36*
X131339703Y-79325722D02*
G01*
X131354264Y-79327882D01*
X131368543Y-79331459D01*
X131382403Y-79336418D01*
X131395710Y-79342712D01*
X131408336Y-79350280D01*
X131420159Y-79359048D01*
X131431066Y-79368934D01*
X131440952Y-79379841D01*
X131449720Y-79391664D01*
X131457288Y-79404290D01*
X131463582Y-79417597D01*
X131468541Y-79431457D01*
X131472118Y-79445736D01*
X131474278Y-79460297D01*
X131475000Y-79475000D01*
X131475000Y-81225000D01*
X131474278Y-81239703D01*
X131472118Y-81254264D01*
X131468541Y-81268543D01*
X131463582Y-81282403D01*
X131457288Y-81295710D01*
X131449720Y-81308336D01*
X131440952Y-81320159D01*
X131431066Y-81331066D01*
X131420159Y-81340952D01*
X131408336Y-81349720D01*
X131395710Y-81357288D01*
X131382403Y-81363582D01*
X131368543Y-81368541D01*
X131354264Y-81372118D01*
X131339703Y-81374278D01*
X131325000Y-81375000D01*
X131025000Y-81375000D01*
X131010297Y-81374278D01*
X130995736Y-81372118D01*
X130981457Y-81368541D01*
X130967597Y-81363582D01*
X130954290Y-81357288D01*
X130941664Y-81349720D01*
X130929841Y-81340952D01*
X130918934Y-81331066D01*
X130909048Y-81320159D01*
X130900280Y-81308336D01*
X130892712Y-81295710D01*
X130886418Y-81282403D01*
X130881459Y-81268543D01*
X130877882Y-81254264D01*
X130875722Y-81239703D01*
X130875000Y-81225000D01*
X130875000Y-79475000D01*
X130875722Y-79460297D01*
X130877882Y-79445736D01*
X130881459Y-79431457D01*
X130886418Y-79417597D01*
X130892712Y-79404290D01*
X130900280Y-79391664D01*
X130909048Y-79379841D01*
X130918934Y-79368934D01*
X130929841Y-79359048D01*
X130941664Y-79350280D01*
X130954290Y-79342712D01*
X130967597Y-79336418D01*
X130981457Y-79331459D01*
X130995736Y-79327882D01*
X131010297Y-79325722D01*
X131025000Y-79325000D01*
X131325000Y-79325000D01*
X131339703Y-79325722D01*
G37*
G04 #@! TD.AperFunction*
G04 #@! TA.AperFunction,SMDPad,CuDef*
G36*
X132609703Y-79325722D02*
G01*
X132624264Y-79327882D01*
X132638543Y-79331459D01*
X132652403Y-79336418D01*
X132665710Y-79342712D01*
X132678336Y-79350280D01*
X132690159Y-79359048D01*
X132701066Y-79368934D01*
X132710952Y-79379841D01*
X132719720Y-79391664D01*
X132727288Y-79404290D01*
X132733582Y-79417597D01*
X132738541Y-79431457D01*
X132742118Y-79445736D01*
X132744278Y-79460297D01*
X132745000Y-79475000D01*
X132745000Y-81225000D01*
X132744278Y-81239703D01*
X132742118Y-81254264D01*
X132738541Y-81268543D01*
X132733582Y-81282403D01*
X132727288Y-81295710D01*
X132719720Y-81308336D01*
X132710952Y-81320159D01*
X132701066Y-81331066D01*
X132690159Y-81340952D01*
X132678336Y-81349720D01*
X132665710Y-81357288D01*
X132652403Y-81363582D01*
X132638543Y-81368541D01*
X132624264Y-81372118D01*
X132609703Y-81374278D01*
X132595000Y-81375000D01*
X132295000Y-81375000D01*
X132280297Y-81374278D01*
X132265736Y-81372118D01*
X132251457Y-81368541D01*
X132237597Y-81363582D01*
X132224290Y-81357288D01*
X132211664Y-81349720D01*
X132199841Y-81340952D01*
X132188934Y-81331066D01*
X132179048Y-81320159D01*
X132170280Y-81308336D01*
X132162712Y-81295710D01*
X132156418Y-81282403D01*
X132151459Y-81268543D01*
X132147882Y-81254264D01*
X132145722Y-81239703D01*
X132145000Y-81225000D01*
X132145000Y-79475000D01*
X132145722Y-79460297D01*
X132147882Y-79445736D01*
X132151459Y-79431457D01*
X132156418Y-79417597D01*
X132162712Y-79404290D01*
X132170280Y-79391664D01*
X132179048Y-79379841D01*
X132188934Y-79368934D01*
X132199841Y-79359048D01*
X132211664Y-79350280D01*
X132224290Y-79342712D01*
X132237597Y-79336418D01*
X132251457Y-79331459D01*
X132265736Y-79327882D01*
X132280297Y-79325722D01*
X132295000Y-79325000D01*
X132595000Y-79325000D01*
X132609703Y-79325722D01*
G37*
G04 #@! TD.AperFunction*
G04 #@! TA.AperFunction,SMDPad,CuDef*
G36*
X132609703Y-88625722D02*
G01*
X132624264Y-88627882D01*
X132638543Y-88631459D01*
X132652403Y-88636418D01*
X132665710Y-88642712D01*
X132678336Y-88650280D01*
X132690159Y-88659048D01*
X132701066Y-88668934D01*
X132710952Y-88679841D01*
X132719720Y-88691664D01*
X132727288Y-88704290D01*
X132733582Y-88717597D01*
X132738541Y-88731457D01*
X132742118Y-88745736D01*
X132744278Y-88760297D01*
X132745000Y-88775000D01*
X132745000Y-90525000D01*
X132744278Y-90539703D01*
X132742118Y-90554264D01*
X132738541Y-90568543D01*
X132733582Y-90582403D01*
X132727288Y-90595710D01*
X132719720Y-90608336D01*
X132710952Y-90620159D01*
X132701066Y-90631066D01*
X132690159Y-90640952D01*
X132678336Y-90649720D01*
X132665710Y-90657288D01*
X132652403Y-90663582D01*
X132638543Y-90668541D01*
X132624264Y-90672118D01*
X132609703Y-90674278D01*
X132595000Y-90675000D01*
X132295000Y-90675000D01*
X132280297Y-90674278D01*
X132265736Y-90672118D01*
X132251457Y-90668541D01*
X132237597Y-90663582D01*
X132224290Y-90657288D01*
X132211664Y-90649720D01*
X132199841Y-90640952D01*
X132188934Y-90631066D01*
X132179048Y-90620159D01*
X132170280Y-90608336D01*
X132162712Y-90595710D01*
X132156418Y-90582403D01*
X132151459Y-90568543D01*
X132147882Y-90554264D01*
X132145722Y-90539703D01*
X132145000Y-90525000D01*
X132145000Y-88775000D01*
X132145722Y-88760297D01*
X132147882Y-88745736D01*
X132151459Y-88731457D01*
X132156418Y-88717597D01*
X132162712Y-88704290D01*
X132170280Y-88691664D01*
X132179048Y-88679841D01*
X132188934Y-88668934D01*
X132199841Y-88659048D01*
X132211664Y-88650280D01*
X132224290Y-88642712D01*
X132237597Y-88636418D01*
X132251457Y-88631459D01*
X132265736Y-88627882D01*
X132280297Y-88625722D01*
X132295000Y-88625000D01*
X132595000Y-88625000D01*
X132609703Y-88625722D01*
G37*
G04 #@! TD.AperFunction*
G04 #@! TA.AperFunction,SMDPad,CuDef*
G36*
X131339703Y-88625722D02*
G01*
X131354264Y-88627882D01*
X131368543Y-88631459D01*
X131382403Y-88636418D01*
X131395710Y-88642712D01*
X131408336Y-88650280D01*
X131420159Y-88659048D01*
X131431066Y-88668934D01*
X131440952Y-88679841D01*
X131449720Y-88691664D01*
X131457288Y-88704290D01*
X131463582Y-88717597D01*
X131468541Y-88731457D01*
X131472118Y-88745736D01*
X131474278Y-88760297D01*
X131475000Y-88775000D01*
X131475000Y-90525000D01*
X131474278Y-90539703D01*
X131472118Y-90554264D01*
X131468541Y-90568543D01*
X131463582Y-90582403D01*
X131457288Y-90595710D01*
X131449720Y-90608336D01*
X131440952Y-90620159D01*
X131431066Y-90631066D01*
X131420159Y-90640952D01*
X131408336Y-90649720D01*
X131395710Y-90657288D01*
X131382403Y-90663582D01*
X131368543Y-90668541D01*
X131354264Y-90672118D01*
X131339703Y-90674278D01*
X131325000Y-90675000D01*
X131025000Y-90675000D01*
X131010297Y-90674278D01*
X130995736Y-90672118D01*
X130981457Y-90668541D01*
X130967597Y-90663582D01*
X130954290Y-90657288D01*
X130941664Y-90649720D01*
X130929841Y-90640952D01*
X130918934Y-90631066D01*
X130909048Y-90620159D01*
X130900280Y-90608336D01*
X130892712Y-90595710D01*
X130886418Y-90582403D01*
X130881459Y-90568543D01*
X130877882Y-90554264D01*
X130875722Y-90539703D01*
X130875000Y-90525000D01*
X130875000Y-88775000D01*
X130875722Y-88760297D01*
X130877882Y-88745736D01*
X130881459Y-88731457D01*
X130886418Y-88717597D01*
X130892712Y-88704290D01*
X130900280Y-88691664D01*
X130909048Y-88679841D01*
X130918934Y-88668934D01*
X130929841Y-88659048D01*
X130941664Y-88650280D01*
X130954290Y-88642712D01*
X130967597Y-88636418D01*
X130981457Y-88631459D01*
X130995736Y-88627882D01*
X131010297Y-88625722D01*
X131025000Y-88625000D01*
X131325000Y-88625000D01*
X131339703Y-88625722D01*
G37*
G04 #@! TD.AperFunction*
G04 #@! TA.AperFunction,SMDPad,CuDef*
G36*
X130069703Y-88625722D02*
G01*
X130084264Y-88627882D01*
X130098543Y-88631459D01*
X130112403Y-88636418D01*
X130125710Y-88642712D01*
X130138336Y-88650280D01*
X130150159Y-88659048D01*
X130161066Y-88668934D01*
X130170952Y-88679841D01*
X130179720Y-88691664D01*
X130187288Y-88704290D01*
X130193582Y-88717597D01*
X130198541Y-88731457D01*
X130202118Y-88745736D01*
X130204278Y-88760297D01*
X130205000Y-88775000D01*
X130205000Y-90525000D01*
X130204278Y-90539703D01*
X130202118Y-90554264D01*
X130198541Y-90568543D01*
X130193582Y-90582403D01*
X130187288Y-90595710D01*
X130179720Y-90608336D01*
X130170952Y-90620159D01*
X130161066Y-90631066D01*
X130150159Y-90640952D01*
X130138336Y-90649720D01*
X130125710Y-90657288D01*
X130112403Y-90663582D01*
X130098543Y-90668541D01*
X130084264Y-90672118D01*
X130069703Y-90674278D01*
X130055000Y-90675000D01*
X129755000Y-90675000D01*
X129740297Y-90674278D01*
X129725736Y-90672118D01*
X129711457Y-90668541D01*
X129697597Y-90663582D01*
X129684290Y-90657288D01*
X129671664Y-90649720D01*
X129659841Y-90640952D01*
X129648934Y-90631066D01*
X129639048Y-90620159D01*
X129630280Y-90608336D01*
X129622712Y-90595710D01*
X129616418Y-90582403D01*
X129611459Y-90568543D01*
X129607882Y-90554264D01*
X129605722Y-90539703D01*
X129605000Y-90525000D01*
X129605000Y-88775000D01*
X129605722Y-88760297D01*
X129607882Y-88745736D01*
X129611459Y-88731457D01*
X129616418Y-88717597D01*
X129622712Y-88704290D01*
X129630280Y-88691664D01*
X129639048Y-88679841D01*
X129648934Y-88668934D01*
X129659841Y-88659048D01*
X129671664Y-88650280D01*
X129684290Y-88642712D01*
X129697597Y-88636418D01*
X129711457Y-88631459D01*
X129725736Y-88627882D01*
X129740297Y-88625722D01*
X129755000Y-88625000D01*
X130055000Y-88625000D01*
X130069703Y-88625722D01*
G37*
G04 #@! TD.AperFunction*
G04 #@! TA.AperFunction,SMDPad,CuDef*
G36*
X128799703Y-88625722D02*
G01*
X128814264Y-88627882D01*
X128828543Y-88631459D01*
X128842403Y-88636418D01*
X128855710Y-88642712D01*
X128868336Y-88650280D01*
X128880159Y-88659048D01*
X128891066Y-88668934D01*
X128900952Y-88679841D01*
X128909720Y-88691664D01*
X128917288Y-88704290D01*
X128923582Y-88717597D01*
X128928541Y-88731457D01*
X128932118Y-88745736D01*
X128934278Y-88760297D01*
X128935000Y-88775000D01*
X128935000Y-90525000D01*
X128934278Y-90539703D01*
X128932118Y-90554264D01*
X128928541Y-90568543D01*
X128923582Y-90582403D01*
X128917288Y-90595710D01*
X128909720Y-90608336D01*
X128900952Y-90620159D01*
X128891066Y-90631066D01*
X128880159Y-90640952D01*
X128868336Y-90649720D01*
X128855710Y-90657288D01*
X128842403Y-90663582D01*
X128828543Y-90668541D01*
X128814264Y-90672118D01*
X128799703Y-90674278D01*
X128785000Y-90675000D01*
X128485000Y-90675000D01*
X128470297Y-90674278D01*
X128455736Y-90672118D01*
X128441457Y-90668541D01*
X128427597Y-90663582D01*
X128414290Y-90657288D01*
X128401664Y-90649720D01*
X128389841Y-90640952D01*
X128378934Y-90631066D01*
X128369048Y-90620159D01*
X128360280Y-90608336D01*
X128352712Y-90595710D01*
X128346418Y-90582403D01*
X128341459Y-90568543D01*
X128337882Y-90554264D01*
X128335722Y-90539703D01*
X128335000Y-90525000D01*
X128335000Y-88775000D01*
X128335722Y-88760297D01*
X128337882Y-88745736D01*
X128341459Y-88731457D01*
X128346418Y-88717597D01*
X128352712Y-88704290D01*
X128360280Y-88691664D01*
X128369048Y-88679841D01*
X128378934Y-88668934D01*
X128389841Y-88659048D01*
X128401664Y-88650280D01*
X128414290Y-88642712D01*
X128427597Y-88636418D01*
X128441457Y-88631459D01*
X128455736Y-88627882D01*
X128470297Y-88625722D01*
X128485000Y-88625000D01*
X128785000Y-88625000D01*
X128799703Y-88625722D01*
G37*
G04 #@! TD.AperFunction*
G04 #@! TA.AperFunction,SMDPad,CuDef*
G36*
X127529703Y-88625722D02*
G01*
X127544264Y-88627882D01*
X127558543Y-88631459D01*
X127572403Y-88636418D01*
X127585710Y-88642712D01*
X127598336Y-88650280D01*
X127610159Y-88659048D01*
X127621066Y-88668934D01*
X127630952Y-88679841D01*
X127639720Y-88691664D01*
X127647288Y-88704290D01*
X127653582Y-88717597D01*
X127658541Y-88731457D01*
X127662118Y-88745736D01*
X127664278Y-88760297D01*
X127665000Y-88775000D01*
X127665000Y-90525000D01*
X127664278Y-90539703D01*
X127662118Y-90554264D01*
X127658541Y-90568543D01*
X127653582Y-90582403D01*
X127647288Y-90595710D01*
X127639720Y-90608336D01*
X127630952Y-90620159D01*
X127621066Y-90631066D01*
X127610159Y-90640952D01*
X127598336Y-90649720D01*
X127585710Y-90657288D01*
X127572403Y-90663582D01*
X127558543Y-90668541D01*
X127544264Y-90672118D01*
X127529703Y-90674278D01*
X127515000Y-90675000D01*
X127215000Y-90675000D01*
X127200297Y-90674278D01*
X127185736Y-90672118D01*
X127171457Y-90668541D01*
X127157597Y-90663582D01*
X127144290Y-90657288D01*
X127131664Y-90649720D01*
X127119841Y-90640952D01*
X127108934Y-90631066D01*
X127099048Y-90620159D01*
X127090280Y-90608336D01*
X127082712Y-90595710D01*
X127076418Y-90582403D01*
X127071459Y-90568543D01*
X127067882Y-90554264D01*
X127065722Y-90539703D01*
X127065000Y-90525000D01*
X127065000Y-88775000D01*
X127065722Y-88760297D01*
X127067882Y-88745736D01*
X127071459Y-88731457D01*
X127076418Y-88717597D01*
X127082712Y-88704290D01*
X127090280Y-88691664D01*
X127099048Y-88679841D01*
X127108934Y-88668934D01*
X127119841Y-88659048D01*
X127131664Y-88650280D01*
X127144290Y-88642712D01*
X127157597Y-88636418D01*
X127171457Y-88631459D01*
X127185736Y-88627882D01*
X127200297Y-88625722D01*
X127215000Y-88625000D01*
X127515000Y-88625000D01*
X127529703Y-88625722D01*
G37*
G04 #@! TD.AperFunction*
G04 #@! TA.AperFunction,SMDPad,CuDef*
G36*
X126259703Y-88625722D02*
G01*
X126274264Y-88627882D01*
X126288543Y-88631459D01*
X126302403Y-88636418D01*
X126315710Y-88642712D01*
X126328336Y-88650280D01*
X126340159Y-88659048D01*
X126351066Y-88668934D01*
X126360952Y-88679841D01*
X126369720Y-88691664D01*
X126377288Y-88704290D01*
X126383582Y-88717597D01*
X126388541Y-88731457D01*
X126392118Y-88745736D01*
X126394278Y-88760297D01*
X126395000Y-88775000D01*
X126395000Y-90525000D01*
X126394278Y-90539703D01*
X126392118Y-90554264D01*
X126388541Y-90568543D01*
X126383582Y-90582403D01*
X126377288Y-90595710D01*
X126369720Y-90608336D01*
X126360952Y-90620159D01*
X126351066Y-90631066D01*
X126340159Y-90640952D01*
X126328336Y-90649720D01*
X126315710Y-90657288D01*
X126302403Y-90663582D01*
X126288543Y-90668541D01*
X126274264Y-90672118D01*
X126259703Y-90674278D01*
X126245000Y-90675000D01*
X125945000Y-90675000D01*
X125930297Y-90674278D01*
X125915736Y-90672118D01*
X125901457Y-90668541D01*
X125887597Y-90663582D01*
X125874290Y-90657288D01*
X125861664Y-90649720D01*
X125849841Y-90640952D01*
X125838934Y-90631066D01*
X125829048Y-90620159D01*
X125820280Y-90608336D01*
X125812712Y-90595710D01*
X125806418Y-90582403D01*
X125801459Y-90568543D01*
X125797882Y-90554264D01*
X125795722Y-90539703D01*
X125795000Y-90525000D01*
X125795000Y-88775000D01*
X125795722Y-88760297D01*
X125797882Y-88745736D01*
X125801459Y-88731457D01*
X125806418Y-88717597D01*
X125812712Y-88704290D01*
X125820280Y-88691664D01*
X125829048Y-88679841D01*
X125838934Y-88668934D01*
X125849841Y-88659048D01*
X125861664Y-88650280D01*
X125874290Y-88642712D01*
X125887597Y-88636418D01*
X125901457Y-88631459D01*
X125915736Y-88627882D01*
X125930297Y-88625722D01*
X125945000Y-88625000D01*
X126245000Y-88625000D01*
X126259703Y-88625722D01*
G37*
G04 #@! TD.AperFunction*
G04 #@! TA.AperFunction,SMDPad,CuDef*
G36*
X124989703Y-88625722D02*
G01*
X125004264Y-88627882D01*
X125018543Y-88631459D01*
X125032403Y-88636418D01*
X125045710Y-88642712D01*
X125058336Y-88650280D01*
X125070159Y-88659048D01*
X125081066Y-88668934D01*
X125090952Y-88679841D01*
X125099720Y-88691664D01*
X125107288Y-88704290D01*
X125113582Y-88717597D01*
X125118541Y-88731457D01*
X125122118Y-88745736D01*
X125124278Y-88760297D01*
X125125000Y-88775000D01*
X125125000Y-90525000D01*
X125124278Y-90539703D01*
X125122118Y-90554264D01*
X125118541Y-90568543D01*
X125113582Y-90582403D01*
X125107288Y-90595710D01*
X125099720Y-90608336D01*
X125090952Y-90620159D01*
X125081066Y-90631066D01*
X125070159Y-90640952D01*
X125058336Y-90649720D01*
X125045710Y-90657288D01*
X125032403Y-90663582D01*
X125018543Y-90668541D01*
X125004264Y-90672118D01*
X124989703Y-90674278D01*
X124975000Y-90675000D01*
X124675000Y-90675000D01*
X124660297Y-90674278D01*
X124645736Y-90672118D01*
X124631457Y-90668541D01*
X124617597Y-90663582D01*
X124604290Y-90657288D01*
X124591664Y-90649720D01*
X124579841Y-90640952D01*
X124568934Y-90631066D01*
X124559048Y-90620159D01*
X124550280Y-90608336D01*
X124542712Y-90595710D01*
X124536418Y-90582403D01*
X124531459Y-90568543D01*
X124527882Y-90554264D01*
X124525722Y-90539703D01*
X124525000Y-90525000D01*
X124525000Y-88775000D01*
X124525722Y-88760297D01*
X124527882Y-88745736D01*
X124531459Y-88731457D01*
X124536418Y-88717597D01*
X124542712Y-88704290D01*
X124550280Y-88691664D01*
X124559048Y-88679841D01*
X124568934Y-88668934D01*
X124579841Y-88659048D01*
X124591664Y-88650280D01*
X124604290Y-88642712D01*
X124617597Y-88636418D01*
X124631457Y-88631459D01*
X124645736Y-88627882D01*
X124660297Y-88625722D01*
X124675000Y-88625000D01*
X124975000Y-88625000D01*
X124989703Y-88625722D01*
G37*
G04 #@! TD.AperFunction*
G04 #@! TA.AperFunction,SMDPad,CuDef*
G36*
X123719703Y-88625722D02*
G01*
X123734264Y-88627882D01*
X123748543Y-88631459D01*
X123762403Y-88636418D01*
X123775710Y-88642712D01*
X123788336Y-88650280D01*
X123800159Y-88659048D01*
X123811066Y-88668934D01*
X123820952Y-88679841D01*
X123829720Y-88691664D01*
X123837288Y-88704290D01*
X123843582Y-88717597D01*
X123848541Y-88731457D01*
X123852118Y-88745736D01*
X123854278Y-88760297D01*
X123855000Y-88775000D01*
X123855000Y-90525000D01*
X123854278Y-90539703D01*
X123852118Y-90554264D01*
X123848541Y-90568543D01*
X123843582Y-90582403D01*
X123837288Y-90595710D01*
X123829720Y-90608336D01*
X123820952Y-90620159D01*
X123811066Y-90631066D01*
X123800159Y-90640952D01*
X123788336Y-90649720D01*
X123775710Y-90657288D01*
X123762403Y-90663582D01*
X123748543Y-90668541D01*
X123734264Y-90672118D01*
X123719703Y-90674278D01*
X123705000Y-90675000D01*
X123405000Y-90675000D01*
X123390297Y-90674278D01*
X123375736Y-90672118D01*
X123361457Y-90668541D01*
X123347597Y-90663582D01*
X123334290Y-90657288D01*
X123321664Y-90649720D01*
X123309841Y-90640952D01*
X123298934Y-90631066D01*
X123289048Y-90620159D01*
X123280280Y-90608336D01*
X123272712Y-90595710D01*
X123266418Y-90582403D01*
X123261459Y-90568543D01*
X123257882Y-90554264D01*
X123255722Y-90539703D01*
X123255000Y-90525000D01*
X123255000Y-88775000D01*
X123255722Y-88760297D01*
X123257882Y-88745736D01*
X123261459Y-88731457D01*
X123266418Y-88717597D01*
X123272712Y-88704290D01*
X123280280Y-88691664D01*
X123289048Y-88679841D01*
X123298934Y-88668934D01*
X123309841Y-88659048D01*
X123321664Y-88650280D01*
X123334290Y-88642712D01*
X123347597Y-88636418D01*
X123361457Y-88631459D01*
X123375736Y-88627882D01*
X123390297Y-88625722D01*
X123405000Y-88625000D01*
X123705000Y-88625000D01*
X123719703Y-88625722D01*
G37*
G04 #@! TD.AperFunction*
G04 #@! TA.AperFunction,SMDPad,CuDef*
G36*
X190385000Y-114404000D02*
G01*
X190385000Y-113904000D01*
X190385602Y-113904000D01*
X190385602Y-113879466D01*
X190390412Y-113830635D01*
X190399984Y-113782510D01*
X190414228Y-113735555D01*
X190433005Y-113690222D01*
X190456136Y-113646949D01*
X190483396Y-113606150D01*
X190514524Y-113568221D01*
X190549221Y-113533524D01*
X190587150Y-113502396D01*
X190627949Y-113475136D01*
X190671222Y-113452005D01*
X190716555Y-113433228D01*
X190763510Y-113418984D01*
X190811635Y-113409412D01*
X190860466Y-113404602D01*
X190885000Y-113404602D01*
X190885000Y-113404000D01*
X191385000Y-113404000D01*
X191385000Y-113404602D01*
X191409534Y-113404602D01*
X191458365Y-113409412D01*
X191506490Y-113418984D01*
X191553445Y-113433228D01*
X191598778Y-113452005D01*
X191642051Y-113475136D01*
X191682850Y-113502396D01*
X191720779Y-113533524D01*
X191755476Y-113568221D01*
X191786604Y-113606150D01*
X191813864Y-113646949D01*
X191836995Y-113690222D01*
X191855772Y-113735555D01*
X191870016Y-113782510D01*
X191879588Y-113830635D01*
X191884398Y-113879466D01*
X191884398Y-113904000D01*
X191885000Y-113904000D01*
X191885000Y-114404000D01*
X190385000Y-114404000D01*
G37*
G04 #@! TD.AperFunction*
G04 #@! TA.AperFunction,SMDPad,CuDef*
G36*
X191884398Y-115204000D02*
G01*
X191884398Y-115228534D01*
X191879588Y-115277365D01*
X191870016Y-115325490D01*
X191855772Y-115372445D01*
X191836995Y-115417778D01*
X191813864Y-115461051D01*
X191786604Y-115501850D01*
X191755476Y-115539779D01*
X191720779Y-115574476D01*
X191682850Y-115605604D01*
X191642051Y-115632864D01*
X191598778Y-115655995D01*
X191553445Y-115674772D01*
X191506490Y-115689016D01*
X191458365Y-115698588D01*
X191409534Y-115703398D01*
X191385000Y-115703398D01*
X191385000Y-115704000D01*
X190885000Y-115704000D01*
X190885000Y-115703398D01*
X190860466Y-115703398D01*
X190811635Y-115698588D01*
X190763510Y-115689016D01*
X190716555Y-115674772D01*
X190671222Y-115655995D01*
X190627949Y-115632864D01*
X190587150Y-115605604D01*
X190549221Y-115574476D01*
X190514524Y-115539779D01*
X190483396Y-115501850D01*
X190456136Y-115461051D01*
X190433005Y-115417778D01*
X190414228Y-115372445D01*
X190399984Y-115325490D01*
X190390412Y-115277365D01*
X190385602Y-115228534D01*
X190385602Y-115204000D01*
X190385000Y-115204000D01*
X190385000Y-114704000D01*
X191885000Y-114704000D01*
X191885000Y-115204000D01*
X191884398Y-115204000D01*
G37*
G04 #@! TD.AperFunction*
D11*
X126492000Y-110236000D03*
X126492000Y-112776000D03*
D12*
X126492000Y-115316000D03*
D11*
X100000000Y-124940000D03*
X100000000Y-122400000D03*
X100000000Y-119860000D03*
X100000000Y-117320000D03*
X100000000Y-114780000D03*
X100000000Y-112240000D03*
X100000000Y-109700000D03*
X100000000Y-107160000D03*
X100000000Y-104620000D03*
X100000000Y-102080000D03*
X100000000Y-99540000D03*
D12*
X100000000Y-97000000D03*
D13*
X180200000Y-78200000D03*
X180200000Y-77100000D03*
X180200000Y-76000000D03*
X180200000Y-79300000D03*
X180200000Y-80400000D03*
X180200000Y-81500000D03*
X180200000Y-83700000D03*
X180200000Y-82600000D03*
X180200000Y-84800000D03*
D14*
X180700000Y-85950000D03*
D15*
X180700000Y-71350000D03*
D16*
X190300000Y-85950000D03*
X190300000Y-70450000D03*
D17*
X107696000Y-67056000D03*
X107696000Y-69596000D03*
X107696000Y-72136000D03*
G04 #@! TA.AperFunction,SMDPad,CuDef*
D10*
G36*
X166276160Y-75749720D02*
G01*
X166776160Y-75749720D01*
X166776160Y-75750322D01*
X166800694Y-75750322D01*
X166849525Y-75755132D01*
X166897650Y-75764704D01*
X166944605Y-75778948D01*
X166989938Y-75797725D01*
X167033211Y-75820856D01*
X167074010Y-75848116D01*
X167111939Y-75879244D01*
X167146636Y-75913941D01*
X167177764Y-75951870D01*
X167205024Y-75992669D01*
X167228155Y-76035942D01*
X167246932Y-76081275D01*
X167261176Y-76128230D01*
X167270748Y-76176355D01*
X167275558Y-76225186D01*
X167275558Y-76249720D01*
X167276160Y-76249720D01*
X167276160Y-76749720D01*
X167275558Y-76749720D01*
X167275558Y-76774254D01*
X167270748Y-76823085D01*
X167261176Y-76871210D01*
X167246932Y-76918165D01*
X167228155Y-76963498D01*
X167205024Y-77006771D01*
X167177764Y-77047570D01*
X167146636Y-77085499D01*
X167111939Y-77120196D01*
X167074010Y-77151324D01*
X167033211Y-77178584D01*
X166989938Y-77201715D01*
X166944605Y-77220492D01*
X166897650Y-77234736D01*
X166849525Y-77244308D01*
X166800694Y-77249118D01*
X166776160Y-77249118D01*
X166776160Y-77249720D01*
X166276160Y-77249720D01*
X166276160Y-75749720D01*
G37*
G04 #@! TD.AperFunction*
G04 #@! TA.AperFunction,SMDPad,CuDef*
G36*
X165476160Y-77249118D02*
G01*
X165451626Y-77249118D01*
X165402795Y-77244308D01*
X165354670Y-77234736D01*
X165307715Y-77220492D01*
X165262382Y-77201715D01*
X165219109Y-77178584D01*
X165178310Y-77151324D01*
X165140381Y-77120196D01*
X165105684Y-77085499D01*
X165074556Y-77047570D01*
X165047296Y-77006771D01*
X165024165Y-76963498D01*
X165005388Y-76918165D01*
X164991144Y-76871210D01*
X164981572Y-76823085D01*
X164976762Y-76774254D01*
X164976762Y-76749720D01*
X164976160Y-76749720D01*
X164976160Y-76249720D01*
X164976762Y-76249720D01*
X164976762Y-76225186D01*
X164981572Y-76176355D01*
X164991144Y-76128230D01*
X165005388Y-76081275D01*
X165024165Y-76035942D01*
X165047296Y-75992669D01*
X165074556Y-75951870D01*
X165105684Y-75913941D01*
X165140381Y-75879244D01*
X165178310Y-75848116D01*
X165219109Y-75820856D01*
X165262382Y-75797725D01*
X165307715Y-75778948D01*
X165354670Y-75764704D01*
X165402795Y-75755132D01*
X165451626Y-75750322D01*
X165476160Y-75750322D01*
X165476160Y-75749720D01*
X165976160Y-75749720D01*
X165976160Y-77249720D01*
X165476160Y-77249720D01*
X165476160Y-77249118D01*
G37*
G04 #@! TD.AperFunction*
G04 #@! TA.AperFunction,SMDPad,CuDef*
G36*
X168450400Y-92686440D02*
G01*
X168950400Y-92686440D01*
X168950400Y-92687042D01*
X168974934Y-92687042D01*
X169023765Y-92691852D01*
X169071890Y-92701424D01*
X169118845Y-92715668D01*
X169164178Y-92734445D01*
X169207451Y-92757576D01*
X169248250Y-92784836D01*
X169286179Y-92815964D01*
X169320876Y-92850661D01*
X169352004Y-92888590D01*
X169379264Y-92929389D01*
X169402395Y-92972662D01*
X169421172Y-93017995D01*
X169435416Y-93064950D01*
X169444988Y-93113075D01*
X169449798Y-93161906D01*
X169449798Y-93186440D01*
X169450400Y-93186440D01*
X169450400Y-93686440D01*
X169449798Y-93686440D01*
X169449798Y-93710974D01*
X169444988Y-93759805D01*
X169435416Y-93807930D01*
X169421172Y-93854885D01*
X169402395Y-93900218D01*
X169379264Y-93943491D01*
X169352004Y-93984290D01*
X169320876Y-94022219D01*
X169286179Y-94056916D01*
X169248250Y-94088044D01*
X169207451Y-94115304D01*
X169164178Y-94138435D01*
X169118845Y-94157212D01*
X169071890Y-94171456D01*
X169023765Y-94181028D01*
X168974934Y-94185838D01*
X168950400Y-94185838D01*
X168950400Y-94186440D01*
X168450400Y-94186440D01*
X168450400Y-92686440D01*
G37*
G04 #@! TD.AperFunction*
G04 #@! TA.AperFunction,SMDPad,CuDef*
G36*
X167650400Y-94185838D02*
G01*
X167625866Y-94185838D01*
X167577035Y-94181028D01*
X167528910Y-94171456D01*
X167481955Y-94157212D01*
X167436622Y-94138435D01*
X167393349Y-94115304D01*
X167352550Y-94088044D01*
X167314621Y-94056916D01*
X167279924Y-94022219D01*
X167248796Y-93984290D01*
X167221536Y-93943491D01*
X167198405Y-93900218D01*
X167179628Y-93854885D01*
X167165384Y-93807930D01*
X167155812Y-93759805D01*
X167151002Y-93710974D01*
X167151002Y-93686440D01*
X167150400Y-93686440D01*
X167150400Y-93186440D01*
X167151002Y-93186440D01*
X167151002Y-93161906D01*
X167155812Y-93113075D01*
X167165384Y-93064950D01*
X167179628Y-93017995D01*
X167198405Y-92972662D01*
X167221536Y-92929389D01*
X167248796Y-92888590D01*
X167279924Y-92850661D01*
X167314621Y-92815964D01*
X167352550Y-92784836D01*
X167393349Y-92757576D01*
X167436622Y-92734445D01*
X167481955Y-92715668D01*
X167528910Y-92701424D01*
X167577035Y-92691852D01*
X167625866Y-92687042D01*
X167650400Y-92687042D01*
X167650400Y-92686440D01*
X168150400Y-92686440D01*
X168150400Y-94186440D01*
X167650400Y-94186440D01*
X167650400Y-94185838D01*
G37*
G04 #@! TD.AperFunction*
G04 #@! TA.AperFunction,SMDPad,CuDef*
G36*
X164172760Y-94227080D02*
G01*
X163672760Y-94227080D01*
X163672760Y-94226478D01*
X163648226Y-94226478D01*
X163599395Y-94221668D01*
X163551270Y-94212096D01*
X163504315Y-94197852D01*
X163458982Y-94179075D01*
X163415709Y-94155944D01*
X163374910Y-94128684D01*
X163336981Y-94097556D01*
X163302284Y-94062859D01*
X163271156Y-94024930D01*
X163243896Y-93984131D01*
X163220765Y-93940858D01*
X163201988Y-93895525D01*
X163187744Y-93848570D01*
X163178172Y-93800445D01*
X163173362Y-93751614D01*
X163173362Y-93727080D01*
X163172760Y-93727080D01*
X163172760Y-93227080D01*
X163173362Y-93227080D01*
X163173362Y-93202546D01*
X163178172Y-93153715D01*
X163187744Y-93105590D01*
X163201988Y-93058635D01*
X163220765Y-93013302D01*
X163243896Y-92970029D01*
X163271156Y-92929230D01*
X163302284Y-92891301D01*
X163336981Y-92856604D01*
X163374910Y-92825476D01*
X163415709Y-92798216D01*
X163458982Y-92775085D01*
X163504315Y-92756308D01*
X163551270Y-92742064D01*
X163599395Y-92732492D01*
X163648226Y-92727682D01*
X163672760Y-92727682D01*
X163672760Y-92727080D01*
X164172760Y-92727080D01*
X164172760Y-94227080D01*
G37*
G04 #@! TD.AperFunction*
G04 #@! TA.AperFunction,SMDPad,CuDef*
G36*
X164972760Y-92727682D02*
G01*
X164997294Y-92727682D01*
X165046125Y-92732492D01*
X165094250Y-92742064D01*
X165141205Y-92756308D01*
X165186538Y-92775085D01*
X165229811Y-92798216D01*
X165270610Y-92825476D01*
X165308539Y-92856604D01*
X165343236Y-92891301D01*
X165374364Y-92929230D01*
X165401624Y-92970029D01*
X165424755Y-93013302D01*
X165443532Y-93058635D01*
X165457776Y-93105590D01*
X165467348Y-93153715D01*
X165472158Y-93202546D01*
X165472158Y-93227080D01*
X165472760Y-93227080D01*
X165472760Y-93727080D01*
X165472158Y-93727080D01*
X165472158Y-93751614D01*
X165467348Y-93800445D01*
X165457776Y-93848570D01*
X165443532Y-93895525D01*
X165424755Y-93940858D01*
X165401624Y-93984131D01*
X165374364Y-94024930D01*
X165343236Y-94062859D01*
X165308539Y-94097556D01*
X165270610Y-94128684D01*
X165229811Y-94155944D01*
X165186538Y-94179075D01*
X165141205Y-94197852D01*
X165094250Y-94212096D01*
X165046125Y-94221668D01*
X164997294Y-94226478D01*
X164972760Y-94226478D01*
X164972760Y-94227080D01*
X164472760Y-94227080D01*
X164472760Y-92727080D01*
X164972760Y-92727080D01*
X164972760Y-92727682D01*
G37*
G04 #@! TD.AperFunction*
G04 #@! TA.AperFunction,SMDPad,CuDef*
G36*
X105843920Y-107172760D02*
G01*
X105343920Y-107922760D01*
X104343920Y-107922760D01*
X104343920Y-106422760D01*
X105343920Y-106422760D01*
X105843920Y-107172760D01*
G37*
G04 #@! TD.AperFunction*
G04 #@! TA.AperFunction,SMDPad,CuDef*
G36*
X106793920Y-107922760D02*
G01*
X105643920Y-107922760D01*
X106143920Y-107172760D01*
X105643920Y-106422760D01*
X106793920Y-106422760D01*
X106793920Y-107922760D01*
G37*
G04 #@! TD.AperFunction*
G04 #@! TA.AperFunction,SMDPad,CuDef*
G36*
X105965840Y-117221000D02*
G01*
X105465840Y-117971000D01*
X104465840Y-117971000D01*
X104465840Y-116471000D01*
X105465840Y-116471000D01*
X105965840Y-117221000D01*
G37*
G04 #@! TD.AperFunction*
G04 #@! TA.AperFunction,SMDPad,CuDef*
G36*
X106915840Y-117971000D02*
G01*
X105765840Y-117971000D01*
X106265840Y-117221000D01*
X105765840Y-116471000D01*
X106915840Y-116471000D01*
X106915840Y-117971000D01*
G37*
G04 #@! TD.AperFunction*
G04 #@! TA.AperFunction,SMDPad,CuDef*
G36*
X105937560Y-104180640D02*
G01*
X105437560Y-104930640D01*
X104437560Y-104930640D01*
X104437560Y-103430640D01*
X105437560Y-103430640D01*
X105937560Y-104180640D01*
G37*
G04 #@! TD.AperFunction*
G04 #@! TA.AperFunction,SMDPad,CuDef*
G36*
X106887560Y-104930640D02*
G01*
X105737560Y-104930640D01*
X106237560Y-104180640D01*
X105737560Y-103430640D01*
X106887560Y-103430640D01*
X106887560Y-104930640D01*
G37*
G04 #@! TD.AperFunction*
G04 #@! TA.AperFunction,SMDPad,CuDef*
G36*
X106076160Y-100568760D02*
G01*
X105576160Y-101318760D01*
X104576160Y-101318760D01*
X104576160Y-99818760D01*
X105576160Y-99818760D01*
X106076160Y-100568760D01*
G37*
G04 #@! TD.AperFunction*
G04 #@! TA.AperFunction,SMDPad,CuDef*
G36*
X107026160Y-101318760D02*
G01*
X105876160Y-101318760D01*
X106376160Y-100568760D01*
X105876160Y-99818760D01*
X107026160Y-99818760D01*
X107026160Y-101318760D01*
G37*
G04 #@! TD.AperFunction*
D18*
X153640000Y-65040000D03*
X156180000Y-65040000D03*
X158720000Y-65040000D03*
X161260000Y-65040000D03*
X163800000Y-65040000D03*
X166340000Y-65040000D03*
X168880000Y-65040000D03*
X171420000Y-65040000D03*
X173960000Y-65040000D03*
X176500000Y-65040000D03*
X153640000Y-62500000D03*
X156180000Y-62500000D03*
X158720000Y-62500000D03*
X161260000Y-62500000D03*
X163800000Y-62500000D03*
X166340000Y-62500000D03*
X168880000Y-62500000D03*
X171420000Y-62500000D03*
X173960000Y-62500000D03*
G04 #@! TA.AperFunction,ComponentPad*
D10*
G36*
X177124504Y-61651204D02*
G01*
X177148773Y-61654804D01*
X177172571Y-61660765D01*
X177195671Y-61669030D01*
X177217849Y-61679520D01*
X177238893Y-61692133D01*
X177258598Y-61706747D01*
X177276777Y-61723223D01*
X177293253Y-61741402D01*
X177307867Y-61761107D01*
X177320480Y-61782151D01*
X177330970Y-61804329D01*
X177339235Y-61827429D01*
X177345196Y-61851227D01*
X177348796Y-61875496D01*
X177350000Y-61900000D01*
X177350000Y-63100000D01*
X177348796Y-63124504D01*
X177345196Y-63148773D01*
X177339235Y-63172571D01*
X177330970Y-63195671D01*
X177320480Y-63217849D01*
X177307867Y-63238893D01*
X177293253Y-63258598D01*
X177276777Y-63276777D01*
X177258598Y-63293253D01*
X177238893Y-63307867D01*
X177217849Y-63320480D01*
X177195671Y-63330970D01*
X177172571Y-63339235D01*
X177148773Y-63345196D01*
X177124504Y-63348796D01*
X177100000Y-63350000D01*
X175900000Y-63350000D01*
X175875496Y-63348796D01*
X175851227Y-63345196D01*
X175827429Y-63339235D01*
X175804329Y-63330970D01*
X175782151Y-63320480D01*
X175761107Y-63307867D01*
X175741402Y-63293253D01*
X175723223Y-63276777D01*
X175706747Y-63258598D01*
X175692133Y-63238893D01*
X175679520Y-63217849D01*
X175669030Y-63195671D01*
X175660765Y-63172571D01*
X175654804Y-63148773D01*
X175651204Y-63124504D01*
X175650000Y-63100000D01*
X175650000Y-61900000D01*
X175651204Y-61875496D01*
X175654804Y-61851227D01*
X175660765Y-61827429D01*
X175669030Y-61804329D01*
X175679520Y-61782151D01*
X175692133Y-61761107D01*
X175706747Y-61741402D01*
X175723223Y-61723223D01*
X175741402Y-61706747D01*
X175761107Y-61692133D01*
X175782151Y-61679520D01*
X175804329Y-61669030D01*
X175827429Y-61660765D01*
X175851227Y-61654804D01*
X175875496Y-61651204D01*
X175900000Y-61650000D01*
X177100000Y-61650000D01*
X177124504Y-61651204D01*
G37*
G04 #@! TD.AperFunction*
D19*
X114706000Y-116064000D03*
X114706000Y-120664000D03*
X114706000Y-118364000D03*
D20*
X121006000Y-118364000D03*
D11*
X136400000Y-115340000D03*
D21*
X135500000Y-115340000D03*
D12*
X136400000Y-112800000D03*
D21*
X135500000Y-112800000D03*
D11*
X136400000Y-110260000D03*
D21*
X135500000Y-110260000D03*
D22*
X136170000Y-122590000D03*
X138710000Y-122590000D03*
X141250000Y-122590000D03*
X143790000Y-122590000D03*
X146330000Y-122590000D03*
X148870000Y-122590000D03*
X151410000Y-122590000D03*
X153950000Y-122590000D03*
X156490000Y-122590000D03*
X159030000Y-122590000D03*
X161570000Y-122590000D03*
X164110000Y-122590000D03*
X166650000Y-122590000D03*
X169190000Y-122590000D03*
X171730000Y-122590000D03*
X174270000Y-122590000D03*
X176810000Y-122590000D03*
X179350000Y-122590000D03*
X181890000Y-122590000D03*
X184430000Y-122590000D03*
X136170000Y-103010000D03*
X138710000Y-103010000D03*
X141250000Y-103010000D03*
X143790000Y-103010000D03*
X146330000Y-103010000D03*
X148870000Y-103010000D03*
X151410000Y-103010000D03*
X153950000Y-103010000D03*
X156490000Y-103010000D03*
X159030000Y-103010000D03*
X161570000Y-103010000D03*
X164110000Y-103010000D03*
X166650000Y-103010000D03*
X169190000Y-103010000D03*
X171730000Y-103010000D03*
X174270000Y-103010000D03*
X176810000Y-103010000D03*
X179350000Y-103010000D03*
X181890000Y-103010000D03*
X184430000Y-103010000D03*
D11*
X184430000Y-121690000D03*
X181890000Y-121690000D03*
D12*
X179350000Y-121690000D03*
D11*
X176810000Y-121690000D03*
X174270000Y-121690000D03*
X171730000Y-121690000D03*
X169190000Y-121690000D03*
D12*
X166650000Y-121690000D03*
D11*
X164110000Y-121690000D03*
X161570000Y-121690000D03*
X159030000Y-121690000D03*
X156490000Y-121690000D03*
D12*
X153950000Y-121690000D03*
D11*
X151410000Y-121690000D03*
X148870000Y-121690000D03*
X146330000Y-121690000D03*
X143790000Y-121690000D03*
D12*
X141250000Y-121690000D03*
D11*
X138710000Y-121690000D03*
X136170000Y-121690000D03*
X136170000Y-103910000D03*
X138710000Y-103910000D03*
D12*
X141250000Y-103910000D03*
D11*
X143790000Y-103910000D03*
X146330000Y-103910000D03*
X148870000Y-103910000D03*
X151410000Y-103910000D03*
D12*
X153950000Y-103910000D03*
D11*
X156490000Y-103910000D03*
X159030000Y-103910000D03*
X161570000Y-103910000D03*
X164110000Y-103910000D03*
D12*
X166650000Y-103910000D03*
D11*
X169190000Y-103910000D03*
X171730000Y-103910000D03*
X174270000Y-103910000D03*
X176810000Y-103910000D03*
D12*
X179350000Y-103910000D03*
D11*
X181890000Y-103910000D03*
X184430000Y-103910000D03*
G04 #@! TA.AperFunction,SMDPad,CuDef*
D10*
G36*
X131339000Y-128016000D02*
G01*
X130839000Y-128766000D01*
X129839000Y-128766000D01*
X129839000Y-127266000D01*
X130839000Y-127266000D01*
X131339000Y-128016000D01*
G37*
G04 #@! TD.AperFunction*
G04 #@! TA.AperFunction,SMDPad,CuDef*
G36*
X132289000Y-128766000D02*
G01*
X131139000Y-128766000D01*
X131639000Y-128016000D01*
X131139000Y-127266000D01*
X132289000Y-127266000D01*
X132289000Y-128766000D01*
G37*
G04 #@! TD.AperFunction*
G04 #@! TA.AperFunction,SMDPad,CuDef*
G36*
X126767000Y-128016000D02*
G01*
X126267000Y-128766000D01*
X125267000Y-128766000D01*
X125267000Y-127266000D01*
X126267000Y-127266000D01*
X126767000Y-128016000D01*
G37*
G04 #@! TD.AperFunction*
G04 #@! TA.AperFunction,SMDPad,CuDef*
G36*
X127717000Y-128766000D02*
G01*
X126567000Y-128766000D01*
X127067000Y-128016000D01*
X126567000Y-127266000D01*
X127717000Y-127266000D01*
X127717000Y-128766000D01*
G37*
G04 #@! TD.AperFunction*
D11*
X118872000Y-130556000D03*
D12*
X116332000Y-130556000D03*
D23*
X112268000Y-128650000D03*
X112268000Y-125350000D03*
G04 #@! TA.AperFunction,SMDPad,CuDef*
D10*
G36*
X111726505Y-114749204D02*
G01*
X111750773Y-114752804D01*
X111774572Y-114758765D01*
X111797671Y-114767030D01*
X111819850Y-114777520D01*
X111840893Y-114790132D01*
X111860599Y-114804747D01*
X111878777Y-114821223D01*
X111895253Y-114839401D01*
X111909868Y-114859107D01*
X111922480Y-114880150D01*
X111932970Y-114902329D01*
X111941235Y-114925428D01*
X111947196Y-114949227D01*
X111950796Y-114973495D01*
X111952000Y-114997999D01*
X111952000Y-115698001D01*
X111950796Y-115722505D01*
X111947196Y-115746773D01*
X111941235Y-115770572D01*
X111932970Y-115793671D01*
X111922480Y-115815850D01*
X111909868Y-115836893D01*
X111895253Y-115856599D01*
X111878777Y-115874777D01*
X111860599Y-115891253D01*
X111840893Y-115905868D01*
X111819850Y-115918480D01*
X111797671Y-115928970D01*
X111774572Y-115937235D01*
X111750773Y-115943196D01*
X111726505Y-115946796D01*
X111702001Y-115948000D01*
X110801999Y-115948000D01*
X110777495Y-115946796D01*
X110753227Y-115943196D01*
X110729428Y-115937235D01*
X110706329Y-115928970D01*
X110684150Y-115918480D01*
X110663107Y-115905868D01*
X110643401Y-115891253D01*
X110625223Y-115874777D01*
X110608747Y-115856599D01*
X110594132Y-115836893D01*
X110581520Y-115815850D01*
X110571030Y-115793671D01*
X110562765Y-115770572D01*
X110556804Y-115746773D01*
X110553204Y-115722505D01*
X110552000Y-115698001D01*
X110552000Y-114997999D01*
X110553204Y-114973495D01*
X110556804Y-114949227D01*
X110562765Y-114925428D01*
X110571030Y-114902329D01*
X110581520Y-114880150D01*
X110594132Y-114859107D01*
X110608747Y-114839401D01*
X110625223Y-114821223D01*
X110643401Y-114804747D01*
X110663107Y-114790132D01*
X110684150Y-114777520D01*
X110706329Y-114767030D01*
X110729428Y-114758765D01*
X110753227Y-114752804D01*
X110777495Y-114749204D01*
X110801999Y-114748000D01*
X111702001Y-114748000D01*
X111726505Y-114749204D01*
G37*
G04 #@! TD.AperFunction*
G04 #@! TA.AperFunction,SMDPad,CuDef*
G36*
X111726505Y-116749204D02*
G01*
X111750773Y-116752804D01*
X111774572Y-116758765D01*
X111797671Y-116767030D01*
X111819850Y-116777520D01*
X111840893Y-116790132D01*
X111860599Y-116804747D01*
X111878777Y-116821223D01*
X111895253Y-116839401D01*
X111909868Y-116859107D01*
X111922480Y-116880150D01*
X111932970Y-116902329D01*
X111941235Y-116925428D01*
X111947196Y-116949227D01*
X111950796Y-116973495D01*
X111952000Y-116997999D01*
X111952000Y-117698001D01*
X111950796Y-117722505D01*
X111947196Y-117746773D01*
X111941235Y-117770572D01*
X111932970Y-117793671D01*
X111922480Y-117815850D01*
X111909868Y-117836893D01*
X111895253Y-117856599D01*
X111878777Y-117874777D01*
X111860599Y-117891253D01*
X111840893Y-117905868D01*
X111819850Y-117918480D01*
X111797671Y-117928970D01*
X111774572Y-117937235D01*
X111750773Y-117943196D01*
X111726505Y-117946796D01*
X111702001Y-117948000D01*
X110801999Y-117948000D01*
X110777495Y-117946796D01*
X110753227Y-117943196D01*
X110729428Y-117937235D01*
X110706329Y-117928970D01*
X110684150Y-117918480D01*
X110663107Y-117905868D01*
X110643401Y-117891253D01*
X110625223Y-117874777D01*
X110608747Y-117856599D01*
X110594132Y-117836893D01*
X110581520Y-117815850D01*
X110571030Y-117793671D01*
X110562765Y-117770572D01*
X110556804Y-117746773D01*
X110553204Y-117722505D01*
X110552000Y-117698001D01*
X110552000Y-116997999D01*
X110553204Y-116973495D01*
X110556804Y-116949227D01*
X110562765Y-116925428D01*
X110571030Y-116902329D01*
X110581520Y-116880150D01*
X110594132Y-116859107D01*
X110608747Y-116839401D01*
X110625223Y-116821223D01*
X110643401Y-116804747D01*
X110663107Y-116790132D01*
X110684150Y-116777520D01*
X110706329Y-116767030D01*
X110729428Y-116758765D01*
X110753227Y-116752804D01*
X110777495Y-116749204D01*
X110801999Y-116748000D01*
X111702001Y-116748000D01*
X111726505Y-116749204D01*
G37*
G04 #@! TD.AperFunction*
G04 #@! TA.AperFunction,SMDPad,CuDef*
G36*
X111726505Y-118797204D02*
G01*
X111750773Y-118800804D01*
X111774572Y-118806765D01*
X111797671Y-118815030D01*
X111819850Y-118825520D01*
X111840893Y-118838132D01*
X111860599Y-118852747D01*
X111878777Y-118869223D01*
X111895253Y-118887401D01*
X111909868Y-118907107D01*
X111922480Y-118928150D01*
X111932970Y-118950329D01*
X111941235Y-118973428D01*
X111947196Y-118997227D01*
X111950796Y-119021495D01*
X111952000Y-119045999D01*
X111952000Y-119746001D01*
X111950796Y-119770505D01*
X111947196Y-119794773D01*
X111941235Y-119818572D01*
X111932970Y-119841671D01*
X111922480Y-119863850D01*
X111909868Y-119884893D01*
X111895253Y-119904599D01*
X111878777Y-119922777D01*
X111860599Y-119939253D01*
X111840893Y-119953868D01*
X111819850Y-119966480D01*
X111797671Y-119976970D01*
X111774572Y-119985235D01*
X111750773Y-119991196D01*
X111726505Y-119994796D01*
X111702001Y-119996000D01*
X110801999Y-119996000D01*
X110777495Y-119994796D01*
X110753227Y-119991196D01*
X110729428Y-119985235D01*
X110706329Y-119976970D01*
X110684150Y-119966480D01*
X110663107Y-119953868D01*
X110643401Y-119939253D01*
X110625223Y-119922777D01*
X110608747Y-119904599D01*
X110594132Y-119884893D01*
X110581520Y-119863850D01*
X110571030Y-119841671D01*
X110562765Y-119818572D01*
X110556804Y-119794773D01*
X110553204Y-119770505D01*
X110552000Y-119746001D01*
X110552000Y-119045999D01*
X110553204Y-119021495D01*
X110556804Y-118997227D01*
X110562765Y-118973428D01*
X110571030Y-118950329D01*
X110581520Y-118928150D01*
X110594132Y-118907107D01*
X110608747Y-118887401D01*
X110625223Y-118869223D01*
X110643401Y-118852747D01*
X110663107Y-118838132D01*
X110684150Y-118825520D01*
X110706329Y-118815030D01*
X110729428Y-118806765D01*
X110753227Y-118800804D01*
X110777495Y-118797204D01*
X110801999Y-118796000D01*
X111702001Y-118796000D01*
X111726505Y-118797204D01*
G37*
G04 #@! TD.AperFunction*
G04 #@! TA.AperFunction,SMDPad,CuDef*
G36*
X111726505Y-120797204D02*
G01*
X111750773Y-120800804D01*
X111774572Y-120806765D01*
X111797671Y-120815030D01*
X111819850Y-120825520D01*
X111840893Y-120838132D01*
X111860599Y-120852747D01*
X111878777Y-120869223D01*
X111895253Y-120887401D01*
X111909868Y-120907107D01*
X111922480Y-120928150D01*
X111932970Y-120950329D01*
X111941235Y-120973428D01*
X111947196Y-120997227D01*
X111950796Y-121021495D01*
X111952000Y-121045999D01*
X111952000Y-121746001D01*
X111950796Y-121770505D01*
X111947196Y-121794773D01*
X111941235Y-121818572D01*
X111932970Y-121841671D01*
X111922480Y-121863850D01*
X111909868Y-121884893D01*
X111895253Y-121904599D01*
X111878777Y-121922777D01*
X111860599Y-121939253D01*
X111840893Y-121953868D01*
X111819850Y-121966480D01*
X111797671Y-121976970D01*
X111774572Y-121985235D01*
X111750773Y-121991196D01*
X111726505Y-121994796D01*
X111702001Y-121996000D01*
X110801999Y-121996000D01*
X110777495Y-121994796D01*
X110753227Y-121991196D01*
X110729428Y-121985235D01*
X110706329Y-121976970D01*
X110684150Y-121966480D01*
X110663107Y-121953868D01*
X110643401Y-121939253D01*
X110625223Y-121922777D01*
X110608747Y-121904599D01*
X110594132Y-121884893D01*
X110581520Y-121863850D01*
X110571030Y-121841671D01*
X110562765Y-121818572D01*
X110556804Y-121794773D01*
X110553204Y-121770505D01*
X110552000Y-121746001D01*
X110552000Y-121045999D01*
X110553204Y-121021495D01*
X110556804Y-120997227D01*
X110562765Y-120973428D01*
X110571030Y-120950329D01*
X110581520Y-120928150D01*
X110594132Y-120907107D01*
X110608747Y-120887401D01*
X110625223Y-120869223D01*
X110643401Y-120852747D01*
X110663107Y-120838132D01*
X110684150Y-120825520D01*
X110706329Y-120815030D01*
X110729428Y-120806765D01*
X110753227Y-120800804D01*
X110777495Y-120797204D01*
X110801999Y-120796000D01*
X111702001Y-120796000D01*
X111726505Y-120797204D01*
G37*
G04 #@! TD.AperFunction*
D24*
X191000000Y-64000000D03*
X191000000Y-131000000D03*
X99000000Y-131000000D03*
X99000000Y-64000000D03*
D25*
X109601000Y-118999000D03*
X116840000Y-115951000D03*
X108331000Y-115824000D03*
X114173000Y-97917000D03*
X111252000Y-97917000D03*
X116713000Y-118745000D03*
X103759000Y-83693000D03*
X168275000Y-91440000D03*
X170180000Y-83947000D03*
X132461000Y-91440000D03*
X152273000Y-84074000D03*
X182340001Y-86000000D03*
X188700000Y-86000000D03*
X103300000Y-66800000D03*
X161000000Y-73100000D03*
X156300000Y-73200000D03*
X165200000Y-73000000D03*
X172600000Y-73000000D03*
X174800000Y-73500000D03*
X181864000Y-130302000D03*
X112395000Y-122682000D03*
X131699000Y-122809000D03*
X135128000Y-131064000D03*
X122682000Y-118364000D03*
X126111000Y-118364000D03*
X116078000Y-117602000D03*
X119507000Y-117856000D03*
X113411000Y-128778000D03*
X128397000Y-102108000D03*
X116332000Y-85979000D03*
X116332000Y-102108000D03*
X105283000Y-85090000D03*
X123444000Y-85979000D03*
X141605000Y-85979000D03*
X159385000Y-86360000D03*
X178500000Y-79300000D03*
X172100000Y-79500000D03*
X172000000Y-85900000D03*
X174371000Y-129794000D03*
X133985000Y-130048000D03*
X136100000Y-119100000D03*
X178400000Y-118400000D03*
X143700000Y-119252999D03*
X179900000Y-118900000D03*
X146100000Y-107800000D03*
X186000000Y-107300000D03*
X186500000Y-78300000D03*
X181800000Y-78300000D03*
X180800000Y-108000000D03*
X149600000Y-108600000D03*
X181800000Y-76100000D03*
X185500000Y-76200000D03*
X185500000Y-125900000D03*
X151300000Y-126100000D03*
X156700000Y-115988000D03*
X170500000Y-115100000D03*
X170700000Y-96200000D03*
X177275001Y-96200000D03*
X161417000Y-110998000D03*
X105500000Y-92900000D03*
X162100000Y-91700000D03*
X168656000Y-117348000D03*
X109347000Y-116713000D03*
X113200000Y-78100000D03*
X148791001Y-95191001D03*
X112900000Y-94800000D03*
X184785000Y-118745000D03*
X191262000Y-119126000D03*
X138938000Y-119253000D03*
X143510000Y-106934000D03*
X108426495Y-106813497D03*
X146177000Y-106045000D03*
X107569000Y-106299000D03*
X151384000Y-100048770D03*
X103251000Y-96520000D03*
X102997000Y-114808000D03*
X122809000Y-100330000D03*
X122809000Y-97022919D03*
X156591000Y-94723700D03*
X112014000Y-95572919D03*
X159131000Y-95173710D03*
X107904211Y-96022929D03*
X161378280Y-94513264D03*
X143383000Y-93980000D03*
X143637000Y-83820000D03*
X145201769Y-82128231D03*
X164211000Y-96348720D03*
X150368000Y-96348720D03*
X169164000Y-99598760D03*
X145415000Y-99598760D03*
X145542000Y-93218000D03*
X147828000Y-93218000D03*
X171577000Y-92583000D03*
X144175010Y-92456000D03*
X174625000Y-98698740D03*
X133858000Y-98698740D03*
X134112000Y-82169000D03*
X125984000Y-82296000D03*
X176530000Y-98425000D03*
X132715000Y-98248730D03*
X133295000Y-78105000D03*
X131064000Y-78105000D03*
X181940200Y-97798720D03*
X129667000Y-97798720D03*
X184398920Y-97073720D03*
X125857000Y-97348710D03*
X191262000Y-88011000D03*
X105410000Y-87757000D03*
X106807000Y-87884000D03*
X113030000Y-87884000D03*
X124841000Y-87884000D03*
X123571000Y-87884000D03*
X131177819Y-87897181D03*
X142748000Y-88011000D03*
X141616134Y-87999866D03*
X149114667Y-88027667D03*
X160829333Y-88058333D03*
X159556000Y-88055000D03*
X167195002Y-88074998D03*
X132461000Y-74348000D03*
X128270000Y-74549000D03*
X151003000Y-73660000D03*
X153924000Y-73533000D03*
X105537000Y-91694000D03*
X100203000Y-91821000D03*
X151130000Y-85217000D03*
X177500000Y-77100000D03*
X170300000Y-77900000D03*
X170200000Y-80300000D03*
X168400000Y-82200000D03*
X158700000Y-75900000D03*
X109200000Y-76400000D03*
X160674990Y-75700000D03*
X145200000Y-75675000D03*
X146100000Y-64200000D03*
X166405380Y-70321000D03*
X127500000Y-70600000D03*
X169100000Y-70500000D03*
X128700000Y-71046000D03*
X171400000Y-67400000D03*
X112500000Y-67000000D03*
X174200000Y-67600000D03*
X111600000Y-66100000D03*
X176500000Y-67800000D03*
X151257000Y-72390000D03*
X151700000Y-61100000D03*
X162800000Y-61100000D03*
X160000000Y-77600000D03*
X147800000Y-77500000D03*
X143300000Y-61100000D03*
X165300000Y-67900000D03*
X130000000Y-67725000D03*
X168100000Y-68871000D03*
X127400000Y-68871000D03*
X111100000Y-74100000D03*
X168993458Y-71622630D03*
X166100000Y-71771000D03*
X166014999Y-74385001D03*
X173200000Y-69200000D03*
X104902000Y-108966000D03*
X104140000Y-104140000D03*
X163703000Y-91567000D03*
X165989000Y-91567000D03*
X169291000Y-78105000D03*
X167005000Y-78105000D03*
X168148000Y-76454000D03*
X162052000Y-76200000D03*
X139192000Y-128307000D03*
X137033000Y-124968000D03*
X103886000Y-125095000D03*
X104013000Y-122428000D03*
D26*
X150368000Y-89727000D02*
X150445000Y-89650000D01*
D27*
X141693001Y-104353001D02*
X141250000Y-103910000D01*
X141693001Y-121246999D02*
X141693001Y-104353001D01*
X141250000Y-121690000D02*
X141693001Y-121246999D01*
X153950000Y-121690000D02*
X153950000Y-103910000D01*
X166650000Y-121690000D02*
X166650000Y-103910000D01*
D26*
X167609760Y-93477080D02*
X167650400Y-93436440D01*
X164972760Y-93477080D02*
X167609760Y-93477080D01*
X167650400Y-93436440D02*
X167650400Y-92191600D01*
D27*
X111968000Y-116064000D02*
X111252000Y-115348000D01*
X114706000Y-116064000D02*
X111968000Y-116064000D01*
X109998000Y-119396000D02*
X109601000Y-118999000D01*
X111252000Y-119396000D02*
X109998000Y-119396000D01*
X116727000Y-116064000D02*
X116840000Y-115951000D01*
X114706000Y-116064000D02*
X116727000Y-116064000D01*
X108331000Y-117729000D02*
X109601000Y-118999000D01*
X108331000Y-115824000D02*
X108331000Y-117729000D01*
X114173000Y-97917000D02*
X114173000Y-94488000D01*
X114445000Y-94216000D02*
X114445000Y-89650000D01*
X114173000Y-94488000D02*
X114445000Y-94216000D01*
X111252000Y-115348000D02*
X111252000Y-97917000D01*
X116332000Y-119126000D02*
X116713000Y-118745000D01*
X116332000Y-130556000D02*
X116332000Y-119126000D01*
D26*
X168445000Y-91270000D02*
X168275000Y-91440000D01*
X168445000Y-89650000D02*
X168445000Y-91270000D01*
X167650400Y-92191600D02*
X168275000Y-91440000D01*
D27*
X132445000Y-91424000D02*
X132461000Y-91440000D01*
X132445000Y-89650000D02*
X132445000Y-91424000D01*
X152273000Y-84074000D02*
X152273000Y-89281000D01*
X151904000Y-89650000D02*
X150445000Y-89650000D01*
X152273000Y-89281000D02*
X151904000Y-89650000D01*
D26*
X181250000Y-81500000D02*
X182200000Y-82450000D01*
X180200000Y-81500000D02*
X181250000Y-81500000D01*
X181650000Y-85950000D02*
X180700000Y-85950000D01*
X182200000Y-85400000D02*
X181650000Y-85950000D01*
X182200000Y-82450000D02*
X182200000Y-85400000D01*
X182200000Y-85859999D02*
X182340001Y-86000000D01*
X182200000Y-85400000D02*
X182200000Y-85859999D01*
X190250000Y-86000000D02*
X190300000Y-85950000D01*
X188700000Y-86000000D02*
X190250000Y-86000000D01*
X190300000Y-71300000D02*
X190300000Y-70450000D01*
X190250000Y-71350000D02*
X190300000Y-71300000D01*
X180700000Y-71350000D02*
X190250000Y-71350000D01*
X190300000Y-85950000D02*
X190300000Y-70450000D01*
X103759000Y-67259000D02*
X103759000Y-83693000D01*
X103300000Y-66800000D02*
X103759000Y-67259000D01*
X156180000Y-71417500D02*
X156362500Y-71600000D01*
X156180000Y-65040000D02*
X156180000Y-71417500D01*
X154842081Y-65040000D02*
X156180000Y-65040000D01*
X153640000Y-65040000D02*
X154842081Y-65040000D01*
D27*
X160862500Y-72962500D02*
X161000000Y-73100000D01*
X160862500Y-71700000D02*
X160862500Y-72962500D01*
X156300000Y-71662500D02*
X156362500Y-71600000D01*
X156300000Y-73200000D02*
X156300000Y-71662500D01*
X165022096Y-76045656D02*
X165476160Y-76499720D01*
X165022096Y-73177904D02*
X165022096Y-76045656D01*
X165200000Y-73000000D02*
X165022096Y-73177904D01*
X172337500Y-72737500D02*
X172600000Y-73000000D01*
X172337500Y-71500000D02*
X172337500Y-72737500D01*
X174462500Y-73162500D02*
X174800000Y-73500000D01*
X174462500Y-71600000D02*
X174462500Y-73162500D01*
X181890000Y-130276000D02*
X181864000Y-130302000D01*
X181890000Y-121690000D02*
X181890000Y-130276000D01*
X112395000Y-122539000D02*
X111252000Y-121396000D01*
X112395000Y-122682000D02*
X112395000Y-122539000D01*
X113974000Y-121396000D02*
X114706000Y-120664000D01*
X111252000Y-121396000D02*
X113974000Y-121396000D01*
X111252000Y-124334000D02*
X112268000Y-125350000D01*
X111252000Y-121396000D02*
X111252000Y-124334000D01*
X112395000Y-125223000D02*
X112268000Y-125350000D01*
X112395000Y-122682000D02*
X112395000Y-125223000D01*
X135128000Y-126238000D02*
X135128000Y-131064000D01*
X131699000Y-122809000D02*
X135128000Y-126238000D01*
X121006000Y-118364000D02*
X122682000Y-118364000D01*
X126111000Y-127672000D02*
X125767000Y-128016000D01*
X126111000Y-118364000D02*
X126111000Y-127672000D01*
X115316000Y-118364000D02*
X116078000Y-117602000D01*
X114706000Y-118364000D02*
X115316000Y-118364000D01*
X120498000Y-117856000D02*
X121006000Y-118364000D01*
X119507000Y-117856000D02*
X120498000Y-117856000D01*
X113690000Y-117348000D02*
X114706000Y-118364000D01*
X111252000Y-117348000D02*
X113690000Y-117348000D01*
X112396000Y-128778000D02*
X112268000Y-128650000D01*
X113411000Y-128778000D02*
X112396000Y-128778000D01*
X116116999Y-86759686D02*
X116116999Y-101892999D01*
X116116999Y-101892999D02*
X116332000Y-102108000D01*
X116332000Y-86544685D02*
X116116999Y-86759686D01*
X116332000Y-85979000D02*
X116332000Y-86544685D01*
X105555000Y-84818000D02*
X105283000Y-85090000D01*
X105555000Y-80350000D02*
X105555000Y-84818000D01*
X123444000Y-80461000D02*
X123555000Y-80350000D01*
X123444000Y-85979000D02*
X123444000Y-80461000D01*
X141605000Y-80400000D02*
X141555000Y-80350000D01*
X141605000Y-85979000D02*
X141605000Y-80400000D01*
X159385000Y-80520000D02*
X159555000Y-80350000D01*
X159385000Y-86360000D02*
X159385000Y-80520000D01*
X128397000Y-127762000D02*
X128143000Y-128016000D01*
X128397000Y-102108000D02*
X128397000Y-127762000D01*
X128143000Y-128016000D02*
X130339000Y-128016000D01*
X127217000Y-128016000D02*
X128143000Y-128016000D01*
X180200000Y-79300000D02*
X178500000Y-79300000D01*
X172100000Y-85800000D02*
X172000000Y-85900000D01*
X172100000Y-79500000D02*
X172100000Y-85800000D01*
D26*
X174270000Y-129693000D02*
X174371000Y-129794000D01*
X174270000Y-121690000D02*
X174270000Y-129693000D01*
X131953000Y-128016000D02*
X131789000Y-128016000D01*
X133985000Y-130048000D02*
X131953000Y-128016000D01*
X136170000Y-119170000D02*
X136100000Y-119100000D01*
X136170000Y-121690000D02*
X136170000Y-119170000D01*
X178000001Y-118000001D02*
X178000001Y-82999999D01*
X178400000Y-118400000D02*
X178000001Y-118000001D01*
X178400000Y-82600000D02*
X180200000Y-82600000D01*
X178000001Y-82999999D02*
X178400000Y-82600000D01*
X143790000Y-119342999D02*
X143700000Y-119252999D01*
X143790000Y-121690000D02*
X143790000Y-119342999D01*
X183065001Y-81065001D02*
X182400000Y-80400000D01*
X183065001Y-115734999D02*
X183065001Y-81065001D01*
X179900000Y-118900000D02*
X183065001Y-115734999D01*
X182400000Y-80400000D02*
X180200000Y-80400000D01*
X146330000Y-108030000D02*
X146100000Y-107800000D01*
X146330000Y-121690000D02*
X146330000Y-108030000D01*
X186500000Y-106800000D02*
X186500000Y-78300000D01*
X186000000Y-107300000D02*
X186500000Y-106800000D01*
X180300000Y-78300000D02*
X180200000Y-78200000D01*
X181800000Y-78300000D02*
X180300000Y-78300000D01*
X180714999Y-107914999D02*
X180800000Y-108000000D01*
X180714999Y-87850001D02*
X180714999Y-107914999D01*
X179074999Y-86210001D02*
X180714999Y-87850001D01*
X179074999Y-83775001D02*
X179074999Y-86210001D01*
X179150000Y-83700000D02*
X179074999Y-83775001D01*
X180200000Y-83700000D02*
X179150000Y-83700000D01*
X149600000Y-108600000D02*
X149600000Y-116600000D01*
X148870000Y-117330000D02*
X148870000Y-121690000D01*
X149600000Y-116600000D02*
X148870000Y-117330000D01*
X181700000Y-76000000D02*
X181800000Y-76100000D01*
X180200000Y-76000000D02*
X181700000Y-76000000D01*
X185605001Y-107978003D02*
X185605001Y-125794999D01*
X185605001Y-125794999D02*
X185500000Y-125900000D01*
X185274999Y-107648001D02*
X185605001Y-107978003D01*
X185274999Y-106951999D02*
X185274999Y-107648001D01*
X185605001Y-106621997D02*
X185274999Y-106951999D01*
X185605001Y-76870686D02*
X185605001Y-106621997D01*
X185500000Y-76765685D02*
X185605001Y-76870686D01*
X185500000Y-76200000D02*
X185500000Y-76765685D01*
X151300000Y-121800000D02*
X151410000Y-121690000D01*
X151300000Y-126100000D02*
X151300000Y-121800000D01*
X156490000Y-116198000D02*
X156700000Y-115988000D01*
X156490000Y-121690000D02*
X156490000Y-116198000D01*
X170500000Y-96400000D02*
X170700000Y-96200000D01*
X170500000Y-115100000D02*
X170500000Y-96400000D01*
X177275001Y-96200000D02*
X177275001Y-78524999D01*
X178700000Y-77100000D02*
X180200000Y-77100000D01*
X177275001Y-78524999D02*
X178700000Y-77100000D01*
X161570000Y-111151000D02*
X161417000Y-110998000D01*
X161570000Y-121690000D02*
X161570000Y-111151000D01*
X162847750Y-120427750D02*
X162847750Y-95156750D01*
X164110000Y-121690000D02*
X162847750Y-120427750D01*
X162847750Y-95156750D02*
X162095000Y-94404000D01*
X105076160Y-93323840D02*
X105500000Y-92900000D01*
X105076160Y-100568760D02*
X105076160Y-93323840D01*
X162100000Y-91700000D02*
X162095000Y-89650000D01*
X162095000Y-94404000D02*
X162100000Y-91700000D01*
X169190000Y-117882000D02*
X168656000Y-117348000D01*
X169190000Y-121690000D02*
X169190000Y-117882000D01*
X109347000Y-96645921D02*
X108621999Y-95920920D01*
X109347000Y-116713000D02*
X109347000Y-96645921D01*
X108720010Y-90721758D02*
X108720010Y-84463010D01*
X108621999Y-90819769D02*
X108720010Y-90721758D01*
X108621999Y-95920920D02*
X108621999Y-90819769D01*
X108095000Y-83838000D02*
X108095000Y-80350000D01*
X108720010Y-84463010D02*
X108095000Y-83838000D01*
X113175000Y-78125000D02*
X113200000Y-78100000D01*
X113175000Y-80350000D02*
X113175000Y-78125000D01*
X148870000Y-95270000D02*
X148791001Y-95191001D01*
X148870000Y-103910000D02*
X148870000Y-95270000D01*
X112304999Y-82245001D02*
X113175000Y-81375000D01*
X112549990Y-88476992D02*
X112304999Y-88232001D01*
X112549990Y-90721758D02*
X112549990Y-88476992D01*
X112828242Y-91000010D02*
X112549990Y-90721758D01*
X113521758Y-91000010D02*
X112828242Y-91000010D01*
X113800010Y-90721758D02*
X113521758Y-91000010D01*
X113175000Y-81375000D02*
X113175000Y-80350000D01*
X113800010Y-93899990D02*
X113800010Y-90721758D01*
X112304999Y-88232001D02*
X112304999Y-82245001D01*
X112900000Y-94800000D02*
X113800010Y-93899990D01*
D27*
X184430000Y-119100000D02*
X184785000Y-118745000D01*
X184430000Y-121690000D02*
X184430000Y-119100000D01*
X191262000Y-115331000D02*
X191135000Y-115204000D01*
X191262000Y-119126000D02*
X191262000Y-115331000D01*
D26*
X138710000Y-119025000D02*
X138938000Y-119253000D01*
X138710000Y-103910000D02*
X138710000Y-119025000D01*
X106293920Y-117099080D02*
X106415840Y-117221000D01*
X106293920Y-107172760D02*
X106293920Y-117099080D01*
X143790000Y-106654000D02*
X143510000Y-106934000D01*
X143790000Y-103910000D02*
X143790000Y-106654000D01*
X108067232Y-107172760D02*
X106293920Y-107172760D01*
X108426495Y-106813497D02*
X108067232Y-107172760D01*
X146330000Y-105892000D02*
X146177000Y-106045000D01*
X146330000Y-103910000D02*
X146330000Y-105892000D01*
X106387560Y-105117560D02*
X106387560Y-104180640D01*
X107569000Y-106299000D02*
X106387560Y-105117560D01*
X106387560Y-100707360D02*
X106526160Y-100568760D01*
X106387560Y-104180640D02*
X106387560Y-100707360D01*
X151410000Y-100074770D02*
X151384000Y-100048770D01*
X151410000Y-103910000D02*
X151410000Y-100074770D01*
X103251000Y-114554000D02*
X102997000Y-114808000D01*
X103251000Y-96520000D02*
X103251000Y-114554000D01*
X122809000Y-100330000D02*
X122809000Y-97022919D01*
X156490000Y-94824700D02*
X156591000Y-94723700D01*
X156490000Y-103910000D02*
X156490000Y-94824700D01*
X112014000Y-89759000D02*
X111905000Y-89650000D01*
X112014000Y-95572919D02*
X112014000Y-89759000D01*
X159030000Y-95274710D02*
X159131000Y-95173710D01*
X159030000Y-103910000D02*
X159030000Y-95274710D01*
X107904211Y-96022929D02*
X107904211Y-93263789D01*
X108095000Y-93073000D02*
X108095000Y-89650000D01*
X107904211Y-93263789D02*
X108095000Y-93073000D01*
X161570000Y-94704984D02*
X161378280Y-94513264D01*
X161570000Y-103910000D02*
X161570000Y-94704984D01*
X143637000Y-88391252D02*
X143637000Y-83820000D01*
X143450010Y-88578242D02*
X143637000Y-88391252D01*
X143450010Y-93347305D02*
X143450010Y-88578242D01*
X143383000Y-93414315D02*
X143450010Y-93347305D01*
X143383000Y-93980000D02*
X143383000Y-93414315D01*
X144095000Y-81021462D02*
X144095000Y-80350000D01*
X145201769Y-82128231D02*
X144095000Y-81021462D01*
X164110000Y-96449720D02*
X164211000Y-96348720D01*
X164110000Y-103910000D02*
X164110000Y-96449720D01*
X148530010Y-88516012D02*
X148389666Y-88375668D01*
X148530010Y-90701778D02*
X148530010Y-88516012D01*
X148389666Y-88375668D02*
X148389666Y-84274334D01*
X150368000Y-92539768D02*
X148530010Y-90701778D01*
X150368000Y-96348720D02*
X150368000Y-92539768D01*
X149175000Y-83489000D02*
X149175000Y-80350000D01*
X148389666Y-84274334D02*
X149175000Y-83489000D01*
X169190000Y-99624760D02*
X169164000Y-99598760D01*
X169190000Y-103910000D02*
X169190000Y-99624760D01*
X145415000Y-93345000D02*
X145542000Y-93218000D01*
X145415000Y-99598760D02*
X145415000Y-93345000D01*
X147828000Y-89727000D02*
X147905000Y-89650000D01*
X147828000Y-93218000D02*
X147828000Y-89727000D01*
X171730000Y-92736000D02*
X171577000Y-92583000D01*
X171730000Y-103910000D02*
X171730000Y-92736000D01*
X144175010Y-89730010D02*
X144095000Y-89650000D01*
X144175010Y-92456000D02*
X144175010Y-89730010D01*
X174270000Y-99053740D02*
X174625000Y-98698740D01*
X174270000Y-103910000D02*
X174270000Y-99053740D01*
X133858000Y-82423000D02*
X134112000Y-82169000D01*
X133858000Y-98698740D02*
X133858000Y-82423000D01*
X125984000Y-80461000D02*
X126095000Y-80350000D01*
X125984000Y-82296000D02*
X125984000Y-80461000D01*
X176810000Y-98705000D02*
X176530000Y-98425000D01*
X176810000Y-103910000D02*
X176810000Y-98705000D01*
X133295000Y-97668730D02*
X133295000Y-78105000D01*
X132715000Y-98248730D02*
X133295000Y-97668730D01*
X131064000Y-80239000D02*
X131175000Y-80350000D01*
X131064000Y-78105000D02*
X131064000Y-80239000D01*
X181890000Y-97848920D02*
X181940200Y-97798720D01*
X181890000Y-103910000D02*
X181890000Y-97848920D01*
X129667000Y-97798720D02*
X129667000Y-94234000D01*
X129905000Y-93996000D02*
X129905000Y-89650000D01*
X129667000Y-94234000D02*
X129905000Y-93996000D01*
X184430000Y-97104800D02*
X184398920Y-97073720D01*
X184430000Y-103910000D02*
X184430000Y-97104800D01*
X125857000Y-97348710D02*
X125857000Y-92837000D01*
X126095000Y-92599000D02*
X126095000Y-89650000D01*
X125857000Y-92837000D02*
X126095000Y-92599000D01*
X105410000Y-89795000D02*
X105555000Y-89650000D01*
X123774200Y-89869200D02*
X123555000Y-89650000D01*
D27*
X191135000Y-88138000D02*
X191262000Y-88011000D01*
X191135000Y-113904000D02*
X191135000Y-88138000D01*
X105793178Y-89074992D02*
X105555000Y-89074992D01*
X105918000Y-89199814D02*
X105793178Y-89074992D01*
X105918000Y-88830685D02*
X105918000Y-89199814D01*
X105410000Y-88322685D02*
X105918000Y-88830685D01*
X105410000Y-87757000D02*
X105410000Y-88322685D01*
X106825000Y-87902000D02*
X106807000Y-87884000D01*
X106825000Y-89650000D02*
X106825000Y-87902000D01*
X113175000Y-88029000D02*
X113030000Y-87884000D01*
X113175000Y-89650000D02*
X113175000Y-88029000D01*
X124825000Y-87900000D02*
X124841000Y-87884000D01*
X124825000Y-89650000D02*
X124825000Y-87900000D01*
X123555000Y-87900000D02*
X123571000Y-87884000D01*
X123555000Y-89650000D02*
X123555000Y-87900000D01*
X131175000Y-89650000D02*
X131191000Y-89634000D01*
X131191000Y-87910362D02*
X131177819Y-87897181D01*
X131191000Y-89634000D02*
X131191000Y-87910362D01*
X142825000Y-89650000D02*
X142825000Y-89458000D01*
X142748000Y-89381000D02*
X142748000Y-88011000D01*
X142825000Y-89458000D02*
X142748000Y-89381000D01*
X141555000Y-89650000D02*
X141555000Y-89331000D01*
X141555000Y-89331000D02*
X141616134Y-89269866D01*
X141616134Y-89269866D02*
X141616134Y-87999866D01*
X149175000Y-89650000D02*
X149175000Y-89204000D01*
X149114667Y-89143667D02*
X149114667Y-88027667D01*
X149175000Y-89204000D02*
X149114667Y-89143667D01*
X160825000Y-89650000D02*
X160825000Y-89070000D01*
X160829333Y-89065667D02*
X160829333Y-88058333D01*
X160825000Y-89070000D02*
X160829333Y-89065667D01*
X159555000Y-89650000D02*
X159555000Y-89197000D01*
X159556000Y-89196000D02*
X159556000Y-88055000D01*
X159555000Y-89197000D02*
X159556000Y-89196000D01*
X167175000Y-89650000D02*
X167175000Y-89197000D01*
X167195002Y-89176998D02*
X167195002Y-88074998D01*
X167175000Y-89197000D02*
X167195002Y-89176998D01*
X106825000Y-89650000D02*
X106825000Y-80350000D01*
X114445000Y-81375000D02*
X114445000Y-80350000D01*
X113030000Y-87318315D02*
X114445000Y-85903315D01*
X114445000Y-85903315D02*
X114445000Y-81375000D01*
X113030000Y-87884000D02*
X113030000Y-87318315D01*
X124841000Y-80366000D02*
X124825000Y-80350000D01*
X124841000Y-87884000D02*
X124841000Y-80366000D01*
X131177819Y-87897181D02*
X131177819Y-84849181D01*
X132445000Y-83582000D02*
X132445000Y-80350000D01*
X131177819Y-84849181D02*
X132445000Y-83582000D01*
X142748000Y-80427000D02*
X142825000Y-80350000D01*
X142748000Y-88011000D02*
X142748000Y-80427000D01*
X149114667Y-88027667D02*
X149514666Y-87627668D01*
X150445000Y-83743000D02*
X150445000Y-80350000D01*
X149514666Y-84673334D02*
X150445000Y-83743000D01*
X160829333Y-80354333D02*
X160825000Y-80350000D01*
X160829333Y-88058333D02*
X160829333Y-80354333D01*
X167595001Y-87674999D02*
X167595001Y-85642999D01*
X167195002Y-88074998D02*
X167595001Y-87674999D01*
X167595001Y-85642999D02*
X168445000Y-84793000D01*
X132445000Y-74364000D02*
X132461000Y-74348000D01*
X132445000Y-80350000D02*
X132445000Y-74364000D01*
X150445000Y-74218000D02*
X151003000Y-73660000D01*
X150445000Y-80350000D02*
X150445000Y-74218000D01*
X105555000Y-91676000D02*
X105537000Y-91694000D01*
X105555000Y-89650000D02*
X105555000Y-91676000D01*
X100203000Y-96797000D02*
X100000000Y-97000000D01*
X100203000Y-91821000D02*
X100203000Y-96797000D01*
X151130000Y-85217000D02*
X149479000Y-85217000D01*
X149479000Y-85217000D02*
X149514666Y-84673334D01*
X149514666Y-87627668D02*
X149479000Y-85217000D01*
X153524001Y-73133001D02*
X153924000Y-73533000D01*
X152339999Y-71948999D02*
X153524001Y-73133001D01*
X152339999Y-63800001D02*
X152339999Y-71948999D01*
X153640000Y-62500000D02*
X152339999Y-63800001D01*
X177575010Y-66115010D02*
X177575010Y-77024990D01*
X177575010Y-77024990D02*
X177500000Y-77100000D01*
X176500000Y-65040000D02*
X177575010Y-66115010D01*
X170300000Y-80200000D02*
X170200000Y-80300000D01*
X170300000Y-77900000D02*
X170300000Y-80200000D01*
X168400000Y-82200000D02*
X168445000Y-80350000D01*
X168445000Y-84793000D02*
X168400000Y-82200000D01*
D26*
X158437500Y-65322500D02*
X158720000Y-65040000D01*
X158437500Y-71600000D02*
X158437500Y-65322500D01*
X158437500Y-75637500D02*
X158700000Y-75900000D01*
X158437500Y-71600000D02*
X158437500Y-75637500D01*
X109200000Y-80185000D02*
X109365000Y-80350000D01*
X109200000Y-76400000D02*
X109200000Y-80185000D01*
X161775010Y-66757091D02*
X161775010Y-74599980D01*
X161260000Y-66242081D02*
X161775010Y-66757091D01*
X161775010Y-74599980D02*
X160674990Y-75700000D01*
X161260000Y-65040000D02*
X161260000Y-66242081D01*
X145200000Y-80185000D02*
X145365000Y-80350000D01*
X145200000Y-75675000D02*
X145200000Y-80185000D01*
X146635000Y-89650000D02*
X146635000Y-85135000D01*
X146009990Y-64290010D02*
X146100000Y-64200000D01*
X146009990Y-84509990D02*
X146009990Y-64290010D01*
X146635000Y-85135000D02*
X146009990Y-84509990D01*
X166340000Y-70255620D02*
X166405380Y-70321000D01*
X166340000Y-65040000D02*
X166340000Y-70255620D01*
X127500000Y-80215000D02*
X127365000Y-80350000D01*
X127500000Y-70600000D02*
X127500000Y-80215000D01*
X168880000Y-70280000D02*
X169100000Y-70500000D01*
X168880000Y-65040000D02*
X168880000Y-70280000D01*
X129260010Y-71606010D02*
X129260010Y-85039990D01*
X128700000Y-71046000D02*
X129260010Y-71606010D01*
X128635000Y-85665000D02*
X128635000Y-89650000D01*
X129260010Y-85039990D02*
X128635000Y-85665000D01*
X171420000Y-67380000D02*
X171400000Y-67400000D01*
X171420000Y-65040000D02*
X171420000Y-67380000D01*
X112500000Y-67000000D02*
X112500000Y-74500000D01*
X111905000Y-75095000D02*
X111905000Y-80350000D01*
X112500000Y-74500000D02*
X111905000Y-75095000D01*
X109347000Y-89668000D02*
X109365000Y-89650000D01*
X173960000Y-67360000D02*
X174200000Y-67600000D01*
X173960000Y-65040000D02*
X173960000Y-67360000D01*
X109990010Y-67709990D02*
X109990010Y-84809990D01*
X111600000Y-66100000D02*
X109990010Y-67709990D01*
X109365000Y-85435000D02*
X109365000Y-89650000D01*
X109990010Y-84809990D02*
X109365000Y-85435000D01*
X176537500Y-67837500D02*
X176500000Y-67800000D01*
X176537500Y-71600000D02*
X176537500Y-67837500D01*
X151257000Y-61543000D02*
X151700000Y-61100000D01*
X151257000Y-72390000D02*
X151257000Y-61543000D01*
X162624999Y-61275001D02*
X162800000Y-61100000D01*
X162937500Y-70975000D02*
X162624999Y-70662499D01*
X162937500Y-71700000D02*
X162937500Y-70975000D01*
X162624999Y-70662499D02*
X162624999Y-61275001D01*
X163990010Y-73477510D02*
X163990010Y-85409990D01*
X162937500Y-72425000D02*
X163990010Y-73477510D01*
X162937500Y-71700000D02*
X162937500Y-72425000D01*
X163365000Y-86035000D02*
X163365000Y-89650000D01*
X163990010Y-85409990D02*
X163365000Y-86035000D01*
X159949990Y-77549990D02*
X160000000Y-77600000D01*
X159949990Y-63810010D02*
X159949990Y-77549990D01*
X161260000Y-62500000D02*
X159949990Y-63810010D01*
X147800000Y-80245000D02*
X147905000Y-80350000D01*
X147800000Y-77500000D02*
X147800000Y-80245000D01*
X145065000Y-83016768D02*
X143469990Y-81421758D01*
X145065000Y-89350000D02*
X145065000Y-83016768D01*
X145365000Y-89650000D02*
X145065000Y-89350000D01*
X143469990Y-61269990D02*
X143300000Y-61100000D01*
X143469990Y-81421758D02*
X143469990Y-61269990D01*
X165164999Y-67764999D02*
X165300000Y-67900000D01*
X165164999Y-63675001D02*
X165164999Y-67764999D01*
X166340000Y-62500000D02*
X165164999Y-63675001D01*
X130000000Y-80255000D02*
X129905000Y-80350000D01*
X130000000Y-67725000D02*
X130000000Y-80255000D01*
X127477520Y-89762520D02*
X127365000Y-89650000D01*
X167704999Y-68475999D02*
X168100000Y-68871000D01*
X167704999Y-63675001D02*
X167704999Y-68475999D01*
X168880000Y-62500000D02*
X167704999Y-63675001D01*
X126739990Y-69531010D02*
X126739990Y-85439990D01*
X127400000Y-68871000D02*
X126739990Y-69531010D01*
X127365000Y-86065000D02*
X127365000Y-89650000D01*
X126739990Y-85439990D02*
X127365000Y-86065000D01*
X170262500Y-71500000D02*
X168900000Y-71500000D01*
X111260010Y-83539990D02*
X110440020Y-84359980D01*
X111100000Y-79118232D02*
X111260010Y-79278242D01*
X111260010Y-79278242D02*
X111260010Y-83539990D01*
X111100000Y-74100000D02*
X111100000Y-79118232D01*
X110635000Y-84554960D02*
X110635000Y-89650000D01*
X110440020Y-84359980D02*
X110635000Y-84554960D01*
X170262500Y-70775000D02*
X170262500Y-71500000D01*
X170244999Y-70757499D02*
X170262500Y-70775000D01*
X170244999Y-63675001D02*
X170244999Y-70757499D01*
X171420000Y-62500000D02*
X170244999Y-63675001D01*
D27*
X168900000Y-71529172D02*
X168993458Y-71622630D01*
X168900000Y-71500000D02*
X168900000Y-71529172D01*
D26*
X166100000Y-74300000D02*
X166014999Y-74385001D01*
X166100000Y-71771000D02*
X166100000Y-74300000D01*
X173110001Y-63349999D02*
X173960000Y-62500000D01*
X172784999Y-63675001D02*
X173110001Y-63349999D01*
X172784999Y-68784999D02*
X172784999Y-63675001D01*
X173200000Y-69200000D02*
X172784999Y-68784999D01*
X104843920Y-107172760D02*
X104843920Y-108780920D01*
X104902000Y-108839000D02*
X104902000Y-108966000D01*
X104843920Y-108780920D02*
X104902000Y-108839000D01*
X104180640Y-104180640D02*
X104140000Y-104140000D01*
X104937560Y-104180640D02*
X104180640Y-104180640D01*
X163672760Y-91597240D02*
X163703000Y-91567000D01*
X163672760Y-93477080D02*
X163672760Y-91597240D01*
X165989000Y-89734000D02*
X165905000Y-89650000D01*
X165989000Y-91567000D02*
X165989000Y-89734000D01*
X169404464Y-92982376D02*
X169404464Y-78218464D01*
X169404464Y-78218464D02*
X169291000Y-78105000D01*
X168950400Y-93436440D02*
X169404464Y-92982376D01*
X167005000Y-80180000D02*
X167175000Y-80350000D01*
X167005000Y-78105000D02*
X167005000Y-80180000D01*
X168102280Y-76499720D02*
X168148000Y-76454000D01*
X166776160Y-76499720D02*
X168102280Y-76499720D01*
X162052000Y-80307000D02*
X162095000Y-80350000D01*
X162052000Y-76200000D02*
X162052000Y-80307000D01*
X138710000Y-127825000D02*
X139192000Y-128307000D01*
X138710000Y-121690000D02*
X138710000Y-127825000D01*
X136170000Y-103910000D02*
X136170000Y-107924000D01*
X137575001Y-109149999D02*
X137575001Y-117186999D01*
X136349002Y-107924000D02*
X137575001Y-109149999D01*
X136170000Y-107924000D02*
X136349002Y-107924000D01*
X137345001Y-124655999D02*
X137033000Y-124968000D01*
X137345001Y-117416999D02*
X137345001Y-124655999D01*
X137575001Y-117186999D02*
X137345001Y-117416999D01*
X103886000Y-122555000D02*
X104013000Y-122428000D01*
X103886000Y-125095000D02*
X103886000Y-122555000D01*
M02*
