G04 #@! TF.GenerationSoftware,KiCad,Pcbnew,5.1.5+dfsg1-2build2*
G04 #@! TF.CreationDate,2024-05-03T20:30:25+01:00*
G04 #@! TF.ProjectId,touch_kb1,746f7563-685f-46b6-9231-2e6b69636164,rev?*
G04 #@! TF.SameCoordinates,Original*
G04 #@! TF.FileFunction,Legend,Top*
G04 #@! TF.FilePolarity,Positive*
%FSLAX46Y46*%
G04 Gerber Fmt 4.6, Leading zero omitted, Abs format (unit mm)*
G04 Created by KiCad (PCBNEW 5.1.5+dfsg1-2build2) date 2024-05-03 20:30:25*
%MOMM*%
%LPD*%
G04 APERTURE LIST*
%ADD10C,0.120000*%
%ADD11C,0.150000*%
G04 APERTURE END LIST*
D10*
X222650000Y-107700000D02*
G75*
G03X222650000Y-107700000I-6250000J0D01*
G01*
X132650000Y-77700000D02*
G75*
G03X132650000Y-77700000I-6250000J0D01*
G01*
X117650000Y-77700000D02*
G75*
G03X117650000Y-77700000I-6250000J0D01*
G01*
X102650000Y-77700000D02*
G75*
G03X102650000Y-77700000I-6250000J0D01*
G01*
X140150000Y-62700000D02*
G75*
G03X140150000Y-62700000I-6250000J0D01*
G01*
X102650000Y-107700000D02*
G75*
G03X102650000Y-107700000I-6250000J0D01*
G01*
X177650000Y-107700000D02*
G75*
G03X177650000Y-107700000I-6250000J0D01*
G01*
X140150000Y-92700000D02*
G75*
G03X140150000Y-92700000I-6250000J0D01*
G01*
X232650000Y-92700000D02*
G75*
G03X232650000Y-92700000I-6250000J0D01*
G01*
X125150000Y-92700000D02*
G75*
G03X125150000Y-92700000I-6250000J0D01*
G01*
X222650000Y-77700000D02*
G75*
G03X222650000Y-77700000I-6250000J0D01*
G01*
X110150000Y-92700000D02*
G75*
G03X110150000Y-92700000I-6250000J0D01*
G01*
X80150000Y-62700000D02*
G75*
G03X80150000Y-62700000I-6250000J0D01*
G01*
X117650000Y-107700000D02*
G75*
G03X117650000Y-107700000I-6250000J0D01*
G01*
X72650000Y-77700000D02*
G75*
G03X72650000Y-77700000I-6250000J0D01*
G01*
X132650000Y-107700000D02*
G75*
G03X132650000Y-107700000I-6250000J0D01*
G01*
X65150000Y-92700000D02*
G75*
G03X65150000Y-92700000I-6250000J0D01*
G01*
X147650000Y-107700000D02*
G75*
G03X147650000Y-107700000I-6250000J0D01*
G01*
X80150000Y-92700000D02*
G75*
G03X80150000Y-92700000I-6250000J0D01*
G01*
X170150000Y-62700000D02*
G75*
G03X170150000Y-62700000I-6250000J0D01*
G01*
X65150000Y-62700000D02*
G75*
G03X65150000Y-62700000I-6250000J0D01*
G01*
X185150000Y-62700000D02*
G75*
G03X185150000Y-62700000I-6250000J0D01*
G01*
X72650000Y-107200000D02*
G75*
G03X72650000Y-107200000I-6250000J0D01*
G01*
X177650000Y-77700000D02*
G75*
G03X177650000Y-77700000I-6250000J0D01*
G01*
X110150000Y-62700000D02*
G75*
G03X110150000Y-62700000I-6250000J0D01*
G01*
X185150000Y-92700000D02*
G75*
G03X185150000Y-92700000I-6250000J0D01*
G01*
X125150000Y-62700000D02*
G75*
G03X125150000Y-62700000I-6250000J0D01*
G01*
X192650000Y-77700000D02*
G75*
G03X192650000Y-77700000I-6250000J0D01*
G01*
D11*
X214661904Y-104254380D02*
X215233333Y-104254380D01*
X214947619Y-105254380D02*
X214947619Y-104254380D01*
X215566666Y-105254380D02*
X215566666Y-104254380D01*
X215947619Y-104254380D01*
X216042857Y-104302000D01*
X216090476Y-104349619D01*
X216138095Y-104444857D01*
X216138095Y-104587714D01*
X216090476Y-104682952D01*
X216042857Y-104730571D01*
X215947619Y-104778190D01*
X215566666Y-104778190D01*
X216519047Y-104349619D02*
X216566666Y-104302000D01*
X216661904Y-104254380D01*
X216900000Y-104254380D01*
X216995238Y-104302000D01*
X217042857Y-104349619D01*
X217090476Y-104444857D01*
X217090476Y-104540095D01*
X217042857Y-104682952D01*
X216471428Y-105254380D01*
X217090476Y-105254380D01*
X217947619Y-104587714D02*
X217947619Y-105254380D01*
X217709523Y-104206761D02*
X217471428Y-104921047D01*
X218090476Y-104921047D01*
X124661904Y-74254380D02*
X125233333Y-74254380D01*
X124947619Y-75254380D02*
X124947619Y-74254380D01*
X125566666Y-75254380D02*
X125566666Y-74254380D01*
X125947619Y-74254380D01*
X126042857Y-74302000D01*
X126090476Y-74349619D01*
X126138095Y-74444857D01*
X126138095Y-74587714D01*
X126090476Y-74682952D01*
X126042857Y-74730571D01*
X125947619Y-74778190D01*
X125566666Y-74778190D01*
X126471428Y-74254380D02*
X127090476Y-74254380D01*
X126757142Y-74635333D01*
X126900000Y-74635333D01*
X126995238Y-74682952D01*
X127042857Y-74730571D01*
X127090476Y-74825809D01*
X127090476Y-75063904D01*
X127042857Y-75159142D01*
X126995238Y-75206761D01*
X126900000Y-75254380D01*
X126614285Y-75254380D01*
X126519047Y-75206761D01*
X126471428Y-75159142D01*
X128042857Y-75254380D02*
X127471428Y-75254380D01*
X127757142Y-75254380D02*
X127757142Y-74254380D01*
X127661904Y-74397238D01*
X127566666Y-74492476D01*
X127471428Y-74540095D01*
X109661904Y-74254380D02*
X110233333Y-74254380D01*
X109947619Y-75254380D02*
X109947619Y-74254380D01*
X110566666Y-75254380D02*
X110566666Y-74254380D01*
X110947619Y-74254380D01*
X111042857Y-74302000D01*
X111090476Y-74349619D01*
X111138095Y-74444857D01*
X111138095Y-74587714D01*
X111090476Y-74682952D01*
X111042857Y-74730571D01*
X110947619Y-74778190D01*
X110566666Y-74778190D01*
X111519047Y-74349619D02*
X111566666Y-74302000D01*
X111661904Y-74254380D01*
X111900000Y-74254380D01*
X111995238Y-74302000D01*
X112042857Y-74349619D01*
X112090476Y-74444857D01*
X112090476Y-74540095D01*
X112042857Y-74682952D01*
X111471428Y-75254380D01*
X112090476Y-75254380D01*
X112566666Y-75254380D02*
X112757142Y-75254380D01*
X112852380Y-75206761D01*
X112900000Y-75159142D01*
X112995238Y-75016285D01*
X113042857Y-74825809D01*
X113042857Y-74444857D01*
X112995238Y-74349619D01*
X112947619Y-74302000D01*
X112852380Y-74254380D01*
X112661904Y-74254380D01*
X112566666Y-74302000D01*
X112519047Y-74349619D01*
X112471428Y-74444857D01*
X112471428Y-74682952D01*
X112519047Y-74778190D01*
X112566666Y-74825809D01*
X112661904Y-74873428D01*
X112852380Y-74873428D01*
X112947619Y-74825809D01*
X112995238Y-74778190D01*
X113042857Y-74682952D01*
X94661904Y-74254380D02*
X95233333Y-74254380D01*
X94947619Y-75254380D02*
X94947619Y-74254380D01*
X95566666Y-75254380D02*
X95566666Y-74254380D01*
X95947619Y-74254380D01*
X96042857Y-74302000D01*
X96090476Y-74349619D01*
X96138095Y-74444857D01*
X96138095Y-74587714D01*
X96090476Y-74682952D01*
X96042857Y-74730571D01*
X95947619Y-74778190D01*
X95566666Y-74778190D01*
X96519047Y-74349619D02*
X96566666Y-74302000D01*
X96661904Y-74254380D01*
X96900000Y-74254380D01*
X96995238Y-74302000D01*
X97042857Y-74349619D01*
X97090476Y-74444857D01*
X97090476Y-74540095D01*
X97042857Y-74682952D01*
X96471428Y-75254380D01*
X97090476Y-75254380D01*
X97423809Y-74254380D02*
X98090476Y-74254380D01*
X97661904Y-75254380D01*
X132161904Y-59254380D02*
X132733333Y-59254380D01*
X132447619Y-60254380D02*
X132447619Y-59254380D01*
X133066666Y-60254380D02*
X133066666Y-59254380D01*
X133447619Y-59254380D01*
X133542857Y-59302000D01*
X133590476Y-59349619D01*
X133638095Y-59444857D01*
X133638095Y-59587714D01*
X133590476Y-59682952D01*
X133542857Y-59730571D01*
X133447619Y-59778190D01*
X133066666Y-59778190D01*
X134019047Y-59349619D02*
X134066666Y-59302000D01*
X134161904Y-59254380D01*
X134400000Y-59254380D01*
X134495238Y-59302000D01*
X134542857Y-59349619D01*
X134590476Y-59444857D01*
X134590476Y-59540095D01*
X134542857Y-59682952D01*
X133971428Y-60254380D01*
X134590476Y-60254380D01*
X135495238Y-59254380D02*
X135019047Y-59254380D01*
X134971428Y-59730571D01*
X135019047Y-59682952D01*
X135114285Y-59635333D01*
X135352380Y-59635333D01*
X135447619Y-59682952D01*
X135495238Y-59730571D01*
X135542857Y-59825809D01*
X135542857Y-60063904D01*
X135495238Y-60159142D01*
X135447619Y-60206761D01*
X135352380Y-60254380D01*
X135114285Y-60254380D01*
X135019047Y-60206761D01*
X134971428Y-60159142D01*
X94661904Y-104254380D02*
X95233333Y-104254380D01*
X94947619Y-105254380D02*
X94947619Y-104254380D01*
X95566666Y-105254380D02*
X95566666Y-104254380D01*
X95947619Y-104254380D01*
X96042857Y-104302000D01*
X96090476Y-104349619D01*
X96138095Y-104444857D01*
X96138095Y-104587714D01*
X96090476Y-104682952D01*
X96042857Y-104730571D01*
X95947619Y-104778190D01*
X95566666Y-104778190D01*
X96519047Y-104349619D02*
X96566666Y-104302000D01*
X96661904Y-104254380D01*
X96900000Y-104254380D01*
X96995238Y-104302000D01*
X97042857Y-104349619D01*
X97090476Y-104444857D01*
X97090476Y-104540095D01*
X97042857Y-104682952D01*
X96471428Y-105254380D01*
X97090476Y-105254380D01*
X97423809Y-104254380D02*
X98042857Y-104254380D01*
X97709523Y-104635333D01*
X97852380Y-104635333D01*
X97947619Y-104682952D01*
X97995238Y-104730571D01*
X98042857Y-104825809D01*
X98042857Y-105063904D01*
X97995238Y-105159142D01*
X97947619Y-105206761D01*
X97852380Y-105254380D01*
X97566666Y-105254380D01*
X97471428Y-105206761D01*
X97423809Y-105159142D01*
X169661904Y-104254380D02*
X170233333Y-104254380D01*
X169947619Y-105254380D02*
X169947619Y-104254380D01*
X170566666Y-105254380D02*
X170566666Y-104254380D01*
X170947619Y-104254380D01*
X171042857Y-104302000D01*
X171090476Y-104349619D01*
X171138095Y-104444857D01*
X171138095Y-104587714D01*
X171090476Y-104682952D01*
X171042857Y-104730571D01*
X170947619Y-104778190D01*
X170566666Y-104778190D01*
X171519047Y-104349619D02*
X171566666Y-104302000D01*
X171661904Y-104254380D01*
X171900000Y-104254380D01*
X171995238Y-104302000D01*
X172042857Y-104349619D01*
X172090476Y-104444857D01*
X172090476Y-104540095D01*
X172042857Y-104682952D01*
X171471428Y-105254380D01*
X172090476Y-105254380D01*
X172471428Y-104349619D02*
X172519047Y-104302000D01*
X172614285Y-104254380D01*
X172852380Y-104254380D01*
X172947619Y-104302000D01*
X172995238Y-104349619D01*
X173042857Y-104444857D01*
X173042857Y-104540095D01*
X172995238Y-104682952D01*
X172423809Y-105254380D01*
X173042857Y-105254380D01*
X132161904Y-89254380D02*
X132733333Y-89254380D01*
X132447619Y-90254380D02*
X132447619Y-89254380D01*
X133066666Y-90254380D02*
X133066666Y-89254380D01*
X133447619Y-89254380D01*
X133542857Y-89302000D01*
X133590476Y-89349619D01*
X133638095Y-89444857D01*
X133638095Y-89587714D01*
X133590476Y-89682952D01*
X133542857Y-89730571D01*
X133447619Y-89778190D01*
X133066666Y-89778190D01*
X134019047Y-89349619D02*
X134066666Y-89302000D01*
X134161904Y-89254380D01*
X134400000Y-89254380D01*
X134495238Y-89302000D01*
X134542857Y-89349619D01*
X134590476Y-89444857D01*
X134590476Y-89540095D01*
X134542857Y-89682952D01*
X133971428Y-90254380D01*
X134590476Y-90254380D01*
X135542857Y-90254380D02*
X134971428Y-90254380D01*
X135257142Y-90254380D02*
X135257142Y-89254380D01*
X135161904Y-89397238D01*
X135066666Y-89492476D01*
X134971428Y-89540095D01*
X224661904Y-89254380D02*
X225233333Y-89254380D01*
X224947619Y-90254380D02*
X224947619Y-89254380D01*
X225566666Y-90254380D02*
X225566666Y-89254380D01*
X225947619Y-89254380D01*
X226042857Y-89302000D01*
X226090476Y-89349619D01*
X226138095Y-89444857D01*
X226138095Y-89587714D01*
X226090476Y-89682952D01*
X226042857Y-89730571D01*
X225947619Y-89778190D01*
X225566666Y-89778190D01*
X226519047Y-89349619D02*
X226566666Y-89302000D01*
X226661904Y-89254380D01*
X226900000Y-89254380D01*
X226995238Y-89302000D01*
X227042857Y-89349619D01*
X227090476Y-89444857D01*
X227090476Y-89540095D01*
X227042857Y-89682952D01*
X226471428Y-90254380D01*
X227090476Y-90254380D01*
X227709523Y-89254380D02*
X227804761Y-89254380D01*
X227900000Y-89302000D01*
X227947619Y-89349619D01*
X227995238Y-89444857D01*
X228042857Y-89635333D01*
X228042857Y-89873428D01*
X227995238Y-90063904D01*
X227947619Y-90159142D01*
X227900000Y-90206761D01*
X227804761Y-90254380D01*
X227709523Y-90254380D01*
X227614285Y-90206761D01*
X227566666Y-90159142D01*
X227519047Y-90063904D01*
X227471428Y-89873428D01*
X227471428Y-89635333D01*
X227519047Y-89444857D01*
X227566666Y-89349619D01*
X227614285Y-89302000D01*
X227709523Y-89254380D01*
X117161904Y-89254380D02*
X117733333Y-89254380D01*
X117447619Y-90254380D02*
X117447619Y-89254380D01*
X118066666Y-90254380D02*
X118066666Y-89254380D01*
X118447619Y-89254380D01*
X118542857Y-89302000D01*
X118590476Y-89349619D01*
X118638095Y-89444857D01*
X118638095Y-89587714D01*
X118590476Y-89682952D01*
X118542857Y-89730571D01*
X118447619Y-89778190D01*
X118066666Y-89778190D01*
X119590476Y-90254380D02*
X119019047Y-90254380D01*
X119304761Y-90254380D02*
X119304761Y-89254380D01*
X119209523Y-89397238D01*
X119114285Y-89492476D01*
X119019047Y-89540095D01*
X120066666Y-90254380D02*
X120257142Y-90254380D01*
X120352380Y-90206761D01*
X120400000Y-90159142D01*
X120495238Y-90016285D01*
X120542857Y-89825809D01*
X120542857Y-89444857D01*
X120495238Y-89349619D01*
X120447619Y-89302000D01*
X120352380Y-89254380D01*
X120161904Y-89254380D01*
X120066666Y-89302000D01*
X120019047Y-89349619D01*
X119971428Y-89444857D01*
X119971428Y-89682952D01*
X120019047Y-89778190D01*
X120066666Y-89825809D01*
X120161904Y-89873428D01*
X120352380Y-89873428D01*
X120447619Y-89825809D01*
X120495238Y-89778190D01*
X120542857Y-89682952D01*
X214661904Y-74254380D02*
X215233333Y-74254380D01*
X214947619Y-75254380D02*
X214947619Y-74254380D01*
X215566666Y-75254380D02*
X215566666Y-74254380D01*
X215947619Y-74254380D01*
X216042857Y-74302000D01*
X216090476Y-74349619D01*
X216138095Y-74444857D01*
X216138095Y-74587714D01*
X216090476Y-74682952D01*
X216042857Y-74730571D01*
X215947619Y-74778190D01*
X215566666Y-74778190D01*
X217090476Y-75254380D02*
X216519047Y-75254380D01*
X216804761Y-75254380D02*
X216804761Y-74254380D01*
X216709523Y-74397238D01*
X216614285Y-74492476D01*
X216519047Y-74540095D01*
X217661904Y-74682952D02*
X217566666Y-74635333D01*
X217519047Y-74587714D01*
X217471428Y-74492476D01*
X217471428Y-74444857D01*
X217519047Y-74349619D01*
X217566666Y-74302000D01*
X217661904Y-74254380D01*
X217852380Y-74254380D01*
X217947619Y-74302000D01*
X217995238Y-74349619D01*
X218042857Y-74444857D01*
X218042857Y-74492476D01*
X217995238Y-74587714D01*
X217947619Y-74635333D01*
X217852380Y-74682952D01*
X217661904Y-74682952D01*
X217566666Y-74730571D01*
X217519047Y-74778190D01*
X217471428Y-74873428D01*
X217471428Y-75063904D01*
X217519047Y-75159142D01*
X217566666Y-75206761D01*
X217661904Y-75254380D01*
X217852380Y-75254380D01*
X217947619Y-75206761D01*
X217995238Y-75159142D01*
X218042857Y-75063904D01*
X218042857Y-74873428D01*
X217995238Y-74778190D01*
X217947619Y-74730571D01*
X217852380Y-74682952D01*
X102161904Y-89254380D02*
X102733333Y-89254380D01*
X102447619Y-90254380D02*
X102447619Y-89254380D01*
X103066666Y-90254380D02*
X103066666Y-89254380D01*
X103447619Y-89254380D01*
X103542857Y-89302000D01*
X103590476Y-89349619D01*
X103638095Y-89444857D01*
X103638095Y-89587714D01*
X103590476Y-89682952D01*
X103542857Y-89730571D01*
X103447619Y-89778190D01*
X103066666Y-89778190D01*
X104590476Y-90254380D02*
X104019047Y-90254380D01*
X104304761Y-90254380D02*
X104304761Y-89254380D01*
X104209523Y-89397238D01*
X104114285Y-89492476D01*
X104019047Y-89540095D01*
X104923809Y-89254380D02*
X105590476Y-89254380D01*
X105161904Y-90254380D01*
X72161904Y-59254380D02*
X72733333Y-59254380D01*
X72447619Y-60254380D02*
X72447619Y-59254380D01*
X73066666Y-60254380D02*
X73066666Y-59254380D01*
X73447619Y-59254380D01*
X73542857Y-59302000D01*
X73590476Y-59349619D01*
X73638095Y-59444857D01*
X73638095Y-59587714D01*
X73590476Y-59682952D01*
X73542857Y-59730571D01*
X73447619Y-59778190D01*
X73066666Y-59778190D01*
X74590476Y-60254380D02*
X74019047Y-60254380D01*
X74304761Y-60254380D02*
X74304761Y-59254380D01*
X74209523Y-59397238D01*
X74114285Y-59492476D01*
X74019047Y-59540095D01*
X75447619Y-59254380D02*
X75257142Y-59254380D01*
X75161904Y-59302000D01*
X75114285Y-59349619D01*
X75019047Y-59492476D01*
X74971428Y-59682952D01*
X74971428Y-60063904D01*
X75019047Y-60159142D01*
X75066666Y-60206761D01*
X75161904Y-60254380D01*
X75352380Y-60254380D01*
X75447619Y-60206761D01*
X75495238Y-60159142D01*
X75542857Y-60063904D01*
X75542857Y-59825809D01*
X75495238Y-59730571D01*
X75447619Y-59682952D01*
X75352380Y-59635333D01*
X75161904Y-59635333D01*
X75066666Y-59682952D01*
X75019047Y-59730571D01*
X74971428Y-59825809D01*
X109661904Y-104254380D02*
X110233333Y-104254380D01*
X109947619Y-105254380D02*
X109947619Y-104254380D01*
X110566666Y-105254380D02*
X110566666Y-104254380D01*
X110947619Y-104254380D01*
X111042857Y-104302000D01*
X111090476Y-104349619D01*
X111138095Y-104444857D01*
X111138095Y-104587714D01*
X111090476Y-104682952D01*
X111042857Y-104730571D01*
X110947619Y-104778190D01*
X110566666Y-104778190D01*
X112090476Y-105254380D02*
X111519047Y-105254380D01*
X111804761Y-105254380D02*
X111804761Y-104254380D01*
X111709523Y-104397238D01*
X111614285Y-104492476D01*
X111519047Y-104540095D01*
X112995238Y-104254380D02*
X112519047Y-104254380D01*
X112471428Y-104730571D01*
X112519047Y-104682952D01*
X112614285Y-104635333D01*
X112852380Y-104635333D01*
X112947619Y-104682952D01*
X112995238Y-104730571D01*
X113042857Y-104825809D01*
X113042857Y-105063904D01*
X112995238Y-105159142D01*
X112947619Y-105206761D01*
X112852380Y-105254380D01*
X112614285Y-105254380D01*
X112519047Y-105206761D01*
X112471428Y-105159142D01*
X64661904Y-74254380D02*
X65233333Y-74254380D01*
X64947619Y-75254380D02*
X64947619Y-74254380D01*
X65566666Y-75254380D02*
X65566666Y-74254380D01*
X65947619Y-74254380D01*
X66042857Y-74302000D01*
X66090476Y-74349619D01*
X66138095Y-74444857D01*
X66138095Y-74587714D01*
X66090476Y-74682952D01*
X66042857Y-74730571D01*
X65947619Y-74778190D01*
X65566666Y-74778190D01*
X67090476Y-75254380D02*
X66519047Y-75254380D01*
X66804761Y-75254380D02*
X66804761Y-74254380D01*
X66709523Y-74397238D01*
X66614285Y-74492476D01*
X66519047Y-74540095D01*
X67947619Y-74587714D02*
X67947619Y-75254380D01*
X67709523Y-74206761D02*
X67471428Y-74921047D01*
X68090476Y-74921047D01*
X124661904Y-104254380D02*
X125233333Y-104254380D01*
X124947619Y-105254380D02*
X124947619Y-104254380D01*
X125566666Y-105254380D02*
X125566666Y-104254380D01*
X125947619Y-104254380D01*
X126042857Y-104302000D01*
X126090476Y-104349619D01*
X126138095Y-104444857D01*
X126138095Y-104587714D01*
X126090476Y-104682952D01*
X126042857Y-104730571D01*
X125947619Y-104778190D01*
X125566666Y-104778190D01*
X127090476Y-105254380D02*
X126519047Y-105254380D01*
X126804761Y-105254380D02*
X126804761Y-104254380D01*
X126709523Y-104397238D01*
X126614285Y-104492476D01*
X126519047Y-104540095D01*
X127423809Y-104254380D02*
X128042857Y-104254380D01*
X127709523Y-104635333D01*
X127852380Y-104635333D01*
X127947619Y-104682952D01*
X127995238Y-104730571D01*
X128042857Y-104825809D01*
X128042857Y-105063904D01*
X127995238Y-105159142D01*
X127947619Y-105206761D01*
X127852380Y-105254380D01*
X127566666Y-105254380D01*
X127471428Y-105206761D01*
X127423809Y-105159142D01*
X57161904Y-89254380D02*
X57733333Y-89254380D01*
X57447619Y-90254380D02*
X57447619Y-89254380D01*
X58066666Y-90254380D02*
X58066666Y-89254380D01*
X58447619Y-89254380D01*
X58542857Y-89302000D01*
X58590476Y-89349619D01*
X58638095Y-89444857D01*
X58638095Y-89587714D01*
X58590476Y-89682952D01*
X58542857Y-89730571D01*
X58447619Y-89778190D01*
X58066666Y-89778190D01*
X59590476Y-90254380D02*
X59019047Y-90254380D01*
X59304761Y-90254380D02*
X59304761Y-89254380D01*
X59209523Y-89397238D01*
X59114285Y-89492476D01*
X59019047Y-89540095D01*
X59971428Y-89349619D02*
X60019047Y-89302000D01*
X60114285Y-89254380D01*
X60352380Y-89254380D01*
X60447619Y-89302000D01*
X60495238Y-89349619D01*
X60542857Y-89444857D01*
X60542857Y-89540095D01*
X60495238Y-89682952D01*
X59923809Y-90254380D01*
X60542857Y-90254380D01*
X139661904Y-104254380D02*
X140233333Y-104254380D01*
X139947619Y-105254380D02*
X139947619Y-104254380D01*
X140566666Y-105254380D02*
X140566666Y-104254380D01*
X140947619Y-104254380D01*
X141042857Y-104302000D01*
X141090476Y-104349619D01*
X141138095Y-104444857D01*
X141138095Y-104587714D01*
X141090476Y-104682952D01*
X141042857Y-104730571D01*
X140947619Y-104778190D01*
X140566666Y-104778190D01*
X142090476Y-105254380D02*
X141519047Y-105254380D01*
X141804761Y-105254380D02*
X141804761Y-104254380D01*
X141709523Y-104397238D01*
X141614285Y-104492476D01*
X141519047Y-104540095D01*
X143042857Y-105254380D02*
X142471428Y-105254380D01*
X142757142Y-105254380D02*
X142757142Y-104254380D01*
X142661904Y-104397238D01*
X142566666Y-104492476D01*
X142471428Y-104540095D01*
X72161904Y-89254380D02*
X72733333Y-89254380D01*
X72447619Y-90254380D02*
X72447619Y-89254380D01*
X73066666Y-90254380D02*
X73066666Y-89254380D01*
X73447619Y-89254380D01*
X73542857Y-89302000D01*
X73590476Y-89349619D01*
X73638095Y-89444857D01*
X73638095Y-89587714D01*
X73590476Y-89682952D01*
X73542857Y-89730571D01*
X73447619Y-89778190D01*
X73066666Y-89778190D01*
X74590476Y-90254380D02*
X74019047Y-90254380D01*
X74304761Y-90254380D02*
X74304761Y-89254380D01*
X74209523Y-89397238D01*
X74114285Y-89492476D01*
X74019047Y-89540095D01*
X75209523Y-89254380D02*
X75304761Y-89254380D01*
X75400000Y-89302000D01*
X75447619Y-89349619D01*
X75495238Y-89444857D01*
X75542857Y-89635333D01*
X75542857Y-89873428D01*
X75495238Y-90063904D01*
X75447619Y-90159142D01*
X75400000Y-90206761D01*
X75304761Y-90254380D01*
X75209523Y-90254380D01*
X75114285Y-90206761D01*
X75066666Y-90159142D01*
X75019047Y-90063904D01*
X74971428Y-89873428D01*
X74971428Y-89635333D01*
X75019047Y-89444857D01*
X75066666Y-89349619D01*
X75114285Y-89302000D01*
X75209523Y-89254380D01*
X162638095Y-59254380D02*
X163209523Y-59254380D01*
X162923809Y-60254380D02*
X162923809Y-59254380D01*
X163542857Y-60254380D02*
X163542857Y-59254380D01*
X163923809Y-59254380D01*
X164019047Y-59302000D01*
X164066666Y-59349619D01*
X164114285Y-59444857D01*
X164114285Y-59587714D01*
X164066666Y-59682952D01*
X164019047Y-59730571D01*
X163923809Y-59778190D01*
X163542857Y-59778190D01*
X164590476Y-60254380D02*
X164780952Y-60254380D01*
X164876190Y-60206761D01*
X164923809Y-60159142D01*
X165019047Y-60016285D01*
X165066666Y-59825809D01*
X165066666Y-59444857D01*
X165019047Y-59349619D01*
X164971428Y-59302000D01*
X164876190Y-59254380D01*
X164685714Y-59254380D01*
X164590476Y-59302000D01*
X164542857Y-59349619D01*
X164495238Y-59444857D01*
X164495238Y-59682952D01*
X164542857Y-59778190D01*
X164590476Y-59825809D01*
X164685714Y-59873428D01*
X164876190Y-59873428D01*
X164971428Y-59825809D01*
X165019047Y-59778190D01*
X165066666Y-59682952D01*
X57638095Y-59254380D02*
X58209523Y-59254380D01*
X57923809Y-60254380D02*
X57923809Y-59254380D01*
X58542857Y-60254380D02*
X58542857Y-59254380D01*
X58923809Y-59254380D01*
X59019047Y-59302000D01*
X59066666Y-59349619D01*
X59114285Y-59444857D01*
X59114285Y-59587714D01*
X59066666Y-59682952D01*
X59019047Y-59730571D01*
X58923809Y-59778190D01*
X58542857Y-59778190D01*
X59685714Y-59682952D02*
X59590476Y-59635333D01*
X59542857Y-59587714D01*
X59495238Y-59492476D01*
X59495238Y-59444857D01*
X59542857Y-59349619D01*
X59590476Y-59302000D01*
X59685714Y-59254380D01*
X59876190Y-59254380D01*
X59971428Y-59302000D01*
X60019047Y-59349619D01*
X60066666Y-59444857D01*
X60066666Y-59492476D01*
X60019047Y-59587714D01*
X59971428Y-59635333D01*
X59876190Y-59682952D01*
X59685714Y-59682952D01*
X59590476Y-59730571D01*
X59542857Y-59778190D01*
X59495238Y-59873428D01*
X59495238Y-60063904D01*
X59542857Y-60159142D01*
X59590476Y-60206761D01*
X59685714Y-60254380D01*
X59876190Y-60254380D01*
X59971428Y-60206761D01*
X60019047Y-60159142D01*
X60066666Y-60063904D01*
X60066666Y-59873428D01*
X60019047Y-59778190D01*
X59971428Y-59730571D01*
X59876190Y-59682952D01*
X177638095Y-59254380D02*
X178209523Y-59254380D01*
X177923809Y-60254380D02*
X177923809Y-59254380D01*
X178542857Y-60254380D02*
X178542857Y-59254380D01*
X178923809Y-59254380D01*
X179019047Y-59302000D01*
X179066666Y-59349619D01*
X179114285Y-59444857D01*
X179114285Y-59587714D01*
X179066666Y-59682952D01*
X179019047Y-59730571D01*
X178923809Y-59778190D01*
X178542857Y-59778190D01*
X179447619Y-59254380D02*
X180114285Y-59254380D01*
X179685714Y-60254380D01*
X65138095Y-103754380D02*
X65709523Y-103754380D01*
X65423809Y-104754380D02*
X65423809Y-103754380D01*
X66042857Y-104754380D02*
X66042857Y-103754380D01*
X66423809Y-103754380D01*
X66519047Y-103802000D01*
X66566666Y-103849619D01*
X66614285Y-103944857D01*
X66614285Y-104087714D01*
X66566666Y-104182952D01*
X66519047Y-104230571D01*
X66423809Y-104278190D01*
X66042857Y-104278190D01*
X67471428Y-103754380D02*
X67280952Y-103754380D01*
X67185714Y-103802000D01*
X67138095Y-103849619D01*
X67042857Y-103992476D01*
X66995238Y-104182952D01*
X66995238Y-104563904D01*
X67042857Y-104659142D01*
X67090476Y-104706761D01*
X67185714Y-104754380D01*
X67376190Y-104754380D01*
X67471428Y-104706761D01*
X67519047Y-104659142D01*
X67566666Y-104563904D01*
X67566666Y-104325809D01*
X67519047Y-104230571D01*
X67471428Y-104182952D01*
X67376190Y-104135333D01*
X67185714Y-104135333D01*
X67090476Y-104182952D01*
X67042857Y-104230571D01*
X66995238Y-104325809D01*
X170138095Y-74254380D02*
X170709523Y-74254380D01*
X170423809Y-75254380D02*
X170423809Y-74254380D01*
X171042857Y-75254380D02*
X171042857Y-74254380D01*
X171423809Y-74254380D01*
X171519047Y-74302000D01*
X171566666Y-74349619D01*
X171614285Y-74444857D01*
X171614285Y-74587714D01*
X171566666Y-74682952D01*
X171519047Y-74730571D01*
X171423809Y-74778190D01*
X171042857Y-74778190D01*
X172519047Y-74254380D02*
X172042857Y-74254380D01*
X171995238Y-74730571D01*
X172042857Y-74682952D01*
X172138095Y-74635333D01*
X172376190Y-74635333D01*
X172471428Y-74682952D01*
X172519047Y-74730571D01*
X172566666Y-74825809D01*
X172566666Y-75063904D01*
X172519047Y-75159142D01*
X172471428Y-75206761D01*
X172376190Y-75254380D01*
X172138095Y-75254380D01*
X172042857Y-75206761D01*
X171995238Y-75159142D01*
X102638095Y-59254380D02*
X103209523Y-59254380D01*
X102923809Y-60254380D02*
X102923809Y-59254380D01*
X103542857Y-60254380D02*
X103542857Y-59254380D01*
X103923809Y-59254380D01*
X104019047Y-59302000D01*
X104066666Y-59349619D01*
X104114285Y-59444857D01*
X104114285Y-59587714D01*
X104066666Y-59682952D01*
X104019047Y-59730571D01*
X103923809Y-59778190D01*
X103542857Y-59778190D01*
X104971428Y-59587714D02*
X104971428Y-60254380D01*
X104733333Y-59206761D02*
X104495238Y-59921047D01*
X105114285Y-59921047D01*
X177638095Y-89254380D02*
X178209523Y-89254380D01*
X177923809Y-90254380D02*
X177923809Y-89254380D01*
X178542857Y-90254380D02*
X178542857Y-89254380D01*
X178923809Y-89254380D01*
X179019047Y-89302000D01*
X179066666Y-89349619D01*
X179114285Y-89444857D01*
X179114285Y-89587714D01*
X179066666Y-89682952D01*
X179019047Y-89730571D01*
X178923809Y-89778190D01*
X178542857Y-89778190D01*
X179447619Y-89254380D02*
X180066666Y-89254380D01*
X179733333Y-89635333D01*
X179876190Y-89635333D01*
X179971428Y-89682952D01*
X180019047Y-89730571D01*
X180066666Y-89825809D01*
X180066666Y-90063904D01*
X180019047Y-90159142D01*
X179971428Y-90206761D01*
X179876190Y-90254380D01*
X179590476Y-90254380D01*
X179495238Y-90206761D01*
X179447619Y-90159142D01*
X117638095Y-59254380D02*
X118209523Y-59254380D01*
X117923809Y-60254380D02*
X117923809Y-59254380D01*
X118542857Y-60254380D02*
X118542857Y-59254380D01*
X118923809Y-59254380D01*
X119019047Y-59302000D01*
X119066666Y-59349619D01*
X119114285Y-59444857D01*
X119114285Y-59587714D01*
X119066666Y-59682952D01*
X119019047Y-59730571D01*
X118923809Y-59778190D01*
X118542857Y-59778190D01*
X119495238Y-59349619D02*
X119542857Y-59302000D01*
X119638095Y-59254380D01*
X119876190Y-59254380D01*
X119971428Y-59302000D01*
X120019047Y-59349619D01*
X120066666Y-59444857D01*
X120066666Y-59540095D01*
X120019047Y-59682952D01*
X119447619Y-60254380D01*
X120066666Y-60254380D01*
X185138095Y-74254380D02*
X185709523Y-74254380D01*
X185423809Y-75254380D02*
X185423809Y-74254380D01*
X186042857Y-75254380D02*
X186042857Y-74254380D01*
X186423809Y-74254380D01*
X186519047Y-74302000D01*
X186566666Y-74349619D01*
X186614285Y-74444857D01*
X186614285Y-74587714D01*
X186566666Y-74682952D01*
X186519047Y-74730571D01*
X186423809Y-74778190D01*
X186042857Y-74778190D01*
X187566666Y-75254380D02*
X186995238Y-75254380D01*
X187280952Y-75254380D02*
X187280952Y-74254380D01*
X187185714Y-74397238D01*
X187090476Y-74492476D01*
X186995238Y-74540095D01*
M02*
