G04 #@! TF.GenerationSoftware,KiCad,Pcbnew,5.1.5+dfsg1-2build2*
G04 #@! TF.CreationDate,2024-05-03T20:30:25+01:00*
G04 #@! TF.ProjectId,touch_kb1,746f7563-685f-46b6-9231-2e6b69636164,rev?*
G04 #@! TF.SameCoordinates,Original*
G04 #@! TF.FileFunction,Soldermask,Top*
G04 #@! TF.FilePolarity,Negative*
%FSLAX46Y46*%
G04 Gerber Fmt 4.6, Leading zero omitted, Abs format (unit mm)*
G04 Created by KiCad (PCBNEW 5.1.5+dfsg1-2build2) date 2024-05-03 20:30:25*
%MOMM*%
%LPD*%
G04 APERTURE LIST*
%ADD10C,0.100000*%
G04 APERTURE END LIST*
D10*
G36*
X143237933Y-101641143D02*
G01*
X144384641Y-102116125D01*
X144384643Y-102116126D01*
X144644397Y-102289688D01*
X145416653Y-102805693D01*
X146294307Y-103683347D01*
X146983875Y-104715359D01*
X147458857Y-105862067D01*
X147701000Y-107079404D01*
X147701000Y-108320596D01*
X147458857Y-109537933D01*
X146983875Y-110684641D01*
X146294307Y-111716653D01*
X145416653Y-112594307D01*
X144644397Y-113110312D01*
X144384643Y-113283874D01*
X144384642Y-113283875D01*
X144384641Y-113283875D01*
X143237933Y-113758857D01*
X142020596Y-114001000D01*
X140779404Y-114001000D01*
X139562067Y-113758857D01*
X138415359Y-113283875D01*
X138415358Y-113283875D01*
X138415357Y-113283874D01*
X138155603Y-113110312D01*
X137383347Y-112594307D01*
X136505693Y-111716653D01*
X135816125Y-110684641D01*
X135341143Y-109537933D01*
X135099000Y-108320596D01*
X135099000Y-107079404D01*
X135341143Y-105862067D01*
X135816125Y-104715359D01*
X136505693Y-103683347D01*
X137383347Y-102805693D01*
X138155603Y-102289688D01*
X138415357Y-102116126D01*
X138415359Y-102116125D01*
X139562067Y-101641143D01*
X140779404Y-101399000D01*
X142020596Y-101399000D01*
X143237933Y-101641143D01*
G37*
G36*
X128237933Y-101641143D02*
G01*
X129384641Y-102116125D01*
X129384643Y-102116126D01*
X129644397Y-102289688D01*
X130416653Y-102805693D01*
X131294307Y-103683347D01*
X131983875Y-104715359D01*
X132458857Y-105862067D01*
X132701000Y-107079404D01*
X132701000Y-108320596D01*
X132458857Y-109537933D01*
X131983875Y-110684641D01*
X131294307Y-111716653D01*
X130416653Y-112594307D01*
X129644397Y-113110312D01*
X129384643Y-113283874D01*
X129384642Y-113283875D01*
X129384641Y-113283875D01*
X128237933Y-113758857D01*
X127020596Y-114001000D01*
X125779404Y-114001000D01*
X124562067Y-113758857D01*
X123415359Y-113283875D01*
X123415358Y-113283875D01*
X123415357Y-113283874D01*
X123155603Y-113110312D01*
X122383347Y-112594307D01*
X121505693Y-111716653D01*
X120816125Y-110684641D01*
X120341143Y-109537933D01*
X120099000Y-108320596D01*
X120099000Y-107079404D01*
X120341143Y-105862067D01*
X120816125Y-104715359D01*
X121505693Y-103683347D01*
X122383347Y-102805693D01*
X123155603Y-102289688D01*
X123415357Y-102116126D01*
X123415359Y-102116125D01*
X124562067Y-101641143D01*
X125779404Y-101399000D01*
X127020596Y-101399000D01*
X128237933Y-101641143D01*
G37*
G36*
X113237933Y-101641143D02*
G01*
X114384641Y-102116125D01*
X114384643Y-102116126D01*
X114644397Y-102289688D01*
X115416653Y-102805693D01*
X116294307Y-103683347D01*
X116983875Y-104715359D01*
X117458857Y-105862067D01*
X117701000Y-107079404D01*
X117701000Y-108320596D01*
X117458857Y-109537933D01*
X116983875Y-110684641D01*
X116294307Y-111716653D01*
X115416653Y-112594307D01*
X114644397Y-113110312D01*
X114384643Y-113283874D01*
X114384642Y-113283875D01*
X114384641Y-113283875D01*
X113237933Y-113758857D01*
X112020596Y-114001000D01*
X110779404Y-114001000D01*
X109562067Y-113758857D01*
X108415359Y-113283875D01*
X108415358Y-113283875D01*
X108415357Y-113283874D01*
X108155603Y-113110312D01*
X107383347Y-112594307D01*
X106505693Y-111716653D01*
X105816125Y-110684641D01*
X105341143Y-109537933D01*
X105099000Y-108320596D01*
X105099000Y-107079404D01*
X105341143Y-105862067D01*
X105816125Y-104715359D01*
X106505693Y-103683347D01*
X107383347Y-102805693D01*
X108155603Y-102289688D01*
X108415357Y-102116126D01*
X108415359Y-102116125D01*
X109562067Y-101641143D01*
X110779404Y-101399000D01*
X112020596Y-101399000D01*
X113237933Y-101641143D01*
G37*
G36*
X98237933Y-101641143D02*
G01*
X99384641Y-102116125D01*
X99384643Y-102116126D01*
X99644397Y-102289688D01*
X100416653Y-102805693D01*
X101294307Y-103683347D01*
X101983875Y-104715359D01*
X102458857Y-105862067D01*
X102701000Y-107079404D01*
X102701000Y-108320596D01*
X102458857Y-109537933D01*
X101983875Y-110684641D01*
X101294307Y-111716653D01*
X100416653Y-112594307D01*
X99644397Y-113110312D01*
X99384643Y-113283874D01*
X99384642Y-113283875D01*
X99384641Y-113283875D01*
X98237933Y-113758857D01*
X97020596Y-114001000D01*
X95779404Y-114001000D01*
X94562067Y-113758857D01*
X93415359Y-113283875D01*
X93415358Y-113283875D01*
X93415357Y-113283874D01*
X93155603Y-113110312D01*
X92383347Y-112594307D01*
X91505693Y-111716653D01*
X90816125Y-110684641D01*
X90341143Y-109537933D01*
X90099000Y-108320596D01*
X90099000Y-107079404D01*
X90341143Y-105862067D01*
X90816125Y-104715359D01*
X91505693Y-103683347D01*
X92383347Y-102805693D01*
X93155603Y-102289688D01*
X93415357Y-102116126D01*
X93415359Y-102116125D01*
X94562067Y-101641143D01*
X95779404Y-101399000D01*
X97020596Y-101399000D01*
X98237933Y-101641143D01*
G37*
G36*
X218237933Y-101641143D02*
G01*
X219384641Y-102116125D01*
X219384643Y-102116126D01*
X219644397Y-102289688D01*
X220416653Y-102805693D01*
X221294307Y-103683347D01*
X221983875Y-104715359D01*
X222458857Y-105862067D01*
X222701000Y-107079404D01*
X222701000Y-108320596D01*
X222458857Y-109537933D01*
X221983875Y-110684641D01*
X221294307Y-111716653D01*
X220416653Y-112594307D01*
X219644397Y-113110312D01*
X219384643Y-113283874D01*
X219384642Y-113283875D01*
X219384641Y-113283875D01*
X218237933Y-113758857D01*
X217020596Y-114001000D01*
X215779404Y-114001000D01*
X214562067Y-113758857D01*
X213415359Y-113283875D01*
X213415358Y-113283875D01*
X213415357Y-113283874D01*
X213155603Y-113110312D01*
X212383347Y-112594307D01*
X211505693Y-111716653D01*
X210816125Y-110684641D01*
X210341143Y-109537933D01*
X210099000Y-108320596D01*
X210099000Y-107079404D01*
X210341143Y-105862067D01*
X210816125Y-104715359D01*
X211505693Y-103683347D01*
X212383347Y-102805693D01*
X213155603Y-102289688D01*
X213415357Y-102116126D01*
X213415359Y-102116125D01*
X214562067Y-101641143D01*
X215779404Y-101399000D01*
X217020596Y-101399000D01*
X218237933Y-101641143D01*
G37*
G36*
X173237933Y-101641143D02*
G01*
X174384641Y-102116125D01*
X174384643Y-102116126D01*
X174644397Y-102289688D01*
X175416653Y-102805693D01*
X176294307Y-103683347D01*
X176983875Y-104715359D01*
X177458857Y-105862067D01*
X177701000Y-107079404D01*
X177701000Y-108320596D01*
X177458857Y-109537933D01*
X176983875Y-110684641D01*
X176294307Y-111716653D01*
X175416653Y-112594307D01*
X174644397Y-113110312D01*
X174384643Y-113283874D01*
X174384642Y-113283875D01*
X174384641Y-113283875D01*
X173237933Y-113758857D01*
X172020596Y-114001000D01*
X170779404Y-114001000D01*
X169562067Y-113758857D01*
X168415359Y-113283875D01*
X168415358Y-113283875D01*
X168415357Y-113283874D01*
X168155603Y-113110312D01*
X167383347Y-112594307D01*
X166505693Y-111716653D01*
X165816125Y-110684641D01*
X165341143Y-109537933D01*
X165099000Y-108320596D01*
X165099000Y-107079404D01*
X165341143Y-105862067D01*
X165816125Y-104715359D01*
X166505693Y-103683347D01*
X167383347Y-102805693D01*
X168155603Y-102289688D01*
X168415357Y-102116126D01*
X168415359Y-102116125D01*
X169562067Y-101641143D01*
X170779404Y-101399000D01*
X172020596Y-101399000D01*
X173237933Y-101641143D01*
G37*
G36*
X68237933Y-101141143D02*
G01*
X69384641Y-101616125D01*
X69384643Y-101616126D01*
X69422085Y-101641144D01*
X70416653Y-102305693D01*
X71294307Y-103183347D01*
X71983875Y-104215359D01*
X72458857Y-105362067D01*
X72701000Y-106579404D01*
X72701000Y-107820596D01*
X72458857Y-109037933D01*
X71983875Y-110184641D01*
X71294307Y-111216653D01*
X70416653Y-112094307D01*
X69668351Y-112594306D01*
X69384643Y-112783874D01*
X69384642Y-112783875D01*
X69384641Y-112783875D01*
X68237933Y-113258857D01*
X67020596Y-113501000D01*
X65779404Y-113501000D01*
X64562067Y-113258857D01*
X63415359Y-112783875D01*
X63415358Y-112783875D01*
X63415357Y-112783874D01*
X63131649Y-112594306D01*
X62383347Y-112094307D01*
X61505693Y-111216653D01*
X60816125Y-110184641D01*
X60341143Y-109037933D01*
X60099000Y-107820596D01*
X60099000Y-106579404D01*
X60341143Y-105362067D01*
X60816125Y-104215359D01*
X61505693Y-103183347D01*
X62383347Y-102305693D01*
X63377915Y-101641144D01*
X63415357Y-101616126D01*
X63415359Y-101616125D01*
X64562067Y-101141143D01*
X65779404Y-100899000D01*
X67020596Y-100899000D01*
X68237933Y-101141143D01*
G37*
G36*
X135737933Y-86641143D02*
G01*
X136884641Y-87116125D01*
X136884643Y-87116126D01*
X137144397Y-87289688D01*
X137916653Y-87805693D01*
X138794307Y-88683347D01*
X139483875Y-89715359D01*
X139958857Y-90862067D01*
X140201000Y-92079404D01*
X140201000Y-93320596D01*
X139958857Y-94537933D01*
X139483875Y-95684641D01*
X138794307Y-96716653D01*
X137916653Y-97594307D01*
X137144397Y-98110312D01*
X136884643Y-98283874D01*
X136884642Y-98283875D01*
X136884641Y-98283875D01*
X135737933Y-98758857D01*
X134520596Y-99001000D01*
X133279404Y-99001000D01*
X132062067Y-98758857D01*
X130915359Y-98283875D01*
X130915358Y-98283875D01*
X130915357Y-98283874D01*
X130655603Y-98110312D01*
X129883347Y-97594307D01*
X129005693Y-96716653D01*
X128316125Y-95684641D01*
X127841143Y-94537933D01*
X127599000Y-93320596D01*
X127599000Y-92079404D01*
X127841143Y-90862067D01*
X128316125Y-89715359D01*
X129005693Y-88683347D01*
X129883347Y-87805693D01*
X130655603Y-87289688D01*
X130915357Y-87116126D01*
X130915359Y-87116125D01*
X132062067Y-86641143D01*
X133279404Y-86399000D01*
X134520596Y-86399000D01*
X135737933Y-86641143D01*
G37*
G36*
X75737933Y-86641143D02*
G01*
X76884641Y-87116125D01*
X76884643Y-87116126D01*
X77144397Y-87289688D01*
X77916653Y-87805693D01*
X78794307Y-88683347D01*
X79483875Y-89715359D01*
X79958857Y-90862067D01*
X80201000Y-92079404D01*
X80201000Y-93320596D01*
X79958857Y-94537933D01*
X79483875Y-95684641D01*
X78794307Y-96716653D01*
X77916653Y-97594307D01*
X77144397Y-98110312D01*
X76884643Y-98283874D01*
X76884642Y-98283875D01*
X76884641Y-98283875D01*
X75737933Y-98758857D01*
X74520596Y-99001000D01*
X73279404Y-99001000D01*
X72062067Y-98758857D01*
X70915359Y-98283875D01*
X70915358Y-98283875D01*
X70915357Y-98283874D01*
X70655603Y-98110312D01*
X69883347Y-97594307D01*
X69005693Y-96716653D01*
X68316125Y-95684641D01*
X67841143Y-94537933D01*
X67599000Y-93320596D01*
X67599000Y-92079404D01*
X67841143Y-90862067D01*
X68316125Y-89715359D01*
X69005693Y-88683347D01*
X69883347Y-87805693D01*
X70655603Y-87289688D01*
X70915357Y-87116126D01*
X70915359Y-87116125D01*
X72062067Y-86641143D01*
X73279404Y-86399000D01*
X74520596Y-86399000D01*
X75737933Y-86641143D01*
G37*
G36*
X105737933Y-86641143D02*
G01*
X106884641Y-87116125D01*
X106884643Y-87116126D01*
X107144397Y-87289688D01*
X107916653Y-87805693D01*
X108794307Y-88683347D01*
X109483875Y-89715359D01*
X109958857Y-90862067D01*
X110201000Y-92079404D01*
X110201000Y-93320596D01*
X109958857Y-94537933D01*
X109483875Y-95684641D01*
X108794307Y-96716653D01*
X107916653Y-97594307D01*
X107144397Y-98110312D01*
X106884643Y-98283874D01*
X106884642Y-98283875D01*
X106884641Y-98283875D01*
X105737933Y-98758857D01*
X104520596Y-99001000D01*
X103279404Y-99001000D01*
X102062067Y-98758857D01*
X100915359Y-98283875D01*
X100915358Y-98283875D01*
X100915357Y-98283874D01*
X100655603Y-98110312D01*
X99883347Y-97594307D01*
X99005693Y-96716653D01*
X98316125Y-95684641D01*
X97841143Y-94537933D01*
X97599000Y-93320596D01*
X97599000Y-92079404D01*
X97841143Y-90862067D01*
X98316125Y-89715359D01*
X99005693Y-88683347D01*
X99883347Y-87805693D01*
X100655603Y-87289688D01*
X100915357Y-87116126D01*
X100915359Y-87116125D01*
X102062067Y-86641143D01*
X103279404Y-86399000D01*
X104520596Y-86399000D01*
X105737933Y-86641143D01*
G37*
G36*
X120737933Y-86641143D02*
G01*
X121884641Y-87116125D01*
X121884643Y-87116126D01*
X122144397Y-87289688D01*
X122916653Y-87805693D01*
X123794307Y-88683347D01*
X124483875Y-89715359D01*
X124958857Y-90862067D01*
X125201000Y-92079404D01*
X125201000Y-93320596D01*
X124958857Y-94537933D01*
X124483875Y-95684641D01*
X123794307Y-96716653D01*
X122916653Y-97594307D01*
X122144397Y-98110312D01*
X121884643Y-98283874D01*
X121884642Y-98283875D01*
X121884641Y-98283875D01*
X120737933Y-98758857D01*
X119520596Y-99001000D01*
X118279404Y-99001000D01*
X117062067Y-98758857D01*
X115915359Y-98283875D01*
X115915358Y-98283875D01*
X115915357Y-98283874D01*
X115655603Y-98110312D01*
X114883347Y-97594307D01*
X114005693Y-96716653D01*
X113316125Y-95684641D01*
X112841143Y-94537933D01*
X112599000Y-93320596D01*
X112599000Y-92079404D01*
X112841143Y-90862067D01*
X113316125Y-89715359D01*
X114005693Y-88683347D01*
X114883347Y-87805693D01*
X115655603Y-87289688D01*
X115915357Y-87116126D01*
X115915359Y-87116125D01*
X117062067Y-86641143D01*
X118279404Y-86399000D01*
X119520596Y-86399000D01*
X120737933Y-86641143D01*
G37*
G36*
X228237933Y-86641143D02*
G01*
X229384641Y-87116125D01*
X229384643Y-87116126D01*
X229644397Y-87289688D01*
X230416653Y-87805693D01*
X231294307Y-88683347D01*
X231983875Y-89715359D01*
X232458857Y-90862067D01*
X232701000Y-92079404D01*
X232701000Y-93320596D01*
X232458857Y-94537933D01*
X231983875Y-95684641D01*
X231294307Y-96716653D01*
X230416653Y-97594307D01*
X229644397Y-98110312D01*
X229384643Y-98283874D01*
X229384642Y-98283875D01*
X229384641Y-98283875D01*
X228237933Y-98758857D01*
X227020596Y-99001000D01*
X225779404Y-99001000D01*
X224562067Y-98758857D01*
X223415359Y-98283875D01*
X223415358Y-98283875D01*
X223415357Y-98283874D01*
X223155603Y-98110312D01*
X222383347Y-97594307D01*
X221505693Y-96716653D01*
X220816125Y-95684641D01*
X220341143Y-94537933D01*
X220099000Y-93320596D01*
X220099000Y-92079404D01*
X220341143Y-90862067D01*
X220816125Y-89715359D01*
X221505693Y-88683347D01*
X222383347Y-87805693D01*
X223155603Y-87289688D01*
X223415357Y-87116126D01*
X223415359Y-87116125D01*
X224562067Y-86641143D01*
X225779404Y-86399000D01*
X227020596Y-86399000D01*
X228237933Y-86641143D01*
G37*
G36*
X180737933Y-86641143D02*
G01*
X181884641Y-87116125D01*
X181884643Y-87116126D01*
X182144397Y-87289688D01*
X182916653Y-87805693D01*
X183794307Y-88683347D01*
X184483875Y-89715359D01*
X184958857Y-90862067D01*
X185201000Y-92079404D01*
X185201000Y-93320596D01*
X184958857Y-94537933D01*
X184483875Y-95684641D01*
X183794307Y-96716653D01*
X182916653Y-97594307D01*
X182144397Y-98110312D01*
X181884643Y-98283874D01*
X181884642Y-98283875D01*
X181884641Y-98283875D01*
X180737933Y-98758857D01*
X179520596Y-99001000D01*
X178279404Y-99001000D01*
X177062067Y-98758857D01*
X175915359Y-98283875D01*
X175915358Y-98283875D01*
X175915357Y-98283874D01*
X175655603Y-98110312D01*
X174883347Y-97594307D01*
X174005693Y-96716653D01*
X173316125Y-95684641D01*
X172841143Y-94537933D01*
X172599000Y-93320596D01*
X172599000Y-92079404D01*
X172841143Y-90862067D01*
X173316125Y-89715359D01*
X174005693Y-88683347D01*
X174883347Y-87805693D01*
X175655603Y-87289688D01*
X175915357Y-87116126D01*
X175915359Y-87116125D01*
X177062067Y-86641143D01*
X178279404Y-86399000D01*
X179520596Y-86399000D01*
X180737933Y-86641143D01*
G37*
G36*
X60737933Y-86641143D02*
G01*
X61884641Y-87116125D01*
X61884643Y-87116126D01*
X62144397Y-87289688D01*
X62916653Y-87805693D01*
X63794307Y-88683347D01*
X64483875Y-89715359D01*
X64958857Y-90862067D01*
X65201000Y-92079404D01*
X65201000Y-93320596D01*
X64958857Y-94537933D01*
X64483875Y-95684641D01*
X63794307Y-96716653D01*
X62916653Y-97594307D01*
X62144397Y-98110312D01*
X61884643Y-98283874D01*
X61884642Y-98283875D01*
X61884641Y-98283875D01*
X60737933Y-98758857D01*
X59520596Y-99001000D01*
X58279404Y-99001000D01*
X57062067Y-98758857D01*
X55915359Y-98283875D01*
X55915358Y-98283875D01*
X55915357Y-98283874D01*
X55655603Y-98110312D01*
X54883347Y-97594307D01*
X54005693Y-96716653D01*
X53316125Y-95684641D01*
X52841143Y-94537933D01*
X52599000Y-93320596D01*
X52599000Y-92079404D01*
X52841143Y-90862067D01*
X53316125Y-89715359D01*
X54005693Y-88683347D01*
X54883347Y-87805693D01*
X55655603Y-87289688D01*
X55915357Y-87116126D01*
X55915359Y-87116125D01*
X57062067Y-86641143D01*
X58279404Y-86399000D01*
X59520596Y-86399000D01*
X60737933Y-86641143D01*
G37*
G36*
X68237933Y-71641143D02*
G01*
X69384641Y-72116125D01*
X69384643Y-72116126D01*
X69644397Y-72289688D01*
X70416653Y-72805693D01*
X71294307Y-73683347D01*
X71983875Y-74715359D01*
X72458857Y-75862067D01*
X72701000Y-77079404D01*
X72701000Y-78320596D01*
X72458857Y-79537933D01*
X71983875Y-80684641D01*
X71294307Y-81716653D01*
X70416653Y-82594307D01*
X69644397Y-83110312D01*
X69384643Y-83283874D01*
X69384642Y-83283875D01*
X69384641Y-83283875D01*
X68237933Y-83758857D01*
X67020596Y-84001000D01*
X65779404Y-84001000D01*
X64562067Y-83758857D01*
X63415359Y-83283875D01*
X63415358Y-83283875D01*
X63415357Y-83283874D01*
X63155603Y-83110312D01*
X62383347Y-82594307D01*
X61505693Y-81716653D01*
X60816125Y-80684641D01*
X60341143Y-79537933D01*
X60099000Y-78320596D01*
X60099000Y-77079404D01*
X60341143Y-75862067D01*
X60816125Y-74715359D01*
X61505693Y-73683347D01*
X62383347Y-72805693D01*
X63155603Y-72289688D01*
X63415357Y-72116126D01*
X63415359Y-72116125D01*
X64562067Y-71641143D01*
X65779404Y-71399000D01*
X67020596Y-71399000D01*
X68237933Y-71641143D01*
G37*
G36*
X98237933Y-71641143D02*
G01*
X99384641Y-72116125D01*
X99384643Y-72116126D01*
X99644397Y-72289688D01*
X100416653Y-72805693D01*
X101294307Y-73683347D01*
X101983875Y-74715359D01*
X102458857Y-75862067D01*
X102701000Y-77079404D01*
X102701000Y-78320596D01*
X102458857Y-79537933D01*
X101983875Y-80684641D01*
X101294307Y-81716653D01*
X100416653Y-82594307D01*
X99644397Y-83110312D01*
X99384643Y-83283874D01*
X99384642Y-83283875D01*
X99384641Y-83283875D01*
X98237933Y-83758857D01*
X97020596Y-84001000D01*
X95779404Y-84001000D01*
X94562067Y-83758857D01*
X93415359Y-83283875D01*
X93415358Y-83283875D01*
X93415357Y-83283874D01*
X93155603Y-83110312D01*
X92383347Y-82594307D01*
X91505693Y-81716653D01*
X90816125Y-80684641D01*
X90341143Y-79537933D01*
X90099000Y-78320596D01*
X90099000Y-77079404D01*
X90341143Y-75862067D01*
X90816125Y-74715359D01*
X91505693Y-73683347D01*
X92383347Y-72805693D01*
X93155603Y-72289688D01*
X93415357Y-72116126D01*
X93415359Y-72116125D01*
X94562067Y-71641143D01*
X95779404Y-71399000D01*
X97020596Y-71399000D01*
X98237933Y-71641143D01*
G37*
G36*
X113237933Y-71641143D02*
G01*
X114384641Y-72116125D01*
X114384643Y-72116126D01*
X114644397Y-72289688D01*
X115416653Y-72805693D01*
X116294307Y-73683347D01*
X116983875Y-74715359D01*
X117458857Y-75862067D01*
X117701000Y-77079404D01*
X117701000Y-78320596D01*
X117458857Y-79537933D01*
X116983875Y-80684641D01*
X116294307Y-81716653D01*
X115416653Y-82594307D01*
X114644397Y-83110312D01*
X114384643Y-83283874D01*
X114384642Y-83283875D01*
X114384641Y-83283875D01*
X113237933Y-83758857D01*
X112020596Y-84001000D01*
X110779404Y-84001000D01*
X109562067Y-83758857D01*
X108415359Y-83283875D01*
X108415358Y-83283875D01*
X108415357Y-83283874D01*
X108155603Y-83110312D01*
X107383347Y-82594307D01*
X106505693Y-81716653D01*
X105816125Y-80684641D01*
X105341143Y-79537933D01*
X105099000Y-78320596D01*
X105099000Y-77079404D01*
X105341143Y-75862067D01*
X105816125Y-74715359D01*
X106505693Y-73683347D01*
X107383347Y-72805693D01*
X108155603Y-72289688D01*
X108415357Y-72116126D01*
X108415359Y-72116125D01*
X109562067Y-71641143D01*
X110779404Y-71399000D01*
X112020596Y-71399000D01*
X113237933Y-71641143D01*
G37*
G36*
X128237933Y-71641143D02*
G01*
X129384641Y-72116125D01*
X129384643Y-72116126D01*
X129644397Y-72289688D01*
X130416653Y-72805693D01*
X131294307Y-73683347D01*
X131983875Y-74715359D01*
X132458857Y-75862067D01*
X132701000Y-77079404D01*
X132701000Y-78320596D01*
X132458857Y-79537933D01*
X131983875Y-80684641D01*
X131294307Y-81716653D01*
X130416653Y-82594307D01*
X129644397Y-83110312D01*
X129384643Y-83283874D01*
X129384642Y-83283875D01*
X129384641Y-83283875D01*
X128237933Y-83758857D01*
X127020596Y-84001000D01*
X125779404Y-84001000D01*
X124562067Y-83758857D01*
X123415359Y-83283875D01*
X123415358Y-83283875D01*
X123415357Y-83283874D01*
X123155603Y-83110312D01*
X122383347Y-82594307D01*
X121505693Y-81716653D01*
X120816125Y-80684641D01*
X120341143Y-79537933D01*
X120099000Y-78320596D01*
X120099000Y-77079404D01*
X120341143Y-75862067D01*
X120816125Y-74715359D01*
X121505693Y-73683347D01*
X122383347Y-72805693D01*
X123155603Y-72289688D01*
X123415357Y-72116126D01*
X123415359Y-72116125D01*
X124562067Y-71641143D01*
X125779404Y-71399000D01*
X127020596Y-71399000D01*
X128237933Y-71641143D01*
G37*
G36*
X173237933Y-71641143D02*
G01*
X174384641Y-72116125D01*
X174384643Y-72116126D01*
X174644397Y-72289688D01*
X175416653Y-72805693D01*
X176294307Y-73683347D01*
X176983875Y-74715359D01*
X177458857Y-75862067D01*
X177701000Y-77079404D01*
X177701000Y-78320596D01*
X177458857Y-79537933D01*
X176983875Y-80684641D01*
X176294307Y-81716653D01*
X175416653Y-82594307D01*
X174644397Y-83110312D01*
X174384643Y-83283874D01*
X174384642Y-83283875D01*
X174384641Y-83283875D01*
X173237933Y-83758857D01*
X172020596Y-84001000D01*
X170779404Y-84001000D01*
X169562067Y-83758857D01*
X168415359Y-83283875D01*
X168415358Y-83283875D01*
X168415357Y-83283874D01*
X168155603Y-83110312D01*
X167383347Y-82594307D01*
X166505693Y-81716653D01*
X165816125Y-80684641D01*
X165341143Y-79537933D01*
X165099000Y-78320596D01*
X165099000Y-77079404D01*
X165341143Y-75862067D01*
X165816125Y-74715359D01*
X166505693Y-73683347D01*
X167383347Y-72805693D01*
X168155603Y-72289688D01*
X168415357Y-72116126D01*
X168415359Y-72116125D01*
X169562067Y-71641143D01*
X170779404Y-71399000D01*
X172020596Y-71399000D01*
X173237933Y-71641143D01*
G37*
G36*
X188237933Y-71641143D02*
G01*
X189384641Y-72116125D01*
X189384643Y-72116126D01*
X189644397Y-72289688D01*
X190416653Y-72805693D01*
X191294307Y-73683347D01*
X191983875Y-74715359D01*
X192458857Y-75862067D01*
X192701000Y-77079404D01*
X192701000Y-78320596D01*
X192458857Y-79537933D01*
X191983875Y-80684641D01*
X191294307Y-81716653D01*
X190416653Y-82594307D01*
X189644397Y-83110312D01*
X189384643Y-83283874D01*
X189384642Y-83283875D01*
X189384641Y-83283875D01*
X188237933Y-83758857D01*
X187020596Y-84001000D01*
X185779404Y-84001000D01*
X184562067Y-83758857D01*
X183415359Y-83283875D01*
X183415358Y-83283875D01*
X183415357Y-83283874D01*
X183155603Y-83110312D01*
X182383347Y-82594307D01*
X181505693Y-81716653D01*
X180816125Y-80684641D01*
X180341143Y-79537933D01*
X180099000Y-78320596D01*
X180099000Y-77079404D01*
X180341143Y-75862067D01*
X180816125Y-74715359D01*
X181505693Y-73683347D01*
X182383347Y-72805693D01*
X183155603Y-72289688D01*
X183415357Y-72116126D01*
X183415359Y-72116125D01*
X184562067Y-71641143D01*
X185779404Y-71399000D01*
X187020596Y-71399000D01*
X188237933Y-71641143D01*
G37*
G36*
X218237933Y-71641143D02*
G01*
X219384641Y-72116125D01*
X219384643Y-72116126D01*
X219644397Y-72289688D01*
X220416653Y-72805693D01*
X221294307Y-73683347D01*
X221983875Y-74715359D01*
X222458857Y-75862067D01*
X222701000Y-77079404D01*
X222701000Y-78320596D01*
X222458857Y-79537933D01*
X221983875Y-80684641D01*
X221294307Y-81716653D01*
X220416653Y-82594307D01*
X219644397Y-83110312D01*
X219384643Y-83283874D01*
X219384642Y-83283875D01*
X219384641Y-83283875D01*
X218237933Y-83758857D01*
X217020596Y-84001000D01*
X215779404Y-84001000D01*
X214562067Y-83758857D01*
X213415359Y-83283875D01*
X213415358Y-83283875D01*
X213415357Y-83283874D01*
X213155603Y-83110312D01*
X212383347Y-82594307D01*
X211505693Y-81716653D01*
X210816125Y-80684641D01*
X210341143Y-79537933D01*
X210099000Y-78320596D01*
X210099000Y-77079404D01*
X210341143Y-75862067D01*
X210816125Y-74715359D01*
X211505693Y-73683347D01*
X212383347Y-72805693D01*
X213155603Y-72289688D01*
X213415357Y-72116126D01*
X213415359Y-72116125D01*
X214562067Y-71641143D01*
X215779404Y-71399000D01*
X217020596Y-71399000D01*
X218237933Y-71641143D01*
G37*
G36*
X165737933Y-56641143D02*
G01*
X166884641Y-57116125D01*
X166884643Y-57116126D01*
X167144397Y-57289688D01*
X167916653Y-57805693D01*
X168794307Y-58683347D01*
X169483875Y-59715359D01*
X169958857Y-60862067D01*
X170201000Y-62079404D01*
X170201000Y-63320596D01*
X169958857Y-64537933D01*
X169483875Y-65684641D01*
X168794307Y-66716653D01*
X167916653Y-67594307D01*
X167144396Y-68110312D01*
X166884643Y-68283874D01*
X166884642Y-68283875D01*
X166884641Y-68283875D01*
X165737933Y-68758857D01*
X164520596Y-69001000D01*
X163279404Y-69001000D01*
X162062067Y-68758857D01*
X160915359Y-68283875D01*
X160915358Y-68283875D01*
X160915357Y-68283874D01*
X160655603Y-68110312D01*
X159883347Y-67594307D01*
X159005693Y-66716653D01*
X158316125Y-65684641D01*
X157841143Y-64537933D01*
X157599000Y-63320596D01*
X157599000Y-62079404D01*
X157841143Y-60862067D01*
X158316125Y-59715359D01*
X159005693Y-58683347D01*
X159883347Y-57805693D01*
X160655603Y-57289688D01*
X160915357Y-57116126D01*
X160915359Y-57116125D01*
X162062067Y-56641143D01*
X163279404Y-56399000D01*
X164520596Y-56399000D01*
X165737933Y-56641143D01*
G37*
G36*
X120737933Y-56641143D02*
G01*
X121884641Y-57116125D01*
X121884643Y-57116126D01*
X122144397Y-57289688D01*
X122916653Y-57805693D01*
X123794307Y-58683347D01*
X124483875Y-59715359D01*
X124958857Y-60862067D01*
X125201000Y-62079404D01*
X125201000Y-63320596D01*
X124958857Y-64537933D01*
X124483875Y-65684641D01*
X123794307Y-66716653D01*
X122916653Y-67594307D01*
X122144397Y-68110312D01*
X121884643Y-68283874D01*
X121884642Y-68283875D01*
X121884641Y-68283875D01*
X120737933Y-68758857D01*
X119520596Y-69001000D01*
X118279404Y-69001000D01*
X117062067Y-68758857D01*
X115915359Y-68283875D01*
X115915358Y-68283875D01*
X115915357Y-68283874D01*
X115655603Y-68110312D01*
X114883347Y-67594307D01*
X114005693Y-66716653D01*
X113316125Y-65684641D01*
X112841143Y-64537933D01*
X112599000Y-63320596D01*
X112599000Y-62079404D01*
X112841143Y-60862067D01*
X113316125Y-59715359D01*
X114005693Y-58683347D01*
X114883347Y-57805693D01*
X115655603Y-57289688D01*
X115915357Y-57116126D01*
X115915359Y-57116125D01*
X117062067Y-56641143D01*
X118279404Y-56399000D01*
X119520596Y-56399000D01*
X120737933Y-56641143D01*
G37*
G36*
X105737933Y-56641143D02*
G01*
X106884641Y-57116125D01*
X106884643Y-57116126D01*
X107144397Y-57289688D01*
X107916653Y-57805693D01*
X108794307Y-58683347D01*
X109483875Y-59715359D01*
X109958857Y-60862067D01*
X110201000Y-62079404D01*
X110201000Y-63320596D01*
X109958857Y-64537933D01*
X109483875Y-65684641D01*
X108794307Y-66716653D01*
X107916653Y-67594307D01*
X107144397Y-68110312D01*
X106884643Y-68283874D01*
X106884642Y-68283875D01*
X106884641Y-68283875D01*
X105737933Y-68758857D01*
X104520596Y-69001000D01*
X103279404Y-69001000D01*
X102062067Y-68758857D01*
X100915359Y-68283875D01*
X100915358Y-68283875D01*
X100915357Y-68283874D01*
X100655603Y-68110312D01*
X99883347Y-67594307D01*
X99005693Y-66716653D01*
X98316125Y-65684641D01*
X97841143Y-64537933D01*
X97599000Y-63320596D01*
X97599000Y-62079404D01*
X97841143Y-60862067D01*
X98316125Y-59715359D01*
X99005693Y-58683347D01*
X99883347Y-57805693D01*
X100655603Y-57289688D01*
X100915357Y-57116126D01*
X100915359Y-57116125D01*
X102062067Y-56641143D01*
X103279404Y-56399000D01*
X104520596Y-56399000D01*
X105737933Y-56641143D01*
G37*
G36*
X60737933Y-56641143D02*
G01*
X61884641Y-57116125D01*
X61884643Y-57116126D01*
X62144397Y-57289688D01*
X62916653Y-57805693D01*
X63794307Y-58683347D01*
X64483875Y-59715359D01*
X64958857Y-60862067D01*
X65201000Y-62079404D01*
X65201000Y-63320596D01*
X64958857Y-64537933D01*
X64483875Y-65684641D01*
X63794307Y-66716653D01*
X62916653Y-67594307D01*
X62144397Y-68110312D01*
X61884643Y-68283874D01*
X61884642Y-68283875D01*
X61884641Y-68283875D01*
X60737933Y-68758857D01*
X59520596Y-69001000D01*
X58279404Y-69001000D01*
X57062067Y-68758857D01*
X55915359Y-68283875D01*
X55915358Y-68283875D01*
X55915357Y-68283874D01*
X55655603Y-68110312D01*
X54883347Y-67594307D01*
X54005693Y-66716653D01*
X53316125Y-65684641D01*
X52841143Y-64537933D01*
X52599000Y-63320596D01*
X52599000Y-62079404D01*
X52841143Y-60862067D01*
X53316125Y-59715359D01*
X54005693Y-58683347D01*
X54883347Y-57805693D01*
X55655603Y-57289688D01*
X55915357Y-57116126D01*
X55915359Y-57116125D01*
X57062067Y-56641143D01*
X58279404Y-56399000D01*
X59520596Y-56399000D01*
X60737933Y-56641143D01*
G37*
G36*
X180737933Y-56641143D02*
G01*
X181884641Y-57116125D01*
X181884643Y-57116126D01*
X182144397Y-57289688D01*
X182916653Y-57805693D01*
X183794307Y-58683347D01*
X184483875Y-59715359D01*
X184958857Y-60862067D01*
X185201000Y-62079404D01*
X185201000Y-63320596D01*
X184958857Y-64537933D01*
X184483875Y-65684641D01*
X183794307Y-66716653D01*
X182916653Y-67594307D01*
X182144396Y-68110312D01*
X181884643Y-68283874D01*
X181884642Y-68283875D01*
X181884641Y-68283875D01*
X180737933Y-68758857D01*
X179520596Y-69001000D01*
X178279404Y-69001000D01*
X177062067Y-68758857D01*
X175915359Y-68283875D01*
X175915358Y-68283875D01*
X175915357Y-68283874D01*
X175655603Y-68110312D01*
X174883347Y-67594307D01*
X174005693Y-66716653D01*
X173316125Y-65684641D01*
X172841143Y-64537933D01*
X172599000Y-63320596D01*
X172599000Y-62079404D01*
X172841143Y-60862067D01*
X173316125Y-59715359D01*
X174005693Y-58683347D01*
X174883347Y-57805693D01*
X175655603Y-57289688D01*
X175915357Y-57116126D01*
X175915359Y-57116125D01*
X177062067Y-56641143D01*
X178279404Y-56399000D01*
X179520596Y-56399000D01*
X180737933Y-56641143D01*
G37*
G36*
X75737933Y-56641143D02*
G01*
X76884641Y-57116125D01*
X76884643Y-57116126D01*
X77144397Y-57289688D01*
X77916653Y-57805693D01*
X78794307Y-58683347D01*
X79483875Y-59715359D01*
X79958857Y-60862067D01*
X80201000Y-62079404D01*
X80201000Y-63320596D01*
X79958857Y-64537933D01*
X79483875Y-65684641D01*
X78794307Y-66716653D01*
X77916653Y-67594307D01*
X77144397Y-68110312D01*
X76884643Y-68283874D01*
X76884642Y-68283875D01*
X76884641Y-68283875D01*
X75737933Y-68758857D01*
X74520596Y-69001000D01*
X73279404Y-69001000D01*
X72062067Y-68758857D01*
X70915359Y-68283875D01*
X70915358Y-68283875D01*
X70915357Y-68283874D01*
X70655603Y-68110312D01*
X69883347Y-67594307D01*
X69005693Y-66716653D01*
X68316125Y-65684641D01*
X67841143Y-64537933D01*
X67599000Y-63320596D01*
X67599000Y-62079404D01*
X67841143Y-60862067D01*
X68316125Y-59715359D01*
X69005693Y-58683347D01*
X69883347Y-57805693D01*
X70655603Y-57289688D01*
X70915357Y-57116126D01*
X70915359Y-57116125D01*
X72062067Y-56641143D01*
X73279404Y-56399000D01*
X74520596Y-56399000D01*
X75737933Y-56641143D01*
G37*
G36*
X135737933Y-56641143D02*
G01*
X136884641Y-57116125D01*
X136884643Y-57116126D01*
X137144397Y-57289688D01*
X137916653Y-57805693D01*
X138794307Y-58683347D01*
X139483875Y-59715359D01*
X139958857Y-60862067D01*
X140201000Y-62079404D01*
X140201000Y-63320596D01*
X139958857Y-64537933D01*
X139483875Y-65684641D01*
X138794307Y-66716653D01*
X137916653Y-67594307D01*
X137144397Y-68110312D01*
X136884643Y-68283874D01*
X136884642Y-68283875D01*
X136884641Y-68283875D01*
X135737933Y-68758857D01*
X134520596Y-69001000D01*
X133279404Y-69001000D01*
X132062067Y-68758857D01*
X130915359Y-68283875D01*
X130915358Y-68283875D01*
X130915357Y-68283874D01*
X130655603Y-68110312D01*
X129883347Y-67594307D01*
X129005693Y-66716653D01*
X128316125Y-65684641D01*
X127841143Y-64537933D01*
X127599000Y-63320596D01*
X127599000Y-62079404D01*
X127841143Y-60862067D01*
X128316125Y-59715359D01*
X129005693Y-58683347D01*
X129883347Y-57805693D01*
X130655603Y-57289688D01*
X130915357Y-57116126D01*
X130915359Y-57116125D01*
X132062067Y-56641143D01*
X133279404Y-56399000D01*
X134520596Y-56399000D01*
X135737933Y-56641143D01*
G37*
M02*
