G04 #@! TF.GenerationSoftware,KiCad,Pcbnew,5.1.5+dfsg1-2build2*
G04 #@! TF.CreationDate,2024-05-04T05:39:38+01:00*
G04 #@! TF.ProjectId,touch_kb1,746f7563-685f-46b6-9231-2e6b69636164,rev?*
G04 #@! TF.SameCoordinates,Original*
G04 #@! TF.FileFunction,Soldermask,Bot*
G04 #@! TF.FilePolarity,Negative*
%FSLAX46Y46*%
G04 Gerber Fmt 4.6, Leading zero omitted, Abs format (unit mm)*
G04 Created by KiCad (PCBNEW 5.1.5+dfsg1-2build2) date 2024-05-04 05:39:38*
%MOMM*%
%LPD*%
G04 APERTURE LIST*
%ADD10C,0.100000*%
G04 APERTURE END LIST*
D10*
G36*
X217309928Y-89296764D02*
G01*
X217331009Y-89303160D01*
X217350445Y-89313548D01*
X217367476Y-89327524D01*
X217381452Y-89344555D01*
X217391840Y-89363991D01*
X217398236Y-89385072D01*
X217401000Y-89413140D01*
X217401000Y-89876860D01*
X217398236Y-89904928D01*
X217391840Y-89926009D01*
X217381452Y-89945445D01*
X217367476Y-89962476D01*
X217350445Y-89976452D01*
X217331009Y-89986840D01*
X217309928Y-89993236D01*
X217281860Y-89996000D01*
X215668140Y-89996000D01*
X215640072Y-89993236D01*
X215618991Y-89986840D01*
X215599555Y-89976452D01*
X215582524Y-89962476D01*
X215568548Y-89945445D01*
X215558160Y-89926009D01*
X215551764Y-89904928D01*
X215549000Y-89876860D01*
X215549000Y-89413140D01*
X215551764Y-89385072D01*
X215558160Y-89363991D01*
X215568548Y-89344555D01*
X215582524Y-89327524D01*
X215599555Y-89313548D01*
X215618991Y-89303160D01*
X215640072Y-89296764D01*
X215668140Y-89294000D01*
X217281860Y-89294000D01*
X217309928Y-89296764D01*
G37*
G36*
X212159928Y-89296764D02*
G01*
X212181009Y-89303160D01*
X212200445Y-89313548D01*
X212217476Y-89327524D01*
X212231452Y-89344555D01*
X212241840Y-89363991D01*
X212248236Y-89385072D01*
X212251000Y-89413140D01*
X212251000Y-89876860D01*
X212248236Y-89904928D01*
X212241840Y-89926009D01*
X212231452Y-89945445D01*
X212217476Y-89962476D01*
X212200445Y-89976452D01*
X212181009Y-89986840D01*
X212159928Y-89993236D01*
X212131860Y-89996000D01*
X210518140Y-89996000D01*
X210490072Y-89993236D01*
X210468991Y-89986840D01*
X210449555Y-89976452D01*
X210432524Y-89962476D01*
X210418548Y-89945445D01*
X210408160Y-89926009D01*
X210401764Y-89904928D01*
X210399000Y-89876860D01*
X210399000Y-89413140D01*
X210401764Y-89385072D01*
X210408160Y-89363991D01*
X210418548Y-89344555D01*
X210432524Y-89327524D01*
X210449555Y-89313548D01*
X210468991Y-89303160D01*
X210490072Y-89296764D01*
X210518140Y-89294000D01*
X212131860Y-89294000D01*
X212159928Y-89296764D01*
G37*
G36*
X181609928Y-88996764D02*
G01*
X181631009Y-89003160D01*
X181650445Y-89013548D01*
X181667476Y-89027524D01*
X181681452Y-89044555D01*
X181691840Y-89063991D01*
X181698236Y-89085072D01*
X181701000Y-89113140D01*
X181701000Y-89576860D01*
X181698236Y-89604928D01*
X181691840Y-89626009D01*
X181681452Y-89645445D01*
X181667476Y-89662476D01*
X181650445Y-89676452D01*
X181631009Y-89686840D01*
X181609928Y-89693236D01*
X181581860Y-89696000D01*
X179968140Y-89696000D01*
X179940072Y-89693236D01*
X179918991Y-89686840D01*
X179899555Y-89676452D01*
X179882524Y-89662476D01*
X179868548Y-89645445D01*
X179858160Y-89626009D01*
X179851764Y-89604928D01*
X179849000Y-89576860D01*
X179849000Y-89113140D01*
X179851764Y-89085072D01*
X179858160Y-89063991D01*
X179868548Y-89044555D01*
X179882524Y-89027524D01*
X179899555Y-89013548D01*
X179918991Y-89003160D01*
X179940072Y-88996764D01*
X179968140Y-88994000D01*
X181581860Y-88994000D01*
X181609928Y-88996764D01*
G37*
G36*
X176459928Y-88996764D02*
G01*
X176481009Y-89003160D01*
X176500445Y-89013548D01*
X176517476Y-89027524D01*
X176531452Y-89044555D01*
X176541840Y-89063991D01*
X176548236Y-89085072D01*
X176551000Y-89113140D01*
X176551000Y-89576860D01*
X176548236Y-89604928D01*
X176541840Y-89626009D01*
X176531452Y-89645445D01*
X176517476Y-89662476D01*
X176500445Y-89676452D01*
X176481009Y-89686840D01*
X176459928Y-89693236D01*
X176431860Y-89696000D01*
X174818140Y-89696000D01*
X174790072Y-89693236D01*
X174768991Y-89686840D01*
X174749555Y-89676452D01*
X174732524Y-89662476D01*
X174718548Y-89645445D01*
X174708160Y-89626009D01*
X174701764Y-89604928D01*
X174699000Y-89576860D01*
X174699000Y-89113140D01*
X174701764Y-89085072D01*
X174708160Y-89063991D01*
X174718548Y-89044555D01*
X174732524Y-89027524D01*
X174749555Y-89013548D01*
X174768991Y-89003160D01*
X174790072Y-88996764D01*
X174818140Y-88994000D01*
X176431860Y-88994000D01*
X176459928Y-88996764D01*
G37*
G36*
X212159928Y-88026764D02*
G01*
X212181009Y-88033160D01*
X212200445Y-88043548D01*
X212217476Y-88057524D01*
X212231452Y-88074555D01*
X212241840Y-88093991D01*
X212248236Y-88115072D01*
X212251000Y-88143140D01*
X212251000Y-88606860D01*
X212248236Y-88634928D01*
X212241840Y-88656009D01*
X212231452Y-88675445D01*
X212217476Y-88692476D01*
X212200445Y-88706452D01*
X212181009Y-88716840D01*
X212159928Y-88723236D01*
X212131860Y-88726000D01*
X210518140Y-88726000D01*
X210490072Y-88723236D01*
X210468991Y-88716840D01*
X210449555Y-88706452D01*
X210432524Y-88692476D01*
X210418548Y-88675445D01*
X210408160Y-88656009D01*
X210401764Y-88634928D01*
X210399000Y-88606860D01*
X210399000Y-88143140D01*
X210401764Y-88115072D01*
X210408160Y-88093991D01*
X210418548Y-88074555D01*
X210432524Y-88057524D01*
X210449555Y-88043548D01*
X210468991Y-88033160D01*
X210490072Y-88026764D01*
X210518140Y-88024000D01*
X212131860Y-88024000D01*
X212159928Y-88026764D01*
G37*
G36*
X217309928Y-88026764D02*
G01*
X217331009Y-88033160D01*
X217350445Y-88043548D01*
X217367476Y-88057524D01*
X217381452Y-88074555D01*
X217391840Y-88093991D01*
X217398236Y-88115072D01*
X217401000Y-88143140D01*
X217401000Y-88606860D01*
X217398236Y-88634928D01*
X217391840Y-88656009D01*
X217381452Y-88675445D01*
X217367476Y-88692476D01*
X217350445Y-88706452D01*
X217331009Y-88716840D01*
X217309928Y-88723236D01*
X217281860Y-88726000D01*
X215668140Y-88726000D01*
X215640072Y-88723236D01*
X215618991Y-88716840D01*
X215599555Y-88706452D01*
X215582524Y-88692476D01*
X215568548Y-88675445D01*
X215558160Y-88656009D01*
X215551764Y-88634928D01*
X215549000Y-88606860D01*
X215549000Y-88143140D01*
X215551764Y-88115072D01*
X215558160Y-88093991D01*
X215568548Y-88074555D01*
X215582524Y-88057524D01*
X215599555Y-88043548D01*
X215618991Y-88033160D01*
X215640072Y-88026764D01*
X215668140Y-88024000D01*
X217281860Y-88024000D01*
X217309928Y-88026764D01*
G37*
G36*
X176459928Y-87726764D02*
G01*
X176481009Y-87733160D01*
X176500445Y-87743548D01*
X176517476Y-87757524D01*
X176531452Y-87774555D01*
X176541840Y-87793991D01*
X176548236Y-87815072D01*
X176551000Y-87843140D01*
X176551000Y-88306860D01*
X176548236Y-88334928D01*
X176541840Y-88356009D01*
X176531452Y-88375445D01*
X176517476Y-88392476D01*
X176500445Y-88406452D01*
X176481009Y-88416840D01*
X176459928Y-88423236D01*
X176431860Y-88426000D01*
X174818140Y-88426000D01*
X174790072Y-88423236D01*
X174768991Y-88416840D01*
X174749555Y-88406452D01*
X174732524Y-88392476D01*
X174718548Y-88375445D01*
X174708160Y-88356009D01*
X174701764Y-88334928D01*
X174699000Y-88306860D01*
X174699000Y-87843140D01*
X174701764Y-87815072D01*
X174708160Y-87793991D01*
X174718548Y-87774555D01*
X174732524Y-87757524D01*
X174749555Y-87743548D01*
X174768991Y-87733160D01*
X174790072Y-87726764D01*
X174818140Y-87724000D01*
X176431860Y-87724000D01*
X176459928Y-87726764D01*
G37*
G36*
X181609928Y-87726764D02*
G01*
X181631009Y-87733160D01*
X181650445Y-87743548D01*
X181667476Y-87757524D01*
X181681452Y-87774555D01*
X181691840Y-87793991D01*
X181698236Y-87815072D01*
X181701000Y-87843140D01*
X181701000Y-88306860D01*
X181698236Y-88334928D01*
X181691840Y-88356009D01*
X181681452Y-88375445D01*
X181667476Y-88392476D01*
X181650445Y-88406452D01*
X181631009Y-88416840D01*
X181609928Y-88423236D01*
X181581860Y-88426000D01*
X179968140Y-88426000D01*
X179940072Y-88423236D01*
X179918991Y-88416840D01*
X179899555Y-88406452D01*
X179882524Y-88392476D01*
X179868548Y-88375445D01*
X179858160Y-88356009D01*
X179851764Y-88334928D01*
X179849000Y-88306860D01*
X179849000Y-87843140D01*
X179851764Y-87815072D01*
X179858160Y-87793991D01*
X179868548Y-87774555D01*
X179882524Y-87757524D01*
X179899555Y-87743548D01*
X179918991Y-87733160D01*
X179940072Y-87726764D01*
X179968140Y-87724000D01*
X181581860Y-87724000D01*
X181609928Y-87726764D01*
G37*
G36*
X200755642Y-86389004D02*
G01*
X200792737Y-86400257D01*
X200826915Y-86418525D01*
X200856881Y-86443119D01*
X200881475Y-86473085D01*
X200899743Y-86507263D01*
X200910996Y-86544358D01*
X200915400Y-86589074D01*
X200915400Y-87682126D01*
X200910996Y-87726842D01*
X200899743Y-87763937D01*
X200881475Y-87798115D01*
X200856881Y-87828081D01*
X200826915Y-87852675D01*
X200792737Y-87870943D01*
X200755642Y-87882196D01*
X200710926Y-87886600D01*
X199817874Y-87886600D01*
X199773158Y-87882196D01*
X199736063Y-87870943D01*
X199701885Y-87852675D01*
X199671919Y-87828081D01*
X199647325Y-87798115D01*
X199629057Y-87763937D01*
X199617804Y-87726842D01*
X199613400Y-87682126D01*
X199613400Y-86589074D01*
X199617804Y-86544358D01*
X199629057Y-86507263D01*
X199647325Y-86473085D01*
X199671919Y-86443119D01*
X199701885Y-86418525D01*
X199736063Y-86400257D01*
X199773158Y-86389004D01*
X199817874Y-86384600D01*
X200710926Y-86384600D01*
X200755642Y-86389004D01*
G37*
G36*
X202755642Y-86389004D02*
G01*
X202792737Y-86400257D01*
X202826915Y-86418525D01*
X202856881Y-86443119D01*
X202881475Y-86473085D01*
X202899743Y-86507263D01*
X202910996Y-86544358D01*
X202915400Y-86589074D01*
X202915400Y-87682126D01*
X202910996Y-87726842D01*
X202899743Y-87763937D01*
X202881475Y-87798115D01*
X202856881Y-87828081D01*
X202826915Y-87852675D01*
X202792737Y-87870943D01*
X202755642Y-87882196D01*
X202710926Y-87886600D01*
X201817874Y-87886600D01*
X201773158Y-87882196D01*
X201736063Y-87870943D01*
X201701885Y-87852675D01*
X201671919Y-87828081D01*
X201647325Y-87798115D01*
X201629057Y-87763937D01*
X201617804Y-87726842D01*
X201613400Y-87682126D01*
X201613400Y-86589074D01*
X201617804Y-86544358D01*
X201629057Y-86507263D01*
X201647325Y-86473085D01*
X201671919Y-86443119D01*
X201701885Y-86418525D01*
X201736063Y-86400257D01*
X201773158Y-86389004D01*
X201817874Y-86384600D01*
X202710926Y-86384600D01*
X202755642Y-86389004D01*
G37*
G36*
X225800042Y-86338204D02*
G01*
X225837137Y-86349457D01*
X225871315Y-86367725D01*
X225901281Y-86392319D01*
X225925875Y-86422285D01*
X225944143Y-86456463D01*
X225955396Y-86493558D01*
X225959800Y-86538274D01*
X225959800Y-87631326D01*
X225955396Y-87676042D01*
X225944143Y-87713137D01*
X225925875Y-87747315D01*
X225901281Y-87777281D01*
X225871315Y-87801875D01*
X225837137Y-87820143D01*
X225800042Y-87831396D01*
X225755326Y-87835800D01*
X224862274Y-87835800D01*
X224817558Y-87831396D01*
X224780463Y-87820143D01*
X224746285Y-87801875D01*
X224716319Y-87777281D01*
X224691725Y-87747315D01*
X224673457Y-87713137D01*
X224662204Y-87676042D01*
X224657800Y-87631326D01*
X224657800Y-86538274D01*
X224662204Y-86493558D01*
X224673457Y-86456463D01*
X224691725Y-86422285D01*
X224716319Y-86392319D01*
X224746285Y-86367725D01*
X224780463Y-86349457D01*
X224817558Y-86338204D01*
X224862274Y-86333800D01*
X225755326Y-86333800D01*
X225800042Y-86338204D01*
G37*
G36*
X227800042Y-86338204D02*
G01*
X227837137Y-86349457D01*
X227871315Y-86367725D01*
X227901281Y-86392319D01*
X227925875Y-86422285D01*
X227944143Y-86456463D01*
X227955396Y-86493558D01*
X227959800Y-86538274D01*
X227959800Y-87631326D01*
X227955396Y-87676042D01*
X227944143Y-87713137D01*
X227925875Y-87747315D01*
X227901281Y-87777281D01*
X227871315Y-87801875D01*
X227837137Y-87820143D01*
X227800042Y-87831396D01*
X227755326Y-87835800D01*
X226862274Y-87835800D01*
X226817558Y-87831396D01*
X226780463Y-87820143D01*
X226746285Y-87801875D01*
X226716319Y-87777281D01*
X226691725Y-87747315D01*
X226673457Y-87713137D01*
X226662204Y-87676042D01*
X226657800Y-87631326D01*
X226657800Y-86538274D01*
X226662204Y-86493558D01*
X226673457Y-86456463D01*
X226691725Y-86422285D01*
X226716319Y-86392319D01*
X226746285Y-86367725D01*
X226780463Y-86349457D01*
X226817558Y-86338204D01*
X226862274Y-86333800D01*
X227755326Y-86333800D01*
X227800042Y-86338204D01*
G37*
G36*
X192900442Y-86236604D02*
G01*
X192937537Y-86247857D01*
X192971715Y-86266125D01*
X193001681Y-86290719D01*
X193026275Y-86320685D01*
X193044543Y-86354863D01*
X193055796Y-86391958D01*
X193060200Y-86436674D01*
X193060200Y-87529726D01*
X193055796Y-87574442D01*
X193044543Y-87611537D01*
X193026275Y-87645715D01*
X193001681Y-87675681D01*
X192971715Y-87700275D01*
X192937537Y-87718543D01*
X192900442Y-87729796D01*
X192855726Y-87734200D01*
X191962674Y-87734200D01*
X191917958Y-87729796D01*
X191880863Y-87718543D01*
X191846685Y-87700275D01*
X191816719Y-87675681D01*
X191792125Y-87645715D01*
X191773857Y-87611537D01*
X191762604Y-87574442D01*
X191758200Y-87529726D01*
X191758200Y-86436674D01*
X191762604Y-86391958D01*
X191773857Y-86354863D01*
X191792125Y-86320685D01*
X191816719Y-86290719D01*
X191846685Y-86266125D01*
X191880863Y-86247857D01*
X191917958Y-86236604D01*
X191962674Y-86232200D01*
X192855726Y-86232200D01*
X192900442Y-86236604D01*
G37*
G36*
X190900442Y-86236604D02*
G01*
X190937537Y-86247857D01*
X190971715Y-86266125D01*
X191001681Y-86290719D01*
X191026275Y-86320685D01*
X191044543Y-86354863D01*
X191055796Y-86391958D01*
X191060200Y-86436674D01*
X191060200Y-87529726D01*
X191055796Y-87574442D01*
X191044543Y-87611537D01*
X191026275Y-87645715D01*
X191001681Y-87675681D01*
X190971715Y-87700275D01*
X190937537Y-87718543D01*
X190900442Y-87729796D01*
X190855726Y-87734200D01*
X189962674Y-87734200D01*
X189917958Y-87729796D01*
X189880863Y-87718543D01*
X189846685Y-87700275D01*
X189816719Y-87675681D01*
X189792125Y-87645715D01*
X189773857Y-87611537D01*
X189762604Y-87574442D01*
X189758200Y-87529726D01*
X189758200Y-86436674D01*
X189762604Y-86391958D01*
X189773857Y-86354863D01*
X189792125Y-86320685D01*
X189816719Y-86290719D01*
X189846685Y-86266125D01*
X189880863Y-86247857D01*
X189917958Y-86236604D01*
X189962674Y-86232200D01*
X190855726Y-86232200D01*
X190900442Y-86236604D01*
G37*
G36*
X166128842Y-86033404D02*
G01*
X166165937Y-86044657D01*
X166200115Y-86062925D01*
X166230081Y-86087519D01*
X166254675Y-86117485D01*
X166272943Y-86151663D01*
X166284196Y-86188758D01*
X166288600Y-86233474D01*
X166288600Y-87326526D01*
X166284196Y-87371242D01*
X166272943Y-87408337D01*
X166254675Y-87442515D01*
X166230081Y-87472481D01*
X166200115Y-87497075D01*
X166165937Y-87515343D01*
X166128842Y-87526596D01*
X166084126Y-87531000D01*
X165191074Y-87531000D01*
X165146358Y-87526596D01*
X165109263Y-87515343D01*
X165075085Y-87497075D01*
X165045119Y-87472481D01*
X165020525Y-87442515D01*
X165002257Y-87408337D01*
X164991004Y-87371242D01*
X164986600Y-87326526D01*
X164986600Y-86233474D01*
X164991004Y-86188758D01*
X165002257Y-86151663D01*
X165020525Y-86117485D01*
X165045119Y-86087519D01*
X165075085Y-86062925D01*
X165109263Y-86044657D01*
X165146358Y-86033404D01*
X165191074Y-86029000D01*
X166084126Y-86029000D01*
X166128842Y-86033404D01*
G37*
G36*
X164128842Y-86033404D02*
G01*
X164165937Y-86044657D01*
X164200115Y-86062925D01*
X164230081Y-86087519D01*
X164254675Y-86117485D01*
X164272943Y-86151663D01*
X164284196Y-86188758D01*
X164288600Y-86233474D01*
X164288600Y-87326526D01*
X164284196Y-87371242D01*
X164272943Y-87408337D01*
X164254675Y-87442515D01*
X164230081Y-87472481D01*
X164200115Y-87497075D01*
X164165937Y-87515343D01*
X164128842Y-87526596D01*
X164084126Y-87531000D01*
X163191074Y-87531000D01*
X163146358Y-87526596D01*
X163109263Y-87515343D01*
X163075085Y-87497075D01*
X163045119Y-87472481D01*
X163020525Y-87442515D01*
X163002257Y-87408337D01*
X162991004Y-87371242D01*
X162986600Y-87326526D01*
X162986600Y-86233474D01*
X162991004Y-86188758D01*
X163002257Y-86151663D01*
X163020525Y-86117485D01*
X163045119Y-86087519D01*
X163075085Y-86062925D01*
X163109263Y-86044657D01*
X163146358Y-86033404D01*
X163191074Y-86029000D01*
X164084126Y-86029000D01*
X164128842Y-86033404D01*
G37*
G36*
X117309928Y-86796764D02*
G01*
X117331009Y-86803160D01*
X117350445Y-86813548D01*
X117367476Y-86827524D01*
X117381452Y-86844555D01*
X117391840Y-86863991D01*
X117398236Y-86885072D01*
X117401000Y-86913140D01*
X117401000Y-87376860D01*
X117398236Y-87404928D01*
X117391840Y-87426009D01*
X117381452Y-87445445D01*
X117367476Y-87462476D01*
X117350445Y-87476452D01*
X117331009Y-87486840D01*
X117309928Y-87493236D01*
X117281860Y-87496000D01*
X115668140Y-87496000D01*
X115640072Y-87493236D01*
X115618991Y-87486840D01*
X115599555Y-87476452D01*
X115582524Y-87462476D01*
X115568548Y-87445445D01*
X115558160Y-87426009D01*
X115551764Y-87404928D01*
X115549000Y-87376860D01*
X115549000Y-86913140D01*
X115551764Y-86885072D01*
X115558160Y-86863991D01*
X115568548Y-86844555D01*
X115582524Y-86827524D01*
X115599555Y-86813548D01*
X115618991Y-86803160D01*
X115640072Y-86796764D01*
X115668140Y-86794000D01*
X117281860Y-86794000D01*
X117309928Y-86796764D01*
G37*
G36*
X112159928Y-86796764D02*
G01*
X112181009Y-86803160D01*
X112200445Y-86813548D01*
X112217476Y-86827524D01*
X112231452Y-86844555D01*
X112241840Y-86863991D01*
X112248236Y-86885072D01*
X112251000Y-86913140D01*
X112251000Y-87376860D01*
X112248236Y-87404928D01*
X112241840Y-87426009D01*
X112231452Y-87445445D01*
X112217476Y-87462476D01*
X112200445Y-87476452D01*
X112181009Y-87486840D01*
X112159928Y-87493236D01*
X112131860Y-87496000D01*
X110518140Y-87496000D01*
X110490072Y-87493236D01*
X110468991Y-87486840D01*
X110449555Y-87476452D01*
X110432524Y-87462476D01*
X110418548Y-87445445D01*
X110408160Y-87426009D01*
X110401764Y-87404928D01*
X110399000Y-87376860D01*
X110399000Y-86913140D01*
X110401764Y-86885072D01*
X110408160Y-86863991D01*
X110418548Y-86844555D01*
X110432524Y-86827524D01*
X110449555Y-86813548D01*
X110468991Y-86803160D01*
X110490072Y-86796764D01*
X110518140Y-86794000D01*
X112131860Y-86794000D01*
X112159928Y-86796764D01*
G37*
G36*
X217309928Y-86756764D02*
G01*
X217331009Y-86763160D01*
X217350445Y-86773548D01*
X217367476Y-86787524D01*
X217381452Y-86804555D01*
X217391840Y-86823991D01*
X217398236Y-86845072D01*
X217401000Y-86873140D01*
X217401000Y-87336860D01*
X217398236Y-87364928D01*
X217391840Y-87386009D01*
X217381452Y-87405445D01*
X217367476Y-87422476D01*
X217350445Y-87436452D01*
X217331009Y-87446840D01*
X217309928Y-87453236D01*
X217281860Y-87456000D01*
X215668140Y-87456000D01*
X215640072Y-87453236D01*
X215618991Y-87446840D01*
X215599555Y-87436452D01*
X215582524Y-87422476D01*
X215568548Y-87405445D01*
X215558160Y-87386009D01*
X215551764Y-87364928D01*
X215549000Y-87336860D01*
X215549000Y-86873140D01*
X215551764Y-86845072D01*
X215558160Y-86823991D01*
X215568548Y-86804555D01*
X215582524Y-86787524D01*
X215599555Y-86773548D01*
X215618991Y-86763160D01*
X215640072Y-86756764D01*
X215668140Y-86754000D01*
X217281860Y-86754000D01*
X217309928Y-86756764D01*
G37*
G36*
X212159928Y-86756764D02*
G01*
X212181009Y-86763160D01*
X212200445Y-86773548D01*
X212217476Y-86787524D01*
X212231452Y-86804555D01*
X212241840Y-86823991D01*
X212248236Y-86845072D01*
X212251000Y-86873140D01*
X212251000Y-87336860D01*
X212248236Y-87364928D01*
X212241840Y-87386009D01*
X212231452Y-87405445D01*
X212217476Y-87422476D01*
X212200445Y-87436452D01*
X212181009Y-87446840D01*
X212159928Y-87453236D01*
X212131860Y-87456000D01*
X210518140Y-87456000D01*
X210490072Y-87453236D01*
X210468991Y-87446840D01*
X210449555Y-87436452D01*
X210432524Y-87422476D01*
X210418548Y-87405445D01*
X210408160Y-87386009D01*
X210401764Y-87364928D01*
X210399000Y-87336860D01*
X210399000Y-86873140D01*
X210401764Y-86845072D01*
X210408160Y-86823991D01*
X210418548Y-86804555D01*
X210432524Y-86787524D01*
X210449555Y-86773548D01*
X210468991Y-86763160D01*
X210490072Y-86756764D01*
X210518140Y-86754000D01*
X212131860Y-86754000D01*
X212159928Y-86756764D01*
G37*
G36*
X176459928Y-86456764D02*
G01*
X176481009Y-86463160D01*
X176500445Y-86473548D01*
X176517476Y-86487524D01*
X176531452Y-86504555D01*
X176541840Y-86523991D01*
X176548236Y-86545072D01*
X176551000Y-86573140D01*
X176551000Y-87036860D01*
X176548236Y-87064928D01*
X176541840Y-87086009D01*
X176531452Y-87105445D01*
X176517476Y-87122476D01*
X176500445Y-87136452D01*
X176481009Y-87146840D01*
X176459928Y-87153236D01*
X176431860Y-87156000D01*
X174818140Y-87156000D01*
X174790072Y-87153236D01*
X174768991Y-87146840D01*
X174749555Y-87136452D01*
X174732524Y-87122476D01*
X174718548Y-87105445D01*
X174708160Y-87086009D01*
X174701764Y-87064928D01*
X174699000Y-87036860D01*
X174699000Y-86573140D01*
X174701764Y-86545072D01*
X174708160Y-86523991D01*
X174718548Y-86504555D01*
X174732524Y-86487524D01*
X174749555Y-86473548D01*
X174768991Y-86463160D01*
X174790072Y-86456764D01*
X174818140Y-86454000D01*
X176431860Y-86454000D01*
X176459928Y-86456764D01*
G37*
G36*
X181609928Y-86456764D02*
G01*
X181631009Y-86463160D01*
X181650445Y-86473548D01*
X181667476Y-86487524D01*
X181681452Y-86504555D01*
X181691840Y-86523991D01*
X181698236Y-86545072D01*
X181701000Y-86573140D01*
X181701000Y-87036860D01*
X181698236Y-87064928D01*
X181691840Y-87086009D01*
X181681452Y-87105445D01*
X181667476Y-87122476D01*
X181650445Y-87136452D01*
X181631009Y-87146840D01*
X181609928Y-87153236D01*
X181581860Y-87156000D01*
X179968140Y-87156000D01*
X179940072Y-87153236D01*
X179918991Y-87146840D01*
X179899555Y-87136452D01*
X179882524Y-87122476D01*
X179868548Y-87105445D01*
X179858160Y-87086009D01*
X179851764Y-87064928D01*
X179849000Y-87036860D01*
X179849000Y-86573140D01*
X179851764Y-86545072D01*
X179858160Y-86523991D01*
X179868548Y-86504555D01*
X179882524Y-86487524D01*
X179899555Y-86473548D01*
X179918991Y-86463160D01*
X179940072Y-86456764D01*
X179968140Y-86454000D01*
X181581860Y-86454000D01*
X181609928Y-86456764D01*
G37*
G36*
X223024842Y-85068204D02*
G01*
X223061937Y-85079457D01*
X223096115Y-85097725D01*
X223126081Y-85122319D01*
X223150675Y-85152285D01*
X223168943Y-85186463D01*
X223180196Y-85223558D01*
X223184600Y-85268274D01*
X223184600Y-86361326D01*
X223180196Y-86406042D01*
X223168943Y-86443137D01*
X223150675Y-86477315D01*
X223126081Y-86507281D01*
X223096115Y-86531875D01*
X223061937Y-86550143D01*
X223024842Y-86561396D01*
X222980126Y-86565800D01*
X222087074Y-86565800D01*
X222042358Y-86561396D01*
X222005263Y-86550143D01*
X221971085Y-86531875D01*
X221941119Y-86507281D01*
X221916525Y-86477315D01*
X221898257Y-86443137D01*
X221887004Y-86406042D01*
X221882600Y-86361326D01*
X221882600Y-85268274D01*
X221887004Y-85223558D01*
X221898257Y-85186463D01*
X221916525Y-85152285D01*
X221941119Y-85122319D01*
X221971085Y-85097725D01*
X222005263Y-85079457D01*
X222042358Y-85068204D01*
X222087074Y-85063800D01*
X222980126Y-85063800D01*
X223024842Y-85068204D01*
G37*
G36*
X207581642Y-85068204D02*
G01*
X207618737Y-85079457D01*
X207652915Y-85097725D01*
X207682881Y-85122319D01*
X207707475Y-85152285D01*
X207725743Y-85186463D01*
X207736996Y-85223558D01*
X207741400Y-85268274D01*
X207741400Y-86361326D01*
X207736996Y-86406042D01*
X207725743Y-86443137D01*
X207707475Y-86477315D01*
X207682881Y-86507281D01*
X207652915Y-86531875D01*
X207618737Y-86550143D01*
X207581642Y-86561396D01*
X207536926Y-86565800D01*
X206643874Y-86565800D01*
X206599158Y-86561396D01*
X206562063Y-86550143D01*
X206527885Y-86531875D01*
X206497919Y-86507281D01*
X206473325Y-86477315D01*
X206455057Y-86443137D01*
X206443804Y-86406042D01*
X206439400Y-86361326D01*
X206439400Y-85268274D01*
X206443804Y-85223558D01*
X206455057Y-85186463D01*
X206473325Y-85152285D01*
X206497919Y-85122319D01*
X206527885Y-85097725D01*
X206562063Y-85079457D01*
X206599158Y-85068204D01*
X206643874Y-85063800D01*
X207536926Y-85063800D01*
X207581642Y-85068204D01*
G37*
G36*
X205581642Y-85068204D02*
G01*
X205618737Y-85079457D01*
X205652915Y-85097725D01*
X205682881Y-85122319D01*
X205707475Y-85152285D01*
X205725743Y-85186463D01*
X205736996Y-85223558D01*
X205741400Y-85268274D01*
X205741400Y-86361326D01*
X205736996Y-86406042D01*
X205725743Y-86443137D01*
X205707475Y-86477315D01*
X205682881Y-86507281D01*
X205652915Y-86531875D01*
X205618737Y-86550143D01*
X205581642Y-86561396D01*
X205536926Y-86565800D01*
X204643874Y-86565800D01*
X204599158Y-86561396D01*
X204562063Y-86550143D01*
X204527885Y-86531875D01*
X204497919Y-86507281D01*
X204473325Y-86477315D01*
X204455057Y-86443137D01*
X204443804Y-86406042D01*
X204439400Y-86361326D01*
X204439400Y-85268274D01*
X204443804Y-85223558D01*
X204455057Y-85186463D01*
X204473325Y-85152285D01*
X204497919Y-85122319D01*
X204527885Y-85097725D01*
X204562063Y-85079457D01*
X204599158Y-85068204D01*
X204643874Y-85063800D01*
X205536926Y-85063800D01*
X205581642Y-85068204D01*
G37*
G36*
X221024842Y-85068204D02*
G01*
X221061937Y-85079457D01*
X221096115Y-85097725D01*
X221126081Y-85122319D01*
X221150675Y-85152285D01*
X221168943Y-85186463D01*
X221180196Y-85223558D01*
X221184600Y-85268274D01*
X221184600Y-86361326D01*
X221180196Y-86406042D01*
X221168943Y-86443137D01*
X221150675Y-86477315D01*
X221126081Y-86507281D01*
X221096115Y-86531875D01*
X221061937Y-86550143D01*
X221024842Y-86561396D01*
X220980126Y-86565800D01*
X220087074Y-86565800D01*
X220042358Y-86561396D01*
X220005263Y-86550143D01*
X219971085Y-86531875D01*
X219941119Y-86507281D01*
X219916525Y-86477315D01*
X219898257Y-86443137D01*
X219887004Y-86406042D01*
X219882600Y-86361326D01*
X219882600Y-85268274D01*
X219887004Y-85223558D01*
X219898257Y-85186463D01*
X219916525Y-85152285D01*
X219941119Y-85122319D01*
X219971085Y-85097725D01*
X220005263Y-85079457D01*
X220042358Y-85068204D01*
X220087074Y-85063800D01*
X220980126Y-85063800D01*
X221024842Y-85068204D01*
G37*
G36*
X186430042Y-84814204D02*
G01*
X186467137Y-84825457D01*
X186501315Y-84843725D01*
X186531281Y-84868319D01*
X186555875Y-84898285D01*
X186574143Y-84932463D01*
X186585396Y-84969558D01*
X186589800Y-85014274D01*
X186589800Y-86107326D01*
X186585396Y-86152042D01*
X186574143Y-86189137D01*
X186555875Y-86223315D01*
X186531281Y-86253281D01*
X186501315Y-86277875D01*
X186467137Y-86296143D01*
X186430042Y-86307396D01*
X186385326Y-86311800D01*
X185492274Y-86311800D01*
X185447558Y-86307396D01*
X185410463Y-86296143D01*
X185376285Y-86277875D01*
X185346319Y-86253281D01*
X185321725Y-86223315D01*
X185303457Y-86189137D01*
X185292204Y-86152042D01*
X185287800Y-86107326D01*
X185287800Y-85014274D01*
X185292204Y-84969558D01*
X185303457Y-84932463D01*
X185321725Y-84898285D01*
X185346319Y-84868319D01*
X185376285Y-84843725D01*
X185410463Y-84825457D01*
X185447558Y-84814204D01*
X185492274Y-84809800D01*
X186385326Y-84809800D01*
X186430042Y-84814204D01*
G37*
G36*
X188430042Y-84814204D02*
G01*
X188467137Y-84825457D01*
X188501315Y-84843725D01*
X188531281Y-84868319D01*
X188555875Y-84898285D01*
X188574143Y-84932463D01*
X188585396Y-84969558D01*
X188589800Y-85014274D01*
X188589800Y-86107326D01*
X188585396Y-86152042D01*
X188574143Y-86189137D01*
X188555875Y-86223315D01*
X188531281Y-86253281D01*
X188501315Y-86277875D01*
X188467137Y-86296143D01*
X188430042Y-86307396D01*
X188385326Y-86311800D01*
X187492274Y-86311800D01*
X187447558Y-86307396D01*
X187410463Y-86296143D01*
X187376285Y-86277875D01*
X187346319Y-86253281D01*
X187321725Y-86223315D01*
X187303457Y-86189137D01*
X187292204Y-86152042D01*
X187287800Y-86107326D01*
X187287800Y-85014274D01*
X187292204Y-84969558D01*
X187303457Y-84932463D01*
X187321725Y-84898285D01*
X187346319Y-84868319D01*
X187376285Y-84843725D01*
X187410463Y-84825457D01*
X187447558Y-84814204D01*
X187492274Y-84809800D01*
X188385326Y-84809800D01*
X188430042Y-84814204D01*
G37*
G36*
X170650042Y-84763404D02*
G01*
X170687137Y-84774657D01*
X170721315Y-84792925D01*
X170751281Y-84817519D01*
X170775875Y-84847485D01*
X170794143Y-84881663D01*
X170805396Y-84918758D01*
X170809800Y-84963474D01*
X170809800Y-86056526D01*
X170805396Y-86101242D01*
X170794143Y-86138337D01*
X170775875Y-86172515D01*
X170751281Y-86202481D01*
X170721315Y-86227075D01*
X170687137Y-86245343D01*
X170650042Y-86256596D01*
X170605326Y-86261000D01*
X169712274Y-86261000D01*
X169667558Y-86256596D01*
X169630463Y-86245343D01*
X169596285Y-86227075D01*
X169566319Y-86202481D01*
X169541725Y-86172515D01*
X169523457Y-86138337D01*
X169512204Y-86101242D01*
X169507800Y-86056526D01*
X169507800Y-84963474D01*
X169512204Y-84918758D01*
X169523457Y-84881663D01*
X169541725Y-84847485D01*
X169566319Y-84817519D01*
X169596285Y-84792925D01*
X169630463Y-84774657D01*
X169667558Y-84763404D01*
X169712274Y-84759000D01*
X170605326Y-84759000D01*
X170650042Y-84763404D01*
G37*
G36*
X168650042Y-84763404D02*
G01*
X168687137Y-84774657D01*
X168721315Y-84792925D01*
X168751281Y-84817519D01*
X168775875Y-84847485D01*
X168794143Y-84881663D01*
X168805396Y-84918758D01*
X168809800Y-84963474D01*
X168809800Y-86056526D01*
X168805396Y-86101242D01*
X168794143Y-86138337D01*
X168775875Y-86172515D01*
X168751281Y-86202481D01*
X168721315Y-86227075D01*
X168687137Y-86245343D01*
X168650042Y-86256596D01*
X168605326Y-86261000D01*
X167712274Y-86261000D01*
X167667558Y-86256596D01*
X167630463Y-86245343D01*
X167596285Y-86227075D01*
X167566319Y-86202481D01*
X167541725Y-86172515D01*
X167523457Y-86138337D01*
X167512204Y-86101242D01*
X167507800Y-86056526D01*
X167507800Y-84963474D01*
X167512204Y-84918758D01*
X167523457Y-84881663D01*
X167541725Y-84847485D01*
X167566319Y-84817519D01*
X167596285Y-84792925D01*
X167630463Y-84774657D01*
X167667558Y-84763404D01*
X167712274Y-84759000D01*
X168605326Y-84759000D01*
X168650042Y-84763404D01*
G37*
G36*
X117309928Y-85526764D02*
G01*
X117331009Y-85533160D01*
X117350445Y-85543548D01*
X117367476Y-85557524D01*
X117381452Y-85574555D01*
X117391840Y-85593991D01*
X117398236Y-85615072D01*
X117401000Y-85643140D01*
X117401000Y-86106860D01*
X117398236Y-86134928D01*
X117391840Y-86156009D01*
X117381452Y-86175445D01*
X117367476Y-86192476D01*
X117350445Y-86206452D01*
X117331009Y-86216840D01*
X117309928Y-86223236D01*
X117281860Y-86226000D01*
X115668140Y-86226000D01*
X115640072Y-86223236D01*
X115618991Y-86216840D01*
X115599555Y-86206452D01*
X115582524Y-86192476D01*
X115568548Y-86175445D01*
X115558160Y-86156009D01*
X115551764Y-86134928D01*
X115549000Y-86106860D01*
X115549000Y-85643140D01*
X115551764Y-85615072D01*
X115558160Y-85593991D01*
X115568548Y-85574555D01*
X115582524Y-85557524D01*
X115599555Y-85543548D01*
X115618991Y-85533160D01*
X115640072Y-85526764D01*
X115668140Y-85524000D01*
X117281860Y-85524000D01*
X117309928Y-85526764D01*
G37*
G36*
X112159928Y-85526764D02*
G01*
X112181009Y-85533160D01*
X112200445Y-85543548D01*
X112217476Y-85557524D01*
X112231452Y-85574555D01*
X112241840Y-85593991D01*
X112248236Y-85615072D01*
X112251000Y-85643140D01*
X112251000Y-86106860D01*
X112248236Y-86134928D01*
X112241840Y-86156009D01*
X112231452Y-86175445D01*
X112217476Y-86192476D01*
X112200445Y-86206452D01*
X112181009Y-86216840D01*
X112159928Y-86223236D01*
X112131860Y-86226000D01*
X110518140Y-86226000D01*
X110490072Y-86223236D01*
X110468991Y-86216840D01*
X110449555Y-86206452D01*
X110432524Y-86192476D01*
X110418548Y-86175445D01*
X110408160Y-86156009D01*
X110401764Y-86134928D01*
X110399000Y-86106860D01*
X110399000Y-85643140D01*
X110401764Y-85615072D01*
X110408160Y-85593991D01*
X110418548Y-85574555D01*
X110432524Y-85557524D01*
X110449555Y-85543548D01*
X110468991Y-85533160D01*
X110490072Y-85526764D01*
X110518140Y-85524000D01*
X112131860Y-85524000D01*
X112159928Y-85526764D01*
G37*
G36*
X212159928Y-85486764D02*
G01*
X212181009Y-85493160D01*
X212200445Y-85503548D01*
X212217476Y-85517524D01*
X212231452Y-85534555D01*
X212241840Y-85553991D01*
X212248236Y-85575072D01*
X212251000Y-85603140D01*
X212251000Y-86066860D01*
X212248236Y-86094928D01*
X212241840Y-86116009D01*
X212231452Y-86135445D01*
X212217476Y-86152476D01*
X212200445Y-86166452D01*
X212181009Y-86176840D01*
X212159928Y-86183236D01*
X212131860Y-86186000D01*
X210518140Y-86186000D01*
X210490072Y-86183236D01*
X210468991Y-86176840D01*
X210449555Y-86166452D01*
X210432524Y-86152476D01*
X210418548Y-86135445D01*
X210408160Y-86116009D01*
X210401764Y-86094928D01*
X210399000Y-86066860D01*
X210399000Y-85603140D01*
X210401764Y-85575072D01*
X210408160Y-85553991D01*
X210418548Y-85534555D01*
X210432524Y-85517524D01*
X210449555Y-85503548D01*
X210468991Y-85493160D01*
X210490072Y-85486764D01*
X210518140Y-85484000D01*
X212131860Y-85484000D01*
X212159928Y-85486764D01*
G37*
G36*
X217309928Y-85486764D02*
G01*
X217331009Y-85493160D01*
X217350445Y-85503548D01*
X217367476Y-85517524D01*
X217381452Y-85534555D01*
X217391840Y-85553991D01*
X217398236Y-85575072D01*
X217401000Y-85603140D01*
X217401000Y-86066860D01*
X217398236Y-86094928D01*
X217391840Y-86116009D01*
X217381452Y-86135445D01*
X217367476Y-86152476D01*
X217350445Y-86166452D01*
X217331009Y-86176840D01*
X217309928Y-86183236D01*
X217281860Y-86186000D01*
X215668140Y-86186000D01*
X215640072Y-86183236D01*
X215618991Y-86176840D01*
X215599555Y-86166452D01*
X215582524Y-86152476D01*
X215568548Y-86135445D01*
X215558160Y-86116009D01*
X215551764Y-86094928D01*
X215549000Y-86066860D01*
X215549000Y-85603140D01*
X215551764Y-85575072D01*
X215558160Y-85553991D01*
X215568548Y-85534555D01*
X215582524Y-85517524D01*
X215599555Y-85503548D01*
X215618991Y-85493160D01*
X215640072Y-85486764D01*
X215668140Y-85484000D01*
X217281860Y-85484000D01*
X217309928Y-85486764D01*
G37*
G36*
X181609928Y-85186764D02*
G01*
X181631009Y-85193160D01*
X181650445Y-85203548D01*
X181667476Y-85217524D01*
X181681452Y-85234555D01*
X181691840Y-85253991D01*
X181698236Y-85275072D01*
X181701000Y-85303140D01*
X181701000Y-85766860D01*
X181698236Y-85794928D01*
X181691840Y-85816009D01*
X181681452Y-85835445D01*
X181667476Y-85852476D01*
X181650445Y-85866452D01*
X181631009Y-85876840D01*
X181609928Y-85883236D01*
X181581860Y-85886000D01*
X179968140Y-85886000D01*
X179940072Y-85883236D01*
X179918991Y-85876840D01*
X179899555Y-85866452D01*
X179882524Y-85852476D01*
X179868548Y-85835445D01*
X179858160Y-85816009D01*
X179851764Y-85794928D01*
X179849000Y-85766860D01*
X179849000Y-85303140D01*
X179851764Y-85275072D01*
X179858160Y-85253991D01*
X179868548Y-85234555D01*
X179882524Y-85217524D01*
X179899555Y-85203548D01*
X179918991Y-85193160D01*
X179940072Y-85186764D01*
X179968140Y-85184000D01*
X181581860Y-85184000D01*
X181609928Y-85186764D01*
G37*
G36*
X176459928Y-85186764D02*
G01*
X176481009Y-85193160D01*
X176500445Y-85203548D01*
X176517476Y-85217524D01*
X176531452Y-85234555D01*
X176541840Y-85253991D01*
X176548236Y-85275072D01*
X176551000Y-85303140D01*
X176551000Y-85766860D01*
X176548236Y-85794928D01*
X176541840Y-85816009D01*
X176531452Y-85835445D01*
X176517476Y-85852476D01*
X176500445Y-85866452D01*
X176481009Y-85876840D01*
X176459928Y-85883236D01*
X176431860Y-85886000D01*
X174818140Y-85886000D01*
X174790072Y-85883236D01*
X174768991Y-85876840D01*
X174749555Y-85866452D01*
X174732524Y-85852476D01*
X174718548Y-85835445D01*
X174708160Y-85816009D01*
X174701764Y-85794928D01*
X174699000Y-85766860D01*
X174699000Y-85303140D01*
X174701764Y-85275072D01*
X174708160Y-85253991D01*
X174718548Y-85234555D01*
X174732524Y-85217524D01*
X174749555Y-85203548D01*
X174768991Y-85193160D01*
X174790072Y-85186764D01*
X174818140Y-85184000D01*
X176431860Y-85184000D01*
X176459928Y-85186764D01*
G37*
G36*
X101594042Y-83899804D02*
G01*
X101631137Y-83911057D01*
X101665315Y-83929325D01*
X101695281Y-83953919D01*
X101719875Y-83983885D01*
X101738143Y-84018063D01*
X101749396Y-84055158D01*
X101753800Y-84099874D01*
X101753800Y-85192926D01*
X101749396Y-85237642D01*
X101738143Y-85274737D01*
X101719875Y-85308915D01*
X101695281Y-85338881D01*
X101665315Y-85363475D01*
X101631137Y-85381743D01*
X101594042Y-85392996D01*
X101549326Y-85397400D01*
X100656274Y-85397400D01*
X100611558Y-85392996D01*
X100574463Y-85381743D01*
X100540285Y-85363475D01*
X100510319Y-85338881D01*
X100485725Y-85308915D01*
X100467457Y-85274737D01*
X100456204Y-85237642D01*
X100451800Y-85192926D01*
X100451800Y-84099874D01*
X100456204Y-84055158D01*
X100467457Y-84018063D01*
X100485725Y-83983885D01*
X100510319Y-83953919D01*
X100540285Y-83929325D01*
X100574463Y-83911057D01*
X100611558Y-83899804D01*
X100656274Y-83895400D01*
X101549326Y-83895400D01*
X101594042Y-83899804D01*
G37*
G36*
X103594042Y-83899804D02*
G01*
X103631137Y-83911057D01*
X103665315Y-83929325D01*
X103695281Y-83953919D01*
X103719875Y-83983885D01*
X103738143Y-84018063D01*
X103749396Y-84055158D01*
X103753800Y-84099874D01*
X103753800Y-85192926D01*
X103749396Y-85237642D01*
X103738143Y-85274737D01*
X103719875Y-85308915D01*
X103695281Y-85338881D01*
X103665315Y-85363475D01*
X103631137Y-85381743D01*
X103594042Y-85392996D01*
X103549326Y-85397400D01*
X102656274Y-85397400D01*
X102611558Y-85392996D01*
X102574463Y-85381743D01*
X102540285Y-85363475D01*
X102510319Y-85338881D01*
X102485725Y-85308915D01*
X102467457Y-85274737D01*
X102456204Y-85237642D01*
X102451800Y-85192926D01*
X102451800Y-84099874D01*
X102456204Y-84055158D01*
X102467457Y-84018063D01*
X102485725Y-83983885D01*
X102510319Y-83953919D01*
X102540285Y-83929325D01*
X102574463Y-83911057D01*
X102611558Y-83899804D01*
X102656274Y-83895400D01*
X103549326Y-83895400D01*
X103594042Y-83899804D01*
G37*
G36*
X65047128Y-84695164D02*
G01*
X65068209Y-84701560D01*
X65087645Y-84711948D01*
X65104676Y-84725924D01*
X65118652Y-84742955D01*
X65129040Y-84762391D01*
X65135436Y-84783472D01*
X65138200Y-84811540D01*
X65138200Y-85275260D01*
X65135436Y-85303328D01*
X65129040Y-85324409D01*
X65118652Y-85343845D01*
X65104676Y-85360876D01*
X65087645Y-85374852D01*
X65068209Y-85385240D01*
X65047128Y-85391636D01*
X65019060Y-85394400D01*
X63405340Y-85394400D01*
X63377272Y-85391636D01*
X63356191Y-85385240D01*
X63336755Y-85374852D01*
X63319724Y-85360876D01*
X63305748Y-85343845D01*
X63295360Y-85324409D01*
X63288964Y-85303328D01*
X63286200Y-85275260D01*
X63286200Y-84811540D01*
X63288964Y-84783472D01*
X63295360Y-84762391D01*
X63305748Y-84742955D01*
X63319724Y-84725924D01*
X63336755Y-84711948D01*
X63356191Y-84701560D01*
X63377272Y-84695164D01*
X63405340Y-84692400D01*
X65019060Y-84692400D01*
X65047128Y-84695164D01*
G37*
G36*
X70197128Y-84695164D02*
G01*
X70218209Y-84701560D01*
X70237645Y-84711948D01*
X70254676Y-84725924D01*
X70268652Y-84742955D01*
X70279040Y-84762391D01*
X70285436Y-84783472D01*
X70288200Y-84811540D01*
X70288200Y-85275260D01*
X70285436Y-85303328D01*
X70279040Y-85324409D01*
X70268652Y-85343845D01*
X70254676Y-85360876D01*
X70237645Y-85374852D01*
X70218209Y-85385240D01*
X70197128Y-85391636D01*
X70169060Y-85394400D01*
X68555340Y-85394400D01*
X68527272Y-85391636D01*
X68506191Y-85385240D01*
X68486755Y-85374852D01*
X68469724Y-85360876D01*
X68455748Y-85343845D01*
X68445360Y-85324409D01*
X68438964Y-85303328D01*
X68436200Y-85275260D01*
X68436200Y-84811540D01*
X68438964Y-84783472D01*
X68445360Y-84762391D01*
X68455748Y-84742955D01*
X68469724Y-84725924D01*
X68486755Y-84711948D01*
X68506191Y-84701560D01*
X68527272Y-84695164D01*
X68555340Y-84692400D01*
X70169060Y-84692400D01*
X70197128Y-84695164D01*
G37*
G36*
X127095642Y-83849004D02*
G01*
X127132737Y-83860257D01*
X127166915Y-83878525D01*
X127196881Y-83903119D01*
X127221475Y-83933085D01*
X127239743Y-83967263D01*
X127250996Y-84004358D01*
X127255400Y-84049074D01*
X127255400Y-85142126D01*
X127250996Y-85186842D01*
X127239743Y-85223937D01*
X127221475Y-85258115D01*
X127196881Y-85288081D01*
X127166915Y-85312675D01*
X127132737Y-85330943D01*
X127095642Y-85342196D01*
X127050926Y-85346600D01*
X126157874Y-85346600D01*
X126113158Y-85342196D01*
X126076063Y-85330943D01*
X126041885Y-85312675D01*
X126011919Y-85288081D01*
X125987325Y-85258115D01*
X125969057Y-85223937D01*
X125957804Y-85186842D01*
X125953400Y-85142126D01*
X125953400Y-84049074D01*
X125957804Y-84004358D01*
X125969057Y-83967263D01*
X125987325Y-83933085D01*
X126011919Y-83903119D01*
X126041885Y-83878525D01*
X126076063Y-83860257D01*
X126113158Y-83849004D01*
X126157874Y-83844600D01*
X127050926Y-83844600D01*
X127095642Y-83849004D01*
G37*
G36*
X129095642Y-83849004D02*
G01*
X129132737Y-83860257D01*
X129166915Y-83878525D01*
X129196881Y-83903119D01*
X129221475Y-83933085D01*
X129239743Y-83967263D01*
X129250996Y-84004358D01*
X129255400Y-84049074D01*
X129255400Y-85142126D01*
X129250996Y-85186842D01*
X129239743Y-85223937D01*
X129221475Y-85258115D01*
X129196881Y-85288081D01*
X129166915Y-85312675D01*
X129132737Y-85330943D01*
X129095642Y-85342196D01*
X129050926Y-85346600D01*
X128157874Y-85346600D01*
X128113158Y-85342196D01*
X128076063Y-85330943D01*
X128041885Y-85312675D01*
X128011919Y-85288081D01*
X127987325Y-85258115D01*
X127969057Y-85223937D01*
X127957804Y-85186842D01*
X127953400Y-85142126D01*
X127953400Y-84049074D01*
X127957804Y-84004358D01*
X127969057Y-83967263D01*
X127987325Y-83933085D01*
X128011919Y-83903119D01*
X128041885Y-83878525D01*
X128076063Y-83860257D01*
X128113158Y-83849004D01*
X128157874Y-83844600D01*
X129050926Y-83844600D01*
X129095642Y-83849004D01*
G37*
G36*
X200704842Y-83849004D02*
G01*
X200741937Y-83860257D01*
X200776115Y-83878525D01*
X200806081Y-83903119D01*
X200830675Y-83933085D01*
X200848943Y-83967263D01*
X200860196Y-84004358D01*
X200864600Y-84049074D01*
X200864600Y-85142126D01*
X200860196Y-85186842D01*
X200848943Y-85223937D01*
X200830675Y-85258115D01*
X200806081Y-85288081D01*
X200776115Y-85312675D01*
X200741937Y-85330943D01*
X200704842Y-85342196D01*
X200660126Y-85346600D01*
X199767074Y-85346600D01*
X199722358Y-85342196D01*
X199685263Y-85330943D01*
X199651085Y-85312675D01*
X199621119Y-85288081D01*
X199596525Y-85258115D01*
X199578257Y-85223937D01*
X199567004Y-85186842D01*
X199562600Y-85142126D01*
X199562600Y-84049074D01*
X199567004Y-84004358D01*
X199578257Y-83967263D01*
X199596525Y-83933085D01*
X199621119Y-83903119D01*
X199651085Y-83878525D01*
X199685263Y-83860257D01*
X199722358Y-83849004D01*
X199767074Y-83844600D01*
X200660126Y-83844600D01*
X200704842Y-83849004D01*
G37*
G36*
X202704842Y-83849004D02*
G01*
X202741937Y-83860257D01*
X202776115Y-83878525D01*
X202806081Y-83903119D01*
X202830675Y-83933085D01*
X202848943Y-83967263D01*
X202860196Y-84004358D01*
X202864600Y-84049074D01*
X202864600Y-85142126D01*
X202860196Y-85186842D01*
X202848943Y-85223937D01*
X202830675Y-85258115D01*
X202806081Y-85288081D01*
X202776115Y-85312675D01*
X202741937Y-85330943D01*
X202704842Y-85342196D01*
X202660126Y-85346600D01*
X201767074Y-85346600D01*
X201722358Y-85342196D01*
X201685263Y-85330943D01*
X201651085Y-85312675D01*
X201621119Y-85288081D01*
X201596525Y-85258115D01*
X201578257Y-85223937D01*
X201567004Y-85186842D01*
X201562600Y-85142126D01*
X201562600Y-84049074D01*
X201567004Y-84004358D01*
X201578257Y-83967263D01*
X201596525Y-83933085D01*
X201621119Y-83903119D01*
X201651085Y-83878525D01*
X201685263Y-83860257D01*
X201722358Y-83849004D01*
X201767074Y-83844600D01*
X202660126Y-83844600D01*
X202704842Y-83849004D01*
G37*
G36*
X227800042Y-83747404D02*
G01*
X227837137Y-83758657D01*
X227871315Y-83776925D01*
X227901281Y-83801519D01*
X227925875Y-83831485D01*
X227944143Y-83865663D01*
X227955396Y-83902758D01*
X227959800Y-83947474D01*
X227959800Y-85040526D01*
X227955396Y-85085242D01*
X227944143Y-85122337D01*
X227925875Y-85156515D01*
X227901281Y-85186481D01*
X227871315Y-85211075D01*
X227837137Y-85229343D01*
X227800042Y-85240596D01*
X227755326Y-85245000D01*
X226862274Y-85245000D01*
X226817558Y-85240596D01*
X226780463Y-85229343D01*
X226746285Y-85211075D01*
X226716319Y-85186481D01*
X226691725Y-85156515D01*
X226673457Y-85122337D01*
X226662204Y-85085242D01*
X226657800Y-85040526D01*
X226657800Y-83947474D01*
X226662204Y-83902758D01*
X226673457Y-83865663D01*
X226691725Y-83831485D01*
X226716319Y-83801519D01*
X226746285Y-83776925D01*
X226780463Y-83758657D01*
X226817558Y-83747404D01*
X226862274Y-83743000D01*
X227755326Y-83743000D01*
X227800042Y-83747404D01*
G37*
G36*
X225800042Y-83747404D02*
G01*
X225837137Y-83758657D01*
X225871315Y-83776925D01*
X225901281Y-83801519D01*
X225925875Y-83831485D01*
X225944143Y-83865663D01*
X225955396Y-83902758D01*
X225959800Y-83947474D01*
X225959800Y-85040526D01*
X225955396Y-85085242D01*
X225944143Y-85122337D01*
X225925875Y-85156515D01*
X225901281Y-85186481D01*
X225871315Y-85211075D01*
X225837137Y-85229343D01*
X225800042Y-85240596D01*
X225755326Y-85245000D01*
X224862274Y-85245000D01*
X224817558Y-85240596D01*
X224780463Y-85229343D01*
X224746285Y-85211075D01*
X224716319Y-85186481D01*
X224691725Y-85156515D01*
X224673457Y-85122337D01*
X224662204Y-85085242D01*
X224657800Y-85040526D01*
X224657800Y-83947474D01*
X224662204Y-83902758D01*
X224673457Y-83865663D01*
X224691725Y-83831485D01*
X224716319Y-83801519D01*
X224746285Y-83776925D01*
X224780463Y-83758657D01*
X224817558Y-83747404D01*
X224862274Y-83743000D01*
X225755326Y-83743000D01*
X225800042Y-83747404D01*
G37*
G36*
X192900442Y-83544204D02*
G01*
X192937537Y-83555457D01*
X192971715Y-83573725D01*
X193001681Y-83598319D01*
X193026275Y-83628285D01*
X193044543Y-83662463D01*
X193055796Y-83699558D01*
X193060200Y-83744274D01*
X193060200Y-84837326D01*
X193055796Y-84882042D01*
X193044543Y-84919137D01*
X193026275Y-84953315D01*
X193001681Y-84983281D01*
X192971715Y-85007875D01*
X192937537Y-85026143D01*
X192900442Y-85037396D01*
X192855726Y-85041800D01*
X191962674Y-85041800D01*
X191917958Y-85037396D01*
X191880863Y-85026143D01*
X191846685Y-85007875D01*
X191816719Y-84983281D01*
X191792125Y-84953315D01*
X191773857Y-84919137D01*
X191762604Y-84882042D01*
X191758200Y-84837326D01*
X191758200Y-83744274D01*
X191762604Y-83699558D01*
X191773857Y-83662463D01*
X191792125Y-83628285D01*
X191816719Y-83598319D01*
X191846685Y-83573725D01*
X191880863Y-83555457D01*
X191917958Y-83544204D01*
X191962674Y-83539800D01*
X192855726Y-83539800D01*
X192900442Y-83544204D01*
G37*
G36*
X190900442Y-83544204D02*
G01*
X190937537Y-83555457D01*
X190971715Y-83573725D01*
X191001681Y-83598319D01*
X191026275Y-83628285D01*
X191044543Y-83662463D01*
X191055796Y-83699558D01*
X191060200Y-83744274D01*
X191060200Y-84837326D01*
X191055796Y-84882042D01*
X191044543Y-84919137D01*
X191026275Y-84953315D01*
X191001681Y-84983281D01*
X190971715Y-85007875D01*
X190937537Y-85026143D01*
X190900442Y-85037396D01*
X190855726Y-85041800D01*
X189962674Y-85041800D01*
X189917958Y-85037396D01*
X189880863Y-85026143D01*
X189846685Y-85007875D01*
X189816719Y-84983281D01*
X189792125Y-84953315D01*
X189773857Y-84919137D01*
X189762604Y-84882042D01*
X189758200Y-84837326D01*
X189758200Y-83744274D01*
X189762604Y-83699558D01*
X189773857Y-83662463D01*
X189792125Y-83628285D01*
X189816719Y-83598319D01*
X189846685Y-83573725D01*
X189880863Y-83555457D01*
X189917958Y-83544204D01*
X189962674Y-83539800D01*
X190855726Y-83539800D01*
X190900442Y-83544204D01*
G37*
G36*
X112159928Y-84256764D02*
G01*
X112181009Y-84263160D01*
X112200445Y-84273548D01*
X112217476Y-84287524D01*
X112231452Y-84304555D01*
X112241840Y-84323991D01*
X112248236Y-84345072D01*
X112251000Y-84373140D01*
X112251000Y-84836860D01*
X112248236Y-84864928D01*
X112241840Y-84886009D01*
X112231452Y-84905445D01*
X112217476Y-84922476D01*
X112200445Y-84936452D01*
X112181009Y-84946840D01*
X112159928Y-84953236D01*
X112131860Y-84956000D01*
X110518140Y-84956000D01*
X110490072Y-84953236D01*
X110468991Y-84946840D01*
X110449555Y-84936452D01*
X110432524Y-84922476D01*
X110418548Y-84905445D01*
X110408160Y-84886009D01*
X110401764Y-84864928D01*
X110399000Y-84836860D01*
X110399000Y-84373140D01*
X110401764Y-84345072D01*
X110408160Y-84323991D01*
X110418548Y-84304555D01*
X110432524Y-84287524D01*
X110449555Y-84273548D01*
X110468991Y-84263160D01*
X110490072Y-84256764D01*
X110518140Y-84254000D01*
X112131860Y-84254000D01*
X112159928Y-84256764D01*
G37*
G36*
X117309928Y-84256764D02*
G01*
X117331009Y-84263160D01*
X117350445Y-84273548D01*
X117367476Y-84287524D01*
X117381452Y-84304555D01*
X117391840Y-84323991D01*
X117398236Y-84345072D01*
X117401000Y-84373140D01*
X117401000Y-84836860D01*
X117398236Y-84864928D01*
X117391840Y-84886009D01*
X117381452Y-84905445D01*
X117367476Y-84922476D01*
X117350445Y-84936452D01*
X117331009Y-84946840D01*
X117309928Y-84953236D01*
X117281860Y-84956000D01*
X115668140Y-84956000D01*
X115640072Y-84953236D01*
X115618991Y-84946840D01*
X115599555Y-84936452D01*
X115582524Y-84922476D01*
X115568548Y-84905445D01*
X115558160Y-84886009D01*
X115551764Y-84864928D01*
X115549000Y-84836860D01*
X115549000Y-84373140D01*
X115551764Y-84345072D01*
X115558160Y-84323991D01*
X115568548Y-84304555D01*
X115582524Y-84287524D01*
X115599555Y-84273548D01*
X115618991Y-84263160D01*
X115640072Y-84256764D01*
X115668140Y-84254000D01*
X117281860Y-84254000D01*
X117309928Y-84256764D01*
G37*
G36*
X166128842Y-83442604D02*
G01*
X166165937Y-83453857D01*
X166200115Y-83472125D01*
X166230081Y-83496719D01*
X166254675Y-83526685D01*
X166272943Y-83560863D01*
X166284196Y-83597958D01*
X166288600Y-83642674D01*
X166288600Y-84735726D01*
X166284196Y-84780442D01*
X166272943Y-84817537D01*
X166254675Y-84851715D01*
X166230081Y-84881681D01*
X166200115Y-84906275D01*
X166165937Y-84924543D01*
X166128842Y-84935796D01*
X166084126Y-84940200D01*
X165191074Y-84940200D01*
X165146358Y-84935796D01*
X165109263Y-84924543D01*
X165075085Y-84906275D01*
X165045119Y-84881681D01*
X165020525Y-84851715D01*
X165002257Y-84817537D01*
X164991004Y-84780442D01*
X164986600Y-84735726D01*
X164986600Y-83642674D01*
X164991004Y-83597958D01*
X165002257Y-83560863D01*
X165020525Y-83526685D01*
X165045119Y-83496719D01*
X165075085Y-83472125D01*
X165109263Y-83453857D01*
X165146358Y-83442604D01*
X165191074Y-83438200D01*
X166084126Y-83438200D01*
X166128842Y-83442604D01*
G37*
G36*
X164128842Y-83442604D02*
G01*
X164165937Y-83453857D01*
X164200115Y-83472125D01*
X164230081Y-83496719D01*
X164254675Y-83526685D01*
X164272943Y-83560863D01*
X164284196Y-83597958D01*
X164288600Y-83642674D01*
X164288600Y-84735726D01*
X164284196Y-84780442D01*
X164272943Y-84817537D01*
X164254675Y-84851715D01*
X164230081Y-84881681D01*
X164200115Y-84906275D01*
X164165937Y-84924543D01*
X164128842Y-84935796D01*
X164084126Y-84940200D01*
X163191074Y-84940200D01*
X163146358Y-84935796D01*
X163109263Y-84924543D01*
X163075085Y-84906275D01*
X163045119Y-84881681D01*
X163020525Y-84851715D01*
X163002257Y-84817537D01*
X162991004Y-84780442D01*
X162986600Y-84735726D01*
X162986600Y-83642674D01*
X162991004Y-83597958D01*
X163002257Y-83560863D01*
X163020525Y-83526685D01*
X163045119Y-83496719D01*
X163075085Y-83472125D01*
X163109263Y-83453857D01*
X163146358Y-83442604D01*
X163191074Y-83438200D01*
X164084126Y-83438200D01*
X164128842Y-83442604D01*
G37*
G36*
X212159928Y-84216764D02*
G01*
X212181009Y-84223160D01*
X212200445Y-84233548D01*
X212217476Y-84247524D01*
X212231452Y-84264555D01*
X212241840Y-84283991D01*
X212248236Y-84305072D01*
X212251000Y-84333140D01*
X212251000Y-84796860D01*
X212248236Y-84824928D01*
X212241840Y-84846009D01*
X212231452Y-84865445D01*
X212217476Y-84882476D01*
X212200445Y-84896452D01*
X212181009Y-84906840D01*
X212159928Y-84913236D01*
X212131860Y-84916000D01*
X210518140Y-84916000D01*
X210490072Y-84913236D01*
X210468991Y-84906840D01*
X210449555Y-84896452D01*
X210432524Y-84882476D01*
X210418548Y-84865445D01*
X210408160Y-84846009D01*
X210401764Y-84824928D01*
X210399000Y-84796860D01*
X210399000Y-84333140D01*
X210401764Y-84305072D01*
X210408160Y-84283991D01*
X210418548Y-84264555D01*
X210432524Y-84247524D01*
X210449555Y-84233548D01*
X210468991Y-84223160D01*
X210490072Y-84216764D01*
X210518140Y-84214000D01*
X212131860Y-84214000D01*
X212159928Y-84216764D01*
G37*
G36*
X217309928Y-84216764D02*
G01*
X217331009Y-84223160D01*
X217350445Y-84233548D01*
X217367476Y-84247524D01*
X217381452Y-84264555D01*
X217391840Y-84283991D01*
X217398236Y-84305072D01*
X217401000Y-84333140D01*
X217401000Y-84796860D01*
X217398236Y-84824928D01*
X217391840Y-84846009D01*
X217381452Y-84865445D01*
X217367476Y-84882476D01*
X217350445Y-84896452D01*
X217331009Y-84906840D01*
X217309928Y-84913236D01*
X217281860Y-84916000D01*
X215668140Y-84916000D01*
X215640072Y-84913236D01*
X215618991Y-84906840D01*
X215599555Y-84896452D01*
X215582524Y-84882476D01*
X215568548Y-84865445D01*
X215558160Y-84846009D01*
X215551764Y-84824928D01*
X215549000Y-84796860D01*
X215549000Y-84333140D01*
X215551764Y-84305072D01*
X215558160Y-84283991D01*
X215568548Y-84264555D01*
X215582524Y-84247524D01*
X215599555Y-84233548D01*
X215618991Y-84223160D01*
X215640072Y-84216764D01*
X215668140Y-84214000D01*
X217281860Y-84214000D01*
X217309928Y-84216764D01*
G37*
G36*
X181609928Y-83916764D02*
G01*
X181631009Y-83923160D01*
X181650445Y-83933548D01*
X181667476Y-83947524D01*
X181681452Y-83964555D01*
X181691840Y-83983991D01*
X181698236Y-84005072D01*
X181701000Y-84033140D01*
X181701000Y-84496860D01*
X181698236Y-84524928D01*
X181691840Y-84546009D01*
X181681452Y-84565445D01*
X181667476Y-84582476D01*
X181650445Y-84596452D01*
X181631009Y-84606840D01*
X181609928Y-84613236D01*
X181581860Y-84616000D01*
X179968140Y-84616000D01*
X179940072Y-84613236D01*
X179918991Y-84606840D01*
X179899555Y-84596452D01*
X179882524Y-84582476D01*
X179868548Y-84565445D01*
X179858160Y-84546009D01*
X179851764Y-84524928D01*
X179849000Y-84496860D01*
X179849000Y-84033140D01*
X179851764Y-84005072D01*
X179858160Y-83983991D01*
X179868548Y-83964555D01*
X179882524Y-83947524D01*
X179899555Y-83933548D01*
X179918991Y-83923160D01*
X179940072Y-83916764D01*
X179968140Y-83914000D01*
X181581860Y-83914000D01*
X181609928Y-83916764D01*
G37*
G36*
X176459928Y-83916764D02*
G01*
X176481009Y-83923160D01*
X176500445Y-83933548D01*
X176517476Y-83947524D01*
X176531452Y-83964555D01*
X176541840Y-83983991D01*
X176548236Y-84005072D01*
X176551000Y-84033140D01*
X176551000Y-84496860D01*
X176548236Y-84524928D01*
X176541840Y-84546009D01*
X176531452Y-84565445D01*
X176517476Y-84582476D01*
X176500445Y-84596452D01*
X176481009Y-84606840D01*
X176459928Y-84613236D01*
X176431860Y-84616000D01*
X174818140Y-84616000D01*
X174790072Y-84613236D01*
X174768991Y-84606840D01*
X174749555Y-84596452D01*
X174732524Y-84582476D01*
X174718548Y-84565445D01*
X174708160Y-84546009D01*
X174701764Y-84524928D01*
X174699000Y-84496860D01*
X174699000Y-84033140D01*
X174701764Y-84005072D01*
X174708160Y-83983991D01*
X174718548Y-83964555D01*
X174732524Y-83947524D01*
X174749555Y-83933548D01*
X174768991Y-83923160D01*
X174790072Y-83916764D01*
X174818140Y-83914000D01*
X176431860Y-83914000D01*
X176459928Y-83916764D01*
G37*
G36*
X65047128Y-83425164D02*
G01*
X65068209Y-83431560D01*
X65087645Y-83441948D01*
X65104676Y-83455924D01*
X65118652Y-83472955D01*
X65129040Y-83492391D01*
X65135436Y-83513472D01*
X65138200Y-83541540D01*
X65138200Y-84005260D01*
X65135436Y-84033328D01*
X65129040Y-84054409D01*
X65118652Y-84073845D01*
X65104676Y-84090876D01*
X65087645Y-84104852D01*
X65068209Y-84115240D01*
X65047128Y-84121636D01*
X65019060Y-84124400D01*
X63405340Y-84124400D01*
X63377272Y-84121636D01*
X63356191Y-84115240D01*
X63336755Y-84104852D01*
X63319724Y-84090876D01*
X63305748Y-84073845D01*
X63295360Y-84054409D01*
X63288964Y-84033328D01*
X63286200Y-84005260D01*
X63286200Y-83541540D01*
X63288964Y-83513472D01*
X63295360Y-83492391D01*
X63305748Y-83472955D01*
X63319724Y-83455924D01*
X63336755Y-83441948D01*
X63356191Y-83431560D01*
X63377272Y-83425164D01*
X63405340Y-83422400D01*
X65019060Y-83422400D01*
X65047128Y-83425164D01*
G37*
G36*
X70197128Y-83425164D02*
G01*
X70218209Y-83431560D01*
X70237645Y-83441948D01*
X70254676Y-83455924D01*
X70268652Y-83472955D01*
X70279040Y-83492391D01*
X70285436Y-83513472D01*
X70288200Y-83541540D01*
X70288200Y-84005260D01*
X70285436Y-84033328D01*
X70279040Y-84054409D01*
X70268652Y-84073845D01*
X70254676Y-84090876D01*
X70237645Y-84104852D01*
X70218209Y-84115240D01*
X70197128Y-84121636D01*
X70169060Y-84124400D01*
X68555340Y-84124400D01*
X68527272Y-84121636D01*
X68506191Y-84115240D01*
X68486755Y-84104852D01*
X68469724Y-84090876D01*
X68455748Y-84073845D01*
X68445360Y-84054409D01*
X68438964Y-84033328D01*
X68436200Y-84005260D01*
X68436200Y-83541540D01*
X68438964Y-83513472D01*
X68445360Y-83492391D01*
X68455748Y-83472955D01*
X68469724Y-83455924D01*
X68486755Y-83441948D01*
X68506191Y-83431560D01*
X68527272Y-83425164D01*
X68555340Y-83422400D01*
X70169060Y-83422400D01*
X70197128Y-83425164D01*
G37*
G36*
X123082442Y-82579004D02*
G01*
X123119537Y-82590257D01*
X123153715Y-82608525D01*
X123183681Y-82633119D01*
X123208275Y-82663085D01*
X123226543Y-82697263D01*
X123237796Y-82734358D01*
X123242200Y-82779074D01*
X123242200Y-83872126D01*
X123237796Y-83916842D01*
X123226543Y-83953937D01*
X123208275Y-83988115D01*
X123183681Y-84018081D01*
X123153715Y-84042675D01*
X123119537Y-84060943D01*
X123082442Y-84072196D01*
X123037726Y-84076600D01*
X122144674Y-84076600D01*
X122099958Y-84072196D01*
X122062863Y-84060943D01*
X122028685Y-84042675D01*
X121998719Y-84018081D01*
X121974125Y-83988115D01*
X121955857Y-83953937D01*
X121944604Y-83916842D01*
X121940200Y-83872126D01*
X121940200Y-82779074D01*
X121944604Y-82734358D01*
X121955857Y-82697263D01*
X121974125Y-82663085D01*
X121998719Y-82633119D01*
X122028685Y-82608525D01*
X122062863Y-82590257D01*
X122099958Y-82579004D01*
X122144674Y-82574600D01*
X123037726Y-82574600D01*
X123082442Y-82579004D01*
G37*
G36*
X125082442Y-82579004D02*
G01*
X125119537Y-82590257D01*
X125153715Y-82608525D01*
X125183681Y-82633119D01*
X125208275Y-82663085D01*
X125226543Y-82697263D01*
X125237796Y-82734358D01*
X125242200Y-82779074D01*
X125242200Y-83872126D01*
X125237796Y-83916842D01*
X125226543Y-83953937D01*
X125208275Y-83988115D01*
X125183681Y-84018081D01*
X125153715Y-84042675D01*
X125119537Y-84060943D01*
X125082442Y-84072196D01*
X125037726Y-84076600D01*
X124144674Y-84076600D01*
X124099958Y-84072196D01*
X124062863Y-84060943D01*
X124028685Y-84042675D01*
X123998719Y-84018081D01*
X123974125Y-83988115D01*
X123955857Y-83953937D01*
X123944604Y-83916842D01*
X123940200Y-83872126D01*
X123940200Y-82779074D01*
X123944604Y-82734358D01*
X123955857Y-82697263D01*
X123974125Y-82663085D01*
X123998719Y-82633119D01*
X124028685Y-82608525D01*
X124062863Y-82590257D01*
X124099958Y-82579004D01*
X124144674Y-82574600D01*
X125037726Y-82574600D01*
X125082442Y-82579004D01*
G37*
G36*
X106013642Y-82528204D02*
G01*
X106050737Y-82539457D01*
X106084915Y-82557725D01*
X106114881Y-82582319D01*
X106139475Y-82612285D01*
X106157743Y-82646463D01*
X106168996Y-82683558D01*
X106173400Y-82728274D01*
X106173400Y-83821326D01*
X106168996Y-83866042D01*
X106157743Y-83903137D01*
X106139475Y-83937315D01*
X106114881Y-83967281D01*
X106084915Y-83991875D01*
X106050737Y-84010143D01*
X106013642Y-84021396D01*
X105968926Y-84025800D01*
X105075874Y-84025800D01*
X105031158Y-84021396D01*
X104994063Y-84010143D01*
X104959885Y-83991875D01*
X104929919Y-83967281D01*
X104905325Y-83937315D01*
X104887057Y-83903137D01*
X104875804Y-83866042D01*
X104871400Y-83821326D01*
X104871400Y-82728274D01*
X104875804Y-82683558D01*
X104887057Y-82646463D01*
X104905325Y-82612285D01*
X104929919Y-82582319D01*
X104959885Y-82557725D01*
X104994063Y-82539457D01*
X105031158Y-82528204D01*
X105075874Y-82523800D01*
X105968926Y-82523800D01*
X106013642Y-82528204D01*
G37*
G36*
X205632442Y-82528204D02*
G01*
X205669537Y-82539457D01*
X205703715Y-82557725D01*
X205733681Y-82582319D01*
X205758275Y-82612285D01*
X205776543Y-82646463D01*
X205787796Y-82683558D01*
X205792200Y-82728274D01*
X205792200Y-83821326D01*
X205787796Y-83866042D01*
X205776543Y-83903137D01*
X205758275Y-83937315D01*
X205733681Y-83967281D01*
X205703715Y-83991875D01*
X205669537Y-84010143D01*
X205632442Y-84021396D01*
X205587726Y-84025800D01*
X204694674Y-84025800D01*
X204649958Y-84021396D01*
X204612863Y-84010143D01*
X204578685Y-83991875D01*
X204548719Y-83967281D01*
X204524125Y-83937315D01*
X204505857Y-83903137D01*
X204494604Y-83866042D01*
X204490200Y-83821326D01*
X204490200Y-82728274D01*
X204494604Y-82683558D01*
X204505857Y-82646463D01*
X204524125Y-82612285D01*
X204548719Y-82582319D01*
X204578685Y-82557725D01*
X204612863Y-82539457D01*
X204649958Y-82528204D01*
X204694674Y-82523800D01*
X205587726Y-82523800D01*
X205632442Y-82528204D01*
G37*
G36*
X207632442Y-82528204D02*
G01*
X207669537Y-82539457D01*
X207703715Y-82557725D01*
X207733681Y-82582319D01*
X207758275Y-82612285D01*
X207776543Y-82646463D01*
X207787796Y-82683558D01*
X207792200Y-82728274D01*
X207792200Y-83821326D01*
X207787796Y-83866042D01*
X207776543Y-83903137D01*
X207758275Y-83937315D01*
X207733681Y-83967281D01*
X207703715Y-83991875D01*
X207669537Y-84010143D01*
X207632442Y-84021396D01*
X207587726Y-84025800D01*
X206694674Y-84025800D01*
X206649958Y-84021396D01*
X206612863Y-84010143D01*
X206578685Y-83991875D01*
X206548719Y-83967281D01*
X206524125Y-83937315D01*
X206505857Y-83903137D01*
X206494604Y-83866042D01*
X206490200Y-83821326D01*
X206490200Y-82728274D01*
X206494604Y-82683558D01*
X206505857Y-82646463D01*
X206524125Y-82612285D01*
X206548719Y-82582319D01*
X206578685Y-82557725D01*
X206612863Y-82539457D01*
X206649958Y-82528204D01*
X206694674Y-82523800D01*
X207587726Y-82523800D01*
X207632442Y-82528204D01*
G37*
G36*
X108013642Y-82528204D02*
G01*
X108050737Y-82539457D01*
X108084915Y-82557725D01*
X108114881Y-82582319D01*
X108139475Y-82612285D01*
X108157743Y-82646463D01*
X108168996Y-82683558D01*
X108173400Y-82728274D01*
X108173400Y-83821326D01*
X108168996Y-83866042D01*
X108157743Y-83903137D01*
X108139475Y-83937315D01*
X108114881Y-83967281D01*
X108084915Y-83991875D01*
X108050737Y-84010143D01*
X108013642Y-84021396D01*
X107968926Y-84025800D01*
X107075874Y-84025800D01*
X107031158Y-84021396D01*
X106994063Y-84010143D01*
X106959885Y-83991875D01*
X106929919Y-83967281D01*
X106905325Y-83937315D01*
X106887057Y-83903137D01*
X106875804Y-83866042D01*
X106871400Y-83821326D01*
X106871400Y-82728274D01*
X106875804Y-82683558D01*
X106887057Y-82646463D01*
X106905325Y-82612285D01*
X106929919Y-82582319D01*
X106959885Y-82557725D01*
X106994063Y-82539457D01*
X107031158Y-82528204D01*
X107075874Y-82523800D01*
X107968926Y-82523800D01*
X108013642Y-82528204D01*
G37*
G36*
X221075642Y-82528204D02*
G01*
X221112737Y-82539457D01*
X221146915Y-82557725D01*
X221176881Y-82582319D01*
X221201475Y-82612285D01*
X221219743Y-82646463D01*
X221230996Y-82683558D01*
X221235400Y-82728274D01*
X221235400Y-83821326D01*
X221230996Y-83866042D01*
X221219743Y-83903137D01*
X221201475Y-83937315D01*
X221176881Y-83967281D01*
X221146915Y-83991875D01*
X221112737Y-84010143D01*
X221075642Y-84021396D01*
X221030926Y-84025800D01*
X220137874Y-84025800D01*
X220093158Y-84021396D01*
X220056063Y-84010143D01*
X220021885Y-83991875D01*
X219991919Y-83967281D01*
X219967325Y-83937315D01*
X219949057Y-83903137D01*
X219937804Y-83866042D01*
X219933400Y-83821326D01*
X219933400Y-82728274D01*
X219937804Y-82683558D01*
X219949057Y-82646463D01*
X219967325Y-82612285D01*
X219991919Y-82582319D01*
X220021885Y-82557725D01*
X220056063Y-82539457D01*
X220093158Y-82528204D01*
X220137874Y-82523800D01*
X221030926Y-82523800D01*
X221075642Y-82528204D01*
G37*
G36*
X223075642Y-82528204D02*
G01*
X223112737Y-82539457D01*
X223146915Y-82557725D01*
X223176881Y-82582319D01*
X223201475Y-82612285D01*
X223219743Y-82646463D01*
X223230996Y-82683558D01*
X223235400Y-82728274D01*
X223235400Y-83821326D01*
X223230996Y-83866042D01*
X223219743Y-83903137D01*
X223201475Y-83937315D01*
X223176881Y-83967281D01*
X223146915Y-83991875D01*
X223112737Y-84010143D01*
X223075642Y-84021396D01*
X223030926Y-84025800D01*
X222137874Y-84025800D01*
X222093158Y-84021396D01*
X222056063Y-84010143D01*
X222021885Y-83991875D01*
X221991919Y-83967281D01*
X221967325Y-83937315D01*
X221949057Y-83903137D01*
X221937804Y-83866042D01*
X221933400Y-83821326D01*
X221933400Y-82728274D01*
X221937804Y-82683558D01*
X221949057Y-82646463D01*
X221967325Y-82612285D01*
X221991919Y-82582319D01*
X222021885Y-82557725D01*
X222056063Y-82539457D01*
X222093158Y-82528204D01*
X222137874Y-82523800D01*
X223030926Y-82523800D01*
X223075642Y-82528204D01*
G37*
G36*
X188379242Y-82325004D02*
G01*
X188416337Y-82336257D01*
X188450515Y-82354525D01*
X188480481Y-82379119D01*
X188505075Y-82409085D01*
X188523343Y-82443263D01*
X188534596Y-82480358D01*
X188539000Y-82525074D01*
X188539000Y-83618126D01*
X188534596Y-83662842D01*
X188523343Y-83699937D01*
X188505075Y-83734115D01*
X188480481Y-83764081D01*
X188450515Y-83788675D01*
X188416337Y-83806943D01*
X188379242Y-83818196D01*
X188334526Y-83822600D01*
X187441474Y-83822600D01*
X187396758Y-83818196D01*
X187359663Y-83806943D01*
X187325485Y-83788675D01*
X187295519Y-83764081D01*
X187270925Y-83734115D01*
X187252657Y-83699937D01*
X187241404Y-83662842D01*
X187237000Y-83618126D01*
X187237000Y-82525074D01*
X187241404Y-82480358D01*
X187252657Y-82443263D01*
X187270925Y-82409085D01*
X187295519Y-82379119D01*
X187325485Y-82354525D01*
X187359663Y-82336257D01*
X187396758Y-82325004D01*
X187441474Y-82320600D01*
X188334526Y-82320600D01*
X188379242Y-82325004D01*
G37*
G36*
X186379242Y-82325004D02*
G01*
X186416337Y-82336257D01*
X186450515Y-82354525D01*
X186480481Y-82379119D01*
X186505075Y-82409085D01*
X186523343Y-82443263D01*
X186534596Y-82480358D01*
X186539000Y-82525074D01*
X186539000Y-83618126D01*
X186534596Y-83662842D01*
X186523343Y-83699937D01*
X186505075Y-83734115D01*
X186480481Y-83764081D01*
X186450515Y-83788675D01*
X186416337Y-83806943D01*
X186379242Y-83818196D01*
X186334526Y-83822600D01*
X185441474Y-83822600D01*
X185396758Y-83818196D01*
X185359663Y-83806943D01*
X185325485Y-83788675D01*
X185295519Y-83764081D01*
X185270925Y-83734115D01*
X185252657Y-83699937D01*
X185241404Y-83662842D01*
X185237000Y-83618126D01*
X185237000Y-82525074D01*
X185241404Y-82480358D01*
X185252657Y-82443263D01*
X185270925Y-82409085D01*
X185295519Y-82379119D01*
X185325485Y-82354525D01*
X185359663Y-82336257D01*
X185396758Y-82325004D01*
X185441474Y-82320600D01*
X186334526Y-82320600D01*
X186379242Y-82325004D01*
G37*
G36*
X168650042Y-82274204D02*
G01*
X168687137Y-82285457D01*
X168721315Y-82303725D01*
X168751281Y-82328319D01*
X168775875Y-82358285D01*
X168794143Y-82392463D01*
X168805396Y-82429558D01*
X168809800Y-82474274D01*
X168809800Y-83567326D01*
X168805396Y-83612042D01*
X168794143Y-83649137D01*
X168775875Y-83683315D01*
X168751281Y-83713281D01*
X168721315Y-83737875D01*
X168687137Y-83756143D01*
X168650042Y-83767396D01*
X168605326Y-83771800D01*
X167712274Y-83771800D01*
X167667558Y-83767396D01*
X167630463Y-83756143D01*
X167596285Y-83737875D01*
X167566319Y-83713281D01*
X167541725Y-83683315D01*
X167523457Y-83649137D01*
X167512204Y-83612042D01*
X167507800Y-83567326D01*
X167507800Y-82474274D01*
X167512204Y-82429558D01*
X167523457Y-82392463D01*
X167541725Y-82358285D01*
X167566319Y-82328319D01*
X167596285Y-82303725D01*
X167630463Y-82285457D01*
X167667558Y-82274204D01*
X167712274Y-82269800D01*
X168605326Y-82269800D01*
X168650042Y-82274204D01*
G37*
G36*
X170650042Y-82274204D02*
G01*
X170687137Y-82285457D01*
X170721315Y-82303725D01*
X170751281Y-82328319D01*
X170775875Y-82358285D01*
X170794143Y-82392463D01*
X170805396Y-82429558D01*
X170809800Y-82474274D01*
X170809800Y-83567326D01*
X170805396Y-83612042D01*
X170794143Y-83649137D01*
X170775875Y-83683315D01*
X170751281Y-83713281D01*
X170721315Y-83737875D01*
X170687137Y-83756143D01*
X170650042Y-83767396D01*
X170605326Y-83771800D01*
X169712274Y-83771800D01*
X169667558Y-83767396D01*
X169630463Y-83756143D01*
X169596285Y-83737875D01*
X169566319Y-83713281D01*
X169541725Y-83683315D01*
X169523457Y-83649137D01*
X169512204Y-83612042D01*
X169507800Y-83567326D01*
X169507800Y-82474274D01*
X169512204Y-82429558D01*
X169523457Y-82392463D01*
X169541725Y-82358285D01*
X169566319Y-82328319D01*
X169596285Y-82303725D01*
X169630463Y-82285457D01*
X169667558Y-82274204D01*
X169712274Y-82269800D01*
X170605326Y-82269800D01*
X170650042Y-82274204D01*
G37*
G36*
X117309928Y-82986764D02*
G01*
X117331009Y-82993160D01*
X117350445Y-83003548D01*
X117367476Y-83017524D01*
X117381452Y-83034555D01*
X117391840Y-83053991D01*
X117398236Y-83075072D01*
X117401000Y-83103140D01*
X117401000Y-83566860D01*
X117398236Y-83594928D01*
X117391840Y-83616009D01*
X117381452Y-83635445D01*
X117367476Y-83652476D01*
X117350445Y-83666452D01*
X117331009Y-83676840D01*
X117309928Y-83683236D01*
X117281860Y-83686000D01*
X115668140Y-83686000D01*
X115640072Y-83683236D01*
X115618991Y-83676840D01*
X115599555Y-83666452D01*
X115582524Y-83652476D01*
X115568548Y-83635445D01*
X115558160Y-83616009D01*
X115551764Y-83594928D01*
X115549000Y-83566860D01*
X115549000Y-83103140D01*
X115551764Y-83075072D01*
X115558160Y-83053991D01*
X115568548Y-83034555D01*
X115582524Y-83017524D01*
X115599555Y-83003548D01*
X115618991Y-82993160D01*
X115640072Y-82986764D01*
X115668140Y-82984000D01*
X117281860Y-82984000D01*
X117309928Y-82986764D01*
G37*
G36*
X112159928Y-82986764D02*
G01*
X112181009Y-82993160D01*
X112200445Y-83003548D01*
X112217476Y-83017524D01*
X112231452Y-83034555D01*
X112241840Y-83053991D01*
X112248236Y-83075072D01*
X112251000Y-83103140D01*
X112251000Y-83566860D01*
X112248236Y-83594928D01*
X112241840Y-83616009D01*
X112231452Y-83635445D01*
X112217476Y-83652476D01*
X112200445Y-83666452D01*
X112181009Y-83676840D01*
X112159928Y-83683236D01*
X112131860Y-83686000D01*
X110518140Y-83686000D01*
X110490072Y-83683236D01*
X110468991Y-83676840D01*
X110449555Y-83666452D01*
X110432524Y-83652476D01*
X110418548Y-83635445D01*
X110408160Y-83616009D01*
X110401764Y-83594928D01*
X110399000Y-83566860D01*
X110399000Y-83103140D01*
X110401764Y-83075072D01*
X110408160Y-83053991D01*
X110418548Y-83034555D01*
X110432524Y-83017524D01*
X110449555Y-83003548D01*
X110468991Y-82993160D01*
X110490072Y-82986764D01*
X110518140Y-82984000D01*
X112131860Y-82984000D01*
X112159928Y-82986764D01*
G37*
G36*
X217309928Y-82946764D02*
G01*
X217331009Y-82953160D01*
X217350445Y-82963548D01*
X217367476Y-82977524D01*
X217381452Y-82994555D01*
X217391840Y-83013991D01*
X217398236Y-83035072D01*
X217401000Y-83063140D01*
X217401000Y-83526860D01*
X217398236Y-83554928D01*
X217391840Y-83576009D01*
X217381452Y-83595445D01*
X217367476Y-83612476D01*
X217350445Y-83626452D01*
X217331009Y-83636840D01*
X217309928Y-83643236D01*
X217281860Y-83646000D01*
X215668140Y-83646000D01*
X215640072Y-83643236D01*
X215618991Y-83636840D01*
X215599555Y-83626452D01*
X215582524Y-83612476D01*
X215568548Y-83595445D01*
X215558160Y-83576009D01*
X215551764Y-83554928D01*
X215549000Y-83526860D01*
X215549000Y-83063140D01*
X215551764Y-83035072D01*
X215558160Y-83013991D01*
X215568548Y-82994555D01*
X215582524Y-82977524D01*
X215599555Y-82963548D01*
X215618991Y-82953160D01*
X215640072Y-82946764D01*
X215668140Y-82944000D01*
X217281860Y-82944000D01*
X217309928Y-82946764D01*
G37*
G36*
X212159928Y-82946764D02*
G01*
X212181009Y-82953160D01*
X212200445Y-82963548D01*
X212217476Y-82977524D01*
X212231452Y-82994555D01*
X212241840Y-83013991D01*
X212248236Y-83035072D01*
X212251000Y-83063140D01*
X212251000Y-83526860D01*
X212248236Y-83554928D01*
X212241840Y-83576009D01*
X212231452Y-83595445D01*
X212217476Y-83612476D01*
X212200445Y-83626452D01*
X212181009Y-83636840D01*
X212159928Y-83643236D01*
X212131860Y-83646000D01*
X210518140Y-83646000D01*
X210490072Y-83643236D01*
X210468991Y-83636840D01*
X210449555Y-83626452D01*
X210432524Y-83612476D01*
X210418548Y-83595445D01*
X210408160Y-83576009D01*
X210401764Y-83554928D01*
X210399000Y-83526860D01*
X210399000Y-83063140D01*
X210401764Y-83035072D01*
X210408160Y-83013991D01*
X210418548Y-82994555D01*
X210432524Y-82977524D01*
X210449555Y-82963548D01*
X210468991Y-82953160D01*
X210490072Y-82946764D01*
X210518140Y-82944000D01*
X212131860Y-82944000D01*
X212159928Y-82946764D01*
G37*
G36*
X181609928Y-82646764D02*
G01*
X181631009Y-82653160D01*
X181650445Y-82663548D01*
X181667476Y-82677524D01*
X181681452Y-82694555D01*
X181691840Y-82713991D01*
X181698236Y-82735072D01*
X181701000Y-82763140D01*
X181701000Y-83226860D01*
X181698236Y-83254928D01*
X181691840Y-83276009D01*
X181681452Y-83295445D01*
X181667476Y-83312476D01*
X181650445Y-83326452D01*
X181631009Y-83336840D01*
X181609928Y-83343236D01*
X181581860Y-83346000D01*
X179968140Y-83346000D01*
X179940072Y-83343236D01*
X179918991Y-83336840D01*
X179899555Y-83326452D01*
X179882524Y-83312476D01*
X179868548Y-83295445D01*
X179858160Y-83276009D01*
X179851764Y-83254928D01*
X179849000Y-83226860D01*
X179849000Y-82763140D01*
X179851764Y-82735072D01*
X179858160Y-82713991D01*
X179868548Y-82694555D01*
X179882524Y-82677524D01*
X179899555Y-82663548D01*
X179918991Y-82653160D01*
X179940072Y-82646764D01*
X179968140Y-82644000D01*
X181581860Y-82644000D01*
X181609928Y-82646764D01*
G37*
G36*
X176459928Y-82646764D02*
G01*
X176481009Y-82653160D01*
X176500445Y-82663548D01*
X176517476Y-82677524D01*
X176531452Y-82694555D01*
X176541840Y-82713991D01*
X176548236Y-82735072D01*
X176551000Y-82763140D01*
X176551000Y-83226860D01*
X176548236Y-83254928D01*
X176541840Y-83276009D01*
X176531452Y-83295445D01*
X176517476Y-83312476D01*
X176500445Y-83326452D01*
X176481009Y-83336840D01*
X176459928Y-83343236D01*
X176431860Y-83346000D01*
X174818140Y-83346000D01*
X174790072Y-83343236D01*
X174768991Y-83336840D01*
X174749555Y-83326452D01*
X174732524Y-83312476D01*
X174718548Y-83295445D01*
X174708160Y-83276009D01*
X174701764Y-83254928D01*
X174699000Y-83226860D01*
X174699000Y-82763140D01*
X174701764Y-82735072D01*
X174708160Y-82713991D01*
X174718548Y-82694555D01*
X174732524Y-82677524D01*
X174749555Y-82663548D01*
X174768991Y-82653160D01*
X174790072Y-82646764D01*
X174818140Y-82644000D01*
X176431860Y-82644000D01*
X176459928Y-82646764D01*
G37*
G36*
X55435642Y-81817004D02*
G01*
X55472737Y-81828257D01*
X55506915Y-81846525D01*
X55536881Y-81871119D01*
X55561475Y-81901085D01*
X55579743Y-81935263D01*
X55590996Y-81972358D01*
X55595400Y-82017074D01*
X55595400Y-83110126D01*
X55590996Y-83154842D01*
X55579743Y-83191937D01*
X55561475Y-83226115D01*
X55536881Y-83256081D01*
X55506915Y-83280675D01*
X55472737Y-83298943D01*
X55435642Y-83310196D01*
X55390926Y-83314600D01*
X54497874Y-83314600D01*
X54453158Y-83310196D01*
X54416063Y-83298943D01*
X54381885Y-83280675D01*
X54351919Y-83256081D01*
X54327325Y-83226115D01*
X54309057Y-83191937D01*
X54297804Y-83154842D01*
X54293400Y-83110126D01*
X54293400Y-82017074D01*
X54297804Y-81972358D01*
X54309057Y-81935263D01*
X54327325Y-81901085D01*
X54351919Y-81871119D01*
X54381885Y-81846525D01*
X54416063Y-81828257D01*
X54453158Y-81817004D01*
X54497874Y-81812600D01*
X55390926Y-81812600D01*
X55435642Y-81817004D01*
G37*
G36*
X53435642Y-81817004D02*
G01*
X53472737Y-81828257D01*
X53506915Y-81846525D01*
X53536881Y-81871119D01*
X53561475Y-81901085D01*
X53579743Y-81935263D01*
X53590996Y-81972358D01*
X53595400Y-82017074D01*
X53595400Y-83110126D01*
X53590996Y-83154842D01*
X53579743Y-83191937D01*
X53561475Y-83226115D01*
X53536881Y-83256081D01*
X53506915Y-83280675D01*
X53472737Y-83298943D01*
X53435642Y-83310196D01*
X53390926Y-83314600D01*
X52497874Y-83314600D01*
X52453158Y-83310196D01*
X52416063Y-83298943D01*
X52381885Y-83280675D01*
X52351919Y-83256081D01*
X52327325Y-83226115D01*
X52309057Y-83191937D01*
X52297804Y-83154842D01*
X52293400Y-83110126D01*
X52293400Y-82017074D01*
X52297804Y-81972358D01*
X52309057Y-81935263D01*
X52327325Y-81901085D01*
X52351919Y-81871119D01*
X52381885Y-81846525D01*
X52416063Y-81828257D01*
X52453158Y-81817004D01*
X52497874Y-81812600D01*
X53390926Y-81812600D01*
X53435642Y-81817004D01*
G37*
G36*
X74212842Y-81817004D02*
G01*
X74249937Y-81828257D01*
X74284115Y-81846525D01*
X74314081Y-81871119D01*
X74338675Y-81901085D01*
X74356943Y-81935263D01*
X74368196Y-81972358D01*
X74372600Y-82017074D01*
X74372600Y-83110126D01*
X74368196Y-83154842D01*
X74356943Y-83191937D01*
X74338675Y-83226115D01*
X74314081Y-83256081D01*
X74284115Y-83280675D01*
X74249937Y-83298943D01*
X74212842Y-83310196D01*
X74168126Y-83314600D01*
X73275074Y-83314600D01*
X73230358Y-83310196D01*
X73193263Y-83298943D01*
X73159085Y-83280675D01*
X73129119Y-83256081D01*
X73104525Y-83226115D01*
X73086257Y-83191937D01*
X73075004Y-83154842D01*
X73070600Y-83110126D01*
X73070600Y-82017074D01*
X73075004Y-81972358D01*
X73086257Y-81935263D01*
X73104525Y-81901085D01*
X73129119Y-81871119D01*
X73159085Y-81846525D01*
X73193263Y-81828257D01*
X73230358Y-81817004D01*
X73275074Y-81812600D01*
X74168126Y-81812600D01*
X74212842Y-81817004D01*
G37*
G36*
X76212842Y-81817004D02*
G01*
X76249937Y-81828257D01*
X76284115Y-81846525D01*
X76314081Y-81871119D01*
X76338675Y-81901085D01*
X76356943Y-81935263D01*
X76368196Y-81972358D01*
X76372600Y-82017074D01*
X76372600Y-83110126D01*
X76368196Y-83154842D01*
X76356943Y-83191937D01*
X76338675Y-83226115D01*
X76314081Y-83256081D01*
X76284115Y-83280675D01*
X76249937Y-83298943D01*
X76212842Y-83310196D01*
X76168126Y-83314600D01*
X75275074Y-83314600D01*
X75230358Y-83310196D01*
X75193263Y-83298943D01*
X75159085Y-83280675D01*
X75129119Y-83256081D01*
X75104525Y-83226115D01*
X75086257Y-83191937D01*
X75075004Y-83154842D01*
X75070600Y-83110126D01*
X75070600Y-82017074D01*
X75075004Y-81972358D01*
X75086257Y-81935263D01*
X75104525Y-81901085D01*
X75129119Y-81871119D01*
X75159085Y-81846525D01*
X75193263Y-81828257D01*
X75230358Y-81817004D01*
X75275074Y-81812600D01*
X76168126Y-81812600D01*
X76212842Y-81817004D01*
G37*
G36*
X70197128Y-82155164D02*
G01*
X70218209Y-82161560D01*
X70237645Y-82171948D01*
X70254676Y-82185924D01*
X70268652Y-82202955D01*
X70279040Y-82222391D01*
X70285436Y-82243472D01*
X70288200Y-82271540D01*
X70288200Y-82735260D01*
X70285436Y-82763328D01*
X70279040Y-82784409D01*
X70268652Y-82803845D01*
X70254676Y-82820876D01*
X70237645Y-82834852D01*
X70218209Y-82845240D01*
X70197128Y-82851636D01*
X70169060Y-82854400D01*
X68555340Y-82854400D01*
X68527272Y-82851636D01*
X68506191Y-82845240D01*
X68486755Y-82834852D01*
X68469724Y-82820876D01*
X68455748Y-82803845D01*
X68445360Y-82784409D01*
X68438964Y-82763328D01*
X68436200Y-82735260D01*
X68436200Y-82271540D01*
X68438964Y-82243472D01*
X68445360Y-82222391D01*
X68455748Y-82202955D01*
X68469724Y-82185924D01*
X68486755Y-82171948D01*
X68506191Y-82161560D01*
X68527272Y-82155164D01*
X68555340Y-82152400D01*
X70169060Y-82152400D01*
X70197128Y-82155164D01*
G37*
G36*
X65047128Y-82155164D02*
G01*
X65068209Y-82161560D01*
X65087645Y-82171948D01*
X65104676Y-82185924D01*
X65118652Y-82202955D01*
X65129040Y-82222391D01*
X65135436Y-82243472D01*
X65138200Y-82271540D01*
X65138200Y-82735260D01*
X65135436Y-82763328D01*
X65129040Y-82784409D01*
X65118652Y-82803845D01*
X65104676Y-82820876D01*
X65087645Y-82834852D01*
X65068209Y-82845240D01*
X65047128Y-82851636D01*
X65019060Y-82854400D01*
X63405340Y-82854400D01*
X63377272Y-82851636D01*
X63356191Y-82845240D01*
X63336755Y-82834852D01*
X63319724Y-82820876D01*
X63305748Y-82803845D01*
X63295360Y-82784409D01*
X63288964Y-82763328D01*
X63286200Y-82735260D01*
X63286200Y-82271540D01*
X63288964Y-82243472D01*
X63295360Y-82222391D01*
X63305748Y-82202955D01*
X63319724Y-82185924D01*
X63336755Y-82171948D01*
X63356191Y-82161560D01*
X63377272Y-82155164D01*
X63405340Y-82152400D01*
X65019060Y-82152400D01*
X65047128Y-82155164D01*
G37*
G36*
X127044842Y-81309004D02*
G01*
X127081937Y-81320257D01*
X127116115Y-81338525D01*
X127146081Y-81363119D01*
X127170675Y-81393085D01*
X127188943Y-81427263D01*
X127200196Y-81464358D01*
X127204600Y-81509074D01*
X127204600Y-82602126D01*
X127200196Y-82646842D01*
X127188943Y-82683937D01*
X127170675Y-82718115D01*
X127146081Y-82748081D01*
X127116115Y-82772675D01*
X127081937Y-82790943D01*
X127044842Y-82802196D01*
X127000126Y-82806600D01*
X126107074Y-82806600D01*
X126062358Y-82802196D01*
X126025263Y-82790943D01*
X125991085Y-82772675D01*
X125961119Y-82748081D01*
X125936525Y-82718115D01*
X125918257Y-82683937D01*
X125907004Y-82646842D01*
X125902600Y-82602126D01*
X125902600Y-81509074D01*
X125907004Y-81464358D01*
X125918257Y-81427263D01*
X125936525Y-81393085D01*
X125961119Y-81363119D01*
X125991085Y-81338525D01*
X126025263Y-81320257D01*
X126062358Y-81309004D01*
X126107074Y-81304600D01*
X127000126Y-81304600D01*
X127044842Y-81309004D01*
G37*
G36*
X103594042Y-81309004D02*
G01*
X103631137Y-81320257D01*
X103665315Y-81338525D01*
X103695281Y-81363119D01*
X103719875Y-81393085D01*
X103738143Y-81427263D01*
X103749396Y-81464358D01*
X103753800Y-81509074D01*
X103753800Y-82602126D01*
X103749396Y-82646842D01*
X103738143Y-82683937D01*
X103719875Y-82718115D01*
X103695281Y-82748081D01*
X103665315Y-82772675D01*
X103631137Y-82790943D01*
X103594042Y-82802196D01*
X103549326Y-82806600D01*
X102656274Y-82806600D01*
X102611558Y-82802196D01*
X102574463Y-82790943D01*
X102540285Y-82772675D01*
X102510319Y-82748081D01*
X102485725Y-82718115D01*
X102467457Y-82683937D01*
X102456204Y-82646842D01*
X102451800Y-82602126D01*
X102451800Y-81509074D01*
X102456204Y-81464358D01*
X102467457Y-81427263D01*
X102485725Y-81393085D01*
X102510319Y-81363119D01*
X102540285Y-81338525D01*
X102574463Y-81320257D01*
X102611558Y-81309004D01*
X102656274Y-81304600D01*
X103549326Y-81304600D01*
X103594042Y-81309004D01*
G37*
G36*
X129044842Y-81309004D02*
G01*
X129081937Y-81320257D01*
X129116115Y-81338525D01*
X129146081Y-81363119D01*
X129170675Y-81393085D01*
X129188943Y-81427263D01*
X129200196Y-81464358D01*
X129204600Y-81509074D01*
X129204600Y-82602126D01*
X129200196Y-82646842D01*
X129188943Y-82683937D01*
X129170675Y-82718115D01*
X129146081Y-82748081D01*
X129116115Y-82772675D01*
X129081937Y-82790943D01*
X129044842Y-82802196D01*
X129000126Y-82806600D01*
X128107074Y-82806600D01*
X128062358Y-82802196D01*
X128025263Y-82790943D01*
X127991085Y-82772675D01*
X127961119Y-82748081D01*
X127936525Y-82718115D01*
X127918257Y-82683937D01*
X127907004Y-82646842D01*
X127902600Y-82602126D01*
X127902600Y-81509074D01*
X127907004Y-81464358D01*
X127918257Y-81427263D01*
X127936525Y-81393085D01*
X127961119Y-81363119D01*
X127991085Y-81338525D01*
X128025263Y-81320257D01*
X128062358Y-81309004D01*
X128107074Y-81304600D01*
X129000126Y-81304600D01*
X129044842Y-81309004D01*
G37*
G36*
X101594042Y-81309004D02*
G01*
X101631137Y-81320257D01*
X101665315Y-81338525D01*
X101695281Y-81363119D01*
X101719875Y-81393085D01*
X101738143Y-81427263D01*
X101749396Y-81464358D01*
X101753800Y-81509074D01*
X101753800Y-82602126D01*
X101749396Y-82646842D01*
X101738143Y-82683937D01*
X101719875Y-82718115D01*
X101695281Y-82748081D01*
X101665315Y-82772675D01*
X101631137Y-82790943D01*
X101594042Y-82802196D01*
X101549326Y-82806600D01*
X100656274Y-82806600D01*
X100611558Y-82802196D01*
X100574463Y-82790943D01*
X100540285Y-82772675D01*
X100510319Y-82748081D01*
X100485725Y-82718115D01*
X100467457Y-82683937D01*
X100456204Y-82646842D01*
X100451800Y-82602126D01*
X100451800Y-81509074D01*
X100456204Y-81464358D01*
X100467457Y-81427263D01*
X100485725Y-81393085D01*
X100510319Y-81363119D01*
X100540285Y-81338525D01*
X100574463Y-81320257D01*
X100611558Y-81309004D01*
X100656274Y-81304600D01*
X101549326Y-81304600D01*
X101594042Y-81309004D01*
G37*
G36*
X117309928Y-81716764D02*
G01*
X117331009Y-81723160D01*
X117350445Y-81733548D01*
X117367476Y-81747524D01*
X117381452Y-81764555D01*
X117391840Y-81783991D01*
X117398236Y-81805072D01*
X117401000Y-81833140D01*
X117401000Y-82296860D01*
X117398236Y-82324928D01*
X117391840Y-82346009D01*
X117381452Y-82365445D01*
X117367476Y-82382476D01*
X117350445Y-82396452D01*
X117331009Y-82406840D01*
X117309928Y-82413236D01*
X117281860Y-82416000D01*
X115668140Y-82416000D01*
X115640072Y-82413236D01*
X115618991Y-82406840D01*
X115599555Y-82396452D01*
X115582524Y-82382476D01*
X115568548Y-82365445D01*
X115558160Y-82346009D01*
X115551764Y-82324928D01*
X115549000Y-82296860D01*
X115549000Y-81833140D01*
X115551764Y-81805072D01*
X115558160Y-81783991D01*
X115568548Y-81764555D01*
X115582524Y-81747524D01*
X115599555Y-81733548D01*
X115618991Y-81723160D01*
X115640072Y-81716764D01*
X115668140Y-81714000D01*
X117281860Y-81714000D01*
X117309928Y-81716764D01*
G37*
G36*
X112159928Y-81716764D02*
G01*
X112181009Y-81723160D01*
X112200445Y-81733548D01*
X112217476Y-81747524D01*
X112231452Y-81764555D01*
X112241840Y-81783991D01*
X112248236Y-81805072D01*
X112251000Y-81833140D01*
X112251000Y-82296860D01*
X112248236Y-82324928D01*
X112241840Y-82346009D01*
X112231452Y-82365445D01*
X112217476Y-82382476D01*
X112200445Y-82396452D01*
X112181009Y-82406840D01*
X112159928Y-82413236D01*
X112131860Y-82416000D01*
X110518140Y-82416000D01*
X110490072Y-82413236D01*
X110468991Y-82406840D01*
X110449555Y-82396452D01*
X110432524Y-82382476D01*
X110418548Y-82365445D01*
X110408160Y-82346009D01*
X110401764Y-82324928D01*
X110399000Y-82296860D01*
X110399000Y-81833140D01*
X110401764Y-81805072D01*
X110408160Y-81783991D01*
X110418548Y-81764555D01*
X110432524Y-81747524D01*
X110449555Y-81733548D01*
X110468991Y-81723160D01*
X110490072Y-81716764D01*
X110518140Y-81714000D01*
X112131860Y-81714000D01*
X112159928Y-81716764D01*
G37*
G36*
X217309928Y-81676764D02*
G01*
X217331009Y-81683160D01*
X217350445Y-81693548D01*
X217367476Y-81707524D01*
X217381452Y-81724555D01*
X217391840Y-81743991D01*
X217398236Y-81765072D01*
X217401000Y-81793140D01*
X217401000Y-82256860D01*
X217398236Y-82284928D01*
X217391840Y-82306009D01*
X217381452Y-82325445D01*
X217367476Y-82342476D01*
X217350445Y-82356452D01*
X217331009Y-82366840D01*
X217309928Y-82373236D01*
X217281860Y-82376000D01*
X215668140Y-82376000D01*
X215640072Y-82373236D01*
X215618991Y-82366840D01*
X215599555Y-82356452D01*
X215582524Y-82342476D01*
X215568548Y-82325445D01*
X215558160Y-82306009D01*
X215551764Y-82284928D01*
X215549000Y-82256860D01*
X215549000Y-81793140D01*
X215551764Y-81765072D01*
X215558160Y-81743991D01*
X215568548Y-81724555D01*
X215582524Y-81707524D01*
X215599555Y-81693548D01*
X215618991Y-81683160D01*
X215640072Y-81676764D01*
X215668140Y-81674000D01*
X217281860Y-81674000D01*
X217309928Y-81676764D01*
G37*
G36*
X212159928Y-81676764D02*
G01*
X212181009Y-81683160D01*
X212200445Y-81693548D01*
X212217476Y-81707524D01*
X212231452Y-81724555D01*
X212241840Y-81743991D01*
X212248236Y-81765072D01*
X212251000Y-81793140D01*
X212251000Y-82256860D01*
X212248236Y-82284928D01*
X212241840Y-82306009D01*
X212231452Y-82325445D01*
X212217476Y-82342476D01*
X212200445Y-82356452D01*
X212181009Y-82366840D01*
X212159928Y-82373236D01*
X212131860Y-82376000D01*
X210518140Y-82376000D01*
X210490072Y-82373236D01*
X210468991Y-82366840D01*
X210449555Y-82356452D01*
X210432524Y-82342476D01*
X210418548Y-82325445D01*
X210408160Y-82306009D01*
X210401764Y-82284928D01*
X210399000Y-82256860D01*
X210399000Y-81793140D01*
X210401764Y-81765072D01*
X210408160Y-81743991D01*
X210418548Y-81724555D01*
X210432524Y-81707524D01*
X210449555Y-81693548D01*
X210468991Y-81683160D01*
X210490072Y-81676764D01*
X210518140Y-81674000D01*
X212131860Y-81674000D01*
X212159928Y-81676764D01*
G37*
G36*
X176459928Y-81376764D02*
G01*
X176481009Y-81383160D01*
X176500445Y-81393548D01*
X176517476Y-81407524D01*
X176531452Y-81424555D01*
X176541840Y-81443991D01*
X176548236Y-81465072D01*
X176551000Y-81493140D01*
X176551000Y-81956860D01*
X176548236Y-81984928D01*
X176541840Y-82006009D01*
X176531452Y-82025445D01*
X176517476Y-82042476D01*
X176500445Y-82056452D01*
X176481009Y-82066840D01*
X176459928Y-82073236D01*
X176431860Y-82076000D01*
X174818140Y-82076000D01*
X174790072Y-82073236D01*
X174768991Y-82066840D01*
X174749555Y-82056452D01*
X174732524Y-82042476D01*
X174718548Y-82025445D01*
X174708160Y-82006009D01*
X174701764Y-81984928D01*
X174699000Y-81956860D01*
X174699000Y-81493140D01*
X174701764Y-81465072D01*
X174708160Y-81443991D01*
X174718548Y-81424555D01*
X174732524Y-81407524D01*
X174749555Y-81393548D01*
X174768991Y-81383160D01*
X174790072Y-81376764D01*
X174818140Y-81374000D01*
X176431860Y-81374000D01*
X176459928Y-81376764D01*
G37*
G36*
X181609928Y-81376764D02*
G01*
X181631009Y-81383160D01*
X181650445Y-81393548D01*
X181667476Y-81407524D01*
X181681452Y-81424555D01*
X181691840Y-81443991D01*
X181698236Y-81465072D01*
X181701000Y-81493140D01*
X181701000Y-81956860D01*
X181698236Y-81984928D01*
X181691840Y-82006009D01*
X181681452Y-82025445D01*
X181667476Y-82042476D01*
X181650445Y-82056452D01*
X181631009Y-82066840D01*
X181609928Y-82073236D01*
X181581860Y-82076000D01*
X179968140Y-82076000D01*
X179940072Y-82073236D01*
X179918991Y-82066840D01*
X179899555Y-82056452D01*
X179882524Y-82042476D01*
X179868548Y-82025445D01*
X179858160Y-82006009D01*
X179851764Y-81984928D01*
X179849000Y-81956860D01*
X179849000Y-81493140D01*
X179851764Y-81465072D01*
X179858160Y-81443991D01*
X179868548Y-81424555D01*
X179882524Y-81407524D01*
X179899555Y-81393548D01*
X179918991Y-81383160D01*
X179940072Y-81376764D01*
X179968140Y-81374000D01*
X181581860Y-81374000D01*
X181609928Y-81376764D01*
G37*
G36*
X80565642Y-80496204D02*
G01*
X80602737Y-80507457D01*
X80636915Y-80525725D01*
X80666881Y-80550319D01*
X80691475Y-80580285D01*
X80709743Y-80614463D01*
X80720996Y-80651558D01*
X80725400Y-80696274D01*
X80725400Y-81789326D01*
X80720996Y-81834042D01*
X80709743Y-81871137D01*
X80691475Y-81905315D01*
X80666881Y-81935281D01*
X80636915Y-81959875D01*
X80602737Y-81978143D01*
X80565642Y-81989396D01*
X80520926Y-81993800D01*
X79627874Y-81993800D01*
X79583158Y-81989396D01*
X79546063Y-81978143D01*
X79511885Y-81959875D01*
X79481919Y-81935281D01*
X79457325Y-81905315D01*
X79439057Y-81871137D01*
X79427804Y-81834042D01*
X79423400Y-81789326D01*
X79423400Y-80696274D01*
X79427804Y-80651558D01*
X79439057Y-80614463D01*
X79457325Y-80580285D01*
X79481919Y-80550319D01*
X79511885Y-80525725D01*
X79546063Y-80507457D01*
X79583158Y-80496204D01*
X79627874Y-80491800D01*
X80520926Y-80491800D01*
X80565642Y-80496204D01*
G37*
G36*
X57804442Y-80496204D02*
G01*
X57841537Y-80507457D01*
X57875715Y-80525725D01*
X57905681Y-80550319D01*
X57930275Y-80580285D01*
X57948543Y-80614463D01*
X57959796Y-80651558D01*
X57964200Y-80696274D01*
X57964200Y-81789326D01*
X57959796Y-81834042D01*
X57948543Y-81871137D01*
X57930275Y-81905315D01*
X57905681Y-81935281D01*
X57875715Y-81959875D01*
X57841537Y-81978143D01*
X57804442Y-81989396D01*
X57759726Y-81993800D01*
X56866674Y-81993800D01*
X56821958Y-81989396D01*
X56784863Y-81978143D01*
X56750685Y-81959875D01*
X56720719Y-81935281D01*
X56696125Y-81905315D01*
X56677857Y-81871137D01*
X56666604Y-81834042D01*
X56662200Y-81789326D01*
X56662200Y-80696274D01*
X56666604Y-80651558D01*
X56677857Y-80614463D01*
X56696125Y-80580285D01*
X56720719Y-80550319D01*
X56750685Y-80525725D01*
X56784863Y-80507457D01*
X56821958Y-80496204D01*
X56866674Y-80491800D01*
X57759726Y-80491800D01*
X57804442Y-80496204D01*
G37*
G36*
X59804442Y-80496204D02*
G01*
X59841537Y-80507457D01*
X59875715Y-80525725D01*
X59905681Y-80550319D01*
X59930275Y-80580285D01*
X59948543Y-80614463D01*
X59959796Y-80651558D01*
X59964200Y-80696274D01*
X59964200Y-81789326D01*
X59959796Y-81834042D01*
X59948543Y-81871137D01*
X59930275Y-81905315D01*
X59905681Y-81935281D01*
X59875715Y-81959875D01*
X59841537Y-81978143D01*
X59804442Y-81989396D01*
X59759726Y-81993800D01*
X58866674Y-81993800D01*
X58821958Y-81989396D01*
X58784863Y-81978143D01*
X58750685Y-81959875D01*
X58720719Y-81935281D01*
X58696125Y-81905315D01*
X58677857Y-81871137D01*
X58666604Y-81834042D01*
X58662200Y-81789326D01*
X58662200Y-80696274D01*
X58666604Y-80651558D01*
X58677857Y-80614463D01*
X58696125Y-80580285D01*
X58720719Y-80550319D01*
X58750685Y-80525725D01*
X58784863Y-80507457D01*
X58821958Y-80496204D01*
X58866674Y-80491800D01*
X59759726Y-80491800D01*
X59804442Y-80496204D01*
G37*
G36*
X78565642Y-80496204D02*
G01*
X78602737Y-80507457D01*
X78636915Y-80525725D01*
X78666881Y-80550319D01*
X78691475Y-80580285D01*
X78709743Y-80614463D01*
X78720996Y-80651558D01*
X78725400Y-80696274D01*
X78725400Y-81789326D01*
X78720996Y-81834042D01*
X78709743Y-81871137D01*
X78691475Y-81905315D01*
X78666881Y-81935281D01*
X78636915Y-81959875D01*
X78602737Y-81978143D01*
X78565642Y-81989396D01*
X78520926Y-81993800D01*
X77627874Y-81993800D01*
X77583158Y-81989396D01*
X77546063Y-81978143D01*
X77511885Y-81959875D01*
X77481919Y-81935281D01*
X77457325Y-81905315D01*
X77439057Y-81871137D01*
X77427804Y-81834042D01*
X77423400Y-81789326D01*
X77423400Y-80696274D01*
X77427804Y-80651558D01*
X77439057Y-80614463D01*
X77457325Y-80580285D01*
X77481919Y-80550319D01*
X77511885Y-80525725D01*
X77546063Y-80507457D01*
X77583158Y-80496204D01*
X77627874Y-80491800D01*
X78520926Y-80491800D01*
X78565642Y-80496204D01*
G37*
G36*
X70197128Y-80885164D02*
G01*
X70218209Y-80891560D01*
X70237645Y-80901948D01*
X70254676Y-80915924D01*
X70268652Y-80932955D01*
X70279040Y-80952391D01*
X70285436Y-80973472D01*
X70288200Y-81001540D01*
X70288200Y-81465260D01*
X70285436Y-81493328D01*
X70279040Y-81514409D01*
X70268652Y-81533845D01*
X70254676Y-81550876D01*
X70237645Y-81564852D01*
X70218209Y-81575240D01*
X70197128Y-81581636D01*
X70169060Y-81584400D01*
X68555340Y-81584400D01*
X68527272Y-81581636D01*
X68506191Y-81575240D01*
X68486755Y-81564852D01*
X68469724Y-81550876D01*
X68455748Y-81533845D01*
X68445360Y-81514409D01*
X68438964Y-81493328D01*
X68436200Y-81465260D01*
X68436200Y-81001540D01*
X68438964Y-80973472D01*
X68445360Y-80952391D01*
X68455748Y-80932955D01*
X68469724Y-80915924D01*
X68486755Y-80901948D01*
X68506191Y-80891560D01*
X68527272Y-80885164D01*
X68555340Y-80882400D01*
X70169060Y-80882400D01*
X70197128Y-80885164D01*
G37*
G36*
X65047128Y-80885164D02*
G01*
X65068209Y-80891560D01*
X65087645Y-80901948D01*
X65104676Y-80915924D01*
X65118652Y-80932955D01*
X65129040Y-80952391D01*
X65135436Y-80973472D01*
X65138200Y-81001540D01*
X65138200Y-81465260D01*
X65135436Y-81493328D01*
X65129040Y-81514409D01*
X65118652Y-81533845D01*
X65104676Y-81550876D01*
X65087645Y-81564852D01*
X65068209Y-81575240D01*
X65047128Y-81581636D01*
X65019060Y-81584400D01*
X63405340Y-81584400D01*
X63377272Y-81581636D01*
X63356191Y-81575240D01*
X63336755Y-81564852D01*
X63319724Y-81550876D01*
X63305748Y-81533845D01*
X63295360Y-81514409D01*
X63288964Y-81493328D01*
X63286200Y-81465260D01*
X63286200Y-81001540D01*
X63288964Y-80973472D01*
X63295360Y-80952391D01*
X63305748Y-80932955D01*
X63319724Y-80915924D01*
X63336755Y-80901948D01*
X63356191Y-80891560D01*
X63377272Y-80885164D01*
X63405340Y-80882400D01*
X65019060Y-80882400D01*
X65047128Y-80885164D01*
G37*
G36*
X106064442Y-80039004D02*
G01*
X106101537Y-80050257D01*
X106135715Y-80068525D01*
X106165681Y-80093119D01*
X106190275Y-80123085D01*
X106208543Y-80157263D01*
X106219796Y-80194358D01*
X106224200Y-80239074D01*
X106224200Y-81332126D01*
X106219796Y-81376842D01*
X106208543Y-81413937D01*
X106190275Y-81448115D01*
X106165681Y-81478081D01*
X106135715Y-81502675D01*
X106101537Y-81520943D01*
X106064442Y-81532196D01*
X106019726Y-81536600D01*
X105126674Y-81536600D01*
X105081958Y-81532196D01*
X105044863Y-81520943D01*
X105010685Y-81502675D01*
X104980719Y-81478081D01*
X104956125Y-81448115D01*
X104937857Y-81413937D01*
X104926604Y-81376842D01*
X104922200Y-81332126D01*
X104922200Y-80239074D01*
X104926604Y-80194358D01*
X104937857Y-80157263D01*
X104956125Y-80123085D01*
X104980719Y-80093119D01*
X105010685Y-80068525D01*
X105044863Y-80050257D01*
X105081958Y-80039004D01*
X105126674Y-80034600D01*
X106019726Y-80034600D01*
X106064442Y-80039004D01*
G37*
G36*
X108064442Y-80039004D02*
G01*
X108101537Y-80050257D01*
X108135715Y-80068525D01*
X108165681Y-80093119D01*
X108190275Y-80123085D01*
X108208543Y-80157263D01*
X108219796Y-80194358D01*
X108224200Y-80239074D01*
X108224200Y-81332126D01*
X108219796Y-81376842D01*
X108208543Y-81413937D01*
X108190275Y-81448115D01*
X108165681Y-81478081D01*
X108135715Y-81502675D01*
X108101537Y-81520943D01*
X108064442Y-81532196D01*
X108019726Y-81536600D01*
X107126674Y-81536600D01*
X107081958Y-81532196D01*
X107044863Y-81520943D01*
X107010685Y-81502675D01*
X106980719Y-81478081D01*
X106956125Y-81448115D01*
X106937857Y-81413937D01*
X106926604Y-81376842D01*
X106922200Y-81332126D01*
X106922200Y-80239074D01*
X106926604Y-80194358D01*
X106937857Y-80157263D01*
X106956125Y-80123085D01*
X106980719Y-80093119D01*
X107010685Y-80068525D01*
X107044863Y-80050257D01*
X107081958Y-80039004D01*
X107126674Y-80034600D01*
X108019726Y-80034600D01*
X108064442Y-80039004D01*
G37*
G36*
X123082442Y-80039004D02*
G01*
X123119537Y-80050257D01*
X123153715Y-80068525D01*
X123183681Y-80093119D01*
X123208275Y-80123085D01*
X123226543Y-80157263D01*
X123237796Y-80194358D01*
X123242200Y-80239074D01*
X123242200Y-81332126D01*
X123237796Y-81376842D01*
X123226543Y-81413937D01*
X123208275Y-81448115D01*
X123183681Y-81478081D01*
X123153715Y-81502675D01*
X123119537Y-81520943D01*
X123082442Y-81532196D01*
X123037726Y-81536600D01*
X122144674Y-81536600D01*
X122099958Y-81532196D01*
X122062863Y-81520943D01*
X122028685Y-81502675D01*
X121998719Y-81478081D01*
X121974125Y-81448115D01*
X121955857Y-81413937D01*
X121944604Y-81376842D01*
X121940200Y-81332126D01*
X121940200Y-80239074D01*
X121944604Y-80194358D01*
X121955857Y-80157263D01*
X121974125Y-80123085D01*
X121998719Y-80093119D01*
X122028685Y-80068525D01*
X122062863Y-80050257D01*
X122099958Y-80039004D01*
X122144674Y-80034600D01*
X123037726Y-80034600D01*
X123082442Y-80039004D01*
G37*
G36*
X125082442Y-80039004D02*
G01*
X125119537Y-80050257D01*
X125153715Y-80068525D01*
X125183681Y-80093119D01*
X125208275Y-80123085D01*
X125226543Y-80157263D01*
X125237796Y-80194358D01*
X125242200Y-80239074D01*
X125242200Y-81332126D01*
X125237796Y-81376842D01*
X125226543Y-81413937D01*
X125208275Y-81448115D01*
X125183681Y-81478081D01*
X125153715Y-81502675D01*
X125119537Y-81520943D01*
X125082442Y-81532196D01*
X125037726Y-81536600D01*
X124144674Y-81536600D01*
X124099958Y-81532196D01*
X124062863Y-81520943D01*
X124028685Y-81502675D01*
X123998719Y-81478081D01*
X123974125Y-81448115D01*
X123955857Y-81413937D01*
X123944604Y-81376842D01*
X123940200Y-81332126D01*
X123940200Y-80239074D01*
X123944604Y-80194358D01*
X123955857Y-80157263D01*
X123974125Y-80123085D01*
X123998719Y-80093119D01*
X124028685Y-80068525D01*
X124062863Y-80050257D01*
X124099958Y-80039004D01*
X124144674Y-80034600D01*
X125037726Y-80034600D01*
X125082442Y-80039004D01*
G37*
G36*
X112159928Y-80446764D02*
G01*
X112181009Y-80453160D01*
X112200445Y-80463548D01*
X112217476Y-80477524D01*
X112231452Y-80494555D01*
X112241840Y-80513991D01*
X112248236Y-80535072D01*
X112251000Y-80563140D01*
X112251000Y-81026860D01*
X112248236Y-81054928D01*
X112241840Y-81076009D01*
X112231452Y-81095445D01*
X112217476Y-81112476D01*
X112200445Y-81126452D01*
X112181009Y-81136840D01*
X112159928Y-81143236D01*
X112131860Y-81146000D01*
X110518140Y-81146000D01*
X110490072Y-81143236D01*
X110468991Y-81136840D01*
X110449555Y-81126452D01*
X110432524Y-81112476D01*
X110418548Y-81095445D01*
X110408160Y-81076009D01*
X110401764Y-81054928D01*
X110399000Y-81026860D01*
X110399000Y-80563140D01*
X110401764Y-80535072D01*
X110408160Y-80513991D01*
X110418548Y-80494555D01*
X110432524Y-80477524D01*
X110449555Y-80463548D01*
X110468991Y-80453160D01*
X110490072Y-80446764D01*
X110518140Y-80444000D01*
X112131860Y-80444000D01*
X112159928Y-80446764D01*
G37*
G36*
X117309928Y-80446764D02*
G01*
X117331009Y-80453160D01*
X117350445Y-80463548D01*
X117367476Y-80477524D01*
X117381452Y-80494555D01*
X117391840Y-80513991D01*
X117398236Y-80535072D01*
X117401000Y-80563140D01*
X117401000Y-81026860D01*
X117398236Y-81054928D01*
X117391840Y-81076009D01*
X117381452Y-81095445D01*
X117367476Y-81112476D01*
X117350445Y-81126452D01*
X117331009Y-81136840D01*
X117309928Y-81143236D01*
X117281860Y-81146000D01*
X115668140Y-81146000D01*
X115640072Y-81143236D01*
X115618991Y-81136840D01*
X115599555Y-81126452D01*
X115582524Y-81112476D01*
X115568548Y-81095445D01*
X115558160Y-81076009D01*
X115551764Y-81054928D01*
X115549000Y-81026860D01*
X115549000Y-80563140D01*
X115551764Y-80535072D01*
X115558160Y-80513991D01*
X115568548Y-80494555D01*
X115582524Y-80477524D01*
X115599555Y-80463548D01*
X115618991Y-80453160D01*
X115640072Y-80446764D01*
X115668140Y-80444000D01*
X117281860Y-80444000D01*
X117309928Y-80446764D01*
G37*
G36*
X217309928Y-80406764D02*
G01*
X217331009Y-80413160D01*
X217350445Y-80423548D01*
X217367476Y-80437524D01*
X217381452Y-80454555D01*
X217391840Y-80473991D01*
X217398236Y-80495072D01*
X217401000Y-80523140D01*
X217401000Y-80986860D01*
X217398236Y-81014928D01*
X217391840Y-81036009D01*
X217381452Y-81055445D01*
X217367476Y-81072476D01*
X217350445Y-81086452D01*
X217331009Y-81096840D01*
X217309928Y-81103236D01*
X217281860Y-81106000D01*
X215668140Y-81106000D01*
X215640072Y-81103236D01*
X215618991Y-81096840D01*
X215599555Y-81086452D01*
X215582524Y-81072476D01*
X215568548Y-81055445D01*
X215558160Y-81036009D01*
X215551764Y-81014928D01*
X215549000Y-80986860D01*
X215549000Y-80523140D01*
X215551764Y-80495072D01*
X215558160Y-80473991D01*
X215568548Y-80454555D01*
X215582524Y-80437524D01*
X215599555Y-80423548D01*
X215618991Y-80413160D01*
X215640072Y-80406764D01*
X215668140Y-80404000D01*
X217281860Y-80404000D01*
X217309928Y-80406764D01*
G37*
G36*
X212159928Y-80406764D02*
G01*
X212181009Y-80413160D01*
X212200445Y-80423548D01*
X212217476Y-80437524D01*
X212231452Y-80454555D01*
X212241840Y-80473991D01*
X212248236Y-80495072D01*
X212251000Y-80523140D01*
X212251000Y-80986860D01*
X212248236Y-81014928D01*
X212241840Y-81036009D01*
X212231452Y-81055445D01*
X212217476Y-81072476D01*
X212200445Y-81086452D01*
X212181009Y-81096840D01*
X212159928Y-81103236D01*
X212131860Y-81106000D01*
X210518140Y-81106000D01*
X210490072Y-81103236D01*
X210468991Y-81096840D01*
X210449555Y-81086452D01*
X210432524Y-81072476D01*
X210418548Y-81055445D01*
X210408160Y-81036009D01*
X210401764Y-81014928D01*
X210399000Y-80986860D01*
X210399000Y-80523140D01*
X210401764Y-80495072D01*
X210408160Y-80473991D01*
X210418548Y-80454555D01*
X210432524Y-80437524D01*
X210449555Y-80423548D01*
X210468991Y-80413160D01*
X210490072Y-80406764D01*
X210518140Y-80404000D01*
X212131860Y-80404000D01*
X212159928Y-80406764D01*
G37*
G36*
X181609928Y-80106764D02*
G01*
X181631009Y-80113160D01*
X181650445Y-80123548D01*
X181667476Y-80137524D01*
X181681452Y-80154555D01*
X181691840Y-80173991D01*
X181698236Y-80195072D01*
X181701000Y-80223140D01*
X181701000Y-80686860D01*
X181698236Y-80714928D01*
X181691840Y-80736009D01*
X181681452Y-80755445D01*
X181667476Y-80772476D01*
X181650445Y-80786452D01*
X181631009Y-80796840D01*
X181609928Y-80803236D01*
X181581860Y-80806000D01*
X179968140Y-80806000D01*
X179940072Y-80803236D01*
X179918991Y-80796840D01*
X179899555Y-80786452D01*
X179882524Y-80772476D01*
X179868548Y-80755445D01*
X179858160Y-80736009D01*
X179851764Y-80714928D01*
X179849000Y-80686860D01*
X179849000Y-80223140D01*
X179851764Y-80195072D01*
X179858160Y-80173991D01*
X179868548Y-80154555D01*
X179882524Y-80137524D01*
X179899555Y-80123548D01*
X179918991Y-80113160D01*
X179940072Y-80106764D01*
X179968140Y-80104000D01*
X181581860Y-80104000D01*
X181609928Y-80106764D01*
G37*
G36*
X176459928Y-80106764D02*
G01*
X176481009Y-80113160D01*
X176500445Y-80123548D01*
X176517476Y-80137524D01*
X176531452Y-80154555D01*
X176541840Y-80173991D01*
X176548236Y-80195072D01*
X176551000Y-80223140D01*
X176551000Y-80686860D01*
X176548236Y-80714928D01*
X176541840Y-80736009D01*
X176531452Y-80755445D01*
X176517476Y-80772476D01*
X176500445Y-80786452D01*
X176481009Y-80796840D01*
X176459928Y-80803236D01*
X176431860Y-80806000D01*
X174818140Y-80806000D01*
X174790072Y-80803236D01*
X174768991Y-80796840D01*
X174749555Y-80786452D01*
X174732524Y-80772476D01*
X174718548Y-80755445D01*
X174708160Y-80736009D01*
X174701764Y-80714928D01*
X174699000Y-80686860D01*
X174699000Y-80223140D01*
X174701764Y-80195072D01*
X174708160Y-80173991D01*
X174718548Y-80154555D01*
X174732524Y-80137524D01*
X174749555Y-80123548D01*
X174768991Y-80113160D01*
X174790072Y-80106764D01*
X174818140Y-80104000D01*
X176431860Y-80104000D01*
X176459928Y-80106764D01*
G37*
G36*
X74196842Y-79226204D02*
G01*
X74233937Y-79237457D01*
X74268115Y-79255725D01*
X74298081Y-79280319D01*
X74322675Y-79310285D01*
X74340943Y-79344463D01*
X74352196Y-79381558D01*
X74356600Y-79426274D01*
X74356600Y-80519326D01*
X74352196Y-80564042D01*
X74340943Y-80601137D01*
X74322675Y-80635315D01*
X74298081Y-80665281D01*
X74268115Y-80689875D01*
X74233937Y-80708143D01*
X74196842Y-80719396D01*
X74152126Y-80723800D01*
X73259074Y-80723800D01*
X73214358Y-80719396D01*
X73177263Y-80708143D01*
X73143085Y-80689875D01*
X73113119Y-80665281D01*
X73088525Y-80635315D01*
X73070257Y-80601137D01*
X73059004Y-80564042D01*
X73054600Y-80519326D01*
X73054600Y-79426274D01*
X73059004Y-79381558D01*
X73070257Y-79344463D01*
X73088525Y-79310285D01*
X73113119Y-79280319D01*
X73143085Y-79255725D01*
X73177263Y-79237457D01*
X73214358Y-79226204D01*
X73259074Y-79221800D01*
X74152126Y-79221800D01*
X74196842Y-79226204D01*
G37*
G36*
X76196842Y-79226204D02*
G01*
X76233937Y-79237457D01*
X76268115Y-79255725D01*
X76298081Y-79280319D01*
X76322675Y-79310285D01*
X76340943Y-79344463D01*
X76352196Y-79381558D01*
X76356600Y-79426274D01*
X76356600Y-80519326D01*
X76352196Y-80564042D01*
X76340943Y-80601137D01*
X76322675Y-80635315D01*
X76298081Y-80665281D01*
X76268115Y-80689875D01*
X76233937Y-80708143D01*
X76196842Y-80719396D01*
X76152126Y-80723800D01*
X75259074Y-80723800D01*
X75214358Y-80719396D01*
X75177263Y-80708143D01*
X75143085Y-80689875D01*
X75113119Y-80665281D01*
X75088525Y-80635315D01*
X75070257Y-80601137D01*
X75059004Y-80564042D01*
X75054600Y-80519326D01*
X75054600Y-79426274D01*
X75059004Y-79381558D01*
X75070257Y-79344463D01*
X75088525Y-79310285D01*
X75113119Y-79280319D01*
X75143085Y-79255725D01*
X75177263Y-79237457D01*
X75214358Y-79226204D01*
X75259074Y-79221800D01*
X76152126Y-79221800D01*
X76196842Y-79226204D01*
G37*
G36*
X53435642Y-79175404D02*
G01*
X53472737Y-79186657D01*
X53506915Y-79204925D01*
X53536881Y-79229519D01*
X53561475Y-79259485D01*
X53579743Y-79293663D01*
X53590996Y-79330758D01*
X53595400Y-79375474D01*
X53595400Y-80468526D01*
X53590996Y-80513242D01*
X53579743Y-80550337D01*
X53561475Y-80584515D01*
X53536881Y-80614481D01*
X53506915Y-80639075D01*
X53472737Y-80657343D01*
X53435642Y-80668596D01*
X53390926Y-80673000D01*
X52497874Y-80673000D01*
X52453158Y-80668596D01*
X52416063Y-80657343D01*
X52381885Y-80639075D01*
X52351919Y-80614481D01*
X52327325Y-80584515D01*
X52309057Y-80550337D01*
X52297804Y-80513242D01*
X52293400Y-80468526D01*
X52293400Y-79375474D01*
X52297804Y-79330758D01*
X52309057Y-79293663D01*
X52327325Y-79259485D01*
X52351919Y-79229519D01*
X52381885Y-79204925D01*
X52416063Y-79186657D01*
X52453158Y-79175404D01*
X52497874Y-79171000D01*
X53390926Y-79171000D01*
X53435642Y-79175404D01*
G37*
G36*
X55435642Y-79175404D02*
G01*
X55472737Y-79186657D01*
X55506915Y-79204925D01*
X55536881Y-79229519D01*
X55561475Y-79259485D01*
X55579743Y-79293663D01*
X55590996Y-79330758D01*
X55595400Y-79375474D01*
X55595400Y-80468526D01*
X55590996Y-80513242D01*
X55579743Y-80550337D01*
X55561475Y-80584515D01*
X55536881Y-80614481D01*
X55506915Y-80639075D01*
X55472737Y-80657343D01*
X55435642Y-80668596D01*
X55390926Y-80673000D01*
X54497874Y-80673000D01*
X54453158Y-80668596D01*
X54416063Y-80657343D01*
X54381885Y-80639075D01*
X54351919Y-80614481D01*
X54327325Y-80584515D01*
X54309057Y-80550337D01*
X54297804Y-80513242D01*
X54293400Y-80468526D01*
X54293400Y-79375474D01*
X54297804Y-79330758D01*
X54309057Y-79293663D01*
X54327325Y-79259485D01*
X54351919Y-79229519D01*
X54381885Y-79204925D01*
X54416063Y-79186657D01*
X54453158Y-79175404D01*
X54497874Y-79171000D01*
X55390926Y-79171000D01*
X55435642Y-79175404D01*
G37*
G36*
X65047128Y-79615164D02*
G01*
X65068209Y-79621560D01*
X65087645Y-79631948D01*
X65104676Y-79645924D01*
X65118652Y-79662955D01*
X65129040Y-79682391D01*
X65135436Y-79703472D01*
X65138200Y-79731540D01*
X65138200Y-80195260D01*
X65135436Y-80223328D01*
X65129040Y-80244409D01*
X65118652Y-80263845D01*
X65104676Y-80280876D01*
X65087645Y-80294852D01*
X65068209Y-80305240D01*
X65047128Y-80311636D01*
X65019060Y-80314400D01*
X63405340Y-80314400D01*
X63377272Y-80311636D01*
X63356191Y-80305240D01*
X63336755Y-80294852D01*
X63319724Y-80280876D01*
X63305748Y-80263845D01*
X63295360Y-80244409D01*
X63288964Y-80223328D01*
X63286200Y-80195260D01*
X63286200Y-79731540D01*
X63288964Y-79703472D01*
X63295360Y-79682391D01*
X63305748Y-79662955D01*
X63319724Y-79645924D01*
X63336755Y-79631948D01*
X63356191Y-79621560D01*
X63377272Y-79615164D01*
X63405340Y-79612400D01*
X65019060Y-79612400D01*
X65047128Y-79615164D01*
G37*
G36*
X70197128Y-79615164D02*
G01*
X70218209Y-79621560D01*
X70237645Y-79631948D01*
X70254676Y-79645924D01*
X70268652Y-79662955D01*
X70279040Y-79682391D01*
X70285436Y-79703472D01*
X70288200Y-79731540D01*
X70288200Y-80195260D01*
X70285436Y-80223328D01*
X70279040Y-80244409D01*
X70268652Y-80263845D01*
X70254676Y-80280876D01*
X70237645Y-80294852D01*
X70218209Y-80305240D01*
X70197128Y-80311636D01*
X70169060Y-80314400D01*
X68555340Y-80314400D01*
X68527272Y-80311636D01*
X68506191Y-80305240D01*
X68486755Y-80294852D01*
X68469724Y-80280876D01*
X68455748Y-80263845D01*
X68445360Y-80244409D01*
X68438964Y-80223328D01*
X68436200Y-80195260D01*
X68436200Y-79731540D01*
X68438964Y-79703472D01*
X68445360Y-79682391D01*
X68455748Y-79662955D01*
X68469724Y-79645924D01*
X68486755Y-79631948D01*
X68506191Y-79621560D01*
X68527272Y-79615164D01*
X68555340Y-79612400D01*
X70169060Y-79612400D01*
X70197128Y-79615164D01*
G37*
G36*
X117309928Y-79176764D02*
G01*
X117331009Y-79183160D01*
X117350445Y-79193548D01*
X117367476Y-79207524D01*
X117381452Y-79224555D01*
X117391840Y-79243991D01*
X117398236Y-79265072D01*
X117401000Y-79293140D01*
X117401000Y-79756860D01*
X117398236Y-79784928D01*
X117391840Y-79806009D01*
X117381452Y-79825445D01*
X117367476Y-79842476D01*
X117350445Y-79856452D01*
X117331009Y-79866840D01*
X117309928Y-79873236D01*
X117281860Y-79876000D01*
X115668140Y-79876000D01*
X115640072Y-79873236D01*
X115618991Y-79866840D01*
X115599555Y-79856452D01*
X115582524Y-79842476D01*
X115568548Y-79825445D01*
X115558160Y-79806009D01*
X115551764Y-79784928D01*
X115549000Y-79756860D01*
X115549000Y-79293140D01*
X115551764Y-79265072D01*
X115558160Y-79243991D01*
X115568548Y-79224555D01*
X115582524Y-79207524D01*
X115599555Y-79193548D01*
X115618991Y-79183160D01*
X115640072Y-79176764D01*
X115668140Y-79174000D01*
X117281860Y-79174000D01*
X117309928Y-79176764D01*
G37*
G36*
X112159928Y-79176764D02*
G01*
X112181009Y-79183160D01*
X112200445Y-79193548D01*
X112217476Y-79207524D01*
X112231452Y-79224555D01*
X112241840Y-79243991D01*
X112248236Y-79265072D01*
X112251000Y-79293140D01*
X112251000Y-79756860D01*
X112248236Y-79784928D01*
X112241840Y-79806009D01*
X112231452Y-79825445D01*
X112217476Y-79842476D01*
X112200445Y-79856452D01*
X112181009Y-79866840D01*
X112159928Y-79873236D01*
X112131860Y-79876000D01*
X110518140Y-79876000D01*
X110490072Y-79873236D01*
X110468991Y-79866840D01*
X110449555Y-79856452D01*
X110432524Y-79842476D01*
X110418548Y-79825445D01*
X110408160Y-79806009D01*
X110401764Y-79784928D01*
X110399000Y-79756860D01*
X110399000Y-79293140D01*
X110401764Y-79265072D01*
X110408160Y-79243991D01*
X110418548Y-79224555D01*
X110432524Y-79207524D01*
X110449555Y-79193548D01*
X110468991Y-79183160D01*
X110490072Y-79176764D01*
X110518140Y-79174000D01*
X112131860Y-79174000D01*
X112159928Y-79176764D01*
G37*
G36*
X57804442Y-77956204D02*
G01*
X57841537Y-77967457D01*
X57875715Y-77985725D01*
X57905681Y-78010319D01*
X57930275Y-78040285D01*
X57948543Y-78074463D01*
X57959796Y-78111558D01*
X57964200Y-78156274D01*
X57964200Y-79249326D01*
X57959796Y-79294042D01*
X57948543Y-79331137D01*
X57930275Y-79365315D01*
X57905681Y-79395281D01*
X57875715Y-79419875D01*
X57841537Y-79438143D01*
X57804442Y-79449396D01*
X57759726Y-79453800D01*
X56866674Y-79453800D01*
X56821958Y-79449396D01*
X56784863Y-79438143D01*
X56750685Y-79419875D01*
X56720719Y-79395281D01*
X56696125Y-79365315D01*
X56677857Y-79331137D01*
X56666604Y-79294042D01*
X56662200Y-79249326D01*
X56662200Y-78156274D01*
X56666604Y-78111558D01*
X56677857Y-78074463D01*
X56696125Y-78040285D01*
X56720719Y-78010319D01*
X56750685Y-77985725D01*
X56784863Y-77967457D01*
X56821958Y-77956204D01*
X56866674Y-77951800D01*
X57759726Y-77951800D01*
X57804442Y-77956204D01*
G37*
G36*
X59804442Y-77956204D02*
G01*
X59841537Y-77967457D01*
X59875715Y-77985725D01*
X59905681Y-78010319D01*
X59930275Y-78040285D01*
X59948543Y-78074463D01*
X59959796Y-78111558D01*
X59964200Y-78156274D01*
X59964200Y-79249326D01*
X59959796Y-79294042D01*
X59948543Y-79331137D01*
X59930275Y-79365315D01*
X59905681Y-79395281D01*
X59875715Y-79419875D01*
X59841537Y-79438143D01*
X59804442Y-79449396D01*
X59759726Y-79453800D01*
X58866674Y-79453800D01*
X58821958Y-79449396D01*
X58784863Y-79438143D01*
X58750685Y-79419875D01*
X58720719Y-79395281D01*
X58696125Y-79365315D01*
X58677857Y-79331137D01*
X58666604Y-79294042D01*
X58662200Y-79249326D01*
X58662200Y-78156274D01*
X58666604Y-78111558D01*
X58677857Y-78074463D01*
X58696125Y-78040285D01*
X58720719Y-78010319D01*
X58750685Y-77985725D01*
X58784863Y-77967457D01*
X58821958Y-77956204D01*
X58866674Y-77951800D01*
X59759726Y-77951800D01*
X59804442Y-77956204D01*
G37*
G36*
X78530842Y-77956204D02*
G01*
X78567937Y-77967457D01*
X78602115Y-77985725D01*
X78632081Y-78010319D01*
X78656675Y-78040285D01*
X78674943Y-78074463D01*
X78686196Y-78111558D01*
X78690600Y-78156274D01*
X78690600Y-79249326D01*
X78686196Y-79294042D01*
X78674943Y-79331137D01*
X78656675Y-79365315D01*
X78632081Y-79395281D01*
X78602115Y-79419875D01*
X78567937Y-79438143D01*
X78530842Y-79449396D01*
X78486126Y-79453800D01*
X77593074Y-79453800D01*
X77548358Y-79449396D01*
X77511263Y-79438143D01*
X77477085Y-79419875D01*
X77447119Y-79395281D01*
X77422525Y-79365315D01*
X77404257Y-79331137D01*
X77393004Y-79294042D01*
X77388600Y-79249326D01*
X77388600Y-78156274D01*
X77393004Y-78111558D01*
X77404257Y-78074463D01*
X77422525Y-78040285D01*
X77447119Y-78010319D01*
X77477085Y-77985725D01*
X77511263Y-77967457D01*
X77548358Y-77956204D01*
X77593074Y-77951800D01*
X78486126Y-77951800D01*
X78530842Y-77956204D01*
G37*
G36*
X80530842Y-77956204D02*
G01*
X80567937Y-77967457D01*
X80602115Y-77985725D01*
X80632081Y-78010319D01*
X80656675Y-78040285D01*
X80674943Y-78074463D01*
X80686196Y-78111558D01*
X80690600Y-78156274D01*
X80690600Y-79249326D01*
X80686196Y-79294042D01*
X80674943Y-79331137D01*
X80656675Y-79365315D01*
X80632081Y-79395281D01*
X80602115Y-79419875D01*
X80567937Y-79438143D01*
X80530842Y-79449396D01*
X80486126Y-79453800D01*
X79593074Y-79453800D01*
X79548358Y-79449396D01*
X79511263Y-79438143D01*
X79477085Y-79419875D01*
X79447119Y-79395281D01*
X79422525Y-79365315D01*
X79404257Y-79331137D01*
X79393004Y-79294042D01*
X79388600Y-79249326D01*
X79388600Y-78156274D01*
X79393004Y-78111558D01*
X79404257Y-78074463D01*
X79422525Y-78040285D01*
X79447119Y-78010319D01*
X79477085Y-77985725D01*
X79511263Y-77967457D01*
X79548358Y-77956204D01*
X79593074Y-77951800D01*
X80486126Y-77951800D01*
X80530842Y-77956204D01*
G37*
G36*
X65047128Y-78345164D02*
G01*
X65068209Y-78351560D01*
X65087645Y-78361948D01*
X65104676Y-78375924D01*
X65118652Y-78392955D01*
X65129040Y-78412391D01*
X65135436Y-78433472D01*
X65138200Y-78461540D01*
X65138200Y-78925260D01*
X65135436Y-78953328D01*
X65129040Y-78974409D01*
X65118652Y-78993845D01*
X65104676Y-79010876D01*
X65087645Y-79024852D01*
X65068209Y-79035240D01*
X65047128Y-79041636D01*
X65019060Y-79044400D01*
X63405340Y-79044400D01*
X63377272Y-79041636D01*
X63356191Y-79035240D01*
X63336755Y-79024852D01*
X63319724Y-79010876D01*
X63305748Y-78993845D01*
X63295360Y-78974409D01*
X63288964Y-78953328D01*
X63286200Y-78925260D01*
X63286200Y-78461540D01*
X63288964Y-78433472D01*
X63295360Y-78412391D01*
X63305748Y-78392955D01*
X63319724Y-78375924D01*
X63336755Y-78361948D01*
X63356191Y-78351560D01*
X63377272Y-78345164D01*
X63405340Y-78342400D01*
X65019060Y-78342400D01*
X65047128Y-78345164D01*
G37*
G36*
X70197128Y-78345164D02*
G01*
X70218209Y-78351560D01*
X70237645Y-78361948D01*
X70254676Y-78375924D01*
X70268652Y-78392955D01*
X70279040Y-78412391D01*
X70285436Y-78433472D01*
X70288200Y-78461540D01*
X70288200Y-78925260D01*
X70285436Y-78953328D01*
X70279040Y-78974409D01*
X70268652Y-78993845D01*
X70254676Y-79010876D01*
X70237645Y-79024852D01*
X70218209Y-79035240D01*
X70197128Y-79041636D01*
X70169060Y-79044400D01*
X68555340Y-79044400D01*
X68527272Y-79041636D01*
X68506191Y-79035240D01*
X68486755Y-79024852D01*
X68469724Y-79010876D01*
X68455748Y-78993845D01*
X68445360Y-78974409D01*
X68438964Y-78953328D01*
X68436200Y-78925260D01*
X68436200Y-78461540D01*
X68438964Y-78433472D01*
X68445360Y-78412391D01*
X68455748Y-78392955D01*
X68469724Y-78375924D01*
X68486755Y-78361948D01*
X68506191Y-78351560D01*
X68527272Y-78345164D01*
X68555340Y-78342400D01*
X70169060Y-78342400D01*
X70197128Y-78345164D01*
G37*
G36*
X213353583Y-77423234D02*
G01*
X213390972Y-77434576D01*
X213425426Y-77452991D01*
X213455625Y-77477775D01*
X213480409Y-77507974D01*
X213498824Y-77542428D01*
X213510166Y-77579817D01*
X213514600Y-77624835D01*
X213514600Y-78764765D01*
X213510166Y-78809783D01*
X213498824Y-78847172D01*
X213480409Y-78881626D01*
X213455625Y-78911825D01*
X213425426Y-78936609D01*
X213390972Y-78955024D01*
X213353583Y-78966366D01*
X213308565Y-78970800D01*
X212443635Y-78970800D01*
X212398617Y-78966366D01*
X212361228Y-78955024D01*
X212326774Y-78936609D01*
X212296575Y-78911825D01*
X212271791Y-78881626D01*
X212253376Y-78847172D01*
X212242034Y-78809783D01*
X212237600Y-78764765D01*
X212237600Y-77624835D01*
X212242034Y-77579817D01*
X212253376Y-77542428D01*
X212271791Y-77507974D01*
X212296575Y-77477775D01*
X212326774Y-77452991D01*
X212361228Y-77434576D01*
X212398617Y-77423234D01*
X212443635Y-77418800D01*
X213308565Y-77418800D01*
X213353583Y-77423234D01*
G37*
G36*
X215428583Y-77423234D02*
G01*
X215465972Y-77434576D01*
X215500426Y-77452991D01*
X215530625Y-77477775D01*
X215555409Y-77507974D01*
X215573824Y-77542428D01*
X215585166Y-77579817D01*
X215589600Y-77624835D01*
X215589600Y-78764765D01*
X215585166Y-78809783D01*
X215573824Y-78847172D01*
X215555409Y-78881626D01*
X215530625Y-78911825D01*
X215500426Y-78936609D01*
X215465972Y-78955024D01*
X215428583Y-78966366D01*
X215383565Y-78970800D01*
X214518635Y-78970800D01*
X214473617Y-78966366D01*
X214436228Y-78955024D01*
X214401774Y-78936609D01*
X214371575Y-78911825D01*
X214346791Y-78881626D01*
X214328376Y-78847172D01*
X214317034Y-78809783D01*
X214312600Y-78764765D01*
X214312600Y-77624835D01*
X214317034Y-77579817D01*
X214328376Y-77542428D01*
X214346791Y-77507974D01*
X214371575Y-77477775D01*
X214401774Y-77452991D01*
X214436228Y-77434576D01*
X214473617Y-77423234D01*
X214518635Y-77418800D01*
X215383565Y-77418800D01*
X215428583Y-77423234D01*
G37*
G36*
X117309928Y-77906764D02*
G01*
X117331009Y-77913160D01*
X117350445Y-77923548D01*
X117367476Y-77937524D01*
X117381452Y-77954555D01*
X117391840Y-77973991D01*
X117398236Y-77995072D01*
X117401000Y-78023140D01*
X117401000Y-78486860D01*
X117398236Y-78514928D01*
X117391840Y-78536009D01*
X117381452Y-78555445D01*
X117367476Y-78572476D01*
X117350445Y-78586452D01*
X117331009Y-78596840D01*
X117309928Y-78603236D01*
X117281860Y-78606000D01*
X115668140Y-78606000D01*
X115640072Y-78603236D01*
X115618991Y-78596840D01*
X115599555Y-78586452D01*
X115582524Y-78572476D01*
X115568548Y-78555445D01*
X115558160Y-78536009D01*
X115551764Y-78514928D01*
X115549000Y-78486860D01*
X115549000Y-78023140D01*
X115551764Y-77995072D01*
X115558160Y-77973991D01*
X115568548Y-77954555D01*
X115582524Y-77937524D01*
X115599555Y-77923548D01*
X115618991Y-77913160D01*
X115640072Y-77906764D01*
X115668140Y-77904000D01*
X117281860Y-77904000D01*
X117309928Y-77906764D01*
G37*
G36*
X112159928Y-77906764D02*
G01*
X112181009Y-77913160D01*
X112200445Y-77923548D01*
X112217476Y-77937524D01*
X112231452Y-77954555D01*
X112241840Y-77973991D01*
X112248236Y-77995072D01*
X112251000Y-78023140D01*
X112251000Y-78486860D01*
X112248236Y-78514928D01*
X112241840Y-78536009D01*
X112231452Y-78555445D01*
X112217476Y-78572476D01*
X112200445Y-78586452D01*
X112181009Y-78596840D01*
X112159928Y-78603236D01*
X112131860Y-78606000D01*
X110518140Y-78606000D01*
X110490072Y-78603236D01*
X110468991Y-78596840D01*
X110449555Y-78586452D01*
X110432524Y-78572476D01*
X110418548Y-78555445D01*
X110408160Y-78536009D01*
X110401764Y-78514928D01*
X110399000Y-78486860D01*
X110399000Y-78023140D01*
X110401764Y-77995072D01*
X110408160Y-77973991D01*
X110418548Y-77954555D01*
X110432524Y-77937524D01*
X110449555Y-77923548D01*
X110468991Y-77913160D01*
X110490072Y-77906764D01*
X110518140Y-77904000D01*
X112131860Y-77904000D01*
X112159928Y-77906764D01*
G37*
G36*
X179309783Y-76458034D02*
G01*
X179347172Y-76469376D01*
X179381626Y-76487791D01*
X179411825Y-76512575D01*
X179436609Y-76542774D01*
X179455024Y-76577228D01*
X179466366Y-76614617D01*
X179470800Y-76659635D01*
X179470800Y-77799565D01*
X179466366Y-77844583D01*
X179455024Y-77881972D01*
X179436609Y-77916426D01*
X179411825Y-77946625D01*
X179381626Y-77971409D01*
X179347172Y-77989824D01*
X179309783Y-78001166D01*
X179264765Y-78005600D01*
X178399835Y-78005600D01*
X178354817Y-78001166D01*
X178317428Y-77989824D01*
X178282974Y-77971409D01*
X178252775Y-77946625D01*
X178227991Y-77916426D01*
X178209576Y-77881972D01*
X178198234Y-77844583D01*
X178193800Y-77799565D01*
X178193800Y-76659635D01*
X178198234Y-76614617D01*
X178209576Y-76577228D01*
X178227991Y-76542774D01*
X178252775Y-76512575D01*
X178282974Y-76487791D01*
X178317428Y-76469376D01*
X178354817Y-76458034D01*
X178399835Y-76453600D01*
X179264765Y-76453600D01*
X179309783Y-76458034D01*
G37*
G36*
X177234783Y-76458034D02*
G01*
X177272172Y-76469376D01*
X177306626Y-76487791D01*
X177336825Y-76512575D01*
X177361609Y-76542774D01*
X177380024Y-76577228D01*
X177391366Y-76614617D01*
X177395800Y-76659635D01*
X177395800Y-77799565D01*
X177391366Y-77844583D01*
X177380024Y-77881972D01*
X177361609Y-77916426D01*
X177336825Y-77946625D01*
X177306626Y-77971409D01*
X177272172Y-77989824D01*
X177234783Y-78001166D01*
X177189765Y-78005600D01*
X176324835Y-78005600D01*
X176279817Y-78001166D01*
X176242428Y-77989824D01*
X176207974Y-77971409D01*
X176177775Y-77946625D01*
X176152991Y-77916426D01*
X176134576Y-77881972D01*
X176123234Y-77844583D01*
X176118800Y-77799565D01*
X176118800Y-76659635D01*
X176123234Y-76614617D01*
X176134576Y-76577228D01*
X176152991Y-76542774D01*
X176177775Y-76512575D01*
X176207974Y-76487791D01*
X176242428Y-76469376D01*
X176279817Y-76458034D01*
X176324835Y-76453600D01*
X177189765Y-76453600D01*
X177234783Y-76458034D01*
G37*
G36*
X65047128Y-77075164D02*
G01*
X65068209Y-77081560D01*
X65087645Y-77091948D01*
X65104676Y-77105924D01*
X65118652Y-77122955D01*
X65129040Y-77142391D01*
X65135436Y-77163472D01*
X65138200Y-77191540D01*
X65138200Y-77655260D01*
X65135436Y-77683328D01*
X65129040Y-77704409D01*
X65118652Y-77723845D01*
X65104676Y-77740876D01*
X65087645Y-77754852D01*
X65068209Y-77765240D01*
X65047128Y-77771636D01*
X65019060Y-77774400D01*
X63405340Y-77774400D01*
X63377272Y-77771636D01*
X63356191Y-77765240D01*
X63336755Y-77754852D01*
X63319724Y-77740876D01*
X63305748Y-77723845D01*
X63295360Y-77704409D01*
X63288964Y-77683328D01*
X63286200Y-77655260D01*
X63286200Y-77191540D01*
X63288964Y-77163472D01*
X63295360Y-77142391D01*
X63305748Y-77122955D01*
X63319724Y-77105924D01*
X63336755Y-77091948D01*
X63356191Y-77081560D01*
X63377272Y-77075164D01*
X63405340Y-77072400D01*
X65019060Y-77072400D01*
X65047128Y-77075164D01*
G37*
G36*
X70197128Y-77075164D02*
G01*
X70218209Y-77081560D01*
X70237645Y-77091948D01*
X70254676Y-77105924D01*
X70268652Y-77122955D01*
X70279040Y-77142391D01*
X70285436Y-77163472D01*
X70288200Y-77191540D01*
X70288200Y-77655260D01*
X70285436Y-77683328D01*
X70279040Y-77704409D01*
X70268652Y-77723845D01*
X70254676Y-77740876D01*
X70237645Y-77754852D01*
X70218209Y-77765240D01*
X70197128Y-77771636D01*
X70169060Y-77774400D01*
X68555340Y-77774400D01*
X68527272Y-77771636D01*
X68506191Y-77765240D01*
X68486755Y-77754852D01*
X68469724Y-77740876D01*
X68455748Y-77723845D01*
X68445360Y-77704409D01*
X68438964Y-77683328D01*
X68436200Y-77655260D01*
X68436200Y-77191540D01*
X68438964Y-77163472D01*
X68445360Y-77142391D01*
X68455748Y-77122955D01*
X68469724Y-77105924D01*
X68486755Y-77091948D01*
X68506191Y-77081560D01*
X68527272Y-77075164D01*
X68555340Y-77072400D01*
X70169060Y-77072400D01*
X70197128Y-77075164D01*
G37*
G36*
X65047128Y-75805164D02*
G01*
X65068209Y-75811560D01*
X65087645Y-75821948D01*
X65104676Y-75835924D01*
X65118652Y-75852955D01*
X65129040Y-75872391D01*
X65135436Y-75893472D01*
X65138200Y-75921540D01*
X65138200Y-76385260D01*
X65135436Y-76413328D01*
X65129040Y-76434409D01*
X65118652Y-76453845D01*
X65104676Y-76470876D01*
X65087645Y-76484852D01*
X65068209Y-76495240D01*
X65047128Y-76501636D01*
X65019060Y-76504400D01*
X63405340Y-76504400D01*
X63377272Y-76501636D01*
X63356191Y-76495240D01*
X63336755Y-76484852D01*
X63319724Y-76470876D01*
X63305748Y-76453845D01*
X63295360Y-76434409D01*
X63288964Y-76413328D01*
X63286200Y-76385260D01*
X63286200Y-75921540D01*
X63288964Y-75893472D01*
X63295360Y-75872391D01*
X63305748Y-75852955D01*
X63319724Y-75835924D01*
X63336755Y-75821948D01*
X63356191Y-75811560D01*
X63377272Y-75805164D01*
X63405340Y-75802400D01*
X65019060Y-75802400D01*
X65047128Y-75805164D01*
G37*
G36*
X70197128Y-75805164D02*
G01*
X70218209Y-75811560D01*
X70237645Y-75821948D01*
X70254676Y-75835924D01*
X70268652Y-75852955D01*
X70279040Y-75872391D01*
X70285436Y-75893472D01*
X70288200Y-75921540D01*
X70288200Y-76385260D01*
X70285436Y-76413328D01*
X70279040Y-76434409D01*
X70268652Y-76453845D01*
X70254676Y-76470876D01*
X70237645Y-76484852D01*
X70218209Y-76495240D01*
X70197128Y-76501636D01*
X70169060Y-76504400D01*
X68555340Y-76504400D01*
X68527272Y-76501636D01*
X68506191Y-76495240D01*
X68486755Y-76484852D01*
X68469724Y-76470876D01*
X68455748Y-76453845D01*
X68445360Y-76434409D01*
X68438964Y-76413328D01*
X68436200Y-76385260D01*
X68436200Y-75921540D01*
X68438964Y-75893472D01*
X68445360Y-75872391D01*
X68455748Y-75852955D01*
X68469724Y-75835924D01*
X68486755Y-75821948D01*
X68506191Y-75811560D01*
X68527272Y-75805164D01*
X68555340Y-75802400D01*
X70169060Y-75802400D01*
X70197128Y-75805164D01*
G37*
G36*
X113459283Y-74730834D02*
G01*
X113496672Y-74742176D01*
X113531126Y-74760591D01*
X113561325Y-74785375D01*
X113586109Y-74815574D01*
X113604524Y-74850028D01*
X113615866Y-74887417D01*
X113620300Y-74932435D01*
X113620300Y-76072365D01*
X113615866Y-76117383D01*
X113604524Y-76154772D01*
X113586109Y-76189226D01*
X113561325Y-76219425D01*
X113531126Y-76244209D01*
X113496672Y-76262624D01*
X113459283Y-76273966D01*
X113414265Y-76278400D01*
X112549335Y-76278400D01*
X112504317Y-76273966D01*
X112466928Y-76262624D01*
X112432474Y-76244209D01*
X112402275Y-76219425D01*
X112377491Y-76189226D01*
X112359076Y-76154772D01*
X112347734Y-76117383D01*
X112343300Y-76072365D01*
X112343300Y-74932435D01*
X112347734Y-74887417D01*
X112359076Y-74850028D01*
X112377491Y-74815574D01*
X112402275Y-74785375D01*
X112432474Y-74760591D01*
X112466928Y-74742176D01*
X112504317Y-74730834D01*
X112549335Y-74726400D01*
X113414265Y-74726400D01*
X113459283Y-74730834D01*
G37*
G36*
X115534283Y-74730834D02*
G01*
X115571672Y-74742176D01*
X115606126Y-74760591D01*
X115636325Y-74785375D01*
X115661109Y-74815574D01*
X115679524Y-74850028D01*
X115690866Y-74887417D01*
X115695300Y-74932435D01*
X115695300Y-76072365D01*
X115690866Y-76117383D01*
X115679524Y-76154772D01*
X115661109Y-76189226D01*
X115636325Y-76219425D01*
X115606126Y-76244209D01*
X115571672Y-76262624D01*
X115534283Y-76273966D01*
X115489265Y-76278400D01*
X114624335Y-76278400D01*
X114579317Y-76273966D01*
X114541928Y-76262624D01*
X114507474Y-76244209D01*
X114477275Y-76219425D01*
X114452491Y-76189226D01*
X114434076Y-76154772D01*
X114422734Y-76117383D01*
X114418300Y-76072365D01*
X114418300Y-74932435D01*
X114422734Y-74887417D01*
X114434076Y-74850028D01*
X114452491Y-74815574D01*
X114477275Y-74785375D01*
X114507474Y-74760591D01*
X114541928Y-74742176D01*
X114579317Y-74730834D01*
X114624335Y-74726400D01*
X115489265Y-74726400D01*
X115534283Y-74730834D01*
G37*
G36*
X68210183Y-72749634D02*
G01*
X68247572Y-72760976D01*
X68282026Y-72779391D01*
X68312225Y-72804175D01*
X68337009Y-72834374D01*
X68355424Y-72868828D01*
X68366766Y-72906217D01*
X68371200Y-72951235D01*
X68371200Y-74091165D01*
X68366766Y-74136183D01*
X68355424Y-74173572D01*
X68337009Y-74208026D01*
X68312225Y-74238225D01*
X68282026Y-74263009D01*
X68247572Y-74281424D01*
X68210183Y-74292766D01*
X68165165Y-74297200D01*
X67300235Y-74297200D01*
X67255217Y-74292766D01*
X67217828Y-74281424D01*
X67183374Y-74263009D01*
X67153175Y-74238225D01*
X67128391Y-74208026D01*
X67109976Y-74173572D01*
X67098634Y-74136183D01*
X67094200Y-74091165D01*
X67094200Y-72951235D01*
X67098634Y-72906217D01*
X67109976Y-72868828D01*
X67128391Y-72834374D01*
X67153175Y-72804175D01*
X67183374Y-72779391D01*
X67217828Y-72760976D01*
X67255217Y-72749634D01*
X67300235Y-72745200D01*
X68165165Y-72745200D01*
X68210183Y-72749634D01*
G37*
G36*
X66135183Y-72749634D02*
G01*
X66172572Y-72760976D01*
X66207026Y-72779391D01*
X66237225Y-72804175D01*
X66262009Y-72834374D01*
X66280424Y-72868828D01*
X66291766Y-72906217D01*
X66296200Y-72951235D01*
X66296200Y-74091165D01*
X66291766Y-74136183D01*
X66280424Y-74173572D01*
X66262009Y-74208026D01*
X66237225Y-74238225D01*
X66207026Y-74263009D01*
X66172572Y-74281424D01*
X66135183Y-74292766D01*
X66090165Y-74297200D01*
X65225235Y-74297200D01*
X65180217Y-74292766D01*
X65142828Y-74281424D01*
X65108374Y-74263009D01*
X65078175Y-74238225D01*
X65053391Y-74208026D01*
X65034976Y-74173572D01*
X65023634Y-74136183D01*
X65019200Y-74091165D01*
X65019200Y-72951235D01*
X65023634Y-72906217D01*
X65034976Y-72868828D01*
X65053391Y-72834374D01*
X65078175Y-72804175D01*
X65108374Y-72779391D01*
X65142828Y-72760976D01*
X65180217Y-72749634D01*
X65225235Y-72745200D01*
X66090165Y-72745200D01*
X66135183Y-72749634D01*
G37*
G36*
X225488200Y-54181000D02*
G01*
X224386200Y-54181000D01*
X224386200Y-51569000D01*
X225488200Y-51569000D01*
X225488200Y-54181000D01*
G37*
G36*
X220408200Y-54181000D02*
G01*
X219306200Y-54181000D01*
X219306200Y-51569000D01*
X220408200Y-51569000D01*
X220408200Y-54181000D01*
G37*
G36*
X215328200Y-54181000D02*
G01*
X214226200Y-54181000D01*
X214226200Y-51569000D01*
X215328200Y-51569000D01*
X215328200Y-54181000D01*
G37*
G36*
X222948200Y-50871000D02*
G01*
X221846200Y-50871000D01*
X221846200Y-48259000D01*
X222948200Y-48259000D01*
X222948200Y-50871000D01*
G37*
G36*
X217868200Y-50871000D02*
G01*
X216766200Y-50871000D01*
X216766200Y-48259000D01*
X217868200Y-48259000D01*
X217868200Y-50871000D01*
G37*
M02*
