G04 #@! TF.GenerationSoftware,KiCad,Pcbnew,5.1.5+dfsg1-2build2*
G04 #@! TF.CreationDate,2024-05-04T05:39:38+01:00*
G04 #@! TF.ProjectId,touch_kb1,746f7563-685f-46b6-9231-2e6b69636164,rev?*
G04 #@! TF.SameCoordinates,Original*
G04 #@! TF.FileFunction,Legend,Bot*
G04 #@! TF.FilePolarity,Positive*
%FSLAX46Y46*%
G04 Gerber Fmt 4.6, Leading zero omitted, Abs format (unit mm)*
G04 Created by KiCad (PCBNEW 5.1.5+dfsg1-2build2) date 2024-05-04 05:39:38*
%MOMM*%
%LPD*%
G04 APERTURE LIST*
%ADD10C,0.150000*%
%ADD11C,0.120000*%
G04 APERTURE END LIST*
D10*
X224600000Y-56738095D02*
X224552380Y-56642857D01*
X224552380Y-56500000D01*
X224600000Y-56357142D01*
X224695238Y-56261904D01*
X224790476Y-56214285D01*
X224980952Y-56166666D01*
X225123809Y-56166666D01*
X225314285Y-56214285D01*
X225409523Y-56261904D01*
X225504761Y-56357142D01*
X225552380Y-56500000D01*
X225552380Y-56595238D01*
X225504761Y-56738095D01*
X225457142Y-56785714D01*
X225123809Y-56785714D01*
X225123809Y-56595238D01*
X225552380Y-57214285D02*
X224552380Y-57214285D01*
X225552380Y-57785714D01*
X224552380Y-57785714D01*
X225552380Y-58261904D02*
X224552380Y-58261904D01*
X224552380Y-58500000D01*
X224600000Y-58642857D01*
X224695238Y-58738095D01*
X224790476Y-58785714D01*
X224980952Y-58833333D01*
X225123809Y-58833333D01*
X225314285Y-58785714D01*
X225409523Y-58738095D01*
X225504761Y-58642857D01*
X225552380Y-58500000D01*
X225552380Y-58261904D01*
X220252380Y-56457142D02*
X220252380Y-55980952D01*
X219252380Y-55980952D01*
X219252380Y-56980952D02*
X219252380Y-57171428D01*
X219300000Y-57266666D01*
X219395238Y-57361904D01*
X219585714Y-57409523D01*
X219919047Y-57409523D01*
X220109523Y-57361904D01*
X220204761Y-57266666D01*
X220252380Y-57171428D01*
X220252380Y-56980952D01*
X220204761Y-56885714D01*
X220109523Y-56790476D01*
X219919047Y-56742857D01*
X219585714Y-56742857D01*
X219395238Y-56790476D01*
X219300000Y-56885714D01*
X219252380Y-56980952D01*
X219966666Y-57790476D02*
X219966666Y-58266666D01*
X220252380Y-57695238D02*
X219252380Y-58028571D01*
X220252380Y-58361904D01*
X220252380Y-58695238D02*
X219252380Y-58695238D01*
X219252380Y-58933333D01*
X219300000Y-59076190D01*
X219395238Y-59171428D01*
X219490476Y-59219047D01*
X219680952Y-59266666D01*
X219823809Y-59266666D01*
X220014285Y-59219047D01*
X220109523Y-59171428D01*
X220204761Y-59076190D01*
X220252380Y-58933333D01*
X220252380Y-58695238D01*
X215304761Y-55652380D02*
X215352380Y-55795238D01*
X215352380Y-56033333D01*
X215304761Y-56128571D01*
X215257142Y-56176190D01*
X215161904Y-56223809D01*
X215066666Y-56223809D01*
X214971428Y-56176190D01*
X214923809Y-56128571D01*
X214876190Y-56033333D01*
X214828571Y-55842857D01*
X214780952Y-55747619D01*
X214733333Y-55700000D01*
X214638095Y-55652380D01*
X214542857Y-55652380D01*
X214447619Y-55700000D01*
X214400000Y-55747619D01*
X214352380Y-55842857D01*
X214352380Y-56080952D01*
X214400000Y-56223809D01*
X214828571Y-56652380D02*
X214828571Y-56985714D01*
X215352380Y-57128571D02*
X215352380Y-56652380D01*
X214352380Y-56652380D01*
X214352380Y-57128571D01*
X215352380Y-58128571D02*
X214876190Y-57795238D01*
X215352380Y-57557142D02*
X214352380Y-57557142D01*
X214352380Y-57938095D01*
X214400000Y-58033333D01*
X214447619Y-58080952D01*
X214542857Y-58128571D01*
X214685714Y-58128571D01*
X214780952Y-58080952D01*
X214828571Y-58033333D01*
X214876190Y-57938095D01*
X214876190Y-57557142D01*
X215352380Y-58557142D02*
X214352380Y-58557142D01*
X214352380Y-58795238D01*
X214400000Y-58938095D01*
X214495238Y-59033333D01*
X214590476Y-59080952D01*
X214780952Y-59128571D01*
X214923809Y-59128571D01*
X215114285Y-59080952D01*
X215209523Y-59033333D01*
X215304761Y-58938095D01*
X215352380Y-58795238D01*
X215352380Y-58557142D01*
X215066666Y-59509523D02*
X215066666Y-59985714D01*
X215352380Y-59414285D02*
X214352380Y-59747619D01*
X215352380Y-60080952D01*
X214352380Y-60271428D02*
X214352380Y-60842857D01*
X215352380Y-60557142D02*
X214352380Y-60557142D01*
X222052380Y-43561904D02*
X222052380Y-44180952D01*
X222433333Y-43847619D01*
X222433333Y-43990476D01*
X222480952Y-44085714D01*
X222528571Y-44133333D01*
X222623809Y-44180952D01*
X222861904Y-44180952D01*
X222957142Y-44133333D01*
X223004761Y-44085714D01*
X223052380Y-43990476D01*
X223052380Y-43704761D01*
X223004761Y-43609523D01*
X222957142Y-43561904D01*
X222052380Y-44466666D02*
X223052380Y-44800000D01*
X222052380Y-45133333D01*
X222052380Y-45371428D02*
X222052380Y-45990476D01*
X222433333Y-45657142D01*
X222433333Y-45800000D01*
X222480952Y-45895238D01*
X222528571Y-45942857D01*
X222623809Y-45990476D01*
X222861904Y-45990476D01*
X222957142Y-45942857D01*
X223004761Y-45895238D01*
X223052380Y-45800000D01*
X223052380Y-45514285D01*
X223004761Y-45419047D01*
X222957142Y-45371428D01*
X216942857Y-45695238D02*
X216895238Y-45742857D01*
X216847619Y-45885714D01*
X216847619Y-45980952D01*
X216895238Y-46123809D01*
X216990476Y-46219047D01*
X217085714Y-46266666D01*
X217276190Y-46314285D01*
X217419047Y-46314285D01*
X217609523Y-46266666D01*
X217704761Y-46219047D01*
X217800000Y-46123809D01*
X217847619Y-45980952D01*
X217847619Y-45885714D01*
X217800000Y-45742857D01*
X217752380Y-45695238D01*
X216847619Y-44790476D02*
X216847619Y-45266666D01*
X217847619Y-45266666D01*
X216847619Y-44457142D02*
X217847619Y-44457142D01*
X216847619Y-43885714D02*
X217419047Y-44314285D01*
X217847619Y-43885714D02*
X217276190Y-44457142D01*
X238871428Y-119853571D02*
X238538095Y-119853571D01*
X238395238Y-120377380D02*
X238871428Y-120377380D01*
X238871428Y-119377380D01*
X238395238Y-119377380D01*
X238061904Y-120377380D02*
X237538095Y-119710714D01*
X238061904Y-119710714D02*
X237538095Y-120377380D01*
X237157142Y-119710714D02*
X237157142Y-120710714D01*
X237157142Y-119758333D02*
X237061904Y-119710714D01*
X236871428Y-119710714D01*
X236776190Y-119758333D01*
X236728571Y-119805952D01*
X236680952Y-119901190D01*
X236680952Y-120186904D01*
X236728571Y-120282142D01*
X236776190Y-120329761D01*
X236871428Y-120377380D01*
X237061904Y-120377380D01*
X237157142Y-120329761D01*
X235871428Y-120329761D02*
X235966666Y-120377380D01*
X236157142Y-120377380D01*
X236252380Y-120329761D01*
X236300000Y-120234523D01*
X236300000Y-119853571D01*
X236252380Y-119758333D01*
X236157142Y-119710714D01*
X235966666Y-119710714D01*
X235871428Y-119758333D01*
X235823809Y-119853571D01*
X235823809Y-119948809D01*
X236300000Y-120044047D01*
X235395238Y-120377380D02*
X235395238Y-119710714D01*
X235395238Y-119901190D02*
X235347619Y-119805952D01*
X235300000Y-119758333D01*
X235204761Y-119710714D01*
X235109523Y-119710714D01*
X234776190Y-120377380D02*
X234776190Y-119710714D01*
X234776190Y-119377380D02*
X234823809Y-119425000D01*
X234776190Y-119472619D01*
X234728571Y-119425000D01*
X234776190Y-119377380D01*
X234776190Y-119472619D01*
X234300000Y-120377380D02*
X234300000Y-119710714D01*
X234300000Y-119805952D02*
X234252380Y-119758333D01*
X234157142Y-119710714D01*
X234014285Y-119710714D01*
X233919047Y-119758333D01*
X233871428Y-119853571D01*
X233871428Y-120377380D01*
X233871428Y-119853571D02*
X233823809Y-119758333D01*
X233728571Y-119710714D01*
X233585714Y-119710714D01*
X233490476Y-119758333D01*
X233442857Y-119853571D01*
X233442857Y-120377380D01*
X232585714Y-120329761D02*
X232680952Y-120377380D01*
X232871428Y-120377380D01*
X232966666Y-120329761D01*
X233014285Y-120234523D01*
X233014285Y-119853571D01*
X232966666Y-119758333D01*
X232871428Y-119710714D01*
X232680952Y-119710714D01*
X232585714Y-119758333D01*
X232538095Y-119853571D01*
X232538095Y-119948809D01*
X233014285Y-120044047D01*
X232109523Y-119710714D02*
X232109523Y-120377380D01*
X232109523Y-119805952D02*
X232061904Y-119758333D01*
X231966666Y-119710714D01*
X231823809Y-119710714D01*
X231728571Y-119758333D01*
X231680952Y-119853571D01*
X231680952Y-120377380D01*
X231347619Y-119710714D02*
X230966666Y-119710714D01*
X231204761Y-119377380D02*
X231204761Y-120234523D01*
X231157142Y-120329761D01*
X231061904Y-120377380D01*
X230966666Y-120377380D01*
X230204761Y-120377380D02*
X230204761Y-119853571D01*
X230252380Y-119758333D01*
X230347619Y-119710714D01*
X230538095Y-119710714D01*
X230633333Y-119758333D01*
X230204761Y-120329761D02*
X230300000Y-120377380D01*
X230538095Y-120377380D01*
X230633333Y-120329761D01*
X230680952Y-120234523D01*
X230680952Y-120139285D01*
X230633333Y-120044047D01*
X230538095Y-119996428D01*
X230300000Y-119996428D01*
X230204761Y-119948809D01*
X229585714Y-120377380D02*
X229680952Y-120329761D01*
X229728571Y-120234523D01*
X229728571Y-119377380D01*
X228490476Y-120329761D02*
X228347619Y-120377380D01*
X228109523Y-120377380D01*
X228014285Y-120329761D01*
X227966666Y-120282142D01*
X227919047Y-120186904D01*
X227919047Y-120091666D01*
X227966666Y-119996428D01*
X228014285Y-119948809D01*
X228109523Y-119901190D01*
X228300000Y-119853571D01*
X228395238Y-119805952D01*
X228442857Y-119758333D01*
X228490476Y-119663095D01*
X228490476Y-119567857D01*
X228442857Y-119472619D01*
X228395238Y-119425000D01*
X228300000Y-119377380D01*
X228061904Y-119377380D01*
X227919047Y-119425000D01*
X227061904Y-120329761D02*
X227157142Y-120377380D01*
X227347619Y-120377380D01*
X227442857Y-120329761D01*
X227490476Y-120282142D01*
X227538095Y-120186904D01*
X227538095Y-119901190D01*
X227490476Y-119805952D01*
X227442857Y-119758333D01*
X227347619Y-119710714D01*
X227157142Y-119710714D01*
X227061904Y-119758333D01*
X226633333Y-120377380D02*
X226633333Y-119377380D01*
X226204761Y-120377380D02*
X226204761Y-119853571D01*
X226252380Y-119758333D01*
X226347619Y-119710714D01*
X226490476Y-119710714D01*
X226585714Y-119758333D01*
X226633333Y-119805952D01*
X225585714Y-120377380D02*
X225680952Y-120329761D01*
X225728571Y-120282142D01*
X225776190Y-120186904D01*
X225776190Y-119901190D01*
X225728571Y-119805952D01*
X225680952Y-119758333D01*
X225585714Y-119710714D01*
X225442857Y-119710714D01*
X225347619Y-119758333D01*
X225300000Y-119805952D01*
X225252380Y-119901190D01*
X225252380Y-120186904D01*
X225300000Y-120282142D01*
X225347619Y-120329761D01*
X225442857Y-120377380D01*
X225585714Y-120377380D01*
X224680952Y-120377380D02*
X224776190Y-120329761D01*
X224823809Y-120282142D01*
X224871428Y-120186904D01*
X224871428Y-119901190D01*
X224823809Y-119805952D01*
X224776190Y-119758333D01*
X224680952Y-119710714D01*
X224538095Y-119710714D01*
X224442857Y-119758333D01*
X224395238Y-119805952D01*
X224347619Y-119901190D01*
X224347619Y-120186904D01*
X224395238Y-120282142D01*
X224442857Y-120329761D01*
X224538095Y-120377380D01*
X224680952Y-120377380D01*
X223776190Y-120377380D02*
X223871428Y-120329761D01*
X223919047Y-120234523D01*
X223919047Y-119377380D01*
X223347619Y-119377380D02*
X223442857Y-119567857D01*
X222966666Y-120329761D02*
X222871428Y-120377380D01*
X222680952Y-120377380D01*
X222585714Y-120329761D01*
X222538095Y-120234523D01*
X222538095Y-120186904D01*
X222585714Y-120091666D01*
X222680952Y-120044047D01*
X222823809Y-120044047D01*
X222919047Y-119996428D01*
X222966666Y-119901190D01*
X222966666Y-119853571D01*
X222919047Y-119758333D01*
X222823809Y-119710714D01*
X222680952Y-119710714D01*
X222585714Y-119758333D01*
X220776190Y-120282142D02*
X220823809Y-120329761D01*
X220966666Y-120377380D01*
X221061904Y-120377380D01*
X221204761Y-120329761D01*
X221300000Y-120234523D01*
X221347619Y-120139285D01*
X221395238Y-119948809D01*
X221395238Y-119805952D01*
X221347619Y-119615476D01*
X221300000Y-119520238D01*
X221204761Y-119425000D01*
X221061904Y-119377380D01*
X220966666Y-119377380D01*
X220823809Y-119425000D01*
X220776190Y-119472619D01*
X220204761Y-120377380D02*
X220300000Y-120329761D01*
X220347619Y-120282142D01*
X220395238Y-120186904D01*
X220395238Y-119901190D01*
X220347619Y-119805952D01*
X220300000Y-119758333D01*
X220204761Y-119710714D01*
X220061904Y-119710714D01*
X219966666Y-119758333D01*
X219919047Y-119805952D01*
X219871428Y-119901190D01*
X219871428Y-120186904D01*
X219919047Y-120282142D01*
X219966666Y-120329761D01*
X220061904Y-120377380D01*
X220204761Y-120377380D01*
X219442857Y-120377380D02*
X219442857Y-119710714D01*
X219442857Y-119805952D02*
X219395238Y-119758333D01*
X219300000Y-119710714D01*
X219157142Y-119710714D01*
X219061904Y-119758333D01*
X219014285Y-119853571D01*
X219014285Y-120377380D01*
X219014285Y-119853571D02*
X218966666Y-119758333D01*
X218871428Y-119710714D01*
X218728571Y-119710714D01*
X218633333Y-119758333D01*
X218585714Y-119853571D01*
X218585714Y-120377380D01*
X218109523Y-119710714D02*
X218109523Y-120710714D01*
X218109523Y-119758333D02*
X218014285Y-119710714D01*
X217823809Y-119710714D01*
X217728571Y-119758333D01*
X217680952Y-119805952D01*
X217633333Y-119901190D01*
X217633333Y-120186904D01*
X217680952Y-120282142D01*
X217728571Y-120329761D01*
X217823809Y-120377380D01*
X218014285Y-120377380D01*
X218109523Y-120329761D01*
X216776190Y-119710714D02*
X216776190Y-120377380D01*
X217204761Y-119710714D02*
X217204761Y-120234523D01*
X217157142Y-120329761D01*
X217061904Y-120377380D01*
X216919047Y-120377380D01*
X216823809Y-120329761D01*
X216776190Y-120282142D01*
X216442857Y-119710714D02*
X216061904Y-119710714D01*
X216300000Y-119377380D02*
X216300000Y-120234523D01*
X216252380Y-120329761D01*
X216157142Y-120377380D01*
X216061904Y-120377380D01*
X215347619Y-120329761D02*
X215442857Y-120377380D01*
X215633333Y-120377380D01*
X215728571Y-120329761D01*
X215776190Y-120234523D01*
X215776190Y-119853571D01*
X215728571Y-119758333D01*
X215633333Y-119710714D01*
X215442857Y-119710714D01*
X215347619Y-119758333D01*
X215300000Y-119853571D01*
X215300000Y-119948809D01*
X215776190Y-120044047D01*
X214871428Y-120377380D02*
X214871428Y-119710714D01*
X214871428Y-119901190D02*
X214823809Y-119805952D01*
X214776190Y-119758333D01*
X214680952Y-119710714D01*
X214585714Y-119710714D01*
X230252380Y-122027380D02*
X230252380Y-121027380D01*
X229919047Y-121741666D01*
X229585714Y-121027380D01*
X229585714Y-122027380D01*
X228680952Y-122027380D02*
X228680952Y-121503571D01*
X228728571Y-121408333D01*
X228823809Y-121360714D01*
X229014285Y-121360714D01*
X229109523Y-121408333D01*
X228680952Y-121979761D02*
X228776190Y-122027380D01*
X229014285Y-122027380D01*
X229109523Y-121979761D01*
X229157142Y-121884523D01*
X229157142Y-121789285D01*
X229109523Y-121694047D01*
X229014285Y-121646428D01*
X228776190Y-121646428D01*
X228680952Y-121598809D01*
X228300000Y-121360714D02*
X228061904Y-122027380D01*
X227823809Y-121360714D02*
X228061904Y-122027380D01*
X228157142Y-122265476D01*
X228204761Y-122313095D01*
X228300000Y-122360714D01*
X226728571Y-121122619D02*
X226680952Y-121075000D01*
X226585714Y-121027380D01*
X226347619Y-121027380D01*
X226252380Y-121075000D01*
X226204761Y-121122619D01*
X226157142Y-121217857D01*
X226157142Y-121313095D01*
X226204761Y-121455952D01*
X226776190Y-122027380D01*
X226157142Y-122027380D01*
X225538095Y-121027380D02*
X225442857Y-121027380D01*
X225347619Y-121075000D01*
X225300000Y-121122619D01*
X225252380Y-121217857D01*
X225204761Y-121408333D01*
X225204761Y-121646428D01*
X225252380Y-121836904D01*
X225300000Y-121932142D01*
X225347619Y-121979761D01*
X225442857Y-122027380D01*
X225538095Y-122027380D01*
X225633333Y-121979761D01*
X225680952Y-121932142D01*
X225728571Y-121836904D01*
X225776190Y-121646428D01*
X225776190Y-121408333D01*
X225728571Y-121217857D01*
X225680952Y-121122619D01*
X225633333Y-121075000D01*
X225538095Y-121027380D01*
X224823809Y-121122619D02*
X224776190Y-121075000D01*
X224680952Y-121027380D01*
X224442857Y-121027380D01*
X224347619Y-121075000D01*
X224300000Y-121122619D01*
X224252380Y-121217857D01*
X224252380Y-121313095D01*
X224300000Y-121455952D01*
X224871428Y-122027380D01*
X224252380Y-122027380D01*
X223395238Y-121360714D02*
X223395238Y-122027380D01*
X223633333Y-120979761D02*
X223871428Y-121694047D01*
X223252380Y-121694047D01*
X234395238Y-123677380D02*
X234395238Y-123010714D01*
X234395238Y-123105952D02*
X234347619Y-123058333D01*
X234252380Y-123010714D01*
X234109523Y-123010714D01*
X234014285Y-123058333D01*
X233966666Y-123153571D01*
X233966666Y-123677380D01*
X233966666Y-123153571D02*
X233919047Y-123058333D01*
X233823809Y-123010714D01*
X233680952Y-123010714D01*
X233585714Y-123058333D01*
X233538095Y-123153571D01*
X233538095Y-123677380D01*
X232680952Y-123629761D02*
X232776190Y-123677380D01*
X232966666Y-123677380D01*
X233061904Y-123629761D01*
X233109523Y-123534523D01*
X233109523Y-123153571D01*
X233061904Y-123058333D01*
X232966666Y-123010714D01*
X232776190Y-123010714D01*
X232680952Y-123058333D01*
X232633333Y-123153571D01*
X232633333Y-123248809D01*
X233109523Y-123344047D01*
X232204761Y-123010714D02*
X232204761Y-123677380D01*
X232204761Y-123105952D02*
X232157142Y-123058333D01*
X232061904Y-123010714D01*
X231919047Y-123010714D01*
X231823809Y-123058333D01*
X231776190Y-123153571D01*
X231776190Y-123677380D01*
X230871428Y-123677380D02*
X230871428Y-123153571D01*
X230919047Y-123058333D01*
X231014285Y-123010714D01*
X231204761Y-123010714D01*
X231300000Y-123058333D01*
X230871428Y-123629761D02*
X230966666Y-123677380D01*
X231204761Y-123677380D01*
X231300000Y-123629761D01*
X231347619Y-123534523D01*
X231347619Y-123439285D01*
X231300000Y-123344047D01*
X231204761Y-123296428D01*
X230966666Y-123296428D01*
X230871428Y-123248809D01*
X229966666Y-123677380D02*
X229966666Y-122677380D01*
X229966666Y-123629761D02*
X230061904Y-123677380D01*
X230252380Y-123677380D01*
X230347619Y-123629761D01*
X230395238Y-123582142D01*
X230442857Y-123486904D01*
X230442857Y-123201190D01*
X230395238Y-123105952D01*
X230347619Y-123058333D01*
X230252380Y-123010714D01*
X230061904Y-123010714D01*
X229966666Y-123058333D01*
X229061904Y-123010714D02*
X229061904Y-123677380D01*
X229490476Y-123010714D02*
X229490476Y-123534523D01*
X229442857Y-123629761D01*
X229347619Y-123677380D01*
X229204761Y-123677380D01*
X229109523Y-123629761D01*
X229061904Y-123582142D01*
X228204761Y-123629761D02*
X228300000Y-123677380D01*
X228490476Y-123677380D01*
X228585714Y-123629761D01*
X228633333Y-123534523D01*
X228633333Y-123153571D01*
X228585714Y-123058333D01*
X228490476Y-123010714D01*
X228300000Y-123010714D01*
X228204761Y-123058333D01*
X228157142Y-123153571D01*
X228157142Y-123248809D01*
X228633333Y-123344047D01*
X227109523Y-123201190D02*
X227157142Y-123153571D01*
X227252380Y-123105952D01*
X227347619Y-123105952D01*
X227442857Y-123153571D01*
X227490476Y-123201190D01*
X227538095Y-123296428D01*
X227538095Y-123391666D01*
X227490476Y-123486904D01*
X227442857Y-123534523D01*
X227347619Y-123582142D01*
X227252380Y-123582142D01*
X227157142Y-123534523D01*
X227109523Y-123486904D01*
X227109523Y-123105952D02*
X227109523Y-123486904D01*
X227061904Y-123534523D01*
X227014285Y-123534523D01*
X226919047Y-123486904D01*
X226871428Y-123391666D01*
X226871428Y-123153571D01*
X226966666Y-123010714D01*
X227109523Y-122915476D01*
X227300000Y-122867857D01*
X227490476Y-122915476D01*
X227633333Y-123010714D01*
X227728571Y-123153571D01*
X227776190Y-123344047D01*
X227728571Y-123534523D01*
X227633333Y-123677380D01*
X227490476Y-123772619D01*
X227300000Y-123820238D01*
X227109523Y-123772619D01*
X226966666Y-123677380D01*
X226014285Y-123010714D02*
X226014285Y-123820238D01*
X226061904Y-123915476D01*
X226109523Y-123963095D01*
X226204761Y-124010714D01*
X226347619Y-124010714D01*
X226442857Y-123963095D01*
X226014285Y-123629761D02*
X226109523Y-123677380D01*
X226300000Y-123677380D01*
X226395238Y-123629761D01*
X226442857Y-123582142D01*
X226490476Y-123486904D01*
X226490476Y-123201190D01*
X226442857Y-123105952D01*
X226395238Y-123058333D01*
X226300000Y-123010714D01*
X226109523Y-123010714D01*
X226014285Y-123058333D01*
X225538095Y-123677380D02*
X225538095Y-123010714D01*
X225538095Y-123105952D02*
X225490476Y-123058333D01*
X225395238Y-123010714D01*
X225252380Y-123010714D01*
X225157142Y-123058333D01*
X225109523Y-123153571D01*
X225109523Y-123677380D01*
X225109523Y-123153571D02*
X225061904Y-123058333D01*
X224966666Y-123010714D01*
X224823809Y-123010714D01*
X224728571Y-123058333D01*
X224680952Y-123153571D01*
X224680952Y-123677380D01*
X223776190Y-123677380D02*
X223776190Y-123153571D01*
X223823809Y-123058333D01*
X223919047Y-123010714D01*
X224109523Y-123010714D01*
X224204761Y-123058333D01*
X223776190Y-123629761D02*
X223871428Y-123677380D01*
X224109523Y-123677380D01*
X224204761Y-123629761D01*
X224252380Y-123534523D01*
X224252380Y-123439285D01*
X224204761Y-123344047D01*
X224109523Y-123296428D01*
X223871428Y-123296428D01*
X223776190Y-123248809D01*
X223300000Y-123677380D02*
X223300000Y-123010714D01*
X223300000Y-122677380D02*
X223347619Y-122725000D01*
X223300000Y-122772619D01*
X223252380Y-122725000D01*
X223300000Y-122677380D01*
X223300000Y-122772619D01*
X222680952Y-123677380D02*
X222776190Y-123629761D01*
X222823809Y-123534523D01*
X222823809Y-122677380D01*
X222300000Y-123582142D02*
X222252380Y-123629761D01*
X222300000Y-123677380D01*
X222347619Y-123629761D01*
X222300000Y-123582142D01*
X222300000Y-123677380D01*
X221395238Y-123629761D02*
X221490476Y-123677380D01*
X221680952Y-123677380D01*
X221776190Y-123629761D01*
X221823809Y-123582142D01*
X221871428Y-123486904D01*
X221871428Y-123201190D01*
X221823809Y-123105952D01*
X221776190Y-123058333D01*
X221680952Y-123010714D01*
X221490476Y-123010714D01*
X221395238Y-123058333D01*
X220823809Y-123677380D02*
X220919047Y-123629761D01*
X220966666Y-123582142D01*
X221014285Y-123486904D01*
X221014285Y-123201190D01*
X220966666Y-123105952D01*
X220919047Y-123058333D01*
X220823809Y-123010714D01*
X220680952Y-123010714D01*
X220585714Y-123058333D01*
X220538095Y-123105952D01*
X220490476Y-123201190D01*
X220490476Y-123486904D01*
X220538095Y-123582142D01*
X220585714Y-123629761D01*
X220680952Y-123677380D01*
X220823809Y-123677380D01*
X220061904Y-123677380D02*
X220061904Y-123010714D01*
X220061904Y-123105952D02*
X220014285Y-123058333D01*
X219919047Y-123010714D01*
X219776190Y-123010714D01*
X219680952Y-123058333D01*
X219633333Y-123153571D01*
X219633333Y-123677380D01*
X219633333Y-123153571D02*
X219585714Y-123058333D01*
X219490476Y-123010714D01*
X219347619Y-123010714D01*
X219252380Y-123058333D01*
X219204761Y-123153571D01*
X219204761Y-123677380D01*
X228323809Y-124327380D02*
X227990476Y-125327380D01*
X227657142Y-124327380D01*
X226800000Y-125327380D02*
X227371428Y-125327380D01*
X227085714Y-125327380D02*
X227085714Y-124327380D01*
X227180952Y-124470238D01*
X227276190Y-124565476D01*
X227371428Y-124613095D01*
X226371428Y-125232142D02*
X226323809Y-125279761D01*
X226371428Y-125327380D01*
X226419047Y-125279761D01*
X226371428Y-125232142D01*
X226371428Y-125327380D01*
X225704761Y-124327380D02*
X225609523Y-124327380D01*
X225514285Y-124375000D01*
X225466666Y-124422619D01*
X225419047Y-124517857D01*
X225371428Y-124708333D01*
X225371428Y-124946428D01*
X225419047Y-125136904D01*
X225466666Y-125232142D01*
X225514285Y-125279761D01*
X225609523Y-125327380D01*
X225704761Y-125327380D01*
X225800000Y-125279761D01*
X225847619Y-125232142D01*
X225895238Y-125136904D01*
X225942857Y-124946428D01*
X225942857Y-124708333D01*
X225895238Y-124517857D01*
X225847619Y-124422619D01*
X225800000Y-124375000D01*
X225704761Y-124327380D01*
D11*
X219097200Y-52550000D02*
X215537200Y-52550000D01*
X224177200Y-52550000D02*
X220617200Y-52550000D01*
X216557200Y-49890000D02*
X213447200Y-49890000D01*
X221637200Y-49890000D02*
X218077200Y-49890000D01*
X214017200Y-49890000D02*
X213447200Y-49890000D01*
X226267200Y-52550000D02*
X225697200Y-52550000D01*
X225697200Y-52550000D02*
X225697200Y-54070000D01*
X226267200Y-49890000D02*
X223157200Y-49890000D01*
X213447200Y-52550000D02*
X213447200Y-49890000D01*
X226267200Y-52550000D02*
X226267200Y-49890000D01*
X213900000Y-90260000D02*
X210450000Y-90260000D01*
X213900000Y-90260000D02*
X215850000Y-90260000D01*
X213900000Y-80140000D02*
X211950000Y-80140000D01*
X213900000Y-80140000D02*
X215850000Y-80140000D01*
X113900000Y-87760000D02*
X110450000Y-87760000D01*
X113900000Y-87760000D02*
X115850000Y-87760000D01*
X113900000Y-77640000D02*
X111950000Y-77640000D01*
X113900000Y-77640000D02*
X115850000Y-77640000D01*
X66787200Y-85658400D02*
X63337200Y-85658400D01*
X66787200Y-85658400D02*
X68737200Y-85658400D01*
X66787200Y-75538400D02*
X64837200Y-75538400D01*
X66787200Y-75538400D02*
X68737200Y-75538400D01*
X178200000Y-89960000D02*
X174750000Y-89960000D01*
X178200000Y-89960000D02*
X180150000Y-89960000D01*
X178200000Y-79840000D02*
X176250000Y-79840000D01*
X178200000Y-79840000D02*
X180150000Y-79840000D01*
X205914136Y-82539800D02*
X206368264Y-82539800D01*
X205914136Y-84009800D02*
X206368264Y-84009800D01*
X106346136Y-80050600D02*
X106800264Y-80050600D01*
X106346136Y-81520600D02*
X106800264Y-81520600D01*
X200986536Y-83860600D02*
X201440664Y-83860600D01*
X200986536Y-85330600D02*
X201440664Y-85330600D01*
X101875736Y-81320600D02*
X102329864Y-81320600D01*
X101875736Y-82790600D02*
X102329864Y-82790600D01*
X205863336Y-85079800D02*
X206317464Y-85079800D01*
X205863336Y-86549800D02*
X206317464Y-86549800D01*
X106295336Y-82539800D02*
X106749464Y-82539800D01*
X106295336Y-84009800D02*
X106749464Y-84009800D01*
X201037336Y-86400600D02*
X201491464Y-86400600D01*
X201037336Y-87870600D02*
X201491464Y-87870600D01*
X101875736Y-83911400D02*
X102329864Y-83911400D01*
X101875736Y-85381400D02*
X102329864Y-85381400D01*
X226535864Y-87819800D02*
X226081736Y-87819800D01*
X226535864Y-86349800D02*
X226081736Y-86349800D01*
X127831464Y-85330600D02*
X127377336Y-85330600D01*
X127831464Y-83860600D02*
X127377336Y-83860600D01*
X221760664Y-86549800D02*
X221306536Y-86549800D01*
X221760664Y-85079800D02*
X221306536Y-85079800D01*
X123818264Y-84060600D02*
X123364136Y-84060600D01*
X123818264Y-82590600D02*
X123364136Y-82590600D01*
X226535864Y-85229000D02*
X226081736Y-85229000D01*
X226535864Y-83759000D02*
X226081736Y-83759000D01*
X127780664Y-82790600D02*
X127326536Y-82790600D01*
X127780664Y-81320600D02*
X127326536Y-81320600D01*
X221811464Y-84009800D02*
X221357336Y-84009800D01*
X221811464Y-82539800D02*
X221357336Y-82539800D01*
X123818264Y-81520600D02*
X123364136Y-81520600D01*
X123818264Y-80050600D02*
X123364136Y-80050600D01*
X58086136Y-77967800D02*
X58540264Y-77967800D01*
X58086136Y-79437800D02*
X58540264Y-79437800D01*
X168931736Y-82285800D02*
X169385864Y-82285800D01*
X168931736Y-83755800D02*
X169385864Y-83755800D01*
X53717336Y-79187000D02*
X54171464Y-79187000D01*
X53717336Y-80657000D02*
X54171464Y-80657000D01*
X164410536Y-83454200D02*
X164864664Y-83454200D01*
X164410536Y-84924200D02*
X164864664Y-84924200D01*
X58086136Y-80507800D02*
X58540264Y-80507800D01*
X58086136Y-81977800D02*
X58540264Y-81977800D01*
X168931736Y-84775000D02*
X169385864Y-84775000D01*
X168931736Y-86245000D02*
X169385864Y-86245000D01*
X53717336Y-81828600D02*
X54171464Y-81828600D01*
X53717336Y-83298600D02*
X54171464Y-83298600D01*
X164410536Y-86045000D02*
X164864664Y-86045000D01*
X164410536Y-87515000D02*
X164864664Y-87515000D01*
X74948664Y-83298600D02*
X74494536Y-83298600D01*
X74948664Y-81828600D02*
X74494536Y-81828600D01*
X191636264Y-87718200D02*
X191182136Y-87718200D01*
X191636264Y-86248200D02*
X191182136Y-86248200D01*
X79301464Y-81977800D02*
X78847336Y-81977800D01*
X79301464Y-80507800D02*
X78847336Y-80507800D01*
X187165864Y-86295800D02*
X186711736Y-86295800D01*
X187165864Y-84825800D02*
X186711736Y-84825800D01*
X74932664Y-80707800D02*
X74478536Y-80707800D01*
X74932664Y-79237800D02*
X74478536Y-79237800D01*
X191636264Y-85025800D02*
X191182136Y-85025800D01*
X191636264Y-83555800D02*
X191182136Y-83555800D01*
X79266664Y-79437800D02*
X78812536Y-79437800D01*
X79266664Y-77967800D02*
X78812536Y-77967800D01*
X187115064Y-83806600D02*
X186660936Y-83806600D01*
X187115064Y-82336600D02*
X186660936Y-82336600D01*
X66956452Y-72786200D02*
X66433948Y-72786200D01*
X66956452Y-74256200D02*
X66433948Y-74256200D01*
X214174852Y-78929800D02*
X213652348Y-78929800D01*
X214174852Y-77459800D02*
X213652348Y-77459800D01*
X178056052Y-77964600D02*
X177533548Y-77964600D01*
X178056052Y-76494600D02*
X177533548Y-76494600D01*
X114280552Y-76237400D02*
X113758048Y-76237400D01*
X114280552Y-74767400D02*
X113758048Y-74767400D01*
D10*
X228733333Y-50652380D02*
X228733333Y-51366666D01*
X228780952Y-51509523D01*
X228876190Y-51604761D01*
X229019047Y-51652380D01*
X229114285Y-51652380D01*
X227733333Y-51652380D02*
X228304761Y-51652380D01*
X228019047Y-51652380D02*
X228019047Y-50652380D01*
X228114285Y-50795238D01*
X228209523Y-50890476D01*
X228304761Y-50938095D01*
X216761904Y-91252380D02*
X216761904Y-92061904D01*
X216714285Y-92157142D01*
X216666666Y-92204761D01*
X216571428Y-92252380D01*
X216380952Y-92252380D01*
X216285714Y-92204761D01*
X216238095Y-92157142D01*
X216190476Y-92061904D01*
X216190476Y-91252380D01*
X215285714Y-91585714D02*
X215285714Y-92252380D01*
X215523809Y-91204761D02*
X215761904Y-91919047D01*
X215142857Y-91919047D01*
X116561904Y-88352380D02*
X116561904Y-89161904D01*
X116514285Y-89257142D01*
X116466666Y-89304761D01*
X116371428Y-89352380D01*
X116180952Y-89352380D01*
X116085714Y-89304761D01*
X116038095Y-89257142D01*
X115990476Y-89161904D01*
X115990476Y-88352380D01*
X115609523Y-88352380D02*
X114990476Y-88352380D01*
X115323809Y-88733333D01*
X115180952Y-88733333D01*
X115085714Y-88780952D01*
X115038095Y-88828571D01*
X114990476Y-88923809D01*
X114990476Y-89161904D01*
X115038095Y-89257142D01*
X115085714Y-89304761D01*
X115180952Y-89352380D01*
X115466666Y-89352380D01*
X115561904Y-89304761D01*
X115609523Y-89257142D01*
X69961904Y-86952380D02*
X69961904Y-87761904D01*
X69914285Y-87857142D01*
X69866666Y-87904761D01*
X69771428Y-87952380D01*
X69580952Y-87952380D01*
X69485714Y-87904761D01*
X69438095Y-87857142D01*
X69390476Y-87761904D01*
X69390476Y-86952380D01*
X68961904Y-87047619D02*
X68914285Y-87000000D01*
X68819047Y-86952380D01*
X68580952Y-86952380D01*
X68485714Y-87000000D01*
X68438095Y-87047619D01*
X68390476Y-87142857D01*
X68390476Y-87238095D01*
X68438095Y-87380952D01*
X69009523Y-87952380D01*
X68390476Y-87952380D01*
X181161904Y-90752380D02*
X181161904Y-91561904D01*
X181114285Y-91657142D01*
X181066666Y-91704761D01*
X180971428Y-91752380D01*
X180780952Y-91752380D01*
X180685714Y-91704761D01*
X180638095Y-91657142D01*
X180590476Y-91561904D01*
X180590476Y-90752380D01*
X179590476Y-91752380D02*
X180161904Y-91752380D01*
X179876190Y-91752380D02*
X179876190Y-90752380D01*
X179971428Y-90895238D01*
X180066666Y-90990476D01*
X180161904Y-91038095D01*
X206542857Y-82052380D02*
X206876190Y-81576190D01*
X207114285Y-82052380D02*
X207114285Y-81052380D01*
X206733333Y-81052380D01*
X206638095Y-81100000D01*
X206590476Y-81147619D01*
X206542857Y-81242857D01*
X206542857Y-81385714D01*
X206590476Y-81480952D01*
X206638095Y-81528571D01*
X206733333Y-81576190D01*
X207114285Y-81576190D01*
X206209523Y-81052380D02*
X205590476Y-81052380D01*
X205923809Y-81433333D01*
X205780952Y-81433333D01*
X205685714Y-81480952D01*
X205638095Y-81528571D01*
X205590476Y-81623809D01*
X205590476Y-81861904D01*
X205638095Y-81957142D01*
X205685714Y-82004761D01*
X205780952Y-82052380D01*
X206066666Y-82052380D01*
X206161904Y-82004761D01*
X206209523Y-81957142D01*
X205209523Y-81147619D02*
X205161904Y-81100000D01*
X205066666Y-81052380D01*
X204828571Y-81052380D01*
X204733333Y-81100000D01*
X204685714Y-81147619D01*
X204638095Y-81242857D01*
X204638095Y-81338095D01*
X204685714Y-81480952D01*
X205257142Y-82052380D01*
X204638095Y-82052380D01*
X107142857Y-79352380D02*
X107476190Y-78876190D01*
X107714285Y-79352380D02*
X107714285Y-78352380D01*
X107333333Y-78352380D01*
X107238095Y-78400000D01*
X107190476Y-78447619D01*
X107142857Y-78542857D01*
X107142857Y-78685714D01*
X107190476Y-78780952D01*
X107238095Y-78828571D01*
X107333333Y-78876190D01*
X107714285Y-78876190D01*
X106809523Y-78352380D02*
X106190476Y-78352380D01*
X106523809Y-78733333D01*
X106380952Y-78733333D01*
X106285714Y-78780952D01*
X106238095Y-78828571D01*
X106190476Y-78923809D01*
X106190476Y-79161904D01*
X106238095Y-79257142D01*
X106285714Y-79304761D01*
X106380952Y-79352380D01*
X106666666Y-79352380D01*
X106761904Y-79304761D01*
X106809523Y-79257142D01*
X105238095Y-79352380D02*
X105809523Y-79352380D01*
X105523809Y-79352380D02*
X105523809Y-78352380D01*
X105619047Y-78495238D01*
X105714285Y-78590476D01*
X105809523Y-78638095D01*
X198642857Y-85052380D02*
X198976190Y-84576190D01*
X199214285Y-85052380D02*
X199214285Y-84052380D01*
X198833333Y-84052380D01*
X198738095Y-84100000D01*
X198690476Y-84147619D01*
X198642857Y-84242857D01*
X198642857Y-84385714D01*
X198690476Y-84480952D01*
X198738095Y-84528571D01*
X198833333Y-84576190D01*
X199214285Y-84576190D01*
X198309523Y-84052380D02*
X197690476Y-84052380D01*
X198023809Y-84433333D01*
X197880952Y-84433333D01*
X197785714Y-84480952D01*
X197738095Y-84528571D01*
X197690476Y-84623809D01*
X197690476Y-84861904D01*
X197738095Y-84957142D01*
X197785714Y-85004761D01*
X197880952Y-85052380D01*
X198166666Y-85052380D01*
X198261904Y-85004761D01*
X198309523Y-84957142D01*
X197071428Y-84052380D02*
X196976190Y-84052380D01*
X196880952Y-84100000D01*
X196833333Y-84147619D01*
X196785714Y-84242857D01*
X196738095Y-84433333D01*
X196738095Y-84671428D01*
X196785714Y-84861904D01*
X196833333Y-84957142D01*
X196880952Y-85004761D01*
X196976190Y-85052380D01*
X197071428Y-85052380D01*
X197166666Y-85004761D01*
X197214285Y-84957142D01*
X197261904Y-84861904D01*
X197309523Y-84671428D01*
X197309523Y-84433333D01*
X197261904Y-84242857D01*
X197214285Y-84147619D01*
X197166666Y-84100000D01*
X197071428Y-84052380D01*
X99042857Y-82452380D02*
X99376190Y-81976190D01*
X99614285Y-82452380D02*
X99614285Y-81452380D01*
X99233333Y-81452380D01*
X99138095Y-81500000D01*
X99090476Y-81547619D01*
X99042857Y-81642857D01*
X99042857Y-81785714D01*
X99090476Y-81880952D01*
X99138095Y-81928571D01*
X99233333Y-81976190D01*
X99614285Y-81976190D01*
X98661904Y-81547619D02*
X98614285Y-81500000D01*
X98519047Y-81452380D01*
X98280952Y-81452380D01*
X98185714Y-81500000D01*
X98138095Y-81547619D01*
X98090476Y-81642857D01*
X98090476Y-81738095D01*
X98138095Y-81880952D01*
X98709523Y-82452380D01*
X98090476Y-82452380D01*
X97614285Y-82452380D02*
X97423809Y-82452380D01*
X97328571Y-82404761D01*
X97280952Y-82357142D01*
X97185714Y-82214285D01*
X97138095Y-82023809D01*
X97138095Y-81642857D01*
X97185714Y-81547619D01*
X97233333Y-81500000D01*
X97328571Y-81452380D01*
X97519047Y-81452380D01*
X97614285Y-81500000D01*
X97661904Y-81547619D01*
X97709523Y-81642857D01*
X97709523Y-81880952D01*
X97661904Y-81976190D01*
X97614285Y-82023809D01*
X97519047Y-82071428D01*
X97328571Y-82071428D01*
X97233333Y-82023809D01*
X97185714Y-81976190D01*
X97138095Y-81880952D01*
X206733257Y-87917180D02*
X207066590Y-87440990D01*
X207304685Y-87917180D02*
X207304685Y-86917180D01*
X206923733Y-86917180D01*
X206828495Y-86964800D01*
X206780876Y-87012419D01*
X206733257Y-87107657D01*
X206733257Y-87250514D01*
X206780876Y-87345752D01*
X206828495Y-87393371D01*
X206923733Y-87440990D01*
X207304685Y-87440990D01*
X206352304Y-87012419D02*
X206304685Y-86964800D01*
X206209447Y-86917180D01*
X205971352Y-86917180D01*
X205876114Y-86964800D01*
X205828495Y-87012419D01*
X205780876Y-87107657D01*
X205780876Y-87202895D01*
X205828495Y-87345752D01*
X206399923Y-87917180D01*
X205780876Y-87917180D01*
X205209447Y-87345752D02*
X205304685Y-87298133D01*
X205352304Y-87250514D01*
X205399923Y-87155276D01*
X205399923Y-87107657D01*
X205352304Y-87012419D01*
X205304685Y-86964800D01*
X205209447Y-86917180D01*
X205018971Y-86917180D01*
X204923733Y-86964800D01*
X204876114Y-87012419D01*
X204828495Y-87107657D01*
X204828495Y-87155276D01*
X204876114Y-87250514D01*
X204923733Y-87298133D01*
X205018971Y-87345752D01*
X205209447Y-87345752D01*
X205304685Y-87393371D01*
X205352304Y-87440990D01*
X205399923Y-87536228D01*
X205399923Y-87726704D01*
X205352304Y-87821942D01*
X205304685Y-87869561D01*
X205209447Y-87917180D01*
X205018971Y-87917180D01*
X204923733Y-87869561D01*
X204876114Y-87821942D01*
X204828495Y-87726704D01*
X204828495Y-87536228D01*
X204876114Y-87440990D01*
X204923733Y-87393371D01*
X205018971Y-87345752D01*
X107142857Y-85552380D02*
X107476190Y-85076190D01*
X107714285Y-85552380D02*
X107714285Y-84552380D01*
X107333333Y-84552380D01*
X107238095Y-84600000D01*
X107190476Y-84647619D01*
X107142857Y-84742857D01*
X107142857Y-84885714D01*
X107190476Y-84980952D01*
X107238095Y-85028571D01*
X107333333Y-85076190D01*
X107714285Y-85076190D01*
X106761904Y-84647619D02*
X106714285Y-84600000D01*
X106619047Y-84552380D01*
X106380952Y-84552380D01*
X106285714Y-84600000D01*
X106238095Y-84647619D01*
X106190476Y-84742857D01*
X106190476Y-84838095D01*
X106238095Y-84980952D01*
X106809523Y-85552380D01*
X106190476Y-85552380D01*
X105857142Y-84552380D02*
X105190476Y-84552380D01*
X105619047Y-85552380D01*
X198542857Y-87452380D02*
X198876190Y-86976190D01*
X199114285Y-87452380D02*
X199114285Y-86452380D01*
X198733333Y-86452380D01*
X198638095Y-86500000D01*
X198590476Y-86547619D01*
X198542857Y-86642857D01*
X198542857Y-86785714D01*
X198590476Y-86880952D01*
X198638095Y-86928571D01*
X198733333Y-86976190D01*
X199114285Y-86976190D01*
X198161904Y-86547619D02*
X198114285Y-86500000D01*
X198019047Y-86452380D01*
X197780952Y-86452380D01*
X197685714Y-86500000D01*
X197638095Y-86547619D01*
X197590476Y-86642857D01*
X197590476Y-86738095D01*
X197638095Y-86880952D01*
X198209523Y-87452380D01*
X197590476Y-87452380D01*
X196733333Y-86452380D02*
X196923809Y-86452380D01*
X197019047Y-86500000D01*
X197066666Y-86547619D01*
X197161904Y-86690476D01*
X197209523Y-86880952D01*
X197209523Y-87261904D01*
X197161904Y-87357142D01*
X197114285Y-87404761D01*
X197019047Y-87452380D01*
X196828571Y-87452380D01*
X196733333Y-87404761D01*
X196685714Y-87357142D01*
X196638095Y-87261904D01*
X196638095Y-87023809D01*
X196685714Y-86928571D01*
X196733333Y-86880952D01*
X196828571Y-86833333D01*
X197019047Y-86833333D01*
X197114285Y-86880952D01*
X197161904Y-86928571D01*
X197209523Y-87023809D01*
X98842857Y-85052380D02*
X99176190Y-84576190D01*
X99414285Y-85052380D02*
X99414285Y-84052380D01*
X99033333Y-84052380D01*
X98938095Y-84100000D01*
X98890476Y-84147619D01*
X98842857Y-84242857D01*
X98842857Y-84385714D01*
X98890476Y-84480952D01*
X98938095Y-84528571D01*
X99033333Y-84576190D01*
X99414285Y-84576190D01*
X98461904Y-84147619D02*
X98414285Y-84100000D01*
X98319047Y-84052380D01*
X98080952Y-84052380D01*
X97985714Y-84100000D01*
X97938095Y-84147619D01*
X97890476Y-84242857D01*
X97890476Y-84338095D01*
X97938095Y-84480952D01*
X98509523Y-85052380D01*
X97890476Y-85052380D01*
X96985714Y-84052380D02*
X97461904Y-84052380D01*
X97509523Y-84528571D01*
X97461904Y-84480952D01*
X97366666Y-84433333D01*
X97128571Y-84433333D01*
X97033333Y-84480952D01*
X96985714Y-84528571D01*
X96938095Y-84623809D01*
X96938095Y-84861904D01*
X96985714Y-84957142D01*
X97033333Y-85004761D01*
X97128571Y-85052380D01*
X97366666Y-85052380D01*
X97461904Y-85004761D01*
X97509523Y-84957142D01*
X230842857Y-87652380D02*
X231176190Y-87176190D01*
X231414285Y-87652380D02*
X231414285Y-86652380D01*
X231033333Y-86652380D01*
X230938095Y-86700000D01*
X230890476Y-86747619D01*
X230842857Y-86842857D01*
X230842857Y-86985714D01*
X230890476Y-87080952D01*
X230938095Y-87128571D01*
X231033333Y-87176190D01*
X231414285Y-87176190D01*
X230461904Y-86747619D02*
X230414285Y-86700000D01*
X230319047Y-86652380D01*
X230080952Y-86652380D01*
X229985714Y-86700000D01*
X229938095Y-86747619D01*
X229890476Y-86842857D01*
X229890476Y-86938095D01*
X229938095Y-87080952D01*
X230509523Y-87652380D01*
X229890476Y-87652380D01*
X229033333Y-86985714D02*
X229033333Y-87652380D01*
X229271428Y-86604761D02*
X229509523Y-87319047D01*
X228890476Y-87319047D01*
X132142857Y-84952380D02*
X132476190Y-84476190D01*
X132714285Y-84952380D02*
X132714285Y-83952380D01*
X132333333Y-83952380D01*
X132238095Y-84000000D01*
X132190476Y-84047619D01*
X132142857Y-84142857D01*
X132142857Y-84285714D01*
X132190476Y-84380952D01*
X132238095Y-84428571D01*
X132333333Y-84476190D01*
X132714285Y-84476190D01*
X131761904Y-84047619D02*
X131714285Y-84000000D01*
X131619047Y-83952380D01*
X131380952Y-83952380D01*
X131285714Y-84000000D01*
X131238095Y-84047619D01*
X131190476Y-84142857D01*
X131190476Y-84238095D01*
X131238095Y-84380952D01*
X131809523Y-84952380D01*
X131190476Y-84952380D01*
X130857142Y-83952380D02*
X130238095Y-83952380D01*
X130571428Y-84333333D01*
X130428571Y-84333333D01*
X130333333Y-84380952D01*
X130285714Y-84428571D01*
X130238095Y-84523809D01*
X130238095Y-84761904D01*
X130285714Y-84857142D01*
X130333333Y-84904761D01*
X130428571Y-84952380D01*
X130714285Y-84952380D01*
X130809523Y-84904761D01*
X130857142Y-84857142D01*
X222142857Y-88352380D02*
X222476190Y-87876190D01*
X222714285Y-88352380D02*
X222714285Y-87352380D01*
X222333333Y-87352380D01*
X222238095Y-87400000D01*
X222190476Y-87447619D01*
X222142857Y-87542857D01*
X222142857Y-87685714D01*
X222190476Y-87780952D01*
X222238095Y-87828571D01*
X222333333Y-87876190D01*
X222714285Y-87876190D01*
X221761904Y-87447619D02*
X221714285Y-87400000D01*
X221619047Y-87352380D01*
X221380952Y-87352380D01*
X221285714Y-87400000D01*
X221238095Y-87447619D01*
X221190476Y-87542857D01*
X221190476Y-87638095D01*
X221238095Y-87780952D01*
X221809523Y-88352380D01*
X221190476Y-88352380D01*
X220809523Y-87447619D02*
X220761904Y-87400000D01*
X220666666Y-87352380D01*
X220428571Y-87352380D01*
X220333333Y-87400000D01*
X220285714Y-87447619D01*
X220238095Y-87542857D01*
X220238095Y-87638095D01*
X220285714Y-87780952D01*
X220857142Y-88352380D01*
X220238095Y-88352380D01*
X124042857Y-85652380D02*
X124376190Y-85176190D01*
X124614285Y-85652380D02*
X124614285Y-84652380D01*
X124233333Y-84652380D01*
X124138095Y-84700000D01*
X124090476Y-84747619D01*
X124042857Y-84842857D01*
X124042857Y-84985714D01*
X124090476Y-85080952D01*
X124138095Y-85128571D01*
X124233333Y-85176190D01*
X124614285Y-85176190D01*
X123661904Y-84747619D02*
X123614285Y-84700000D01*
X123519047Y-84652380D01*
X123280952Y-84652380D01*
X123185714Y-84700000D01*
X123138095Y-84747619D01*
X123090476Y-84842857D01*
X123090476Y-84938095D01*
X123138095Y-85080952D01*
X123709523Y-85652380D01*
X123090476Y-85652380D01*
X122138095Y-85652380D02*
X122709523Y-85652380D01*
X122423809Y-85652380D02*
X122423809Y-84652380D01*
X122519047Y-84795238D01*
X122614285Y-84890476D01*
X122709523Y-84938095D01*
X230742857Y-84952380D02*
X231076190Y-84476190D01*
X231314285Y-84952380D02*
X231314285Y-83952380D01*
X230933333Y-83952380D01*
X230838095Y-84000000D01*
X230790476Y-84047619D01*
X230742857Y-84142857D01*
X230742857Y-84285714D01*
X230790476Y-84380952D01*
X230838095Y-84428571D01*
X230933333Y-84476190D01*
X231314285Y-84476190D01*
X230361904Y-84047619D02*
X230314285Y-84000000D01*
X230219047Y-83952380D01*
X229980952Y-83952380D01*
X229885714Y-84000000D01*
X229838095Y-84047619D01*
X229790476Y-84142857D01*
X229790476Y-84238095D01*
X229838095Y-84380952D01*
X230409523Y-84952380D01*
X229790476Y-84952380D01*
X229171428Y-83952380D02*
X229076190Y-83952380D01*
X228980952Y-84000000D01*
X228933333Y-84047619D01*
X228885714Y-84142857D01*
X228838095Y-84333333D01*
X228838095Y-84571428D01*
X228885714Y-84761904D01*
X228933333Y-84857142D01*
X228980952Y-84904761D01*
X229076190Y-84952380D01*
X229171428Y-84952380D01*
X229266666Y-84904761D01*
X229314285Y-84857142D01*
X229361904Y-84761904D01*
X229409523Y-84571428D01*
X229409523Y-84333333D01*
X229361904Y-84142857D01*
X229314285Y-84047619D01*
X229266666Y-84000000D01*
X229171428Y-83952380D01*
X132242857Y-82452380D02*
X132576190Y-81976190D01*
X132814285Y-82452380D02*
X132814285Y-81452380D01*
X132433333Y-81452380D01*
X132338095Y-81500000D01*
X132290476Y-81547619D01*
X132242857Y-81642857D01*
X132242857Y-81785714D01*
X132290476Y-81880952D01*
X132338095Y-81928571D01*
X132433333Y-81976190D01*
X132814285Y-81976190D01*
X131290476Y-82452380D02*
X131861904Y-82452380D01*
X131576190Y-82452380D02*
X131576190Y-81452380D01*
X131671428Y-81595238D01*
X131766666Y-81690476D01*
X131861904Y-81738095D01*
X130814285Y-82452380D02*
X130623809Y-82452380D01*
X130528571Y-82404761D01*
X130480952Y-82357142D01*
X130385714Y-82214285D01*
X130338095Y-82023809D01*
X130338095Y-81642857D01*
X130385714Y-81547619D01*
X130433333Y-81500000D01*
X130528571Y-81452380D01*
X130719047Y-81452380D01*
X130814285Y-81500000D01*
X130861904Y-81547619D01*
X130909523Y-81642857D01*
X130909523Y-81880952D01*
X130861904Y-81976190D01*
X130814285Y-82023809D01*
X130719047Y-82071428D01*
X130528571Y-82071428D01*
X130433333Y-82023809D01*
X130385714Y-81976190D01*
X130338095Y-81880952D01*
X222227257Y-82077180D02*
X222560590Y-81600990D01*
X222798685Y-82077180D02*
X222798685Y-81077180D01*
X222417733Y-81077180D01*
X222322495Y-81124800D01*
X222274876Y-81172419D01*
X222227257Y-81267657D01*
X222227257Y-81410514D01*
X222274876Y-81505752D01*
X222322495Y-81553371D01*
X222417733Y-81600990D01*
X222798685Y-81600990D01*
X221274876Y-82077180D02*
X221846304Y-82077180D01*
X221560590Y-82077180D02*
X221560590Y-81077180D01*
X221655828Y-81220038D01*
X221751066Y-81315276D01*
X221846304Y-81362895D01*
X220703447Y-81505752D02*
X220798685Y-81458133D01*
X220846304Y-81410514D01*
X220893923Y-81315276D01*
X220893923Y-81267657D01*
X220846304Y-81172419D01*
X220798685Y-81124800D01*
X220703447Y-81077180D01*
X220512971Y-81077180D01*
X220417733Y-81124800D01*
X220370114Y-81172419D01*
X220322495Y-81267657D01*
X220322495Y-81315276D01*
X220370114Y-81410514D01*
X220417733Y-81458133D01*
X220512971Y-81505752D01*
X220703447Y-81505752D01*
X220798685Y-81553371D01*
X220846304Y-81600990D01*
X220893923Y-81696228D01*
X220893923Y-81886704D01*
X220846304Y-81981942D01*
X220798685Y-82029561D01*
X220703447Y-82077180D01*
X220512971Y-82077180D01*
X220417733Y-82029561D01*
X220370114Y-81981942D01*
X220322495Y-81886704D01*
X220322495Y-81696228D01*
X220370114Y-81600990D01*
X220417733Y-81553371D01*
X220512971Y-81505752D01*
X124234057Y-79552380D02*
X124567390Y-79076190D01*
X124805485Y-79552380D02*
X124805485Y-78552380D01*
X124424533Y-78552380D01*
X124329295Y-78600000D01*
X124281676Y-78647619D01*
X124234057Y-78742857D01*
X124234057Y-78885714D01*
X124281676Y-78980952D01*
X124329295Y-79028571D01*
X124424533Y-79076190D01*
X124805485Y-79076190D01*
X123281676Y-79552380D02*
X123853104Y-79552380D01*
X123567390Y-79552380D02*
X123567390Y-78552380D01*
X123662628Y-78695238D01*
X123757866Y-78790476D01*
X123853104Y-78838095D01*
X122948342Y-78552380D02*
X122281676Y-78552380D01*
X122710247Y-79552380D01*
X58942857Y-77552380D02*
X59276190Y-77076190D01*
X59514285Y-77552380D02*
X59514285Y-76552380D01*
X59133333Y-76552380D01*
X59038095Y-76600000D01*
X58990476Y-76647619D01*
X58942857Y-76742857D01*
X58942857Y-76885714D01*
X58990476Y-76980952D01*
X59038095Y-77028571D01*
X59133333Y-77076190D01*
X59514285Y-77076190D01*
X57990476Y-77552380D02*
X58561904Y-77552380D01*
X58276190Y-77552380D02*
X58276190Y-76552380D01*
X58371428Y-76695238D01*
X58466666Y-76790476D01*
X58561904Y-76838095D01*
X57133333Y-76552380D02*
X57323809Y-76552380D01*
X57419047Y-76600000D01*
X57466666Y-76647619D01*
X57561904Y-76790476D01*
X57609523Y-76980952D01*
X57609523Y-77361904D01*
X57561904Y-77457142D01*
X57514285Y-77504761D01*
X57419047Y-77552380D01*
X57228571Y-77552380D01*
X57133333Y-77504761D01*
X57085714Y-77457142D01*
X57038095Y-77361904D01*
X57038095Y-77123809D01*
X57085714Y-77028571D01*
X57133333Y-76980952D01*
X57228571Y-76933333D01*
X57419047Y-76933333D01*
X57514285Y-76980952D01*
X57561904Y-77028571D01*
X57609523Y-77123809D01*
X169542857Y-81552380D02*
X169876190Y-81076190D01*
X170114285Y-81552380D02*
X170114285Y-80552380D01*
X169733333Y-80552380D01*
X169638095Y-80600000D01*
X169590476Y-80647619D01*
X169542857Y-80742857D01*
X169542857Y-80885714D01*
X169590476Y-80980952D01*
X169638095Y-81028571D01*
X169733333Y-81076190D01*
X170114285Y-81076190D01*
X168590476Y-81552380D02*
X169161904Y-81552380D01*
X168876190Y-81552380D02*
X168876190Y-80552380D01*
X168971428Y-80695238D01*
X169066666Y-80790476D01*
X169161904Y-80838095D01*
X167685714Y-80552380D02*
X168161904Y-80552380D01*
X168209523Y-81028571D01*
X168161904Y-80980952D01*
X168066666Y-80933333D01*
X167828571Y-80933333D01*
X167733333Y-80980952D01*
X167685714Y-81028571D01*
X167638095Y-81123809D01*
X167638095Y-81361904D01*
X167685714Y-81457142D01*
X167733333Y-81504761D01*
X167828571Y-81552380D01*
X168066666Y-81552380D01*
X168161904Y-81504761D01*
X168209523Y-81457142D01*
X50742857Y-80352380D02*
X51076190Y-79876190D01*
X51314285Y-80352380D02*
X51314285Y-79352380D01*
X50933333Y-79352380D01*
X50838095Y-79400000D01*
X50790476Y-79447619D01*
X50742857Y-79542857D01*
X50742857Y-79685714D01*
X50790476Y-79780952D01*
X50838095Y-79828571D01*
X50933333Y-79876190D01*
X51314285Y-79876190D01*
X49790476Y-80352380D02*
X50361904Y-80352380D01*
X50076190Y-80352380D02*
X50076190Y-79352380D01*
X50171428Y-79495238D01*
X50266666Y-79590476D01*
X50361904Y-79638095D01*
X48933333Y-79685714D02*
X48933333Y-80352380D01*
X49171428Y-79304761D02*
X49409523Y-80019047D01*
X48790476Y-80019047D01*
X161542857Y-84652380D02*
X161876190Y-84176190D01*
X162114285Y-84652380D02*
X162114285Y-83652380D01*
X161733333Y-83652380D01*
X161638095Y-83700000D01*
X161590476Y-83747619D01*
X161542857Y-83842857D01*
X161542857Y-83985714D01*
X161590476Y-84080952D01*
X161638095Y-84128571D01*
X161733333Y-84176190D01*
X162114285Y-84176190D01*
X160590476Y-84652380D02*
X161161904Y-84652380D01*
X160876190Y-84652380D02*
X160876190Y-83652380D01*
X160971428Y-83795238D01*
X161066666Y-83890476D01*
X161161904Y-83938095D01*
X160257142Y-83652380D02*
X159638095Y-83652380D01*
X159971428Y-84033333D01*
X159828571Y-84033333D01*
X159733333Y-84080952D01*
X159685714Y-84128571D01*
X159638095Y-84223809D01*
X159638095Y-84461904D01*
X159685714Y-84557142D01*
X159733333Y-84604761D01*
X159828571Y-84652380D01*
X160114285Y-84652380D01*
X160209523Y-84604761D01*
X160257142Y-84557142D01*
X58742857Y-83752380D02*
X59076190Y-83276190D01*
X59314285Y-83752380D02*
X59314285Y-82752380D01*
X58933333Y-82752380D01*
X58838095Y-82800000D01*
X58790476Y-82847619D01*
X58742857Y-82942857D01*
X58742857Y-83085714D01*
X58790476Y-83180952D01*
X58838095Y-83228571D01*
X58933333Y-83276190D01*
X59314285Y-83276190D01*
X57790476Y-83752380D02*
X58361904Y-83752380D01*
X58076190Y-83752380D02*
X58076190Y-82752380D01*
X58171428Y-82895238D01*
X58266666Y-82990476D01*
X58361904Y-83038095D01*
X57409523Y-82847619D02*
X57361904Y-82800000D01*
X57266666Y-82752380D01*
X57028571Y-82752380D01*
X56933333Y-82800000D01*
X56885714Y-82847619D01*
X56838095Y-82942857D01*
X56838095Y-83038095D01*
X56885714Y-83180952D01*
X57457142Y-83752380D01*
X56838095Y-83752380D01*
X169801657Y-87612380D02*
X170134990Y-87136190D01*
X170373085Y-87612380D02*
X170373085Y-86612380D01*
X169992133Y-86612380D01*
X169896895Y-86660000D01*
X169849276Y-86707619D01*
X169801657Y-86802857D01*
X169801657Y-86945714D01*
X169849276Y-87040952D01*
X169896895Y-87088571D01*
X169992133Y-87136190D01*
X170373085Y-87136190D01*
X168849276Y-87612380D02*
X169420704Y-87612380D01*
X169134990Y-87612380D02*
X169134990Y-86612380D01*
X169230228Y-86755238D01*
X169325466Y-86850476D01*
X169420704Y-86898095D01*
X167896895Y-87612380D02*
X168468323Y-87612380D01*
X168182609Y-87612380D02*
X168182609Y-86612380D01*
X168277847Y-86755238D01*
X168373085Y-86850476D01*
X168468323Y-86898095D01*
X50642857Y-83152380D02*
X50976190Y-82676190D01*
X51214285Y-83152380D02*
X51214285Y-82152380D01*
X50833333Y-82152380D01*
X50738095Y-82200000D01*
X50690476Y-82247619D01*
X50642857Y-82342857D01*
X50642857Y-82485714D01*
X50690476Y-82580952D01*
X50738095Y-82628571D01*
X50833333Y-82676190D01*
X51214285Y-82676190D01*
X49690476Y-83152380D02*
X50261904Y-83152380D01*
X49976190Y-83152380D02*
X49976190Y-82152380D01*
X50071428Y-82295238D01*
X50166666Y-82390476D01*
X50261904Y-82438095D01*
X49071428Y-82152380D02*
X48976190Y-82152380D01*
X48880952Y-82200000D01*
X48833333Y-82247619D01*
X48785714Y-82342857D01*
X48738095Y-82533333D01*
X48738095Y-82771428D01*
X48785714Y-82961904D01*
X48833333Y-83057142D01*
X48880952Y-83104761D01*
X48976190Y-83152380D01*
X49071428Y-83152380D01*
X49166666Y-83104761D01*
X49214285Y-83057142D01*
X49261904Y-82961904D01*
X49309523Y-82771428D01*
X49309523Y-82533333D01*
X49261904Y-82342857D01*
X49214285Y-82247619D01*
X49166666Y-82200000D01*
X49071428Y-82152380D01*
X161566666Y-87352380D02*
X161900000Y-86876190D01*
X162138095Y-87352380D02*
X162138095Y-86352380D01*
X161757142Y-86352380D01*
X161661904Y-86400000D01*
X161614285Y-86447619D01*
X161566666Y-86542857D01*
X161566666Y-86685714D01*
X161614285Y-86780952D01*
X161661904Y-86828571D01*
X161757142Y-86876190D01*
X162138095Y-86876190D01*
X161090476Y-87352380D02*
X160900000Y-87352380D01*
X160804761Y-87304761D01*
X160757142Y-87257142D01*
X160661904Y-87114285D01*
X160614285Y-86923809D01*
X160614285Y-86542857D01*
X160661904Y-86447619D01*
X160709523Y-86400000D01*
X160804761Y-86352380D01*
X160995238Y-86352380D01*
X161090476Y-86400000D01*
X161138095Y-86447619D01*
X161185714Y-86542857D01*
X161185714Y-86780952D01*
X161138095Y-86876190D01*
X161090476Y-86923809D01*
X160995238Y-86971428D01*
X160804761Y-86971428D01*
X160709523Y-86923809D01*
X160661904Y-86876190D01*
X160614285Y-86780952D01*
X74866666Y-84752380D02*
X75200000Y-84276190D01*
X75438095Y-84752380D02*
X75438095Y-83752380D01*
X75057142Y-83752380D01*
X74961904Y-83800000D01*
X74914285Y-83847619D01*
X74866666Y-83942857D01*
X74866666Y-84085714D01*
X74914285Y-84180952D01*
X74961904Y-84228571D01*
X75057142Y-84276190D01*
X75438095Y-84276190D01*
X74295238Y-84180952D02*
X74390476Y-84133333D01*
X74438095Y-84085714D01*
X74485714Y-83990476D01*
X74485714Y-83942857D01*
X74438095Y-83847619D01*
X74390476Y-83800000D01*
X74295238Y-83752380D01*
X74104761Y-83752380D01*
X74009523Y-83800000D01*
X73961904Y-83847619D01*
X73914285Y-83942857D01*
X73914285Y-83990476D01*
X73961904Y-84085714D01*
X74009523Y-84133333D01*
X74104761Y-84180952D01*
X74295238Y-84180952D01*
X74390476Y-84228571D01*
X74438095Y-84276190D01*
X74485714Y-84371428D01*
X74485714Y-84561904D01*
X74438095Y-84657142D01*
X74390476Y-84704761D01*
X74295238Y-84752380D01*
X74104761Y-84752380D01*
X74009523Y-84704761D01*
X73961904Y-84657142D01*
X73914285Y-84561904D01*
X73914285Y-84371428D01*
X73961904Y-84276190D01*
X74009523Y-84228571D01*
X74104761Y-84180952D01*
X194866666Y-87452380D02*
X195200000Y-86976190D01*
X195438095Y-87452380D02*
X195438095Y-86452380D01*
X195057142Y-86452380D01*
X194961904Y-86500000D01*
X194914285Y-86547619D01*
X194866666Y-86642857D01*
X194866666Y-86785714D01*
X194914285Y-86880952D01*
X194961904Y-86928571D01*
X195057142Y-86976190D01*
X195438095Y-86976190D01*
X194533333Y-86452380D02*
X193866666Y-86452380D01*
X194295238Y-87452380D01*
X82666666Y-81852380D02*
X83000000Y-81376190D01*
X83238095Y-81852380D02*
X83238095Y-80852380D01*
X82857142Y-80852380D01*
X82761904Y-80900000D01*
X82714285Y-80947619D01*
X82666666Y-81042857D01*
X82666666Y-81185714D01*
X82714285Y-81280952D01*
X82761904Y-81328571D01*
X82857142Y-81376190D01*
X83238095Y-81376190D01*
X81809523Y-80852380D02*
X82000000Y-80852380D01*
X82095238Y-80900000D01*
X82142857Y-80947619D01*
X82238095Y-81090476D01*
X82285714Y-81280952D01*
X82285714Y-81661904D01*
X82238095Y-81757142D01*
X82190476Y-81804761D01*
X82095238Y-81852380D01*
X81904761Y-81852380D01*
X81809523Y-81804761D01*
X81761904Y-81757142D01*
X81714285Y-81661904D01*
X81714285Y-81423809D01*
X81761904Y-81328571D01*
X81809523Y-81280952D01*
X81904761Y-81233333D01*
X82095238Y-81233333D01*
X82190476Y-81280952D01*
X82238095Y-81328571D01*
X82285714Y-81423809D01*
X186766666Y-88052380D02*
X187100000Y-87576190D01*
X187338095Y-88052380D02*
X187338095Y-87052380D01*
X186957142Y-87052380D01*
X186861904Y-87100000D01*
X186814285Y-87147619D01*
X186766666Y-87242857D01*
X186766666Y-87385714D01*
X186814285Y-87480952D01*
X186861904Y-87528571D01*
X186957142Y-87576190D01*
X187338095Y-87576190D01*
X185861904Y-87052380D02*
X186338095Y-87052380D01*
X186385714Y-87528571D01*
X186338095Y-87480952D01*
X186242857Y-87433333D01*
X186004761Y-87433333D01*
X185909523Y-87480952D01*
X185861904Y-87528571D01*
X185814285Y-87623809D01*
X185814285Y-87861904D01*
X185861904Y-87957142D01*
X185909523Y-88004761D01*
X186004761Y-88052380D01*
X186242857Y-88052380D01*
X186338095Y-88004761D01*
X186385714Y-87957142D01*
X74966666Y-78552380D02*
X75300000Y-78076190D01*
X75538095Y-78552380D02*
X75538095Y-77552380D01*
X75157142Y-77552380D01*
X75061904Y-77600000D01*
X75014285Y-77647619D01*
X74966666Y-77742857D01*
X74966666Y-77885714D01*
X75014285Y-77980952D01*
X75061904Y-78028571D01*
X75157142Y-78076190D01*
X75538095Y-78076190D01*
X74109523Y-77885714D02*
X74109523Y-78552380D01*
X74347619Y-77504761D02*
X74585714Y-78219047D01*
X73966666Y-78219047D01*
X195066666Y-84752380D02*
X195400000Y-84276190D01*
X195638095Y-84752380D02*
X195638095Y-83752380D01*
X195257142Y-83752380D01*
X195161904Y-83800000D01*
X195114285Y-83847619D01*
X195066666Y-83942857D01*
X195066666Y-84085714D01*
X195114285Y-84180952D01*
X195161904Y-84228571D01*
X195257142Y-84276190D01*
X195638095Y-84276190D01*
X194733333Y-83752380D02*
X194114285Y-83752380D01*
X194447619Y-84133333D01*
X194304761Y-84133333D01*
X194209523Y-84180952D01*
X194161904Y-84228571D01*
X194114285Y-84323809D01*
X194114285Y-84561904D01*
X194161904Y-84657142D01*
X194209523Y-84704761D01*
X194304761Y-84752380D01*
X194590476Y-84752380D01*
X194685714Y-84704761D01*
X194733333Y-84657142D01*
X82866666Y-79152380D02*
X83200000Y-78676190D01*
X83438095Y-79152380D02*
X83438095Y-78152380D01*
X83057142Y-78152380D01*
X82961904Y-78200000D01*
X82914285Y-78247619D01*
X82866666Y-78342857D01*
X82866666Y-78485714D01*
X82914285Y-78580952D01*
X82961904Y-78628571D01*
X83057142Y-78676190D01*
X83438095Y-78676190D01*
X82485714Y-78247619D02*
X82438095Y-78200000D01*
X82342857Y-78152380D01*
X82104761Y-78152380D01*
X82009523Y-78200000D01*
X81961904Y-78247619D01*
X81914285Y-78342857D01*
X81914285Y-78438095D01*
X81961904Y-78580952D01*
X82533333Y-79152380D01*
X81914285Y-79152380D01*
X187054666Y-81873980D02*
X187388000Y-81397790D01*
X187626095Y-81873980D02*
X187626095Y-80873980D01*
X187245142Y-80873980D01*
X187149904Y-80921600D01*
X187102285Y-80969219D01*
X187054666Y-81064457D01*
X187054666Y-81207314D01*
X187102285Y-81302552D01*
X187149904Y-81350171D01*
X187245142Y-81397790D01*
X187626095Y-81397790D01*
X186102285Y-81873980D02*
X186673714Y-81873980D01*
X186388000Y-81873980D02*
X186388000Y-80873980D01*
X186483238Y-81016838D01*
X186578476Y-81112076D01*
X186673714Y-81159695D01*
X66861866Y-72198342D02*
X66909485Y-72245961D01*
X67052342Y-72293580D01*
X67147580Y-72293580D01*
X67290438Y-72245961D01*
X67385676Y-72150723D01*
X67433295Y-72055485D01*
X67480914Y-71865009D01*
X67480914Y-71722152D01*
X67433295Y-71531676D01*
X67385676Y-71436438D01*
X67290438Y-71341200D01*
X67147580Y-71293580D01*
X67052342Y-71293580D01*
X66909485Y-71341200D01*
X66861866Y-71388819D01*
X66004723Y-71626914D02*
X66004723Y-72293580D01*
X66242819Y-71245961D02*
X66480914Y-71960247D01*
X65861866Y-71960247D01*
X214080266Y-76871942D02*
X214127885Y-76919561D01*
X214270742Y-76967180D01*
X214365980Y-76967180D01*
X214508838Y-76919561D01*
X214604076Y-76824323D01*
X214651695Y-76729085D01*
X214699314Y-76538609D01*
X214699314Y-76395752D01*
X214651695Y-76205276D01*
X214604076Y-76110038D01*
X214508838Y-76014800D01*
X214365980Y-75967180D01*
X214270742Y-75967180D01*
X214127885Y-76014800D01*
X214080266Y-76062419D01*
X213746933Y-75967180D02*
X213127885Y-75967180D01*
X213461219Y-76348133D01*
X213318361Y-76348133D01*
X213223123Y-76395752D01*
X213175504Y-76443371D01*
X213127885Y-76538609D01*
X213127885Y-76776704D01*
X213175504Y-76871942D01*
X213223123Y-76919561D01*
X213318361Y-76967180D01*
X213604076Y-76967180D01*
X213699314Y-76919561D01*
X213746933Y-76871942D01*
X177961466Y-75906742D02*
X178009085Y-75954361D01*
X178151942Y-76001980D01*
X178247180Y-76001980D01*
X178390038Y-75954361D01*
X178485276Y-75859123D01*
X178532895Y-75763885D01*
X178580514Y-75573409D01*
X178580514Y-75430552D01*
X178532895Y-75240076D01*
X178485276Y-75144838D01*
X178390038Y-75049600D01*
X178247180Y-75001980D01*
X178151942Y-75001980D01*
X178009085Y-75049600D01*
X177961466Y-75097219D01*
X177580514Y-75097219D02*
X177532895Y-75049600D01*
X177437657Y-75001980D01*
X177199561Y-75001980D01*
X177104323Y-75049600D01*
X177056704Y-75097219D01*
X177009085Y-75192457D01*
X177009085Y-75287695D01*
X177056704Y-75430552D01*
X177628133Y-76001980D01*
X177009085Y-76001980D01*
X114185966Y-74179542D02*
X114233585Y-74227161D01*
X114376442Y-74274780D01*
X114471680Y-74274780D01*
X114614538Y-74227161D01*
X114709776Y-74131923D01*
X114757395Y-74036685D01*
X114805014Y-73846209D01*
X114805014Y-73703352D01*
X114757395Y-73512876D01*
X114709776Y-73417638D01*
X114614538Y-73322400D01*
X114471680Y-73274780D01*
X114376442Y-73274780D01*
X114233585Y-73322400D01*
X114185966Y-73370019D01*
X113233585Y-74274780D02*
X113805014Y-74274780D01*
X113519300Y-74274780D02*
X113519300Y-73274780D01*
X113614538Y-73417638D01*
X113709776Y-73512876D01*
X113805014Y-73560495D01*
M02*
