M48
; DRILL file {KiCad 5.1.5+dfsg1-2build2} date Sat 04 May 2024 05:39:37 BST
; FORMAT={-:-/ absolute / inch / decimal}
; #@! TF.CreationDate,2024-05-04T05:39:37+01:00
; #@! TF.GenerationSoftware,Kicad,Pcbnew,5.1.5+dfsg1-2build2
; #@! TF.FileFunction,Plated,1,2,PTH
FMAT,2
INCH
T1C0.0157
T2C0.1220
%
G90
G05
T1
X2.1498Y-3.0425
X2.1632Y-3.1465
X2.2518Y-2.8205
X2.3238Y-3.0005
X2.3352Y-3.0985
X2.3352Y-3.1985
X2.3678Y-2.8685
X2.4378Y-3.3025
X2.6118Y-3.4205
X2.6451Y-3.3372
X2.6678Y-2.2105
X2.7578Y-2.7505
X2.8269Y-2.8617
X2.8318Y-3.3267
X2.8518Y-2.8245
X2.9018Y-3.1485
X2.9024Y-3.2505
X3.0438Y-3.3145
X3.0738Y-3.1985
X3.1798Y-3.4285
X3.2118Y-2.6705
X3.5758Y-3.3305
X3.6238Y-3.8845
X3.7958Y-3.4005
X4.2158Y-3.304
X4.2858Y-3.3925
X4.3578Y-2.7805
X4.4338Y-2.6885
X4.5018Y-3.3845
X4.5778Y-2.8245
X4.6238Y-2.8805
X4.6498Y-3.3305
X4.6738Y-3.2305
X4.6898Y-3.1805
X4.7238Y-2.9005
X4.7438Y-3.2805
X4.9778Y-3.9065
X4.9898Y-3.4605
X5.3078Y-3.0825
X5.5798Y-3.5485
X6.0718Y-2.7925
X6.2158Y-3.5285
X6.2378Y-3.6125
X6.2738Y-4.4305
X6.3058Y-3.4885
X6.3198Y-3.5345
X6.3698Y-2.9545
X6.3718Y-2.7965
X6.3838Y-3.0485
X6.4098Y-4.2285
X6.4478Y-3.2225
X6.5018Y-3.9165
X6.5318Y-3.5105
X6.5758Y-3.3185
X6.7618Y-3.4765
X6.7668Y-3.3675
X6.7958Y-3.5065
X6.9998Y-3.1765
X7.0058Y-3.3665
X7.0418Y-3.2525
X7.0718Y-3.3665
X7.0778Y-2.8765
X7.1968Y-3.3175
X7.3698Y-3.8205
X7.4238Y-3.439
X7.6358Y-3.2065
X7.7718Y-3.4905
X7.8378Y-3.2405
X7.8478Y-2.9485
X7.9138Y-2.8045
X8.0078Y-2.9385
X8.0098Y-3.5825
X8.0658Y-3.6125
X8.0744Y-3.3785
X8.0838Y-3.1325
X8.0858Y-2.9085
X8.2578Y-2.0865
X8.4098Y-3.6065
X8.4178Y-3.3445
X8.4318Y-3.4225
X8.5598Y-3.6485
X8.576Y-3.4293
X8.6046Y-3.3293
X8.6538Y-3.3785
X8.7798Y-1.8505
X8.8398Y-3.0585
T2
X1.5315Y-1.9961
X1.5315Y-5.3228
X5.6457Y-1.9961
X5.6457Y-5.3228
X9.7598Y-1.9961
X9.7598Y-5.3228
T0
M30
