G04 #@! TF.GenerationSoftware,KiCad,Pcbnew,5.1.5+dfsg1-2build2*
G04 #@! TF.CreationDate,2024-05-03T20:30:25+01:00*
G04 #@! TF.ProjectId,touch_kb1,746f7563-685f-46b6-9231-2e6b69636164,rev?*
G04 #@! TF.SameCoordinates,Original*
G04 #@! TF.FileFunction,Legend,Bot*
G04 #@! TF.FilePolarity,Positive*
%FSLAX46Y46*%
G04 Gerber Fmt 4.6, Leading zero omitted, Abs format (unit mm)*
G04 Created by KiCad (PCBNEW 5.1.5+dfsg1-2build2) date 2024-05-03 20:30:25*
%MOMM*%
%LPD*%
G04 APERTURE LIST*
%ADD10C,0.120000*%
%ADD11C,0.150000*%
G04 APERTURE END LIST*
D10*
X213900000Y-90260000D02*
X210450000Y-90260000D01*
X213900000Y-90260000D02*
X215850000Y-90260000D01*
X213900000Y-80140000D02*
X211950000Y-80140000D01*
X213900000Y-80140000D02*
X215850000Y-80140000D01*
X113900000Y-87760000D02*
X110450000Y-87760000D01*
X113900000Y-87760000D02*
X115850000Y-87760000D01*
X113900000Y-77640000D02*
X111950000Y-77640000D01*
X113900000Y-77640000D02*
X115850000Y-77640000D01*
X66787200Y-85658400D02*
X63337200Y-85658400D01*
X66787200Y-85658400D02*
X68737200Y-85658400D01*
X66787200Y-75538400D02*
X64837200Y-75538400D01*
X66787200Y-75538400D02*
X68737200Y-75538400D01*
X178200000Y-89960000D02*
X174750000Y-89960000D01*
X178200000Y-89960000D02*
X180150000Y-89960000D01*
X178200000Y-79840000D02*
X176250000Y-79840000D01*
X178200000Y-79840000D02*
X180150000Y-79840000D01*
X205914136Y-82539800D02*
X206368264Y-82539800D01*
X205914136Y-84009800D02*
X206368264Y-84009800D01*
X106346136Y-80050600D02*
X106800264Y-80050600D01*
X106346136Y-81520600D02*
X106800264Y-81520600D01*
X200986536Y-83860600D02*
X201440664Y-83860600D01*
X200986536Y-85330600D02*
X201440664Y-85330600D01*
X101875736Y-81320600D02*
X102329864Y-81320600D01*
X101875736Y-82790600D02*
X102329864Y-82790600D01*
X205863336Y-85079800D02*
X206317464Y-85079800D01*
X205863336Y-86549800D02*
X206317464Y-86549800D01*
X106295336Y-82539800D02*
X106749464Y-82539800D01*
X106295336Y-84009800D02*
X106749464Y-84009800D01*
X201037336Y-86400600D02*
X201491464Y-86400600D01*
X201037336Y-87870600D02*
X201491464Y-87870600D01*
X101875736Y-83911400D02*
X102329864Y-83911400D01*
X101875736Y-85381400D02*
X102329864Y-85381400D01*
X226535864Y-87819800D02*
X226081736Y-87819800D01*
X226535864Y-86349800D02*
X226081736Y-86349800D01*
X127831464Y-85330600D02*
X127377336Y-85330600D01*
X127831464Y-83860600D02*
X127377336Y-83860600D01*
X221760664Y-86549800D02*
X221306536Y-86549800D01*
X221760664Y-85079800D02*
X221306536Y-85079800D01*
X123818264Y-84060600D02*
X123364136Y-84060600D01*
X123818264Y-82590600D02*
X123364136Y-82590600D01*
X226535864Y-85229000D02*
X226081736Y-85229000D01*
X226535864Y-83759000D02*
X226081736Y-83759000D01*
X127780664Y-82790600D02*
X127326536Y-82790600D01*
X127780664Y-81320600D02*
X127326536Y-81320600D01*
X221811464Y-84009800D02*
X221357336Y-84009800D01*
X221811464Y-82539800D02*
X221357336Y-82539800D01*
X123818264Y-81520600D02*
X123364136Y-81520600D01*
X123818264Y-80050600D02*
X123364136Y-80050600D01*
X58086136Y-77967800D02*
X58540264Y-77967800D01*
X58086136Y-79437800D02*
X58540264Y-79437800D01*
X168931736Y-82285800D02*
X169385864Y-82285800D01*
X168931736Y-83755800D02*
X169385864Y-83755800D01*
X53717336Y-79187000D02*
X54171464Y-79187000D01*
X53717336Y-80657000D02*
X54171464Y-80657000D01*
X164410536Y-83454200D02*
X164864664Y-83454200D01*
X164410536Y-84924200D02*
X164864664Y-84924200D01*
X58086136Y-80507800D02*
X58540264Y-80507800D01*
X58086136Y-81977800D02*
X58540264Y-81977800D01*
X168931736Y-84775000D02*
X169385864Y-84775000D01*
X168931736Y-86245000D02*
X169385864Y-86245000D01*
X53717336Y-81828600D02*
X54171464Y-81828600D01*
X53717336Y-83298600D02*
X54171464Y-83298600D01*
X164410536Y-86045000D02*
X164864664Y-86045000D01*
X164410536Y-87515000D02*
X164864664Y-87515000D01*
X74948664Y-83298600D02*
X74494536Y-83298600D01*
X74948664Y-81828600D02*
X74494536Y-81828600D01*
X191636264Y-87718200D02*
X191182136Y-87718200D01*
X191636264Y-86248200D02*
X191182136Y-86248200D01*
X79301464Y-81977800D02*
X78847336Y-81977800D01*
X79301464Y-80507800D02*
X78847336Y-80507800D01*
X187165864Y-86295800D02*
X186711736Y-86295800D01*
X187165864Y-84825800D02*
X186711736Y-84825800D01*
X74932664Y-80707800D02*
X74478536Y-80707800D01*
X74932664Y-79237800D02*
X74478536Y-79237800D01*
X191636264Y-85025800D02*
X191182136Y-85025800D01*
X191636264Y-83555800D02*
X191182136Y-83555800D01*
X79266664Y-79437800D02*
X78812536Y-79437800D01*
X79266664Y-77967800D02*
X78812536Y-77967800D01*
X187115064Y-83806600D02*
X186660936Y-83806600D01*
X187115064Y-82336600D02*
X186660936Y-82336600D01*
X66956452Y-74256200D02*
X66433948Y-74256200D01*
X66956452Y-72786200D02*
X66433948Y-72786200D01*
X214174852Y-78929800D02*
X213652348Y-78929800D01*
X214174852Y-77459800D02*
X213652348Y-77459800D01*
X178056052Y-77964600D02*
X177533548Y-77964600D01*
X178056052Y-76494600D02*
X177533548Y-76494600D01*
X114280552Y-76237400D02*
X113758048Y-76237400D01*
X114280552Y-74767400D02*
X113758048Y-74767400D01*
D11*
X214661904Y-90552380D02*
X214661904Y-91361904D01*
X214614285Y-91457142D01*
X214566666Y-91504761D01*
X214471428Y-91552380D01*
X214280952Y-91552380D01*
X214185714Y-91504761D01*
X214138095Y-91457142D01*
X214090476Y-91361904D01*
X214090476Y-90552380D01*
X213185714Y-90885714D02*
X213185714Y-91552380D01*
X213423809Y-90504761D02*
X213661904Y-91219047D01*
X213042857Y-91219047D01*
X114661904Y-88052380D02*
X114661904Y-88861904D01*
X114614285Y-88957142D01*
X114566666Y-89004761D01*
X114471428Y-89052380D01*
X114280952Y-89052380D01*
X114185714Y-89004761D01*
X114138095Y-88957142D01*
X114090476Y-88861904D01*
X114090476Y-88052380D01*
X113709523Y-88052380D02*
X113090476Y-88052380D01*
X113423809Y-88433333D01*
X113280952Y-88433333D01*
X113185714Y-88480952D01*
X113138095Y-88528571D01*
X113090476Y-88623809D01*
X113090476Y-88861904D01*
X113138095Y-88957142D01*
X113185714Y-89004761D01*
X113280952Y-89052380D01*
X113566666Y-89052380D01*
X113661904Y-89004761D01*
X113709523Y-88957142D01*
X67549104Y-85950780D02*
X67549104Y-86760304D01*
X67501485Y-86855542D01*
X67453866Y-86903161D01*
X67358628Y-86950780D01*
X67168152Y-86950780D01*
X67072914Y-86903161D01*
X67025295Y-86855542D01*
X66977676Y-86760304D01*
X66977676Y-85950780D01*
X66549104Y-86046019D02*
X66501485Y-85998400D01*
X66406247Y-85950780D01*
X66168152Y-85950780D01*
X66072914Y-85998400D01*
X66025295Y-86046019D01*
X65977676Y-86141257D01*
X65977676Y-86236495D01*
X66025295Y-86379352D01*
X66596723Y-86950780D01*
X65977676Y-86950780D01*
X178961904Y-90252380D02*
X178961904Y-91061904D01*
X178914285Y-91157142D01*
X178866666Y-91204761D01*
X178771428Y-91252380D01*
X178580952Y-91252380D01*
X178485714Y-91204761D01*
X178438095Y-91157142D01*
X178390476Y-91061904D01*
X178390476Y-90252380D01*
X177390476Y-91252380D02*
X177961904Y-91252380D01*
X177676190Y-91252380D02*
X177676190Y-90252380D01*
X177771428Y-90395238D01*
X177866666Y-90490476D01*
X177961904Y-90538095D01*
X206784057Y-85377180D02*
X207117390Y-84900990D01*
X207355485Y-85377180D02*
X207355485Y-84377180D01*
X206974533Y-84377180D01*
X206879295Y-84424800D01*
X206831676Y-84472419D01*
X206784057Y-84567657D01*
X206784057Y-84710514D01*
X206831676Y-84805752D01*
X206879295Y-84853371D01*
X206974533Y-84900990D01*
X207355485Y-84900990D01*
X206450723Y-84377180D02*
X205831676Y-84377180D01*
X206165009Y-84758133D01*
X206022152Y-84758133D01*
X205926914Y-84805752D01*
X205879295Y-84853371D01*
X205831676Y-84948609D01*
X205831676Y-85186704D01*
X205879295Y-85281942D01*
X205926914Y-85329561D01*
X206022152Y-85377180D01*
X206307866Y-85377180D01*
X206403104Y-85329561D01*
X206450723Y-85281942D01*
X205450723Y-84472419D02*
X205403104Y-84424800D01*
X205307866Y-84377180D01*
X205069771Y-84377180D01*
X204974533Y-84424800D01*
X204926914Y-84472419D01*
X204879295Y-84567657D01*
X204879295Y-84662895D01*
X204926914Y-84805752D01*
X205498342Y-85377180D01*
X204879295Y-85377180D01*
X107216057Y-82887980D02*
X107549390Y-82411790D01*
X107787485Y-82887980D02*
X107787485Y-81887980D01*
X107406533Y-81887980D01*
X107311295Y-81935600D01*
X107263676Y-81983219D01*
X107216057Y-82078457D01*
X107216057Y-82221314D01*
X107263676Y-82316552D01*
X107311295Y-82364171D01*
X107406533Y-82411790D01*
X107787485Y-82411790D01*
X106882723Y-81887980D02*
X106263676Y-81887980D01*
X106597009Y-82268933D01*
X106454152Y-82268933D01*
X106358914Y-82316552D01*
X106311295Y-82364171D01*
X106263676Y-82459409D01*
X106263676Y-82697504D01*
X106311295Y-82792742D01*
X106358914Y-82840361D01*
X106454152Y-82887980D01*
X106739866Y-82887980D01*
X106835104Y-82840361D01*
X106882723Y-82792742D01*
X105311295Y-82887980D02*
X105882723Y-82887980D01*
X105597009Y-82887980D02*
X105597009Y-81887980D01*
X105692247Y-82030838D01*
X105787485Y-82126076D01*
X105882723Y-82173695D01*
X201856457Y-86697980D02*
X202189790Y-86221790D01*
X202427885Y-86697980D02*
X202427885Y-85697980D01*
X202046933Y-85697980D01*
X201951695Y-85745600D01*
X201904076Y-85793219D01*
X201856457Y-85888457D01*
X201856457Y-86031314D01*
X201904076Y-86126552D01*
X201951695Y-86174171D01*
X202046933Y-86221790D01*
X202427885Y-86221790D01*
X201523123Y-85697980D02*
X200904076Y-85697980D01*
X201237409Y-86078933D01*
X201094552Y-86078933D01*
X200999314Y-86126552D01*
X200951695Y-86174171D01*
X200904076Y-86269409D01*
X200904076Y-86507504D01*
X200951695Y-86602742D01*
X200999314Y-86650361D01*
X201094552Y-86697980D01*
X201380266Y-86697980D01*
X201475504Y-86650361D01*
X201523123Y-86602742D01*
X200285028Y-85697980D02*
X200189790Y-85697980D01*
X200094552Y-85745600D01*
X200046933Y-85793219D01*
X199999314Y-85888457D01*
X199951695Y-86078933D01*
X199951695Y-86317028D01*
X199999314Y-86507504D01*
X200046933Y-86602742D01*
X200094552Y-86650361D01*
X200189790Y-86697980D01*
X200285028Y-86697980D01*
X200380266Y-86650361D01*
X200427885Y-86602742D01*
X200475504Y-86507504D01*
X200523123Y-86317028D01*
X200523123Y-86078933D01*
X200475504Y-85888457D01*
X200427885Y-85793219D01*
X200380266Y-85745600D01*
X200285028Y-85697980D01*
X102745657Y-84157980D02*
X103078990Y-83681790D01*
X103317085Y-84157980D02*
X103317085Y-83157980D01*
X102936133Y-83157980D01*
X102840895Y-83205600D01*
X102793276Y-83253219D01*
X102745657Y-83348457D01*
X102745657Y-83491314D01*
X102793276Y-83586552D01*
X102840895Y-83634171D01*
X102936133Y-83681790D01*
X103317085Y-83681790D01*
X102364704Y-83253219D02*
X102317085Y-83205600D01*
X102221847Y-83157980D01*
X101983752Y-83157980D01*
X101888514Y-83205600D01*
X101840895Y-83253219D01*
X101793276Y-83348457D01*
X101793276Y-83443695D01*
X101840895Y-83586552D01*
X102412323Y-84157980D01*
X101793276Y-84157980D01*
X101317085Y-84157980D02*
X101126609Y-84157980D01*
X101031371Y-84110361D01*
X100983752Y-84062742D01*
X100888514Y-83919885D01*
X100840895Y-83729409D01*
X100840895Y-83348457D01*
X100888514Y-83253219D01*
X100936133Y-83205600D01*
X101031371Y-83157980D01*
X101221847Y-83157980D01*
X101317085Y-83205600D01*
X101364704Y-83253219D01*
X101412323Y-83348457D01*
X101412323Y-83586552D01*
X101364704Y-83681790D01*
X101317085Y-83729409D01*
X101221847Y-83777028D01*
X101031371Y-83777028D01*
X100936133Y-83729409D01*
X100888514Y-83681790D01*
X100840895Y-83586552D01*
X206733257Y-87917180D02*
X207066590Y-87440990D01*
X207304685Y-87917180D02*
X207304685Y-86917180D01*
X206923733Y-86917180D01*
X206828495Y-86964800D01*
X206780876Y-87012419D01*
X206733257Y-87107657D01*
X206733257Y-87250514D01*
X206780876Y-87345752D01*
X206828495Y-87393371D01*
X206923733Y-87440990D01*
X207304685Y-87440990D01*
X206352304Y-87012419D02*
X206304685Y-86964800D01*
X206209447Y-86917180D01*
X205971352Y-86917180D01*
X205876114Y-86964800D01*
X205828495Y-87012419D01*
X205780876Y-87107657D01*
X205780876Y-87202895D01*
X205828495Y-87345752D01*
X206399923Y-87917180D01*
X205780876Y-87917180D01*
X205209447Y-87345752D02*
X205304685Y-87298133D01*
X205352304Y-87250514D01*
X205399923Y-87155276D01*
X205399923Y-87107657D01*
X205352304Y-87012419D01*
X205304685Y-86964800D01*
X205209447Y-86917180D01*
X205018971Y-86917180D01*
X204923733Y-86964800D01*
X204876114Y-87012419D01*
X204828495Y-87107657D01*
X204828495Y-87155276D01*
X204876114Y-87250514D01*
X204923733Y-87298133D01*
X205018971Y-87345752D01*
X205209447Y-87345752D01*
X205304685Y-87393371D01*
X205352304Y-87440990D01*
X205399923Y-87536228D01*
X205399923Y-87726704D01*
X205352304Y-87821942D01*
X205304685Y-87869561D01*
X205209447Y-87917180D01*
X205018971Y-87917180D01*
X204923733Y-87869561D01*
X204876114Y-87821942D01*
X204828495Y-87726704D01*
X204828495Y-87536228D01*
X204876114Y-87440990D01*
X204923733Y-87393371D01*
X205018971Y-87345752D01*
X107165257Y-85377180D02*
X107498590Y-84900990D01*
X107736685Y-85377180D02*
X107736685Y-84377180D01*
X107355733Y-84377180D01*
X107260495Y-84424800D01*
X107212876Y-84472419D01*
X107165257Y-84567657D01*
X107165257Y-84710514D01*
X107212876Y-84805752D01*
X107260495Y-84853371D01*
X107355733Y-84900990D01*
X107736685Y-84900990D01*
X106784304Y-84472419D02*
X106736685Y-84424800D01*
X106641447Y-84377180D01*
X106403352Y-84377180D01*
X106308114Y-84424800D01*
X106260495Y-84472419D01*
X106212876Y-84567657D01*
X106212876Y-84662895D01*
X106260495Y-84805752D01*
X106831923Y-85377180D01*
X106212876Y-85377180D01*
X105879542Y-84377180D02*
X105212876Y-84377180D01*
X105641447Y-85377180D01*
X201907257Y-89237980D02*
X202240590Y-88761790D01*
X202478685Y-89237980D02*
X202478685Y-88237980D01*
X202097733Y-88237980D01*
X202002495Y-88285600D01*
X201954876Y-88333219D01*
X201907257Y-88428457D01*
X201907257Y-88571314D01*
X201954876Y-88666552D01*
X202002495Y-88714171D01*
X202097733Y-88761790D01*
X202478685Y-88761790D01*
X201526304Y-88333219D02*
X201478685Y-88285600D01*
X201383447Y-88237980D01*
X201145352Y-88237980D01*
X201050114Y-88285600D01*
X201002495Y-88333219D01*
X200954876Y-88428457D01*
X200954876Y-88523695D01*
X201002495Y-88666552D01*
X201573923Y-89237980D01*
X200954876Y-89237980D01*
X200097733Y-88237980D02*
X200288209Y-88237980D01*
X200383447Y-88285600D01*
X200431066Y-88333219D01*
X200526304Y-88476076D01*
X200573923Y-88666552D01*
X200573923Y-89047504D01*
X200526304Y-89142742D01*
X200478685Y-89190361D01*
X200383447Y-89237980D01*
X200192971Y-89237980D01*
X200097733Y-89190361D01*
X200050114Y-89142742D01*
X200002495Y-89047504D01*
X200002495Y-88809409D01*
X200050114Y-88714171D01*
X200097733Y-88666552D01*
X200192971Y-88618933D01*
X200383447Y-88618933D01*
X200478685Y-88666552D01*
X200526304Y-88714171D01*
X200573923Y-88809409D01*
X102745657Y-86748780D02*
X103078990Y-86272590D01*
X103317085Y-86748780D02*
X103317085Y-85748780D01*
X102936133Y-85748780D01*
X102840895Y-85796400D01*
X102793276Y-85844019D01*
X102745657Y-85939257D01*
X102745657Y-86082114D01*
X102793276Y-86177352D01*
X102840895Y-86224971D01*
X102936133Y-86272590D01*
X103317085Y-86272590D01*
X102364704Y-85844019D02*
X102317085Y-85796400D01*
X102221847Y-85748780D01*
X101983752Y-85748780D01*
X101888514Y-85796400D01*
X101840895Y-85844019D01*
X101793276Y-85939257D01*
X101793276Y-86034495D01*
X101840895Y-86177352D01*
X102412323Y-86748780D01*
X101793276Y-86748780D01*
X100888514Y-85748780D02*
X101364704Y-85748780D01*
X101412323Y-86224971D01*
X101364704Y-86177352D01*
X101269466Y-86129733D01*
X101031371Y-86129733D01*
X100936133Y-86177352D01*
X100888514Y-86224971D01*
X100840895Y-86320209D01*
X100840895Y-86558304D01*
X100888514Y-86653542D01*
X100936133Y-86701161D01*
X101031371Y-86748780D01*
X101269466Y-86748780D01*
X101364704Y-86701161D01*
X101412323Y-86653542D01*
X226951657Y-85887180D02*
X227284990Y-85410990D01*
X227523085Y-85887180D02*
X227523085Y-84887180D01*
X227142133Y-84887180D01*
X227046895Y-84934800D01*
X226999276Y-84982419D01*
X226951657Y-85077657D01*
X226951657Y-85220514D01*
X226999276Y-85315752D01*
X227046895Y-85363371D01*
X227142133Y-85410990D01*
X227523085Y-85410990D01*
X226570704Y-84982419D02*
X226523085Y-84934800D01*
X226427847Y-84887180D01*
X226189752Y-84887180D01*
X226094514Y-84934800D01*
X226046895Y-84982419D01*
X225999276Y-85077657D01*
X225999276Y-85172895D01*
X226046895Y-85315752D01*
X226618323Y-85887180D01*
X225999276Y-85887180D01*
X225142133Y-85220514D02*
X225142133Y-85887180D01*
X225380228Y-84839561D02*
X225618323Y-85553847D01*
X224999276Y-85553847D01*
X128247257Y-83397980D02*
X128580590Y-82921790D01*
X128818685Y-83397980D02*
X128818685Y-82397980D01*
X128437733Y-82397980D01*
X128342495Y-82445600D01*
X128294876Y-82493219D01*
X128247257Y-82588457D01*
X128247257Y-82731314D01*
X128294876Y-82826552D01*
X128342495Y-82874171D01*
X128437733Y-82921790D01*
X128818685Y-82921790D01*
X127866304Y-82493219D02*
X127818685Y-82445600D01*
X127723447Y-82397980D01*
X127485352Y-82397980D01*
X127390114Y-82445600D01*
X127342495Y-82493219D01*
X127294876Y-82588457D01*
X127294876Y-82683695D01*
X127342495Y-82826552D01*
X127913923Y-83397980D01*
X127294876Y-83397980D01*
X126961542Y-82397980D02*
X126342495Y-82397980D01*
X126675828Y-82778933D01*
X126532971Y-82778933D01*
X126437733Y-82826552D01*
X126390114Y-82874171D01*
X126342495Y-82969409D01*
X126342495Y-83207504D01*
X126390114Y-83302742D01*
X126437733Y-83350361D01*
X126532971Y-83397980D01*
X126818685Y-83397980D01*
X126913923Y-83350361D01*
X126961542Y-83302742D01*
X222176457Y-84617180D02*
X222509790Y-84140990D01*
X222747885Y-84617180D02*
X222747885Y-83617180D01*
X222366933Y-83617180D01*
X222271695Y-83664800D01*
X222224076Y-83712419D01*
X222176457Y-83807657D01*
X222176457Y-83950514D01*
X222224076Y-84045752D01*
X222271695Y-84093371D01*
X222366933Y-84140990D01*
X222747885Y-84140990D01*
X221795504Y-83712419D02*
X221747885Y-83664800D01*
X221652647Y-83617180D01*
X221414552Y-83617180D01*
X221319314Y-83664800D01*
X221271695Y-83712419D01*
X221224076Y-83807657D01*
X221224076Y-83902895D01*
X221271695Y-84045752D01*
X221843123Y-84617180D01*
X221224076Y-84617180D01*
X220843123Y-83712419D02*
X220795504Y-83664800D01*
X220700266Y-83617180D01*
X220462171Y-83617180D01*
X220366933Y-83664800D01*
X220319314Y-83712419D01*
X220271695Y-83807657D01*
X220271695Y-83902895D01*
X220319314Y-84045752D01*
X220890742Y-84617180D01*
X220271695Y-84617180D01*
X124234057Y-82127980D02*
X124567390Y-81651790D01*
X124805485Y-82127980D02*
X124805485Y-81127980D01*
X124424533Y-81127980D01*
X124329295Y-81175600D01*
X124281676Y-81223219D01*
X124234057Y-81318457D01*
X124234057Y-81461314D01*
X124281676Y-81556552D01*
X124329295Y-81604171D01*
X124424533Y-81651790D01*
X124805485Y-81651790D01*
X123853104Y-81223219D02*
X123805485Y-81175600D01*
X123710247Y-81127980D01*
X123472152Y-81127980D01*
X123376914Y-81175600D01*
X123329295Y-81223219D01*
X123281676Y-81318457D01*
X123281676Y-81413695D01*
X123329295Y-81556552D01*
X123900723Y-82127980D01*
X123281676Y-82127980D01*
X122329295Y-82127980D02*
X122900723Y-82127980D01*
X122615009Y-82127980D02*
X122615009Y-81127980D01*
X122710247Y-81270838D01*
X122805485Y-81366076D01*
X122900723Y-81413695D01*
X226951657Y-83296380D02*
X227284990Y-82820190D01*
X227523085Y-83296380D02*
X227523085Y-82296380D01*
X227142133Y-82296380D01*
X227046895Y-82344000D01*
X226999276Y-82391619D01*
X226951657Y-82486857D01*
X226951657Y-82629714D01*
X226999276Y-82724952D01*
X227046895Y-82772571D01*
X227142133Y-82820190D01*
X227523085Y-82820190D01*
X226570704Y-82391619D02*
X226523085Y-82344000D01*
X226427847Y-82296380D01*
X226189752Y-82296380D01*
X226094514Y-82344000D01*
X226046895Y-82391619D01*
X225999276Y-82486857D01*
X225999276Y-82582095D01*
X226046895Y-82724952D01*
X226618323Y-83296380D01*
X225999276Y-83296380D01*
X225380228Y-82296380D02*
X225284990Y-82296380D01*
X225189752Y-82344000D01*
X225142133Y-82391619D01*
X225094514Y-82486857D01*
X225046895Y-82677333D01*
X225046895Y-82915428D01*
X225094514Y-83105904D01*
X225142133Y-83201142D01*
X225189752Y-83248761D01*
X225284990Y-83296380D01*
X225380228Y-83296380D01*
X225475466Y-83248761D01*
X225523085Y-83201142D01*
X225570704Y-83105904D01*
X225618323Y-82915428D01*
X225618323Y-82677333D01*
X225570704Y-82486857D01*
X225523085Y-82391619D01*
X225475466Y-82344000D01*
X225380228Y-82296380D01*
X128196457Y-80857980D02*
X128529790Y-80381790D01*
X128767885Y-80857980D02*
X128767885Y-79857980D01*
X128386933Y-79857980D01*
X128291695Y-79905600D01*
X128244076Y-79953219D01*
X128196457Y-80048457D01*
X128196457Y-80191314D01*
X128244076Y-80286552D01*
X128291695Y-80334171D01*
X128386933Y-80381790D01*
X128767885Y-80381790D01*
X127244076Y-80857980D02*
X127815504Y-80857980D01*
X127529790Y-80857980D02*
X127529790Y-79857980D01*
X127625028Y-80000838D01*
X127720266Y-80096076D01*
X127815504Y-80143695D01*
X126767885Y-80857980D02*
X126577409Y-80857980D01*
X126482171Y-80810361D01*
X126434552Y-80762742D01*
X126339314Y-80619885D01*
X126291695Y-80429409D01*
X126291695Y-80048457D01*
X126339314Y-79953219D01*
X126386933Y-79905600D01*
X126482171Y-79857980D01*
X126672647Y-79857980D01*
X126767885Y-79905600D01*
X126815504Y-79953219D01*
X126863123Y-80048457D01*
X126863123Y-80286552D01*
X126815504Y-80381790D01*
X126767885Y-80429409D01*
X126672647Y-80477028D01*
X126482171Y-80477028D01*
X126386933Y-80429409D01*
X126339314Y-80381790D01*
X126291695Y-80286552D01*
X222227257Y-82077180D02*
X222560590Y-81600990D01*
X222798685Y-82077180D02*
X222798685Y-81077180D01*
X222417733Y-81077180D01*
X222322495Y-81124800D01*
X222274876Y-81172419D01*
X222227257Y-81267657D01*
X222227257Y-81410514D01*
X222274876Y-81505752D01*
X222322495Y-81553371D01*
X222417733Y-81600990D01*
X222798685Y-81600990D01*
X221274876Y-82077180D02*
X221846304Y-82077180D01*
X221560590Y-82077180D02*
X221560590Y-81077180D01*
X221655828Y-81220038D01*
X221751066Y-81315276D01*
X221846304Y-81362895D01*
X220703447Y-81505752D02*
X220798685Y-81458133D01*
X220846304Y-81410514D01*
X220893923Y-81315276D01*
X220893923Y-81267657D01*
X220846304Y-81172419D01*
X220798685Y-81124800D01*
X220703447Y-81077180D01*
X220512971Y-81077180D01*
X220417733Y-81124800D01*
X220370114Y-81172419D01*
X220322495Y-81267657D01*
X220322495Y-81315276D01*
X220370114Y-81410514D01*
X220417733Y-81458133D01*
X220512971Y-81505752D01*
X220703447Y-81505752D01*
X220798685Y-81553371D01*
X220846304Y-81600990D01*
X220893923Y-81696228D01*
X220893923Y-81886704D01*
X220846304Y-81981942D01*
X220798685Y-82029561D01*
X220703447Y-82077180D01*
X220512971Y-82077180D01*
X220417733Y-82029561D01*
X220370114Y-81981942D01*
X220322495Y-81886704D01*
X220322495Y-81696228D01*
X220370114Y-81600990D01*
X220417733Y-81553371D01*
X220512971Y-81505752D01*
X124234057Y-79587980D02*
X124567390Y-79111790D01*
X124805485Y-79587980D02*
X124805485Y-78587980D01*
X124424533Y-78587980D01*
X124329295Y-78635600D01*
X124281676Y-78683219D01*
X124234057Y-78778457D01*
X124234057Y-78921314D01*
X124281676Y-79016552D01*
X124329295Y-79064171D01*
X124424533Y-79111790D01*
X124805485Y-79111790D01*
X123281676Y-79587980D02*
X123853104Y-79587980D01*
X123567390Y-79587980D02*
X123567390Y-78587980D01*
X123662628Y-78730838D01*
X123757866Y-78826076D01*
X123853104Y-78873695D01*
X122948342Y-78587980D02*
X122281676Y-78587980D01*
X122710247Y-79587980D01*
X58956057Y-80805180D02*
X59289390Y-80328990D01*
X59527485Y-80805180D02*
X59527485Y-79805180D01*
X59146533Y-79805180D01*
X59051295Y-79852800D01*
X59003676Y-79900419D01*
X58956057Y-79995657D01*
X58956057Y-80138514D01*
X59003676Y-80233752D01*
X59051295Y-80281371D01*
X59146533Y-80328990D01*
X59527485Y-80328990D01*
X58003676Y-80805180D02*
X58575104Y-80805180D01*
X58289390Y-80805180D02*
X58289390Y-79805180D01*
X58384628Y-79948038D01*
X58479866Y-80043276D01*
X58575104Y-80090895D01*
X57146533Y-79805180D02*
X57337009Y-79805180D01*
X57432247Y-79852800D01*
X57479866Y-79900419D01*
X57575104Y-80043276D01*
X57622723Y-80233752D01*
X57622723Y-80614704D01*
X57575104Y-80709942D01*
X57527485Y-80757561D01*
X57432247Y-80805180D01*
X57241771Y-80805180D01*
X57146533Y-80757561D01*
X57098914Y-80709942D01*
X57051295Y-80614704D01*
X57051295Y-80376609D01*
X57098914Y-80281371D01*
X57146533Y-80233752D01*
X57241771Y-80186133D01*
X57432247Y-80186133D01*
X57527485Y-80233752D01*
X57575104Y-80281371D01*
X57622723Y-80376609D01*
X169801657Y-85123180D02*
X170134990Y-84646990D01*
X170373085Y-85123180D02*
X170373085Y-84123180D01*
X169992133Y-84123180D01*
X169896895Y-84170800D01*
X169849276Y-84218419D01*
X169801657Y-84313657D01*
X169801657Y-84456514D01*
X169849276Y-84551752D01*
X169896895Y-84599371D01*
X169992133Y-84646990D01*
X170373085Y-84646990D01*
X168849276Y-85123180D02*
X169420704Y-85123180D01*
X169134990Y-85123180D02*
X169134990Y-84123180D01*
X169230228Y-84266038D01*
X169325466Y-84361276D01*
X169420704Y-84408895D01*
X167944514Y-84123180D02*
X168420704Y-84123180D01*
X168468323Y-84599371D01*
X168420704Y-84551752D01*
X168325466Y-84504133D01*
X168087371Y-84504133D01*
X167992133Y-84551752D01*
X167944514Y-84599371D01*
X167896895Y-84694609D01*
X167896895Y-84932704D01*
X167944514Y-85027942D01*
X167992133Y-85075561D01*
X168087371Y-85123180D01*
X168325466Y-85123180D01*
X168420704Y-85075561D01*
X168468323Y-85027942D01*
X54587257Y-82024380D02*
X54920590Y-81548190D01*
X55158685Y-82024380D02*
X55158685Y-81024380D01*
X54777733Y-81024380D01*
X54682495Y-81072000D01*
X54634876Y-81119619D01*
X54587257Y-81214857D01*
X54587257Y-81357714D01*
X54634876Y-81452952D01*
X54682495Y-81500571D01*
X54777733Y-81548190D01*
X55158685Y-81548190D01*
X53634876Y-82024380D02*
X54206304Y-82024380D01*
X53920590Y-82024380D02*
X53920590Y-81024380D01*
X54015828Y-81167238D01*
X54111066Y-81262476D01*
X54206304Y-81310095D01*
X52777733Y-81357714D02*
X52777733Y-82024380D01*
X53015828Y-80976761D02*
X53253923Y-81691047D01*
X52634876Y-81691047D01*
X165280457Y-86291580D02*
X165613790Y-85815390D01*
X165851885Y-86291580D02*
X165851885Y-85291580D01*
X165470933Y-85291580D01*
X165375695Y-85339200D01*
X165328076Y-85386819D01*
X165280457Y-85482057D01*
X165280457Y-85624914D01*
X165328076Y-85720152D01*
X165375695Y-85767771D01*
X165470933Y-85815390D01*
X165851885Y-85815390D01*
X164328076Y-86291580D02*
X164899504Y-86291580D01*
X164613790Y-86291580D02*
X164613790Y-85291580D01*
X164709028Y-85434438D01*
X164804266Y-85529676D01*
X164899504Y-85577295D01*
X163994742Y-85291580D02*
X163375695Y-85291580D01*
X163709028Y-85672533D01*
X163566171Y-85672533D01*
X163470933Y-85720152D01*
X163423314Y-85767771D01*
X163375695Y-85863009D01*
X163375695Y-86101104D01*
X163423314Y-86196342D01*
X163470933Y-86243961D01*
X163566171Y-86291580D01*
X163851885Y-86291580D01*
X163947123Y-86243961D01*
X163994742Y-86196342D01*
X58956057Y-83345180D02*
X59289390Y-82868990D01*
X59527485Y-83345180D02*
X59527485Y-82345180D01*
X59146533Y-82345180D01*
X59051295Y-82392800D01*
X59003676Y-82440419D01*
X58956057Y-82535657D01*
X58956057Y-82678514D01*
X59003676Y-82773752D01*
X59051295Y-82821371D01*
X59146533Y-82868990D01*
X59527485Y-82868990D01*
X58003676Y-83345180D02*
X58575104Y-83345180D01*
X58289390Y-83345180D02*
X58289390Y-82345180D01*
X58384628Y-82488038D01*
X58479866Y-82583276D01*
X58575104Y-82630895D01*
X57622723Y-82440419D02*
X57575104Y-82392800D01*
X57479866Y-82345180D01*
X57241771Y-82345180D01*
X57146533Y-82392800D01*
X57098914Y-82440419D01*
X57051295Y-82535657D01*
X57051295Y-82630895D01*
X57098914Y-82773752D01*
X57670342Y-83345180D01*
X57051295Y-83345180D01*
X169801657Y-87612380D02*
X170134990Y-87136190D01*
X170373085Y-87612380D02*
X170373085Y-86612380D01*
X169992133Y-86612380D01*
X169896895Y-86660000D01*
X169849276Y-86707619D01*
X169801657Y-86802857D01*
X169801657Y-86945714D01*
X169849276Y-87040952D01*
X169896895Y-87088571D01*
X169992133Y-87136190D01*
X170373085Y-87136190D01*
X168849276Y-87612380D02*
X169420704Y-87612380D01*
X169134990Y-87612380D02*
X169134990Y-86612380D01*
X169230228Y-86755238D01*
X169325466Y-86850476D01*
X169420704Y-86898095D01*
X167896895Y-87612380D02*
X168468323Y-87612380D01*
X168182609Y-87612380D02*
X168182609Y-86612380D01*
X168277847Y-86755238D01*
X168373085Y-86850476D01*
X168468323Y-86898095D01*
X54587257Y-84665980D02*
X54920590Y-84189790D01*
X55158685Y-84665980D02*
X55158685Y-83665980D01*
X54777733Y-83665980D01*
X54682495Y-83713600D01*
X54634876Y-83761219D01*
X54587257Y-83856457D01*
X54587257Y-83999314D01*
X54634876Y-84094552D01*
X54682495Y-84142171D01*
X54777733Y-84189790D01*
X55158685Y-84189790D01*
X53634876Y-84665980D02*
X54206304Y-84665980D01*
X53920590Y-84665980D02*
X53920590Y-83665980D01*
X54015828Y-83808838D01*
X54111066Y-83904076D01*
X54206304Y-83951695D01*
X53015828Y-83665980D02*
X52920590Y-83665980D01*
X52825352Y-83713600D01*
X52777733Y-83761219D01*
X52730114Y-83856457D01*
X52682495Y-84046933D01*
X52682495Y-84285028D01*
X52730114Y-84475504D01*
X52777733Y-84570742D01*
X52825352Y-84618361D01*
X52920590Y-84665980D01*
X53015828Y-84665980D01*
X53111066Y-84618361D01*
X53158685Y-84570742D01*
X53206304Y-84475504D01*
X53253923Y-84285028D01*
X53253923Y-84046933D01*
X53206304Y-83856457D01*
X53158685Y-83761219D01*
X53111066Y-83713600D01*
X53015828Y-83665980D01*
X164804266Y-88882380D02*
X165137600Y-88406190D01*
X165375695Y-88882380D02*
X165375695Y-87882380D01*
X164994742Y-87882380D01*
X164899504Y-87930000D01*
X164851885Y-87977619D01*
X164804266Y-88072857D01*
X164804266Y-88215714D01*
X164851885Y-88310952D01*
X164899504Y-88358571D01*
X164994742Y-88406190D01*
X165375695Y-88406190D01*
X164328076Y-88882380D02*
X164137600Y-88882380D01*
X164042361Y-88834761D01*
X163994742Y-88787142D01*
X163899504Y-88644285D01*
X163851885Y-88453809D01*
X163851885Y-88072857D01*
X163899504Y-87977619D01*
X163947123Y-87930000D01*
X164042361Y-87882380D01*
X164232838Y-87882380D01*
X164328076Y-87930000D01*
X164375695Y-87977619D01*
X164423314Y-88072857D01*
X164423314Y-88310952D01*
X164375695Y-88406190D01*
X164328076Y-88453809D01*
X164232838Y-88501428D01*
X164042361Y-88501428D01*
X163947123Y-88453809D01*
X163899504Y-88406190D01*
X163851885Y-88310952D01*
X74888266Y-81365980D02*
X75221600Y-80889790D01*
X75459695Y-81365980D02*
X75459695Y-80365980D01*
X75078742Y-80365980D01*
X74983504Y-80413600D01*
X74935885Y-80461219D01*
X74888266Y-80556457D01*
X74888266Y-80699314D01*
X74935885Y-80794552D01*
X74983504Y-80842171D01*
X75078742Y-80889790D01*
X75459695Y-80889790D01*
X74316838Y-80794552D02*
X74412076Y-80746933D01*
X74459695Y-80699314D01*
X74507314Y-80604076D01*
X74507314Y-80556457D01*
X74459695Y-80461219D01*
X74412076Y-80413600D01*
X74316838Y-80365980D01*
X74126361Y-80365980D01*
X74031123Y-80413600D01*
X73983504Y-80461219D01*
X73935885Y-80556457D01*
X73935885Y-80604076D01*
X73983504Y-80699314D01*
X74031123Y-80746933D01*
X74126361Y-80794552D01*
X74316838Y-80794552D01*
X74412076Y-80842171D01*
X74459695Y-80889790D01*
X74507314Y-80985028D01*
X74507314Y-81175504D01*
X74459695Y-81270742D01*
X74412076Y-81318361D01*
X74316838Y-81365980D01*
X74126361Y-81365980D01*
X74031123Y-81318361D01*
X73983504Y-81270742D01*
X73935885Y-81175504D01*
X73935885Y-80985028D01*
X73983504Y-80889790D01*
X74031123Y-80842171D01*
X74126361Y-80794552D01*
X191575866Y-85785580D02*
X191909200Y-85309390D01*
X192147295Y-85785580D02*
X192147295Y-84785580D01*
X191766342Y-84785580D01*
X191671104Y-84833200D01*
X191623485Y-84880819D01*
X191575866Y-84976057D01*
X191575866Y-85118914D01*
X191623485Y-85214152D01*
X191671104Y-85261771D01*
X191766342Y-85309390D01*
X192147295Y-85309390D01*
X191242533Y-84785580D02*
X190575866Y-84785580D01*
X191004438Y-85785580D01*
X79241066Y-80045180D02*
X79574400Y-79568990D01*
X79812495Y-80045180D02*
X79812495Y-79045180D01*
X79431542Y-79045180D01*
X79336304Y-79092800D01*
X79288685Y-79140419D01*
X79241066Y-79235657D01*
X79241066Y-79378514D01*
X79288685Y-79473752D01*
X79336304Y-79521371D01*
X79431542Y-79568990D01*
X79812495Y-79568990D01*
X78383923Y-79045180D02*
X78574400Y-79045180D01*
X78669638Y-79092800D01*
X78717257Y-79140419D01*
X78812495Y-79283276D01*
X78860114Y-79473752D01*
X78860114Y-79854704D01*
X78812495Y-79949942D01*
X78764876Y-79997561D01*
X78669638Y-80045180D01*
X78479161Y-80045180D01*
X78383923Y-79997561D01*
X78336304Y-79949942D01*
X78288685Y-79854704D01*
X78288685Y-79616609D01*
X78336304Y-79521371D01*
X78383923Y-79473752D01*
X78479161Y-79426133D01*
X78669638Y-79426133D01*
X78764876Y-79473752D01*
X78812495Y-79521371D01*
X78860114Y-79616609D01*
X187105466Y-84363180D02*
X187438800Y-83886990D01*
X187676895Y-84363180D02*
X187676895Y-83363180D01*
X187295942Y-83363180D01*
X187200704Y-83410800D01*
X187153085Y-83458419D01*
X187105466Y-83553657D01*
X187105466Y-83696514D01*
X187153085Y-83791752D01*
X187200704Y-83839371D01*
X187295942Y-83886990D01*
X187676895Y-83886990D01*
X186200704Y-83363180D02*
X186676895Y-83363180D01*
X186724514Y-83839371D01*
X186676895Y-83791752D01*
X186581657Y-83744133D01*
X186343561Y-83744133D01*
X186248323Y-83791752D01*
X186200704Y-83839371D01*
X186153085Y-83934609D01*
X186153085Y-84172704D01*
X186200704Y-84267942D01*
X186248323Y-84315561D01*
X186343561Y-84363180D01*
X186581657Y-84363180D01*
X186676895Y-84315561D01*
X186724514Y-84267942D01*
X74872266Y-78775180D02*
X75205600Y-78298990D01*
X75443695Y-78775180D02*
X75443695Y-77775180D01*
X75062742Y-77775180D01*
X74967504Y-77822800D01*
X74919885Y-77870419D01*
X74872266Y-77965657D01*
X74872266Y-78108514D01*
X74919885Y-78203752D01*
X74967504Y-78251371D01*
X75062742Y-78298990D01*
X75443695Y-78298990D01*
X74015123Y-78108514D02*
X74015123Y-78775180D01*
X74253219Y-77727561D02*
X74491314Y-78441847D01*
X73872266Y-78441847D01*
X191575866Y-83093180D02*
X191909200Y-82616990D01*
X192147295Y-83093180D02*
X192147295Y-82093180D01*
X191766342Y-82093180D01*
X191671104Y-82140800D01*
X191623485Y-82188419D01*
X191575866Y-82283657D01*
X191575866Y-82426514D01*
X191623485Y-82521752D01*
X191671104Y-82569371D01*
X191766342Y-82616990D01*
X192147295Y-82616990D01*
X191242533Y-82093180D02*
X190623485Y-82093180D01*
X190956819Y-82474133D01*
X190813961Y-82474133D01*
X190718723Y-82521752D01*
X190671104Y-82569371D01*
X190623485Y-82664609D01*
X190623485Y-82902704D01*
X190671104Y-82997942D01*
X190718723Y-83045561D01*
X190813961Y-83093180D01*
X191099676Y-83093180D01*
X191194914Y-83045561D01*
X191242533Y-82997942D01*
X79206266Y-77505180D02*
X79539600Y-77028990D01*
X79777695Y-77505180D02*
X79777695Y-76505180D01*
X79396742Y-76505180D01*
X79301504Y-76552800D01*
X79253885Y-76600419D01*
X79206266Y-76695657D01*
X79206266Y-76838514D01*
X79253885Y-76933752D01*
X79301504Y-76981371D01*
X79396742Y-77028990D01*
X79777695Y-77028990D01*
X78825314Y-76600419D02*
X78777695Y-76552800D01*
X78682457Y-76505180D01*
X78444361Y-76505180D01*
X78349123Y-76552800D01*
X78301504Y-76600419D01*
X78253885Y-76695657D01*
X78253885Y-76790895D01*
X78301504Y-76933752D01*
X78872933Y-77505180D01*
X78253885Y-77505180D01*
X187054666Y-81873980D02*
X187388000Y-81397790D01*
X187626095Y-81873980D02*
X187626095Y-80873980D01*
X187245142Y-80873980D01*
X187149904Y-80921600D01*
X187102285Y-80969219D01*
X187054666Y-81064457D01*
X187054666Y-81207314D01*
X187102285Y-81302552D01*
X187149904Y-81350171D01*
X187245142Y-81397790D01*
X187626095Y-81397790D01*
X186102285Y-81873980D02*
X186673714Y-81873980D01*
X186388000Y-81873980D02*
X186388000Y-80873980D01*
X186483238Y-81016838D01*
X186578476Y-81112076D01*
X186673714Y-81159695D01*
X66861866Y-72198342D02*
X66909485Y-72245961D01*
X67052342Y-72293580D01*
X67147580Y-72293580D01*
X67290438Y-72245961D01*
X67385676Y-72150723D01*
X67433295Y-72055485D01*
X67480914Y-71865009D01*
X67480914Y-71722152D01*
X67433295Y-71531676D01*
X67385676Y-71436438D01*
X67290438Y-71341200D01*
X67147580Y-71293580D01*
X67052342Y-71293580D01*
X66909485Y-71341200D01*
X66861866Y-71388819D01*
X66004723Y-71626914D02*
X66004723Y-72293580D01*
X66242819Y-71245961D02*
X66480914Y-71960247D01*
X65861866Y-71960247D01*
X214080266Y-76871942D02*
X214127885Y-76919561D01*
X214270742Y-76967180D01*
X214365980Y-76967180D01*
X214508838Y-76919561D01*
X214604076Y-76824323D01*
X214651695Y-76729085D01*
X214699314Y-76538609D01*
X214699314Y-76395752D01*
X214651695Y-76205276D01*
X214604076Y-76110038D01*
X214508838Y-76014800D01*
X214365980Y-75967180D01*
X214270742Y-75967180D01*
X214127885Y-76014800D01*
X214080266Y-76062419D01*
X213746933Y-75967180D02*
X213127885Y-75967180D01*
X213461219Y-76348133D01*
X213318361Y-76348133D01*
X213223123Y-76395752D01*
X213175504Y-76443371D01*
X213127885Y-76538609D01*
X213127885Y-76776704D01*
X213175504Y-76871942D01*
X213223123Y-76919561D01*
X213318361Y-76967180D01*
X213604076Y-76967180D01*
X213699314Y-76919561D01*
X213746933Y-76871942D01*
X177961466Y-75906742D02*
X178009085Y-75954361D01*
X178151942Y-76001980D01*
X178247180Y-76001980D01*
X178390038Y-75954361D01*
X178485276Y-75859123D01*
X178532895Y-75763885D01*
X178580514Y-75573409D01*
X178580514Y-75430552D01*
X178532895Y-75240076D01*
X178485276Y-75144838D01*
X178390038Y-75049600D01*
X178247180Y-75001980D01*
X178151942Y-75001980D01*
X178009085Y-75049600D01*
X177961466Y-75097219D01*
X177580514Y-75097219D02*
X177532895Y-75049600D01*
X177437657Y-75001980D01*
X177199561Y-75001980D01*
X177104323Y-75049600D01*
X177056704Y-75097219D01*
X177009085Y-75192457D01*
X177009085Y-75287695D01*
X177056704Y-75430552D01*
X177628133Y-76001980D01*
X177009085Y-76001980D01*
X114185966Y-74179542D02*
X114233585Y-74227161D01*
X114376442Y-74274780D01*
X114471680Y-74274780D01*
X114614538Y-74227161D01*
X114709776Y-74131923D01*
X114757395Y-74036685D01*
X114805014Y-73846209D01*
X114805014Y-73703352D01*
X114757395Y-73512876D01*
X114709776Y-73417638D01*
X114614538Y-73322400D01*
X114471680Y-73274780D01*
X114376442Y-73274780D01*
X114233585Y-73322400D01*
X114185966Y-73370019D01*
X113233585Y-74274780D02*
X113805014Y-74274780D01*
X113519300Y-74274780D02*
X113519300Y-73274780D01*
X113614538Y-73417638D01*
X113709776Y-73512876D01*
X113805014Y-73560495D01*
M02*
