G04 #@! TF.GenerationSoftware,KiCad,Pcbnew,5.1.5+dfsg1-2build2*
G04 #@! TF.CreationDate,2024-05-04T05:39:38+01:00*
G04 #@! TF.ProjectId,touch_kb1,746f7563-685f-46b6-9231-2e6b69636164,rev?*
G04 #@! TF.SameCoordinates,Original*
G04 #@! TF.FileFunction,Copper,L1,Top*
G04 #@! TF.FilePolarity,Positive*
%FSLAX46Y46*%
G04 Gerber Fmt 4.6, Leading zero omitted, Abs format (unit mm)*
G04 Created by KiCad (PCBNEW 5.1.5+dfsg1-2build2) date 2024-05-04 05:39:38*
%MOMM*%
%LPD*%
G04 APERTURE LIST*
%ADD10C,12.500000*%
%ADD11C,3.500000*%
%ADD12C,0.800000*%
%ADD13C,0.250000*%
%ADD14C,0.254000*%
G04 APERTURE END LIST*
D10*
X216400000Y-107700000D03*
X126400000Y-77700000D03*
X111400000Y-77700000D03*
X96400000Y-77700000D03*
X133900000Y-62700000D03*
X96400000Y-107700000D03*
X171400000Y-107700000D03*
X133900000Y-92700000D03*
X226400000Y-92700000D03*
X118900000Y-92700000D03*
X216400000Y-77700000D03*
X103900000Y-92700000D03*
X73900000Y-62700000D03*
X111400000Y-107700000D03*
X66400000Y-77700000D03*
X126400000Y-107700000D03*
X58900000Y-92700000D03*
X141400000Y-107700000D03*
X73900000Y-92700000D03*
X163900000Y-62700000D03*
X58900000Y-62700000D03*
X178900000Y-62700000D03*
X66400000Y-107200000D03*
X171400000Y-77700000D03*
X103900000Y-62700000D03*
X178900000Y-92700000D03*
X118900000Y-62700000D03*
X186400000Y-77700000D03*
D11*
X38900000Y-135200000D03*
X38900000Y-50700000D03*
X143400000Y-135200000D03*
X143400000Y-50700000D03*
X247900000Y-50700000D03*
X247900000Y-135200000D03*
D12*
X80766800Y-87084800D03*
X77312400Y-84189200D03*
X163774000Y-81852400D03*
X179776000Y-73064000D03*
X201010400Y-71235200D03*
X199080000Y-82309600D03*
X162148400Y-77432800D03*
X126740800Y-87897600D03*
X126436000Y-99226000D03*
X92044400Y-98667200D03*
X90825200Y-84595600D03*
X205328400Y-79566400D03*
X205379200Y-73876800D03*
X214167600Y-86932400D03*
X213608800Y-91606000D03*
X204871200Y-91758400D03*
X205090400Y-85814800D03*
X71803947Y-72686347D03*
X112618400Y-68288800D03*
X161843600Y-71032000D03*
X161792800Y-75045200D03*
X187192800Y-97041600D03*
X154223600Y-70930400D03*
X178861600Y-82614400D03*
X223006800Y-47003600D03*
X217418800Y-92672800D03*
X114345600Y-85967200D03*
X71927600Y-84498400D03*
X193949200Y-81446000D03*
X81579600Y-67831600D03*
X182799000Y-84265000D03*
X73705600Y-79972800D03*
X177794800Y-80684000D03*
X177947200Y-85510000D03*
X179623600Y-85510000D03*
X78074400Y-81242800D03*
X188564400Y-87350000D03*
X59024400Y-76213600D03*
X72435600Y-71743200D03*
X73721600Y-82563600D03*
X160167200Y-88608800D03*
X66339600Y-86881600D03*
X162808800Y-107404800D03*
X171749600Y-88304000D03*
X171877000Y-85535000D03*
X59313200Y-81242800D03*
X165145600Y-99480000D03*
X165907600Y-89167600D03*
X167025200Y-84290800D03*
X60142000Y-72860800D03*
X54604800Y-77280400D03*
X54944400Y-79922000D03*
X159354400Y-112535600D03*
X70048000Y-69863600D03*
X57195600Y-71641600D03*
X59313200Y-78702800D03*
X119120800Y-80785600D03*
X224530800Y-77686800D03*
X118714400Y-82055600D03*
X218556600Y-84565000D03*
X120492400Y-83325600D03*
X219806400Y-85814800D03*
X118104800Y-84595600D03*
X217831600Y-87105000D03*
X141726800Y-90132800D03*
X96413200Y-86373600D03*
X108859200Y-86170400D03*
X107081200Y-83921400D03*
X117444400Y-73165600D03*
X119984400Y-73673600D03*
X110688000Y-70625600D03*
X116276000Y-71743200D03*
X160522800Y-89777200D03*
X157881200Y-89624800D03*
X67184928Y-84763843D03*
X61920000Y-83884400D03*
X199334000Y-74892800D03*
X197403600Y-88659600D03*
X158440000Y-91758400D03*
X172613200Y-89066000D03*
X203398000Y-74638800D03*
X203448800Y-90996400D03*
X134818000Y-78296400D03*
X67762000Y-56147600D03*
X209748000Y-52998000D03*
X213812000Y-84951200D03*
D13*
X77871200Y-84189200D02*
X77312400Y-84189200D01*
X80766800Y-87084800D02*
X77871200Y-84189200D01*
X163774000Y-81286715D02*
X163520000Y-81032715D01*
X163774000Y-81852400D02*
X163774000Y-81286715D01*
X167643401Y-71124999D02*
X167643401Y-70261399D01*
X163520000Y-75248400D02*
X167643401Y-71124999D01*
X167643401Y-70261399D02*
X168650800Y-69254000D01*
X168650800Y-69254000D02*
X174797600Y-69254000D01*
X178607600Y-73064000D02*
X179776000Y-73064000D01*
X174797600Y-69254000D02*
X178607600Y-73064000D01*
X201010400Y-80379200D02*
X199080000Y-82309600D01*
X201010400Y-71235200D02*
X201010400Y-80379200D01*
X162815685Y-77331200D02*
X163570800Y-77331200D01*
X162714085Y-77432800D02*
X162815685Y-77331200D01*
X162148400Y-77432800D02*
X162714085Y-77432800D01*
X163570800Y-77331200D02*
X163520000Y-75248400D01*
X163520000Y-81032715D02*
X163570800Y-77331200D01*
X126740800Y-87897600D02*
X126740800Y-98921200D01*
X126740800Y-98921200D02*
X126436000Y-99226000D01*
X92044400Y-85814800D02*
X90825200Y-84595600D01*
X92044400Y-98667200D02*
X92044400Y-85814800D01*
X205328400Y-73927600D02*
X205379200Y-73876800D01*
X205328400Y-79566400D02*
X205328400Y-73927600D01*
X213608800Y-87491200D02*
X213608800Y-91606000D01*
X214167600Y-86932400D02*
X213608800Y-87491200D01*
X204871200Y-86034000D02*
X205090400Y-85814800D01*
X204871200Y-91758400D02*
X204871200Y-86034000D01*
X71403948Y-72286348D02*
X71403948Y-71250852D01*
X71803947Y-72686347D02*
X71403948Y-72286348D01*
X71403948Y-71250852D02*
X72892800Y-69762000D01*
X72892800Y-69762000D02*
X83306800Y-69762000D01*
X83306800Y-69762000D02*
X82436998Y-69762000D01*
X161843600Y-74994400D02*
X161792800Y-75045200D01*
X161843600Y-71032000D02*
X161843600Y-74994400D01*
X184959399Y-99275001D02*
X183943399Y-99275001D01*
X187192800Y-97041600D02*
X184959399Y-99275001D01*
X183943399Y-99275001D02*
X183128800Y-100089600D01*
X173375200Y-100089600D02*
X170632000Y-97346400D01*
X183128800Y-100089600D02*
X173375200Y-100089600D01*
X173375200Y-100089600D02*
X173121200Y-100089600D01*
X170632000Y-97346400D02*
X155747600Y-97346400D01*
X155747600Y-97346400D02*
X154274400Y-95873200D01*
X154274400Y-70981200D02*
X154223600Y-70930400D01*
X154274400Y-95873200D02*
X154274400Y-70981200D01*
X83306800Y-67177402D02*
X83306800Y-69762000D01*
X95759002Y-54725200D02*
X83306800Y-67177402D01*
X107640000Y-54725200D02*
X95759002Y-54725200D01*
X111246800Y-58332000D02*
X107640000Y-54725200D01*
X111246800Y-66917200D02*
X111246800Y-58332000D01*
X112618400Y-68288800D02*
X111246800Y-66917200D01*
X190203200Y-77700000D02*
X193949200Y-81446000D01*
X186400000Y-77700000D02*
X190203200Y-77700000D01*
X118900000Y-62700000D02*
X109350400Y-53150400D01*
X109350400Y-53150400D02*
X94381200Y-53150400D01*
X81579600Y-65952000D02*
X81579600Y-67831600D01*
X94381200Y-53150400D02*
X81579600Y-65952000D01*
X178900000Y-92700000D02*
X186505200Y-92700000D01*
X186505200Y-92700000D02*
X187345200Y-91860000D01*
X187345200Y-88811200D02*
X182799000Y-84265000D01*
X187345200Y-91860000D02*
X187345200Y-88811200D01*
X95061166Y-62700000D02*
X87084766Y-70676400D01*
X103900000Y-62700000D02*
X95061166Y-62700000D01*
X87084766Y-70676400D02*
X74366000Y-70676400D01*
X74366000Y-79312400D02*
X73705600Y-79972800D01*
X74366000Y-70676400D02*
X74366000Y-79312400D01*
X171400000Y-77700000D02*
X174810800Y-77700000D01*
X174810800Y-77700000D02*
X177794800Y-80684000D01*
X177947200Y-85510000D02*
X179623600Y-85510000D01*
X75238834Y-107200000D02*
X83154400Y-99284434D01*
X66400000Y-107200000D02*
X75238834Y-107200000D01*
X83154400Y-86322800D02*
X78074400Y-81242800D01*
X83154400Y-99284434D02*
X83154400Y-86322800D01*
X187738834Y-62700000D02*
X193276834Y-68238000D01*
X178900000Y-62700000D02*
X187738834Y-62700000D01*
X193276834Y-68238000D02*
X196286000Y-71247166D01*
X196286000Y-71247166D02*
X196286000Y-85814800D01*
X194750800Y-87350000D02*
X188564400Y-87350000D01*
X196286000Y-85814800D02*
X194750800Y-87350000D01*
X58900000Y-76089200D02*
X59024400Y-76213600D01*
X58900000Y-62700000D02*
X58900000Y-76089200D01*
X72975001Y-81817001D02*
X73721600Y-82563600D01*
X72975001Y-72282601D02*
X72975001Y-81817001D01*
X72435600Y-71743200D02*
X72975001Y-72282601D01*
X157650001Y-68949999D02*
X157650001Y-82484801D01*
X163900000Y-62700000D02*
X157650001Y-68949999D01*
X160167200Y-85002000D02*
X160167200Y-88608800D01*
X157650001Y-82484801D02*
X160167200Y-85002000D01*
X66771199Y-86450001D02*
X66339600Y-86881600D01*
X67650001Y-86450001D02*
X66771199Y-86450001D01*
X73900000Y-92700000D02*
X67650001Y-86450001D01*
X162513600Y-107700000D02*
X162808800Y-107404800D01*
X141400000Y-107700000D02*
X162513600Y-107700000D01*
X171749600Y-85662400D02*
X171877000Y-85535000D01*
X171749600Y-88304000D02*
X171749600Y-85662400D01*
X58900000Y-81656000D02*
X59313200Y-81242800D01*
X58900000Y-92700000D02*
X58900000Y-81656000D01*
X132649999Y-101450001D02*
X137115199Y-101450001D01*
X126400000Y-107700000D02*
X132649999Y-101450001D01*
X137115199Y-101450001D02*
X139085200Y-99480000D01*
X139085200Y-99480000D02*
X165145600Y-99480000D01*
X167025200Y-88050000D02*
X167025200Y-84290800D01*
X165907600Y-89167600D02*
X167025200Y-88050000D01*
X64981200Y-77700000D02*
X60142000Y-72860800D01*
X66400000Y-77700000D02*
X64981200Y-77700000D01*
X54604800Y-79582400D02*
X54944400Y-79922000D01*
X54604800Y-77280400D02*
X54604800Y-79582400D01*
X121518800Y-117818800D02*
X117975001Y-114275001D01*
X117975001Y-114275001D02*
X111400000Y-107700000D01*
X154071200Y-117818800D02*
X121518800Y-117818800D01*
X159354400Y-112535600D02*
X154071200Y-117818800D01*
X73900000Y-62700000D02*
X73900000Y-65808400D01*
X70048000Y-69660400D02*
X70048000Y-69863600D01*
X73900000Y-65808400D02*
X70048000Y-69660400D01*
X57195600Y-76585200D02*
X59313200Y-78702800D01*
X57195600Y-71641600D02*
X57195600Y-76585200D01*
X107843200Y-69609600D02*
X103880800Y-73572000D01*
X115615600Y-69609600D02*
X107843200Y-69609600D01*
X119120800Y-73114800D02*
X115615600Y-69609600D01*
X119120800Y-80785600D02*
X119120800Y-73114800D01*
X103880800Y-73572000D02*
X103880800Y-75451600D01*
X103880800Y-75451600D02*
X103900000Y-75468998D01*
X103900000Y-92700000D02*
X103880800Y-75451600D01*
X224517600Y-77700000D02*
X224530800Y-77686800D01*
X216400000Y-77700000D02*
X224517600Y-77700000D01*
X118900000Y-82241200D02*
X118714400Y-82055600D01*
X118900000Y-92700000D02*
X118900000Y-82241200D01*
X226400000Y-92700000D02*
X218970000Y-92700000D01*
X218556600Y-92286600D02*
X218556600Y-84565000D01*
X218970000Y-92700000D02*
X218556600Y-92286600D01*
X133900000Y-92700000D02*
X133900000Y-84490400D01*
X121657200Y-84490400D02*
X120492400Y-83325600D01*
X133900000Y-84490400D02*
X121657200Y-84490400D01*
X177975001Y-114275001D02*
X196145801Y-114275001D01*
X171400000Y-107700000D02*
X177975001Y-114275001D01*
X196145801Y-114275001D02*
X202991600Y-121120800D01*
X202991600Y-121120800D02*
X225038800Y-121120800D01*
X225038800Y-121120800D02*
X240075600Y-106084000D01*
X240075600Y-96644598D02*
X240126400Y-96593798D01*
X240075600Y-106084000D02*
X240075600Y-96644598D01*
X240126400Y-96593798D02*
X240126400Y-90691600D01*
X235249600Y-85814800D02*
X219806400Y-85814800D01*
X240126400Y-90691600D02*
X235249600Y-85814800D01*
X114091600Y-84595600D02*
X118104800Y-84595600D01*
X111856400Y-86830800D02*
X114091600Y-84595600D01*
X105365199Y-101450001D02*
X111856400Y-94958800D01*
X102649999Y-101450001D02*
X105365199Y-101450001D01*
X96400000Y-107700000D02*
X102649999Y-101450001D01*
X111856400Y-94958800D02*
X111856400Y-86830800D01*
X216400000Y-88536600D02*
X217831600Y-87105000D01*
X216400000Y-107700000D02*
X216400000Y-88536600D01*
X133900000Y-71538834D02*
X140914000Y-78552834D01*
X133900000Y-62700000D02*
X133900000Y-71538834D01*
X140914000Y-89320000D02*
X141726800Y-90132800D01*
X140914000Y-78552834D02*
X140914000Y-89320000D01*
X96400000Y-86360400D02*
X96413200Y-86373600D01*
X96400000Y-77700000D02*
X96400000Y-86360400D01*
X107081200Y-84392400D02*
X107081200Y-83921400D01*
X108859200Y-86170400D02*
X107081200Y-84392400D01*
X112910000Y-77700000D02*
X117444400Y-73165600D01*
X111400000Y-77700000D02*
X112910000Y-77700000D01*
X124010800Y-77700000D02*
X119984400Y-73673600D01*
X126400000Y-77700000D02*
X124010800Y-77700000D01*
X115158400Y-70625600D02*
X116276000Y-71743200D01*
X110688000Y-70625600D02*
X115158400Y-70625600D01*
X158033600Y-89777200D02*
X157881200Y-89624800D01*
X160522800Y-89777200D02*
X158033600Y-89777200D01*
X67184928Y-84763843D02*
X65593443Y-84763843D01*
X62799443Y-84763843D02*
X61920000Y-83884400D01*
X65593443Y-84763843D02*
X62799443Y-84763843D01*
X197403600Y-76823200D02*
X197403600Y-88659600D01*
X199334000Y-74892800D02*
X197403600Y-76823200D01*
X169920800Y-91758400D02*
X172613200Y-89066000D01*
X158440000Y-91758400D02*
X169920800Y-91758400D01*
X203398000Y-90945600D02*
X203448800Y-90996400D01*
X203398000Y-74638800D02*
X203398000Y-90945600D01*
X126436000Y-66817000D02*
X134818000Y-75199000D01*
X126436000Y-58687600D02*
X126436000Y-66817000D01*
X120448790Y-52700390D02*
X126436000Y-58687600D01*
X71209210Y-52700390D02*
X120448790Y-52700390D01*
X134818000Y-75199000D02*
X134818000Y-78296400D01*
X67762000Y-56147600D02*
X71209210Y-52700390D01*
X209748000Y-52998000D02*
X209748000Y-71032000D01*
X213412001Y-84551201D02*
X212243601Y-84551201D01*
X213812000Y-84951200D02*
X213412001Y-84551201D01*
X209748000Y-82055600D02*
X209290800Y-82055600D01*
X212243601Y-84551201D02*
X209748000Y-82055600D01*
X209290800Y-82055600D02*
X207817600Y-80582400D01*
X207817600Y-80582400D02*
X207817600Y-73826000D01*
X209748000Y-71895600D02*
X209748000Y-71032000D01*
X207817600Y-73826000D02*
X209748000Y-71895600D01*
D14*
G36*
X257240000Y-144540000D02*
G01*
X29560000Y-144540000D01*
X29560000Y-134965098D01*
X36515000Y-134965098D01*
X36515000Y-135434902D01*
X36606654Y-135895679D01*
X36786440Y-136329721D01*
X37047450Y-136720349D01*
X37379651Y-137052550D01*
X37770279Y-137313560D01*
X38204321Y-137493346D01*
X38665098Y-137585000D01*
X39134902Y-137585000D01*
X39595679Y-137493346D01*
X40029721Y-137313560D01*
X40420349Y-137052550D01*
X40752550Y-136720349D01*
X41013560Y-136329721D01*
X41193346Y-135895679D01*
X41285000Y-135434902D01*
X41285000Y-134965098D01*
X141015000Y-134965098D01*
X141015000Y-135434902D01*
X141106654Y-135895679D01*
X141286440Y-136329721D01*
X141547450Y-136720349D01*
X141879651Y-137052550D01*
X142270279Y-137313560D01*
X142704321Y-137493346D01*
X143165098Y-137585000D01*
X143634902Y-137585000D01*
X144095679Y-137493346D01*
X144529721Y-137313560D01*
X144920349Y-137052550D01*
X145252550Y-136720349D01*
X145513560Y-136329721D01*
X145693346Y-135895679D01*
X145785000Y-135434902D01*
X145785000Y-134965098D01*
X245515000Y-134965098D01*
X245515000Y-135434902D01*
X245606654Y-135895679D01*
X245786440Y-136329721D01*
X246047450Y-136720349D01*
X246379651Y-137052550D01*
X246770279Y-137313560D01*
X247204321Y-137493346D01*
X247665098Y-137585000D01*
X248134902Y-137585000D01*
X248595679Y-137493346D01*
X249029721Y-137313560D01*
X249420349Y-137052550D01*
X249752550Y-136720349D01*
X250013560Y-136329721D01*
X250193346Y-135895679D01*
X250285000Y-135434902D01*
X250285000Y-134965098D01*
X250193346Y-134504321D01*
X250013560Y-134070279D01*
X249752550Y-133679651D01*
X249420349Y-133347450D01*
X249029721Y-133086440D01*
X248595679Y-132906654D01*
X248134902Y-132815000D01*
X247665098Y-132815000D01*
X247204321Y-132906654D01*
X246770279Y-133086440D01*
X246379651Y-133347450D01*
X246047450Y-133679651D01*
X245786440Y-134070279D01*
X245606654Y-134504321D01*
X245515000Y-134965098D01*
X145785000Y-134965098D01*
X145693346Y-134504321D01*
X145513560Y-134070279D01*
X145252550Y-133679651D01*
X144920349Y-133347450D01*
X144529721Y-133086440D01*
X144095679Y-132906654D01*
X143634902Y-132815000D01*
X143165098Y-132815000D01*
X142704321Y-132906654D01*
X142270279Y-133086440D01*
X141879651Y-133347450D01*
X141547450Y-133679651D01*
X141286440Y-134070279D01*
X141106654Y-134504321D01*
X141015000Y-134965098D01*
X41285000Y-134965098D01*
X41193346Y-134504321D01*
X41013560Y-134070279D01*
X40752550Y-133679651D01*
X40420349Y-133347450D01*
X40029721Y-133086440D01*
X39595679Y-132906654D01*
X39134902Y-132815000D01*
X38665098Y-132815000D01*
X38204321Y-132906654D01*
X37770279Y-133086440D01*
X37379651Y-133347450D01*
X37047450Y-133679651D01*
X36786440Y-134070279D01*
X36606654Y-134504321D01*
X36515000Y-134965098D01*
X29560000Y-134965098D01*
X29560000Y-106521887D01*
X59515000Y-106521887D01*
X59515000Y-107878113D01*
X59779586Y-109208281D01*
X60298592Y-110461271D01*
X61052071Y-111588932D01*
X62011068Y-112547929D01*
X63138729Y-113301408D01*
X64391719Y-113820414D01*
X65721887Y-114085000D01*
X67078113Y-114085000D01*
X68408281Y-113820414D01*
X69661271Y-113301408D01*
X70788932Y-112547929D01*
X71747929Y-111588932D01*
X72501408Y-110461271D01*
X73020414Y-109208281D01*
X73268712Y-107960000D01*
X75201512Y-107960000D01*
X75238834Y-107963676D01*
X75276156Y-107960000D01*
X75276167Y-107960000D01*
X75387820Y-107949003D01*
X75531081Y-107905546D01*
X75663110Y-107834974D01*
X75778835Y-107740001D01*
X75802638Y-107710997D01*
X83665404Y-99848232D01*
X83694401Y-99824435D01*
X83789374Y-99708710D01*
X83859946Y-99576681D01*
X83903403Y-99433420D01*
X83914400Y-99321767D01*
X83914400Y-99321759D01*
X83918076Y-99284434D01*
X83914400Y-99247109D01*
X83914400Y-86360123D01*
X83918076Y-86322800D01*
X83914400Y-86285477D01*
X83914400Y-86285467D01*
X83903403Y-86173814D01*
X83859946Y-86030553D01*
X83841833Y-85996667D01*
X83789374Y-85898523D01*
X83718199Y-85811797D01*
X83694401Y-85782799D01*
X83665403Y-85759001D01*
X82400063Y-84493661D01*
X89790200Y-84493661D01*
X89790200Y-84697539D01*
X89829974Y-84897498D01*
X89907995Y-85085856D01*
X90021263Y-85255374D01*
X90165426Y-85399537D01*
X90334944Y-85512805D01*
X90523302Y-85590826D01*
X90723261Y-85630600D01*
X90785399Y-85630600D01*
X91284401Y-86129603D01*
X91284400Y-97963489D01*
X91240463Y-98007426D01*
X91127195Y-98176944D01*
X91049174Y-98365302D01*
X91009400Y-98565261D01*
X91009400Y-98769139D01*
X91049174Y-98969098D01*
X91127195Y-99157456D01*
X91240463Y-99326974D01*
X91384626Y-99471137D01*
X91554144Y-99584405D01*
X91742502Y-99662426D01*
X91942461Y-99702200D01*
X92146339Y-99702200D01*
X92346298Y-99662426D01*
X92534656Y-99584405D01*
X92704174Y-99471137D01*
X92848337Y-99326974D01*
X92961605Y-99157456D01*
X93039626Y-98969098D01*
X93079400Y-98769139D01*
X93079400Y-98565261D01*
X93039626Y-98365302D01*
X92961605Y-98176944D01*
X92848337Y-98007426D01*
X92804400Y-97963489D01*
X92804400Y-85852122D01*
X92808076Y-85814799D01*
X92804400Y-85777476D01*
X92804400Y-85777467D01*
X92793403Y-85665814D01*
X92749946Y-85522553D01*
X92679374Y-85390524D01*
X92584401Y-85274799D01*
X92555403Y-85251001D01*
X91860200Y-84555799D01*
X91860200Y-84493661D01*
X91820426Y-84293702D01*
X91742405Y-84105344D01*
X91629137Y-83935826D01*
X91484974Y-83791663D01*
X91315456Y-83678395D01*
X91127098Y-83600374D01*
X90927139Y-83560600D01*
X90723261Y-83560600D01*
X90523302Y-83600374D01*
X90334944Y-83678395D01*
X90165426Y-83791663D01*
X90021263Y-83935826D01*
X89907995Y-84105344D01*
X89829974Y-84293702D01*
X89790200Y-84493661D01*
X82400063Y-84493661D01*
X79109400Y-81202999D01*
X79109400Y-81140861D01*
X79069626Y-80940902D01*
X78991605Y-80752544D01*
X78878337Y-80583026D01*
X78734174Y-80438863D01*
X78564656Y-80325595D01*
X78376298Y-80247574D01*
X78176339Y-80207800D01*
X77972461Y-80207800D01*
X77772502Y-80247574D01*
X77584144Y-80325595D01*
X77414626Y-80438863D01*
X77270463Y-80583026D01*
X77157195Y-80752544D01*
X77079174Y-80940902D01*
X77039400Y-81140861D01*
X77039400Y-81344739D01*
X77079174Y-81544698D01*
X77157195Y-81733056D01*
X77270463Y-81902574D01*
X77414626Y-82046737D01*
X77584144Y-82160005D01*
X77772502Y-82238026D01*
X77972461Y-82277800D01*
X78034599Y-82277800D01*
X82394401Y-86637603D01*
X82394400Y-98969632D01*
X74924033Y-106440000D01*
X73268712Y-106440000D01*
X73020414Y-105191719D01*
X72501408Y-103938729D01*
X71747929Y-102811068D01*
X70788932Y-101852071D01*
X69661271Y-101098592D01*
X68408281Y-100579586D01*
X67078113Y-100315000D01*
X65721887Y-100315000D01*
X64391719Y-100579586D01*
X63138729Y-101098592D01*
X62011068Y-101852071D01*
X61052071Y-102811068D01*
X60298592Y-103938729D01*
X59779586Y-105191719D01*
X59515000Y-106521887D01*
X29560000Y-106521887D01*
X29560000Y-77178461D01*
X53569800Y-77178461D01*
X53569800Y-77382339D01*
X53609574Y-77582298D01*
X53687595Y-77770656D01*
X53800863Y-77940174D01*
X53844800Y-77984111D01*
X53844801Y-79545068D01*
X53841124Y-79582400D01*
X53844801Y-79619733D01*
X53855798Y-79731386D01*
X53868980Y-79774842D01*
X53899254Y-79874646D01*
X53909400Y-79893628D01*
X53909400Y-80023939D01*
X53949174Y-80223898D01*
X54027195Y-80412256D01*
X54140463Y-80581774D01*
X54284626Y-80725937D01*
X54454144Y-80839205D01*
X54642502Y-80917226D01*
X54842461Y-80957000D01*
X55046339Y-80957000D01*
X55246298Y-80917226D01*
X55434656Y-80839205D01*
X55604174Y-80725937D01*
X55748337Y-80581774D01*
X55861605Y-80412256D01*
X55939626Y-80223898D01*
X55979400Y-80023939D01*
X55979400Y-79820061D01*
X55939626Y-79620102D01*
X55861605Y-79431744D01*
X55748337Y-79262226D01*
X55604174Y-79118063D01*
X55434656Y-79004795D01*
X55364800Y-78975859D01*
X55364800Y-77984111D01*
X55408737Y-77940174D01*
X55522005Y-77770656D01*
X55600026Y-77582298D01*
X55639800Y-77382339D01*
X55639800Y-77178461D01*
X55600026Y-76978502D01*
X55522005Y-76790144D01*
X55408737Y-76620626D01*
X55264574Y-76476463D01*
X55095056Y-76363195D01*
X54906698Y-76285174D01*
X54706739Y-76245400D01*
X54502861Y-76245400D01*
X54302902Y-76285174D01*
X54114544Y-76363195D01*
X53945026Y-76476463D01*
X53800863Y-76620626D01*
X53687595Y-76790144D01*
X53609574Y-76978502D01*
X53569800Y-77178461D01*
X29560000Y-77178461D01*
X29560000Y-62021887D01*
X52015000Y-62021887D01*
X52015000Y-63378113D01*
X52279586Y-64708281D01*
X52798592Y-65961271D01*
X53552071Y-67088932D01*
X54511068Y-68047929D01*
X55638729Y-68801408D01*
X56891719Y-69320414D01*
X58140001Y-69568712D01*
X58140001Y-71217000D01*
X58112805Y-71151344D01*
X57999537Y-70981826D01*
X57855374Y-70837663D01*
X57685856Y-70724395D01*
X57497498Y-70646374D01*
X57297539Y-70606600D01*
X57093661Y-70606600D01*
X56893702Y-70646374D01*
X56705344Y-70724395D01*
X56535826Y-70837663D01*
X56391663Y-70981826D01*
X56278395Y-71151344D01*
X56200374Y-71339702D01*
X56160600Y-71539661D01*
X56160600Y-71743539D01*
X56200374Y-71943498D01*
X56278395Y-72131856D01*
X56391663Y-72301374D01*
X56435600Y-72345311D01*
X56435601Y-76547868D01*
X56431924Y-76585200D01*
X56435601Y-76622533D01*
X56446598Y-76734186D01*
X56457339Y-76769595D01*
X56490054Y-76877446D01*
X56560626Y-77009476D01*
X56631801Y-77096202D01*
X56655600Y-77125201D01*
X56684598Y-77148999D01*
X58278200Y-78742602D01*
X58278200Y-78804739D01*
X58317974Y-79004698D01*
X58395995Y-79193056D01*
X58509263Y-79362574D01*
X58653426Y-79506737D01*
X58822944Y-79620005D01*
X59011302Y-79698026D01*
X59211261Y-79737800D01*
X59415139Y-79737800D01*
X59615098Y-79698026D01*
X59765180Y-79635859D01*
X59779586Y-79708281D01*
X60182335Y-80680602D01*
X60117137Y-80583026D01*
X59972974Y-80438863D01*
X59803456Y-80325595D01*
X59615098Y-80247574D01*
X59415139Y-80207800D01*
X59211261Y-80207800D01*
X59011302Y-80247574D01*
X58822944Y-80325595D01*
X58653426Y-80438863D01*
X58509263Y-80583026D01*
X58395995Y-80752544D01*
X58317974Y-80940902D01*
X58278200Y-81140861D01*
X58278200Y-81215672D01*
X58265026Y-81231724D01*
X58194454Y-81363754D01*
X58166172Y-81456991D01*
X58150998Y-81507014D01*
X58143912Y-81578961D01*
X58136324Y-81656000D01*
X58140001Y-81693332D01*
X58140001Y-85831288D01*
X56891719Y-86079586D01*
X55638729Y-86598592D01*
X54511068Y-87352071D01*
X53552071Y-88311068D01*
X52798592Y-89438729D01*
X52279586Y-90691719D01*
X52015000Y-92021887D01*
X52015000Y-93378113D01*
X52279586Y-94708281D01*
X52798592Y-95961271D01*
X53552071Y-97088932D01*
X54511068Y-98047929D01*
X55638729Y-98801408D01*
X56891719Y-99320414D01*
X58221887Y-99585000D01*
X59578113Y-99585000D01*
X60908281Y-99320414D01*
X62161271Y-98801408D01*
X63288932Y-98047929D01*
X64247929Y-97088932D01*
X65001408Y-95961271D01*
X65520414Y-94708281D01*
X65785000Y-93378113D01*
X65785000Y-92021887D01*
X65520414Y-90691719D01*
X65001408Y-89438729D01*
X64247929Y-88311068D01*
X63288932Y-87352071D01*
X62161271Y-86598592D01*
X60908281Y-86079586D01*
X59660000Y-85831288D01*
X59660000Y-82219427D01*
X59803456Y-82160005D01*
X59972974Y-82046737D01*
X60117137Y-81902574D01*
X60230405Y-81733056D01*
X60308426Y-81544698D01*
X60348200Y-81344739D01*
X60348200Y-81140861D01*
X60318363Y-80990861D01*
X61052071Y-82088932D01*
X61813455Y-82850316D01*
X61618102Y-82889174D01*
X61429744Y-82967195D01*
X61260226Y-83080463D01*
X61116063Y-83224626D01*
X61002795Y-83394144D01*
X60924774Y-83582502D01*
X60885000Y-83782461D01*
X60885000Y-83986339D01*
X60924774Y-84186298D01*
X61002795Y-84374656D01*
X61116063Y-84544174D01*
X61260226Y-84688337D01*
X61429744Y-84801605D01*
X61618102Y-84879626D01*
X61818061Y-84919400D01*
X61880198Y-84919400D01*
X62235644Y-85274846D01*
X62259442Y-85303844D01*
X62375167Y-85398817D01*
X62507196Y-85469389D01*
X62650457Y-85512846D01*
X62762110Y-85523843D01*
X62762119Y-85523843D01*
X62799442Y-85527519D01*
X62836765Y-85523843D01*
X66481217Y-85523843D01*
X66525154Y-85567780D01*
X66694672Y-85681048D01*
X66719663Y-85691400D01*
X66622213Y-85700998D01*
X66478952Y-85744455D01*
X66346923Y-85815027D01*
X66308451Y-85846600D01*
X66237661Y-85846600D01*
X66037702Y-85886374D01*
X65849344Y-85964395D01*
X65679826Y-86077663D01*
X65535663Y-86221826D01*
X65422395Y-86391344D01*
X65344374Y-86579702D01*
X65304600Y-86779661D01*
X65304600Y-86983539D01*
X65344374Y-87183498D01*
X65422395Y-87371856D01*
X65535663Y-87541374D01*
X65679826Y-87685537D01*
X65849344Y-87798805D01*
X66037702Y-87876826D01*
X66237661Y-87916600D01*
X66441539Y-87916600D01*
X66641498Y-87876826D01*
X66829856Y-87798805D01*
X66999374Y-87685537D01*
X67143537Y-87541374D01*
X67256805Y-87371856D01*
X67323848Y-87210001D01*
X67335200Y-87210001D01*
X68505686Y-88380488D01*
X67798592Y-89438729D01*
X67279586Y-90691719D01*
X67015000Y-92021887D01*
X67015000Y-93378113D01*
X67279586Y-94708281D01*
X67798592Y-95961271D01*
X68552071Y-97088932D01*
X69511068Y-98047929D01*
X70638729Y-98801408D01*
X71891719Y-99320414D01*
X73221887Y-99585000D01*
X74578113Y-99585000D01*
X75908281Y-99320414D01*
X77161271Y-98801408D01*
X78288932Y-98047929D01*
X79247929Y-97088932D01*
X80001408Y-95961271D01*
X80520414Y-94708281D01*
X80785000Y-93378113D01*
X80785000Y-92021887D01*
X80520414Y-90691719D01*
X80001408Y-89438729D01*
X79247929Y-88311068D01*
X78288932Y-87352071D01*
X77161271Y-86598592D01*
X75908281Y-86079586D01*
X74578113Y-85815000D01*
X73221887Y-85815000D01*
X71891719Y-86079586D01*
X70638729Y-86598592D01*
X69580488Y-87305686D01*
X68213805Y-85939004D01*
X68190002Y-85910000D01*
X68074277Y-85815027D01*
X67942248Y-85744455D01*
X67798987Y-85700998D01*
X67687334Y-85690001D01*
X67687323Y-85690001D01*
X67660054Y-85687315D01*
X67675184Y-85681048D01*
X67844702Y-85567780D01*
X67988865Y-85423617D01*
X68102133Y-85254099D01*
X68180154Y-85065741D01*
X68219928Y-84865782D01*
X68219928Y-84661904D01*
X68180154Y-84461945D01*
X68143357Y-84373110D01*
X68408281Y-84320414D01*
X68971161Y-84087261D01*
X76277400Y-84087261D01*
X76277400Y-84291139D01*
X76317174Y-84491098D01*
X76395195Y-84679456D01*
X76508463Y-84848974D01*
X76652626Y-84993137D01*
X76822144Y-85106405D01*
X77010502Y-85184426D01*
X77210461Y-85224200D01*
X77414339Y-85224200D01*
X77614298Y-85184426D01*
X77739687Y-85132488D01*
X79731800Y-87124602D01*
X79731800Y-87186739D01*
X79771574Y-87386698D01*
X79849595Y-87575056D01*
X79962863Y-87744574D01*
X80107026Y-87888737D01*
X80276544Y-88002005D01*
X80464902Y-88080026D01*
X80664861Y-88119800D01*
X80868739Y-88119800D01*
X81068698Y-88080026D01*
X81257056Y-88002005D01*
X81426574Y-87888737D01*
X81570737Y-87744574D01*
X81684005Y-87575056D01*
X81762026Y-87386698D01*
X81801800Y-87186739D01*
X81801800Y-86982861D01*
X81762026Y-86782902D01*
X81684005Y-86594544D01*
X81570737Y-86425026D01*
X81426574Y-86280863D01*
X81257056Y-86167595D01*
X81068698Y-86089574D01*
X80868739Y-86049800D01*
X80806602Y-86049800D01*
X78435004Y-83678203D01*
X78411201Y-83649199D01*
X78295476Y-83554226D01*
X78163447Y-83483654D01*
X78030122Y-83443211D01*
X77972174Y-83385263D01*
X77802656Y-83271995D01*
X77614298Y-83193974D01*
X77414339Y-83154200D01*
X77210461Y-83154200D01*
X77010502Y-83193974D01*
X76822144Y-83271995D01*
X76652626Y-83385263D01*
X76508463Y-83529426D01*
X76395195Y-83698944D01*
X76317174Y-83887302D01*
X76277400Y-84087261D01*
X68971161Y-84087261D01*
X69661271Y-83801408D01*
X70788932Y-83047929D01*
X71747929Y-82088932D01*
X72215002Y-81389908D01*
X72215002Y-81779669D01*
X72211325Y-81817001D01*
X72215002Y-81854334D01*
X72218489Y-81889732D01*
X72225999Y-81965986D01*
X72269455Y-82109247D01*
X72340027Y-82241277D01*
X72380506Y-82290600D01*
X72435001Y-82357002D01*
X72463998Y-82380800D01*
X72686600Y-82603402D01*
X72686600Y-82665539D01*
X72726374Y-82865498D01*
X72804395Y-83053856D01*
X72917663Y-83223374D01*
X73061826Y-83367537D01*
X73231344Y-83480805D01*
X73419702Y-83558826D01*
X73619661Y-83598600D01*
X73823539Y-83598600D01*
X74023498Y-83558826D01*
X74211856Y-83480805D01*
X74381374Y-83367537D01*
X74525537Y-83223374D01*
X74638805Y-83053856D01*
X74716826Y-82865498D01*
X74756600Y-82665539D01*
X74756600Y-82461661D01*
X74716826Y-82261702D01*
X74638805Y-82073344D01*
X74525537Y-81903826D01*
X74381374Y-81759663D01*
X74211856Y-81646395D01*
X74023498Y-81568374D01*
X73823539Y-81528600D01*
X73761402Y-81528600D01*
X73735001Y-81502199D01*
X73735001Y-81007800D01*
X73807539Y-81007800D01*
X74007498Y-80968026D01*
X74195856Y-80890005D01*
X74365374Y-80776737D01*
X74509537Y-80632574D01*
X74622805Y-80463056D01*
X74700826Y-80274698D01*
X74740600Y-80074739D01*
X74740600Y-80012602D01*
X74877002Y-79876200D01*
X74906001Y-79852401D01*
X75000974Y-79736676D01*
X75071546Y-79604647D01*
X75115003Y-79461386D01*
X75126000Y-79349733D01*
X75126000Y-79349725D01*
X75129676Y-79312400D01*
X75126000Y-79275075D01*
X75126000Y-71436400D01*
X87047444Y-71436400D01*
X87084766Y-71440076D01*
X87122088Y-71436400D01*
X87122099Y-71436400D01*
X87233752Y-71425403D01*
X87377013Y-71381946D01*
X87509042Y-71311374D01*
X87624767Y-71216401D01*
X87648570Y-71187397D01*
X95375968Y-63460000D01*
X97031288Y-63460000D01*
X97279586Y-64708281D01*
X97798592Y-65961271D01*
X98552071Y-67088932D01*
X99511068Y-68047929D01*
X100638729Y-68801408D01*
X101891719Y-69320414D01*
X103221887Y-69585000D01*
X104578113Y-69585000D01*
X105908281Y-69320414D01*
X107161271Y-68801408D01*
X108288932Y-68047929D01*
X109247929Y-67088932D01*
X110001408Y-65961271D01*
X110520414Y-64708281D01*
X110785000Y-63378113D01*
X110785000Y-62021887D01*
X110520414Y-60691719D01*
X110001408Y-59438729D01*
X109247929Y-58311068D01*
X108288932Y-57352071D01*
X107161271Y-56598592D01*
X105908281Y-56079586D01*
X104578113Y-55815000D01*
X103221887Y-55815000D01*
X101891719Y-56079586D01*
X100638729Y-56598592D01*
X99511068Y-57352071D01*
X98552071Y-58311068D01*
X97798592Y-59438729D01*
X97279586Y-60691719D01*
X97031288Y-61940000D01*
X95098488Y-61940000D01*
X95061165Y-61936324D01*
X95023842Y-61940000D01*
X95023833Y-61940000D01*
X94912180Y-61950997D01*
X94768919Y-61994454D01*
X94636889Y-62065026D01*
X94553249Y-62133668D01*
X94521165Y-62159999D01*
X94497367Y-62188997D01*
X86769965Y-69916400D01*
X74403333Y-69916400D01*
X74366000Y-69912723D01*
X74328667Y-69916400D01*
X74217014Y-69927397D01*
X74073753Y-69970854D01*
X73941724Y-70041426D01*
X73825999Y-70136399D01*
X73731026Y-70252124D01*
X73660454Y-70384153D01*
X73616997Y-70527414D01*
X73602323Y-70676400D01*
X73606000Y-70713733D01*
X73606000Y-71853482D01*
X73515002Y-71742600D01*
X73486004Y-71718803D01*
X73470600Y-71703398D01*
X73470600Y-71641261D01*
X73430826Y-71441302D01*
X73352805Y-71252944D01*
X73239537Y-71083426D01*
X73095374Y-70939263D01*
X72925856Y-70825995D01*
X72737498Y-70747974D01*
X72537539Y-70708200D01*
X72333661Y-70708200D01*
X72133702Y-70747974D01*
X71945344Y-70825995D01*
X71775826Y-70939263D01*
X71631663Y-71083426D01*
X71518395Y-71252944D01*
X71440374Y-71441302D01*
X71400600Y-71641261D01*
X71400600Y-71845139D01*
X71440374Y-72045098D01*
X71518395Y-72233456D01*
X71631663Y-72402974D01*
X71775826Y-72547137D01*
X71945344Y-72660405D01*
X72133702Y-72738426D01*
X72215001Y-72754597D01*
X72215001Y-74010091D01*
X71747929Y-73311068D01*
X70788932Y-72352071D01*
X69661271Y-71598592D01*
X68408281Y-71079586D01*
X67078113Y-70815000D01*
X65721887Y-70815000D01*
X64391719Y-71079586D01*
X63138729Y-71598592D01*
X62011068Y-72352071D01*
X61359570Y-73003569D01*
X61177000Y-72820999D01*
X61177000Y-72758861D01*
X61137226Y-72558902D01*
X61059205Y-72370544D01*
X60945937Y-72201026D01*
X60801774Y-72056863D01*
X60632256Y-71943595D01*
X60443898Y-71865574D01*
X60243939Y-71825800D01*
X60040061Y-71825800D01*
X59840102Y-71865574D01*
X59660000Y-71940175D01*
X59660000Y-69568712D01*
X60908281Y-69320414D01*
X62161271Y-68801408D01*
X63288932Y-68047929D01*
X64247929Y-67088932D01*
X65001408Y-65961271D01*
X65520414Y-64708281D01*
X65785000Y-63378113D01*
X65785000Y-62021887D01*
X67015000Y-62021887D01*
X67015000Y-63378113D01*
X67279586Y-64708281D01*
X67798592Y-65961271D01*
X68552071Y-67088932D01*
X69511068Y-68047929D01*
X70155245Y-68478354D01*
X69769973Y-68863626D01*
X69746102Y-68868374D01*
X69557744Y-68946395D01*
X69388226Y-69059663D01*
X69244063Y-69203826D01*
X69130795Y-69373344D01*
X69052774Y-69561702D01*
X69013000Y-69761661D01*
X69013000Y-69965539D01*
X69052774Y-70165498D01*
X69130795Y-70353856D01*
X69244063Y-70523374D01*
X69388226Y-70667537D01*
X69557744Y-70780805D01*
X69746102Y-70858826D01*
X69946061Y-70898600D01*
X70149939Y-70898600D01*
X70349898Y-70858826D01*
X70538256Y-70780805D01*
X70707774Y-70667537D01*
X70851937Y-70523374D01*
X70965205Y-70353856D01*
X71043226Y-70165498D01*
X71083000Y-69965539D01*
X71083000Y-69761661D01*
X71072803Y-69710398D01*
X71588419Y-69194783D01*
X71891719Y-69320414D01*
X73221887Y-69585000D01*
X74578113Y-69585000D01*
X75908281Y-69320414D01*
X77161271Y-68801408D01*
X78288932Y-68047929D01*
X79247929Y-67088932D01*
X80001408Y-65961271D01*
X80520414Y-64708281D01*
X80785000Y-63378113D01*
X80785000Y-62021887D01*
X80520414Y-60691719D01*
X80001408Y-59438729D01*
X79247929Y-58311068D01*
X78288932Y-57352071D01*
X77161271Y-56598592D01*
X75908281Y-56079586D01*
X74578113Y-55815000D01*
X73221887Y-55815000D01*
X71891719Y-56079586D01*
X70638729Y-56598592D01*
X69511068Y-57352071D01*
X68552071Y-58311068D01*
X67798592Y-59438729D01*
X67279586Y-60691719D01*
X67015000Y-62021887D01*
X65785000Y-62021887D01*
X65520414Y-60691719D01*
X65001408Y-59438729D01*
X64247929Y-58311068D01*
X63288932Y-57352071D01*
X62161271Y-56598592D01*
X60908281Y-56079586D01*
X60737728Y-56045661D01*
X66727000Y-56045661D01*
X66727000Y-56249539D01*
X66766774Y-56449498D01*
X66844795Y-56637856D01*
X66958063Y-56807374D01*
X67102226Y-56951537D01*
X67271744Y-57064805D01*
X67460102Y-57142826D01*
X67660061Y-57182600D01*
X67863939Y-57182600D01*
X68063898Y-57142826D01*
X68252256Y-57064805D01*
X68421774Y-56951537D01*
X68565937Y-56807374D01*
X68679205Y-56637856D01*
X68757226Y-56449498D01*
X68797000Y-56249539D01*
X68797000Y-56187401D01*
X71524012Y-53460390D01*
X92996408Y-53460390D01*
X81068603Y-65388196D01*
X81039599Y-65411999D01*
X80984471Y-65479174D01*
X80944626Y-65527724D01*
X80874236Y-65659414D01*
X80874054Y-65659754D01*
X80830597Y-65803015D01*
X80819600Y-65914668D01*
X80819600Y-65914678D01*
X80815924Y-65952000D01*
X80819600Y-65989323D01*
X80819601Y-67127888D01*
X80775663Y-67171826D01*
X80662395Y-67341344D01*
X80584374Y-67529702D01*
X80544600Y-67729661D01*
X80544600Y-67933539D01*
X80584374Y-68133498D01*
X80662395Y-68321856D01*
X80775663Y-68491374D01*
X80919826Y-68635537D01*
X81089344Y-68748805D01*
X81277702Y-68826826D01*
X81477661Y-68866600D01*
X81681539Y-68866600D01*
X81881498Y-68826826D01*
X82069856Y-68748805D01*
X82239374Y-68635537D01*
X82383537Y-68491374D01*
X82496805Y-68321856D01*
X82574826Y-68133498D01*
X82614600Y-67933539D01*
X82614600Y-67729661D01*
X82574826Y-67529702D01*
X82496805Y-67341344D01*
X82383537Y-67171826D01*
X82339600Y-67127889D01*
X82339600Y-66266801D01*
X94696002Y-53910400D01*
X109035599Y-53910400D01*
X113505686Y-58380488D01*
X112798592Y-59438729D01*
X112279586Y-60691719D01*
X112015000Y-62021887D01*
X112015000Y-63378113D01*
X112279586Y-64708281D01*
X112798592Y-65961271D01*
X113552071Y-67088932D01*
X114511068Y-68047929D01*
X115638729Y-68801408D01*
X115828238Y-68879905D01*
X115764586Y-68860597D01*
X115652933Y-68849600D01*
X115652922Y-68849600D01*
X115615600Y-68845924D01*
X115578278Y-68849600D01*
X107880523Y-68849600D01*
X107843200Y-68845924D01*
X107805877Y-68849600D01*
X107805867Y-68849600D01*
X107694214Y-68860597D01*
X107550953Y-68904054D01*
X107418924Y-68974626D01*
X107303199Y-69069599D01*
X107279401Y-69098597D01*
X103369803Y-73008196D01*
X103340799Y-73031999D01*
X103303485Y-73077467D01*
X103245826Y-73147724D01*
X103208783Y-73217026D01*
X103175254Y-73279754D01*
X103131797Y-73423015D01*
X103120800Y-73534668D01*
X103120800Y-73534678D01*
X103117124Y-73572000D01*
X103120800Y-73609323D01*
X103120801Y-75414683D01*
X103120759Y-75415114D01*
X103120779Y-75433430D01*
X103118048Y-75489156D01*
X103120863Y-75508116D01*
X103121633Y-76200585D01*
X103020414Y-75691719D01*
X102501408Y-74438729D01*
X101747929Y-73311068D01*
X100788932Y-72352071D01*
X99661271Y-71598592D01*
X98408281Y-71079586D01*
X97078113Y-70815000D01*
X95721887Y-70815000D01*
X94391719Y-71079586D01*
X93138729Y-71598592D01*
X92011068Y-72352071D01*
X91052071Y-73311068D01*
X90298592Y-74438729D01*
X89779586Y-75691719D01*
X89515000Y-77021887D01*
X89515000Y-78378113D01*
X89779586Y-79708281D01*
X90298592Y-80961271D01*
X91052071Y-82088932D01*
X92011068Y-83047929D01*
X93138729Y-83801408D01*
X94391719Y-84320414D01*
X95640001Y-84568712D01*
X95640001Y-85683088D01*
X95609263Y-85713826D01*
X95495995Y-85883344D01*
X95417974Y-86071702D01*
X95378200Y-86271661D01*
X95378200Y-86475539D01*
X95417974Y-86675498D01*
X95495995Y-86863856D01*
X95609263Y-87033374D01*
X95753426Y-87177537D01*
X95922944Y-87290805D01*
X96111302Y-87368826D01*
X96311261Y-87408600D01*
X96515139Y-87408600D01*
X96715098Y-87368826D01*
X96903456Y-87290805D01*
X97072974Y-87177537D01*
X97217137Y-87033374D01*
X97330405Y-86863856D01*
X97408426Y-86675498D01*
X97448200Y-86475539D01*
X97448200Y-86271661D01*
X97408426Y-86071702D01*
X97330405Y-85883344D01*
X97217137Y-85713826D01*
X97160000Y-85656689D01*
X97160000Y-84568712D01*
X98408281Y-84320414D01*
X99661271Y-83801408D01*
X100788932Y-83047929D01*
X101747929Y-82088932D01*
X102501408Y-80961271D01*
X103020414Y-79708281D01*
X103124953Y-79182726D01*
X103132356Y-85832809D01*
X101891719Y-86079586D01*
X100638729Y-86598592D01*
X99511068Y-87352071D01*
X98552071Y-88311068D01*
X97798592Y-89438729D01*
X97279586Y-90691719D01*
X97015000Y-92021887D01*
X97015000Y-93378113D01*
X97279586Y-94708281D01*
X97798592Y-95961271D01*
X98552071Y-97088932D01*
X99511068Y-98047929D01*
X100638729Y-98801408D01*
X101891719Y-99320414D01*
X103221887Y-99585000D01*
X104578113Y-99585000D01*
X105908281Y-99320414D01*
X106781814Y-98958584D01*
X105050398Y-100690001D01*
X102687321Y-100690001D01*
X102649998Y-100686325D01*
X102612675Y-100690001D01*
X102612666Y-100690001D01*
X102501013Y-100700998D01*
X102357752Y-100744455D01*
X102225723Y-100815027D01*
X102109998Y-100910000D01*
X102086200Y-100938998D01*
X100719512Y-102305686D01*
X99661271Y-101598592D01*
X98408281Y-101079586D01*
X97078113Y-100815000D01*
X95721887Y-100815000D01*
X94391719Y-101079586D01*
X93138729Y-101598592D01*
X92011068Y-102352071D01*
X91052071Y-103311068D01*
X90298592Y-104438729D01*
X89779586Y-105691719D01*
X89515000Y-107021887D01*
X89515000Y-108378113D01*
X89779586Y-109708281D01*
X90298592Y-110961271D01*
X91052071Y-112088932D01*
X92011068Y-113047929D01*
X93138729Y-113801408D01*
X94391719Y-114320414D01*
X95721887Y-114585000D01*
X97078113Y-114585000D01*
X98408281Y-114320414D01*
X99661271Y-113801408D01*
X100788932Y-113047929D01*
X101747929Y-112088932D01*
X102501408Y-110961271D01*
X103020414Y-109708281D01*
X103285000Y-108378113D01*
X103285000Y-107021887D01*
X104515000Y-107021887D01*
X104515000Y-108378113D01*
X104779586Y-109708281D01*
X105298592Y-110961271D01*
X106052071Y-112088932D01*
X107011068Y-113047929D01*
X108138729Y-113801408D01*
X109391719Y-114320414D01*
X110721887Y-114585000D01*
X112078113Y-114585000D01*
X113408281Y-114320414D01*
X114661271Y-113801408D01*
X115719512Y-113094314D01*
X120955001Y-118329803D01*
X120978799Y-118358801D01*
X121007797Y-118382599D01*
X121094524Y-118453774D01*
X121226553Y-118524346D01*
X121369814Y-118567803D01*
X121518800Y-118582477D01*
X121556133Y-118578800D01*
X154033878Y-118578800D01*
X154071200Y-118582476D01*
X154108522Y-118578800D01*
X154108533Y-118578800D01*
X154220186Y-118567803D01*
X154363447Y-118524346D01*
X154495476Y-118453774D01*
X154611201Y-118358801D01*
X154635004Y-118329797D01*
X159394202Y-113570600D01*
X159456339Y-113570600D01*
X159656298Y-113530826D01*
X159844656Y-113452805D01*
X160014174Y-113339537D01*
X160158337Y-113195374D01*
X160271605Y-113025856D01*
X160349626Y-112837498D01*
X160389400Y-112637539D01*
X160389400Y-112433661D01*
X160349626Y-112233702D01*
X160271605Y-112045344D01*
X160158337Y-111875826D01*
X160014174Y-111731663D01*
X159844656Y-111618395D01*
X159656298Y-111540374D01*
X159456339Y-111500600D01*
X159252461Y-111500600D01*
X159052502Y-111540374D01*
X158864144Y-111618395D01*
X158694626Y-111731663D01*
X158550463Y-111875826D01*
X158437195Y-112045344D01*
X158359174Y-112233702D01*
X158319400Y-112433661D01*
X158319400Y-112495798D01*
X153756399Y-117058800D01*
X121833602Y-117058800D01*
X116794314Y-112019512D01*
X117501408Y-110961271D01*
X118020414Y-109708281D01*
X118285000Y-108378113D01*
X118285000Y-107021887D01*
X119515000Y-107021887D01*
X119515000Y-108378113D01*
X119779586Y-109708281D01*
X120298592Y-110961271D01*
X121052071Y-112088932D01*
X122011068Y-113047929D01*
X123138729Y-113801408D01*
X124391719Y-114320414D01*
X125721887Y-114585000D01*
X127078113Y-114585000D01*
X128408281Y-114320414D01*
X129661271Y-113801408D01*
X130788932Y-113047929D01*
X131747929Y-112088932D01*
X132501408Y-110961271D01*
X133020414Y-109708281D01*
X133285000Y-108378113D01*
X133285000Y-107021887D01*
X133020414Y-105691719D01*
X132501408Y-104438729D01*
X131794314Y-103380488D01*
X132964801Y-102210001D01*
X137077877Y-102210001D01*
X137115199Y-102213677D01*
X137152521Y-102210001D01*
X137152532Y-102210001D01*
X137235993Y-102201781D01*
X137011068Y-102352071D01*
X136052071Y-103311068D01*
X135298592Y-104438729D01*
X134779586Y-105691719D01*
X134515000Y-107021887D01*
X134515000Y-108378113D01*
X134779586Y-109708281D01*
X135298592Y-110961271D01*
X136052071Y-112088932D01*
X137011068Y-113047929D01*
X138138729Y-113801408D01*
X139391719Y-114320414D01*
X140721887Y-114585000D01*
X142078113Y-114585000D01*
X143408281Y-114320414D01*
X144661271Y-113801408D01*
X145788932Y-113047929D01*
X146747929Y-112088932D01*
X147501408Y-110961271D01*
X148020414Y-109708281D01*
X148268712Y-108460000D01*
X162476278Y-108460000D01*
X162513600Y-108463676D01*
X162550922Y-108460000D01*
X162550933Y-108460000D01*
X162662586Y-108449003D01*
X162698444Y-108438126D01*
X162706861Y-108439800D01*
X162910739Y-108439800D01*
X163110698Y-108400026D01*
X163299056Y-108322005D01*
X163468574Y-108208737D01*
X163612737Y-108064574D01*
X163726005Y-107895056D01*
X163804026Y-107706698D01*
X163843800Y-107506739D01*
X163843800Y-107302861D01*
X163804026Y-107102902D01*
X163770469Y-107021887D01*
X164515000Y-107021887D01*
X164515000Y-108378113D01*
X164779586Y-109708281D01*
X165298592Y-110961271D01*
X166052071Y-112088932D01*
X167011068Y-113047929D01*
X168138729Y-113801408D01*
X169391719Y-114320414D01*
X170721887Y-114585000D01*
X172078113Y-114585000D01*
X173408281Y-114320414D01*
X174661271Y-113801408D01*
X175719512Y-113094314D01*
X177411201Y-114786003D01*
X177435000Y-114815002D01*
X177463998Y-114838800D01*
X177550725Y-114909975D01*
X177682754Y-114980547D01*
X177826015Y-115024004D01*
X177975001Y-115038678D01*
X178012334Y-115035001D01*
X195831000Y-115035001D01*
X202427801Y-121631803D01*
X202451599Y-121660801D01*
X202567324Y-121755774D01*
X202699353Y-121826346D01*
X202842614Y-121869803D01*
X202954267Y-121880800D01*
X202954275Y-121880800D01*
X202991600Y-121884476D01*
X203028925Y-121880800D01*
X225001478Y-121880800D01*
X225038800Y-121884476D01*
X225076122Y-121880800D01*
X225076133Y-121880800D01*
X225187786Y-121869803D01*
X225331047Y-121826346D01*
X225463076Y-121755774D01*
X225578801Y-121660801D01*
X225602604Y-121631797D01*
X240586610Y-106647793D01*
X240615601Y-106624001D01*
X240639395Y-106595008D01*
X240639399Y-106595004D01*
X240710573Y-106508277D01*
X240710574Y-106508276D01*
X240781146Y-106376247D01*
X240824603Y-106232986D01*
X240835600Y-106121333D01*
X240835600Y-106121324D01*
X240839276Y-106084001D01*
X240835600Y-106046678D01*
X240835600Y-96873999D01*
X240875403Y-96742784D01*
X240886400Y-96631131D01*
X240886400Y-96631121D01*
X240890076Y-96593799D01*
X240886400Y-96556476D01*
X240886400Y-90728925D01*
X240890076Y-90691600D01*
X240886400Y-90654275D01*
X240886400Y-90654267D01*
X240875403Y-90542614D01*
X240831946Y-90399353D01*
X240761374Y-90267324D01*
X240666401Y-90151599D01*
X240637403Y-90127801D01*
X235813404Y-85303803D01*
X235789601Y-85274799D01*
X235673876Y-85179826D01*
X235541847Y-85109254D01*
X235398586Y-85065797D01*
X235286933Y-85054800D01*
X235286922Y-85054800D01*
X235249600Y-85051124D01*
X235212278Y-85054800D01*
X220510111Y-85054800D01*
X220466174Y-85010863D01*
X220296656Y-84897595D01*
X220108298Y-84819574D01*
X219908339Y-84779800D01*
X219704461Y-84779800D01*
X219563577Y-84807823D01*
X219591600Y-84666939D01*
X219591600Y-84463061D01*
X219551826Y-84263102D01*
X219473805Y-84074744D01*
X219371396Y-83921478D01*
X219661271Y-83801408D01*
X220788932Y-83047929D01*
X221747929Y-82088932D01*
X222501408Y-80961271D01*
X223020414Y-79708281D01*
X223268712Y-78460000D01*
X223840289Y-78460000D01*
X223871026Y-78490737D01*
X224040544Y-78604005D01*
X224228902Y-78682026D01*
X224428861Y-78721800D01*
X224632739Y-78721800D01*
X224832698Y-78682026D01*
X225021056Y-78604005D01*
X225190574Y-78490737D01*
X225334737Y-78346574D01*
X225448005Y-78177056D01*
X225526026Y-77988698D01*
X225565800Y-77788739D01*
X225565800Y-77584861D01*
X225526026Y-77384902D01*
X225448005Y-77196544D01*
X225334737Y-77027026D01*
X225190574Y-76882863D01*
X225021056Y-76769595D01*
X224832698Y-76691574D01*
X224632739Y-76651800D01*
X224428861Y-76651800D01*
X224228902Y-76691574D01*
X224040544Y-76769595D01*
X223871026Y-76882863D01*
X223813889Y-76940000D01*
X223268712Y-76940000D01*
X223020414Y-75691719D01*
X222501408Y-74438729D01*
X221747929Y-73311068D01*
X220788932Y-72352071D01*
X219661271Y-71598592D01*
X218408281Y-71079586D01*
X217078113Y-70815000D01*
X215721887Y-70815000D01*
X214391719Y-71079586D01*
X213138729Y-71598592D01*
X212011068Y-72352071D01*
X211052071Y-73311068D01*
X210298592Y-74438729D01*
X209779586Y-75691719D01*
X209515000Y-77021887D01*
X209515000Y-78378113D01*
X209779586Y-79708281D01*
X210298592Y-80961271D01*
X211052071Y-82088932D01*
X212011068Y-83047929D01*
X213123453Y-83791201D01*
X212558403Y-83791201D01*
X210311804Y-81544603D01*
X210288001Y-81515599D01*
X210172276Y-81420626D01*
X210040247Y-81350054D01*
X209896986Y-81306597D01*
X209785333Y-81295600D01*
X209785322Y-81295600D01*
X209748000Y-81291924D01*
X209710678Y-81295600D01*
X209605603Y-81295600D01*
X208577600Y-80267599D01*
X208577600Y-74140801D01*
X210259004Y-72459398D01*
X210288001Y-72435601D01*
X210382974Y-72319876D01*
X210453546Y-72187847D01*
X210497003Y-72044586D01*
X210508000Y-71932933D01*
X210508000Y-71932923D01*
X210511676Y-71895600D01*
X210508000Y-71858277D01*
X210508000Y-53701711D01*
X210551937Y-53657774D01*
X210665205Y-53488256D01*
X210743226Y-53299898D01*
X210783000Y-53099939D01*
X210783000Y-52896061D01*
X210743226Y-52696102D01*
X210665205Y-52507744D01*
X210551937Y-52338226D01*
X210407774Y-52194063D01*
X210238256Y-52080795D01*
X210049898Y-52002774D01*
X209849939Y-51963000D01*
X209646061Y-51963000D01*
X209446102Y-52002774D01*
X209257744Y-52080795D01*
X209088226Y-52194063D01*
X208944063Y-52338226D01*
X208830795Y-52507744D01*
X208752774Y-52696102D01*
X208713000Y-52896061D01*
X208713000Y-53099939D01*
X208752774Y-53299898D01*
X208830795Y-53488256D01*
X208944063Y-53657774D01*
X208988000Y-53701711D01*
X208988001Y-70994657D01*
X208988000Y-70994667D01*
X208988000Y-71580798D01*
X207306598Y-73262201D01*
X207277600Y-73285999D01*
X207253802Y-73314997D01*
X207253801Y-73314998D01*
X207182626Y-73401724D01*
X207112054Y-73533754D01*
X207096645Y-73584554D01*
X207068598Y-73677014D01*
X207061432Y-73749773D01*
X207053924Y-73826000D01*
X207057601Y-73863332D01*
X207057600Y-80545077D01*
X207053924Y-80582400D01*
X207057600Y-80619722D01*
X207057600Y-80619732D01*
X207068597Y-80731385D01*
X207106754Y-80857174D01*
X207112054Y-80874646D01*
X207182626Y-81006676D01*
X207194403Y-81021026D01*
X207277599Y-81122401D01*
X207306602Y-81146203D01*
X208727005Y-82566608D01*
X208750799Y-82595601D01*
X208779792Y-82619395D01*
X208779796Y-82619399D01*
X208824806Y-82656337D01*
X208866524Y-82690574D01*
X208998553Y-82761146D01*
X209141814Y-82804603D01*
X209253467Y-82815600D01*
X209253476Y-82815600D01*
X209290799Y-82819276D01*
X209328122Y-82815600D01*
X209433199Y-82815600D01*
X211679801Y-85062203D01*
X211703600Y-85091202D01*
X211819325Y-85186175D01*
X211951354Y-85256747D01*
X212094615Y-85300204D01*
X212206268Y-85311201D01*
X212206276Y-85311201D01*
X212243601Y-85314877D01*
X212280926Y-85311201D01*
X212840841Y-85311201D01*
X212894795Y-85441456D01*
X213008063Y-85610974D01*
X213152226Y-85755137D01*
X213321744Y-85868405D01*
X213510102Y-85946426D01*
X213710061Y-85986200D01*
X213747344Y-85986200D01*
X213677344Y-86015195D01*
X213507826Y-86128463D01*
X213363663Y-86272626D01*
X213250395Y-86442144D01*
X213172374Y-86630502D01*
X213132600Y-86830461D01*
X213132600Y-86892599D01*
X213097802Y-86927397D01*
X213068799Y-86951199D01*
X213021713Y-87008574D01*
X212973826Y-87066924D01*
X212909783Y-87186739D01*
X212903254Y-87198954D01*
X212859797Y-87342215D01*
X212848800Y-87453868D01*
X212848800Y-87453878D01*
X212845124Y-87491200D01*
X212848800Y-87528523D01*
X212848801Y-90902288D01*
X212804863Y-90946226D01*
X212691595Y-91115744D01*
X212613574Y-91304102D01*
X212573800Y-91504061D01*
X212573800Y-91707939D01*
X212613574Y-91907898D01*
X212691595Y-92096256D01*
X212804863Y-92265774D01*
X212949026Y-92409937D01*
X213118544Y-92523205D01*
X213306902Y-92601226D01*
X213506861Y-92641000D01*
X213710739Y-92641000D01*
X213910698Y-92601226D01*
X214099056Y-92523205D01*
X214268574Y-92409937D01*
X214412737Y-92265774D01*
X214526005Y-92096256D01*
X214604026Y-91907898D01*
X214643800Y-91707939D01*
X214643800Y-91504061D01*
X214604026Y-91304102D01*
X214526005Y-91115744D01*
X214412737Y-90946226D01*
X214368800Y-90902289D01*
X214368800Y-87947656D01*
X214469498Y-87927626D01*
X214657856Y-87849605D01*
X214827374Y-87736337D01*
X214971537Y-87592174D01*
X215084805Y-87422656D01*
X215162826Y-87234298D01*
X215202600Y-87034339D01*
X215202600Y-86830461D01*
X215162826Y-86630502D01*
X215084805Y-86442144D01*
X214971537Y-86272626D01*
X214827374Y-86128463D01*
X214657856Y-86015195D01*
X214469498Y-85937174D01*
X214269539Y-85897400D01*
X214232256Y-85897400D01*
X214302256Y-85868405D01*
X214471774Y-85755137D01*
X214615937Y-85610974D01*
X214729205Y-85441456D01*
X214807226Y-85253098D01*
X214847000Y-85053139D01*
X214847000Y-84849261D01*
X214807226Y-84649302D01*
X214729205Y-84460944D01*
X214672643Y-84376293D01*
X215721887Y-84585000D01*
X217078113Y-84585000D01*
X217521600Y-84496785D01*
X217521600Y-84666939D01*
X217561374Y-84866898D01*
X217639395Y-85055256D01*
X217752663Y-85224774D01*
X217796601Y-85268712D01*
X217796601Y-86070000D01*
X217729661Y-86070000D01*
X217529702Y-86109774D01*
X217341344Y-86187795D01*
X217171826Y-86301063D01*
X217027663Y-86445226D01*
X216914395Y-86614744D01*
X216836374Y-86803102D01*
X216796600Y-87003061D01*
X216796600Y-87065198D01*
X215888998Y-87972801D01*
X215860000Y-87996599D01*
X215836202Y-88025597D01*
X215836201Y-88025598D01*
X215765026Y-88112324D01*
X215694454Y-88244354D01*
X215672419Y-88316997D01*
X215650998Y-88387614D01*
X215644559Y-88452986D01*
X215636324Y-88536600D01*
X215640001Y-88573933D01*
X215640000Y-100831288D01*
X214391719Y-101079586D01*
X213138729Y-101598592D01*
X212011068Y-102352071D01*
X211052071Y-103311068D01*
X210298592Y-104438729D01*
X209779586Y-105691719D01*
X209515000Y-107021887D01*
X209515000Y-108378113D01*
X209779586Y-109708281D01*
X210298592Y-110961271D01*
X211052071Y-112088932D01*
X212011068Y-113047929D01*
X213138729Y-113801408D01*
X214391719Y-114320414D01*
X215721887Y-114585000D01*
X217078113Y-114585000D01*
X218408281Y-114320414D01*
X219661271Y-113801408D01*
X220788932Y-113047929D01*
X221747929Y-112088932D01*
X222501408Y-110961271D01*
X223020414Y-109708281D01*
X223285000Y-108378113D01*
X223285000Y-107021887D01*
X223020414Y-105691719D01*
X222501408Y-104438729D01*
X221747929Y-103311068D01*
X220788932Y-102352071D01*
X219661271Y-101598592D01*
X218408281Y-101079586D01*
X217160000Y-100831288D01*
X217160000Y-88851401D01*
X217796601Y-88214801D01*
X217796600Y-92249278D01*
X217792924Y-92286600D01*
X217796600Y-92323922D01*
X217796600Y-92323932D01*
X217807597Y-92435585D01*
X217842612Y-92551015D01*
X217851054Y-92578846D01*
X217921626Y-92710876D01*
X217961471Y-92759426D01*
X218016599Y-92826601D01*
X218045603Y-92850404D01*
X218406196Y-93210997D01*
X218429999Y-93240001D01*
X218545724Y-93334974D01*
X218677753Y-93405546D01*
X218821014Y-93449003D01*
X218932667Y-93460000D01*
X218932677Y-93460000D01*
X218970000Y-93463676D01*
X219007323Y-93460000D01*
X219531288Y-93460000D01*
X219779586Y-94708281D01*
X220298592Y-95961271D01*
X221052071Y-97088932D01*
X222011068Y-98047929D01*
X223138729Y-98801408D01*
X224391719Y-99320414D01*
X225721887Y-99585000D01*
X227078113Y-99585000D01*
X228408281Y-99320414D01*
X229661271Y-98801408D01*
X230788932Y-98047929D01*
X231747929Y-97088932D01*
X232501408Y-95961271D01*
X233020414Y-94708281D01*
X233285000Y-93378113D01*
X233285000Y-92021887D01*
X233020414Y-90691719D01*
X232501408Y-89438729D01*
X231747929Y-88311068D01*
X230788932Y-87352071D01*
X229661271Y-86598592D01*
X229603832Y-86574800D01*
X234934799Y-86574800D01*
X239366401Y-91006403D01*
X239366400Y-96364398D01*
X239326598Y-96495613D01*
X239311924Y-96644598D01*
X239315601Y-96681930D01*
X239315600Y-105769197D01*
X224723999Y-120360800D01*
X203306402Y-120360800D01*
X196709605Y-113764004D01*
X196685802Y-113735000D01*
X196570077Y-113640027D01*
X196438048Y-113569455D01*
X196294787Y-113525998D01*
X196183134Y-113515001D01*
X196183123Y-113515001D01*
X196145801Y-113511325D01*
X196108479Y-113515001D01*
X178289803Y-113515001D01*
X176794314Y-112019512D01*
X177501408Y-110961271D01*
X178020414Y-109708281D01*
X178285000Y-108378113D01*
X178285000Y-107021887D01*
X178020414Y-105691719D01*
X177501408Y-104438729D01*
X176747929Y-103311068D01*
X175788932Y-102352071D01*
X174661271Y-101598592D01*
X173408281Y-101079586D01*
X172078113Y-100815000D01*
X170721887Y-100815000D01*
X169391719Y-101079586D01*
X168138729Y-101598592D01*
X167011068Y-102352071D01*
X166052071Y-103311068D01*
X165298592Y-104438729D01*
X164779586Y-105691719D01*
X164515000Y-107021887D01*
X163770469Y-107021887D01*
X163726005Y-106914544D01*
X163612737Y-106745026D01*
X163468574Y-106600863D01*
X163299056Y-106487595D01*
X163110698Y-106409574D01*
X162910739Y-106369800D01*
X162706861Y-106369800D01*
X162506902Y-106409574D01*
X162318544Y-106487595D01*
X162149026Y-106600863D01*
X162004863Y-106745026D01*
X161891595Y-106914544D01*
X161881051Y-106940000D01*
X148268712Y-106940000D01*
X148020414Y-105691719D01*
X147501408Y-104438729D01*
X146747929Y-103311068D01*
X145788932Y-102352071D01*
X144661271Y-101598592D01*
X143408281Y-101079586D01*
X142078113Y-100815000D01*
X140721887Y-100815000D01*
X139391719Y-101079586D01*
X138138729Y-101598592D01*
X137845439Y-101794562D01*
X139400002Y-100240000D01*
X164441889Y-100240000D01*
X164485826Y-100283937D01*
X164655344Y-100397205D01*
X164843702Y-100475226D01*
X165043661Y-100515000D01*
X165247539Y-100515000D01*
X165447498Y-100475226D01*
X165635856Y-100397205D01*
X165805374Y-100283937D01*
X165949537Y-100139774D01*
X166062805Y-99970256D01*
X166140826Y-99781898D01*
X166180600Y-99581939D01*
X166180600Y-99378061D01*
X166140826Y-99178102D01*
X166062805Y-98989744D01*
X165949537Y-98820226D01*
X165805374Y-98676063D01*
X165635856Y-98562795D01*
X165447498Y-98484774D01*
X165247539Y-98445000D01*
X165043661Y-98445000D01*
X164843702Y-98484774D01*
X164655344Y-98562795D01*
X164485826Y-98676063D01*
X164441889Y-98720000D01*
X139122522Y-98720000D01*
X139085199Y-98716324D01*
X139047876Y-98720000D01*
X139047867Y-98720000D01*
X138936214Y-98730997D01*
X138810475Y-98769139D01*
X138792953Y-98774454D01*
X138660923Y-98845026D01*
X138577283Y-98913668D01*
X138545199Y-98939999D01*
X138521401Y-98968997D01*
X136800398Y-100690001D01*
X132687321Y-100690001D01*
X132649998Y-100686325D01*
X132612675Y-100690001D01*
X132612666Y-100690001D01*
X132501013Y-100700998D01*
X132357752Y-100744455D01*
X132225723Y-100815027D01*
X132109998Y-100910000D01*
X132086200Y-100938998D01*
X130719512Y-102305686D01*
X129661271Y-101598592D01*
X128408281Y-101079586D01*
X127078113Y-100815000D01*
X125721887Y-100815000D01*
X124391719Y-101079586D01*
X123138729Y-101598592D01*
X122011068Y-102352071D01*
X121052071Y-103311068D01*
X120298592Y-104438729D01*
X119779586Y-105691719D01*
X119515000Y-107021887D01*
X118285000Y-107021887D01*
X118020414Y-105691719D01*
X117501408Y-104438729D01*
X116747929Y-103311068D01*
X115788932Y-102352071D01*
X114661271Y-101598592D01*
X113408281Y-101079586D01*
X112078113Y-100815000D01*
X110721887Y-100815000D01*
X109391719Y-101079586D01*
X108138729Y-101598592D01*
X107011068Y-102352071D01*
X106052071Y-103311068D01*
X105298592Y-104438729D01*
X104779586Y-105691719D01*
X104515000Y-107021887D01*
X103285000Y-107021887D01*
X103020414Y-105691719D01*
X102501408Y-104438729D01*
X101794314Y-103380488D01*
X102964801Y-102210001D01*
X105327877Y-102210001D01*
X105365199Y-102213677D01*
X105402521Y-102210001D01*
X105402532Y-102210001D01*
X105514185Y-102199004D01*
X105657446Y-102155547D01*
X105789475Y-102084975D01*
X105905200Y-101990002D01*
X105929003Y-101960998D01*
X112367409Y-95522594D01*
X112396401Y-95498801D01*
X112420195Y-95469808D01*
X112420199Y-95469804D01*
X112491373Y-95383077D01*
X112491374Y-95383076D01*
X112529529Y-95311695D01*
X112798592Y-95961271D01*
X113552071Y-97088932D01*
X114511068Y-98047929D01*
X115638729Y-98801408D01*
X116891719Y-99320414D01*
X118221887Y-99585000D01*
X119578113Y-99585000D01*
X120908281Y-99320414D01*
X122161271Y-98801408D01*
X123288932Y-98047929D01*
X124247929Y-97088932D01*
X125001408Y-95961271D01*
X125520414Y-94708281D01*
X125785000Y-93378113D01*
X125785000Y-92021887D01*
X125520414Y-90691719D01*
X125001408Y-89438729D01*
X124247929Y-88311068D01*
X123288932Y-87352071D01*
X122161271Y-86598592D01*
X120908281Y-86079586D01*
X119660000Y-85831288D01*
X119660000Y-83942776D01*
X119688463Y-83985374D01*
X119832626Y-84129537D01*
X120002144Y-84242805D01*
X120190502Y-84320826D01*
X120390461Y-84360600D01*
X120452599Y-84360600D01*
X121093401Y-85001403D01*
X121117199Y-85030401D01*
X121146197Y-85054199D01*
X121232923Y-85125374D01*
X121288398Y-85155026D01*
X121364953Y-85195946D01*
X121508214Y-85239403D01*
X121619867Y-85250400D01*
X121619877Y-85250400D01*
X121657200Y-85254076D01*
X121694523Y-85250400D01*
X133140001Y-85250400D01*
X133140001Y-85831288D01*
X131891719Y-86079586D01*
X130638729Y-86598592D01*
X129511068Y-87352071D01*
X128552071Y-88311068D01*
X127798592Y-89438729D01*
X127500800Y-90157662D01*
X127500800Y-88601311D01*
X127544737Y-88557374D01*
X127658005Y-88387856D01*
X127736026Y-88199498D01*
X127775800Y-87999539D01*
X127775800Y-87795661D01*
X127736026Y-87595702D01*
X127658005Y-87407344D01*
X127544737Y-87237826D01*
X127400574Y-87093663D01*
X127231056Y-86980395D01*
X127042698Y-86902374D01*
X126842739Y-86862600D01*
X126638861Y-86862600D01*
X126438902Y-86902374D01*
X126250544Y-86980395D01*
X126081026Y-87093663D01*
X125936863Y-87237826D01*
X125823595Y-87407344D01*
X125745574Y-87595702D01*
X125705800Y-87795661D01*
X125705800Y-87999539D01*
X125745574Y-88199498D01*
X125823595Y-88387856D01*
X125936863Y-88557374D01*
X125980800Y-88601311D01*
X125980801Y-98294274D01*
X125945744Y-98308795D01*
X125776226Y-98422063D01*
X125632063Y-98566226D01*
X125518795Y-98735744D01*
X125440774Y-98924102D01*
X125401000Y-99124061D01*
X125401000Y-99327939D01*
X125440774Y-99527898D01*
X125518795Y-99716256D01*
X125632063Y-99885774D01*
X125776226Y-100029937D01*
X125945744Y-100143205D01*
X126134102Y-100221226D01*
X126334061Y-100261000D01*
X126537939Y-100261000D01*
X126737898Y-100221226D01*
X126926256Y-100143205D01*
X127095774Y-100029937D01*
X127239937Y-99885774D01*
X127353205Y-99716256D01*
X127431226Y-99527898D01*
X127471000Y-99327939D01*
X127471000Y-99132172D01*
X127489803Y-99070186D01*
X127500800Y-98958533D01*
X127500800Y-98958524D01*
X127504476Y-98921201D01*
X127500800Y-98883878D01*
X127500800Y-95242338D01*
X127798592Y-95961271D01*
X128552071Y-97088932D01*
X129511068Y-98047929D01*
X130638729Y-98801408D01*
X131891719Y-99320414D01*
X133221887Y-99585000D01*
X134578113Y-99585000D01*
X135908281Y-99320414D01*
X137161271Y-98801408D01*
X138288932Y-98047929D01*
X139247929Y-97088932D01*
X140001408Y-95961271D01*
X140520414Y-94708281D01*
X140785000Y-93378113D01*
X140785000Y-92021887D01*
X140712313Y-91656461D01*
X157405000Y-91656461D01*
X157405000Y-91860339D01*
X157444774Y-92060298D01*
X157522795Y-92248656D01*
X157636063Y-92418174D01*
X157780226Y-92562337D01*
X157949744Y-92675605D01*
X158138102Y-92753626D01*
X158338061Y-92793400D01*
X158541939Y-92793400D01*
X158741898Y-92753626D01*
X158930256Y-92675605D01*
X159099774Y-92562337D01*
X159143711Y-92518400D01*
X169883478Y-92518400D01*
X169920800Y-92522076D01*
X169958122Y-92518400D01*
X169958133Y-92518400D01*
X170069786Y-92507403D01*
X170213047Y-92463946D01*
X170345076Y-92393374D01*
X170460801Y-92298401D01*
X170484604Y-92269397D01*
X172433243Y-90320759D01*
X172279586Y-90691719D01*
X172015000Y-92021887D01*
X172015000Y-93378113D01*
X172279586Y-94708281D01*
X172798592Y-95961271D01*
X173552071Y-97088932D01*
X174511068Y-98047929D01*
X175638729Y-98801408D01*
X176891719Y-99320414D01*
X178221887Y-99585000D01*
X179578113Y-99585000D01*
X180908281Y-99320414D01*
X182161271Y-98801408D01*
X183288932Y-98047929D01*
X184247929Y-97088932D01*
X185001408Y-95961271D01*
X185520414Y-94708281D01*
X185768712Y-93460000D01*
X186467878Y-93460000D01*
X186505200Y-93463676D01*
X186542522Y-93460000D01*
X186542533Y-93460000D01*
X186654186Y-93449003D01*
X186797447Y-93405546D01*
X186929476Y-93334974D01*
X187045201Y-93240001D01*
X187069003Y-93210998D01*
X187856209Y-92423794D01*
X187885201Y-92400001D01*
X187908995Y-92371008D01*
X187908999Y-92371004D01*
X187980173Y-92284277D01*
X187980174Y-92284276D01*
X188050746Y-92152247D01*
X188094203Y-92008986D01*
X188105200Y-91897333D01*
X188105200Y-91897324D01*
X188108876Y-91860001D01*
X188105200Y-91822678D01*
X188105200Y-88848525D01*
X188108876Y-88811200D01*
X188105200Y-88773875D01*
X188105200Y-88773867D01*
X188094203Y-88662214D01*
X188050746Y-88518953D01*
X187980174Y-88386924D01*
X187885201Y-88271199D01*
X187856203Y-88247401D01*
X183834000Y-84225199D01*
X183834000Y-84163061D01*
X183818032Y-84082785D01*
X184391719Y-84320414D01*
X185721887Y-84585000D01*
X187078113Y-84585000D01*
X188408281Y-84320414D01*
X189661271Y-83801408D01*
X190788932Y-83047929D01*
X191747929Y-82088932D01*
X192456652Y-81028253D01*
X192914200Y-81485802D01*
X192914200Y-81547939D01*
X192953974Y-81747898D01*
X193031995Y-81936256D01*
X193145263Y-82105774D01*
X193289426Y-82249937D01*
X193458944Y-82363205D01*
X193647302Y-82441226D01*
X193847261Y-82481000D01*
X194051139Y-82481000D01*
X194251098Y-82441226D01*
X194439456Y-82363205D01*
X194608974Y-82249937D01*
X194753137Y-82105774D01*
X194866405Y-81936256D01*
X194944426Y-81747898D01*
X194984200Y-81547939D01*
X194984200Y-81344061D01*
X194944426Y-81144102D01*
X194866405Y-80955744D01*
X194753137Y-80786226D01*
X194608974Y-80642063D01*
X194439456Y-80528795D01*
X194251098Y-80450774D01*
X194051139Y-80411000D01*
X193989002Y-80411000D01*
X193064524Y-79486523D01*
X193285000Y-78378113D01*
X193285000Y-77021887D01*
X193020414Y-75691719D01*
X192501408Y-74438729D01*
X191747929Y-73311068D01*
X190788932Y-72352071D01*
X189661271Y-71598592D01*
X188408281Y-71079586D01*
X187078113Y-70815000D01*
X185721887Y-70815000D01*
X184391719Y-71079586D01*
X183138729Y-71598592D01*
X182011068Y-72352071D01*
X181052071Y-73311068D01*
X180298592Y-74438729D01*
X179779586Y-75691719D01*
X179515000Y-77021887D01*
X179515000Y-78378113D01*
X179779586Y-79708281D01*
X180298592Y-80961271D01*
X181052071Y-82088932D01*
X182011068Y-83047929D01*
X182402023Y-83309157D01*
X182308744Y-83347795D01*
X182139226Y-83461063D01*
X181995063Y-83605226D01*
X181881795Y-83774744D01*
X181803774Y-83963102D01*
X181764000Y-84163061D01*
X181764000Y-84366939D01*
X181803774Y-84566898D01*
X181881795Y-84755256D01*
X181995063Y-84924774D01*
X182139226Y-85068937D01*
X182308744Y-85182205D01*
X182497102Y-85260226D01*
X182697061Y-85300000D01*
X182759199Y-85300000D01*
X186585201Y-89126003D01*
X186585200Y-91545197D01*
X186190398Y-91940000D01*
X185768712Y-91940000D01*
X185520414Y-90691719D01*
X185001408Y-89438729D01*
X184247929Y-88311068D01*
X183288932Y-87352071D01*
X182161271Y-86598592D01*
X180908281Y-86079586D01*
X180537128Y-86005759D01*
X180540805Y-86000256D01*
X180618826Y-85811898D01*
X180658600Y-85611939D01*
X180658600Y-85408061D01*
X180618826Y-85208102D01*
X180540805Y-85019744D01*
X180427537Y-84850226D01*
X180283374Y-84706063D01*
X180113856Y-84592795D01*
X179925498Y-84514774D01*
X179725539Y-84475000D01*
X179521661Y-84475000D01*
X179321702Y-84514774D01*
X179133344Y-84592795D01*
X178963826Y-84706063D01*
X178919889Y-84750000D01*
X178650911Y-84750000D01*
X178606974Y-84706063D01*
X178437456Y-84592795D01*
X178249098Y-84514774D01*
X178049139Y-84475000D01*
X177845261Y-84475000D01*
X177645302Y-84514774D01*
X177456944Y-84592795D01*
X177287426Y-84706063D01*
X177143263Y-84850226D01*
X177029995Y-85019744D01*
X176951974Y-85208102D01*
X176912200Y-85408061D01*
X176912200Y-85611939D01*
X176951974Y-85811898D01*
X177029995Y-86000256D01*
X177060561Y-86046001D01*
X176891719Y-86079586D01*
X175638729Y-86598592D01*
X174511068Y-87352071D01*
X173552071Y-88311068D01*
X173452813Y-88459619D01*
X173417137Y-88406226D01*
X173272974Y-88262063D01*
X173103456Y-88148795D01*
X172915098Y-88070774D01*
X172752034Y-88038339D01*
X172744826Y-88002102D01*
X172666805Y-87813744D01*
X172553537Y-87644226D01*
X172509600Y-87600289D01*
X172509600Y-86357094D01*
X172536774Y-86338937D01*
X172680937Y-86194774D01*
X172794205Y-86025256D01*
X172872226Y-85836898D01*
X172912000Y-85636939D01*
X172912000Y-85433061D01*
X172872226Y-85233102D01*
X172794205Y-85044744D01*
X172680937Y-84875226D01*
X172536774Y-84731063D01*
X172367256Y-84617795D01*
X172219964Y-84556784D01*
X173408281Y-84320414D01*
X174661271Y-83801408D01*
X175788932Y-83047929D01*
X176747929Y-82088932D01*
X177145033Y-81494624D01*
X177304544Y-81601205D01*
X177492902Y-81679226D01*
X177692861Y-81719000D01*
X177896739Y-81719000D01*
X178096698Y-81679226D01*
X178285056Y-81601205D01*
X178454574Y-81487937D01*
X178598737Y-81343774D01*
X178712005Y-81174256D01*
X178790026Y-80985898D01*
X178829800Y-80785939D01*
X178829800Y-80582061D01*
X178790026Y-80382102D01*
X178712005Y-80193744D01*
X178598737Y-80024226D01*
X178454574Y-79880063D01*
X178285056Y-79766795D01*
X178096698Y-79688774D01*
X178027050Y-79674920D01*
X178285000Y-78378113D01*
X178285000Y-77021887D01*
X178020414Y-75691719D01*
X177501408Y-74438729D01*
X176747929Y-73311068D01*
X175788932Y-72352071D01*
X174661271Y-71598592D01*
X173408281Y-71079586D01*
X172078113Y-70815000D01*
X170721887Y-70815000D01*
X169391719Y-71079586D01*
X168284228Y-71538324D01*
X168348947Y-71417246D01*
X168392404Y-71273985D01*
X168403401Y-71162332D01*
X168403401Y-71162331D01*
X168407078Y-71124999D01*
X168403401Y-71087666D01*
X168403401Y-70576200D01*
X168965602Y-70014000D01*
X174482799Y-70014000D01*
X178043801Y-73575003D01*
X178067599Y-73604001D01*
X178183324Y-73698974D01*
X178315353Y-73769546D01*
X178458614Y-73813003D01*
X178570267Y-73824000D01*
X178570275Y-73824000D01*
X178607600Y-73827676D01*
X178644925Y-73824000D01*
X179072289Y-73824000D01*
X179116226Y-73867937D01*
X179285744Y-73981205D01*
X179474102Y-74059226D01*
X179674061Y-74099000D01*
X179877939Y-74099000D01*
X180077898Y-74059226D01*
X180266256Y-73981205D01*
X180435774Y-73867937D01*
X180579937Y-73723774D01*
X180693205Y-73554256D01*
X180771226Y-73365898D01*
X180811000Y-73165939D01*
X180811000Y-72962061D01*
X180771226Y-72762102D01*
X180693205Y-72573744D01*
X180579937Y-72404226D01*
X180435774Y-72260063D01*
X180266256Y-72146795D01*
X180077898Y-72068774D01*
X179877939Y-72029000D01*
X179674061Y-72029000D01*
X179474102Y-72068774D01*
X179285744Y-72146795D01*
X179116226Y-72260063D01*
X179072289Y-72304000D01*
X178922402Y-72304000D01*
X175361404Y-68743003D01*
X175337601Y-68713999D01*
X175221876Y-68619026D01*
X175089847Y-68548454D01*
X174946586Y-68504997D01*
X174834933Y-68494000D01*
X174834922Y-68494000D01*
X174797600Y-68490324D01*
X174760278Y-68494000D01*
X168688122Y-68494000D01*
X168650799Y-68490324D01*
X168613476Y-68494000D01*
X168613467Y-68494000D01*
X168501814Y-68504997D01*
X168358553Y-68548454D01*
X168226524Y-68619026D01*
X168110799Y-68713999D01*
X168087001Y-68742997D01*
X167132399Y-69697600D01*
X167103401Y-69721398D01*
X167079603Y-69750396D01*
X167079602Y-69750397D01*
X167008427Y-69837123D01*
X166937855Y-69969153D01*
X166915932Y-70041426D01*
X166894399Y-70112413D01*
X166883401Y-70224066D01*
X166883401Y-70224077D01*
X166879725Y-70261399D01*
X166883401Y-70298721D01*
X166883401Y-70810197D01*
X163002434Y-74691165D01*
X162966993Y-74721727D01*
X162926638Y-74773421D01*
X162885026Y-74824124D01*
X162880619Y-74832369D01*
X162874870Y-74839733D01*
X162845377Y-74898301D01*
X162814454Y-74956154D01*
X162811741Y-74965097D01*
X162807538Y-74973444D01*
X162790029Y-75036677D01*
X162770998Y-75099415D01*
X162770083Y-75108710D01*
X162767587Y-75117722D01*
X162762750Y-75183160D01*
X162756324Y-75248400D01*
X162760910Y-75294961D01*
X162792005Y-76569856D01*
X162778362Y-76571200D01*
X162778352Y-76571200D01*
X162729130Y-76576048D01*
X162638656Y-76515595D01*
X162450298Y-76437574D01*
X162250339Y-76397800D01*
X162046461Y-76397800D01*
X161846502Y-76437574D01*
X161658144Y-76515595D01*
X161488626Y-76628863D01*
X161344463Y-76773026D01*
X161231195Y-76942544D01*
X161153174Y-77130902D01*
X161113400Y-77330861D01*
X161113400Y-77534739D01*
X161153174Y-77734698D01*
X161231195Y-77923056D01*
X161344463Y-78092574D01*
X161488626Y-78236737D01*
X161658144Y-78350005D01*
X161846502Y-78428026D01*
X162046461Y-78467800D01*
X162250339Y-78467800D01*
X162450298Y-78428026D01*
X162638656Y-78350005D01*
X162798210Y-78243395D01*
X162760513Y-80990186D01*
X162756324Y-81032715D01*
X162763149Y-81102005D01*
X162769024Y-81171408D01*
X162770482Y-81176464D01*
X162770998Y-81181700D01*
X162791207Y-81248321D01*
X162810510Y-81315252D01*
X162812927Y-81319927D01*
X162814454Y-81324961D01*
X162846986Y-81385824D01*
X162778774Y-81550502D01*
X162739000Y-81750461D01*
X162739000Y-81954339D01*
X162778774Y-82154298D01*
X162856795Y-82342656D01*
X162970063Y-82512174D01*
X163114226Y-82656337D01*
X163283744Y-82769605D01*
X163472102Y-82847626D01*
X163672061Y-82887400D01*
X163875939Y-82887400D01*
X164075898Y-82847626D01*
X164264256Y-82769605D01*
X164433774Y-82656337D01*
X164577937Y-82512174D01*
X164691205Y-82342656D01*
X164769226Y-82154298D01*
X164809000Y-81954339D01*
X164809000Y-81750461D01*
X164769226Y-81550502D01*
X164691205Y-81362144D01*
X164577937Y-81192626D01*
X164522987Y-81137676D01*
X164479546Y-80994468D01*
X164408974Y-80862439D01*
X164314001Y-80746714D01*
X164284997Y-80722911D01*
X164284332Y-80722246D01*
X164330287Y-77373741D01*
X164334477Y-77331200D01*
X164329890Y-77284625D01*
X164287715Y-75555486D01*
X165223723Y-74619478D01*
X164779586Y-75691719D01*
X164515000Y-77021887D01*
X164515000Y-78378113D01*
X164779586Y-79708281D01*
X165298592Y-80961271D01*
X166052071Y-82088932D01*
X167011068Y-83047929D01*
X167470743Y-83355074D01*
X167327098Y-83295574D01*
X167127139Y-83255800D01*
X166923261Y-83255800D01*
X166723302Y-83295574D01*
X166534944Y-83373595D01*
X166365426Y-83486863D01*
X166221263Y-83631026D01*
X166107995Y-83800544D01*
X166029974Y-83988902D01*
X165990200Y-84188861D01*
X165990200Y-84392739D01*
X166029974Y-84592698D01*
X166107995Y-84781056D01*
X166221263Y-84950574D01*
X166265201Y-84994512D01*
X166265200Y-87735198D01*
X165867799Y-88132600D01*
X165805661Y-88132600D01*
X165605702Y-88172374D01*
X165417344Y-88250395D01*
X165247826Y-88363663D01*
X165103663Y-88507826D01*
X164990395Y-88677344D01*
X164912374Y-88865702D01*
X164872600Y-89065661D01*
X164872600Y-89269539D01*
X164912374Y-89469498D01*
X164990395Y-89657856D01*
X165103663Y-89827374D01*
X165247826Y-89971537D01*
X165417344Y-90084805D01*
X165605702Y-90162826D01*
X165805661Y-90202600D01*
X166009539Y-90202600D01*
X166209498Y-90162826D01*
X166397856Y-90084805D01*
X166567374Y-89971537D01*
X166711537Y-89827374D01*
X166824805Y-89657856D01*
X166902826Y-89469498D01*
X166942600Y-89269539D01*
X166942600Y-89207401D01*
X167536204Y-88613798D01*
X167565201Y-88590001D01*
X167623509Y-88518953D01*
X167660174Y-88474277D01*
X167730746Y-88342247D01*
X167740204Y-88311068D01*
X167774203Y-88198986D01*
X167785200Y-88087333D01*
X167785200Y-88087324D01*
X167788876Y-88050001D01*
X167785200Y-88012678D01*
X167785200Y-84994511D01*
X167829137Y-84950574D01*
X167942405Y-84781056D01*
X168020426Y-84592698D01*
X168060200Y-84392739D01*
X168060200Y-84188861D01*
X168020426Y-83988902D01*
X167942405Y-83800544D01*
X167829137Y-83631026D01*
X167719196Y-83521085D01*
X168138729Y-83801408D01*
X169391719Y-84320414D01*
X170721887Y-84585000D01*
X171465918Y-84585000D01*
X171386744Y-84617795D01*
X171217226Y-84731063D01*
X171073063Y-84875226D01*
X170959795Y-85044744D01*
X170881774Y-85233102D01*
X170842000Y-85433061D01*
X170842000Y-85636939D01*
X170881774Y-85836898D01*
X170959795Y-86025256D01*
X170989601Y-86069864D01*
X170989600Y-87600289D01*
X170945663Y-87644226D01*
X170832395Y-87813744D01*
X170754374Y-88002102D01*
X170714600Y-88202061D01*
X170714600Y-88405939D01*
X170754374Y-88605898D01*
X170832395Y-88794256D01*
X170945663Y-88963774D01*
X171089826Y-89107937D01*
X171259344Y-89221205D01*
X171346918Y-89257480D01*
X169605999Y-90998400D01*
X159143711Y-90998400D01*
X159099774Y-90954463D01*
X158930256Y-90841195D01*
X158741898Y-90763174D01*
X158541939Y-90723400D01*
X158338061Y-90723400D01*
X158138102Y-90763174D01*
X157949744Y-90841195D01*
X157780226Y-90954463D01*
X157636063Y-91098626D01*
X157522795Y-91268144D01*
X157444774Y-91456502D01*
X157405000Y-91656461D01*
X140712313Y-91656461D01*
X140520414Y-90691719D01*
X140001408Y-89438729D01*
X139247929Y-88311068D01*
X138288932Y-87352071D01*
X137161271Y-86598592D01*
X135908281Y-86079586D01*
X134660000Y-85831288D01*
X134660000Y-84527733D01*
X134663677Y-84490400D01*
X134649003Y-84341414D01*
X134605546Y-84198153D01*
X134534974Y-84066124D01*
X134440001Y-83950399D01*
X134324276Y-83855426D01*
X134192247Y-83784854D01*
X134048986Y-83741397D01*
X133937333Y-83730400D01*
X133900000Y-83726723D01*
X133862667Y-83730400D01*
X129767542Y-83730400D01*
X130788932Y-83047929D01*
X131747929Y-82088932D01*
X132501408Y-80961271D01*
X133020414Y-79708281D01*
X133285000Y-78378113D01*
X133285000Y-77021887D01*
X133020414Y-75691719D01*
X132501408Y-74438729D01*
X131747929Y-73311068D01*
X130788932Y-72352071D01*
X129661271Y-71598592D01*
X128408281Y-71079586D01*
X127078113Y-70815000D01*
X125721887Y-70815000D01*
X124391719Y-71079586D01*
X123138729Y-71598592D01*
X122011068Y-72352071D01*
X121052071Y-73311068D01*
X120986951Y-73408527D01*
X120979626Y-73371702D01*
X120901605Y-73183344D01*
X120788337Y-73013826D01*
X120644174Y-72869663D01*
X120474656Y-72756395D01*
X120286298Y-72678374D01*
X120086339Y-72638600D01*
X119882461Y-72638600D01*
X119736920Y-72667550D01*
X119713161Y-72638600D01*
X119684599Y-72603796D01*
X119684595Y-72603792D01*
X119660801Y-72574799D01*
X119631808Y-72551005D01*
X116179404Y-69098603D01*
X116155601Y-69069599D01*
X116039876Y-68974626D01*
X115981214Y-68943270D01*
X116891719Y-69320414D01*
X118221887Y-69585000D01*
X119578113Y-69585000D01*
X120908281Y-69320414D01*
X122161271Y-68801408D01*
X123288932Y-68047929D01*
X124247929Y-67088932D01*
X125001408Y-65961271D01*
X125520414Y-64708281D01*
X125676001Y-63926092D01*
X125676001Y-66779668D01*
X125672324Y-66817000D01*
X125686998Y-66965985D01*
X125730454Y-67109246D01*
X125801026Y-67241276D01*
X125872201Y-67328002D01*
X125896000Y-67357001D01*
X125924998Y-67380799D01*
X134058000Y-75513802D01*
X134058001Y-77592688D01*
X134014063Y-77636626D01*
X133900795Y-77806144D01*
X133822774Y-77994502D01*
X133783000Y-78194461D01*
X133783000Y-78398339D01*
X133822774Y-78598298D01*
X133900795Y-78786656D01*
X134014063Y-78956174D01*
X134158226Y-79100337D01*
X134327744Y-79213605D01*
X134516102Y-79291626D01*
X134716061Y-79331400D01*
X134919939Y-79331400D01*
X135119898Y-79291626D01*
X135308256Y-79213605D01*
X135477774Y-79100337D01*
X135621937Y-78956174D01*
X135735205Y-78786656D01*
X135813226Y-78598298D01*
X135853000Y-78398339D01*
X135853000Y-78194461D01*
X135813226Y-77994502D01*
X135735205Y-77806144D01*
X135621937Y-77636626D01*
X135578000Y-77592689D01*
X135578000Y-75236322D01*
X135581676Y-75198999D01*
X135578000Y-75161676D01*
X135578000Y-75161667D01*
X135567003Y-75050014D01*
X135523546Y-74906753D01*
X135486935Y-74838260D01*
X135452974Y-74774723D01*
X135381799Y-74687997D01*
X135358001Y-74658999D01*
X135329004Y-74635202D01*
X127196000Y-66502199D01*
X127196000Y-64288064D01*
X127279586Y-64708281D01*
X127798592Y-65961271D01*
X128552071Y-67088932D01*
X129511068Y-68047929D01*
X130638729Y-68801408D01*
X131891719Y-69320414D01*
X133140001Y-69568712D01*
X133140001Y-71501502D01*
X133136324Y-71538834D01*
X133140001Y-71576167D01*
X133140089Y-71577055D01*
X133150998Y-71687819D01*
X133194454Y-71831080D01*
X133265026Y-71963110D01*
X133332313Y-72045098D01*
X133360000Y-72078835D01*
X133388998Y-72102633D01*
X140154000Y-78867636D01*
X140154001Y-89282668D01*
X140150324Y-89320000D01*
X140154001Y-89357333D01*
X140164998Y-89468986D01*
X140169842Y-89484954D01*
X140208454Y-89612246D01*
X140279026Y-89744276D01*
X140347224Y-89827374D01*
X140374000Y-89860001D01*
X140402998Y-89883799D01*
X140691800Y-90172601D01*
X140691800Y-90234739D01*
X140731574Y-90434698D01*
X140809595Y-90623056D01*
X140922863Y-90792574D01*
X141067026Y-90936737D01*
X141236544Y-91050005D01*
X141424902Y-91128026D01*
X141624861Y-91167800D01*
X141828739Y-91167800D01*
X142028698Y-91128026D01*
X142217056Y-91050005D01*
X142386574Y-90936737D01*
X142530737Y-90792574D01*
X142644005Y-90623056D01*
X142722026Y-90434698D01*
X142761800Y-90234739D01*
X142761800Y-90030861D01*
X142722026Y-89830902D01*
X142644005Y-89642544D01*
X142564036Y-89522861D01*
X156846200Y-89522861D01*
X156846200Y-89726739D01*
X156885974Y-89926698D01*
X156963995Y-90115056D01*
X157077263Y-90284574D01*
X157221426Y-90428737D01*
X157390944Y-90542005D01*
X157579302Y-90620026D01*
X157779261Y-90659800D01*
X157983139Y-90659800D01*
X158183098Y-90620026D01*
X158371456Y-90542005D01*
X158378647Y-90537200D01*
X159819089Y-90537200D01*
X159863026Y-90581137D01*
X160032544Y-90694405D01*
X160220902Y-90772426D01*
X160420861Y-90812200D01*
X160624739Y-90812200D01*
X160824698Y-90772426D01*
X161013056Y-90694405D01*
X161182574Y-90581137D01*
X161326737Y-90436974D01*
X161440005Y-90267456D01*
X161518026Y-90079098D01*
X161557800Y-89879139D01*
X161557800Y-89675261D01*
X161518026Y-89475302D01*
X161440005Y-89286944D01*
X161326737Y-89117426D01*
X161182574Y-88973263D01*
X161146496Y-88949156D01*
X161162426Y-88910698D01*
X161202200Y-88710739D01*
X161202200Y-88506861D01*
X161162426Y-88306902D01*
X161084405Y-88118544D01*
X160971137Y-87949026D01*
X160927200Y-87905089D01*
X160927200Y-85039323D01*
X160930876Y-85002000D01*
X160927200Y-84964677D01*
X160927200Y-84964667D01*
X160916203Y-84853014D01*
X160872746Y-84709753D01*
X160847170Y-84661904D01*
X160802174Y-84577723D01*
X160730999Y-84490997D01*
X160707201Y-84461999D01*
X160678204Y-84438202D01*
X158410001Y-82170000D01*
X158410001Y-69264800D01*
X159580488Y-68094314D01*
X160638729Y-68801408D01*
X161891719Y-69320414D01*
X163221887Y-69585000D01*
X164578113Y-69585000D01*
X165908281Y-69320414D01*
X167161271Y-68801408D01*
X168288932Y-68047929D01*
X169247929Y-67088932D01*
X170001408Y-65961271D01*
X170520414Y-64708281D01*
X170785000Y-63378113D01*
X170785000Y-62021887D01*
X172015000Y-62021887D01*
X172015000Y-63378113D01*
X172279586Y-64708281D01*
X172798592Y-65961271D01*
X173552071Y-67088932D01*
X174511068Y-68047929D01*
X175638729Y-68801408D01*
X176891719Y-69320414D01*
X178221887Y-69585000D01*
X179578113Y-69585000D01*
X180908281Y-69320414D01*
X182161271Y-68801408D01*
X183288932Y-68047929D01*
X184247929Y-67088932D01*
X185001408Y-65961271D01*
X185520414Y-64708281D01*
X185768712Y-63460000D01*
X187424033Y-63460000D01*
X192765831Y-68801799D01*
X192765836Y-68801803D01*
X195526000Y-71561968D01*
X195526001Y-85499997D01*
X194435999Y-86590000D01*
X189268111Y-86590000D01*
X189224174Y-86546063D01*
X189054656Y-86432795D01*
X188866298Y-86354774D01*
X188666339Y-86315000D01*
X188462461Y-86315000D01*
X188262502Y-86354774D01*
X188074144Y-86432795D01*
X187904626Y-86546063D01*
X187760463Y-86690226D01*
X187647195Y-86859744D01*
X187569174Y-87048102D01*
X187529400Y-87248061D01*
X187529400Y-87451939D01*
X187569174Y-87651898D01*
X187647195Y-87840256D01*
X187760463Y-88009774D01*
X187904626Y-88153937D01*
X188074144Y-88267205D01*
X188262502Y-88345226D01*
X188462461Y-88385000D01*
X188666339Y-88385000D01*
X188866298Y-88345226D01*
X189054656Y-88267205D01*
X189224174Y-88153937D01*
X189268111Y-88110000D01*
X194713478Y-88110000D01*
X194750800Y-88113676D01*
X194788122Y-88110000D01*
X194788133Y-88110000D01*
X194899786Y-88099003D01*
X195043047Y-88055546D01*
X195175076Y-87984974D01*
X195290801Y-87890001D01*
X195314604Y-87860997D01*
X196643601Y-86532001D01*
X196643601Y-87955888D01*
X196599663Y-87999826D01*
X196486395Y-88169344D01*
X196408374Y-88357702D01*
X196368600Y-88557661D01*
X196368600Y-88761539D01*
X196408374Y-88961498D01*
X196486395Y-89149856D01*
X196599663Y-89319374D01*
X196743826Y-89463537D01*
X196913344Y-89576805D01*
X197101702Y-89654826D01*
X197301661Y-89694600D01*
X197505539Y-89694600D01*
X197705498Y-89654826D01*
X197893856Y-89576805D01*
X198063374Y-89463537D01*
X198207537Y-89319374D01*
X198320805Y-89149856D01*
X198398826Y-88961498D01*
X198438600Y-88761539D01*
X198438600Y-88557661D01*
X198398826Y-88357702D01*
X198320805Y-88169344D01*
X198207537Y-87999826D01*
X198163600Y-87955889D01*
X198163600Y-82801061D01*
X198276063Y-82969374D01*
X198420226Y-83113537D01*
X198589744Y-83226805D01*
X198778102Y-83304826D01*
X198978061Y-83344600D01*
X199181939Y-83344600D01*
X199381898Y-83304826D01*
X199570256Y-83226805D01*
X199739774Y-83113537D01*
X199883937Y-82969374D01*
X199997205Y-82799856D01*
X200075226Y-82611498D01*
X200115000Y-82411539D01*
X200115000Y-82349401D01*
X201521403Y-80942999D01*
X201550401Y-80919201D01*
X201645374Y-80803476D01*
X201715946Y-80671447D01*
X201759403Y-80528186D01*
X201770400Y-80416533D01*
X201770400Y-80416523D01*
X201774076Y-80379200D01*
X201770400Y-80341877D01*
X201770400Y-74536861D01*
X202363000Y-74536861D01*
X202363000Y-74740739D01*
X202402774Y-74940698D01*
X202480795Y-75129056D01*
X202594063Y-75298574D01*
X202638000Y-75342511D01*
X202638001Y-90346896D01*
X202531595Y-90506144D01*
X202453574Y-90694502D01*
X202413800Y-90894461D01*
X202413800Y-91098339D01*
X202453574Y-91298298D01*
X202531595Y-91486656D01*
X202644863Y-91656174D01*
X202789026Y-91800337D01*
X202958544Y-91913605D01*
X203146902Y-91991626D01*
X203346861Y-92031400D01*
X203550739Y-92031400D01*
X203750698Y-91991626D01*
X203853818Y-91948912D01*
X203875974Y-92060298D01*
X203953995Y-92248656D01*
X204067263Y-92418174D01*
X204211426Y-92562337D01*
X204380944Y-92675605D01*
X204569302Y-92753626D01*
X204769261Y-92793400D01*
X204973139Y-92793400D01*
X205173098Y-92753626D01*
X205361456Y-92675605D01*
X205530974Y-92562337D01*
X205675137Y-92418174D01*
X205788405Y-92248656D01*
X205866426Y-92060298D01*
X205906200Y-91860339D01*
X205906200Y-91656461D01*
X205866426Y-91456502D01*
X205788405Y-91268144D01*
X205675137Y-91098626D01*
X205631200Y-91054689D01*
X205631200Y-86698233D01*
X205750174Y-86618737D01*
X205894337Y-86474574D01*
X206007605Y-86305056D01*
X206085626Y-86116698D01*
X206125400Y-85916739D01*
X206125400Y-85712861D01*
X206085626Y-85512902D01*
X206007605Y-85324544D01*
X205894337Y-85155026D01*
X205750174Y-85010863D01*
X205580656Y-84897595D01*
X205392298Y-84819574D01*
X205192339Y-84779800D01*
X204988461Y-84779800D01*
X204788502Y-84819574D01*
X204600144Y-84897595D01*
X204430626Y-85010863D01*
X204286463Y-85155026D01*
X204173195Y-85324544D01*
X204158000Y-85361228D01*
X204158000Y-79464461D01*
X204293400Y-79464461D01*
X204293400Y-79668339D01*
X204333174Y-79868298D01*
X204411195Y-80056656D01*
X204524463Y-80226174D01*
X204668626Y-80370337D01*
X204838144Y-80483605D01*
X205026502Y-80561626D01*
X205226461Y-80601400D01*
X205430339Y-80601400D01*
X205630298Y-80561626D01*
X205818656Y-80483605D01*
X205988174Y-80370337D01*
X206132337Y-80226174D01*
X206245605Y-80056656D01*
X206323626Y-79868298D01*
X206363400Y-79668339D01*
X206363400Y-79464461D01*
X206323626Y-79264502D01*
X206245605Y-79076144D01*
X206132337Y-78906626D01*
X206088400Y-78862689D01*
X206088400Y-74631311D01*
X206183137Y-74536574D01*
X206296405Y-74367056D01*
X206374426Y-74178698D01*
X206414200Y-73978739D01*
X206414200Y-73774861D01*
X206374426Y-73574902D01*
X206296405Y-73386544D01*
X206183137Y-73217026D01*
X206038974Y-73072863D01*
X205869456Y-72959595D01*
X205681098Y-72881574D01*
X205481139Y-72841800D01*
X205277261Y-72841800D01*
X205077302Y-72881574D01*
X204888944Y-72959595D01*
X204719426Y-73072863D01*
X204575263Y-73217026D01*
X204461995Y-73386544D01*
X204383974Y-73574902D01*
X204344200Y-73774861D01*
X204344200Y-73978739D01*
X204383974Y-74178698D01*
X204461995Y-74367056D01*
X204568401Y-74526304D01*
X204568400Y-78862689D01*
X204524463Y-78906626D01*
X204411195Y-79076144D01*
X204333174Y-79264502D01*
X204293400Y-79464461D01*
X204158000Y-79464461D01*
X204158000Y-75342511D01*
X204201937Y-75298574D01*
X204315205Y-75129056D01*
X204393226Y-74940698D01*
X204433000Y-74740739D01*
X204433000Y-74536861D01*
X204393226Y-74336902D01*
X204315205Y-74148544D01*
X204201937Y-73979026D01*
X204057774Y-73834863D01*
X203888256Y-73721595D01*
X203699898Y-73643574D01*
X203499939Y-73603800D01*
X203296061Y-73603800D01*
X203096102Y-73643574D01*
X202907744Y-73721595D01*
X202738226Y-73834863D01*
X202594063Y-73979026D01*
X202480795Y-74148544D01*
X202402774Y-74336902D01*
X202363000Y-74536861D01*
X201770400Y-74536861D01*
X201770400Y-71938911D01*
X201814337Y-71894974D01*
X201927605Y-71725456D01*
X202005626Y-71537098D01*
X202045400Y-71337139D01*
X202045400Y-71133261D01*
X202005626Y-70933302D01*
X201927605Y-70744944D01*
X201814337Y-70575426D01*
X201670174Y-70431263D01*
X201500656Y-70317995D01*
X201312298Y-70239974D01*
X201112339Y-70200200D01*
X200908461Y-70200200D01*
X200708502Y-70239974D01*
X200520144Y-70317995D01*
X200350626Y-70431263D01*
X200206463Y-70575426D01*
X200093195Y-70744944D01*
X200015174Y-70933302D01*
X199975400Y-71133261D01*
X199975400Y-71337139D01*
X200015174Y-71537098D01*
X200093195Y-71725456D01*
X200206463Y-71894974D01*
X200250400Y-71938911D01*
X200250400Y-74401340D01*
X200137937Y-74233026D01*
X199993774Y-74088863D01*
X199824256Y-73975595D01*
X199635898Y-73897574D01*
X199435939Y-73857800D01*
X199232061Y-73857800D01*
X199032102Y-73897574D01*
X198843744Y-73975595D01*
X198674226Y-74088863D01*
X198530063Y-74233026D01*
X198416795Y-74402544D01*
X198338774Y-74590902D01*
X198299000Y-74790861D01*
X198299000Y-74852998D01*
X197046000Y-76105999D01*
X197046000Y-71284488D01*
X197049676Y-71247165D01*
X197046000Y-71209842D01*
X197046000Y-71209833D01*
X197035003Y-71098180D01*
X196991546Y-70954919D01*
X196920974Y-70822890D01*
X196826001Y-70707165D01*
X196797004Y-70683368D01*
X193840637Y-67727002D01*
X193840633Y-67726997D01*
X188302638Y-62189003D01*
X188278835Y-62159999D01*
X188163110Y-62065026D01*
X188031081Y-61994454D01*
X187887820Y-61950997D01*
X187776167Y-61940000D01*
X187776156Y-61940000D01*
X187738834Y-61936324D01*
X187701512Y-61940000D01*
X185768712Y-61940000D01*
X185520414Y-60691719D01*
X185001408Y-59438729D01*
X184247929Y-58311068D01*
X183288932Y-57352071D01*
X182161271Y-56598592D01*
X180908281Y-56079586D01*
X179578113Y-55815000D01*
X178221887Y-55815000D01*
X176891719Y-56079586D01*
X175638729Y-56598592D01*
X174511068Y-57352071D01*
X173552071Y-58311068D01*
X172798592Y-59438729D01*
X172279586Y-60691719D01*
X172015000Y-62021887D01*
X170785000Y-62021887D01*
X170520414Y-60691719D01*
X170001408Y-59438729D01*
X169247929Y-58311068D01*
X168288932Y-57352071D01*
X167161271Y-56598592D01*
X165908281Y-56079586D01*
X164578113Y-55815000D01*
X163221887Y-55815000D01*
X161891719Y-56079586D01*
X160638729Y-56598592D01*
X159511068Y-57352071D01*
X158552071Y-58311068D01*
X157798592Y-59438729D01*
X157279586Y-60691719D01*
X157015000Y-62021887D01*
X157015000Y-63378113D01*
X157279586Y-64708281D01*
X157798592Y-65961271D01*
X158505686Y-67019512D01*
X157139004Y-68386195D01*
X157110000Y-68409998D01*
X157063570Y-68466574D01*
X157015027Y-68525723D01*
X156965155Y-68619026D01*
X156944455Y-68657753D01*
X156900998Y-68801014D01*
X156890001Y-68912667D01*
X156890001Y-68912677D01*
X156886325Y-68949999D01*
X156890001Y-68987321D01*
X156890002Y-82447469D01*
X156886325Y-82484801D01*
X156900999Y-82633786D01*
X156944455Y-82777047D01*
X157015027Y-82909077D01*
X157086202Y-82995803D01*
X157110001Y-83024802D01*
X157138999Y-83048600D01*
X159407200Y-85316802D01*
X159407201Y-87905088D01*
X159363263Y-87949026D01*
X159249995Y-88118544D01*
X159171974Y-88306902D01*
X159132200Y-88506861D01*
X159132200Y-88710739D01*
X159171974Y-88910698D01*
X159216089Y-89017200D01*
X158719998Y-89017200D01*
X158685137Y-88965026D01*
X158540974Y-88820863D01*
X158371456Y-88707595D01*
X158183098Y-88629574D01*
X157983139Y-88589800D01*
X157779261Y-88589800D01*
X157579302Y-88629574D01*
X157390944Y-88707595D01*
X157221426Y-88820863D01*
X157077263Y-88965026D01*
X156963995Y-89134544D01*
X156885974Y-89322902D01*
X156846200Y-89522861D01*
X142564036Y-89522861D01*
X142530737Y-89473026D01*
X142386574Y-89328863D01*
X142217056Y-89215595D01*
X142028698Y-89137574D01*
X141828739Y-89097800D01*
X141766601Y-89097800D01*
X141674000Y-89005199D01*
X141674000Y-78590157D01*
X141677676Y-78552834D01*
X141674000Y-78515511D01*
X141674000Y-78515501D01*
X141663003Y-78403848D01*
X141619546Y-78260587D01*
X141585881Y-78197605D01*
X141548974Y-78128557D01*
X141477799Y-78041831D01*
X141454001Y-78012833D01*
X141425004Y-77989036D01*
X134660000Y-71224033D01*
X134660000Y-69568712D01*
X135908281Y-69320414D01*
X137161271Y-68801408D01*
X138288932Y-68047929D01*
X139247929Y-67088932D01*
X140001408Y-65961271D01*
X140520414Y-64708281D01*
X140785000Y-63378113D01*
X140785000Y-62021887D01*
X140520414Y-60691719D01*
X140001408Y-59438729D01*
X139247929Y-58311068D01*
X138288932Y-57352071D01*
X137161271Y-56598592D01*
X135908281Y-56079586D01*
X134578113Y-55815000D01*
X133221887Y-55815000D01*
X131891719Y-56079586D01*
X130638729Y-56598592D01*
X129511068Y-57352071D01*
X128552071Y-58311068D01*
X127798592Y-59438729D01*
X127279586Y-60691719D01*
X127196000Y-61111936D01*
X127196000Y-58724933D01*
X127199677Y-58687600D01*
X127185003Y-58538614D01*
X127141546Y-58395353D01*
X127070974Y-58263324D01*
X126999799Y-58176597D01*
X126976001Y-58147599D01*
X126947004Y-58123802D01*
X121012594Y-52189393D01*
X120988791Y-52160389D01*
X120873066Y-52065416D01*
X120741037Y-51994844D01*
X120597776Y-51951387D01*
X120486123Y-51940390D01*
X120486112Y-51940390D01*
X120448790Y-51936714D01*
X120411468Y-51940390D01*
X71246532Y-51940390D01*
X71209209Y-51936714D01*
X71171886Y-51940390D01*
X71171877Y-51940390D01*
X71060224Y-51951387D01*
X70916963Y-51994844D01*
X70784933Y-52065416D01*
X70701293Y-52134058D01*
X70669209Y-52160389D01*
X70645411Y-52189387D01*
X67722199Y-55112600D01*
X67660061Y-55112600D01*
X67460102Y-55152374D01*
X67271744Y-55230395D01*
X67102226Y-55343663D01*
X66958063Y-55487826D01*
X66844795Y-55657344D01*
X66766774Y-55845702D01*
X66727000Y-56045661D01*
X60737728Y-56045661D01*
X59578113Y-55815000D01*
X58221887Y-55815000D01*
X56891719Y-56079586D01*
X55638729Y-56598592D01*
X54511068Y-57352071D01*
X53552071Y-58311068D01*
X52798592Y-59438729D01*
X52279586Y-60691719D01*
X52015000Y-62021887D01*
X29560000Y-62021887D01*
X29560000Y-50465098D01*
X36515000Y-50465098D01*
X36515000Y-50934902D01*
X36606654Y-51395679D01*
X36786440Y-51829721D01*
X37047450Y-52220349D01*
X37379651Y-52552550D01*
X37770279Y-52813560D01*
X38204321Y-52993346D01*
X38665098Y-53085000D01*
X39134902Y-53085000D01*
X39595679Y-52993346D01*
X40029721Y-52813560D01*
X40420349Y-52552550D01*
X40752550Y-52220349D01*
X41013560Y-51829721D01*
X41193346Y-51395679D01*
X41285000Y-50934902D01*
X41285000Y-50465098D01*
X141015000Y-50465098D01*
X141015000Y-50934902D01*
X141106654Y-51395679D01*
X141286440Y-51829721D01*
X141547450Y-52220349D01*
X141879651Y-52552550D01*
X142270279Y-52813560D01*
X142704321Y-52993346D01*
X143165098Y-53085000D01*
X143634902Y-53085000D01*
X144095679Y-52993346D01*
X144529721Y-52813560D01*
X144920349Y-52552550D01*
X145252550Y-52220349D01*
X145513560Y-51829721D01*
X145693346Y-51395679D01*
X145785000Y-50934902D01*
X145785000Y-50465098D01*
X245515000Y-50465098D01*
X245515000Y-50934902D01*
X245606654Y-51395679D01*
X245786440Y-51829721D01*
X246047450Y-52220349D01*
X246379651Y-52552550D01*
X246770279Y-52813560D01*
X247204321Y-52993346D01*
X247665098Y-53085000D01*
X248134902Y-53085000D01*
X248595679Y-52993346D01*
X249029721Y-52813560D01*
X249420349Y-52552550D01*
X249752550Y-52220349D01*
X250013560Y-51829721D01*
X250193346Y-51395679D01*
X250285000Y-50934902D01*
X250285000Y-50465098D01*
X250193346Y-50004321D01*
X250013560Y-49570279D01*
X249752550Y-49179651D01*
X249420349Y-48847450D01*
X249029721Y-48586440D01*
X248595679Y-48406654D01*
X248134902Y-48315000D01*
X247665098Y-48315000D01*
X247204321Y-48406654D01*
X246770279Y-48586440D01*
X246379651Y-48847450D01*
X246047450Y-49179651D01*
X245786440Y-49570279D01*
X245606654Y-50004321D01*
X245515000Y-50465098D01*
X145785000Y-50465098D01*
X145693346Y-50004321D01*
X145513560Y-49570279D01*
X145252550Y-49179651D01*
X144920349Y-48847450D01*
X144529721Y-48586440D01*
X144095679Y-48406654D01*
X143634902Y-48315000D01*
X143165098Y-48315000D01*
X142704321Y-48406654D01*
X142270279Y-48586440D01*
X141879651Y-48847450D01*
X141547450Y-49179651D01*
X141286440Y-49570279D01*
X141106654Y-50004321D01*
X141015000Y-50465098D01*
X41285000Y-50465098D01*
X41193346Y-50004321D01*
X41013560Y-49570279D01*
X40752550Y-49179651D01*
X40420349Y-48847450D01*
X40029721Y-48586440D01*
X39595679Y-48406654D01*
X39134902Y-48315000D01*
X38665098Y-48315000D01*
X38204321Y-48406654D01*
X37770279Y-48586440D01*
X37379651Y-48847450D01*
X37047450Y-49179651D01*
X36786440Y-49570279D01*
X36606654Y-50004321D01*
X36515000Y-50465098D01*
X29560000Y-50465098D01*
X29560000Y-41360000D01*
X257240001Y-41360000D01*
X257240000Y-144540000D01*
G37*
X257240000Y-144540000D02*
X29560000Y-144540000D01*
X29560000Y-134965098D01*
X36515000Y-134965098D01*
X36515000Y-135434902D01*
X36606654Y-135895679D01*
X36786440Y-136329721D01*
X37047450Y-136720349D01*
X37379651Y-137052550D01*
X37770279Y-137313560D01*
X38204321Y-137493346D01*
X38665098Y-137585000D01*
X39134902Y-137585000D01*
X39595679Y-137493346D01*
X40029721Y-137313560D01*
X40420349Y-137052550D01*
X40752550Y-136720349D01*
X41013560Y-136329721D01*
X41193346Y-135895679D01*
X41285000Y-135434902D01*
X41285000Y-134965098D01*
X141015000Y-134965098D01*
X141015000Y-135434902D01*
X141106654Y-135895679D01*
X141286440Y-136329721D01*
X141547450Y-136720349D01*
X141879651Y-137052550D01*
X142270279Y-137313560D01*
X142704321Y-137493346D01*
X143165098Y-137585000D01*
X143634902Y-137585000D01*
X144095679Y-137493346D01*
X144529721Y-137313560D01*
X144920349Y-137052550D01*
X145252550Y-136720349D01*
X145513560Y-136329721D01*
X145693346Y-135895679D01*
X145785000Y-135434902D01*
X145785000Y-134965098D01*
X245515000Y-134965098D01*
X245515000Y-135434902D01*
X245606654Y-135895679D01*
X245786440Y-136329721D01*
X246047450Y-136720349D01*
X246379651Y-137052550D01*
X246770279Y-137313560D01*
X247204321Y-137493346D01*
X247665098Y-137585000D01*
X248134902Y-137585000D01*
X248595679Y-137493346D01*
X249029721Y-137313560D01*
X249420349Y-137052550D01*
X249752550Y-136720349D01*
X250013560Y-136329721D01*
X250193346Y-135895679D01*
X250285000Y-135434902D01*
X250285000Y-134965098D01*
X250193346Y-134504321D01*
X250013560Y-134070279D01*
X249752550Y-133679651D01*
X249420349Y-133347450D01*
X249029721Y-133086440D01*
X248595679Y-132906654D01*
X248134902Y-132815000D01*
X247665098Y-132815000D01*
X247204321Y-132906654D01*
X246770279Y-133086440D01*
X246379651Y-133347450D01*
X246047450Y-133679651D01*
X245786440Y-134070279D01*
X245606654Y-134504321D01*
X245515000Y-134965098D01*
X145785000Y-134965098D01*
X145693346Y-134504321D01*
X145513560Y-134070279D01*
X145252550Y-133679651D01*
X144920349Y-133347450D01*
X144529721Y-133086440D01*
X144095679Y-132906654D01*
X143634902Y-132815000D01*
X143165098Y-132815000D01*
X142704321Y-132906654D01*
X142270279Y-133086440D01*
X141879651Y-133347450D01*
X141547450Y-133679651D01*
X141286440Y-134070279D01*
X141106654Y-134504321D01*
X141015000Y-134965098D01*
X41285000Y-134965098D01*
X41193346Y-134504321D01*
X41013560Y-134070279D01*
X40752550Y-133679651D01*
X40420349Y-133347450D01*
X40029721Y-133086440D01*
X39595679Y-132906654D01*
X39134902Y-132815000D01*
X38665098Y-132815000D01*
X38204321Y-132906654D01*
X37770279Y-133086440D01*
X37379651Y-133347450D01*
X37047450Y-133679651D01*
X36786440Y-134070279D01*
X36606654Y-134504321D01*
X36515000Y-134965098D01*
X29560000Y-134965098D01*
X29560000Y-106521887D01*
X59515000Y-106521887D01*
X59515000Y-107878113D01*
X59779586Y-109208281D01*
X60298592Y-110461271D01*
X61052071Y-111588932D01*
X62011068Y-112547929D01*
X63138729Y-113301408D01*
X64391719Y-113820414D01*
X65721887Y-114085000D01*
X67078113Y-114085000D01*
X68408281Y-113820414D01*
X69661271Y-113301408D01*
X70788932Y-112547929D01*
X71747929Y-111588932D01*
X72501408Y-110461271D01*
X73020414Y-109208281D01*
X73268712Y-107960000D01*
X75201512Y-107960000D01*
X75238834Y-107963676D01*
X75276156Y-107960000D01*
X75276167Y-107960000D01*
X75387820Y-107949003D01*
X75531081Y-107905546D01*
X75663110Y-107834974D01*
X75778835Y-107740001D01*
X75802638Y-107710997D01*
X83665404Y-99848232D01*
X83694401Y-99824435D01*
X83789374Y-99708710D01*
X83859946Y-99576681D01*
X83903403Y-99433420D01*
X83914400Y-99321767D01*
X83914400Y-99321759D01*
X83918076Y-99284434D01*
X83914400Y-99247109D01*
X83914400Y-86360123D01*
X83918076Y-86322800D01*
X83914400Y-86285477D01*
X83914400Y-86285467D01*
X83903403Y-86173814D01*
X83859946Y-86030553D01*
X83841833Y-85996667D01*
X83789374Y-85898523D01*
X83718199Y-85811797D01*
X83694401Y-85782799D01*
X83665403Y-85759001D01*
X82400063Y-84493661D01*
X89790200Y-84493661D01*
X89790200Y-84697539D01*
X89829974Y-84897498D01*
X89907995Y-85085856D01*
X90021263Y-85255374D01*
X90165426Y-85399537D01*
X90334944Y-85512805D01*
X90523302Y-85590826D01*
X90723261Y-85630600D01*
X90785399Y-85630600D01*
X91284401Y-86129603D01*
X91284400Y-97963489D01*
X91240463Y-98007426D01*
X91127195Y-98176944D01*
X91049174Y-98365302D01*
X91009400Y-98565261D01*
X91009400Y-98769139D01*
X91049174Y-98969098D01*
X91127195Y-99157456D01*
X91240463Y-99326974D01*
X91384626Y-99471137D01*
X91554144Y-99584405D01*
X91742502Y-99662426D01*
X91942461Y-99702200D01*
X92146339Y-99702200D01*
X92346298Y-99662426D01*
X92534656Y-99584405D01*
X92704174Y-99471137D01*
X92848337Y-99326974D01*
X92961605Y-99157456D01*
X93039626Y-98969098D01*
X93079400Y-98769139D01*
X93079400Y-98565261D01*
X93039626Y-98365302D01*
X92961605Y-98176944D01*
X92848337Y-98007426D01*
X92804400Y-97963489D01*
X92804400Y-85852122D01*
X92808076Y-85814799D01*
X92804400Y-85777476D01*
X92804400Y-85777467D01*
X92793403Y-85665814D01*
X92749946Y-85522553D01*
X92679374Y-85390524D01*
X92584401Y-85274799D01*
X92555403Y-85251001D01*
X91860200Y-84555799D01*
X91860200Y-84493661D01*
X91820426Y-84293702D01*
X91742405Y-84105344D01*
X91629137Y-83935826D01*
X91484974Y-83791663D01*
X91315456Y-83678395D01*
X91127098Y-83600374D01*
X90927139Y-83560600D01*
X90723261Y-83560600D01*
X90523302Y-83600374D01*
X90334944Y-83678395D01*
X90165426Y-83791663D01*
X90021263Y-83935826D01*
X89907995Y-84105344D01*
X89829974Y-84293702D01*
X89790200Y-84493661D01*
X82400063Y-84493661D01*
X79109400Y-81202999D01*
X79109400Y-81140861D01*
X79069626Y-80940902D01*
X78991605Y-80752544D01*
X78878337Y-80583026D01*
X78734174Y-80438863D01*
X78564656Y-80325595D01*
X78376298Y-80247574D01*
X78176339Y-80207800D01*
X77972461Y-80207800D01*
X77772502Y-80247574D01*
X77584144Y-80325595D01*
X77414626Y-80438863D01*
X77270463Y-80583026D01*
X77157195Y-80752544D01*
X77079174Y-80940902D01*
X77039400Y-81140861D01*
X77039400Y-81344739D01*
X77079174Y-81544698D01*
X77157195Y-81733056D01*
X77270463Y-81902574D01*
X77414626Y-82046737D01*
X77584144Y-82160005D01*
X77772502Y-82238026D01*
X77972461Y-82277800D01*
X78034599Y-82277800D01*
X82394401Y-86637603D01*
X82394400Y-98969632D01*
X74924033Y-106440000D01*
X73268712Y-106440000D01*
X73020414Y-105191719D01*
X72501408Y-103938729D01*
X71747929Y-102811068D01*
X70788932Y-101852071D01*
X69661271Y-101098592D01*
X68408281Y-100579586D01*
X67078113Y-100315000D01*
X65721887Y-100315000D01*
X64391719Y-100579586D01*
X63138729Y-101098592D01*
X62011068Y-101852071D01*
X61052071Y-102811068D01*
X60298592Y-103938729D01*
X59779586Y-105191719D01*
X59515000Y-106521887D01*
X29560000Y-106521887D01*
X29560000Y-77178461D01*
X53569800Y-77178461D01*
X53569800Y-77382339D01*
X53609574Y-77582298D01*
X53687595Y-77770656D01*
X53800863Y-77940174D01*
X53844800Y-77984111D01*
X53844801Y-79545068D01*
X53841124Y-79582400D01*
X53844801Y-79619733D01*
X53855798Y-79731386D01*
X53868980Y-79774842D01*
X53899254Y-79874646D01*
X53909400Y-79893628D01*
X53909400Y-80023939D01*
X53949174Y-80223898D01*
X54027195Y-80412256D01*
X54140463Y-80581774D01*
X54284626Y-80725937D01*
X54454144Y-80839205D01*
X54642502Y-80917226D01*
X54842461Y-80957000D01*
X55046339Y-80957000D01*
X55246298Y-80917226D01*
X55434656Y-80839205D01*
X55604174Y-80725937D01*
X55748337Y-80581774D01*
X55861605Y-80412256D01*
X55939626Y-80223898D01*
X55979400Y-80023939D01*
X55979400Y-79820061D01*
X55939626Y-79620102D01*
X55861605Y-79431744D01*
X55748337Y-79262226D01*
X55604174Y-79118063D01*
X55434656Y-79004795D01*
X55364800Y-78975859D01*
X55364800Y-77984111D01*
X55408737Y-77940174D01*
X55522005Y-77770656D01*
X55600026Y-77582298D01*
X55639800Y-77382339D01*
X55639800Y-77178461D01*
X55600026Y-76978502D01*
X55522005Y-76790144D01*
X55408737Y-76620626D01*
X55264574Y-76476463D01*
X55095056Y-76363195D01*
X54906698Y-76285174D01*
X54706739Y-76245400D01*
X54502861Y-76245400D01*
X54302902Y-76285174D01*
X54114544Y-76363195D01*
X53945026Y-76476463D01*
X53800863Y-76620626D01*
X53687595Y-76790144D01*
X53609574Y-76978502D01*
X53569800Y-77178461D01*
X29560000Y-77178461D01*
X29560000Y-62021887D01*
X52015000Y-62021887D01*
X52015000Y-63378113D01*
X52279586Y-64708281D01*
X52798592Y-65961271D01*
X53552071Y-67088932D01*
X54511068Y-68047929D01*
X55638729Y-68801408D01*
X56891719Y-69320414D01*
X58140001Y-69568712D01*
X58140001Y-71217000D01*
X58112805Y-71151344D01*
X57999537Y-70981826D01*
X57855374Y-70837663D01*
X57685856Y-70724395D01*
X57497498Y-70646374D01*
X57297539Y-70606600D01*
X57093661Y-70606600D01*
X56893702Y-70646374D01*
X56705344Y-70724395D01*
X56535826Y-70837663D01*
X56391663Y-70981826D01*
X56278395Y-71151344D01*
X56200374Y-71339702D01*
X56160600Y-71539661D01*
X56160600Y-71743539D01*
X56200374Y-71943498D01*
X56278395Y-72131856D01*
X56391663Y-72301374D01*
X56435600Y-72345311D01*
X56435601Y-76547868D01*
X56431924Y-76585200D01*
X56435601Y-76622533D01*
X56446598Y-76734186D01*
X56457339Y-76769595D01*
X56490054Y-76877446D01*
X56560626Y-77009476D01*
X56631801Y-77096202D01*
X56655600Y-77125201D01*
X56684598Y-77148999D01*
X58278200Y-78742602D01*
X58278200Y-78804739D01*
X58317974Y-79004698D01*
X58395995Y-79193056D01*
X58509263Y-79362574D01*
X58653426Y-79506737D01*
X58822944Y-79620005D01*
X59011302Y-79698026D01*
X59211261Y-79737800D01*
X59415139Y-79737800D01*
X59615098Y-79698026D01*
X59765180Y-79635859D01*
X59779586Y-79708281D01*
X60182335Y-80680602D01*
X60117137Y-80583026D01*
X59972974Y-80438863D01*
X59803456Y-80325595D01*
X59615098Y-80247574D01*
X59415139Y-80207800D01*
X59211261Y-80207800D01*
X59011302Y-80247574D01*
X58822944Y-80325595D01*
X58653426Y-80438863D01*
X58509263Y-80583026D01*
X58395995Y-80752544D01*
X58317974Y-80940902D01*
X58278200Y-81140861D01*
X58278200Y-81215672D01*
X58265026Y-81231724D01*
X58194454Y-81363754D01*
X58166172Y-81456991D01*
X58150998Y-81507014D01*
X58143912Y-81578961D01*
X58136324Y-81656000D01*
X58140001Y-81693332D01*
X58140001Y-85831288D01*
X56891719Y-86079586D01*
X55638729Y-86598592D01*
X54511068Y-87352071D01*
X53552071Y-88311068D01*
X52798592Y-89438729D01*
X52279586Y-90691719D01*
X52015000Y-92021887D01*
X52015000Y-93378113D01*
X52279586Y-94708281D01*
X52798592Y-95961271D01*
X53552071Y-97088932D01*
X54511068Y-98047929D01*
X55638729Y-98801408D01*
X56891719Y-99320414D01*
X58221887Y-99585000D01*
X59578113Y-99585000D01*
X60908281Y-99320414D01*
X62161271Y-98801408D01*
X63288932Y-98047929D01*
X64247929Y-97088932D01*
X65001408Y-95961271D01*
X65520414Y-94708281D01*
X65785000Y-93378113D01*
X65785000Y-92021887D01*
X65520414Y-90691719D01*
X65001408Y-89438729D01*
X64247929Y-88311068D01*
X63288932Y-87352071D01*
X62161271Y-86598592D01*
X60908281Y-86079586D01*
X59660000Y-85831288D01*
X59660000Y-82219427D01*
X59803456Y-82160005D01*
X59972974Y-82046737D01*
X60117137Y-81902574D01*
X60230405Y-81733056D01*
X60308426Y-81544698D01*
X60348200Y-81344739D01*
X60348200Y-81140861D01*
X60318363Y-80990861D01*
X61052071Y-82088932D01*
X61813455Y-82850316D01*
X61618102Y-82889174D01*
X61429744Y-82967195D01*
X61260226Y-83080463D01*
X61116063Y-83224626D01*
X61002795Y-83394144D01*
X60924774Y-83582502D01*
X60885000Y-83782461D01*
X60885000Y-83986339D01*
X60924774Y-84186298D01*
X61002795Y-84374656D01*
X61116063Y-84544174D01*
X61260226Y-84688337D01*
X61429744Y-84801605D01*
X61618102Y-84879626D01*
X61818061Y-84919400D01*
X61880198Y-84919400D01*
X62235644Y-85274846D01*
X62259442Y-85303844D01*
X62375167Y-85398817D01*
X62507196Y-85469389D01*
X62650457Y-85512846D01*
X62762110Y-85523843D01*
X62762119Y-85523843D01*
X62799442Y-85527519D01*
X62836765Y-85523843D01*
X66481217Y-85523843D01*
X66525154Y-85567780D01*
X66694672Y-85681048D01*
X66719663Y-85691400D01*
X66622213Y-85700998D01*
X66478952Y-85744455D01*
X66346923Y-85815027D01*
X66308451Y-85846600D01*
X66237661Y-85846600D01*
X66037702Y-85886374D01*
X65849344Y-85964395D01*
X65679826Y-86077663D01*
X65535663Y-86221826D01*
X65422395Y-86391344D01*
X65344374Y-86579702D01*
X65304600Y-86779661D01*
X65304600Y-86983539D01*
X65344374Y-87183498D01*
X65422395Y-87371856D01*
X65535663Y-87541374D01*
X65679826Y-87685537D01*
X65849344Y-87798805D01*
X66037702Y-87876826D01*
X66237661Y-87916600D01*
X66441539Y-87916600D01*
X66641498Y-87876826D01*
X66829856Y-87798805D01*
X66999374Y-87685537D01*
X67143537Y-87541374D01*
X67256805Y-87371856D01*
X67323848Y-87210001D01*
X67335200Y-87210001D01*
X68505686Y-88380488D01*
X67798592Y-89438729D01*
X67279586Y-90691719D01*
X67015000Y-92021887D01*
X67015000Y-93378113D01*
X67279586Y-94708281D01*
X67798592Y-95961271D01*
X68552071Y-97088932D01*
X69511068Y-98047929D01*
X70638729Y-98801408D01*
X71891719Y-99320414D01*
X73221887Y-99585000D01*
X74578113Y-99585000D01*
X75908281Y-99320414D01*
X77161271Y-98801408D01*
X78288932Y-98047929D01*
X79247929Y-97088932D01*
X80001408Y-95961271D01*
X80520414Y-94708281D01*
X80785000Y-93378113D01*
X80785000Y-92021887D01*
X80520414Y-90691719D01*
X80001408Y-89438729D01*
X79247929Y-88311068D01*
X78288932Y-87352071D01*
X77161271Y-86598592D01*
X75908281Y-86079586D01*
X74578113Y-85815000D01*
X73221887Y-85815000D01*
X71891719Y-86079586D01*
X70638729Y-86598592D01*
X69580488Y-87305686D01*
X68213805Y-85939004D01*
X68190002Y-85910000D01*
X68074277Y-85815027D01*
X67942248Y-85744455D01*
X67798987Y-85700998D01*
X67687334Y-85690001D01*
X67687323Y-85690001D01*
X67660054Y-85687315D01*
X67675184Y-85681048D01*
X67844702Y-85567780D01*
X67988865Y-85423617D01*
X68102133Y-85254099D01*
X68180154Y-85065741D01*
X68219928Y-84865782D01*
X68219928Y-84661904D01*
X68180154Y-84461945D01*
X68143357Y-84373110D01*
X68408281Y-84320414D01*
X68971161Y-84087261D01*
X76277400Y-84087261D01*
X76277400Y-84291139D01*
X76317174Y-84491098D01*
X76395195Y-84679456D01*
X76508463Y-84848974D01*
X76652626Y-84993137D01*
X76822144Y-85106405D01*
X77010502Y-85184426D01*
X77210461Y-85224200D01*
X77414339Y-85224200D01*
X77614298Y-85184426D01*
X77739687Y-85132488D01*
X79731800Y-87124602D01*
X79731800Y-87186739D01*
X79771574Y-87386698D01*
X79849595Y-87575056D01*
X79962863Y-87744574D01*
X80107026Y-87888737D01*
X80276544Y-88002005D01*
X80464902Y-88080026D01*
X80664861Y-88119800D01*
X80868739Y-88119800D01*
X81068698Y-88080026D01*
X81257056Y-88002005D01*
X81426574Y-87888737D01*
X81570737Y-87744574D01*
X81684005Y-87575056D01*
X81762026Y-87386698D01*
X81801800Y-87186739D01*
X81801800Y-86982861D01*
X81762026Y-86782902D01*
X81684005Y-86594544D01*
X81570737Y-86425026D01*
X81426574Y-86280863D01*
X81257056Y-86167595D01*
X81068698Y-86089574D01*
X80868739Y-86049800D01*
X80806602Y-86049800D01*
X78435004Y-83678203D01*
X78411201Y-83649199D01*
X78295476Y-83554226D01*
X78163447Y-83483654D01*
X78030122Y-83443211D01*
X77972174Y-83385263D01*
X77802656Y-83271995D01*
X77614298Y-83193974D01*
X77414339Y-83154200D01*
X77210461Y-83154200D01*
X77010502Y-83193974D01*
X76822144Y-83271995D01*
X76652626Y-83385263D01*
X76508463Y-83529426D01*
X76395195Y-83698944D01*
X76317174Y-83887302D01*
X76277400Y-84087261D01*
X68971161Y-84087261D01*
X69661271Y-83801408D01*
X70788932Y-83047929D01*
X71747929Y-82088932D01*
X72215002Y-81389908D01*
X72215002Y-81779669D01*
X72211325Y-81817001D01*
X72215002Y-81854334D01*
X72218489Y-81889732D01*
X72225999Y-81965986D01*
X72269455Y-82109247D01*
X72340027Y-82241277D01*
X72380506Y-82290600D01*
X72435001Y-82357002D01*
X72463998Y-82380800D01*
X72686600Y-82603402D01*
X72686600Y-82665539D01*
X72726374Y-82865498D01*
X72804395Y-83053856D01*
X72917663Y-83223374D01*
X73061826Y-83367537D01*
X73231344Y-83480805D01*
X73419702Y-83558826D01*
X73619661Y-83598600D01*
X73823539Y-83598600D01*
X74023498Y-83558826D01*
X74211856Y-83480805D01*
X74381374Y-83367537D01*
X74525537Y-83223374D01*
X74638805Y-83053856D01*
X74716826Y-82865498D01*
X74756600Y-82665539D01*
X74756600Y-82461661D01*
X74716826Y-82261702D01*
X74638805Y-82073344D01*
X74525537Y-81903826D01*
X74381374Y-81759663D01*
X74211856Y-81646395D01*
X74023498Y-81568374D01*
X73823539Y-81528600D01*
X73761402Y-81528600D01*
X73735001Y-81502199D01*
X73735001Y-81007800D01*
X73807539Y-81007800D01*
X74007498Y-80968026D01*
X74195856Y-80890005D01*
X74365374Y-80776737D01*
X74509537Y-80632574D01*
X74622805Y-80463056D01*
X74700826Y-80274698D01*
X74740600Y-80074739D01*
X74740600Y-80012602D01*
X74877002Y-79876200D01*
X74906001Y-79852401D01*
X75000974Y-79736676D01*
X75071546Y-79604647D01*
X75115003Y-79461386D01*
X75126000Y-79349733D01*
X75126000Y-79349725D01*
X75129676Y-79312400D01*
X75126000Y-79275075D01*
X75126000Y-71436400D01*
X87047444Y-71436400D01*
X87084766Y-71440076D01*
X87122088Y-71436400D01*
X87122099Y-71436400D01*
X87233752Y-71425403D01*
X87377013Y-71381946D01*
X87509042Y-71311374D01*
X87624767Y-71216401D01*
X87648570Y-71187397D01*
X95375968Y-63460000D01*
X97031288Y-63460000D01*
X97279586Y-64708281D01*
X97798592Y-65961271D01*
X98552071Y-67088932D01*
X99511068Y-68047929D01*
X100638729Y-68801408D01*
X101891719Y-69320414D01*
X103221887Y-69585000D01*
X104578113Y-69585000D01*
X105908281Y-69320414D01*
X107161271Y-68801408D01*
X108288932Y-68047929D01*
X109247929Y-67088932D01*
X110001408Y-65961271D01*
X110520414Y-64708281D01*
X110785000Y-63378113D01*
X110785000Y-62021887D01*
X110520414Y-60691719D01*
X110001408Y-59438729D01*
X109247929Y-58311068D01*
X108288932Y-57352071D01*
X107161271Y-56598592D01*
X105908281Y-56079586D01*
X104578113Y-55815000D01*
X103221887Y-55815000D01*
X101891719Y-56079586D01*
X100638729Y-56598592D01*
X99511068Y-57352071D01*
X98552071Y-58311068D01*
X97798592Y-59438729D01*
X97279586Y-60691719D01*
X97031288Y-61940000D01*
X95098488Y-61940000D01*
X95061165Y-61936324D01*
X95023842Y-61940000D01*
X95023833Y-61940000D01*
X94912180Y-61950997D01*
X94768919Y-61994454D01*
X94636889Y-62065026D01*
X94553249Y-62133668D01*
X94521165Y-62159999D01*
X94497367Y-62188997D01*
X86769965Y-69916400D01*
X74403333Y-69916400D01*
X74366000Y-69912723D01*
X74328667Y-69916400D01*
X74217014Y-69927397D01*
X74073753Y-69970854D01*
X73941724Y-70041426D01*
X73825999Y-70136399D01*
X73731026Y-70252124D01*
X73660454Y-70384153D01*
X73616997Y-70527414D01*
X73602323Y-70676400D01*
X73606000Y-70713733D01*
X73606000Y-71853482D01*
X73515002Y-71742600D01*
X73486004Y-71718803D01*
X73470600Y-71703398D01*
X73470600Y-71641261D01*
X73430826Y-71441302D01*
X73352805Y-71252944D01*
X73239537Y-71083426D01*
X73095374Y-70939263D01*
X72925856Y-70825995D01*
X72737498Y-70747974D01*
X72537539Y-70708200D01*
X72333661Y-70708200D01*
X72133702Y-70747974D01*
X71945344Y-70825995D01*
X71775826Y-70939263D01*
X71631663Y-71083426D01*
X71518395Y-71252944D01*
X71440374Y-71441302D01*
X71400600Y-71641261D01*
X71400600Y-71845139D01*
X71440374Y-72045098D01*
X71518395Y-72233456D01*
X71631663Y-72402974D01*
X71775826Y-72547137D01*
X71945344Y-72660405D01*
X72133702Y-72738426D01*
X72215001Y-72754597D01*
X72215001Y-74010091D01*
X71747929Y-73311068D01*
X70788932Y-72352071D01*
X69661271Y-71598592D01*
X68408281Y-71079586D01*
X67078113Y-70815000D01*
X65721887Y-70815000D01*
X64391719Y-71079586D01*
X63138729Y-71598592D01*
X62011068Y-72352071D01*
X61359570Y-73003569D01*
X61177000Y-72820999D01*
X61177000Y-72758861D01*
X61137226Y-72558902D01*
X61059205Y-72370544D01*
X60945937Y-72201026D01*
X60801774Y-72056863D01*
X60632256Y-71943595D01*
X60443898Y-71865574D01*
X60243939Y-71825800D01*
X60040061Y-71825800D01*
X59840102Y-71865574D01*
X59660000Y-71940175D01*
X59660000Y-69568712D01*
X60908281Y-69320414D01*
X62161271Y-68801408D01*
X63288932Y-68047929D01*
X64247929Y-67088932D01*
X65001408Y-65961271D01*
X65520414Y-64708281D01*
X65785000Y-63378113D01*
X65785000Y-62021887D01*
X67015000Y-62021887D01*
X67015000Y-63378113D01*
X67279586Y-64708281D01*
X67798592Y-65961271D01*
X68552071Y-67088932D01*
X69511068Y-68047929D01*
X70155245Y-68478354D01*
X69769973Y-68863626D01*
X69746102Y-68868374D01*
X69557744Y-68946395D01*
X69388226Y-69059663D01*
X69244063Y-69203826D01*
X69130795Y-69373344D01*
X69052774Y-69561702D01*
X69013000Y-69761661D01*
X69013000Y-69965539D01*
X69052774Y-70165498D01*
X69130795Y-70353856D01*
X69244063Y-70523374D01*
X69388226Y-70667537D01*
X69557744Y-70780805D01*
X69746102Y-70858826D01*
X69946061Y-70898600D01*
X70149939Y-70898600D01*
X70349898Y-70858826D01*
X70538256Y-70780805D01*
X70707774Y-70667537D01*
X70851937Y-70523374D01*
X70965205Y-70353856D01*
X71043226Y-70165498D01*
X71083000Y-69965539D01*
X71083000Y-69761661D01*
X71072803Y-69710398D01*
X71588419Y-69194783D01*
X71891719Y-69320414D01*
X73221887Y-69585000D01*
X74578113Y-69585000D01*
X75908281Y-69320414D01*
X77161271Y-68801408D01*
X78288932Y-68047929D01*
X79247929Y-67088932D01*
X80001408Y-65961271D01*
X80520414Y-64708281D01*
X80785000Y-63378113D01*
X80785000Y-62021887D01*
X80520414Y-60691719D01*
X80001408Y-59438729D01*
X79247929Y-58311068D01*
X78288932Y-57352071D01*
X77161271Y-56598592D01*
X75908281Y-56079586D01*
X74578113Y-55815000D01*
X73221887Y-55815000D01*
X71891719Y-56079586D01*
X70638729Y-56598592D01*
X69511068Y-57352071D01*
X68552071Y-58311068D01*
X67798592Y-59438729D01*
X67279586Y-60691719D01*
X67015000Y-62021887D01*
X65785000Y-62021887D01*
X65520414Y-60691719D01*
X65001408Y-59438729D01*
X64247929Y-58311068D01*
X63288932Y-57352071D01*
X62161271Y-56598592D01*
X60908281Y-56079586D01*
X60737728Y-56045661D01*
X66727000Y-56045661D01*
X66727000Y-56249539D01*
X66766774Y-56449498D01*
X66844795Y-56637856D01*
X66958063Y-56807374D01*
X67102226Y-56951537D01*
X67271744Y-57064805D01*
X67460102Y-57142826D01*
X67660061Y-57182600D01*
X67863939Y-57182600D01*
X68063898Y-57142826D01*
X68252256Y-57064805D01*
X68421774Y-56951537D01*
X68565937Y-56807374D01*
X68679205Y-56637856D01*
X68757226Y-56449498D01*
X68797000Y-56249539D01*
X68797000Y-56187401D01*
X71524012Y-53460390D01*
X92996408Y-53460390D01*
X81068603Y-65388196D01*
X81039599Y-65411999D01*
X80984471Y-65479174D01*
X80944626Y-65527724D01*
X80874236Y-65659414D01*
X80874054Y-65659754D01*
X80830597Y-65803015D01*
X80819600Y-65914668D01*
X80819600Y-65914678D01*
X80815924Y-65952000D01*
X80819600Y-65989323D01*
X80819601Y-67127888D01*
X80775663Y-67171826D01*
X80662395Y-67341344D01*
X80584374Y-67529702D01*
X80544600Y-67729661D01*
X80544600Y-67933539D01*
X80584374Y-68133498D01*
X80662395Y-68321856D01*
X80775663Y-68491374D01*
X80919826Y-68635537D01*
X81089344Y-68748805D01*
X81277702Y-68826826D01*
X81477661Y-68866600D01*
X81681539Y-68866600D01*
X81881498Y-68826826D01*
X82069856Y-68748805D01*
X82239374Y-68635537D01*
X82383537Y-68491374D01*
X82496805Y-68321856D01*
X82574826Y-68133498D01*
X82614600Y-67933539D01*
X82614600Y-67729661D01*
X82574826Y-67529702D01*
X82496805Y-67341344D01*
X82383537Y-67171826D01*
X82339600Y-67127889D01*
X82339600Y-66266801D01*
X94696002Y-53910400D01*
X109035599Y-53910400D01*
X113505686Y-58380488D01*
X112798592Y-59438729D01*
X112279586Y-60691719D01*
X112015000Y-62021887D01*
X112015000Y-63378113D01*
X112279586Y-64708281D01*
X112798592Y-65961271D01*
X113552071Y-67088932D01*
X114511068Y-68047929D01*
X115638729Y-68801408D01*
X115828238Y-68879905D01*
X115764586Y-68860597D01*
X115652933Y-68849600D01*
X115652922Y-68849600D01*
X115615600Y-68845924D01*
X115578278Y-68849600D01*
X107880523Y-68849600D01*
X107843200Y-68845924D01*
X107805877Y-68849600D01*
X107805867Y-68849600D01*
X107694214Y-68860597D01*
X107550953Y-68904054D01*
X107418924Y-68974626D01*
X107303199Y-69069599D01*
X107279401Y-69098597D01*
X103369803Y-73008196D01*
X103340799Y-73031999D01*
X103303485Y-73077467D01*
X103245826Y-73147724D01*
X103208783Y-73217026D01*
X103175254Y-73279754D01*
X103131797Y-73423015D01*
X103120800Y-73534668D01*
X103120800Y-73534678D01*
X103117124Y-73572000D01*
X103120800Y-73609323D01*
X103120801Y-75414683D01*
X103120759Y-75415114D01*
X103120779Y-75433430D01*
X103118048Y-75489156D01*
X103120863Y-75508116D01*
X103121633Y-76200585D01*
X103020414Y-75691719D01*
X102501408Y-74438729D01*
X101747929Y-73311068D01*
X100788932Y-72352071D01*
X99661271Y-71598592D01*
X98408281Y-71079586D01*
X97078113Y-70815000D01*
X95721887Y-70815000D01*
X94391719Y-71079586D01*
X93138729Y-71598592D01*
X92011068Y-72352071D01*
X91052071Y-73311068D01*
X90298592Y-74438729D01*
X89779586Y-75691719D01*
X89515000Y-77021887D01*
X89515000Y-78378113D01*
X89779586Y-79708281D01*
X90298592Y-80961271D01*
X91052071Y-82088932D01*
X92011068Y-83047929D01*
X93138729Y-83801408D01*
X94391719Y-84320414D01*
X95640001Y-84568712D01*
X95640001Y-85683088D01*
X95609263Y-85713826D01*
X95495995Y-85883344D01*
X95417974Y-86071702D01*
X95378200Y-86271661D01*
X95378200Y-86475539D01*
X95417974Y-86675498D01*
X95495995Y-86863856D01*
X95609263Y-87033374D01*
X95753426Y-87177537D01*
X95922944Y-87290805D01*
X96111302Y-87368826D01*
X96311261Y-87408600D01*
X96515139Y-87408600D01*
X96715098Y-87368826D01*
X96903456Y-87290805D01*
X97072974Y-87177537D01*
X97217137Y-87033374D01*
X97330405Y-86863856D01*
X97408426Y-86675498D01*
X97448200Y-86475539D01*
X97448200Y-86271661D01*
X97408426Y-86071702D01*
X97330405Y-85883344D01*
X97217137Y-85713826D01*
X97160000Y-85656689D01*
X97160000Y-84568712D01*
X98408281Y-84320414D01*
X99661271Y-83801408D01*
X100788932Y-83047929D01*
X101747929Y-82088932D01*
X102501408Y-80961271D01*
X103020414Y-79708281D01*
X103124953Y-79182726D01*
X103132356Y-85832809D01*
X101891719Y-86079586D01*
X100638729Y-86598592D01*
X99511068Y-87352071D01*
X98552071Y-88311068D01*
X97798592Y-89438729D01*
X97279586Y-90691719D01*
X97015000Y-92021887D01*
X97015000Y-93378113D01*
X97279586Y-94708281D01*
X97798592Y-95961271D01*
X98552071Y-97088932D01*
X99511068Y-98047929D01*
X100638729Y-98801408D01*
X101891719Y-99320414D01*
X103221887Y-99585000D01*
X104578113Y-99585000D01*
X105908281Y-99320414D01*
X106781814Y-98958584D01*
X105050398Y-100690001D01*
X102687321Y-100690001D01*
X102649998Y-100686325D01*
X102612675Y-100690001D01*
X102612666Y-100690001D01*
X102501013Y-100700998D01*
X102357752Y-100744455D01*
X102225723Y-100815027D01*
X102109998Y-100910000D01*
X102086200Y-100938998D01*
X100719512Y-102305686D01*
X99661271Y-101598592D01*
X98408281Y-101079586D01*
X97078113Y-100815000D01*
X95721887Y-100815000D01*
X94391719Y-101079586D01*
X93138729Y-101598592D01*
X92011068Y-102352071D01*
X91052071Y-103311068D01*
X90298592Y-104438729D01*
X89779586Y-105691719D01*
X89515000Y-107021887D01*
X89515000Y-108378113D01*
X89779586Y-109708281D01*
X90298592Y-110961271D01*
X91052071Y-112088932D01*
X92011068Y-113047929D01*
X93138729Y-113801408D01*
X94391719Y-114320414D01*
X95721887Y-114585000D01*
X97078113Y-114585000D01*
X98408281Y-114320414D01*
X99661271Y-113801408D01*
X100788932Y-113047929D01*
X101747929Y-112088932D01*
X102501408Y-110961271D01*
X103020414Y-109708281D01*
X103285000Y-108378113D01*
X103285000Y-107021887D01*
X104515000Y-107021887D01*
X104515000Y-108378113D01*
X104779586Y-109708281D01*
X105298592Y-110961271D01*
X106052071Y-112088932D01*
X107011068Y-113047929D01*
X108138729Y-113801408D01*
X109391719Y-114320414D01*
X110721887Y-114585000D01*
X112078113Y-114585000D01*
X113408281Y-114320414D01*
X114661271Y-113801408D01*
X115719512Y-113094314D01*
X120955001Y-118329803D01*
X120978799Y-118358801D01*
X121007797Y-118382599D01*
X121094524Y-118453774D01*
X121226553Y-118524346D01*
X121369814Y-118567803D01*
X121518800Y-118582477D01*
X121556133Y-118578800D01*
X154033878Y-118578800D01*
X154071200Y-118582476D01*
X154108522Y-118578800D01*
X154108533Y-118578800D01*
X154220186Y-118567803D01*
X154363447Y-118524346D01*
X154495476Y-118453774D01*
X154611201Y-118358801D01*
X154635004Y-118329797D01*
X159394202Y-113570600D01*
X159456339Y-113570600D01*
X159656298Y-113530826D01*
X159844656Y-113452805D01*
X160014174Y-113339537D01*
X160158337Y-113195374D01*
X160271605Y-113025856D01*
X160349626Y-112837498D01*
X160389400Y-112637539D01*
X160389400Y-112433661D01*
X160349626Y-112233702D01*
X160271605Y-112045344D01*
X160158337Y-111875826D01*
X160014174Y-111731663D01*
X159844656Y-111618395D01*
X159656298Y-111540374D01*
X159456339Y-111500600D01*
X159252461Y-111500600D01*
X159052502Y-111540374D01*
X158864144Y-111618395D01*
X158694626Y-111731663D01*
X158550463Y-111875826D01*
X158437195Y-112045344D01*
X158359174Y-112233702D01*
X158319400Y-112433661D01*
X158319400Y-112495798D01*
X153756399Y-117058800D01*
X121833602Y-117058800D01*
X116794314Y-112019512D01*
X117501408Y-110961271D01*
X118020414Y-109708281D01*
X118285000Y-108378113D01*
X118285000Y-107021887D01*
X119515000Y-107021887D01*
X119515000Y-108378113D01*
X119779586Y-109708281D01*
X120298592Y-110961271D01*
X121052071Y-112088932D01*
X122011068Y-113047929D01*
X123138729Y-113801408D01*
X124391719Y-114320414D01*
X125721887Y-114585000D01*
X127078113Y-114585000D01*
X128408281Y-114320414D01*
X129661271Y-113801408D01*
X130788932Y-113047929D01*
X131747929Y-112088932D01*
X132501408Y-110961271D01*
X133020414Y-109708281D01*
X133285000Y-108378113D01*
X133285000Y-107021887D01*
X133020414Y-105691719D01*
X132501408Y-104438729D01*
X131794314Y-103380488D01*
X132964801Y-102210001D01*
X137077877Y-102210001D01*
X137115199Y-102213677D01*
X137152521Y-102210001D01*
X137152532Y-102210001D01*
X137235993Y-102201781D01*
X137011068Y-102352071D01*
X136052071Y-103311068D01*
X135298592Y-104438729D01*
X134779586Y-105691719D01*
X134515000Y-107021887D01*
X134515000Y-108378113D01*
X134779586Y-109708281D01*
X135298592Y-110961271D01*
X136052071Y-112088932D01*
X137011068Y-113047929D01*
X138138729Y-113801408D01*
X139391719Y-114320414D01*
X140721887Y-114585000D01*
X142078113Y-114585000D01*
X143408281Y-114320414D01*
X144661271Y-113801408D01*
X145788932Y-113047929D01*
X146747929Y-112088932D01*
X147501408Y-110961271D01*
X148020414Y-109708281D01*
X148268712Y-108460000D01*
X162476278Y-108460000D01*
X162513600Y-108463676D01*
X162550922Y-108460000D01*
X162550933Y-108460000D01*
X162662586Y-108449003D01*
X162698444Y-108438126D01*
X162706861Y-108439800D01*
X162910739Y-108439800D01*
X163110698Y-108400026D01*
X163299056Y-108322005D01*
X163468574Y-108208737D01*
X163612737Y-108064574D01*
X163726005Y-107895056D01*
X163804026Y-107706698D01*
X163843800Y-107506739D01*
X163843800Y-107302861D01*
X163804026Y-107102902D01*
X163770469Y-107021887D01*
X164515000Y-107021887D01*
X164515000Y-108378113D01*
X164779586Y-109708281D01*
X165298592Y-110961271D01*
X166052071Y-112088932D01*
X167011068Y-113047929D01*
X168138729Y-113801408D01*
X169391719Y-114320414D01*
X170721887Y-114585000D01*
X172078113Y-114585000D01*
X173408281Y-114320414D01*
X174661271Y-113801408D01*
X175719512Y-113094314D01*
X177411201Y-114786003D01*
X177435000Y-114815002D01*
X177463998Y-114838800D01*
X177550725Y-114909975D01*
X177682754Y-114980547D01*
X177826015Y-115024004D01*
X177975001Y-115038678D01*
X178012334Y-115035001D01*
X195831000Y-115035001D01*
X202427801Y-121631803D01*
X202451599Y-121660801D01*
X202567324Y-121755774D01*
X202699353Y-121826346D01*
X202842614Y-121869803D01*
X202954267Y-121880800D01*
X202954275Y-121880800D01*
X202991600Y-121884476D01*
X203028925Y-121880800D01*
X225001478Y-121880800D01*
X225038800Y-121884476D01*
X225076122Y-121880800D01*
X225076133Y-121880800D01*
X225187786Y-121869803D01*
X225331047Y-121826346D01*
X225463076Y-121755774D01*
X225578801Y-121660801D01*
X225602604Y-121631797D01*
X240586610Y-106647793D01*
X240615601Y-106624001D01*
X240639395Y-106595008D01*
X240639399Y-106595004D01*
X240710573Y-106508277D01*
X240710574Y-106508276D01*
X240781146Y-106376247D01*
X240824603Y-106232986D01*
X240835600Y-106121333D01*
X240835600Y-106121324D01*
X240839276Y-106084001D01*
X240835600Y-106046678D01*
X240835600Y-96873999D01*
X240875403Y-96742784D01*
X240886400Y-96631131D01*
X240886400Y-96631121D01*
X240890076Y-96593799D01*
X240886400Y-96556476D01*
X240886400Y-90728925D01*
X240890076Y-90691600D01*
X240886400Y-90654275D01*
X240886400Y-90654267D01*
X240875403Y-90542614D01*
X240831946Y-90399353D01*
X240761374Y-90267324D01*
X240666401Y-90151599D01*
X240637403Y-90127801D01*
X235813404Y-85303803D01*
X235789601Y-85274799D01*
X235673876Y-85179826D01*
X235541847Y-85109254D01*
X235398586Y-85065797D01*
X235286933Y-85054800D01*
X235286922Y-85054800D01*
X235249600Y-85051124D01*
X235212278Y-85054800D01*
X220510111Y-85054800D01*
X220466174Y-85010863D01*
X220296656Y-84897595D01*
X220108298Y-84819574D01*
X219908339Y-84779800D01*
X219704461Y-84779800D01*
X219563577Y-84807823D01*
X219591600Y-84666939D01*
X219591600Y-84463061D01*
X219551826Y-84263102D01*
X219473805Y-84074744D01*
X219371396Y-83921478D01*
X219661271Y-83801408D01*
X220788932Y-83047929D01*
X221747929Y-82088932D01*
X222501408Y-80961271D01*
X223020414Y-79708281D01*
X223268712Y-78460000D01*
X223840289Y-78460000D01*
X223871026Y-78490737D01*
X224040544Y-78604005D01*
X224228902Y-78682026D01*
X224428861Y-78721800D01*
X224632739Y-78721800D01*
X224832698Y-78682026D01*
X225021056Y-78604005D01*
X225190574Y-78490737D01*
X225334737Y-78346574D01*
X225448005Y-78177056D01*
X225526026Y-77988698D01*
X225565800Y-77788739D01*
X225565800Y-77584861D01*
X225526026Y-77384902D01*
X225448005Y-77196544D01*
X225334737Y-77027026D01*
X225190574Y-76882863D01*
X225021056Y-76769595D01*
X224832698Y-76691574D01*
X224632739Y-76651800D01*
X224428861Y-76651800D01*
X224228902Y-76691574D01*
X224040544Y-76769595D01*
X223871026Y-76882863D01*
X223813889Y-76940000D01*
X223268712Y-76940000D01*
X223020414Y-75691719D01*
X222501408Y-74438729D01*
X221747929Y-73311068D01*
X220788932Y-72352071D01*
X219661271Y-71598592D01*
X218408281Y-71079586D01*
X217078113Y-70815000D01*
X215721887Y-70815000D01*
X214391719Y-71079586D01*
X213138729Y-71598592D01*
X212011068Y-72352071D01*
X211052071Y-73311068D01*
X210298592Y-74438729D01*
X209779586Y-75691719D01*
X209515000Y-77021887D01*
X209515000Y-78378113D01*
X209779586Y-79708281D01*
X210298592Y-80961271D01*
X211052071Y-82088932D01*
X212011068Y-83047929D01*
X213123453Y-83791201D01*
X212558403Y-83791201D01*
X210311804Y-81544603D01*
X210288001Y-81515599D01*
X210172276Y-81420626D01*
X210040247Y-81350054D01*
X209896986Y-81306597D01*
X209785333Y-81295600D01*
X209785322Y-81295600D01*
X209748000Y-81291924D01*
X209710678Y-81295600D01*
X209605603Y-81295600D01*
X208577600Y-80267599D01*
X208577600Y-74140801D01*
X210259004Y-72459398D01*
X210288001Y-72435601D01*
X210382974Y-72319876D01*
X210453546Y-72187847D01*
X210497003Y-72044586D01*
X210508000Y-71932933D01*
X210508000Y-71932923D01*
X210511676Y-71895600D01*
X210508000Y-71858277D01*
X210508000Y-53701711D01*
X210551937Y-53657774D01*
X210665205Y-53488256D01*
X210743226Y-53299898D01*
X210783000Y-53099939D01*
X210783000Y-52896061D01*
X210743226Y-52696102D01*
X210665205Y-52507744D01*
X210551937Y-52338226D01*
X210407774Y-52194063D01*
X210238256Y-52080795D01*
X210049898Y-52002774D01*
X209849939Y-51963000D01*
X209646061Y-51963000D01*
X209446102Y-52002774D01*
X209257744Y-52080795D01*
X209088226Y-52194063D01*
X208944063Y-52338226D01*
X208830795Y-52507744D01*
X208752774Y-52696102D01*
X208713000Y-52896061D01*
X208713000Y-53099939D01*
X208752774Y-53299898D01*
X208830795Y-53488256D01*
X208944063Y-53657774D01*
X208988000Y-53701711D01*
X208988001Y-70994657D01*
X208988000Y-70994667D01*
X208988000Y-71580798D01*
X207306598Y-73262201D01*
X207277600Y-73285999D01*
X207253802Y-73314997D01*
X207253801Y-73314998D01*
X207182626Y-73401724D01*
X207112054Y-73533754D01*
X207096645Y-73584554D01*
X207068598Y-73677014D01*
X207061432Y-73749773D01*
X207053924Y-73826000D01*
X207057601Y-73863332D01*
X207057600Y-80545077D01*
X207053924Y-80582400D01*
X207057600Y-80619722D01*
X207057600Y-80619732D01*
X207068597Y-80731385D01*
X207106754Y-80857174D01*
X207112054Y-80874646D01*
X207182626Y-81006676D01*
X207194403Y-81021026D01*
X207277599Y-81122401D01*
X207306602Y-81146203D01*
X208727005Y-82566608D01*
X208750799Y-82595601D01*
X208779792Y-82619395D01*
X208779796Y-82619399D01*
X208824806Y-82656337D01*
X208866524Y-82690574D01*
X208998553Y-82761146D01*
X209141814Y-82804603D01*
X209253467Y-82815600D01*
X209253476Y-82815600D01*
X209290799Y-82819276D01*
X209328122Y-82815600D01*
X209433199Y-82815600D01*
X211679801Y-85062203D01*
X211703600Y-85091202D01*
X211819325Y-85186175D01*
X211951354Y-85256747D01*
X212094615Y-85300204D01*
X212206268Y-85311201D01*
X212206276Y-85311201D01*
X212243601Y-85314877D01*
X212280926Y-85311201D01*
X212840841Y-85311201D01*
X212894795Y-85441456D01*
X213008063Y-85610974D01*
X213152226Y-85755137D01*
X213321744Y-85868405D01*
X213510102Y-85946426D01*
X213710061Y-85986200D01*
X213747344Y-85986200D01*
X213677344Y-86015195D01*
X213507826Y-86128463D01*
X213363663Y-86272626D01*
X213250395Y-86442144D01*
X213172374Y-86630502D01*
X213132600Y-86830461D01*
X213132600Y-86892599D01*
X213097802Y-86927397D01*
X213068799Y-86951199D01*
X213021713Y-87008574D01*
X212973826Y-87066924D01*
X212909783Y-87186739D01*
X212903254Y-87198954D01*
X212859797Y-87342215D01*
X212848800Y-87453868D01*
X212848800Y-87453878D01*
X212845124Y-87491200D01*
X212848800Y-87528523D01*
X212848801Y-90902288D01*
X212804863Y-90946226D01*
X212691595Y-91115744D01*
X212613574Y-91304102D01*
X212573800Y-91504061D01*
X212573800Y-91707939D01*
X212613574Y-91907898D01*
X212691595Y-92096256D01*
X212804863Y-92265774D01*
X212949026Y-92409937D01*
X213118544Y-92523205D01*
X213306902Y-92601226D01*
X213506861Y-92641000D01*
X213710739Y-92641000D01*
X213910698Y-92601226D01*
X214099056Y-92523205D01*
X214268574Y-92409937D01*
X214412737Y-92265774D01*
X214526005Y-92096256D01*
X214604026Y-91907898D01*
X214643800Y-91707939D01*
X214643800Y-91504061D01*
X214604026Y-91304102D01*
X214526005Y-91115744D01*
X214412737Y-90946226D01*
X214368800Y-90902289D01*
X214368800Y-87947656D01*
X214469498Y-87927626D01*
X214657856Y-87849605D01*
X214827374Y-87736337D01*
X214971537Y-87592174D01*
X215084805Y-87422656D01*
X215162826Y-87234298D01*
X215202600Y-87034339D01*
X215202600Y-86830461D01*
X215162826Y-86630502D01*
X215084805Y-86442144D01*
X214971537Y-86272626D01*
X214827374Y-86128463D01*
X214657856Y-86015195D01*
X214469498Y-85937174D01*
X214269539Y-85897400D01*
X214232256Y-85897400D01*
X214302256Y-85868405D01*
X214471774Y-85755137D01*
X214615937Y-85610974D01*
X214729205Y-85441456D01*
X214807226Y-85253098D01*
X214847000Y-85053139D01*
X214847000Y-84849261D01*
X214807226Y-84649302D01*
X214729205Y-84460944D01*
X214672643Y-84376293D01*
X215721887Y-84585000D01*
X217078113Y-84585000D01*
X217521600Y-84496785D01*
X217521600Y-84666939D01*
X217561374Y-84866898D01*
X217639395Y-85055256D01*
X217752663Y-85224774D01*
X217796601Y-85268712D01*
X217796601Y-86070000D01*
X217729661Y-86070000D01*
X217529702Y-86109774D01*
X217341344Y-86187795D01*
X217171826Y-86301063D01*
X217027663Y-86445226D01*
X216914395Y-86614744D01*
X216836374Y-86803102D01*
X216796600Y-87003061D01*
X216796600Y-87065198D01*
X215888998Y-87972801D01*
X215860000Y-87996599D01*
X215836202Y-88025597D01*
X215836201Y-88025598D01*
X215765026Y-88112324D01*
X215694454Y-88244354D01*
X215672419Y-88316997D01*
X215650998Y-88387614D01*
X215644559Y-88452986D01*
X215636324Y-88536600D01*
X215640001Y-88573933D01*
X215640000Y-100831288D01*
X214391719Y-101079586D01*
X213138729Y-101598592D01*
X212011068Y-102352071D01*
X211052071Y-103311068D01*
X210298592Y-104438729D01*
X209779586Y-105691719D01*
X209515000Y-107021887D01*
X209515000Y-108378113D01*
X209779586Y-109708281D01*
X210298592Y-110961271D01*
X211052071Y-112088932D01*
X212011068Y-113047929D01*
X213138729Y-113801408D01*
X214391719Y-114320414D01*
X215721887Y-114585000D01*
X217078113Y-114585000D01*
X218408281Y-114320414D01*
X219661271Y-113801408D01*
X220788932Y-113047929D01*
X221747929Y-112088932D01*
X222501408Y-110961271D01*
X223020414Y-109708281D01*
X223285000Y-108378113D01*
X223285000Y-107021887D01*
X223020414Y-105691719D01*
X222501408Y-104438729D01*
X221747929Y-103311068D01*
X220788932Y-102352071D01*
X219661271Y-101598592D01*
X218408281Y-101079586D01*
X217160000Y-100831288D01*
X217160000Y-88851401D01*
X217796601Y-88214801D01*
X217796600Y-92249278D01*
X217792924Y-92286600D01*
X217796600Y-92323922D01*
X217796600Y-92323932D01*
X217807597Y-92435585D01*
X217842612Y-92551015D01*
X217851054Y-92578846D01*
X217921626Y-92710876D01*
X217961471Y-92759426D01*
X218016599Y-92826601D01*
X218045603Y-92850404D01*
X218406196Y-93210997D01*
X218429999Y-93240001D01*
X218545724Y-93334974D01*
X218677753Y-93405546D01*
X218821014Y-93449003D01*
X218932667Y-93460000D01*
X218932677Y-93460000D01*
X218970000Y-93463676D01*
X219007323Y-93460000D01*
X219531288Y-93460000D01*
X219779586Y-94708281D01*
X220298592Y-95961271D01*
X221052071Y-97088932D01*
X222011068Y-98047929D01*
X223138729Y-98801408D01*
X224391719Y-99320414D01*
X225721887Y-99585000D01*
X227078113Y-99585000D01*
X228408281Y-99320414D01*
X229661271Y-98801408D01*
X230788932Y-98047929D01*
X231747929Y-97088932D01*
X232501408Y-95961271D01*
X233020414Y-94708281D01*
X233285000Y-93378113D01*
X233285000Y-92021887D01*
X233020414Y-90691719D01*
X232501408Y-89438729D01*
X231747929Y-88311068D01*
X230788932Y-87352071D01*
X229661271Y-86598592D01*
X229603832Y-86574800D01*
X234934799Y-86574800D01*
X239366401Y-91006403D01*
X239366400Y-96364398D01*
X239326598Y-96495613D01*
X239311924Y-96644598D01*
X239315601Y-96681930D01*
X239315600Y-105769197D01*
X224723999Y-120360800D01*
X203306402Y-120360800D01*
X196709605Y-113764004D01*
X196685802Y-113735000D01*
X196570077Y-113640027D01*
X196438048Y-113569455D01*
X196294787Y-113525998D01*
X196183134Y-113515001D01*
X196183123Y-113515001D01*
X196145801Y-113511325D01*
X196108479Y-113515001D01*
X178289803Y-113515001D01*
X176794314Y-112019512D01*
X177501408Y-110961271D01*
X178020414Y-109708281D01*
X178285000Y-108378113D01*
X178285000Y-107021887D01*
X178020414Y-105691719D01*
X177501408Y-104438729D01*
X176747929Y-103311068D01*
X175788932Y-102352071D01*
X174661271Y-101598592D01*
X173408281Y-101079586D01*
X172078113Y-100815000D01*
X170721887Y-100815000D01*
X169391719Y-101079586D01*
X168138729Y-101598592D01*
X167011068Y-102352071D01*
X166052071Y-103311068D01*
X165298592Y-104438729D01*
X164779586Y-105691719D01*
X164515000Y-107021887D01*
X163770469Y-107021887D01*
X163726005Y-106914544D01*
X163612737Y-106745026D01*
X163468574Y-106600863D01*
X163299056Y-106487595D01*
X163110698Y-106409574D01*
X162910739Y-106369800D01*
X162706861Y-106369800D01*
X162506902Y-106409574D01*
X162318544Y-106487595D01*
X162149026Y-106600863D01*
X162004863Y-106745026D01*
X161891595Y-106914544D01*
X161881051Y-106940000D01*
X148268712Y-106940000D01*
X148020414Y-105691719D01*
X147501408Y-104438729D01*
X146747929Y-103311068D01*
X145788932Y-102352071D01*
X144661271Y-101598592D01*
X143408281Y-101079586D01*
X142078113Y-100815000D01*
X140721887Y-100815000D01*
X139391719Y-101079586D01*
X138138729Y-101598592D01*
X137845439Y-101794562D01*
X139400002Y-100240000D01*
X164441889Y-100240000D01*
X164485826Y-100283937D01*
X164655344Y-100397205D01*
X164843702Y-100475226D01*
X165043661Y-100515000D01*
X165247539Y-100515000D01*
X165447498Y-100475226D01*
X165635856Y-100397205D01*
X165805374Y-100283937D01*
X165949537Y-100139774D01*
X166062805Y-99970256D01*
X166140826Y-99781898D01*
X166180600Y-99581939D01*
X166180600Y-99378061D01*
X166140826Y-99178102D01*
X166062805Y-98989744D01*
X165949537Y-98820226D01*
X165805374Y-98676063D01*
X165635856Y-98562795D01*
X165447498Y-98484774D01*
X165247539Y-98445000D01*
X165043661Y-98445000D01*
X164843702Y-98484774D01*
X164655344Y-98562795D01*
X164485826Y-98676063D01*
X164441889Y-98720000D01*
X139122522Y-98720000D01*
X139085199Y-98716324D01*
X139047876Y-98720000D01*
X139047867Y-98720000D01*
X138936214Y-98730997D01*
X138810475Y-98769139D01*
X138792953Y-98774454D01*
X138660923Y-98845026D01*
X138577283Y-98913668D01*
X138545199Y-98939999D01*
X138521401Y-98968997D01*
X136800398Y-100690001D01*
X132687321Y-100690001D01*
X132649998Y-100686325D01*
X132612675Y-100690001D01*
X132612666Y-100690001D01*
X132501013Y-100700998D01*
X132357752Y-100744455D01*
X132225723Y-100815027D01*
X132109998Y-100910000D01*
X132086200Y-100938998D01*
X130719512Y-102305686D01*
X129661271Y-101598592D01*
X128408281Y-101079586D01*
X127078113Y-100815000D01*
X125721887Y-100815000D01*
X124391719Y-101079586D01*
X123138729Y-101598592D01*
X122011068Y-102352071D01*
X121052071Y-103311068D01*
X120298592Y-104438729D01*
X119779586Y-105691719D01*
X119515000Y-107021887D01*
X118285000Y-107021887D01*
X118020414Y-105691719D01*
X117501408Y-104438729D01*
X116747929Y-103311068D01*
X115788932Y-102352071D01*
X114661271Y-101598592D01*
X113408281Y-101079586D01*
X112078113Y-100815000D01*
X110721887Y-100815000D01*
X109391719Y-101079586D01*
X108138729Y-101598592D01*
X107011068Y-102352071D01*
X106052071Y-103311068D01*
X105298592Y-104438729D01*
X104779586Y-105691719D01*
X104515000Y-107021887D01*
X103285000Y-107021887D01*
X103020414Y-105691719D01*
X102501408Y-104438729D01*
X101794314Y-103380488D01*
X102964801Y-102210001D01*
X105327877Y-102210001D01*
X105365199Y-102213677D01*
X105402521Y-102210001D01*
X105402532Y-102210001D01*
X105514185Y-102199004D01*
X105657446Y-102155547D01*
X105789475Y-102084975D01*
X105905200Y-101990002D01*
X105929003Y-101960998D01*
X112367409Y-95522594D01*
X112396401Y-95498801D01*
X112420195Y-95469808D01*
X112420199Y-95469804D01*
X112491373Y-95383077D01*
X112491374Y-95383076D01*
X112529529Y-95311695D01*
X112798592Y-95961271D01*
X113552071Y-97088932D01*
X114511068Y-98047929D01*
X115638729Y-98801408D01*
X116891719Y-99320414D01*
X118221887Y-99585000D01*
X119578113Y-99585000D01*
X120908281Y-99320414D01*
X122161271Y-98801408D01*
X123288932Y-98047929D01*
X124247929Y-97088932D01*
X125001408Y-95961271D01*
X125520414Y-94708281D01*
X125785000Y-93378113D01*
X125785000Y-92021887D01*
X125520414Y-90691719D01*
X125001408Y-89438729D01*
X124247929Y-88311068D01*
X123288932Y-87352071D01*
X122161271Y-86598592D01*
X120908281Y-86079586D01*
X119660000Y-85831288D01*
X119660000Y-83942776D01*
X119688463Y-83985374D01*
X119832626Y-84129537D01*
X120002144Y-84242805D01*
X120190502Y-84320826D01*
X120390461Y-84360600D01*
X120452599Y-84360600D01*
X121093401Y-85001403D01*
X121117199Y-85030401D01*
X121146197Y-85054199D01*
X121232923Y-85125374D01*
X121288398Y-85155026D01*
X121364953Y-85195946D01*
X121508214Y-85239403D01*
X121619867Y-85250400D01*
X121619877Y-85250400D01*
X121657200Y-85254076D01*
X121694523Y-85250400D01*
X133140001Y-85250400D01*
X133140001Y-85831288D01*
X131891719Y-86079586D01*
X130638729Y-86598592D01*
X129511068Y-87352071D01*
X128552071Y-88311068D01*
X127798592Y-89438729D01*
X127500800Y-90157662D01*
X127500800Y-88601311D01*
X127544737Y-88557374D01*
X127658005Y-88387856D01*
X127736026Y-88199498D01*
X127775800Y-87999539D01*
X127775800Y-87795661D01*
X127736026Y-87595702D01*
X127658005Y-87407344D01*
X127544737Y-87237826D01*
X127400574Y-87093663D01*
X127231056Y-86980395D01*
X127042698Y-86902374D01*
X126842739Y-86862600D01*
X126638861Y-86862600D01*
X126438902Y-86902374D01*
X126250544Y-86980395D01*
X126081026Y-87093663D01*
X125936863Y-87237826D01*
X125823595Y-87407344D01*
X125745574Y-87595702D01*
X125705800Y-87795661D01*
X125705800Y-87999539D01*
X125745574Y-88199498D01*
X125823595Y-88387856D01*
X125936863Y-88557374D01*
X125980800Y-88601311D01*
X125980801Y-98294274D01*
X125945744Y-98308795D01*
X125776226Y-98422063D01*
X125632063Y-98566226D01*
X125518795Y-98735744D01*
X125440774Y-98924102D01*
X125401000Y-99124061D01*
X125401000Y-99327939D01*
X125440774Y-99527898D01*
X125518795Y-99716256D01*
X125632063Y-99885774D01*
X125776226Y-100029937D01*
X125945744Y-100143205D01*
X126134102Y-100221226D01*
X126334061Y-100261000D01*
X126537939Y-100261000D01*
X126737898Y-100221226D01*
X126926256Y-100143205D01*
X127095774Y-100029937D01*
X127239937Y-99885774D01*
X127353205Y-99716256D01*
X127431226Y-99527898D01*
X127471000Y-99327939D01*
X127471000Y-99132172D01*
X127489803Y-99070186D01*
X127500800Y-98958533D01*
X127500800Y-98958524D01*
X127504476Y-98921201D01*
X127500800Y-98883878D01*
X127500800Y-95242338D01*
X127798592Y-95961271D01*
X128552071Y-97088932D01*
X129511068Y-98047929D01*
X130638729Y-98801408D01*
X131891719Y-99320414D01*
X133221887Y-99585000D01*
X134578113Y-99585000D01*
X135908281Y-99320414D01*
X137161271Y-98801408D01*
X138288932Y-98047929D01*
X139247929Y-97088932D01*
X140001408Y-95961271D01*
X140520414Y-94708281D01*
X140785000Y-93378113D01*
X140785000Y-92021887D01*
X140712313Y-91656461D01*
X157405000Y-91656461D01*
X157405000Y-91860339D01*
X157444774Y-92060298D01*
X157522795Y-92248656D01*
X157636063Y-92418174D01*
X157780226Y-92562337D01*
X157949744Y-92675605D01*
X158138102Y-92753626D01*
X158338061Y-92793400D01*
X158541939Y-92793400D01*
X158741898Y-92753626D01*
X158930256Y-92675605D01*
X159099774Y-92562337D01*
X159143711Y-92518400D01*
X169883478Y-92518400D01*
X169920800Y-92522076D01*
X169958122Y-92518400D01*
X169958133Y-92518400D01*
X170069786Y-92507403D01*
X170213047Y-92463946D01*
X170345076Y-92393374D01*
X170460801Y-92298401D01*
X170484604Y-92269397D01*
X172433243Y-90320759D01*
X172279586Y-90691719D01*
X172015000Y-92021887D01*
X172015000Y-93378113D01*
X172279586Y-94708281D01*
X172798592Y-95961271D01*
X173552071Y-97088932D01*
X174511068Y-98047929D01*
X175638729Y-98801408D01*
X176891719Y-99320414D01*
X178221887Y-99585000D01*
X179578113Y-99585000D01*
X180908281Y-99320414D01*
X182161271Y-98801408D01*
X183288932Y-98047929D01*
X184247929Y-97088932D01*
X185001408Y-95961271D01*
X185520414Y-94708281D01*
X185768712Y-93460000D01*
X186467878Y-93460000D01*
X186505200Y-93463676D01*
X186542522Y-93460000D01*
X186542533Y-93460000D01*
X186654186Y-93449003D01*
X186797447Y-93405546D01*
X186929476Y-93334974D01*
X187045201Y-93240001D01*
X187069003Y-93210998D01*
X187856209Y-92423794D01*
X187885201Y-92400001D01*
X187908995Y-92371008D01*
X187908999Y-92371004D01*
X187980173Y-92284277D01*
X187980174Y-92284276D01*
X188050746Y-92152247D01*
X188094203Y-92008986D01*
X188105200Y-91897333D01*
X188105200Y-91897324D01*
X188108876Y-91860001D01*
X188105200Y-91822678D01*
X188105200Y-88848525D01*
X188108876Y-88811200D01*
X188105200Y-88773875D01*
X188105200Y-88773867D01*
X188094203Y-88662214D01*
X188050746Y-88518953D01*
X187980174Y-88386924D01*
X187885201Y-88271199D01*
X187856203Y-88247401D01*
X183834000Y-84225199D01*
X183834000Y-84163061D01*
X183818032Y-84082785D01*
X184391719Y-84320414D01*
X185721887Y-84585000D01*
X187078113Y-84585000D01*
X188408281Y-84320414D01*
X189661271Y-83801408D01*
X190788932Y-83047929D01*
X191747929Y-82088932D01*
X192456652Y-81028253D01*
X192914200Y-81485802D01*
X192914200Y-81547939D01*
X192953974Y-81747898D01*
X193031995Y-81936256D01*
X193145263Y-82105774D01*
X193289426Y-82249937D01*
X193458944Y-82363205D01*
X193647302Y-82441226D01*
X193847261Y-82481000D01*
X194051139Y-82481000D01*
X194251098Y-82441226D01*
X194439456Y-82363205D01*
X194608974Y-82249937D01*
X194753137Y-82105774D01*
X194866405Y-81936256D01*
X194944426Y-81747898D01*
X194984200Y-81547939D01*
X194984200Y-81344061D01*
X194944426Y-81144102D01*
X194866405Y-80955744D01*
X194753137Y-80786226D01*
X194608974Y-80642063D01*
X194439456Y-80528795D01*
X194251098Y-80450774D01*
X194051139Y-80411000D01*
X193989002Y-80411000D01*
X193064524Y-79486523D01*
X193285000Y-78378113D01*
X193285000Y-77021887D01*
X193020414Y-75691719D01*
X192501408Y-74438729D01*
X191747929Y-73311068D01*
X190788932Y-72352071D01*
X189661271Y-71598592D01*
X188408281Y-71079586D01*
X187078113Y-70815000D01*
X185721887Y-70815000D01*
X184391719Y-71079586D01*
X183138729Y-71598592D01*
X182011068Y-72352071D01*
X181052071Y-73311068D01*
X180298592Y-74438729D01*
X179779586Y-75691719D01*
X179515000Y-77021887D01*
X179515000Y-78378113D01*
X179779586Y-79708281D01*
X180298592Y-80961271D01*
X181052071Y-82088932D01*
X182011068Y-83047929D01*
X182402023Y-83309157D01*
X182308744Y-83347795D01*
X182139226Y-83461063D01*
X181995063Y-83605226D01*
X181881795Y-83774744D01*
X181803774Y-83963102D01*
X181764000Y-84163061D01*
X181764000Y-84366939D01*
X181803774Y-84566898D01*
X181881795Y-84755256D01*
X181995063Y-84924774D01*
X182139226Y-85068937D01*
X182308744Y-85182205D01*
X182497102Y-85260226D01*
X182697061Y-85300000D01*
X182759199Y-85300000D01*
X186585201Y-89126003D01*
X186585200Y-91545197D01*
X186190398Y-91940000D01*
X185768712Y-91940000D01*
X185520414Y-90691719D01*
X185001408Y-89438729D01*
X184247929Y-88311068D01*
X183288932Y-87352071D01*
X182161271Y-86598592D01*
X180908281Y-86079586D01*
X180537128Y-86005759D01*
X180540805Y-86000256D01*
X180618826Y-85811898D01*
X180658600Y-85611939D01*
X180658600Y-85408061D01*
X180618826Y-85208102D01*
X180540805Y-85019744D01*
X180427537Y-84850226D01*
X180283374Y-84706063D01*
X180113856Y-84592795D01*
X179925498Y-84514774D01*
X179725539Y-84475000D01*
X179521661Y-84475000D01*
X179321702Y-84514774D01*
X179133344Y-84592795D01*
X178963826Y-84706063D01*
X178919889Y-84750000D01*
X178650911Y-84750000D01*
X178606974Y-84706063D01*
X178437456Y-84592795D01*
X178249098Y-84514774D01*
X178049139Y-84475000D01*
X177845261Y-84475000D01*
X177645302Y-84514774D01*
X177456944Y-84592795D01*
X177287426Y-84706063D01*
X177143263Y-84850226D01*
X177029995Y-85019744D01*
X176951974Y-85208102D01*
X176912200Y-85408061D01*
X176912200Y-85611939D01*
X176951974Y-85811898D01*
X177029995Y-86000256D01*
X177060561Y-86046001D01*
X176891719Y-86079586D01*
X175638729Y-86598592D01*
X174511068Y-87352071D01*
X173552071Y-88311068D01*
X173452813Y-88459619D01*
X173417137Y-88406226D01*
X173272974Y-88262063D01*
X173103456Y-88148795D01*
X172915098Y-88070774D01*
X172752034Y-88038339D01*
X172744826Y-88002102D01*
X172666805Y-87813744D01*
X172553537Y-87644226D01*
X172509600Y-87600289D01*
X172509600Y-86357094D01*
X172536774Y-86338937D01*
X172680937Y-86194774D01*
X172794205Y-86025256D01*
X172872226Y-85836898D01*
X172912000Y-85636939D01*
X172912000Y-85433061D01*
X172872226Y-85233102D01*
X172794205Y-85044744D01*
X172680937Y-84875226D01*
X172536774Y-84731063D01*
X172367256Y-84617795D01*
X172219964Y-84556784D01*
X173408281Y-84320414D01*
X174661271Y-83801408D01*
X175788932Y-83047929D01*
X176747929Y-82088932D01*
X177145033Y-81494624D01*
X177304544Y-81601205D01*
X177492902Y-81679226D01*
X177692861Y-81719000D01*
X177896739Y-81719000D01*
X178096698Y-81679226D01*
X178285056Y-81601205D01*
X178454574Y-81487937D01*
X178598737Y-81343774D01*
X178712005Y-81174256D01*
X178790026Y-80985898D01*
X178829800Y-80785939D01*
X178829800Y-80582061D01*
X178790026Y-80382102D01*
X178712005Y-80193744D01*
X178598737Y-80024226D01*
X178454574Y-79880063D01*
X178285056Y-79766795D01*
X178096698Y-79688774D01*
X178027050Y-79674920D01*
X178285000Y-78378113D01*
X178285000Y-77021887D01*
X178020414Y-75691719D01*
X177501408Y-74438729D01*
X176747929Y-73311068D01*
X175788932Y-72352071D01*
X174661271Y-71598592D01*
X173408281Y-71079586D01*
X172078113Y-70815000D01*
X170721887Y-70815000D01*
X169391719Y-71079586D01*
X168284228Y-71538324D01*
X168348947Y-71417246D01*
X168392404Y-71273985D01*
X168403401Y-71162332D01*
X168403401Y-71162331D01*
X168407078Y-71124999D01*
X168403401Y-71087666D01*
X168403401Y-70576200D01*
X168965602Y-70014000D01*
X174482799Y-70014000D01*
X178043801Y-73575003D01*
X178067599Y-73604001D01*
X178183324Y-73698974D01*
X178315353Y-73769546D01*
X178458614Y-73813003D01*
X178570267Y-73824000D01*
X178570275Y-73824000D01*
X178607600Y-73827676D01*
X178644925Y-73824000D01*
X179072289Y-73824000D01*
X179116226Y-73867937D01*
X179285744Y-73981205D01*
X179474102Y-74059226D01*
X179674061Y-74099000D01*
X179877939Y-74099000D01*
X180077898Y-74059226D01*
X180266256Y-73981205D01*
X180435774Y-73867937D01*
X180579937Y-73723774D01*
X180693205Y-73554256D01*
X180771226Y-73365898D01*
X180811000Y-73165939D01*
X180811000Y-72962061D01*
X180771226Y-72762102D01*
X180693205Y-72573744D01*
X180579937Y-72404226D01*
X180435774Y-72260063D01*
X180266256Y-72146795D01*
X180077898Y-72068774D01*
X179877939Y-72029000D01*
X179674061Y-72029000D01*
X179474102Y-72068774D01*
X179285744Y-72146795D01*
X179116226Y-72260063D01*
X179072289Y-72304000D01*
X178922402Y-72304000D01*
X175361404Y-68743003D01*
X175337601Y-68713999D01*
X175221876Y-68619026D01*
X175089847Y-68548454D01*
X174946586Y-68504997D01*
X174834933Y-68494000D01*
X174834922Y-68494000D01*
X174797600Y-68490324D01*
X174760278Y-68494000D01*
X168688122Y-68494000D01*
X168650799Y-68490324D01*
X168613476Y-68494000D01*
X168613467Y-68494000D01*
X168501814Y-68504997D01*
X168358553Y-68548454D01*
X168226524Y-68619026D01*
X168110799Y-68713999D01*
X168087001Y-68742997D01*
X167132399Y-69697600D01*
X167103401Y-69721398D01*
X167079603Y-69750396D01*
X167079602Y-69750397D01*
X167008427Y-69837123D01*
X166937855Y-69969153D01*
X166915932Y-70041426D01*
X166894399Y-70112413D01*
X166883401Y-70224066D01*
X166883401Y-70224077D01*
X166879725Y-70261399D01*
X166883401Y-70298721D01*
X166883401Y-70810197D01*
X163002434Y-74691165D01*
X162966993Y-74721727D01*
X162926638Y-74773421D01*
X162885026Y-74824124D01*
X162880619Y-74832369D01*
X162874870Y-74839733D01*
X162845377Y-74898301D01*
X162814454Y-74956154D01*
X162811741Y-74965097D01*
X162807538Y-74973444D01*
X162790029Y-75036677D01*
X162770998Y-75099415D01*
X162770083Y-75108710D01*
X162767587Y-75117722D01*
X162762750Y-75183160D01*
X162756324Y-75248400D01*
X162760910Y-75294961D01*
X162792005Y-76569856D01*
X162778362Y-76571200D01*
X162778352Y-76571200D01*
X162729130Y-76576048D01*
X162638656Y-76515595D01*
X162450298Y-76437574D01*
X162250339Y-76397800D01*
X162046461Y-76397800D01*
X161846502Y-76437574D01*
X161658144Y-76515595D01*
X161488626Y-76628863D01*
X161344463Y-76773026D01*
X161231195Y-76942544D01*
X161153174Y-77130902D01*
X161113400Y-77330861D01*
X161113400Y-77534739D01*
X161153174Y-77734698D01*
X161231195Y-77923056D01*
X161344463Y-78092574D01*
X161488626Y-78236737D01*
X161658144Y-78350005D01*
X161846502Y-78428026D01*
X162046461Y-78467800D01*
X162250339Y-78467800D01*
X162450298Y-78428026D01*
X162638656Y-78350005D01*
X162798210Y-78243395D01*
X162760513Y-80990186D01*
X162756324Y-81032715D01*
X162763149Y-81102005D01*
X162769024Y-81171408D01*
X162770482Y-81176464D01*
X162770998Y-81181700D01*
X162791207Y-81248321D01*
X162810510Y-81315252D01*
X162812927Y-81319927D01*
X162814454Y-81324961D01*
X162846986Y-81385824D01*
X162778774Y-81550502D01*
X162739000Y-81750461D01*
X162739000Y-81954339D01*
X162778774Y-82154298D01*
X162856795Y-82342656D01*
X162970063Y-82512174D01*
X163114226Y-82656337D01*
X163283744Y-82769605D01*
X163472102Y-82847626D01*
X163672061Y-82887400D01*
X163875939Y-82887400D01*
X164075898Y-82847626D01*
X164264256Y-82769605D01*
X164433774Y-82656337D01*
X164577937Y-82512174D01*
X164691205Y-82342656D01*
X164769226Y-82154298D01*
X164809000Y-81954339D01*
X164809000Y-81750461D01*
X164769226Y-81550502D01*
X164691205Y-81362144D01*
X164577937Y-81192626D01*
X164522987Y-81137676D01*
X164479546Y-80994468D01*
X164408974Y-80862439D01*
X164314001Y-80746714D01*
X164284997Y-80722911D01*
X164284332Y-80722246D01*
X164330287Y-77373741D01*
X164334477Y-77331200D01*
X164329890Y-77284625D01*
X164287715Y-75555486D01*
X165223723Y-74619478D01*
X164779586Y-75691719D01*
X164515000Y-77021887D01*
X164515000Y-78378113D01*
X164779586Y-79708281D01*
X165298592Y-80961271D01*
X166052071Y-82088932D01*
X167011068Y-83047929D01*
X167470743Y-83355074D01*
X167327098Y-83295574D01*
X167127139Y-83255800D01*
X166923261Y-83255800D01*
X166723302Y-83295574D01*
X166534944Y-83373595D01*
X166365426Y-83486863D01*
X166221263Y-83631026D01*
X166107995Y-83800544D01*
X166029974Y-83988902D01*
X165990200Y-84188861D01*
X165990200Y-84392739D01*
X166029974Y-84592698D01*
X166107995Y-84781056D01*
X166221263Y-84950574D01*
X166265201Y-84994512D01*
X166265200Y-87735198D01*
X165867799Y-88132600D01*
X165805661Y-88132600D01*
X165605702Y-88172374D01*
X165417344Y-88250395D01*
X165247826Y-88363663D01*
X165103663Y-88507826D01*
X164990395Y-88677344D01*
X164912374Y-88865702D01*
X164872600Y-89065661D01*
X164872600Y-89269539D01*
X164912374Y-89469498D01*
X164990395Y-89657856D01*
X165103663Y-89827374D01*
X165247826Y-89971537D01*
X165417344Y-90084805D01*
X165605702Y-90162826D01*
X165805661Y-90202600D01*
X166009539Y-90202600D01*
X166209498Y-90162826D01*
X166397856Y-90084805D01*
X166567374Y-89971537D01*
X166711537Y-89827374D01*
X166824805Y-89657856D01*
X166902826Y-89469498D01*
X166942600Y-89269539D01*
X166942600Y-89207401D01*
X167536204Y-88613798D01*
X167565201Y-88590001D01*
X167623509Y-88518953D01*
X167660174Y-88474277D01*
X167730746Y-88342247D01*
X167740204Y-88311068D01*
X167774203Y-88198986D01*
X167785200Y-88087333D01*
X167785200Y-88087324D01*
X167788876Y-88050001D01*
X167785200Y-88012678D01*
X167785200Y-84994511D01*
X167829137Y-84950574D01*
X167942405Y-84781056D01*
X168020426Y-84592698D01*
X168060200Y-84392739D01*
X168060200Y-84188861D01*
X168020426Y-83988902D01*
X167942405Y-83800544D01*
X167829137Y-83631026D01*
X167719196Y-83521085D01*
X168138729Y-83801408D01*
X169391719Y-84320414D01*
X170721887Y-84585000D01*
X171465918Y-84585000D01*
X171386744Y-84617795D01*
X171217226Y-84731063D01*
X171073063Y-84875226D01*
X170959795Y-85044744D01*
X170881774Y-85233102D01*
X170842000Y-85433061D01*
X170842000Y-85636939D01*
X170881774Y-85836898D01*
X170959795Y-86025256D01*
X170989601Y-86069864D01*
X170989600Y-87600289D01*
X170945663Y-87644226D01*
X170832395Y-87813744D01*
X170754374Y-88002102D01*
X170714600Y-88202061D01*
X170714600Y-88405939D01*
X170754374Y-88605898D01*
X170832395Y-88794256D01*
X170945663Y-88963774D01*
X171089826Y-89107937D01*
X171259344Y-89221205D01*
X171346918Y-89257480D01*
X169605999Y-90998400D01*
X159143711Y-90998400D01*
X159099774Y-90954463D01*
X158930256Y-90841195D01*
X158741898Y-90763174D01*
X158541939Y-90723400D01*
X158338061Y-90723400D01*
X158138102Y-90763174D01*
X157949744Y-90841195D01*
X157780226Y-90954463D01*
X157636063Y-91098626D01*
X157522795Y-91268144D01*
X157444774Y-91456502D01*
X157405000Y-91656461D01*
X140712313Y-91656461D01*
X140520414Y-90691719D01*
X140001408Y-89438729D01*
X139247929Y-88311068D01*
X138288932Y-87352071D01*
X137161271Y-86598592D01*
X135908281Y-86079586D01*
X134660000Y-85831288D01*
X134660000Y-84527733D01*
X134663677Y-84490400D01*
X134649003Y-84341414D01*
X134605546Y-84198153D01*
X134534974Y-84066124D01*
X134440001Y-83950399D01*
X134324276Y-83855426D01*
X134192247Y-83784854D01*
X134048986Y-83741397D01*
X133937333Y-83730400D01*
X133900000Y-83726723D01*
X133862667Y-83730400D01*
X129767542Y-83730400D01*
X130788932Y-83047929D01*
X131747929Y-82088932D01*
X132501408Y-80961271D01*
X133020414Y-79708281D01*
X133285000Y-78378113D01*
X133285000Y-77021887D01*
X133020414Y-75691719D01*
X132501408Y-74438729D01*
X131747929Y-73311068D01*
X130788932Y-72352071D01*
X129661271Y-71598592D01*
X128408281Y-71079586D01*
X127078113Y-70815000D01*
X125721887Y-70815000D01*
X124391719Y-71079586D01*
X123138729Y-71598592D01*
X122011068Y-72352071D01*
X121052071Y-73311068D01*
X120986951Y-73408527D01*
X120979626Y-73371702D01*
X120901605Y-73183344D01*
X120788337Y-73013826D01*
X120644174Y-72869663D01*
X120474656Y-72756395D01*
X120286298Y-72678374D01*
X120086339Y-72638600D01*
X119882461Y-72638600D01*
X119736920Y-72667550D01*
X119713161Y-72638600D01*
X119684599Y-72603796D01*
X119684595Y-72603792D01*
X119660801Y-72574799D01*
X119631808Y-72551005D01*
X116179404Y-69098603D01*
X116155601Y-69069599D01*
X116039876Y-68974626D01*
X115981214Y-68943270D01*
X116891719Y-69320414D01*
X118221887Y-69585000D01*
X119578113Y-69585000D01*
X120908281Y-69320414D01*
X122161271Y-68801408D01*
X123288932Y-68047929D01*
X124247929Y-67088932D01*
X125001408Y-65961271D01*
X125520414Y-64708281D01*
X125676001Y-63926092D01*
X125676001Y-66779668D01*
X125672324Y-66817000D01*
X125686998Y-66965985D01*
X125730454Y-67109246D01*
X125801026Y-67241276D01*
X125872201Y-67328002D01*
X125896000Y-67357001D01*
X125924998Y-67380799D01*
X134058000Y-75513802D01*
X134058001Y-77592688D01*
X134014063Y-77636626D01*
X133900795Y-77806144D01*
X133822774Y-77994502D01*
X133783000Y-78194461D01*
X133783000Y-78398339D01*
X133822774Y-78598298D01*
X133900795Y-78786656D01*
X134014063Y-78956174D01*
X134158226Y-79100337D01*
X134327744Y-79213605D01*
X134516102Y-79291626D01*
X134716061Y-79331400D01*
X134919939Y-79331400D01*
X135119898Y-79291626D01*
X135308256Y-79213605D01*
X135477774Y-79100337D01*
X135621937Y-78956174D01*
X135735205Y-78786656D01*
X135813226Y-78598298D01*
X135853000Y-78398339D01*
X135853000Y-78194461D01*
X135813226Y-77994502D01*
X135735205Y-77806144D01*
X135621937Y-77636626D01*
X135578000Y-77592689D01*
X135578000Y-75236322D01*
X135581676Y-75198999D01*
X135578000Y-75161676D01*
X135578000Y-75161667D01*
X135567003Y-75050014D01*
X135523546Y-74906753D01*
X135486935Y-74838260D01*
X135452974Y-74774723D01*
X135381799Y-74687997D01*
X135358001Y-74658999D01*
X135329004Y-74635202D01*
X127196000Y-66502199D01*
X127196000Y-64288064D01*
X127279586Y-64708281D01*
X127798592Y-65961271D01*
X128552071Y-67088932D01*
X129511068Y-68047929D01*
X130638729Y-68801408D01*
X131891719Y-69320414D01*
X133140001Y-69568712D01*
X133140001Y-71501502D01*
X133136324Y-71538834D01*
X133140001Y-71576167D01*
X133140089Y-71577055D01*
X133150998Y-71687819D01*
X133194454Y-71831080D01*
X133265026Y-71963110D01*
X133332313Y-72045098D01*
X133360000Y-72078835D01*
X133388998Y-72102633D01*
X140154000Y-78867636D01*
X140154001Y-89282668D01*
X140150324Y-89320000D01*
X140154001Y-89357333D01*
X140164998Y-89468986D01*
X140169842Y-89484954D01*
X140208454Y-89612246D01*
X140279026Y-89744276D01*
X140347224Y-89827374D01*
X140374000Y-89860001D01*
X140402998Y-89883799D01*
X140691800Y-90172601D01*
X140691800Y-90234739D01*
X140731574Y-90434698D01*
X140809595Y-90623056D01*
X140922863Y-90792574D01*
X141067026Y-90936737D01*
X141236544Y-91050005D01*
X141424902Y-91128026D01*
X141624861Y-91167800D01*
X141828739Y-91167800D01*
X142028698Y-91128026D01*
X142217056Y-91050005D01*
X142386574Y-90936737D01*
X142530737Y-90792574D01*
X142644005Y-90623056D01*
X142722026Y-90434698D01*
X142761800Y-90234739D01*
X142761800Y-90030861D01*
X142722026Y-89830902D01*
X142644005Y-89642544D01*
X142564036Y-89522861D01*
X156846200Y-89522861D01*
X156846200Y-89726739D01*
X156885974Y-89926698D01*
X156963995Y-90115056D01*
X157077263Y-90284574D01*
X157221426Y-90428737D01*
X157390944Y-90542005D01*
X157579302Y-90620026D01*
X157779261Y-90659800D01*
X157983139Y-90659800D01*
X158183098Y-90620026D01*
X158371456Y-90542005D01*
X158378647Y-90537200D01*
X159819089Y-90537200D01*
X159863026Y-90581137D01*
X160032544Y-90694405D01*
X160220902Y-90772426D01*
X160420861Y-90812200D01*
X160624739Y-90812200D01*
X160824698Y-90772426D01*
X161013056Y-90694405D01*
X161182574Y-90581137D01*
X161326737Y-90436974D01*
X161440005Y-90267456D01*
X161518026Y-90079098D01*
X161557800Y-89879139D01*
X161557800Y-89675261D01*
X161518026Y-89475302D01*
X161440005Y-89286944D01*
X161326737Y-89117426D01*
X161182574Y-88973263D01*
X161146496Y-88949156D01*
X161162426Y-88910698D01*
X161202200Y-88710739D01*
X161202200Y-88506861D01*
X161162426Y-88306902D01*
X161084405Y-88118544D01*
X160971137Y-87949026D01*
X160927200Y-87905089D01*
X160927200Y-85039323D01*
X160930876Y-85002000D01*
X160927200Y-84964677D01*
X160927200Y-84964667D01*
X160916203Y-84853014D01*
X160872746Y-84709753D01*
X160847170Y-84661904D01*
X160802174Y-84577723D01*
X160730999Y-84490997D01*
X160707201Y-84461999D01*
X160678204Y-84438202D01*
X158410001Y-82170000D01*
X158410001Y-69264800D01*
X159580488Y-68094314D01*
X160638729Y-68801408D01*
X161891719Y-69320414D01*
X163221887Y-69585000D01*
X164578113Y-69585000D01*
X165908281Y-69320414D01*
X167161271Y-68801408D01*
X168288932Y-68047929D01*
X169247929Y-67088932D01*
X170001408Y-65961271D01*
X170520414Y-64708281D01*
X170785000Y-63378113D01*
X170785000Y-62021887D01*
X172015000Y-62021887D01*
X172015000Y-63378113D01*
X172279586Y-64708281D01*
X172798592Y-65961271D01*
X173552071Y-67088932D01*
X174511068Y-68047929D01*
X175638729Y-68801408D01*
X176891719Y-69320414D01*
X178221887Y-69585000D01*
X179578113Y-69585000D01*
X180908281Y-69320414D01*
X182161271Y-68801408D01*
X183288932Y-68047929D01*
X184247929Y-67088932D01*
X185001408Y-65961271D01*
X185520414Y-64708281D01*
X185768712Y-63460000D01*
X187424033Y-63460000D01*
X192765831Y-68801799D01*
X192765836Y-68801803D01*
X195526000Y-71561968D01*
X195526001Y-85499997D01*
X194435999Y-86590000D01*
X189268111Y-86590000D01*
X189224174Y-86546063D01*
X189054656Y-86432795D01*
X188866298Y-86354774D01*
X188666339Y-86315000D01*
X188462461Y-86315000D01*
X188262502Y-86354774D01*
X188074144Y-86432795D01*
X187904626Y-86546063D01*
X187760463Y-86690226D01*
X187647195Y-86859744D01*
X187569174Y-87048102D01*
X187529400Y-87248061D01*
X187529400Y-87451939D01*
X187569174Y-87651898D01*
X187647195Y-87840256D01*
X187760463Y-88009774D01*
X187904626Y-88153937D01*
X188074144Y-88267205D01*
X188262502Y-88345226D01*
X188462461Y-88385000D01*
X188666339Y-88385000D01*
X188866298Y-88345226D01*
X189054656Y-88267205D01*
X189224174Y-88153937D01*
X189268111Y-88110000D01*
X194713478Y-88110000D01*
X194750800Y-88113676D01*
X194788122Y-88110000D01*
X194788133Y-88110000D01*
X194899786Y-88099003D01*
X195043047Y-88055546D01*
X195175076Y-87984974D01*
X195290801Y-87890001D01*
X195314604Y-87860997D01*
X196643601Y-86532001D01*
X196643601Y-87955888D01*
X196599663Y-87999826D01*
X196486395Y-88169344D01*
X196408374Y-88357702D01*
X196368600Y-88557661D01*
X196368600Y-88761539D01*
X196408374Y-88961498D01*
X196486395Y-89149856D01*
X196599663Y-89319374D01*
X196743826Y-89463537D01*
X196913344Y-89576805D01*
X197101702Y-89654826D01*
X197301661Y-89694600D01*
X197505539Y-89694600D01*
X197705498Y-89654826D01*
X197893856Y-89576805D01*
X198063374Y-89463537D01*
X198207537Y-89319374D01*
X198320805Y-89149856D01*
X198398826Y-88961498D01*
X198438600Y-88761539D01*
X198438600Y-88557661D01*
X198398826Y-88357702D01*
X198320805Y-88169344D01*
X198207537Y-87999826D01*
X198163600Y-87955889D01*
X198163600Y-82801061D01*
X198276063Y-82969374D01*
X198420226Y-83113537D01*
X198589744Y-83226805D01*
X198778102Y-83304826D01*
X198978061Y-83344600D01*
X199181939Y-83344600D01*
X199381898Y-83304826D01*
X199570256Y-83226805D01*
X199739774Y-83113537D01*
X199883937Y-82969374D01*
X199997205Y-82799856D01*
X200075226Y-82611498D01*
X200115000Y-82411539D01*
X200115000Y-82349401D01*
X201521403Y-80942999D01*
X201550401Y-80919201D01*
X201645374Y-80803476D01*
X201715946Y-80671447D01*
X201759403Y-80528186D01*
X201770400Y-80416533D01*
X201770400Y-80416523D01*
X201774076Y-80379200D01*
X201770400Y-80341877D01*
X201770400Y-74536861D01*
X202363000Y-74536861D01*
X202363000Y-74740739D01*
X202402774Y-74940698D01*
X202480795Y-75129056D01*
X202594063Y-75298574D01*
X202638000Y-75342511D01*
X202638001Y-90346896D01*
X202531595Y-90506144D01*
X202453574Y-90694502D01*
X202413800Y-90894461D01*
X202413800Y-91098339D01*
X202453574Y-91298298D01*
X202531595Y-91486656D01*
X202644863Y-91656174D01*
X202789026Y-91800337D01*
X202958544Y-91913605D01*
X203146902Y-91991626D01*
X203346861Y-92031400D01*
X203550739Y-92031400D01*
X203750698Y-91991626D01*
X203853818Y-91948912D01*
X203875974Y-92060298D01*
X203953995Y-92248656D01*
X204067263Y-92418174D01*
X204211426Y-92562337D01*
X204380944Y-92675605D01*
X204569302Y-92753626D01*
X204769261Y-92793400D01*
X204973139Y-92793400D01*
X205173098Y-92753626D01*
X205361456Y-92675605D01*
X205530974Y-92562337D01*
X205675137Y-92418174D01*
X205788405Y-92248656D01*
X205866426Y-92060298D01*
X205906200Y-91860339D01*
X205906200Y-91656461D01*
X205866426Y-91456502D01*
X205788405Y-91268144D01*
X205675137Y-91098626D01*
X205631200Y-91054689D01*
X205631200Y-86698233D01*
X205750174Y-86618737D01*
X205894337Y-86474574D01*
X206007605Y-86305056D01*
X206085626Y-86116698D01*
X206125400Y-85916739D01*
X206125400Y-85712861D01*
X206085626Y-85512902D01*
X206007605Y-85324544D01*
X205894337Y-85155026D01*
X205750174Y-85010863D01*
X205580656Y-84897595D01*
X205392298Y-84819574D01*
X205192339Y-84779800D01*
X204988461Y-84779800D01*
X204788502Y-84819574D01*
X204600144Y-84897595D01*
X204430626Y-85010863D01*
X204286463Y-85155026D01*
X204173195Y-85324544D01*
X204158000Y-85361228D01*
X204158000Y-79464461D01*
X204293400Y-79464461D01*
X204293400Y-79668339D01*
X204333174Y-79868298D01*
X204411195Y-80056656D01*
X204524463Y-80226174D01*
X204668626Y-80370337D01*
X204838144Y-80483605D01*
X205026502Y-80561626D01*
X205226461Y-80601400D01*
X205430339Y-80601400D01*
X205630298Y-80561626D01*
X205818656Y-80483605D01*
X205988174Y-80370337D01*
X206132337Y-80226174D01*
X206245605Y-80056656D01*
X206323626Y-79868298D01*
X206363400Y-79668339D01*
X206363400Y-79464461D01*
X206323626Y-79264502D01*
X206245605Y-79076144D01*
X206132337Y-78906626D01*
X206088400Y-78862689D01*
X206088400Y-74631311D01*
X206183137Y-74536574D01*
X206296405Y-74367056D01*
X206374426Y-74178698D01*
X206414200Y-73978739D01*
X206414200Y-73774861D01*
X206374426Y-73574902D01*
X206296405Y-73386544D01*
X206183137Y-73217026D01*
X206038974Y-73072863D01*
X205869456Y-72959595D01*
X205681098Y-72881574D01*
X205481139Y-72841800D01*
X205277261Y-72841800D01*
X205077302Y-72881574D01*
X204888944Y-72959595D01*
X204719426Y-73072863D01*
X204575263Y-73217026D01*
X204461995Y-73386544D01*
X204383974Y-73574902D01*
X204344200Y-73774861D01*
X204344200Y-73978739D01*
X204383974Y-74178698D01*
X204461995Y-74367056D01*
X204568401Y-74526304D01*
X204568400Y-78862689D01*
X204524463Y-78906626D01*
X204411195Y-79076144D01*
X204333174Y-79264502D01*
X204293400Y-79464461D01*
X204158000Y-79464461D01*
X204158000Y-75342511D01*
X204201937Y-75298574D01*
X204315205Y-75129056D01*
X204393226Y-74940698D01*
X204433000Y-74740739D01*
X204433000Y-74536861D01*
X204393226Y-74336902D01*
X204315205Y-74148544D01*
X204201937Y-73979026D01*
X204057774Y-73834863D01*
X203888256Y-73721595D01*
X203699898Y-73643574D01*
X203499939Y-73603800D01*
X203296061Y-73603800D01*
X203096102Y-73643574D01*
X202907744Y-73721595D01*
X202738226Y-73834863D01*
X202594063Y-73979026D01*
X202480795Y-74148544D01*
X202402774Y-74336902D01*
X202363000Y-74536861D01*
X201770400Y-74536861D01*
X201770400Y-71938911D01*
X201814337Y-71894974D01*
X201927605Y-71725456D01*
X202005626Y-71537098D01*
X202045400Y-71337139D01*
X202045400Y-71133261D01*
X202005626Y-70933302D01*
X201927605Y-70744944D01*
X201814337Y-70575426D01*
X201670174Y-70431263D01*
X201500656Y-70317995D01*
X201312298Y-70239974D01*
X201112339Y-70200200D01*
X200908461Y-70200200D01*
X200708502Y-70239974D01*
X200520144Y-70317995D01*
X200350626Y-70431263D01*
X200206463Y-70575426D01*
X200093195Y-70744944D01*
X200015174Y-70933302D01*
X199975400Y-71133261D01*
X199975400Y-71337139D01*
X200015174Y-71537098D01*
X200093195Y-71725456D01*
X200206463Y-71894974D01*
X200250400Y-71938911D01*
X200250400Y-74401340D01*
X200137937Y-74233026D01*
X199993774Y-74088863D01*
X199824256Y-73975595D01*
X199635898Y-73897574D01*
X199435939Y-73857800D01*
X199232061Y-73857800D01*
X199032102Y-73897574D01*
X198843744Y-73975595D01*
X198674226Y-74088863D01*
X198530063Y-74233026D01*
X198416795Y-74402544D01*
X198338774Y-74590902D01*
X198299000Y-74790861D01*
X198299000Y-74852998D01*
X197046000Y-76105999D01*
X197046000Y-71284488D01*
X197049676Y-71247165D01*
X197046000Y-71209842D01*
X197046000Y-71209833D01*
X197035003Y-71098180D01*
X196991546Y-70954919D01*
X196920974Y-70822890D01*
X196826001Y-70707165D01*
X196797004Y-70683368D01*
X193840637Y-67727002D01*
X193840633Y-67726997D01*
X188302638Y-62189003D01*
X188278835Y-62159999D01*
X188163110Y-62065026D01*
X188031081Y-61994454D01*
X187887820Y-61950997D01*
X187776167Y-61940000D01*
X187776156Y-61940000D01*
X187738834Y-61936324D01*
X187701512Y-61940000D01*
X185768712Y-61940000D01*
X185520414Y-60691719D01*
X185001408Y-59438729D01*
X184247929Y-58311068D01*
X183288932Y-57352071D01*
X182161271Y-56598592D01*
X180908281Y-56079586D01*
X179578113Y-55815000D01*
X178221887Y-55815000D01*
X176891719Y-56079586D01*
X175638729Y-56598592D01*
X174511068Y-57352071D01*
X173552071Y-58311068D01*
X172798592Y-59438729D01*
X172279586Y-60691719D01*
X172015000Y-62021887D01*
X170785000Y-62021887D01*
X170520414Y-60691719D01*
X170001408Y-59438729D01*
X169247929Y-58311068D01*
X168288932Y-57352071D01*
X167161271Y-56598592D01*
X165908281Y-56079586D01*
X164578113Y-55815000D01*
X163221887Y-55815000D01*
X161891719Y-56079586D01*
X160638729Y-56598592D01*
X159511068Y-57352071D01*
X158552071Y-58311068D01*
X157798592Y-59438729D01*
X157279586Y-60691719D01*
X157015000Y-62021887D01*
X157015000Y-63378113D01*
X157279586Y-64708281D01*
X157798592Y-65961271D01*
X158505686Y-67019512D01*
X157139004Y-68386195D01*
X157110000Y-68409998D01*
X157063570Y-68466574D01*
X157015027Y-68525723D01*
X156965155Y-68619026D01*
X156944455Y-68657753D01*
X156900998Y-68801014D01*
X156890001Y-68912667D01*
X156890001Y-68912677D01*
X156886325Y-68949999D01*
X156890001Y-68987321D01*
X156890002Y-82447469D01*
X156886325Y-82484801D01*
X156900999Y-82633786D01*
X156944455Y-82777047D01*
X157015027Y-82909077D01*
X157086202Y-82995803D01*
X157110001Y-83024802D01*
X157138999Y-83048600D01*
X159407200Y-85316802D01*
X159407201Y-87905088D01*
X159363263Y-87949026D01*
X159249995Y-88118544D01*
X159171974Y-88306902D01*
X159132200Y-88506861D01*
X159132200Y-88710739D01*
X159171974Y-88910698D01*
X159216089Y-89017200D01*
X158719998Y-89017200D01*
X158685137Y-88965026D01*
X158540974Y-88820863D01*
X158371456Y-88707595D01*
X158183098Y-88629574D01*
X157983139Y-88589800D01*
X157779261Y-88589800D01*
X157579302Y-88629574D01*
X157390944Y-88707595D01*
X157221426Y-88820863D01*
X157077263Y-88965026D01*
X156963995Y-89134544D01*
X156885974Y-89322902D01*
X156846200Y-89522861D01*
X142564036Y-89522861D01*
X142530737Y-89473026D01*
X142386574Y-89328863D01*
X142217056Y-89215595D01*
X142028698Y-89137574D01*
X141828739Y-89097800D01*
X141766601Y-89097800D01*
X141674000Y-89005199D01*
X141674000Y-78590157D01*
X141677676Y-78552834D01*
X141674000Y-78515511D01*
X141674000Y-78515501D01*
X141663003Y-78403848D01*
X141619546Y-78260587D01*
X141585881Y-78197605D01*
X141548974Y-78128557D01*
X141477799Y-78041831D01*
X141454001Y-78012833D01*
X141425004Y-77989036D01*
X134660000Y-71224033D01*
X134660000Y-69568712D01*
X135908281Y-69320414D01*
X137161271Y-68801408D01*
X138288932Y-68047929D01*
X139247929Y-67088932D01*
X140001408Y-65961271D01*
X140520414Y-64708281D01*
X140785000Y-63378113D01*
X140785000Y-62021887D01*
X140520414Y-60691719D01*
X140001408Y-59438729D01*
X139247929Y-58311068D01*
X138288932Y-57352071D01*
X137161271Y-56598592D01*
X135908281Y-56079586D01*
X134578113Y-55815000D01*
X133221887Y-55815000D01*
X131891719Y-56079586D01*
X130638729Y-56598592D01*
X129511068Y-57352071D01*
X128552071Y-58311068D01*
X127798592Y-59438729D01*
X127279586Y-60691719D01*
X127196000Y-61111936D01*
X127196000Y-58724933D01*
X127199677Y-58687600D01*
X127185003Y-58538614D01*
X127141546Y-58395353D01*
X127070974Y-58263324D01*
X126999799Y-58176597D01*
X126976001Y-58147599D01*
X126947004Y-58123802D01*
X121012594Y-52189393D01*
X120988791Y-52160389D01*
X120873066Y-52065416D01*
X120741037Y-51994844D01*
X120597776Y-51951387D01*
X120486123Y-51940390D01*
X120486112Y-51940390D01*
X120448790Y-51936714D01*
X120411468Y-51940390D01*
X71246532Y-51940390D01*
X71209209Y-51936714D01*
X71171886Y-51940390D01*
X71171877Y-51940390D01*
X71060224Y-51951387D01*
X70916963Y-51994844D01*
X70784933Y-52065416D01*
X70701293Y-52134058D01*
X70669209Y-52160389D01*
X70645411Y-52189387D01*
X67722199Y-55112600D01*
X67660061Y-55112600D01*
X67460102Y-55152374D01*
X67271744Y-55230395D01*
X67102226Y-55343663D01*
X66958063Y-55487826D01*
X66844795Y-55657344D01*
X66766774Y-55845702D01*
X66727000Y-56045661D01*
X60737728Y-56045661D01*
X59578113Y-55815000D01*
X58221887Y-55815000D01*
X56891719Y-56079586D01*
X55638729Y-56598592D01*
X54511068Y-57352071D01*
X53552071Y-58311068D01*
X52798592Y-59438729D01*
X52279586Y-60691719D01*
X52015000Y-62021887D01*
X29560000Y-62021887D01*
X29560000Y-50465098D01*
X36515000Y-50465098D01*
X36515000Y-50934902D01*
X36606654Y-51395679D01*
X36786440Y-51829721D01*
X37047450Y-52220349D01*
X37379651Y-52552550D01*
X37770279Y-52813560D01*
X38204321Y-52993346D01*
X38665098Y-53085000D01*
X39134902Y-53085000D01*
X39595679Y-52993346D01*
X40029721Y-52813560D01*
X40420349Y-52552550D01*
X40752550Y-52220349D01*
X41013560Y-51829721D01*
X41193346Y-51395679D01*
X41285000Y-50934902D01*
X41285000Y-50465098D01*
X141015000Y-50465098D01*
X141015000Y-50934902D01*
X141106654Y-51395679D01*
X141286440Y-51829721D01*
X141547450Y-52220349D01*
X141879651Y-52552550D01*
X142270279Y-52813560D01*
X142704321Y-52993346D01*
X143165098Y-53085000D01*
X143634902Y-53085000D01*
X144095679Y-52993346D01*
X144529721Y-52813560D01*
X144920349Y-52552550D01*
X145252550Y-52220349D01*
X145513560Y-51829721D01*
X145693346Y-51395679D01*
X145785000Y-50934902D01*
X145785000Y-50465098D01*
X245515000Y-50465098D01*
X245515000Y-50934902D01*
X245606654Y-51395679D01*
X245786440Y-51829721D01*
X246047450Y-52220349D01*
X246379651Y-52552550D01*
X246770279Y-52813560D01*
X247204321Y-52993346D01*
X247665098Y-53085000D01*
X248134902Y-53085000D01*
X248595679Y-52993346D01*
X249029721Y-52813560D01*
X249420349Y-52552550D01*
X249752550Y-52220349D01*
X250013560Y-51829721D01*
X250193346Y-51395679D01*
X250285000Y-50934902D01*
X250285000Y-50465098D01*
X250193346Y-50004321D01*
X250013560Y-49570279D01*
X249752550Y-49179651D01*
X249420349Y-48847450D01*
X249029721Y-48586440D01*
X248595679Y-48406654D01*
X248134902Y-48315000D01*
X247665098Y-48315000D01*
X247204321Y-48406654D01*
X246770279Y-48586440D01*
X246379651Y-48847450D01*
X246047450Y-49179651D01*
X245786440Y-49570279D01*
X245606654Y-50004321D01*
X245515000Y-50465098D01*
X145785000Y-50465098D01*
X145693346Y-50004321D01*
X145513560Y-49570279D01*
X145252550Y-49179651D01*
X144920349Y-48847450D01*
X144529721Y-48586440D01*
X144095679Y-48406654D01*
X143634902Y-48315000D01*
X143165098Y-48315000D01*
X142704321Y-48406654D01*
X142270279Y-48586440D01*
X141879651Y-48847450D01*
X141547450Y-49179651D01*
X141286440Y-49570279D01*
X141106654Y-50004321D01*
X141015000Y-50465098D01*
X41285000Y-50465098D01*
X41193346Y-50004321D01*
X41013560Y-49570279D01*
X40752550Y-49179651D01*
X40420349Y-48847450D01*
X40029721Y-48586440D01*
X39595679Y-48406654D01*
X39134902Y-48315000D01*
X38665098Y-48315000D01*
X38204321Y-48406654D01*
X37770279Y-48586440D01*
X37379651Y-48847450D01*
X37047450Y-49179651D01*
X36786440Y-49570279D01*
X36606654Y-50004321D01*
X36515000Y-50465098D01*
X29560000Y-50465098D01*
X29560000Y-41360000D01*
X257240001Y-41360000D01*
X257240000Y-144540000D01*
G36*
X117445026Y-85399537D02*
G01*
X117614544Y-85512805D01*
X117802902Y-85590826D01*
X118002861Y-85630600D01*
X118140001Y-85630600D01*
X118140001Y-85831288D01*
X116891719Y-86079586D01*
X115638729Y-86598592D01*
X114511068Y-87352071D01*
X113552071Y-88311068D01*
X112798592Y-89438729D01*
X112616400Y-89878579D01*
X112616400Y-87145601D01*
X114406402Y-85355600D01*
X117401089Y-85355600D01*
X117445026Y-85399537D01*
G37*
X117445026Y-85399537D02*
X117614544Y-85512805D01*
X117802902Y-85590826D01*
X118002861Y-85630600D01*
X118140001Y-85630600D01*
X118140001Y-85831288D01*
X116891719Y-86079586D01*
X115638729Y-86598592D01*
X114511068Y-87352071D01*
X113552071Y-88311068D01*
X112798592Y-89438729D01*
X112616400Y-89878579D01*
X112616400Y-87145601D01*
X114406402Y-85355600D01*
X117401089Y-85355600D01*
X117445026Y-85399537D01*
M02*
